%TF.GenerationSoftware,KiCad,Pcbnew,7.0.6-7.0.6~ubuntu22.04.1*%
%TF.CreationDate,2023-08-05T22:40:18+01:00*%
%TF.ProjectId,working,776f726b-696e-4672-9e6b-696361645f70,rev?*%
%TF.SameCoordinates,Original*%
%TF.FileFunction,Soldermask,Top*%
%TF.FilePolarity,Negative*%
%FSLAX46Y46*%
G04 Gerber Fmt 4.6, Leading zero omitted, Abs format (unit mm)*
G04 Created by KiCad (PCBNEW 7.0.6-7.0.6~ubuntu22.04.1) date 2023-08-05 22:40:18*
%MOMM*%
%LPD*%
G01*
G04 APERTURE LIST*
G04 Aperture macros list*
%AMRoundRect*
0 Rectangle with rounded corners*
0 $1 Rounding radius*
0 $2 $3 $4 $5 $6 $7 $8 $9 X,Y pos of 4 corners*
0 Add a 4 corners polygon primitive as box body*
4,1,4,$2,$3,$4,$5,$6,$7,$8,$9,$2,$3,0*
0 Add four circle primitives for the rounded corners*
1,1,$1+$1,$2,$3*
1,1,$1+$1,$4,$5*
1,1,$1+$1,$6,$7*
1,1,$1+$1,$8,$9*
0 Add four rect primitives between the rounded corners*
20,1,$1+$1,$2,$3,$4,$5,0*
20,1,$1+$1,$4,$5,$6,$7,0*
20,1,$1+$1,$6,$7,$8,$9,0*
20,1,$1+$1,$8,$9,$2,$3,0*%
G04 Aperture macros list end*
%ADD10C,0.500000*%
%ADD11RoundRect,0.050800X0.625000X0.250000X-0.625000X0.250000X-0.625000X-0.250000X0.625000X-0.250000X0*%
%ADD12RoundRect,0.050800X-0.537500X-0.500000X0.537500X-0.500000X0.537500X0.500000X-0.537500X0.500000X0*%
%ADD13RoundRect,0.050800X0.500000X-0.537500X0.500000X0.537500X-0.500000X0.537500X-0.500000X-0.537500X0*%
%ADD14RoundRect,0.050800X-0.450000X0.225000X-0.450000X-0.225000X0.450000X-0.225000X0.450000X0.225000X0*%
%ADD15C,4.317600*%
%ADD16RoundRect,0.050800X-0.600000X-0.600000X0.600000X-0.600000X0.600000X0.600000X-0.600000X0.600000X0*%
%ADD17RoundRect,0.050800X0.317500X0.508000X-0.317500X0.508000X-0.317500X-0.508000X0.317500X-0.508000X0*%
%ADD18RoundRect,0.050800X0.250000X-0.625000X0.250000X0.625000X-0.250000X0.625000X-0.250000X-0.625000X0*%
%ADD19RoundRect,0.050800X-0.250000X0.250000X-0.250000X-0.250000X0.250000X-0.250000X0.250000X0.250000X0*%
%ADD20RoundRect,0.050800X-0.250000X0.200000X-0.250000X-0.200000X0.250000X-0.200000X0.250000X0.200000X0*%
%ADD21C,2.400000*%
%ADD22RoundRect,0.050800X-0.249519X-1.067820X1.049519X-0.317820X0.249519X1.067820X-1.049519X0.317820X0*%
%ADD23C,1.000000*%
%ADD24RoundRect,0.050800X-0.500000X-0.750000X0.500000X-0.750000X0.500000X0.750000X-0.500000X0.750000X0*%
%ADD25RoundRect,0.050800X-2.300000X0.500000X-2.300000X-0.500000X2.300000X-0.500000X2.300000X0.500000X0*%
%ADD26RoundRect,0.050800X-1.700000X-0.850000X1.700000X-0.850000X1.700000X0.850000X-1.700000X0.850000X0*%
%ADD27RoundRect,0.050800X0.537500X0.500000X-0.537500X0.500000X-0.537500X-0.500000X0.537500X-0.500000X0*%
%ADD28C,2.540000*%
%ADD29RoundRect,0.050800X-0.350000X-0.110000X0.350000X-0.110000X0.350000X0.110000X-0.350000X0.110000X0*%
%ADD30RoundRect,0.050800X0.110000X-0.350000X0.110000X0.350000X-0.110000X0.350000X-0.110000X-0.350000X0*%
%ADD31RoundRect,0.050800X0.350000X0.110000X-0.350000X0.110000X-0.350000X-0.110000X0.350000X-0.110000X0*%
%ADD32RoundRect,0.050800X-0.110000X0.350000X-0.110000X-0.350000X0.110000X-0.350000X0.110000X0.350000X0*%
%ADD33RoundRect,0.050800X-2.350000X-2.350000X2.350000X-2.350000X2.350000X2.350000X-2.350000X2.350000X0*%
%ADD34RoundRect,0.050800X-0.275000X-0.600000X0.275000X-0.600000X0.275000X0.600000X-0.275000X0.600000X0*%
%ADD35RoundRect,0.050800X0.600000X-0.275000X0.600000X0.275000X-0.600000X0.275000X-0.600000X-0.275000X0*%
%ADD36RoundRect,0.050800X-0.750000X0.620000X-0.750000X-0.620000X0.750000X-0.620000X0.750000X0.620000X0*%
%ADD37RoundRect,0.050800X0.620000X0.750000X-0.620000X0.750000X-0.620000X-0.750000X0.620000X-0.750000X0*%
%ADD38RoundRect,0.050800X-0.125000X0.137500X-0.125000X-0.137500X0.125000X-0.137500X0.125000X0.137500X0*%
%ADD39RoundRect,0.050800X-0.137500X-0.125000X0.137500X-0.125000X0.137500X0.125000X-0.137500X0.125000X0*%
%ADD40RoundRect,0.050800X0.125000X-0.137500X0.125000X0.137500X-0.125000X0.137500X-0.125000X-0.137500X0*%
%ADD41RoundRect,0.050800X0.137500X0.125000X-0.137500X0.125000X-0.137500X-0.125000X0.137500X-0.125000X0*%
%ADD42RoundRect,0.050800X-0.500000X0.537500X-0.500000X-0.537500X0.500000X-0.537500X0.500000X0.537500X0*%
%ADD43RoundRect,0.550800X0.000000X0.000000X0.000000X0.000000X0.000000X0.000000X0.000000X0.000000X0*%
%ADD44C,3.175000*%
%ADD45RoundRect,0.050800X0.700000X-0.700000X0.700000X0.700000X-0.700000X0.700000X-0.700000X-0.700000X0*%
%ADD46RoundRect,0.050800X-0.625000X-0.250000X0.625000X-0.250000X0.625000X0.250000X-0.625000X0.250000X0*%
%ADD47RoundRect,0.050800X0.450000X-0.225000X0.450000X0.225000X-0.450000X0.225000X-0.450000X-0.225000X0*%
%ADD48RoundRect,0.800800X0.000000X0.000000X0.000000X0.000000X0.000000X0.000000X0.000000X0.000000X0*%
%ADD49RoundRect,0.050800X2.300000X-0.500000X2.300000X0.500000X-2.300000X0.500000X-2.300000X-0.500000X0*%
%ADD50RoundRect,0.050800X1.700000X0.800000X-1.700000X0.800000X-1.700000X-0.800000X1.700000X-0.800000X0*%
%ADD51C,0.700000*%
%ADD52RoundRect,0.050800X-0.500000X1.000000X-0.500000X-1.000000X0.500000X-1.000000X0.500000X1.000000X0*%
%ADD53O,2.387600X1.244600*%
%ADD54RoundRect,0.050800X-1.206500X1.206500X-1.206500X-1.206500X1.206500X-1.206500X1.206500X1.206500X0*%
%ADD55RoundRect,0.050800X0.600000X0.600000X-0.600000X0.600000X-0.600000X-0.600000X0.600000X-0.600000X0*%
%ADD56RoundRect,0.050800X-0.675000X-0.400000X0.675000X-0.400000X0.675000X0.400000X-0.675000X0.400000X0*%
%ADD57RoundRect,0.050800X-0.800000X0.400000X-0.800000X-0.400000X0.800000X-0.400000X0.800000X0.400000X0*%
%ADD58RoundRect,0.050800X-1.500000X-1.050000X1.500000X-1.050000X1.500000X1.050000X-1.500000X1.050000X0*%
%ADD59RoundRect,0.050800X-1.700000X-0.800000X1.700000X-0.800000X1.700000X0.800000X-1.700000X0.800000X0*%
%ADD60RoundRect,0.050800X-1.270000X-0.762000X1.270000X-0.762000X1.270000X0.762000X-1.270000X0.762000X0*%
%ADD61RoundRect,0.050800X1.270000X0.762000X-1.270000X0.762000X-1.270000X-0.762000X1.270000X-0.762000X0*%
%ADD62RoundRect,0.050800X1.524000X0.762000X-1.524000X0.762000X-1.524000X-0.762000X1.524000X-0.762000X0*%
%ADD63RoundRect,0.050800X-1.524000X-0.762000X1.524000X-0.762000X1.524000X0.762000X-1.524000X0.762000X0*%
%ADD64RoundRect,0.050800X0.500000X0.600000X-0.500000X0.600000X-0.500000X-0.600000X0.500000X-0.600000X0*%
%ADD65RoundRect,0.050800X-1.100000X0.300000X-1.100000X-0.300000X1.100000X-0.300000X1.100000X0.300000X0*%
%ADD66RoundRect,0.050800X0.675000X0.400000X-0.675000X0.400000X-0.675000X-0.400000X0.675000X-0.400000X0*%
%ADD67RoundRect,0.050800X0.636396X0.000000X0.000000X0.636396X-0.636396X0.000000X0.000000X-0.636396X0*%
%ADD68C,3.301600*%
%ADD69RoundRect,0.050800X0.750000X-0.620000X0.750000X0.620000X-0.750000X0.620000X-0.750000X-0.620000X0*%
G04 APERTURE END LIST*
%TO.C,TP28*%
G36*
X152120060Y-130282707D02*
G01*
X152432338Y-130339935D01*
X152735440Y-130434385D01*
X153024948Y-130564682D01*
X153296639Y-130728925D01*
X153546553Y-130924720D01*
X153771043Y-131149210D01*
X153966838Y-131399124D01*
X154131081Y-131670815D01*
X154261378Y-131960323D01*
X154355828Y-132263425D01*
X154413056Y-132575703D01*
X154432062Y-132889915D01*
X154432062Y-135051501D01*
X149174262Y-135051501D01*
X149174262Y-132889915D01*
X149193268Y-132575703D01*
X149250496Y-132263425D01*
X149344946Y-131960323D01*
X149475243Y-131670815D01*
X149639486Y-131399124D01*
X149835281Y-131149210D01*
X150059771Y-130924720D01*
X150309685Y-130728925D01*
X150581376Y-130564682D01*
X150870884Y-130434385D01*
X151173986Y-130339935D01*
X151486264Y-130282707D01*
X151803162Y-130263539D01*
X152120060Y-130282707D01*
G37*
%TO.C,TP4*%
G36*
X145643060Y-130219207D02*
G01*
X145955338Y-130276435D01*
X146258440Y-130370885D01*
X146547948Y-130501182D01*
X146819639Y-130665425D01*
X147069553Y-130861220D01*
X147294043Y-131085710D01*
X147489838Y-131335624D01*
X147654081Y-131607315D01*
X147784378Y-131896823D01*
X147878828Y-132199925D01*
X147936056Y-132512203D01*
X147955062Y-132826415D01*
X147955062Y-134988001D01*
X142697262Y-134988001D01*
X142697262Y-132826415D01*
X142716268Y-132512203D01*
X142773496Y-132199925D01*
X142867946Y-131896823D01*
X142998243Y-131607315D01*
X143162486Y-131335624D01*
X143358281Y-131085710D01*
X143582771Y-130861220D01*
X143832685Y-130665425D01*
X144104376Y-130501182D01*
X144393884Y-130370885D01*
X144696986Y-130276435D01*
X145009264Y-130219207D01*
X145326162Y-130200039D01*
X145643060Y-130219207D01*
G37*
D10*
%TO.C,U$34*%
X128117662Y-83604601D02*
G75*
G03*
X128867662Y-82854601I0J750000D01*
G01*
X127367662Y-82854601D02*
G75*
G03*
X128117662Y-83604601I750000J0D01*
G01*
X128867662Y-82854601D02*
G75*
G03*
X128117662Y-82104601I-750000J0D01*
G01*
X128117662Y-82104601D02*
G75*
G03*
X127367662Y-82854601I0J-750000D01*
G01*
%TO.C,TP3*%
G36*
X138848560Y-126790207D02*
G01*
X139160838Y-126847435D01*
X139463940Y-126941885D01*
X139753448Y-127072182D01*
X140025139Y-127236425D01*
X140275053Y-127432220D01*
X140499543Y-127656710D01*
X140695338Y-127906624D01*
X140859581Y-128178315D01*
X140989878Y-128467823D01*
X141084328Y-128770925D01*
X141141556Y-129083203D01*
X141160562Y-129397415D01*
X141160562Y-135369001D01*
X135902762Y-135369001D01*
X135902762Y-129397415D01*
X135921768Y-129083203D01*
X135978996Y-128770925D01*
X136073446Y-128467823D01*
X136203743Y-128178315D01*
X136367986Y-127906624D01*
X136563781Y-127656710D01*
X136788271Y-127432220D01*
X137038185Y-127236425D01*
X137309876Y-127072182D01*
X137599384Y-126941885D01*
X137902486Y-126847435D01*
X138214764Y-126790207D01*
X138531662Y-126771039D01*
X138848560Y-126790207D01*
G37*
%TO.C,X2*%
G36*
X150051162Y-80925601D02*
G01*
X149551162Y-80925601D01*
X149551162Y-79475601D01*
X150051162Y-79475601D01*
X150051162Y-80925601D01*
G37*
G36*
X149401162Y-80925601D02*
G01*
X148901162Y-80925601D01*
X148901162Y-79475601D01*
X149401162Y-79475601D01*
X149401162Y-80925601D01*
G37*
G36*
X148751162Y-80925601D02*
G01*
X148251162Y-80925601D01*
X148251162Y-79475601D01*
X148751162Y-79475601D01*
X148751162Y-80925601D01*
G37*
G36*
X148101162Y-80925601D02*
G01*
X147601162Y-80925601D01*
X147601162Y-79475601D01*
X148101162Y-79475601D01*
X148101162Y-80925601D01*
G37*
G36*
X147451162Y-80925601D02*
G01*
X146951162Y-80925601D01*
X146951162Y-79475601D01*
X147451162Y-79475601D01*
X147451162Y-80925601D01*
G37*
%TO.C,TP29*%
G36*
X158851060Y-126790207D02*
G01*
X159163338Y-126847435D01*
X159466440Y-126941885D01*
X159755948Y-127072182D01*
X160027639Y-127236425D01*
X160277553Y-127432220D01*
X160502043Y-127656710D01*
X160697838Y-127906624D01*
X160862081Y-128178315D01*
X160992378Y-128467823D01*
X161086828Y-128770925D01*
X161144056Y-129083203D01*
X161163062Y-129397415D01*
X161163062Y-135369001D01*
X155905262Y-135369001D01*
X155905262Y-129397415D01*
X155924268Y-129083203D01*
X155981496Y-128770925D01*
X156075946Y-128467823D01*
X156206243Y-128178315D01*
X156370486Y-127906624D01*
X156566281Y-127656710D01*
X156790771Y-127432220D01*
X157040685Y-127236425D01*
X157312376Y-127072182D01*
X157601884Y-126941885D01*
X157904986Y-126847435D01*
X158217264Y-126790207D01*
X158534162Y-126771039D01*
X158851060Y-126790207D01*
G37*
%TO.C,SJ2*%
G36*
X171602462Y-89522101D02*
G01*
X167436862Y-89522101D01*
X167436862Y-87744101D01*
X171602462Y-87744101D01*
X171602462Y-89522101D01*
G37*
%TO.C,U$35*%
X155747162Y-125625301D02*
G75*
G03*
X156497162Y-124875301I0J750000D01*
G01*
X154997162Y-124875301D02*
G75*
G03*
X155747162Y-125625301I750000J0D01*
G01*
X156497162Y-124875301D02*
G75*
G03*
X155747162Y-124125301I-750000J0D01*
G01*
X155747162Y-124125301D02*
G75*
G03*
X154997162Y-124875301I0J-750000D01*
G01*
%TD*%
D11*
%TO.C,LED2*%
X171754162Y-104093601D03*
X171754162Y-103243601D03*
X171754162Y-102343601D03*
X171754162Y-101493601D03*
%TD*%
D12*
%TO.C,R24*%
X130569662Y-93713101D03*
X132269662Y-93713101D03*
%TD*%
D13*
%TO.C,R2*%
X145326162Y-129107101D03*
X145326162Y-127407101D03*
%TD*%
D14*
%TO.C,R27*%
X150064162Y-120353101D03*
X150064162Y-121253101D03*
X150064162Y-122053101D03*
X150064162Y-122953101D03*
X151764162Y-122953101D03*
X151764162Y-122053101D03*
X151764162Y-121253101D03*
X151764162Y-120353101D03*
%TD*%
D15*
%TO.C,TP28*%
X151803162Y-132511601D03*
%TD*%
D13*
%TO.C,R4*%
X151803162Y-129107101D03*
X151803162Y-127407101D03*
%TD*%
D16*
%TO.C,L1*%
X154239662Y-78358101D03*
X154239662Y-76258101D03*
%TD*%
D17*
%TO.C,Q6*%
X152435662Y-83886601D03*
X150535662Y-83886601D03*
X151485662Y-85886601D03*
%TD*%
D18*
%TO.C,LED3*%
X129421162Y-118807601D03*
X130271162Y-118807601D03*
X131171162Y-118807601D03*
X132021162Y-118807601D03*
%TD*%
D19*
%TO.C,Q7*%
X152744662Y-121347601D03*
D20*
X152744662Y-122097601D03*
D19*
X152744662Y-122847601D03*
X154544662Y-122847601D03*
D20*
X154544662Y-122097601D03*
D19*
X154544662Y-121347601D03*
%TD*%
D21*
%TO.C,U4*%
X134827978Y-77576398D03*
D22*
X133269132Y-78476398D03*
X136386824Y-76676398D03*
%TD*%
D23*
%TO.C,SW1*%
X144080162Y-122796101D03*
X147080162Y-122796101D03*
D24*
X143080162Y-119996101D03*
X143080162Y-125596101D03*
X145580162Y-119996101D03*
X145580162Y-125596101D03*
X148080162Y-119996101D03*
X148080162Y-125596101D03*
%TD*%
D25*
%TO.C,I2C1*%
X166645162Y-108810601D03*
X166645162Y-110810601D03*
X166645162Y-112810601D03*
X166645162Y-114810601D03*
D26*
X171845162Y-106110601D03*
X171845162Y-117510601D03*
%TD*%
D27*
%TO.C,R10*%
X156272662Y-80314601D03*
X154572662Y-80314601D03*
%TD*%
D12*
%TO.C,C25*%
X157747662Y-80378101D03*
X159447662Y-80378101D03*
%TD*%
D28*
%TO.C,@HOLE0*%
X157391162Y-122986601D03*
%TD*%
D29*
%TO.C,U$63*%
X143797162Y-100186601D03*
X143797162Y-100686601D03*
X143797162Y-101186601D03*
X143797162Y-101686601D03*
X143797162Y-102186601D03*
X143797162Y-102686601D03*
X143797162Y-103186601D03*
X143797162Y-103686601D03*
X143797162Y-104186601D03*
X143797162Y-104686601D03*
X143797162Y-105186601D03*
X143797162Y-105686601D03*
X143797162Y-106186601D03*
X143797162Y-106686601D03*
X143797162Y-107186601D03*
X143797162Y-107686601D03*
D30*
X144497162Y-108386601D03*
X144997162Y-108386601D03*
X145497162Y-108386601D03*
X145997162Y-108386601D03*
X146497162Y-108386601D03*
X146997162Y-108386601D03*
X147497162Y-108386601D03*
X147997162Y-108386601D03*
X148497162Y-108386601D03*
X148997162Y-108386601D03*
X149497162Y-108386601D03*
X149997162Y-108386601D03*
X150497162Y-108386601D03*
X150997162Y-108386601D03*
X151497162Y-108386601D03*
X151997162Y-108386601D03*
D31*
X152697162Y-107686601D03*
X152697162Y-107186601D03*
X152697162Y-106686601D03*
X152697162Y-106186601D03*
X152697162Y-105686601D03*
X152697162Y-105186601D03*
X152697162Y-104686601D03*
X152697162Y-104186601D03*
X152697162Y-103686601D03*
X152697162Y-103186601D03*
X152697162Y-102686601D03*
X152697162Y-102186601D03*
X152697162Y-101686601D03*
X152697162Y-101186601D03*
X152697162Y-100686601D03*
X152697162Y-100186601D03*
D32*
X151997162Y-99486601D03*
X151497162Y-99486601D03*
X150997162Y-99486601D03*
X150497162Y-99486601D03*
X149997162Y-99486601D03*
X149497162Y-99486601D03*
X148997162Y-99486601D03*
X148497162Y-99486601D03*
X147997162Y-99486601D03*
X147497162Y-99486601D03*
X146997162Y-99486601D03*
X146497162Y-99486601D03*
X145997162Y-99486601D03*
X145497162Y-99486601D03*
X144997162Y-99486601D03*
X144497162Y-99486601D03*
D33*
X148247162Y-103936601D03*
%TD*%
D27*
%TO.C,R19*%
X137794162Y-79552601D03*
X136094162Y-79552601D03*
%TD*%
D34*
%TO.C,U7*%
X146535162Y-90441201D03*
X147485162Y-90441201D03*
X148435162Y-90441201D03*
X148435162Y-87841001D03*
X146535162Y-87841001D03*
%TD*%
D35*
%TO.C,U6*%
X154309762Y-92059601D03*
X154309762Y-91109601D03*
X154309762Y-90159601D03*
X151709562Y-90159601D03*
X151709562Y-92059601D03*
%TD*%
D36*
%TO.C,C30*%
X154343162Y-111559101D03*
X154343162Y-113459101D03*
%TD*%
D13*
%TO.C,C12*%
X150296162Y-91845101D03*
X150296162Y-90145101D03*
%TD*%
D17*
%TO.C,Q5*%
X152435662Y-86680601D03*
X150535662Y-86680601D03*
X151485662Y-88680601D03*
%TD*%
D36*
%TO.C,FB1*%
X131991162Y-84762101D03*
X131991162Y-86662101D03*
%TD*%
D27*
%TO.C,C23*%
X151446662Y-118732101D03*
X149746662Y-118732101D03*
%TD*%
D37*
%TO.C,C33*%
X132141062Y-89636401D03*
X130241062Y-89636401D03*
%TD*%
D38*
%TO.C,IC2*%
X153505662Y-116077101D03*
X153005662Y-116077101D03*
X152505662Y-116077101D03*
X152005662Y-116077101D03*
D39*
X152005662Y-116577101D03*
X152005662Y-117077101D03*
D40*
X152005662Y-117577101D03*
X152505662Y-117577101D03*
X153005662Y-117577101D03*
X153505662Y-117577101D03*
D41*
X153505662Y-117077101D03*
X153505662Y-116577101D03*
%TD*%
D27*
%TO.C,C24*%
X153288162Y-125082101D03*
X151588162Y-125082101D03*
%TD*%
%TO.C,R18*%
X167702662Y-101333101D03*
X166002662Y-101333101D03*
%TD*%
%TO.C,C32*%
X132142662Y-88061601D03*
X130442662Y-88061601D03*
%TD*%
D42*
%TO.C,R23*%
X127292162Y-101943601D03*
X127292162Y-103643601D03*
%TD*%
D34*
%TO.C,IC3*%
X129263162Y-97997601D03*
X130213162Y-97997601D03*
X131163162Y-97997601D03*
X131163162Y-95397601D03*
X130213162Y-95397601D03*
X129263162Y-95397601D03*
%TD*%
D27*
%TO.C,R26*%
X143572662Y-111366101D03*
X141872662Y-111366101D03*
%TD*%
D15*
%TO.C,TP4*%
X145326162Y-132448101D03*
%TD*%
D27*
%TO.C,R5*%
X155002662Y-127431601D03*
X153302662Y-127431601D03*
%TD*%
D43*
%TO.C,U$34*%
X128117662Y-82854601D03*
%TD*%
D42*
%TO.C,R11*%
X142214662Y-79718601D03*
X142214662Y-81418601D03*
%TD*%
D15*
%TO.C,TP3*%
X138531662Y-129019101D03*
%TD*%
D44*
%TO.C,@HOLE3*%
X165709662Y-82219601D03*
%TD*%
D45*
%TO.C,D3*%
X153970662Y-82219601D03*
X150270662Y-82219601D03*
%TD*%
D46*
%TO.C,LED4*%
X125248162Y-101493601D03*
X125248162Y-102343601D03*
X125248162Y-103243601D03*
X125248162Y-104093601D03*
%TD*%
D37*
%TO.C,C26*%
X148689162Y-93903601D03*
X146789162Y-93903601D03*
%TD*%
D47*
%TO.C,R15*%
X154113662Y-96600601D03*
X154113662Y-95700601D03*
X154113662Y-94900601D03*
X154113662Y-94000601D03*
X152413662Y-94000601D03*
X152413662Y-94900601D03*
X152413662Y-95700601D03*
X152413662Y-96600601D03*
%TD*%
D48*
%TO.C,TP6*%
X145135662Y-92443101D03*
%TD*%
D18*
%TO.C,LED1*%
X164981162Y-118807601D03*
X165831162Y-118807601D03*
X166731162Y-118807601D03*
X167581162Y-118807601D03*
%TD*%
D49*
%TO.C,NEOPIX1*%
X130309662Y-115017101D03*
X130309662Y-113017101D03*
X130309662Y-111017101D03*
D50*
X125109662Y-117417101D03*
X125109662Y-108617101D03*
%TD*%
D12*
%TO.C,R17*%
X128474162Y-106603601D03*
X130174162Y-106603601D03*
%TD*%
D51*
%TO.C,X2*%
X150451162Y-79425601D03*
X146551162Y-79425601D03*
D52*
X149251162Y-77425601D03*
X147751162Y-77425601D03*
D53*
X152372662Y-80325601D03*
X144629662Y-80325601D03*
D54*
X152101162Y-77525601D03*
X144901162Y-77525601D03*
%TD*%
D55*
%TO.C,CHG1*%
X142722662Y-76216601D03*
X142722662Y-78316601D03*
%TD*%
D56*
%TO.C,D6*%
X167868662Y-103047601D03*
X165328662Y-103047601D03*
%TD*%
D57*
%TO.C,U$59*%
X127609662Y-95691601D03*
X127609662Y-96941601D03*
D58*
X124859662Y-93131601D03*
X124859662Y-99501601D03*
%TD*%
D12*
%TO.C,R3*%
X127775662Y-84442101D03*
X129475662Y-84442101D03*
%TD*%
D36*
%TO.C,C18*%
X142151162Y-83174601D03*
X142151162Y-85074601D03*
%TD*%
D15*
%TO.C,TP29*%
X158534162Y-129019101D03*
%TD*%
D27*
%TO.C,R25*%
X130466262Y-99961501D03*
X128766262Y-99961501D03*
%TD*%
D25*
%TO.C,X4*%
X155405662Y-84648601D03*
X155405662Y-86648601D03*
D59*
X160605662Y-82248601D03*
X160605662Y-89048601D03*
%TD*%
D48*
%TO.C,TP7*%
X144691162Y-95554601D03*
%TD*%
D27*
%TO.C,C31*%
X132015662Y-92316101D03*
X130315662Y-92316101D03*
%TD*%
D60*
%TO.C,MS2*%
X139484162Y-81584601D03*
X134658162Y-81584601D03*
D61*
X139484162Y-84124601D03*
D60*
X134658162Y-84124601D03*
D62*
X139230162Y-86664601D03*
D63*
X134912162Y-86664601D03*
D62*
X139230162Y-89204601D03*
D63*
X134912162Y-89204601D03*
D62*
X139230162Y-91744601D03*
D63*
X134912162Y-91744601D03*
D62*
X139230162Y-94284601D03*
D63*
X134912162Y-94284601D03*
D62*
X139230162Y-96824601D03*
D63*
X134912162Y-96824601D03*
D62*
X139230162Y-99364601D03*
D63*
X134912162Y-99364601D03*
D62*
X139230162Y-101904601D03*
D63*
X134912162Y-101904601D03*
D62*
X139230162Y-104444601D03*
D63*
X134912162Y-104444601D03*
D62*
X139230162Y-106984601D03*
D63*
X134912162Y-106984601D03*
D62*
X139230162Y-109524601D03*
D63*
X134912162Y-109524601D03*
D62*
X139230162Y-112064601D03*
D63*
X134912162Y-112064601D03*
D62*
X139230162Y-114604601D03*
D63*
X134912162Y-114604601D03*
D61*
X139484162Y-117144601D03*
D60*
X134658162Y-117144601D03*
D61*
X139484162Y-119684601D03*
D60*
X134658162Y-119684601D03*
X157518162Y-119684601D03*
D61*
X162344162Y-119684601D03*
D60*
X157518162Y-117144601D03*
D61*
X162344162Y-117144601D03*
D63*
X157772162Y-114604601D03*
D62*
X162090162Y-114604601D03*
D63*
X157772162Y-112064601D03*
D62*
X162090162Y-112064601D03*
D63*
X157772162Y-109524601D03*
D62*
X162090162Y-109524601D03*
D63*
X157772162Y-106984601D03*
D62*
X162090162Y-106984601D03*
D63*
X157772162Y-104444601D03*
D62*
X162090162Y-104444601D03*
D63*
X157772162Y-101904601D03*
D62*
X162090162Y-101904601D03*
D63*
X157772162Y-99364601D03*
D62*
X162090162Y-99364601D03*
D63*
X157772162Y-96824601D03*
D62*
X162090162Y-96824601D03*
D60*
X157518162Y-94284601D03*
D61*
X162344162Y-94284601D03*
D60*
X157518162Y-91744601D03*
X162344162Y-91744601D03*
%TD*%
D12*
%TO.C,R1*%
X142190162Y-127431601D03*
X143890162Y-127431601D03*
%TD*%
D25*
%TO.C,SENSE1*%
X166692662Y-93046601D03*
X166692662Y-95046601D03*
X166692662Y-97046601D03*
D59*
X171892662Y-90646601D03*
X171892662Y-99446601D03*
%TD*%
D64*
%TO.C,Q4*%
X130642462Y-101399901D03*
X128742462Y-101399901D03*
X129692462Y-103399901D03*
%TD*%
D44*
%TO.C,@HOLE2*%
X131419662Y-82219601D03*
%TD*%
D65*
%TO.C,U9*%
X142328662Y-113715601D03*
X142328662Y-114985601D03*
X142328662Y-116255601D03*
X142328662Y-117525601D03*
X148958662Y-117525601D03*
X148958662Y-116255601D03*
X148958662Y-114985601D03*
X148958662Y-113715601D03*
%TD*%
D37*
%TO.C,C22*%
X148308162Y-84950101D03*
X146408162Y-84950101D03*
%TD*%
D28*
%TO.C,@HOLE1*%
X139611162Y-122986601D03*
%TD*%
D36*
%TO.C,C16*%
X150865662Y-93267601D03*
X150865662Y-95167601D03*
%TD*%
D43*
%TO.C,U$35*%
X155747162Y-124875301D03*
%TD*%
D27*
%TO.C,C29*%
X143572662Y-109842101D03*
X141872662Y-109842101D03*
%TD*%
%TO.C,C28*%
X169036162Y-86728101D03*
X167336162Y-86728101D03*
%TD*%
D66*
%TO.C,D5*%
X127292162Y-105079601D03*
X129832162Y-105079601D03*
%TD*%
D67*
%TO.C,SW3*%
X160392408Y-77716218D03*
X163291545Y-80615355D03*
X161523779Y-76584847D03*
X164422916Y-79483984D03*
%TD*%
D37*
%TO.C,C17*%
X148879662Y-92125601D03*
X146979662Y-92125601D03*
%TD*%
D68*
%TO.C,U$32*%
X139611162Y-77266601D03*
%TD*%
D69*
%TO.C,C21*%
X128816162Y-93329601D03*
X128816162Y-91429601D03*
%TD*%
D27*
%TO.C,C27*%
X148589162Y-95427601D03*
X146889162Y-95427601D03*
%TD*%
D68*
%TO.C,U$31*%
X157391162Y-77266601D03*
%TD*%
D12*
%TO.C,R14*%
X146381162Y-86474101D03*
X148081162Y-86474101D03*
%TD*%
D37*
%TO.C,C19*%
X127099162Y-106730601D03*
X125199162Y-106730601D03*
%TD*%
D12*
%TO.C,R20*%
X143587162Y-90601601D03*
X145287162Y-90601601D03*
%TD*%
M02*
