%TF.GenerationSoftware,KiCad,Pcbnew,7.0.6-7.0.6~ubuntu22.04.1*%
%TF.CreationDate,2023-08-03T19:02:22+01:00*%
%TF.ProjectId,working,776f726b-696e-4672-9e6b-696361645f70,rev?*%
%TF.SameCoordinates,Original*%
%TF.FileFunction,Legend,Bot*%
%TF.FilePolarity,Positive*%
%FSLAX46Y46*%
G04 Gerber Fmt 4.6, Leading zero omitted, Abs format (unit mm)*
G04 Created by KiCad (PCBNEW 7.0.6-7.0.6~ubuntu22.04.1) date 2023-08-03 19:02:22*
%MOMM*%
%LPD*%
G01*
G04 APERTURE LIST*
%ADD10C,0.101600*%
%ADD11C,0.127000*%
%ADD12C,0.152400*%
%ADD13C,0.050800*%
G04 APERTURE END LIST*
D10*
X156220146Y-105891072D02*
X156263689Y-105978158D01*
X156263689Y-105978158D02*
X156263689Y-106108786D01*
X156263689Y-106108786D02*
X156220146Y-106239415D01*
X156220146Y-106239415D02*
X156133060Y-106326500D01*
X156133060Y-106326500D02*
X156045974Y-106370043D01*
X156045974Y-106370043D02*
X155871803Y-106413586D01*
X155871803Y-106413586D02*
X155741174Y-106413586D01*
X155741174Y-106413586D02*
X155567003Y-106370043D01*
X155567003Y-106370043D02*
X155479917Y-106326500D01*
X155479917Y-106326500D02*
X155392832Y-106239415D01*
X155392832Y-106239415D02*
X155349289Y-106108786D01*
X155349289Y-106108786D02*
X155349289Y-106021700D01*
X155349289Y-106021700D02*
X155392832Y-105891072D01*
X155392832Y-105891072D02*
X155436374Y-105847529D01*
X155436374Y-105847529D02*
X155741174Y-105847529D01*
X155741174Y-105847529D02*
X155741174Y-106021700D01*
X155349289Y-101544043D02*
X156263689Y-101544043D01*
X155958889Y-101108614D02*
X155349289Y-101108614D01*
X155871803Y-101108614D02*
X155915346Y-101065071D01*
X155915346Y-101065071D02*
X155958889Y-100977986D01*
X155958889Y-100977986D02*
X155958889Y-100847357D01*
X155958889Y-100847357D02*
X155915346Y-100760271D01*
X155915346Y-100760271D02*
X155828260Y-100716729D01*
X155828260Y-100716729D02*
X155349289Y-100716729D01*
X154272629Y-96352010D02*
X153706572Y-96352010D01*
X153706572Y-96352010D02*
X154011372Y-96700353D01*
X154011372Y-96700353D02*
X153880743Y-96700353D01*
X153880743Y-96700353D02*
X153793658Y-96743896D01*
X153793658Y-96743896D02*
X153750115Y-96787439D01*
X153750115Y-96787439D02*
X153706572Y-96874525D01*
X153706572Y-96874525D02*
X153706572Y-97092239D01*
X153706572Y-97092239D02*
X153750115Y-97179325D01*
X153750115Y-97179325D02*
X153793658Y-97222868D01*
X153793658Y-97222868D02*
X153880743Y-97266410D01*
X153880743Y-97266410D02*
X154142000Y-97266410D01*
X154142000Y-97266410D02*
X154229086Y-97222868D01*
X154229086Y-97222868D02*
X154272629Y-97179325D01*
X153314686Y-96918068D02*
X152618001Y-96918068D01*
X151703601Y-97266410D02*
X152226115Y-97266410D01*
X151964858Y-97266410D02*
X151964858Y-96352010D01*
X151964858Y-96352010D02*
X152051944Y-96482639D01*
X152051944Y-96482639D02*
X152139029Y-96569725D01*
X152139029Y-96569725D02*
X152226115Y-96613268D01*
X150919830Y-96656810D02*
X150919830Y-97266410D01*
X151137544Y-96308468D02*
X151355258Y-96961610D01*
X151355258Y-96961610D02*
X150789201Y-96961610D01*
X150571487Y-96352010D02*
X150266687Y-97266410D01*
X150266687Y-97266410D02*
X149961887Y-96352010D01*
X141742146Y-105891072D02*
X141785689Y-105978158D01*
X141785689Y-105978158D02*
X141785689Y-106108786D01*
X141785689Y-106108786D02*
X141742146Y-106239415D01*
X141742146Y-106239415D02*
X141655060Y-106326500D01*
X141655060Y-106326500D02*
X141567974Y-106370043D01*
X141567974Y-106370043D02*
X141393803Y-106413586D01*
X141393803Y-106413586D02*
X141263174Y-106413586D01*
X141263174Y-106413586D02*
X141089003Y-106370043D01*
X141089003Y-106370043D02*
X141001917Y-106326500D01*
X141001917Y-106326500D02*
X140914832Y-106239415D01*
X140914832Y-106239415D02*
X140871289Y-106108786D01*
X140871289Y-106108786D02*
X140871289Y-106021700D01*
X140871289Y-106021700D02*
X140914832Y-105891072D01*
X140914832Y-105891072D02*
X140958374Y-105847529D01*
X140958374Y-105847529D02*
X141263174Y-105847529D01*
X141263174Y-105847529D02*
X141263174Y-106021700D01*
X156263689Y-109497872D02*
X156263689Y-109323700D01*
X156263689Y-109323700D02*
X156220146Y-109236615D01*
X156220146Y-109236615D02*
X156133060Y-109149529D01*
X156133060Y-109149529D02*
X155958889Y-109105986D01*
X155958889Y-109105986D02*
X155654089Y-109105986D01*
X155654089Y-109105986D02*
X155479917Y-109149529D01*
X155479917Y-109149529D02*
X155392832Y-109236615D01*
X155392832Y-109236615D02*
X155349289Y-109323700D01*
X155349289Y-109323700D02*
X155349289Y-109497872D01*
X155349289Y-109497872D02*
X155392832Y-109584958D01*
X155392832Y-109584958D02*
X155479917Y-109672043D01*
X155479917Y-109672043D02*
X155654089Y-109715586D01*
X155654089Y-109715586D02*
X155958889Y-109715586D01*
X155958889Y-109715586D02*
X156133060Y-109672043D01*
X156133060Y-109672043D02*
X156220146Y-109584958D01*
X156220146Y-109584958D02*
X156263689Y-109497872D01*
X155958889Y-108844729D02*
X155958889Y-108496386D01*
X155349289Y-108714100D02*
X156133060Y-108714100D01*
X156133060Y-108714100D02*
X156220146Y-108670557D01*
X156220146Y-108670557D02*
X156263689Y-108583472D01*
X156263689Y-108583472D02*
X156263689Y-108496386D01*
X155958889Y-108322215D02*
X155958889Y-107973872D01*
X155349289Y-108191586D02*
X156133060Y-108191586D01*
X156133060Y-108191586D02*
X156220146Y-108148043D01*
X156220146Y-108148043D02*
X156263689Y-108060958D01*
X156263689Y-108060958D02*
X156263689Y-107973872D01*
X156390689Y-104671872D02*
X156390689Y-104497700D01*
X156390689Y-104497700D02*
X156347146Y-104410615D01*
X156347146Y-104410615D02*
X156260060Y-104323529D01*
X156260060Y-104323529D02*
X156085889Y-104279986D01*
X156085889Y-104279986D02*
X155781089Y-104279986D01*
X155781089Y-104279986D02*
X155606917Y-104323529D01*
X155606917Y-104323529D02*
X155519832Y-104410615D01*
X155519832Y-104410615D02*
X155476289Y-104497700D01*
X155476289Y-104497700D02*
X155476289Y-104671872D01*
X155476289Y-104671872D02*
X155519832Y-104758958D01*
X155519832Y-104758958D02*
X155606917Y-104846043D01*
X155606917Y-104846043D02*
X155781089Y-104889586D01*
X155781089Y-104889586D02*
X156085889Y-104889586D01*
X156085889Y-104889586D02*
X156260060Y-104846043D01*
X156260060Y-104846043D02*
X156347146Y-104758958D01*
X156347146Y-104758958D02*
X156390689Y-104671872D01*
X156085889Y-103496215D02*
X155476289Y-103496215D01*
X156085889Y-103888100D02*
X155606917Y-103888100D01*
X155606917Y-103888100D02*
X155519832Y-103844557D01*
X155519832Y-103844557D02*
X155476289Y-103757472D01*
X155476289Y-103757472D02*
X155476289Y-103626843D01*
X155476289Y-103626843D02*
X155519832Y-103539757D01*
X155519832Y-103539757D02*
X155563374Y-103496215D01*
X156085889Y-103191415D02*
X156085889Y-102843072D01*
X156390689Y-103060786D02*
X155606917Y-103060786D01*
X155606917Y-103060786D02*
X155519832Y-103017243D01*
X155519832Y-103017243D02*
X155476289Y-102930158D01*
X155476289Y-102930158D02*
X155476289Y-102843072D01*
X140744289Y-101417043D02*
X141658689Y-101417043D01*
X141353889Y-100981614D02*
X140744289Y-100981614D01*
X141266803Y-100981614D02*
X141310346Y-100938071D01*
X141310346Y-100938071D02*
X141353889Y-100850986D01*
X141353889Y-100850986D02*
X141353889Y-100720357D01*
X141353889Y-100720357D02*
X141310346Y-100633271D01*
X141310346Y-100633271D02*
X141223260Y-100589729D01*
X141223260Y-100589729D02*
X140744289Y-100589729D01*
X146779629Y-96352010D02*
X146213572Y-96352010D01*
X146213572Y-96352010D02*
X146518372Y-96700353D01*
X146518372Y-96700353D02*
X146387743Y-96700353D01*
X146387743Y-96700353D02*
X146300658Y-96743896D01*
X146300658Y-96743896D02*
X146257115Y-96787439D01*
X146257115Y-96787439D02*
X146213572Y-96874525D01*
X146213572Y-96874525D02*
X146213572Y-97092239D01*
X146213572Y-97092239D02*
X146257115Y-97179325D01*
X146257115Y-97179325D02*
X146300658Y-97222868D01*
X146300658Y-97222868D02*
X146387743Y-97266410D01*
X146387743Y-97266410D02*
X146649000Y-97266410D01*
X146649000Y-97266410D02*
X146736086Y-97222868D01*
X146736086Y-97222868D02*
X146779629Y-97179325D01*
X145865229Y-97005153D02*
X145429801Y-97005153D01*
X145952315Y-97266410D02*
X145647515Y-96352010D01*
X145647515Y-96352010D02*
X145342715Y-97266410D01*
X144341229Y-97266410D02*
X144341229Y-96352010D01*
X144341229Y-96352010D02*
X144036429Y-97005153D01*
X144036429Y-97005153D02*
X143731629Y-96352010D01*
X143731629Y-96352010D02*
X143731629Y-97266410D01*
X142904315Y-97266410D02*
X142904315Y-96787439D01*
X142904315Y-96787439D02*
X142947857Y-96700353D01*
X142947857Y-96700353D02*
X143034943Y-96656810D01*
X143034943Y-96656810D02*
X143209115Y-96656810D01*
X143209115Y-96656810D02*
X143296200Y-96700353D01*
X142904315Y-97222868D02*
X142991400Y-97266410D01*
X142991400Y-97266410D02*
X143209115Y-97266410D01*
X143209115Y-97266410D02*
X143296200Y-97222868D01*
X143296200Y-97222868D02*
X143339743Y-97135782D01*
X143339743Y-97135782D02*
X143339743Y-97048696D01*
X143339743Y-97048696D02*
X143296200Y-96961610D01*
X143296200Y-96961610D02*
X143209115Y-96918068D01*
X143209115Y-96918068D02*
X142991400Y-96918068D01*
X142991400Y-96918068D02*
X142904315Y-96874525D01*
X142555972Y-97266410D02*
X142077001Y-96656810D01*
X142555972Y-96656810D02*
X142077001Y-97266410D01*
X154820543Y-113649410D02*
X154820543Y-112735010D01*
X154820543Y-112735010D02*
X154515743Y-113388153D01*
X154515743Y-113388153D02*
X154210943Y-112735010D01*
X154210943Y-112735010D02*
X154210943Y-113649410D01*
X153644886Y-113649410D02*
X153731971Y-113605868D01*
X153731971Y-113605868D02*
X153775514Y-113562325D01*
X153775514Y-113562325D02*
X153819057Y-113475239D01*
X153819057Y-113475239D02*
X153819057Y-113213982D01*
X153819057Y-113213982D02*
X153775514Y-113126896D01*
X153775514Y-113126896D02*
X153731971Y-113083353D01*
X153731971Y-113083353D02*
X153644886Y-113039810D01*
X153644886Y-113039810D02*
X153514257Y-113039810D01*
X153514257Y-113039810D02*
X153427171Y-113083353D01*
X153427171Y-113083353D02*
X153383629Y-113126896D01*
X153383629Y-113126896D02*
X153340086Y-113213982D01*
X153340086Y-113213982D02*
X153340086Y-113475239D01*
X153340086Y-113475239D02*
X153383629Y-113562325D01*
X153383629Y-113562325D02*
X153427171Y-113605868D01*
X153427171Y-113605868D02*
X153514257Y-113649410D01*
X153514257Y-113649410D02*
X153644886Y-113649410D01*
X152948200Y-113649410D02*
X152948200Y-113039810D01*
X152948200Y-113126896D02*
X152904657Y-113083353D01*
X152904657Y-113083353D02*
X152817572Y-113039810D01*
X152817572Y-113039810D02*
X152686943Y-113039810D01*
X152686943Y-113039810D02*
X152599857Y-113083353D01*
X152599857Y-113083353D02*
X152556315Y-113170439D01*
X152556315Y-113170439D02*
X152556315Y-113649410D01*
X152556315Y-113170439D02*
X152512772Y-113083353D01*
X152512772Y-113083353D02*
X152425686Y-113039810D01*
X152425686Y-113039810D02*
X152295057Y-113039810D01*
X152295057Y-113039810D02*
X152207972Y-113083353D01*
X152207972Y-113083353D02*
X152164429Y-113170439D01*
X152164429Y-113170439D02*
X152164429Y-113649410D01*
X151729000Y-113562325D02*
X151685457Y-113605868D01*
X151685457Y-113605868D02*
X151729000Y-113649410D01*
X151729000Y-113649410D02*
X151772543Y-113605868D01*
X151772543Y-113605868D02*
X151729000Y-113562325D01*
X151729000Y-113562325D02*
X151729000Y-113649410D01*
X150596885Y-113649410D02*
X150596885Y-112735010D01*
X150596885Y-112735010D02*
X150248542Y-112735010D01*
X150248542Y-112735010D02*
X150161457Y-112778553D01*
X150161457Y-112778553D02*
X150117914Y-112822096D01*
X150117914Y-112822096D02*
X150074371Y-112909182D01*
X150074371Y-112909182D02*
X150074371Y-113039810D01*
X150074371Y-113039810D02*
X150117914Y-113126896D01*
X150117914Y-113126896D02*
X150161457Y-113170439D01*
X150161457Y-113170439D02*
X150248542Y-113213982D01*
X150248542Y-113213982D02*
X150596885Y-113213982D01*
X149551857Y-113649410D02*
X149638942Y-113605868D01*
X149638942Y-113605868D02*
X149682485Y-113562325D01*
X149682485Y-113562325D02*
X149726028Y-113475239D01*
X149726028Y-113475239D02*
X149726028Y-113213982D01*
X149726028Y-113213982D02*
X149682485Y-113126896D01*
X149682485Y-113126896D02*
X149638942Y-113083353D01*
X149638942Y-113083353D02*
X149551857Y-113039810D01*
X149551857Y-113039810D02*
X149421228Y-113039810D01*
X149421228Y-113039810D02*
X149334142Y-113083353D01*
X149334142Y-113083353D02*
X149290600Y-113126896D01*
X149290600Y-113126896D02*
X149247057Y-113213982D01*
X149247057Y-113213982D02*
X149247057Y-113475239D01*
X149247057Y-113475239D02*
X149290600Y-113562325D01*
X149290600Y-113562325D02*
X149334142Y-113605868D01*
X149334142Y-113605868D02*
X149421228Y-113649410D01*
X149421228Y-113649410D02*
X149551857Y-113649410D01*
X148942257Y-113039810D02*
X148768086Y-113649410D01*
X148768086Y-113649410D02*
X148593914Y-113213982D01*
X148593914Y-113213982D02*
X148419743Y-113649410D01*
X148419743Y-113649410D02*
X148245571Y-113039810D01*
X147548885Y-113605868D02*
X147635971Y-113649410D01*
X147635971Y-113649410D02*
X147810143Y-113649410D01*
X147810143Y-113649410D02*
X147897228Y-113605868D01*
X147897228Y-113605868D02*
X147940771Y-113518782D01*
X147940771Y-113518782D02*
X147940771Y-113170439D01*
X147940771Y-113170439D02*
X147897228Y-113083353D01*
X147897228Y-113083353D02*
X147810143Y-113039810D01*
X147810143Y-113039810D02*
X147635971Y-113039810D01*
X147635971Y-113039810D02*
X147548885Y-113083353D01*
X147548885Y-113083353D02*
X147505343Y-113170439D01*
X147505343Y-113170439D02*
X147505343Y-113257525D01*
X147505343Y-113257525D02*
X147940771Y-113344610D01*
X147113457Y-113649410D02*
X147113457Y-113039810D01*
X147113457Y-113213982D02*
X147069914Y-113126896D01*
X147069914Y-113126896D02*
X147026372Y-113083353D01*
X147026372Y-113083353D02*
X146939286Y-113039810D01*
X146939286Y-113039810D02*
X146852200Y-113039810D01*
X146590943Y-113605868D02*
X146503857Y-113649410D01*
X146503857Y-113649410D02*
X146329686Y-113649410D01*
X146329686Y-113649410D02*
X146242600Y-113605868D01*
X146242600Y-113605868D02*
X146199057Y-113518782D01*
X146199057Y-113518782D02*
X146199057Y-113475239D01*
X146199057Y-113475239D02*
X146242600Y-113388153D01*
X146242600Y-113388153D02*
X146329686Y-113344610D01*
X146329686Y-113344610D02*
X146460315Y-113344610D01*
X146460315Y-113344610D02*
X146547400Y-113301068D01*
X146547400Y-113301068D02*
X146590943Y-113213982D01*
X146590943Y-113213982D02*
X146590943Y-113170439D01*
X146590943Y-113170439D02*
X146547400Y-113083353D01*
X146547400Y-113083353D02*
X146460315Y-113039810D01*
X146460315Y-113039810D02*
X146329686Y-113039810D01*
X146329686Y-113039810D02*
X146242600Y-113083353D01*
X145894257Y-113039810D02*
X145720086Y-113649410D01*
X145720086Y-113649410D02*
X145545914Y-113213982D01*
X145545914Y-113213982D02*
X145371743Y-113649410D01*
X145371743Y-113649410D02*
X145197571Y-113039810D01*
X144849228Y-113649410D02*
X144849228Y-113039810D01*
X144849228Y-112735010D02*
X144892771Y-112778553D01*
X144892771Y-112778553D02*
X144849228Y-112822096D01*
X144849228Y-112822096D02*
X144805685Y-112778553D01*
X144805685Y-112778553D02*
X144849228Y-112735010D01*
X144849228Y-112735010D02*
X144849228Y-112822096D01*
X144544428Y-113039810D02*
X144196085Y-113039810D01*
X144413799Y-112735010D02*
X144413799Y-113518782D01*
X144413799Y-113518782D02*
X144370256Y-113605868D01*
X144370256Y-113605868D02*
X144283171Y-113649410D01*
X144283171Y-113649410D02*
X144196085Y-113649410D01*
X143499400Y-113605868D02*
X143586485Y-113649410D01*
X143586485Y-113649410D02*
X143760657Y-113649410D01*
X143760657Y-113649410D02*
X143847742Y-113605868D01*
X143847742Y-113605868D02*
X143891285Y-113562325D01*
X143891285Y-113562325D02*
X143934828Y-113475239D01*
X143934828Y-113475239D02*
X143934828Y-113213982D01*
X143934828Y-113213982D02*
X143891285Y-113126896D01*
X143891285Y-113126896D02*
X143847742Y-113083353D01*
X143847742Y-113083353D02*
X143760657Y-113039810D01*
X143760657Y-113039810D02*
X143586485Y-113039810D01*
X143586485Y-113039810D02*
X143499400Y-113083353D01*
X143107514Y-113649410D02*
X143107514Y-112735010D01*
X142715629Y-113649410D02*
X142715629Y-113170439D01*
X142715629Y-113170439D02*
X142759171Y-113083353D01*
X142759171Y-113083353D02*
X142846257Y-113039810D01*
X142846257Y-113039810D02*
X142976886Y-113039810D01*
X142976886Y-113039810D02*
X143063971Y-113083353D01*
X143063971Y-113083353D02*
X143107514Y-113126896D01*
X141658689Y-109370872D02*
X141658689Y-109196700D01*
X141658689Y-109196700D02*
X141615146Y-109109615D01*
X141615146Y-109109615D02*
X141528060Y-109022529D01*
X141528060Y-109022529D02*
X141353889Y-108978986D01*
X141353889Y-108978986D02*
X141049089Y-108978986D01*
X141049089Y-108978986D02*
X140874917Y-109022529D01*
X140874917Y-109022529D02*
X140787832Y-109109615D01*
X140787832Y-109109615D02*
X140744289Y-109196700D01*
X140744289Y-109196700D02*
X140744289Y-109370872D01*
X140744289Y-109370872D02*
X140787832Y-109457958D01*
X140787832Y-109457958D02*
X140874917Y-109545043D01*
X140874917Y-109545043D02*
X141049089Y-109588586D01*
X141049089Y-109588586D02*
X141353889Y-109588586D01*
X141353889Y-109588586D02*
X141528060Y-109545043D01*
X141528060Y-109545043D02*
X141615146Y-109457958D01*
X141615146Y-109457958D02*
X141658689Y-109370872D01*
X141353889Y-108717729D02*
X141353889Y-108369386D01*
X140744289Y-108587100D02*
X141528060Y-108587100D01*
X141528060Y-108587100D02*
X141615146Y-108543557D01*
X141615146Y-108543557D02*
X141658689Y-108456472D01*
X141658689Y-108456472D02*
X141658689Y-108369386D01*
X141353889Y-108195215D02*
X141353889Y-107846872D01*
X140744289Y-108064586D02*
X141528060Y-108064586D01*
X141528060Y-108064586D02*
X141615146Y-108021043D01*
X141615146Y-108021043D02*
X141658689Y-107933958D01*
X141658689Y-107933958D02*
X141658689Y-107846872D01*
X141785689Y-104544872D02*
X141785689Y-104370700D01*
X141785689Y-104370700D02*
X141742146Y-104283615D01*
X141742146Y-104283615D02*
X141655060Y-104196529D01*
X141655060Y-104196529D02*
X141480889Y-104152986D01*
X141480889Y-104152986D02*
X141176089Y-104152986D01*
X141176089Y-104152986D02*
X141001917Y-104196529D01*
X141001917Y-104196529D02*
X140914832Y-104283615D01*
X140914832Y-104283615D02*
X140871289Y-104370700D01*
X140871289Y-104370700D02*
X140871289Y-104544872D01*
X140871289Y-104544872D02*
X140914832Y-104631958D01*
X140914832Y-104631958D02*
X141001917Y-104719043D01*
X141001917Y-104719043D02*
X141176089Y-104762586D01*
X141176089Y-104762586D02*
X141480889Y-104762586D01*
X141480889Y-104762586D02*
X141655060Y-104719043D01*
X141655060Y-104719043D02*
X141742146Y-104631958D01*
X141742146Y-104631958D02*
X141785689Y-104544872D01*
X141480889Y-103369215D02*
X140871289Y-103369215D01*
X141480889Y-103761100D02*
X141001917Y-103761100D01*
X141001917Y-103761100D02*
X140914832Y-103717557D01*
X140914832Y-103717557D02*
X140871289Y-103630472D01*
X140871289Y-103630472D02*
X140871289Y-103499843D01*
X140871289Y-103499843D02*
X140914832Y-103412757D01*
X140914832Y-103412757D02*
X140958374Y-103369215D01*
X141480889Y-103064415D02*
X141480889Y-102716072D01*
X141785689Y-102933786D02*
X141001917Y-102933786D01*
X141001917Y-102933786D02*
X140914832Y-102890243D01*
X140914832Y-102890243D02*
X140871289Y-102803158D01*
X140871289Y-102803158D02*
X140871289Y-102716072D01*
D11*
X155285186Y-110384866D02*
X155339614Y-110548152D01*
X155339614Y-110548152D02*
X155339614Y-110820294D01*
X155339614Y-110820294D02*
X155285186Y-110929152D01*
X155285186Y-110929152D02*
X155230757Y-110983580D01*
X155230757Y-110983580D02*
X155121900Y-111038009D01*
X155121900Y-111038009D02*
X155013043Y-111038009D01*
X155013043Y-111038009D02*
X154904186Y-110983580D01*
X154904186Y-110983580D02*
X154849757Y-110929152D01*
X154849757Y-110929152D02*
X154795328Y-110820294D01*
X154795328Y-110820294D02*
X154740900Y-110602580D01*
X154740900Y-110602580D02*
X154686471Y-110493723D01*
X154686471Y-110493723D02*
X154632043Y-110439294D01*
X154632043Y-110439294D02*
X154523186Y-110384866D01*
X154523186Y-110384866D02*
X154414328Y-110384866D01*
X154414328Y-110384866D02*
X154305471Y-110439294D01*
X154305471Y-110439294D02*
X154251043Y-110493723D01*
X154251043Y-110493723D02*
X154196614Y-110602580D01*
X154196614Y-110602580D02*
X154196614Y-110874723D01*
X154196614Y-110874723D02*
X154251043Y-111038009D01*
X155339614Y-112126580D02*
X155339614Y-111473437D01*
X155339614Y-111800008D02*
X154196614Y-111800008D01*
X154196614Y-111800008D02*
X154359900Y-111691151D01*
X154359900Y-111691151D02*
X154468757Y-111582294D01*
X154468757Y-111582294D02*
X154523186Y-111473437D01*
X151656614Y-111165009D02*
X151656614Y-110511866D01*
X151656614Y-110838437D02*
X150513614Y-110838437D01*
X150513614Y-110838437D02*
X150676900Y-110729580D01*
X150676900Y-110729580D02*
X150785757Y-110620723D01*
X150785757Y-110620723D02*
X150840186Y-110511866D01*
X142893614Y-101785152D02*
X143655614Y-101785152D01*
X142458186Y-101513009D02*
X143274614Y-101240866D01*
X143274614Y-101240866D02*
X143274614Y-101948437D01*
X142512614Y-110457437D02*
X142512614Y-111165009D01*
X142512614Y-111165009D02*
X142948043Y-110784009D01*
X142948043Y-110784009D02*
X142948043Y-110947294D01*
X142948043Y-110947294D02*
X143002471Y-111056152D01*
X143002471Y-111056152D02*
X143056900Y-111110580D01*
X143056900Y-111110580D02*
X143165757Y-111165009D01*
X143165757Y-111165009D02*
X143437900Y-111165009D01*
X143437900Y-111165009D02*
X143546757Y-111110580D01*
X143546757Y-111110580D02*
X143601186Y-111056152D01*
X143601186Y-111056152D02*
X143655614Y-110947294D01*
X143655614Y-110947294D02*
X143655614Y-110620723D01*
X143655614Y-110620723D02*
X143601186Y-110511866D01*
X143601186Y-110511866D02*
X143546757Y-110457437D01*
X150622471Y-101367866D02*
X150568043Y-101422294D01*
X150568043Y-101422294D02*
X150513614Y-101531152D01*
X150513614Y-101531152D02*
X150513614Y-101803294D01*
X150513614Y-101803294D02*
X150568043Y-101912152D01*
X150568043Y-101912152D02*
X150622471Y-101966580D01*
X150622471Y-101966580D02*
X150731328Y-102021009D01*
X150731328Y-102021009D02*
X150840186Y-102021009D01*
X150840186Y-102021009D02*
X151003471Y-101966580D01*
X151003471Y-101966580D02*
X151656614Y-101313437D01*
X151656614Y-101313437D02*
X151656614Y-102021009D01*
X141184557Y-108628637D02*
X141238986Y-108574209D01*
X141238986Y-108574209D02*
X141293414Y-108410923D01*
X141293414Y-108410923D02*
X141293414Y-108302066D01*
X141293414Y-108302066D02*
X141238986Y-108138780D01*
X141238986Y-108138780D02*
X141130128Y-108029923D01*
X141130128Y-108029923D02*
X141021271Y-107975494D01*
X141021271Y-107975494D02*
X140803557Y-107921066D01*
X140803557Y-107921066D02*
X140640271Y-107921066D01*
X140640271Y-107921066D02*
X140422557Y-107975494D01*
X140422557Y-107975494D02*
X140313700Y-108029923D01*
X140313700Y-108029923D02*
X140204843Y-108138780D01*
X140204843Y-108138780D02*
X140150414Y-108302066D01*
X140150414Y-108302066D02*
X140150414Y-108410923D01*
X140150414Y-108410923D02*
X140204843Y-108574209D01*
X140204843Y-108574209D02*
X140259271Y-108628637D01*
X141293414Y-109118494D02*
X140150414Y-109118494D01*
X140150414Y-109118494D02*
X141293414Y-109771637D01*
X141293414Y-109771637D02*
X140150414Y-109771637D01*
X141293414Y-110914638D02*
X141293414Y-110261495D01*
X141293414Y-110588066D02*
X140150414Y-110588066D01*
X140150414Y-110588066D02*
X140313700Y-110479209D01*
X140313700Y-110479209D02*
X140422557Y-110370352D01*
X140422557Y-110370352D02*
X140476986Y-110261495D01*
X158964557Y-108628637D02*
X159018986Y-108574209D01*
X159018986Y-108574209D02*
X159073414Y-108410923D01*
X159073414Y-108410923D02*
X159073414Y-108302066D01*
X159073414Y-108302066D02*
X159018986Y-108138780D01*
X159018986Y-108138780D02*
X158910128Y-108029923D01*
X158910128Y-108029923D02*
X158801271Y-107975494D01*
X158801271Y-107975494D02*
X158583557Y-107921066D01*
X158583557Y-107921066D02*
X158420271Y-107921066D01*
X158420271Y-107921066D02*
X158202557Y-107975494D01*
X158202557Y-107975494D02*
X158093700Y-108029923D01*
X158093700Y-108029923D02*
X157984843Y-108138780D01*
X157984843Y-108138780D02*
X157930414Y-108302066D01*
X157930414Y-108302066D02*
X157930414Y-108410923D01*
X157930414Y-108410923D02*
X157984843Y-108574209D01*
X157984843Y-108574209D02*
X158039271Y-108628637D01*
X159073414Y-109118494D02*
X157930414Y-109118494D01*
X157930414Y-109118494D02*
X159073414Y-109771637D01*
X159073414Y-109771637D02*
X157930414Y-109771637D01*
X158039271Y-110261495D02*
X157984843Y-110315923D01*
X157984843Y-110315923D02*
X157930414Y-110424781D01*
X157930414Y-110424781D02*
X157930414Y-110696923D01*
X157930414Y-110696923D02*
X157984843Y-110805781D01*
X157984843Y-110805781D02*
X158039271Y-110860209D01*
X158039271Y-110860209D02*
X158148128Y-110914638D01*
X158148128Y-110914638D02*
X158256986Y-110914638D01*
X158256986Y-110914638D02*
X158420271Y-110860209D01*
X158420271Y-110860209D02*
X159073414Y-110207066D01*
X159073414Y-110207066D02*
X159073414Y-110914638D01*
D12*
%TO.C,S1*%
X143421100Y-111099600D02*
X142405100Y-110083600D01*
X144691100Y-111099600D02*
X143421100Y-111099600D01*
X149644100Y-111099600D02*
X147358100Y-111099600D01*
X153581100Y-111099600D02*
X152311100Y-111099600D01*
X142405100Y-110083600D02*
X142405100Y-106781600D01*
X154597100Y-110083600D02*
X153581100Y-111099600D01*
X154597100Y-110083600D02*
X154851100Y-109829600D01*
X154597100Y-110083600D02*
X154597100Y-106781600D01*
X142151100Y-109829600D02*
X142405100Y-110083600D01*
X150406100Y-106908600D02*
X146596100Y-106908600D01*
X150406100Y-106908600D02*
X150406100Y-103098600D01*
X142151100Y-106781600D02*
X142151100Y-109829600D01*
X142405100Y-106781600D02*
X142151100Y-106781600D01*
X142405100Y-106781600D02*
X142405100Y-106019600D01*
X154597100Y-106781600D02*
X154597100Y-106019600D01*
X154851100Y-106781600D02*
X154851100Y-109829600D01*
X154851100Y-106781600D02*
X154597100Y-106781600D01*
D13*
X150152100Y-106654600D02*
X146850100Y-106654600D01*
X150152100Y-106654600D02*
X150152100Y-103352600D01*
D12*
X142024100Y-106019600D02*
X142405100Y-106019600D01*
X142024100Y-106019600D02*
X142024100Y-103987600D01*
X142405100Y-106019600D02*
X142405100Y-103987600D01*
X154597100Y-106019600D02*
X154978100Y-106019600D01*
X154597100Y-106019600D02*
X154597100Y-103987600D01*
X154978100Y-106019600D02*
X154978100Y-103987600D01*
X142405100Y-103987600D02*
X142024100Y-103987600D01*
X142405100Y-103987600D02*
X142405100Y-103225600D01*
X154978100Y-103987600D02*
X154597100Y-103987600D01*
D13*
X146850100Y-103352600D02*
X146850100Y-106654600D01*
X146850100Y-103352600D02*
X150152100Y-103352600D01*
D12*
X142405100Y-103225600D02*
X142151100Y-103225600D01*
X142405100Y-103225600D02*
X142405100Y-99923600D01*
X154597100Y-103225600D02*
X154597100Y-103987600D01*
X154851100Y-103225600D02*
X154597100Y-103225600D01*
X146596100Y-103098600D02*
X146596100Y-106908600D01*
X146596100Y-103098600D02*
X150406100Y-103098600D01*
X142151100Y-100177600D02*
X142151100Y-103225600D01*
X154851100Y-100177600D02*
X154851100Y-103225600D01*
X142405100Y-99923600D02*
X142151100Y-100177600D01*
X142405100Y-99923600D02*
X143421100Y-98907600D01*
X154597100Y-99923600D02*
X154597100Y-103225600D01*
X154597100Y-99923600D02*
X154851100Y-100177600D01*
X143421100Y-98907600D02*
X144691100Y-98907600D01*
X149644100Y-98907600D02*
X147358100Y-98907600D01*
X153581100Y-98907600D02*
X154597100Y-99923600D01*
X153581100Y-98907600D02*
X152311100Y-98907600D01*
D13*
X149263100Y-105003600D02*
G75*
G03*
X149263100Y-105003600I-762000J0D01*
G01*
X149517100Y-105003600D02*
G75*
G03*
X149517100Y-105003600I-1016000J0D01*
G01*
D12*
X152057100Y-105003600D02*
G75*
G03*
X152057100Y-105003600I-3556000J0D01*
G01*
G36*
X142659100Y-109448600D02*
G01*
X142151100Y-109448600D01*
X142151100Y-107289600D01*
X142659100Y-107289600D01*
X142659100Y-109448600D01*
G37*
G36*
X154851100Y-109448600D02*
G01*
X154343100Y-109448600D01*
X154343100Y-107289600D01*
X154851100Y-107289600D01*
X154851100Y-109448600D01*
G37*
G36*
X142659100Y-102717600D02*
G01*
X142151100Y-102717600D01*
X142151100Y-100558600D01*
X142659100Y-100558600D01*
X142659100Y-102717600D01*
G37*
G36*
X154851100Y-102717600D02*
G01*
X154343100Y-102717600D01*
X154343100Y-100558600D01*
X154851100Y-100558600D01*
X154851100Y-102717600D01*
G37*
%TO.C,U$1*%
G36*
X149646000Y-96956200D02*
G01*
X148804000Y-96956200D01*
X148804000Y-96952400D01*
X149646000Y-96952400D01*
X149646000Y-96956200D01*
G37*
G36*
X149642200Y-96975300D02*
G01*
X148781100Y-96975300D01*
X148781100Y-96971500D01*
X149642200Y-96971500D01*
X149642200Y-96975300D01*
G37*
G36*
X149642200Y-96971500D02*
G01*
X148784900Y-96971500D01*
X148784900Y-96967700D01*
X149642200Y-96967700D01*
X149642200Y-96971500D01*
G37*
G36*
X149642200Y-96967700D02*
G01*
X148788800Y-96967700D01*
X148788800Y-96963900D01*
X149642200Y-96963900D01*
X149642200Y-96967700D01*
G37*
G36*
X149642200Y-96963900D02*
G01*
X148796400Y-96963900D01*
X148796400Y-96960100D01*
X149642200Y-96960100D01*
X149642200Y-96963900D01*
G37*
G36*
X149642200Y-96960100D02*
G01*
X148800200Y-96960100D01*
X148800200Y-96956200D01*
X149642200Y-96956200D01*
X149642200Y-96960100D01*
G37*
G36*
X149642200Y-96952400D02*
G01*
X148807800Y-96952400D01*
X148807800Y-96948600D01*
X149642200Y-96948600D01*
X149642200Y-96952400D01*
G37*
G36*
X149642200Y-96948600D02*
G01*
X148815400Y-96948600D01*
X148815400Y-96944800D01*
X149642200Y-96944800D01*
X149642200Y-96948600D01*
G37*
G36*
X149642200Y-96944800D02*
G01*
X148819200Y-96944800D01*
X148819200Y-96941000D01*
X149642200Y-96941000D01*
X149642200Y-96944800D01*
G37*
G36*
X149642200Y-96941000D02*
G01*
X148826900Y-96941000D01*
X148826900Y-96937200D01*
X149642200Y-96937200D01*
X149642200Y-96941000D01*
G37*
G36*
X149642200Y-96937200D02*
G01*
X148830700Y-96937200D01*
X148830700Y-96933400D01*
X149642200Y-96933400D01*
X149642200Y-96937200D01*
G37*
G36*
X149642200Y-96933400D02*
G01*
X148838300Y-96933400D01*
X148838300Y-96929600D01*
X149642200Y-96929600D01*
X149642200Y-96933400D01*
G37*
G36*
X149638400Y-96986700D02*
G01*
X148769700Y-96986700D01*
X148769700Y-96982900D01*
X149638400Y-96982900D01*
X149638400Y-96986700D01*
G37*
G36*
X149638400Y-96982900D02*
G01*
X148773500Y-96982900D01*
X148773500Y-96979100D01*
X149638400Y-96979100D01*
X149638400Y-96982900D01*
G37*
G36*
X149638400Y-96979100D02*
G01*
X148777300Y-96979100D01*
X148777300Y-96975300D01*
X149638400Y-96975300D01*
X149638400Y-96979100D01*
G37*
G36*
X149638400Y-96929600D02*
G01*
X148845900Y-96929600D01*
X148845900Y-96925800D01*
X149638400Y-96925800D01*
X149638400Y-96929600D01*
G37*
G36*
X149638400Y-96925800D02*
G01*
X148849700Y-96925800D01*
X148849700Y-96922000D01*
X149638400Y-96922000D01*
X149638400Y-96925800D01*
G37*
G36*
X149634600Y-96994300D02*
G01*
X148762100Y-96994300D01*
X148762100Y-96990500D01*
X149634600Y-96990500D01*
X149634600Y-96994300D01*
G37*
G36*
X149634600Y-96990500D02*
G01*
X148765900Y-96990500D01*
X148765900Y-96986700D01*
X149634600Y-96986700D01*
X149634600Y-96990500D01*
G37*
G36*
X149634600Y-96922000D02*
G01*
X148857300Y-96922000D01*
X148857300Y-96918100D01*
X149634600Y-96918100D01*
X149634600Y-96922000D01*
G37*
G36*
X149634600Y-96918100D02*
G01*
X148865000Y-96918100D01*
X148865000Y-96914300D01*
X149634600Y-96914300D01*
X149634600Y-96918100D01*
G37*
G36*
X149634600Y-96914300D02*
G01*
X148872600Y-96914300D01*
X148872600Y-96910500D01*
X149634600Y-96910500D01*
X149634600Y-96914300D01*
G37*
G36*
X149630800Y-97002000D02*
G01*
X148754500Y-97002000D01*
X148754500Y-96998200D01*
X149630800Y-96998200D01*
X149630800Y-97002000D01*
G37*
G36*
X149630800Y-96998200D02*
G01*
X148758300Y-96998200D01*
X148758300Y-96994300D01*
X149630800Y-96994300D01*
X149630800Y-96998200D01*
G37*
G36*
X149630800Y-96910500D02*
G01*
X148880200Y-96910500D01*
X148880200Y-96906700D01*
X149630800Y-96906700D01*
X149630800Y-96910500D01*
G37*
G36*
X149627000Y-97005800D02*
G01*
X148750700Y-97005800D01*
X148750700Y-97002000D01*
X149627000Y-97002000D01*
X149627000Y-97005800D01*
G37*
G36*
X149627000Y-96906700D02*
G01*
X148891600Y-96906700D01*
X148891600Y-96902900D01*
X149627000Y-96902900D01*
X149627000Y-96906700D01*
G37*
G36*
X149627000Y-96902900D02*
G01*
X148899200Y-96902900D01*
X148899200Y-96899100D01*
X149627000Y-96899100D01*
X149627000Y-96902900D01*
G37*
G36*
X149623100Y-97013400D02*
G01*
X148746800Y-97013400D01*
X148746800Y-97009600D01*
X149623100Y-97009600D01*
X149623100Y-97013400D01*
G37*
G36*
X149623100Y-97009600D02*
G01*
X148746800Y-97009600D01*
X148746800Y-97005800D01*
X149623100Y-97005800D01*
X149623100Y-97009600D01*
G37*
G36*
X149623100Y-96899100D02*
G01*
X148910700Y-96899100D01*
X148910700Y-96895300D01*
X149623100Y-96895300D01*
X149623100Y-96899100D01*
G37*
G36*
X149619300Y-97017200D02*
G01*
X148743000Y-97017200D01*
X148743000Y-97013400D01*
X149619300Y-97013400D01*
X149619300Y-97017200D01*
G37*
G36*
X149619300Y-96895300D02*
G01*
X148922100Y-96895300D01*
X148922100Y-96891500D01*
X149619300Y-96891500D01*
X149619300Y-96895300D01*
G37*
G36*
X149619300Y-96891500D02*
G01*
X148933500Y-96891500D01*
X148933500Y-96887700D01*
X149619300Y-96887700D01*
X149619300Y-96891500D01*
G37*
G36*
X149615500Y-97024800D02*
G01*
X148735400Y-97024800D01*
X148735400Y-97021000D01*
X149615500Y-97021000D01*
X149615500Y-97024800D01*
G37*
G36*
X149615500Y-97021000D02*
G01*
X148739200Y-97021000D01*
X148739200Y-97017200D01*
X149615500Y-97017200D01*
X149615500Y-97021000D01*
G37*
G36*
X149615500Y-96887700D02*
G01*
X148945000Y-96887700D01*
X148945000Y-96883900D01*
X149615500Y-96883900D01*
X149615500Y-96887700D01*
G37*
G36*
X149611700Y-97028600D02*
G01*
X148735400Y-97028600D01*
X148735400Y-97024800D01*
X149611700Y-97024800D01*
X149611700Y-97028600D01*
G37*
G36*
X149607900Y-97036300D02*
G01*
X148727800Y-97036300D01*
X148727800Y-97032400D01*
X149607900Y-97032400D01*
X149607900Y-97036300D01*
G37*
G36*
X149607900Y-97032400D02*
G01*
X148731600Y-97032400D01*
X148731600Y-97028600D01*
X149607900Y-97028600D01*
X149607900Y-97032400D01*
G37*
G36*
X149607900Y-96883900D02*
G01*
X148960200Y-96883900D01*
X148960200Y-96880000D01*
X149607900Y-96880000D01*
X149607900Y-96883900D01*
G37*
G36*
X149604100Y-97040100D02*
G01*
X148724000Y-97040100D01*
X148724000Y-97036300D01*
X149604100Y-97036300D01*
X149604100Y-97040100D01*
G37*
G36*
X149604100Y-96880000D02*
G01*
X148975400Y-96880000D01*
X148975400Y-96876200D01*
X149604100Y-96876200D01*
X149604100Y-96880000D01*
G37*
G36*
X149600300Y-97043900D02*
G01*
X148724000Y-97043900D01*
X148724000Y-97040100D01*
X149600300Y-97040100D01*
X149600300Y-97043900D01*
G37*
G36*
X149596500Y-97051500D02*
G01*
X148716400Y-97051500D01*
X148716400Y-97047700D01*
X149596500Y-97047700D01*
X149596500Y-97051500D01*
G37*
G36*
X149596500Y-97047700D02*
G01*
X148720200Y-97047700D01*
X148720200Y-97043900D01*
X149596500Y-97043900D01*
X149596500Y-97047700D01*
G37*
G36*
X149596500Y-96876200D02*
G01*
X148990700Y-96876200D01*
X148990700Y-96872400D01*
X149596500Y-96872400D01*
X149596500Y-96876200D01*
G37*
G36*
X149592700Y-97055300D02*
G01*
X148716400Y-97055300D01*
X148716400Y-97051500D01*
X149592700Y-97051500D01*
X149592700Y-97055300D01*
G37*
G36*
X149588900Y-97059100D02*
G01*
X148712600Y-97059100D01*
X148712600Y-97055300D01*
X149588900Y-97055300D01*
X149588900Y-97059100D01*
G37*
G36*
X149588900Y-96872400D02*
G01*
X149013500Y-96872400D01*
X149013500Y-96868600D01*
X149588900Y-96868600D01*
X149588900Y-96872400D01*
G37*
G36*
X149585000Y-97066700D02*
G01*
X148708700Y-97066700D01*
X148708700Y-97062900D01*
X149585000Y-97062900D01*
X149585000Y-97066700D01*
G37*
G36*
X149585000Y-97062900D02*
G01*
X148708700Y-97062900D01*
X148708700Y-97059100D01*
X149585000Y-97059100D01*
X149585000Y-97062900D01*
G37*
G36*
X149581200Y-97070500D02*
G01*
X148704900Y-97070500D01*
X148704900Y-97066700D01*
X149581200Y-97066700D01*
X149581200Y-97070500D01*
G37*
G36*
X149577400Y-97078200D02*
G01*
X148701100Y-97078200D01*
X148701100Y-97074400D01*
X149577400Y-97074400D01*
X149577400Y-97078200D01*
G37*
G36*
X149577400Y-97074400D02*
G01*
X148701100Y-97074400D01*
X148701100Y-97070500D01*
X149577400Y-97070500D01*
X149577400Y-97074400D01*
G37*
G36*
X149577400Y-96868600D02*
G01*
X149040200Y-96868600D01*
X149040200Y-96864800D01*
X149577400Y-96864800D01*
X149577400Y-96868600D01*
G37*
G36*
X149573600Y-97082000D02*
G01*
X148697300Y-97082000D01*
X148697300Y-97078200D01*
X149573600Y-97078200D01*
X149573600Y-97082000D01*
G37*
G36*
X149569800Y-97085800D02*
G01*
X148468700Y-97085800D01*
X148468700Y-97082000D01*
X149569800Y-97082000D01*
X149569800Y-97085800D01*
G37*
G36*
X149566000Y-97093400D02*
G01*
X148472500Y-97093400D01*
X148472500Y-97089600D01*
X149566000Y-97089600D01*
X149566000Y-97093400D01*
G37*
G36*
X149566000Y-97089600D02*
G01*
X148472500Y-97089600D01*
X148472500Y-97085800D01*
X149566000Y-97085800D01*
X149566000Y-97089600D01*
G37*
G36*
X149562200Y-97097200D02*
G01*
X148476300Y-97097200D01*
X148476300Y-97093400D01*
X149562200Y-97093400D01*
X149562200Y-97097200D01*
G37*
G36*
X149558400Y-97101000D02*
G01*
X148476300Y-97101000D01*
X148476300Y-97097200D01*
X149558400Y-97097200D01*
X149558400Y-97101000D01*
G37*
G36*
X149554600Y-97108600D02*
G01*
X148480100Y-97108600D01*
X148480100Y-97104800D01*
X149554600Y-97104800D01*
X149554600Y-97108600D01*
G37*
G36*
X149554600Y-97104800D02*
G01*
X148480100Y-97104800D01*
X148480100Y-97101000D01*
X149554600Y-97101000D01*
X149554600Y-97104800D01*
G37*
G36*
X149550800Y-97112500D02*
G01*
X148484000Y-97112500D01*
X148484000Y-97108600D01*
X149550800Y-97108600D01*
X149550800Y-97112500D01*
G37*
G36*
X149546900Y-97116300D02*
G01*
X148484000Y-97116300D01*
X148484000Y-97112500D01*
X149546900Y-97112500D01*
X149546900Y-97116300D01*
G37*
G36*
X149546900Y-96864800D02*
G01*
X149246000Y-96864800D01*
X149246000Y-96861000D01*
X149546900Y-96861000D01*
X149546900Y-96864800D01*
G37*
G36*
X149543100Y-97123900D02*
G01*
X148487800Y-97123900D01*
X148487800Y-97120100D01*
X149543100Y-97120100D01*
X149543100Y-97123900D01*
G37*
G36*
X149543100Y-97120100D02*
G01*
X148484000Y-97120100D01*
X148484000Y-97116300D01*
X149543100Y-97116300D01*
X149543100Y-97120100D01*
G37*
G36*
X149539300Y-97127700D02*
G01*
X148487800Y-97127700D01*
X148487800Y-97123900D01*
X149539300Y-97123900D01*
X149539300Y-97127700D01*
G37*
G36*
X149535500Y-97135300D02*
G01*
X148491600Y-97135300D01*
X148491600Y-97131500D01*
X149535500Y-97131500D01*
X149535500Y-97135300D01*
G37*
G36*
X149535500Y-97131500D02*
G01*
X148491600Y-97131500D01*
X148491600Y-97127700D01*
X149535500Y-97127700D01*
X149535500Y-97131500D01*
G37*
G36*
X149531700Y-97139100D02*
G01*
X148491600Y-97139100D01*
X148491600Y-97135300D01*
X149531700Y-97135300D01*
X149531700Y-97139100D01*
G37*
G36*
X149527900Y-97142900D02*
G01*
X148495400Y-97142900D01*
X148495400Y-97139100D01*
X149527900Y-97139100D01*
X149527900Y-97142900D01*
G37*
G36*
X149524100Y-97150600D02*
G01*
X148495400Y-97150600D01*
X148495400Y-97146700D01*
X149524100Y-97146700D01*
X149524100Y-97150600D01*
G37*
G36*
X149524100Y-97146700D02*
G01*
X148495400Y-97146700D01*
X148495400Y-97142900D01*
X149524100Y-97142900D01*
X149524100Y-97146700D01*
G37*
G36*
X149520300Y-97154400D02*
G01*
X148495400Y-97154400D01*
X148495400Y-97150600D01*
X149520300Y-97150600D01*
X149520300Y-97154400D01*
G37*
G36*
X149516500Y-97158200D02*
G01*
X148499200Y-97158200D01*
X148499200Y-97154400D01*
X149516500Y-97154400D01*
X149516500Y-97158200D01*
G37*
G36*
X149512700Y-97165800D02*
G01*
X148499200Y-97165800D01*
X148499200Y-97162000D01*
X149512700Y-97162000D01*
X149512700Y-97165800D01*
G37*
G36*
X149512700Y-97162000D02*
G01*
X148499200Y-97162000D01*
X148499200Y-97158200D01*
X149512700Y-97158200D01*
X149512700Y-97162000D01*
G37*
G36*
X149508800Y-97169600D02*
G01*
X148499200Y-97169600D01*
X148499200Y-97165800D01*
X149508800Y-97165800D01*
X149508800Y-97169600D01*
G37*
G36*
X149505000Y-97173400D02*
G01*
X148503000Y-97173400D01*
X148503000Y-97169600D01*
X149505000Y-97169600D01*
X149505000Y-97173400D01*
G37*
G36*
X149501200Y-97181000D02*
G01*
X148503000Y-97181000D01*
X148503000Y-97177200D01*
X149501200Y-97177200D01*
X149501200Y-97181000D01*
G37*
G36*
X149501200Y-97177200D02*
G01*
X148503000Y-97177200D01*
X148503000Y-97173400D01*
X149501200Y-97173400D01*
X149501200Y-97177200D01*
G37*
G36*
X149497400Y-97184800D02*
G01*
X148503000Y-97184800D01*
X148503000Y-97181000D01*
X149497400Y-97181000D01*
X149497400Y-97184800D01*
G37*
G36*
X149493600Y-97192500D02*
G01*
X148506800Y-97192500D01*
X148506800Y-97188700D01*
X149493600Y-97188700D01*
X149493600Y-97192500D01*
G37*
G36*
X149493600Y-97188700D02*
G01*
X148503000Y-97188700D01*
X148503000Y-97184800D01*
X149493600Y-97184800D01*
X149493600Y-97188700D01*
G37*
G36*
X149489800Y-97196300D02*
G01*
X148506800Y-97196300D01*
X148506800Y-97192500D01*
X149489800Y-97192500D01*
X149489800Y-97196300D01*
G37*
G36*
X149486000Y-97200100D02*
G01*
X148506800Y-97200100D01*
X148506800Y-97196300D01*
X149486000Y-97196300D01*
X149486000Y-97200100D01*
G37*
G36*
X149482200Y-97207700D02*
G01*
X148506800Y-97207700D01*
X148506800Y-97203900D01*
X149482200Y-97203900D01*
X149482200Y-97207700D01*
G37*
G36*
X149482200Y-97203900D02*
G01*
X148506800Y-97203900D01*
X148506800Y-97200100D01*
X149482200Y-97200100D01*
X149482200Y-97203900D01*
G37*
G36*
X149478400Y-97211500D02*
G01*
X148506800Y-97211500D01*
X148506800Y-97207700D01*
X149478400Y-97207700D01*
X149478400Y-97211500D01*
G37*
G36*
X149474600Y-97215300D02*
G01*
X148506800Y-97215300D01*
X148506800Y-97211500D01*
X149474600Y-97211500D01*
X149474600Y-97215300D01*
G37*
G36*
X149470700Y-97222900D02*
G01*
X148510600Y-97222900D01*
X148510600Y-97219100D01*
X149470700Y-97219100D01*
X149470700Y-97222900D01*
G37*
G36*
X149470700Y-97219100D02*
G01*
X148510600Y-97219100D01*
X148510600Y-97215300D01*
X149470700Y-97215300D01*
X149470700Y-97219100D01*
G37*
G36*
X149466900Y-97226800D02*
G01*
X148510600Y-97226800D01*
X148510600Y-97222900D01*
X149466900Y-97222900D01*
X149466900Y-97226800D01*
G37*
G36*
X149463100Y-97230600D02*
G01*
X148510600Y-97230600D01*
X148510600Y-97226800D01*
X149463100Y-97226800D01*
X149463100Y-97230600D01*
G37*
G36*
X149459300Y-97238200D02*
G01*
X148510600Y-97238200D01*
X148510600Y-97234400D01*
X149459300Y-97234400D01*
X149459300Y-97238200D01*
G37*
G36*
X149459300Y-97234400D02*
G01*
X148510600Y-97234400D01*
X148510600Y-97230600D01*
X149459300Y-97230600D01*
X149459300Y-97234400D01*
G37*
G36*
X149455500Y-97242000D02*
G01*
X148510600Y-97242000D01*
X148510600Y-97238200D01*
X149455500Y-97238200D01*
X149455500Y-97242000D01*
G37*
G36*
X149451700Y-97245800D02*
G01*
X148510600Y-97245800D01*
X148510600Y-97242000D01*
X149451700Y-97242000D01*
X149451700Y-97245800D01*
G37*
G36*
X149447900Y-97253400D02*
G01*
X148510600Y-97253400D01*
X148510600Y-97249600D01*
X149447900Y-97249600D01*
X149447900Y-97253400D01*
G37*
G36*
X149447900Y-97249600D02*
G01*
X148510600Y-97249600D01*
X148510600Y-97245800D01*
X149447900Y-97245800D01*
X149447900Y-97249600D01*
G37*
G36*
X149444100Y-97257200D02*
G01*
X148510600Y-97257200D01*
X148510600Y-97253400D01*
X149444100Y-97253400D01*
X149444100Y-97257200D01*
G37*
G36*
X149440300Y-97264900D02*
G01*
X148510600Y-97264900D01*
X148510600Y-97261000D01*
X149440300Y-97261000D01*
X149440300Y-97264900D01*
G37*
G36*
X149440300Y-97261000D02*
G01*
X148510600Y-97261000D01*
X148510600Y-97257200D01*
X149440300Y-97257200D01*
X149440300Y-97261000D01*
G37*
G36*
X149436500Y-97268700D02*
G01*
X148865000Y-97268700D01*
X148865000Y-97264900D01*
X149436500Y-97264900D01*
X149436500Y-97268700D01*
G37*
G36*
X149432600Y-97272500D02*
G01*
X148880200Y-97272500D01*
X148880200Y-97268700D01*
X149432600Y-97268700D01*
X149432600Y-97272500D01*
G37*
G36*
X149428800Y-97280100D02*
G01*
X148891600Y-97280100D01*
X148891600Y-97276300D01*
X149428800Y-97276300D01*
X149428800Y-97280100D01*
G37*
G36*
X149428800Y-97276300D02*
G01*
X148887800Y-97276300D01*
X148887800Y-97272500D01*
X149428800Y-97272500D01*
X149428800Y-97276300D01*
G37*
G36*
X149425000Y-97283900D02*
G01*
X148895400Y-97283900D01*
X148895400Y-97280100D01*
X149425000Y-97280100D01*
X149425000Y-97283900D01*
G37*
G36*
X149421200Y-98365900D02*
G01*
X149097400Y-98365900D01*
X149097400Y-98362100D01*
X149421200Y-98362100D01*
X149421200Y-98365900D01*
G37*
G36*
X149421200Y-98362100D02*
G01*
X149085900Y-98362100D01*
X149085900Y-98358300D01*
X149421200Y-98358300D01*
X149421200Y-98362100D01*
G37*
G36*
X149421200Y-98358300D02*
G01*
X149074500Y-98358300D01*
X149074500Y-98354500D01*
X149421200Y-98354500D01*
X149421200Y-98358300D01*
G37*
G36*
X149421200Y-98354500D02*
G01*
X149063100Y-98354500D01*
X149063100Y-98350700D01*
X149421200Y-98350700D01*
X149421200Y-98354500D01*
G37*
G36*
X149421200Y-98350700D02*
G01*
X149051600Y-98350700D01*
X149051600Y-98346900D01*
X149421200Y-98346900D01*
X149421200Y-98350700D01*
G37*
G36*
X149421200Y-98346900D02*
G01*
X149040200Y-98346900D01*
X149040200Y-98343100D01*
X149421200Y-98343100D01*
X149421200Y-98346900D01*
G37*
G36*
X149421200Y-98343100D02*
G01*
X149028800Y-98343100D01*
X149028800Y-98339300D01*
X149421200Y-98339300D01*
X149421200Y-98343100D01*
G37*
G36*
X149421200Y-98339300D02*
G01*
X149017400Y-98339300D01*
X149017400Y-98335500D01*
X149421200Y-98335500D01*
X149421200Y-98339300D01*
G37*
G36*
X149421200Y-98335500D02*
G01*
X149005900Y-98335500D01*
X149005900Y-98331700D01*
X149421200Y-98331700D01*
X149421200Y-98335500D01*
G37*
G36*
X149421200Y-97287700D02*
G01*
X148895400Y-97287700D01*
X148895400Y-97283900D01*
X149421200Y-97283900D01*
X149421200Y-97287700D01*
G37*
G36*
X149417400Y-98381200D02*
G01*
X149143100Y-98381200D01*
X149143100Y-98377400D01*
X149417400Y-98377400D01*
X149417400Y-98381200D01*
G37*
G36*
X149417400Y-98377400D02*
G01*
X149131700Y-98377400D01*
X149131700Y-98373600D01*
X149417400Y-98373600D01*
X149417400Y-98377400D01*
G37*
G36*
X149417400Y-98373600D02*
G01*
X149120200Y-98373600D01*
X149120200Y-98369800D01*
X149417400Y-98369800D01*
X149417400Y-98373600D01*
G37*
G36*
X149417400Y-98369800D02*
G01*
X149108800Y-98369800D01*
X149108800Y-98365900D01*
X149417400Y-98365900D01*
X149417400Y-98369800D01*
G37*
G36*
X149417400Y-98331700D02*
G01*
X148994500Y-98331700D01*
X148994500Y-98327800D01*
X149417400Y-98327800D01*
X149417400Y-98331700D01*
G37*
G36*
X149417400Y-98327800D02*
G01*
X148983100Y-98327800D01*
X148983100Y-98324000D01*
X149417400Y-98324000D01*
X149417400Y-98327800D01*
G37*
G36*
X149417400Y-98324000D02*
G01*
X148971600Y-98324000D01*
X148971600Y-98320200D01*
X149417400Y-98320200D01*
X149417400Y-98324000D01*
G37*
G36*
X149417400Y-98320200D02*
G01*
X148956400Y-98320200D01*
X148956400Y-98316400D01*
X149417400Y-98316400D01*
X149417400Y-98320200D01*
G37*
G36*
X149417400Y-98316400D02*
G01*
X148945000Y-98316400D01*
X148945000Y-98312600D01*
X149417400Y-98312600D01*
X149417400Y-98316400D01*
G37*
G36*
X149417400Y-97295300D02*
G01*
X148899200Y-97295300D01*
X148899200Y-97291500D01*
X149417400Y-97291500D01*
X149417400Y-97295300D01*
G37*
G36*
X149417400Y-97291500D02*
G01*
X148899200Y-97291500D01*
X148899200Y-97287700D01*
X149417400Y-97287700D01*
X149417400Y-97291500D01*
G37*
G36*
X149413600Y-98388800D02*
G01*
X149165900Y-98388800D01*
X149165900Y-98385000D01*
X149413600Y-98385000D01*
X149413600Y-98388800D01*
G37*
G36*
X149413600Y-98385000D02*
G01*
X149154500Y-98385000D01*
X149154500Y-98381200D01*
X149413600Y-98381200D01*
X149413600Y-98385000D01*
G37*
G36*
X149413600Y-98312600D02*
G01*
X148933500Y-98312600D01*
X148933500Y-98308800D01*
X149413600Y-98308800D01*
X149413600Y-98312600D01*
G37*
G36*
X149413600Y-98308800D02*
G01*
X148922100Y-98308800D01*
X148922100Y-98305000D01*
X149413600Y-98305000D01*
X149413600Y-98308800D01*
G37*
G36*
X149413600Y-98305000D02*
G01*
X148910700Y-98305000D01*
X148910700Y-98301200D01*
X149413600Y-98301200D01*
X149413600Y-98305000D01*
G37*
G36*
X149413600Y-97299100D02*
G01*
X148899200Y-97299100D01*
X148899200Y-97295300D01*
X149413600Y-97295300D01*
X149413600Y-97299100D01*
G37*
G36*
X149409800Y-98392600D02*
G01*
X149177400Y-98392600D01*
X149177400Y-98388800D01*
X149409800Y-98388800D01*
X149409800Y-98392600D01*
G37*
G36*
X149409800Y-98301200D02*
G01*
X148899200Y-98301200D01*
X148899200Y-98297400D01*
X149409800Y-98297400D01*
X149409800Y-98301200D01*
G37*
G36*
X149409800Y-98297400D02*
G01*
X148887800Y-98297400D01*
X148887800Y-98293600D01*
X149409800Y-98293600D01*
X149409800Y-98297400D01*
G37*
G36*
X149409800Y-98293600D02*
G01*
X148876400Y-98293600D01*
X148876400Y-98289700D01*
X149409800Y-98289700D01*
X149409800Y-98293600D01*
G37*
G36*
X149409800Y-97303000D02*
G01*
X148899200Y-97303000D01*
X148899200Y-97299100D01*
X149409800Y-97299100D01*
X149409800Y-97303000D01*
G37*
G36*
X149406000Y-98400200D02*
G01*
X149200200Y-98400200D01*
X149200200Y-98396400D01*
X149406000Y-98396400D01*
X149406000Y-98400200D01*
G37*
G36*
X149406000Y-98396400D02*
G01*
X149188800Y-98396400D01*
X149188800Y-98392600D01*
X149406000Y-98392600D01*
X149406000Y-98396400D01*
G37*
G36*
X149406000Y-98289700D02*
G01*
X148865000Y-98289700D01*
X148865000Y-98285900D01*
X149406000Y-98285900D01*
X149406000Y-98289700D01*
G37*
G36*
X149406000Y-98285900D02*
G01*
X148853500Y-98285900D01*
X148853500Y-98282100D01*
X149406000Y-98282100D01*
X149406000Y-98285900D01*
G37*
G36*
X149406000Y-98282100D02*
G01*
X148845900Y-98282100D01*
X148845900Y-98278300D01*
X149406000Y-98278300D01*
X149406000Y-98282100D01*
G37*
G36*
X149406000Y-98278300D02*
G01*
X148834500Y-98278300D01*
X148834500Y-98274500D01*
X149406000Y-98274500D01*
X149406000Y-98278300D01*
G37*
G36*
X149406000Y-97310600D02*
G01*
X148899200Y-97310600D01*
X148899200Y-97306800D01*
X149406000Y-97306800D01*
X149406000Y-97310600D01*
G37*
G36*
X149406000Y-97306800D02*
G01*
X148899200Y-97306800D01*
X148899200Y-97303000D01*
X149406000Y-97303000D01*
X149406000Y-97306800D01*
G37*
G36*
X149402200Y-98404000D02*
G01*
X149211700Y-98404000D01*
X149211700Y-98400200D01*
X149402200Y-98400200D01*
X149402200Y-98404000D01*
G37*
G36*
X149402200Y-98274500D02*
G01*
X148826900Y-98274500D01*
X148826900Y-98270700D01*
X149402200Y-98270700D01*
X149402200Y-98274500D01*
G37*
G36*
X149402200Y-98270700D02*
G01*
X148819200Y-98270700D01*
X148819200Y-98266900D01*
X149402200Y-98266900D01*
X149402200Y-98270700D01*
G37*
G36*
X149402200Y-98266900D02*
G01*
X148807800Y-98266900D01*
X148807800Y-98263100D01*
X149402200Y-98263100D01*
X149402200Y-98266900D01*
G37*
G36*
X149402200Y-97314400D02*
G01*
X148899200Y-97314400D01*
X148899200Y-97310600D01*
X149402200Y-97310600D01*
X149402200Y-97314400D01*
G37*
G36*
X149398400Y-98407900D02*
G01*
X149223100Y-98407900D01*
X149223100Y-98404000D01*
X149398400Y-98404000D01*
X149398400Y-98407900D01*
G37*
G36*
X149398400Y-98263100D02*
G01*
X148800200Y-98263100D01*
X148800200Y-98259300D01*
X149398400Y-98259300D01*
X149398400Y-98263100D01*
G37*
G36*
X149398400Y-98259300D02*
G01*
X148792600Y-98259300D01*
X148792600Y-98255500D01*
X149398400Y-98255500D01*
X149398400Y-98259300D01*
G37*
G36*
X149398400Y-98255500D02*
G01*
X148784900Y-98255500D01*
X148784900Y-98251600D01*
X149398400Y-98251600D01*
X149398400Y-98255500D01*
G37*
G36*
X149398400Y-97322000D02*
G01*
X148895400Y-97322000D01*
X148895400Y-97318200D01*
X149398400Y-97318200D01*
X149398400Y-97322000D01*
G37*
G36*
X149398400Y-97318200D02*
G01*
X148899200Y-97318200D01*
X148899200Y-97314400D01*
X149398400Y-97314400D01*
X149398400Y-97318200D01*
G37*
G36*
X149394500Y-98411700D02*
G01*
X149234500Y-98411700D01*
X149234500Y-98407900D01*
X149394500Y-98407900D01*
X149394500Y-98411700D01*
G37*
G36*
X149394500Y-98251600D02*
G01*
X148781100Y-98251600D01*
X148781100Y-98247800D01*
X149394500Y-98247800D01*
X149394500Y-98251600D01*
G37*
G36*
X149394500Y-98247800D02*
G01*
X148773500Y-98247800D01*
X148773500Y-98244000D01*
X149394500Y-98244000D01*
X149394500Y-98247800D01*
G37*
G36*
X149394500Y-98244000D02*
G01*
X148765900Y-98244000D01*
X148765900Y-98240200D01*
X149394500Y-98240200D01*
X149394500Y-98244000D01*
G37*
G36*
X149394500Y-97325800D02*
G01*
X148895400Y-97325800D01*
X148895400Y-97322000D01*
X149394500Y-97322000D01*
X149394500Y-97325800D01*
G37*
G36*
X149390700Y-98415500D02*
G01*
X149246000Y-98415500D01*
X149246000Y-98411700D01*
X149390700Y-98411700D01*
X149390700Y-98415500D01*
G37*
G36*
X149390700Y-98240200D02*
G01*
X148758300Y-98240200D01*
X148758300Y-98236400D01*
X149390700Y-98236400D01*
X149390700Y-98240200D01*
G37*
G36*
X149390700Y-98236400D02*
G01*
X148754500Y-98236400D01*
X148754500Y-98232600D01*
X149390700Y-98232600D01*
X149390700Y-98236400D01*
G37*
G36*
X149390700Y-98232600D02*
G01*
X148746800Y-98232600D01*
X148746800Y-98228800D01*
X149390700Y-98228800D01*
X149390700Y-98232600D01*
G37*
G36*
X149390700Y-97329600D02*
G01*
X148891600Y-97329600D01*
X148891600Y-97325800D01*
X149390700Y-97325800D01*
X149390700Y-97329600D01*
G37*
G36*
X149386900Y-98419300D02*
G01*
X149257400Y-98419300D01*
X149257400Y-98415500D01*
X149386900Y-98415500D01*
X149386900Y-98419300D01*
G37*
G36*
X149386900Y-98228800D02*
G01*
X148739200Y-98228800D01*
X148739200Y-98225000D01*
X149386900Y-98225000D01*
X149386900Y-98228800D01*
G37*
G36*
X149386900Y-98225000D02*
G01*
X148735400Y-98225000D01*
X148735400Y-98221200D01*
X149386900Y-98221200D01*
X149386900Y-98225000D01*
G37*
G36*
X149386900Y-98221200D02*
G01*
X148727800Y-98221200D01*
X148727800Y-98217400D01*
X149386900Y-98217400D01*
X149386900Y-98221200D01*
G37*
G36*
X149386900Y-97337200D02*
G01*
X148887800Y-97337200D01*
X148887800Y-97333400D01*
X149386900Y-97333400D01*
X149386900Y-97337200D01*
G37*
G36*
X149386900Y-97333400D02*
G01*
X148891600Y-97333400D01*
X148891600Y-97329600D01*
X149386900Y-97329600D01*
X149386900Y-97333400D01*
G37*
G36*
X149383100Y-98217400D02*
G01*
X148724000Y-98217400D01*
X148724000Y-98213500D01*
X149383100Y-98213500D01*
X149383100Y-98217400D01*
G37*
G36*
X149383100Y-98213500D02*
G01*
X148720200Y-98213500D01*
X148720200Y-98209700D01*
X149383100Y-98209700D01*
X149383100Y-98213500D01*
G37*
G36*
X149383100Y-98209700D02*
G01*
X148712600Y-98209700D01*
X148712600Y-98205900D01*
X149383100Y-98205900D01*
X149383100Y-98209700D01*
G37*
G36*
X149383100Y-97341100D02*
G01*
X148884000Y-97341100D01*
X148884000Y-97337200D01*
X149383100Y-97337200D01*
X149383100Y-97341100D01*
G37*
G36*
X149379300Y-98423100D02*
G01*
X149268800Y-98423100D01*
X149268800Y-98419300D01*
X149379300Y-98419300D01*
X149379300Y-98423100D01*
G37*
G36*
X149379300Y-98205900D02*
G01*
X148708700Y-98205900D01*
X148708700Y-98202100D01*
X149379300Y-98202100D01*
X149379300Y-98205900D01*
G37*
G36*
X149379300Y-98202100D02*
G01*
X148704900Y-98202100D01*
X148704900Y-98198300D01*
X149379300Y-98198300D01*
X149379300Y-98202100D01*
G37*
G36*
X149379300Y-98198300D02*
G01*
X148697300Y-98198300D01*
X148697300Y-98194500D01*
X149379300Y-98194500D01*
X149379300Y-98198300D01*
G37*
G36*
X149379300Y-97344900D02*
G01*
X148884000Y-97344900D01*
X148884000Y-97341100D01*
X149379300Y-97341100D01*
X149379300Y-97344900D01*
G37*
G36*
X149375500Y-98426900D02*
G01*
X149280200Y-98426900D01*
X149280200Y-98423100D01*
X149375500Y-98423100D01*
X149375500Y-98426900D01*
G37*
G36*
X149375500Y-98194500D02*
G01*
X148693500Y-98194500D01*
X148693500Y-98190700D01*
X149375500Y-98190700D01*
X149375500Y-98194500D01*
G37*
G36*
X149375500Y-98190700D02*
G01*
X148689700Y-98190700D01*
X148689700Y-98186900D01*
X149375500Y-98186900D01*
X149375500Y-98190700D01*
G37*
G36*
X149375500Y-98186900D02*
G01*
X148685900Y-98186900D01*
X148685900Y-98183100D01*
X149375500Y-98183100D01*
X149375500Y-98186900D01*
G37*
G36*
X149375500Y-97352500D02*
G01*
X148876400Y-97352500D01*
X148876400Y-97348700D01*
X149375500Y-97348700D01*
X149375500Y-97352500D01*
G37*
G36*
X149375500Y-97348700D02*
G01*
X148880200Y-97348700D01*
X148880200Y-97344900D01*
X149375500Y-97344900D01*
X149375500Y-97348700D01*
G37*
G36*
X149371700Y-98183100D02*
G01*
X148682100Y-98183100D01*
X148682100Y-98179300D01*
X149371700Y-98179300D01*
X149371700Y-98183100D01*
G37*
G36*
X149371700Y-98179300D02*
G01*
X148678300Y-98179300D01*
X148678300Y-98175400D01*
X149371700Y-98175400D01*
X149371700Y-98179300D01*
G37*
G36*
X149371700Y-98175400D02*
G01*
X148674500Y-98175400D01*
X148674500Y-98171600D01*
X149371700Y-98171600D01*
X149371700Y-98175400D01*
G37*
G36*
X149371700Y-97356300D02*
G01*
X148872600Y-97356300D01*
X148872600Y-97352500D01*
X149371700Y-97352500D01*
X149371700Y-97356300D01*
G37*
G36*
X149367900Y-98430700D02*
G01*
X149295500Y-98430700D01*
X149295500Y-98426900D01*
X149367900Y-98426900D01*
X149367900Y-98430700D01*
G37*
G36*
X149367900Y-98171600D02*
G01*
X148670600Y-98171600D01*
X148670600Y-98167800D01*
X149367900Y-98167800D01*
X149367900Y-98171600D01*
G37*
G36*
X149367900Y-98167800D02*
G01*
X148666800Y-98167800D01*
X148666800Y-98164000D01*
X149367900Y-98164000D01*
X149367900Y-98167800D01*
G37*
G36*
X149367900Y-98164000D02*
G01*
X148663000Y-98164000D01*
X148663000Y-98160200D01*
X149367900Y-98160200D01*
X149367900Y-98164000D01*
G37*
G36*
X149367900Y-97360100D02*
G01*
X148868800Y-97360100D01*
X148868800Y-97356300D01*
X149367900Y-97356300D01*
X149367900Y-97360100D01*
G37*
G36*
X149364100Y-98160200D02*
G01*
X148659200Y-98160200D01*
X148659200Y-98156400D01*
X149364100Y-98156400D01*
X149364100Y-98160200D01*
G37*
G36*
X149364100Y-98156400D02*
G01*
X148655400Y-98156400D01*
X148655400Y-98152600D01*
X149364100Y-98152600D01*
X149364100Y-98156400D01*
G37*
G36*
X149364100Y-98152600D02*
G01*
X148651600Y-98152600D01*
X148651600Y-98148800D01*
X149364100Y-98148800D01*
X149364100Y-98152600D01*
G37*
G36*
X149364100Y-97367700D02*
G01*
X148861100Y-97367700D01*
X148861100Y-97363900D01*
X149364100Y-97363900D01*
X149364100Y-97367700D01*
G37*
G36*
X149364100Y-97363900D02*
G01*
X148865000Y-97363900D01*
X148865000Y-97360100D01*
X149364100Y-97360100D01*
X149364100Y-97363900D01*
G37*
G36*
X149360300Y-98148800D02*
G01*
X148647800Y-98148800D01*
X148647800Y-98145000D01*
X149360300Y-98145000D01*
X149360300Y-98148800D01*
G37*
G36*
X149360300Y-98145000D02*
G01*
X148644000Y-98145000D01*
X148644000Y-98141200D01*
X149360300Y-98141200D01*
X149360300Y-98145000D01*
G37*
G36*
X149360300Y-98141200D02*
G01*
X148640200Y-98141200D01*
X148640200Y-98137300D01*
X149360300Y-98137300D01*
X149360300Y-98141200D01*
G37*
G36*
X149360300Y-97371500D02*
G01*
X148857300Y-97371500D01*
X148857300Y-97367700D01*
X149360300Y-97367700D01*
X149360300Y-97371500D01*
G37*
G36*
X149356400Y-98434500D02*
G01*
X149310700Y-98434500D01*
X149310700Y-98430700D01*
X149356400Y-98430700D01*
X149356400Y-98434500D01*
G37*
G36*
X149356400Y-98137300D02*
G01*
X148636400Y-98137300D01*
X148636400Y-98133500D01*
X149356400Y-98133500D01*
X149356400Y-98137300D01*
G37*
G36*
X149356400Y-98133500D02*
G01*
X148632500Y-98133500D01*
X148632500Y-98129700D01*
X149356400Y-98129700D01*
X149356400Y-98133500D01*
G37*
G36*
X149356400Y-98129700D02*
G01*
X148632500Y-98129700D01*
X148632500Y-98125900D01*
X149356400Y-98125900D01*
X149356400Y-98129700D01*
G37*
G36*
X149356400Y-97379200D02*
G01*
X148849700Y-97379200D01*
X148849700Y-97375300D01*
X149356400Y-97375300D01*
X149356400Y-97379200D01*
G37*
G36*
X149356400Y-97375300D02*
G01*
X148853500Y-97375300D01*
X148853500Y-97371500D01*
X149356400Y-97371500D01*
X149356400Y-97375300D01*
G37*
G36*
X149352600Y-98125900D02*
G01*
X148628700Y-98125900D01*
X148628700Y-98122100D01*
X149352600Y-98122100D01*
X149352600Y-98125900D01*
G37*
G36*
X149352600Y-98122100D02*
G01*
X148624900Y-98122100D01*
X148624900Y-98118300D01*
X149352600Y-98118300D01*
X149352600Y-98122100D01*
G37*
G36*
X149352600Y-98118300D02*
G01*
X148621100Y-98118300D01*
X148621100Y-98114500D01*
X149352600Y-98114500D01*
X149352600Y-98118300D01*
G37*
G36*
X149352600Y-97383000D02*
G01*
X148845900Y-97383000D01*
X148845900Y-97379200D01*
X149352600Y-97379200D01*
X149352600Y-97383000D01*
G37*
G36*
X149348800Y-98114500D02*
G01*
X148621100Y-98114500D01*
X148621100Y-98110700D01*
X149348800Y-98110700D01*
X149348800Y-98114500D01*
G37*
G36*
X149348800Y-98110700D02*
G01*
X148617300Y-98110700D01*
X148617300Y-98106900D01*
X149348800Y-98106900D01*
X149348800Y-98110700D01*
G37*
G36*
X149348800Y-98106900D02*
G01*
X148613500Y-98106900D01*
X148613500Y-98103100D01*
X149348800Y-98103100D01*
X149348800Y-98106900D01*
G37*
G36*
X149348800Y-97386800D02*
G01*
X148842100Y-97386800D01*
X148842100Y-97383000D01*
X149348800Y-97383000D01*
X149348800Y-97386800D01*
G37*
G36*
X149345000Y-98103100D02*
G01*
X148613500Y-98103100D01*
X148613500Y-98099200D01*
X149345000Y-98099200D01*
X149345000Y-98103100D01*
G37*
G36*
X149345000Y-98099200D02*
G01*
X148609700Y-98099200D01*
X148609700Y-98095400D01*
X149345000Y-98095400D01*
X149345000Y-98099200D01*
G37*
G36*
X149345000Y-98095400D02*
G01*
X148609700Y-98095400D01*
X148609700Y-98091600D01*
X149345000Y-98091600D01*
X149345000Y-98095400D01*
G37*
G36*
X149345000Y-97390600D02*
G01*
X148834500Y-97390600D01*
X148834500Y-97386800D01*
X149345000Y-97386800D01*
X149345000Y-97390600D01*
G37*
G36*
X149341200Y-98091600D02*
G01*
X148605900Y-98091600D01*
X148605900Y-98087800D01*
X149341200Y-98087800D01*
X149341200Y-98091600D01*
G37*
G36*
X149341200Y-98087800D02*
G01*
X148602100Y-98087800D01*
X148602100Y-98084000D01*
X149341200Y-98084000D01*
X149341200Y-98087800D01*
G37*
G36*
X149341200Y-98084000D02*
G01*
X148602100Y-98084000D01*
X148602100Y-98080200D01*
X149341200Y-98080200D01*
X149341200Y-98084000D01*
G37*
G36*
X149341200Y-97398200D02*
G01*
X148823000Y-97398200D01*
X148823000Y-97394400D01*
X149341200Y-97394400D01*
X149341200Y-97398200D01*
G37*
G36*
X149341200Y-97394400D02*
G01*
X148830700Y-97394400D01*
X148830700Y-97390600D01*
X149341200Y-97390600D01*
X149341200Y-97394400D01*
G37*
G36*
X149337400Y-98080200D02*
G01*
X148598300Y-98080200D01*
X148598300Y-98076400D01*
X149337400Y-98076400D01*
X149337400Y-98080200D01*
G37*
G36*
X149337400Y-98076400D02*
G01*
X148598300Y-98076400D01*
X148598300Y-98072600D01*
X149337400Y-98072600D01*
X149337400Y-98076400D01*
G37*
G36*
X149337400Y-98072600D02*
G01*
X148594400Y-98072600D01*
X148594400Y-98068800D01*
X149337400Y-98068800D01*
X149337400Y-98072600D01*
G37*
G36*
X149337400Y-97402000D02*
G01*
X148819200Y-97402000D01*
X148819200Y-97398200D01*
X149337400Y-97398200D01*
X149337400Y-97402000D01*
G37*
G36*
X149333600Y-98068800D02*
G01*
X148594400Y-98068800D01*
X148594400Y-98065000D01*
X149333600Y-98065000D01*
X149333600Y-98068800D01*
G37*
G36*
X149333600Y-98065000D02*
G01*
X148590600Y-98065000D01*
X148590600Y-98061100D01*
X149333600Y-98061100D01*
X149333600Y-98065000D01*
G37*
G36*
X149333600Y-98061100D02*
G01*
X148590600Y-98061100D01*
X148590600Y-98057300D01*
X149333600Y-98057300D01*
X149333600Y-98061100D01*
G37*
G36*
X149333600Y-97405800D02*
G01*
X148811600Y-97405800D01*
X148811600Y-97402000D01*
X149333600Y-97402000D01*
X149333600Y-97405800D01*
G37*
G36*
X149329800Y-98057300D02*
G01*
X148586800Y-98057300D01*
X148586800Y-98053500D01*
X149329800Y-98053500D01*
X149329800Y-98057300D01*
G37*
G36*
X149329800Y-98053500D02*
G01*
X148586800Y-98053500D01*
X148586800Y-98049700D01*
X149329800Y-98049700D01*
X149329800Y-98053500D01*
G37*
G36*
X149329800Y-98049700D02*
G01*
X148586800Y-98049700D01*
X148586800Y-98045900D01*
X149329800Y-98045900D01*
X149329800Y-98049700D01*
G37*
G36*
X149329800Y-97409600D02*
G01*
X148807800Y-97409600D01*
X148807800Y-97405800D01*
X149329800Y-97405800D01*
X149329800Y-97409600D01*
G37*
G36*
X149326000Y-98045900D02*
G01*
X148583000Y-98045900D01*
X148583000Y-98042100D01*
X149326000Y-98042100D01*
X149326000Y-98045900D01*
G37*
G36*
X149326000Y-98042100D02*
G01*
X148583000Y-98042100D01*
X148583000Y-98038300D01*
X149326000Y-98038300D01*
X149326000Y-98042100D01*
G37*
G36*
X149326000Y-98038300D02*
G01*
X148579200Y-98038300D01*
X148579200Y-98034500D01*
X149326000Y-98034500D01*
X149326000Y-98038300D01*
G37*
G36*
X149326000Y-97413400D02*
G01*
X148800200Y-97413400D01*
X148800200Y-97409600D01*
X149326000Y-97409600D01*
X149326000Y-97413400D01*
G37*
G36*
X149322200Y-98034500D02*
G01*
X148579200Y-98034500D01*
X148579200Y-98030700D01*
X149322200Y-98030700D01*
X149322200Y-98034500D01*
G37*
G36*
X149322200Y-98030700D02*
G01*
X148579200Y-98030700D01*
X148579200Y-98026900D01*
X149322200Y-98026900D01*
X149322200Y-98030700D01*
G37*
G36*
X149322200Y-98026900D02*
G01*
X148575400Y-98026900D01*
X148575400Y-98023000D01*
X149322200Y-98023000D01*
X149322200Y-98026900D01*
G37*
G36*
X149322200Y-97417300D02*
G01*
X148796400Y-97417300D01*
X148796400Y-97413400D01*
X149322200Y-97413400D01*
X149322200Y-97417300D01*
G37*
G36*
X149318300Y-98023000D02*
G01*
X148575400Y-98023000D01*
X148575400Y-98019200D01*
X149318300Y-98019200D01*
X149318300Y-98023000D01*
G37*
G36*
X149318300Y-98019200D02*
G01*
X148575400Y-98019200D01*
X148575400Y-98015400D01*
X149318300Y-98015400D01*
X149318300Y-98019200D01*
G37*
G36*
X149318300Y-98015400D02*
G01*
X148571600Y-98015400D01*
X148571600Y-98011600D01*
X149318300Y-98011600D01*
X149318300Y-98015400D01*
G37*
G36*
X149318300Y-97421100D02*
G01*
X148788800Y-97421100D01*
X148788800Y-97417300D01*
X149318300Y-97417300D01*
X149318300Y-97421100D01*
G37*
G36*
X149314500Y-98011600D02*
G01*
X148571600Y-98011600D01*
X148571600Y-98007800D01*
X149314500Y-98007800D01*
X149314500Y-98011600D01*
G37*
G36*
X149314500Y-98007800D02*
G01*
X148571600Y-98007800D01*
X148571600Y-98004000D01*
X149314500Y-98004000D01*
X149314500Y-98007800D01*
G37*
G36*
X149314500Y-98004000D02*
G01*
X148571600Y-98004000D01*
X148571600Y-98000200D01*
X149314500Y-98000200D01*
X149314500Y-98004000D01*
G37*
G36*
X149314500Y-98000200D02*
G01*
X148567800Y-98000200D01*
X148567800Y-97996400D01*
X149314500Y-97996400D01*
X149314500Y-98000200D01*
G37*
G36*
X149314500Y-97424900D02*
G01*
X148781100Y-97424900D01*
X148781100Y-97421100D01*
X149314500Y-97421100D01*
X149314500Y-97424900D01*
G37*
G36*
X149310700Y-97996400D02*
G01*
X148567800Y-97996400D01*
X148567800Y-97992600D01*
X149310700Y-97992600D01*
X149310700Y-97996400D01*
G37*
G36*
X149310700Y-97992600D02*
G01*
X148567800Y-97992600D01*
X148567800Y-97988800D01*
X149310700Y-97988800D01*
X149310700Y-97992600D01*
G37*
G36*
X149310700Y-97988800D02*
G01*
X148564000Y-97988800D01*
X148564000Y-97984900D01*
X149310700Y-97984900D01*
X149310700Y-97988800D01*
G37*
G36*
X149310700Y-97428700D02*
G01*
X148773500Y-97428700D01*
X148773500Y-97424900D01*
X149310700Y-97424900D01*
X149310700Y-97428700D01*
G37*
G36*
X149306900Y-97984900D02*
G01*
X148564000Y-97984900D01*
X148564000Y-97981100D01*
X149306900Y-97981100D01*
X149306900Y-97984900D01*
G37*
G36*
X149306900Y-97981100D02*
G01*
X148564000Y-97981100D01*
X148564000Y-97977300D01*
X149306900Y-97977300D01*
X149306900Y-97981100D01*
G37*
G36*
X149306900Y-97977300D02*
G01*
X148560200Y-97977300D01*
X148560200Y-97973500D01*
X149306900Y-97973500D01*
X149306900Y-97977300D01*
G37*
G36*
X149306900Y-97436300D02*
G01*
X148758300Y-97436300D01*
X148758300Y-97432500D01*
X149306900Y-97432500D01*
X149306900Y-97436300D01*
G37*
G36*
X149306900Y-97432500D02*
G01*
X148765900Y-97432500D01*
X148765900Y-97428700D01*
X149306900Y-97428700D01*
X149306900Y-97432500D01*
G37*
G36*
X149303100Y-97973500D02*
G01*
X148560200Y-97973500D01*
X148560200Y-97969700D01*
X149303100Y-97969700D01*
X149303100Y-97973500D01*
G37*
G36*
X149303100Y-97969700D02*
G01*
X148560200Y-97969700D01*
X148560200Y-97965900D01*
X149303100Y-97965900D01*
X149303100Y-97969700D01*
G37*
G36*
X149303100Y-97965900D02*
G01*
X148560200Y-97965900D01*
X148560200Y-97962100D01*
X149303100Y-97962100D01*
X149303100Y-97965900D01*
G37*
G36*
X149303100Y-97440100D02*
G01*
X148746800Y-97440100D01*
X148746800Y-97436300D01*
X149303100Y-97436300D01*
X149303100Y-97440100D01*
G37*
G36*
X149299300Y-97962100D02*
G01*
X147870500Y-97962100D01*
X147870500Y-97958300D01*
X149299300Y-97958300D01*
X149299300Y-97962100D01*
G37*
G36*
X149299300Y-97958300D02*
G01*
X147870500Y-97958300D01*
X147870500Y-97954500D01*
X149299300Y-97954500D01*
X149299300Y-97958300D01*
G37*
G36*
X149299300Y-97954500D02*
G01*
X147874400Y-97954500D01*
X147874400Y-97950700D01*
X149299300Y-97950700D01*
X149299300Y-97954500D01*
G37*
G36*
X149299300Y-97443900D02*
G01*
X148739200Y-97443900D01*
X148739200Y-97440100D01*
X149299300Y-97440100D01*
X149299300Y-97443900D01*
G37*
G36*
X149295500Y-97950700D02*
G01*
X147874400Y-97950700D01*
X147874400Y-97946800D01*
X149295500Y-97946800D01*
X149295500Y-97950700D01*
G37*
G36*
X149295500Y-97946800D02*
G01*
X147874400Y-97946800D01*
X147874400Y-97943000D01*
X149295500Y-97943000D01*
X149295500Y-97946800D01*
G37*
G36*
X149295500Y-97943000D02*
G01*
X147878200Y-97943000D01*
X147878200Y-97939200D01*
X149295500Y-97939200D01*
X149295500Y-97943000D01*
G37*
G36*
X149291700Y-97939200D02*
G01*
X147878200Y-97939200D01*
X147878200Y-97935400D01*
X149291700Y-97935400D01*
X149291700Y-97939200D01*
G37*
G36*
X149291700Y-97935400D02*
G01*
X147878200Y-97935400D01*
X147878200Y-97931600D01*
X149291700Y-97931600D01*
X149291700Y-97935400D01*
G37*
G36*
X149291700Y-97931600D02*
G01*
X147882000Y-97931600D01*
X147882000Y-97927800D01*
X149291700Y-97927800D01*
X149291700Y-97931600D01*
G37*
G36*
X149291700Y-97447700D02*
G01*
X148727800Y-97447700D01*
X148727800Y-97443900D01*
X149291700Y-97443900D01*
X149291700Y-97447700D01*
G37*
G36*
X149287900Y-97927800D02*
G01*
X147882000Y-97927800D01*
X147882000Y-97924000D01*
X149287900Y-97924000D01*
X149287900Y-97927800D01*
G37*
G36*
X149287900Y-97924000D02*
G01*
X147882000Y-97924000D01*
X147882000Y-97920200D01*
X149287900Y-97920200D01*
X149287900Y-97924000D01*
G37*
G36*
X149287900Y-97920200D02*
G01*
X147885800Y-97920200D01*
X147885800Y-97916400D01*
X149287900Y-97916400D01*
X149287900Y-97920200D01*
G37*
G36*
X149287900Y-97451500D02*
G01*
X148720200Y-97451500D01*
X148720200Y-97447700D01*
X149287900Y-97447700D01*
X149287900Y-97451500D01*
G37*
G36*
X149284100Y-97916400D02*
G01*
X147885800Y-97916400D01*
X147885800Y-97912600D01*
X149284100Y-97912600D01*
X149284100Y-97916400D01*
G37*
G36*
X149284100Y-97912600D02*
G01*
X148301100Y-97912600D01*
X148301100Y-97908700D01*
X149284100Y-97908700D01*
X149284100Y-97912600D01*
G37*
G36*
X149284100Y-97908700D02*
G01*
X148312500Y-97908700D01*
X148312500Y-97904900D01*
X149284100Y-97904900D01*
X149284100Y-97908700D01*
G37*
G36*
X149284100Y-97455400D02*
G01*
X148704900Y-97455400D01*
X148704900Y-97451500D01*
X149284100Y-97451500D01*
X149284100Y-97455400D01*
G37*
G36*
X149280200Y-97904900D02*
G01*
X148316300Y-97904900D01*
X148316300Y-97901100D01*
X149280200Y-97901100D01*
X149280200Y-97904900D01*
G37*
G36*
X149280200Y-97901100D02*
G01*
X148323900Y-97901100D01*
X148323900Y-97897300D01*
X149280200Y-97897300D01*
X149280200Y-97901100D01*
G37*
G36*
X149280200Y-97897300D02*
G01*
X148327700Y-97897300D01*
X148327700Y-97893500D01*
X149280200Y-97893500D01*
X149280200Y-97897300D01*
G37*
G36*
X149280200Y-97459200D02*
G01*
X148689700Y-97459200D01*
X148689700Y-97455400D01*
X149280200Y-97455400D01*
X149280200Y-97459200D01*
G37*
G36*
X149276400Y-97893500D02*
G01*
X148335400Y-97893500D01*
X148335400Y-97889700D01*
X149276400Y-97889700D01*
X149276400Y-97893500D01*
G37*
G36*
X149276400Y-97889700D02*
G01*
X148339200Y-97889700D01*
X148339200Y-97885900D01*
X149276400Y-97885900D01*
X149276400Y-97889700D01*
G37*
G36*
X149276400Y-97885900D02*
G01*
X148343000Y-97885900D01*
X148343000Y-97882100D01*
X149276400Y-97882100D01*
X149276400Y-97885900D01*
G37*
G36*
X149276400Y-97463000D02*
G01*
X148666800Y-97463000D01*
X148666800Y-97459200D01*
X149276400Y-97459200D01*
X149276400Y-97463000D01*
G37*
G36*
X149272600Y-97882100D02*
G01*
X148346800Y-97882100D01*
X148346800Y-97878300D01*
X149272600Y-97878300D01*
X149272600Y-97882100D01*
G37*
G36*
X149272600Y-97878300D02*
G01*
X148350600Y-97878300D01*
X148350600Y-97874500D01*
X149272600Y-97874500D01*
X149272600Y-97878300D01*
G37*
G36*
X149272600Y-97874500D02*
G01*
X148354400Y-97874500D01*
X148354400Y-97870600D01*
X149272600Y-97870600D01*
X149272600Y-97874500D01*
G37*
G36*
X149272600Y-97466800D02*
G01*
X148362000Y-97466800D01*
X148362000Y-97463000D01*
X149272600Y-97463000D01*
X149272600Y-97466800D01*
G37*
G36*
X149268800Y-97870600D02*
G01*
X148358200Y-97870600D01*
X148358200Y-97866800D01*
X149268800Y-97866800D01*
X149268800Y-97870600D01*
G37*
G36*
X149268800Y-97866800D02*
G01*
X148362000Y-97866800D01*
X148362000Y-97863000D01*
X149268800Y-97863000D01*
X149268800Y-97866800D01*
G37*
G36*
X149268800Y-97863000D02*
G01*
X148365800Y-97863000D01*
X148365800Y-97859200D01*
X149268800Y-97859200D01*
X149268800Y-97863000D01*
G37*
G36*
X149268800Y-97470600D02*
G01*
X148362000Y-97470600D01*
X148362000Y-97466800D01*
X149268800Y-97466800D01*
X149268800Y-97470600D01*
G37*
G36*
X149265000Y-97859200D02*
G01*
X148369700Y-97859200D01*
X148369700Y-97855400D01*
X149265000Y-97855400D01*
X149265000Y-97859200D01*
G37*
G36*
X149265000Y-97855400D02*
G01*
X148369700Y-97855400D01*
X148369700Y-97851600D01*
X149265000Y-97851600D01*
X149265000Y-97855400D01*
G37*
G36*
X149265000Y-97474400D02*
G01*
X148362000Y-97474400D01*
X148362000Y-97470600D01*
X149265000Y-97470600D01*
X149265000Y-97474400D01*
G37*
G36*
X149261200Y-97851600D02*
G01*
X148373500Y-97851600D01*
X148373500Y-97847800D01*
X149261200Y-97847800D01*
X149261200Y-97851600D01*
G37*
G36*
X149261200Y-97847800D02*
G01*
X148377300Y-97847800D01*
X148377300Y-97844000D01*
X149261200Y-97844000D01*
X149261200Y-97847800D01*
G37*
G36*
X149261200Y-97844000D02*
G01*
X148381100Y-97844000D01*
X148381100Y-97840200D01*
X149261200Y-97840200D01*
X149261200Y-97844000D01*
G37*
G36*
X149257400Y-97840200D02*
G01*
X148381100Y-97840200D01*
X148381100Y-97836400D01*
X149257400Y-97836400D01*
X149257400Y-97840200D01*
G37*
G36*
X149257400Y-97836400D02*
G01*
X148788800Y-97836400D01*
X148788800Y-97832500D01*
X149257400Y-97832500D01*
X149257400Y-97836400D01*
G37*
G36*
X149257400Y-97478200D02*
G01*
X148362000Y-97478200D01*
X148362000Y-97474400D01*
X149257400Y-97474400D01*
X149257400Y-97478200D01*
G37*
G36*
X149253600Y-97832500D02*
G01*
X148804000Y-97832500D01*
X148804000Y-97828700D01*
X149253600Y-97828700D01*
X149253600Y-97832500D01*
G37*
G36*
X149253600Y-97828700D02*
G01*
X148811600Y-97828700D01*
X148811600Y-97824900D01*
X149253600Y-97824900D01*
X149253600Y-97828700D01*
G37*
G36*
X149253600Y-97482000D02*
G01*
X148362000Y-97482000D01*
X148362000Y-97478200D01*
X149253600Y-97478200D01*
X149253600Y-97482000D01*
G37*
G36*
X149249800Y-97824900D02*
G01*
X148815400Y-97824900D01*
X148815400Y-97821100D01*
X149249800Y-97821100D01*
X149249800Y-97824900D01*
G37*
G36*
X149249800Y-97821100D02*
G01*
X148815400Y-97821100D01*
X148815400Y-97817300D01*
X149249800Y-97817300D01*
X149249800Y-97821100D01*
G37*
G36*
X149249800Y-97485800D02*
G01*
X148362000Y-97485800D01*
X148362000Y-97482000D01*
X149249800Y-97482000D01*
X149249800Y-97485800D01*
G37*
G36*
X149246000Y-97817300D02*
G01*
X148819200Y-97817300D01*
X148819200Y-97813500D01*
X149246000Y-97813500D01*
X149246000Y-97817300D01*
G37*
G36*
X149246000Y-97813500D02*
G01*
X148819200Y-97813500D01*
X148819200Y-97809700D01*
X149246000Y-97809700D01*
X149246000Y-97813500D01*
G37*
G36*
X149246000Y-97489600D02*
G01*
X148358200Y-97489600D01*
X148358200Y-97485800D01*
X149246000Y-97485800D01*
X149246000Y-97489600D01*
G37*
G36*
X149242100Y-97809700D02*
G01*
X148819200Y-97809700D01*
X148819200Y-97805900D01*
X149242100Y-97805900D01*
X149242100Y-97809700D01*
G37*
G36*
X149242100Y-97805900D02*
G01*
X148819200Y-97805900D01*
X148819200Y-97802100D01*
X149242100Y-97802100D01*
X149242100Y-97805900D01*
G37*
G36*
X149238300Y-97802100D02*
G01*
X148819200Y-97802100D01*
X148819200Y-97798300D01*
X149238300Y-97798300D01*
X149238300Y-97802100D01*
G37*
G36*
X149238300Y-97798300D02*
G01*
X148819200Y-97798300D01*
X148819200Y-97794400D01*
X149238300Y-97794400D01*
X149238300Y-97798300D01*
G37*
G36*
X149238300Y-97493500D02*
G01*
X148358200Y-97493500D01*
X148358200Y-97489600D01*
X149238300Y-97489600D01*
X149238300Y-97493500D01*
G37*
G36*
X149234500Y-97794400D02*
G01*
X148819200Y-97794400D01*
X148819200Y-97790600D01*
X149234500Y-97790600D01*
X149234500Y-97794400D01*
G37*
G36*
X149234500Y-97790600D02*
G01*
X148819200Y-97790600D01*
X148819200Y-97786800D01*
X149234500Y-97786800D01*
X149234500Y-97790600D01*
G37*
G36*
X149234500Y-97497300D02*
G01*
X148354400Y-97497300D01*
X148354400Y-97493500D01*
X149234500Y-97493500D01*
X149234500Y-97497300D01*
G37*
G36*
X149230700Y-97786800D02*
G01*
X148819200Y-97786800D01*
X148819200Y-97783000D01*
X149230700Y-97783000D01*
X149230700Y-97786800D01*
G37*
G36*
X149230700Y-97783000D02*
G01*
X148819200Y-97783000D01*
X148819200Y-97779200D01*
X149230700Y-97779200D01*
X149230700Y-97783000D01*
G37*
G36*
X149230700Y-97501100D02*
G01*
X148350600Y-97501100D01*
X148350600Y-97497300D01*
X149230700Y-97497300D01*
X149230700Y-97501100D01*
G37*
G36*
X149226900Y-97779200D02*
G01*
X148819200Y-97779200D01*
X148819200Y-97775400D01*
X149226900Y-97775400D01*
X149226900Y-97779200D01*
G37*
G36*
X149223100Y-97775400D02*
G01*
X148815400Y-97775400D01*
X148815400Y-97771600D01*
X149223100Y-97771600D01*
X149223100Y-97775400D01*
G37*
G36*
X149223100Y-97771600D02*
G01*
X148815400Y-97771600D01*
X148815400Y-97767800D01*
X149223100Y-97767800D01*
X149223100Y-97771600D01*
G37*
G36*
X149223100Y-97504900D02*
G01*
X148343000Y-97504900D01*
X148343000Y-97501100D01*
X149223100Y-97501100D01*
X149223100Y-97504900D01*
G37*
G36*
X149219300Y-97767800D02*
G01*
X148815400Y-97767800D01*
X148815400Y-97764000D01*
X149219300Y-97764000D01*
X149219300Y-97767800D01*
G37*
G36*
X149219300Y-97764000D02*
G01*
X148811600Y-97764000D01*
X148811600Y-97760200D01*
X149219300Y-97760200D01*
X149219300Y-97764000D01*
G37*
G36*
X149219300Y-97508700D02*
G01*
X148335400Y-97508700D01*
X148335400Y-97504900D01*
X149219300Y-97504900D01*
X149219300Y-97508700D01*
G37*
G36*
X149215500Y-97760200D02*
G01*
X148811600Y-97760200D01*
X148811600Y-97756300D01*
X149215500Y-97756300D01*
X149215500Y-97760200D01*
G37*
G36*
X149211700Y-97756300D02*
G01*
X148811600Y-97756300D01*
X148811600Y-97752500D01*
X149211700Y-97752500D01*
X149211700Y-97756300D01*
G37*
G36*
X149211700Y-97752500D02*
G01*
X148807800Y-97752500D01*
X148807800Y-97748700D01*
X149211700Y-97748700D01*
X149211700Y-97752500D01*
G37*
G36*
X149211700Y-97512500D02*
G01*
X148327700Y-97512500D01*
X148327700Y-97508700D01*
X149211700Y-97508700D01*
X149211700Y-97512500D01*
G37*
G36*
X149207900Y-97748700D02*
G01*
X148807800Y-97748700D01*
X148807800Y-97744900D01*
X149207900Y-97744900D01*
X149207900Y-97748700D01*
G37*
G36*
X149204000Y-97744900D02*
G01*
X148804000Y-97744900D01*
X148804000Y-97741100D01*
X149204000Y-97741100D01*
X149204000Y-97744900D01*
G37*
G36*
X149204000Y-97741100D02*
G01*
X148804000Y-97741100D01*
X148804000Y-97737300D01*
X149204000Y-97737300D01*
X149204000Y-97741100D01*
G37*
G36*
X149204000Y-97516300D02*
G01*
X148320100Y-97516300D01*
X148320100Y-97512500D01*
X149204000Y-97512500D01*
X149204000Y-97516300D01*
G37*
G36*
X149200200Y-97737300D02*
G01*
X148800200Y-97737300D01*
X148800200Y-97733500D01*
X149200200Y-97733500D01*
X149200200Y-97737300D01*
G37*
G36*
X149200200Y-97520100D02*
G01*
X148304900Y-97520100D01*
X148304900Y-97516300D01*
X149200200Y-97516300D01*
X149200200Y-97520100D01*
G37*
G36*
X149196400Y-97733500D02*
G01*
X148800200Y-97733500D01*
X148800200Y-97729700D01*
X149196400Y-97729700D01*
X149196400Y-97733500D01*
G37*
G36*
X149192600Y-97729700D02*
G01*
X148796400Y-97729700D01*
X148796400Y-97725900D01*
X149192600Y-97725900D01*
X149192600Y-97729700D01*
G37*
G36*
X149192600Y-97725900D02*
G01*
X148792600Y-97725900D01*
X148792600Y-97722100D01*
X149192600Y-97722100D01*
X149192600Y-97725900D01*
G37*
G36*
X149192600Y-97523900D02*
G01*
X148278200Y-97523900D01*
X148278200Y-97520100D01*
X149192600Y-97520100D01*
X149192600Y-97523900D01*
G37*
G36*
X149188800Y-97722100D02*
G01*
X148792600Y-97722100D01*
X148792600Y-97718200D01*
X149188800Y-97718200D01*
X149188800Y-97722100D01*
G37*
G36*
X149185000Y-97718200D02*
G01*
X148788800Y-97718200D01*
X148788800Y-97714400D01*
X149185000Y-97714400D01*
X149185000Y-97718200D01*
G37*
G36*
X149185000Y-97527700D02*
G01*
X147443800Y-97527700D01*
X147443800Y-97523900D01*
X149185000Y-97523900D01*
X149185000Y-97527700D01*
G37*
G36*
X149181200Y-97714400D02*
G01*
X148784900Y-97714400D01*
X148784900Y-97710600D01*
X149181200Y-97710600D01*
X149181200Y-97714400D01*
G37*
G36*
X149177400Y-97710600D02*
G01*
X148784900Y-97710600D01*
X148784900Y-97706800D01*
X149177400Y-97706800D01*
X149177400Y-97710600D01*
G37*
G36*
X149177400Y-97706800D02*
G01*
X148781100Y-97706800D01*
X148781100Y-97703000D01*
X149177400Y-97703000D01*
X149177400Y-97706800D01*
G37*
G36*
X149177400Y-97531600D02*
G01*
X147451400Y-97531600D01*
X147451400Y-97527700D01*
X149177400Y-97527700D01*
X149177400Y-97531600D01*
G37*
G36*
X149173600Y-97703000D02*
G01*
X148777300Y-97703000D01*
X148777300Y-97699200D01*
X149173600Y-97699200D01*
X149173600Y-97703000D01*
G37*
G36*
X149169800Y-97699200D02*
G01*
X148777300Y-97699200D01*
X148777300Y-97695400D01*
X149169800Y-97695400D01*
X149169800Y-97699200D01*
G37*
G36*
X149169800Y-97535400D02*
G01*
X147455300Y-97535400D01*
X147455300Y-97531600D01*
X149169800Y-97531600D01*
X149169800Y-97535400D01*
G37*
G36*
X149165900Y-97695400D02*
G01*
X148773500Y-97695400D01*
X148773500Y-97691600D01*
X149165900Y-97691600D01*
X149165900Y-97695400D01*
G37*
G36*
X149162100Y-97691600D02*
G01*
X148769700Y-97691600D01*
X148769700Y-97687800D01*
X149162100Y-97687800D01*
X149162100Y-97691600D01*
G37*
G36*
X149162100Y-97539200D02*
G01*
X147459100Y-97539200D01*
X147459100Y-97535400D01*
X149162100Y-97535400D01*
X149162100Y-97539200D01*
G37*
G36*
X149158300Y-97687800D02*
G01*
X148765900Y-97687800D01*
X148765900Y-97684000D01*
X149158300Y-97684000D01*
X149158300Y-97687800D01*
G37*
G36*
X149154500Y-97684000D02*
G01*
X148762100Y-97684000D01*
X148762100Y-97680100D01*
X149154500Y-97680100D01*
X149154500Y-97684000D01*
G37*
G36*
X149154500Y-97543000D02*
G01*
X147466700Y-97543000D01*
X147466700Y-97539200D01*
X149154500Y-97539200D01*
X149154500Y-97543000D01*
G37*
G36*
X149150700Y-97680100D02*
G01*
X148762100Y-97680100D01*
X148762100Y-97676300D01*
X149150700Y-97676300D01*
X149150700Y-97680100D01*
G37*
G36*
X149146900Y-97676300D02*
G01*
X148758300Y-97676300D01*
X148758300Y-97672500D01*
X149146900Y-97672500D01*
X149146900Y-97676300D01*
G37*
G36*
X149146900Y-97546800D02*
G01*
X147470500Y-97546800D01*
X147470500Y-97543000D01*
X149146900Y-97543000D01*
X149146900Y-97546800D01*
G37*
G36*
X149143100Y-97672500D02*
G01*
X148754500Y-97672500D01*
X148754500Y-97668700D01*
X149143100Y-97668700D01*
X149143100Y-97672500D01*
G37*
G36*
X149139300Y-97668700D02*
G01*
X148750700Y-97668700D01*
X148750700Y-97664900D01*
X149139300Y-97664900D01*
X149139300Y-97668700D01*
G37*
G36*
X149135500Y-97664900D02*
G01*
X148746800Y-97664900D01*
X148746800Y-97661100D01*
X149135500Y-97661100D01*
X149135500Y-97664900D01*
G37*
G36*
X149135500Y-97550600D02*
G01*
X147478100Y-97550600D01*
X147478100Y-97546800D01*
X149135500Y-97546800D01*
X149135500Y-97550600D01*
G37*
G36*
X149131700Y-97661100D02*
G01*
X148743000Y-97661100D01*
X148743000Y-97657300D01*
X149131700Y-97657300D01*
X149131700Y-97661100D01*
G37*
G36*
X149127800Y-97657300D02*
G01*
X148739200Y-97657300D01*
X148739200Y-97653500D01*
X149127800Y-97653500D01*
X149127800Y-97657300D01*
G37*
G36*
X149124000Y-97554400D02*
G01*
X147481900Y-97554400D01*
X147481900Y-97550600D01*
X149124000Y-97550600D01*
X149124000Y-97554400D01*
G37*
G36*
X149120200Y-97653500D02*
G01*
X148735400Y-97653500D01*
X148735400Y-97649700D01*
X149120200Y-97649700D01*
X149120200Y-97653500D01*
G37*
G36*
X149116400Y-97649700D02*
G01*
X148731600Y-97649700D01*
X148731600Y-97645900D01*
X149116400Y-97645900D01*
X149116400Y-97649700D01*
G37*
G36*
X149112600Y-97645900D02*
G01*
X148727800Y-97645900D01*
X148727800Y-97642000D01*
X149112600Y-97642000D01*
X149112600Y-97645900D01*
G37*
G36*
X149112600Y-97558200D02*
G01*
X147485700Y-97558200D01*
X147485700Y-97554400D01*
X149112600Y-97554400D01*
X149112600Y-97558200D01*
G37*
G36*
X149108800Y-97642000D02*
G01*
X148724000Y-97642000D01*
X148724000Y-97638200D01*
X149108800Y-97638200D01*
X149108800Y-97642000D01*
G37*
G36*
X149101200Y-97638200D02*
G01*
X148720200Y-97638200D01*
X148720200Y-97634400D01*
X149101200Y-97634400D01*
X149101200Y-97638200D01*
G37*
G36*
X149101200Y-97562000D02*
G01*
X147493400Y-97562000D01*
X147493400Y-97558200D01*
X149101200Y-97558200D01*
X149101200Y-97562000D01*
G37*
G36*
X149097400Y-97634400D02*
G01*
X148716400Y-97634400D01*
X148716400Y-97630600D01*
X149097400Y-97630600D01*
X149097400Y-97634400D01*
G37*
G36*
X149089700Y-97630600D02*
G01*
X148708700Y-97630600D01*
X148708700Y-97626800D01*
X149089700Y-97626800D01*
X149089700Y-97630600D01*
G37*
G36*
X149085900Y-97626800D02*
G01*
X148704900Y-97626800D01*
X148704900Y-97623000D01*
X149085900Y-97623000D01*
X149085900Y-97626800D01*
G37*
G36*
X149085900Y-97565800D02*
G01*
X147497200Y-97565800D01*
X147497200Y-97562000D01*
X149085900Y-97562000D01*
X149085900Y-97565800D01*
G37*
G36*
X149078300Y-97623000D02*
G01*
X148701100Y-97623000D01*
X148701100Y-97619200D01*
X149078300Y-97619200D01*
X149078300Y-97623000D01*
G37*
G36*
X149070700Y-97619200D02*
G01*
X148697300Y-97619200D01*
X148697300Y-97615400D01*
X149070700Y-97615400D01*
X149070700Y-97619200D01*
G37*
G36*
X149066900Y-97569700D02*
G01*
X147504800Y-97569700D01*
X147504800Y-97565800D01*
X149066900Y-97565800D01*
X149066900Y-97569700D01*
G37*
G36*
X149063100Y-97615400D02*
G01*
X148689700Y-97615400D01*
X148689700Y-97611600D01*
X149063100Y-97611600D01*
X149063100Y-97615400D01*
G37*
G36*
X149059300Y-97611600D02*
G01*
X148685900Y-97611600D01*
X148685900Y-97607800D01*
X149059300Y-97607800D01*
X149059300Y-97611600D01*
G37*
G36*
X149047800Y-97607800D02*
G01*
X148678300Y-97607800D01*
X148678300Y-97603900D01*
X149047800Y-97603900D01*
X149047800Y-97607800D01*
G37*
G36*
X149040200Y-97603900D02*
G01*
X148674500Y-97603900D01*
X148674500Y-97600100D01*
X149040200Y-97600100D01*
X149040200Y-97603900D01*
G37*
G36*
X149032600Y-97600100D02*
G01*
X148666800Y-97600100D01*
X148666800Y-97596300D01*
X149032600Y-97596300D01*
X149032600Y-97600100D01*
G37*
G36*
X149025000Y-97573500D02*
G01*
X148994500Y-97573500D01*
X148994500Y-97569700D01*
X149025000Y-97569700D01*
X149025000Y-97573500D01*
G37*
G36*
X149021200Y-97596300D02*
G01*
X148659200Y-97596300D01*
X148659200Y-97592500D01*
X149021200Y-97592500D01*
X149021200Y-97596300D01*
G37*
G36*
X149009700Y-97592500D02*
G01*
X148651600Y-97592500D01*
X148651600Y-97588700D01*
X149009700Y-97588700D01*
X149009700Y-97592500D01*
G37*
G36*
X148998300Y-97588700D02*
G01*
X148644000Y-97588700D01*
X148644000Y-97584900D01*
X148998300Y-97584900D01*
X148998300Y-97588700D01*
G37*
G36*
X148986900Y-97584900D02*
G01*
X148636400Y-97584900D01*
X148636400Y-97581100D01*
X148986900Y-97581100D01*
X148986900Y-97584900D01*
G37*
G36*
X148971600Y-97581100D02*
G01*
X148624900Y-97581100D01*
X148624900Y-97577300D01*
X148971600Y-97577300D01*
X148971600Y-97581100D01*
G37*
G36*
X148960200Y-97577300D02*
G01*
X148613500Y-97577300D01*
X148613500Y-97573500D01*
X148960200Y-97573500D01*
X148960200Y-97577300D01*
G37*
G36*
X148945000Y-97573500D02*
G01*
X147508600Y-97573500D01*
X147508600Y-97569700D01*
X148945000Y-97569700D01*
X148945000Y-97573500D01*
G37*
G36*
X148823000Y-97268700D02*
G01*
X148510600Y-97268700D01*
X148510600Y-97264900D01*
X148823000Y-97264900D01*
X148823000Y-97268700D01*
G37*
G36*
X148800200Y-97272500D02*
G01*
X148510600Y-97272500D01*
X148510600Y-97268700D01*
X148800200Y-97268700D01*
X148800200Y-97272500D01*
G37*
G36*
X148784900Y-97276300D02*
G01*
X148510600Y-97276300D01*
X148510600Y-97272500D01*
X148784900Y-97272500D01*
X148784900Y-97276300D01*
G37*
G36*
X148781100Y-97836400D02*
G01*
X148384900Y-97836400D01*
X148384900Y-97832500D01*
X148781100Y-97832500D01*
X148781100Y-97836400D01*
G37*
G36*
X148773500Y-97280100D02*
G01*
X148510600Y-97280100D01*
X148510600Y-97276300D01*
X148773500Y-97276300D01*
X148773500Y-97280100D01*
G37*
G36*
X148762100Y-97283900D02*
G01*
X148510600Y-97283900D01*
X148510600Y-97280100D01*
X148762100Y-97280100D01*
X148762100Y-97283900D01*
G37*
G36*
X148758300Y-97832500D02*
G01*
X148388700Y-97832500D01*
X148388700Y-97828700D01*
X148758300Y-97828700D01*
X148758300Y-97832500D01*
G37*
G36*
X148750700Y-97287700D02*
G01*
X148510600Y-97287700D01*
X148510600Y-97283900D01*
X148750700Y-97283900D01*
X148750700Y-97287700D01*
G37*
G36*
X148746800Y-97828700D02*
G01*
X148388700Y-97828700D01*
X148388700Y-97824900D01*
X148746800Y-97824900D01*
X148746800Y-97828700D01*
G37*
G36*
X148743000Y-97291500D02*
G01*
X148510600Y-97291500D01*
X148510600Y-97287700D01*
X148743000Y-97287700D01*
X148743000Y-97291500D01*
G37*
G36*
X148739200Y-97824900D02*
G01*
X148392500Y-97824900D01*
X148392500Y-97821100D01*
X148739200Y-97821100D01*
X148739200Y-97824900D01*
G37*
G36*
X148735400Y-96944800D02*
G01*
X148049600Y-96944800D01*
X148049600Y-96941000D01*
X148735400Y-96941000D01*
X148735400Y-96944800D01*
G37*
G36*
X148735400Y-96941000D02*
G01*
X148045800Y-96941000D01*
X148045800Y-96937200D01*
X148735400Y-96937200D01*
X148735400Y-96941000D01*
G37*
G36*
X148735400Y-96937200D02*
G01*
X148045800Y-96937200D01*
X148045800Y-96933400D01*
X148735400Y-96933400D01*
X148735400Y-96937200D01*
G37*
G36*
X148735400Y-96933400D02*
G01*
X148045800Y-96933400D01*
X148045800Y-96929600D01*
X148735400Y-96929600D01*
X148735400Y-96933400D01*
G37*
G36*
X148735400Y-96929600D02*
G01*
X148045800Y-96929600D01*
X148045800Y-96925800D01*
X148735400Y-96925800D01*
X148735400Y-96929600D01*
G37*
G36*
X148735400Y-96925800D02*
G01*
X148045800Y-96925800D01*
X148045800Y-96922000D01*
X148735400Y-96922000D01*
X148735400Y-96925800D01*
G37*
G36*
X148735400Y-96922000D02*
G01*
X148045800Y-96922000D01*
X148045800Y-96918100D01*
X148735400Y-96918100D01*
X148735400Y-96922000D01*
G37*
G36*
X148735400Y-96918100D02*
G01*
X148045800Y-96918100D01*
X148045800Y-96914300D01*
X148735400Y-96914300D01*
X148735400Y-96918100D01*
G37*
G36*
X148735400Y-96914300D02*
G01*
X148045800Y-96914300D01*
X148045800Y-96910500D01*
X148735400Y-96910500D01*
X148735400Y-96914300D01*
G37*
G36*
X148735400Y-96910500D02*
G01*
X148045800Y-96910500D01*
X148045800Y-96906700D01*
X148735400Y-96906700D01*
X148735400Y-96910500D01*
G37*
G36*
X148735400Y-96906700D02*
G01*
X148045800Y-96906700D01*
X148045800Y-96902900D01*
X148735400Y-96902900D01*
X148735400Y-96906700D01*
G37*
G36*
X148735400Y-96902900D02*
G01*
X148045800Y-96902900D01*
X148045800Y-96899100D01*
X148735400Y-96899100D01*
X148735400Y-96902900D01*
G37*
G36*
X148735400Y-96899100D02*
G01*
X148045800Y-96899100D01*
X148045800Y-96895300D01*
X148735400Y-96895300D01*
X148735400Y-96899100D01*
G37*
G36*
X148735400Y-96895300D02*
G01*
X148045800Y-96895300D01*
X148045800Y-96891500D01*
X148735400Y-96891500D01*
X148735400Y-96895300D01*
G37*
G36*
X148735400Y-96891500D02*
G01*
X148045800Y-96891500D01*
X148045800Y-96887700D01*
X148735400Y-96887700D01*
X148735400Y-96891500D01*
G37*
G36*
X148735400Y-96887700D02*
G01*
X148045800Y-96887700D01*
X148045800Y-96883900D01*
X148735400Y-96883900D01*
X148735400Y-96887700D01*
G37*
G36*
X148735400Y-96883900D02*
G01*
X148045800Y-96883900D01*
X148045800Y-96880000D01*
X148735400Y-96880000D01*
X148735400Y-96883900D01*
G37*
G36*
X148735400Y-96880000D02*
G01*
X148045800Y-96880000D01*
X148045800Y-96876200D01*
X148735400Y-96876200D01*
X148735400Y-96880000D01*
G37*
G36*
X148735400Y-96876200D02*
G01*
X148045800Y-96876200D01*
X148045800Y-96872400D01*
X148735400Y-96872400D01*
X148735400Y-96876200D01*
G37*
G36*
X148731600Y-97821100D02*
G01*
X148396300Y-97821100D01*
X148396300Y-97817300D01*
X148731600Y-97817300D01*
X148731600Y-97821100D01*
G37*
G36*
X148731600Y-97295300D02*
G01*
X148510600Y-97295300D01*
X148510600Y-97291500D01*
X148731600Y-97291500D01*
X148731600Y-97295300D01*
G37*
G36*
X148731600Y-96971500D02*
G01*
X148053400Y-96971500D01*
X148053400Y-96967700D01*
X148731600Y-96967700D01*
X148731600Y-96971500D01*
G37*
G36*
X148731600Y-96967700D02*
G01*
X148053400Y-96967700D01*
X148053400Y-96963900D01*
X148731600Y-96963900D01*
X148731600Y-96967700D01*
G37*
G36*
X148731600Y-96963900D02*
G01*
X148049600Y-96963900D01*
X148049600Y-96960100D01*
X148731600Y-96960100D01*
X148731600Y-96963900D01*
G37*
G36*
X148731600Y-96960100D02*
G01*
X148049600Y-96960100D01*
X148049600Y-96956200D01*
X148731600Y-96956200D01*
X148731600Y-96960100D01*
G37*
G36*
X148731600Y-96956200D02*
G01*
X148049600Y-96956200D01*
X148049600Y-96952400D01*
X148731600Y-96952400D01*
X148731600Y-96956200D01*
G37*
G36*
X148731600Y-96952400D02*
G01*
X148049600Y-96952400D01*
X148049600Y-96948600D01*
X148731600Y-96948600D01*
X148731600Y-96952400D01*
G37*
G36*
X148731600Y-96948600D02*
G01*
X148049600Y-96948600D01*
X148049600Y-96944800D01*
X148731600Y-96944800D01*
X148731600Y-96948600D01*
G37*
G36*
X148731600Y-96872400D02*
G01*
X148045800Y-96872400D01*
X148045800Y-96868600D01*
X148731600Y-96868600D01*
X148731600Y-96872400D01*
G37*
G36*
X148731600Y-96868600D02*
G01*
X148045800Y-96868600D01*
X148045800Y-96864800D01*
X148731600Y-96864800D01*
X148731600Y-96868600D01*
G37*
G36*
X148731600Y-96864800D02*
G01*
X148045800Y-96864800D01*
X148045800Y-96861000D01*
X148731600Y-96861000D01*
X148731600Y-96864800D01*
G37*
G36*
X148731600Y-96861000D02*
G01*
X148045800Y-96861000D01*
X148045800Y-96857200D01*
X148731600Y-96857200D01*
X148731600Y-96861000D01*
G37*
G36*
X148731600Y-96857200D02*
G01*
X148045800Y-96857200D01*
X148045800Y-96853400D01*
X148731600Y-96853400D01*
X148731600Y-96857200D01*
G37*
G36*
X148731600Y-96853400D02*
G01*
X148045800Y-96853400D01*
X148045800Y-96849600D01*
X148731600Y-96849600D01*
X148731600Y-96853400D01*
G37*
G36*
X148731600Y-96849600D02*
G01*
X148045800Y-96849600D01*
X148045800Y-96845800D01*
X148731600Y-96845800D01*
X148731600Y-96849600D01*
G37*
G36*
X148727800Y-96990500D02*
G01*
X148057200Y-96990500D01*
X148057200Y-96986700D01*
X148727800Y-96986700D01*
X148727800Y-96990500D01*
G37*
G36*
X148727800Y-96986700D02*
G01*
X148057200Y-96986700D01*
X148057200Y-96982900D01*
X148727800Y-96982900D01*
X148727800Y-96986700D01*
G37*
G36*
X148727800Y-96982900D02*
G01*
X148053400Y-96982900D01*
X148053400Y-96979100D01*
X148727800Y-96979100D01*
X148727800Y-96982900D01*
G37*
G36*
X148727800Y-96979100D02*
G01*
X148053400Y-96979100D01*
X148053400Y-96975300D01*
X148727800Y-96975300D01*
X148727800Y-96979100D01*
G37*
G36*
X148727800Y-96975300D02*
G01*
X148053400Y-96975300D01*
X148053400Y-96971500D01*
X148727800Y-96971500D01*
X148727800Y-96975300D01*
G37*
G36*
X148727800Y-96845800D02*
G01*
X148045800Y-96845800D01*
X148045800Y-96841900D01*
X148727800Y-96841900D01*
X148727800Y-96845800D01*
G37*
G36*
X148727800Y-96841900D02*
G01*
X148045800Y-96841900D01*
X148045800Y-96838100D01*
X148727800Y-96838100D01*
X148727800Y-96841900D01*
G37*
G36*
X148727800Y-96838100D02*
G01*
X148045800Y-96838100D01*
X148045800Y-96834300D01*
X148727800Y-96834300D01*
X148727800Y-96838100D01*
G37*
G36*
X148727800Y-96834300D02*
G01*
X148045800Y-96834300D01*
X148045800Y-96830500D01*
X148727800Y-96830500D01*
X148727800Y-96834300D01*
G37*
G36*
X148727800Y-96830500D02*
G01*
X148049600Y-96830500D01*
X148049600Y-96826700D01*
X148727800Y-96826700D01*
X148727800Y-96830500D01*
G37*
G36*
X148724000Y-97817300D02*
G01*
X148396300Y-97817300D01*
X148396300Y-97813500D01*
X148724000Y-97813500D01*
X148724000Y-97817300D01*
G37*
G36*
X148724000Y-97299100D02*
G01*
X148510600Y-97299100D01*
X148510600Y-97295300D01*
X148724000Y-97295300D01*
X148724000Y-97299100D01*
G37*
G36*
X148724000Y-97002000D02*
G01*
X148061000Y-97002000D01*
X148061000Y-96998200D01*
X148724000Y-96998200D01*
X148724000Y-97002000D01*
G37*
G36*
X148724000Y-96998200D02*
G01*
X148057200Y-96998200D01*
X148057200Y-96994300D01*
X148724000Y-96994300D01*
X148724000Y-96998200D01*
G37*
G36*
X148724000Y-96994300D02*
G01*
X148057200Y-96994300D01*
X148057200Y-96990500D01*
X148724000Y-96990500D01*
X148724000Y-96994300D01*
G37*
G36*
X148724000Y-96826700D02*
G01*
X148049600Y-96826700D01*
X148049600Y-96822900D01*
X148724000Y-96822900D01*
X148724000Y-96826700D01*
G37*
G36*
X148724000Y-96822900D02*
G01*
X148049600Y-96822900D01*
X148049600Y-96819100D01*
X148724000Y-96819100D01*
X148724000Y-96822900D01*
G37*
G36*
X148724000Y-96819100D02*
G01*
X148049600Y-96819100D01*
X148049600Y-96815300D01*
X148724000Y-96815300D01*
X148724000Y-96819100D01*
G37*
G36*
X148724000Y-96815300D02*
G01*
X148049600Y-96815300D01*
X148049600Y-96811500D01*
X148724000Y-96811500D01*
X148724000Y-96815300D01*
G37*
G36*
X148720200Y-97017200D02*
G01*
X148064900Y-97017200D01*
X148064900Y-97013400D01*
X148720200Y-97013400D01*
X148720200Y-97017200D01*
G37*
G36*
X148720200Y-97013400D02*
G01*
X148061000Y-97013400D01*
X148061000Y-97009600D01*
X148720200Y-97009600D01*
X148720200Y-97013400D01*
G37*
G36*
X148720200Y-97009600D02*
G01*
X148061000Y-97009600D01*
X148061000Y-97005800D01*
X148720200Y-97005800D01*
X148720200Y-97009600D01*
G37*
G36*
X148720200Y-97005800D02*
G01*
X148061000Y-97005800D01*
X148061000Y-97002000D01*
X148720200Y-97002000D01*
X148720200Y-97005800D01*
G37*
G36*
X148720200Y-96811500D02*
G01*
X148049600Y-96811500D01*
X148049600Y-96807700D01*
X148720200Y-96807700D01*
X148720200Y-96811500D01*
G37*
G36*
X148720200Y-96807700D02*
G01*
X148049600Y-96807700D01*
X148049600Y-96803800D01*
X148720200Y-96803800D01*
X148720200Y-96807700D01*
G37*
G36*
X148720200Y-96803800D02*
G01*
X148049600Y-96803800D01*
X148049600Y-96800000D01*
X148720200Y-96800000D01*
X148720200Y-96803800D01*
G37*
G36*
X148720200Y-96800000D02*
G01*
X148053400Y-96800000D01*
X148053400Y-96796200D01*
X148720200Y-96796200D01*
X148720200Y-96800000D01*
G37*
G36*
X148716400Y-97813500D02*
G01*
X148400100Y-97813500D01*
X148400100Y-97809700D01*
X148716400Y-97809700D01*
X148716400Y-97813500D01*
G37*
G36*
X148716400Y-97303000D02*
G01*
X148506800Y-97303000D01*
X148506800Y-97299100D01*
X148716400Y-97299100D01*
X148716400Y-97303000D01*
G37*
G36*
X148716400Y-97028600D02*
G01*
X148068700Y-97028600D01*
X148068700Y-97024800D01*
X148716400Y-97024800D01*
X148716400Y-97028600D01*
G37*
G36*
X148716400Y-97024800D02*
G01*
X148064900Y-97024800D01*
X148064900Y-97021000D01*
X148716400Y-97021000D01*
X148716400Y-97024800D01*
G37*
G36*
X148716400Y-97021000D02*
G01*
X148064900Y-97021000D01*
X148064900Y-97017200D01*
X148716400Y-97017200D01*
X148716400Y-97021000D01*
G37*
G36*
X148716400Y-96796200D02*
G01*
X148053400Y-96796200D01*
X148053400Y-96792400D01*
X148716400Y-96792400D01*
X148716400Y-96796200D01*
G37*
G36*
X148716400Y-96792400D02*
G01*
X148053400Y-96792400D01*
X148053400Y-96788600D01*
X148716400Y-96788600D01*
X148716400Y-96792400D01*
G37*
G36*
X148716400Y-96788600D02*
G01*
X148053400Y-96788600D01*
X148053400Y-96784800D01*
X148716400Y-96784800D01*
X148716400Y-96788600D01*
G37*
G36*
X148712600Y-97040100D02*
G01*
X148072500Y-97040100D01*
X148072500Y-97036300D01*
X148712600Y-97036300D01*
X148712600Y-97040100D01*
G37*
G36*
X148712600Y-97036300D02*
G01*
X148072500Y-97036300D01*
X148072500Y-97032400D01*
X148712600Y-97032400D01*
X148712600Y-97036300D01*
G37*
G36*
X148712600Y-97032400D02*
G01*
X148068700Y-97032400D01*
X148068700Y-97028600D01*
X148712600Y-97028600D01*
X148712600Y-97032400D01*
G37*
G36*
X148712600Y-96784800D02*
G01*
X148053400Y-96784800D01*
X148053400Y-96781000D01*
X148712600Y-96781000D01*
X148712600Y-96784800D01*
G37*
G36*
X148712600Y-96781000D02*
G01*
X148057200Y-96781000D01*
X148057200Y-96777200D01*
X148712600Y-96777200D01*
X148712600Y-96781000D01*
G37*
G36*
X148712600Y-96777200D02*
G01*
X148057200Y-96777200D01*
X148057200Y-96773400D01*
X148712600Y-96773400D01*
X148712600Y-96777200D01*
G37*
G36*
X148708700Y-97809700D02*
G01*
X148400100Y-97809700D01*
X148400100Y-97805900D01*
X148708700Y-97805900D01*
X148708700Y-97809700D01*
G37*
G36*
X148708700Y-97306800D02*
G01*
X148506800Y-97306800D01*
X148506800Y-97303000D01*
X148708700Y-97303000D01*
X148708700Y-97306800D01*
G37*
G36*
X148708700Y-97047700D02*
G01*
X148438200Y-97047700D01*
X148438200Y-97043900D01*
X148708700Y-97043900D01*
X148708700Y-97047700D01*
G37*
G36*
X148708700Y-97043900D02*
G01*
X148430600Y-97043900D01*
X148430600Y-97040100D01*
X148708700Y-97040100D01*
X148708700Y-97043900D01*
G37*
G36*
X148708700Y-96773400D02*
G01*
X148057200Y-96773400D01*
X148057200Y-96769600D01*
X148708700Y-96769600D01*
X148708700Y-96773400D01*
G37*
G36*
X148708700Y-96769600D02*
G01*
X148057200Y-96769600D01*
X148057200Y-96765700D01*
X148708700Y-96765700D01*
X148708700Y-96769600D01*
G37*
G36*
X148708700Y-96765700D02*
G01*
X148057200Y-96765700D01*
X148057200Y-96761900D01*
X148708700Y-96761900D01*
X148708700Y-96765700D01*
G37*
G36*
X148704900Y-97805900D02*
G01*
X148403900Y-97805900D01*
X148403900Y-97802100D01*
X148704900Y-97802100D01*
X148704900Y-97805900D01*
G37*
G36*
X148704900Y-97059100D02*
G01*
X148449700Y-97059100D01*
X148449700Y-97055300D01*
X148704900Y-97055300D01*
X148704900Y-97059100D01*
G37*
G36*
X148704900Y-97055300D02*
G01*
X148445900Y-97055300D01*
X148445900Y-97051500D01*
X148704900Y-97051500D01*
X148704900Y-97055300D01*
G37*
G36*
X148704900Y-97051500D02*
G01*
X148442000Y-97051500D01*
X148442000Y-97047700D01*
X148704900Y-97047700D01*
X148704900Y-97051500D01*
G37*
G36*
X148704900Y-96761900D02*
G01*
X148061000Y-96761900D01*
X148061000Y-96758100D01*
X148704900Y-96758100D01*
X148704900Y-96761900D01*
G37*
G36*
X148704900Y-96758100D02*
G01*
X148061000Y-96758100D01*
X148061000Y-96754300D01*
X148704900Y-96754300D01*
X148704900Y-96758100D01*
G37*
G36*
X148704900Y-96754300D02*
G01*
X148061000Y-96754300D01*
X148061000Y-96750500D01*
X148704900Y-96750500D01*
X148704900Y-96754300D01*
G37*
G36*
X148701100Y-97310600D02*
G01*
X148506800Y-97310600D01*
X148506800Y-97306800D01*
X148701100Y-97306800D01*
X148701100Y-97310600D01*
G37*
G36*
X148701100Y-97070500D02*
G01*
X148461100Y-97070500D01*
X148461100Y-97066700D01*
X148701100Y-97066700D01*
X148701100Y-97070500D01*
G37*
G36*
X148701100Y-97066700D02*
G01*
X148457300Y-97066700D01*
X148457300Y-97062900D01*
X148701100Y-97062900D01*
X148701100Y-97066700D01*
G37*
G36*
X148701100Y-97062900D02*
G01*
X148453500Y-97062900D01*
X148453500Y-97059100D01*
X148701100Y-97059100D01*
X148701100Y-97062900D01*
G37*
G36*
X148701100Y-96750500D02*
G01*
X148061000Y-96750500D01*
X148061000Y-96746700D01*
X148701100Y-96746700D01*
X148701100Y-96750500D01*
G37*
G36*
X148701100Y-96746700D02*
G01*
X148064900Y-96746700D01*
X148064900Y-96742900D01*
X148701100Y-96742900D01*
X148701100Y-96746700D01*
G37*
G36*
X148697300Y-97802100D02*
G01*
X148403900Y-97802100D01*
X148403900Y-97798300D01*
X148697300Y-97798300D01*
X148697300Y-97802100D01*
G37*
G36*
X148697300Y-97314400D02*
G01*
X148506800Y-97314400D01*
X148506800Y-97310600D01*
X148697300Y-97310600D01*
X148697300Y-97314400D01*
G37*
G36*
X148697300Y-97078200D02*
G01*
X148464900Y-97078200D01*
X148464900Y-97074400D01*
X148697300Y-97074400D01*
X148697300Y-97078200D01*
G37*
G36*
X148697300Y-97074400D02*
G01*
X148461100Y-97074400D01*
X148461100Y-97070500D01*
X148697300Y-97070500D01*
X148697300Y-97074400D01*
G37*
G36*
X148697300Y-96742900D02*
G01*
X148064900Y-96742900D01*
X148064900Y-96739100D01*
X148697300Y-96739100D01*
X148697300Y-96742900D01*
G37*
G36*
X148697300Y-96739100D02*
G01*
X148064900Y-96739100D01*
X148064900Y-96735300D01*
X148697300Y-96735300D01*
X148697300Y-96739100D01*
G37*
G36*
X148697300Y-96735300D02*
G01*
X148064900Y-96735300D01*
X148064900Y-96731500D01*
X148697300Y-96731500D01*
X148697300Y-96735300D01*
G37*
G36*
X148693500Y-97798300D02*
G01*
X148407800Y-97798300D01*
X148407800Y-97794400D01*
X148693500Y-97794400D01*
X148693500Y-97798300D01*
G37*
G36*
X148693500Y-97082000D02*
G01*
X148468700Y-97082000D01*
X148468700Y-97078200D01*
X148693500Y-97078200D01*
X148693500Y-97082000D01*
G37*
G36*
X148693500Y-96731500D02*
G01*
X148068700Y-96731500D01*
X148068700Y-96727600D01*
X148693500Y-96727600D01*
X148693500Y-96731500D01*
G37*
G36*
X148693500Y-96727600D02*
G01*
X148068700Y-96727600D01*
X148068700Y-96723800D01*
X148693500Y-96723800D01*
X148693500Y-96727600D01*
G37*
G36*
X148689700Y-97318200D02*
G01*
X148506800Y-97318200D01*
X148506800Y-97314400D01*
X148689700Y-97314400D01*
X148689700Y-97318200D01*
G37*
G36*
X148689700Y-96723800D02*
G01*
X148068700Y-96723800D01*
X148068700Y-96720000D01*
X148689700Y-96720000D01*
X148689700Y-96723800D01*
G37*
G36*
X148689700Y-96720000D02*
G01*
X148072500Y-96720000D01*
X148072500Y-96716200D01*
X148689700Y-96716200D01*
X148689700Y-96720000D01*
G37*
G36*
X148685900Y-97794400D02*
G01*
X148411600Y-97794400D01*
X148411600Y-97790600D01*
X148685900Y-97790600D01*
X148685900Y-97794400D01*
G37*
G36*
X148685900Y-96716200D02*
G01*
X148072500Y-96716200D01*
X148072500Y-96712400D01*
X148685900Y-96712400D01*
X148685900Y-96716200D01*
G37*
G36*
X148685900Y-96712400D02*
G01*
X148072500Y-96712400D01*
X148072500Y-96708600D01*
X148685900Y-96708600D01*
X148685900Y-96712400D01*
G37*
G36*
X148682100Y-97790600D02*
G01*
X148411600Y-97790600D01*
X148411600Y-97786800D01*
X148682100Y-97786800D01*
X148682100Y-97790600D01*
G37*
G36*
X148682100Y-97322000D02*
G01*
X148503000Y-97322000D01*
X148503000Y-97318200D01*
X148682100Y-97318200D01*
X148682100Y-97322000D01*
G37*
G36*
X148682100Y-96708600D02*
G01*
X148076300Y-96708600D01*
X148076300Y-96704800D01*
X148682100Y-96704800D01*
X148682100Y-96708600D01*
G37*
G36*
X148682100Y-96704800D02*
G01*
X148076300Y-96704800D01*
X148076300Y-96701000D01*
X148682100Y-96701000D01*
X148682100Y-96704800D01*
G37*
G36*
X148678300Y-97786800D02*
G01*
X148415400Y-97786800D01*
X148415400Y-97783000D01*
X148678300Y-97783000D01*
X148678300Y-97786800D01*
G37*
G36*
X148678300Y-97325800D02*
G01*
X148503000Y-97325800D01*
X148503000Y-97322000D01*
X148678300Y-97322000D01*
X148678300Y-97325800D01*
G37*
G36*
X148678300Y-96701000D02*
G01*
X148076300Y-96701000D01*
X148076300Y-96697200D01*
X148678300Y-96697200D01*
X148678300Y-96701000D01*
G37*
G36*
X148678300Y-96697200D02*
G01*
X148080100Y-96697200D01*
X148080100Y-96693400D01*
X148678300Y-96693400D01*
X148678300Y-96697200D01*
G37*
G36*
X148674500Y-97783000D02*
G01*
X148415400Y-97783000D01*
X148415400Y-97779200D01*
X148674500Y-97779200D01*
X148674500Y-97783000D01*
G37*
G36*
X148674500Y-96693400D02*
G01*
X148080100Y-96693400D01*
X148080100Y-96689500D01*
X148674500Y-96689500D01*
X148674500Y-96693400D01*
G37*
G36*
X148674500Y-96689500D02*
G01*
X148080100Y-96689500D01*
X148080100Y-96685700D01*
X148674500Y-96685700D01*
X148674500Y-96689500D01*
G37*
G36*
X148670600Y-97329600D02*
G01*
X148503000Y-97329600D01*
X148503000Y-97325800D01*
X148670600Y-97325800D01*
X148670600Y-97329600D01*
G37*
G36*
X148670600Y-96685700D02*
G01*
X148083900Y-96685700D01*
X148083900Y-96681900D01*
X148670600Y-96681900D01*
X148670600Y-96685700D01*
G37*
G36*
X148670600Y-96681900D02*
G01*
X148083900Y-96681900D01*
X148083900Y-96678100D01*
X148670600Y-96678100D01*
X148670600Y-96681900D01*
G37*
G36*
X148666800Y-97779200D02*
G01*
X148419200Y-97779200D01*
X148419200Y-97775400D01*
X148666800Y-97775400D01*
X148666800Y-97779200D01*
G37*
G36*
X148666800Y-97333400D02*
G01*
X148503000Y-97333400D01*
X148503000Y-97329600D01*
X148666800Y-97329600D01*
X148666800Y-97333400D01*
G37*
G36*
X148666800Y-96678100D02*
G01*
X148083900Y-96678100D01*
X148083900Y-96674300D01*
X148666800Y-96674300D01*
X148666800Y-96678100D01*
G37*
G36*
X148666800Y-96674300D02*
G01*
X148083900Y-96674300D01*
X148083900Y-96670500D01*
X148666800Y-96670500D01*
X148666800Y-96674300D01*
G37*
G36*
X148663000Y-97775400D02*
G01*
X148419200Y-97775400D01*
X148419200Y-97771600D01*
X148663000Y-97771600D01*
X148663000Y-97775400D01*
G37*
G36*
X148663000Y-96670500D02*
G01*
X148087700Y-96670500D01*
X148087700Y-96666700D01*
X148663000Y-96666700D01*
X148663000Y-96670500D01*
G37*
G36*
X148659200Y-97771600D02*
G01*
X148419200Y-97771600D01*
X148419200Y-97767800D01*
X148659200Y-97767800D01*
X148659200Y-97771600D01*
G37*
G36*
X148659200Y-97337200D02*
G01*
X148499200Y-97337200D01*
X148499200Y-97333400D01*
X148659200Y-97333400D01*
X148659200Y-97337200D01*
G37*
G36*
X148659200Y-96666700D02*
G01*
X148087700Y-96666700D01*
X148087700Y-96662900D01*
X148659200Y-96662900D01*
X148659200Y-96666700D01*
G37*
G36*
X148659200Y-96662900D02*
G01*
X148087700Y-96662900D01*
X148087700Y-96659100D01*
X148659200Y-96659100D01*
X148659200Y-96662900D01*
G37*
G36*
X148655400Y-97767800D02*
G01*
X148423000Y-97767800D01*
X148423000Y-97764000D01*
X148655400Y-97764000D01*
X148655400Y-97767800D01*
G37*
G36*
X148655400Y-97341100D02*
G01*
X148499200Y-97341100D01*
X148499200Y-97337200D01*
X148655400Y-97337200D01*
X148655400Y-97341100D01*
G37*
G36*
X148655400Y-96659100D02*
G01*
X148091500Y-96659100D01*
X148091500Y-96655300D01*
X148655400Y-96655300D01*
X148655400Y-96659100D01*
G37*
G36*
X148655400Y-96655300D02*
G01*
X148091500Y-96655300D01*
X148091500Y-96651400D01*
X148655400Y-96651400D01*
X148655400Y-96655300D01*
G37*
G36*
X148651600Y-97764000D02*
G01*
X148423000Y-97764000D01*
X148423000Y-97760200D01*
X148651600Y-97760200D01*
X148651600Y-97764000D01*
G37*
G36*
X148651600Y-97344900D02*
G01*
X148499200Y-97344900D01*
X148499200Y-97341100D01*
X148651600Y-97341100D01*
X148651600Y-97344900D01*
G37*
G36*
X148651600Y-96651400D02*
G01*
X148091500Y-96651400D01*
X148091500Y-96647600D01*
X148651600Y-96647600D01*
X148651600Y-96651400D01*
G37*
G36*
X148647800Y-97760200D02*
G01*
X148426800Y-97760200D01*
X148426800Y-97756300D01*
X148647800Y-97756300D01*
X148647800Y-97760200D01*
G37*
G36*
X148647800Y-96647600D02*
G01*
X148095300Y-96647600D01*
X148095300Y-96643800D01*
X148647800Y-96643800D01*
X148647800Y-96647600D01*
G37*
G36*
X148647800Y-96643800D02*
G01*
X148095300Y-96643800D01*
X148095300Y-96640000D01*
X148647800Y-96640000D01*
X148647800Y-96643800D01*
G37*
G36*
X148644000Y-97756300D02*
G01*
X148426800Y-97756300D01*
X148426800Y-97752500D01*
X148644000Y-97752500D01*
X148644000Y-97756300D01*
G37*
G36*
X148644000Y-97348700D02*
G01*
X148495400Y-97348700D01*
X148495400Y-97344900D01*
X148644000Y-97344900D01*
X148644000Y-97348700D01*
G37*
G36*
X148644000Y-96640000D02*
G01*
X148095300Y-96640000D01*
X148095300Y-96636200D01*
X148644000Y-96636200D01*
X148644000Y-96640000D01*
G37*
G36*
X148640200Y-97752500D02*
G01*
X148430600Y-97752500D01*
X148430600Y-97748700D01*
X148640200Y-97748700D01*
X148640200Y-97752500D01*
G37*
G36*
X148640200Y-97352500D02*
G01*
X148495400Y-97352500D01*
X148495400Y-97348700D01*
X148640200Y-97348700D01*
X148640200Y-97352500D01*
G37*
G36*
X148640200Y-96636200D02*
G01*
X148099100Y-96636200D01*
X148099100Y-96632400D01*
X148640200Y-96632400D01*
X148640200Y-96636200D01*
G37*
G36*
X148640200Y-96632400D02*
G01*
X148099100Y-96632400D01*
X148099100Y-96628600D01*
X148640200Y-96628600D01*
X148640200Y-96632400D01*
G37*
G36*
X148636400Y-97748700D02*
G01*
X148430600Y-97748700D01*
X148430600Y-97744900D01*
X148636400Y-97744900D01*
X148636400Y-97748700D01*
G37*
G36*
X148636400Y-97356300D02*
G01*
X148491600Y-97356300D01*
X148491600Y-97352500D01*
X148636400Y-97352500D01*
X148636400Y-97356300D01*
G37*
G36*
X148636400Y-96628600D02*
G01*
X148099100Y-96628600D01*
X148099100Y-96624800D01*
X148636400Y-96624800D01*
X148636400Y-96628600D01*
G37*
G36*
X148632500Y-97744900D02*
G01*
X148430600Y-97744900D01*
X148430600Y-97741100D01*
X148632500Y-97741100D01*
X148632500Y-97744900D01*
G37*
G36*
X148632500Y-97360100D02*
G01*
X148487800Y-97360100D01*
X148487800Y-97356300D01*
X148632500Y-97356300D01*
X148632500Y-97360100D01*
G37*
G36*
X148632500Y-96624800D02*
G01*
X148103000Y-96624800D01*
X148103000Y-96621000D01*
X148632500Y-96621000D01*
X148632500Y-96624800D01*
G37*
G36*
X148628700Y-97741100D02*
G01*
X148434400Y-97741100D01*
X148434400Y-97737300D01*
X148628700Y-97737300D01*
X148628700Y-97741100D01*
G37*
G36*
X148628700Y-97363900D02*
G01*
X148487800Y-97363900D01*
X148487800Y-97360100D01*
X148628700Y-97360100D01*
X148628700Y-97363900D01*
G37*
G36*
X148628700Y-96621000D02*
G01*
X148103000Y-96621000D01*
X148103000Y-96617200D01*
X148628700Y-96617200D01*
X148628700Y-96621000D01*
G37*
G36*
X148628700Y-96617200D02*
G01*
X148103000Y-96617200D01*
X148103000Y-96613300D01*
X148628700Y-96613300D01*
X148628700Y-96617200D01*
G37*
G36*
X148624900Y-97737300D02*
G01*
X148434400Y-97737300D01*
X148434400Y-97733500D01*
X148624900Y-97733500D01*
X148624900Y-97737300D01*
G37*
G36*
X148624900Y-97463000D02*
G01*
X148362000Y-97463000D01*
X148362000Y-97459200D01*
X148624900Y-97459200D01*
X148624900Y-97463000D01*
G37*
G36*
X148624900Y-97367700D02*
G01*
X148484000Y-97367700D01*
X148484000Y-97363900D01*
X148624900Y-97363900D01*
X148624900Y-97367700D01*
G37*
G36*
X148624900Y-96613300D02*
G01*
X148106800Y-96613300D01*
X148106800Y-96609500D01*
X148624900Y-96609500D01*
X148624900Y-96613300D01*
G37*
G36*
X148621100Y-97733500D02*
G01*
X148434400Y-97733500D01*
X148434400Y-97729700D01*
X148621100Y-97729700D01*
X148621100Y-97733500D01*
G37*
G36*
X148621100Y-97371500D02*
G01*
X148480100Y-97371500D01*
X148480100Y-97367700D01*
X148621100Y-97367700D01*
X148621100Y-97371500D01*
G37*
G36*
X148621100Y-96609500D02*
G01*
X148106800Y-96609500D01*
X148106800Y-96605700D01*
X148621100Y-96605700D01*
X148621100Y-96609500D01*
G37*
G36*
X148617300Y-97729700D02*
G01*
X148438200Y-97729700D01*
X148438200Y-97725900D01*
X148617300Y-97725900D01*
X148617300Y-97729700D01*
G37*
G36*
X148617300Y-97725900D02*
G01*
X148438200Y-97725900D01*
X148438200Y-97722100D01*
X148617300Y-97722100D01*
X148617300Y-97725900D01*
G37*
G36*
X148617300Y-97375300D02*
G01*
X148472500Y-97375300D01*
X148472500Y-97371500D01*
X148617300Y-97371500D01*
X148617300Y-97375300D01*
G37*
G36*
X148617300Y-96605700D02*
G01*
X148106800Y-96605700D01*
X148106800Y-96601900D01*
X148617300Y-96601900D01*
X148617300Y-96605700D01*
G37*
G36*
X148617300Y-96601900D02*
G01*
X148110600Y-96601900D01*
X148110600Y-96598100D01*
X148617300Y-96598100D01*
X148617300Y-96601900D01*
G37*
G36*
X148613500Y-97722100D02*
G01*
X148438200Y-97722100D01*
X148438200Y-97718200D01*
X148613500Y-97718200D01*
X148613500Y-97722100D01*
G37*
G36*
X148613500Y-97379200D02*
G01*
X147241900Y-97379200D01*
X147241900Y-97375300D01*
X148613500Y-97375300D01*
X148613500Y-97379200D01*
G37*
G36*
X148613500Y-96598100D02*
G01*
X148110600Y-96598100D01*
X148110600Y-96594300D01*
X148613500Y-96594300D01*
X148613500Y-96598100D01*
G37*
G36*
X148609700Y-97718200D02*
G01*
X148442000Y-97718200D01*
X148442000Y-97714400D01*
X148609700Y-97714400D01*
X148609700Y-97718200D01*
G37*
G36*
X148609700Y-97459200D02*
G01*
X148358200Y-97459200D01*
X148358200Y-97455400D01*
X148609700Y-97455400D01*
X148609700Y-97459200D01*
G37*
G36*
X148609700Y-97383000D02*
G01*
X148194400Y-97383000D01*
X148194400Y-97379200D01*
X148609700Y-97379200D01*
X148609700Y-97383000D01*
G37*
G36*
X148609700Y-96594300D02*
G01*
X148110600Y-96594300D01*
X148110600Y-96590500D01*
X148609700Y-96590500D01*
X148609700Y-96594300D01*
G37*
G36*
X148609700Y-96590500D02*
G01*
X148114400Y-96590500D01*
X148114400Y-96586700D01*
X148609700Y-96586700D01*
X148609700Y-96590500D01*
G37*
G36*
X148605900Y-97714400D02*
G01*
X148442000Y-97714400D01*
X148442000Y-97710600D01*
X148605900Y-97710600D01*
X148605900Y-97714400D01*
G37*
G36*
X148605900Y-97390600D02*
G01*
X148236300Y-97390600D01*
X148236300Y-97386800D01*
X148605900Y-97386800D01*
X148605900Y-97390600D01*
G37*
G36*
X148605900Y-97386800D02*
G01*
X148217300Y-97386800D01*
X148217300Y-97383000D01*
X148605900Y-97383000D01*
X148605900Y-97386800D01*
G37*
G36*
X148605900Y-96586700D02*
G01*
X148114400Y-96586700D01*
X148114400Y-96582900D01*
X148605900Y-96582900D01*
X148605900Y-96586700D01*
G37*
G36*
X148602100Y-97710600D02*
G01*
X148442000Y-97710600D01*
X148442000Y-97706800D01*
X148602100Y-97706800D01*
X148602100Y-97710600D01*
G37*
G36*
X148602100Y-97706800D02*
G01*
X148442000Y-97706800D01*
X148442000Y-97703000D01*
X148602100Y-97703000D01*
X148602100Y-97706800D01*
G37*
G36*
X148602100Y-97455400D02*
G01*
X148358200Y-97455400D01*
X148358200Y-97451500D01*
X148602100Y-97451500D01*
X148602100Y-97455400D01*
G37*
G36*
X148602100Y-97394400D02*
G01*
X148251500Y-97394400D01*
X148251500Y-97390600D01*
X148602100Y-97390600D01*
X148602100Y-97394400D01*
G37*
G36*
X148602100Y-96582900D02*
G01*
X148114400Y-96582900D01*
X148114400Y-96579100D01*
X148602100Y-96579100D01*
X148602100Y-96582900D01*
G37*
G36*
X148598300Y-97703000D02*
G01*
X148445900Y-97703000D01*
X148445900Y-97699200D01*
X148598300Y-97699200D01*
X148598300Y-97703000D01*
G37*
G36*
X148598300Y-97451500D02*
G01*
X148354400Y-97451500D01*
X148354400Y-97447700D01*
X148598300Y-97447700D01*
X148598300Y-97451500D01*
G37*
G36*
X148598300Y-97402000D02*
G01*
X148274400Y-97402000D01*
X148274400Y-97398200D01*
X148598300Y-97398200D01*
X148598300Y-97402000D01*
G37*
G36*
X148598300Y-97398200D02*
G01*
X148263000Y-97398200D01*
X148263000Y-97394400D01*
X148598300Y-97394400D01*
X148598300Y-97398200D01*
G37*
G36*
X148598300Y-96579100D02*
G01*
X148118200Y-96579100D01*
X148118200Y-96575200D01*
X148598300Y-96575200D01*
X148598300Y-96579100D01*
G37*
G36*
X148598300Y-96575200D02*
G01*
X148118200Y-96575200D01*
X148118200Y-96571400D01*
X148598300Y-96571400D01*
X148598300Y-96575200D01*
G37*
G36*
X148594400Y-97699200D02*
G01*
X148445900Y-97699200D01*
X148445900Y-97695400D01*
X148594400Y-97695400D01*
X148594400Y-97699200D01*
G37*
G36*
X148594400Y-97695400D02*
G01*
X148445900Y-97695400D01*
X148445900Y-97691600D01*
X148594400Y-97691600D01*
X148594400Y-97695400D01*
G37*
G36*
X148594400Y-97447700D02*
G01*
X148350600Y-97447700D01*
X148350600Y-97443900D01*
X148594400Y-97443900D01*
X148594400Y-97447700D01*
G37*
G36*
X148594400Y-97443900D02*
G01*
X148346800Y-97443900D01*
X148346800Y-97440100D01*
X148594400Y-97440100D01*
X148594400Y-97443900D01*
G37*
G36*
X148594400Y-97409600D02*
G01*
X148293500Y-97409600D01*
X148293500Y-97405800D01*
X148594400Y-97405800D01*
X148594400Y-97409600D01*
G37*
G36*
X148594400Y-97405800D02*
G01*
X148285800Y-97405800D01*
X148285800Y-97402000D01*
X148594400Y-97402000D01*
X148594400Y-97405800D01*
G37*
G36*
X148594400Y-96571400D02*
G01*
X148118200Y-96571400D01*
X148118200Y-96567600D01*
X148594400Y-96567600D01*
X148594400Y-96571400D01*
G37*
G36*
X148590600Y-97691600D02*
G01*
X148445900Y-97691600D01*
X148445900Y-97687800D01*
X148590600Y-97687800D01*
X148590600Y-97691600D01*
G37*
G36*
X148590600Y-97440100D02*
G01*
X148343000Y-97440100D01*
X148343000Y-97436300D01*
X148590600Y-97436300D01*
X148590600Y-97440100D01*
G37*
G36*
X148590600Y-97436300D02*
G01*
X148339200Y-97436300D01*
X148339200Y-97432500D01*
X148590600Y-97432500D01*
X148590600Y-97436300D01*
G37*
G36*
X148590600Y-97432500D02*
G01*
X148335400Y-97432500D01*
X148335400Y-97428700D01*
X148590600Y-97428700D01*
X148590600Y-97432500D01*
G37*
G36*
X148590600Y-97428700D02*
G01*
X148327700Y-97428700D01*
X148327700Y-97424900D01*
X148590600Y-97424900D01*
X148590600Y-97428700D01*
G37*
G36*
X148590600Y-97424900D02*
G01*
X148323900Y-97424900D01*
X148323900Y-97421100D01*
X148590600Y-97421100D01*
X148590600Y-97424900D01*
G37*
G36*
X148590600Y-97421100D02*
G01*
X148316300Y-97421100D01*
X148316300Y-97417300D01*
X148590600Y-97417300D01*
X148590600Y-97421100D01*
G37*
G36*
X148590600Y-97417300D02*
G01*
X148308700Y-97417300D01*
X148308700Y-97413400D01*
X148590600Y-97413400D01*
X148590600Y-97417300D01*
G37*
G36*
X148590600Y-97413400D02*
G01*
X148301100Y-97413400D01*
X148301100Y-97409600D01*
X148590600Y-97409600D01*
X148590600Y-97413400D01*
G37*
G36*
X148590600Y-96567600D02*
G01*
X148118200Y-96567600D01*
X148118200Y-96563800D01*
X148590600Y-96563800D01*
X148590600Y-96567600D01*
G37*
G36*
X148590600Y-96563800D02*
G01*
X148122000Y-96563800D01*
X148122000Y-96560000D01*
X148590600Y-96560000D01*
X148590600Y-96563800D01*
G37*
G36*
X148586800Y-97687800D02*
G01*
X148445900Y-97687800D01*
X148445900Y-97684000D01*
X148586800Y-97684000D01*
X148586800Y-97687800D01*
G37*
G36*
X148586800Y-97684000D02*
G01*
X148445900Y-97684000D01*
X148445900Y-97680100D01*
X148586800Y-97680100D01*
X148586800Y-97684000D01*
G37*
G36*
X148586800Y-96560000D02*
G01*
X148122000Y-96560000D01*
X148122000Y-96556200D01*
X148586800Y-96556200D01*
X148586800Y-96560000D01*
G37*
G36*
X148583000Y-97680100D02*
G01*
X148449700Y-97680100D01*
X148449700Y-97676300D01*
X148583000Y-97676300D01*
X148583000Y-97680100D01*
G37*
G36*
X148583000Y-97676300D02*
G01*
X148449700Y-97676300D01*
X148449700Y-97672500D01*
X148583000Y-97672500D01*
X148583000Y-97676300D01*
G37*
G36*
X148583000Y-97577300D02*
G01*
X147512400Y-97577300D01*
X147512400Y-97573500D01*
X148583000Y-97573500D01*
X148583000Y-97577300D01*
G37*
G36*
X148583000Y-96556200D02*
G01*
X148122000Y-96556200D01*
X148122000Y-96552400D01*
X148583000Y-96552400D01*
X148583000Y-96556200D01*
G37*
G36*
X148579200Y-97672500D02*
G01*
X148449700Y-97672500D01*
X148449700Y-97668700D01*
X148579200Y-97668700D01*
X148579200Y-97672500D01*
G37*
G36*
X148579200Y-97668700D02*
G01*
X148449700Y-97668700D01*
X148449700Y-97664900D01*
X148579200Y-97664900D01*
X148579200Y-97668700D01*
G37*
G36*
X148579200Y-96552400D02*
G01*
X148125800Y-96552400D01*
X148125800Y-96548600D01*
X148579200Y-96548600D01*
X148579200Y-96552400D01*
G37*
G36*
X148579200Y-96548600D02*
G01*
X148125800Y-96548600D01*
X148125800Y-96544800D01*
X148579200Y-96544800D01*
X148579200Y-96548600D01*
G37*
G36*
X148575400Y-97664900D02*
G01*
X148449700Y-97664900D01*
X148449700Y-97661100D01*
X148575400Y-97661100D01*
X148575400Y-97664900D01*
G37*
G36*
X148575400Y-97661100D02*
G01*
X148449700Y-97661100D01*
X148449700Y-97657300D01*
X148575400Y-97657300D01*
X148575400Y-97661100D01*
G37*
G36*
X148575400Y-97581100D02*
G01*
X147520000Y-97581100D01*
X147520000Y-97577300D01*
X148575400Y-97577300D01*
X148575400Y-97581100D01*
G37*
G36*
X148575400Y-96544800D02*
G01*
X148125800Y-96544800D01*
X148125800Y-96541000D01*
X148575400Y-96541000D01*
X148575400Y-96544800D01*
G37*
G36*
X148571600Y-97657300D02*
G01*
X148449700Y-97657300D01*
X148449700Y-97653500D01*
X148571600Y-97653500D01*
X148571600Y-97657300D01*
G37*
G36*
X148571600Y-97653500D02*
G01*
X148449700Y-97653500D01*
X148449700Y-97649700D01*
X148571600Y-97649700D01*
X148571600Y-97653500D01*
G37*
G36*
X148571600Y-97584900D02*
G01*
X147523800Y-97584900D01*
X147523800Y-97581100D01*
X148571600Y-97581100D01*
X148571600Y-97584900D01*
G37*
G36*
X148571600Y-96541000D02*
G01*
X148129600Y-96541000D01*
X148129600Y-96537100D01*
X148571600Y-96537100D01*
X148571600Y-96541000D01*
G37*
G36*
X148571600Y-96537100D02*
G01*
X148129600Y-96537100D01*
X148129600Y-96533300D01*
X148571600Y-96533300D01*
X148571600Y-96537100D01*
G37*
G36*
X148567800Y-97649700D02*
G01*
X148449700Y-97649700D01*
X148449700Y-97645900D01*
X148567800Y-97645900D01*
X148567800Y-97649700D01*
G37*
G36*
X148567800Y-97645900D02*
G01*
X148449700Y-97645900D01*
X148449700Y-97642000D01*
X148567800Y-97642000D01*
X148567800Y-97645900D01*
G37*
G36*
X148567800Y-97588700D02*
G01*
X147531500Y-97588700D01*
X147531500Y-97584900D01*
X148567800Y-97584900D01*
X148567800Y-97588700D01*
G37*
G36*
X148567800Y-96533300D02*
G01*
X148129600Y-96533300D01*
X148129600Y-96529500D01*
X148567800Y-96529500D01*
X148567800Y-96533300D01*
G37*
G36*
X148564000Y-97642000D02*
G01*
X148449700Y-97642000D01*
X148449700Y-97638200D01*
X148564000Y-97638200D01*
X148564000Y-97642000D01*
G37*
G36*
X148564000Y-97638200D02*
G01*
X148445900Y-97638200D01*
X148445900Y-97634400D01*
X148564000Y-97634400D01*
X148564000Y-97638200D01*
G37*
G36*
X148564000Y-97634400D02*
G01*
X148445900Y-97634400D01*
X148445900Y-97630600D01*
X148564000Y-97630600D01*
X148564000Y-97634400D01*
G37*
G36*
X148564000Y-97630600D02*
G01*
X148445900Y-97630600D01*
X148445900Y-97626800D01*
X148564000Y-97626800D01*
X148564000Y-97630600D01*
G37*
G36*
X148564000Y-97596300D02*
G01*
X147539100Y-97596300D01*
X147539100Y-97592500D01*
X148564000Y-97592500D01*
X148564000Y-97596300D01*
G37*
G36*
X148564000Y-97592500D02*
G01*
X147535300Y-97592500D01*
X147535300Y-97588700D01*
X148564000Y-97588700D01*
X148564000Y-97592500D01*
G37*
G36*
X148564000Y-96529500D02*
G01*
X148133400Y-96529500D01*
X148133400Y-96525700D01*
X148564000Y-96525700D01*
X148564000Y-96529500D01*
G37*
G36*
X148560200Y-97626800D02*
G01*
X148445900Y-97626800D01*
X148445900Y-97623000D01*
X148560200Y-97623000D01*
X148560200Y-97626800D01*
G37*
G36*
X148560200Y-97623000D02*
G01*
X148442000Y-97623000D01*
X148442000Y-97619200D01*
X148560200Y-97619200D01*
X148560200Y-97623000D01*
G37*
G36*
X148560200Y-97619200D02*
G01*
X148442000Y-97619200D01*
X148442000Y-97615400D01*
X148560200Y-97615400D01*
X148560200Y-97619200D01*
G37*
G36*
X148560200Y-97615400D02*
G01*
X148438200Y-97615400D01*
X148438200Y-97611600D01*
X148560200Y-97611600D01*
X148560200Y-97615400D01*
G37*
G36*
X148560200Y-97611600D02*
G01*
X148434400Y-97611600D01*
X148434400Y-97607800D01*
X148560200Y-97607800D01*
X148560200Y-97611600D01*
G37*
G36*
X148560200Y-97607800D02*
G01*
X148426800Y-97607800D01*
X148426800Y-97603900D01*
X148560200Y-97603900D01*
X148560200Y-97607800D01*
G37*
G36*
X148560200Y-97603900D02*
G01*
X147550500Y-97603900D01*
X147550500Y-97600100D01*
X148560200Y-97600100D01*
X148560200Y-97603900D01*
G37*
G36*
X148560200Y-97600100D02*
G01*
X147546700Y-97600100D01*
X147546700Y-97596300D01*
X148560200Y-97596300D01*
X148560200Y-97600100D01*
G37*
G36*
X148560200Y-96525700D02*
G01*
X148133400Y-96525700D01*
X148133400Y-96521900D01*
X148560200Y-96521900D01*
X148560200Y-96525700D01*
G37*
G36*
X148560200Y-96521900D02*
G01*
X148133400Y-96521900D01*
X148133400Y-96518100D01*
X148560200Y-96518100D01*
X148560200Y-96521900D01*
G37*
G36*
X148556300Y-98072600D02*
G01*
X147851500Y-98072600D01*
X147851500Y-98068800D01*
X148556300Y-98068800D01*
X148556300Y-98072600D01*
G37*
G36*
X148556300Y-98068800D02*
G01*
X147851500Y-98068800D01*
X147851500Y-98065000D01*
X148556300Y-98065000D01*
X148556300Y-98068800D01*
G37*
G36*
X148556300Y-98065000D02*
G01*
X147851500Y-98065000D01*
X147851500Y-98061100D01*
X148556300Y-98061100D01*
X148556300Y-98065000D01*
G37*
G36*
X148556300Y-98061100D02*
G01*
X147851500Y-98061100D01*
X147851500Y-98057300D01*
X148556300Y-98057300D01*
X148556300Y-98061100D01*
G37*
G36*
X148556300Y-98057300D02*
G01*
X147851500Y-98057300D01*
X147851500Y-98053500D01*
X148556300Y-98053500D01*
X148556300Y-98057300D01*
G37*
G36*
X148556300Y-98053500D02*
G01*
X147851500Y-98053500D01*
X147851500Y-98049700D01*
X148556300Y-98049700D01*
X148556300Y-98053500D01*
G37*
G36*
X148556300Y-98049700D02*
G01*
X147851500Y-98049700D01*
X147851500Y-98045900D01*
X148556300Y-98045900D01*
X148556300Y-98049700D01*
G37*
G36*
X148556300Y-98045900D02*
G01*
X147855300Y-98045900D01*
X147855300Y-98042100D01*
X148556300Y-98042100D01*
X148556300Y-98045900D01*
G37*
G36*
X148556300Y-98042100D02*
G01*
X147855300Y-98042100D01*
X147855300Y-98038300D01*
X148556300Y-98038300D01*
X148556300Y-98042100D01*
G37*
G36*
X148556300Y-98038300D02*
G01*
X147855300Y-98038300D01*
X147855300Y-98034500D01*
X148556300Y-98034500D01*
X148556300Y-98038300D01*
G37*
G36*
X148556300Y-98034500D02*
G01*
X147855300Y-98034500D01*
X147855300Y-98030700D01*
X148556300Y-98030700D01*
X148556300Y-98034500D01*
G37*
G36*
X148556300Y-98030700D02*
G01*
X147855300Y-98030700D01*
X147855300Y-98026900D01*
X148556300Y-98026900D01*
X148556300Y-98030700D01*
G37*
G36*
X148556300Y-98026900D02*
G01*
X147855300Y-98026900D01*
X147855300Y-98023000D01*
X148556300Y-98023000D01*
X148556300Y-98026900D01*
G37*
G36*
X148556300Y-98023000D02*
G01*
X147855300Y-98023000D01*
X147855300Y-98019200D01*
X148556300Y-98019200D01*
X148556300Y-98023000D01*
G37*
G36*
X148556300Y-98019200D02*
G01*
X147859100Y-98019200D01*
X147859100Y-98015400D01*
X148556300Y-98015400D01*
X148556300Y-98019200D01*
G37*
G36*
X148556300Y-98015400D02*
G01*
X147859100Y-98015400D01*
X147859100Y-98011600D01*
X148556300Y-98011600D01*
X148556300Y-98015400D01*
G37*
G36*
X148556300Y-98011600D02*
G01*
X147859100Y-98011600D01*
X147859100Y-98007800D01*
X148556300Y-98007800D01*
X148556300Y-98011600D01*
G37*
G36*
X148556300Y-98007800D02*
G01*
X147859100Y-98007800D01*
X147859100Y-98004000D01*
X148556300Y-98004000D01*
X148556300Y-98007800D01*
G37*
G36*
X148556300Y-98004000D02*
G01*
X147859100Y-98004000D01*
X147859100Y-98000200D01*
X148556300Y-98000200D01*
X148556300Y-98004000D01*
G37*
G36*
X148556300Y-98000200D02*
G01*
X147862900Y-98000200D01*
X147862900Y-97996400D01*
X148556300Y-97996400D01*
X148556300Y-98000200D01*
G37*
G36*
X148556300Y-97996400D02*
G01*
X147862900Y-97996400D01*
X147862900Y-97992600D01*
X148556300Y-97992600D01*
X148556300Y-97996400D01*
G37*
G36*
X148556300Y-97992600D02*
G01*
X147862900Y-97992600D01*
X147862900Y-97988800D01*
X148556300Y-97988800D01*
X148556300Y-97992600D01*
G37*
G36*
X148556300Y-97988800D02*
G01*
X147862900Y-97988800D01*
X147862900Y-97984900D01*
X148556300Y-97984900D01*
X148556300Y-97988800D01*
G37*
G36*
X148556300Y-97984900D02*
G01*
X147866700Y-97984900D01*
X147866700Y-97981100D01*
X148556300Y-97981100D01*
X148556300Y-97984900D01*
G37*
G36*
X148556300Y-97981100D02*
G01*
X147866700Y-97981100D01*
X147866700Y-97977300D01*
X148556300Y-97977300D01*
X148556300Y-97981100D01*
G37*
G36*
X148556300Y-97977300D02*
G01*
X147866700Y-97977300D01*
X147866700Y-97973500D01*
X148556300Y-97973500D01*
X148556300Y-97977300D01*
G37*
G36*
X148556300Y-97973500D02*
G01*
X147866700Y-97973500D01*
X147866700Y-97969700D01*
X148556300Y-97969700D01*
X148556300Y-97973500D01*
G37*
G36*
X148556300Y-97969700D02*
G01*
X147870500Y-97969700D01*
X147870500Y-97965900D01*
X148556300Y-97965900D01*
X148556300Y-97969700D01*
G37*
G36*
X148556300Y-97965900D02*
G01*
X147870500Y-97965900D01*
X147870500Y-97962100D01*
X148556300Y-97962100D01*
X148556300Y-97965900D01*
G37*
G36*
X148556300Y-96518100D02*
G01*
X148137200Y-96518100D01*
X148137200Y-96514300D01*
X148556300Y-96514300D01*
X148556300Y-96518100D01*
G37*
G36*
X148552500Y-98095400D02*
G01*
X147847700Y-98095400D01*
X147847700Y-98091600D01*
X148552500Y-98091600D01*
X148552500Y-98095400D01*
G37*
G36*
X148552500Y-98091600D02*
G01*
X147851500Y-98091600D01*
X147851500Y-98087800D01*
X148552500Y-98087800D01*
X148552500Y-98091600D01*
G37*
G36*
X148552500Y-98087800D02*
G01*
X147851500Y-98087800D01*
X147851500Y-98084000D01*
X148552500Y-98084000D01*
X148552500Y-98087800D01*
G37*
G36*
X148552500Y-98084000D02*
G01*
X147851500Y-98084000D01*
X147851500Y-98080200D01*
X148552500Y-98080200D01*
X148552500Y-98084000D01*
G37*
G36*
X148552500Y-98080200D02*
G01*
X147851500Y-98080200D01*
X147851500Y-98076400D01*
X148552500Y-98076400D01*
X148552500Y-98080200D01*
G37*
G36*
X148552500Y-98076400D02*
G01*
X147851500Y-98076400D01*
X147851500Y-98072600D01*
X148552500Y-98072600D01*
X148552500Y-98076400D01*
G37*
G36*
X148552500Y-96514300D02*
G01*
X148137200Y-96514300D01*
X148137200Y-96510500D01*
X148552500Y-96510500D01*
X148552500Y-96514300D01*
G37*
G36*
X148552500Y-96510500D02*
G01*
X148137200Y-96510500D01*
X148137200Y-96506700D01*
X148552500Y-96506700D01*
X148552500Y-96510500D01*
G37*
G36*
X148548700Y-98110700D02*
G01*
X147847700Y-98110700D01*
X147847700Y-98106900D01*
X148548700Y-98106900D01*
X148548700Y-98110700D01*
G37*
G36*
X148548700Y-98106900D02*
G01*
X147847700Y-98106900D01*
X147847700Y-98103100D01*
X148548700Y-98103100D01*
X148548700Y-98106900D01*
G37*
G36*
X148548700Y-98103100D02*
G01*
X147847700Y-98103100D01*
X147847700Y-98099200D01*
X148548700Y-98099200D01*
X148548700Y-98103100D01*
G37*
G36*
X148548700Y-98099200D02*
G01*
X147847700Y-98099200D01*
X147847700Y-98095400D01*
X148548700Y-98095400D01*
X148548700Y-98099200D01*
G37*
G36*
X148548700Y-96506700D02*
G01*
X148141100Y-96506700D01*
X148141100Y-96502900D01*
X148548700Y-96502900D01*
X148548700Y-96506700D01*
G37*
G36*
X148544900Y-98122100D02*
G01*
X147847700Y-98122100D01*
X147847700Y-98118300D01*
X148544900Y-98118300D01*
X148544900Y-98122100D01*
G37*
G36*
X148544900Y-98118300D02*
G01*
X147847700Y-98118300D01*
X147847700Y-98114500D01*
X148544900Y-98114500D01*
X148544900Y-98118300D01*
G37*
G36*
X148544900Y-98114500D02*
G01*
X147847700Y-98114500D01*
X147847700Y-98110700D01*
X148544900Y-98110700D01*
X148544900Y-98114500D01*
G37*
G36*
X148544900Y-96502900D02*
G01*
X148141100Y-96502900D01*
X148141100Y-96499000D01*
X148544900Y-96499000D01*
X148544900Y-96502900D01*
G37*
G36*
X148541100Y-98137300D02*
G01*
X147847700Y-98137300D01*
X147847700Y-98133500D01*
X148541100Y-98133500D01*
X148541100Y-98137300D01*
G37*
G36*
X148541100Y-98133500D02*
G01*
X147847700Y-98133500D01*
X147847700Y-98129700D01*
X148541100Y-98129700D01*
X148541100Y-98133500D01*
G37*
G36*
X148541100Y-98129700D02*
G01*
X147847700Y-98129700D01*
X147847700Y-98125900D01*
X148541100Y-98125900D01*
X148541100Y-98129700D01*
G37*
G36*
X148541100Y-98125900D02*
G01*
X147847700Y-98125900D01*
X147847700Y-98122100D01*
X148541100Y-98122100D01*
X148541100Y-98125900D01*
G37*
G36*
X148541100Y-96499000D02*
G01*
X148141100Y-96499000D01*
X148141100Y-96495200D01*
X148541100Y-96495200D01*
X148541100Y-96499000D01*
G37*
G36*
X148541100Y-96495200D02*
G01*
X148144900Y-96495200D01*
X148144900Y-96491400D01*
X148541100Y-96491400D01*
X148541100Y-96495200D01*
G37*
G36*
X148537300Y-98145000D02*
G01*
X147847700Y-98145000D01*
X147847700Y-98141200D01*
X148537300Y-98141200D01*
X148537300Y-98145000D01*
G37*
G36*
X148537300Y-98141200D02*
G01*
X147847700Y-98141200D01*
X147847700Y-98137300D01*
X148537300Y-98137300D01*
X148537300Y-98141200D01*
G37*
G36*
X148537300Y-96491400D02*
G01*
X148144900Y-96491400D01*
X148144900Y-96487600D01*
X148537300Y-96487600D01*
X148537300Y-96491400D01*
G37*
G36*
X148533500Y-98156400D02*
G01*
X147847700Y-98156400D01*
X147847700Y-98152600D01*
X148533500Y-98152600D01*
X148533500Y-98156400D01*
G37*
G36*
X148533500Y-98152600D02*
G01*
X147847700Y-98152600D01*
X147847700Y-98148800D01*
X148533500Y-98148800D01*
X148533500Y-98152600D01*
G37*
G36*
X148533500Y-98148800D02*
G01*
X147847700Y-98148800D01*
X147847700Y-98145000D01*
X148533500Y-98145000D01*
X148533500Y-98148800D01*
G37*
G36*
X148533500Y-96487600D02*
G01*
X148144900Y-96487600D01*
X148144900Y-96483800D01*
X148533500Y-96483800D01*
X148533500Y-96487600D01*
G37*
G36*
X148529700Y-98164000D02*
G01*
X147847700Y-98164000D01*
X147847700Y-98160200D01*
X148529700Y-98160200D01*
X148529700Y-98164000D01*
G37*
G36*
X148529700Y-98160200D02*
G01*
X147847700Y-98160200D01*
X147847700Y-98156400D01*
X148529700Y-98156400D01*
X148529700Y-98160200D01*
G37*
G36*
X148529700Y-96483800D02*
G01*
X148148700Y-96483800D01*
X148148700Y-96480000D01*
X148529700Y-96480000D01*
X148529700Y-96483800D01*
G37*
G36*
X148529700Y-96480000D02*
G01*
X148148700Y-96480000D01*
X148148700Y-96476200D01*
X148529700Y-96476200D01*
X148529700Y-96480000D01*
G37*
G36*
X148525900Y-98175400D02*
G01*
X147847700Y-98175400D01*
X147847700Y-98171600D01*
X148525900Y-98171600D01*
X148525900Y-98175400D01*
G37*
G36*
X148525900Y-98171600D02*
G01*
X147847700Y-98171600D01*
X147847700Y-98167800D01*
X148525900Y-98167800D01*
X148525900Y-98171600D01*
G37*
G36*
X148525900Y-98167800D02*
G01*
X147847700Y-98167800D01*
X147847700Y-98164000D01*
X148525900Y-98164000D01*
X148525900Y-98167800D01*
G37*
G36*
X148525900Y-96476200D02*
G01*
X148148700Y-96476200D01*
X148148700Y-96472400D01*
X148525900Y-96472400D01*
X148525900Y-96476200D01*
G37*
G36*
X148522100Y-98183100D02*
G01*
X147847700Y-98183100D01*
X147847700Y-98179300D01*
X148522100Y-98179300D01*
X148522100Y-98183100D01*
G37*
G36*
X148522100Y-98179300D02*
G01*
X147847700Y-98179300D01*
X147847700Y-98175400D01*
X148522100Y-98175400D01*
X148522100Y-98179300D01*
G37*
G36*
X148522100Y-96472400D02*
G01*
X148148700Y-96472400D01*
X148148700Y-96468600D01*
X148522100Y-96468600D01*
X148522100Y-96472400D01*
G37*
G36*
X148522100Y-96468600D02*
G01*
X148152500Y-96468600D01*
X148152500Y-96464800D01*
X148522100Y-96464800D01*
X148522100Y-96468600D01*
G37*
G36*
X148518200Y-98190700D02*
G01*
X147847700Y-98190700D01*
X147847700Y-98186900D01*
X148518200Y-98186900D01*
X148518200Y-98190700D01*
G37*
G36*
X148518200Y-98186900D02*
G01*
X147847700Y-98186900D01*
X147847700Y-98183100D01*
X148518200Y-98183100D01*
X148518200Y-98186900D01*
G37*
G36*
X148518200Y-96464800D02*
G01*
X148152500Y-96464800D01*
X148152500Y-96460900D01*
X148518200Y-96460900D01*
X148518200Y-96464800D01*
G37*
G36*
X148514400Y-98198300D02*
G01*
X147847700Y-98198300D01*
X147847700Y-98194500D01*
X148514400Y-98194500D01*
X148514400Y-98198300D01*
G37*
G36*
X148514400Y-98194500D02*
G01*
X147847700Y-98194500D01*
X147847700Y-98190700D01*
X148514400Y-98190700D01*
X148514400Y-98194500D01*
G37*
G36*
X148514400Y-96460900D02*
G01*
X148152500Y-96460900D01*
X148152500Y-96457100D01*
X148514400Y-96457100D01*
X148514400Y-96460900D01*
G37*
G36*
X148510600Y-98205900D02*
G01*
X147847700Y-98205900D01*
X147847700Y-98202100D01*
X148510600Y-98202100D01*
X148510600Y-98205900D01*
G37*
G36*
X148510600Y-98202100D02*
G01*
X147847700Y-98202100D01*
X147847700Y-98198300D01*
X148510600Y-98198300D01*
X148510600Y-98202100D01*
G37*
G36*
X148510600Y-96457100D02*
G01*
X148156300Y-96457100D01*
X148156300Y-96453300D01*
X148510600Y-96453300D01*
X148510600Y-96457100D01*
G37*
G36*
X148510600Y-96453300D02*
G01*
X148156300Y-96453300D01*
X148156300Y-96449500D01*
X148510600Y-96449500D01*
X148510600Y-96453300D01*
G37*
G36*
X148506800Y-98209700D02*
G01*
X147847700Y-98209700D01*
X147847700Y-98205900D01*
X148506800Y-98205900D01*
X148506800Y-98209700D01*
G37*
G36*
X148506800Y-96449500D02*
G01*
X148156300Y-96449500D01*
X148156300Y-96445700D01*
X148506800Y-96445700D01*
X148506800Y-96449500D01*
G37*
G36*
X148503000Y-98217400D02*
G01*
X147847700Y-98217400D01*
X147847700Y-98213500D01*
X148503000Y-98213500D01*
X148503000Y-98217400D01*
G37*
G36*
X148503000Y-98213500D02*
G01*
X147847700Y-98213500D01*
X147847700Y-98209700D01*
X148503000Y-98209700D01*
X148503000Y-98213500D01*
G37*
G36*
X148503000Y-96445700D02*
G01*
X148160100Y-96445700D01*
X148160100Y-96441900D01*
X148503000Y-96441900D01*
X148503000Y-96445700D01*
G37*
G36*
X148503000Y-96441900D02*
G01*
X148160100Y-96441900D01*
X148160100Y-96438100D01*
X148503000Y-96438100D01*
X148503000Y-96441900D01*
G37*
G36*
X148499200Y-98225000D02*
G01*
X147847700Y-98225000D01*
X147847700Y-98221200D01*
X148499200Y-98221200D01*
X148499200Y-98225000D01*
G37*
G36*
X148499200Y-98221200D02*
G01*
X147847700Y-98221200D01*
X147847700Y-98217400D01*
X148499200Y-98217400D01*
X148499200Y-98221200D01*
G37*
G36*
X148499200Y-96438100D02*
G01*
X148160100Y-96438100D01*
X148160100Y-96434300D01*
X148499200Y-96434300D01*
X148499200Y-96438100D01*
G37*
G36*
X148495400Y-98228800D02*
G01*
X147847700Y-98228800D01*
X147847700Y-98225000D01*
X148495400Y-98225000D01*
X148495400Y-98228800D01*
G37*
G36*
X148495400Y-96434300D02*
G01*
X148163900Y-96434300D01*
X148163900Y-96430500D01*
X148495400Y-96430500D01*
X148495400Y-96434300D01*
G37*
G36*
X148491600Y-98236400D02*
G01*
X147847700Y-98236400D01*
X147847700Y-98232600D01*
X148491600Y-98232600D01*
X148491600Y-98236400D01*
G37*
G36*
X148491600Y-98232600D02*
G01*
X147847700Y-98232600D01*
X147847700Y-98228800D01*
X148491600Y-98228800D01*
X148491600Y-98232600D01*
G37*
G36*
X148491600Y-96430500D02*
G01*
X148163900Y-96430500D01*
X148163900Y-96426700D01*
X148491600Y-96426700D01*
X148491600Y-96430500D01*
G37*
G36*
X148491600Y-96426700D02*
G01*
X148163900Y-96426700D01*
X148163900Y-96422800D01*
X148491600Y-96422800D01*
X148491600Y-96426700D01*
G37*
G36*
X148487800Y-98240200D02*
G01*
X147847700Y-98240200D01*
X147847700Y-98236400D01*
X148487800Y-98236400D01*
X148487800Y-98240200D01*
G37*
G36*
X148487800Y-96422800D02*
G01*
X148167700Y-96422800D01*
X148167700Y-96419000D01*
X148487800Y-96419000D01*
X148487800Y-96422800D01*
G37*
G36*
X148484000Y-98244000D02*
G01*
X147847700Y-98244000D01*
X147847700Y-98240200D01*
X148484000Y-98240200D01*
X148484000Y-98244000D01*
G37*
G36*
X148484000Y-96419000D02*
G01*
X148167700Y-96419000D01*
X148167700Y-96415200D01*
X148484000Y-96415200D01*
X148484000Y-96419000D01*
G37*
G36*
X148484000Y-96415200D02*
G01*
X148167700Y-96415200D01*
X148167700Y-96411400D01*
X148484000Y-96411400D01*
X148484000Y-96415200D01*
G37*
G36*
X148480100Y-98251600D02*
G01*
X147847700Y-98251600D01*
X147847700Y-98247800D01*
X148480100Y-98247800D01*
X148480100Y-98251600D01*
G37*
G36*
X148480100Y-98247800D02*
G01*
X147847700Y-98247800D01*
X147847700Y-98244000D01*
X148480100Y-98244000D01*
X148480100Y-98247800D01*
G37*
G36*
X148480100Y-96411400D02*
G01*
X148171500Y-96411400D01*
X148171500Y-96407600D01*
X148480100Y-96407600D01*
X148480100Y-96411400D01*
G37*
G36*
X148476300Y-98255500D02*
G01*
X147847700Y-98255500D01*
X147847700Y-98251600D01*
X148476300Y-98251600D01*
X148476300Y-98255500D01*
G37*
G36*
X148476300Y-96407600D02*
G01*
X148171500Y-96407600D01*
X148171500Y-96403800D01*
X148476300Y-96403800D01*
X148476300Y-96407600D01*
G37*
G36*
X148472500Y-98259300D02*
G01*
X147847700Y-98259300D01*
X147847700Y-98255500D01*
X148472500Y-98255500D01*
X148472500Y-98259300D01*
G37*
G36*
X148472500Y-96403800D02*
G01*
X148171500Y-96403800D01*
X148171500Y-96400000D01*
X148472500Y-96400000D01*
X148472500Y-96403800D01*
G37*
G36*
X148472500Y-96400000D02*
G01*
X148175300Y-96400000D01*
X148175300Y-96396200D01*
X148472500Y-96396200D01*
X148472500Y-96400000D01*
G37*
G36*
X148468700Y-98266900D02*
G01*
X147847700Y-98266900D01*
X147847700Y-98263100D01*
X148468700Y-98263100D01*
X148468700Y-98266900D01*
G37*
G36*
X148468700Y-98263100D02*
G01*
X147847700Y-98263100D01*
X147847700Y-98259300D01*
X148468700Y-98259300D01*
X148468700Y-98263100D01*
G37*
G36*
X148468700Y-96396200D02*
G01*
X148175300Y-96396200D01*
X148175300Y-96392400D01*
X148468700Y-96392400D01*
X148468700Y-96396200D01*
G37*
G36*
X148464900Y-98270700D02*
G01*
X147847700Y-98270700D01*
X147847700Y-98266900D01*
X148464900Y-98266900D01*
X148464900Y-98270700D01*
G37*
G36*
X148464900Y-96392400D02*
G01*
X148175300Y-96392400D01*
X148175300Y-96388600D01*
X148464900Y-96388600D01*
X148464900Y-96392400D01*
G37*
G36*
X148464900Y-96388600D02*
G01*
X148179200Y-96388600D01*
X148179200Y-96384700D01*
X148464900Y-96384700D01*
X148464900Y-96388600D01*
G37*
G36*
X148461100Y-98274500D02*
G01*
X147847700Y-98274500D01*
X147847700Y-98270700D01*
X148461100Y-98270700D01*
X148461100Y-98274500D01*
G37*
G36*
X148461100Y-96384700D02*
G01*
X148179200Y-96384700D01*
X148179200Y-96380900D01*
X148461100Y-96380900D01*
X148461100Y-96384700D01*
G37*
G36*
X148457300Y-98278300D02*
G01*
X147847700Y-98278300D01*
X147847700Y-98274500D01*
X148457300Y-98274500D01*
X148457300Y-98278300D01*
G37*
G36*
X148457300Y-96380900D02*
G01*
X148179200Y-96380900D01*
X148179200Y-96377100D01*
X148457300Y-96377100D01*
X148457300Y-96380900D01*
G37*
G36*
X148453500Y-98285900D02*
G01*
X147847700Y-98285900D01*
X147847700Y-98282100D01*
X148453500Y-98282100D01*
X148453500Y-98285900D01*
G37*
G36*
X148453500Y-98282100D02*
G01*
X147847700Y-98282100D01*
X147847700Y-98278300D01*
X148453500Y-98278300D01*
X148453500Y-98282100D01*
G37*
G36*
X148453500Y-96377100D02*
G01*
X148183000Y-96377100D01*
X148183000Y-96373300D01*
X148453500Y-96373300D01*
X148453500Y-96377100D01*
G37*
G36*
X148453500Y-96373300D02*
G01*
X148183000Y-96373300D01*
X148183000Y-96369500D01*
X148453500Y-96369500D01*
X148453500Y-96373300D01*
G37*
G36*
X148449700Y-98289700D02*
G01*
X147847700Y-98289700D01*
X147847700Y-98285900D01*
X148449700Y-98285900D01*
X148449700Y-98289700D01*
G37*
G36*
X148449700Y-96369500D02*
G01*
X148183000Y-96369500D01*
X148183000Y-96365700D01*
X148449700Y-96365700D01*
X148449700Y-96369500D01*
G37*
G36*
X148445900Y-98293600D02*
G01*
X147847700Y-98293600D01*
X147847700Y-98289700D01*
X148445900Y-98289700D01*
X148445900Y-98293600D01*
G37*
G36*
X148445900Y-97375300D02*
G01*
X147238100Y-97375300D01*
X147238100Y-97371500D01*
X148445900Y-97371500D01*
X148445900Y-97375300D01*
G37*
G36*
X148445900Y-96365700D02*
G01*
X148183000Y-96365700D01*
X148183000Y-96361900D01*
X148445900Y-96361900D01*
X148445900Y-96365700D01*
G37*
G36*
X148445900Y-96361900D02*
G01*
X148186800Y-96361900D01*
X148186800Y-96358100D01*
X148445900Y-96358100D01*
X148445900Y-96361900D01*
G37*
G36*
X148442000Y-98297400D02*
G01*
X147847700Y-98297400D01*
X147847700Y-98293600D01*
X148442000Y-98293600D01*
X148442000Y-98297400D01*
G37*
G36*
X148442000Y-96358100D02*
G01*
X148186800Y-96358100D01*
X148186800Y-96354300D01*
X148442000Y-96354300D01*
X148442000Y-96358100D01*
G37*
G36*
X148438200Y-98301200D02*
G01*
X147847700Y-98301200D01*
X147847700Y-98297400D01*
X148438200Y-98297400D01*
X148438200Y-98301200D01*
G37*
G36*
X148438200Y-97371500D02*
G01*
X147234300Y-97371500D01*
X147234300Y-97367700D01*
X148438200Y-97367700D01*
X148438200Y-97371500D01*
G37*
G36*
X148438200Y-96354300D02*
G01*
X148186800Y-96354300D01*
X148186800Y-96350500D01*
X148438200Y-96350500D01*
X148438200Y-96354300D01*
G37*
G36*
X148434400Y-98305000D02*
G01*
X147847700Y-98305000D01*
X147847700Y-98301200D01*
X148434400Y-98301200D01*
X148434400Y-98305000D01*
G37*
G36*
X148434400Y-97367700D02*
G01*
X147230500Y-97367700D01*
X147230500Y-97363900D01*
X148434400Y-97363900D01*
X148434400Y-97367700D01*
G37*
G36*
X148434400Y-96350500D02*
G01*
X148190600Y-96350500D01*
X148190600Y-96346600D01*
X148434400Y-96346600D01*
X148434400Y-96350500D01*
G37*
G36*
X148434400Y-96346600D02*
G01*
X148190600Y-96346600D01*
X148190600Y-96342800D01*
X148434400Y-96342800D01*
X148434400Y-96346600D01*
G37*
G36*
X148430600Y-98308800D02*
G01*
X147847700Y-98308800D01*
X147847700Y-98305000D01*
X148430600Y-98305000D01*
X148430600Y-98308800D01*
G37*
G36*
X148430600Y-97363900D02*
G01*
X147226700Y-97363900D01*
X147226700Y-97360100D01*
X148430600Y-97360100D01*
X148430600Y-97363900D01*
G37*
G36*
X148430600Y-96342800D02*
G01*
X148190600Y-96342800D01*
X148190600Y-96339000D01*
X148430600Y-96339000D01*
X148430600Y-96342800D01*
G37*
G36*
X148426800Y-98312600D02*
G01*
X147847700Y-98312600D01*
X147847700Y-98308800D01*
X148426800Y-98308800D01*
X148426800Y-98312600D01*
G37*
G36*
X148426800Y-97360100D02*
G01*
X147222800Y-97360100D01*
X147222800Y-97356300D01*
X148426800Y-97356300D01*
X148426800Y-97360100D01*
G37*
G36*
X148426800Y-96339000D02*
G01*
X148194400Y-96339000D01*
X148194400Y-96335200D01*
X148426800Y-96335200D01*
X148426800Y-96339000D01*
G37*
G36*
X148423000Y-98316400D02*
G01*
X147847700Y-98316400D01*
X147847700Y-98312600D01*
X148423000Y-98312600D01*
X148423000Y-98316400D01*
G37*
G36*
X148423000Y-97356300D02*
G01*
X147222800Y-97356300D01*
X147222800Y-97352500D01*
X148423000Y-97352500D01*
X148423000Y-97356300D01*
G37*
G36*
X148423000Y-96335200D02*
G01*
X148194400Y-96335200D01*
X148194400Y-96331400D01*
X148423000Y-96331400D01*
X148423000Y-96335200D01*
G37*
G36*
X148423000Y-96331400D02*
G01*
X148194400Y-96331400D01*
X148194400Y-96327600D01*
X148423000Y-96327600D01*
X148423000Y-96331400D01*
G37*
G36*
X148419200Y-98320200D02*
G01*
X147847700Y-98320200D01*
X147847700Y-98316400D01*
X148419200Y-98316400D01*
X148419200Y-98320200D01*
G37*
G36*
X148419200Y-97352500D02*
G01*
X147219000Y-97352500D01*
X147219000Y-97348700D01*
X148419200Y-97348700D01*
X148419200Y-97352500D01*
G37*
G36*
X148419200Y-96327600D02*
G01*
X148198200Y-96327600D01*
X148198200Y-96323800D01*
X148419200Y-96323800D01*
X148419200Y-96327600D01*
G37*
G36*
X148415400Y-98324000D02*
G01*
X147847700Y-98324000D01*
X147847700Y-98320200D01*
X148415400Y-98320200D01*
X148415400Y-98324000D01*
G37*
G36*
X148415400Y-97348700D02*
G01*
X147215200Y-97348700D01*
X147215200Y-97344900D01*
X148415400Y-97344900D01*
X148415400Y-97348700D01*
G37*
G36*
X148415400Y-97344900D02*
G01*
X147215200Y-97344900D01*
X147215200Y-97341100D01*
X148415400Y-97341100D01*
X148415400Y-97344900D01*
G37*
G36*
X148415400Y-96323800D02*
G01*
X148198200Y-96323800D01*
X148198200Y-96320000D01*
X148415400Y-96320000D01*
X148415400Y-96323800D01*
G37*
G36*
X148415400Y-96320000D02*
G01*
X148198200Y-96320000D01*
X148198200Y-96316200D01*
X148415400Y-96316200D01*
X148415400Y-96320000D01*
G37*
G36*
X148411600Y-98327800D02*
G01*
X147847700Y-98327800D01*
X147847700Y-98324000D01*
X148411600Y-98324000D01*
X148411600Y-98327800D01*
G37*
G36*
X148411600Y-97341100D02*
G01*
X147215200Y-97341100D01*
X147215200Y-97337200D01*
X148411600Y-97337200D01*
X148411600Y-97341100D01*
G37*
G36*
X148411600Y-96316200D02*
G01*
X148202000Y-96316200D01*
X148202000Y-96312400D01*
X148411600Y-96312400D01*
X148411600Y-96316200D01*
G37*
G36*
X148407800Y-98331700D02*
G01*
X147847700Y-98331700D01*
X147847700Y-98327800D01*
X148407800Y-98327800D01*
X148407800Y-98331700D01*
G37*
G36*
X148407800Y-97337200D02*
G01*
X147211400Y-97337200D01*
X147211400Y-97333400D01*
X148407800Y-97333400D01*
X148407800Y-97337200D01*
G37*
G36*
X148407800Y-97333400D02*
G01*
X147211400Y-97333400D01*
X147211400Y-97329600D01*
X148407800Y-97329600D01*
X148407800Y-97333400D01*
G37*
G36*
X148407800Y-96312400D02*
G01*
X148202000Y-96312400D01*
X148202000Y-96308500D01*
X148407800Y-96308500D01*
X148407800Y-96312400D01*
G37*
G36*
X148403900Y-98335500D02*
G01*
X147847700Y-98335500D01*
X147847700Y-98331700D01*
X148403900Y-98331700D01*
X148403900Y-98335500D01*
G37*
G36*
X148403900Y-97329600D02*
G01*
X147211400Y-97329600D01*
X147211400Y-97325800D01*
X148403900Y-97325800D01*
X148403900Y-97329600D01*
G37*
G36*
X148403900Y-97325800D02*
G01*
X147211400Y-97325800D01*
X147211400Y-97322000D01*
X148403900Y-97322000D01*
X148403900Y-97325800D01*
G37*
G36*
X148403900Y-96308500D02*
G01*
X148202000Y-96308500D01*
X148202000Y-96304700D01*
X148403900Y-96304700D01*
X148403900Y-96308500D01*
G37*
G36*
X148403900Y-96304700D02*
G01*
X148205800Y-96304700D01*
X148205800Y-96300900D01*
X148403900Y-96300900D01*
X148403900Y-96304700D01*
G37*
G36*
X148400100Y-98339300D02*
G01*
X147847700Y-98339300D01*
X147847700Y-98335500D01*
X148400100Y-98335500D01*
X148400100Y-98339300D01*
G37*
G36*
X148400100Y-97322000D02*
G01*
X147207600Y-97322000D01*
X147207600Y-97318200D01*
X148400100Y-97318200D01*
X148400100Y-97322000D01*
G37*
G36*
X148400100Y-97318200D02*
G01*
X147207600Y-97318200D01*
X147207600Y-97314400D01*
X148400100Y-97314400D01*
X148400100Y-97318200D01*
G37*
G36*
X148400100Y-97043900D02*
G01*
X148072500Y-97043900D01*
X148072500Y-97040100D01*
X148400100Y-97040100D01*
X148400100Y-97043900D01*
G37*
G36*
X148400100Y-96300900D02*
G01*
X148205800Y-96300900D01*
X148205800Y-96297100D01*
X148400100Y-96297100D01*
X148400100Y-96300900D01*
G37*
G36*
X148396300Y-98343100D02*
G01*
X147847700Y-98343100D01*
X147847700Y-98339300D01*
X148396300Y-98339300D01*
X148396300Y-98343100D01*
G37*
G36*
X148396300Y-97607800D02*
G01*
X147554300Y-97607800D01*
X147554300Y-97603900D01*
X148396300Y-97603900D01*
X148396300Y-97607800D01*
G37*
G36*
X148396300Y-97314400D02*
G01*
X147207600Y-97314400D01*
X147207600Y-97310600D01*
X148396300Y-97310600D01*
X148396300Y-97314400D01*
G37*
G36*
X148396300Y-97310600D02*
G01*
X147207600Y-97310600D01*
X147207600Y-97306800D01*
X148396300Y-97306800D01*
X148396300Y-97310600D01*
G37*
G36*
X148396300Y-97047700D02*
G01*
X148076300Y-97047700D01*
X148076300Y-97043900D01*
X148396300Y-97043900D01*
X148396300Y-97047700D01*
G37*
G36*
X148396300Y-96297100D02*
G01*
X148205800Y-96297100D01*
X148205800Y-96293300D01*
X148396300Y-96293300D01*
X148396300Y-96297100D01*
G37*
G36*
X148396300Y-96293300D02*
G01*
X148209600Y-96293300D01*
X148209600Y-96289500D01*
X148396300Y-96289500D01*
X148396300Y-96293300D01*
G37*
G36*
X148392500Y-98346900D02*
G01*
X147847700Y-98346900D01*
X147847700Y-98343100D01*
X148392500Y-98343100D01*
X148392500Y-98346900D01*
G37*
G36*
X148392500Y-97306800D02*
G01*
X147207600Y-97306800D01*
X147207600Y-97303000D01*
X148392500Y-97303000D01*
X148392500Y-97306800D01*
G37*
G36*
X148392500Y-97303000D02*
G01*
X147211400Y-97303000D01*
X147211400Y-97299100D01*
X148392500Y-97299100D01*
X148392500Y-97303000D01*
G37*
G36*
X148392500Y-97299100D02*
G01*
X147211400Y-97299100D01*
X147211400Y-97295300D01*
X148392500Y-97295300D01*
X148392500Y-97299100D01*
G37*
G36*
X148392500Y-97051500D02*
G01*
X148076300Y-97051500D01*
X148076300Y-97047700D01*
X148392500Y-97047700D01*
X148392500Y-97051500D01*
G37*
G36*
X148392500Y-96289500D02*
G01*
X148209600Y-96289500D01*
X148209600Y-96285700D01*
X148392500Y-96285700D01*
X148392500Y-96289500D01*
G37*
G36*
X148388700Y-97611600D02*
G01*
X147561900Y-97611600D01*
X147561900Y-97607800D01*
X148388700Y-97607800D01*
X148388700Y-97611600D01*
G37*
G36*
X148388700Y-97295300D02*
G01*
X147211400Y-97295300D01*
X147211400Y-97291500D01*
X148388700Y-97291500D01*
X148388700Y-97295300D01*
G37*
G36*
X148388700Y-97291500D02*
G01*
X147211400Y-97291500D01*
X147211400Y-97287700D01*
X148388700Y-97287700D01*
X148388700Y-97291500D01*
G37*
G36*
X148388700Y-97055300D02*
G01*
X148080100Y-97055300D01*
X148080100Y-97051500D01*
X148388700Y-97051500D01*
X148388700Y-97055300D01*
G37*
G36*
X148388700Y-96285700D02*
G01*
X148213400Y-96285700D01*
X148213400Y-96281900D01*
X148388700Y-96281900D01*
X148388700Y-96285700D01*
G37*
G36*
X148384900Y-98350700D02*
G01*
X147847700Y-98350700D01*
X147847700Y-98346900D01*
X148384900Y-98346900D01*
X148384900Y-98350700D01*
G37*
G36*
X148384900Y-97287700D02*
G01*
X147211400Y-97287700D01*
X147211400Y-97283900D01*
X148384900Y-97283900D01*
X148384900Y-97287700D01*
G37*
G36*
X148384900Y-97283900D02*
G01*
X147211400Y-97283900D01*
X147211400Y-97280100D01*
X148384900Y-97280100D01*
X148384900Y-97283900D01*
G37*
G36*
X148384900Y-97280100D02*
G01*
X147215200Y-97280100D01*
X147215200Y-97276300D01*
X148384900Y-97276300D01*
X148384900Y-97280100D01*
G37*
G36*
X148384900Y-97062900D02*
G01*
X148083900Y-97062900D01*
X148083900Y-97059100D01*
X148384900Y-97059100D01*
X148384900Y-97062900D01*
G37*
G36*
X148384900Y-97059100D02*
G01*
X148080100Y-97059100D01*
X148080100Y-97055300D01*
X148384900Y-97055300D01*
X148384900Y-97059100D01*
G37*
G36*
X148384900Y-96281900D02*
G01*
X148213400Y-96281900D01*
X148213400Y-96278100D01*
X148384900Y-96278100D01*
X148384900Y-96281900D01*
G37*
G36*
X148384900Y-96278100D02*
G01*
X148213400Y-96278100D01*
X148213400Y-96274300D01*
X148384900Y-96274300D01*
X148384900Y-96278100D01*
G37*
G36*
X148381100Y-98354500D02*
G01*
X147847700Y-98354500D01*
X147847700Y-98350700D01*
X148381100Y-98350700D01*
X148381100Y-98354500D01*
G37*
G36*
X148381100Y-97615400D02*
G01*
X147565700Y-97615400D01*
X147565700Y-97611600D01*
X148381100Y-97611600D01*
X148381100Y-97615400D01*
G37*
G36*
X148381100Y-97276300D02*
G01*
X147215200Y-97276300D01*
X147215200Y-97272500D01*
X148381100Y-97272500D01*
X148381100Y-97276300D01*
G37*
G36*
X148381100Y-97272500D02*
G01*
X147215200Y-97272500D01*
X147215200Y-97268700D01*
X148381100Y-97268700D01*
X148381100Y-97272500D01*
G37*
G36*
X148381100Y-97268700D02*
G01*
X147219000Y-97268700D01*
X147219000Y-97264900D01*
X148381100Y-97264900D01*
X148381100Y-97268700D01*
G37*
G36*
X148381100Y-97264900D02*
G01*
X147219000Y-97264900D01*
X147219000Y-97261000D01*
X148381100Y-97261000D01*
X148381100Y-97264900D01*
G37*
G36*
X148381100Y-97070500D02*
G01*
X148087700Y-97070500D01*
X148087700Y-97066700D01*
X148381100Y-97066700D01*
X148381100Y-97070500D01*
G37*
G36*
X148381100Y-97066700D02*
G01*
X148083900Y-97066700D01*
X148083900Y-97062900D01*
X148381100Y-97062900D01*
X148381100Y-97066700D01*
G37*
G36*
X148381100Y-96274300D02*
G01*
X148217300Y-96274300D01*
X148217300Y-96270400D01*
X148381100Y-96270400D01*
X148381100Y-96274300D01*
G37*
G36*
X148377300Y-98358300D02*
G01*
X147847700Y-98358300D01*
X147847700Y-98354500D01*
X148377300Y-98354500D01*
X148377300Y-98358300D01*
G37*
G36*
X148377300Y-97619200D02*
G01*
X147573400Y-97619200D01*
X147573400Y-97615400D01*
X148377300Y-97615400D01*
X148377300Y-97619200D01*
G37*
G36*
X148377300Y-97261000D02*
G01*
X147222800Y-97261000D01*
X147222800Y-97257200D01*
X148377300Y-97257200D01*
X148377300Y-97261000D01*
G37*
G36*
X148377300Y-97257200D02*
G01*
X147226700Y-97257200D01*
X147226700Y-97253400D01*
X148377300Y-97253400D01*
X148377300Y-97257200D01*
G37*
G36*
X148377300Y-97253400D02*
G01*
X147226700Y-97253400D01*
X147226700Y-97249600D01*
X148377300Y-97249600D01*
X148377300Y-97253400D01*
G37*
G36*
X148377300Y-97249600D02*
G01*
X147230500Y-97249600D01*
X147230500Y-97245800D01*
X148377300Y-97245800D01*
X148377300Y-97249600D01*
G37*
G36*
X148377300Y-97082000D02*
G01*
X148091500Y-97082000D01*
X148091500Y-97078200D01*
X148377300Y-97078200D01*
X148377300Y-97082000D01*
G37*
G36*
X148377300Y-97078200D02*
G01*
X148091500Y-97078200D01*
X148091500Y-97074400D01*
X148377300Y-97074400D01*
X148377300Y-97078200D01*
G37*
G36*
X148377300Y-97074400D02*
G01*
X148087700Y-97074400D01*
X148087700Y-97070500D01*
X148377300Y-97070500D01*
X148377300Y-97074400D01*
G37*
G36*
X148377300Y-96270400D02*
G01*
X148217300Y-96270400D01*
X148217300Y-96266600D01*
X148377300Y-96266600D01*
X148377300Y-96270400D01*
G37*
G36*
X148373500Y-98362100D02*
G01*
X147847700Y-98362100D01*
X147847700Y-98358300D01*
X148373500Y-98358300D01*
X148373500Y-98362100D01*
G37*
G36*
X148373500Y-97245800D02*
G01*
X147234300Y-97245800D01*
X147234300Y-97242000D01*
X148373500Y-97242000D01*
X148373500Y-97245800D01*
G37*
G36*
X148373500Y-97242000D02*
G01*
X147238100Y-97242000D01*
X147238100Y-97238200D01*
X148373500Y-97238200D01*
X148373500Y-97242000D01*
G37*
G36*
X148373500Y-97238200D02*
G01*
X147245700Y-97238200D01*
X147245700Y-97234400D01*
X148373500Y-97234400D01*
X148373500Y-97238200D01*
G37*
G36*
X148373500Y-97234400D02*
G01*
X147249500Y-97234400D01*
X147249500Y-97230600D01*
X148373500Y-97230600D01*
X148373500Y-97234400D01*
G37*
G36*
X148373500Y-97230600D02*
G01*
X147257100Y-97230600D01*
X147257100Y-97226800D01*
X148373500Y-97226800D01*
X148373500Y-97230600D01*
G37*
G36*
X148373500Y-97093400D02*
G01*
X148099100Y-97093400D01*
X148099100Y-97089600D01*
X148373500Y-97089600D01*
X148373500Y-97093400D01*
G37*
G36*
X148373500Y-97089600D02*
G01*
X148095300Y-97089600D01*
X148095300Y-97085800D01*
X148373500Y-97085800D01*
X148373500Y-97089600D01*
G37*
G36*
X148373500Y-97085800D02*
G01*
X148095300Y-97085800D01*
X148095300Y-97082000D01*
X148373500Y-97082000D01*
X148373500Y-97085800D01*
G37*
G36*
X148373500Y-96266600D02*
G01*
X148221100Y-96266600D01*
X148221100Y-96262800D01*
X148373500Y-96262800D01*
X148373500Y-96266600D01*
G37*
G36*
X148369700Y-97623000D02*
G01*
X147577200Y-97623000D01*
X147577200Y-97619200D01*
X148369700Y-97619200D01*
X148369700Y-97623000D01*
G37*
G36*
X148369700Y-97226800D02*
G01*
X147264800Y-97226800D01*
X147264800Y-97222900D01*
X148369700Y-97222900D01*
X148369700Y-97226800D01*
G37*
G36*
X148369700Y-97222900D02*
G01*
X147276200Y-97222900D01*
X147276200Y-97219100D01*
X148369700Y-97219100D01*
X148369700Y-97222900D01*
G37*
G36*
X148369700Y-97219100D02*
G01*
X147283800Y-97219100D01*
X147283800Y-97215300D01*
X148369700Y-97215300D01*
X148369700Y-97219100D01*
G37*
G36*
X148369700Y-97215300D02*
G01*
X147295200Y-97215300D01*
X147295200Y-97211500D01*
X148369700Y-97211500D01*
X148369700Y-97215300D01*
G37*
G36*
X148369700Y-97211500D02*
G01*
X147306700Y-97211500D01*
X147306700Y-97207700D01*
X148369700Y-97207700D01*
X148369700Y-97211500D01*
G37*
G36*
X148369700Y-97207700D02*
G01*
X147321900Y-97207700D01*
X147321900Y-97203900D01*
X148369700Y-97203900D01*
X148369700Y-97207700D01*
G37*
G36*
X148369700Y-97203900D02*
G01*
X147333300Y-97203900D01*
X147333300Y-97200100D01*
X148369700Y-97200100D01*
X148369700Y-97203900D01*
G37*
G36*
X148369700Y-97116300D02*
G01*
X148114400Y-97116300D01*
X148114400Y-97112500D01*
X148369700Y-97112500D01*
X148369700Y-97116300D01*
G37*
G36*
X148369700Y-97112500D02*
G01*
X148110600Y-97112500D01*
X148110600Y-97108600D01*
X148369700Y-97108600D01*
X148369700Y-97112500D01*
G37*
G36*
X148369700Y-97108600D02*
G01*
X148110600Y-97108600D01*
X148110600Y-97104800D01*
X148369700Y-97104800D01*
X148369700Y-97108600D01*
G37*
G36*
X148369700Y-97104800D02*
G01*
X148106800Y-97104800D01*
X148106800Y-97101000D01*
X148369700Y-97101000D01*
X148369700Y-97104800D01*
G37*
G36*
X148369700Y-97101000D02*
G01*
X148103000Y-97101000D01*
X148103000Y-97097200D01*
X148369700Y-97097200D01*
X148369700Y-97101000D01*
G37*
G36*
X148369700Y-97097200D02*
G01*
X148103000Y-97097200D01*
X148103000Y-97093400D01*
X148369700Y-97093400D01*
X148369700Y-97097200D01*
G37*
G36*
X148369700Y-96262800D02*
G01*
X148224900Y-96262800D01*
X148224900Y-96259000D01*
X148369700Y-96259000D01*
X148369700Y-96262800D01*
G37*
G36*
X148369700Y-96259000D02*
G01*
X148224900Y-96259000D01*
X148224900Y-96255200D01*
X148369700Y-96255200D01*
X148369700Y-96259000D01*
G37*
G36*
X148365800Y-98365900D02*
G01*
X147847700Y-98365900D01*
X147847700Y-98362100D01*
X148365800Y-98362100D01*
X148365800Y-98365900D01*
G37*
G36*
X148365800Y-97626800D02*
G01*
X147581000Y-97626800D01*
X147581000Y-97623000D01*
X148365800Y-97623000D01*
X148365800Y-97626800D01*
G37*
G36*
X148365800Y-97200100D02*
G01*
X147344800Y-97200100D01*
X147344800Y-97196300D01*
X148365800Y-97196300D01*
X148365800Y-97200100D01*
G37*
G36*
X148365800Y-97196300D02*
G01*
X147356200Y-97196300D01*
X147356200Y-97192500D01*
X148365800Y-97192500D01*
X148365800Y-97196300D01*
G37*
G36*
X148365800Y-97192500D02*
G01*
X147367600Y-97192500D01*
X147367600Y-97188700D01*
X148365800Y-97188700D01*
X148365800Y-97192500D01*
G37*
G36*
X148365800Y-97188700D02*
G01*
X147379100Y-97188700D01*
X147379100Y-97184800D01*
X148365800Y-97184800D01*
X148365800Y-97188700D01*
G37*
G36*
X148365800Y-97184800D02*
G01*
X147390500Y-97184800D01*
X147390500Y-97181000D01*
X148365800Y-97181000D01*
X148365800Y-97184800D01*
G37*
G36*
X148365800Y-97181000D02*
G01*
X147401900Y-97181000D01*
X147401900Y-97177200D01*
X148365800Y-97177200D01*
X148365800Y-97181000D01*
G37*
G36*
X148365800Y-97177200D02*
G01*
X147417200Y-97177200D01*
X147417200Y-97173400D01*
X148365800Y-97173400D01*
X148365800Y-97177200D01*
G37*
G36*
X148365800Y-97173400D02*
G01*
X147428600Y-97173400D01*
X147428600Y-97169600D01*
X148365800Y-97169600D01*
X148365800Y-97173400D01*
G37*
G36*
X148365800Y-97169600D02*
G01*
X148156300Y-97169600D01*
X148156300Y-97165800D01*
X148365800Y-97165800D01*
X148365800Y-97169600D01*
G37*
G36*
X148365800Y-97165800D02*
G01*
X148152500Y-97165800D01*
X148152500Y-97162000D01*
X148365800Y-97162000D01*
X148365800Y-97165800D01*
G37*
G36*
X148365800Y-97162000D02*
G01*
X148148700Y-97162000D01*
X148148700Y-97158200D01*
X148365800Y-97158200D01*
X148365800Y-97162000D01*
G37*
G36*
X148365800Y-97158200D02*
G01*
X148148700Y-97158200D01*
X148148700Y-97154400D01*
X148365800Y-97154400D01*
X148365800Y-97158200D01*
G37*
G36*
X148365800Y-97154400D02*
G01*
X148144900Y-97154400D01*
X148144900Y-97150600D01*
X148365800Y-97150600D01*
X148365800Y-97154400D01*
G37*
G36*
X148365800Y-97150600D02*
G01*
X148141100Y-97150600D01*
X148141100Y-97146700D01*
X148365800Y-97146700D01*
X148365800Y-97150600D01*
G37*
G36*
X148365800Y-97146700D02*
G01*
X148137200Y-97146700D01*
X148137200Y-97142900D01*
X148365800Y-97142900D01*
X148365800Y-97146700D01*
G37*
G36*
X148365800Y-97142900D02*
G01*
X148133400Y-97142900D01*
X148133400Y-97139100D01*
X148365800Y-97139100D01*
X148365800Y-97142900D01*
G37*
G36*
X148365800Y-97139100D02*
G01*
X148133400Y-97139100D01*
X148133400Y-97135300D01*
X148365800Y-97135300D01*
X148365800Y-97139100D01*
G37*
G36*
X148365800Y-97135300D02*
G01*
X148129600Y-97135300D01*
X148129600Y-97131500D01*
X148365800Y-97131500D01*
X148365800Y-97135300D01*
G37*
G36*
X148365800Y-97131500D02*
G01*
X148125800Y-97131500D01*
X148125800Y-97127700D01*
X148365800Y-97127700D01*
X148365800Y-97131500D01*
G37*
G36*
X148365800Y-97127700D02*
G01*
X148122000Y-97127700D01*
X148122000Y-97123900D01*
X148365800Y-97123900D01*
X148365800Y-97127700D01*
G37*
G36*
X148365800Y-97123900D02*
G01*
X148122000Y-97123900D01*
X148122000Y-97120100D01*
X148365800Y-97120100D01*
X148365800Y-97123900D01*
G37*
G36*
X148365800Y-97120100D02*
G01*
X148118200Y-97120100D01*
X148118200Y-97116300D01*
X148365800Y-97116300D01*
X148365800Y-97120100D01*
G37*
G36*
X148365800Y-96255200D02*
G01*
X148228700Y-96255200D01*
X148228700Y-96251400D01*
X148365800Y-96251400D01*
X148365800Y-96255200D01*
G37*
G36*
X148362000Y-98369800D02*
G01*
X147847700Y-98369800D01*
X147847700Y-98365900D01*
X148362000Y-98365900D01*
X148362000Y-98369800D01*
G37*
G36*
X148362000Y-97630600D02*
G01*
X147588600Y-97630600D01*
X147588600Y-97626800D01*
X148362000Y-97626800D01*
X148362000Y-97630600D01*
G37*
G36*
X148362000Y-96251400D02*
G01*
X148232500Y-96251400D01*
X148232500Y-96247600D01*
X148362000Y-96247600D01*
X148362000Y-96251400D01*
G37*
G36*
X148358200Y-98373600D02*
G01*
X147847700Y-98373600D01*
X147847700Y-98369800D01*
X148358200Y-98369800D01*
X148358200Y-98373600D01*
G37*
G36*
X148358200Y-97634400D02*
G01*
X147592400Y-97634400D01*
X147592400Y-97630600D01*
X148358200Y-97630600D01*
X148358200Y-97634400D01*
G37*
G36*
X148358200Y-96247600D02*
G01*
X148236300Y-96247600D01*
X148236300Y-96243800D01*
X148358200Y-96243800D01*
X148358200Y-96247600D01*
G37*
G36*
X148354400Y-97638200D02*
G01*
X147600000Y-97638200D01*
X147600000Y-97634400D01*
X148354400Y-97634400D01*
X148354400Y-97638200D01*
G37*
G36*
X148354400Y-96243800D02*
G01*
X148240100Y-96243800D01*
X148240100Y-96240000D01*
X148354400Y-96240000D01*
X148354400Y-96243800D01*
G37*
G36*
X148350600Y-98377400D02*
G01*
X147847700Y-98377400D01*
X147847700Y-98373600D01*
X148350600Y-98373600D01*
X148350600Y-98377400D01*
G37*
G36*
X148350600Y-97642000D02*
G01*
X147603800Y-97642000D01*
X147603800Y-97638200D01*
X148350600Y-97638200D01*
X148350600Y-97642000D01*
G37*
G36*
X148346800Y-98381200D02*
G01*
X147847700Y-98381200D01*
X147847700Y-98377400D01*
X148346800Y-98377400D01*
X148346800Y-98381200D01*
G37*
G36*
X148346800Y-97645900D02*
G01*
X147607700Y-97645900D01*
X147607700Y-97642000D01*
X148346800Y-97642000D01*
X148346800Y-97645900D01*
G37*
G36*
X148346800Y-96240000D02*
G01*
X148243900Y-96240000D01*
X148243900Y-96236200D01*
X148346800Y-96236200D01*
X148346800Y-96240000D01*
G37*
G36*
X148343000Y-98385000D02*
G01*
X147847700Y-98385000D01*
X147847700Y-98381200D01*
X148343000Y-98381200D01*
X148343000Y-98385000D01*
G37*
G36*
X148343000Y-97649700D02*
G01*
X147615300Y-97649700D01*
X147615300Y-97645900D01*
X148343000Y-97645900D01*
X148343000Y-97649700D01*
G37*
G36*
X148343000Y-96236200D02*
G01*
X148251500Y-96236200D01*
X148251500Y-96232300D01*
X148343000Y-96232300D01*
X148343000Y-96236200D01*
G37*
G36*
X148339200Y-97653500D02*
G01*
X147619100Y-97653500D01*
X147619100Y-97649700D01*
X148339200Y-97649700D01*
X148339200Y-97653500D01*
G37*
G36*
X148335400Y-98388800D02*
G01*
X147847700Y-98388800D01*
X147847700Y-98385000D01*
X148335400Y-98385000D01*
X148335400Y-98388800D01*
G37*
G36*
X148335400Y-97657300D02*
G01*
X147622900Y-97657300D01*
X147622900Y-97653500D01*
X148335400Y-97653500D01*
X148335400Y-97657300D01*
G37*
G36*
X148335400Y-96232300D02*
G01*
X148259200Y-96232300D01*
X148259200Y-96228500D01*
X148335400Y-96228500D01*
X148335400Y-96232300D01*
G37*
G36*
X148331600Y-98392600D02*
G01*
X147847700Y-98392600D01*
X147847700Y-98388800D01*
X148331600Y-98388800D01*
X148331600Y-98392600D01*
G37*
G36*
X148331600Y-97661100D02*
G01*
X147630500Y-97661100D01*
X147630500Y-97657300D01*
X148331600Y-97657300D01*
X148331600Y-97661100D01*
G37*
G36*
X148327700Y-97668700D02*
G01*
X147641900Y-97668700D01*
X147641900Y-97664900D01*
X148327700Y-97664900D01*
X148327700Y-97668700D01*
G37*
G36*
X148327700Y-97664900D02*
G01*
X147634300Y-97664900D01*
X147634300Y-97661100D01*
X148327700Y-97661100D01*
X148327700Y-97664900D01*
G37*
G36*
X148327700Y-96228500D02*
G01*
X148266800Y-96228500D01*
X148266800Y-96224700D01*
X148327700Y-96224700D01*
X148327700Y-96228500D01*
G37*
G36*
X148323900Y-98396400D02*
G01*
X147847700Y-98396400D01*
X147847700Y-98392600D01*
X148323900Y-98392600D01*
X148323900Y-98396400D01*
G37*
G36*
X148323900Y-97672500D02*
G01*
X147649600Y-97672500D01*
X147649600Y-97668700D01*
X148323900Y-97668700D01*
X148323900Y-97672500D01*
G37*
G36*
X148320100Y-98400200D02*
G01*
X147847700Y-98400200D01*
X147847700Y-98396400D01*
X148320100Y-98396400D01*
X148320100Y-98400200D01*
G37*
G36*
X148320100Y-97676300D02*
G01*
X147653400Y-97676300D01*
X147653400Y-97672500D01*
X148320100Y-97672500D01*
X148320100Y-97676300D01*
G37*
G36*
X148316300Y-98404000D02*
G01*
X147847700Y-98404000D01*
X147847700Y-98400200D01*
X148316300Y-98400200D01*
X148316300Y-98404000D01*
G37*
G36*
X148316300Y-97684000D02*
G01*
X147668600Y-97684000D01*
X147668600Y-97680100D01*
X148316300Y-97680100D01*
X148316300Y-97684000D01*
G37*
G36*
X148316300Y-97680100D02*
G01*
X147661000Y-97680100D01*
X147661000Y-97676300D01*
X148316300Y-97676300D01*
X148316300Y-97680100D01*
G37*
G36*
X148316300Y-96224700D02*
G01*
X148285800Y-96224700D01*
X148285800Y-96220900D01*
X148316300Y-96220900D01*
X148316300Y-96224700D01*
G37*
G36*
X148312500Y-97687800D02*
G01*
X147676200Y-97687800D01*
X147676200Y-97684000D01*
X148312500Y-97684000D01*
X148312500Y-97687800D01*
G37*
G36*
X148308700Y-98407900D02*
G01*
X147847700Y-98407900D01*
X147847700Y-98404000D01*
X148308700Y-98404000D01*
X148308700Y-98407900D01*
G37*
G36*
X148308700Y-97695400D02*
G01*
X147687700Y-97695400D01*
X147687700Y-97691600D01*
X148308700Y-97691600D01*
X148308700Y-97695400D01*
G37*
G36*
X148308700Y-97691600D02*
G01*
X147683900Y-97691600D01*
X147683900Y-97687800D01*
X148308700Y-97687800D01*
X148308700Y-97691600D01*
G37*
G36*
X148304900Y-98411700D02*
G01*
X147847700Y-98411700D01*
X147847700Y-98407900D01*
X148304900Y-98407900D01*
X148304900Y-98411700D01*
G37*
G36*
X148304900Y-97703000D02*
G01*
X147706700Y-97703000D01*
X147706700Y-97699200D01*
X148304900Y-97699200D01*
X148304900Y-97703000D01*
G37*
G36*
X148304900Y-97699200D02*
G01*
X147699100Y-97699200D01*
X147699100Y-97695400D01*
X148304900Y-97695400D01*
X148304900Y-97699200D01*
G37*
G36*
X148301100Y-98415500D02*
G01*
X147847700Y-98415500D01*
X147847700Y-98411700D01*
X148301100Y-98411700D01*
X148301100Y-98415500D01*
G37*
G36*
X148301100Y-97706800D02*
G01*
X147714300Y-97706800D01*
X147714300Y-97703000D01*
X148301100Y-97703000D01*
X148301100Y-97706800D01*
G37*
G36*
X148297300Y-97714400D02*
G01*
X148061000Y-97714400D01*
X148061000Y-97710600D01*
X148297300Y-97710600D01*
X148297300Y-97714400D01*
G37*
G36*
X148297300Y-97710600D02*
G01*
X148068700Y-97710600D01*
X148068700Y-97706800D01*
X148297300Y-97706800D01*
X148297300Y-97710600D01*
G37*
G36*
X148293500Y-98419300D02*
G01*
X147847700Y-98419300D01*
X147847700Y-98415500D01*
X148293500Y-98415500D01*
X148293500Y-98419300D01*
G37*
G36*
X148293500Y-97722100D02*
G01*
X148049600Y-97722100D01*
X148049600Y-97718200D01*
X148293500Y-97718200D01*
X148293500Y-97722100D01*
G37*
G36*
X148293500Y-97718200D02*
G01*
X148057200Y-97718200D01*
X148057200Y-97714400D01*
X148293500Y-97714400D01*
X148293500Y-97718200D01*
G37*
G36*
X148289600Y-98423100D02*
G01*
X147847700Y-98423100D01*
X147847700Y-98419300D01*
X148289600Y-98419300D01*
X148289600Y-98423100D01*
G37*
G36*
X148289600Y-97729700D02*
G01*
X148038200Y-97729700D01*
X148038200Y-97725900D01*
X148289600Y-97725900D01*
X148289600Y-97729700D01*
G37*
G36*
X148289600Y-97725900D02*
G01*
X148045800Y-97725900D01*
X148045800Y-97722100D01*
X148289600Y-97722100D01*
X148289600Y-97725900D01*
G37*
G36*
X148285800Y-98426900D02*
G01*
X147847700Y-98426900D01*
X147847700Y-98423100D01*
X148285800Y-98423100D01*
X148285800Y-98426900D01*
G37*
G36*
X148285800Y-97737300D02*
G01*
X148026800Y-97737300D01*
X148026800Y-97733500D01*
X148285800Y-97733500D01*
X148285800Y-97737300D01*
G37*
G36*
X148285800Y-97733500D02*
G01*
X148034400Y-97733500D01*
X148034400Y-97729700D01*
X148285800Y-97729700D01*
X148285800Y-97733500D01*
G37*
G36*
X148282000Y-97744900D02*
G01*
X148019100Y-97744900D01*
X148019100Y-97741100D01*
X148282000Y-97741100D01*
X148282000Y-97744900D01*
G37*
G36*
X148282000Y-97741100D02*
G01*
X148022900Y-97741100D01*
X148022900Y-97737300D01*
X148282000Y-97737300D01*
X148282000Y-97741100D01*
G37*
G36*
X148278200Y-98430700D02*
G01*
X147847700Y-98430700D01*
X147847700Y-98426900D01*
X148278200Y-98426900D01*
X148278200Y-98430700D01*
G37*
G36*
X148278200Y-97752500D02*
G01*
X148007700Y-97752500D01*
X148007700Y-97748700D01*
X148278200Y-97748700D01*
X148278200Y-97752500D01*
G37*
G36*
X148278200Y-97748700D02*
G01*
X148011500Y-97748700D01*
X148011500Y-97744900D01*
X148278200Y-97744900D01*
X148278200Y-97748700D01*
G37*
G36*
X148274400Y-98434500D02*
G01*
X147847700Y-98434500D01*
X147847700Y-98430700D01*
X148274400Y-98430700D01*
X148274400Y-98434500D01*
G37*
G36*
X148274400Y-97912600D02*
G01*
X147889600Y-97912600D01*
X147889600Y-97908700D01*
X148274400Y-97908700D01*
X148274400Y-97912600D01*
G37*
G36*
X148274400Y-97764000D02*
G01*
X147992500Y-97764000D01*
X147992500Y-97760200D01*
X148274400Y-97760200D01*
X148274400Y-97764000D01*
G37*
G36*
X148274400Y-97760200D02*
G01*
X147996300Y-97760200D01*
X147996300Y-97756300D01*
X148274400Y-97756300D01*
X148274400Y-97760200D01*
G37*
G36*
X148274400Y-97756300D02*
G01*
X148003900Y-97756300D01*
X148003900Y-97752500D01*
X148274400Y-97752500D01*
X148274400Y-97756300D01*
G37*
G36*
X148270600Y-97771600D02*
G01*
X147984800Y-97771600D01*
X147984800Y-97767800D01*
X148270600Y-97767800D01*
X148270600Y-97771600D01*
G37*
G36*
X148270600Y-97767800D02*
G01*
X147988700Y-97767800D01*
X147988700Y-97764000D01*
X148270600Y-97764000D01*
X148270600Y-97767800D01*
G37*
G36*
X148266800Y-98438300D02*
G01*
X147847700Y-98438300D01*
X147847700Y-98434500D01*
X148266800Y-98434500D01*
X148266800Y-98438300D01*
G37*
G36*
X148266800Y-97908700D02*
G01*
X147889600Y-97908700D01*
X147889600Y-97904900D01*
X148266800Y-97904900D01*
X148266800Y-97908700D01*
G37*
G36*
X148266800Y-97783000D02*
G01*
X147973400Y-97783000D01*
X147973400Y-97779200D01*
X148266800Y-97779200D01*
X148266800Y-97783000D01*
G37*
G36*
X148266800Y-97779200D02*
G01*
X147977200Y-97779200D01*
X147977200Y-97775400D01*
X148266800Y-97775400D01*
X148266800Y-97779200D01*
G37*
G36*
X148266800Y-97775400D02*
G01*
X147981000Y-97775400D01*
X147981000Y-97771600D01*
X148266800Y-97771600D01*
X148266800Y-97775400D01*
G37*
G36*
X148263000Y-98442100D02*
G01*
X147847700Y-98442100D01*
X147847700Y-98438300D01*
X148263000Y-98438300D01*
X148263000Y-98442100D01*
G37*
G36*
X148263000Y-97904900D02*
G01*
X147889600Y-97904900D01*
X147889600Y-97901100D01*
X148263000Y-97901100D01*
X148263000Y-97904900D01*
G37*
G36*
X148263000Y-97794400D02*
G01*
X147962000Y-97794400D01*
X147962000Y-97790600D01*
X148263000Y-97790600D01*
X148263000Y-97794400D01*
G37*
G36*
X148263000Y-97790600D02*
G01*
X147965800Y-97790600D01*
X147965800Y-97786800D01*
X148263000Y-97786800D01*
X148263000Y-97790600D01*
G37*
G36*
X148263000Y-97786800D02*
G01*
X147969600Y-97786800D01*
X147969600Y-97783000D01*
X148263000Y-97783000D01*
X148263000Y-97786800D01*
G37*
G36*
X148259200Y-98446000D02*
G01*
X147847700Y-98446000D01*
X147847700Y-98442100D01*
X148259200Y-98442100D01*
X148259200Y-98446000D01*
G37*
G36*
X148259200Y-97901100D02*
G01*
X147893400Y-97901100D01*
X147893400Y-97897300D01*
X148259200Y-97897300D01*
X148259200Y-97901100D01*
G37*
G36*
X148259200Y-97897300D02*
G01*
X147893400Y-97897300D01*
X147893400Y-97893500D01*
X148259200Y-97893500D01*
X148259200Y-97897300D01*
G37*
G36*
X148259200Y-97809700D02*
G01*
X147946700Y-97809700D01*
X147946700Y-97805900D01*
X148259200Y-97805900D01*
X148259200Y-97809700D01*
G37*
G36*
X148259200Y-97805900D02*
G01*
X147950600Y-97805900D01*
X147950600Y-97802100D01*
X148259200Y-97802100D01*
X148259200Y-97805900D01*
G37*
G36*
X148259200Y-97802100D02*
G01*
X147954400Y-97802100D01*
X147954400Y-97798300D01*
X148259200Y-97798300D01*
X148259200Y-97802100D01*
G37*
G36*
X148259200Y-97798300D02*
G01*
X147958200Y-97798300D01*
X147958200Y-97794400D01*
X148259200Y-97794400D01*
X148259200Y-97798300D01*
G37*
G36*
X148255400Y-97893500D02*
G01*
X147897200Y-97893500D01*
X147897200Y-97889700D01*
X148255400Y-97889700D01*
X148255400Y-97893500D01*
G37*
G36*
X148255400Y-97889700D02*
G01*
X147897200Y-97889700D01*
X147897200Y-97885900D01*
X148255400Y-97885900D01*
X148255400Y-97889700D01*
G37*
G36*
X148255400Y-97885900D02*
G01*
X147901000Y-97885900D01*
X147901000Y-97882100D01*
X148255400Y-97882100D01*
X148255400Y-97885900D01*
G37*
G36*
X148255400Y-97832500D02*
G01*
X147931500Y-97832500D01*
X147931500Y-97828700D01*
X148255400Y-97828700D01*
X148255400Y-97832500D01*
G37*
G36*
X148255400Y-97828700D02*
G01*
X147931500Y-97828700D01*
X147931500Y-97824900D01*
X148255400Y-97824900D01*
X148255400Y-97828700D01*
G37*
G36*
X148255400Y-97824900D02*
G01*
X147935300Y-97824900D01*
X147935300Y-97821100D01*
X148255400Y-97821100D01*
X148255400Y-97824900D01*
G37*
G36*
X148255400Y-97821100D02*
G01*
X147939100Y-97821100D01*
X147939100Y-97817300D01*
X148255400Y-97817300D01*
X148255400Y-97821100D01*
G37*
G36*
X148255400Y-97817300D02*
G01*
X147942900Y-97817300D01*
X147942900Y-97813500D01*
X148255400Y-97813500D01*
X148255400Y-97817300D01*
G37*
G36*
X148255400Y-97813500D02*
G01*
X147942900Y-97813500D01*
X147942900Y-97809700D01*
X148255400Y-97809700D01*
X148255400Y-97813500D01*
G37*
G36*
X148251500Y-98449800D02*
G01*
X147847700Y-98449800D01*
X147847700Y-98446000D01*
X148251500Y-98446000D01*
X148251500Y-98449800D01*
G37*
G36*
X148251500Y-97882100D02*
G01*
X147901000Y-97882100D01*
X147901000Y-97878300D01*
X148251500Y-97878300D01*
X148251500Y-97882100D01*
G37*
G36*
X148251500Y-97878300D02*
G01*
X147904800Y-97878300D01*
X147904800Y-97874500D01*
X148251500Y-97874500D01*
X148251500Y-97878300D01*
G37*
G36*
X148251500Y-97874500D02*
G01*
X147904800Y-97874500D01*
X147904800Y-97870600D01*
X148251500Y-97870600D01*
X148251500Y-97874500D01*
G37*
G36*
X148251500Y-97870600D02*
G01*
X147908600Y-97870600D01*
X147908600Y-97866800D01*
X148251500Y-97866800D01*
X148251500Y-97870600D01*
G37*
G36*
X148251500Y-97866800D02*
G01*
X147908600Y-97866800D01*
X147908600Y-97863000D01*
X148251500Y-97863000D01*
X148251500Y-97866800D01*
G37*
G36*
X148251500Y-97863000D02*
G01*
X147912500Y-97863000D01*
X147912500Y-97859200D01*
X148251500Y-97859200D01*
X148251500Y-97863000D01*
G37*
G36*
X148251500Y-97859200D02*
G01*
X147912500Y-97859200D01*
X147912500Y-97855400D01*
X148251500Y-97855400D01*
X148251500Y-97859200D01*
G37*
G36*
X148251500Y-97855400D02*
G01*
X147916300Y-97855400D01*
X147916300Y-97851600D01*
X148251500Y-97851600D01*
X148251500Y-97855400D01*
G37*
G36*
X148251500Y-97851600D02*
G01*
X147916300Y-97851600D01*
X147916300Y-97847800D01*
X148251500Y-97847800D01*
X148251500Y-97851600D01*
G37*
G36*
X148251500Y-97847800D02*
G01*
X147920100Y-97847800D01*
X147920100Y-97844000D01*
X148251500Y-97844000D01*
X148251500Y-97847800D01*
G37*
G36*
X148251500Y-97844000D02*
G01*
X147923900Y-97844000D01*
X147923900Y-97840200D01*
X148251500Y-97840200D01*
X148251500Y-97844000D01*
G37*
G36*
X148251500Y-97840200D02*
G01*
X147923900Y-97840200D01*
X147923900Y-97836400D01*
X148251500Y-97836400D01*
X148251500Y-97840200D01*
G37*
G36*
X148251500Y-97836400D02*
G01*
X147927700Y-97836400D01*
X147927700Y-97832500D01*
X148251500Y-97832500D01*
X148251500Y-97836400D01*
G37*
G36*
X148247700Y-98453600D02*
G01*
X147847700Y-98453600D01*
X147847700Y-98449800D01*
X148247700Y-98449800D01*
X148247700Y-98453600D01*
G37*
G36*
X148243900Y-98457400D02*
G01*
X147847700Y-98457400D01*
X147847700Y-98453600D01*
X148243900Y-98453600D01*
X148243900Y-98457400D01*
G37*
G36*
X148236300Y-98461200D02*
G01*
X147847700Y-98461200D01*
X147847700Y-98457400D01*
X148236300Y-98457400D01*
X148236300Y-98461200D01*
G37*
G36*
X148232500Y-98465000D02*
G01*
X147847700Y-98465000D01*
X147847700Y-98461200D01*
X148232500Y-98461200D01*
X148232500Y-98465000D01*
G37*
G36*
X148224900Y-98468800D02*
G01*
X147847700Y-98468800D01*
X147847700Y-98465000D01*
X148224900Y-98465000D01*
X148224900Y-98468800D01*
G37*
G36*
X148221100Y-98472600D02*
G01*
X147847700Y-98472600D01*
X147847700Y-98468800D01*
X148221100Y-98468800D01*
X148221100Y-98472600D01*
G37*
G36*
X148217300Y-98476400D02*
G01*
X147847700Y-98476400D01*
X147847700Y-98472600D01*
X148217300Y-98472600D01*
X148217300Y-98476400D01*
G37*
G36*
X148209600Y-98480200D02*
G01*
X147847700Y-98480200D01*
X147847700Y-98476400D01*
X148209600Y-98476400D01*
X148209600Y-98480200D01*
G37*
G36*
X148209600Y-97523900D02*
G01*
X147440000Y-97523900D01*
X147440000Y-97520100D01*
X148209600Y-97520100D01*
X148209600Y-97523900D01*
G37*
G36*
X148205800Y-98484100D02*
G01*
X147847700Y-98484100D01*
X147847700Y-98480200D01*
X148205800Y-98480200D01*
X148205800Y-98484100D01*
G37*
G36*
X148202000Y-98487900D02*
G01*
X147847700Y-98487900D01*
X147847700Y-98484100D01*
X148202000Y-98484100D01*
X148202000Y-98487900D01*
G37*
G36*
X148194400Y-98491700D02*
G01*
X147847700Y-98491700D01*
X147847700Y-98487900D01*
X148194400Y-98487900D01*
X148194400Y-98491700D01*
G37*
G36*
X148190600Y-98495500D02*
G01*
X147847700Y-98495500D01*
X147847700Y-98491700D01*
X148190600Y-98491700D01*
X148190600Y-98495500D01*
G37*
G36*
X148186800Y-98499300D02*
G01*
X147847700Y-98499300D01*
X147847700Y-98495500D01*
X148186800Y-98495500D01*
X148186800Y-98499300D01*
G37*
G36*
X148179200Y-98503100D02*
G01*
X147847700Y-98503100D01*
X147847700Y-98499300D01*
X148179200Y-98499300D01*
X148179200Y-98503100D01*
G37*
G36*
X148179200Y-97520100D02*
G01*
X147436200Y-97520100D01*
X147436200Y-97516300D01*
X148179200Y-97516300D01*
X148179200Y-97520100D01*
G37*
G36*
X148175300Y-98506900D02*
G01*
X147847700Y-98506900D01*
X147847700Y-98503100D01*
X148175300Y-98503100D01*
X148175300Y-98506900D01*
G37*
G36*
X148167700Y-98510700D02*
G01*
X147847700Y-98510700D01*
X147847700Y-98506900D01*
X148167700Y-98506900D01*
X148167700Y-98510700D01*
G37*
G36*
X148163900Y-98514500D02*
G01*
X147847700Y-98514500D01*
X147847700Y-98510700D01*
X148163900Y-98510700D01*
X148163900Y-98514500D01*
G37*
G36*
X148160100Y-98518300D02*
G01*
X147847700Y-98518300D01*
X147847700Y-98514500D01*
X148160100Y-98514500D01*
X148160100Y-98518300D01*
G37*
G36*
X148160100Y-97516300D02*
G01*
X147428600Y-97516300D01*
X147428600Y-97512500D01*
X148160100Y-97512500D01*
X148160100Y-97516300D01*
G37*
G36*
X148152500Y-98522200D02*
G01*
X147847700Y-98522200D01*
X147847700Y-98518300D01*
X148152500Y-98518300D01*
X148152500Y-98522200D01*
G37*
G36*
X148152500Y-97169600D02*
G01*
X147440000Y-97169600D01*
X147440000Y-97165800D01*
X148152500Y-97165800D01*
X148152500Y-97169600D01*
G37*
G36*
X148148700Y-98526000D02*
G01*
X147847700Y-98526000D01*
X147847700Y-98522200D01*
X148148700Y-98522200D01*
X148148700Y-98526000D01*
G37*
G36*
X148148700Y-97165800D02*
G01*
X147451400Y-97165800D01*
X147451400Y-97162000D01*
X148148700Y-97162000D01*
X148148700Y-97165800D01*
G37*
G36*
X148144900Y-98529800D02*
G01*
X147847700Y-98529800D01*
X147847700Y-98526000D01*
X148144900Y-98526000D01*
X148144900Y-98529800D01*
G37*
G36*
X148144900Y-97512500D02*
G01*
X147424800Y-97512500D01*
X147424800Y-97508700D01*
X148144900Y-97508700D01*
X148144900Y-97512500D01*
G37*
G36*
X148144900Y-97162000D02*
G01*
X147462900Y-97162000D01*
X147462900Y-97158200D01*
X148144900Y-97158200D01*
X148144900Y-97162000D01*
G37*
G36*
X148141100Y-97158200D02*
G01*
X147474300Y-97158200D01*
X147474300Y-97154400D01*
X148141100Y-97154400D01*
X148141100Y-97158200D01*
G37*
G36*
X148137200Y-98533600D02*
G01*
X147847700Y-98533600D01*
X147847700Y-98529800D01*
X148137200Y-98529800D01*
X148137200Y-98533600D01*
G37*
G36*
X148133400Y-98537400D02*
G01*
X147847700Y-98537400D01*
X147847700Y-98533600D01*
X148133400Y-98533600D01*
X148133400Y-98537400D01*
G37*
G36*
X148133400Y-97154400D02*
G01*
X147485700Y-97154400D01*
X147485700Y-97150600D01*
X148133400Y-97150600D01*
X148133400Y-97154400D01*
G37*
G36*
X148129600Y-98541200D02*
G01*
X147847700Y-98541200D01*
X147847700Y-98537400D01*
X148129600Y-98537400D01*
X148129600Y-98541200D01*
G37*
G36*
X148129600Y-97508700D02*
G01*
X147417200Y-97508700D01*
X147417200Y-97504900D01*
X148129600Y-97504900D01*
X148129600Y-97508700D01*
G37*
G36*
X148129600Y-97150600D02*
G01*
X147501000Y-97150600D01*
X147501000Y-97146700D01*
X148129600Y-97146700D01*
X148129600Y-97150600D01*
G37*
G36*
X148125800Y-97146700D02*
G01*
X147512400Y-97146700D01*
X147512400Y-97142900D01*
X148125800Y-97142900D01*
X148125800Y-97146700D01*
G37*
G36*
X148122000Y-98545000D02*
G01*
X147847700Y-98545000D01*
X147847700Y-98541200D01*
X148122000Y-98541200D01*
X148122000Y-98545000D01*
G37*
G36*
X148122000Y-97142900D02*
G01*
X147523800Y-97142900D01*
X147523800Y-97139100D01*
X148122000Y-97139100D01*
X148122000Y-97142900D01*
G37*
G36*
X148118200Y-98548800D02*
G01*
X147847700Y-98548800D01*
X147847700Y-98545000D01*
X148118200Y-98545000D01*
X148118200Y-98548800D01*
G37*
G36*
X148118200Y-97504900D02*
G01*
X147413300Y-97504900D01*
X147413300Y-97501100D01*
X148118200Y-97501100D01*
X148118200Y-97504900D01*
G37*
G36*
X148114400Y-97139100D02*
G01*
X147535300Y-97139100D01*
X147535300Y-97135300D01*
X148114400Y-97135300D01*
X148114400Y-97139100D01*
G37*
G36*
X148110600Y-98552600D02*
G01*
X147847700Y-98552600D01*
X147847700Y-98548800D01*
X148110600Y-98548800D01*
X148110600Y-98552600D01*
G37*
G36*
X148110600Y-97135300D02*
G01*
X147546700Y-97135300D01*
X147546700Y-97131500D01*
X148110600Y-97131500D01*
X148110600Y-97135300D01*
G37*
G36*
X148106800Y-98556400D02*
G01*
X147847700Y-98556400D01*
X147847700Y-98552600D01*
X148106800Y-98552600D01*
X148106800Y-98556400D01*
G37*
G36*
X148106800Y-97501100D02*
G01*
X147409500Y-97501100D01*
X147409500Y-97497300D01*
X148106800Y-97497300D01*
X148106800Y-97501100D01*
G37*
G36*
X148106800Y-97131500D02*
G01*
X147558100Y-97131500D01*
X147558100Y-97127700D01*
X148106800Y-97127700D01*
X148106800Y-97131500D01*
G37*
G36*
X148103000Y-98560300D02*
G01*
X147847700Y-98560300D01*
X147847700Y-98556400D01*
X148103000Y-98556400D01*
X148103000Y-98560300D01*
G37*
G36*
X148099100Y-97497300D02*
G01*
X147401900Y-97497300D01*
X147401900Y-97493500D01*
X148099100Y-97493500D01*
X148099100Y-97497300D01*
G37*
G36*
X148099100Y-97127700D02*
G01*
X147569600Y-97127700D01*
X147569600Y-97123900D01*
X148099100Y-97123900D01*
X148099100Y-97127700D01*
G37*
G36*
X148095300Y-98564100D02*
G01*
X147847700Y-98564100D01*
X147847700Y-98560300D01*
X148095300Y-98560300D01*
X148095300Y-98564100D01*
G37*
G36*
X148095300Y-97383000D02*
G01*
X147245700Y-97383000D01*
X147245700Y-97379200D01*
X148095300Y-97379200D01*
X148095300Y-97383000D01*
G37*
G36*
X148095300Y-97123900D02*
G01*
X147584800Y-97123900D01*
X147584800Y-97120100D01*
X148095300Y-97120100D01*
X148095300Y-97123900D01*
G37*
G36*
X148091500Y-98567900D02*
G01*
X147847700Y-98567900D01*
X147847700Y-98564100D01*
X148091500Y-98564100D01*
X148091500Y-98567900D01*
G37*
G36*
X148091500Y-97493500D02*
G01*
X147398100Y-97493500D01*
X147398100Y-97489600D01*
X148091500Y-97489600D01*
X148091500Y-97493500D01*
G37*
G36*
X148087700Y-98571700D02*
G01*
X147847700Y-98571700D01*
X147847700Y-98567900D01*
X148087700Y-98567900D01*
X148087700Y-98571700D01*
G37*
G36*
X148087700Y-97120100D02*
G01*
X147596200Y-97120100D01*
X147596200Y-97116300D01*
X148087700Y-97116300D01*
X148087700Y-97120100D01*
G37*
G36*
X148083900Y-97116300D02*
G01*
X147607700Y-97116300D01*
X147607700Y-97112500D01*
X148083900Y-97112500D01*
X148083900Y-97116300D01*
G37*
G36*
X148080100Y-98575500D02*
G01*
X147847700Y-98575500D01*
X147847700Y-98571700D01*
X148080100Y-98571700D01*
X148080100Y-98575500D01*
G37*
G36*
X148080100Y-97489600D02*
G01*
X147390500Y-97489600D01*
X147390500Y-97485800D01*
X148080100Y-97485800D01*
X148080100Y-97489600D01*
G37*
G36*
X148076300Y-98579300D02*
G01*
X147851500Y-98579300D01*
X147851500Y-98575500D01*
X148076300Y-98575500D01*
X148076300Y-98579300D01*
G37*
G36*
X148076300Y-97485800D02*
G01*
X147386700Y-97485800D01*
X147386700Y-97482000D01*
X148076300Y-97482000D01*
X148076300Y-97485800D01*
G37*
G36*
X148076300Y-97386800D02*
G01*
X147249500Y-97386800D01*
X147249500Y-97383000D01*
X148076300Y-97383000D01*
X148076300Y-97386800D01*
G37*
G36*
X148076300Y-97112500D02*
G01*
X147619100Y-97112500D01*
X147619100Y-97108600D01*
X148076300Y-97108600D01*
X148076300Y-97112500D01*
G37*
G36*
X148072500Y-98583100D02*
G01*
X147851500Y-98583100D01*
X147851500Y-98579300D01*
X148072500Y-98579300D01*
X148072500Y-98583100D01*
G37*
G36*
X148072500Y-97108600D02*
G01*
X147630500Y-97108600D01*
X147630500Y-97104800D01*
X148072500Y-97104800D01*
X148072500Y-97108600D01*
G37*
G36*
X148068700Y-97482000D02*
G01*
X147382900Y-97482000D01*
X147382900Y-97478200D01*
X148068700Y-97478200D01*
X148068700Y-97482000D01*
G37*
G36*
X148064900Y-98586900D02*
G01*
X147851500Y-98586900D01*
X147851500Y-98583100D01*
X148064900Y-98583100D01*
X148064900Y-98586900D01*
G37*
G36*
X148064900Y-97710600D02*
G01*
X147722000Y-97710600D01*
X147722000Y-97706800D01*
X148064900Y-97706800D01*
X148064900Y-97710600D01*
G37*
G36*
X148064900Y-97390600D02*
G01*
X147257100Y-97390600D01*
X147257100Y-97386800D01*
X148064900Y-97386800D01*
X148064900Y-97390600D01*
G37*
G36*
X148064900Y-97104800D02*
G01*
X147641900Y-97104800D01*
X147641900Y-97101000D01*
X148064900Y-97101000D01*
X148064900Y-97104800D01*
G37*
G36*
X148061000Y-98590700D02*
G01*
X147851500Y-98590700D01*
X147851500Y-98586900D01*
X148061000Y-98586900D01*
X148061000Y-98590700D01*
G37*
G36*
X148061000Y-97478200D02*
G01*
X147375200Y-97478200D01*
X147375200Y-97474400D01*
X148061000Y-97474400D01*
X148061000Y-97478200D01*
G37*
G36*
X148057200Y-97474400D02*
G01*
X147371400Y-97474400D01*
X147371400Y-97470600D01*
X148057200Y-97470600D01*
X148057200Y-97474400D01*
G37*
G36*
X148057200Y-97394400D02*
G01*
X147260900Y-97394400D01*
X147260900Y-97390600D01*
X148057200Y-97390600D01*
X148057200Y-97394400D01*
G37*
G36*
X148057200Y-97101000D02*
G01*
X147653400Y-97101000D01*
X147653400Y-97097200D01*
X148057200Y-97097200D01*
X148057200Y-97101000D01*
G37*
G36*
X148053400Y-98594500D02*
G01*
X147851500Y-98594500D01*
X147851500Y-98590700D01*
X148053400Y-98590700D01*
X148053400Y-98594500D01*
G37*
G36*
X148053400Y-97714400D02*
G01*
X147733400Y-97714400D01*
X147733400Y-97710600D01*
X148053400Y-97710600D01*
X148053400Y-97714400D01*
G37*
G36*
X148049600Y-98598400D02*
G01*
X147855300Y-98598400D01*
X147855300Y-98594500D01*
X148049600Y-98594500D01*
X148049600Y-98598400D01*
G37*
G36*
X148049600Y-97470600D02*
G01*
X147367600Y-97470600D01*
X147367600Y-97466800D01*
X148049600Y-97466800D01*
X148049600Y-97470600D01*
G37*
G36*
X148049600Y-97398200D02*
G01*
X147264800Y-97398200D01*
X147264800Y-97394400D01*
X148049600Y-97394400D01*
X148049600Y-97398200D01*
G37*
G36*
X148049600Y-97097200D02*
G01*
X147664800Y-97097200D01*
X147664800Y-97093400D01*
X148049600Y-97093400D01*
X148049600Y-97097200D01*
G37*
G36*
X148045800Y-98602200D02*
G01*
X147855300Y-98602200D01*
X147855300Y-98598400D01*
X148045800Y-98598400D01*
X148045800Y-98602200D01*
G37*
G36*
X148045800Y-97466800D02*
G01*
X147360000Y-97466800D01*
X147360000Y-97463000D01*
X148045800Y-97463000D01*
X148045800Y-97466800D01*
G37*
G36*
X148042000Y-97718200D02*
G01*
X147741000Y-97718200D01*
X147741000Y-97714400D01*
X148042000Y-97714400D01*
X148042000Y-97718200D01*
G37*
G36*
X148042000Y-97463000D02*
G01*
X147356200Y-97463000D01*
X147356200Y-97459200D01*
X148042000Y-97459200D01*
X148042000Y-97463000D01*
G37*
G36*
X148042000Y-97402000D02*
G01*
X147272400Y-97402000D01*
X147272400Y-97398200D01*
X148042000Y-97398200D01*
X148042000Y-97402000D01*
G37*
G36*
X148042000Y-97093400D02*
G01*
X147680000Y-97093400D01*
X147680000Y-97089600D01*
X148042000Y-97089600D01*
X148042000Y-97093400D01*
G37*
G36*
X148038200Y-98606000D02*
G01*
X147855300Y-98606000D01*
X147855300Y-98602200D01*
X148038200Y-98602200D01*
X148038200Y-98606000D01*
G37*
G36*
X148038200Y-97459200D02*
G01*
X147348600Y-97459200D01*
X147348600Y-97455400D01*
X148038200Y-97455400D01*
X148038200Y-97459200D01*
G37*
G36*
X148038200Y-97405800D02*
G01*
X147276200Y-97405800D01*
X147276200Y-97402000D01*
X148038200Y-97402000D01*
X148038200Y-97405800D01*
G37*
G36*
X148034400Y-98609800D02*
G01*
X147859100Y-98609800D01*
X147859100Y-98606000D01*
X148034400Y-98606000D01*
X148034400Y-98609800D01*
G37*
G36*
X148034400Y-97722100D02*
G01*
X147752400Y-97722100D01*
X147752400Y-97718200D01*
X148034400Y-97718200D01*
X148034400Y-97722100D01*
G37*
G36*
X148034400Y-97455400D02*
G01*
X147344800Y-97455400D01*
X147344800Y-97451500D01*
X148034400Y-97451500D01*
X148034400Y-97455400D01*
G37*
G36*
X148034400Y-97451500D02*
G01*
X147341000Y-97451500D01*
X147341000Y-97447700D01*
X148034400Y-97447700D01*
X148034400Y-97451500D01*
G37*
G36*
X148034400Y-97409600D02*
G01*
X147280000Y-97409600D01*
X147280000Y-97405800D01*
X148034400Y-97405800D01*
X148034400Y-97409600D01*
G37*
G36*
X148034400Y-97089600D02*
G01*
X147691500Y-97089600D01*
X147691500Y-97085800D01*
X148034400Y-97085800D01*
X148034400Y-97089600D01*
G37*
G36*
X148030600Y-98613600D02*
G01*
X147859100Y-98613600D01*
X147859100Y-98609800D01*
X148030600Y-98609800D01*
X148030600Y-98613600D01*
G37*
G36*
X148030600Y-97447700D02*
G01*
X147333300Y-97447700D01*
X147333300Y-97443900D01*
X148030600Y-97443900D01*
X148030600Y-97447700D01*
G37*
G36*
X148030600Y-97413400D02*
G01*
X147287600Y-97413400D01*
X147287600Y-97409600D01*
X148030600Y-97409600D01*
X148030600Y-97413400D01*
G37*
G36*
X148026800Y-97443900D02*
G01*
X147329500Y-97443900D01*
X147329500Y-97440100D01*
X148026800Y-97440100D01*
X148026800Y-97443900D01*
G37*
G36*
X148026800Y-97440100D02*
G01*
X147321900Y-97440100D01*
X147321900Y-97436300D01*
X148026800Y-97436300D01*
X148026800Y-97440100D01*
G37*
G36*
X148026800Y-97436300D02*
G01*
X147318100Y-97436300D01*
X147318100Y-97432500D01*
X148026800Y-97432500D01*
X148026800Y-97436300D01*
G37*
G36*
X148026800Y-97432500D02*
G01*
X147314300Y-97432500D01*
X147314300Y-97428700D01*
X148026800Y-97428700D01*
X148026800Y-97432500D01*
G37*
G36*
X148026800Y-97428700D02*
G01*
X147306700Y-97428700D01*
X147306700Y-97424900D01*
X148026800Y-97424900D01*
X148026800Y-97428700D01*
G37*
G36*
X148026800Y-97424900D02*
G01*
X147302900Y-97424900D01*
X147302900Y-97421100D01*
X148026800Y-97421100D01*
X148026800Y-97424900D01*
G37*
G36*
X148026800Y-97421100D02*
G01*
X147295200Y-97421100D01*
X147295200Y-97417300D01*
X148026800Y-97417300D01*
X148026800Y-97421100D01*
G37*
G36*
X148026800Y-97417300D02*
G01*
X147291400Y-97417300D01*
X147291400Y-97413400D01*
X148026800Y-97413400D01*
X148026800Y-97417300D01*
G37*
G36*
X148022900Y-98617400D02*
G01*
X147862900Y-98617400D01*
X147862900Y-98613600D01*
X148022900Y-98613600D01*
X148022900Y-98617400D01*
G37*
G36*
X148022900Y-97725900D02*
G01*
X147763900Y-97725900D01*
X147763900Y-97722100D01*
X148022900Y-97722100D01*
X148022900Y-97725900D01*
G37*
G36*
X148022900Y-97085800D02*
G01*
X147702900Y-97085800D01*
X147702900Y-97082000D01*
X148022900Y-97082000D01*
X148022900Y-97085800D01*
G37*
G36*
X148019100Y-98621200D02*
G01*
X147866700Y-98621200D01*
X147866700Y-98617400D01*
X148019100Y-98617400D01*
X148019100Y-98621200D01*
G37*
G36*
X148015300Y-97082000D02*
G01*
X147714300Y-97082000D01*
X147714300Y-97078200D01*
X148015300Y-97078200D01*
X148015300Y-97082000D01*
G37*
G36*
X148011500Y-98625000D02*
G01*
X147866700Y-98625000D01*
X147866700Y-98621200D01*
X148011500Y-98621200D01*
X148011500Y-98625000D01*
G37*
G36*
X148011500Y-97729700D02*
G01*
X147775300Y-97729700D01*
X147775300Y-97725900D01*
X148011500Y-97725900D01*
X148011500Y-97729700D01*
G37*
G36*
X148007700Y-98628800D02*
G01*
X147870500Y-98628800D01*
X147870500Y-98625000D01*
X148007700Y-98625000D01*
X148007700Y-98628800D01*
G37*
G36*
X148003900Y-98632600D02*
G01*
X147874400Y-98632600D01*
X147874400Y-98628800D01*
X148003900Y-98628800D01*
X148003900Y-98632600D01*
G37*
G36*
X148003900Y-97078200D02*
G01*
X147725800Y-97078200D01*
X147725800Y-97074400D01*
X148003900Y-97074400D01*
X148003900Y-97078200D01*
G37*
G36*
X148000100Y-97733500D02*
G01*
X147786700Y-97733500D01*
X147786700Y-97729700D01*
X148000100Y-97729700D01*
X148000100Y-97733500D01*
G37*
G36*
X147996300Y-98636500D02*
G01*
X147882000Y-98636500D01*
X147882000Y-98632600D01*
X147996300Y-98632600D01*
X147996300Y-98636500D01*
G37*
G36*
X147988700Y-98640300D02*
G01*
X147885800Y-98640300D01*
X147885800Y-98636500D01*
X147988700Y-98636500D01*
X147988700Y-98640300D01*
G37*
G36*
X147988700Y-97074400D02*
G01*
X147741000Y-97074400D01*
X147741000Y-97070500D01*
X147988700Y-97070500D01*
X147988700Y-97074400D01*
G37*
G36*
X147984800Y-98644100D02*
G01*
X147893400Y-98644100D01*
X147893400Y-98640300D01*
X147984800Y-98640300D01*
X147984800Y-98644100D01*
G37*
G36*
X147984800Y-97737300D02*
G01*
X147802000Y-97737300D01*
X147802000Y-97733500D01*
X147984800Y-97733500D01*
X147984800Y-97737300D01*
G37*
G36*
X147977200Y-98647900D02*
G01*
X147901000Y-98647900D01*
X147901000Y-98644100D01*
X147977200Y-98644100D01*
X147977200Y-98647900D01*
G37*
G36*
X147977200Y-97070500D02*
G01*
X147760100Y-97070500D01*
X147760100Y-97066700D01*
X147977200Y-97066700D01*
X147977200Y-97070500D01*
G37*
G36*
X147969600Y-97741100D02*
G01*
X147821000Y-97741100D01*
X147821000Y-97737300D01*
X147969600Y-97737300D01*
X147969600Y-97741100D01*
G37*
G36*
X147965800Y-98651700D02*
G01*
X147908600Y-98651700D01*
X147908600Y-98647900D01*
X147965800Y-98647900D01*
X147965800Y-98651700D01*
G37*
G36*
X147958200Y-97066700D02*
G01*
X147779100Y-97066700D01*
X147779100Y-97062900D01*
X147958200Y-97062900D01*
X147958200Y-97066700D01*
G37*
G36*
X147954400Y-98655500D02*
G01*
X147920100Y-98655500D01*
X147920100Y-98651700D01*
X147954400Y-98651700D01*
X147954400Y-98655500D01*
G37*
G36*
X147950600Y-97744900D02*
G01*
X147840100Y-97744900D01*
X147840100Y-97741100D01*
X147950600Y-97741100D01*
X147950600Y-97744900D01*
G37*
G36*
X147935300Y-97062900D02*
G01*
X147805800Y-97062900D01*
X147805800Y-97059100D01*
X147935300Y-97059100D01*
X147935300Y-97062900D01*
G37*
G36*
X147916300Y-97748700D02*
G01*
X147878200Y-97748700D01*
X147878200Y-97744900D01*
X147916300Y-97744900D01*
X147916300Y-97748700D01*
G37*
G36*
X147897200Y-97059100D02*
G01*
X147847700Y-97059100D01*
X147847700Y-97055300D01*
X147897200Y-97055300D01*
X147897200Y-97059100D01*
G37*
%TD*%
M02*
