%TF.GenerationSoftware,KiCad,Pcbnew,7.0.6-7.0.6~ubuntu22.04.1*%
%TF.CreationDate,2023-08-03T21:59:05+01:00*%
%TF.ProjectId,working,776f726b-696e-4672-9e6b-696361645f70,rev?*%
%TF.SameCoordinates,Original*%
%TF.FileFunction,AssemblyDrawing,Top*%
%FSLAX46Y46*%
G04 Gerber Fmt 4.6, Leading zero omitted, Abs format (unit mm)*
G04 Created by KiCad (PCBNEW 7.0.6-7.0.6~ubuntu22.04.1) date 2023-08-03 21:59:05*
%MOMM*%
%LPD*%
G01*
G04 APERTURE LIST*
%ADD10C,0.203200*%
G04 APERTURE END LIST*
D10*
%TO.C,JP1*%
X145326100Y-103606600D02*
X144056100Y-103606600D01*
G36*
X144945100Y-105130600D02*
G01*
X144437100Y-105130600D01*
X144437100Y-104622600D01*
X144945100Y-104622600D01*
X144945100Y-105130600D01*
G37*
G36*
X144945100Y-107670600D02*
G01*
X144437100Y-107670600D01*
X144437100Y-107162600D01*
X144945100Y-107162600D01*
X144945100Y-107670600D01*
G37*
G36*
X144945100Y-110210600D02*
G01*
X144437100Y-110210600D01*
X144437100Y-109702600D01*
X144945100Y-109702600D01*
X144945100Y-110210600D01*
G37*
G36*
X144945100Y-112750600D02*
G01*
X144437100Y-112750600D01*
X144437100Y-112242600D01*
X144945100Y-112242600D01*
X144945100Y-112750600D01*
G37*
G36*
X144945100Y-115290600D02*
G01*
X144437100Y-115290600D01*
X144437100Y-114782600D01*
X144945100Y-114782600D01*
X144945100Y-115290600D01*
G37*
G36*
X144945100Y-117830600D02*
G01*
X144437100Y-117830600D01*
X144437100Y-117322600D01*
X144945100Y-117322600D01*
X144945100Y-117830600D01*
G37*
G36*
X144945100Y-120370600D02*
G01*
X144437100Y-120370600D01*
X144437100Y-119862600D01*
X144945100Y-119862600D01*
X144945100Y-120370600D01*
G37*
G36*
X144945100Y-122910600D02*
G01*
X144437100Y-122910600D01*
X144437100Y-122402600D01*
X144945100Y-122402600D01*
X144945100Y-122910600D01*
G37*
G36*
X144945100Y-125450600D02*
G01*
X144437100Y-125450600D01*
X144437100Y-124942600D01*
X144945100Y-124942600D01*
X144945100Y-125450600D01*
G37*
G36*
X144945100Y-127990600D02*
G01*
X144437100Y-127990600D01*
X144437100Y-127482600D01*
X144945100Y-127482600D01*
X144945100Y-127990600D01*
G37*
G36*
X144945100Y-130530600D02*
G01*
X144437100Y-130530600D01*
X144437100Y-130022600D01*
X144945100Y-130022600D01*
X144945100Y-130530600D01*
G37*
%TO.C,JP4*%
X123736100Y-105511600D02*
X123736100Y-106781600D01*
G36*
X125260100Y-106400600D02*
G01*
X124752100Y-106400600D01*
X124752100Y-105892600D01*
X125260100Y-105892600D01*
X125260100Y-106400600D01*
G37*
G36*
X127800100Y-106400600D02*
G01*
X127292100Y-106400600D01*
X127292100Y-105892600D01*
X127800100Y-105892600D01*
X127800100Y-106400600D01*
G37*
%TO.C,JP2*%
X152946100Y-103606600D02*
X151676100Y-103606600D01*
G36*
X152565100Y-105130600D02*
G01*
X152057100Y-105130600D01*
X152057100Y-104622600D01*
X152565100Y-104622600D01*
X152565100Y-105130600D01*
G37*
G36*
X152565100Y-107670600D02*
G01*
X152057100Y-107670600D01*
X152057100Y-107162600D01*
X152565100Y-107162600D01*
X152565100Y-107670600D01*
G37*
G36*
X152565100Y-110210600D02*
G01*
X152057100Y-110210600D01*
X152057100Y-109702600D01*
X152565100Y-109702600D01*
X152565100Y-110210600D01*
G37*
G36*
X152565100Y-112750600D02*
G01*
X152057100Y-112750600D01*
X152057100Y-112242600D01*
X152565100Y-112242600D01*
X152565100Y-112750600D01*
G37*
G36*
X152565100Y-115290600D02*
G01*
X152057100Y-115290600D01*
X152057100Y-114782600D01*
X152565100Y-114782600D01*
X152565100Y-115290600D01*
G37*
G36*
X152565100Y-117830600D02*
G01*
X152057100Y-117830600D01*
X152057100Y-117322600D01*
X152565100Y-117322600D01*
X152565100Y-117830600D01*
G37*
G36*
X152565100Y-120370600D02*
G01*
X152057100Y-120370600D01*
X152057100Y-119862600D01*
X152565100Y-119862600D01*
X152565100Y-120370600D01*
G37*
G36*
X152565100Y-122910600D02*
G01*
X152057100Y-122910600D01*
X152057100Y-122402600D01*
X152565100Y-122402600D01*
X152565100Y-122910600D01*
G37*
G36*
X152565100Y-125450600D02*
G01*
X152057100Y-125450600D01*
X152057100Y-124942600D01*
X152565100Y-124942600D01*
X152565100Y-125450600D01*
G37*
G36*
X152565100Y-127990600D02*
G01*
X152057100Y-127990600D01*
X152057100Y-127482600D01*
X152565100Y-127482600D01*
X152565100Y-127990600D01*
G37*
G36*
X152565100Y-130530600D02*
G01*
X152057100Y-130530600D01*
X152057100Y-130022600D01*
X152565100Y-130022600D01*
X152565100Y-130530600D01*
G37*
%TD*%
M02*
