#VRML V2.0 utf8
DEF TXFM_1 Transform {
  center 0 0 0
  rotation 0 0 1 0
  scale 0.00254 0.00254 0.00254
  scaleOrientation 0 0 1 0
  translation 0 0 0
 children [
DEF TXFM_2 Transform {
  center 0 0 0
  rotation 0 0 1 0
  scale 1 1 1
  scaleOrientation 0 0 1 0
  translation 0 0 0
 children [
DEF SHAPE_1 Shape {
 appearance DEF APP_1 Appearance {
  material Material {
   ambientIntensity 1
   diffuseColor 0.43000001 0.44999999 0.30000001
   emissiveColor 0 0 0
   shininess 0.0099999998
   specularColor 0.48699999 0.505 0.37
   transparency 0.1
} }
 geometry DEF FACE_1 IndexedFaceSet {
  coord DEF COORD_1 Coordinate { point [
  56.894685 -33.030315 0.31003937,51.855315 -33.030315 0.31003937,
  51.855315 -38.048872 0.31003937,56.894685 -38.048872 0.31003937,
  56.894685 -33.030315 -0.31003937,51.855315 -33.030315 -0.31003937,
  51.855315 -38.048872 -0.31003937,56.894685 -38.048872 -0.31003937] }
 coordIndex [
  0,1,2,-1,0,2,3,-1,5,4,6,-1,6,4,7,-1]
  normalPerVertex TRUE
  normal DEF NORM_1 Normal { vector [
  0 0 1,0 0 1,
  0 0 1,0 0 1,
  0 0 -1,0 0 -1,
  0 0 -1,0 0 -1] }
}
}
DEF SHAPE_2 Shape {
 appearance USE APP_1
 geometry DEF FACE_2 IndexedFaceSet {
  coord DEF COORD_2 Coordinate { point [
  51.855315 -33.030315 0.31003937,56.894685 -33.030315 0.31003937,
  51.855315 -33.030315 -0.31003937,51.855315 -33.030315 -0.31003937,
  56.894685 -33.030315 0.31003937,56.894685 -33.030315 -0.31003937,
  51.855315 -38.048872 0.31003937,51.855315 -33.030315 0.31003937,
  51.855315 -38.048872 -0.31003937,51.855315 -38.048872 -0.31003937,
  51.855315 -33.030315 0.31003937,51.855315 -33.030315 -0.31003937,
  56.894685 -38.048872 0.31003937,51.855315 -38.048872 0.31003937,
  56.894685 -38.048872 -0.31003937,56.894685 -38.048872 -0.31003937,
  51.855315 -38.048872 0.31003937,51.855315 -38.048872 -0.31003937,
  56.894685 -33.030315 0.31003937,56.894685 -38.048872 0.31003937,
  56.894685 -33.030315 -0.31003937,56.894685 -33.030315 -0.31003937,
  56.894685 -38.048872 0.31003937,56.894685 -38.048872 -0.31003937] }
 coordIndex [
  0,1,2,-1,3,4,5,-1,6,7,8,-1,9,10,11,-1,12,13,14,-1,15,16,17,-1,18,19,20,-1,21,22,23,-1]
  normalPerVertex TRUE
  normal DEF NORM_2 Normal { vector [
  0 1 0,0 1 0,
  0 1 0,0 1 0,
  0 1 0,0 1 0,
  -1 0 0,-1 0 0,
  -1 0 0,-1 0 0,
  -1 0 0,-1 0 0,
  0 -1 0,0 -1 0,
  0 -1 0,0 -1 0,
  0 -1 0,0 -1 0,
  1 0 0,1 0 0,
  1 0 0,1 0 0,
  1 0 0,1 0 0] }
}
}
] }
DEF TXFM_3 Transform {
  center 0 0 0
  rotation 0 0 1 0
  scale 1 1 1
  scaleOrientation 0 0 1 0
  translation 0 0 0
 children [
DEF SHAPE_3 Shape {
 appearance DEF APP_2 Appearance {
  material Material {
   ambientIntensity 1
   diffuseColor 0.079999998 0.2 0.14
   emissiveColor 0 0 0
   shininess 0.30000001
   specularColor 0.35600001 0.44 0.398
   transparency 0.17
} }
 geometry DEF FACE_3 IndexedFaceSet {
  coord DEF COORD_3 Coordinate { point [
  56.894685 -33.030315 0.31988189,51.855315 -33.030315 0.31988189,
  51.855315 -38.048872 0.31988189,56.894685 -38.048872 0.31988189] }
 coordIndex [
  0,1,2,-1,0,2,3,-1]
  normalPerVertex TRUE
  normal DEF NORM_3 Normal { vector [
  0 0 1,0 0 1,
  0 0 1,0 0 1] }
}
}
] }
DEF TXFM_4 Transform {
  center 0 0 0
  rotation 0 0 1 0
  scale 1 1 1
  scaleOrientation 0 0 1 0
  translation 0 0 0
 children [
DEF SHAPE_4 Shape {
 appearance DEF APP_3 Appearance {
  material Material {
   ambientIntensity 1
   diffuseColor 0.079999998 0.2 0.14
   emissiveColor 0 0 0
   shininess 0.30000001
   specularColor 0.35600001 0.44 0.398
   transparency 0.17
} }
 geometry DEF FACE_4 IndexedFaceSet {
  coord DEF COORD_4 Coordinate { point [
  56.894685 -33.030315 -0.31988189,51.855315 -33.030315 -0.31988189,
  51.855315 -38.048872 -0.31988189,56.894685 -38.048872 -0.31988189] }
 coordIndex [
  1,0,2,-1,2,0,3,-1]
  normalPerVertex TRUE
  normal DEF NORM_4 Normal { vector [
  0 0 -1,0 0 -1,
  0 0 -1,0 0 -1] }
}
}
] }
DEF TXFM_5 Transform {
  center 0 0 0
  rotation 0 0 1 0
  scale 1 1 1
  scaleOrientation 0 0 1 0
  translation 0 0 0
 children [
DEF SHAPE_5 Shape {
 appearance DEF APP_4 Appearance {
  material Material {
   ambientIntensity 0.74468082
   diffuseColor 0.94 0.94 0.94
   emissiveColor 0 0 0
   shininess 0.02
   specularColor 0.94599998 0.94599998 0.94599998
   transparency 0
} }
 geometry DEF FACE_5 IndexedFaceSet {
  coord DEF COORD_5 Coordinate { point [
  56.834267 -37.93082 0.34448819,56.832603 -37.933846 0.34448819,
  56.827364 -37.981167 0.34448819,56.827967 -37.983245 0.34448819,
  56.827345 -37.985318 0.34448819,56.831991 -38.031172 0.34448819,
  56.833106 -38.033244 0.34448819,56.832963 -38.035594 0.34448819,
  56.836559 -38.039659 0.34448819,56.839131 -38.044439 0.34448819,
  56.841385 -38.045116 0.34448819,56.842944 -38.046879 0.34448819,
  56.848361 -38.047211 0.34448819,56.853561 -38.048772 0.34448819,
  56.855633 -38.047657 0.34448819,56.857982 -38.047801 0.34448819,
  56.870149 -38.043613 0.34448819,56.871462 -38.042451 0.34448819,
  56.873206 -38.042261 0.34448819,56.876952 -38.037596 0.34448819,
  56.881434 -38.033632 0.34448819,56.881541 -38.031881 0.34448819,
  56.882639 -38.030514 0.34448819,56.887042 -38.015426 0.34448819,
  56.886663 -38.011952 0.34448819,56.887789 -38.008644 0.34448819,
  56.883387 -37.940399 0.34448819,56.882192 -37.937971 0.34448819,
  56.882359 -37.93527 0.34448819,56.878985 -37.931451 0.34448819,
  56.876737 -37.92688 0.34448819,56.874176 -37.926007 0.34448819,
  56.872383 -37.923979 0.34448819,56.860809 -37.918325 0.34448819,
  56.85736 -37.918111 0.34448819,56.854334 -37.916447 0.34448819,
  56.850135 -37.917665 0.34448819,56.845771 -37.917396 0.34448819,
  56.843182 -37.919683 0.34448819,56.839865 -37.920646 0.34448819,
  56.837758 -37.924476 0.34448819,56.834481 -37.927372 0.34448819,
  52.840774 -33.043709 0.34448819,52.838168 -33.05 0.34448819,
  52.838486 -33.050769 0.34448819,52.83823 -33.051561 0.34448819,
  52.849771 -33.196678 0.34448819,52.850684 -33.210429 0.34448819,
  52.830085 -33.401802 0.34448819,52.753106 -33.582306 0.34448819,
  52.626876 -33.745295 0.34448819,52.45906 -33.882238 0.34448819,
  52.257589 -33.984649 0.34448819,52.029373 -34.044491 0.34448819,
  51.872096 -34.067948 0.34448819,51.866793 -34.071132 0.34448819,
  51.861081 -34.073499 0.34448819,51.860494 -34.074915 0.34448819,
  51.85918 -34.075704 0.34448819,51.857681 -34.081705 0.34448819,
  51.855315 -34.087418 0.34448819,51.855315 -34.651556 0.34448819,
  51.855315 -35.215694 0.34448819,51.856719 -35.219083 0.34448819,
  51.856624 -35.222751 0.34448819,51.859488 -35.225769 0.34448819,
  51.861081 -35.229613 0.34448819,51.86447 -35.231017 0.34448819,
  51.866996 -35.233678 0.34448819,51.871155 -35.233786 0.34448819,
  51.875 -35.235379 0.34448819,51.87839 -35.233974 0.34448819,
  51.882057 -35.23407 0.34448819,52.057057 -35.166863 0.34448819,
  52.057094 -35.166828 0.34448819,52.057146 -35.166829 0.34448819,
  52.065573 -35.163546 0.34448819,52.065798 -35.16333 0.34448819,
  52.06611 -35.163327 0.34448819,52.168785 -35.119798 0.34448819,
  52.168964 -35.119617 0.34448819,52.169219 -35.119609 0.34448819,
  52.311687 -35.055135 0.34448819,52.311789 -35.055026 0.34448819,
  52.311937 -35.055019 0.34448819,52.476498 -34.977753 0.34448819,
  52.476587 -34.977656 0.34448819,52.476719 -34.977648 0.34448819,
  52.645673 -34.895744 0.34448819,52.645691 -34.895723 0.34448819,
  52.645719 -34.895721 0.34448819,52.803613 -34.818673 0.34448819,
  52.927381 -34.761845 0.34448819,53.017204 -34.727443 0.34448819,
  53.08658 -34.71086 0.34448819,53.150265 -34.707246 0.34448819,
  53.223578 -34.712566 0.34448819,53.324904 -34.72138 0.34448819,
  53.326827 -34.720772 0.34448819,53.328764 -34.721336 0.34448819,
  53.383709 -34.715286 0.34448819,53.38997 -34.711846 0.34448819,
  53.396367 -34.708684 0.34448819,53.422031 -34.679363 0.34448819,
  53.42354 -34.674902 0.34448819,53.426332 -34.671109 0.34448819,
  53.44126 -34.610534 0.34448819,53.453243 -34.567193 0.34448819,
  53.514106 -34.437187 0.34448819,53.607072 -34.295496 0.34448819,
  53.717131 -34.163632 0.34448819,53.829169 -34.062744 0.34448819,
  53.944643 -33.985648 0.34448819,54.118456 -33.901827 0.34448819,
  54.307483 -33.85344 0.34448819,54.444946 -33.830217 0.34448819,
  54.450035 -33.827025 0.34448819,54.455586 -33.824726 0.34448819,
  54.456246 -33.82313 0.34448819,54.45771 -33.822213 0.34448819,
  54.459052 -33.816357 0.34448819,54.461352 -33.810807 0.34448819,
  54.461352 -33.580509 0.34448819,54.462006 -33.512216 0.34448819,
  54.468283 -33.417209 0.34448819,54.48066 -33.377647 0.34448819,
  54.494456 -33.370655 0.34448819,54.495097 -33.370786 0.34448819,
  54.509106 -33.390441 0.34448819,54.519012 -33.456245 0.34448819,
  54.521981 -33.580642 0.34448819,54.521981 -33.810807 0.34448819,
  54.5243 -33.816405 0.34448819,54.525688 -33.822303 0.34448819,
  54.527108 -33.823182 0.34448819,54.527747 -33.824726 0.34448819,
  54.533345 -33.827044 0.34448819,54.538497 -33.830235 0.34448819,
  54.679153 -33.853181 0.34448819,54.85834 -33.901926 0.34448819,
  55.070412 -34.010951 0.34448819,55.259458 -34.163478 0.34448819,
  55.414661 -34.348565 0.34448819,55.525186 -34.554928 0.34448819,
  55.580973 -34.772731 0.34448819,55.581717 -34.779213 0.34448819,
  55.582033 -34.779782 0.34448819,55.581893 -34.780419 0.34448819,
  55.600539 -34.88518 0.34448819,55.602367 -34.88804 0.34448819,
  55.602778 -34.891411 0.34448819,55.635735 -34.949769 0.34448819,
  55.635886 -34.949887 0.34448819,55.635913 -34.950076 0.34448819,
  55.641788 -34.954506 0.34448819,55.6476 -34.959054 0.34448819,
  55.64779 -34.959031 0.34448819,55.647943 -34.959146 0.34448819,
  55.705944 -34.974161 0.34448819,55.710968 -34.973456 0.34448819,
  55.716 -34.974111 0.34448819,55.809779 -34.948841 0.34448819,
  55.811056 -34.947857 0.34448819,55.812667 -34.947815 0.34448819,
  55.952887 -34.885348 0.34448819,56.07232 -34.833298 0.34448819,
  56.213547 -34.786463 0.34448819,56.317055 -34.769894 0.34448819,
  56.47475 -34.790946 0.34448819,56.629802 -34.859588 0.34448819,
  56.748973 -34.967039 0.34448819,56.821476 -35.106776 0.34448819,
  56.822476 -35.109641 0.34448819,56.826645 -35.114312 0.34448819,
  56.830123 -35.119518 0.34448819,56.831543 -35.1198 0.34448819,
  56.832508 -35.120881 0.34448819,56.83876 -35.121236 0.34448819,
  56.8449 -35.122458 0.34448819,56.846104 -35.121654 0.34448819,
  56.84755 -35.121736 0.34448819,56.85222 -35.117567 0.34448819,
  56.857428 -35.114089 0.34448819,56.865752 -35.101632 0.34448819,
  56.866703 -35.09685 0.34448819,56.868983 -35.092541 0.34448819,
  56.876154 -35.016423 0.34448819,56.875996 -35.015911 0.34448819,
  56.876222 -35.015427 0.34448819,56.882154 -34.878222 0.34448819,
  56.882082 -34.878026 0.34448819,56.882167 -34.877836 0.34448819,
  56.886774 -34.682121 0.34448819,56.886732 -34.682014 0.34448819,
  56.886778 -34.681908 0.34448819,56.889975 -34.430258 0.34448819,
  56.889947 -34.430188 0.34448819,56.889976 -34.430118 0.34448819,
  56.891678 -34.12511 0.34448819,56.891667 -34.125082 0.34448819,
  56.891679 -34.125055 0.34448819,56.894685 -33.050055 0.34448819,
  56.894674 -33.050027 0.34448819,56.894685 -33.05 0.34448819,
  56.891821 -33.043087 0.34448819,56.888958 -33.03612 0.34448819,
  56.88893 -33.036108 0.34448819,56.888919 -33.036081 0.34448819,
  56.882007 -33.033217 0.34448819,56.875055 -33.030315 0.34448819,
  56.875027 -33.030326 0.34448819,56.875 -33.030315 0.34448819,
  54.866426 -33.030315 0.34448819,52.857853 -33.030315 0.34448819,
  52.857084 -33.030633 0.34448819,52.856292 -33.030377 0.34448819,
  52.850224 -33.033475 0.34448819,52.843933 -33.036081 0.34448819,
  52.843615 -33.036849 0.34448819,52.842874 -33.037228 0.34448819,
  54.300215 -34.488268 0.34448819,54.329926 -34.437486 0.34448819,
  54.380417 -34.360698 0.34448819,54.435694 -34.28183 0.34448819,
  54.481655 -34.221256 0.34448819,54.492177 -34.210702 0.34448819,
  54.524681 -34.250729 0.34448819,54.577573 -34.323931 0.34448819,
  54.631948 -34.404148 0.34448819,54.673839 -34.471048 0.34448819,
  54.682895 -34.490052 0.34448819,54.681286 -34.491025 0.34448819,
  54.623718 -34.497009 0.34448819,54.60135 -34.497602 0.34448819,
  54.59865 -34.498805 0.34448819,54.595702 -34.498587 0.34448819,
  54.555692 -34.511793 0.34448819,54.554876 -34.512496 0.34448819,
  54.5538 -34.512528 0.34448819,54.549276 -34.517324 0.34448819,
  54.544281 -34.521631 0.34448819,54.544202 -34.522704 0.34448819,
  54.543463 -34.523489 0.34448819,54.526676 -34.56763 0.34448819,
  54.526772 -34.570916 0.34448819,54.525403 -34.573906 0.34448819,
  54.521995 -34.666801 0.34448819,54.52213 -34.667164 0.34448819,
  54.521981 -34.667522 0.34448819,54.521981 -34.818378 0.34448819,
  54.523807 -34.822786 0.34448819,54.524242 -34.827537 0.34448819,
  54.526582 -34.829484 0.34448819,54.527747 -34.832298 0.34448819,
  54.532155 -34.834123 0.34448819,54.535821 -34.837175 0.34448819,
  54.538853 -34.836898 0.34448819,54.541667 -34.838063 0.34448819,
  54.546074 -34.836237 0.34448819,54.550825 -34.835803 0.34448819,
  54.642491 -34.787624 0.34448819,54.642769 -34.787291 0.34448819,
  54.643198 -34.787233 0.34448819,54.695129 -34.757159 0.34448819,
  54.69542 -34.756778 0.34448819,54.695893 -34.756693 0.34448819,
  54.79551 -34.692785 0.34448819,54.79571 -34.692497 0.34448819,
  54.796053 -34.692424 0.34448819,54.902732 -34.618883 0.34448819,
  54.902767 -34.618829 0.34448819,54.902831 -34.618815 0.34448819,
  54.937878 -34.594339 0.34448819,55.057813 -34.526883 0.34448819,
  55.15061 -34.510187 0.34448819,55.237487 -34.540683 0.34448819,
  55.339372 -34.623164 0.34448819,55.397011 -34.677577 0.34448819,
  55.397782 -34.677871 0.34448819,55.398178 -34.678595 0.34448819,
  55.44242 -34.714218 0.34448819,55.445372 -34.715083 0.34448819,
  55.447591 -34.717217 0.34448819,55.45233 -34.717124 0.34448819,
  55.456878 -34.718457 0.34448819,55.459577 -34.716981 0.34448819,
  55.462654 -34.716921 0.34448819,55.475443 -34.711328 0.34448819,
  55.479458 -34.707152 0.34448819,55.484194 -34.703811 0.34448819,
  55.484528 -34.701879 0.34448819,55.485886 -34.700467 0.34448819,
  55.485772 -34.694676 0.34448819,55.486759 -34.688965 0.34448819,
  55.477003 -34.645672 0.34448819,55.475962 -34.644197 0.34448819,
  55.475954 -34.642391 0.34448819,55.386222 -34.428302 0.34448819,
  55.384546 -34.42664 0.34448819,55.383995 -34.424344 0.34448819,
  55.244943 -34.232887 0.34448819,55.242891 -34.231629 0.34448819,
  55.241798 -34.229485 0.34448819,55.06812 -34.081187 0.34448819,
  55.065921 -34.080473 0.34448819,55.064436 -34.078701 0.34448819,
  54.865334 -33.974926 0.34448819,54.863113 -33.97473 0.34448819,
  54.861346 -33.973372 0.34448819,54.646024 -33.915483 0.34448819,
  54.643844 -33.915768 0.34448819,54.641854 -33.91483 0.34448819,
  54.419515 -33.904191 0.34448819,54.41741 -33.904948 0.34448819,
  54.415228 -33.904456 0.34448819,54.195076 -33.942431 0.34448819,
  54.193107 -33.943674 0.34448819,54.190779 -33.943688 0.34448819,
  53.982015 -34.031641 0.34448819,53.980306 -34.033372 0.34448819,
  53.977946 -34.033961 0.34448819,53.789776 -34.173256 0.34448819,
  53.788496 -34.175386 0.34448819,53.786303 -34.176552 0.34448819,
  53.627928 -34.368552 0.34448819,53.627441 -34.370144 0.34448819,
  53.626115 -34.371151 0.34448819,53.585609 -34.440511 0.34448819,
  53.58548 -34.441455 0.34448819,53.584777 -34.442098 0.34448819,
  53.531604 -34.555782 0.34448819,53.531538 -34.557248 0.34448819,
  53.530606 -34.55838 0.34448819,53.502754 -34.649715 0.34448819,
  53.5029 -34.651225 0.34448819,53.502117 -34.652524 0.34448819,
  53.501571 -34.65615 0.34448819,53.501714 -34.656725 0.34448819,
  53.501437 -34.65725 0.34448819,53.496456 -34.71054 0.34448819,
  53.497531 -34.714022 0.34448819,53.497088 -34.717639 0.34448819,
  53.508293 -34.757989 0.34448819,53.51138 -34.761937 0.34448819,
  53.513276 -34.766577 0.34448819,53.551356 -34.805009 0.34448819,
  53.553512 -34.805914 0.34448819,53.554865 -34.807821 0.34448819,
  53.630508 -34.855359 0.34448819,53.631143 -34.855467 0.34448819,
  53.631547 -34.855969 0.34448819,53.755443 -34.923635 0.34448819,
  53.755547 -34.923646 0.34448819,53.755613 -34.923727 0.34448819,
  53.808741 -34.952067 0.34448819,53.808842 -34.952076 0.34448819,
  53.808907 -34.952154 0.34448819,53.919083 -35.009578 0.34448819,
  53.919279 -35.009595 0.34448819,53.919409 -35.009744 0.34448819,
  54.00022 -35.049972 0.34448819,54.000847 -35.050015 0.34448819,
  54.001288 -35.050464 0.34448819,54.038148 -35.06614 0.34448819,
  54.044627 -35.066201 0.34448819,54.051052 -35.067011 0.34448819,
  54.081447 -35.058686 0.34448819,54.082271 -35.058047 0.34448819,
  54.083313 -35.058074 0.34448819,54.159408 -35.028811 0.34448819,
  54.159679 -35.028554 0.34448819,54.160053 -35.02855 0.34448819,
  54.261895 -34.985199 0.34448819,54.261998 -34.985093 0.34448819,
  54.262147 -34.98509 0.34448819,54.449628 -34.902177 0.34448819,
  54.452176 -34.899505 0.34448819,54.455586 -34.898093 0.34448819,
  54.45717 -34.894269 0.34448819,54.460026 -34.891274 0.34448819,
  54.459939 -34.887583 0.34448819,54.461352 -34.884174 0.34448819,
  54.461352 -34.70042 0.34448819,54.461291 -34.700273 0.34448819,
  54.461349 -34.700125 0.34448819,54.459969 -34.607961 0.34448819,
  54.459407 -34.606663 0.34448819,54.459746 -34.60529 0.34448819,
  54.450333 -34.543542 0.34448819,54.447171 -34.538315 0.34448819,
  54.44486 -34.532657 0.34448819,54.420006 -34.50756 0.34448819,
  54.413852 -34.504975 0.34448819,54.407968 -34.501823 0.34448819,
  54.360282 -34.497078 0.34448819,54.360145 -34.497119 0.34448819,
  54.360018 -34.497054 0.34448819,54.309029 -34.492674 0.34448819] }
 coordIndex [
  20,21,27,-1,27,21,22,-1,27,22,26,-1,26,22,24,-1,26,24,25,-1,198,199,197,-1,197,199,204,-1,197,204,196,-1,
  196,204,205,-1,196,205,206,-1,204,199,200,-1,204,200,201,-1,204,201,202,-1,204,202,203,-1,207,208,190,-1,207,190,191,-1,
  207,191,193,-1,207,193,194,-1,207,194,196,-1,207,196,206,-1,40,41,8,-1,8,41,0,-1,8,0,6,-1,6,0,1,-1,
  6,1,5,-1,5,1,3,-1,5,3,4,-1,29,30,19,-1,29,19,20,-1,29,20,27,-1,29,27,28,-1,16,17,32,-1,
  32,17,18,-1,32,18,31,-1,31,18,19,-1,31,19,30,-1,37,12,36,-1,36,12,13,-1,36,13,35,-1,35,13,14,-1,
  35,14,34,-1,34,14,15,-1,34,15,33,-1,33,15,16,-1,33,16,32,-1,38,39,10,-1,38,10,11,-1,38,11,12,-1,
  38,12,37,-1,9,10,39,-1,9,39,40,-1,9,40,8,-1,63,64,65,-1,63,65,59,-1,63,59,60,-1,63,60,61,-1,
  63,61,62,-1,218,219,46,-1,46,219,42,-1,46,42,44,-1,44,42,43,-1,213,214,92,-1,92,214,215,-1,92,215,47,-1,
  47,215,216,-1,47,216,46,-1,46,216,217,-1,46,217,218,-1,144,145,211,-1,211,145,146,-1,211,146,148,-1,148,146,147,-1,
  128,129,212,-1,212,129,130,-1,212,130,132,-1,132,130,131,-1,339,340,338,-1,338,340,342,-1,338,342,337,-1,337,342,335,-1,
  337,335,336,-1,291,292,290,-1,290,292,293,-1,290,293,288,-1,288,293,294,-1,288,294,295,-1,285,286,296,-1,296,286,287,-1,
  296,287,295,-1,295,287,288,-1,296,297,277,-1,296,277,278,-1,296,278,279,-1,296,279,280,-1,296,280,281,-1,296,281,282,-1,
  296,282,283,-1,296,283,284,-1,296,284,285,-1,297,298,277,-1,277,298,299,-1,277,299,276,-1,276,299,300,-1,276,300,301,-1,
  302,303,274,-1,302,274,275,-1,302,275,276,-1,302,276,301,-1,272,273,305,-1,305,273,274,-1,305,274,304,-1,304,274,303,-1,
  305,306,269,-1,305,269,270,-1,305,270,271,-1,305,271,272,-1,267,268,308,-1,308,268,269,-1,308,269,307,-1,307,269,306,-1,
  308,309,229,-1,308,229,230,-1,308,230,263,-1,308,263,264,-1,308,264,265,-1,308,265,266,-1,308,266,267,-1,227,228,311,-1,
  311,228,229,-1,311,229,310,-1,310,229,309,-1,311,312,223,-1,311,223,224,-1,311,224,225,-1,311,225,226,-1,311,226,227,-1,
  221,222,314,-1,314,222,223,-1,314,223,313,-1,313,223,312,-1,220,221,314,-1,220,314,315,-1,220,315,372,-1,220,372,373,-1,
  220,373,374,-1,220,374,375,-1,220,375,397,-1,370,371,317,-1,317,371,372,-1,317,372,316,-1,316,372,315,-1,317,318,360,-1,
  317,360,361,-1,317,361,362,-1,317,362,363,-1,317,363,364,-1,317,364,365,-1,317,365,366,-1,317,366,367,-1,317,367,368,-1,
  317,368,369,-1,317,369,370,-1,358,359,320,-1,320,359,360,-1,320,360,319,-1,319,360,318,-1,320,321,354,-1,320,354,355,-1,
  320,355,356,-1,320,356,357,-1,320,357,358,-1,352,353,323,-1,323,353,354,-1,323,354,322,-1,322,354,321,-1,323,324,348,-1,
  323,348,349,-1,323,349,350,-1,323,350,351,-1,323,351,352,-1,348,324,325,-1,348,325,326,-1,348,326,327,-1,348,327,328,-1,
  348,328,329,-1,348,329,347,-1,329,330,345,-1,329,345,346,-1,329,346,347,-1,343,344,332,-1,332,344,345,-1,332,345,331,-1,
  331,345,330,-1,332,333,334,-1,332,334,342,-1,332,342,343,-1,231,232,260,-1,231,260,261,-1,231,261,262,-1,231,262,263,-1,
  231,263,230,-1,260,232,233,-1,260,233,234,-1,260,234,235,-1,260,235,236,-1,260,236,237,-1,260,237,238,-1,260,238,259,-1,
  239,240,258,-1,239,258,259,-1,239,259,238,-1,256,257,242,-1,242,257,258,-1,242,258,241,-1,241,258,240,-1,242,243,244,-1,
  242,244,253,-1,242,253,254,-1,242,254,255,-1,242,255,256,-1,250,251,245,-1,245,251,252,-1,245,252,244,-1,244,252,253,-1,
  247,248,250,-1,247,250,245,-1,247,245,246,-1,385,386,380,-1,385,380,381,-1,385,381,383,-1,385,383,384,-1,189,190,188,-1,
  188,190,208,-1,188,208,187,-1,187,208,209,-1,187,209,210,-1,211,148,149,-1,211,149,150,-1,211,150,151,-1,211,151,152,-1,
  211,152,153,-1,211,153,154,-1,211,154,155,-1,211,155,156,-1,211,156,157,-1,211,157,158,-1,211,158,159,-1,211,159,160,-1,
  211,160,161,-1,211,161,162,-1,211,162,163,-1,211,163,164,-1,211,164,165,-1,211,165,166,-1,211,166,167,-1,211,167,168,-1,
  211,168,169,-1,211,169,170,-1,211,170,171,-1,211,171,172,-1,211,172,173,-1,211,173,174,-1,211,174,175,-1,211,175,176,-1,
  211,176,177,-1,211,177,178,-1,211,178,179,-1,211,179,180,-1,211,180,181,-1,211,181,182,-1,211,182,183,-1,211,183,184,-1,
  211,184,185,-1,211,185,187,-1,211,187,210,-1,211,212,140,-1,211,140,141,-1,211,141,142,-1,211,142,143,-1,211,143,144,-1,
  212,132,133,-1,212,133,134,-1,212,134,135,-1,212,135,136,-1,212,136,137,-1,212,137,138,-1,212,138,139,-1,212,139,140,-1,
  212,213,92,-1,212,92,125,-1,212,125,126,-1,212,126,127,-1,212,127,128,-1,118,119,123,-1,123,119,120,-1,123,120,122,-1,
  122,120,121,-1,123,124,114,-1,123,114,115,-1,123,115,116,-1,123,116,117,-1,123,117,118,-1,125,92,93,-1,125,93,94,-1,
  125,94,95,-1,125,95,110,-1,125,110,111,-1,125,111,112,-1,125,112,113,-1,125,113,114,-1,125,114,124,-1,101,102,107,-1,
  107,102,103,-1,107,103,106,-1,106,103,104,-1,106,104,105,-1,98,99,108,-1,108,99,100,-1,108,100,107,-1,107,100,101,-1,
  109,110,96,-1,109,96,97,-1,109,97,98,-1,109,98,108,-1,89,90,49,-1,49,90,91,-1,49,91,48,-1,48,91,92,-1,
  48,92,47,-1,86,87,50,-1,50,87,88,-1,50,88,49,-1,49,88,89,-1,83,84,51,-1,51,84,85,-1,51,85,50,-1,
  50,85,86,-1,80,81,52,-1,52,81,82,-1,52,82,51,-1,51,82,83,-1,52,53,73,-1,52,73,74,-1,52,74,75,-1,
  52,75,76,-1,52,76,77,-1,52,77,78,-1,52,78,79,-1,52,79,80,-1,53,54,70,-1,53,70,71,-1,53,71,72,-1,
  53,72,73,-1,58,65,57,-1,57,65,66,-1,57,66,56,-1,56,66,67,-1,56,67,55,-1,55,67,68,-1,55,68,54,-1,
  54,68,69,-1,54,69,70,-1,376,377,386,-1,386,377,378,-1,386,378,380,-1,380,378,379,-1,388,389,375,-1,388,375,376,-1,
  388,376,386,-1,388,386,387,-1,375,389,390,-1,375,390,391,-1,375,391,392,-1,375,392,393,-1,375,393,394,-1,375,394,395,-1,
  375,395,396,-1,375,396,397,-1,342,340,341,-1,335,342,334,-1,383,381,382,-1,59,65,58,-1,110,95,96,-1,187,185,186,-1,
  192,193,191,-1,250,248,249,-1,290,288,289,-1,46,44,45,-1,8,6,7,-1,3,1,2,-1,24,22,23,-1,196,194,195,-1]
  normalPerVertex TRUE
  normal DEF NORM_5 Normal { vector [
  0 0 1,0 0 1,
  0 0 1,0 0 1,
  0 0 1,0 0 1,
  0 0 1,0 0 1,
  0 0 1,0 0 1,
  0 0 1,0 0 1,
  0 0 1,0 0 1,
  0 0 1,0 0 1,
  0 0 1,0 0 1,
  0 0 1,0 0 1,
  0 0 1,0 0 1,
  0 0 1,0 0 1,
  0 0 1,0 0 1,
  0 0 1,0 0 1,
  0 0 1,0 0 1,
  0 0 1,0 0 1,
  0 0 1,0 0 1,
  0 0 1,0 0 1,
  0 0 1,0 0 1,
  0 0 1,0 0 1,
  0 0 1,0 0 1,
  0 0 1,0 0 1,
  0 0 1,0 0 1,
  0 0 1,0 0 1,
  0 0 1,0 0 1,
  0 0 1,0 0 1,
  0 0 1,0 0 1,
  0 0 1,0 0 1,
  0 0 1,0 0 1,
  0 0 1,0 0 1,
  0 0 1,0 0 1,
  0 0 1,0 0 1,
  0 0 1,0 0 1,
  0 0 1,0 0 1,
  0 0 1,0 0 1,
  0 0 1,0 0 1,
  0 0 1,0 0 1,
  0 0 1,0 0 1,
  0 0 1,0 0 1,
  0 0 1,0 0 1,
  0 0 1,0 0 1,
  0 0 1,0 0 1,
  0 0 1,0 0 1,
  0 0 1,0 0 1,
  0 0 1,0 0 1,
  0 0 1,0 0 1,
  0 0 1,0 0 1,
  0 0 1,0 0 1,
  0 0 1,0 0 1,
  0 0 1,0 0 1,
  0 0 1,0 0 1,
  0 0 1,0 0 1,
  0 0 1,0 0 1,
  0 0 1,0 0 1,
  0 0 1,0 0 1,
  0 0 1,0 0 1,
  0 0 1,0 0 1,
  0 0 1,0 0 1,
  0 0 1,0 0 1,
  0 0 1,0 0 1,
  0 0 1,0 0 1,
  0 0 1,0 0 1,
  0 0 1,0 0 1,
  0 0 1,0 0 1,
  0 0 1,0 0 1,
  0 0 1,0 0 1,
  0 0 1,0 0 1,
  0 0 1,0 0 1,
  0 0 1,0 0 1,
  0 0 1,0 0 1,
  0 0 1,0 0 1,
  0 0 1,0 0 1,
  0 0 1,0 0 1,
  0 0 1,0 0 1,
  0 0 1,0 0 1,
  0 0 1,0 0 1,
  0 0 1,0 0 1,
  0 0 1,0 0 1,
  0 0 1,0 0 1,
  0 0 1,0 0 1,
  0 0 1,0 0 1,
  0 0 1,0 0 1,
  0 0 1,0 0 1,
  0 0 1,0 0 1,
  0 0 1,0 0 1,
  0 0 1,0 0 1,
  0 0 1,0 0 1,
  0 0 1,0 0 1,
  0 0 1,0 0 1,
  0 0 1,0 0 1,
  0 0 1,0 0 1,
  0 0 1,0 0 1,
  0 0 1,0 0 1,
  0 0 1,0 0 1,
  0 0 1,0 0 1,
  0 0 1,0 0 1,
  0 0 1,0 0 1,
  0 0 1,0 0 1,
  0 0 1,0 0 1,
  0 0 1,0 0 1,
  0 0 1,0 0 1,
  0 0 1,0 0 1,
  0 0 1,0 0 1,
  0 0 1,0 0 1,
  0 0 1,0 0 1,
  0 0 1,0 0 1,
  0 0 1,0 0 1,
  0 0 1,0 0 1,
  0 0 1,0 0 1,
  0 0 1,0 0 1,
  0 0 1,0 0 1,
  0 0 1,0 0 1,
  0 0 1,0 0 1,
  0 0 1,0 0 1,
  0 0 1,0 0 1,
  0 0 1,0 0 1,
  0 0 1,0 0 1,
  0 0 1,0 0 1,
  0 0 1,0 0 1,
  0 0 1,0 0 1,
  0 0 1,0 0 1,
  0 0 1,0 0 1,
  0 0 1,0 0 1,
  0 0 1,0 0 1,
  0 0 1,0 0 1,
  0 0 1,0 0 1,
  0 0 1,0 0 1,
  0 0 1,0 0 1,
  0 0 1,0 0 1,
  0 0 1,0 0 1,
  0 0 1,0 0 1,
  0 0 1,0 0 1,
  0 0 1,0 0 1,
  0 0 1,0 0 1,
  0 0 1,0 0 1,
  0 0 1,0 0 1,
  0 0 1,0 0 1,
  0 0 1,0 0 1,
  0 0 1,0 0 1,
  0 0 1,0 0 1,
  0 0 1,0 0 1,
  0 0 1,0 0 1,
  0 0 1,0 0 1,
  0 0 1,0 0 1,
  0 0 1,0 0 1,
  0 0 1,0 0 1,
  0 0 1,0 0 1,
  0 0 1,0 0 1,
  0 0 1,0 0 1,
  0 0 1,0 0 1,
  0 0 1,0 0 1,
  0 0 1,0 0 1,
  0 0 1,0 0 1,
  0 0 1,0 0 1,
  0 0 1,0 0 1,
  0 0 1,0 0 1,
  0 0 1,0 0 1,
  0 0 1,0 0 1,
  0 0 1,0 0 1,
  0 0 1,0 0 1,
  0 0 1,0 0 1,
  0 0 1,0 0 1,
  0 0 1,0 0 1,
  0 0 1,0 0 1,
  0 0 1,0 0 1,
  0 0 1,0 0 1,
  0 0 1,0 0 1,
  0 0 1,0 0 1,
  0 0 1,0 0 1,
  0 0 1,0 0 1,
  0 0 1,0 0 1,
  0 0 1,0 0 1,
  0 0 1,0 0 1,
  0 0 1,0 0 1,
  0 0 1,0 0 1,
  0 0 1,0 0 1,
  0 0 1,0 0 1,
  0 0 1,0 0 1,
  0 0 1,0 0 1,
  0 0 1,0 0 1,
  0 0 1,0 0 1,
  0 0 1,0 0 1,
  0 0 1,0 0 1,
  0 0 1,0 0 1,
  0 0 1,0 0 1,
  0 0 1,0 0 1,
  0 0 1,0 0 1,
  0 0 1,0 0 1,
  0 0 1,0 0 1,
  0 0 1,0 0 1,
  0 0 1,0 0 1,
  0 0 1,0 0 1,
  0 0 1,0 0 1,
  0 0 1,0 0 1,
  0 0 1,0 0 1,
  0 0 1,0 0 1,
  0 0 1,0 0 1,
  0 0 1,0 0 1,
  0 0 1,0 0 1] }
}
}
] }
] }
