%TF.GenerationSoftware,KiCad,Pcbnew,7.0.6-7.0.6~ubuntu22.04.1*%
%TF.CreationDate,2023-08-04T04:22:36+01:00*%
%TF.ProjectId,working,776f726b-696e-4672-9e6b-696361645f70,2.2*%
%TF.SameCoordinates,Original*%
%TF.FileFunction,Legend,Bot*%
%TF.FilePolarity,Positive*%
%FSLAX46Y46*%
G04 Gerber Fmt 4.6, Leading zero omitted, Abs format (unit mm)*
G04 Created by KiCad (PCBNEW 7.0.6-7.0.6~ubuntu22.04.1) date 2023-08-04 04:22:36*
%MOMM*%
%LPD*%
G01*
G04 APERTURE LIST*
%ADD10C,0.150000*%
%ADD11C,0.790000*%
%ADD12C,0.010000*%
%ADD13C,0.002540*%
%ADD14C,0.100000*%
G04 APERTURE END LIST*
D10*
X93528961Y-80709523D02*
X93528961Y-81014285D01*
X93262295Y-80823809D02*
X93948009Y-80823809D01*
X93948009Y-80823809D02*
X94024200Y-80861904D01*
X94024200Y-80861904D02*
X94062295Y-80938094D01*
X94062295Y-80938094D02*
X94062295Y-81014285D01*
X94062295Y-81280952D02*
X93528961Y-81280952D01*
X93262295Y-81280952D02*
X93300390Y-81242856D01*
X93300390Y-81242856D02*
X93338485Y-81280952D01*
X93338485Y-81280952D02*
X93300390Y-81319047D01*
X93300390Y-81319047D02*
X93262295Y-81280952D01*
X93262295Y-81280952D02*
X93338485Y-81280952D01*
X93528961Y-81661904D02*
X94062295Y-81661904D01*
X93605152Y-81661904D02*
X93567057Y-81699999D01*
X93567057Y-81699999D02*
X93528961Y-81776189D01*
X93528961Y-81776189D02*
X93528961Y-81890475D01*
X93528961Y-81890475D02*
X93567057Y-81966666D01*
X93567057Y-81966666D02*
X93643247Y-82004761D01*
X93643247Y-82004761D02*
X94062295Y-82004761D01*
X94062295Y-82385714D02*
X93262295Y-82385714D01*
X93757533Y-82461904D02*
X94062295Y-82690476D01*
X93528961Y-82690476D02*
X93833723Y-82385714D01*
X94024200Y-83338095D02*
X94062295Y-83261904D01*
X94062295Y-83261904D02*
X94062295Y-83109523D01*
X94062295Y-83109523D02*
X94024200Y-83033333D01*
X94024200Y-83033333D02*
X93948009Y-82995237D01*
X93948009Y-82995237D02*
X93643247Y-82995237D01*
X93643247Y-82995237D02*
X93567057Y-83033333D01*
X93567057Y-83033333D02*
X93528961Y-83109523D01*
X93528961Y-83109523D02*
X93528961Y-83261904D01*
X93528961Y-83261904D02*
X93567057Y-83338095D01*
X93567057Y-83338095D02*
X93643247Y-83376190D01*
X93643247Y-83376190D02*
X93719438Y-83376190D01*
X93719438Y-83376190D02*
X93795628Y-82995237D01*
X94062295Y-83719047D02*
X93528961Y-83719047D01*
X93681342Y-83719047D02*
X93605152Y-83757142D01*
X93605152Y-83757142D02*
X93567057Y-83795237D01*
X93567057Y-83795237D02*
X93528961Y-83871428D01*
X93528961Y-83871428D02*
X93528961Y-83947618D01*
X93528961Y-84099999D02*
X93528961Y-84404761D01*
X94062295Y-84214285D02*
X93376580Y-84214285D01*
X93376580Y-84214285D02*
X93300390Y-84252380D01*
X93300390Y-84252380D02*
X93262295Y-84328570D01*
X93262295Y-84328570D02*
X93262295Y-84404761D01*
X94062295Y-84785713D02*
X94024200Y-84709523D01*
X94024200Y-84709523D02*
X93986104Y-84671428D01*
X93986104Y-84671428D02*
X93909914Y-84633332D01*
X93909914Y-84633332D02*
X93681342Y-84633332D01*
X93681342Y-84633332D02*
X93605152Y-84671428D01*
X93605152Y-84671428D02*
X93567057Y-84709523D01*
X93567057Y-84709523D02*
X93528961Y-84785713D01*
X93528961Y-84785713D02*
X93528961Y-84899999D01*
X93528961Y-84899999D02*
X93567057Y-84976190D01*
X93567057Y-84976190D02*
X93605152Y-85014285D01*
X93605152Y-85014285D02*
X93681342Y-85052380D01*
X93681342Y-85052380D02*
X93909914Y-85052380D01*
X93909914Y-85052380D02*
X93986104Y-85014285D01*
X93986104Y-85014285D02*
X94024200Y-84976190D01*
X94024200Y-84976190D02*
X94062295Y-84899999D01*
X94062295Y-84899999D02*
X94062295Y-84785713D01*
X94062295Y-85395238D02*
X93528961Y-85395238D01*
X93681342Y-85395238D02*
X93605152Y-85433333D01*
X93605152Y-85433333D02*
X93567057Y-85471428D01*
X93567057Y-85471428D02*
X93528961Y-85547619D01*
X93528961Y-85547619D02*
X93528961Y-85623809D01*
X93528961Y-86233333D02*
X94176580Y-86233333D01*
X94176580Y-86233333D02*
X94252771Y-86195238D01*
X94252771Y-86195238D02*
X94290866Y-86157142D01*
X94290866Y-86157142D02*
X94328961Y-86080952D01*
X94328961Y-86080952D02*
X94328961Y-85966666D01*
X94328961Y-85966666D02*
X94290866Y-85890476D01*
X94024200Y-86233333D02*
X94062295Y-86157142D01*
X94062295Y-86157142D02*
X94062295Y-86004761D01*
X94062295Y-86004761D02*
X94024200Y-85928571D01*
X94024200Y-85928571D02*
X93986104Y-85890476D01*
X93986104Y-85890476D02*
X93909914Y-85852380D01*
X93909914Y-85852380D02*
X93681342Y-85852380D01*
X93681342Y-85852380D02*
X93605152Y-85890476D01*
X93605152Y-85890476D02*
X93567057Y-85928571D01*
X93567057Y-85928571D02*
X93528961Y-86004761D01*
X93528961Y-86004761D02*
X93528961Y-86157142D01*
X93528961Y-86157142D02*
X93567057Y-86233333D01*
X94024200Y-86919048D02*
X94062295Y-86842857D01*
X94062295Y-86842857D02*
X94062295Y-86690476D01*
X94062295Y-86690476D02*
X94024200Y-86614286D01*
X94024200Y-86614286D02*
X93948009Y-86576190D01*
X93948009Y-86576190D02*
X93643247Y-86576190D01*
X93643247Y-86576190D02*
X93567057Y-86614286D01*
X93567057Y-86614286D02*
X93528961Y-86690476D01*
X93528961Y-86690476D02*
X93528961Y-86842857D01*
X93528961Y-86842857D02*
X93567057Y-86919048D01*
X93567057Y-86919048D02*
X93643247Y-86957143D01*
X93643247Y-86957143D02*
X93719438Y-86957143D01*
X93719438Y-86957143D02*
X93795628Y-86576190D01*
X93986104Y-87300000D02*
X94024200Y-87338095D01*
X94024200Y-87338095D02*
X94062295Y-87300000D01*
X94062295Y-87300000D02*
X94024200Y-87261904D01*
X94024200Y-87261904D02*
X93986104Y-87300000D01*
X93986104Y-87300000D02*
X94062295Y-87300000D01*
X94024200Y-88023809D02*
X94062295Y-87947618D01*
X94062295Y-87947618D02*
X94062295Y-87795237D01*
X94062295Y-87795237D02*
X94024200Y-87719047D01*
X94024200Y-87719047D02*
X93986104Y-87680952D01*
X93986104Y-87680952D02*
X93909914Y-87642856D01*
X93909914Y-87642856D02*
X93681342Y-87642856D01*
X93681342Y-87642856D02*
X93605152Y-87680952D01*
X93605152Y-87680952D02*
X93567057Y-87719047D01*
X93567057Y-87719047D02*
X93528961Y-87795237D01*
X93528961Y-87795237D02*
X93528961Y-87947618D01*
X93528961Y-87947618D02*
X93567057Y-88023809D01*
X94062295Y-88480951D02*
X94024200Y-88404761D01*
X94024200Y-88404761D02*
X93986104Y-88366666D01*
X93986104Y-88366666D02*
X93909914Y-88328570D01*
X93909914Y-88328570D02*
X93681342Y-88328570D01*
X93681342Y-88328570D02*
X93605152Y-88366666D01*
X93605152Y-88366666D02*
X93567057Y-88404761D01*
X93567057Y-88404761D02*
X93528961Y-88480951D01*
X93528961Y-88480951D02*
X93528961Y-88595237D01*
X93528961Y-88595237D02*
X93567057Y-88671428D01*
X93567057Y-88671428D02*
X93605152Y-88709523D01*
X93605152Y-88709523D02*
X93681342Y-88747618D01*
X93681342Y-88747618D02*
X93909914Y-88747618D01*
X93909914Y-88747618D02*
X93986104Y-88709523D01*
X93986104Y-88709523D02*
X94024200Y-88671428D01*
X94024200Y-88671428D02*
X94062295Y-88595237D01*
X94062295Y-88595237D02*
X94062295Y-88480951D01*
X94062295Y-89090476D02*
X93528961Y-89090476D01*
X93605152Y-89090476D02*
X93567057Y-89128571D01*
X93567057Y-89128571D02*
X93528961Y-89204761D01*
X93528961Y-89204761D02*
X93528961Y-89319047D01*
X93528961Y-89319047D02*
X93567057Y-89395238D01*
X93567057Y-89395238D02*
X93643247Y-89433333D01*
X93643247Y-89433333D02*
X94062295Y-89433333D01*
X93643247Y-89433333D02*
X93567057Y-89471428D01*
X93567057Y-89471428D02*
X93528961Y-89547619D01*
X93528961Y-89547619D02*
X93528961Y-89661904D01*
X93528961Y-89661904D02*
X93567057Y-89738095D01*
X93567057Y-89738095D02*
X93643247Y-89776190D01*
X93643247Y-89776190D02*
X94062295Y-89776190D01*
D11*
%TO.C,U2*%
X93400000Y-97800000D02*
G75*
G03*
X93400000Y-97800000I-2000000J0D01*
G01*
%TO.C,U3*%
X118400000Y-97800000D02*
G75*
G03*
X118400000Y-97800000I-2000000J0D01*
G01*
%TO.C,U4*%
X93400000Y-72800000D02*
G75*
G03*
X93400000Y-72800000I-2000000J0D01*
G01*
%TO.C,U5*%
X118400000Y-72800000D02*
G75*
G03*
X118400000Y-72800000I-2000000J0D01*
G01*
%TO.C,G\u002A\u002A\u002A*%
D12*
X92908666Y-86914714D02*
X92721190Y-86914714D01*
X92721190Y-83866714D01*
X90060238Y-83866714D01*
X90060238Y-83673190D01*
X92908666Y-83673190D01*
X92908666Y-86914714D01*
G36*
X92908666Y-86914714D02*
G01*
X92721190Y-86914714D01*
X92721190Y-83866714D01*
X90060238Y-83866714D01*
X90060238Y-83673190D01*
X92908666Y-83673190D01*
X92908666Y-86914714D01*
G37*
X89860666Y-86727238D02*
X92521619Y-86727238D01*
X92521619Y-86914714D01*
X89673190Y-86914714D01*
X89673190Y-83673190D01*
X89860666Y-83673190D01*
X89860666Y-86727238D01*
G36*
X89860666Y-86727238D02*
G01*
X92521619Y-86727238D01*
X92521619Y-86914714D01*
X89673190Y-86914714D01*
X89673190Y-83673190D01*
X89860666Y-83673190D01*
X89860666Y-86727238D01*
G37*
X92316000Y-85783809D02*
X91578190Y-85783809D01*
X91578190Y-86316000D01*
X91269762Y-86316000D01*
X91269762Y-85783809D01*
X90840381Y-85783809D01*
X90840381Y-85445142D01*
X92316000Y-85445142D01*
X92316000Y-85783809D01*
G36*
X92316000Y-85783809D02*
G01*
X91578190Y-85783809D01*
X91578190Y-86316000D01*
X91269762Y-86316000D01*
X91269762Y-85783809D01*
X90840381Y-85783809D01*
X90840381Y-85445142D01*
X92316000Y-85445142D01*
X92316000Y-85783809D01*
G37*
X90598476Y-84870619D02*
X92316000Y-84870619D01*
X92316000Y-85209285D01*
X90598476Y-85209285D01*
X90598476Y-86316000D01*
X90265857Y-86316000D01*
X90265857Y-84271904D01*
X90598476Y-84271904D01*
X90598476Y-84870619D01*
G36*
X90598476Y-84870619D02*
G01*
X92316000Y-84870619D01*
X92316000Y-85209285D01*
X90598476Y-85209285D01*
X90598476Y-86316000D01*
X90265857Y-86316000D01*
X90265857Y-84271904D01*
X90598476Y-84271904D01*
X90598476Y-84870619D01*
G37*
%TO.C,VAL*%
D13*
X107006680Y-85757200D02*
X107108280Y-85767360D01*
X107207340Y-85782600D01*
X107306400Y-85805460D01*
X107405460Y-85830860D01*
X107501980Y-85866420D01*
X107595960Y-85904520D01*
X107689940Y-85950240D01*
X107778840Y-86003580D01*
X107867740Y-86062000D01*
X107933780Y-86110260D01*
X108012520Y-86176300D01*
X108088720Y-86247420D01*
X108159840Y-86323620D01*
X108225880Y-86404900D01*
X108289380Y-86488720D01*
X108345260Y-86577620D01*
X108396060Y-86669060D01*
X108439240Y-86763040D01*
X108479880Y-86859560D01*
X108510360Y-86958620D01*
X108525600Y-87014500D01*
X108545920Y-87095780D01*
X108561160Y-87177060D01*
X108571320Y-87260880D01*
X108578940Y-87349780D01*
X108578940Y-87352320D01*
X108578940Y-87375180D01*
X108578940Y-87400580D01*
X108578940Y-87428520D01*
X108578940Y-87456460D01*
X108578940Y-87486940D01*
X108578940Y-87517420D01*
X108576400Y-87542820D01*
X108576400Y-87568220D01*
X108573860Y-87588540D01*
X108571320Y-87601240D01*
X108571320Y-87611400D01*
X108317320Y-87611400D01*
X108063320Y-87611400D01*
X108063320Y-87603780D01*
X108065860Y-87598700D01*
X108068400Y-87575840D01*
X108070940Y-87547900D01*
X108070940Y-87517420D01*
X108073480Y-87481860D01*
X108073480Y-87446300D01*
X108070940Y-87410740D01*
X108070940Y-87375180D01*
X108068400Y-87342160D01*
X108065860Y-87311680D01*
X108063320Y-87283740D01*
X108060780Y-87265960D01*
X108043000Y-87177060D01*
X108017600Y-87090700D01*
X107987120Y-87009420D01*
X107951560Y-86930680D01*
X107910920Y-86854480D01*
X107862660Y-86780820D01*
X107837260Y-86745260D01*
X107781380Y-86679220D01*
X107722960Y-86615720D01*
X107656920Y-86557300D01*
X107588340Y-86503960D01*
X107517220Y-86455700D01*
X107441020Y-86415060D01*
X107430860Y-86409980D01*
X107385140Y-86387120D01*
X107339420Y-86369340D01*
X107296240Y-86351560D01*
X107250520Y-86336320D01*
X107199720Y-86323620D01*
X107143840Y-86308380D01*
X107143840Y-86788440D01*
X107141300Y-87265960D01*
X106889840Y-87265960D01*
X106638380Y-87265960D01*
X106638380Y-86793520D01*
X106638380Y-86755420D01*
X106638380Y-86691920D01*
X106638380Y-86636040D01*
X106638380Y-86585240D01*
X106638380Y-86539520D01*
X106638380Y-86501420D01*
X106638380Y-86465860D01*
X106638380Y-86435380D01*
X106635840Y-86409980D01*
X106635840Y-86387120D01*
X106635840Y-86369340D01*
X106635840Y-86354100D01*
X106635840Y-86343940D01*
X106635840Y-86333780D01*
X106635840Y-86328700D01*
X106633300Y-86323620D01*
X106633300Y-86321080D01*
X106628220Y-86323620D01*
X106618060Y-86326160D01*
X106605360Y-86328700D01*
X106587580Y-86333780D01*
X106524080Y-86354100D01*
X106442800Y-86387120D01*
X106369140Y-86422680D01*
X106295480Y-86465860D01*
X106229440Y-86511580D01*
X106173560Y-86554760D01*
X106107520Y-86613180D01*
X106046560Y-86676680D01*
X105990680Y-86745260D01*
X105942420Y-86816380D01*
X105896700Y-86890040D01*
X105858600Y-86968780D01*
X105825580Y-87047520D01*
X105797640Y-87131340D01*
X105777320Y-87217700D01*
X105762080Y-87306600D01*
X105762080Y-87309140D01*
X105757000Y-87362480D01*
X105754460Y-87418360D01*
X105754460Y-87476780D01*
X105757000Y-87535200D01*
X105762080Y-87591080D01*
X105764620Y-87608860D01*
X105497920Y-87608860D01*
X105228680Y-87608860D01*
X105228680Y-87598700D01*
X105228680Y-87596160D01*
X105226140Y-87583460D01*
X105226140Y-87565680D01*
X105223600Y-87545360D01*
X105221060Y-87522500D01*
X105221060Y-87499640D01*
X105221060Y-87474240D01*
X105218520Y-87453920D01*
X105218520Y-87436140D01*
X105223600Y-87334540D01*
X105231220Y-87230400D01*
X105249000Y-87126260D01*
X105271860Y-87024660D01*
X105299800Y-86925600D01*
X105332820Y-86826540D01*
X105373460Y-86732560D01*
X105419180Y-86638580D01*
X105472520Y-86549680D01*
X105528400Y-86463320D01*
X105589360Y-86382040D01*
X105657940Y-86303300D01*
X105731600Y-86227100D01*
X105807800Y-86158520D01*
X105889080Y-86092480D01*
X105944960Y-86051840D01*
X106031320Y-85995960D01*
X106122760Y-85945160D01*
X106216740Y-85899440D01*
X106310720Y-85861340D01*
X106407240Y-85828320D01*
X106503760Y-85800380D01*
X106605360Y-85780060D01*
X106704420Y-85764820D01*
X106806020Y-85757200D01*
X106905080Y-85754660D01*
X107006680Y-85757200D01*
G36*
X107006680Y-85757200D02*
G01*
X107108280Y-85767360D01*
X107207340Y-85782600D01*
X107306400Y-85805460D01*
X107405460Y-85830860D01*
X107501980Y-85866420D01*
X107595960Y-85904520D01*
X107689940Y-85950240D01*
X107778840Y-86003580D01*
X107867740Y-86062000D01*
X107933780Y-86110260D01*
X108012520Y-86176300D01*
X108088720Y-86247420D01*
X108159840Y-86323620D01*
X108225880Y-86404900D01*
X108289380Y-86488720D01*
X108345260Y-86577620D01*
X108396060Y-86669060D01*
X108439240Y-86763040D01*
X108479880Y-86859560D01*
X108510360Y-86958620D01*
X108525600Y-87014500D01*
X108545920Y-87095780D01*
X108561160Y-87177060D01*
X108571320Y-87260880D01*
X108578940Y-87349780D01*
X108578940Y-87352320D01*
X108578940Y-87375180D01*
X108578940Y-87400580D01*
X108578940Y-87428520D01*
X108578940Y-87456460D01*
X108578940Y-87486940D01*
X108578940Y-87517420D01*
X108576400Y-87542820D01*
X108576400Y-87568220D01*
X108573860Y-87588540D01*
X108571320Y-87601240D01*
X108571320Y-87611400D01*
X108317320Y-87611400D01*
X108063320Y-87611400D01*
X108063320Y-87603780D01*
X108065860Y-87598700D01*
X108068400Y-87575840D01*
X108070940Y-87547900D01*
X108070940Y-87517420D01*
X108073480Y-87481860D01*
X108073480Y-87446300D01*
X108070940Y-87410740D01*
X108070940Y-87375180D01*
X108068400Y-87342160D01*
X108065860Y-87311680D01*
X108063320Y-87283740D01*
X108060780Y-87265960D01*
X108043000Y-87177060D01*
X108017600Y-87090700D01*
X107987120Y-87009420D01*
X107951560Y-86930680D01*
X107910920Y-86854480D01*
X107862660Y-86780820D01*
X107837260Y-86745260D01*
X107781380Y-86679220D01*
X107722960Y-86615720D01*
X107656920Y-86557300D01*
X107588340Y-86503960D01*
X107517220Y-86455700D01*
X107441020Y-86415060D01*
X107430860Y-86409980D01*
X107385140Y-86387120D01*
X107339420Y-86369340D01*
X107296240Y-86351560D01*
X107250520Y-86336320D01*
X107199720Y-86323620D01*
X107143840Y-86308380D01*
X107143840Y-86788440D01*
X107141300Y-87265960D01*
X106889840Y-87265960D01*
X106638380Y-87265960D01*
X106638380Y-86793520D01*
X106638380Y-86755420D01*
X106638380Y-86691920D01*
X106638380Y-86636040D01*
X106638380Y-86585240D01*
X106638380Y-86539520D01*
X106638380Y-86501420D01*
X106638380Y-86465860D01*
X106638380Y-86435380D01*
X106635840Y-86409980D01*
X106635840Y-86387120D01*
X106635840Y-86369340D01*
X106635840Y-86354100D01*
X106635840Y-86343940D01*
X106635840Y-86333780D01*
X106635840Y-86328700D01*
X106633300Y-86323620D01*
X106633300Y-86321080D01*
X106628220Y-86323620D01*
X106618060Y-86326160D01*
X106605360Y-86328700D01*
X106587580Y-86333780D01*
X106524080Y-86354100D01*
X106442800Y-86387120D01*
X106369140Y-86422680D01*
X106295480Y-86465860D01*
X106229440Y-86511580D01*
X106173560Y-86554760D01*
X106107520Y-86613180D01*
X106046560Y-86676680D01*
X105990680Y-86745260D01*
X105942420Y-86816380D01*
X105896700Y-86890040D01*
X105858600Y-86968780D01*
X105825580Y-87047520D01*
X105797640Y-87131340D01*
X105777320Y-87217700D01*
X105762080Y-87306600D01*
X105762080Y-87309140D01*
X105757000Y-87362480D01*
X105754460Y-87418360D01*
X105754460Y-87476780D01*
X105757000Y-87535200D01*
X105762080Y-87591080D01*
X105764620Y-87608860D01*
X105497920Y-87608860D01*
X105228680Y-87608860D01*
X105228680Y-87598700D01*
X105228680Y-87596160D01*
X105226140Y-87583460D01*
X105226140Y-87565680D01*
X105223600Y-87545360D01*
X105221060Y-87522500D01*
X105221060Y-87499640D01*
X105221060Y-87474240D01*
X105218520Y-87453920D01*
X105218520Y-87436140D01*
X105223600Y-87334540D01*
X105231220Y-87230400D01*
X105249000Y-87126260D01*
X105271860Y-87024660D01*
X105299800Y-86925600D01*
X105332820Y-86826540D01*
X105373460Y-86732560D01*
X105419180Y-86638580D01*
X105472520Y-86549680D01*
X105528400Y-86463320D01*
X105589360Y-86382040D01*
X105657940Y-86303300D01*
X105731600Y-86227100D01*
X105807800Y-86158520D01*
X105889080Y-86092480D01*
X105944960Y-86051840D01*
X106031320Y-85995960D01*
X106122760Y-85945160D01*
X106216740Y-85899440D01*
X106310720Y-85861340D01*
X106407240Y-85828320D01*
X106503760Y-85800380D01*
X106605360Y-85780060D01*
X106704420Y-85764820D01*
X106806020Y-85757200D01*
X106905080Y-85754660D01*
X107006680Y-85757200D01*
G37*
X106999060Y-82909860D02*
X107105740Y-82920020D01*
X107209880Y-82935260D01*
X107314020Y-82958120D01*
X107415620Y-82988600D01*
X107423240Y-82991140D01*
X107494360Y-83014000D01*
X107565480Y-83044480D01*
X107636600Y-83077500D01*
X107707720Y-83113060D01*
X107773760Y-83151160D01*
X107837260Y-83191800D01*
X107921080Y-83252760D01*
X108002360Y-83318800D01*
X108078560Y-83389920D01*
X108149680Y-83463580D01*
X108218260Y-83544860D01*
X108279220Y-83626140D01*
X108335100Y-83715040D01*
X108385900Y-83803940D01*
X108431620Y-83895380D01*
X108451940Y-83946180D01*
X108490040Y-84042700D01*
X108520520Y-84141760D01*
X108543380Y-84243360D01*
X108561160Y-84342420D01*
X108573860Y-84444020D01*
X108576400Y-84464340D01*
X108576400Y-84479580D01*
X108578940Y-84494820D01*
X108578940Y-84502440D01*
X108578940Y-84512600D01*
X108578940Y-84525300D01*
X108578940Y-84543080D01*
X108578940Y-84565940D01*
X108578940Y-84591340D01*
X108578940Y-84616740D01*
X108578940Y-84642140D01*
X108576400Y-84665000D01*
X108576400Y-84687860D01*
X108576400Y-84705640D01*
X108576400Y-84720880D01*
X108573860Y-84728500D01*
X108571320Y-84746280D01*
X108312240Y-84746280D01*
X108302080Y-84746280D01*
X108261440Y-84746280D01*
X108223340Y-84746280D01*
X108187780Y-84746280D01*
X108154760Y-84746280D01*
X108124280Y-84743740D01*
X108098880Y-84743740D01*
X108078560Y-84743740D01*
X108063320Y-84743740D01*
X108053160Y-84743740D01*
X108050620Y-84743740D01*
X108050620Y-84741200D01*
X108053160Y-84733580D01*
X108053160Y-84720880D01*
X108055700Y-84708180D01*
X108055700Y-84692940D01*
X108055700Y-84672620D01*
X108058240Y-84647220D01*
X108058240Y-84621820D01*
X108058240Y-84593880D01*
X108058240Y-84571020D01*
X108058240Y-84543080D01*
X108058240Y-84522760D01*
X108055700Y-84504980D01*
X108055700Y-84489740D01*
X108055700Y-84474500D01*
X108053160Y-84461800D01*
X108050620Y-84446560D01*
X108048080Y-84428780D01*
X108043000Y-84390680D01*
X108022680Y-84301780D01*
X107997280Y-84217960D01*
X107966800Y-84136680D01*
X107928700Y-84055400D01*
X107885520Y-83981740D01*
X107837260Y-83908080D01*
X107781380Y-83839500D01*
X107722960Y-83776000D01*
X107672160Y-83727740D01*
X107608660Y-83676940D01*
X107545160Y-83628680D01*
X107476580Y-83588040D01*
X107402920Y-83549940D01*
X107374980Y-83534700D01*
X107298780Y-83504220D01*
X107222580Y-83478820D01*
X107143840Y-83458500D01*
X107062560Y-83443260D01*
X107049860Y-83443260D01*
X107021920Y-83440720D01*
X106991440Y-83438180D01*
X106958420Y-83435640D01*
X106922860Y-83435640D01*
X106887300Y-83435640D01*
X106854280Y-83435640D01*
X106823800Y-83435640D01*
X106800940Y-83438180D01*
X106778080Y-83440720D01*
X106689180Y-83453420D01*
X106602820Y-83471200D01*
X106519000Y-83496600D01*
X106437720Y-83529620D01*
X106358980Y-83567720D01*
X106285320Y-83610900D01*
X106211660Y-83659160D01*
X106143080Y-83715040D01*
X106077040Y-83776000D01*
X106038940Y-83816640D01*
X105980520Y-83885220D01*
X105929720Y-83956340D01*
X105886540Y-84030000D01*
X105845900Y-84108740D01*
X105812880Y-84190020D01*
X105784940Y-84273840D01*
X105764620Y-84360200D01*
X105749380Y-84449100D01*
X105746840Y-84466880D01*
X105744300Y-84492280D01*
X105741760Y-84522760D01*
X105741760Y-84553240D01*
X105741760Y-84586260D01*
X105741760Y-84619280D01*
X105741760Y-84649760D01*
X105741760Y-84677700D01*
X105744300Y-84703100D01*
X105746840Y-84723420D01*
X105749380Y-84738660D01*
X105751920Y-84746280D01*
X105490300Y-84746280D01*
X105226140Y-84746280D01*
X105226140Y-84718340D01*
X105221060Y-84659920D01*
X105221060Y-84568480D01*
X105223600Y-84474500D01*
X105233760Y-84377980D01*
X105249000Y-84284000D01*
X105266780Y-84190020D01*
X105292180Y-84101120D01*
X105292180Y-84098580D01*
X105325200Y-83999520D01*
X105365840Y-83903000D01*
X105411560Y-83809020D01*
X105462360Y-83717580D01*
X105518240Y-83631220D01*
X105581740Y-83547400D01*
X105647780Y-83466120D01*
X105718900Y-83392460D01*
X105795100Y-83321340D01*
X105876380Y-83255300D01*
X105960200Y-83194340D01*
X106013540Y-83158780D01*
X106102440Y-83107980D01*
X106193880Y-83062260D01*
X106290400Y-83021620D01*
X106386920Y-82988600D01*
X106485980Y-82958120D01*
X106585040Y-82935260D01*
X106684100Y-82920020D01*
X106788240Y-82909860D01*
X106894920Y-82907320D01*
X106999060Y-82909860D01*
G36*
X106999060Y-82909860D02*
G01*
X107105740Y-82920020D01*
X107209880Y-82935260D01*
X107314020Y-82958120D01*
X107415620Y-82988600D01*
X107423240Y-82991140D01*
X107494360Y-83014000D01*
X107565480Y-83044480D01*
X107636600Y-83077500D01*
X107707720Y-83113060D01*
X107773760Y-83151160D01*
X107837260Y-83191800D01*
X107921080Y-83252760D01*
X108002360Y-83318800D01*
X108078560Y-83389920D01*
X108149680Y-83463580D01*
X108218260Y-83544860D01*
X108279220Y-83626140D01*
X108335100Y-83715040D01*
X108385900Y-83803940D01*
X108431620Y-83895380D01*
X108451940Y-83946180D01*
X108490040Y-84042700D01*
X108520520Y-84141760D01*
X108543380Y-84243360D01*
X108561160Y-84342420D01*
X108573860Y-84444020D01*
X108576400Y-84464340D01*
X108576400Y-84479580D01*
X108578940Y-84494820D01*
X108578940Y-84502440D01*
X108578940Y-84512600D01*
X108578940Y-84525300D01*
X108578940Y-84543080D01*
X108578940Y-84565940D01*
X108578940Y-84591340D01*
X108578940Y-84616740D01*
X108578940Y-84642140D01*
X108576400Y-84665000D01*
X108576400Y-84687860D01*
X108576400Y-84705640D01*
X108576400Y-84720880D01*
X108573860Y-84728500D01*
X108571320Y-84746280D01*
X108312240Y-84746280D01*
X108302080Y-84746280D01*
X108261440Y-84746280D01*
X108223340Y-84746280D01*
X108187780Y-84746280D01*
X108154760Y-84746280D01*
X108124280Y-84743740D01*
X108098880Y-84743740D01*
X108078560Y-84743740D01*
X108063320Y-84743740D01*
X108053160Y-84743740D01*
X108050620Y-84743740D01*
X108050620Y-84741200D01*
X108053160Y-84733580D01*
X108053160Y-84720880D01*
X108055700Y-84708180D01*
X108055700Y-84692940D01*
X108055700Y-84672620D01*
X108058240Y-84647220D01*
X108058240Y-84621820D01*
X108058240Y-84593880D01*
X108058240Y-84571020D01*
X108058240Y-84543080D01*
X108058240Y-84522760D01*
X108055700Y-84504980D01*
X108055700Y-84489740D01*
X108055700Y-84474500D01*
X108053160Y-84461800D01*
X108050620Y-84446560D01*
X108048080Y-84428780D01*
X108043000Y-84390680D01*
X108022680Y-84301780D01*
X107997280Y-84217960D01*
X107966800Y-84136680D01*
X107928700Y-84055400D01*
X107885520Y-83981740D01*
X107837260Y-83908080D01*
X107781380Y-83839500D01*
X107722960Y-83776000D01*
X107672160Y-83727740D01*
X107608660Y-83676940D01*
X107545160Y-83628680D01*
X107476580Y-83588040D01*
X107402920Y-83549940D01*
X107374980Y-83534700D01*
X107298780Y-83504220D01*
X107222580Y-83478820D01*
X107143840Y-83458500D01*
X107062560Y-83443260D01*
X107049860Y-83443260D01*
X107021920Y-83440720D01*
X106991440Y-83438180D01*
X106958420Y-83435640D01*
X106922860Y-83435640D01*
X106887300Y-83435640D01*
X106854280Y-83435640D01*
X106823800Y-83435640D01*
X106800940Y-83438180D01*
X106778080Y-83440720D01*
X106689180Y-83453420D01*
X106602820Y-83471200D01*
X106519000Y-83496600D01*
X106437720Y-83529620D01*
X106358980Y-83567720D01*
X106285320Y-83610900D01*
X106211660Y-83659160D01*
X106143080Y-83715040D01*
X106077040Y-83776000D01*
X106038940Y-83816640D01*
X105980520Y-83885220D01*
X105929720Y-83956340D01*
X105886540Y-84030000D01*
X105845900Y-84108740D01*
X105812880Y-84190020D01*
X105784940Y-84273840D01*
X105764620Y-84360200D01*
X105749380Y-84449100D01*
X105746840Y-84466880D01*
X105744300Y-84492280D01*
X105741760Y-84522760D01*
X105741760Y-84553240D01*
X105741760Y-84586260D01*
X105741760Y-84619280D01*
X105741760Y-84649760D01*
X105741760Y-84677700D01*
X105744300Y-84703100D01*
X105746840Y-84723420D01*
X105749380Y-84738660D01*
X105751920Y-84746280D01*
X105490300Y-84746280D01*
X105226140Y-84746280D01*
X105226140Y-84718340D01*
X105221060Y-84659920D01*
X105221060Y-84568480D01*
X105223600Y-84474500D01*
X105233760Y-84377980D01*
X105249000Y-84284000D01*
X105266780Y-84190020D01*
X105292180Y-84101120D01*
X105292180Y-84098580D01*
X105325200Y-83999520D01*
X105365840Y-83903000D01*
X105411560Y-83809020D01*
X105462360Y-83717580D01*
X105518240Y-83631220D01*
X105581740Y-83547400D01*
X105647780Y-83466120D01*
X105718900Y-83392460D01*
X105795100Y-83321340D01*
X105876380Y-83255300D01*
X105960200Y-83194340D01*
X106013540Y-83158780D01*
X106102440Y-83107980D01*
X106193880Y-83062260D01*
X106290400Y-83021620D01*
X106386920Y-82988600D01*
X106485980Y-82958120D01*
X106585040Y-82935260D01*
X106684100Y-82920020D01*
X106788240Y-82909860D01*
X106894920Y-82907320D01*
X106999060Y-82909860D01*
G37*
D14*
X102427778Y-85285889D02*
X102427778Y-87332000D01*
X101919778Y-87332000D01*
X101411778Y-87332000D01*
X101411778Y-85285889D01*
X101411778Y-83239778D01*
X101919778Y-83239778D01*
X102427778Y-83239778D01*
X102427778Y-85285889D01*
G36*
X102427778Y-85285889D02*
G01*
X102427778Y-87332000D01*
X101919778Y-87332000D01*
X101411778Y-87332000D01*
X101411778Y-85285889D01*
X101411778Y-83239778D01*
X101919778Y-83239778D01*
X102427778Y-83239778D01*
X102427778Y-85285889D01*
G37*
X98174064Y-86328031D02*
X98059076Y-86338443D01*
X97816775Y-86360141D01*
X97623026Y-86377827D01*
X97472461Y-86392889D01*
X97359714Y-86406713D01*
X97279415Y-86420687D01*
X97226196Y-86436199D01*
X97194691Y-86454636D01*
X97179532Y-86477386D01*
X97175349Y-86505837D01*
X97176776Y-86541376D01*
X97178445Y-86585390D01*
X97178445Y-86598222D01*
X97178445Y-86739333D01*
X96921207Y-86739333D01*
X96663970Y-86739333D01*
X96128959Y-87261444D01*
X96081996Y-87307251D01*
X95929726Y-87455101D01*
X95810678Y-87568835D01*
X95719423Y-87652883D01*
X95650537Y-87711675D01*
X95598593Y-87749640D01*
X95558163Y-87771206D01*
X95523821Y-87780804D01*
X95490141Y-87782863D01*
X95386334Y-87782170D01*
X96014278Y-87159662D01*
X96091142Y-87083269D01*
X96239415Y-86934743D01*
X96371554Y-86800846D01*
X96482731Y-86686564D01*
X96566840Y-86598222D01*
X96800995Y-86598222D01*
X96905053Y-86598222D01*
X96913172Y-86598206D01*
X96977644Y-86593090D01*
X97004037Y-86569418D01*
X97009111Y-86513555D01*
X97009110Y-86512566D01*
X97002283Y-86453434D01*
X96986169Y-86428889D01*
X96978781Y-86431131D01*
X96937831Y-86460676D01*
X96882111Y-86513555D01*
X96800995Y-86598222D01*
X96566840Y-86598222D01*
X96568119Y-86596879D01*
X96622892Y-86536778D01*
X96642222Y-86511244D01*
X96642216Y-86510931D01*
X96617013Y-86492841D01*
X96557556Y-86485333D01*
X96526068Y-86486549D01*
X96483470Y-86503320D01*
X96472889Y-86549609D01*
X96472859Y-86553570D01*
X96447567Y-86651912D01*
X96380155Y-86716263D01*
X96278107Y-86739333D01*
X96221263Y-86735053D01*
X96134045Y-86698504D01*
X96088918Y-86624381D01*
X96085642Y-86512404D01*
X96085846Y-86510866D01*
X96088346Y-86428071D01*
X96068165Y-86346225D01*
X96019679Y-86242299D01*
X95987642Y-86173538D01*
X95944267Y-86052526D01*
X95919392Y-85945346D01*
X95910548Y-85895310D01*
X95887872Y-85823084D01*
X95862156Y-85788466D01*
X95852355Y-85774084D01*
X95839327Y-85713440D01*
X95829740Y-85617890D01*
X95823749Y-85500456D01*
X95822195Y-85412749D01*
X95996208Y-85412749D01*
X96000774Y-85518722D01*
X96002662Y-85533665D01*
X96007353Y-85539909D01*
X96010619Y-85497687D01*
X96011845Y-85412889D01*
X96011683Y-85378354D01*
X96009664Y-85307962D01*
X96005822Y-85282233D01*
X96000774Y-85307055D01*
X95996208Y-85412749D01*
X95822195Y-85412749D01*
X95821511Y-85374164D01*
X95823182Y-85252038D01*
X95828917Y-85147101D01*
X95838873Y-85072379D01*
X95853205Y-85040894D01*
X95863425Y-85022659D01*
X95872763Y-84978832D01*
X96054425Y-84978832D01*
X96056089Y-85025483D01*
X96075425Y-85043204D01*
X96117463Y-85046000D01*
X96190667Y-85046000D01*
X96190667Y-85412889D01*
X96190314Y-85539909D01*
X96190281Y-85552063D01*
X96188133Y-85658027D01*
X96182837Y-85724786D01*
X96173009Y-85761334D01*
X96157265Y-85776666D01*
X96134222Y-85779778D01*
X96091437Y-85794484D01*
X96077778Y-85849274D01*
X96077792Y-85851179D01*
X96089655Y-85926061D01*
X96118628Y-86023934D01*
X96157297Y-86125292D01*
X96198248Y-86210629D01*
X96234066Y-86260440D01*
X96245869Y-86264919D01*
X96255508Y-86252461D01*
X96262831Y-86217094D01*
X96268142Y-86153229D01*
X96271744Y-86055277D01*
X96273940Y-85917649D01*
X96275036Y-85734757D01*
X96275333Y-85501011D01*
X96275333Y-84707333D01*
X96192332Y-84707333D01*
X96166185Y-84707597D01*
X96121889Y-84714502D01*
X96095690Y-84740248D01*
X96079253Y-84797227D01*
X96064245Y-84897833D01*
X96054425Y-84978832D01*
X95872763Y-84978832D01*
X95877367Y-84957226D01*
X95890053Y-84855247D01*
X95899791Y-84728098D01*
X95905909Y-84629634D01*
X95915180Y-84526324D01*
X95926512Y-84463947D01*
X95941829Y-84433283D01*
X95963056Y-84425111D01*
X95967641Y-84424730D01*
X95987808Y-84412665D01*
X96218889Y-84412665D01*
X96219623Y-84415482D01*
X96247111Y-84425111D01*
X96472889Y-84425111D01*
X96472889Y-85326103D01*
X96472889Y-86264919D01*
X96472889Y-86316000D01*
X96557556Y-86316000D01*
X96616980Y-86307275D01*
X96642222Y-86273667D01*
X96642319Y-86270850D01*
X96658325Y-86247055D01*
X96667598Y-86244820D01*
X97183933Y-86244820D01*
X97184606Y-86245013D01*
X97220026Y-86243732D01*
X97303527Y-86237694D01*
X97427872Y-86227509D01*
X97585824Y-86213788D01*
X97770145Y-86197143D01*
X97973598Y-86178183D01*
X97996589Y-86176002D01*
X98045196Y-86171243D01*
X99360602Y-86171243D01*
X99396043Y-86244024D01*
X99397210Y-86245013D01*
X99456992Y-86295676D01*
X99532978Y-86317977D01*
X99613529Y-86302705D01*
X99688174Y-86241638D01*
X99690949Y-86238072D01*
X99730394Y-86177213D01*
X99746667Y-86132555D01*
X99746601Y-86130825D01*
X99728555Y-86084468D01*
X99688174Y-86023473D01*
X99635445Y-85976635D01*
X99549049Y-85947539D01*
X99462819Y-85959024D01*
X99395489Y-86011835D01*
X99370982Y-86064432D01*
X99361141Y-86085555D01*
X99360602Y-86171243D01*
X98045196Y-86171243D01*
X98198985Y-86156186D01*
X98381940Y-86137205D01*
X98538099Y-86119901D01*
X98660105Y-86105121D01*
X98740604Y-86093707D01*
X98772240Y-86086505D01*
X98772645Y-86085443D01*
X98754079Y-86057566D01*
X98702613Y-86000360D01*
X98626161Y-85921424D01*
X98532635Y-85828358D01*
X98429949Y-85728760D01*
X98326016Y-85630231D01*
X98228750Y-85540369D01*
X98146063Y-85466773D01*
X98085870Y-85417043D01*
X98056084Y-85398778D01*
X98052322Y-85400429D01*
X98016585Y-85429071D01*
X97950876Y-85488029D01*
X97862305Y-85570405D01*
X97757983Y-85669303D01*
X97645019Y-85777826D01*
X97530524Y-85889075D01*
X97421608Y-85996154D01*
X97325380Y-86092165D01*
X97248952Y-86170211D01*
X97199433Y-86223395D01*
X97183933Y-86244820D01*
X96667598Y-86244820D01*
X96709158Y-86234803D01*
X96805464Y-86231333D01*
X96868583Y-86230646D01*
X96933341Y-86223230D01*
X96985673Y-86200636D01*
X97042814Y-86154414D01*
X97122000Y-86076111D01*
X97177155Y-86019893D01*
X97228318Y-85964256D01*
X97246250Y-85934687D01*
X97235007Y-85922969D01*
X97198647Y-85920889D01*
X97122000Y-85920889D01*
X97122000Y-85483444D01*
X97122000Y-85046000D01*
X97276379Y-85046000D01*
X97430758Y-85046000D01*
X97438657Y-85399448D01*
X97446556Y-85752896D01*
X97692757Y-85505281D01*
X97938483Y-85258146D01*
X98158289Y-85258146D01*
X98596415Y-85674559D01*
X98735139Y-85805557D01*
X98858519Y-85918576D01*
X98951745Y-85997438D01*
X99020107Y-86045079D01*
X99068896Y-86064432D01*
X99103400Y-86058434D01*
X99128911Y-86030020D01*
X99150719Y-85982126D01*
X99172054Y-85934890D01*
X99255175Y-85823642D01*
X99363491Y-85749981D01*
X99484835Y-85723333D01*
X99577333Y-85723333D01*
X99577333Y-85161885D01*
X99577333Y-84600437D01*
X99316278Y-84581855D01*
X99262656Y-84577864D01*
X99141951Y-84567641D01*
X99042690Y-84557598D01*
X98982317Y-84549428D01*
X98974729Y-84548301D01*
X98942540Y-84551235D01*
X98902286Y-84569687D01*
X98847628Y-84608565D01*
X98772228Y-84672780D01*
X98669748Y-84767243D01*
X98533851Y-84896864D01*
X98252249Y-85167758D01*
X98158289Y-85258146D01*
X97938483Y-85258146D01*
X97938959Y-85257667D01*
X97596015Y-84933111D01*
X97572163Y-84910529D01*
X97408085Y-84754910D01*
X97278536Y-84632727D01*
X97177254Y-84539792D01*
X97097981Y-84471919D01*
X97034455Y-84424919D01*
X97006033Y-84408975D01*
X97270881Y-84408975D01*
X97270922Y-84409440D01*
X97292802Y-84433659D01*
X97348910Y-84489913D01*
X97433126Y-84572216D01*
X97539330Y-84674579D01*
X97661401Y-84791016D01*
X98058262Y-85167758D01*
X98371868Y-84854152D01*
X98382714Y-84843289D01*
X98512501Y-84709788D01*
X98599349Y-84612709D01*
X98643344Y-84551950D01*
X98644570Y-84527409D01*
X98618005Y-84523161D01*
X98543262Y-84514726D01*
X98430800Y-84503473D01*
X98290010Y-84490211D01*
X98130283Y-84475751D01*
X97961012Y-84460901D01*
X97791588Y-84446472D01*
X97631403Y-84433273D01*
X97489848Y-84422114D01*
X97376314Y-84413805D01*
X97300195Y-84409156D01*
X97270881Y-84408975D01*
X97006033Y-84408975D01*
X96980417Y-84394605D01*
X96929607Y-84376790D01*
X96875765Y-84367286D01*
X96812631Y-84361906D01*
X96733945Y-84356463D01*
X96472889Y-84336207D01*
X96472889Y-84425111D01*
X96247111Y-84425111D01*
X96254847Y-84423962D01*
X96275333Y-84395223D01*
X96273117Y-84385015D01*
X96247111Y-84382778D01*
X96238665Y-84388570D01*
X96218889Y-84412665D01*
X95987808Y-84412665D01*
X96013457Y-84397320D01*
X96059528Y-84339850D01*
X96119151Y-84261941D01*
X96192613Y-84193431D01*
X96250693Y-84134191D01*
X96275333Y-84067026D01*
X96277009Y-84042040D01*
X96299113Y-84009732D01*
X96360000Y-84001778D01*
X96402903Y-84004137D01*
X96437198Y-84025231D01*
X96444667Y-84082525D01*
X96444724Y-84093792D01*
X96449720Y-84133566D01*
X96472078Y-84156316D01*
X96524770Y-84169166D01*
X96620766Y-84179240D01*
X96704614Y-84186179D01*
X96773574Y-84190423D01*
X96801960Y-84190114D01*
X96786053Y-84172093D01*
X96735169Y-84121251D01*
X96655516Y-84043807D01*
X96553459Y-83945945D01*
X96435360Y-83833848D01*
X96374080Y-83775918D01*
X96211284Y-83621783D01*
X96038062Y-83457506D01*
X95871579Y-83299373D01*
X95729002Y-83163671D01*
X95394339Y-82844667D01*
X95503225Y-82845381D01*
X95526509Y-82846441D01*
X95557279Y-82852548D01*
X95592260Y-82867487D01*
X95636019Y-82895038D01*
X95693122Y-82938979D01*
X95768135Y-83003091D01*
X95865623Y-83091152D01*
X95990153Y-83206942D01*
X96146292Y-83354240D01*
X96338604Y-83536826D01*
X96372956Y-83569463D01*
X96575079Y-83760297D01*
X96740877Y-83914347D01*
X96873465Y-84034319D01*
X96975962Y-84122919D01*
X97051482Y-84182855D01*
X97103144Y-84216831D01*
X97134063Y-84227555D01*
X97139621Y-84227682D01*
X97196360Y-84231111D01*
X97299811Y-84238761D01*
X97442218Y-84250008D01*
X97615823Y-84264231D01*
X97812870Y-84280807D01*
X98025602Y-84299112D01*
X98848177Y-84370669D01*
X99590141Y-83650001D01*
X99593601Y-83646641D01*
X99763223Y-83482584D01*
X99920491Y-83331764D01*
X100060741Y-83198555D01*
X100179310Y-83087333D01*
X100271534Y-83002472D01*
X100332751Y-82948347D01*
X100358297Y-82929333D01*
X100374736Y-82933386D01*
X100418356Y-82963200D01*
X100435182Y-82981382D01*
X100452222Y-83007259D01*
X100438486Y-83022768D01*
X100388800Y-83073817D01*
X100307222Y-83155951D01*
X100198340Y-83264598D01*
X100066738Y-83395183D01*
X99917004Y-83543134D01*
X99753722Y-83703875D01*
X99055222Y-84390298D01*
X99337445Y-84408400D01*
X99401661Y-84413367D01*
X99530455Y-84428504D01*
X99635143Y-84447650D01*
X99699565Y-84468139D01*
X99781747Y-84496928D01*
X99875954Y-84509778D01*
X99972445Y-84509778D01*
X99972445Y-84650889D01*
X99972445Y-84792000D01*
X99859556Y-84792000D01*
X99746667Y-84792000D01*
X99746667Y-85273600D01*
X99746667Y-85755199D01*
X99830800Y-85825993D01*
X99865538Y-85859855D01*
X99934339Y-85975259D01*
X99960981Y-86110166D01*
X99944093Y-86249842D01*
X99911638Y-86317977D01*
X99882306Y-86379557D01*
X99850313Y-86419827D01*
X99749251Y-86497516D01*
X99612979Y-86539947D01*
X99521625Y-86555889D01*
X99972812Y-86978916D01*
X100030652Y-87033278D01*
X100156463Y-87152504D01*
X100264626Y-87256356D01*
X100349218Y-87339069D01*
X100404317Y-87394879D01*
X100424000Y-87418022D01*
X100415553Y-87439541D01*
X100385028Y-87487398D01*
X100380529Y-87493980D01*
X100372165Y-87506301D01*
X100362473Y-87513792D01*
X100347841Y-87513370D01*
X100324658Y-87501952D01*
X100289314Y-87476457D01*
X100238196Y-87433801D01*
X100167694Y-87370901D01*
X100074196Y-87284676D01*
X99954091Y-87172041D01*
X99803769Y-87029916D01*
X99619617Y-86855216D01*
X99398024Y-86644860D01*
X98986239Y-86254054D01*
X98306149Y-86316000D01*
X98174064Y-86328031D01*
G36*
X98174064Y-86328031D02*
G01*
X98059076Y-86338443D01*
X97816775Y-86360141D01*
X97623026Y-86377827D01*
X97472461Y-86392889D01*
X97359714Y-86406713D01*
X97279415Y-86420687D01*
X97226196Y-86436199D01*
X97194691Y-86454636D01*
X97179532Y-86477386D01*
X97175349Y-86505837D01*
X97176776Y-86541376D01*
X97178445Y-86585390D01*
X97178445Y-86598222D01*
X97178445Y-86739333D01*
X96921207Y-86739333D01*
X96663970Y-86739333D01*
X96128959Y-87261444D01*
X96081996Y-87307251D01*
X95929726Y-87455101D01*
X95810678Y-87568835D01*
X95719423Y-87652883D01*
X95650537Y-87711675D01*
X95598593Y-87749640D01*
X95558163Y-87771206D01*
X95523821Y-87780804D01*
X95490141Y-87782863D01*
X95386334Y-87782170D01*
X96014278Y-87159662D01*
X96091142Y-87083269D01*
X96239415Y-86934743D01*
X96371554Y-86800846D01*
X96482731Y-86686564D01*
X96566840Y-86598222D01*
X96800995Y-86598222D01*
X96905053Y-86598222D01*
X96913172Y-86598206D01*
X96977644Y-86593090D01*
X97004037Y-86569418D01*
X97009111Y-86513555D01*
X97009110Y-86512566D01*
X97002283Y-86453434D01*
X96986169Y-86428889D01*
X96978781Y-86431131D01*
X96937831Y-86460676D01*
X96882111Y-86513555D01*
X96800995Y-86598222D01*
X96566840Y-86598222D01*
X96568119Y-86596879D01*
X96622892Y-86536778D01*
X96642222Y-86511244D01*
X96642216Y-86510931D01*
X96617013Y-86492841D01*
X96557556Y-86485333D01*
X96526068Y-86486549D01*
X96483470Y-86503320D01*
X96472889Y-86549609D01*
X96472859Y-86553570D01*
X96447567Y-86651912D01*
X96380155Y-86716263D01*
X96278107Y-86739333D01*
X96221263Y-86735053D01*
X96134045Y-86698504D01*
X96088918Y-86624381D01*
X96085642Y-86512404D01*
X96085846Y-86510866D01*
X96088346Y-86428071D01*
X96068165Y-86346225D01*
X96019679Y-86242299D01*
X95987642Y-86173538D01*
X95944267Y-86052526D01*
X95919392Y-85945346D01*
X95910548Y-85895310D01*
X95887872Y-85823084D01*
X95862156Y-85788466D01*
X95852355Y-85774084D01*
X95839327Y-85713440D01*
X95829740Y-85617890D01*
X95823749Y-85500456D01*
X95822195Y-85412749D01*
X95996208Y-85412749D01*
X96000774Y-85518722D01*
X96002662Y-85533665D01*
X96007353Y-85539909D01*
X96010619Y-85497687D01*
X96011845Y-85412889D01*
X96011683Y-85378354D01*
X96009664Y-85307962D01*
X96005822Y-85282233D01*
X96000774Y-85307055D01*
X95996208Y-85412749D01*
X95822195Y-85412749D01*
X95821511Y-85374164D01*
X95823182Y-85252038D01*
X95828917Y-85147101D01*
X95838873Y-85072379D01*
X95853205Y-85040894D01*
X95863425Y-85022659D01*
X95872763Y-84978832D01*
X96054425Y-84978832D01*
X96056089Y-85025483D01*
X96075425Y-85043204D01*
X96117463Y-85046000D01*
X96190667Y-85046000D01*
X96190667Y-85412889D01*
X96190314Y-85539909D01*
X96190281Y-85552063D01*
X96188133Y-85658027D01*
X96182837Y-85724786D01*
X96173009Y-85761334D01*
X96157265Y-85776666D01*
X96134222Y-85779778D01*
X96091437Y-85794484D01*
X96077778Y-85849274D01*
X96077792Y-85851179D01*
X96089655Y-85926061D01*
X96118628Y-86023934D01*
X96157297Y-86125292D01*
X96198248Y-86210629D01*
X96234066Y-86260440D01*
X96245869Y-86264919D01*
X96255508Y-86252461D01*
X96262831Y-86217094D01*
X96268142Y-86153229D01*
X96271744Y-86055277D01*
X96273940Y-85917649D01*
X96275036Y-85734757D01*
X96275333Y-85501011D01*
X96275333Y-84707333D01*
X96192332Y-84707333D01*
X96166185Y-84707597D01*
X96121889Y-84714502D01*
X96095690Y-84740248D01*
X96079253Y-84797227D01*
X96064245Y-84897833D01*
X96054425Y-84978832D01*
X95872763Y-84978832D01*
X95877367Y-84957226D01*
X95890053Y-84855247D01*
X95899791Y-84728098D01*
X95905909Y-84629634D01*
X95915180Y-84526324D01*
X95926512Y-84463947D01*
X95941829Y-84433283D01*
X95963056Y-84425111D01*
X95967641Y-84424730D01*
X95987808Y-84412665D01*
X96218889Y-84412665D01*
X96219623Y-84415482D01*
X96247111Y-84425111D01*
X96472889Y-84425111D01*
X96472889Y-85326103D01*
X96472889Y-86264919D01*
X96472889Y-86316000D01*
X96557556Y-86316000D01*
X96616980Y-86307275D01*
X96642222Y-86273667D01*
X96642319Y-86270850D01*
X96658325Y-86247055D01*
X96667598Y-86244820D01*
X97183933Y-86244820D01*
X97184606Y-86245013D01*
X97220026Y-86243732D01*
X97303527Y-86237694D01*
X97427872Y-86227509D01*
X97585824Y-86213788D01*
X97770145Y-86197143D01*
X97973598Y-86178183D01*
X97996589Y-86176002D01*
X98045196Y-86171243D01*
X99360602Y-86171243D01*
X99396043Y-86244024D01*
X99397210Y-86245013D01*
X99456992Y-86295676D01*
X99532978Y-86317977D01*
X99613529Y-86302705D01*
X99688174Y-86241638D01*
X99690949Y-86238072D01*
X99730394Y-86177213D01*
X99746667Y-86132555D01*
X99746601Y-86130825D01*
X99728555Y-86084468D01*
X99688174Y-86023473D01*
X99635445Y-85976635D01*
X99549049Y-85947539D01*
X99462819Y-85959024D01*
X99395489Y-86011835D01*
X99370982Y-86064432D01*
X99361141Y-86085555D01*
X99360602Y-86171243D01*
X98045196Y-86171243D01*
X98198985Y-86156186D01*
X98381940Y-86137205D01*
X98538099Y-86119901D01*
X98660105Y-86105121D01*
X98740604Y-86093707D01*
X98772240Y-86086505D01*
X98772645Y-86085443D01*
X98754079Y-86057566D01*
X98702613Y-86000360D01*
X98626161Y-85921424D01*
X98532635Y-85828358D01*
X98429949Y-85728760D01*
X98326016Y-85630231D01*
X98228750Y-85540369D01*
X98146063Y-85466773D01*
X98085870Y-85417043D01*
X98056084Y-85398778D01*
X98052322Y-85400429D01*
X98016585Y-85429071D01*
X97950876Y-85488029D01*
X97862305Y-85570405D01*
X97757983Y-85669303D01*
X97645019Y-85777826D01*
X97530524Y-85889075D01*
X97421608Y-85996154D01*
X97325380Y-86092165D01*
X97248952Y-86170211D01*
X97199433Y-86223395D01*
X97183933Y-86244820D01*
X96667598Y-86244820D01*
X96709158Y-86234803D01*
X96805464Y-86231333D01*
X96868583Y-86230646D01*
X96933341Y-86223230D01*
X96985673Y-86200636D01*
X97042814Y-86154414D01*
X97122000Y-86076111D01*
X97177155Y-86019893D01*
X97228318Y-85964256D01*
X97246250Y-85934687D01*
X97235007Y-85922969D01*
X97198647Y-85920889D01*
X97122000Y-85920889D01*
X97122000Y-85483444D01*
X97122000Y-85046000D01*
X97276379Y-85046000D01*
X97430758Y-85046000D01*
X97438657Y-85399448D01*
X97446556Y-85752896D01*
X97692757Y-85505281D01*
X97938483Y-85258146D01*
X98158289Y-85258146D01*
X98596415Y-85674559D01*
X98735139Y-85805557D01*
X98858519Y-85918576D01*
X98951745Y-85997438D01*
X99020107Y-86045079D01*
X99068896Y-86064432D01*
X99103400Y-86058434D01*
X99128911Y-86030020D01*
X99150719Y-85982126D01*
X99172054Y-85934890D01*
X99255175Y-85823642D01*
X99363491Y-85749981D01*
X99484835Y-85723333D01*
X99577333Y-85723333D01*
X99577333Y-85161885D01*
X99577333Y-84600437D01*
X99316278Y-84581855D01*
X99262656Y-84577864D01*
X99141951Y-84567641D01*
X99042690Y-84557598D01*
X98982317Y-84549428D01*
X98974729Y-84548301D01*
X98942540Y-84551235D01*
X98902286Y-84569687D01*
X98847628Y-84608565D01*
X98772228Y-84672780D01*
X98669748Y-84767243D01*
X98533851Y-84896864D01*
X98252249Y-85167758D01*
X98158289Y-85258146D01*
X97938483Y-85258146D01*
X97938959Y-85257667D01*
X97596015Y-84933111D01*
X97572163Y-84910529D01*
X97408085Y-84754910D01*
X97278536Y-84632727D01*
X97177254Y-84539792D01*
X97097981Y-84471919D01*
X97034455Y-84424919D01*
X97006033Y-84408975D01*
X97270881Y-84408975D01*
X97270922Y-84409440D01*
X97292802Y-84433659D01*
X97348910Y-84489913D01*
X97433126Y-84572216D01*
X97539330Y-84674579D01*
X97661401Y-84791016D01*
X98058262Y-85167758D01*
X98371868Y-84854152D01*
X98382714Y-84843289D01*
X98512501Y-84709788D01*
X98599349Y-84612709D01*
X98643344Y-84551950D01*
X98644570Y-84527409D01*
X98618005Y-84523161D01*
X98543262Y-84514726D01*
X98430800Y-84503473D01*
X98290010Y-84490211D01*
X98130283Y-84475751D01*
X97961012Y-84460901D01*
X97791588Y-84446472D01*
X97631403Y-84433273D01*
X97489848Y-84422114D01*
X97376314Y-84413805D01*
X97300195Y-84409156D01*
X97270881Y-84408975D01*
X97006033Y-84408975D01*
X96980417Y-84394605D01*
X96929607Y-84376790D01*
X96875765Y-84367286D01*
X96812631Y-84361906D01*
X96733945Y-84356463D01*
X96472889Y-84336207D01*
X96472889Y-84425111D01*
X96247111Y-84425111D01*
X96254847Y-84423962D01*
X96275333Y-84395223D01*
X96273117Y-84385015D01*
X96247111Y-84382778D01*
X96238665Y-84388570D01*
X96218889Y-84412665D01*
X95987808Y-84412665D01*
X96013457Y-84397320D01*
X96059528Y-84339850D01*
X96119151Y-84261941D01*
X96192613Y-84193431D01*
X96250693Y-84134191D01*
X96275333Y-84067026D01*
X96277009Y-84042040D01*
X96299113Y-84009732D01*
X96360000Y-84001778D01*
X96402903Y-84004137D01*
X96437198Y-84025231D01*
X96444667Y-84082525D01*
X96444724Y-84093792D01*
X96449720Y-84133566D01*
X96472078Y-84156316D01*
X96524770Y-84169166D01*
X96620766Y-84179240D01*
X96704614Y-84186179D01*
X96773574Y-84190423D01*
X96801960Y-84190114D01*
X96786053Y-84172093D01*
X96735169Y-84121251D01*
X96655516Y-84043807D01*
X96553459Y-83945945D01*
X96435360Y-83833848D01*
X96374080Y-83775918D01*
X96211284Y-83621783D01*
X96038062Y-83457506D01*
X95871579Y-83299373D01*
X95729002Y-83163671D01*
X95394339Y-82844667D01*
X95503225Y-82845381D01*
X95526509Y-82846441D01*
X95557279Y-82852548D01*
X95592260Y-82867487D01*
X95636019Y-82895038D01*
X95693122Y-82938979D01*
X95768135Y-83003091D01*
X95865623Y-83091152D01*
X95990153Y-83206942D01*
X96146292Y-83354240D01*
X96338604Y-83536826D01*
X96372956Y-83569463D01*
X96575079Y-83760297D01*
X96740877Y-83914347D01*
X96873465Y-84034319D01*
X96975962Y-84122919D01*
X97051482Y-84182855D01*
X97103144Y-84216831D01*
X97134063Y-84227555D01*
X97139621Y-84227682D01*
X97196360Y-84231111D01*
X97299811Y-84238761D01*
X97442218Y-84250008D01*
X97615823Y-84264231D01*
X97812870Y-84280807D01*
X98025602Y-84299112D01*
X98848177Y-84370669D01*
X99590141Y-83650001D01*
X99593601Y-83646641D01*
X99763223Y-83482584D01*
X99920491Y-83331764D01*
X100060741Y-83198555D01*
X100179310Y-83087333D01*
X100271534Y-83002472D01*
X100332751Y-82948347D01*
X100358297Y-82929333D01*
X100374736Y-82933386D01*
X100418356Y-82963200D01*
X100435182Y-82981382D01*
X100452222Y-83007259D01*
X100438486Y-83022768D01*
X100388800Y-83073817D01*
X100307222Y-83155951D01*
X100198340Y-83264598D01*
X100066738Y-83395183D01*
X99917004Y-83543134D01*
X99753722Y-83703875D01*
X99055222Y-84390298D01*
X99337445Y-84408400D01*
X99401661Y-84413367D01*
X99530455Y-84428504D01*
X99635143Y-84447650D01*
X99699565Y-84468139D01*
X99781747Y-84496928D01*
X99875954Y-84509778D01*
X99972445Y-84509778D01*
X99972445Y-84650889D01*
X99972445Y-84792000D01*
X99859556Y-84792000D01*
X99746667Y-84792000D01*
X99746667Y-85273600D01*
X99746667Y-85755199D01*
X99830800Y-85825993D01*
X99865538Y-85859855D01*
X99934339Y-85975259D01*
X99960981Y-86110166D01*
X99944093Y-86249842D01*
X99911638Y-86317977D01*
X99882306Y-86379557D01*
X99850313Y-86419827D01*
X99749251Y-86497516D01*
X99612979Y-86539947D01*
X99521625Y-86555889D01*
X99972812Y-86978916D01*
X100030652Y-87033278D01*
X100156463Y-87152504D01*
X100264626Y-87256356D01*
X100349218Y-87339069D01*
X100404317Y-87394879D01*
X100424000Y-87418022D01*
X100415553Y-87439541D01*
X100385028Y-87487398D01*
X100380529Y-87493980D01*
X100372165Y-87506301D01*
X100362473Y-87513792D01*
X100347841Y-87513370D01*
X100324658Y-87501952D01*
X100289314Y-87476457D01*
X100238196Y-87433801D01*
X100167694Y-87370901D01*
X100074196Y-87284676D01*
X99954091Y-87172041D01*
X99803769Y-87029916D01*
X99619617Y-86855216D01*
X99398024Y-86644860D01*
X98986239Y-86254054D01*
X98306149Y-86316000D01*
X98174064Y-86328031D01*
G37*
%TO.C,G\u002A\u002A\u002A*%
D12*
X105327479Y-77187231D02*
X105403230Y-77217978D01*
X105462470Y-77273902D01*
X105501860Y-77352496D01*
X105505314Y-77374898D01*
X105508585Y-77425218D01*
X105510833Y-77495835D01*
X105511880Y-77580828D01*
X105511548Y-77674277D01*
X105511044Y-77712850D01*
X105508291Y-77820388D01*
X105502818Y-77902548D01*
X105493288Y-77963823D01*
X105478365Y-78008709D01*
X105456709Y-78041700D01*
X105426985Y-78067293D01*
X105387854Y-78089980D01*
X105312741Y-78115908D01*
X105231666Y-78115461D01*
X105155778Y-78085044D01*
X105088201Y-78025332D01*
X105047262Y-77976679D01*
X105047262Y-77324984D01*
X105088201Y-77276331D01*
X105121550Y-77241938D01*
X105193757Y-77196929D01*
X105274677Y-77181908D01*
X105327479Y-77187231D01*
G36*
X105327479Y-77187231D02*
G01*
X105403230Y-77217978D01*
X105462470Y-77273902D01*
X105501860Y-77352496D01*
X105505314Y-77374898D01*
X105508585Y-77425218D01*
X105510833Y-77495835D01*
X105511880Y-77580828D01*
X105511548Y-77674277D01*
X105511044Y-77712850D01*
X105508291Y-77820388D01*
X105502818Y-77902548D01*
X105493288Y-77963823D01*
X105478365Y-78008709D01*
X105456709Y-78041700D01*
X105426985Y-78067293D01*
X105387854Y-78089980D01*
X105312741Y-78115908D01*
X105231666Y-78115461D01*
X105155778Y-78085044D01*
X105088201Y-78025332D01*
X105047262Y-77976679D01*
X105047262Y-77324984D01*
X105088201Y-77276331D01*
X105121550Y-77241938D01*
X105193757Y-77196929D01*
X105274677Y-77181908D01*
X105327479Y-77187231D01*
G37*
X106342474Y-76439757D02*
X106439696Y-76441732D01*
X106513474Y-76446573D01*
X106568257Y-76455461D01*
X106608492Y-76469578D01*
X106638629Y-76490106D01*
X106663117Y-76518225D01*
X106686403Y-76555117D01*
X106688344Y-76558520D01*
X106716573Y-76637726D01*
X106714883Y-76717290D01*
X106684170Y-76792744D01*
X106625332Y-76859615D01*
X106576679Y-76900554D01*
X105924984Y-76900554D01*
X105876331Y-76859615D01*
X105835911Y-76817899D01*
X105796257Y-76746689D01*
X105781947Y-76670761D01*
X105792780Y-76596134D01*
X105828558Y-76528828D01*
X105889080Y-76474862D01*
X105893886Y-76471903D01*
X105914866Y-76460411D01*
X105937674Y-76452004D01*
X105967215Y-76446203D01*
X106008397Y-76442527D01*
X106066123Y-76440495D01*
X106145299Y-76439629D01*
X106250831Y-76439447D01*
X106342474Y-76439757D01*
G36*
X106342474Y-76439757D02*
G01*
X106439696Y-76441732D01*
X106513474Y-76446573D01*
X106568257Y-76455461D01*
X106608492Y-76469578D01*
X106638629Y-76490106D01*
X106663117Y-76518225D01*
X106686403Y-76555117D01*
X106688344Y-76558520D01*
X106716573Y-76637726D01*
X106714883Y-76717290D01*
X106684170Y-76792744D01*
X106625332Y-76859615D01*
X106576679Y-76900554D01*
X105924984Y-76900554D01*
X105876331Y-76859615D01*
X105835911Y-76817899D01*
X105796257Y-76746689D01*
X105781947Y-76670761D01*
X105792780Y-76596134D01*
X105828558Y-76528828D01*
X105889080Y-76474862D01*
X105893886Y-76471903D01*
X105914866Y-76460411D01*
X105937674Y-76452004D01*
X105967215Y-76446203D01*
X106008397Y-76442527D01*
X106066123Y-76440495D01*
X106145299Y-76439629D01*
X106250831Y-76439447D01*
X106342474Y-76439757D01*
G37*
X101818401Y-74813862D02*
X101919851Y-74814408D01*
X101996846Y-74816542D01*
X102053739Y-74821345D01*
X102094882Y-74829899D01*
X102124628Y-74843286D01*
X102147330Y-74862587D01*
X102167340Y-74888885D01*
X102189011Y-74923262D01*
X102212741Y-74979482D01*
X102217996Y-75054412D01*
X102198214Y-75127662D01*
X102155632Y-75191897D01*
X102092486Y-75239785D01*
X102075384Y-75248185D01*
X102048742Y-75258712D01*
X102018343Y-75266062D01*
X101978687Y-75270797D01*
X101924273Y-75273482D01*
X101849601Y-75274680D01*
X101749170Y-75274954D01*
X101683374Y-75274862D01*
X101599612Y-75274080D01*
X101538187Y-75272023D01*
X101493600Y-75268129D01*
X101460349Y-75261833D01*
X101432933Y-75252573D01*
X101405854Y-75239785D01*
X101354108Y-75204669D01*
X101305619Y-75143831D01*
X101281982Y-75072598D01*
X101283777Y-74996610D01*
X101311586Y-74921505D01*
X101365990Y-74852923D01*
X101407811Y-74813847D01*
X101748788Y-74813847D01*
X101818401Y-74813862D01*
G36*
X101818401Y-74813862D02*
G01*
X101919851Y-74814408D01*
X101996846Y-74816542D01*
X102053739Y-74821345D01*
X102094882Y-74829899D01*
X102124628Y-74843286D01*
X102147330Y-74862587D01*
X102167340Y-74888885D01*
X102189011Y-74923262D01*
X102212741Y-74979482D01*
X102217996Y-75054412D01*
X102198214Y-75127662D01*
X102155632Y-75191897D01*
X102092486Y-75239785D01*
X102075384Y-75248185D01*
X102048742Y-75258712D01*
X102018343Y-75266062D01*
X101978687Y-75270797D01*
X101924273Y-75273482D01*
X101849601Y-75274680D01*
X101749170Y-75274954D01*
X101683374Y-75274862D01*
X101599612Y-75274080D01*
X101538187Y-75272023D01*
X101493600Y-75268129D01*
X101460349Y-75261833D01*
X101432933Y-75252573D01*
X101405854Y-75239785D01*
X101354108Y-75204669D01*
X101305619Y-75143831D01*
X101281982Y-75072598D01*
X101283777Y-74996610D01*
X101311586Y-74921505D01*
X101365990Y-74852923D01*
X101407811Y-74813847D01*
X101748788Y-74813847D01*
X101818401Y-74813862D01*
G37*
X106320062Y-73985431D02*
X106421512Y-73985978D01*
X106498508Y-73988111D01*
X106555401Y-73992914D01*
X106596544Y-74001468D01*
X106626290Y-74014855D01*
X106648992Y-74034157D01*
X106669002Y-74060455D01*
X106690672Y-74094831D01*
X106709215Y-74134775D01*
X106719696Y-74208895D01*
X106705676Y-74283918D01*
X106669267Y-74351500D01*
X106612582Y-74403292D01*
X106607776Y-74406251D01*
X106586797Y-74417744D01*
X106563989Y-74426150D01*
X106534447Y-74431952D01*
X106493265Y-74435628D01*
X106435539Y-74437659D01*
X106356363Y-74438526D01*
X106250831Y-74438708D01*
X106225358Y-74438702D01*
X106125983Y-74438412D01*
X106051895Y-74437333D01*
X105998190Y-74434984D01*
X105959961Y-74430886D01*
X105932303Y-74424558D01*
X105910311Y-74415520D01*
X105889080Y-74403292D01*
X105855631Y-74378251D01*
X105807455Y-74316674D01*
X105784232Y-74244556D01*
X105786300Y-74167849D01*
X105813994Y-74092510D01*
X105867651Y-74024493D01*
X105909473Y-73985416D01*
X106250449Y-73985416D01*
X106320062Y-73985431D01*
G36*
X106320062Y-73985431D02*
G01*
X106421512Y-73985978D01*
X106498508Y-73988111D01*
X106555401Y-73992914D01*
X106596544Y-74001468D01*
X106626290Y-74014855D01*
X106648992Y-74034157D01*
X106669002Y-74060455D01*
X106690672Y-74094831D01*
X106709215Y-74134775D01*
X106719696Y-74208895D01*
X106705676Y-74283918D01*
X106669267Y-74351500D01*
X106612582Y-74403292D01*
X106607776Y-74406251D01*
X106586797Y-74417744D01*
X106563989Y-74426150D01*
X106534447Y-74431952D01*
X106493265Y-74435628D01*
X106435539Y-74437659D01*
X106356363Y-74438526D01*
X106250831Y-74438708D01*
X106225358Y-74438702D01*
X106125983Y-74438412D01*
X106051895Y-74437333D01*
X105998190Y-74434984D01*
X105959961Y-74430886D01*
X105932303Y-74424558D01*
X105910311Y-74415520D01*
X105889080Y-74403292D01*
X105855631Y-74378251D01*
X105807455Y-74316674D01*
X105784232Y-74244556D01*
X105786300Y-74167849D01*
X105813994Y-74092510D01*
X105867651Y-74024493D01*
X105909473Y-73985416D01*
X106250449Y-73985416D01*
X106320062Y-73985431D01*
G37*
X104561464Y-72712687D02*
X104597705Y-72736324D01*
X104645258Y-72788500D01*
X104673950Y-72860000D01*
X104676945Y-72881199D01*
X104680114Y-72931799D01*
X104682291Y-73002677D01*
X104683301Y-73087624D01*
X104682970Y-73180431D01*
X104682787Y-73196281D01*
X104681194Y-73293946D01*
X104678753Y-73366182D01*
X104674942Y-73418114D01*
X104669239Y-73454862D01*
X104661123Y-73481549D01*
X104650070Y-73503296D01*
X104623954Y-73538159D01*
X104560950Y-73586624D01*
X104485725Y-73611939D01*
X104405867Y-73612163D01*
X104328967Y-73585358D01*
X104294566Y-73564537D01*
X104267900Y-73542567D01*
X104248342Y-73515372D01*
X104234797Y-73478614D01*
X104226169Y-73427953D01*
X104221362Y-73359051D01*
X104219281Y-73267569D01*
X104218831Y-73149170D01*
X104219268Y-73032014D01*
X104221323Y-72940237D01*
X104226091Y-72871092D01*
X104234667Y-72820239D01*
X104248147Y-72783340D01*
X104267627Y-72756057D01*
X104294202Y-72734050D01*
X104328967Y-72712981D01*
X104398770Y-72686570D01*
X104481394Y-72684540D01*
X104561464Y-72712687D01*
G36*
X104561464Y-72712687D02*
G01*
X104597705Y-72736324D01*
X104645258Y-72788500D01*
X104673950Y-72860000D01*
X104676945Y-72881199D01*
X104680114Y-72931799D01*
X104682291Y-73002677D01*
X104683301Y-73087624D01*
X104682970Y-73180431D01*
X104682787Y-73196281D01*
X104681194Y-73293946D01*
X104678753Y-73366182D01*
X104674942Y-73418114D01*
X104669239Y-73454862D01*
X104661123Y-73481549D01*
X104650070Y-73503296D01*
X104623954Y-73538159D01*
X104560950Y-73586624D01*
X104485725Y-73611939D01*
X104405867Y-73612163D01*
X104328967Y-73585358D01*
X104294566Y-73564537D01*
X104267900Y-73542567D01*
X104248342Y-73515372D01*
X104234797Y-73478614D01*
X104226169Y-73427953D01*
X104221362Y-73359051D01*
X104219281Y-73267569D01*
X104218831Y-73149170D01*
X104219268Y-73032014D01*
X104221323Y-72940237D01*
X104226091Y-72871092D01*
X104234667Y-72820239D01*
X104248147Y-72783340D01*
X104267627Y-72756057D01*
X104294202Y-72734050D01*
X104328967Y-72712981D01*
X104398770Y-72686570D01*
X104481394Y-72684540D01*
X104561464Y-72712687D01*
G37*
X104485336Y-77190848D02*
X104560266Y-77207091D01*
X104616772Y-77245112D01*
X104660376Y-77308065D01*
X104663985Y-77316600D01*
X104674857Y-77364341D01*
X104682911Y-77434601D01*
X104688147Y-77520673D01*
X104690564Y-77615851D01*
X104690163Y-77713429D01*
X104686944Y-77806699D01*
X104680906Y-77888955D01*
X104672050Y-77953490D01*
X104660376Y-77993597D01*
X104646040Y-78018977D01*
X104598492Y-78072726D01*
X104536083Y-78102661D01*
X104453293Y-78111939D01*
X104421249Y-78110814D01*
X104346320Y-78094571D01*
X104289813Y-78056550D01*
X104246209Y-77993597D01*
X104245504Y-77992200D01*
X104235725Y-77968083D01*
X104228609Y-77937453D01*
X104223760Y-77895360D01*
X104220786Y-77836858D01*
X104219291Y-77756997D01*
X104218880Y-77650831D01*
X104218881Y-77643368D01*
X104219348Y-77538982D01*
X104220924Y-77460594D01*
X104224003Y-77403257D01*
X104228981Y-77362021D01*
X104236252Y-77331940D01*
X104246209Y-77308065D01*
X104260545Y-77282685D01*
X104308094Y-77228936D01*
X104370503Y-77199001D01*
X104453293Y-77189723D01*
X104485336Y-77190848D01*
G36*
X104485336Y-77190848D02*
G01*
X104560266Y-77207091D01*
X104616772Y-77245112D01*
X104660376Y-77308065D01*
X104663985Y-77316600D01*
X104674857Y-77364341D01*
X104682911Y-77434601D01*
X104688147Y-77520673D01*
X104690564Y-77615851D01*
X104690163Y-77713429D01*
X104686944Y-77806699D01*
X104680906Y-77888955D01*
X104672050Y-77953490D01*
X104660376Y-77993597D01*
X104646040Y-78018977D01*
X104598492Y-78072726D01*
X104536083Y-78102661D01*
X104453293Y-78111939D01*
X104421249Y-78110814D01*
X104346320Y-78094571D01*
X104289813Y-78056550D01*
X104246209Y-77993597D01*
X104245504Y-77992200D01*
X104235725Y-77968083D01*
X104228609Y-77937453D01*
X104223760Y-77895360D01*
X104220786Y-77836858D01*
X104219291Y-77756997D01*
X104218880Y-77650831D01*
X104218881Y-77643368D01*
X104219348Y-77538982D01*
X104220924Y-77460594D01*
X104224003Y-77403257D01*
X104228981Y-77362021D01*
X104236252Y-77331940D01*
X104246209Y-77308065D01*
X104260545Y-77282685D01*
X104308094Y-77228936D01*
X104370503Y-77199001D01*
X104453293Y-77189723D01*
X104485336Y-77190848D01*
G37*
X101767612Y-73981048D02*
X101869314Y-73982836D01*
X101962214Y-73986123D01*
X102032103Y-73991933D01*
X102083416Y-74001550D01*
X102120588Y-74016258D01*
X102148053Y-74037339D01*
X102170247Y-74066078D01*
X102191604Y-74103758D01*
X102206841Y-74145495D01*
X102213973Y-74217806D01*
X102203467Y-74290524D01*
X102176180Y-74349995D01*
X102171156Y-74356728D01*
X102144888Y-74386763D01*
X102114935Y-74409331D01*
X102076704Y-74425470D01*
X102025604Y-74436216D01*
X101957043Y-74442607D01*
X101866429Y-74445681D01*
X101749170Y-74446475D01*
X101718640Y-74446438D01*
X101608287Y-74445216D01*
X101523454Y-74441472D01*
X101459523Y-74434143D01*
X101411875Y-74422164D01*
X101375889Y-74404471D01*
X101346949Y-74379999D01*
X101320435Y-74347685D01*
X101311212Y-74332811D01*
X101291605Y-74272089D01*
X101286606Y-74200582D01*
X101296216Y-74131095D01*
X101320435Y-74076439D01*
X101335556Y-74056813D01*
X101361933Y-74029332D01*
X101392611Y-74008999D01*
X101432080Y-73994857D01*
X101484826Y-73985948D01*
X101555338Y-73981315D01*
X101648104Y-73980001D01*
X101767612Y-73981048D01*
G36*
X101767612Y-73981048D02*
G01*
X101869314Y-73982836D01*
X101962214Y-73986123D01*
X102032103Y-73991933D01*
X102083416Y-74001550D01*
X102120588Y-74016258D01*
X102148053Y-74037339D01*
X102170247Y-74066078D01*
X102191604Y-74103758D01*
X102206841Y-74145495D01*
X102213973Y-74217806D01*
X102203467Y-74290524D01*
X102176180Y-74349995D01*
X102171156Y-74356728D01*
X102144888Y-74386763D01*
X102114935Y-74409331D01*
X102076704Y-74425470D01*
X102025604Y-74436216D01*
X101957043Y-74442607D01*
X101866429Y-74445681D01*
X101749170Y-74446475D01*
X101718640Y-74446438D01*
X101608287Y-74445216D01*
X101523454Y-74441472D01*
X101459523Y-74434143D01*
X101411875Y-74422164D01*
X101375889Y-74404471D01*
X101346949Y-74379999D01*
X101320435Y-74347685D01*
X101311212Y-74332811D01*
X101291605Y-74272089D01*
X101286606Y-74200582D01*
X101296216Y-74131095D01*
X101320435Y-74076439D01*
X101335556Y-74056813D01*
X101361933Y-74029332D01*
X101392611Y-74008999D01*
X101432080Y-73994857D01*
X101484826Y-73985948D01*
X101555338Y-73981315D01*
X101648104Y-73980001D01*
X101767612Y-73981048D01*
G37*
X102888467Y-77195417D02*
X102952789Y-77226727D01*
X103003725Y-77277178D01*
X103035070Y-77346031D01*
X103037218Y-77364260D01*
X103039755Y-77410598D01*
X103041971Y-77477762D01*
X103043684Y-77559967D01*
X103044710Y-77651427D01*
X103045074Y-77722212D01*
X103044814Y-77804287D01*
X103043124Y-77864326D01*
X103039469Y-77907831D01*
X103033312Y-77940302D01*
X103024119Y-77967241D01*
X103011354Y-77994147D01*
X103002474Y-78010005D01*
X102950121Y-78069779D01*
X102884331Y-78106147D01*
X102811419Y-78118829D01*
X102737698Y-78107542D01*
X102669481Y-78072005D01*
X102613081Y-78011935D01*
X102609277Y-78006162D01*
X102598014Y-77986646D01*
X102589793Y-77964837D01*
X102584138Y-77935908D01*
X102580572Y-77895031D01*
X102578621Y-77837377D01*
X102577809Y-77758119D01*
X102577659Y-77652427D01*
X102577856Y-77558797D01*
X102578772Y-77475056D01*
X102580826Y-77413636D01*
X102584434Y-77369733D01*
X102590017Y-77338543D01*
X102597992Y-77315263D01*
X102608777Y-77295088D01*
X102621416Y-77276435D01*
X102677233Y-77223759D01*
X102744484Y-77193192D01*
X102816964Y-77183992D01*
X102888467Y-77195417D01*
G36*
X102888467Y-77195417D02*
G01*
X102952789Y-77226727D01*
X103003725Y-77277178D01*
X103035070Y-77346031D01*
X103037218Y-77364260D01*
X103039755Y-77410598D01*
X103041971Y-77477762D01*
X103043684Y-77559967D01*
X103044710Y-77651427D01*
X103045074Y-77722212D01*
X103044814Y-77804287D01*
X103043124Y-77864326D01*
X103039469Y-77907831D01*
X103033312Y-77940302D01*
X103024119Y-77967241D01*
X103011354Y-77994147D01*
X103002474Y-78010005D01*
X102950121Y-78069779D01*
X102884331Y-78106147D01*
X102811419Y-78118829D01*
X102737698Y-78107542D01*
X102669481Y-78072005D01*
X102613081Y-78011935D01*
X102609277Y-78006162D01*
X102598014Y-77986646D01*
X102589793Y-77964837D01*
X102584138Y-77935908D01*
X102580572Y-77895031D01*
X102578621Y-77837377D01*
X102577809Y-77758119D01*
X102577659Y-77652427D01*
X102577856Y-77558797D01*
X102578772Y-77475056D01*
X102580826Y-77413636D01*
X102584434Y-77369733D01*
X102590017Y-77338543D01*
X102597992Y-77315263D01*
X102608777Y-77295088D01*
X102621416Y-77276435D01*
X102677233Y-77223759D01*
X102744484Y-77193192D01*
X102816964Y-77183992D01*
X102888467Y-77195417D01*
G37*
X102879111Y-72694001D02*
X102945976Y-72731619D01*
X103000204Y-72793427D01*
X103003407Y-72798709D01*
X103013230Y-72817941D01*
X103020360Y-72840591D01*
X103025133Y-72871298D01*
X103027888Y-72914702D01*
X103028961Y-72975441D01*
X103028691Y-73058156D01*
X103027415Y-73167485D01*
X103026165Y-73256715D01*
X103024541Y-73343138D01*
X103022340Y-73406398D01*
X103019029Y-73450984D01*
X103014074Y-73481387D01*
X103006940Y-73502095D01*
X102997094Y-73517598D01*
X102984000Y-73532386D01*
X102933955Y-73575300D01*
X102859971Y-73609907D01*
X102783661Y-73618348D01*
X102710660Y-73601204D01*
X102646608Y-73559056D01*
X102597139Y-73492486D01*
X102588739Y-73475384D01*
X102578212Y-73448742D01*
X102570862Y-73418343D01*
X102566126Y-73378687D01*
X102563441Y-73324273D01*
X102562244Y-73249601D01*
X102561970Y-73149170D01*
X102562062Y-73083374D01*
X102562844Y-72999612D01*
X102564901Y-72938187D01*
X102568795Y-72893600D01*
X102575091Y-72860349D01*
X102584351Y-72832933D01*
X102597139Y-72805854D01*
X102611415Y-72781526D01*
X102665761Y-72724333D01*
X102732697Y-72690552D01*
X102805916Y-72680376D01*
X102879111Y-72694001D01*
G36*
X102879111Y-72694001D02*
G01*
X102945976Y-72731619D01*
X103000204Y-72793427D01*
X103003407Y-72798709D01*
X103013230Y-72817941D01*
X103020360Y-72840591D01*
X103025133Y-72871298D01*
X103027888Y-72914702D01*
X103028961Y-72975441D01*
X103028691Y-73058156D01*
X103027415Y-73167485D01*
X103026165Y-73256715D01*
X103024541Y-73343138D01*
X103022340Y-73406398D01*
X103019029Y-73450984D01*
X103014074Y-73481387D01*
X103006940Y-73502095D01*
X102997094Y-73517598D01*
X102984000Y-73532386D01*
X102933955Y-73575300D01*
X102859971Y-73609907D01*
X102783661Y-73618348D01*
X102710660Y-73601204D01*
X102646608Y-73559056D01*
X102597139Y-73492486D01*
X102588739Y-73475384D01*
X102578212Y-73448742D01*
X102570862Y-73418343D01*
X102566126Y-73378687D01*
X102563441Y-73324273D01*
X102562244Y-73249601D01*
X102561970Y-73149170D01*
X102562062Y-73083374D01*
X102562844Y-72999612D01*
X102564901Y-72938187D01*
X102568795Y-72893600D01*
X102575091Y-72860349D01*
X102584351Y-72832933D01*
X102597139Y-72805854D01*
X102611415Y-72781526D01*
X102665761Y-72724333D01*
X102732697Y-72690552D01*
X102805916Y-72680376D01*
X102879111Y-72694001D01*
G37*
X101814965Y-75618923D02*
X101898727Y-75619706D01*
X101960152Y-75621762D01*
X102004739Y-75625657D01*
X102037991Y-75631952D01*
X102065406Y-75641212D01*
X102092486Y-75654000D01*
X102148054Y-75692210D01*
X102189582Y-75743633D01*
X102202470Y-75772631D01*
X102217373Y-75853186D01*
X102204848Y-75931919D01*
X102166745Y-76001994D01*
X102104912Y-76056577D01*
X102087623Y-76066039D01*
X102065062Y-76074380D01*
X102035261Y-76080271D01*
X101993416Y-76084129D01*
X101934721Y-76086374D01*
X101854375Y-76087423D01*
X101747573Y-76087696D01*
X101714708Y-76087693D01*
X101616985Y-76087404D01*
X101544329Y-76086317D01*
X101491912Y-76083958D01*
X101454905Y-76079849D01*
X101428481Y-76073516D01*
X101407810Y-76064483D01*
X101388066Y-76052273D01*
X101373086Y-76041477D01*
X101318307Y-75982008D01*
X101288000Y-75912077D01*
X101281884Y-75837997D01*
X101299675Y-75766082D01*
X101341092Y-75702646D01*
X101405854Y-75654000D01*
X101422955Y-75645601D01*
X101449597Y-75635073D01*
X101479996Y-75627723D01*
X101519652Y-75622988D01*
X101574066Y-75620303D01*
X101648738Y-75619105D01*
X101749170Y-75618831D01*
X101814965Y-75618923D01*
G36*
X101814965Y-75618923D02*
G01*
X101898727Y-75619706D01*
X101960152Y-75621762D01*
X102004739Y-75625657D01*
X102037991Y-75631952D01*
X102065406Y-75641212D01*
X102092486Y-75654000D01*
X102148054Y-75692210D01*
X102189582Y-75743633D01*
X102202470Y-75772631D01*
X102217373Y-75853186D01*
X102204848Y-75931919D01*
X102166745Y-76001994D01*
X102104912Y-76056577D01*
X102087623Y-76066039D01*
X102065062Y-76074380D01*
X102035261Y-76080271D01*
X101993416Y-76084129D01*
X101934721Y-76086374D01*
X101854375Y-76087423D01*
X101747573Y-76087696D01*
X101714708Y-76087693D01*
X101616985Y-76087404D01*
X101544329Y-76086317D01*
X101491912Y-76083958D01*
X101454905Y-76079849D01*
X101428481Y-76073516D01*
X101407810Y-76064483D01*
X101388066Y-76052273D01*
X101373086Y-76041477D01*
X101318307Y-75982008D01*
X101288000Y-75912077D01*
X101281884Y-75837997D01*
X101299675Y-75766082D01*
X101341092Y-75702646D01*
X101405854Y-75654000D01*
X101422955Y-75645601D01*
X101449597Y-75635073D01*
X101479996Y-75627723D01*
X101519652Y-75622988D01*
X101574066Y-75620303D01*
X101648738Y-75619105D01*
X101749170Y-75618831D01*
X101814965Y-75618923D01*
G37*
X103667775Y-77185613D02*
X103741719Y-77211290D01*
X103806534Y-77262484D01*
X103832092Y-77294516D01*
X103848729Y-77322585D01*
X103849396Y-77325249D01*
X103851835Y-77354174D01*
X103853663Y-77408084D01*
X103854795Y-77481921D01*
X103855145Y-77570628D01*
X103854626Y-77669147D01*
X103853694Y-77760367D01*
X103852398Y-77846254D01*
X103850434Y-77909065D01*
X103847283Y-77953287D01*
X103842426Y-77983408D01*
X103835345Y-78003917D01*
X103825519Y-78019300D01*
X103812431Y-78034047D01*
X103772990Y-78069088D01*
X103700073Y-78106708D01*
X103623148Y-78119059D01*
X103548329Y-78106549D01*
X103481734Y-78069584D01*
X103429477Y-78008571D01*
X103420127Y-77991056D01*
X103411665Y-77968013D01*
X103405692Y-77937977D01*
X103401785Y-77896093D01*
X103399519Y-77837510D01*
X103398471Y-77757374D01*
X103398216Y-77650831D01*
X103398221Y-77625358D01*
X103398512Y-77525983D01*
X103399591Y-77451895D01*
X103401940Y-77398190D01*
X103406038Y-77359961D01*
X103412366Y-77332303D01*
X103421403Y-77310311D01*
X103433631Y-77289080D01*
X103457720Y-77256939D01*
X103519122Y-77208912D01*
X103591358Y-77184979D01*
X103667775Y-77185613D01*
G36*
X103667775Y-77185613D02*
G01*
X103741719Y-77211290D01*
X103806534Y-77262484D01*
X103832092Y-77294516D01*
X103848729Y-77322585D01*
X103849396Y-77325249D01*
X103851835Y-77354174D01*
X103853663Y-77408084D01*
X103854795Y-77481921D01*
X103855145Y-77570628D01*
X103854626Y-77669147D01*
X103853694Y-77760367D01*
X103852398Y-77846254D01*
X103850434Y-77909065D01*
X103847283Y-77953287D01*
X103842426Y-77983408D01*
X103835345Y-78003917D01*
X103825519Y-78019300D01*
X103812431Y-78034047D01*
X103772990Y-78069088D01*
X103700073Y-78106708D01*
X103623148Y-78119059D01*
X103548329Y-78106549D01*
X103481734Y-78069584D01*
X103429477Y-78008571D01*
X103420127Y-77991056D01*
X103411665Y-77968013D01*
X103405692Y-77937977D01*
X103401785Y-77896093D01*
X103399519Y-77837510D01*
X103398471Y-77757374D01*
X103398216Y-77650831D01*
X103398221Y-77625358D01*
X103398512Y-77525983D01*
X103399591Y-77451895D01*
X103401940Y-77398190D01*
X103406038Y-77359961D01*
X103412366Y-77332303D01*
X103421403Y-77310311D01*
X103433631Y-77289080D01*
X103457720Y-77256939D01*
X103519122Y-77208912D01*
X103591358Y-77184979D01*
X103667775Y-77185613D01*
G37*
X105333164Y-72691626D02*
X105406724Y-72726340D01*
X105465073Y-72788066D01*
X105469145Y-72794252D01*
X105480315Y-72813720D01*
X105488469Y-72835580D01*
X105494080Y-72864645D01*
X105497622Y-72905725D01*
X105499566Y-72963631D01*
X105500386Y-73043175D01*
X105500554Y-73149170D01*
X105500544Y-73184529D01*
X105500227Y-73281961D01*
X105499115Y-73354408D01*
X105496734Y-73406682D01*
X105492613Y-73443594D01*
X105486277Y-73469956D01*
X105477255Y-73490578D01*
X105465073Y-73510273D01*
X105464464Y-73511182D01*
X105405917Y-73572586D01*
X105332185Y-73606965D01*
X105245390Y-73613325D01*
X105173785Y-73598014D01*
X105107477Y-73557596D01*
X105059009Y-73491935D01*
X105058304Y-73490538D01*
X105048525Y-73466422D01*
X105041409Y-73435791D01*
X105036560Y-73393699D01*
X105033586Y-73335196D01*
X105032091Y-73255336D01*
X105031680Y-73149170D01*
X105031681Y-73141707D01*
X105032148Y-73037321D01*
X105033724Y-72958933D01*
X105036803Y-72901595D01*
X105041781Y-72860360D01*
X105049052Y-72830279D01*
X105059009Y-72806404D01*
X105099100Y-72748968D01*
X105162623Y-72704827D01*
X105245390Y-72685014D01*
X105246515Y-72684919D01*
X105333164Y-72691626D01*
G36*
X105333164Y-72691626D02*
G01*
X105406724Y-72726340D01*
X105465073Y-72788066D01*
X105469145Y-72794252D01*
X105480315Y-72813720D01*
X105488469Y-72835580D01*
X105494080Y-72864645D01*
X105497622Y-72905725D01*
X105499566Y-72963631D01*
X105500386Y-73043175D01*
X105500554Y-73149170D01*
X105500544Y-73184529D01*
X105500227Y-73281961D01*
X105499115Y-73354408D01*
X105496734Y-73406682D01*
X105492613Y-73443594D01*
X105486277Y-73469956D01*
X105477255Y-73490578D01*
X105465073Y-73510273D01*
X105464464Y-73511182D01*
X105405917Y-73572586D01*
X105332185Y-73606965D01*
X105245390Y-73613325D01*
X105173785Y-73598014D01*
X105107477Y-73557596D01*
X105059009Y-73491935D01*
X105058304Y-73490538D01*
X105048525Y-73466422D01*
X105041409Y-73435791D01*
X105036560Y-73393699D01*
X105033586Y-73335196D01*
X105032091Y-73255336D01*
X105031680Y-73149170D01*
X105031681Y-73141707D01*
X105032148Y-73037321D01*
X105033724Y-72958933D01*
X105036803Y-72901595D01*
X105041781Y-72860360D01*
X105049052Y-72830279D01*
X105059009Y-72806404D01*
X105099100Y-72748968D01*
X105162623Y-72704827D01*
X105245390Y-72685014D01*
X105246515Y-72684919D01*
X105333164Y-72691626D01*
G37*
X103656905Y-72689186D02*
X103731835Y-72705430D01*
X103788341Y-72743451D01*
X103831945Y-72806404D01*
X103832650Y-72807801D01*
X103842429Y-72831917D01*
X103849546Y-72862548D01*
X103854394Y-72904640D01*
X103857369Y-72963143D01*
X103858864Y-73043003D01*
X103859275Y-73149170D01*
X103859273Y-73156633D01*
X103858807Y-73261019D01*
X103857231Y-73339406D01*
X103854151Y-73396744D01*
X103849173Y-73437979D01*
X103841903Y-73468060D01*
X103831945Y-73491935D01*
X103791854Y-73549372D01*
X103728332Y-73593512D01*
X103645565Y-73613325D01*
X103644439Y-73613420D01*
X103557790Y-73606714D01*
X103484230Y-73571999D01*
X103425881Y-73510273D01*
X103423551Y-73506758D01*
X103411782Y-73486930D01*
X103403184Y-73465319D01*
X103397262Y-73437014D01*
X103393520Y-73397101D01*
X103391464Y-73340667D01*
X103390597Y-73262798D01*
X103390425Y-73158581D01*
X103390440Y-73135011D01*
X103391005Y-73032760D01*
X103392666Y-72955964D01*
X103395797Y-72899776D01*
X103400775Y-72859350D01*
X103407977Y-72829842D01*
X103417778Y-72806404D01*
X103432114Y-72781024D01*
X103479663Y-72727275D01*
X103542072Y-72697339D01*
X103624862Y-72688062D01*
X103656905Y-72689186D01*
G36*
X103656905Y-72689186D02*
G01*
X103731835Y-72705430D01*
X103788341Y-72743451D01*
X103831945Y-72806404D01*
X103832650Y-72807801D01*
X103842429Y-72831917D01*
X103849546Y-72862548D01*
X103854394Y-72904640D01*
X103857369Y-72963143D01*
X103858864Y-73043003D01*
X103859275Y-73149170D01*
X103859273Y-73156633D01*
X103858807Y-73261019D01*
X103857231Y-73339406D01*
X103854151Y-73396744D01*
X103849173Y-73437979D01*
X103841903Y-73468060D01*
X103831945Y-73491935D01*
X103791854Y-73549372D01*
X103728332Y-73593512D01*
X103645565Y-73613325D01*
X103644439Y-73613420D01*
X103557790Y-73606714D01*
X103484230Y-73571999D01*
X103425881Y-73510273D01*
X103423551Y-73506758D01*
X103411782Y-73486930D01*
X103403184Y-73465319D01*
X103397262Y-73437014D01*
X103393520Y-73397101D01*
X103391464Y-73340667D01*
X103390597Y-73262798D01*
X103390425Y-73158581D01*
X103390440Y-73135011D01*
X103391005Y-73032760D01*
X103392666Y-72955964D01*
X103395797Y-72899776D01*
X103400775Y-72859350D01*
X103407977Y-72829842D01*
X103417778Y-72806404D01*
X103432114Y-72781024D01*
X103479663Y-72727275D01*
X103542072Y-72697339D01*
X103624862Y-72688062D01*
X103656905Y-72689186D01*
G37*
X106474614Y-74793387D02*
X106513656Y-74797015D01*
X106543045Y-74803167D01*
X106567953Y-74812282D01*
X106593551Y-74824804D01*
X106650252Y-74864250D01*
X106691244Y-74915203D01*
X106700346Y-74934688D01*
X106717967Y-75014650D01*
X106707875Y-75094289D01*
X106671915Y-75166416D01*
X106611935Y-75223843D01*
X106605749Y-75227914D01*
X106586281Y-75239084D01*
X106564420Y-75247238D01*
X106535356Y-75252849D01*
X106494276Y-75256391D01*
X106436370Y-75258335D01*
X106356825Y-75259155D01*
X106250831Y-75259323D01*
X106215471Y-75259313D01*
X106118040Y-75258996D01*
X106045593Y-75257884D01*
X105993319Y-75255504D01*
X105956407Y-75251382D01*
X105930045Y-75245046D01*
X105909422Y-75236024D01*
X105889727Y-75223843D01*
X105840199Y-75179706D01*
X105800234Y-75112574D01*
X105783807Y-75037805D01*
X105791125Y-74962201D01*
X105822397Y-74892568D01*
X105877832Y-74835709D01*
X105881967Y-74832783D01*
X105901463Y-74820413D01*
X105922712Y-74811286D01*
X105950633Y-74804809D01*
X105990143Y-74800390D01*
X106046160Y-74797434D01*
X106123601Y-74795349D01*
X106227385Y-74793542D01*
X106247846Y-74793224D01*
X106346881Y-74791933D01*
X106420747Y-74791840D01*
X106474614Y-74793387D01*
G36*
X106474614Y-74793387D02*
G01*
X106513656Y-74797015D01*
X106543045Y-74803167D01*
X106567953Y-74812282D01*
X106593551Y-74824804D01*
X106650252Y-74864250D01*
X106691244Y-74915203D01*
X106700346Y-74934688D01*
X106717967Y-75014650D01*
X106707875Y-75094289D01*
X106671915Y-75166416D01*
X106611935Y-75223843D01*
X106605749Y-75227914D01*
X106586281Y-75239084D01*
X106564420Y-75247238D01*
X106535356Y-75252849D01*
X106494276Y-75256391D01*
X106436370Y-75258335D01*
X106356825Y-75259155D01*
X106250831Y-75259323D01*
X106215471Y-75259313D01*
X106118040Y-75258996D01*
X106045593Y-75257884D01*
X105993319Y-75255504D01*
X105956407Y-75251382D01*
X105930045Y-75245046D01*
X105909422Y-75236024D01*
X105889727Y-75223843D01*
X105840199Y-75179706D01*
X105800234Y-75112574D01*
X105783807Y-75037805D01*
X105791125Y-74962201D01*
X105822397Y-74892568D01*
X105877832Y-74835709D01*
X105881967Y-74832783D01*
X105901463Y-74820413D01*
X105922712Y-74811286D01*
X105950633Y-74804809D01*
X105990143Y-74800390D01*
X106046160Y-74797434D01*
X106123601Y-74795349D01*
X106227385Y-74793542D01*
X106247846Y-74793224D01*
X106346881Y-74791933D01*
X106420747Y-74791840D01*
X106474614Y-74793387D01*
G37*
X106286191Y-75618842D02*
X106383623Y-75619158D01*
X106456070Y-75620270D01*
X106508344Y-75622651D01*
X106545256Y-75626773D01*
X106571617Y-75633108D01*
X106592240Y-75642130D01*
X106611935Y-75654312D01*
X106617220Y-75658010D01*
X106660346Y-75698269D01*
X106693266Y-75744189D01*
X106704760Y-75772136D01*
X106715881Y-75846804D01*
X106705859Y-75923925D01*
X106675656Y-75990045D01*
X106670185Y-75997573D01*
X106644300Y-76027757D01*
X106614554Y-76050435D01*
X106576385Y-76066651D01*
X106525230Y-76077448D01*
X106456527Y-76083869D01*
X106365713Y-76086957D01*
X106248225Y-76087754D01*
X106216879Y-76087731D01*
X106119956Y-76087140D01*
X106047877Y-76085428D01*
X105995603Y-76082167D01*
X105958095Y-76076930D01*
X105930311Y-76069288D01*
X105907213Y-76058815D01*
X105849020Y-76017389D01*
X105805797Y-75955073D01*
X105786675Y-75873995D01*
X105786580Y-75872870D01*
X105793287Y-75786221D01*
X105828001Y-75712661D01*
X105889727Y-75654312D01*
X105895913Y-75650240D01*
X105915382Y-75639071D01*
X105937242Y-75630917D01*
X105966306Y-75625305D01*
X106007386Y-75621764D01*
X106065292Y-75619819D01*
X106144837Y-75618999D01*
X106250831Y-75618831D01*
X106286191Y-75618842D01*
G36*
X106286191Y-75618842D02*
G01*
X106383623Y-75619158D01*
X106456070Y-75620270D01*
X106508344Y-75622651D01*
X106545256Y-75626773D01*
X106571617Y-75633108D01*
X106592240Y-75642130D01*
X106611935Y-75654312D01*
X106617220Y-75658010D01*
X106660346Y-75698269D01*
X106693266Y-75744189D01*
X106704760Y-75772136D01*
X106715881Y-75846804D01*
X106705859Y-75923925D01*
X106675656Y-75990045D01*
X106670185Y-75997573D01*
X106644300Y-76027757D01*
X106614554Y-76050435D01*
X106576385Y-76066651D01*
X106525230Y-76077448D01*
X106456527Y-76083869D01*
X106365713Y-76086957D01*
X106248225Y-76087754D01*
X106216879Y-76087731D01*
X106119956Y-76087140D01*
X106047877Y-76085428D01*
X105995603Y-76082167D01*
X105958095Y-76076930D01*
X105930311Y-76069288D01*
X105907213Y-76058815D01*
X105849020Y-76017389D01*
X105805797Y-75955073D01*
X105786675Y-75873995D01*
X105786580Y-75872870D01*
X105793287Y-75786221D01*
X105828001Y-75712661D01*
X105889727Y-75654312D01*
X105895913Y-75650240D01*
X105915382Y-75639071D01*
X105937242Y-75630917D01*
X105966306Y-75625305D01*
X106007386Y-75621764D01*
X106065292Y-75619819D01*
X106144837Y-75618999D01*
X106250831Y-75618831D01*
X106286191Y-75618842D01*
G37*
X101784529Y-76447272D02*
X101881961Y-76447589D01*
X101954408Y-76448701D01*
X102006682Y-76451082D01*
X102043594Y-76455203D01*
X102069956Y-76461539D01*
X102090578Y-76470561D01*
X102110273Y-76482743D01*
X102115559Y-76486441D01*
X102158685Y-76526700D01*
X102191604Y-76572620D01*
X102206795Y-76614634D01*
X102213960Y-76687294D01*
X102203473Y-76760147D01*
X102176180Y-76819657D01*
X102171156Y-76826389D01*
X102144888Y-76856425D01*
X102114935Y-76878993D01*
X102076704Y-76895131D01*
X102025604Y-76905877D01*
X101957043Y-76912268D01*
X101866429Y-76915342D01*
X101749170Y-76916136D01*
X101741707Y-76916135D01*
X101637321Y-76915668D01*
X101558933Y-76914092D01*
X101501595Y-76911013D01*
X101460360Y-76906035D01*
X101430279Y-76898765D01*
X101406404Y-76888807D01*
X101348968Y-76848716D01*
X101304827Y-76785193D01*
X101285014Y-76702426D01*
X101284919Y-76701301D01*
X101291626Y-76614652D01*
X101326340Y-76541092D01*
X101388066Y-76482743D01*
X101394252Y-76478671D01*
X101413720Y-76467501D01*
X101435580Y-76459347D01*
X101464645Y-76453736D01*
X101505725Y-76450194D01*
X101563631Y-76448250D01*
X101643175Y-76447430D01*
X101749170Y-76447262D01*
X101784529Y-76447272D01*
G36*
X101784529Y-76447272D02*
G01*
X101881961Y-76447589D01*
X101954408Y-76448701D01*
X102006682Y-76451082D01*
X102043594Y-76455203D01*
X102069956Y-76461539D01*
X102090578Y-76470561D01*
X102110273Y-76482743D01*
X102115559Y-76486441D01*
X102158685Y-76526700D01*
X102191604Y-76572620D01*
X102206795Y-76614634D01*
X102213960Y-76687294D01*
X102203473Y-76760147D01*
X102176180Y-76819657D01*
X102171156Y-76826389D01*
X102144888Y-76856425D01*
X102114935Y-76878993D01*
X102076704Y-76895131D01*
X102025604Y-76905877D01*
X101957043Y-76912268D01*
X101866429Y-76915342D01*
X101749170Y-76916136D01*
X101741707Y-76916135D01*
X101637321Y-76915668D01*
X101558933Y-76914092D01*
X101501595Y-76911013D01*
X101460360Y-76906035D01*
X101430279Y-76898765D01*
X101406404Y-76888807D01*
X101348968Y-76848716D01*
X101304827Y-76785193D01*
X101285014Y-76702426D01*
X101284919Y-76701301D01*
X101291626Y-76614652D01*
X101326340Y-76541092D01*
X101388066Y-76482743D01*
X101394252Y-76478671D01*
X101413720Y-76467501D01*
X101435580Y-76459347D01*
X101464645Y-76453736D01*
X101505725Y-76450194D01*
X101563631Y-76448250D01*
X101643175Y-76447430D01*
X101749170Y-76447262D01*
X101784529Y-76447272D01*
G37*
X103030893Y-73837016D02*
X103998551Y-73837267D01*
X104008624Y-73837269D01*
X104241862Y-73837360D01*
X104445974Y-73837528D01*
X104623015Y-73837817D01*
X104775037Y-73838270D01*
X104904094Y-73838930D01*
X105012239Y-73839841D01*
X105101527Y-73841046D01*
X105174008Y-73842588D01*
X105231739Y-73844511D01*
X105276771Y-73846858D01*
X105311158Y-73849672D01*
X105336953Y-73852997D01*
X105356210Y-73856875D01*
X105370983Y-73861350D01*
X105383323Y-73866466D01*
X105409949Y-73880111D01*
X105481491Y-73936450D01*
X105537105Y-74016677D01*
X105537411Y-74017269D01*
X105541775Y-74028479D01*
X105545598Y-74045199D01*
X105548914Y-74069412D01*
X105551762Y-74103097D01*
X105554178Y-74148235D01*
X105556197Y-74206808D01*
X105557856Y-74280795D01*
X105559192Y-74372179D01*
X105560241Y-74482939D01*
X105561039Y-74615056D01*
X105561622Y-74770511D01*
X105562028Y-74951286D01*
X105562292Y-75159360D01*
X105562451Y-75396715D01*
X105562488Y-75478891D01*
X105562552Y-75704058D01*
X105562513Y-75900687D01*
X105562331Y-76070817D01*
X105561961Y-76216487D01*
X105561362Y-76339738D01*
X105560490Y-76442608D01*
X105559302Y-76527137D01*
X105557757Y-76595365D01*
X105555812Y-76649332D01*
X105553423Y-76691076D01*
X105550548Y-76722638D01*
X105547145Y-76746058D01*
X105543171Y-76763374D01*
X105538582Y-76776626D01*
X105533337Y-76787854D01*
X105514817Y-76820224D01*
X105453457Y-76890496D01*
X105371889Y-76938885D01*
X105363680Y-76941809D01*
X105346702Y-76945813D01*
X105322576Y-76949290D01*
X105289290Y-76952278D01*
X105244836Y-76954812D01*
X105187205Y-76956928D01*
X105114388Y-76958661D01*
X105024374Y-76960047D01*
X104915154Y-76961121D01*
X104784720Y-76961921D01*
X104631062Y-76962480D01*
X104452171Y-76962836D01*
X104246037Y-76963023D01*
X104010650Y-76963077D01*
X103834802Y-76963017D01*
X103602263Y-76962700D01*
X103398732Y-76962096D01*
X103222872Y-76961186D01*
X103073344Y-76959953D01*
X102948809Y-76958379D01*
X102847929Y-76956445D01*
X102769364Y-76954134D01*
X102711777Y-76951427D01*
X102673828Y-76948306D01*
X102654179Y-76944753D01*
X102612970Y-76927850D01*
X102539174Y-76876710D01*
X102482006Y-76801473D01*
X102444739Y-76736431D01*
X102444739Y-74384000D01*
X103030893Y-74384000D01*
X103030893Y-76400370D01*
X103390400Y-76400370D01*
X103390400Y-75509416D01*
X103593600Y-75509416D01*
X103593600Y-75868016D01*
X103800708Y-75872377D01*
X104007816Y-75876739D01*
X104012101Y-76138554D01*
X104016387Y-76400370D01*
X104375139Y-76400370D01*
X104375139Y-75868923D01*
X105047262Y-75868923D01*
X105047262Y-75509416D01*
X103593600Y-75509416D01*
X103390400Y-75509416D01*
X103390400Y-75306216D01*
X103593600Y-75306216D01*
X105047262Y-75306216D01*
X105047262Y-74946708D01*
X103390400Y-74946708D01*
X103390400Y-74384000D01*
X103030893Y-74384000D01*
X102444739Y-74384000D01*
X102444739Y-74061118D01*
X102491631Y-73985404D01*
X102535116Y-73928736D01*
X102607413Y-73873306D01*
X102676302Y-73836923D01*
X103030893Y-73837016D01*
G36*
X103030893Y-73837016D02*
G01*
X103998551Y-73837267D01*
X104008624Y-73837269D01*
X104241862Y-73837360D01*
X104445974Y-73837528D01*
X104623015Y-73837817D01*
X104775037Y-73838270D01*
X104904094Y-73838930D01*
X105012239Y-73839841D01*
X105101527Y-73841046D01*
X105174008Y-73842588D01*
X105231739Y-73844511D01*
X105276771Y-73846858D01*
X105311158Y-73849672D01*
X105336953Y-73852997D01*
X105356210Y-73856875D01*
X105370983Y-73861350D01*
X105383323Y-73866466D01*
X105409949Y-73880111D01*
X105481491Y-73936450D01*
X105537105Y-74016677D01*
X105537411Y-74017269D01*
X105541775Y-74028479D01*
X105545598Y-74045199D01*
X105548914Y-74069412D01*
X105551762Y-74103097D01*
X105554178Y-74148235D01*
X105556197Y-74206808D01*
X105557856Y-74280795D01*
X105559192Y-74372179D01*
X105560241Y-74482939D01*
X105561039Y-74615056D01*
X105561622Y-74770511D01*
X105562028Y-74951286D01*
X105562292Y-75159360D01*
X105562451Y-75396715D01*
X105562488Y-75478891D01*
X105562552Y-75704058D01*
X105562513Y-75900687D01*
X105562331Y-76070817D01*
X105561961Y-76216487D01*
X105561362Y-76339738D01*
X105560490Y-76442608D01*
X105559302Y-76527137D01*
X105557757Y-76595365D01*
X105555812Y-76649332D01*
X105553423Y-76691076D01*
X105550548Y-76722638D01*
X105547145Y-76746058D01*
X105543171Y-76763374D01*
X105538582Y-76776626D01*
X105533337Y-76787854D01*
X105514817Y-76820224D01*
X105453457Y-76890496D01*
X105371889Y-76938885D01*
X105363680Y-76941809D01*
X105346702Y-76945813D01*
X105322576Y-76949290D01*
X105289290Y-76952278D01*
X105244836Y-76954812D01*
X105187205Y-76956928D01*
X105114388Y-76958661D01*
X105024374Y-76960047D01*
X104915154Y-76961121D01*
X104784720Y-76961921D01*
X104631062Y-76962480D01*
X104452171Y-76962836D01*
X104246037Y-76963023D01*
X104010650Y-76963077D01*
X103834802Y-76963017D01*
X103602263Y-76962700D01*
X103398732Y-76962096D01*
X103222872Y-76961186D01*
X103073344Y-76959953D01*
X102948809Y-76958379D01*
X102847929Y-76956445D01*
X102769364Y-76954134D01*
X102711777Y-76951427D01*
X102673828Y-76948306D01*
X102654179Y-76944753D01*
X102612970Y-76927850D01*
X102539174Y-76876710D01*
X102482006Y-76801473D01*
X102444739Y-76736431D01*
X102444739Y-74384000D01*
X103030893Y-74384000D01*
X103030893Y-76400370D01*
X103390400Y-76400370D01*
X103390400Y-75509416D01*
X103593600Y-75509416D01*
X103593600Y-75868016D01*
X103800708Y-75872377D01*
X104007816Y-75876739D01*
X104012101Y-76138554D01*
X104016387Y-76400370D01*
X104375139Y-76400370D01*
X104375139Y-75868923D01*
X105047262Y-75868923D01*
X105047262Y-75509416D01*
X103593600Y-75509416D01*
X103390400Y-75509416D01*
X103390400Y-75306216D01*
X103593600Y-75306216D01*
X105047262Y-75306216D01*
X105047262Y-74946708D01*
X103390400Y-74946708D01*
X103390400Y-74384000D01*
X103030893Y-74384000D01*
X102444739Y-74384000D01*
X102444739Y-74061118D01*
X102491631Y-73985404D01*
X102535116Y-73928736D01*
X102607413Y-73873306D01*
X102676302Y-73836923D01*
X103030893Y-73837016D01*
G37*
%TD*%
M02*
