%TF.GenerationSoftware,KiCad,Pcbnew,7.0.6-7.0.6~ubuntu22.04.1*%
%TF.CreationDate,2023-08-04T06:41:22+01:00*%
%TF.ProjectId,working,776f726b-696e-4672-9e6b-696361645f70,rev?*%
%TF.SameCoordinates,Original*%
%TF.FileFunction,AssemblyDrawing,Bot*%
%FSLAX46Y46*%
G04 Gerber Fmt 4.6, Leading zero omitted, Abs format (unit mm)*
G04 Created by KiCad (PCBNEW 7.0.6-7.0.6~ubuntu22.04.1) date 2023-08-04 06:41:22*
%MOMM*%
%LPD*%
G01*
G04 APERTURE LIST*
%ADD10C,0.150000*%
%ADD11C,0.120000*%
%ADD12C,0.100000*%
G04 APERTURE END LIST*
D10*
X119104819Y-52943452D02*
X119104819Y-52372024D01*
X119104819Y-52657738D02*
X118104819Y-52657738D01*
X118104819Y-52657738D02*
X118247676Y-52562500D01*
X118247676Y-52562500D02*
X118342914Y-52467262D01*
X118342914Y-52467262D02*
X118390533Y-52372024D01*
X118104819Y-53562500D02*
X118104819Y-53657738D01*
X118104819Y-53657738D02*
X118152438Y-53752976D01*
X118152438Y-53752976D02*
X118200057Y-53800595D01*
X118200057Y-53800595D02*
X118295295Y-53848214D01*
X118295295Y-53848214D02*
X118485771Y-53895833D01*
X118485771Y-53895833D02*
X118723866Y-53895833D01*
X118723866Y-53895833D02*
X118914342Y-53848214D01*
X118914342Y-53848214D02*
X119009580Y-53800595D01*
X119009580Y-53800595D02*
X119057200Y-53752976D01*
X119057200Y-53752976D02*
X119104819Y-53657738D01*
X119104819Y-53657738D02*
X119104819Y-53562500D01*
X119104819Y-53562500D02*
X119057200Y-53467262D01*
X119057200Y-53467262D02*
X119009580Y-53419643D01*
X119009580Y-53419643D02*
X118914342Y-53372024D01*
X118914342Y-53372024D02*
X118723866Y-53324405D01*
X118723866Y-53324405D02*
X118485771Y-53324405D01*
X118485771Y-53324405D02*
X118295295Y-53372024D01*
X118295295Y-53372024D02*
X118200057Y-53419643D01*
X118200057Y-53419643D02*
X118152438Y-53467262D01*
X118152438Y-53467262D02*
X118104819Y-53562500D01*
X118104819Y-54514881D02*
X118104819Y-54610119D01*
X118104819Y-54610119D02*
X118152438Y-54705357D01*
X118152438Y-54705357D02*
X118200057Y-54752976D01*
X118200057Y-54752976D02*
X118295295Y-54800595D01*
X118295295Y-54800595D02*
X118485771Y-54848214D01*
X118485771Y-54848214D02*
X118723866Y-54848214D01*
X118723866Y-54848214D02*
X118914342Y-54800595D01*
X118914342Y-54800595D02*
X119009580Y-54752976D01*
X119009580Y-54752976D02*
X119057200Y-54705357D01*
X119057200Y-54705357D02*
X119104819Y-54610119D01*
X119104819Y-54610119D02*
X119104819Y-54514881D01*
X119104819Y-54514881D02*
X119057200Y-54419643D01*
X119057200Y-54419643D02*
X119009580Y-54372024D01*
X119009580Y-54372024D02*
X118914342Y-54324405D01*
X118914342Y-54324405D02*
X118723866Y-54276786D01*
X118723866Y-54276786D02*
X118485771Y-54276786D01*
X118485771Y-54276786D02*
X118295295Y-54324405D01*
X118295295Y-54324405D02*
X118200057Y-54372024D01*
X118200057Y-54372024D02*
X118152438Y-54419643D01*
X118152438Y-54419643D02*
X118104819Y-54514881D01*
X118438152Y-55276786D02*
X119104819Y-55276786D01*
X118533390Y-55276786D02*
X118485771Y-55324405D01*
X118485771Y-55324405D02*
X118438152Y-55419643D01*
X118438152Y-55419643D02*
X118438152Y-55562500D01*
X118438152Y-55562500D02*
X118485771Y-55657738D01*
X118485771Y-55657738D02*
X118581009Y-55705357D01*
X118581009Y-55705357D02*
X119104819Y-55705357D01*
D11*
X120787664Y-53929167D02*
X120825760Y-53891071D01*
X120825760Y-53891071D02*
X120863855Y-53776786D01*
X120863855Y-53776786D02*
X120863855Y-53700595D01*
X120863855Y-53700595D02*
X120825760Y-53586309D01*
X120825760Y-53586309D02*
X120749569Y-53510119D01*
X120749569Y-53510119D02*
X120673379Y-53472024D01*
X120673379Y-53472024D02*
X120520998Y-53433928D01*
X120520998Y-53433928D02*
X120406712Y-53433928D01*
X120406712Y-53433928D02*
X120254331Y-53472024D01*
X120254331Y-53472024D02*
X120178140Y-53510119D01*
X120178140Y-53510119D02*
X120101950Y-53586309D01*
X120101950Y-53586309D02*
X120063855Y-53700595D01*
X120063855Y-53700595D02*
X120063855Y-53776786D01*
X120063855Y-53776786D02*
X120101950Y-53891071D01*
X120101950Y-53891071D02*
X120140045Y-53929167D01*
X120140045Y-54233928D02*
X120101950Y-54272024D01*
X120101950Y-54272024D02*
X120063855Y-54348214D01*
X120063855Y-54348214D02*
X120063855Y-54538690D01*
X120063855Y-54538690D02*
X120101950Y-54614881D01*
X120101950Y-54614881D02*
X120140045Y-54652976D01*
X120140045Y-54652976D02*
X120216236Y-54691071D01*
X120216236Y-54691071D02*
X120292426Y-54691071D01*
X120292426Y-54691071D02*
X120406712Y-54652976D01*
X120406712Y-54652976D02*
X120863855Y-54195833D01*
X120863855Y-54195833D02*
X120863855Y-54691071D01*
D10*
X186604819Y-58380952D02*
X186604819Y-57809524D01*
X186604819Y-58095238D02*
X185604819Y-58095238D01*
X185604819Y-58095238D02*
X185747676Y-58000000D01*
X185747676Y-58000000D02*
X185842914Y-57904762D01*
X185842914Y-57904762D02*
X185890533Y-57809524D01*
X185604819Y-59000000D02*
X185604819Y-59095238D01*
X185604819Y-59095238D02*
X185652438Y-59190476D01*
X185652438Y-59190476D02*
X185700057Y-59238095D01*
X185700057Y-59238095D02*
X185795295Y-59285714D01*
X185795295Y-59285714D02*
X185985771Y-59333333D01*
X185985771Y-59333333D02*
X186223866Y-59333333D01*
X186223866Y-59333333D02*
X186414342Y-59285714D01*
X186414342Y-59285714D02*
X186509580Y-59238095D01*
X186509580Y-59238095D02*
X186557200Y-59190476D01*
X186557200Y-59190476D02*
X186604819Y-59095238D01*
X186604819Y-59095238D02*
X186604819Y-59000000D01*
X186604819Y-59000000D02*
X186557200Y-58904762D01*
X186557200Y-58904762D02*
X186509580Y-58857143D01*
X186509580Y-58857143D02*
X186414342Y-58809524D01*
X186414342Y-58809524D02*
X186223866Y-58761905D01*
X186223866Y-58761905D02*
X185985771Y-58761905D01*
X185985771Y-58761905D02*
X185795295Y-58809524D01*
X185795295Y-58809524D02*
X185700057Y-58857143D01*
X185700057Y-58857143D02*
X185652438Y-58904762D01*
X185652438Y-58904762D02*
X185604819Y-59000000D01*
X185604819Y-59952381D02*
X185604819Y-60047619D01*
X185604819Y-60047619D02*
X185652438Y-60142857D01*
X185652438Y-60142857D02*
X185700057Y-60190476D01*
X185700057Y-60190476D02*
X185795295Y-60238095D01*
X185795295Y-60238095D02*
X185985771Y-60285714D01*
X185985771Y-60285714D02*
X186223866Y-60285714D01*
X186223866Y-60285714D02*
X186414342Y-60238095D01*
X186414342Y-60238095D02*
X186509580Y-60190476D01*
X186509580Y-60190476D02*
X186557200Y-60142857D01*
X186557200Y-60142857D02*
X186604819Y-60047619D01*
X186604819Y-60047619D02*
X186604819Y-59952381D01*
X186604819Y-59952381D02*
X186557200Y-59857143D01*
X186557200Y-59857143D02*
X186509580Y-59809524D01*
X186509580Y-59809524D02*
X186414342Y-59761905D01*
X186414342Y-59761905D02*
X186223866Y-59714286D01*
X186223866Y-59714286D02*
X185985771Y-59714286D01*
X185985771Y-59714286D02*
X185795295Y-59761905D01*
X185795295Y-59761905D02*
X185700057Y-59809524D01*
X185700057Y-59809524D02*
X185652438Y-59857143D01*
X185652438Y-59857143D02*
X185604819Y-59952381D01*
X185938152Y-60714286D02*
X186604819Y-60714286D01*
X186033390Y-60714286D02*
X185985771Y-60761905D01*
X185985771Y-60761905D02*
X185938152Y-60857143D01*
X185938152Y-60857143D02*
X185938152Y-61000000D01*
X185938152Y-61000000D02*
X185985771Y-61095238D01*
X185985771Y-61095238D02*
X186081009Y-61142857D01*
X186081009Y-61142857D02*
X186604819Y-61142857D01*
D11*
X188287664Y-58985714D02*
X188325760Y-58947618D01*
X188325760Y-58947618D02*
X188363855Y-58833333D01*
X188363855Y-58833333D02*
X188363855Y-58757142D01*
X188363855Y-58757142D02*
X188325760Y-58642856D01*
X188325760Y-58642856D02*
X188249569Y-58566666D01*
X188249569Y-58566666D02*
X188173379Y-58528571D01*
X188173379Y-58528571D02*
X188020998Y-58490475D01*
X188020998Y-58490475D02*
X187906712Y-58490475D01*
X187906712Y-58490475D02*
X187754331Y-58528571D01*
X187754331Y-58528571D02*
X187678140Y-58566666D01*
X187678140Y-58566666D02*
X187601950Y-58642856D01*
X187601950Y-58642856D02*
X187563855Y-58757142D01*
X187563855Y-58757142D02*
X187563855Y-58833333D01*
X187563855Y-58833333D02*
X187601950Y-58947618D01*
X187601950Y-58947618D02*
X187640045Y-58985714D01*
X188363855Y-59747618D02*
X188363855Y-59290475D01*
X188363855Y-59519047D02*
X187563855Y-59519047D01*
X187563855Y-59519047D02*
X187678140Y-59442856D01*
X187678140Y-59442856D02*
X187754331Y-59366666D01*
X187754331Y-59366666D02*
X187792426Y-59290475D01*
X187906712Y-60204761D02*
X187868617Y-60128571D01*
X187868617Y-60128571D02*
X187830521Y-60090476D01*
X187830521Y-60090476D02*
X187754331Y-60052380D01*
X187754331Y-60052380D02*
X187716236Y-60052380D01*
X187716236Y-60052380D02*
X187640045Y-60090476D01*
X187640045Y-60090476D02*
X187601950Y-60128571D01*
X187601950Y-60128571D02*
X187563855Y-60204761D01*
X187563855Y-60204761D02*
X187563855Y-60357142D01*
X187563855Y-60357142D02*
X187601950Y-60433333D01*
X187601950Y-60433333D02*
X187640045Y-60471428D01*
X187640045Y-60471428D02*
X187716236Y-60509523D01*
X187716236Y-60509523D02*
X187754331Y-60509523D01*
X187754331Y-60509523D02*
X187830521Y-60471428D01*
X187830521Y-60471428D02*
X187868617Y-60433333D01*
X187868617Y-60433333D02*
X187906712Y-60357142D01*
X187906712Y-60357142D02*
X187906712Y-60204761D01*
X187906712Y-60204761D02*
X187944807Y-60128571D01*
X187944807Y-60128571D02*
X187982902Y-60090476D01*
X187982902Y-60090476D02*
X188059093Y-60052380D01*
X188059093Y-60052380D02*
X188211474Y-60052380D01*
X188211474Y-60052380D02*
X188287664Y-60090476D01*
X188287664Y-60090476D02*
X188325760Y-60128571D01*
X188325760Y-60128571D02*
X188363855Y-60204761D01*
X188363855Y-60204761D02*
X188363855Y-60357142D01*
X188363855Y-60357142D02*
X188325760Y-60433333D01*
X188325760Y-60433333D02*
X188287664Y-60471428D01*
X188287664Y-60471428D02*
X188211474Y-60509523D01*
X188211474Y-60509523D02*
X188059093Y-60509523D01*
X188059093Y-60509523D02*
X187982902Y-60471428D01*
X187982902Y-60471428D02*
X187944807Y-60433333D01*
X187944807Y-60433333D02*
X187906712Y-60357142D01*
D10*
X116104819Y-58443452D02*
X116104819Y-57872024D01*
X116104819Y-58157738D02*
X115104819Y-58157738D01*
X115104819Y-58157738D02*
X115247676Y-58062500D01*
X115247676Y-58062500D02*
X115342914Y-57967262D01*
X115342914Y-57967262D02*
X115390533Y-57872024D01*
X115104819Y-59062500D02*
X115104819Y-59157738D01*
X115104819Y-59157738D02*
X115152438Y-59252976D01*
X115152438Y-59252976D02*
X115200057Y-59300595D01*
X115200057Y-59300595D02*
X115295295Y-59348214D01*
X115295295Y-59348214D02*
X115485771Y-59395833D01*
X115485771Y-59395833D02*
X115723866Y-59395833D01*
X115723866Y-59395833D02*
X115914342Y-59348214D01*
X115914342Y-59348214D02*
X116009580Y-59300595D01*
X116009580Y-59300595D02*
X116057200Y-59252976D01*
X116057200Y-59252976D02*
X116104819Y-59157738D01*
X116104819Y-59157738D02*
X116104819Y-59062500D01*
X116104819Y-59062500D02*
X116057200Y-58967262D01*
X116057200Y-58967262D02*
X116009580Y-58919643D01*
X116009580Y-58919643D02*
X115914342Y-58872024D01*
X115914342Y-58872024D02*
X115723866Y-58824405D01*
X115723866Y-58824405D02*
X115485771Y-58824405D01*
X115485771Y-58824405D02*
X115295295Y-58872024D01*
X115295295Y-58872024D02*
X115200057Y-58919643D01*
X115200057Y-58919643D02*
X115152438Y-58967262D01*
X115152438Y-58967262D02*
X115104819Y-59062500D01*
X115104819Y-60014881D02*
X115104819Y-60110119D01*
X115104819Y-60110119D02*
X115152438Y-60205357D01*
X115152438Y-60205357D02*
X115200057Y-60252976D01*
X115200057Y-60252976D02*
X115295295Y-60300595D01*
X115295295Y-60300595D02*
X115485771Y-60348214D01*
X115485771Y-60348214D02*
X115723866Y-60348214D01*
X115723866Y-60348214D02*
X115914342Y-60300595D01*
X115914342Y-60300595D02*
X116009580Y-60252976D01*
X116009580Y-60252976D02*
X116057200Y-60205357D01*
X116057200Y-60205357D02*
X116104819Y-60110119D01*
X116104819Y-60110119D02*
X116104819Y-60014881D01*
X116104819Y-60014881D02*
X116057200Y-59919643D01*
X116057200Y-59919643D02*
X116009580Y-59872024D01*
X116009580Y-59872024D02*
X115914342Y-59824405D01*
X115914342Y-59824405D02*
X115723866Y-59776786D01*
X115723866Y-59776786D02*
X115485771Y-59776786D01*
X115485771Y-59776786D02*
X115295295Y-59824405D01*
X115295295Y-59824405D02*
X115200057Y-59872024D01*
X115200057Y-59872024D02*
X115152438Y-59919643D01*
X115152438Y-59919643D02*
X115104819Y-60014881D01*
X115438152Y-60776786D02*
X116104819Y-60776786D01*
X115533390Y-60776786D02*
X115485771Y-60824405D01*
X115485771Y-60824405D02*
X115438152Y-60919643D01*
X115438152Y-60919643D02*
X115438152Y-61062500D01*
X115438152Y-61062500D02*
X115485771Y-61157738D01*
X115485771Y-61157738D02*
X115581009Y-61205357D01*
X115581009Y-61205357D02*
X116104819Y-61205357D01*
D11*
X117787664Y-59429167D02*
X117825760Y-59391071D01*
X117825760Y-59391071D02*
X117863855Y-59276786D01*
X117863855Y-59276786D02*
X117863855Y-59200595D01*
X117863855Y-59200595D02*
X117825760Y-59086309D01*
X117825760Y-59086309D02*
X117749569Y-59010119D01*
X117749569Y-59010119D02*
X117673379Y-58972024D01*
X117673379Y-58972024D02*
X117520998Y-58933928D01*
X117520998Y-58933928D02*
X117406712Y-58933928D01*
X117406712Y-58933928D02*
X117254331Y-58972024D01*
X117254331Y-58972024D02*
X117178140Y-59010119D01*
X117178140Y-59010119D02*
X117101950Y-59086309D01*
X117101950Y-59086309D02*
X117063855Y-59200595D01*
X117063855Y-59200595D02*
X117063855Y-59276786D01*
X117063855Y-59276786D02*
X117101950Y-59391071D01*
X117101950Y-59391071D02*
X117140045Y-59429167D01*
X117063855Y-59695833D02*
X117063855Y-60191071D01*
X117063855Y-60191071D02*
X117368617Y-59924405D01*
X117368617Y-59924405D02*
X117368617Y-60038690D01*
X117368617Y-60038690D02*
X117406712Y-60114881D01*
X117406712Y-60114881D02*
X117444807Y-60152976D01*
X117444807Y-60152976D02*
X117520998Y-60191071D01*
X117520998Y-60191071D02*
X117711474Y-60191071D01*
X117711474Y-60191071D02*
X117787664Y-60152976D01*
X117787664Y-60152976D02*
X117825760Y-60114881D01*
X117825760Y-60114881D02*
X117863855Y-60038690D01*
X117863855Y-60038690D02*
X117863855Y-59810119D01*
X117863855Y-59810119D02*
X117825760Y-59733928D01*
X117825760Y-59733928D02*
X117787664Y-59695833D01*
D10*
X119104819Y-58443452D02*
X119104819Y-57872024D01*
X119104819Y-58157738D02*
X118104819Y-58157738D01*
X118104819Y-58157738D02*
X118247676Y-58062500D01*
X118247676Y-58062500D02*
X118342914Y-57967262D01*
X118342914Y-57967262D02*
X118390533Y-57872024D01*
X118104819Y-59062500D02*
X118104819Y-59157738D01*
X118104819Y-59157738D02*
X118152438Y-59252976D01*
X118152438Y-59252976D02*
X118200057Y-59300595D01*
X118200057Y-59300595D02*
X118295295Y-59348214D01*
X118295295Y-59348214D02*
X118485771Y-59395833D01*
X118485771Y-59395833D02*
X118723866Y-59395833D01*
X118723866Y-59395833D02*
X118914342Y-59348214D01*
X118914342Y-59348214D02*
X119009580Y-59300595D01*
X119009580Y-59300595D02*
X119057200Y-59252976D01*
X119057200Y-59252976D02*
X119104819Y-59157738D01*
X119104819Y-59157738D02*
X119104819Y-59062500D01*
X119104819Y-59062500D02*
X119057200Y-58967262D01*
X119057200Y-58967262D02*
X119009580Y-58919643D01*
X119009580Y-58919643D02*
X118914342Y-58872024D01*
X118914342Y-58872024D02*
X118723866Y-58824405D01*
X118723866Y-58824405D02*
X118485771Y-58824405D01*
X118485771Y-58824405D02*
X118295295Y-58872024D01*
X118295295Y-58872024D02*
X118200057Y-58919643D01*
X118200057Y-58919643D02*
X118152438Y-58967262D01*
X118152438Y-58967262D02*
X118104819Y-59062500D01*
X118104819Y-60014881D02*
X118104819Y-60110119D01*
X118104819Y-60110119D02*
X118152438Y-60205357D01*
X118152438Y-60205357D02*
X118200057Y-60252976D01*
X118200057Y-60252976D02*
X118295295Y-60300595D01*
X118295295Y-60300595D02*
X118485771Y-60348214D01*
X118485771Y-60348214D02*
X118723866Y-60348214D01*
X118723866Y-60348214D02*
X118914342Y-60300595D01*
X118914342Y-60300595D02*
X119009580Y-60252976D01*
X119009580Y-60252976D02*
X119057200Y-60205357D01*
X119057200Y-60205357D02*
X119104819Y-60110119D01*
X119104819Y-60110119D02*
X119104819Y-60014881D01*
X119104819Y-60014881D02*
X119057200Y-59919643D01*
X119057200Y-59919643D02*
X119009580Y-59872024D01*
X119009580Y-59872024D02*
X118914342Y-59824405D01*
X118914342Y-59824405D02*
X118723866Y-59776786D01*
X118723866Y-59776786D02*
X118485771Y-59776786D01*
X118485771Y-59776786D02*
X118295295Y-59824405D01*
X118295295Y-59824405D02*
X118200057Y-59872024D01*
X118200057Y-59872024D02*
X118152438Y-59919643D01*
X118152438Y-59919643D02*
X118104819Y-60014881D01*
X118438152Y-60776786D02*
X119104819Y-60776786D01*
X118533390Y-60776786D02*
X118485771Y-60824405D01*
X118485771Y-60824405D02*
X118438152Y-60919643D01*
X118438152Y-60919643D02*
X118438152Y-61062500D01*
X118438152Y-61062500D02*
X118485771Y-61157738D01*
X118485771Y-61157738D02*
X118581009Y-61205357D01*
X118581009Y-61205357D02*
X119104819Y-61205357D01*
D11*
X120787664Y-59429167D02*
X120825760Y-59391071D01*
X120825760Y-59391071D02*
X120863855Y-59276786D01*
X120863855Y-59276786D02*
X120863855Y-59200595D01*
X120863855Y-59200595D02*
X120825760Y-59086309D01*
X120825760Y-59086309D02*
X120749569Y-59010119D01*
X120749569Y-59010119D02*
X120673379Y-58972024D01*
X120673379Y-58972024D02*
X120520998Y-58933928D01*
X120520998Y-58933928D02*
X120406712Y-58933928D01*
X120406712Y-58933928D02*
X120254331Y-58972024D01*
X120254331Y-58972024D02*
X120178140Y-59010119D01*
X120178140Y-59010119D02*
X120101950Y-59086309D01*
X120101950Y-59086309D02*
X120063855Y-59200595D01*
X120063855Y-59200595D02*
X120063855Y-59276786D01*
X120063855Y-59276786D02*
X120101950Y-59391071D01*
X120101950Y-59391071D02*
X120140045Y-59429167D01*
X120863855Y-60191071D02*
X120863855Y-59733928D01*
X120863855Y-59962500D02*
X120063855Y-59962500D01*
X120063855Y-59962500D02*
X120178140Y-59886309D01*
X120178140Y-59886309D02*
X120254331Y-59810119D01*
X120254331Y-59810119D02*
X120292426Y-59733928D01*
D10*
X116104819Y-52943452D02*
X116104819Y-52372024D01*
X116104819Y-52657738D02*
X115104819Y-52657738D01*
X115104819Y-52657738D02*
X115247676Y-52562500D01*
X115247676Y-52562500D02*
X115342914Y-52467262D01*
X115342914Y-52467262D02*
X115390533Y-52372024D01*
X115104819Y-53562500D02*
X115104819Y-53657738D01*
X115104819Y-53657738D02*
X115152438Y-53752976D01*
X115152438Y-53752976D02*
X115200057Y-53800595D01*
X115200057Y-53800595D02*
X115295295Y-53848214D01*
X115295295Y-53848214D02*
X115485771Y-53895833D01*
X115485771Y-53895833D02*
X115723866Y-53895833D01*
X115723866Y-53895833D02*
X115914342Y-53848214D01*
X115914342Y-53848214D02*
X116009580Y-53800595D01*
X116009580Y-53800595D02*
X116057200Y-53752976D01*
X116057200Y-53752976D02*
X116104819Y-53657738D01*
X116104819Y-53657738D02*
X116104819Y-53562500D01*
X116104819Y-53562500D02*
X116057200Y-53467262D01*
X116057200Y-53467262D02*
X116009580Y-53419643D01*
X116009580Y-53419643D02*
X115914342Y-53372024D01*
X115914342Y-53372024D02*
X115723866Y-53324405D01*
X115723866Y-53324405D02*
X115485771Y-53324405D01*
X115485771Y-53324405D02*
X115295295Y-53372024D01*
X115295295Y-53372024D02*
X115200057Y-53419643D01*
X115200057Y-53419643D02*
X115152438Y-53467262D01*
X115152438Y-53467262D02*
X115104819Y-53562500D01*
X115104819Y-54514881D02*
X115104819Y-54610119D01*
X115104819Y-54610119D02*
X115152438Y-54705357D01*
X115152438Y-54705357D02*
X115200057Y-54752976D01*
X115200057Y-54752976D02*
X115295295Y-54800595D01*
X115295295Y-54800595D02*
X115485771Y-54848214D01*
X115485771Y-54848214D02*
X115723866Y-54848214D01*
X115723866Y-54848214D02*
X115914342Y-54800595D01*
X115914342Y-54800595D02*
X116009580Y-54752976D01*
X116009580Y-54752976D02*
X116057200Y-54705357D01*
X116057200Y-54705357D02*
X116104819Y-54610119D01*
X116104819Y-54610119D02*
X116104819Y-54514881D01*
X116104819Y-54514881D02*
X116057200Y-54419643D01*
X116057200Y-54419643D02*
X116009580Y-54372024D01*
X116009580Y-54372024D02*
X115914342Y-54324405D01*
X115914342Y-54324405D02*
X115723866Y-54276786D01*
X115723866Y-54276786D02*
X115485771Y-54276786D01*
X115485771Y-54276786D02*
X115295295Y-54324405D01*
X115295295Y-54324405D02*
X115200057Y-54372024D01*
X115200057Y-54372024D02*
X115152438Y-54419643D01*
X115152438Y-54419643D02*
X115104819Y-54514881D01*
X115438152Y-55276786D02*
X116104819Y-55276786D01*
X115533390Y-55276786D02*
X115485771Y-55324405D01*
X115485771Y-55324405D02*
X115438152Y-55419643D01*
X115438152Y-55419643D02*
X115438152Y-55562500D01*
X115438152Y-55562500D02*
X115485771Y-55657738D01*
X115485771Y-55657738D02*
X115581009Y-55705357D01*
X115581009Y-55705357D02*
X116104819Y-55705357D01*
D11*
X117787664Y-53929167D02*
X117825760Y-53891071D01*
X117825760Y-53891071D02*
X117863855Y-53776786D01*
X117863855Y-53776786D02*
X117863855Y-53700595D01*
X117863855Y-53700595D02*
X117825760Y-53586309D01*
X117825760Y-53586309D02*
X117749569Y-53510119D01*
X117749569Y-53510119D02*
X117673379Y-53472024D01*
X117673379Y-53472024D02*
X117520998Y-53433928D01*
X117520998Y-53433928D02*
X117406712Y-53433928D01*
X117406712Y-53433928D02*
X117254331Y-53472024D01*
X117254331Y-53472024D02*
X117178140Y-53510119D01*
X117178140Y-53510119D02*
X117101950Y-53586309D01*
X117101950Y-53586309D02*
X117063855Y-53700595D01*
X117063855Y-53700595D02*
X117063855Y-53776786D01*
X117063855Y-53776786D02*
X117101950Y-53891071D01*
X117101950Y-53891071D02*
X117140045Y-53929167D01*
X117330521Y-54614881D02*
X117863855Y-54614881D01*
X117025760Y-54424405D02*
X117597188Y-54233928D01*
X117597188Y-54233928D02*
X117597188Y-54729167D01*
D10*
X189604819Y-52943452D02*
X189604819Y-52372024D01*
X189604819Y-52657738D02*
X188604819Y-52657738D01*
X188604819Y-52657738D02*
X188747676Y-52562500D01*
X188747676Y-52562500D02*
X188842914Y-52467262D01*
X188842914Y-52467262D02*
X188890533Y-52372024D01*
X188604819Y-53562500D02*
X188604819Y-53657738D01*
X188604819Y-53657738D02*
X188652438Y-53752976D01*
X188652438Y-53752976D02*
X188700057Y-53800595D01*
X188700057Y-53800595D02*
X188795295Y-53848214D01*
X188795295Y-53848214D02*
X188985771Y-53895833D01*
X188985771Y-53895833D02*
X189223866Y-53895833D01*
X189223866Y-53895833D02*
X189414342Y-53848214D01*
X189414342Y-53848214D02*
X189509580Y-53800595D01*
X189509580Y-53800595D02*
X189557200Y-53752976D01*
X189557200Y-53752976D02*
X189604819Y-53657738D01*
X189604819Y-53657738D02*
X189604819Y-53562500D01*
X189604819Y-53562500D02*
X189557200Y-53467262D01*
X189557200Y-53467262D02*
X189509580Y-53419643D01*
X189509580Y-53419643D02*
X189414342Y-53372024D01*
X189414342Y-53372024D02*
X189223866Y-53324405D01*
X189223866Y-53324405D02*
X188985771Y-53324405D01*
X188985771Y-53324405D02*
X188795295Y-53372024D01*
X188795295Y-53372024D02*
X188700057Y-53419643D01*
X188700057Y-53419643D02*
X188652438Y-53467262D01*
X188652438Y-53467262D02*
X188604819Y-53562500D01*
X188604819Y-54514881D02*
X188604819Y-54610119D01*
X188604819Y-54610119D02*
X188652438Y-54705357D01*
X188652438Y-54705357D02*
X188700057Y-54752976D01*
X188700057Y-54752976D02*
X188795295Y-54800595D01*
X188795295Y-54800595D02*
X188985771Y-54848214D01*
X188985771Y-54848214D02*
X189223866Y-54848214D01*
X189223866Y-54848214D02*
X189414342Y-54800595D01*
X189414342Y-54800595D02*
X189509580Y-54752976D01*
X189509580Y-54752976D02*
X189557200Y-54705357D01*
X189557200Y-54705357D02*
X189604819Y-54610119D01*
X189604819Y-54610119D02*
X189604819Y-54514881D01*
X189604819Y-54514881D02*
X189557200Y-54419643D01*
X189557200Y-54419643D02*
X189509580Y-54372024D01*
X189509580Y-54372024D02*
X189414342Y-54324405D01*
X189414342Y-54324405D02*
X189223866Y-54276786D01*
X189223866Y-54276786D02*
X188985771Y-54276786D01*
X188985771Y-54276786D02*
X188795295Y-54324405D01*
X188795295Y-54324405D02*
X188700057Y-54372024D01*
X188700057Y-54372024D02*
X188652438Y-54419643D01*
X188652438Y-54419643D02*
X188604819Y-54514881D01*
X188938152Y-55276786D02*
X189604819Y-55276786D01*
X189033390Y-55276786D02*
X188985771Y-55324405D01*
X188985771Y-55324405D02*
X188938152Y-55419643D01*
X188938152Y-55419643D02*
X188938152Y-55562500D01*
X188938152Y-55562500D02*
X188985771Y-55657738D01*
X188985771Y-55657738D02*
X189081009Y-55705357D01*
X189081009Y-55705357D02*
X189604819Y-55705357D01*
D11*
X191287664Y-53548214D02*
X191325760Y-53510118D01*
X191325760Y-53510118D02*
X191363855Y-53395833D01*
X191363855Y-53395833D02*
X191363855Y-53319642D01*
X191363855Y-53319642D02*
X191325760Y-53205356D01*
X191325760Y-53205356D02*
X191249569Y-53129166D01*
X191249569Y-53129166D02*
X191173379Y-53091071D01*
X191173379Y-53091071D02*
X191020998Y-53052975D01*
X191020998Y-53052975D02*
X190906712Y-53052975D01*
X190906712Y-53052975D02*
X190754331Y-53091071D01*
X190754331Y-53091071D02*
X190678140Y-53129166D01*
X190678140Y-53129166D02*
X190601950Y-53205356D01*
X190601950Y-53205356D02*
X190563855Y-53319642D01*
X190563855Y-53319642D02*
X190563855Y-53395833D01*
X190563855Y-53395833D02*
X190601950Y-53510118D01*
X190601950Y-53510118D02*
X190640045Y-53548214D01*
X190640045Y-53852975D02*
X190601950Y-53891071D01*
X190601950Y-53891071D02*
X190563855Y-53967261D01*
X190563855Y-53967261D02*
X190563855Y-54157737D01*
X190563855Y-54157737D02*
X190601950Y-54233928D01*
X190601950Y-54233928D02*
X190640045Y-54272023D01*
X190640045Y-54272023D02*
X190716236Y-54310118D01*
X190716236Y-54310118D02*
X190792426Y-54310118D01*
X190792426Y-54310118D02*
X190906712Y-54272023D01*
X190906712Y-54272023D02*
X191363855Y-53814880D01*
X191363855Y-53814880D02*
X191363855Y-54310118D01*
X191363855Y-55072023D02*
X191363855Y-54614880D01*
X191363855Y-54843452D02*
X190563855Y-54843452D01*
X190563855Y-54843452D02*
X190678140Y-54767261D01*
X190678140Y-54767261D02*
X190754331Y-54691071D01*
X190754331Y-54691071D02*
X190792426Y-54614880D01*
D10*
X192604819Y-52943452D02*
X192604819Y-52372024D01*
X192604819Y-52657738D02*
X191604819Y-52657738D01*
X191604819Y-52657738D02*
X191747676Y-52562500D01*
X191747676Y-52562500D02*
X191842914Y-52467262D01*
X191842914Y-52467262D02*
X191890533Y-52372024D01*
X191604819Y-53562500D02*
X191604819Y-53657738D01*
X191604819Y-53657738D02*
X191652438Y-53752976D01*
X191652438Y-53752976D02*
X191700057Y-53800595D01*
X191700057Y-53800595D02*
X191795295Y-53848214D01*
X191795295Y-53848214D02*
X191985771Y-53895833D01*
X191985771Y-53895833D02*
X192223866Y-53895833D01*
X192223866Y-53895833D02*
X192414342Y-53848214D01*
X192414342Y-53848214D02*
X192509580Y-53800595D01*
X192509580Y-53800595D02*
X192557200Y-53752976D01*
X192557200Y-53752976D02*
X192604819Y-53657738D01*
X192604819Y-53657738D02*
X192604819Y-53562500D01*
X192604819Y-53562500D02*
X192557200Y-53467262D01*
X192557200Y-53467262D02*
X192509580Y-53419643D01*
X192509580Y-53419643D02*
X192414342Y-53372024D01*
X192414342Y-53372024D02*
X192223866Y-53324405D01*
X192223866Y-53324405D02*
X191985771Y-53324405D01*
X191985771Y-53324405D02*
X191795295Y-53372024D01*
X191795295Y-53372024D02*
X191700057Y-53419643D01*
X191700057Y-53419643D02*
X191652438Y-53467262D01*
X191652438Y-53467262D02*
X191604819Y-53562500D01*
X191604819Y-54514881D02*
X191604819Y-54610119D01*
X191604819Y-54610119D02*
X191652438Y-54705357D01*
X191652438Y-54705357D02*
X191700057Y-54752976D01*
X191700057Y-54752976D02*
X191795295Y-54800595D01*
X191795295Y-54800595D02*
X191985771Y-54848214D01*
X191985771Y-54848214D02*
X192223866Y-54848214D01*
X192223866Y-54848214D02*
X192414342Y-54800595D01*
X192414342Y-54800595D02*
X192509580Y-54752976D01*
X192509580Y-54752976D02*
X192557200Y-54705357D01*
X192557200Y-54705357D02*
X192604819Y-54610119D01*
X192604819Y-54610119D02*
X192604819Y-54514881D01*
X192604819Y-54514881D02*
X192557200Y-54419643D01*
X192557200Y-54419643D02*
X192509580Y-54372024D01*
X192509580Y-54372024D02*
X192414342Y-54324405D01*
X192414342Y-54324405D02*
X192223866Y-54276786D01*
X192223866Y-54276786D02*
X191985771Y-54276786D01*
X191985771Y-54276786D02*
X191795295Y-54324405D01*
X191795295Y-54324405D02*
X191700057Y-54372024D01*
X191700057Y-54372024D02*
X191652438Y-54419643D01*
X191652438Y-54419643D02*
X191604819Y-54514881D01*
X191938152Y-55276786D02*
X192604819Y-55276786D01*
X192033390Y-55276786D02*
X191985771Y-55324405D01*
X191985771Y-55324405D02*
X191938152Y-55419643D01*
X191938152Y-55419643D02*
X191938152Y-55562500D01*
X191938152Y-55562500D02*
X191985771Y-55657738D01*
X191985771Y-55657738D02*
X192081009Y-55705357D01*
X192081009Y-55705357D02*
X192604819Y-55705357D01*
D11*
X194287664Y-53548214D02*
X194325760Y-53510118D01*
X194325760Y-53510118D02*
X194363855Y-53395833D01*
X194363855Y-53395833D02*
X194363855Y-53319642D01*
X194363855Y-53319642D02*
X194325760Y-53205356D01*
X194325760Y-53205356D02*
X194249569Y-53129166D01*
X194249569Y-53129166D02*
X194173379Y-53091071D01*
X194173379Y-53091071D02*
X194020998Y-53052975D01*
X194020998Y-53052975D02*
X193906712Y-53052975D01*
X193906712Y-53052975D02*
X193754331Y-53091071D01*
X193754331Y-53091071D02*
X193678140Y-53129166D01*
X193678140Y-53129166D02*
X193601950Y-53205356D01*
X193601950Y-53205356D02*
X193563855Y-53319642D01*
X193563855Y-53319642D02*
X193563855Y-53395833D01*
X193563855Y-53395833D02*
X193601950Y-53510118D01*
X193601950Y-53510118D02*
X193640045Y-53548214D01*
X193640045Y-53852975D02*
X193601950Y-53891071D01*
X193601950Y-53891071D02*
X193563855Y-53967261D01*
X193563855Y-53967261D02*
X193563855Y-54157737D01*
X193563855Y-54157737D02*
X193601950Y-54233928D01*
X193601950Y-54233928D02*
X193640045Y-54272023D01*
X193640045Y-54272023D02*
X193716236Y-54310118D01*
X193716236Y-54310118D02*
X193792426Y-54310118D01*
X193792426Y-54310118D02*
X193906712Y-54272023D01*
X193906712Y-54272023D02*
X194363855Y-53814880D01*
X194363855Y-53814880D02*
X194363855Y-54310118D01*
X193563855Y-54576785D02*
X193563855Y-55072023D01*
X193563855Y-55072023D02*
X193868617Y-54805357D01*
X193868617Y-54805357D02*
X193868617Y-54919642D01*
X193868617Y-54919642D02*
X193906712Y-54995833D01*
X193906712Y-54995833D02*
X193944807Y-55033928D01*
X193944807Y-55033928D02*
X194020998Y-55072023D01*
X194020998Y-55072023D02*
X194211474Y-55072023D01*
X194211474Y-55072023D02*
X194287664Y-55033928D01*
X194287664Y-55033928D02*
X194325760Y-54995833D01*
X194325760Y-54995833D02*
X194363855Y-54919642D01*
X194363855Y-54919642D02*
X194363855Y-54691071D01*
X194363855Y-54691071D02*
X194325760Y-54614880D01*
X194325760Y-54614880D02*
X194287664Y-54576785D01*
D10*
X192604819Y-58380952D02*
X192604819Y-57809524D01*
X192604819Y-58095238D02*
X191604819Y-58095238D01*
X191604819Y-58095238D02*
X191747676Y-58000000D01*
X191747676Y-58000000D02*
X191842914Y-57904762D01*
X191842914Y-57904762D02*
X191890533Y-57809524D01*
X191604819Y-59000000D02*
X191604819Y-59095238D01*
X191604819Y-59095238D02*
X191652438Y-59190476D01*
X191652438Y-59190476D02*
X191700057Y-59238095D01*
X191700057Y-59238095D02*
X191795295Y-59285714D01*
X191795295Y-59285714D02*
X191985771Y-59333333D01*
X191985771Y-59333333D02*
X192223866Y-59333333D01*
X192223866Y-59333333D02*
X192414342Y-59285714D01*
X192414342Y-59285714D02*
X192509580Y-59238095D01*
X192509580Y-59238095D02*
X192557200Y-59190476D01*
X192557200Y-59190476D02*
X192604819Y-59095238D01*
X192604819Y-59095238D02*
X192604819Y-59000000D01*
X192604819Y-59000000D02*
X192557200Y-58904762D01*
X192557200Y-58904762D02*
X192509580Y-58857143D01*
X192509580Y-58857143D02*
X192414342Y-58809524D01*
X192414342Y-58809524D02*
X192223866Y-58761905D01*
X192223866Y-58761905D02*
X191985771Y-58761905D01*
X191985771Y-58761905D02*
X191795295Y-58809524D01*
X191795295Y-58809524D02*
X191700057Y-58857143D01*
X191700057Y-58857143D02*
X191652438Y-58904762D01*
X191652438Y-58904762D02*
X191604819Y-59000000D01*
X191604819Y-59952381D02*
X191604819Y-60047619D01*
X191604819Y-60047619D02*
X191652438Y-60142857D01*
X191652438Y-60142857D02*
X191700057Y-60190476D01*
X191700057Y-60190476D02*
X191795295Y-60238095D01*
X191795295Y-60238095D02*
X191985771Y-60285714D01*
X191985771Y-60285714D02*
X192223866Y-60285714D01*
X192223866Y-60285714D02*
X192414342Y-60238095D01*
X192414342Y-60238095D02*
X192509580Y-60190476D01*
X192509580Y-60190476D02*
X192557200Y-60142857D01*
X192557200Y-60142857D02*
X192604819Y-60047619D01*
X192604819Y-60047619D02*
X192604819Y-59952381D01*
X192604819Y-59952381D02*
X192557200Y-59857143D01*
X192557200Y-59857143D02*
X192509580Y-59809524D01*
X192509580Y-59809524D02*
X192414342Y-59761905D01*
X192414342Y-59761905D02*
X192223866Y-59714286D01*
X192223866Y-59714286D02*
X191985771Y-59714286D01*
X191985771Y-59714286D02*
X191795295Y-59761905D01*
X191795295Y-59761905D02*
X191700057Y-59809524D01*
X191700057Y-59809524D02*
X191652438Y-59857143D01*
X191652438Y-59857143D02*
X191604819Y-59952381D01*
X191938152Y-60714286D02*
X192604819Y-60714286D01*
X192033390Y-60714286D02*
X191985771Y-60761905D01*
X191985771Y-60761905D02*
X191938152Y-60857143D01*
X191938152Y-60857143D02*
X191938152Y-61000000D01*
X191938152Y-61000000D02*
X191985771Y-61095238D01*
X191985771Y-61095238D02*
X192081009Y-61142857D01*
X192081009Y-61142857D02*
X192604819Y-61142857D01*
D11*
X194287664Y-58985714D02*
X194325760Y-58947618D01*
X194325760Y-58947618D02*
X194363855Y-58833333D01*
X194363855Y-58833333D02*
X194363855Y-58757142D01*
X194363855Y-58757142D02*
X194325760Y-58642856D01*
X194325760Y-58642856D02*
X194249569Y-58566666D01*
X194249569Y-58566666D02*
X194173379Y-58528571D01*
X194173379Y-58528571D02*
X194020998Y-58490475D01*
X194020998Y-58490475D02*
X193906712Y-58490475D01*
X193906712Y-58490475D02*
X193754331Y-58528571D01*
X193754331Y-58528571D02*
X193678140Y-58566666D01*
X193678140Y-58566666D02*
X193601950Y-58642856D01*
X193601950Y-58642856D02*
X193563855Y-58757142D01*
X193563855Y-58757142D02*
X193563855Y-58833333D01*
X193563855Y-58833333D02*
X193601950Y-58947618D01*
X193601950Y-58947618D02*
X193640045Y-58985714D01*
X193640045Y-59290475D02*
X193601950Y-59328571D01*
X193601950Y-59328571D02*
X193563855Y-59404761D01*
X193563855Y-59404761D02*
X193563855Y-59595237D01*
X193563855Y-59595237D02*
X193601950Y-59671428D01*
X193601950Y-59671428D02*
X193640045Y-59709523D01*
X193640045Y-59709523D02*
X193716236Y-59747618D01*
X193716236Y-59747618D02*
X193792426Y-59747618D01*
X193792426Y-59747618D02*
X193906712Y-59709523D01*
X193906712Y-59709523D02*
X194363855Y-59252380D01*
X194363855Y-59252380D02*
X194363855Y-59747618D01*
X193640045Y-60052380D02*
X193601950Y-60090476D01*
X193601950Y-60090476D02*
X193563855Y-60166666D01*
X193563855Y-60166666D02*
X193563855Y-60357142D01*
X193563855Y-60357142D02*
X193601950Y-60433333D01*
X193601950Y-60433333D02*
X193640045Y-60471428D01*
X193640045Y-60471428D02*
X193716236Y-60509523D01*
X193716236Y-60509523D02*
X193792426Y-60509523D01*
X193792426Y-60509523D02*
X193906712Y-60471428D01*
X193906712Y-60471428D02*
X194363855Y-60014285D01*
X194363855Y-60014285D02*
X194363855Y-60509523D01*
D10*
X186604819Y-52943452D02*
X186604819Y-52372024D01*
X186604819Y-52657738D02*
X185604819Y-52657738D01*
X185604819Y-52657738D02*
X185747676Y-52562500D01*
X185747676Y-52562500D02*
X185842914Y-52467262D01*
X185842914Y-52467262D02*
X185890533Y-52372024D01*
X185604819Y-53562500D02*
X185604819Y-53657738D01*
X185604819Y-53657738D02*
X185652438Y-53752976D01*
X185652438Y-53752976D02*
X185700057Y-53800595D01*
X185700057Y-53800595D02*
X185795295Y-53848214D01*
X185795295Y-53848214D02*
X185985771Y-53895833D01*
X185985771Y-53895833D02*
X186223866Y-53895833D01*
X186223866Y-53895833D02*
X186414342Y-53848214D01*
X186414342Y-53848214D02*
X186509580Y-53800595D01*
X186509580Y-53800595D02*
X186557200Y-53752976D01*
X186557200Y-53752976D02*
X186604819Y-53657738D01*
X186604819Y-53657738D02*
X186604819Y-53562500D01*
X186604819Y-53562500D02*
X186557200Y-53467262D01*
X186557200Y-53467262D02*
X186509580Y-53419643D01*
X186509580Y-53419643D02*
X186414342Y-53372024D01*
X186414342Y-53372024D02*
X186223866Y-53324405D01*
X186223866Y-53324405D02*
X185985771Y-53324405D01*
X185985771Y-53324405D02*
X185795295Y-53372024D01*
X185795295Y-53372024D02*
X185700057Y-53419643D01*
X185700057Y-53419643D02*
X185652438Y-53467262D01*
X185652438Y-53467262D02*
X185604819Y-53562500D01*
X185604819Y-54514881D02*
X185604819Y-54610119D01*
X185604819Y-54610119D02*
X185652438Y-54705357D01*
X185652438Y-54705357D02*
X185700057Y-54752976D01*
X185700057Y-54752976D02*
X185795295Y-54800595D01*
X185795295Y-54800595D02*
X185985771Y-54848214D01*
X185985771Y-54848214D02*
X186223866Y-54848214D01*
X186223866Y-54848214D02*
X186414342Y-54800595D01*
X186414342Y-54800595D02*
X186509580Y-54752976D01*
X186509580Y-54752976D02*
X186557200Y-54705357D01*
X186557200Y-54705357D02*
X186604819Y-54610119D01*
X186604819Y-54610119D02*
X186604819Y-54514881D01*
X186604819Y-54514881D02*
X186557200Y-54419643D01*
X186557200Y-54419643D02*
X186509580Y-54372024D01*
X186509580Y-54372024D02*
X186414342Y-54324405D01*
X186414342Y-54324405D02*
X186223866Y-54276786D01*
X186223866Y-54276786D02*
X185985771Y-54276786D01*
X185985771Y-54276786D02*
X185795295Y-54324405D01*
X185795295Y-54324405D02*
X185700057Y-54372024D01*
X185700057Y-54372024D02*
X185652438Y-54419643D01*
X185652438Y-54419643D02*
X185604819Y-54514881D01*
X185938152Y-55276786D02*
X186604819Y-55276786D01*
X186033390Y-55276786D02*
X185985771Y-55324405D01*
X185985771Y-55324405D02*
X185938152Y-55419643D01*
X185938152Y-55419643D02*
X185938152Y-55562500D01*
X185938152Y-55562500D02*
X185985771Y-55657738D01*
X185985771Y-55657738D02*
X186081009Y-55705357D01*
X186081009Y-55705357D02*
X186604819Y-55705357D01*
D11*
X188287664Y-53548214D02*
X188325760Y-53510118D01*
X188325760Y-53510118D02*
X188363855Y-53395833D01*
X188363855Y-53395833D02*
X188363855Y-53319642D01*
X188363855Y-53319642D02*
X188325760Y-53205356D01*
X188325760Y-53205356D02*
X188249569Y-53129166D01*
X188249569Y-53129166D02*
X188173379Y-53091071D01*
X188173379Y-53091071D02*
X188020998Y-53052975D01*
X188020998Y-53052975D02*
X187906712Y-53052975D01*
X187906712Y-53052975D02*
X187754331Y-53091071D01*
X187754331Y-53091071D02*
X187678140Y-53129166D01*
X187678140Y-53129166D02*
X187601950Y-53205356D01*
X187601950Y-53205356D02*
X187563855Y-53319642D01*
X187563855Y-53319642D02*
X187563855Y-53395833D01*
X187563855Y-53395833D02*
X187601950Y-53510118D01*
X187601950Y-53510118D02*
X187640045Y-53548214D01*
X188363855Y-54310118D02*
X188363855Y-53852975D01*
X188363855Y-54081547D02*
X187563855Y-54081547D01*
X187563855Y-54081547D02*
X187678140Y-54005356D01*
X187678140Y-54005356D02*
X187754331Y-53929166D01*
X187754331Y-53929166D02*
X187792426Y-53852975D01*
X188363855Y-54691071D02*
X188363855Y-54843452D01*
X188363855Y-54843452D02*
X188325760Y-54919642D01*
X188325760Y-54919642D02*
X188287664Y-54957738D01*
X188287664Y-54957738D02*
X188173379Y-55033928D01*
X188173379Y-55033928D02*
X188020998Y-55072023D01*
X188020998Y-55072023D02*
X187716236Y-55072023D01*
X187716236Y-55072023D02*
X187640045Y-55033928D01*
X187640045Y-55033928D02*
X187601950Y-54995833D01*
X187601950Y-54995833D02*
X187563855Y-54919642D01*
X187563855Y-54919642D02*
X187563855Y-54767261D01*
X187563855Y-54767261D02*
X187601950Y-54691071D01*
X187601950Y-54691071D02*
X187640045Y-54652976D01*
X187640045Y-54652976D02*
X187716236Y-54614880D01*
X187716236Y-54614880D02*
X187906712Y-54614880D01*
X187906712Y-54614880D02*
X187982902Y-54652976D01*
X187982902Y-54652976D02*
X188020998Y-54691071D01*
X188020998Y-54691071D02*
X188059093Y-54767261D01*
X188059093Y-54767261D02*
X188059093Y-54919642D01*
X188059093Y-54919642D02*
X188020998Y-54995833D01*
X188020998Y-54995833D02*
X187982902Y-55033928D01*
X187982902Y-55033928D02*
X187906712Y-55072023D01*
D10*
X113104819Y-58443452D02*
X113104819Y-57872024D01*
X113104819Y-58157738D02*
X112104819Y-58157738D01*
X112104819Y-58157738D02*
X112247676Y-58062500D01*
X112247676Y-58062500D02*
X112342914Y-57967262D01*
X112342914Y-57967262D02*
X112390533Y-57872024D01*
X112104819Y-59062500D02*
X112104819Y-59157738D01*
X112104819Y-59157738D02*
X112152438Y-59252976D01*
X112152438Y-59252976D02*
X112200057Y-59300595D01*
X112200057Y-59300595D02*
X112295295Y-59348214D01*
X112295295Y-59348214D02*
X112485771Y-59395833D01*
X112485771Y-59395833D02*
X112723866Y-59395833D01*
X112723866Y-59395833D02*
X112914342Y-59348214D01*
X112914342Y-59348214D02*
X113009580Y-59300595D01*
X113009580Y-59300595D02*
X113057200Y-59252976D01*
X113057200Y-59252976D02*
X113104819Y-59157738D01*
X113104819Y-59157738D02*
X113104819Y-59062500D01*
X113104819Y-59062500D02*
X113057200Y-58967262D01*
X113057200Y-58967262D02*
X113009580Y-58919643D01*
X113009580Y-58919643D02*
X112914342Y-58872024D01*
X112914342Y-58872024D02*
X112723866Y-58824405D01*
X112723866Y-58824405D02*
X112485771Y-58824405D01*
X112485771Y-58824405D02*
X112295295Y-58872024D01*
X112295295Y-58872024D02*
X112200057Y-58919643D01*
X112200057Y-58919643D02*
X112152438Y-58967262D01*
X112152438Y-58967262D02*
X112104819Y-59062500D01*
X112104819Y-60014881D02*
X112104819Y-60110119D01*
X112104819Y-60110119D02*
X112152438Y-60205357D01*
X112152438Y-60205357D02*
X112200057Y-60252976D01*
X112200057Y-60252976D02*
X112295295Y-60300595D01*
X112295295Y-60300595D02*
X112485771Y-60348214D01*
X112485771Y-60348214D02*
X112723866Y-60348214D01*
X112723866Y-60348214D02*
X112914342Y-60300595D01*
X112914342Y-60300595D02*
X113009580Y-60252976D01*
X113009580Y-60252976D02*
X113057200Y-60205357D01*
X113057200Y-60205357D02*
X113104819Y-60110119D01*
X113104819Y-60110119D02*
X113104819Y-60014881D01*
X113104819Y-60014881D02*
X113057200Y-59919643D01*
X113057200Y-59919643D02*
X113009580Y-59872024D01*
X113009580Y-59872024D02*
X112914342Y-59824405D01*
X112914342Y-59824405D02*
X112723866Y-59776786D01*
X112723866Y-59776786D02*
X112485771Y-59776786D01*
X112485771Y-59776786D02*
X112295295Y-59824405D01*
X112295295Y-59824405D02*
X112200057Y-59872024D01*
X112200057Y-59872024D02*
X112152438Y-59919643D01*
X112152438Y-59919643D02*
X112104819Y-60014881D01*
X112438152Y-60776786D02*
X113104819Y-60776786D01*
X112533390Y-60776786D02*
X112485771Y-60824405D01*
X112485771Y-60824405D02*
X112438152Y-60919643D01*
X112438152Y-60919643D02*
X112438152Y-61062500D01*
X112438152Y-61062500D02*
X112485771Y-61157738D01*
X112485771Y-61157738D02*
X112581009Y-61205357D01*
X112581009Y-61205357D02*
X113104819Y-61205357D01*
D11*
X114787664Y-59429167D02*
X114825760Y-59391071D01*
X114825760Y-59391071D02*
X114863855Y-59276786D01*
X114863855Y-59276786D02*
X114863855Y-59200595D01*
X114863855Y-59200595D02*
X114825760Y-59086309D01*
X114825760Y-59086309D02*
X114749569Y-59010119D01*
X114749569Y-59010119D02*
X114673379Y-58972024D01*
X114673379Y-58972024D02*
X114520998Y-58933928D01*
X114520998Y-58933928D02*
X114406712Y-58933928D01*
X114406712Y-58933928D02*
X114254331Y-58972024D01*
X114254331Y-58972024D02*
X114178140Y-59010119D01*
X114178140Y-59010119D02*
X114101950Y-59086309D01*
X114101950Y-59086309D02*
X114063855Y-59200595D01*
X114063855Y-59200595D02*
X114063855Y-59276786D01*
X114063855Y-59276786D02*
X114101950Y-59391071D01*
X114101950Y-59391071D02*
X114140045Y-59429167D01*
X114063855Y-60152976D02*
X114063855Y-59772024D01*
X114063855Y-59772024D02*
X114444807Y-59733928D01*
X114444807Y-59733928D02*
X114406712Y-59772024D01*
X114406712Y-59772024D02*
X114368617Y-59848214D01*
X114368617Y-59848214D02*
X114368617Y-60038690D01*
X114368617Y-60038690D02*
X114406712Y-60114881D01*
X114406712Y-60114881D02*
X114444807Y-60152976D01*
X114444807Y-60152976D02*
X114520998Y-60191071D01*
X114520998Y-60191071D02*
X114711474Y-60191071D01*
X114711474Y-60191071D02*
X114787664Y-60152976D01*
X114787664Y-60152976D02*
X114825760Y-60114881D01*
X114825760Y-60114881D02*
X114863855Y-60038690D01*
X114863855Y-60038690D02*
X114863855Y-59848214D01*
X114863855Y-59848214D02*
X114825760Y-59772024D01*
X114825760Y-59772024D02*
X114787664Y-59733928D01*
D10*
X113104819Y-52943452D02*
X113104819Y-52372024D01*
X113104819Y-52657738D02*
X112104819Y-52657738D01*
X112104819Y-52657738D02*
X112247676Y-52562500D01*
X112247676Y-52562500D02*
X112342914Y-52467262D01*
X112342914Y-52467262D02*
X112390533Y-52372024D01*
X112104819Y-53562500D02*
X112104819Y-53657738D01*
X112104819Y-53657738D02*
X112152438Y-53752976D01*
X112152438Y-53752976D02*
X112200057Y-53800595D01*
X112200057Y-53800595D02*
X112295295Y-53848214D01*
X112295295Y-53848214D02*
X112485771Y-53895833D01*
X112485771Y-53895833D02*
X112723866Y-53895833D01*
X112723866Y-53895833D02*
X112914342Y-53848214D01*
X112914342Y-53848214D02*
X113009580Y-53800595D01*
X113009580Y-53800595D02*
X113057200Y-53752976D01*
X113057200Y-53752976D02*
X113104819Y-53657738D01*
X113104819Y-53657738D02*
X113104819Y-53562500D01*
X113104819Y-53562500D02*
X113057200Y-53467262D01*
X113057200Y-53467262D02*
X113009580Y-53419643D01*
X113009580Y-53419643D02*
X112914342Y-53372024D01*
X112914342Y-53372024D02*
X112723866Y-53324405D01*
X112723866Y-53324405D02*
X112485771Y-53324405D01*
X112485771Y-53324405D02*
X112295295Y-53372024D01*
X112295295Y-53372024D02*
X112200057Y-53419643D01*
X112200057Y-53419643D02*
X112152438Y-53467262D01*
X112152438Y-53467262D02*
X112104819Y-53562500D01*
X112104819Y-54514881D02*
X112104819Y-54610119D01*
X112104819Y-54610119D02*
X112152438Y-54705357D01*
X112152438Y-54705357D02*
X112200057Y-54752976D01*
X112200057Y-54752976D02*
X112295295Y-54800595D01*
X112295295Y-54800595D02*
X112485771Y-54848214D01*
X112485771Y-54848214D02*
X112723866Y-54848214D01*
X112723866Y-54848214D02*
X112914342Y-54800595D01*
X112914342Y-54800595D02*
X113009580Y-54752976D01*
X113009580Y-54752976D02*
X113057200Y-54705357D01*
X113057200Y-54705357D02*
X113104819Y-54610119D01*
X113104819Y-54610119D02*
X113104819Y-54514881D01*
X113104819Y-54514881D02*
X113057200Y-54419643D01*
X113057200Y-54419643D02*
X113009580Y-54372024D01*
X113009580Y-54372024D02*
X112914342Y-54324405D01*
X112914342Y-54324405D02*
X112723866Y-54276786D01*
X112723866Y-54276786D02*
X112485771Y-54276786D01*
X112485771Y-54276786D02*
X112295295Y-54324405D01*
X112295295Y-54324405D02*
X112200057Y-54372024D01*
X112200057Y-54372024D02*
X112152438Y-54419643D01*
X112152438Y-54419643D02*
X112104819Y-54514881D01*
X112438152Y-55276786D02*
X113104819Y-55276786D01*
X112533390Y-55276786D02*
X112485771Y-55324405D01*
X112485771Y-55324405D02*
X112438152Y-55419643D01*
X112438152Y-55419643D02*
X112438152Y-55562500D01*
X112438152Y-55562500D02*
X112485771Y-55657738D01*
X112485771Y-55657738D02*
X112581009Y-55705357D01*
X112581009Y-55705357D02*
X113104819Y-55705357D01*
D11*
X114787664Y-53929167D02*
X114825760Y-53891071D01*
X114825760Y-53891071D02*
X114863855Y-53776786D01*
X114863855Y-53776786D02*
X114863855Y-53700595D01*
X114863855Y-53700595D02*
X114825760Y-53586309D01*
X114825760Y-53586309D02*
X114749569Y-53510119D01*
X114749569Y-53510119D02*
X114673379Y-53472024D01*
X114673379Y-53472024D02*
X114520998Y-53433928D01*
X114520998Y-53433928D02*
X114406712Y-53433928D01*
X114406712Y-53433928D02*
X114254331Y-53472024D01*
X114254331Y-53472024D02*
X114178140Y-53510119D01*
X114178140Y-53510119D02*
X114101950Y-53586309D01*
X114101950Y-53586309D02*
X114063855Y-53700595D01*
X114063855Y-53700595D02*
X114063855Y-53776786D01*
X114063855Y-53776786D02*
X114101950Y-53891071D01*
X114101950Y-53891071D02*
X114140045Y-53929167D01*
X114063855Y-54614881D02*
X114063855Y-54462500D01*
X114063855Y-54462500D02*
X114101950Y-54386309D01*
X114101950Y-54386309D02*
X114140045Y-54348214D01*
X114140045Y-54348214D02*
X114254331Y-54272024D01*
X114254331Y-54272024D02*
X114406712Y-54233928D01*
X114406712Y-54233928D02*
X114711474Y-54233928D01*
X114711474Y-54233928D02*
X114787664Y-54272024D01*
X114787664Y-54272024D02*
X114825760Y-54310119D01*
X114825760Y-54310119D02*
X114863855Y-54386309D01*
X114863855Y-54386309D02*
X114863855Y-54538690D01*
X114863855Y-54538690D02*
X114825760Y-54614881D01*
X114825760Y-54614881D02*
X114787664Y-54652976D01*
X114787664Y-54652976D02*
X114711474Y-54691071D01*
X114711474Y-54691071D02*
X114520998Y-54691071D01*
X114520998Y-54691071D02*
X114444807Y-54652976D01*
X114444807Y-54652976D02*
X114406712Y-54614881D01*
X114406712Y-54614881D02*
X114368617Y-54538690D01*
X114368617Y-54538690D02*
X114368617Y-54386309D01*
X114368617Y-54386309D02*
X114406712Y-54310119D01*
X114406712Y-54310119D02*
X114444807Y-54272024D01*
X114444807Y-54272024D02*
X114520998Y-54233928D01*
D10*
X189604819Y-58380952D02*
X189604819Y-57809524D01*
X189604819Y-58095238D02*
X188604819Y-58095238D01*
X188604819Y-58095238D02*
X188747676Y-58000000D01*
X188747676Y-58000000D02*
X188842914Y-57904762D01*
X188842914Y-57904762D02*
X188890533Y-57809524D01*
X188604819Y-59000000D02*
X188604819Y-59095238D01*
X188604819Y-59095238D02*
X188652438Y-59190476D01*
X188652438Y-59190476D02*
X188700057Y-59238095D01*
X188700057Y-59238095D02*
X188795295Y-59285714D01*
X188795295Y-59285714D02*
X188985771Y-59333333D01*
X188985771Y-59333333D02*
X189223866Y-59333333D01*
X189223866Y-59333333D02*
X189414342Y-59285714D01*
X189414342Y-59285714D02*
X189509580Y-59238095D01*
X189509580Y-59238095D02*
X189557200Y-59190476D01*
X189557200Y-59190476D02*
X189604819Y-59095238D01*
X189604819Y-59095238D02*
X189604819Y-59000000D01*
X189604819Y-59000000D02*
X189557200Y-58904762D01*
X189557200Y-58904762D02*
X189509580Y-58857143D01*
X189509580Y-58857143D02*
X189414342Y-58809524D01*
X189414342Y-58809524D02*
X189223866Y-58761905D01*
X189223866Y-58761905D02*
X188985771Y-58761905D01*
X188985771Y-58761905D02*
X188795295Y-58809524D01*
X188795295Y-58809524D02*
X188700057Y-58857143D01*
X188700057Y-58857143D02*
X188652438Y-58904762D01*
X188652438Y-58904762D02*
X188604819Y-59000000D01*
X188604819Y-59952381D02*
X188604819Y-60047619D01*
X188604819Y-60047619D02*
X188652438Y-60142857D01*
X188652438Y-60142857D02*
X188700057Y-60190476D01*
X188700057Y-60190476D02*
X188795295Y-60238095D01*
X188795295Y-60238095D02*
X188985771Y-60285714D01*
X188985771Y-60285714D02*
X189223866Y-60285714D01*
X189223866Y-60285714D02*
X189414342Y-60238095D01*
X189414342Y-60238095D02*
X189509580Y-60190476D01*
X189509580Y-60190476D02*
X189557200Y-60142857D01*
X189557200Y-60142857D02*
X189604819Y-60047619D01*
X189604819Y-60047619D02*
X189604819Y-59952381D01*
X189604819Y-59952381D02*
X189557200Y-59857143D01*
X189557200Y-59857143D02*
X189509580Y-59809524D01*
X189509580Y-59809524D02*
X189414342Y-59761905D01*
X189414342Y-59761905D02*
X189223866Y-59714286D01*
X189223866Y-59714286D02*
X188985771Y-59714286D01*
X188985771Y-59714286D02*
X188795295Y-59761905D01*
X188795295Y-59761905D02*
X188700057Y-59809524D01*
X188700057Y-59809524D02*
X188652438Y-59857143D01*
X188652438Y-59857143D02*
X188604819Y-59952381D01*
X188938152Y-60714286D02*
X189604819Y-60714286D01*
X189033390Y-60714286D02*
X188985771Y-60761905D01*
X188985771Y-60761905D02*
X188938152Y-60857143D01*
X188938152Y-60857143D02*
X188938152Y-61000000D01*
X188938152Y-61000000D02*
X188985771Y-61095238D01*
X188985771Y-61095238D02*
X189081009Y-61142857D01*
X189081009Y-61142857D02*
X189604819Y-61142857D01*
D11*
X191287664Y-58985714D02*
X191325760Y-58947618D01*
X191325760Y-58947618D02*
X191363855Y-58833333D01*
X191363855Y-58833333D02*
X191363855Y-58757142D01*
X191363855Y-58757142D02*
X191325760Y-58642856D01*
X191325760Y-58642856D02*
X191249569Y-58566666D01*
X191249569Y-58566666D02*
X191173379Y-58528571D01*
X191173379Y-58528571D02*
X191020998Y-58490475D01*
X191020998Y-58490475D02*
X190906712Y-58490475D01*
X190906712Y-58490475D02*
X190754331Y-58528571D01*
X190754331Y-58528571D02*
X190678140Y-58566666D01*
X190678140Y-58566666D02*
X190601950Y-58642856D01*
X190601950Y-58642856D02*
X190563855Y-58757142D01*
X190563855Y-58757142D02*
X190563855Y-58833333D01*
X190563855Y-58833333D02*
X190601950Y-58947618D01*
X190601950Y-58947618D02*
X190640045Y-58985714D01*
X190640045Y-59290475D02*
X190601950Y-59328571D01*
X190601950Y-59328571D02*
X190563855Y-59404761D01*
X190563855Y-59404761D02*
X190563855Y-59595237D01*
X190563855Y-59595237D02*
X190601950Y-59671428D01*
X190601950Y-59671428D02*
X190640045Y-59709523D01*
X190640045Y-59709523D02*
X190716236Y-59747618D01*
X190716236Y-59747618D02*
X190792426Y-59747618D01*
X190792426Y-59747618D02*
X190906712Y-59709523D01*
X190906712Y-59709523D02*
X191363855Y-59252380D01*
X191363855Y-59252380D02*
X191363855Y-59747618D01*
X190563855Y-60242857D02*
X190563855Y-60319047D01*
X190563855Y-60319047D02*
X190601950Y-60395238D01*
X190601950Y-60395238D02*
X190640045Y-60433333D01*
X190640045Y-60433333D02*
X190716236Y-60471428D01*
X190716236Y-60471428D02*
X190868617Y-60509523D01*
X190868617Y-60509523D02*
X191059093Y-60509523D01*
X191059093Y-60509523D02*
X191211474Y-60471428D01*
X191211474Y-60471428D02*
X191287664Y-60433333D01*
X191287664Y-60433333D02*
X191325760Y-60395238D01*
X191325760Y-60395238D02*
X191363855Y-60319047D01*
X191363855Y-60319047D02*
X191363855Y-60242857D01*
X191363855Y-60242857D02*
X191325760Y-60166666D01*
X191325760Y-60166666D02*
X191287664Y-60128571D01*
X191287664Y-60128571D02*
X191211474Y-60090476D01*
X191211474Y-60090476D02*
X191059093Y-60052380D01*
X191059093Y-60052380D02*
X190868617Y-60052380D01*
X190868617Y-60052380D02*
X190716236Y-60090476D01*
X190716236Y-60090476D02*
X190640045Y-60128571D01*
X190640045Y-60128571D02*
X190601950Y-60166666D01*
X190601950Y-60166666D02*
X190563855Y-60242857D01*
D12*
%TO.C,C2*%
X119700000Y-55662500D02*
X121300000Y-55662500D01*
X121300000Y-55662500D02*
X121300000Y-52462500D01*
X119700000Y-52462500D02*
X119700000Y-55662500D01*
X121300000Y-52462500D02*
X119700000Y-52462500D01*
%TO.C,C18*%
X187200000Y-61100000D02*
X188800000Y-61100000D01*
X188800000Y-61100000D02*
X188800000Y-57900000D01*
X187200000Y-57900000D02*
X187200000Y-61100000D01*
X188800000Y-57900000D02*
X187200000Y-57900000D01*
%TO.C,C3*%
X116700000Y-61162500D02*
X118300000Y-61162500D01*
X118300000Y-61162500D02*
X118300000Y-57962500D01*
X116700000Y-57962500D02*
X116700000Y-61162500D01*
X118300000Y-57962500D02*
X116700000Y-57962500D01*
%TO.C,C1*%
X119700000Y-61162500D02*
X121300000Y-61162500D01*
X121300000Y-61162500D02*
X121300000Y-57962500D01*
X119700000Y-57962500D02*
X119700000Y-61162500D01*
X121300000Y-57962500D02*
X119700000Y-57962500D01*
%TO.C,C4*%
X116700000Y-55662500D02*
X118300000Y-55662500D01*
X118300000Y-55662500D02*
X118300000Y-52462500D01*
X116700000Y-52462500D02*
X116700000Y-55662500D01*
X118300000Y-52462500D02*
X116700000Y-52462500D01*
%TO.C,C21*%
X190200000Y-55662500D02*
X191800000Y-55662500D01*
X191800000Y-55662500D02*
X191800000Y-52462500D01*
X190200000Y-52462500D02*
X190200000Y-55662500D01*
X191800000Y-52462500D02*
X190200000Y-52462500D01*
%TO.C,C23*%
X193200000Y-55662500D02*
X194800000Y-55662500D01*
X194800000Y-55662500D02*
X194800000Y-52462500D01*
X193200000Y-52462500D02*
X193200000Y-55662500D01*
X194800000Y-52462500D02*
X193200000Y-52462500D01*
%TO.C,C22*%
X193200000Y-61100000D02*
X194800000Y-61100000D01*
X194800000Y-61100000D02*
X194800000Y-57900000D01*
X193200000Y-57900000D02*
X193200000Y-61100000D01*
X194800000Y-57900000D02*
X193200000Y-57900000D01*
%TO.C,C19*%
X187200000Y-55662500D02*
X188800000Y-55662500D01*
X188800000Y-55662500D02*
X188800000Y-52462500D01*
X187200000Y-52462500D02*
X187200000Y-55662500D01*
X188800000Y-52462500D02*
X187200000Y-52462500D01*
%TO.C,C5*%
X113700000Y-61162500D02*
X115300000Y-61162500D01*
X115300000Y-61162500D02*
X115300000Y-57962500D01*
X113700000Y-57962500D02*
X113700000Y-61162500D01*
X115300000Y-57962500D02*
X113700000Y-57962500D01*
%TO.C,C6*%
X113700000Y-55662500D02*
X115300000Y-55662500D01*
X115300000Y-55662500D02*
X115300000Y-52462500D01*
X113700000Y-52462500D02*
X113700000Y-55662500D01*
X115300000Y-52462500D02*
X113700000Y-52462500D01*
%TO.C,C20*%
X190200000Y-61100000D02*
X191800000Y-61100000D01*
X191800000Y-61100000D02*
X191800000Y-57900000D01*
X190200000Y-57900000D02*
X190200000Y-61100000D01*
X191800000Y-57900000D02*
X190200000Y-57900000D01*
%TD*%
M02*
