#VRML V2.0 utf8
DEF TXFM_1 Transform {
  center 0 0 0
  rotation 0 0 1 0
  scale 0.00254 0.00254 0.00254
  scaleOrientation 0 0 1 0
  translation 0 0 0
 children [
DEF TXFM_2 Transform {
  center 0 0 0
  rotation 0 0 1 0
  scale 1 1 1
  scaleOrientation 0 0 1 0
  translation 0 0 0
 children [
DEF SHAPE_1 Shape {
 appearance DEF APP_1 Appearance {
  material Material {
   ambientIntensity 1
   diffuseColor 0.43000001 0.44999999 0.30000001
   emissiveColor 0 0 0
   shininess 0.0099999998
   specularColor 0.48699999 0.505 0.37
   transparency 0.1
} }
 geometry DEF FACE_1 IndexedFaceSet {
  coord DEF COORD_1 Coordinate { point [
  40.787402 -39.370079 0.31003937,40.787402 -55.03937 0.31003937,
  49.133858 -55.03937 0.31003937,49.133858 -50.314961 0.31003937,
  56.181102 -50.314961 0.31003937,59.055118 -47.677165 0.31003937,
  59.055118 -39.370079 0.31003937,43.574803 -53.740157 0.31003937,
  43.578657 -53.715825 0.31003937,43.589841 -53.693875 0.31003937,
  43.607261 -53.676455 0.31003937,43.629211 -53.665271 0.31003937,
  43.653543 -53.661417 0.31003937,43.677875 -53.665271 0.31003937,
  43.699826 -53.676455 0.31003937,43.717245 -53.693875 0.31003937,
  43.72843 -53.715825 0.31003937,43.732283 -53.740157 0.31003937,
  43.72843 -53.76449 0.31003937,43.717245 -53.78644 0.31003937,
  43.699826 -53.80386 0.31003937,43.677875 -53.815044 0.31003937,
  43.653543 -53.818898 0.31003937,43.629211 -53.815044 0.31003937,
  43.607261 -53.80386 0.31003937,43.589841 -53.78644 0.31003937,
  43.578657 -53.76449 0.31003937,40.787402 -39.370079 -0.31003937,
  40.787402 -55.03937 -0.31003937,49.133858 -55.03937 -0.31003937,
  49.133858 -50.314961 -0.31003937,56.181102 -50.314961 -0.31003937,
  59.055118 -47.677165 -0.31003937,59.055118 -39.370079 -0.31003937,
  43.574803 -53.740157 -0.31003937,43.578657 -53.715825 -0.31003937,
  43.589841 -53.693875 -0.31003937,43.607261 -53.676455 -0.31003937,
  43.629211 -53.665271 -0.31003937,43.653543 -53.661417 -0.31003937,
  43.677875 -53.665271 -0.31003937,43.699826 -53.676455 -0.31003937,
  43.717245 -53.693875 -0.31003937,43.72843 -53.715825 -0.31003937,
  43.732283 -53.740157 -0.31003937,43.72843 -53.76449 -0.31003937,
  43.717245 -53.78644 -0.31003937,43.699826 -53.80386 -0.31003937,
  43.677875 -53.815044 -0.31003937,43.653543 -53.818898 -0.31003937,
  43.629211 -53.815044 -0.31003937,43.607261 -53.80386 -0.31003937,
  43.589841 -53.78644 -0.31003937,43.578657 -53.76449 -0.31003937] }
 coordIndex [
  6,0,10,-1,6,10,11,-1,6,11,12,-1,6,12,13,-1,6,13,14,-1,6,14,15,-1,6,15,16,-1,6,16,17,-1,
  6,17,3,-1,6,3,4,-1,6,4,5,-1,2,3,17,-1,2,17,18,-1,2,18,19,-1,2,19,20,-1,2,20,21,-1,
  2,21,22,-1,2,22,23,-1,2,23,1,-1,0,1,26,-1,0,26,7,-1,0,7,8,-1,0,8,9,-1,0,9,10,-1,
  1,23,24,-1,1,24,25,-1,1,25,26,-1,27,33,37,-1,37,33,38,-1,38,33,39,-1,39,33,40,-1,40,33,41,-1,
  41,33,42,-1,42,33,43,-1,43,33,44,-1,44,33,30,-1,30,33,31,-1,31,33,32,-1,30,29,44,-1,44,29,45,-1,
  45,29,46,-1,46,29,47,-1,47,29,48,-1,48,29,49,-1,49,29,50,-1,50,29,28,-1,28,27,53,-1,53,27,34,-1,
  34,27,35,-1,35,27,36,-1,36,27,37,-1,50,28,51,-1,51,28,52,-1,52,28,53,-1]
  normalPerVertex TRUE
  normal DEF NORM_1 Normal { vector [
  0 0 1,0 0 1,
  0 0 1,0 0 1,
  0 0 1,0 0 1,
  0 0 1,0 0 1,
  0 0 1,0 0 1,
  0 0 1,0 0 1,
  0 0 1,0 0 1,
  0 0 1,0 0 1,
  0 0 1,0 0 1,
  0 0 1,0 0 1,
  0 0 1,0 0 1,
  0 0 1,0 0 1,
  0 0 1,0 0 1,
  0 0 1,0 0 -1,
  0 0 -1,0 0 -1,
  0 0 -1,0 0 -1,
  0 0 -1,0 0 -1,
  0 0 -1,0 0 -1,
  0 0 -1,0 0 -1,
  0 0 -1,0 0 -1,
  0 0 -1,0 0 -1,
  0 0 -1,0 0 -1,
  0 0 -1,0 0 -1,
  0 0 -1,0 0 -1,
  0 0 -1,0 0 -1,
  0 0 -1,0 0 -1,
  0 0 -1,0 0 -1] }
}
}
DEF SHAPE_2 Shape {
 appearance USE APP_1
 geometry DEF FACE_2 IndexedFaceSet {
  coord DEF COORD_2 Coordinate { point [
  40.787402 -55.03937 0.31003937,40.787402 -39.370079 0.31003937,
  40.787402 -55.03937 -0.31003937,40.787402 -55.03937 -0.31003937,
  40.787402 -39.370079 0.31003937,40.787402 -39.370079 -0.31003937,
  49.133858 -55.03937 0.31003937,40.787402 -55.03937 0.31003937,
  49.133858 -55.03937 -0.31003937,49.133858 -55.03937 -0.31003937,
  40.787402 -55.03937 0.31003937,40.787402 -55.03937 -0.31003937,
  49.133858 -50.314961 0.31003937,49.133858 -55.03937 0.31003937,
  49.133858 -50.314961 -0.31003937,49.133858 -50.314961 -0.31003937,
  49.133858 -55.03937 0.31003937,49.133858 -55.03937 -0.31003937,
  56.181102 -50.314961 0.31003937,49.133858 -50.314961 0.31003937,
  56.181102 -50.314961 -0.31003937,56.181102 -50.314961 -0.31003937,
  49.133858 -50.314961 0.31003937,49.133858 -50.314961 -0.31003937,
  59.055118 -47.677165 0.31003937,56.181102 -50.314961 0.31003937,
  59.055118 -47.677165 -0.31003937,59.055118 -47.677165 -0.31003937,
  56.181102 -50.314961 0.31003937,56.181102 -50.314961 -0.31003937,
  59.055118 -39.370079 0.31003937,59.055118 -47.677165 0.31003937,
  59.055118 -39.370079 -0.31003937,59.055118 -39.370079 -0.31003937,
  59.055118 -47.677165 0.31003937,59.055118 -47.677165 -0.31003937,
  40.787402 -39.370079 0.31003937,59.055118 -39.370079 0.31003937,
  40.787402 -39.370079 -0.31003937,40.787402 -39.370079 -0.31003937,
  59.055118 -39.370079 0.31003937,59.055118 -39.370079 -0.31003937,
  43.578657 -53.715825 0.31003937,43.574803 -53.740157 0.31003937,
  43.578657 -53.715825 -0.31003937,43.578657 -53.715825 -0.31003937,
  43.574803 -53.740157 0.31003937,43.574803 -53.740157 -0.31003937,
  43.589841 -53.693875 0.31003937,43.578657 -53.715825 0.31003937,
  43.589841 -53.693875 -0.31003937,43.589841 -53.693875 -0.31003937,
  43.578657 -53.715825 0.31003937,43.578657 -53.715825 -0.31003937,
  43.607261 -53.676455 0.31003937,43.589841 -53.693875 0.31003937,
  43.607261 -53.676455 -0.31003937,43.607261 -53.676455 -0.31003937,
  43.589841 -53.693875 0.31003937,43.589841 -53.693875 -0.31003937,
  43.629211 -53.665271 0.31003937,43.607261 -53.676455 0.31003937,
  43.629211 -53.665271 -0.31003937,43.629211 -53.665271 -0.31003937,
  43.607261 -53.676455 0.31003937,43.607261 -53.676455 -0.31003937,
  43.653543 -53.661417 0.31003937,43.629211 -53.665271 0.31003937,
  43.653543 -53.661417 -0.31003937,43.653543 -53.661417 -0.31003937,
  43.629211 -53.665271 0.31003937,43.629211 -53.665271 -0.31003937,
  43.677875 -53.665271 0.31003937,43.653543 -53.661417 0.31003937,
  43.677875 -53.665271 -0.31003937,43.677875 -53.665271 -0.31003937,
  43.653543 -53.661417 0.31003937,43.653543 -53.661417 -0.31003937,
  43.699826 -53.676455 0.31003937,43.677875 -53.665271 0.31003937,
  43.699826 -53.676455 -0.31003937,43.699826 -53.676455 -0.31003937,
  43.677875 -53.665271 0.31003937,43.677875 -53.665271 -0.31003937,
  43.717245 -53.693875 0.31003937,43.699826 -53.676455 0.31003937,
  43.717245 -53.693875 -0.31003937,43.717245 -53.693875 -0.31003937,
  43.699826 -53.676455 0.31003937,43.699826 -53.676455 -0.31003937,
  43.72843 -53.715825 0.31003937,43.717245 -53.693875 0.31003937,
  43.72843 -53.715825 -0.31003937,43.72843 -53.715825 -0.31003937,
  43.717245 -53.693875 0.31003937,43.717245 -53.693875 -0.31003937,
  43.732283 -53.740157 0.31003937,43.72843 -53.715825 0.31003937,
  43.732283 -53.740157 -0.31003937,43.732283 -53.740157 -0.31003937,
  43.72843 -53.715825 0.31003937,43.72843 -53.715825 -0.31003937,
  43.72843 -53.76449 0.31003937,43.732283 -53.740157 0.31003937,
  43.72843 -53.76449 -0.31003937,43.72843 -53.76449 -0.31003937,
  43.732283 -53.740157 0.31003937,43.732283 -53.740157 -0.31003937,
  43.717245 -53.78644 0.31003937,43.72843 -53.76449 0.31003937,
  43.717245 -53.78644 -0.31003937,43.717245 -53.78644 -0.31003937,
  43.72843 -53.76449 0.31003937,43.72843 -53.76449 -0.31003937,
  43.699826 -53.80386 0.31003937,43.717245 -53.78644 0.31003937,
  43.699826 -53.80386 -0.31003937,43.699826 -53.80386 -0.31003937,
  43.717245 -53.78644 0.31003937,43.717245 -53.78644 -0.31003937,
  43.677875 -53.815044 0.31003937,43.699826 -53.80386 0.31003937,
  43.677875 -53.815044 -0.31003937,43.677875 -53.815044 -0.31003937,
  43.699826 -53.80386 0.31003937,43.699826 -53.80386 -0.31003937,
  43.653543 -53.818898 0.31003937,43.677875 -53.815044 0.31003937,
  43.653543 -53.818898 -0.31003937,43.653543 -53.818898 -0.31003937,
  43.677875 -53.815044 0.31003937,43.677875 -53.815044 -0.31003937,
  43.629211 -53.815044 0.31003937,43.653543 -53.818898 0.31003937,
  43.629211 -53.815044 -0.31003937,43.629211 -53.815044 -0.31003937,
  43.653543 -53.818898 0.31003937,43.653543 -53.818898 -0.31003937,
  43.607261 -53.80386 0.31003937,43.629211 -53.815044 0.31003937,
  43.607261 -53.80386 -0.31003937,43.607261 -53.80386 -0.31003937,
  43.629211 -53.815044 0.31003937,43.629211 -53.815044 -0.31003937,
  43.589841 -53.78644 0.31003937,43.607261 -53.80386 0.31003937,
  43.589841 -53.78644 -0.31003937,43.589841 -53.78644 -0.31003937,
  43.607261 -53.80386 0.31003937,43.607261 -53.80386 -0.31003937,
  43.578657 -53.76449 0.31003937,43.589841 -53.78644 0.31003937,
  43.578657 -53.76449 -0.31003937,43.578657 -53.76449 -0.31003937,
  43.589841 -53.78644 0.31003937,43.589841 -53.78644 -0.31003937,
  43.574803 -53.740157 0.31003937,43.578657 -53.76449 0.31003937,
  43.574803 -53.740157 -0.31003937,43.574803 -53.740157 -0.31003937,
  43.578657 -53.76449 0.31003937,43.578657 -53.76449 -0.31003937] }
 coordIndex [
  0,1,2,-1,3,4,5,-1,6,7,8,-1,9,10,11,-1,12,13,14,-1,15,16,17,-1,18,19,20,-1,21,22,23,-1,
  24,25,26,-1,27,28,29,-1,30,31,32,-1,33,34,35,-1,36,37,38,-1,39,40,41,-1,42,43,44,-1,45,46,47,-1,
  48,49,50,-1,51,52,53,-1,54,55,56,-1,57,58,59,-1,60,61,62,-1,63,64,65,-1,66,67,68,-1,69,70,71,-1,
  72,73,74,-1,75,76,77,-1,78,79,80,-1,81,82,83,-1,84,85,86,-1,87,88,89,-1,90,91,92,-1,93,94,95,-1,
  96,97,98,-1,99,100,101,-1,102,103,104,-1,105,106,107,-1,108,109,110,-1,111,112,113,-1,114,115,116,-1,117,118,119,-1,
  120,121,122,-1,123,124,125,-1,126,127,128,-1,129,130,131,-1,132,133,134,-1,135,136,137,-1,138,139,140,-1,141,142,143,-1,
  144,145,146,-1,147,148,149,-1,150,151,152,-1,153,154,155,-1,156,157,158,-1,159,160,161,-1]
  normalPerVertex TRUE
  normal DEF NORM_2 Normal { vector [
  -1 0 0,-1 0 0,
  -1 0 0,-1 0 0,
  -1 0 0,-1 0 0,
  0 -1 0,0 -1 0,
  0 -1 0,0 -1 0,
  0 -1 0,0 -1 0,
  1 0 0,1 0 0,
  1 0 0,1 0 0,
  1 0 0,1 0 0,
  0 -1 0,0 -1 0,
  0 -1 0,0 -1 0,
  0 -1 0,0 -1 0,
  0.67618151 -0.73673507 0,0.67618151 -0.73673507 0,
  0.67618151 -0.73673507 0,0.67618151 -0.73673507 0,
  0.67618151 -0.73673507 0,0.67618151 -0.73673507 0,
  1 0 0,1 0 0,
  1 0 0,1 0 0,
  1 0 0,1 0 0,
  0 1 0,0 1 0,
  0 1 0,0 1 0,
  0 1 0,0 1 0,
  0.98768834 -0.15643447 0,0.98768834 -0.15643447 0,
  0.98768834 -0.15643447 0,0.98768834 -0.15643447 0,
  0.98768834 -0.15643447 0,0.98768834 -0.15643447 0,
  0.89100652 -0.4539905 0,0.89100652 -0.4539905 0,
  0.89100652 -0.4539905 0,0.89100652 -0.4539905 0,
  0.89100652 -0.4539905 0,0.89100652 -0.4539905 0,
  0.70710678 -0.70710678 0,0.70710678 -0.70710678 0,
  0.70710678 -0.70710678 0,0.70710678 -0.70710678 0,
  0.70710678 -0.70710678 0,0.70710678 -0.70710678 0,
  0.4539905 -0.89100652 0,0.4539905 -0.89100652 0,
  0.4539905 -0.89100652 0,0.4539905 -0.89100652 0,
  0.4539905 -0.89100652 0,0.4539905 -0.89100652 0,
  0.15643447 -0.98768834 0,0.15643447 -0.98768834 0,
  0.15643447 -0.98768834 0,0.15643447 -0.98768834 0,
  0.15643447 -0.98768834 0,0.15643447 -0.98768834 0,
  -0.15643447 -0.98768834 0,-0.15643447 -0.98768834 0,
  -0.15643447 -0.98768834 0,-0.15643447 -0.98768834 0,
  -0.15643447 -0.98768834 0,-0.15643447 -0.98768834 0,
  -0.4539905 -0.89100652 0,-0.4539905 -0.89100652 0,
  -0.4539905 -0.89100652 0,-0.4539905 -0.89100652 0,
  -0.4539905 -0.89100652 0,-0.4539905 -0.89100652 0,
  -0.70710678 -0.70710678 0,-0.70710678 -0.70710678 0,
  -0.70710678 -0.70710678 0,-0.70710678 -0.70710678 0,
  -0.70710678 -0.70710678 0,-0.70710678 -0.70710678 0,
  -0.89100652 -0.4539905 0,-0.89100652 -0.4539905 0,
  -0.89100652 -0.4539905 0,-0.89100652 -0.4539905 0,
  -0.89100652 -0.4539905 0,-0.89100652 -0.4539905 0,
  -0.98768834 -0.15643447 0,-0.98768834 -0.15643447 0,
  -0.98768834 -0.15643447 0,-0.98768834 -0.15643447 0,
  -0.98768834 -0.15643447 0,-0.98768834 -0.15643447 0,
  -0.98768834 0.15643447 0,-0.98768834 0.15643447 0,
  -0.98768834 0.15643447 0,-0.98768834 0.15643447 0,
  -0.98768834 0.15643447 0,-0.98768834 0.15643447 0,
  -0.89100652 0.4539905 0,-0.89100652 0.4539905 0,
  -0.89100652 0.4539905 0,-0.89100652 0.4539905 0,
  -0.89100652 0.4539905 0,-0.89100652 0.4539905 0,
  -0.70710678 0.70710678 0,-0.70710678 0.70710678 0,
  -0.70710678 0.70710678 0,-0.70710678 0.70710678 0,
  -0.70710678 0.70710678 0,-0.70710678 0.70710678 0,
  -0.4539905 0.89100652 0,-0.4539905 0.89100652 0,
  -0.4539905 0.89100652 0,-0.4539905 0.89100652 0,
  -0.4539905 0.89100652 0,-0.4539905 0.89100652 0,
  -0.15643447 0.98768834 0,-0.15643447 0.98768834 0,
  -0.15643447 0.98768834 0,-0.15643447 0.98768834 0,
  -0.15643447 0.98768834 0,-0.15643447 0.98768834 0,
  0.15643447 0.98768834 0,0.15643447 0.98768834 0,
  0.15643447 0.98768834 0,0.15643447 0.98768834 0,
  0.15643447 0.98768834 0,0.15643447 0.98768834 0,
  0.4539905 0.89100652 0,0.4539905 0.89100652 0,
  0.4539905 0.89100652 0,0.4539905 0.89100652 0,
  0.4539905 0.89100652 0,0.4539905 0.89100652 0,
  0.70710678 0.70710678 0,0.70710678 0.70710678 0,
  0.70710678 0.70710678 0,0.70710678 0.70710678 0,
  0.70710678 0.70710678 0,0.70710678 0.70710678 0,
  0.89100652 0.4539905 0,0.89100652 0.4539905 0,
  0.89100652 0.4539905 0,0.89100652 0.4539905 0,
  0.89100652 0.4539905 0,0.89100652 0.4539905 0,
  0.98768834 0.15643447 0,0.98768834 0.15643447 0,
  0.98768834 0.15643447 0,0.98768834 0.15643447 0,
  0.98768834 0.15643447 0,0.98768834 0.15643447 0] }
}
}
] }
DEF TXFM_3 Transform {
  center 0 0 0
  rotation 0 0 1 0
  scale 1 1 1
  scaleOrientation 0 0 1 0
  translation 0 0 0
 children [
DEF SHAPE_3 Shape {
 appearance DEF APP_2 Appearance {
  material Material {
   ambientIntensity 1
   diffuseColor 0.75 0.61000001 0.23
   emissiveColor 0 0 0
   shininess 0.89999998
   specularColor 0.89999998 0.84399998 0.69199997
   transparency 0
} }
 geometry DEF FACE_3 IndexedFaceSet {
  coord DEF COORD_3 Coordinate { point [
  42.531496 -53.533465 0.31496063,42.192913 -53.533465 0.31496063,
  42.192913 -54.635827 0.31496063,42.531496 -54.635827 0.31496063,
  50.173228 -44.468504 0.31496063,49.779528 -44.468504 0.31496063,
  49.779528 -45.708661 0.31496063,50.173228 -45.708661 0.31496063,
  47.570866 -53.915354 0.31496063,47.122047 -53.915354 0.31496063,
  47.122047 -54.635827 0.31496063,47.570866 -54.635827 0.31496063,
  42.925197 -54.064961 0.31496063,42.649606 -54.064961 0.31496063,
  42.649606 -54.498031 0.31496063,42.925197 -54.498031 0.31496063,
  43.560979 -53.612753 0.31496063,43.526139 -53.647593 0.31496063,
  43.50377 -53.691493 0.31496063,43.496063 -53.740157 0.31496063,
  43.50377 -53.788822 0.31496063,43.526139 -53.832722 0.31496063,
  43.560979 -53.867562 0.31496063,43.604331 -53.889651 0.31496063,
  43.604331 -54.064961 0.31496063,43.515748 -54.064961 0.31496063,
  43.515748 -54.498031 0.31496063,43.791339 -54.498031 0.31496063,
  43.791339 -54.064961 0.31496063,43.702756 -54.064961 0.31496063,
  43.702756 -53.889651 0.31496063,43.746108 -53.867562 0.31496063,
  43.780948 -53.832722 0.31496063,43.803316 -53.788822 0.31496063,
  43.811024 -53.740157 0.31496063,43.803316 -53.691493 0.31496063,
  43.780948 -53.647593 0.31496063,43.746108 -53.612753 0.31496063,
  43.702207 -53.590385 0.31496063,43.653543 -53.582677 0.31496063,
  43.604879 -53.590385 0.31496063,43.574803 -53.740157 0.31496063,
  43.578657 -53.715825 0.31496063,43.589841 -53.693875 0.31496063,
  43.607261 -53.676455 0.31496063,43.629211 -53.665271 0.31496063,
  43.653543 -53.661417 0.31496063,43.677875 -53.665271 0.31496063,
  43.699826 -53.676455 0.31496063,43.717245 -53.693875 0.31496063,
  43.72843 -53.715825 0.31496063,43.732283 -53.740157 0.31496063,
  43.72843 -53.76449 0.31496063,43.717245 -53.78644 0.31496063,
  43.699826 -53.80386 0.31496063,43.677875 -53.815044 0.31496063,
  43.653543 -53.818898 0.31496063,43.629211 -53.815044 0.31496063,
  43.607261 -53.80386 0.31496063,43.589841 -53.78644 0.31496063,
  43.578657 -53.76449 0.31496063,43.358268 -54.064961 0.31496063,
  43.082677 -54.064961 0.31496063,43.082677 -54.498031 0.31496063,
  43.358268 -54.498031 0.31496063,44.224409 -54.064961 0.31496063,
  43.948819 -54.064961 0.31496063,43.948819 -54.498031 0.31496063,
  44.224409 -54.498031 0.31496063,44.65748 -54.064961 0.31496063,
  44.38189 -54.064961 0.31496063,44.38189 -54.498031 0.31496063,
  44.65748 -54.498031 0.31496063,45.090551 -54.064961 0.31496063,
  44.814961 -54.064961 0.31496063,44.814961 -54.498031 0.31496063,
  45.090551 -54.498031 0.31496063,45.523622 -54.064961 0.31496063,
  45.248031 -54.064961 0.31496063,45.248031 -54.498031 0.31496063,
  45.523622 -54.498031 0.31496063,46.700787 -49.190945 0.31496063,
  46.346457 -49.190945 0.31496063,46.346457 -49.557087 0.31496063,
  46.700787 -49.557087 0.31496063,45.956693 -54.064961 0.31496063,
  45.681102 -54.064961 0.31496063,45.681102 -54.498031 0.31496063,
  45.956693 -54.498031 0.31496063,42.468504 -49.190945 0.31496063,
  42.192913 -49.190945 0.31496063,42.192913 -50.501969 0.31496063,
  42.468504 -50.501969 0.31496063,47.570866 -49.190945 0.31496063,
  47.295276 -49.190945 0.31496063,47.295276 -50.501969 0.31496063,
  47.570866 -50.501969 0.31496063,45.051181 -49.190945 0.31496063,
  44.637795 -49.190945 0.31496063,44.637795 -49.498031 0.31496063,
  45.051181 -49.498031 0.31496063,51.173228 -44.468504 0.31496063,
  50.779528 -44.468504 0.31496063,50.779528 -45.708661 0.31496063,
  51.173228 -45.708661 0.31496063,52.173228 -44.468504 0.31496063,
  51.779528 -44.468504 0.31496063,51.779528 -45.708661 0.31496063,
  52.173228 -45.708661 0.31496063,53.173228 -44.468504 0.31496063,
  52.779528 -44.468504 0.31496063,52.779528 -45.708661 0.31496063,
  53.173228 -45.708661 0.31496063,50.173228 -42.480315 0.31496063,
  49.779528 -42.480315 0.31496063,49.779528 -43.720472 0.31496063,
  50.173228 -43.720472 0.31496063,51.173228 -42.480315 0.31496063,
  50.779528 -42.480315 0.31496063,50.779528 -43.720472 0.31496063,
  51.173228 -43.720472 0.31496063,52.173228 -42.480315 0.31496063,
  51.779528 -42.480315 0.31496063,51.779528 -43.720472 0.31496063,
  52.173228 -43.720472 0.31496063,53.173228 -42.480315 0.31496063,
  52.779528 -42.480315 0.31496063,52.779528 -43.720472 0.31496063,
  53.173228 -43.720472 0.31496063] }
 coordIndex [
  1,2,3,-1,1,3,0,-1,5,6,7,-1,5,7,4,-1,9,10,11,-1,9,11,8,-1,13,14,15,-1,13,15,12,-1,
  58,59,23,-1,23,59,60,-1,23,60,22,-1,22,60,41,-1,22,41,16,-1,16,41,42,-1,16,42,40,-1,40,42,43,-1,
  40,43,44,-1,19,20,18,-1,18,20,21,-1,18,21,17,-1,17,21,22,-1,17,22,16,-1,34,35,33,-1,33,35,36,-1,
  33,36,32,-1,32,36,37,-1,32,37,31,-1,31,37,51,-1,31,51,52,-1,47,48,38,-1,38,48,49,-1,38,49,37,-1,
  37,49,50,-1,37,50,51,-1,39,40,44,-1,39,44,45,-1,39,45,46,-1,39,46,47,-1,39,47,38,-1,55,29,54,-1,
  54,29,30,-1,54,30,53,-1,53,30,31,-1,53,31,52,-1,27,28,29,-1,27,29,57,-1,27,57,58,-1,27,58,23,-1,
  27,23,24,-1,27,24,25,-1,27,25,26,-1,56,57,29,-1,56,29,55,-1,62,63,64,-1,62,64,61,-1,66,67,68,-1,
  66,68,65,-1,70,71,72,-1,70,72,69,-1,74,75,76,-1,74,76,73,-1,78,79,80,-1,78,80,77,-1,82,83,84,-1,
  82,84,81,-1,86,87,88,-1,86,88,85,-1,90,91,92,-1,90,92,89,-1,94,95,96,-1,94,96,93,-1,98,99,100,-1,
  98,100,97,-1,102,103,104,-1,102,104,101,-1,106,107,108,-1,106,108,105,-1,110,111,112,-1,110,112,109,-1,114,115,116,-1,
  114,116,113,-1,118,119,120,-1,118,120,117,-1,122,123,124,-1,122,124,121,-1,126,127,128,-1,126,128,125,-1]
  normalPerVertex TRUE
  normal DEF NORM_3 Normal { vector [
  0 0 1,0 0 1,
  0 0 1,0 0 1,
  0 0 1,0 0 1,
  0 0 1,0 0 1,
  0 0 1,0 0 1,
  0 0 1,0 0 1,
  0 0 1,0 0 1,
  0 0 1,0 0 1,
  0 0 1,0 0 1,
  0 0 1,0 0 1,
  0 0 1,0 0 1,
  0 0 1,0 0 1,
  0 0 1,0 0 1,
  0 0 1,0 0 1,
  0 0 1,0 0 1,
  0 0 1,0 0 1,
  0 0 1,0 0 1,
  0 0 1,0 0 1,
  0 0 1,0 0 1,
  0 0 1,0 0 1,
  0 0 1,0 0 1,
  0 0 1,0 0 1,
  0 0 1,0 0 1,
  0 0 1,0 0 1,
  0 0 1,0 0 1,
  0 0 1,0 0 1,
  0 0 1,0 0 1,
  0 0 1,0 0 1,
  0 0 1,0 0 1,
  0 0 1,0 0 1,
  0 0 1,0 0 1,
  0 0 1,0 0 1,
  0 0 1,0 0 1,
  0 0 1,0 0 1,
  0 0 1,0 0 1,
  0 0 1,0 0 1,
  0 0 1,0 0 1,
  0 0 1,0 0 1,
  0 0 1,0 0 1,
  0 0 1,0 0 1,
  0 0 1,0 0 1,
  0 0 1,0 0 1,
  0 0 1,0 0 1,
  0 0 1,0 0 1,
  0 0 1,0 0 1,
  0 0 1,0 0 1,
  0 0 1,0 0 1,
  0 0 1,0 0 1,
  0 0 1,0 0 1,
  0 0 1,0 0 1,
  0 0 1,0 0 1,
  0 0 1,0 0 1,
  0 0 1,0 0 1,
  0 0 1,0 0 1,
  0 0 1,0 0 1,
  0 0 1,0 0 1,
  0 0 1,0 0 1,
  0 0 1,0 0 1,
  0 0 1,0 0 1,
  0 0 1,0 0 1,
  0 0 1,0 0 1,
  0 0 1,0 0 1,
  0 0 1,0 0 1,
  0 0 1,0 0 1,
  0 0 1] }
}
}
] }
DEF TXFM_4 Transform {
  center 0 0 0
  rotation 0 0 1 0
  scale 1 1 1
  scaleOrientation 0 0 1 0
  translation 0 0 0
 children [
DEF SHAPE_4 Shape {
 appearance DEF APP_3 Appearance {
  material Material {
   ambientIntensity 1
   diffuseColor 0.5 0.5 0.5
   emissiveColor 0 0 0
   shininess 0.69999999
   specularColor 0.80000001 0.80000001 0.80000001
   transparency 0
} }
 geometry DEF FACE_4 IndexedFaceSet {
  coord DEF COORD_4 Coordinate { point [
  42.531496 -53.533465 0.31988189,42.192913 -53.533465 0.31988189,
  42.192913 -54.635827 0.31988189,42.531496 -54.635827 0.31988189,
  50.173228 -44.468504 0.31988189,49.779528 -44.468504 0.31988189,
  49.779528 -45.708661 0.31988189,50.173228 -45.708661 0.31988189,
  47.570866 -53.915354 0.31988189,47.122047 -53.915354 0.31988189,
  47.122047 -54.635827 0.31988189,47.570866 -54.635827 0.31988189,
  42.925197 -54.064961 0.31988189,42.649606 -54.064961 0.31988189,
  42.649606 -54.498031 0.31988189,42.925197 -54.498031 0.31988189,
  43.358268 -54.064961 0.31988189,43.082677 -54.064961 0.31988189,
  43.082677 -54.498031 0.31988189,43.358268 -54.498031 0.31988189,
  43.791339 -54.064961 0.31988189,43.515748 -54.064961 0.31988189,
  43.515748 -54.498031 0.31988189,43.791339 -54.498031 0.31988189,
  44.224409 -54.064961 0.31988189,43.948819 -54.064961 0.31988189,
  43.948819 -54.498031 0.31988189,44.224409 -54.498031 0.31988189,
  44.65748 -54.064961 0.31988189,44.38189 -54.064961 0.31988189,
  44.38189 -54.498031 0.31988189,44.65748 -54.498031 0.31988189,
  45.090551 -54.064961 0.31988189,44.814961 -54.064961 0.31988189,
  44.814961 -54.498031 0.31988189,45.090551 -54.498031 0.31988189,
  45.523622 -54.064961 0.31988189,45.248031 -54.064961 0.31988189,
  45.248031 -54.498031 0.31988189,45.523622 -54.498031 0.31988189,
  46.700787 -49.190945 0.31988189,46.346457 -49.190945 0.31988189,
  46.346457 -49.557087 0.31988189,46.700787 -49.557087 0.31988189,
  45.956693 -54.064961 0.31988189,45.681102 -54.064961 0.31988189,
  45.681102 -54.498031 0.31988189,45.956693 -54.498031 0.31988189,
  42.468504 -49.190945 0.31988189,42.192913 -49.190945 0.31988189,
  42.192913 -50.501969 0.31988189,42.468504 -50.501969 0.31988189,
  47.570866 -49.190945 0.31988189,47.295276 -49.190945 0.31988189,
  47.295276 -50.501969 0.31988189,47.570866 -50.501969 0.31988189,
  45.051181 -49.190945 0.31988189,44.637795 -49.190945 0.31988189,
  44.637795 -49.498031 0.31988189,45.051181 -49.498031 0.31988189,
  51.173228 -44.468504 0.31988189,50.779528 -44.468504 0.31988189,
  50.779528 -45.708661 0.31988189,51.173228 -45.708661 0.31988189,
  52.173228 -44.468504 0.31988189,51.779528 -44.468504 0.31988189,
  51.779528 -45.708661 0.31988189,52.173228 -45.708661 0.31988189,
  53.173228 -44.468504 0.31988189,52.779528 -44.468504 0.31988189,
  52.779528 -45.708661 0.31988189,53.173228 -45.708661 0.31988189,
  50.173228 -42.480315 0.31988189,49.779528 -42.480315 0.31988189,
  49.779528 -43.720472 0.31988189,50.173228 -43.720472 0.31988189,
  51.173228 -42.480315 0.31988189,50.779528 -42.480315 0.31988189,
  50.779528 -43.720472 0.31988189,51.173228 -43.720472 0.31988189,
  52.173228 -42.480315 0.31988189,51.779528 -42.480315 0.31988189,
  51.779528 -43.720472 0.31988189,52.173228 -43.720472 0.31988189,
  53.173228 -42.480315 0.31988189,52.779528 -42.480315 0.31988189,
  52.779528 -43.720472 0.31988189,53.173228 -43.720472 0.31988189] }
 coordIndex [
  1,2,3,-1,1,3,0,-1,5,6,7,-1,5,7,4,-1,9,10,11,-1,9,11,8,-1,13,14,15,-1,13,15,12,-1,
  17,18,19,-1,17,19,16,-1,21,22,23,-1,21,23,20,-1,25,26,27,-1,25,27,24,-1,29,30,31,-1,29,31,28,-1,
  33,34,35,-1,33,35,32,-1,37,38,39,-1,37,39,36,-1,41,42,43,-1,41,43,40,-1,45,46,47,-1,45,47,44,-1,
  49,50,51,-1,49,51,48,-1,53,54,55,-1,53,55,52,-1,57,58,59,-1,57,59,56,-1,61,62,63,-1,61,63,60,-1,
  65,66,67,-1,65,67,64,-1,69,70,71,-1,69,71,68,-1,73,74,75,-1,73,75,72,-1,77,78,79,-1,77,79,76,-1,
  81,82,83,-1,81,83,80,-1,85,86,87,-1,85,87,84,-1]
  normalPerVertex TRUE
  normal DEF NORM_4 Normal { vector [
  0 0 1,0 0 1,
  0 0 1,0 0 1,
  0 0 1,0 0 1,
  0 0 1,0 0 1,
  0 0 1,0 0 1,
  0 0 1,0 0 1,
  0 0 1,0 0 1,
  0 0 1,0 0 1,
  0 0 1,0 0 1,
  0 0 1,0 0 1,
  0 0 1,0 0 1,
  0 0 1,0 0 1,
  0 0 1,0 0 1,
  0 0 1,0 0 1,
  0 0 1,0 0 1,
  0 0 1,0 0 1,
  0 0 1,0 0 1,
  0 0 1,0 0 1,
  0 0 1,0 0 1,
  0 0 1,0 0 1,
  0 0 1,0 0 1,
  0 0 1,0 0 1,
  0 0 1,0 0 1,
  0 0 1,0 0 1,
  0 0 1,0 0 1,
  0 0 1,0 0 1,
  0 0 1,0 0 1,
  0 0 1,0 0 1,
  0 0 1,0 0 1,
  0 0 1,0 0 1,
  0 0 1,0 0 1,
  0 0 1,0 0 1,
  0 0 1,0 0 1,
  0 0 1,0 0 1,
  0 0 1,0 0 1,
  0 0 1,0 0 1,
  0 0 1,0 0 1,
  0 0 1,0 0 1,
  0 0 1,0 0 1,
  0 0 1,0 0 1,
  0 0 1,0 0 1,
  0 0 1,0 0 1,
  0 0 1,0 0 1,
  0 0 1,0 0 1] }
}
}
] }
DEF TXFM_5 Transform {
  center 0 0 0
  rotation 0 0 1 0
  scale 1 1 1
  scaleOrientation 0 0 1 0
  translation 0 0 0
 children [
DEF SHAPE_5 Shape {
 appearance DEF APP_4 Appearance {
  material Material {
   ambientIntensity 1
   diffuseColor 0.079999998 0.2 0.14
   emissiveColor 0 0 0
   shininess 0.30000001
   specularColor 0.35600001 0.44 0.398
   transparency 0.17
} }
 geometry DEF FACE_5 IndexedFaceSet {
  coord DEF COORD_5 Coordinate { point [
  50.192913 -42.480315 0.31988189,50.192913 -43.720472 0.31988189,
  50.191415 -43.728006 0.31988189,50.187148 -43.734392 0.31988189,
  50.180761 -43.738659 0.31988189,50.173228 -43.740157 0.31988189,
  49.779528 -43.740157 0.31988189,49.771994 -43.738659 0.31988189,
  49.765608 -43.734392 0.31988189,49.761341 -43.728006 0.31988189,
  49.759843 -43.720472 0.31988189,49.759843 -42.480315 0.31988189,
  49.761341 -42.472782 0.31988189,49.765608 -42.466396 0.31988189,
  49.771994 -42.462128 0.31988189,49.779528 -42.46063 0.31988189,
  50.173228 -42.46063 0.31988189,50.180761 -42.462128 0.31988189,
  50.187148 -42.466396 0.31988189,50.191415 -42.472782 0.31988189,
  51.192913 -42.480315 0.31988189,51.192913 -43.720472 0.31988189,
  51.191415 -43.728006 0.31988189,51.187148 -43.734392 0.31988189,
  51.180761 -43.738659 0.31988189,51.173228 -43.740157 0.31988189,
  50.779528 -43.740157 0.31988189,50.771994 -43.738659 0.31988189,
  50.765608 -43.734392 0.31988189,50.761341 -43.728006 0.31988189,
  50.759843 -43.720472 0.31988189,50.759843 -42.480315 0.31988189,
  50.761341 -42.472782 0.31988189,50.765608 -42.466396 0.31988189,
  50.771994 -42.462128 0.31988189,50.779528 -42.46063 0.31988189,
  51.173228 -42.46063 0.31988189,51.180761 -42.462128 0.31988189,
  51.187148 -42.466396 0.31988189,51.191415 -42.472782 0.31988189,
  52.192913 -42.480315 0.31988189,52.192913 -43.720472 0.31988189,
  52.191415 -43.728006 0.31988189,52.187148 -43.734392 0.31988189,
  52.180761 -43.738659 0.31988189,52.173228 -43.740157 0.31988189,
  51.779528 -43.740157 0.31988189,51.771994 -43.738659 0.31988189,
  51.765608 -43.734392 0.31988189,51.761341 -43.728006 0.31988189,
  51.759843 -43.720472 0.31988189,51.759843 -42.480315 0.31988189,
  51.761341 -42.472782 0.31988189,51.765608 -42.466396 0.31988189,
  51.771994 -42.462128 0.31988189,51.779528 -42.46063 0.31988189,
  52.173228 -42.46063 0.31988189,52.180761 -42.462128 0.31988189,
  52.187148 -42.466396 0.31988189,52.191415 -42.472782 0.31988189,
  52.759843 -43.720472 0.31988189,52.759843 -42.480315 0.31988189,
  52.761341 -42.472782 0.31988189,52.765608 -42.466396 0.31988189,
  52.771994 -42.462128 0.31988189,52.779528 -42.46063 0.31988189,
  53.173228 -42.46063 0.31988189,53.180761 -42.462128 0.31988189,
  53.187148 -42.466396 0.31988189,53.191415 -42.472782 0.31988189,
  53.192913 -42.480315 0.31988189,53.192913 -43.720472 0.31988189,
  53.191415 -43.728006 0.31988189,53.187148 -43.734392 0.31988189,
  53.180761 -43.738659 0.31988189,53.173228 -43.740157 0.31988189,
  52.779528 -43.740157 0.31988189,52.771994 -43.738659 0.31988189,
  52.765608 -43.734392 0.31988189,52.761341 -43.728006 0.31988189,
  52.759843 -44.468504 0.31988189,52.761341 -44.460971 0.31988189,
  52.765608 -44.454585 0.31988189,52.771994 -44.450317 0.31988189,
  52.779528 -44.448819 0.31988189,53.173228 -44.448819 0.31988189,
  53.180761 -44.450317 0.31988189,53.187148 -44.454585 0.31988189,
  53.191415 -44.460971 0.31988189,53.192913 -44.468504 0.31988189,
  53.192913 -45.708661 0.31988189,53.191415 -45.716194 0.31988189,
  53.187148 -45.722581 0.31988189,53.180761 -45.726848 0.31988189,
  53.173228 -45.728346 0.31988189,52.779528 -45.728346 0.31988189,
  52.771994 -45.726848 0.31988189,52.765608 -45.722581 0.31988189,
  52.761341 -45.716194 0.31988189,52.759843 -45.708661 0.31988189,
  51.759843 -44.468504 0.31988189,51.761341 -44.460971 0.31988189,
  51.765608 -44.454585 0.31988189,51.771994 -44.450317 0.31988189,
  51.779528 -44.448819 0.31988189,52.173228 -44.448819 0.31988189,
  52.180761 -44.450317 0.31988189,52.187148 -44.454585 0.31988189,
  52.191415 -44.460971 0.31988189,52.192913 -44.468504 0.31988189,
  52.192913 -45.708661 0.31988189,52.191415 -45.716194 0.31988189,
  52.187148 -45.722581 0.31988189,52.180761 -45.726848 0.31988189,
  52.173228 -45.728346 0.31988189,51.779528 -45.728346 0.31988189,
  51.771994 -45.726848 0.31988189,51.765608 -45.722581 0.31988189,
  51.761341 -45.716194 0.31988189,51.759843 -45.708661 0.31988189,
  50.759843 -44.468504 0.31988189,50.761341 -44.460971 0.31988189,
  50.765608 -44.454585 0.31988189,50.771994 -44.450317 0.31988189,
  50.779528 -44.448819 0.31988189,51.173228 -44.448819 0.31988189,
  51.180761 -44.450317 0.31988189,51.187148 -44.454585 0.31988189,
  51.191415 -44.460971 0.31988189,51.192913 -44.468504 0.31988189,
  51.192913 -45.708661 0.31988189,51.191415 -45.716194 0.31988189,
  51.187148 -45.722581 0.31988189,51.180761 -45.726848 0.31988189,
  51.173228 -45.728346 0.31988189,50.779528 -45.728346 0.31988189,
  50.771994 -45.726848 0.31988189,50.765608 -45.722581 0.31988189,
  50.761341 -45.716194 0.31988189,50.759843 -45.708661 0.31988189,
  49.759843 -44.468504 0.31988189,49.761341 -44.460971 0.31988189,
  49.765608 -44.454585 0.31988189,49.771994 -44.450317 0.31988189,
  49.779528 -44.448819 0.31988189,50.173228 -44.448819 0.31988189,
  50.180761 -44.450317 0.31988189,50.187148 -44.454585 0.31988189,
  50.191415 -44.460971 0.31988189,50.192913 -44.468504 0.31988189,
  50.192913 -45.708661 0.31988189,50.191415 -45.716194 0.31988189,
  50.187148 -45.722581 0.31988189,50.180761 -45.726848 0.31988189,
  50.173228 -45.728346 0.31988189,49.779528 -45.728346 0.31988189,
  49.771994 -45.726848 0.31988189,49.765608 -45.722581 0.31988189,
  49.761341 -45.716194 0.31988189,49.759843 -45.708661 0.31988189,
  45.228346 -54.498031 0.31988189,45.228346 -54.064961 0.31988189,
  45.229845 -54.057428 0.31988189,45.234112 -54.051041 0.31988189,
  45.240498 -54.046774 0.31988189,45.248031 -54.045276 0.31988189,
  45.523622 -54.045276 0.31988189,45.531155 -54.046774 0.31988189,
  45.537541 -54.051041 0.31988189,45.541809 -54.057428 0.31988189,
  45.543307 -54.064961 0.31988189,45.543307 -54.498031 0.31988189,
  45.541809 -54.505565 0.31988189,45.537541 -54.511951 0.31988189,
  45.531155 -54.516218 0.31988189,45.523622 -54.517717 0.31988189,
  45.248031 -54.517717 0.31988189,45.240498 -54.516218 0.31988189,
  45.234112 -54.511951 0.31988189,45.229845 -54.505565 0.31988189,
  46.326772 -49.557087 0.31988189,46.326772 -49.190945 0.31988189,
  46.32827 -49.183412 0.31988189,46.332537 -49.177026 0.31988189,
  46.338924 -49.172758 0.31988189,46.346457 -49.17126 0.31988189,
  46.700787 -49.17126 0.31988189,46.70832 -49.172758 0.31988189,
  46.714707 -49.177026 0.31988189,46.718974 -49.183412 0.31988189,
  46.720472 -49.190945 0.31988189,46.720472 -49.557087 0.31988189,
  46.718974 -49.56462 0.31988189,46.714707 -49.571006 0.31988189,
  46.70832 -49.575273 0.31988189,46.700787 -49.576772 0.31988189,
  46.346457 -49.576772 0.31988189,46.338924 -49.575273 0.31988189,
  46.332537 -49.571006 0.31988189,46.32827 -49.56462 0.31988189,
  45.976378 -54.064961 0.31988189,45.976378 -54.498031 0.31988189,
  45.97488 -54.505565 0.31988189,45.970612 -54.511951 0.31988189,
  45.964226 -54.516218 0.31988189,45.956693 -54.517717 0.31988189,
  45.681102 -54.517717 0.31988189,45.673569 -54.516218 0.31988189,
  45.667183 -54.511951 0.31988189,45.662916 -54.505565 0.31988189,
  45.661417 -54.498031 0.31988189,45.661417 -54.064961 0.31988189,
  45.662916 -54.057428 0.31988189,45.667183 -54.051041 0.31988189,
  45.673569 -54.046774 0.31988189,45.681102 -54.045276 0.31988189,
  45.956693 -54.045276 0.31988189,45.964226 -54.046774 0.31988189,
  45.970612 -54.051041 0.31988189,45.97488 -54.057428 0.31988189,
  47.275591 -50.501969 0.31988189,47.275591 -49.190945 0.31988189,
  47.277089 -49.183412 0.31988189,47.281356 -49.177026 0.31988189,
  47.287743 -49.172758 0.31988189,47.295276 -49.17126 0.31988189,
  47.570866 -49.17126 0.31988189,47.578399 -49.172758 0.31988189,
  47.584785 -49.177026 0.31988189,47.589053 -49.183412 0.31988189,
  47.590551 -49.190945 0.31988189,47.590551 -50.501969 0.31988189,
  47.589053 -50.509502 0.31988189,47.584785 -50.515888 0.31988189,
  47.578399 -50.520155 0.31988189,47.570866 -50.521654 0.31988189,
  47.295276 -50.521654 0.31988189,47.287743 -50.520155 0.31988189,
  47.281356 -50.515888 0.31988189,47.277089 -50.509502 0.31988189,
  47.122047 -53.895669 0.31988189,47.570866 -53.895669 0.31988189,
  47.578399 -53.897168 0.31988189,47.584785 -53.901435 0.31988189,
  47.589053 -53.907821 0.31988189,47.590551 -53.915354 0.31988189,
  47.590551 -54.635827 0.31988189,47.589053 -54.64336 0.31988189,
  47.584785 -54.649746 0.31988189,47.578399 -54.654013 0.31988189,
  47.570866 -54.655512 0.31988189,47.122047 -54.655512 0.31988189,
  47.114514 -54.654013 0.31988189,47.108128 -54.649746 0.31988189,
  47.103861 -54.64336 0.31988189,47.102362 -54.635827 0.31988189,
  47.102362 -53.915354 0.31988189,47.103861 -53.907821 0.31988189,
  47.108128 -53.901435 0.31988189,47.114514 -53.897168 0.31988189,
  40.787402 -39.370079 0.31988189,40.787402 -43.720472 0.31988189,
  40.787402 -45.708661 0.31988189,40.787402 -50.501969 0.31988189,
  40.787402 -54.635827 0.31988189,40.787402 -55.03937 0.31988189,
  49.133858 -55.03937 0.31988189,49.133858 -50.314961 0.31988189,
  56.181102 -50.314961 0.31988189,59.055118 -47.677165 0.31988189,
  59.055118 -39.370079 0.31988189,42.629921 -54.498031 0.31988189,
  42.629921 -54.064961 0.31988189,42.63142 -54.057428 0.31988189,
  42.635687 -54.051041 0.31988189,42.642073 -54.046774 0.31988189,
  42.649606 -54.045276 0.31988189,42.925197 -54.045276 0.31988189,
  42.93273 -54.046774 0.31988189,42.939116 -54.051041 0.31988189,
  42.943383 -54.057428 0.31988189,42.944882 -54.064961 0.31988189,
  42.944882 -54.498031 0.31988189,42.943383 -54.505565 0.31988189,
  42.939116 -54.511951 0.31988189,42.93273 -54.516218 0.31988189,
  42.925197 -54.517717 0.31988189,42.649606 -54.517717 0.31988189,
  42.642073 -54.516218 0.31988189,42.635687 -54.511951 0.31988189,
  42.63142 -54.505565 0.31988189,43.062992 -54.498031 0.31988189,
  43.062992 -54.064961 0.31988189,43.064491 -54.057428 0.31988189,
  43.068758 -54.051041 0.31988189,43.075144 -54.046774 0.31988189,
  43.082677 -54.045276 0.31988189,43.358268 -54.045276 0.31988189,
  43.365801 -54.046774 0.31988189,43.372187 -54.051041 0.31988189,
  43.376454 -54.057428 0.31988189,43.377953 -54.064961 0.31988189,
  43.377953 -54.498031 0.31988189,43.376454 -54.505565 0.31988189,
  43.372187 -54.511951 0.31988189,43.365801 -54.516218 0.31988189,
  43.358268 -54.517717 0.31988189,43.082677 -54.517717 0.31988189,
  43.075144 -54.516218 0.31988189,43.068758 -54.511951 0.31988189,
  43.064491 -54.505565 0.31988189,43.929134 -54.498031 0.31988189,
  43.929134 -54.064961 0.31988189,43.930632 -54.057428 0.31988189,
  43.9349 -54.051041 0.31988189,43.941286 -54.046774 0.31988189,
  43.948819 -54.045276 0.31988189,44.224409 -54.045276 0.31988189,
  44.231943 -54.046774 0.31988189,44.238329 -54.051041 0.31988189,
  44.242596 -54.057428 0.31988189,44.244094 -54.064961 0.31988189,
  44.244094 -54.498031 0.31988189,44.242596 -54.505565 0.31988189,
  44.238329 -54.511951 0.31988189,44.231943 -54.516218 0.31988189,
  44.224409 -54.517717 0.31988189,43.948819 -54.517717 0.31988189,
  43.941286 -54.516218 0.31988189,43.9349 -54.511951 0.31988189,
  43.930632 -54.505565 0.31988189,45.090551 -54.045276 0.31988189,
  45.098084 -54.046774 0.31988189,45.10447 -54.051041 0.31988189,
  45.108738 -54.057428 0.31988189,45.110236 -54.064961 0.31988189,
  45.110236 -54.498031 0.31988189,45.108738 -54.505565 0.31988189,
  45.10447 -54.511951 0.31988189,45.098084 -54.516218 0.31988189,
  45.090551 -54.517717 0.31988189,44.814961 -54.517717 0.31988189,
  44.807428 -54.516218 0.31988189,44.801041 -54.511951 0.31988189,
  44.796774 -54.505565 0.31988189,44.795276 -54.498031 0.31988189,
  44.795276 -54.064961 0.31988189,44.796774 -54.057428 0.31988189,
  44.801041 -54.051041 0.31988189,44.807428 -54.046774 0.31988189,
  44.814961 -54.045276 0.31988189,45.070866 -49.190945 0.31988189,
  45.070866 -49.498031 0.31988189,45.069368 -49.505565 0.31988189,
  45.0651 -49.511951 0.31988189,45.058714 -49.516218 0.31988189,
  45.051181 -49.517717 0.31988189,44.637795 -49.517717 0.31988189,
  44.630262 -49.516218 0.31988189,44.623876 -49.511951 0.31988189,
  44.619609 -49.505565 0.31988189,44.61811 -49.498031 0.31988189,
  44.61811 -49.190945 0.31988189,44.619609 -49.183412 0.31988189,
  44.623876 -49.177026 0.31988189,44.630262 -49.172758 0.31988189,
  44.637795 -49.17126 0.31988189,45.051181 -49.17126 0.31988189,
  45.058714 -49.172758 0.31988189,45.0651 -49.177026 0.31988189,
  45.069368 -49.183412 0.31988189,44.38189 -54.045276 0.31988189,
  44.65748 -54.045276 0.31988189,44.665013 -54.046774 0.31988189,
  44.6714 -54.051041 0.31988189,44.675667 -54.057428 0.31988189,
  44.677165 -54.064961 0.31988189,44.677165 -54.498031 0.31988189,
  44.675667 -54.505565 0.31988189,44.6714 -54.511951 0.31988189,
  44.665013 -54.516218 0.31988189,44.65748 -54.517717 0.31988189,
  44.38189 -54.517717 0.31988189,44.374357 -54.516218 0.31988189,
  44.36797 -54.511951 0.31988189,44.363703 -54.505565 0.31988189,
  44.362205 -54.498031 0.31988189,44.362205 -54.064961 0.31988189,
  44.363703 -54.057428 0.31988189,44.36797 -54.051041 0.31988189,
  44.374357 -54.046774 0.31988189,43.791339 -54.045276 0.31988189,
  43.798872 -54.046774 0.31988189,43.805258 -54.051041 0.31988189,
  43.809525 -54.057428 0.31988189,43.811024 -54.064961 0.31988189,
  43.811024 -54.498031 0.31988189,43.809525 -54.505565 0.31988189,
  43.805258 -54.511951 0.31988189,43.798872 -54.516218 0.31988189,
  43.791339 -54.517717 0.31988189,43.515748 -54.517717 0.31988189,
  43.508215 -54.516218 0.31988189,43.501829 -54.511951 0.31988189,
  43.497561 -54.505565 0.31988189,43.496063 -54.498031 0.31988189,
  43.496063 -54.064961 0.31988189,43.497561 -54.057428 0.31988189,
  43.501829 -54.051041 0.31988189,43.508215 -54.046774 0.31988189,
  43.515748 -54.045276 0.31988189,43.732283 -53.740157 0.31988189,
  43.72843 -53.76449 0.31988189,43.717245 -53.78644 0.31988189,
  43.699826 -53.80386 0.31988189,43.677875 -53.815044 0.31988189,
  43.653543 -53.818898 0.31988189,43.629211 -53.815044 0.31988189,
  43.607261 -53.80386 0.31988189,43.589841 -53.78644 0.31988189,
  43.578657 -53.76449 0.31988189,43.574803 -53.740157 0.31988189,
  43.578657 -53.715825 0.31988189,43.589841 -53.693875 0.31988189,
  43.607261 -53.676455 0.31988189,43.629211 -53.665271 0.31988189,
  43.653543 -53.661417 0.31988189,43.677875 -53.665271 0.31988189,
  43.699826 -53.676455 0.31988189,43.717245 -53.693875 0.31988189,
  43.72843 -53.715825 0.31988189,42.531496 -53.51378 0.31988189,
  42.539029 -53.515278 0.31988189,42.545415 -53.519545 0.31988189,
  42.549683 -53.525931 0.31988189,42.551181 -53.533465 0.31988189,
  42.551181 -54.498031 0.31988189,42.551181 -54.635827 0.31988189,
  42.549683 -54.64336 0.31988189,42.545415 -54.649746 0.31988189,
  42.539029 -54.654013 0.31988189,42.531496 -54.655512 0.31988189,
  42.192913 -54.655512 0.31988189,42.18538 -54.654013 0.31988189,
  42.178994 -54.649746 0.31988189,42.174727 -54.64336 0.31988189,
  42.173228 -54.635827 0.31988189,42.173228 -53.533465 0.31988189,
  42.174727 -53.525931 0.31988189,42.178994 -53.519545 0.31988189,
  42.18538 -53.515278 0.31988189,42.192913 -53.51378 0.31988189,
  42.488189 -49.190945 0.31988189,42.488189 -49.498031 0.31988189,
  42.488189 -49.557087 0.31988189,42.488189 -50.501969 0.31988189,
  42.486691 -50.509502 0.31988189,42.482423 -50.515888 0.31988189,
  42.476037 -50.520155 0.31988189,42.468504 -50.521654 0.31988189,
  42.192913 -50.521654 0.31988189,42.18538 -50.520155 0.31988189,
  42.178994 -50.515888 0.31988189,42.174727 -50.509502 0.31988189,
  42.173228 -50.501969 0.31988189,42.173228 -49.190945 0.31988189,
  42.174727 -49.183412 0.31988189,42.178994 -49.177026 0.31988189,
  42.18538 -49.172758 0.31988189,42.192913 -49.17126 0.31988189,
  42.468504 -49.17126 0.31988189,42.476037 -49.172758 0.31988189,
  42.482423 -49.177026 0.31988189,42.486691 -49.183412 0.31988189] }
 coordIndex [
  236,241,235,-1,235,241,242,-1,235,242,234,-1,234,242,243,-1,234,243,233,-1,233,243,244,-1,233,244,232,-1,232,244,245,-1,
  232,245,231,-1,231,245,266,-1,231,266,230,-1,230,266,267,-1,230,267,11,-1,11,267,159,-1,11,159,140,-1,241,236,237,-1,
  241,237,238,-1,241,238,239,-1,241,239,220,-1,241,220,240,-1,11,140,10,-1,10,140,141,-1,10,141,9,-1,9,141,142,-1,
  9,142,8,-1,8,142,143,-1,8,143,7,-1,7,143,144,-1,7,144,6,-1,6,144,145,-1,6,145,5,-1,5,145,146,-1,
  5,146,4,-1,4,146,147,-1,4,147,3,-1,3,147,148,-1,3,148,2,-1,2,148,149,-1,2,149,1,-1,1,149,138,-1,
  1,138,139,-1,0,139,31,-1,31,139,120,-1,31,120,30,-1,30,120,121,-1,30,121,29,-1,29,121,122,-1,29,122,28,-1,
  28,122,123,-1,28,123,27,-1,27,123,124,-1,27,124,26,-1,26,124,125,-1,26,125,25,-1,25,125,126,-1,25,126,24,-1,
  24,126,127,-1,24,127,23,-1,23,127,128,-1,23,128,22,-1,22,128,129,-1,22,129,21,-1,21,129,118,-1,21,118,119,-1,
  20,119,51,-1,51,119,100,-1,51,100,50,-1,50,100,101,-1,50,101,49,-1,49,101,102,-1,49,102,48,-1,48,102,103,-1,
  48,103,47,-1,47,103,104,-1,47,104,46,-1,46,104,105,-1,46,105,45,-1,45,105,106,-1,45,106,44,-1,44,106,107,-1,
  44,107,43,-1,43,107,108,-1,43,108,42,-1,42,108,109,-1,42,109,41,-1,41,109,98,-1,41,98,99,-1,68,69,270,-1,
  270,69,70,-1,270,70,268,-1,268,70,71,-1,268,71,89,-1,89,71,72,-1,89,72,88,-1,88,72,73,-1,88,73,87,-1,
  87,73,74,-1,87,74,86,-1,86,74,75,-1,86,75,85,-1,85,75,76,-1,85,76,84,-1,84,76,77,-1,84,77,83,-1,
  83,77,78,-1,83,78,82,-1,82,78,79,-1,82,79,81,-1,81,79,60,-1,81,60,80,-1,80,60,61,-1,80,61,99,-1,
  99,61,40,-1,99,40,41,-1,270,260,14,-1,270,14,15,-1,270,15,16,-1,270,16,17,-1,270,17,18,-1,270,18,19,-1,
  270,19,0,-1,270,0,34,-1,270,34,35,-1,270,35,36,-1,270,36,37,-1,270,37,38,-1,270,38,39,-1,270,39,20,-1,
  270,20,54,-1,270,54,55,-1,270,55,56,-1,270,56,57,-1,270,57,58,-1,270,58,59,-1,270,59,40,-1,270,40,64,-1,
  270,64,65,-1,270,65,66,-1,270,66,67,-1,270,67,68,-1,40,61,62,-1,40,62,63,-1,40,63,64,-1,20,51,52,-1,
  20,52,53,-1,20,53,54,-1,0,31,32,-1,0,32,33,-1,0,33,34,-1,12,13,351,-1,12,351,182,-1,12,182,183,-1,
  12,183,184,-1,12,184,185,-1,12,185,186,-1,12,186,187,-1,12,187,188,-1,12,188,189,-1,12,189,190,-1,12,190,222,-1,
  12,222,223,-1,12,223,224,-1,12,224,225,-1,12,225,226,-1,12,226,227,-1,12,227,228,-1,12,228,229,-1,12,229,230,-1,
  12,230,11,-1,221,222,190,-1,221,190,256,-1,221,256,257,-1,221,257,258,-1,221,258,259,-1,221,259,240,-1,221,240,220,-1,
  255,256,190,-1,255,190,191,-1,255,191,192,-1,255,192,193,-1,255,193,194,-1,255,194,195,-1,255,195,196,-1,255,196,197,-1,
  255,197,198,-1,255,198,199,-1,255,199,180,-1,255,180,200,-1,255,200,254,-1,181,182,165,-1,181,165,166,-1,181,166,167,-1,
  181,167,168,-1,181,168,169,-1,181,169,170,-1,181,170,211,-1,181,211,212,-1,181,212,213,-1,181,213,214,-1,181,214,215,-1,
  181,215,216,-1,181,216,217,-1,181,217,218,-1,181,218,219,-1,181,219,200,-1,181,200,180,-1,207,208,171,-1,171,208,209,-1,
  171,209,170,-1,170,209,210,-1,170,210,211,-1,182,351,331,-1,182,331,332,-1,182,332,333,-1,182,333,334,-1,182,334,335,-1,
  182,335,162,-1,182,162,163,-1,182,163,164,-1,182,164,165,-1,177,178,336,-1,336,178,179,-1,336,179,335,-1,335,179,160,-1,
  335,160,161,-1,13,14,260,-1,13,260,467,-1,13,467,468,-1,13,468,469,-1,13,469,470,-1,13,470,471,-1,13,471,472,-1,
  13,472,473,-1,13,473,452,-1,13,452,364,-1,13,364,365,-1,13,365,366,-1,13,366,367,-1,13,367,368,-1,13,368,369,-1,
  13,369,370,-1,13,370,351,-1,362,363,429,-1,362,429,430,-1,362,430,411,-1,362,411,391,-1,362,391,392,-1,362,392,393,-1,
  362,393,394,-1,362,394,395,-1,362,395,312,-1,362,312,313,-1,362,313,314,-1,362,314,315,-1,362,315,316,-1,362,316,317,-1,
  362,317,318,-1,362,318,319,-1,362,319,320,-1,362,320,321,-1,362,321,387,-1,362,387,388,-1,362,388,389,-1,362,389,390,-1,
  362,390,371,-1,362,371,361,-1,383,384,322,-1,322,384,385,-1,322,385,321,-1,321,385,386,-1,321,386,387,-1,328,329,396,-1,
  396,329,330,-1,396,330,395,-1,395,330,311,-1,395,311,312,-1,363,364,452,-1,363,452,431,-1,363,431,432,-1,363,432,433,-1,
  363,433,434,-1,363,434,435,-1,363,435,273,-1,363,273,274,-1,363,274,275,-1,363,275,276,-1,363,276,277,-1,363,277,278,-1,
  363,278,279,-1,363,279,280,-1,363,280,281,-1,363,281,293,-1,363,293,294,-1,363,294,295,-1,363,295,296,-1,363,296,297,-1,
  363,297,298,-1,363,298,299,-1,363,299,300,-1,363,300,301,-1,363,301,407,-1,363,407,422,-1,363,422,423,-1,363,423,424,-1,
  363,424,425,-1,363,425,426,-1,363,426,427,-1,363,427,428,-1,363,428,429,-1,410,391,419,-1,410,419,420,-1,410,420,421,-1,
  410,421,422,-1,410,422,409,-1,422,407,408,-1,422,408,409,-1,402,403,302,-1,302,403,404,-1,302,404,301,-1,301,404,405,-1,
  301,405,406,-1,308,309,282,-1,282,309,310,-1,282,310,281,-1,281,310,291,-1,281,291,292,-1,289,290,436,-1,436,290,271,-1,
  436,271,435,-1,435,271,272,-1,435,272,273,-1,458,459,431,-1,431,459,460,-1,431,460,451,-1,451,460,461,-1,451,461,450,-1,
  450,461,462,-1,450,462,449,-1,449,462,463,-1,449,463,448,-1,448,463,464,-1,448,464,447,-1,447,464,465,-1,447,465,446,-1,
  446,465,260,-1,446,260,261,-1,466,467,260,-1,466,260,465,-1,268,89,90,-1,268,90,91,-1,268,91,92,-1,268,92,93,-1,
  268,93,94,-1,268,94,95,-1,268,95,96,-1,268,96,97,-1,268,97,110,-1,268,110,111,-1,268,111,112,-1,268,112,113,-1,
  268,113,114,-1,268,114,115,-1,268,115,116,-1,268,116,117,-1,268,117,130,-1,268,130,131,-1,268,131,132,-1,268,132,133,-1,
  268,133,134,-1,268,134,135,-1,268,135,136,-1,268,136,137,-1,268,137,150,-1,268,150,151,-1,268,151,152,-1,268,152,153,-1,
  268,153,154,-1,268,154,155,-1,268,155,156,-1,268,156,157,-1,268,157,267,-1,110,97,98,-1,110,98,109,-1,130,117,118,-1,
  130,118,129,-1,150,137,138,-1,150,138,149,-1,158,159,267,-1,158,267,157,-1,266,245,246,-1,266,246,247,-1,266,247,248,-1,
  266,248,249,-1,266,249,250,-1,266,250,251,-1,266,251,201,-1,266,201,202,-1,266,202,203,-1,266,203,204,-1,266,204,205,-1,
  266,205,206,-1,266,206,171,-1,266,171,172,-1,266,172,173,-1,266,173,174,-1,266,174,175,-1,266,175,176,-1,266,176,337,-1,
  266,337,338,-1,266,338,339,-1,266,339,340,-1,266,340,341,-1,266,341,378,-1,266,378,379,-1,266,379,380,-1,266,380,381,-1,
  266,381,382,-1,266,382,323,-1,266,323,324,-1,266,324,325,-1,266,325,326,-1,266,326,327,-1,266,327,397,-1,266,397,398,-1,
  266,398,399,-1,266,399,400,-1,266,400,401,-1,266,401,303,-1,266,303,304,-1,266,304,305,-1,266,305,306,-1,266,306,307,-1,
  266,307,284,-1,266,284,285,-1,266,285,286,-1,266,286,287,-1,266,287,437,-1,266,437,438,-1,266,438,439,-1,266,439,440,-1,
  266,440,441,-1,266,441,442,-1,266,442,264,-1,266,264,265,-1,200,201,252,-1,200,252,253,-1,200,253,254,-1,336,337,176,-1,
  336,176,177,-1,376,377,344,-1,376,344,345,-1,376,345,346,-1,376,346,356,-1,376,356,375,-1,377,378,341,-1,377,341,342,-1,
  377,342,343,-1,377,343,344,-1,322,323,382,-1,322,382,383,-1,396,397,327,-1,396,327,328,-1,302,303,401,-1,302,401,402,-1,
  307,308,282,-1,307,282,283,-1,307,283,284,-1,288,289,436,-1,288,436,437,-1,288,437,287,-1,443,444,264,-1,264,444,445,-1,
  264,445,263,-1,263,445,446,-1,263,446,262,-1,262,446,261,-1,331,351,352,-1,331,352,353,-1,331,353,354,-1,331,354,355,-1,
  331,355,356,-1,331,356,350,-1,356,346,347,-1,356,347,348,-1,356,348,349,-1,356,349,350,-1,356,357,372,-1,356,372,373,-1,
  356,373,374,-1,356,374,375,-1,372,357,358,-1,372,358,359,-1,372,359,360,-1,372,360,361,-1,372,361,371,-1,391,411,412,-1,
  391,412,413,-1,391,413,414,-1,391,414,415,-1,391,415,416,-1,391,416,417,-1,391,417,418,-1,391,418,419,-1,431,452,453,-1,
  431,453,454,-1,431,454,455,-1,431,455,456,-1,431,456,457,-1,431,457,458,-1,264,442,443,-1,171,206,207,-1,201,251,252,-1,
  1,139,0,-1,21,119,20,-1,293,281,292,-1,407,301,406,-1,162,335,161,-1,270,268,269,-1]
  normalPerVertex TRUE
  normal DEF NORM_5 Normal { vector [
  0 0 1,0 0 1,
  0 0 1,0 0 1,
  0 0 1,0 0 1,
  0 0 1,0 0 1,
  0 0 1,0 0 1,
  0 0 1,0 0 1,
  0 0 1,0 0 1,
  0 0 1,0 0 1,
  0 0 1,0 0 1,
  0 0 1,0 0 1,
  0 0 1,0 0 1,
  0 0 1,0 0 1,
  0 0 1,0 0 1,
  0 0 1,0 0 1,
  0 0 1,0 0 1,
  0 0 1,0 0 1,
  0 0 1,0 0 1,
  0 0 1,0 0 1,
  0 0 1,0 0 1,
  0 0 1,0 0 1,
  0 0 1,0 0 1,
  0 0 1,0 0 1,
  0 0 1,0 0 1,
  0 0 1,0 0 1,
  0 0 1,0 0 1,
  0 0 1,0 0 1,
  0 0 1,0 0 1,
  0 0 1,0 0 1,
  0 0 1,0 0 1,
  0 0 1,0 0 1,
  0 0 1,0 0 1,
  0 0 1,0 0 1,
  0 0 1,0 0 1,
  0 0 1,0 0 1,
  0 0 1,0 0 1,
  0 0 1,0 0 1,
  0 0 1,0 0 1,
  0 0 1,0 0 1,
  0 0 1,0 0 1,
  0 0 1,0 0 1,
  0 0 1,0 0 1,
  0 0 1,0 0 1,
  0 0 1,0 0 1,
  0 0 1,0 0 1,
  0 0 1,0 0 1,
  0 0 1,0 0 1,
  0 0 1,0 0 1,
  0 0 1,0 0 1,
  0 0 1,0 0 1,
  0 0 1,0 0 1,
  0 0 1,0 0 1,
  0 0 1,0 0 1,
  0 0 1,0 0 1,
  0 0 1,0 0 1,
  0 0 1,0 0 1,
  0 0 1,0 0 1,
  0 0 1,0 0 1,
  0 0 1,0 0 1,
  0 0 1,0 0 1,
  0 0 1,0 0 1,
  0 0 1,0 0 1,
  0 0 1,0 0 1,
  0 0 1,0 0 1,
  0 0 1,0 0 1,
  0 0 1,0 0 1,
  0 0 1,0 0 1,
  0 0 1,0 0 1,
  0 0 1,0 0 1,
  0 0 1,0 0 1,
  0 0 1,0 0 1,
  0 0 1,0 0 1,
  0 0 1,0 0 1,
  0 0 1,0 0 1,
  0 0 1,0 0 1,
  0 0 1,0 0 1,
  0 0 1,0 0 1,
  0 0 1,0 0 1,
  0 0 1,0 0 1,
  0 0 1,0 0 1,
  0 0 1,0 0 1,
  0 0 1,0 0 1,
  0 0 1,0 0 1,
  0 0 1,0 0 1,
  0 0 1,0 0 1,
  0 0 1,0 0 1,
  0 0 1,0 0 1,
  0 0 1,0 0 1,
  0 0 1,0 0 1,
  0 0 1,0 0 1,
  0 0 1,0 0 1,
  0 0 1,0 0 1,
  0 0 1,0 0 1,
  0 0 1,0 0 1,
  0 0 1,0 0 1,
  0 0 1,0 0 1,
  0 0 1,0 0 1,
  0 0 1,0 0 1,
  0 0 1,0 0 1,
  0 0 1,0 0 1,
  0 0 1,0 0 1,
  0 0 1,0 0 1,
  0 0 1,0 0 1,
  0 0 1,0 0 1,
  0 0 1,0 0 1,
  0 0 1,0 0 1,
  0 0 1,0 0 1,
  0 0 1,0 0 1,
  0 0 1,0 0 1,
  0 0 1,0 0 1,
  0 0 1,0 0 1,
  0 0 1,0 0 1,
  0 0 1,0 0 1,
  0 0 1,0 0 1,
  0 0 1,0 0 1,
  0 0 1,0 0 1,
  0 0 1,0 0 1,
  0 0 1,0 0 1,
  0 0 1,0 0 1,
  0 0 1,0 0 1,
  0 0 1,0 0 1,
  0 0 1,0 0 1,
  0 0 1,0 0 1,
  0 0 1,0 0 1,
  0 0 1,0 0 1,
  0 0 1,0 0 1,
  0 0 1,0 0 1,
  0 0 1,0 0 1,
  0 0 1,0 0 1,
  0 0 1,0 0 1,
  0 0 1,0 0 1,
  0 0 1,0 0 1,
  0 0 1,0 0 1,
  0 0 1,0 0 1,
  0 0 1,0 0 1,
  0 0 1,0 0 1,
  0 0 1,0 0 1,
  0 0 1,0 0 1,
  0 0 1,0 0 1,
  0 0 1,0 0 1,
  0 0 1,0 0 1,
  0 0 1,0 0 1,
  0 0 1,0 0 1,
  0 0 1,0 0 1,
  0 0 1,0 0 1,
  0 0 1,0 0 1,
  0 0 1,0 0 1,
  0 0 1,0 0 1,
  0 0 1,0 0 1,
  0 0 1,0 0 1,
  0 0 1,0 0 1,
  0 0 1,0 0 1,
  0 0 1,0 0 1,
  0 0 1,0 0 1,
  0 0 1,0 0 1,
  0 0 1,0 0 1,
  0 0 1,0 0 1,
  0 0 1,0 0 1,
  0 0 1,0 0 1,
  0 0 1,0 0 1,
  0 0 1,0 0 1,
  0 0 1,0 0 1,
  0 0 1,0 0 1,
  0 0 1,0 0 1,
  0 0 1,0 0 1,
  0 0 1,0 0 1,
  0 0 1,0 0 1,
  0 0 1,0 0 1,
  0 0 1,0 0 1,
  0 0 1,0 0 1,
  0 0 1,0 0 1,
  0 0 1,0 0 1,
  0 0 1,0 0 1,
  0 0 1,0 0 1,
  0 0 1,0 0 1,
  0 0 1,0 0 1,
  0 0 1,0 0 1,
  0 0 1,0 0 1,
  0 0 1,0 0 1,
  0 0 1,0 0 1,
  0 0 1,0 0 1,
  0 0 1,0 0 1,
  0 0 1,0 0 1,
  0 0 1,0 0 1,
  0 0 1,0 0 1,
  0 0 1,0 0 1,
  0 0 1,0 0 1,
  0 0 1,0 0 1,
  0 0 1,0 0 1,
  0 0 1,0 0 1,
  0 0 1,0 0 1,
  0 0 1,0 0 1,
  0 0 1,0 0 1,
  0 0 1,0 0 1,
  0 0 1,0 0 1,
  0 0 1,0 0 1,
  0 0 1,0 0 1,
  0 0 1,0 0 1,
  0 0 1,0 0 1,
  0 0 1,0 0 1,
  0 0 1,0 0 1,
  0 0 1,0 0 1,
  0 0 1,0 0 1,
  0 0 1,0 0 1,
  0 0 1,0 0 1,
  0 0 1,0 0 1,
  0 0 1,0 0 1,
  0 0 1,0 0 1,
  0 0 1,0 0 1,
  0 0 1,0 0 1,
  0 0 1,0 0 1,
  0 0 1,0 0 1,
  0 0 1,0 0 1,
  0 0 1,0 0 1,
  0 0 1,0 0 1,
  0 0 1,0 0 1,
  0 0 1,0 0 1,
  0 0 1,0 0 1,
  0 0 1,0 0 1,
  0 0 1,0 0 1,
  0 0 1,0 0 1,
  0 0 1,0 0 1,
  0 0 1,0 0 1,
  0 0 1,0 0 1,
  0 0 1,0 0 1,
  0 0 1,0 0 1,
  0 0 1,0 0 1,
  0 0 1,0 0 1,
  0 0 1,0 0 1,
  0 0 1,0 0 1,
  0 0 1,0 0 1,
  0 0 1,0 0 1,
  0 0 1,0 0 1,
  0 0 1,0 0 1,
  0 0 1,0 0 1,
  0 0 1,0 0 1,
  0 0 1,0 0 1,
  0 0 1,0 0 1] }
}
}
] }
DEF TXFM_6 Transform {
  center 0 0 0
  rotation 0 0 1 0
  scale 1 1 1
  scaleOrientation 0 0 1 0
  translation 0 0 0
 children [
DEF SHAPE_6 Shape {
 appearance USE APP_2
 geometry DEF FACE_6 IndexedFaceSet {
  coord DEF COORD_6 Coordinate { point [
  40.876575 -39.409646 -0.31496063,40.855968 -39.414128 -0.31496063,
  40.834843 -39.432433 -0.31496063,40.826969 -39.459252 -0.31496063,
  40.826969 -54.950196 -0.31496063,40.831451 -54.970804 -0.31496063,
  40.849756 -54.991928 -0.31496063,40.876575 -54.999803 -0.31496063,
  49.044685 -54.999803 -0.31496063,49.065292 -54.99532 -0.31496063,
  49.086417 -54.977016 -0.31496063,49.094291 -54.950196 -0.31496063,
  49.094291 -50.302105 -0.31496063,49.094683 -50.300899 -0.31496063,
  49.099456 -50.291532 -0.31496063,49.100944 -50.289483 -0.31496063,
  49.108381 -50.282046 -0.31496063,49.11043 -50.280558 -0.31496063,
  49.119797 -50.275785 -0.31496063,49.121002 -50.275394 -0.31496063,
  49.121002 -50.275394 -0.31496063,49.146714 -50.275394 -0.31496063,
  56.146383 -50.275394 -0.31496063,56.154843 -50.274667 -0.31496063,
  56.179926 -50.262334 -0.31496063,58.999488 -47.674517 -0.31496063,
  59.007676 -47.664789 -0.31496063,59.015551 -47.63797 -0.31496063,
  59.015551 -39.459252 -0.31496063,59.011069 -39.438645 -0.31496063,
  58.992764 -39.41752 -0.31496063,58.965945 -39.409646 -0.31496063,
  43.574803 -53.740157 -0.31496063,43.578657 -53.715825 -0.31496063,
  43.589841 -53.693875 -0.31496063,43.607261 -53.676455 -0.31496063,
  43.629211 -53.665271 -0.31496063,43.653543 -53.661417 -0.31496063,
  43.677875 -53.665271 -0.31496063,43.699826 -53.676455 -0.31496063,
  43.717245 -53.693875 -0.31496063,43.72843 -53.715825 -0.31496063,
  43.732283 -53.740157 -0.31496063,43.72843 -53.76449 -0.31496063,
  43.717245 -53.78644 -0.31496063,43.699826 -53.80386 -0.31496063,
  43.677875 -53.815044 -0.31496063,43.653543 -53.818898 -0.31496063,
  43.629211 -53.815044 -0.31496063,43.607261 -53.80386 -0.31496063,
  43.589841 -53.78644 -0.31496063,43.578657 -53.76449 -0.31496063] }
 coordIndex [
  30,29,25,-1,25,29,26,-1,26,29,27,-1,27,29,28,-1,0,31,35,-1,35,31,36,-1,36,31,37,-1,37,31,38,-1,
  38,31,39,-1,39,31,40,-1,40,31,41,-1,41,31,42,-1,42,31,15,-1,15,31,16,-1,16,31,17,-1,17,31,18,-1,
  18,31,19,-1,20,31,21,-1,21,31,22,-1,22,31,23,-1,23,31,24,-1,24,31,25,-1,25,31,30,-1,13,12,42,-1,
  42,12,8,-1,8,12,9,-1,9,12,10,-1,10,12,11,-1,15,14,42,-1,42,14,13,-1,1,0,7,-1,7,0,51,-1,
  51,0,32,-1,32,0,33,-1,33,0,34,-1,34,0,35,-1,42,8,43,-1,43,8,44,-1,44,8,45,-1,45,8,46,-1,
  46,8,47,-1,47,8,48,-1,48,8,7,-1,48,7,49,-1,49,7,50,-1,50,7,51,-1,1,7,6,-1,1,6,2,-1,
  2,6,5,-1,2,5,3,-1,3,5,4,-1]
  normalPerVertex TRUE
  normal DEF NORM_6 Normal { vector [
  0 0 -1,0 0 -1,
  0 0 -1,0 0 -1,
  0 0 -1,0 0 -1,
  0 0 -1,0 0 -1,
  0 0 -1,0 0 -1,
  0 0 -1,0 0 -1,
  0 0 -1,0 0 -1,
  0 0 -1,0 0 -1,
  0 0 -1,0 0 -1,
  0 0 -1,0 0 -1,
  0 0 -1,0 0 -1,
  0 0 -1,0 0 -1,
  0 0 -1,0 0 -1,
  0 0 -1,0 0 -1,
  0 0 -1,0 0 -1,
  0 0 -1,0 0 -1,
  0 0 -1,0 0 -1,
  0 0 -1,0 0 -1,
  0 0 -1,0 0 -1,
  0 0 -1,0 0 -1,
  0 0 -1,0 0 -1,
  0 0 -1,0 0 -1,
  0 0 -1,0 0 -1,
  0 0 -1,0 0 -1,
  0 0 -1,0 0 -1,
  0 0 -1,0 0 -1] }
}
}
] }
DEF TXFM_7 Transform {
  center 0 0 0
  rotation 0 0 1 0
  scale 1 1 1
  scaleOrientation 0 0 1 0
  translation 0 0 0
 children [
DEF SHAPE_7 Shape {
 appearance DEF APP_5 Appearance {
  material Material {
   ambientIntensity 1
   diffuseColor 0.079999998 0.2 0.14
   emissiveColor 0 0 0
   shininess 0.30000001
   specularColor 0.35600001 0.44 0.398
   transparency 0.17
} }
 geometry DEF FACE_7 IndexedFaceSet {
  coord DEF COORD_7 Coordinate { point [
  40.787402 -39.370079 -0.31988189,40.787402 -55.03937 -0.31988189,
  49.133858 -55.03937 -0.31988189,49.133858 -50.314961 -0.31988189,
  56.181102 -50.314961 -0.31988189,59.055118 -47.677165 -0.31988189,
  59.055118 -39.370079 -0.31988189,43.574803 -53.740157 -0.31988189,
  43.578657 -53.715825 -0.31988189,43.589841 -53.693875 -0.31988189,
  43.607261 -53.676455 -0.31988189,43.629211 -53.665271 -0.31988189,
  43.653543 -53.661417 -0.31988189,43.677875 -53.665271 -0.31988189,
  43.699826 -53.676455 -0.31988189,43.717245 -53.693875 -0.31988189,
  43.72843 -53.715825 -0.31988189,43.732283 -53.740157 -0.31988189,
  43.72843 -53.76449 -0.31988189,43.717245 -53.78644 -0.31988189,
  43.699826 -53.80386 -0.31988189,43.677875 -53.815044 -0.31988189,
  43.653543 -53.818898 -0.31988189,43.629211 -53.815044 -0.31988189,
  43.607261 -53.80386 -0.31988189,43.589841 -53.78644 -0.31988189,
  43.578657 -53.76449 -0.31988189] }
 coordIndex [
  0,6,10,-1,10,6,11,-1,11,6,12,-1,12,6,13,-1,13,6,14,-1,14,6,15,-1,15,6,16,-1,16,6,17,-1,
  17,6,3,-1,3,6,4,-1,4,6,5,-1,3,2,17,-1,17,2,18,-1,18,2,19,-1,19,2,20,-1,20,2,21,-1,
  21,2,22,-1,22,2,23,-1,23,2,1,-1,1,0,26,-1,26,0,7,-1,7,0,8,-1,8,0,9,-1,9,0,10,-1,
  23,1,24,-1,24,1,25,-1,25,1,26,-1]
  normalPerVertex TRUE
  normal DEF NORM_7 Normal { vector [
  0 0 -1,0 0 -1,
  0 0 -1,0 0 -1,
  0 0 -1,0 0 -1,
  0 0 -1,0 0 -1,
  0 0 -1,0 0 -1,
  0 0 -1,0 0 -1,
  0 0 -1,0 0 -1,
  0 0 -1,0 0 -1,
  0 0 -1,0 0 -1,
  0 0 -1,0 0 -1,
  0 0 -1,0 0 -1,
  0 0 -1,0 0 -1,
  0 0 -1,0 0 -1,
  0 0 -1] }
}
}
] }
DEF TXFM_8 Transform {
  center 0 0 0
  rotation 0 0 1 0
  scale 1 1 1
  scaleOrientation 0 0 1 0
  translation 0 0 0
 children [
DEF SHAPE_8 Shape {
 appearance DEF APP_6 Appearance {
  material Material {
   ambientIntensity 0.74468082
   diffuseColor 0.94 0.94 0.94
   emissiveColor 0 0 0
   shininess 0.02
   specularColor 0.94599998 0.94599998 0.94599998
   transparency 0
} }
 geometry DEF FACE_8 IndexedFaceSet {
  coord DEF COORD_8 Coordinate { point [
  47.48563 -52.627953 0.34448819,47.478307 -52.610275 0.34448819,
  47.46063 -52.602953 0.34448819,47.442952 -52.610275 0.34448819,
  47.43563 -52.627953 0.34448819,47.43563 -53.769685 0.34448819,
  47.442952 -53.787363 0.34448819,47.46063 -53.794685 0.34448819,
  47.478307 -53.787363 0.34448819,47.48563 -53.769685 0.34448819,
  47.220276 -49.301181 0.34448819,47.212953 -49.283504 0.34448819,
  47.195276 -49.276181 0.34448819,46.800787 -49.276181 0.34448819,
  46.78311 -49.283504 0.34448819,46.775787 -49.301181 0.34448819,
  46.78311 -49.318859 0.34448819,46.800787 -49.326181 0.34448819,
  47.195276 -49.326181 0.34448819,47.212953 -49.318859 0.34448819,
  45.897638 -55.009843 0.34448819,45.88984 -54.975678 0.34448819,
  45.867991 -54.948281 0.34448819,45.836419 -54.933076 0.34448819,
  45.801376 -54.933076 0.34448819,45.769804 -54.948281 0.34448819,
  45.747955 -54.975678 0.34448819,45.740157 -55.009843 0.34448819,
  45.746897 -55.03937 0.34448819,45.890898 -55.03937 0.34448819,
  47.48563 -54.832677 0.34448819,47.478307 -54.815 0.34448819,
  47.46063 -54.807677 0.34448819,42.30315 -54.807677 0.34448819,
  42.285472 -54.815 0.34448819,42.27815 -54.832677 0.34448819,
  42.285472 -54.850355 0.34448819,42.30315 -54.857677 0.34448819,
  47.46063 -54.857677 0.34448819,47.478307 -54.850355 0.34448819,
  48.157011 -54.394822 0.34448819,48.121112 -54.448671 0.34448819,
  48.089047 -54.480737 0.34448819,48.055812 -54.497354 0.34448819,
  48.041925 -54.512021 0.34448819,48.040715 -54.532182 0.34448819,
  48.052747 -54.548405 0.34448819,48.072393 -54.553098 0.34448819,
  48.082222 -54.550174 0.34448819,48.119743 -54.531414 0.34448819,
  48.120186 -54.530946 0.34448819,48.127417 -54.525883 0.34448819,
  48.152052 -54.501248 0.34448819,48.152052 -54.775644 0.34448819,
  48.069017 -54.775644 0.34448819,48.050037 -54.782552 0.34448819,
  48.039938 -54.800044 0.34448819,48.043445 -54.819935 0.34448819,
  48.058918 -54.832919 0.34448819,48.069017 -54.834699 0.34448819,
  48.294143 -54.834699 0.34448819,48.313123 -54.827791 0.34448819,
  48.323222 -54.810299 0.34448819,48.319715 -54.790408 0.34448819,
  48.304242 -54.777425 0.34448819,48.294143 -54.775644 0.34448819,
  48.211107 -54.775644 0.34448819,48.211107 -54.411201 0.34448819,
  48.210526 -54.409605 0.34448819,48.210928 -54.407956 0.34448819,
  48.20713 -54.400274 0.34448819,48.204199 -54.392221 0.34448819,
  48.202729 -54.391372 0.34448819,48.201976 -54.38985 0.34448819,
  48.194131 -54.386408 0.34448819,48.186707 -54.382122 0.34448819,
  48.185035 -54.382417 0.34448819,48.18348 -54.381735 0.34448819,
  48.175257 -54.384141 0.34448819,48.166816 -54.38563 0.34448819,
  48.165724 -54.38693 0.34448819,48.164095 -54.387407 0.34448819,
  48.81667 -43.896912 0.34448819,48.814889 -43.907011 0.34448819,
  48.814889 -44.00075 0.34448819,48.815493 -44.002408 0.34448819,
  48.815083 -44.004125 0.34448819,48.818007 -44.013955 0.34448819,
  48.836754 -44.05145 0.34448819,48.837222 -44.051893 0.34448819,
  48.842285 -44.059124 0.34448819,48.861033 -44.077872 0.34448819,
  48.879339 -44.086407 0.34448819,48.898848 -44.08118 0.34448819,
  48.910433 -44.064635 0.34448819,48.908673 -44.044514 0.34448819,
  48.902791 -44.036113 0.34448819,48.887432 -44.020754 0.34448819,
  48.873944 -43.993779 0.34448819,48.873944 -43.913981 0.34448819,
  48.887432 -43.887007 0.34448819,48.899403 -43.875035 0.34448819,
  48.926378 -43.861548 0.34448819,48.952111 -43.861548 0.34448819,
  48.997195 -43.876576 0.34448819,49.217239 -44.096619 0.34448819,
  49.225291 -44.100374 0.34448819,49.23299 -44.104819 0.34448819,
  49.234321 -44.104584 0.34448819,49.235544 -44.105155 0.34448819,
  49.244128 -44.102855 0.34448819,49.252881 -44.101312 0.34448819,
  49.253749 -44.100277 0.34448819,49.255054 -44.099928 0.34448819,
  49.260152 -44.092648 0.34448819,49.265865 -44.085839 0.34448819,
  49.266183 -44.084034 0.34448819,49.266639 -44.083382 0.34448819,
  49.266526 -44.082087 0.34448819,49.267645 -44.07574 0.34448819,
  49.267645 -43.832021 0.34448819,49.260737 -43.813041 0.34448819,
  49.243245 -43.802942 0.34448819,49.223354 -43.806449 0.34448819,
  49.210371 -43.821922 0.34448819,49.20859 -43.832021 0.34448819,
  49.20859 -44.004454 0.34448819,49.034025 -43.829889 0.34448819,
  49.032425 -43.829143 0.34448819,49.031501 -43.827639 0.34448819,
  49.022483 -43.822756 0.34448819,48.96624 -43.804009 0.34448819,
  48.965596 -43.804026 0.34448819,48.956903 -43.802493 0.34448819,
  48.919407 -43.802493 0.34448819,48.917748 -43.803097 0.34448819,
  48.916031 -43.802687 0.34448819,48.906202 -43.805611 0.34448819,
  48.868707 -43.824358 0.34448819,48.868264 -43.824826 0.34448819,
  48.861033 -43.829889 0.34448819,48.842285 -43.848637 0.34448819,
  48.842013 -43.84922 0.34448819,48.836754 -43.856311 0.34448819,
  48.818007 -43.893806 0.34448819,48.817805 -43.895559 0.34448819,
  48.873944 -44.252437 0.34448819,48.873944 -44.169479 0.34448819,
  48.867036 -44.150499 0.34448819,48.849544 -44.1404 0.34448819,
  48.829653 -44.143907 0.34448819,48.81667 -44.15938 0.34448819,
  48.814889 -44.169479 0.34448819,48.814889 -44.39445 0.34448819,
  48.821798 -44.41343 0.34448819,48.839289 -44.42353 0.34448819,
  48.859181 -44.420022 0.34448819,48.872164 -44.40455 0.34448819,
  48.873944 -44.39445 0.34448819,48.873944 -44.311492 0.34448819,
  49.238118 -44.311492 0.34448819,49.257098 -44.304584 0.34448819,
  49.267197 -44.287092 0.34448819,49.263689 -44.267201 0.34448819,
  49.248217 -44.254218 0.34448819,49.238118 -44.252437 0.34448819,
  47.821272 -54.824152 0.34448819,47.838763 -54.834251 0.34448819,
  47.858655 -54.830743 0.34448819,47.871638 -54.815271 0.34448819,
  47.873419 -54.805172 0.34448819,47.873419 -54.440729 0.34448819,
  47.956454 -54.440729 0.34448819,47.975434 -54.43382 0.34448819,
  47.985533 -54.416329 0.34448819,47.982026 -54.396437 0.34448819,
  47.966553 -54.383454 0.34448819,47.956454 -54.381674 0.34448819,
  47.731328 -54.381674 0.34448819,47.712348 -54.388582 0.34448819,
  47.702249 -54.406074 0.34448819,47.705756 -54.425965 0.34448819,
  47.721229 -54.438948 0.34448819,47.731328 -54.440729 0.34448819,
  47.814363 -54.440729 0.34448819,47.814363 -54.805172 0.34448819,
  47.48563 -50.620079 0.34448819,47.478307 -50.602401 0.34448819,
  47.46063 -50.595079 0.34448819,47.442952 -50.602401 0.34448819,
  47.43563 -50.620079 0.34448819,47.43563 -51.44685 0.34448819,
  47.442952 -51.464528 0.34448819,47.46063 -51.47185 0.34448819,
  47.478307 -51.464528 0.34448819,47.48563 -51.44685 0.34448819,
  44.562795 -49.301181 0.34448819,44.555473 -49.283504 0.34448819,
  44.537795 -49.276181 0.34448819,42.568504 -49.276181 0.34448819,
  42.550826 -49.283504 0.34448819,42.543504 -49.301181 0.34448819,
  42.550826 -49.318859 0.34448819,42.568504 -49.326181 0.34448819,
  44.537795 -49.326181 0.34448819,44.555473 -49.318859 0.34448819,
  49.452756 -43.047244 0.34448819,49.436053 -43.054163 0.34448819,
  49.429134 -43.070866 0.34448819,49.429134 -45.11811 0.34448819,
  49.436053 -45.134813 0.34448819,49.452756 -45.141732 0.34448819,
  49.653543 -45.141732 0.34448819,49.653543 -45.685039 0.34448819,
  49.660462 -45.701743 0.34448819,49.677165 -45.708661 0.34448819,
  49.693869 -45.701743 0.34448819,49.700787 -45.685039 0.34448819,
  49.700787 -45.11811 0.34448819,49.693869 -45.101407 0.34448819,
  49.677165 -45.094488 0.34448819,49.476378 -45.094488 0.34448819,
  49.476378 -43.094488 0.34448819,49.677165 -43.094488 0.34448819,
  49.693869 -43.087569 0.34448819,49.700787 -43.070866 0.34448819,
  49.693869 -43.054163 0.34448819,49.677165 -43.047244 0.34448819,
  50.700787 -45.11811 0.34448819,50.693869 -45.101407 0.34448819,
  50.677165 -45.094488 0.34448819,50.275591 -45.094488 0.34448819,
  50.258887 -45.101407 0.34448819,50.251969 -45.11811 0.34448819,
  50.258887 -45.134813 0.34448819,50.275591 -45.141732 0.34448819,
  50.677165 -45.141732 0.34448819,50.693869 -45.134813 0.34448819,
  51.700787 -45.11811 0.34448819,51.693869 -45.101407 0.34448819,
  51.677165 -45.094488 0.34448819,51.275591 -45.094488 0.34448819,
  51.258887 -45.101407 0.34448819,51.251969 -45.11811 0.34448819,
  51.258887 -45.134813 0.34448819,51.275591 -45.141732 0.34448819,
  51.677165 -45.141732 0.34448819,51.693869 -45.134813 0.34448819,
  52.700787 -45.11811 0.34448819,52.693869 -45.101407 0.34448819,
  52.677165 -45.094488 0.34448819,52.275591 -45.094488 0.34448819,
  52.258887 -45.101407 0.34448819,52.251969 -45.11811 0.34448819,
  52.258887 -45.134813 0.34448819,52.275591 -45.141732 0.34448819,
  52.677165 -45.141732 0.34448819,52.693869 -45.134813 0.34448819,
  53.5 -45.141732 0.34448819,53.516703 -45.134813 0.34448819,
  53.523622 -45.11811 0.34448819,53.523622 -43.070866 0.34448819,
  53.516703 -43.054163 0.34448819,53.5 -43.047244 0.34448819,
  53.275591 -43.047244 0.34448819,53.258887 -43.054163 0.34448819,
  53.251969 -43.070866 0.34448819,53.258887 -43.087569 0.34448819,
  53.275591 -43.094488 0.34448819,53.476378 -43.094488 0.34448819,
  53.476378 -45.094488 0.34448819,53.275591 -45.094488 0.34448819,
  53.258887 -45.101407 0.34448819,53.251969 -45.11811 0.34448819,
  53.258887 -45.134813 0.34448819,53.275591 -45.141732 0.34448819,
  50.700787 -43.070866 0.34448819,50.693869 -43.054163 0.34448819,
  50.677165 -43.047244 0.34448819,50.275591 -43.047244 0.34448819,
  50.258887 -43.054163 0.34448819,50.251969 -43.070866 0.34448819,
  50.258887 -43.087569 0.34448819,50.275591 -43.094488 0.34448819,
  50.677165 -43.094488 0.34448819,50.693869 -43.087569 0.34448819,
  51.700787 -43.070866 0.34448819,51.693869 -43.054163 0.34448819,
  51.677165 -43.047244 0.34448819,51.275591 -43.047244 0.34448819,
  51.258887 -43.054163 0.34448819,51.251969 -43.070866 0.34448819,
  51.258887 -43.087569 0.34448819,51.275591 -43.094488 0.34448819,
  51.677165 -43.094488 0.34448819,51.693869 -43.087569 0.34448819,
  52.700787 -43.070866 0.34448819,52.693869 -43.054163 0.34448819,
  52.677165 -43.047244 0.34448819,52.275591 -43.047244 0.34448819,
  52.258887 -43.054163 0.34448819,52.251969 -43.070866 0.34448819,
  52.258887 -43.087569 0.34448819,52.275591 -43.094488 0.34448819,
  52.677165 -43.094488 0.34448819,52.693869 -43.087569 0.34448819] }
 coordIndex [
  4,6,3,-1,3,6,7,-1,3,7,2,-1,2,7,8,-1,2,8,1,-1,1,8,9,-1,1,9,0,-1,15,16,14,-1,
  14,16,17,-1,14,17,13,-1,13,17,18,-1,13,18,12,-1,12,18,19,-1,12,19,11,-1,11,19,10,-1,29,20,21,-1,
  29,21,22,-1,29,22,23,-1,29,23,24,-1,29,24,25,-1,29,25,26,-1,29,26,28,-1,35,36,34,-1,34,36,37,-1,
  34,37,33,-1,33,37,38,-1,33,38,32,-1,32,38,39,-1,32,39,31,-1,31,39,30,-1,70,71,66,-1,70,66,68,-1,
  70,68,69,-1,163,164,161,-1,161,164,165,-1,161,165,160,-1,160,165,146,-1,160,146,159,-1,159,146,147,-1,159,147,158,-1,
  158,147,157,-1,151,154,150,-1,150,154,155,-1,150,155,149,-1,149,155,156,-1,149,156,148,-1,148,156,157,-1,148,157,147,-1,
  152,153,154,-1,152,154,151,-1,120,121,115,-1,120,115,116,-1,120,116,118,-1,120,118,119,-1,121,122,110,-1,121,110,111,-1,
  121,111,112,-1,121,112,113,-1,121,113,114,-1,121,114,115,-1,122,123,106,-1,122,106,107,-1,122,107,108,-1,122,108,109,-1,
  122,109,110,-1,105,106,123,-1,105,123,124,-1,105,124,125,-1,105,125,126,-1,105,126,127,-1,105,127,128,-1,105,128,130,-1,
  105,130,104,-1,104,130,131,-1,104,131,132,-1,104,132,133,-1,104,133,103,-1,102,103,133,-1,102,133,134,-1,102,134,135,-1,
  102,135,136,-1,102,136,137,-1,102,137,101,-1,139,98,138,-1,138,98,99,-1,138,99,137,-1,137,99,100,-1,137,100,101,-1,
  139,140,98,-1,98,140,92,-1,98,92,97,-1,97,92,93,-1,97,93,96,-1,96,93,94,-1,96,94,95,-1,92,140,91,-1,
  91,140,141,-1,91,141,90,-1,90,141,142,-1,90,142,89,-1,89,142,143,-1,89,143,88,-1,88,143,144,-1,88,144,87,-1,
  87,144,145,-1,87,145,82,-1,85,86,87,-1,85,87,82,-1,85,82,83,-1,85,83,84,-1,61,62,63,-1,61,63,64,-1,
  61,64,65,-1,61,65,60,-1,66,71,72,-1,66,72,73,-1,66,73,74,-1,66,74,75,-1,66,75,76,-1,66,76,77,-1,
  66,77,78,-1,66,78,79,-1,66,79,80,-1,66,80,81,-1,66,81,40,-1,66,40,52,-1,66,52,53,-1,66,53,60,-1,
  66,60,65,-1,54,55,58,-1,54,58,59,-1,54,59,60,-1,54,60,53,-1,55,56,57,-1,55,57,58,-1,49,50,41,-1,
  41,50,51,-1,41,51,40,-1,40,51,52,-1,42,43,47,-1,42,47,48,-1,42,48,49,-1,42,49,41,-1,46,47,43,-1,
  46,43,44,-1,46,44,45,-1,173,174,175,-1,173,175,176,-1,173,176,177,-1,173,177,172,-1,171,172,177,-1,171,177,184,-1,
  171,184,166,-1,171,166,167,-1,171,167,168,-1,171,168,169,-1,171,169,170,-1,178,179,182,-1,178,182,183,-1,178,183,184,-1,
  178,184,177,-1,179,180,181,-1,179,181,182,-1,190,192,189,-1,189,192,193,-1,189,193,188,-1,188,193,194,-1,188,194,187,-1,
  187,194,195,-1,187,195,186,-1,201,202,200,-1,200,202,203,-1,200,203,199,-1,199,203,204,-1,199,204,198,-1,198,204,205,-1,
  198,205,197,-1,197,205,196,-1,222,223,227,-1,227,223,224,-1,227,224,226,-1,226,224,225,-1,208,210,207,-1,207,210,211,-1,
  207,211,206,-1,206,211,221,-1,206,221,222,-1,214,215,220,-1,220,215,216,-1,220,216,219,-1,219,216,217,-1,219,217,218,-1,
  212,213,214,-1,212,214,220,-1,212,220,221,-1,212,221,211,-1,233,234,232,-1,232,234,235,-1,232,235,231,-1,231,235,236,-1,
  231,236,230,-1,230,236,237,-1,230,237,229,-1,229,237,228,-1,243,244,242,-1,242,244,245,-1,242,245,241,-1,241,245,246,-1,
  241,246,240,-1,240,246,247,-1,240,247,239,-1,239,247,238,-1,253,254,252,-1,252,254,255,-1,252,255,251,-1,251,255,256,-1,
  251,256,250,-1,250,256,257,-1,250,257,249,-1,249,257,248,-1,269,258,263,-1,263,258,259,-1,263,259,262,-1,262,259,260,-1,
  262,260,261,-1,266,267,265,-1,265,267,268,-1,265,268,264,-1,264,268,269,-1,264,269,263,-1,273,274,272,-1,272,274,275,-1,
  272,275,271,-1,271,275,258,-1,271,258,270,-1,270,258,269,-1,281,282,280,-1,280,282,283,-1,280,283,279,-1,279,283,284,-1,
  279,284,278,-1,278,284,285,-1,278,285,277,-1,277,285,276,-1,291,292,290,-1,290,292,293,-1,290,293,289,-1,289,293,294,-1,
  289,294,288,-1,288,294,295,-1,288,295,287,-1,287,295,286,-1,301,302,300,-1,300,302,303,-1,300,303,299,-1,299,303,304,-1,
  299,304,298,-1,298,304,305,-1,298,305,297,-1,297,305,296,-1,210,208,209,-1,206,222,227,-1,192,190,191,-1,166,184,185,-1,
  163,161,162,-1,117,118,116,-1,130,128,129,-1,67,68,66,-1,28,26,27,-1,6,4,5,-1]
  normalPerVertex TRUE
  normal DEF NORM_8 Normal { vector [
  0 0 1,0 0 1,
  0 0 1,0 0 1,
  0 0 1,0 0 1,
  0 0 1,0 0 1,
  0 0 1,0 0 1,
  0 0 1,0 0 1,
  0 0 1,0 0 1,
  0 0 1,0 0 1,
  0 0 1,0 0 1,
  0 0 1,0 0 1,
  0 0 1,0 0 1,
  0 0 1,0 0 1,
  0 0 1,0 0 1,
  0 0 1,0 0 1,
  0 0 1,0 0 1,
  0 0 1,0 0 1,
  0 0 1,0 0 1,
  0 0 1,0 0 1,
  0 0 1,0 0 1,
  0 0 1,0 0 1,
  0 0 1,0 0 1,
  0 0 1,0 0 1,
  0 0 1,0 0 1,
  0 0 1,0 0 1,
  0 0 1,0 0 1,
  0 0 1,0 0 1,
  0 0 1,0 0 1,
  0 0 1,0 0 1,
  0 0 1,0 0 1,
  0 0 1,0 0 1,
  0 0 1,0 0 1,
  0 0 1,0 0 1,
  0 0 1,0 0 1,
  0 0 1,0 0 1,
  0 0 1,0 0 1,
  0 0 1,0 0 1,
  0 0 1,0 0 1,
  0 0 1,0 0 1,
  0 0 1,0 0 1,
  0 0 1,0 0 1,
  0 0 1,0 0 1,
  0 0 1,0 0 1,
  0 0 1,0 0 1,
  0 0 1,0 0 1,
  0 0 1,0 0 1,
  0 0 1,0 0 1,
  0 0 1,0 0 1,
  0 0 1,0 0 1,
  0 0 1,0 0 1,
  0 0 1,0 0 1,
  0 0 1,0 0 1,
  0 0 1,0 0 1,
  0 0 1,0 0 1,
  0 0 1,0 0 1,
  0 0 1,0 0 1,
  0 0 1,0 0 1,
  0 0 1,0 0 1,
  0 0 1,0 0 1,
  0 0 1,0 0 1,
  0 0 1,0 0 1,
  0 0 1,0 0 1,
  0 0 1,0 0 1,
  0 0 1,0 0 1,
  0 0 1,0 0 1,
  0 0 1,0 0 1,
  0 0 1,0 0 1,
  0 0 1,0 0 1,
  0 0 1,0 0 1,
  0 0 1,0 0 1,
  0 0 1,0 0 1,
  0 0 1,0 0 1,
  0 0 1,0 0 1,
  0 0 1,0 0 1,
  0 0 1,0 0 1,
  0 0 1,0 0 1,
  0 0 1,0 0 1,
  0 0 1,0 0 1,
  0 0 1,0 0 1,
  0 0 1,0 0 1,
  0 0 1,0 0 1,
  0 0 1,0 0 1,
  0 0 1,0 0 1,
  0 0 1,0 0 1,
  0 0 1,0 0 1,
  0 0 1,0 0 1,
  0 0 1,0 0 1,
  0 0 1,0 0 1,
  0 0 1,0 0 1,
  0 0 1,0 0 1,
  0 0 1,0 0 1,
  0 0 1,0 0 1,
  0 0 1,0 0 1,
  0 0 1,0 0 1,
  0 0 1,0 0 1,
  0 0 1,0 0 1,
  0 0 1,0 0 1,
  0 0 1,0 0 1,
  0 0 1,0 0 1,
  0 0 1,0 0 1,
  0 0 1,0 0 1,
  0 0 1,0 0 1,
  0 0 1,0 0 1,
  0 0 1,0 0 1,
  0 0 1,0 0 1,
  0 0 1,0 0 1,
  0 0 1,0 0 1,
  0 0 1,0 0 1,
  0 0 1,0 0 1,
  0 0 1,0 0 1,
  0 0 1,0 0 1,
  0 0 1,0 0 1,
  0 0 1,0 0 1,
  0 0 1,0 0 1,
  0 0 1,0 0 1,
  0 0 1,0 0 1,
  0 0 1,0 0 1,
  0 0 1,0 0 1,
  0 0 1,0 0 1,
  0 0 1,0 0 1,
  0 0 1,0 0 1,
  0 0 1,0 0 1,
  0 0 1,0 0 1,
  0 0 1,0 0 1,
  0 0 1,0 0 1,
  0 0 1,0 0 1,
  0 0 1,0 0 1,
  0 0 1,0 0 1,
  0 0 1,0 0 1,
  0 0 1,0 0 1,
  0 0 1,0 0 1,
  0 0 1,0 0 1,
  0 0 1,0 0 1,
  0 0 1,0 0 1,
  0 0 1,0 0 1,
  0 0 1,0 0 1,
  0 0 1,0 0 1,
  0 0 1,0 0 1,
  0 0 1,0 0 1,
  0 0 1,0 0 1,
  0 0 1,0 0 1,
  0 0 1,0 0 1,
  0 0 1,0 0 1,
  0 0 1,0 0 1,
  0 0 1,0 0 1,
  0 0 1,0 0 1,
  0 0 1,0 0 1,
  0 0 1,0 0 1,
  0 0 1,0 0 1,
  0 0 1,0 0 1,
  0 0 1,0 0 1,
  0 0 1,0 0 1,
  0 0 1,0 0 1,
  0 0 1,0 0 1] }
}
}
] }
] }
