%TF.GenerationSoftware,KiCad,Pcbnew,7.0.6-7.0.6~ubuntu22.04.1*%
%TF.CreationDate,2023-08-04T03:57:43+01:00*%
%TF.ProjectId,working,776f726b-696e-4672-9e6b-696361645f70,rev?*%
%TF.SameCoordinates,Original*%
%TF.FileFunction,AssemblyDrawing,Top*%
%FSLAX46Y46*%
G04 Gerber Fmt 4.6, Leading zero omitted, Abs format (unit mm)*
G04 Created by KiCad (PCBNEW 7.0.6-7.0.6~ubuntu22.04.1) date 2023-08-04 03:57:43*
%MOMM*%
%LPD*%
G01*
G04 APERTURE LIST*
%ADD10C,0.040640*%
%ADD11C,0.203200*%
%ADD12C,0.127000*%
%ADD13C,0.101600*%
G04 APERTURE END LIST*
D10*
X128548921Y-114100724D02*
X128548921Y-113734964D01*
X128757927Y-114100724D02*
X128601173Y-113891718D01*
X128757927Y-113734964D02*
X128548921Y-113943969D01*
X128914681Y-114100724D02*
X128914681Y-113734964D01*
X128914681Y-113734964D02*
X129036601Y-113996221D01*
X129036601Y-113996221D02*
X129158521Y-113734964D01*
X129158521Y-113734964D02*
X129158521Y-114100724D01*
X129541698Y-114100724D02*
X129419778Y-113926552D01*
X129332692Y-114100724D02*
X129332692Y-113734964D01*
X129332692Y-113734964D02*
X129472029Y-113734964D01*
X129472029Y-113734964D02*
X129506864Y-113752381D01*
X129506864Y-113752381D02*
X129524281Y-113769798D01*
X129524281Y-113769798D02*
X129541698Y-113804632D01*
X129541698Y-113804632D02*
X129541698Y-113856884D01*
X129541698Y-113856884D02*
X129524281Y-113891718D01*
X129524281Y-113891718D02*
X129506864Y-113909135D01*
X129506864Y-113909135D02*
X129472029Y-113926552D01*
X129472029Y-113926552D02*
X129332692Y-113926552D01*
X129681035Y-113769798D02*
X129698452Y-113752381D01*
X129698452Y-113752381D02*
X129733287Y-113734964D01*
X129733287Y-113734964D02*
X129820372Y-113734964D01*
X129820372Y-113734964D02*
X129855207Y-113752381D01*
X129855207Y-113752381D02*
X129872624Y-113769798D01*
X129872624Y-113769798D02*
X129890041Y-113804632D01*
X129890041Y-113804632D02*
X129890041Y-113839467D01*
X129890041Y-113839467D02*
X129872624Y-113891718D01*
X129872624Y-113891718D02*
X129663618Y-114100724D01*
X129663618Y-114100724D02*
X129890041Y-114100724D01*
X136868510Y-111814724D02*
X136659504Y-111814724D01*
X136764007Y-111814724D02*
X136764007Y-111448964D01*
X136764007Y-111448964D02*
X136729173Y-111501215D01*
X136729173Y-111501215D02*
X136694338Y-111536049D01*
X136694338Y-111536049D02*
X136659504Y-111553467D01*
X137094933Y-111448964D02*
X137129767Y-111448964D01*
X137129767Y-111448964D02*
X137164601Y-111466381D01*
X137164601Y-111466381D02*
X137182019Y-111483798D01*
X137182019Y-111483798D02*
X137199436Y-111518632D01*
X137199436Y-111518632D02*
X137216853Y-111588301D01*
X137216853Y-111588301D02*
X137216853Y-111675387D01*
X137216853Y-111675387D02*
X137199436Y-111745055D01*
X137199436Y-111745055D02*
X137182019Y-111779889D01*
X137182019Y-111779889D02*
X137164601Y-111797307D01*
X137164601Y-111797307D02*
X137129767Y-111814724D01*
X137129767Y-111814724D02*
X137094933Y-111814724D01*
X137094933Y-111814724D02*
X137060099Y-111797307D01*
X137060099Y-111797307D02*
X137042681Y-111779889D01*
X137042681Y-111779889D02*
X137025264Y-111745055D01*
X137025264Y-111745055D02*
X137007847Y-111675387D01*
X137007847Y-111675387D02*
X137007847Y-111588301D01*
X137007847Y-111588301D02*
X137025264Y-111518632D01*
X137025264Y-111518632D02*
X137042681Y-111483798D01*
X137042681Y-111483798D02*
X137060099Y-111466381D01*
X137060099Y-111466381D02*
X137094933Y-111448964D01*
X167348510Y-97844724D02*
X167139504Y-97844724D01*
X167244007Y-97844724D02*
X167244007Y-97478964D01*
X167244007Y-97478964D02*
X167209173Y-97531215D01*
X167209173Y-97531215D02*
X167174338Y-97566049D01*
X167174338Y-97566049D02*
X167139504Y-97583467D01*
X167574933Y-97478964D02*
X167609767Y-97478964D01*
X167609767Y-97478964D02*
X167644601Y-97496381D01*
X167644601Y-97496381D02*
X167662019Y-97513798D01*
X167662019Y-97513798D02*
X167679436Y-97548632D01*
X167679436Y-97548632D02*
X167696853Y-97618301D01*
X167696853Y-97618301D02*
X167696853Y-97705387D01*
X167696853Y-97705387D02*
X167679436Y-97775055D01*
X167679436Y-97775055D02*
X167662019Y-97809889D01*
X167662019Y-97809889D02*
X167644601Y-97827307D01*
X167644601Y-97827307D02*
X167609767Y-97844724D01*
X167609767Y-97844724D02*
X167574933Y-97844724D01*
X167574933Y-97844724D02*
X167540099Y-97827307D01*
X167540099Y-97827307D02*
X167522681Y-97809889D01*
X167522681Y-97809889D02*
X167505264Y-97775055D01*
X167505264Y-97775055D02*
X167487847Y-97705387D01*
X167487847Y-97705387D02*
X167487847Y-97618301D01*
X167487847Y-97618301D02*
X167505264Y-97548632D01*
X167505264Y-97548632D02*
X167522681Y-97513798D01*
X167522681Y-97513798D02*
X167540099Y-97496381D01*
X167540099Y-97496381D02*
X167574933Y-97478964D01*
X167853607Y-97844724D02*
X167853607Y-97478964D01*
X167888442Y-97705387D02*
X167992944Y-97844724D01*
X167992944Y-97600884D02*
X167853607Y-97740221D01*
X128613510Y-99749724D02*
X128404504Y-99749724D01*
X128509007Y-99749724D02*
X128509007Y-99383964D01*
X128509007Y-99383964D02*
X128474173Y-99436215D01*
X128474173Y-99436215D02*
X128439338Y-99471049D01*
X128439338Y-99471049D02*
X128404504Y-99488467D01*
X128770264Y-99749724D02*
X128770264Y-99383964D01*
X128805099Y-99610387D02*
X128909601Y-99749724D01*
X128909601Y-99505884D02*
X128770264Y-99645221D01*
X170645660Y-105320074D02*
X170767580Y-105320074D01*
X170819832Y-105511663D02*
X170645660Y-105511663D01*
X170645660Y-105511663D02*
X170645660Y-105145903D01*
X170645660Y-105145903D02*
X170819832Y-105145903D01*
X170924335Y-105145903D02*
X171046255Y-105511663D01*
X171046255Y-105511663D02*
X171168175Y-105145903D01*
X171533935Y-105546497D02*
X171499101Y-105529080D01*
X171499101Y-105529080D02*
X171464267Y-105494246D01*
X171464267Y-105494246D02*
X171412015Y-105441994D01*
X171412015Y-105441994D02*
X171377181Y-105424577D01*
X171377181Y-105424577D02*
X171342347Y-105424577D01*
X171359764Y-105511663D02*
X171324930Y-105494246D01*
X171324930Y-105494246D02*
X171290095Y-105459411D01*
X171290095Y-105459411D02*
X171272678Y-105389743D01*
X171272678Y-105389743D02*
X171272678Y-105267823D01*
X171272678Y-105267823D02*
X171290095Y-105198154D01*
X171290095Y-105198154D02*
X171324930Y-105163320D01*
X171324930Y-105163320D02*
X171359764Y-105145903D01*
X171359764Y-105145903D02*
X171429432Y-105145903D01*
X171429432Y-105145903D02*
X171464267Y-105163320D01*
X171464267Y-105163320D02*
X171499101Y-105198154D01*
X171499101Y-105198154D02*
X171516518Y-105267823D01*
X171516518Y-105267823D02*
X171516518Y-105389743D01*
X171516518Y-105389743D02*
X171499101Y-105459411D01*
X171499101Y-105459411D02*
X171464267Y-105494246D01*
X171464267Y-105494246D02*
X171429432Y-105511663D01*
X171429432Y-105511663D02*
X171359764Y-105511663D01*
X171917112Y-105546497D02*
X171882278Y-105529080D01*
X171882278Y-105529080D02*
X171847444Y-105494246D01*
X171847444Y-105494246D02*
X171795192Y-105441994D01*
X171795192Y-105441994D02*
X171760358Y-105424577D01*
X171760358Y-105424577D02*
X171725524Y-105424577D01*
X171742941Y-105511663D02*
X171708107Y-105494246D01*
X171708107Y-105494246D02*
X171673272Y-105459411D01*
X171673272Y-105459411D02*
X171655855Y-105389743D01*
X171655855Y-105389743D02*
X171655855Y-105267823D01*
X171655855Y-105267823D02*
X171673272Y-105198154D01*
X171673272Y-105198154D02*
X171708107Y-105163320D01*
X171708107Y-105163320D02*
X171742941Y-105145903D01*
X171742941Y-105145903D02*
X171812609Y-105145903D01*
X171812609Y-105145903D02*
X171847444Y-105163320D01*
X171847444Y-105163320D02*
X171882278Y-105198154D01*
X171882278Y-105198154D02*
X171899695Y-105267823D01*
X171899695Y-105267823D02*
X171899695Y-105389743D01*
X171899695Y-105389743D02*
X171882278Y-105459411D01*
X171882278Y-105459411D02*
X171847444Y-105494246D01*
X171847444Y-105494246D02*
X171812609Y-105511663D01*
X171812609Y-105511663D02*
X171742941Y-105511663D01*
X130476504Y-99874221D02*
X130650676Y-99874221D01*
X130441670Y-99978724D02*
X130563590Y-99612964D01*
X130563590Y-99612964D02*
X130685510Y-99978724D01*
X130755179Y-99612964D02*
X130964185Y-99612964D01*
X130859682Y-99978724D02*
X130859682Y-99612964D01*
X131068687Y-99961307D02*
X131120939Y-99978724D01*
X131120939Y-99978724D02*
X131208024Y-99978724D01*
X131208024Y-99978724D02*
X131242859Y-99961307D01*
X131242859Y-99961307D02*
X131260276Y-99943889D01*
X131260276Y-99943889D02*
X131277693Y-99909055D01*
X131277693Y-99909055D02*
X131277693Y-99874221D01*
X131277693Y-99874221D02*
X131260276Y-99839387D01*
X131260276Y-99839387D02*
X131242859Y-99821969D01*
X131242859Y-99821969D02*
X131208024Y-99804552D01*
X131208024Y-99804552D02*
X131138356Y-99787135D01*
X131138356Y-99787135D02*
X131103521Y-99769718D01*
X131103521Y-99769718D02*
X131086104Y-99752301D01*
X131086104Y-99752301D02*
X131068687Y-99717467D01*
X131068687Y-99717467D02*
X131068687Y-99682632D01*
X131068687Y-99682632D02*
X131086104Y-99647798D01*
X131086104Y-99647798D02*
X131103521Y-99630381D01*
X131103521Y-99630381D02*
X131138356Y-99612964D01*
X131138356Y-99612964D02*
X131225441Y-99612964D01*
X131225441Y-99612964D02*
X131277693Y-99630381D01*
X131417030Y-99874221D02*
X131591202Y-99874221D01*
X131382196Y-99978724D02*
X131504116Y-99612964D01*
X131504116Y-99612964D02*
X131626036Y-99978724D01*
X131747956Y-99978724D02*
X131747956Y-99612964D01*
X131747956Y-99612964D02*
X131869876Y-99874221D01*
X131869876Y-99874221D02*
X131991796Y-99612964D01*
X131991796Y-99612964D02*
X131991796Y-99978724D01*
X132165967Y-99978724D02*
X132165967Y-99612964D01*
X132165967Y-99612964D02*
X132253053Y-99612964D01*
X132253053Y-99612964D02*
X132305304Y-99630381D01*
X132305304Y-99630381D02*
X132340139Y-99665215D01*
X132340139Y-99665215D02*
X132357556Y-99700049D01*
X132357556Y-99700049D02*
X132374973Y-99769718D01*
X132374973Y-99769718D02*
X132374973Y-99821969D01*
X132374973Y-99821969D02*
X132357556Y-99891638D01*
X132357556Y-99891638D02*
X132340139Y-99926472D01*
X132340139Y-99926472D02*
X132305304Y-99961307D01*
X132305304Y-99961307D02*
X132253053Y-99978724D01*
X132253053Y-99978724D02*
X132165967Y-99978724D01*
X132601396Y-99612964D02*
X132636230Y-99612964D01*
X132636230Y-99612964D02*
X132671064Y-99630381D01*
X132671064Y-99630381D02*
X132688482Y-99647798D01*
X132688482Y-99647798D02*
X132705899Y-99682632D01*
X132705899Y-99682632D02*
X132723316Y-99752301D01*
X132723316Y-99752301D02*
X132723316Y-99839387D01*
X132723316Y-99839387D02*
X132705899Y-99909055D01*
X132705899Y-99909055D02*
X132688482Y-99943889D01*
X132688482Y-99943889D02*
X132671064Y-99961307D01*
X132671064Y-99961307D02*
X132636230Y-99978724D01*
X132636230Y-99978724D02*
X132601396Y-99978724D01*
X132601396Y-99978724D02*
X132566562Y-99961307D01*
X132566562Y-99961307D02*
X132549144Y-99943889D01*
X132549144Y-99943889D02*
X132531727Y-99909055D01*
X132531727Y-99909055D02*
X132514310Y-99839387D01*
X132514310Y-99839387D02*
X132514310Y-99752301D01*
X132514310Y-99752301D02*
X132531727Y-99682632D01*
X132531727Y-99682632D02*
X132549144Y-99647798D01*
X132549144Y-99647798D02*
X132566562Y-99630381D01*
X132566562Y-99630381D02*
X132601396Y-99612964D01*
X132897487Y-99978724D02*
X132967156Y-99978724D01*
X132967156Y-99978724D02*
X133001990Y-99961307D01*
X133001990Y-99961307D02*
X133019407Y-99943889D01*
X133019407Y-99943889D02*
X133054242Y-99891638D01*
X133054242Y-99891638D02*
X133071659Y-99821969D01*
X133071659Y-99821969D02*
X133071659Y-99682632D01*
X133071659Y-99682632D02*
X133054242Y-99647798D01*
X133054242Y-99647798D02*
X133036825Y-99630381D01*
X133036825Y-99630381D02*
X133001990Y-99612964D01*
X133001990Y-99612964D02*
X132932322Y-99612964D01*
X132932322Y-99612964D02*
X132897487Y-99630381D01*
X132897487Y-99630381D02*
X132880070Y-99647798D01*
X132880070Y-99647798D02*
X132862653Y-99682632D01*
X132862653Y-99682632D02*
X132862653Y-99769718D01*
X132862653Y-99769718D02*
X132880070Y-99804552D01*
X132880070Y-99804552D02*
X132897487Y-99821969D01*
X132897487Y-99821969D02*
X132932322Y-99839387D01*
X132932322Y-99839387D02*
X133001990Y-99839387D01*
X133001990Y-99839387D02*
X133036825Y-99821969D01*
X133036825Y-99821969D02*
X133054242Y-99804552D01*
X133054242Y-99804552D02*
X133071659Y-99769718D01*
X133228413Y-99978724D02*
X133228413Y-99612964D01*
X133228413Y-99612964D02*
X133315499Y-99612964D01*
X133315499Y-99612964D02*
X133367750Y-99630381D01*
X133367750Y-99630381D02*
X133402585Y-99665215D01*
X133402585Y-99665215D02*
X133420002Y-99700049D01*
X133420002Y-99700049D02*
X133437419Y-99769718D01*
X133437419Y-99769718D02*
X133437419Y-99821969D01*
X133437419Y-99821969D02*
X133420002Y-99891638D01*
X133420002Y-99891638D02*
X133402585Y-99926472D01*
X133402585Y-99926472D02*
X133367750Y-99961307D01*
X133367750Y-99961307D02*
X133315499Y-99978724D01*
X133315499Y-99978724D02*
X133228413Y-99978724D01*
X133785762Y-99978724D02*
X133576756Y-99978724D01*
X133681259Y-99978724D02*
X133681259Y-99612964D01*
X133681259Y-99612964D02*
X133646425Y-99665215D01*
X133646425Y-99665215D02*
X133611590Y-99700049D01*
X133611590Y-99700049D02*
X133576756Y-99717467D01*
X134099271Y-99734884D02*
X134099271Y-99978724D01*
X134012185Y-99595547D02*
X133925099Y-99856804D01*
X133925099Y-99856804D02*
X134151522Y-99856804D01*
X134273442Y-99874221D02*
X134447614Y-99874221D01*
X134238608Y-99978724D02*
X134360528Y-99612964D01*
X134360528Y-99612964D02*
X134482448Y-99978724D01*
X134604368Y-99839387D02*
X134883043Y-99839387D01*
X135057214Y-99978724D02*
X135057214Y-99612964D01*
X135057214Y-99612964D02*
X135179134Y-99874221D01*
X135179134Y-99874221D02*
X135301054Y-99612964D01*
X135301054Y-99612964D02*
X135301054Y-99978724D01*
X135475225Y-99612964D02*
X135475225Y-99909055D01*
X135475225Y-99909055D02*
X135492642Y-99943889D01*
X135492642Y-99943889D02*
X135510060Y-99961307D01*
X135510060Y-99961307D02*
X135544894Y-99978724D01*
X135544894Y-99978724D02*
X135614562Y-99978724D01*
X135614562Y-99978724D02*
X135649397Y-99961307D01*
X135649397Y-99961307D02*
X135666814Y-99943889D01*
X135666814Y-99943889D02*
X135684231Y-99909055D01*
X135684231Y-99909055D02*
X135684231Y-99612964D01*
X165724592Y-96748663D02*
X165515586Y-96748663D01*
X165620089Y-96748663D02*
X165620089Y-96382903D01*
X165620089Y-96382903D02*
X165585255Y-96435154D01*
X165585255Y-96435154D02*
X165550420Y-96469988D01*
X165550420Y-96469988D02*
X165515586Y-96487406D01*
X165951015Y-96382903D02*
X165985849Y-96382903D01*
X165985849Y-96382903D02*
X166020683Y-96400320D01*
X166020683Y-96400320D02*
X166038101Y-96417737D01*
X166038101Y-96417737D02*
X166055518Y-96452571D01*
X166055518Y-96452571D02*
X166072935Y-96522240D01*
X166072935Y-96522240D02*
X166072935Y-96609326D01*
X166072935Y-96609326D02*
X166055518Y-96678994D01*
X166055518Y-96678994D02*
X166038101Y-96713828D01*
X166038101Y-96713828D02*
X166020683Y-96731246D01*
X166020683Y-96731246D02*
X165985849Y-96748663D01*
X165985849Y-96748663D02*
X165951015Y-96748663D01*
X165951015Y-96748663D02*
X165916181Y-96731246D01*
X165916181Y-96731246D02*
X165898763Y-96713828D01*
X165898763Y-96713828D02*
X165881346Y-96678994D01*
X165881346Y-96678994D02*
X165863929Y-96609326D01*
X165863929Y-96609326D02*
X165863929Y-96522240D01*
X165863929Y-96522240D02*
X165881346Y-96452571D01*
X165881346Y-96452571D02*
X165898763Y-96417737D01*
X165898763Y-96417737D02*
X165916181Y-96400320D01*
X165916181Y-96400320D02*
X165951015Y-96382903D01*
X166229689Y-96748663D02*
X166229689Y-96382903D01*
X166438695Y-96748663D02*
X166281941Y-96539657D01*
X166438695Y-96382903D02*
X166229689Y-96591908D01*
X165759921Y-104638135D02*
X165881841Y-104638135D01*
X165934093Y-104829724D02*
X165759921Y-104829724D01*
X165759921Y-104829724D02*
X165759921Y-104463964D01*
X165759921Y-104463964D02*
X165934093Y-104463964D01*
X166038596Y-104463964D02*
X166160516Y-104829724D01*
X166160516Y-104829724D02*
X166282436Y-104463964D01*
X166648196Y-104864558D02*
X166613362Y-104847141D01*
X166613362Y-104847141D02*
X166578528Y-104812307D01*
X166578528Y-104812307D02*
X166526276Y-104760055D01*
X166526276Y-104760055D02*
X166491442Y-104742638D01*
X166491442Y-104742638D02*
X166456608Y-104742638D01*
X166474025Y-104829724D02*
X166439191Y-104812307D01*
X166439191Y-104812307D02*
X166404356Y-104777472D01*
X166404356Y-104777472D02*
X166386939Y-104707804D01*
X166386939Y-104707804D02*
X166386939Y-104585884D01*
X166386939Y-104585884D02*
X166404356Y-104516215D01*
X166404356Y-104516215D02*
X166439191Y-104481381D01*
X166439191Y-104481381D02*
X166474025Y-104463964D01*
X166474025Y-104463964D02*
X166543693Y-104463964D01*
X166543693Y-104463964D02*
X166578528Y-104481381D01*
X166578528Y-104481381D02*
X166613362Y-104516215D01*
X166613362Y-104516215D02*
X166630779Y-104585884D01*
X166630779Y-104585884D02*
X166630779Y-104707804D01*
X166630779Y-104707804D02*
X166613362Y-104777472D01*
X166613362Y-104777472D02*
X166578528Y-104812307D01*
X166578528Y-104812307D02*
X166543693Y-104829724D01*
X166543693Y-104829724D02*
X166474025Y-104829724D01*
X167031373Y-104864558D02*
X166996539Y-104847141D01*
X166996539Y-104847141D02*
X166961705Y-104812307D01*
X166961705Y-104812307D02*
X166909453Y-104760055D01*
X166909453Y-104760055D02*
X166874619Y-104742638D01*
X166874619Y-104742638D02*
X166839785Y-104742638D01*
X166857202Y-104829724D02*
X166822368Y-104812307D01*
X166822368Y-104812307D02*
X166787533Y-104777472D01*
X166787533Y-104777472D02*
X166770116Y-104707804D01*
X166770116Y-104707804D02*
X166770116Y-104585884D01*
X166770116Y-104585884D02*
X166787533Y-104516215D01*
X166787533Y-104516215D02*
X166822368Y-104481381D01*
X166822368Y-104481381D02*
X166857202Y-104463964D01*
X166857202Y-104463964D02*
X166926870Y-104463964D01*
X166926870Y-104463964D02*
X166961705Y-104481381D01*
X166961705Y-104481381D02*
X166996539Y-104516215D01*
X166996539Y-104516215D02*
X167013956Y-104585884D01*
X167013956Y-104585884D02*
X167013956Y-104707804D01*
X167013956Y-104707804D02*
X166996539Y-104777472D01*
X166996539Y-104777472D02*
X166961705Y-104812307D01*
X166961705Y-104812307D02*
X166926870Y-104829724D01*
X166926870Y-104829724D02*
X166857202Y-104829724D01*
D11*
%TO.C,SW1*%
X128367100Y-110588600D02*
X132567100Y-110588600D01*
X128367100Y-113388600D02*
X128367100Y-110588600D01*
X129417100Y-111188600D02*
X131517100Y-111188600D01*
D12*
X130067100Y-111588600D02*
X130467100Y-111588600D01*
X130067100Y-112388600D02*
X130467100Y-112388600D01*
X130467100Y-111588600D02*
X130467100Y-111788600D01*
X130467100Y-111588600D02*
X130867100Y-111588600D01*
X130467100Y-111788600D02*
X130767100Y-112088600D01*
X130467100Y-112388600D02*
X130467100Y-112288600D01*
X130467100Y-112388600D02*
X130867100Y-112388600D01*
D11*
X131517100Y-112788600D02*
X129417100Y-112788600D01*
X132567100Y-110588600D02*
X132567100Y-113388600D01*
X132567100Y-113388600D02*
X128367100Y-113388600D01*
X129417100Y-111188601D02*
G75*
G03*
X129417101Y-112788600I1931400J-799999D01*
G01*
X131517100Y-112788599D02*
G75*
G03*
X131517100Y-111188600I-1931393J799999D01*
G01*
D13*
%TO.C,R1*%
X134429100Y-110667600D02*
X135141100Y-110667600D01*
X134429100Y-111518600D02*
X135141100Y-111518600D01*
G36*
X134447000Y-111569500D02*
G01*
X133946900Y-111569500D01*
X133946900Y-110619500D01*
X134447000Y-110619500D01*
X134447000Y-111569500D01*
G37*
G36*
X135615400Y-111569500D02*
G01*
X135115300Y-111569500D01*
X135115300Y-110619500D01*
X135615400Y-110619500D01*
X135615400Y-111569500D01*
G37*
%TO.C,R6*%
X164909100Y-96697600D02*
X165621100Y-96697600D01*
X164909100Y-97548600D02*
X165621100Y-97548600D01*
G36*
X164927000Y-97599500D02*
G01*
X164426900Y-97599500D01*
X164426900Y-96649500D01*
X164927000Y-96649500D01*
X164927000Y-97599500D01*
G37*
G36*
X166095400Y-97599500D02*
G01*
X165595300Y-97599500D01*
X165595300Y-96649500D01*
X166095400Y-96649500D01*
X166095400Y-97599500D01*
G37*
%TO.C,R7*%
X126174100Y-98602600D02*
X126886100Y-98602600D01*
X126174100Y-99453600D02*
X126886100Y-99453600D01*
G36*
X126192000Y-99504500D02*
G01*
X125691900Y-99504500D01*
X125691900Y-98554500D01*
X126192000Y-98554500D01*
X126192000Y-99504500D01*
G37*
G36*
X127360400Y-99504500D02*
G01*
X126860300Y-99504500D01*
X126860300Y-98554500D01*
X127360400Y-98554500D01*
X127360400Y-99504500D01*
G37*
D12*
%TO.C,SW2*%
X172121100Y-105813600D02*
X172121100Y-111813600D01*
X165521100Y-111813600D02*
X165521100Y-105813600D01*
D11*
%TO.C,IC2*%
X130880100Y-94875600D02*
X130880100Y-98875600D01*
X130880100Y-98875600D02*
X134880100Y-98875600D01*
X134880100Y-94875600D02*
X130880100Y-94875600D01*
X134880100Y-98875600D02*
X134880100Y-94875600D01*
D13*
%TO.C,R5*%
X168669100Y-97561600D02*
X167957100Y-97561600D01*
X168669100Y-96710600D02*
X167957100Y-96710600D01*
G36*
X169151300Y-97609700D02*
G01*
X168651200Y-97609700D01*
X168651200Y-96659700D01*
X169151300Y-96659700D01*
X169151300Y-97609700D01*
G37*
G36*
X167982900Y-97609700D02*
G01*
X167482800Y-97609700D01*
X167482800Y-96659700D01*
X167982900Y-96659700D01*
X167982900Y-97609700D01*
G37*
D12*
%TO.C,SW3*%
X165521100Y-104193600D02*
X165521100Y-98193600D01*
X172121100Y-98193600D02*
X172121100Y-104193600D01*
%TD*%
M02*
