%TF.GenerationSoftware,KiCad,Pcbnew,7.0.6-7.0.6~ubuntu22.04.1*%
%TF.CreationDate,2023-08-05T02:09:12+01:00*%
%TF.ProjectId,working,776f726b-696e-4672-9e6b-696361645f70,rev?*%
%TF.SameCoordinates,Original*%
%TF.FileFunction,Copper,L2,Bot*%
%TF.FilePolarity,Positive*%
%FSLAX46Y46*%
G04 Gerber Fmt 4.6, Leading zero omitted, Abs format (unit mm)*
G04 Created by KiCad (PCBNEW 7.0.6-7.0.6~ubuntu22.04.1) date 2023-08-05 02:09:12*
%MOMM*%
%LPD*%
G01*
G04 APERTURE LIST*
%TA.AperFunction,ComponentPad*%
%ADD10C,3.200000*%
%TD*%
%TA.AperFunction,ComponentPad*%
%ADD11C,1.930400*%
%TD*%
%TA.AperFunction,ViaPad*%
%ADD12C,0.908000*%
%TD*%
%TA.AperFunction,Conductor*%
%ADD13C,0.254000*%
%TD*%
G04 APERTURE END LIST*
D10*
%TO.P,U$3,P$1*%
%TO.N,N/C*%
X139611100Y-97383600D03*
%TD*%
D11*
%TO.P,JP1,1*%
%TO.N,SCL_5V*%
X139611100Y-112623600D03*
%TO.P,JP1,2*%
%TO.N,SDA_5V*%
X142151100Y-112623600D03*
%TO.P,JP1,3*%
%TO.N,INT2*%
X144691100Y-112623600D03*
%TO.P,JP1,4*%
%TO.N,INT1*%
X147231100Y-112623600D03*
%TO.P,JP1,5*%
%TO.N,DRDY*%
X149771100Y-112623600D03*
%TO.P,JP1,6*%
%TO.N,GND*%
X152311100Y-112623600D03*
%TO.P,JP1,7*%
%TO.N,VIN*%
X154851100Y-112623600D03*
%TO.P,JP1,8*%
%TO.N,VDD*%
X157391100Y-112623600D03*
%TD*%
D10*
%TO.P,U$4,P$1*%
%TO.N,N/C*%
X157391100Y-97383600D03*
%TD*%
D12*
%TO.N,GND*%
X150025100Y-109194600D03*
X150025100Y-101574600D03*
X153835100Y-108305600D03*
X154343100Y-105765600D03*
X151549100Y-105765600D03*
%TD*%
D13*
%TO.N,GND*%
X151549100Y-105765600D02*
X151803100Y-105765600D01*
%TD*%
%TA.AperFunction,Conductor*%
%TO.N,GND*%
G36*
X157392042Y-94869157D02*
G01*
X157692316Y-94887320D01*
X157696031Y-94887771D01*
X157991005Y-94941827D01*
X157994660Y-94942728D01*
X158209429Y-95009653D01*
X158280944Y-95031938D01*
X158284475Y-95033276D01*
X158557930Y-95156348D01*
X158561267Y-95158101D01*
X158817886Y-95313232D01*
X158820978Y-95315366D01*
X159013593Y-95466270D01*
X159057035Y-95500305D01*
X159059853Y-95502801D01*
X159271897Y-95714845D01*
X159274394Y-95717664D01*
X159459331Y-95953717D01*
X159461472Y-95956820D01*
X159616598Y-96213432D01*
X159618354Y-96216776D01*
X159741422Y-96490223D01*
X159742761Y-96493755D01*
X159831970Y-96780036D01*
X159832874Y-96783703D01*
X159886925Y-97078648D01*
X159887380Y-97082397D01*
X159905543Y-97382658D01*
X159905600Y-97384545D01*
X159905600Y-112622654D01*
X159905543Y-112624541D01*
X159887380Y-112924802D01*
X159886925Y-112928551D01*
X159832874Y-113223496D01*
X159831970Y-113227163D01*
X159742761Y-113513444D01*
X159741422Y-113516976D01*
X159618354Y-113790423D01*
X159616598Y-113793767D01*
X159461472Y-114050379D01*
X159459327Y-114053487D01*
X159274394Y-114289535D01*
X159271890Y-114292362D01*
X159059862Y-114504390D01*
X159057035Y-114506894D01*
X158820987Y-114691827D01*
X158817879Y-114693972D01*
X158561267Y-114849098D01*
X158557923Y-114850854D01*
X158284476Y-114973922D01*
X158280944Y-114975261D01*
X157994663Y-115064470D01*
X157990996Y-115065374D01*
X157841791Y-115092717D01*
X157696047Y-115119425D01*
X157692302Y-115119880D01*
X157392042Y-115138043D01*
X157390155Y-115138100D01*
X139612045Y-115138100D01*
X139610158Y-115138043D01*
X139309897Y-115119880D01*
X139306154Y-115119425D01*
X139115623Y-115084509D01*
X139011203Y-115065374D01*
X139007536Y-115064470D01*
X138721255Y-114975261D01*
X138717723Y-114973922D01*
X138444276Y-114850854D01*
X138440932Y-114849098D01*
X138280935Y-114752377D01*
X138184316Y-114693969D01*
X138181217Y-114691831D01*
X138009424Y-114557238D01*
X137945164Y-114506894D01*
X137942345Y-114504397D01*
X137730301Y-114292353D01*
X137727805Y-114289535D01*
X137587555Y-114110520D01*
X137542866Y-114053478D01*
X137540732Y-114050386D01*
X137385601Y-113793767D01*
X137383848Y-113790430D01*
X137260776Y-113516975D01*
X137259438Y-113513444D01*
X137170229Y-113227163D01*
X137169327Y-113223505D01*
X137115271Y-112928531D01*
X137114820Y-112924816D01*
X137096657Y-112624541D01*
X137096629Y-112623602D01*
X138386741Y-112623602D01*
X138405341Y-112836204D01*
X138405344Y-112836220D01*
X138460578Y-113042355D01*
X138546756Y-113227163D01*
X138550774Y-113235780D01*
X138620207Y-113334940D01*
X138673189Y-113410606D01*
X138824093Y-113561510D01*
X138824096Y-113561512D01*
X138824097Y-113561513D01*
X138998920Y-113683926D01*
X139088100Y-113725511D01*
X139192344Y-113774121D01*
X139398479Y-113829355D01*
X139398485Y-113829356D01*
X139398492Y-113829358D01*
X139526056Y-113840518D01*
X139611098Y-113847959D01*
X139611100Y-113847959D01*
X139611102Y-113847959D01*
X139681969Y-113841758D01*
X139823708Y-113829358D01*
X139823717Y-113829355D01*
X139823720Y-113829355D01*
X140029855Y-113774121D01*
X140029854Y-113774121D01*
X140223280Y-113683926D01*
X140398103Y-113561513D01*
X140549013Y-113410603D01*
X140671426Y-113235780D01*
X140761621Y-113042355D01*
X140793119Y-112924802D01*
X140816855Y-112836220D01*
X140816855Y-112836217D01*
X140816858Y-112836208D01*
X140818838Y-112813574D01*
X140840926Y-112771144D01*
X140886547Y-112756760D01*
X140928978Y-112778848D01*
X140943362Y-112813575D01*
X140945341Y-112836204D01*
X140945344Y-112836220D01*
X141000578Y-113042355D01*
X141086756Y-113227163D01*
X141090774Y-113235780D01*
X141160207Y-113334940D01*
X141213189Y-113410606D01*
X141364093Y-113561510D01*
X141364096Y-113561512D01*
X141364097Y-113561513D01*
X141538920Y-113683926D01*
X141628100Y-113725511D01*
X141732344Y-113774121D01*
X141938479Y-113829355D01*
X141938485Y-113829356D01*
X141938492Y-113829358D01*
X142066056Y-113840518D01*
X142151098Y-113847959D01*
X142151100Y-113847959D01*
X142151102Y-113847959D01*
X142221969Y-113841758D01*
X142363708Y-113829358D01*
X142363717Y-113829355D01*
X142363720Y-113829355D01*
X142569855Y-113774121D01*
X142569854Y-113774120D01*
X142763280Y-113683926D01*
X142938103Y-113561513D01*
X143089013Y-113410603D01*
X143211426Y-113235780D01*
X143301621Y-113042355D01*
X143333119Y-112924802D01*
X143356855Y-112836220D01*
X143356855Y-112836217D01*
X143356858Y-112836208D01*
X143358838Y-112813574D01*
X143380926Y-112771144D01*
X143426547Y-112756760D01*
X143468978Y-112778848D01*
X143483362Y-112813575D01*
X143485341Y-112836204D01*
X143485344Y-112836220D01*
X143540578Y-113042355D01*
X143626756Y-113227163D01*
X143630774Y-113235780D01*
X143700207Y-113334940D01*
X143753189Y-113410606D01*
X143904093Y-113561510D01*
X143904096Y-113561512D01*
X143904097Y-113561513D01*
X144078920Y-113683926D01*
X144168100Y-113725511D01*
X144272344Y-113774121D01*
X144478479Y-113829355D01*
X144478485Y-113829356D01*
X144478492Y-113829358D01*
X144606056Y-113840518D01*
X144691098Y-113847959D01*
X144691100Y-113847959D01*
X144691102Y-113847959D01*
X144761969Y-113841758D01*
X144903708Y-113829358D01*
X144903717Y-113829355D01*
X144903720Y-113829355D01*
X145109855Y-113774121D01*
X145303280Y-113683926D01*
X145478103Y-113561513D01*
X145629013Y-113410603D01*
X145751426Y-113235780D01*
X145841621Y-113042355D01*
X145873119Y-112924802D01*
X145896855Y-112836220D01*
X145896855Y-112836217D01*
X145896858Y-112836208D01*
X145898838Y-112813574D01*
X145920926Y-112771144D01*
X145966547Y-112756760D01*
X146008978Y-112778848D01*
X146023362Y-112813575D01*
X146025341Y-112836204D01*
X146025344Y-112836220D01*
X146080578Y-113042355D01*
X146166756Y-113227163D01*
X146170774Y-113235780D01*
X146240207Y-113334940D01*
X146293189Y-113410606D01*
X146444093Y-113561510D01*
X146444096Y-113561512D01*
X146444097Y-113561513D01*
X146618920Y-113683926D01*
X146708100Y-113725511D01*
X146812344Y-113774121D01*
X147018479Y-113829355D01*
X147018485Y-113829356D01*
X147018492Y-113829358D01*
X147146056Y-113840518D01*
X147231098Y-113847959D01*
X147231100Y-113847959D01*
X147231102Y-113847959D01*
X147301969Y-113841758D01*
X147443708Y-113829358D01*
X147443717Y-113829355D01*
X147443720Y-113829355D01*
X147649855Y-113774121D01*
X147649854Y-113774121D01*
X147843280Y-113683926D01*
X148018103Y-113561513D01*
X148169013Y-113410603D01*
X148291426Y-113235780D01*
X148381621Y-113042355D01*
X148413119Y-112924802D01*
X148436855Y-112836220D01*
X148436855Y-112836217D01*
X148436858Y-112836208D01*
X148438838Y-112813574D01*
X148460926Y-112771144D01*
X148506547Y-112756760D01*
X148548978Y-112778848D01*
X148563362Y-112813575D01*
X148565341Y-112836204D01*
X148565344Y-112836220D01*
X148620578Y-113042355D01*
X148706756Y-113227163D01*
X148710774Y-113235780D01*
X148780207Y-113334940D01*
X148833189Y-113410606D01*
X148984093Y-113561510D01*
X148984096Y-113561512D01*
X148984097Y-113561513D01*
X149158920Y-113683926D01*
X149248100Y-113725511D01*
X149352344Y-113774121D01*
X149558479Y-113829355D01*
X149558485Y-113829356D01*
X149558492Y-113829358D01*
X149686056Y-113840518D01*
X149771098Y-113847959D01*
X149771100Y-113847959D01*
X149771102Y-113847959D01*
X149841969Y-113841758D01*
X149983708Y-113829358D01*
X149983717Y-113829355D01*
X149983720Y-113829355D01*
X150189855Y-113774121D01*
X150189855Y-113774120D01*
X150383280Y-113683926D01*
X150558103Y-113561513D01*
X150709013Y-113410603D01*
X150831426Y-113235780D01*
X150921621Y-113042355D01*
X150955106Y-112917385D01*
X150984226Y-112879436D01*
X151031652Y-112873192D01*
X151069602Y-112902312D01*
X151075846Y-112917386D01*
X151113884Y-113059346D01*
X151113885Y-113059348D01*
X151207740Y-113260620D01*
X151311267Y-113408471D01*
X151865177Y-112854560D01*
X151929339Y-112954398D01*
X152038000Y-113048552D01*
X152081322Y-113068336D01*
X151526227Y-113623431D01*
X151674079Y-113726959D01*
X151875351Y-113820814D01*
X151875353Y-113820815D01*
X152089851Y-113878289D01*
X152089867Y-113878292D01*
X152311098Y-113897648D01*
X152311102Y-113897648D01*
X152532332Y-113878292D01*
X152532348Y-113878289D01*
X152746846Y-113820815D01*
X152746848Y-113820814D01*
X152948123Y-113726958D01*
X153095971Y-113623431D01*
X152540877Y-113068337D01*
X152584200Y-113048552D01*
X152692861Y-112954398D01*
X152757021Y-112854561D01*
X153310931Y-113408471D01*
X153414458Y-113260623D01*
X153508314Y-113059348D01*
X153508315Y-113059346D01*
X153546353Y-112917386D01*
X153575473Y-112879436D01*
X153622899Y-112873192D01*
X153660849Y-112902312D01*
X153667093Y-112917386D01*
X153700578Y-113042355D01*
X153786756Y-113227163D01*
X153790774Y-113235780D01*
X153860207Y-113334940D01*
X153913189Y-113410606D01*
X154064093Y-113561510D01*
X154064096Y-113561512D01*
X154064097Y-113561513D01*
X154238920Y-113683926D01*
X154328100Y-113725511D01*
X154432344Y-113774121D01*
X154638479Y-113829355D01*
X154638485Y-113829356D01*
X154638492Y-113829358D01*
X154766056Y-113840518D01*
X154851098Y-113847959D01*
X154851100Y-113847959D01*
X154851102Y-113847959D01*
X154921969Y-113841758D01*
X155063708Y-113829358D01*
X155063717Y-113829355D01*
X155063720Y-113829355D01*
X155269855Y-113774121D01*
X155269855Y-113774120D01*
X155463280Y-113683926D01*
X155638103Y-113561513D01*
X155789013Y-113410603D01*
X155911426Y-113235780D01*
X156001621Y-113042355D01*
X156033119Y-112924802D01*
X156056855Y-112836220D01*
X156056855Y-112836217D01*
X156056858Y-112836208D01*
X156058838Y-112813574D01*
X156080923Y-112771146D01*
X156126544Y-112756760D01*
X156168975Y-112778846D01*
X156183361Y-112813572D01*
X156185342Y-112836206D01*
X156185344Y-112836220D01*
X156240578Y-113042355D01*
X156326756Y-113227163D01*
X156330774Y-113235780D01*
X156400207Y-113334940D01*
X156453189Y-113410606D01*
X156604093Y-113561510D01*
X156604096Y-113561512D01*
X156604097Y-113561513D01*
X156778920Y-113683926D01*
X156868100Y-113725511D01*
X156972344Y-113774121D01*
X157178479Y-113829355D01*
X157178485Y-113829356D01*
X157178492Y-113829358D01*
X157306056Y-113840518D01*
X157391098Y-113847959D01*
X157391100Y-113847959D01*
X157391102Y-113847959D01*
X157461969Y-113841758D01*
X157603708Y-113829358D01*
X157603717Y-113829355D01*
X157603720Y-113829355D01*
X157809855Y-113774121D01*
X157809855Y-113774120D01*
X158003280Y-113683926D01*
X158178103Y-113561513D01*
X158329013Y-113410603D01*
X158451426Y-113235780D01*
X158541621Y-113042355D01*
X158573119Y-112924802D01*
X158596855Y-112836220D01*
X158596855Y-112836217D01*
X158596858Y-112836208D01*
X158615459Y-112623600D01*
X158609169Y-112551711D01*
X158596858Y-112410995D01*
X158596858Y-112410992D01*
X158585275Y-112367764D01*
X158541624Y-112204855D01*
X158541622Y-112204852D01*
X158541621Y-112204845D01*
X158503736Y-112123600D01*
X158451428Y-112011424D01*
X158451426Y-112011422D01*
X158451426Y-112011421D01*
X158373547Y-111900198D01*
X158329012Y-111836595D01*
X158178106Y-111685689D01*
X158158589Y-111672023D01*
X158003280Y-111563274D01*
X158003274Y-111563271D01*
X157809855Y-111473078D01*
X157603720Y-111417844D01*
X157603704Y-111417841D01*
X157391102Y-111399241D01*
X157391098Y-111399241D01*
X157178495Y-111417841D01*
X157178479Y-111417844D01*
X156972355Y-111473075D01*
X156972339Y-111473081D01*
X156778924Y-111563271D01*
X156778922Y-111563273D01*
X156604095Y-111685687D01*
X156453187Y-111836595D01*
X156330773Y-112011422D01*
X156330771Y-112011424D01*
X156240581Y-112204839D01*
X156240575Y-112204855D01*
X156185344Y-112410979D01*
X156185341Y-112410995D01*
X156183362Y-112433624D01*
X156161274Y-112476055D01*
X156115653Y-112490439D01*
X156073222Y-112468351D01*
X156058838Y-112433624D01*
X156056858Y-112410995D01*
X156056858Y-112410992D01*
X156045275Y-112367764D01*
X156001624Y-112204855D01*
X156001622Y-112204852D01*
X156001621Y-112204845D01*
X155963736Y-112123600D01*
X155911428Y-112011424D01*
X155911426Y-112011422D01*
X155911426Y-112011421D01*
X155833547Y-111900198D01*
X155789012Y-111836595D01*
X155638106Y-111685689D01*
X155618589Y-111672023D01*
X155463280Y-111563274D01*
X155463274Y-111563271D01*
X155269855Y-111473078D01*
X155063720Y-111417844D01*
X155063704Y-111417841D01*
X154851102Y-111399241D01*
X154851098Y-111399241D01*
X154638495Y-111417841D01*
X154638479Y-111417844D01*
X154432355Y-111473075D01*
X154432339Y-111473081D01*
X154238924Y-111563271D01*
X154238922Y-111563273D01*
X154064095Y-111685687D01*
X153913187Y-111836595D01*
X153790773Y-112011422D01*
X153790771Y-112011424D01*
X153700581Y-112204839D01*
X153700575Y-112204855D01*
X153667093Y-112329813D01*
X153637973Y-112367764D01*
X153590547Y-112374007D01*
X153552596Y-112344887D01*
X153546353Y-112329813D01*
X153508315Y-112187853D01*
X153508314Y-112187851D01*
X153414459Y-111986579D01*
X153310931Y-111838727D01*
X152757021Y-112392637D01*
X152692861Y-112292802D01*
X152584200Y-112198648D01*
X152540875Y-112178862D01*
X153095972Y-111623767D01*
X152948120Y-111520240D01*
X152746848Y-111426385D01*
X152746846Y-111426384D01*
X152532348Y-111368910D01*
X152532332Y-111368907D01*
X152311102Y-111349552D01*
X152311098Y-111349552D01*
X152089867Y-111368907D01*
X152089851Y-111368910D01*
X151875353Y-111426384D01*
X151875351Y-111426385D01*
X151674076Y-111520241D01*
X151526227Y-111623766D01*
X151526226Y-111623766D01*
X152081322Y-112178862D01*
X152038000Y-112198648D01*
X151929339Y-112292802D01*
X151865178Y-112392638D01*
X151311266Y-111838726D01*
X151311266Y-111838727D01*
X151207741Y-111986576D01*
X151113885Y-112187851D01*
X151075846Y-112329814D01*
X151046726Y-112367764D01*
X150999299Y-112374007D01*
X150961349Y-112344887D01*
X150955106Y-112329813D01*
X150921624Y-112204855D01*
X150921622Y-112204852D01*
X150921621Y-112204845D01*
X150883736Y-112123600D01*
X150831428Y-112011424D01*
X150831426Y-112011422D01*
X150831426Y-112011421D01*
X150753547Y-111900198D01*
X150709012Y-111836595D01*
X150558106Y-111685689D01*
X150538589Y-111672023D01*
X150383280Y-111563274D01*
X150383274Y-111563271D01*
X150189855Y-111473078D01*
X149983720Y-111417844D01*
X149983704Y-111417841D01*
X149771102Y-111399241D01*
X149771098Y-111399241D01*
X149558495Y-111417841D01*
X149558479Y-111417844D01*
X149352355Y-111473075D01*
X149352339Y-111473081D01*
X149158924Y-111563271D01*
X149158922Y-111563273D01*
X148984095Y-111685687D01*
X148833187Y-111836595D01*
X148710773Y-112011422D01*
X148710771Y-112011424D01*
X148620581Y-112204839D01*
X148620575Y-112204855D01*
X148565344Y-112410979D01*
X148565341Y-112410995D01*
X148563362Y-112433624D01*
X148541274Y-112476055D01*
X148495653Y-112490439D01*
X148453222Y-112468351D01*
X148438838Y-112433624D01*
X148436858Y-112410995D01*
X148436858Y-112410992D01*
X148425275Y-112367764D01*
X148381624Y-112204855D01*
X148381622Y-112204852D01*
X148381621Y-112204845D01*
X148343736Y-112123600D01*
X148291428Y-112011424D01*
X148291426Y-112011422D01*
X148291426Y-112011421D01*
X148213547Y-111900198D01*
X148169012Y-111836595D01*
X148018106Y-111685689D01*
X147998589Y-111672023D01*
X147843280Y-111563274D01*
X147843274Y-111563271D01*
X147649855Y-111473078D01*
X147443720Y-111417844D01*
X147443704Y-111417841D01*
X147231102Y-111399241D01*
X147231098Y-111399241D01*
X147018495Y-111417841D01*
X147018479Y-111417844D01*
X146812355Y-111473075D01*
X146812339Y-111473081D01*
X146618924Y-111563271D01*
X146618922Y-111563273D01*
X146444095Y-111685687D01*
X146293187Y-111836595D01*
X146170773Y-112011422D01*
X146170771Y-112011424D01*
X146080581Y-112204839D01*
X146080575Y-112204855D01*
X146025344Y-112410979D01*
X146025341Y-112410995D01*
X146023362Y-112433624D01*
X146001274Y-112476055D01*
X145955653Y-112490439D01*
X145913222Y-112468351D01*
X145898838Y-112433624D01*
X145896858Y-112410995D01*
X145896858Y-112410992D01*
X145885275Y-112367764D01*
X145841624Y-112204855D01*
X145841622Y-112204852D01*
X145841621Y-112204845D01*
X145803736Y-112123600D01*
X145751428Y-112011424D01*
X145751426Y-112011422D01*
X145751426Y-112011421D01*
X145673547Y-111900198D01*
X145629012Y-111836595D01*
X145478106Y-111685689D01*
X145458589Y-111672023D01*
X145303280Y-111563274D01*
X145303274Y-111563271D01*
X145109855Y-111473078D01*
X144903720Y-111417844D01*
X144903704Y-111417841D01*
X144691102Y-111399241D01*
X144691098Y-111399241D01*
X144478495Y-111417841D01*
X144478479Y-111417844D01*
X144272355Y-111473075D01*
X144272339Y-111473081D01*
X144078924Y-111563271D01*
X144078922Y-111563273D01*
X143904095Y-111685687D01*
X143753187Y-111836595D01*
X143630773Y-112011422D01*
X143630771Y-112011424D01*
X143540581Y-112204839D01*
X143540575Y-112204855D01*
X143485344Y-112410979D01*
X143485341Y-112410995D01*
X143483362Y-112433624D01*
X143461274Y-112476055D01*
X143415653Y-112490439D01*
X143373222Y-112468351D01*
X143358838Y-112433624D01*
X143356858Y-112410995D01*
X143356858Y-112410992D01*
X143345275Y-112367764D01*
X143301624Y-112204855D01*
X143301622Y-112204852D01*
X143301621Y-112204845D01*
X143263736Y-112123600D01*
X143211428Y-112011424D01*
X143211426Y-112011422D01*
X143211426Y-112011421D01*
X143133547Y-111900198D01*
X143089012Y-111836595D01*
X142938106Y-111685689D01*
X142918589Y-111672023D01*
X142763280Y-111563274D01*
X142763274Y-111563271D01*
X142569855Y-111473078D01*
X142363720Y-111417844D01*
X142363704Y-111417841D01*
X142151102Y-111399241D01*
X142151098Y-111399241D01*
X141938495Y-111417841D01*
X141938479Y-111417844D01*
X141732355Y-111473075D01*
X141732339Y-111473081D01*
X141538924Y-111563271D01*
X141538922Y-111563273D01*
X141364095Y-111685687D01*
X141213187Y-111836595D01*
X141090773Y-112011422D01*
X141090771Y-112011424D01*
X141000581Y-112204839D01*
X141000575Y-112204855D01*
X140945344Y-112410979D01*
X140945341Y-112410995D01*
X140943362Y-112433624D01*
X140921274Y-112476055D01*
X140875653Y-112490439D01*
X140833222Y-112468351D01*
X140818838Y-112433624D01*
X140816858Y-112410995D01*
X140816858Y-112410992D01*
X140805275Y-112367764D01*
X140761624Y-112204855D01*
X140761622Y-112204852D01*
X140761621Y-112204845D01*
X140723736Y-112123600D01*
X140671428Y-112011424D01*
X140671426Y-112011422D01*
X140671426Y-112011421D01*
X140593547Y-111900198D01*
X140549012Y-111836595D01*
X140398106Y-111685689D01*
X140378589Y-111672023D01*
X140223280Y-111563274D01*
X140223274Y-111563271D01*
X140029855Y-111473078D01*
X139823720Y-111417844D01*
X139823704Y-111417841D01*
X139611102Y-111399241D01*
X139611098Y-111399241D01*
X139398495Y-111417841D01*
X139398479Y-111417844D01*
X139192355Y-111473075D01*
X139192339Y-111473081D01*
X138998924Y-111563271D01*
X138998922Y-111563273D01*
X138824095Y-111685687D01*
X138673187Y-111836595D01*
X138550773Y-112011422D01*
X138550771Y-112011424D01*
X138460581Y-112204839D01*
X138460575Y-112204855D01*
X138405344Y-112410979D01*
X138405341Y-112410995D01*
X138386741Y-112623597D01*
X138386741Y-112623602D01*
X137096629Y-112623602D01*
X137096600Y-112622654D01*
X137096600Y-97524231D01*
X137600011Y-97524231D01*
X137639153Y-97802746D01*
X137716679Y-98073110D01*
X137831079Y-98330058D01*
X137980123Y-98568576D01*
X138160910Y-98784030D01*
X138160914Y-98784035D01*
X138369923Y-98972227D01*
X138369922Y-98972227D01*
X138369924Y-98972228D01*
X138369926Y-98972230D01*
X138603100Y-99129507D01*
X138855893Y-99252803D01*
X138855895Y-99252803D01*
X138855898Y-99252805D01*
X138949243Y-99283134D01*
X139123385Y-99339716D01*
X139400371Y-99388556D01*
X139681457Y-99398372D01*
X139961175Y-99368972D01*
X140234078Y-99300930D01*
X140494856Y-99195569D01*
X140738433Y-99054940D01*
X140960067Y-98881780D01*
X141155446Y-98679460D01*
X141320765Y-98451917D01*
X141452808Y-98203581D01*
X141549004Y-97939285D01*
X141607480Y-97664173D01*
X141617266Y-97524231D01*
X155380011Y-97524231D01*
X155419153Y-97802746D01*
X155496679Y-98073110D01*
X155611079Y-98330058D01*
X155760123Y-98568576D01*
X155940910Y-98784030D01*
X155940914Y-98784035D01*
X156149923Y-98972227D01*
X156149922Y-98972227D01*
X156149924Y-98972228D01*
X156149926Y-98972230D01*
X156383100Y-99129507D01*
X156635893Y-99252803D01*
X156635895Y-99252803D01*
X156635898Y-99252805D01*
X156729243Y-99283134D01*
X156903385Y-99339716D01*
X157180371Y-99388556D01*
X157461457Y-99398372D01*
X157741175Y-99368972D01*
X158014078Y-99300930D01*
X158274856Y-99195569D01*
X158518433Y-99054940D01*
X158740067Y-98881780D01*
X158935446Y-98679460D01*
X159100765Y-98451917D01*
X159232808Y-98203581D01*
X159329004Y-97939285D01*
X159387480Y-97664173D01*
X159407100Y-97383600D01*
X159387480Y-97103027D01*
X159329004Y-96827915D01*
X159232808Y-96563619D01*
X159193783Y-96490223D01*
X159100769Y-96315289D01*
X159100767Y-96315286D01*
X158935446Y-96087740D01*
X158740068Y-95885421D01*
X158624299Y-95794972D01*
X158518433Y-95712260D01*
X158389274Y-95637690D01*
X158274857Y-95571631D01*
X158274855Y-95571630D01*
X158014085Y-95466272D01*
X158014079Y-95466270D01*
X158014078Y-95466270D01*
X157741175Y-95398228D01*
X157461457Y-95368828D01*
X157461456Y-95368828D01*
X157180379Y-95378643D01*
X157180363Y-95378645D01*
X156903390Y-95427483D01*
X156903381Y-95427485D01*
X156635898Y-95514394D01*
X156383105Y-95637690D01*
X156383096Y-95637695D01*
X156149922Y-95794972D01*
X155940914Y-95983164D01*
X155940910Y-95983169D01*
X155760123Y-96198623D01*
X155611079Y-96437141D01*
X155496679Y-96694089D01*
X155419153Y-96964453D01*
X155380011Y-97242968D01*
X155380011Y-97524231D01*
X141617266Y-97524231D01*
X141627100Y-97383600D01*
X141607480Y-97103027D01*
X141549004Y-96827915D01*
X141452808Y-96563619D01*
X141413783Y-96490223D01*
X141320769Y-96315289D01*
X141320767Y-96315286D01*
X141155446Y-96087740D01*
X140960068Y-95885421D01*
X140844299Y-95794972D01*
X140738433Y-95712260D01*
X140609274Y-95637690D01*
X140494857Y-95571631D01*
X140494855Y-95571630D01*
X140234085Y-95466272D01*
X140234079Y-95466270D01*
X140234078Y-95466270D01*
X139961175Y-95398228D01*
X139681457Y-95368828D01*
X139681456Y-95368828D01*
X139400379Y-95378643D01*
X139400363Y-95378645D01*
X139123390Y-95427483D01*
X139123381Y-95427485D01*
X138855898Y-95514394D01*
X138603105Y-95637690D01*
X138603096Y-95637695D01*
X138369922Y-95794972D01*
X138160914Y-95983164D01*
X138160910Y-95983169D01*
X137980123Y-96198623D01*
X137831079Y-96437141D01*
X137716679Y-96694089D01*
X137639153Y-96964453D01*
X137600011Y-97242968D01*
X137600011Y-97524231D01*
X137096600Y-97524231D01*
X137096600Y-97384545D01*
X137096657Y-97382658D01*
X137097006Y-97376875D01*
X137114820Y-97082381D01*
X137115271Y-97078670D01*
X137169328Y-96783690D01*
X137170229Y-96780036D01*
X137197012Y-96694089D01*
X137259439Y-96493750D01*
X137260777Y-96490223D01*
X137383851Y-96216762D01*
X137385597Y-96213438D01*
X137540737Y-95956805D01*
X137542860Y-95953728D01*
X137727811Y-95717656D01*
X137730293Y-95714854D01*
X137942354Y-95502793D01*
X137945156Y-95500311D01*
X138181228Y-95315360D01*
X138184305Y-95313237D01*
X138440938Y-95158097D01*
X138444262Y-95156351D01*
X138717729Y-95033274D01*
X138721250Y-95031939D01*
X139007543Y-94942727D01*
X139011190Y-94941828D01*
X139306170Y-94887771D01*
X139309881Y-94887320D01*
X139610157Y-94869157D01*
X139612045Y-94869100D01*
X139619385Y-94869100D01*
X157382815Y-94869100D01*
X157390155Y-94869100D01*
X157392042Y-94869157D01*
G37*
%TD.AperFunction*%
%TD*%
M02*
