<?xml version="1.0" standalone="no"?>
 <!DOCTYPE svg PUBLIC "-//W3C//DTD SVG 1.1//EN" 
 "http://www.w3.org/Graphics/SVG/1.1/DTD/svg11.dtd"> 
<svg
  xmlns:svg="http://www.w3.org/2000/svg"
  xmlns="http://www.w3.org/2000/svg"
  xmlns:xlink="http://www.w3.org/1999/xlink"
  version="1.1"
  width="297.0022mm" height="210.0072mm" viewBox="0.0000 0.0000 297.0022 210.0072">
<title>SVG Image created as working-F_Fab.svg date 2023/08/04 14:57:56 </title>
  <desc>Image generated by PCBNEW </desc>
<g style="fill:#000000; fill-opacity:1.0000;stroke:#000000; stroke-opacity:1.0000;
stroke-linecap:round; stroke-linejoin:round;"
 transform="translate(0 0) scale(1 1)">
</g>
<g style="fill:#000000; fill-opacity:0.0; 
stroke:#000000; stroke-width:0.0000; stroke-opacity:1; 
stroke-linecap:round; stroke-linejoin:round;">
</g>
<g style="fill:#000000; fill-opacity:0.0; 
stroke:#000000; stroke-width:0.0366; stroke-opacity:1; 
stroke-linecap:round; stroke-linejoin:round;">
<text x="142.1511" y="118.8283"
textLength="2.7122" font-size="1.3059" lengthAdjust="spacingAndGlyphs"
text-anchor="start" opacity="0">470</text>
<g class="stroked-text"><desc>470</desc>
<path d="M142.8281 118.1368
L142.8281 118.7898
" />
<path d="M142.5949 117.7637
L142.3617 118.4633
" />
<path d="M142.3617 118.4633
L142.9680 118.4633
" />
<path d="M143.2479 117.8104
L143.9008 117.8104
" />
<path d="M143.9008 117.8104
L143.4811 118.7898
" />
<path d="M144.4605 117.8104
L144.5538 117.8104
" />
<path d="M144.5538 117.8104
L144.6470 117.8570
" />
<path d="M144.6470 117.8570
L144.6937 117.9037
" />
<path d="M144.6937 117.9037
L144.7403 117.9969
" />
<path d="M144.7403 117.9969
L144.7870 118.1835
" />
<path d="M144.7870 118.1835
L144.7870 118.4167
" />
<path d="M144.7870 118.4167
L144.7403 118.6032
" />
<path d="M144.7403 118.6032
L144.6937 118.6965
" />
<path d="M144.6937 118.6965
L144.6470 118.7432
" />
<path d="M144.6470 118.7432
L144.5538 118.7898
" />
<path d="M144.5538 118.7898
L144.4605 118.7898
" />
<path d="M144.4605 118.7898
L144.3672 118.7432
" />
<path d="M144.3672 118.7432
L144.3206 118.6965
" />
<path d="M144.3206 118.6965
L144.2739 118.6032
" />
<path d="M144.2739 118.6032
L144.2273 118.4167
" />
<path d="M144.2273 118.4167
L144.2273 118.1835
" />
<path d="M144.2273 118.1835
L144.2739 117.9969
" />
<path d="M144.2739 117.9969
L144.3206 117.9037
" />
<path d="M144.3206 117.9037
L144.3672 117.8570
" />
<path d="M144.3672 117.8570
L144.4605 117.8104
" />
</g><text x="150.2791" y="93.5553"
textLength="7.2362" font-size="1.3059" lengthAdjust="spacingAndGlyphs"
text-anchor="start" opacity="0">10uF/16V</text>
<g class="stroked-text"><desc>10uF/16V</desc>
<path d="M151.0494 93.5168
L150.4897 93.5168
" />
<path d="M150.7696 93.5168
L150.7696 92.5374
" />
<path d="M150.7696 92.5374
L150.6763 92.6773
" />
<path d="M150.6763 92.6773
L150.5830 92.7706
" />
<path d="M150.5830 92.7706
L150.4897 92.8172
" />
<path d="M151.6557 92.5374
L151.7490 92.5374
" />
<path d="M151.7490 92.5374
L151.8423 92.5840
" />
<path d="M151.8423 92.5840
L151.8889 92.6307
" />
<path d="M151.8889 92.6307
L151.9355 92.7239
" />
<path d="M151.9355 92.7239
L151.9822 92.9105
" />
<path d="M151.9822 92.9105
L151.9822 93.1437
" />
<path d="M151.9822 93.1437
L151.9355 93.3302
" />
<path d="M151.9355 93.3302
L151.8889 93.4235
" />
<path d="M151.8889 93.4235
L151.8423 93.4702
" />
<path d="M151.8423 93.4702
L151.7490 93.5168
" />
<path d="M151.7490 93.5168
L151.6557 93.5168
" />
<path d="M151.6557 93.5168
L151.5624 93.4702
" />
<path d="M151.5624 93.4702
L151.5158 93.4235
" />
<path d="M151.5158 93.4235
L151.4691 93.3302
" />
<path d="M151.4691 93.3302
L151.4225 93.1437
" />
<path d="M151.4225 93.1437
L151.4225 92.9105
" />
<path d="M151.4225 92.9105
L151.4691 92.7239
" />
<path d="M151.4691 92.7239
L151.5158 92.6307
" />
<path d="M151.5158 92.6307
L151.5624 92.5840
" />
<path d="M151.5624 92.5840
L151.6557 92.5374
" />
<path d="M152.8217 92.8638
L152.8217 93.5168
" />
<path d="M152.4019 92.8638
L152.4019 93.3769
" />
<path d="M152.4019 93.3769
L152.4486 93.4702
" />
<path d="M152.4486 93.4702
L152.5418 93.5168
" />
<path d="M152.5418 93.5168
L152.6818 93.5168
" />
<path d="M152.6818 93.5168
L152.7750 93.4702
" />
<path d="M152.7750 93.4702
L152.8217 93.4235
" />
<path d="M153.6145 93.0038
L153.2881 93.0038
" />
<path d="M153.2881 93.5168
L153.2881 92.5374
" />
<path d="M153.2881 92.5374
L153.7545 92.5374
" />
<path d="M154.8272 92.4907
L153.9877 93.7500
" />
<path d="M155.6667 93.5168
L155.1070 93.5168
" />
<path d="M155.3868 93.5168
L155.3868 92.5374
" />
<path d="M155.3868 92.5374
L155.2936 92.6773
" />
<path d="M155.2936 92.6773
L155.2003 92.7706
" />
<path d="M155.2003 92.7706
L155.1070 92.8172
" />
<path d="M156.5062 92.5374
L156.3196 92.5374
" />
<path d="M156.3196 92.5374
L156.2263 92.5840
" />
<path d="M156.2263 92.5840
L156.1797 92.6307
" />
<path d="M156.1797 92.6307
L156.0864 92.7706
" />
<path d="M156.0864 92.7706
L156.0398 92.9571
" />
<path d="M156.0398 92.9571
L156.0398 93.3302
" />
<path d="M156.0398 93.3302
L156.0864 93.4235
" />
<path d="M156.0864 93.4235
L156.1331 93.4702
" />
<path d="M156.1331 93.4702
L156.2263 93.5168
" />
<path d="M156.2263 93.5168
L156.4129 93.5168
" />
<path d="M156.4129 93.5168
L156.5062 93.4702
" />
<path d="M156.5062 93.4702
L156.5528 93.4235
" />
<path d="M156.5528 93.4235
L156.5995 93.3302
" />
<path d="M156.5995 93.3302
L156.5995 93.0970
" />
<path d="M156.5995 93.0970
L156.5528 93.0038
" />
<path d="M156.5528 93.0038
L156.5062 92.9571
" />
<path d="M156.5062 92.9571
L156.4129 92.9105
" />
<path d="M156.4129 92.9105
L156.2263 92.9105
" />
<path d="M156.2263 92.9105
L156.1331 92.9571
" />
<path d="M156.1331 92.9571
L156.0864 93.0038
" />
<path d="M156.0864 93.0038
L156.0398 93.0970
" />
<path d="M156.8793 92.5374
L157.2058 93.5168
" />
<path d="M157.2058 93.5168
L157.5322 92.5374
" />
</g></g>
<g style="fill:#000000; fill-opacity:0.0; 
stroke:#000000; stroke-width:0.1143; stroke-opacity:1; 
stroke-linecap:round; stroke-linejoin:round;">
<g transform="rotate(-90.000000 138.6141 103.2700)">
<text x="138.6141" y="103.7208"
textLength="3.2112" font-size="1.2023" lengthAdjust="spacingAndGlyphs"
text-anchor="end" opacity="0">3.3K</text>
</g>
<g class="stroked-text"><desc>3.3K</desc>
<path d="M138.1236 106.2650
L138.1236 105.7068
" />
<path d="M138.1236 105.7068
L138.4671 106.0074
" />
<path d="M138.4671 106.0074
L138.4671 105.8785
" />
<path d="M138.4671 105.8785
L138.5100 105.7927
" />
<path d="M138.5100 105.7927
L138.5530 105.7497
" />
<path d="M138.5530 105.7497
L138.6389 105.7068
" />
<path d="M138.6389 105.7068
L138.8535 105.7068
" />
<path d="M138.8535 105.7068
L138.9394 105.7497
" />
<path d="M138.9394 105.7497
L138.9824 105.7927
" />
<path d="M138.9824 105.7927
L139.0253 105.8785
" />
<path d="M139.0253 105.8785
L139.0253 106.1362
" />
<path d="M139.0253 106.1362
L138.9824 106.2220
" />
<path d="M138.9824 106.2220
L138.9394 106.2650
" />
<path d="M138.9394 105.3203
L138.9824 105.2774
" />
<path d="M138.9824 105.2774
L139.0253 105.3203
" />
<path d="M139.0253 105.3203
L138.9824 105.3633
" />
<path d="M138.9824 105.3633
L138.9394 105.3203
" />
<path d="M138.9394 105.3203
L139.0253 105.3203
" />
<path d="M138.1236 104.9768
L138.1236 104.4186
" />
<path d="M138.1236 104.4186
L138.4671 104.7192
" />
<path d="M138.4671 104.7192
L138.4671 104.5904
" />
<path d="M138.4671 104.5904
L138.5100 104.5045
" />
<path d="M138.5100 104.5045
L138.5530 104.4616
" />
<path d="M138.5530 104.4616
L138.6389 104.4186
" />
<path d="M138.6389 104.4186
L138.8535 104.4186
" />
<path d="M138.8535 104.4186
L138.9394 104.4616
" />
<path d="M138.9394 104.4616
L138.9824 104.5045
" />
<path d="M138.9824 104.5045
L139.0253 104.5904
" />
<path d="M139.0253 104.5904
L139.0253 104.8480
" />
<path d="M139.0253 104.8480
L138.9824 104.9339
" />
<path d="M138.9824 104.9339
L138.9394 104.9768
" />
<path d="M139.0253 104.0322
L138.1236 104.0322
" />
<path d="M139.0253 103.5169
L138.5100 103.9034
" />
<path d="M138.1236 103.5169
L138.6389 104.0322
" />
</g></g>
<g style="fill:#000000; fill-opacity:0.0; 
stroke:#000000; stroke-width:0.0366; stroke-opacity:1; 
stroke-linecap:round; stroke-linejoin:round;">
<g transform="rotate(-90.000000 164.1221 106.6546)">
<text x="164.1221" y="107.1443"
textLength="5.4639" font-size="1.3059" lengthAdjust="spacingAndGlyphs"
text-anchor="start" opacity="0">OUTPUT</text>
</g>
<g class="stroked-text"><desc>OUTPUT</desc>
<path d="M163.5939 106.2108
L163.5939 106.0242
" />
<path d="M163.5939 106.0242
L163.6405 105.9309
" />
<path d="M163.6405 105.9309
L163.7338 105.8377
" />
<path d="M163.7338 105.8377
L163.9203 105.7910
" />
<path d="M163.9203 105.7910
L164.2468 105.7910
" />
<path d="M164.2468 105.7910
L164.4334 105.8377
" />
<path d="M164.4334 105.8377
L164.5267 105.9309
" />
<path d="M164.5267 105.9309
L164.5733 106.0242
" />
<path d="M164.5733 106.0242
L164.5733 106.2108
" />
<path d="M164.5733 106.2108
L164.5267 106.3041
" />
<path d="M164.5267 106.3041
L164.4334 106.3973
" />
<path d="M164.4334 106.3973
L164.2468 106.4440
" />
<path d="M164.2468 106.4440
L163.9203 106.4440
" />
<path d="M163.9203 106.4440
L163.7338 106.3973
" />
<path d="M163.7338 106.3973
L163.6405 106.3041
" />
<path d="M163.6405 106.3041
L163.5939 106.2108
" />
<path d="M163.5939 105.3713
L164.3867 105.3713
" />
<path d="M164.3867 105.3713
L164.4800 105.3246
" />
<path d="M164.4800 105.3246
L164.5267 105.2780
" />
<path d="M164.5267 105.2780
L164.5733 105.1847
" />
<path d="M164.5733 105.1847
L164.5733 104.9982
" />
<path d="M164.5733 104.9982
L164.5267 104.9049
" />
<path d="M164.5267 104.9049
L164.4800 104.8582
" />
<path d="M164.4800 104.8582
L164.3867 104.8116
" />
<path d="M164.3867 104.8116
L163.5939 104.8116
" />
<path d="M163.5939 104.4851
L163.5939 103.9255
" />
<path d="M164.5733 104.2053
L163.5939 104.2053
" />
<path d="M164.5733 103.5990
L163.5939 103.5990
" />
<path d="M163.5939 103.5990
L163.5939 103.2259
" />
<path d="M163.5939 103.2259
L163.6405 103.1326
" />
<path d="M163.6405 103.1326
L163.6872 103.0860
" />
<path d="M163.6872 103.0860
L163.7804 103.0393
" />
<path d="M163.7804 103.0393
L163.9203 103.0393
" />
<path d="M163.9203 103.0393
L164.0136 103.0860
" />
<path d="M164.0136 103.0860
L164.0603 103.1326
" />
<path d="M164.0603 103.1326
L164.1069 103.2259
" />
<path d="M164.1069 103.2259
L164.1069 103.5990
" />
<path d="M163.5939 102.6196
L164.3867 102.6196
" />
<path d="M164.3867 102.6196
L164.4800 102.5729
" />
<path d="M164.4800 102.5729
L164.5267 102.5263
" />
<path d="M164.5267 102.5263
L164.5733 102.4330
" />
<path d="M164.5733 102.4330
L164.5733 102.2464
" />
<path d="M164.5733 102.2464
L164.5267 102.1532
" />
<path d="M164.5267 102.1532
L164.4800 102.1065
" />
<path d="M164.4800 102.1065
L164.3867 102.0599
" />
<path d="M164.3867 102.0599
L163.5939 102.0599
" />
<path d="M163.5939 101.7334
L163.5939 101.1737
" />
<path d="M164.5733 101.4536
L163.5939 101.4536
" />
</g></g>
<g style="fill:#000000; fill-opacity:0.0; 
stroke:#000000; stroke-width:0.0935; stroke-opacity:1; 
stroke-linecap:round; stroke-linejoin:round;">
<text x="141.2621" y="93.5269"
textLength="4.0057" font-size="1.2300" lengthAdjust="spacingAndGlyphs"
text-anchor="start" opacity="0">Green</text>
<g class="stroked-text"><desc>Green</desc>
<path d="M142.0265 92.6089
L141.9386 92.5650
" />
<path d="M141.9386 92.5650
L141.8068 92.5650
" />
<path d="M141.8068 92.5650
L141.6750 92.6089
" />
<path d="M141.6750 92.6089
L141.5872 92.6968
" />
<path d="M141.5872 92.6968
L141.5432 92.7846
" />
<path d="M141.5432 92.7846
L141.4993 92.9604
" />
<path d="M141.4993 92.9604
L141.4993 93.0921
" />
<path d="M141.4993 93.0921
L141.5432 93.2679
" />
<path d="M141.5432 93.2679
L141.5872 93.3557
" />
<path d="M141.5872 93.3557
L141.6750 93.4436
" />
<path d="M141.6750 93.4436
L141.8068 93.4875
" />
<path d="M141.8068 93.4875
L141.8947 93.4875
" />
<path d="M141.8947 93.4875
L142.0265 93.4436
" />
<path d="M142.0265 93.4436
L142.0704 93.3997
" />
<path d="M142.0704 93.3997
L142.0704 93.0921
" />
<path d="M142.0704 93.0921
L141.8947 93.0921
" />
<path d="M142.4658 93.4875
L142.4658 92.8725
" />
<path d="M142.4658 93.0482
L142.5097 92.9604
" />
<path d="M142.5097 92.9604
L142.5536 92.9164
" />
<path d="M142.5536 92.9164
L142.6415 92.8725
" />
<path d="M142.6415 92.8725
L142.7293 92.8725
" />
<path d="M143.3883 93.4436
L143.3004 93.4875
" />
<path d="M143.3004 93.4875
L143.1247 93.4875
" />
<path d="M143.1247 93.4875
L143.0369 93.4436
" />
<path d="M143.0369 93.4436
L142.9929 93.3557
" />
<path d="M142.9929 93.3557
L142.9929 93.0043
" />
<path d="M142.9929 93.0043
L143.0369 92.9164
" />
<path d="M143.0369 92.9164
L143.1247 92.8725
" />
<path d="M143.1247 92.8725
L143.3004 92.8725
" />
<path d="M143.3004 92.8725
L143.3883 92.9164
" />
<path d="M143.3883 92.9164
L143.4322 93.0043
" />
<path d="M143.4322 93.0043
L143.4322 93.0921
" />
<path d="M143.4322 93.0921
L142.9929 93.1800
" />
<path d="M144.1790 93.4436
L144.0912 93.4875
" />
<path d="M144.0912 93.4875
L143.9155 93.4875
" />
<path d="M143.9155 93.4875
L143.8276 93.4436
" />
<path d="M143.8276 93.4436
L143.7837 93.3557
" />
<path d="M143.7837 93.3557
L143.7837 93.0043
" />
<path d="M143.7837 93.0043
L143.8276 92.9164
" />
<path d="M143.8276 92.9164
L143.9155 92.8725
" />
<path d="M143.9155 92.8725
L144.0912 92.8725
" />
<path d="M144.0912 92.8725
L144.1790 92.9164
" />
<path d="M144.1790 92.9164
L144.2230 93.0043
" />
<path d="M144.2230 93.0043
L144.2230 93.0921
" />
<path d="M144.2230 93.0921
L143.7837 93.1800
" />
<path d="M144.6183 92.8725
L144.6183 93.4875
" />
<path d="M144.6183 92.9604
L144.6623 92.9164
" />
<path d="M144.6623 92.9164
L144.7501 92.8725
" />
<path d="M144.7501 92.8725
L144.8819 92.8725
" />
<path d="M144.8819 92.8725
L144.9698 92.9164
" />
<path d="M144.9698 92.9164
L145.0137 93.0043
" />
<path d="M145.0137 93.0043
L145.0137 93.4875
" />
</g></g>
<g style="fill:#000000; fill-opacity:0.0; 
stroke:#000000; stroke-width:0.1143; stroke-opacity:1; 
stroke-linecap:round; stroke-linejoin:round;">
<text x="158.1531" y="103.0414"
textLength="5.4439" font-size="1.2023" lengthAdjust="spacingAndGlyphs"
text-anchor="end" opacity="0">220uF+</text>
<g class="stroked-text"><desc>220uF+</desc>
<path d="M152.9683 102.1860
L153.0112 102.1430
" />
<path d="M153.0112 102.1430
L153.0971 102.1001
" />
<path d="M153.0971 102.1001
L153.3118 102.1001
" />
<path d="M153.3118 102.1001
L153.3976 102.1430
" />
<path d="M153.3976 102.1430
L153.4406 102.1860
" />
<path d="M153.4406 102.1860
L153.4835 102.2719
" />
<path d="M153.4835 102.2719
L153.4835 102.3577
" />
<path d="M153.4835 102.3577
L153.4406 102.4865
" />
<path d="M153.4406 102.4865
L152.9253 103.0018
" />
<path d="M152.9253 103.0018
L153.4835 103.0018
" />
<path d="M153.8270 102.1860
L153.8700 102.1430
" />
<path d="M153.8700 102.1430
L153.9558 102.1001
" />
<path d="M153.9558 102.1001
L154.1705 102.1001
" />
<path d="M154.1705 102.1001
L154.2564 102.1430
" />
<path d="M154.2564 102.1430
L154.2994 102.1860
" />
<path d="M154.2994 102.1860
L154.3423 102.2719
" />
<path d="M154.3423 102.2719
L154.3423 102.3577
" />
<path d="M154.3423 102.3577
L154.2994 102.4865
" />
<path d="M154.2994 102.4865
L153.7841 103.0018
" />
<path d="M153.7841 103.0018
L154.3423 103.0018
" />
<path d="M154.9005 102.1001
L154.9864 102.1001
" />
<path d="M154.9864 102.1001
L155.0722 102.1430
" />
<path d="M155.0722 102.1430
L155.1152 102.1860
" />
<path d="M155.1152 102.1860
L155.1581 102.2719
" />
<path d="M155.1581 102.2719
L155.2010 102.4436
" />
<path d="M155.2010 102.4436
L155.2010 102.6583
" />
<path d="M155.2010 102.6583
L155.1581 102.8300
" />
<path d="M155.1581 102.8300
L155.1152 102.9159
" />
<path d="M155.1152 102.9159
L155.0722 102.9589
" />
<path d="M155.0722 102.9589
L154.9864 103.0018
" />
<path d="M154.9864 103.0018
L154.9005 103.0018
" />
<path d="M154.9005 103.0018
L154.8146 102.9589
" />
<path d="M154.8146 102.9589
L154.7717 102.9159
" />
<path d="M154.7717 102.9159
L154.7287 102.8300
" />
<path d="M154.7287 102.8300
L154.6858 102.6583
" />
<path d="M154.6858 102.6583
L154.6858 102.4436
" />
<path d="M154.6858 102.4436
L154.7287 102.2719
" />
<path d="M154.7287 102.2719
L154.7717 102.1860
" />
<path d="M154.7717 102.1860
L154.8146 102.1430
" />
<path d="M154.8146 102.1430
L154.9005 102.1001
" />
<path d="M155.9739 102.4007
L155.9739 103.0018
" />
<path d="M155.5875 102.4007
L155.5875 102.8730
" />
<path d="M155.5875 102.8730
L155.6304 102.9589
" />
<path d="M155.6304 102.9589
L155.7163 103.0018
" />
<path d="M155.7163 103.0018
L155.8451 103.0018
" />
<path d="M155.8451 103.0018
L155.9310 102.9589
" />
<path d="M155.9310 102.9589
L155.9739 102.9159
" />
<path d="M156.7039 102.5295
L156.4033 102.5295
" />
<path d="M156.4033 103.0018
L156.4033 102.1001
" />
<path d="M156.4033 102.1001
L156.8327 102.1001
" />
<path d="M157.1762 102.6583
L157.8632 102.6583
" />
<path d="M157.5197 103.0018
L157.5197 102.3148
" />
</g></g>
<g style="fill:#000000; fill-opacity:0.0; 
stroke:#000000; stroke-width:0.0366; stroke-opacity:1; 
stroke-linecap:round; stroke-linejoin:round;">
<text x="152.5651" y="118.9553"
textLength="6.3034" font-size="1.3059" lengthAdjust="spacingAndGlyphs"
text-anchor="start" opacity="0">1uF/50V</text>
<g class="stroked-text"><desc>1uF/50V</desc>
<path d="M153.3354 118.9168
L152.7757 118.9168
" />
<path d="M153.0556 118.9168
L153.0556 117.9374
" />
<path d="M153.0556 117.9374
L152.9623 118.0773
" />
<path d="M152.9623 118.0773
L152.8690 118.1706
" />
<path d="M152.8690 118.1706
L152.7757 118.2172
" />
<path d="M154.1749 118.2638
L154.1749 118.9168
" />
<path d="M153.7551 118.2638
L153.7551 118.7769
" />
<path d="M153.7551 118.7769
L153.8018 118.8702
" />
<path d="M153.8018 118.8702
L153.8951 118.9168
" />
<path d="M153.8951 118.9168
L154.0350 118.9168
" />
<path d="M154.0350 118.9168
L154.1283 118.8702
" />
<path d="M154.1283 118.8702
L154.1749 118.8235
" />
<path d="M154.9678 118.4038
L154.6413 118.4038
" />
<path d="M154.6413 118.9168
L154.6413 117.9374
" />
<path d="M154.6413 117.9374
L155.1077 117.9374
" />
<path d="M156.1804 117.8907
L155.3409 119.1500
" />
<path d="M156.9733 117.9374
L156.5069 117.9374
" />
<path d="M156.5069 117.9374
L156.4602 118.4038
" />
<path d="M156.4602 118.4038
L156.5069 118.3571
" />
<path d="M156.5069 118.3571
L156.6001 118.3105
" />
<path d="M156.6001 118.3105
L156.8333 118.3105
" />
<path d="M156.8333 118.3105
L156.9266 118.3571
" />
<path d="M156.9266 118.3571
L156.9733 118.4038
" />
<path d="M156.9733 118.4038
L157.0199 118.4970
" />
<path d="M157.0199 118.4970
L157.0199 118.7302
" />
<path d="M157.0199 118.7302
L156.9733 118.8235
" />
<path d="M156.9733 118.8235
L156.9266 118.8702
" />
<path d="M156.9266 118.8702
L156.8333 118.9168
" />
<path d="M156.8333 118.9168
L156.6001 118.9168
" />
<path d="M156.6001 118.9168
L156.5069 118.8702
" />
<path d="M156.5069 118.8702
L156.4602 118.8235
" />
<path d="M157.6262 117.9374
L157.7195 117.9374
" />
<path d="M157.7195 117.9374
L157.8128 117.9840
" />
<path d="M157.8128 117.9840
L157.8594 118.0307
" />
<path d="M157.8594 118.0307
L157.9060 118.1239
" />
<path d="M157.9060 118.1239
L157.9527 118.3105
" />
<path d="M157.9527 118.3105
L157.9527 118.5437
" />
<path d="M157.9527 118.5437
L157.9060 118.7302
" />
<path d="M157.9060 118.7302
L157.8594 118.8235
" />
<path d="M157.8594 118.8235
L157.8128 118.8702
" />
<path d="M157.8128 118.8702
L157.7195 118.9168
" />
<path d="M157.7195 118.9168
L157.6262 118.9168
" />
<path d="M157.6262 118.9168
L157.5329 118.8702
" />
<path d="M157.5329 118.8702
L157.4863 118.8235
" />
<path d="M157.4863 118.8235
L157.4396 118.7302
" />
<path d="M157.4396 118.7302
L157.3930 118.5437
" />
<path d="M157.3930 118.5437
L157.3930 118.3105
" />
<path d="M157.3930 118.3105
L157.4396 118.1239
" />
<path d="M157.4396 118.1239
L157.4863 118.0307
" />
<path d="M157.4863 118.0307
L157.5329 117.9840
" />
<path d="M157.5329 117.9840
L157.6262 117.9374
" />
<path d="M158.2325 117.9374
L158.5590 118.9168
" />
<path d="M158.5590 118.9168
L158.8855 117.9374
" />
</g><g transform="rotate(-90.000000 133.2611 106.1466)">
<text x="133.2611" y="106.6363"
textLength="4.1580" font-size="1.3059" lengthAdjust="spacingAndGlyphs"
text-anchor="start" opacity="0">INPUT</text>
</g>
<g class="stroked-text"><desc>INPUT</desc>
<path d="M133.7123 105.8893
L132.7329 105.8893
" />
<path d="M133.7123 105.4229
L132.7329 105.4229
" />
<path d="M132.7329 105.4229
L133.7123 104.8633
" />
<path d="M133.7123 104.8633
L132.7329 104.8633
" />
<path d="M133.7123 104.3969
L132.7329 104.3969
" />
<path d="M132.7329 104.3969
L132.7329 104.0238
" />
<path d="M132.7329 104.0238
L132.7795 103.9305
" />
<path d="M132.7795 103.9305
L132.8262 103.8839
" />
<path d="M132.8262 103.8839
L132.9194 103.8372
" />
<path d="M132.9194 103.8372
L133.0593 103.8372
" />
<path d="M133.0593 103.8372
L133.1526 103.8839
" />
<path d="M133.1526 103.8839
L133.1993 103.9305
" />
<path d="M133.1993 103.9305
L133.2459 104.0238
" />
<path d="M133.2459 104.0238
L133.2459 104.3969
" />
<path d="M132.7329 103.4175
L133.5257 103.4175
" />
<path d="M133.5257 103.4175
L133.6190 103.3708
" />
<path d="M133.6190 103.3708
L133.6657 103.3242
" />
<path d="M133.6657 103.3242
L133.7123 103.2309
" />
<path d="M133.7123 103.2309
L133.7123 103.0443
" />
<path d="M133.7123 103.0443
L133.6657 102.9511
" />
<path d="M133.6657 102.9511
L133.6190 102.9044
" />
<path d="M133.6190 102.9044
L133.5257 102.8578
" />
<path d="M133.5257 102.8578
L132.7329 102.8578
" />
<path d="M132.7329 102.5313
L132.7329 101.9716
" />
<path d="M133.7123 102.2515
L132.7329 102.2515
" />
</g></g>
<g style="fill:#000000; fill-opacity:0.0; 
stroke:#000000; stroke-width:0.1016; stroke-opacity:1; 
stroke-linecap:round; stroke-linejoin:round;">
<path d="M142.7611 106.7816
L142.7611 106.0196
" />
<path d="M144.0811 106.7566
L144.0811 106.0196
" />
</g>
<g style="fill:#000000; fill-opacity:1.0000; 
stroke:#000000; stroke-width:0.0000; stroke-opacity:1; 
stroke-linecap:round; stroke-linejoin:round;">
<path style="fill:#000000; fill-opacity:1.0000; 
stroke:#000000; stroke-width:0.0000; stroke-opacity:1; 
stroke-linecap:round; stroke-linejoin:round;fill-rule:evenodd;"
d="M 144.1450,107.4928
142.6949,107.4928
142.6949,106.7427
144.1450,106.7427
Z" /> 
<path style="fill:#000000; fill-opacity:1.0000; 
stroke:#000000; stroke-width:0.0000; stroke-opacity:1; 
stroke-linecap:round; stroke-linejoin:round;fill-rule:evenodd;"
d="M 144.1450,106.0450
142.6949,106.0450
142.6949,105.2949
144.1450,105.2949
Z" /> 
</g>
<g style="fill:#000000; fill-opacity:1.0000; 
stroke:#000000; stroke-width:0.2032; stroke-opacity:1; 
stroke-linecap:round; stroke-linejoin:round;">
</g>
<g style="fill:#000000; fill-opacity:0.0; 
stroke:#000000; stroke-width:0.2032; stroke-opacity:1; 
stroke-linecap:round; stroke-linejoin:round;">
<path d="M139.6111 96.7486
L139.6111 98.0186
" />
</g>
<g style="fill:#000000; fill-opacity:1.0000; 
stroke:#000000; stroke-width:0.0000; stroke-opacity:1; 
stroke-linecap:round; stroke-linejoin:round;">
<path style="fill:#000000; fill-opacity:1.0000; 
stroke:#000000; stroke-width:0.0000; stroke-opacity:1; 
stroke-linecap:round; stroke-linejoin:round;fill-rule:evenodd;"
d="M 141.1351,95.0976
140.6271,95.0976
140.6271,94.5896
141.1351,94.5896
Z" /> 
<path style="fill:#000000; fill-opacity:1.0000; 
stroke:#000000; stroke-width:0.0000; stroke-opacity:1; 
stroke-linecap:round; stroke-linejoin:round;fill-rule:evenodd;"
d="M 141.1351,97.6376
140.6271,97.6376
140.6271,97.1296
141.1351,97.1296
Z" /> 
<path style="fill:#000000; fill-opacity:1.0000; 
stroke:#000000; stroke-width:0.0000; stroke-opacity:1; 
stroke-linecap:round; stroke-linejoin:round;fill-rule:evenodd;"
d="M 143.6751,95.0976
143.1671,95.0976
143.1671,94.5896
143.6751,94.5896
Z" /> 
<path style="fill:#000000; fill-opacity:1.0000; 
stroke:#000000; stroke-width:0.0000; stroke-opacity:1; 
stroke-linecap:round; stroke-linejoin:round;fill-rule:evenodd;"
d="M 143.6751,97.6376
143.1671,97.6376
143.1671,97.1296
143.6751,97.1296
Z" /> 
<path style="fill:#000000; fill-opacity:1.0000; 
stroke:#000000; stroke-width:0.0000; stroke-opacity:1; 
stroke-linecap:round; stroke-linejoin:round;fill-rule:evenodd;"
d="M 146.2151,95.0976
145.7071,95.0976
145.7071,94.5896
146.2151,94.5896
Z" /> 
<path style="fill:#000000; fill-opacity:1.0000; 
stroke:#000000; stroke-width:0.0000; stroke-opacity:1; 
stroke-linecap:round; stroke-linejoin:round;fill-rule:evenodd;"
d="M 146.2151,97.6376
145.7071,97.6376
145.7071,97.1296
146.2151,97.1296
Z" /> 
</g>
<g style="fill:#000000; fill-opacity:1.0000; 
stroke:#000000; stroke-width:0.1016; stroke-opacity:1; 
stroke-linecap:round; stroke-linejoin:round;">
</g>
<g style="fill:#000000; fill-opacity:0.0; 
stroke:#000000; stroke-width:0.1016; stroke-opacity:1; 
stroke-linecap:round; stroke-linejoin:round;">
<path d="M155.2321 101.5996
L154.4701 101.5996
" />
<path d="M155.2071 100.2796
L154.4701 100.2796
" />
</g>
<g style="fill:#000000; fill-opacity:1.0000; 
stroke:#000000; stroke-width:0.0000; stroke-opacity:1; 
stroke-linecap:round; stroke-linejoin:round;">
<path style="fill:#000000; fill-opacity:1.0000; 
stroke:#000000; stroke-width:0.0000; stroke-opacity:1; 
stroke-linecap:round; stroke-linejoin:round;fill-rule:evenodd;"
d="M 155.9433,101.6658
155.1932,101.6658
155.1932,100.2157
155.9433,100.2157
Z" /> 
<path style="fill:#000000; fill-opacity:1.0000; 
stroke:#000000; stroke-width:0.0000; stroke-opacity:1; 
stroke-linecap:round; stroke-linejoin:round;fill-rule:evenodd;"
d="M 154.4955,101.6658
153.7454,101.6658
153.7454,100.2157
154.4955,100.2157
Z" /> 
</g>
<g style="fill:#000000; fill-opacity:1.0000; 
stroke:#000000; stroke-width:0.6096; stroke-opacity:1; 
stroke-linecap:round; stroke-linejoin:round;">
</g>
<g style="fill:#000000; fill-opacity:0.0; 
stroke:#000000; stroke-width:0.6096; stroke-opacity:1; 
stroke-linecap:round; stroke-linejoin:round;">
<path d="M140.8811 100.6856
L140.8811 101.7016
" />
</g>
<g style="fill:#000000; fill-opacity:0.0; 
stroke:#000000; stroke-width:0.1524; stroke-opacity:1; 
stroke-linecap:round; stroke-linejoin:round;">
<path d="M141.5161 104.5936
L141.5161 105.4136
" />
<path d="M140.2461 104.5936
L140.2461 105.4136
" />
</g>
<g style="fill:#000000; fill-opacity:0.0; 
stroke:#000000; stroke-width:0.6096; stroke-opacity:1; 
stroke-linecap:round; stroke-linejoin:round;">
<path d="M140.8811 109.3216
L140.8811 108.3056
" />
</g>
<g style="fill:#000000; fill-opacity:0.0; 
stroke:#000000; stroke-width:0.2032; stroke-opacity:1; 
stroke-linecap:round; stroke-linejoin:round;">
<path d="M160.5661 111.3536
L161.8361 111.3536
" />
</g>
<g style="fill:#000000; fill-opacity:1.0000; 
stroke:#000000; stroke-width:0.0000; stroke-opacity:1; 
stroke-linecap:round; stroke-linejoin:round;">
<path style="fill:#000000; fill-opacity:1.0000; 
stroke:#000000; stroke-width:0.0000; stroke-opacity:1; 
stroke-linecap:round; stroke-linejoin:round;fill-rule:evenodd;"
d="M 161.4551,110.3376
160.9471,110.3376
160.9471,109.8296
161.4551,109.8296
Z" /> 
<path style="fill:#000000; fill-opacity:1.0000; 
stroke:#000000; stroke-width:0.0000; stroke-opacity:1; 
stroke-linecap:round; stroke-linejoin:round;fill-rule:evenodd;"
d="M 161.4551,107.7976
160.9471,107.7976
160.9471,107.2896
161.4551,107.2896
Z" /> 
<path style="fill:#000000; fill-opacity:1.0000; 
stroke:#000000; stroke-width:0.0000; stroke-opacity:1; 
stroke-linecap:round; stroke-linejoin:round;fill-rule:evenodd;"
d="M 161.4551,105.2576
160.9471,105.2576
160.9471,104.7496
161.4551,104.7496
Z" /> 
<path style="fill:#000000; fill-opacity:1.0000; 
stroke:#000000; stroke-width:0.0000; stroke-opacity:1; 
stroke-linecap:round; stroke-linejoin:round;fill-rule:evenodd;"
d="M 161.4551,102.7176
160.9471,102.7176
160.9471,102.2096
161.4551,102.2096
Z" /> 
<path style="fill:#000000; fill-opacity:1.0000; 
stroke:#000000; stroke-width:0.0000; stroke-opacity:1; 
stroke-linecap:round; stroke-linejoin:round;fill-rule:evenodd;"
d="M 161.4551,100.1776
160.9471,100.1776
160.9471,99.6696
161.4551,99.6696
Z" /> 
</g>
<g style="fill:#000000; fill-opacity:1.0000; 
stroke:#000000; stroke-width:0.2032; stroke-opacity:1; 
stroke-linecap:round; stroke-linejoin:round;">
</g>
<g style="fill:#000000; fill-opacity:0.0; 
stroke:#000000; stroke-width:0.2032; stroke-opacity:1; 
stroke-linecap:round; stroke-linejoin:round;">
<path d="M149.7711 96.7486
L149.7711 98.0186
" />
</g>
<g style="fill:#000000; fill-opacity:1.0000; 
stroke:#000000; stroke-width:0.0000; stroke-opacity:1; 
stroke-linecap:round; stroke-linejoin:round;">
<path style="fill:#000000; fill-opacity:1.0000; 
stroke:#000000; stroke-width:0.0000; stroke-opacity:1; 
stroke-linecap:round; stroke-linejoin:round;fill-rule:evenodd;"
d="M 151.2951,95.0976
150.7871,95.0976
150.7871,94.5896
151.2951,94.5896
Z" /> 
<path style="fill:#000000; fill-opacity:1.0000; 
stroke:#000000; stroke-width:0.0000; stroke-opacity:1; 
stroke-linecap:round; stroke-linejoin:round;fill-rule:evenodd;"
d="M 151.2951,97.6376
150.7871,97.6376
150.7871,97.1296
151.2951,97.1296
Z" /> 
<path style="fill:#000000; fill-opacity:1.0000; 
stroke:#000000; stroke-width:0.0000; stroke-opacity:1; 
stroke-linecap:round; stroke-linejoin:round;fill-rule:evenodd;"
d="M 153.8351,95.0976
153.3271,95.0976
153.3271,94.5896
153.8351,94.5896
Z" /> 
<path style="fill:#000000; fill-opacity:1.0000; 
stroke:#000000; stroke-width:0.0000; stroke-opacity:1; 
stroke-linecap:round; stroke-linejoin:round;fill-rule:evenodd;"
d="M 153.8351,97.6376
153.3271,97.6376
153.3271,97.1296
153.8351,97.1296
Z" /> 
<path style="fill:#000000; fill-opacity:1.0000; 
stroke:#000000; stroke-width:0.0000; stroke-opacity:1; 
stroke-linecap:round; stroke-linejoin:round;fill-rule:evenodd;"
d="M 156.3751,95.0976
155.8671,95.0976
155.8671,94.5896
156.3751,94.5896
Z" /> 
<path style="fill:#000000; fill-opacity:1.0000; 
stroke:#000000; stroke-width:0.0000; stroke-opacity:1; 
stroke-linecap:round; stroke-linejoin:round;fill-rule:evenodd;"
d="M 156.3751,97.6376
155.8671,97.6376
155.8671,97.1296
156.3751,97.1296
Z" /> 
</g>
<g style="fill:#000000; fill-opacity:1.0000; 
stroke:#000000; stroke-width:0.1016; stroke-opacity:1; 
stroke-linecap:round; stroke-linejoin:round;">
</g>
<g style="fill:#000000; fill-opacity:0.0; 
stroke:#000000; stroke-width:0.1016; stroke-opacity:1; 
stroke-linecap:round; stroke-linejoin:round;">
<path d="M144.0461 102.9136
L144.0461 102.0136
" />
<path d="M142.7961 102.9136
L142.7961 101.9886
" />
</g>
<g style="fill:#000000; fill-opacity:1.0000; 
stroke:#000000; stroke-width:0.0000; stroke-opacity:1; 
stroke-linecap:round; stroke-linejoin:round;">
<path style="fill:#000000; fill-opacity:1.0000; 
stroke:#000000; stroke-width:0.0000; stroke-opacity:1; 
stroke-linecap:round; stroke-linejoin:round;fill-rule:evenodd;"
d="M 144.0961,103.5136
142.7461,103.5136
142.7461,102.9136
144.0961,102.9136
Z" /> 
<path style="fill:#000000; fill-opacity:1.0000; 
stroke:#000000; stroke-width:0.0000; stroke-opacity:1; 
stroke-linecap:round; stroke-linejoin:round;fill-rule:evenodd;"
d="M 144.0961,102.0136
142.7461,102.0136
142.7461,101.4136
144.0961,101.4136
Z" /> 
</g>
<g style="fill:#000000; fill-opacity:1.0000; 
stroke:#000000; stroke-width:0.1524; stroke-opacity:1; 
stroke-linecap:round; stroke-linejoin:round;">
</g>
<g style="fill:#000000; fill-opacity:0.0; 
stroke:#000000; stroke-width:0.1524; stroke-opacity:1; 
stroke-linecap:round; stroke-linejoin:round;">
<path d="M156.5021 105.0036
L155.6131 105.0036
" />
<path d="M155.6131 106.2736
L155.6131 105.0036
" />
<path d="M155.6131 105.0036
L155.6131 103.7336
" />
<path d="M155.6131 103.7336
L155.1051 103.7336
" />
<path d="M155.1051 106.2736
L155.6131 106.2736
" />
<path d="M155.1051 103.7336
L155.1051 106.2736
" />
<path d="M154.2161 105.0036
L153.2001 105.0036
" />
</g>
<g style="fill:#000000; fill-opacity:1.0000; 
stroke:#000000; stroke-width:0.0000; stroke-opacity:1; 
stroke-linecap:round; stroke-linejoin:round;">
<path style="fill:#000000; fill-opacity:1.0000; 
stroke:#000000; stroke-width:0.0000; stroke-opacity:1; 
stroke-linecap:round; stroke-linejoin:round;fill-rule:evenodd;"
d="M 154.5971,106.2736
154.0891,106.2736
154.0891,103.7336
154.5971,103.7336
Z" /> 
</g>
<g style="fill:#000000; fill-opacity:1.0000; 
stroke:#000000; stroke-width:0.2032; stroke-opacity:1; 
stroke-linecap:round; stroke-linejoin:round;">
</g>
<g style="fill:#000000; fill-opacity:0.0; 
stroke:#000000; stroke-width:0.2032; stroke-opacity:1; 
stroke-linecap:round; stroke-linejoin:round;">
<path d="M139.6111 114.5286
L139.6111 115.7986
" />
</g>
<g style="fill:#000000; fill-opacity:1.0000; 
stroke:#000000; stroke-width:0.0000; stroke-opacity:1; 
stroke-linecap:round; stroke-linejoin:round;">
<path style="fill:#000000; fill-opacity:1.0000; 
stroke:#000000; stroke-width:0.0000; stroke-opacity:1; 
stroke-linecap:round; stroke-linejoin:round;fill-rule:evenodd;"
d="M 141.1351,112.8776
140.6271,112.8776
140.6271,112.3696
141.1351,112.3696
Z" /> 
<path style="fill:#000000; fill-opacity:1.0000; 
stroke:#000000; stroke-width:0.0000; stroke-opacity:1; 
stroke-linecap:round; stroke-linejoin:round;fill-rule:evenodd;"
d="M 141.1351,115.4176
140.6271,115.4176
140.6271,114.9096
141.1351,114.9096
Z" /> 
<path style="fill:#000000; fill-opacity:1.0000; 
stroke:#000000; stroke-width:0.0000; stroke-opacity:1; 
stroke-linecap:round; stroke-linejoin:round;fill-rule:evenodd;"
d="M 143.6751,112.8776
143.1671,112.8776
143.1671,112.3696
143.6751,112.3696
Z" /> 
<path style="fill:#000000; fill-opacity:1.0000; 
stroke:#000000; stroke-width:0.0000; stroke-opacity:1; 
stroke-linecap:round; stroke-linejoin:round;fill-rule:evenodd;"
d="M 143.6751,115.4176
143.1671,115.4176
143.1671,114.9096
143.6751,114.9096
Z" /> 
<path style="fill:#000000; fill-opacity:1.0000; 
stroke:#000000; stroke-width:0.0000; stroke-opacity:1; 
stroke-linecap:round; stroke-linejoin:round;fill-rule:evenodd;"
d="M 146.2151,112.8776
145.7071,112.8776
145.7071,112.3696
146.2151,112.3696
Z" /> 
<path style="fill:#000000; fill-opacity:1.0000; 
stroke:#000000; stroke-width:0.0000; stroke-opacity:1; 
stroke-linecap:round; stroke-linejoin:round;fill-rule:evenodd;"
d="M 146.2151,115.4176
145.7071,115.4176
145.7071,114.9096
146.2151,114.9096
Z" /> 
</g>
<g style="fill:#000000; fill-opacity:1.0000; 
stroke:#000000; stroke-width:0.2032; stroke-opacity:1; 
stroke-linecap:round; stroke-linejoin:round;">
</g>
<g style="fill:#000000; fill-opacity:0.0; 
stroke:#000000; stroke-width:0.2032; stroke-opacity:1; 
stroke-linecap:round; stroke-linejoin:round;">
<path d="M149.7711 114.5286
L149.7711 115.7986
" />
</g>
<g style="fill:#000000; fill-opacity:1.0000; 
stroke:#000000; stroke-width:0.0000; stroke-opacity:1; 
stroke-linecap:round; stroke-linejoin:round;">
<path style="fill:#000000; fill-opacity:1.0000; 
stroke:#000000; stroke-width:0.0000; stroke-opacity:1; 
stroke-linecap:round; stroke-linejoin:round;fill-rule:evenodd;"
d="M 151.2951,112.8776
150.7871,112.8776
150.7871,112.3696
151.2951,112.3696
Z" /> 
<path style="fill:#000000; fill-opacity:1.0000; 
stroke:#000000; stroke-width:0.0000; stroke-opacity:1; 
stroke-linecap:round; stroke-linejoin:round;fill-rule:evenodd;"
d="M 151.2951,115.4176
150.7871,115.4176
150.7871,114.9096
151.2951,114.9096
Z" /> 
<path style="fill:#000000; fill-opacity:1.0000; 
stroke:#000000; stroke-width:0.0000; stroke-opacity:1; 
stroke-linecap:round; stroke-linejoin:round;fill-rule:evenodd;"
d="M 153.8351,112.8776
153.3271,112.8776
153.3271,112.3696
153.8351,112.3696
Z" /> 
<path style="fill:#000000; fill-opacity:1.0000; 
stroke:#000000; stroke-width:0.0000; stroke-opacity:1; 
stroke-linecap:round; stroke-linejoin:round;fill-rule:evenodd;"
d="M 153.8351,115.4176
153.3271,115.4176
153.3271,114.9096
153.8351,114.9096
Z" /> 
<path style="fill:#000000; fill-opacity:1.0000; 
stroke:#000000; stroke-width:0.0000; stroke-opacity:1; 
stroke-linecap:round; stroke-linejoin:round;fill-rule:evenodd;"
d="M 156.3751,112.8776
155.8671,112.8776
155.8671,112.3696
156.3751,112.3696
Z" /> 
<path style="fill:#000000; fill-opacity:1.0000; 
stroke:#000000; stroke-width:0.0000; stroke-opacity:1; 
stroke-linecap:round; stroke-linejoin:round;fill-rule:evenodd;"
d="M 156.3751,115.4176
155.8671,115.4176
155.8671,114.9096
156.3751,114.9096
Z" /> 
</g>
<g style="fill:#000000; fill-opacity:1.0000; 
stroke:#000000; stroke-width:0.1016; stroke-opacity:1; 
stroke-linecap:round; stroke-linejoin:round;">
</g>
<g style="fill:#000000; fill-opacity:0.0; 
stroke:#000000; stroke-width:0.1016; stroke-opacity:1; 
stroke-linecap:round; stroke-linejoin:round;">
<path d="M155.2321 109.7276
L154.4701 109.7276
" />
<path d="M155.2071 108.4076
L154.4701 108.4076
" />
</g>
<g style="fill:#000000; fill-opacity:1.0000; 
stroke:#000000; stroke-width:0.0000; stroke-opacity:1; 
stroke-linecap:round; stroke-linejoin:round;">
<path style="fill:#000000; fill-opacity:1.0000; 
stroke:#000000; stroke-width:0.0000; stroke-opacity:1; 
stroke-linecap:round; stroke-linejoin:round;fill-rule:evenodd;"
d="M 155.9433,109.7938
155.1932,109.7938
155.1932,108.3437
155.9433,108.3437
Z" /> 
<path style="fill:#000000; fill-opacity:1.0000; 
stroke:#000000; stroke-width:0.0000; stroke-opacity:1; 
stroke-linecap:round; stroke-linejoin:round;fill-rule:evenodd;"
d="M 154.4955,109.7938
153.7454,109.7938
153.7454,108.3437
154.4955,108.3437
Z" /> 
</g>
<g style="fill:#000000; fill-opacity:1.0000; 
stroke:#000000; stroke-width:0.2032; stroke-opacity:1; 
stroke-linecap:round; stroke-linejoin:round;">
</g>
<g style="fill:#000000; fill-opacity:0.0; 
stroke:#000000; stroke-width:0.2032; stroke-opacity:1; 
stroke-linecap:round; stroke-linejoin:round;">
<path d="M135.1661 111.3536
L136.4361 111.3536
" />
</g>
<g style="fill:#000000; fill-opacity:1.0000; 
stroke:#000000; stroke-width:0.0000; stroke-opacity:1; 
stroke-linecap:round; stroke-linejoin:round;">
<path style="fill:#000000; fill-opacity:1.0000; 
stroke:#000000; stroke-width:0.0000; stroke-opacity:1; 
stroke-linecap:round; stroke-linejoin:round;fill-rule:evenodd;"
d="M 136.0551,110.3376
135.5471,110.3376
135.5471,109.8296
136.0551,109.8296
Z" /> 
<path style="fill:#000000; fill-opacity:1.0000; 
stroke:#000000; stroke-width:0.0000; stroke-opacity:1; 
stroke-linecap:round; stroke-linejoin:round;fill-rule:evenodd;"
d="M 136.0551,107.7976
135.5471,107.7976
135.5471,107.2896
136.0551,107.2896
Z" /> 
<path style="fill:#000000; fill-opacity:1.0000; 
stroke:#000000; stroke-width:0.0000; stroke-opacity:1; 
stroke-linecap:round; stroke-linejoin:round;fill-rule:evenodd;"
d="M 136.0551,105.2576
135.5471,105.2576
135.5471,104.7496
136.0551,104.7496
Z" /> 
<path style="fill:#000000; fill-opacity:1.0000; 
stroke:#000000; stroke-width:0.0000; stroke-opacity:1; 
stroke-linecap:round; stroke-linejoin:round;fill-rule:evenodd;"
d="M 136.0551,102.7176
135.5471,102.7176
135.5471,102.2096
136.0551,102.2096
Z" /> 
<path style="fill:#000000; fill-opacity:1.0000; 
stroke:#000000; stroke-width:0.0000; stroke-opacity:1; 
stroke-linecap:round; stroke-linejoin:round;fill-rule:evenodd;"
d="M 136.0551,100.1776
135.5471,100.1776
135.5471,99.6696
136.0551,99.6696
Z" /> 
<path style="fill:#000000; fill-opacity:1.0000; 
stroke:#000000; stroke-width:0.0000; stroke-opacity:1; 
stroke-linecap:round; stroke-linejoin:round;fill-rule:evenodd;"
d="M 145.5991,108.0036
145.2991,108.0036
145.2991,107.2536
145.5991,107.2536
Z" /> 
<path style="fill:#000000; fill-opacity:1.0000; 
stroke:#000000; stroke-width:0.0000; stroke-opacity:1; 
stroke-linecap:round; stroke-linejoin:round;fill-rule:evenodd;"
d="M 145.5991,102.7536
145.2991,102.7536
145.2991,102.0036
145.5991,102.0036
Z" /> 
<path style="fill:#000000; fill-opacity:1.0000; 
stroke:#000000; stroke-width:0.0000; stroke-opacity:1; 
stroke-linecap:round; stroke-linejoin:round;fill-rule:evenodd;"
d="M 146.2491,108.0036
145.9491,108.0036
145.9491,107.2536
146.2491,107.2536
Z" /> 
<path style="fill:#000000; fill-opacity:1.0000; 
stroke:#000000; stroke-width:0.0000; stroke-opacity:1; 
stroke-linecap:round; stroke-linejoin:round;fill-rule:evenodd;"
d="M 146.2491,102.7536
145.9491,102.7536
145.9491,102.0036
146.2491,102.0036
Z" /> 
<path style="fill:#000000; fill-opacity:1.0000; 
stroke:#000000; stroke-width:0.0000; stroke-opacity:1; 
stroke-linecap:round; stroke-linejoin:round;fill-rule:evenodd;"
d="M 146.8991,108.0036
146.5991,108.0036
146.5991,107.2536
146.8991,107.2536
Z" /> 
<path style="fill:#000000; fill-opacity:1.0000; 
stroke:#000000; stroke-width:0.0000; stroke-opacity:1; 
stroke-linecap:round; stroke-linejoin:round;fill-rule:evenodd;"
d="M 146.8991,102.7536
146.5991,102.7536
146.5991,102.0036
146.8991,102.0036
Z" /> 
<path style="fill:#000000; fill-opacity:1.0000; 
stroke:#000000; stroke-width:0.0000; stroke-opacity:1; 
stroke-linecap:round; stroke-linejoin:round;fill-rule:evenodd;"
d="M 147.5491,108.0036
147.2491,108.0036
147.2491,107.2536
147.5491,107.2536
Z" /> 
<path style="fill:#000000; fill-opacity:1.0000; 
stroke:#000000; stroke-width:0.0000; stroke-opacity:1; 
stroke-linecap:round; stroke-linejoin:round;fill-rule:evenodd;"
d="M 147.5491,102.7536
147.2491,102.7536
147.2491,102.0036
147.5491,102.0036
Z" /> 
<path style="fill:#000000; fill-opacity:1.0000; 
stroke:#000000; stroke-width:0.0000; stroke-opacity:1; 
stroke-linecap:round; stroke-linejoin:round;fill-rule:evenodd;"
d="M 148.1991,108.0036
147.8991,108.0036
147.8991,107.2536
148.1991,107.2536
Z" /> 
<path style="fill:#000000; fill-opacity:1.0000; 
stroke:#000000; stroke-width:0.0000; stroke-opacity:1; 
stroke-linecap:round; stroke-linejoin:round;fill-rule:evenodd;"
d="M 148.1991,102.7536
147.8991,102.7536
147.8991,102.0036
148.1991,102.0036
Z" /> 
<path style="fill:#000000; fill-opacity:1.0000; 
stroke:#000000; stroke-width:0.0000; stroke-opacity:1; 
stroke-linecap:round; stroke-linejoin:round;fill-rule:evenodd;"
d="M 148.8491,108.0036
148.5491,108.0036
148.5491,107.2536
148.8491,107.2536
Z" /> 
<path style="fill:#000000; fill-opacity:1.0000; 
stroke:#000000; stroke-width:0.0000; stroke-opacity:1; 
stroke-linecap:round; stroke-linejoin:round;fill-rule:evenodd;"
d="M 148.8491,102.7536
148.5491,102.7536
148.5491,102.0036
148.8491,102.0036
Z" /> 
<path style="fill:#000000; fill-opacity:1.0000; 
stroke:#000000; stroke-width:0.0000; stroke-opacity:1; 
stroke-linecap:round; stroke-linejoin:round;fill-rule:evenodd;"
d="M 149.4991,108.0036
149.1991,108.0036
149.1991,107.2536
149.4991,107.2536
Z" /> 
<path style="fill:#000000; fill-opacity:1.0000; 
stroke:#000000; stroke-width:0.0000; stroke-opacity:1; 
stroke-linecap:round; stroke-linejoin:round;fill-rule:evenodd;"
d="M 149.4991,102.7536
149.1991,102.7536
149.1991,102.0036
149.4991,102.0036
Z" /> 
<path style="fill:#000000; fill-opacity:1.0000; 
stroke:#000000; stroke-width:0.0000; stroke-opacity:1; 
stroke-linecap:round; stroke-linejoin:round;fill-rule:evenodd;"
d="M 150.1491,108.0036
149.8491,108.0036
149.8491,107.2536
150.1491,107.2536
Z" /> 
<path style="fill:#000000; fill-opacity:1.0000; 
stroke:#000000; stroke-width:0.0000; stroke-opacity:1; 
stroke-linecap:round; stroke-linejoin:round;fill-rule:evenodd;"
d="M 150.1491,102.7536
149.8491,102.7536
149.8491,102.0036
150.1491,102.0036
Z" /> 
<path style="fill:#000000; fill-opacity:1.0000; 
stroke:#000000; stroke-width:0.0000; stroke-opacity:1; 
stroke-linecap:round; stroke-linejoin:round;fill-rule:evenodd;"
d="M 150.7991,108.0036
150.4991,108.0036
150.4991,107.2536
150.7991,107.2536
Z" /> 
<path style="fill:#000000; fill-opacity:1.0000; 
stroke:#000000; stroke-width:0.0000; stroke-opacity:1; 
stroke-linecap:round; stroke-linejoin:round;fill-rule:evenodd;"
d="M 150.7991,102.7536
150.4991,102.7536
150.4991,102.0036
150.7991,102.0036
Z" /> 
<path style="fill:#000000; fill-opacity:1.0000; 
stroke:#000000; stroke-width:0.0000; stroke-opacity:1; 
stroke-linecap:round; stroke-linejoin:round;fill-rule:evenodd;"
d="M 151.4491,108.0036
151.1491,108.0036
151.1491,107.2536
151.4491,107.2536
Z" /> 
<path style="fill:#000000; fill-opacity:1.0000; 
stroke:#000000; stroke-width:0.0000; stroke-opacity:1; 
stroke-linecap:round; stroke-linejoin:round;fill-rule:evenodd;"
d="M 151.4491,102.7536
151.1491,102.7536
151.1491,102.0036
151.4491,102.0036
Z" /> 
<g >
</g>
<g >
</g>
<g >
</g>
<g >
</g>
<g >
</g>
<g >
</g>
<g >
</g>
<g >
</g>
<g >
</g>
<g >
</g>
<g >
</g>
<g >
</g>
<g >
</g>
<g >
</g>
<g >
</g>
<g >
</g>
<g >
</g>
<g >
</g>
<g >
</g>
<g >
</g>
<g >
</g>
<g >
</g>
<g >
</g>
<g >
</g>
<g >
</g>
</g> 
</svg>
