%TF.GenerationSoftware,KiCad,Pcbnew,7.0.6-7.0.6~ubuntu22.04.1*%
%TF.CreationDate,2023-08-04T04:44:47+01:00*%
%TF.ProjectId,working,776f726b-696e-4672-9e6b-696361645f70,rev?*%
%TF.SameCoordinates,Original*%
%TF.FileFunction,Copper,L2,Bot*%
%TF.FilePolarity,Positive*%
%FSLAX46Y46*%
G04 Gerber Fmt 4.6, Leading zero omitted, Abs format (unit mm)*
G04 Created by KiCad (PCBNEW 7.0.6-7.0.6~ubuntu22.04.1) date 2023-08-04 04:44:47*
%MOMM*%
%LPD*%
G01*
G04 APERTURE LIST*
%TA.AperFunction,ComponentPad*%
%ADD10C,3.200000*%
%TD*%
%TA.AperFunction,ComponentPad*%
%ADD11C,1.930400*%
%TD*%
%TA.AperFunction,ViaPad*%
%ADD12C,0.906400*%
%TD*%
%TA.AperFunction,Conductor*%
%ADD13C,0.203200*%
%TD*%
G04 APERTURE END LIST*
D10*
%TO.P,U$6,P$1*%
%TO.N,N/C*%
X156121100Y-97383600D03*
%TD*%
D11*
%TO.P,JP1,1*%
%TO.N,VCC*%
X140881100Y-112623600D03*
%TO.P,JP1,2*%
%TO.N,GND*%
X143421100Y-112623600D03*
%TO.P,JP1,3*%
%TO.N,SDA*%
X145961100Y-112623600D03*
%TO.P,JP1,4*%
%TO.N,SCL*%
X148501100Y-112623600D03*
%TO.P,JP1,5*%
%TO.N,DRDY*%
X151041100Y-112623600D03*
%TO.P,JP1,6*%
%TO.N,ADDR1*%
X153581100Y-112623600D03*
%TO.P,JP1,7*%
%TO.N,ADDR0*%
X156121100Y-112623600D03*
%TD*%
D10*
%TO.P,U$7,P$1*%
%TO.N,N/C*%
X140881100Y-97383600D03*
%TD*%
D12*
%TO.N,VCC*%
X146977100Y-106781600D03*
X143929100Y-107035600D03*
%TO.N,SCL*%
X146977100Y-105003600D03*
X143929100Y-105003600D03*
%TO.N,SDA*%
X143929100Y-102971600D03*
X146977100Y-103225600D03*
%TO.N,DRDY*%
X143929100Y-100939600D03*
X151295100Y-99923600D03*
X148501100Y-103225600D03*
%TO.N,ADDR0*%
X150025100Y-103225600D03*
X156121100Y-100939600D03*
%TO.N,ADDR1*%
X156375100Y-107035600D03*
X150025100Y-105003600D03*
%TO.N,GND*%
X148501100Y-106781600D03*
X150025100Y-106781600D03*
X150279100Y-110083600D03*
%TD*%
D13*
%TO.N,VCC*%
X144183100Y-106781600D02*
X143929100Y-107035600D01*
X146977100Y-106781600D02*
X144183100Y-106781600D01*
%TO.N,SCL*%
X142913100Y-105257600D02*
X142913100Y-108813600D01*
X146977100Y-105003600D02*
X143929100Y-105003600D01*
X145199100Y-111099600D02*
X146977100Y-111099600D01*
X143929100Y-105003600D02*
X143167100Y-105003600D01*
X146977100Y-111099600D02*
X148501100Y-112623600D01*
X143167100Y-105003600D02*
X142913100Y-105257600D01*
X142913100Y-108813600D02*
X145199100Y-111099600D01*
%TO.N,SDA*%
X144183100Y-103225600D02*
X143929100Y-102971600D01*
X142405100Y-109067600D02*
X145961100Y-112623600D01*
X142405100Y-103479600D02*
X142405100Y-109067600D01*
X142913100Y-102971600D02*
X142405100Y-103479600D01*
X146977100Y-103225600D02*
X144183100Y-103225600D01*
X143929100Y-102971600D02*
X142913100Y-102971600D01*
%TO.N,DRDY*%
X157899100Y-100431600D02*
X157899100Y-110337600D01*
X157391100Y-99923600D02*
X157899100Y-100431600D01*
X149517100Y-99923600D02*
X151295100Y-99923600D01*
X143929100Y-100939600D02*
X148501100Y-100939600D01*
X151295100Y-99923600D02*
X157391100Y-99923600D01*
X157391100Y-110845600D02*
X151549100Y-110845600D01*
X148501100Y-103225600D02*
X148501100Y-100939600D01*
X151041100Y-111353600D02*
X151041100Y-112623600D01*
X157899100Y-110337600D02*
X157391100Y-110845600D01*
X148501100Y-100939600D02*
X149517100Y-99923600D01*
X151549100Y-110845600D02*
X151041100Y-111353600D01*
%TO.N,ADDR0*%
X156309100Y-102971600D02*
X156309100Y-101127600D01*
X156309100Y-101127600D02*
X156121100Y-100939600D01*
X156055100Y-103225600D02*
X156309100Y-102971600D01*
X150025100Y-103225600D02*
X156055100Y-103225600D01*
%TO.N,ADDR1*%
X150025100Y-105003600D02*
X155867100Y-105003600D01*
X156375100Y-105511600D02*
X156375100Y-107035600D01*
X155867100Y-105003600D02*
X156375100Y-105511600D01*
%TO.N,GND*%
X148501100Y-106781600D02*
X148501100Y-107035600D01*
%TD*%
%TA.AperFunction,Conductor*%
%TO.N,GND*%
G36*
X148102482Y-102630586D02*
G01*
X148117068Y-102665800D01*
X148102482Y-102701014D01*
X148100310Y-102703058D01*
X148005792Y-102786795D01*
X147915170Y-102918084D01*
X147858604Y-103067236D01*
X147858603Y-103067241D01*
X147839375Y-103225600D01*
X147858603Y-103383958D01*
X147858604Y-103383963D01*
X147915170Y-103533115D01*
X147915172Y-103533119D01*
X148005792Y-103664405D01*
X148125197Y-103770189D01*
X148266449Y-103844324D01*
X148421338Y-103882500D01*
X148580862Y-103882500D01*
X148735751Y-103844324D01*
X148877003Y-103770189D01*
X148996408Y-103664405D01*
X149087028Y-103533119D01*
X149143596Y-103383961D01*
X149162825Y-103225600D01*
X149143596Y-103067239D01*
X149087028Y-102918081D01*
X148996408Y-102786795D01*
X148901907Y-102703074D01*
X148885223Y-102668807D01*
X148897656Y-102632776D01*
X148931925Y-102616091D01*
X148934932Y-102616000D01*
X149591268Y-102616000D01*
X149626482Y-102630586D01*
X149641068Y-102665800D01*
X149626482Y-102701014D01*
X149624310Y-102703058D01*
X149529792Y-102786794D01*
X149529792Y-102786795D01*
X149439170Y-102918084D01*
X149382604Y-103067236D01*
X149382603Y-103067241D01*
X149363375Y-103225600D01*
X149382603Y-103383958D01*
X149382604Y-103383963D01*
X149439170Y-103533115D01*
X149439172Y-103533119D01*
X149529792Y-103664405D01*
X149649197Y-103770189D01*
X149790449Y-103844324D01*
X149945338Y-103882500D01*
X150104862Y-103882500D01*
X150259751Y-103844324D01*
X150401003Y-103770189D01*
X150520408Y-103664405D01*
X150597712Y-103552409D01*
X150629720Y-103531716D01*
X150638697Y-103530900D01*
X150838900Y-103530900D01*
X150874114Y-103545486D01*
X150888700Y-103580700D01*
X150888700Y-104648500D01*
X150874114Y-104683714D01*
X150838900Y-104698300D01*
X150638697Y-104698300D01*
X150603483Y-104683714D01*
X150597712Y-104676790D01*
X150578185Y-104648500D01*
X150520408Y-104564795D01*
X150401003Y-104459011D01*
X150401001Y-104459010D01*
X150401000Y-104459009D01*
X150259752Y-104384876D01*
X150104862Y-104346700D01*
X149945338Y-104346700D01*
X149790448Y-104384876D01*
X149790446Y-104384876D01*
X149649200Y-104459009D01*
X149649199Y-104459009D01*
X149529792Y-104564795D01*
X149439170Y-104696084D01*
X149382604Y-104845236D01*
X149382603Y-104845241D01*
X149363375Y-105003600D01*
X149382603Y-105161958D01*
X149382604Y-105161963D01*
X149439170Y-105311115D01*
X149439172Y-105311119D01*
X149529792Y-105442405D01*
X149649197Y-105548189D01*
X149790449Y-105622324D01*
X149945338Y-105660500D01*
X150104862Y-105660500D01*
X150259751Y-105622324D01*
X150401003Y-105548189D01*
X150520408Y-105442405D01*
X150597712Y-105330409D01*
X150629720Y-105309716D01*
X150638697Y-105308900D01*
X150838900Y-105308900D01*
X150874114Y-105323486D01*
X150888700Y-105358700D01*
X150888700Y-110897400D01*
X150874114Y-110932614D01*
X150838900Y-110947200D01*
X149719300Y-110947200D01*
X149684086Y-110932614D01*
X149669500Y-110897400D01*
X149669500Y-107391200D01*
X147410932Y-107391200D01*
X147375718Y-107376614D01*
X147361132Y-107341400D01*
X147375718Y-107306186D01*
X147377889Y-107304141D01*
X147472408Y-107220405D01*
X147563028Y-107089119D01*
X147619596Y-106939961D01*
X147638825Y-106781600D01*
X147619596Y-106623239D01*
X147563028Y-106474081D01*
X147472408Y-106342795D01*
X147353003Y-106237011D01*
X147353001Y-106237010D01*
X147353000Y-106237009D01*
X147211752Y-106162876D01*
X147056862Y-106124700D01*
X146897338Y-106124700D01*
X146742448Y-106162876D01*
X146742446Y-106162876D01*
X146601200Y-106237009D01*
X146601199Y-106237009D01*
X146481792Y-106342795D01*
X146404488Y-106454790D01*
X146372480Y-106475484D01*
X146363503Y-106476300D01*
X146163300Y-106476300D01*
X146128086Y-106461714D01*
X146113500Y-106426500D01*
X146113500Y-105358700D01*
X146128086Y-105323486D01*
X146163300Y-105308900D01*
X146363503Y-105308900D01*
X146398717Y-105323486D01*
X146404485Y-105330407D01*
X146481792Y-105442405D01*
X146601197Y-105548189D01*
X146742449Y-105622324D01*
X146897338Y-105660500D01*
X147056862Y-105660500D01*
X147211751Y-105622324D01*
X147353003Y-105548189D01*
X147472408Y-105442405D01*
X147563028Y-105311119D01*
X147619596Y-105161961D01*
X147638825Y-105003600D01*
X147619596Y-104845239D01*
X147563028Y-104696081D01*
X147472408Y-104564795D01*
X147353003Y-104459011D01*
X147353001Y-104459010D01*
X147353000Y-104459009D01*
X147211752Y-104384876D01*
X147056862Y-104346700D01*
X146897338Y-104346700D01*
X146742448Y-104384876D01*
X146742446Y-104384876D01*
X146601200Y-104459009D01*
X146601199Y-104459009D01*
X146481792Y-104564795D01*
X146404488Y-104676790D01*
X146372480Y-104697484D01*
X146363503Y-104698300D01*
X146163300Y-104698300D01*
X146128086Y-104683714D01*
X146113500Y-104648500D01*
X146113500Y-103580700D01*
X146128086Y-103545486D01*
X146163300Y-103530900D01*
X146363503Y-103530900D01*
X146398717Y-103545486D01*
X146404485Y-103552407D01*
X146481792Y-103664405D01*
X146601197Y-103770189D01*
X146742449Y-103844324D01*
X146897338Y-103882500D01*
X147056862Y-103882500D01*
X147211751Y-103844324D01*
X147353003Y-103770189D01*
X147472408Y-103664405D01*
X147563028Y-103533119D01*
X147619596Y-103383961D01*
X147638825Y-103225600D01*
X147619596Y-103067239D01*
X147563028Y-102918081D01*
X147472408Y-102786795D01*
X147377907Y-102703074D01*
X147361223Y-102668807D01*
X147373656Y-102632776D01*
X147407925Y-102616091D01*
X147410932Y-102616000D01*
X148067268Y-102616000D01*
X148102482Y-102630586D01*
G37*
%TD.AperFunction*%
%TD*%
M02*
