%TF.GenerationSoftware,KiCad,Pcbnew,7.0.6-7.0.6~ubuntu22.04.1*%
%TF.CreationDate,2023-08-04T06:00:38+01:00*%
%TF.ProjectId,working,776f726b-696e-4672-9e6b-696361645f70,rev?*%
%TF.SameCoordinates,Original*%
%TF.FileFunction,Legend,Bot*%
%TF.FilePolarity,Positive*%
%FSLAX46Y46*%
G04 Gerber Fmt 4.6, Leading zero omitted, Abs format (unit mm)*
G04 Created by KiCad (PCBNEW 7.0.6-7.0.6~ubuntu22.04.1) date 2023-08-04 06:00:38*
%MOMM*%
%LPD*%
G01*
G04 APERTURE LIST*
%ADD10C,0.152400*%
%ADD11C,0.127000*%
G04 APERTURE END LIST*
D10*
%TO.C,X25*%
X110401100Y-151358600D02*
X110401100Y-134848600D01*
X109131100Y-133578600D02*
X92621100Y-133578600D01*
D11*
X107800100Y-150912600D02*
X103576100Y-150912600D01*
X107800100Y-149634600D02*
X107800100Y-150912600D01*
X107800100Y-135348600D02*
X107800100Y-149634600D01*
X107794100Y-136293600D02*
X107794100Y-136296600D01*
X106111100Y-149985600D02*
X106111100Y-149634600D01*
X106111100Y-149634600D02*
X107800100Y-149634600D01*
X105562100Y-148611600D02*
X103540100Y-148611600D01*
X105559100Y-149463600D02*
X105559100Y-146655600D01*
X105559100Y-146655600D02*
X96181100Y-146655600D01*
X103588100Y-135348600D02*
X107800100Y-135348600D01*
X103579100Y-149985600D02*
X106111100Y-149985600D01*
X103579100Y-149985600D02*
X103579100Y-150099600D01*
X103579100Y-136293600D02*
X107794100Y-136293600D01*
X103579100Y-136293600D02*
X103579100Y-135348600D01*
X103576100Y-150912600D02*
X103576100Y-150012600D01*
X103576100Y-150012600D02*
X98188100Y-150012600D01*
X103540100Y-148611600D02*
X103540100Y-146661600D01*
X102781100Y-150411600D02*
X103567100Y-150411600D01*
X102694100Y-150528600D02*
X102781100Y-150411600D01*
X102694100Y-150528600D02*
X101935100Y-150528600D01*
X102476100Y-149202600D02*
X102476100Y-147302600D01*
X102476100Y-147302600D02*
X102476100Y-146402600D01*
X102476100Y-147302600D02*
X101576100Y-146402600D01*
X102476100Y-146402600D02*
X101576100Y-146402600D01*
X101935100Y-150528600D02*
X101935100Y-150525600D01*
X101929100Y-150864600D02*
X99820100Y-150864600D01*
X101929100Y-150720600D02*
X101929100Y-150864600D01*
X101929100Y-150702600D02*
X101929100Y-150015600D01*
X101929100Y-150015600D02*
X101926100Y-150015600D01*
X101676100Y-145702600D02*
X102476100Y-146402600D01*
X101576100Y-146402600D02*
X101276100Y-146102600D01*
X101576100Y-146402600D02*
X99276100Y-146402600D01*
X101276100Y-146102600D02*
X101676100Y-145702600D01*
X99820100Y-150864600D02*
X99820100Y-150531600D01*
X99820100Y-150531600D02*
X99820100Y-150453600D01*
X99820100Y-150531600D02*
X99058100Y-150531600D01*
X99820100Y-150453600D02*
X101917100Y-150453600D01*
X99820100Y-150453600D02*
X99820100Y-150015600D01*
X99820100Y-150015600D02*
X99823100Y-150015600D01*
X99276100Y-149202600D02*
X102476100Y-149202600D01*
X99276100Y-146402600D02*
X99276100Y-149202600D01*
X99058100Y-150531600D02*
X99007100Y-150411600D01*
X99007100Y-150414600D02*
X99007100Y-150411600D01*
X98545100Y-150414600D02*
X99007100Y-150414600D01*
X98542100Y-150414600D02*
X98191100Y-150414600D01*
X98188100Y-150912600D02*
X93919100Y-150912600D01*
X98188100Y-150012600D02*
X98188100Y-150912600D01*
X98188100Y-149982600D02*
X98188100Y-150012600D01*
X98170100Y-136293600D02*
X103579100Y-136293600D01*
X98170100Y-136293600D02*
X93919100Y-136293600D01*
X98170100Y-135342600D02*
X98170100Y-136293600D01*
X96181100Y-149463600D02*
X105559100Y-149463600D01*
X96181100Y-146655600D02*
X96308100Y-146652600D01*
X96181100Y-146655600D02*
X96181100Y-149463600D01*
X95629100Y-149982600D02*
X98188100Y-149982600D01*
X95629100Y-149634600D02*
X95629100Y-149982600D01*
X94216100Y-149634600D02*
X95629100Y-149634600D01*
X94213100Y-149634600D02*
X93919100Y-149634600D01*
X93919100Y-150912600D02*
X93919100Y-149634600D01*
X93919100Y-149634600D02*
X93919100Y-136293600D01*
X93919100Y-136293600D02*
X93919100Y-135342600D01*
X93919100Y-135342600D02*
X98170100Y-135342600D01*
D10*
X92621100Y-152628600D02*
X109131100Y-152628600D01*
X91351100Y-134848600D02*
X91351100Y-151358600D01*
X109131100Y-152628600D02*
G75*
G03*
X110401100Y-151358600I1J1269999D01*
G01*
X110401100Y-134848600D02*
G75*
G03*
X109131100Y-133578600I-1269999J1D01*
G01*
X91351100Y-151358600D02*
G75*
G03*
X92621100Y-152628600I1270000J0D01*
G01*
X92621100Y-133578600D02*
G75*
G03*
X91351100Y-134848600I0J-1270000D01*
G01*
X110685078Y-146151600D02*
G75*
G03*
X110685078Y-146151600I-283978J0D01*
G01*
X110685078Y-145135600D02*
G75*
G03*
X110685078Y-145135600I-283978J0D01*
G01*
X101668078Y-152628600D02*
G75*
G03*
X101668078Y-152628600I-283978J0D01*
G01*
X101668078Y-133578600D02*
G75*
G03*
X101668078Y-133578600I-283978J0D01*
G01*
D11*
X101976100Y-147802600D02*
G75*
G03*
X101976100Y-147802600I-1100000J0D01*
G01*
D10*
X100652078Y-152628600D02*
G75*
G03*
X100652078Y-152628600I-283978J0D01*
G01*
X100652078Y-133578600D02*
G75*
G03*
X100652078Y-133578600I-283978J0D01*
G01*
X91635078Y-146151600D02*
G75*
G03*
X91635078Y-146151600I-283978J0D01*
G01*
X91635078Y-145135600D02*
G75*
G03*
X91635078Y-145135600I-283978J0D01*
G01*
%TO.C,X3*%
X148501100Y-75158600D02*
X148501100Y-58648600D01*
X147231100Y-57378600D02*
X130721100Y-57378600D01*
D11*
X145900100Y-74712600D02*
X141676100Y-74712600D01*
X145900100Y-73434600D02*
X145900100Y-74712600D01*
X145900100Y-59148600D02*
X145900100Y-73434600D01*
X145894100Y-60093600D02*
X145894100Y-60096600D01*
X144211100Y-73785600D02*
X144211100Y-73434600D01*
X144211100Y-73434600D02*
X145900100Y-73434600D01*
X143662100Y-72411600D02*
X141640100Y-72411600D01*
X143659100Y-73263600D02*
X143659100Y-70455600D01*
X143659100Y-70455600D02*
X134281100Y-70455600D01*
X141688100Y-59148600D02*
X145900100Y-59148600D01*
X141679100Y-73785600D02*
X144211100Y-73785600D01*
X141679100Y-73785600D02*
X141679100Y-73899600D01*
X141679100Y-60093600D02*
X145894100Y-60093600D01*
X141679100Y-60093600D02*
X141679100Y-59148600D01*
X141676100Y-74712600D02*
X141676100Y-73812600D01*
X141676100Y-73812600D02*
X136288100Y-73812600D01*
X141640100Y-72411600D02*
X141640100Y-70461600D01*
X140881100Y-74211600D02*
X141667100Y-74211600D01*
X140794100Y-74328600D02*
X140881100Y-74211600D01*
X140794100Y-74328600D02*
X140035100Y-74328600D01*
X140576100Y-73002600D02*
X140576100Y-71102600D01*
X140576100Y-71102600D02*
X140576100Y-70202600D01*
X140576100Y-71102600D02*
X139676100Y-70202600D01*
X140576100Y-70202600D02*
X139676100Y-70202600D01*
X140035100Y-74328600D02*
X140035100Y-74325600D01*
X140029100Y-74664600D02*
X137920100Y-74664600D01*
X140029100Y-74520600D02*
X140029100Y-74664600D01*
X140029100Y-74502600D02*
X140029100Y-73815600D01*
X140029100Y-73815600D02*
X140026100Y-73815600D01*
X139776100Y-69502600D02*
X140576100Y-70202600D01*
X139676100Y-70202600D02*
X139376100Y-69902600D01*
X139676100Y-70202600D02*
X137376100Y-70202600D01*
X139376100Y-69902600D02*
X139776100Y-69502600D01*
X137920100Y-74664600D02*
X137920100Y-74331600D01*
X137920100Y-74331600D02*
X137920100Y-74253600D01*
X137920100Y-74331600D02*
X137158100Y-74331600D01*
X137920100Y-74253600D02*
X140017100Y-74253600D01*
X137920100Y-74253600D02*
X137920100Y-73815600D01*
X137920100Y-73815600D02*
X137923100Y-73815600D01*
X137376100Y-73002600D02*
X140576100Y-73002600D01*
X137376100Y-70202600D02*
X137376100Y-73002600D01*
X137158100Y-74331600D02*
X137107100Y-74211600D01*
X137107100Y-74214600D02*
X137107100Y-74211600D01*
X136645100Y-74214600D02*
X137107100Y-74214600D01*
X136642100Y-74214600D02*
X136291100Y-74214600D01*
X136288100Y-74712600D02*
X132019100Y-74712600D01*
X136288100Y-73812600D02*
X136288100Y-74712600D01*
X136288100Y-73782600D02*
X136288100Y-73812600D01*
X136270100Y-60093600D02*
X141679100Y-60093600D01*
X136270100Y-60093600D02*
X132019100Y-60093600D01*
X136270100Y-59142600D02*
X136270100Y-60093600D01*
X134281100Y-73263600D02*
X143659100Y-73263600D01*
X134281100Y-70455600D02*
X134408100Y-70452600D01*
X134281100Y-70455600D02*
X134281100Y-73263600D01*
X133729100Y-73782600D02*
X136288100Y-73782600D01*
X133729100Y-73434600D02*
X133729100Y-73782600D01*
X132316100Y-73434600D02*
X133729100Y-73434600D01*
X132313100Y-73434600D02*
X132019100Y-73434600D01*
X132019100Y-74712600D02*
X132019100Y-73434600D01*
X132019100Y-73434600D02*
X132019100Y-60093600D01*
X132019100Y-60093600D02*
X132019100Y-59142600D01*
X132019100Y-59142600D02*
X136270100Y-59142600D01*
D10*
X130721100Y-76428600D02*
X147231100Y-76428600D01*
X129451100Y-58648600D02*
X129451100Y-75158600D01*
X147231100Y-76428600D02*
G75*
G03*
X148501100Y-75158600I1J1269999D01*
G01*
X148501100Y-58648600D02*
G75*
G03*
X147231100Y-57378600I-1269999J1D01*
G01*
X129451100Y-75158600D02*
G75*
G03*
X130721100Y-76428600I1270000J0D01*
G01*
X130721100Y-57378600D02*
G75*
G03*
X129451100Y-58648600I0J-1270000D01*
G01*
X148785078Y-69951600D02*
G75*
G03*
X148785078Y-69951600I-283978J0D01*
G01*
X148785078Y-68935600D02*
G75*
G03*
X148785078Y-68935600I-283978J0D01*
G01*
X139768078Y-76428600D02*
G75*
G03*
X139768078Y-76428600I-283978J0D01*
G01*
X139768078Y-57378600D02*
G75*
G03*
X139768078Y-57378600I-283978J0D01*
G01*
D11*
X140076100Y-71602600D02*
G75*
G03*
X140076100Y-71602600I-1100000J0D01*
G01*
D10*
X138752078Y-76428600D02*
G75*
G03*
X138752078Y-76428600I-283978J0D01*
G01*
X138752078Y-57378600D02*
G75*
G03*
X138752078Y-57378600I-283978J0D01*
G01*
X129735078Y-69951600D02*
G75*
G03*
X129735078Y-69951600I-283978J0D01*
G01*
X129735078Y-68935600D02*
G75*
G03*
X129735078Y-68935600I-283978J0D01*
G01*
%TO.C,X13*%
X110401100Y-113258600D02*
X110401100Y-96748600D01*
X109131100Y-95478600D02*
X92621100Y-95478600D01*
D11*
X107800100Y-112812600D02*
X103576100Y-112812600D01*
X107800100Y-111534600D02*
X107800100Y-112812600D01*
X107800100Y-97248600D02*
X107800100Y-111534600D01*
X107794100Y-98193600D02*
X107794100Y-98196600D01*
X106111100Y-111885600D02*
X106111100Y-111534600D01*
X106111100Y-111534600D02*
X107800100Y-111534600D01*
X105562100Y-110511600D02*
X103540100Y-110511600D01*
X105559100Y-111363600D02*
X105559100Y-108555600D01*
X105559100Y-108555600D02*
X96181100Y-108555600D01*
X103588100Y-97248600D02*
X107800100Y-97248600D01*
X103579100Y-111885600D02*
X106111100Y-111885600D01*
X103579100Y-111885600D02*
X103579100Y-111999600D01*
X103579100Y-98193600D02*
X107794100Y-98193600D01*
X103579100Y-98193600D02*
X103579100Y-97248600D01*
X103576100Y-112812600D02*
X103576100Y-111912600D01*
X103576100Y-111912600D02*
X98188100Y-111912600D01*
X103540100Y-110511600D02*
X103540100Y-108561600D01*
X102781100Y-112311600D02*
X103567100Y-112311600D01*
X102694100Y-112428600D02*
X102781100Y-112311600D01*
X102694100Y-112428600D02*
X101935100Y-112428600D01*
X102476100Y-111102600D02*
X102476100Y-109202600D01*
X102476100Y-109202600D02*
X102476100Y-108302600D01*
X102476100Y-109202600D02*
X101576100Y-108302600D01*
X102476100Y-108302600D02*
X101576100Y-108302600D01*
X101935100Y-112428600D02*
X101935100Y-112425600D01*
X101929100Y-112764600D02*
X99820100Y-112764600D01*
X101929100Y-112620600D02*
X101929100Y-112764600D01*
X101929100Y-112602600D02*
X101929100Y-111915600D01*
X101929100Y-111915600D02*
X101926100Y-111915600D01*
X101676100Y-107602600D02*
X102476100Y-108302600D01*
X101576100Y-108302600D02*
X101276100Y-108002600D01*
X101576100Y-108302600D02*
X99276100Y-108302600D01*
X101276100Y-108002600D02*
X101676100Y-107602600D01*
X99820100Y-112764600D02*
X99820100Y-112431600D01*
X99820100Y-112431600D02*
X99820100Y-112353600D01*
X99820100Y-112431600D02*
X99058100Y-112431600D01*
X99820100Y-112353600D02*
X101917100Y-112353600D01*
X99820100Y-112353600D02*
X99820100Y-111915600D01*
X99820100Y-111915600D02*
X99823100Y-111915600D01*
X99276100Y-111102600D02*
X102476100Y-111102600D01*
X99276100Y-108302600D02*
X99276100Y-111102600D01*
X99058100Y-112431600D02*
X99007100Y-112311600D01*
X99007100Y-112314600D02*
X99007100Y-112311600D01*
X98545100Y-112314600D02*
X99007100Y-112314600D01*
X98542100Y-112314600D02*
X98191100Y-112314600D01*
X98188100Y-112812600D02*
X93919100Y-112812600D01*
X98188100Y-111912600D02*
X98188100Y-112812600D01*
X98188100Y-111882600D02*
X98188100Y-111912600D01*
X98170100Y-98193600D02*
X103579100Y-98193600D01*
X98170100Y-98193600D02*
X93919100Y-98193600D01*
X98170100Y-97242600D02*
X98170100Y-98193600D01*
X96181100Y-111363600D02*
X105559100Y-111363600D01*
X96181100Y-108555600D02*
X96308100Y-108552600D01*
X96181100Y-108555600D02*
X96181100Y-111363600D01*
X95629100Y-111882600D02*
X98188100Y-111882600D01*
X95629100Y-111534600D02*
X95629100Y-111882600D01*
X94216100Y-111534600D02*
X95629100Y-111534600D01*
X94213100Y-111534600D02*
X93919100Y-111534600D01*
X93919100Y-112812600D02*
X93919100Y-111534600D01*
X93919100Y-111534600D02*
X93919100Y-98193600D01*
X93919100Y-98193600D02*
X93919100Y-97242600D01*
X93919100Y-97242600D02*
X98170100Y-97242600D01*
D10*
X92621100Y-114528600D02*
X109131100Y-114528600D01*
X91351100Y-96748600D02*
X91351100Y-113258600D01*
X109131100Y-114528600D02*
G75*
G03*
X110401100Y-113258600I1J1269999D01*
G01*
X110401100Y-96748600D02*
G75*
G03*
X109131100Y-95478600I-1269999J1D01*
G01*
X91351100Y-113258600D02*
G75*
G03*
X92621100Y-114528600I1270000J0D01*
G01*
X92621100Y-95478600D02*
G75*
G03*
X91351100Y-96748600I0J-1270000D01*
G01*
X110685078Y-108051600D02*
G75*
G03*
X110685078Y-108051600I-283978J0D01*
G01*
X110685078Y-107035600D02*
G75*
G03*
X110685078Y-107035600I-283978J0D01*
G01*
X101668078Y-114528600D02*
G75*
G03*
X101668078Y-114528600I-283978J0D01*
G01*
X101668078Y-95478600D02*
G75*
G03*
X101668078Y-95478600I-283978J0D01*
G01*
D11*
X101976100Y-109702600D02*
G75*
G03*
X101976100Y-109702600I-1100000J0D01*
G01*
D10*
X100652078Y-114528600D02*
G75*
G03*
X100652078Y-114528600I-283978J0D01*
G01*
X100652078Y-95478600D02*
G75*
G03*
X100652078Y-95478600I-283978J0D01*
G01*
X91635078Y-108051600D02*
G75*
G03*
X91635078Y-108051600I-283978J0D01*
G01*
X91635078Y-107035600D02*
G75*
G03*
X91635078Y-107035600I-283978J0D01*
G01*
%TO.C,X10*%
X167551100Y-94208600D02*
X167551100Y-77698600D01*
X166281100Y-76428600D02*
X149771100Y-76428600D01*
D11*
X164950100Y-93762600D02*
X160726100Y-93762600D01*
X164950100Y-92484600D02*
X164950100Y-93762600D01*
X164950100Y-78198600D02*
X164950100Y-92484600D01*
X164944100Y-79143600D02*
X164944100Y-79146600D01*
X163261100Y-92835600D02*
X163261100Y-92484600D01*
X163261100Y-92484600D02*
X164950100Y-92484600D01*
X162712100Y-91461600D02*
X160690100Y-91461600D01*
X162709100Y-92313600D02*
X162709100Y-89505600D01*
X162709100Y-89505600D02*
X153331100Y-89505600D01*
X160738100Y-78198600D02*
X164950100Y-78198600D01*
X160729100Y-92835600D02*
X163261100Y-92835600D01*
X160729100Y-92835600D02*
X160729100Y-92949600D01*
X160729100Y-79143600D02*
X164944100Y-79143600D01*
X160729100Y-79143600D02*
X160729100Y-78198600D01*
X160726100Y-93762600D02*
X160726100Y-92862600D01*
X160726100Y-92862600D02*
X155338100Y-92862600D01*
X160690100Y-91461600D02*
X160690100Y-89511600D01*
X159931100Y-93261600D02*
X160717100Y-93261600D01*
X159844100Y-93378600D02*
X159931100Y-93261600D01*
X159844100Y-93378600D02*
X159085100Y-93378600D01*
X159626100Y-92052600D02*
X159626100Y-90152600D01*
X159626100Y-90152600D02*
X159626100Y-89252600D01*
X159626100Y-90152600D02*
X158726100Y-89252600D01*
X159626100Y-89252600D02*
X158726100Y-89252600D01*
X159085100Y-93378600D02*
X159085100Y-93375600D01*
X159079100Y-93714600D02*
X156970100Y-93714600D01*
X159079100Y-93570600D02*
X159079100Y-93714600D01*
X159079100Y-93552600D02*
X159079100Y-92865600D01*
X159079100Y-92865600D02*
X159076100Y-92865600D01*
X158826100Y-88552600D02*
X159626100Y-89252600D01*
X158726100Y-89252600D02*
X158426100Y-88952600D01*
X158726100Y-89252600D02*
X156426100Y-89252600D01*
X158426100Y-88952600D02*
X158826100Y-88552600D01*
X156970100Y-93714600D02*
X156970100Y-93381600D01*
X156970100Y-93381600D02*
X156970100Y-93303600D01*
X156970100Y-93381600D02*
X156208100Y-93381600D01*
X156970100Y-93303600D02*
X159067100Y-93303600D01*
X156970100Y-93303600D02*
X156970100Y-92865600D01*
X156970100Y-92865600D02*
X156973100Y-92865600D01*
X156426100Y-92052600D02*
X159626100Y-92052600D01*
X156426100Y-89252600D02*
X156426100Y-92052600D01*
X156208100Y-93381600D02*
X156157100Y-93261600D01*
X156157100Y-93264600D02*
X156157100Y-93261600D01*
X155695100Y-93264600D02*
X156157100Y-93264600D01*
X155692100Y-93264600D02*
X155341100Y-93264600D01*
X155338100Y-93762600D02*
X151069100Y-93762600D01*
X155338100Y-92862600D02*
X155338100Y-93762600D01*
X155338100Y-92832600D02*
X155338100Y-92862600D01*
X155320100Y-79143600D02*
X160729100Y-79143600D01*
X155320100Y-79143600D02*
X151069100Y-79143600D01*
X155320100Y-78192600D02*
X155320100Y-79143600D01*
X153331100Y-92313600D02*
X162709100Y-92313600D01*
X153331100Y-89505600D02*
X153458100Y-89502600D01*
X153331100Y-89505600D02*
X153331100Y-92313600D01*
X152779100Y-92832600D02*
X155338100Y-92832600D01*
X152779100Y-92484600D02*
X152779100Y-92832600D01*
X151366100Y-92484600D02*
X152779100Y-92484600D01*
X151363100Y-92484600D02*
X151069100Y-92484600D01*
X151069100Y-93762600D02*
X151069100Y-92484600D01*
X151069100Y-92484600D02*
X151069100Y-79143600D01*
X151069100Y-79143600D02*
X151069100Y-78192600D01*
X151069100Y-78192600D02*
X155320100Y-78192600D01*
D10*
X149771100Y-95478600D02*
X166281100Y-95478600D01*
X148501100Y-77698600D02*
X148501100Y-94208600D01*
X166281100Y-95478600D02*
G75*
G03*
X167551100Y-94208600I1J1269999D01*
G01*
X167551100Y-77698600D02*
G75*
G03*
X166281100Y-76428600I-1269999J1D01*
G01*
X148501100Y-94208600D02*
G75*
G03*
X149771100Y-95478600I1270000J0D01*
G01*
X149771100Y-76428600D02*
G75*
G03*
X148501100Y-77698600I0J-1270000D01*
G01*
X167805100Y-89001600D02*
G75*
G03*
X167805100Y-89001600I-254000J0D01*
G01*
X167835078Y-87585600D02*
G75*
G03*
X167835078Y-87585600I-283978J0D01*
G01*
X158818078Y-95478600D02*
G75*
G03*
X158818078Y-95478600I-283978J0D01*
G01*
X158818078Y-76428600D02*
G75*
G03*
X158818078Y-76428600I-283978J0D01*
G01*
D11*
X159126100Y-90652600D02*
G75*
G03*
X159126100Y-90652600I-1100000J0D01*
G01*
D10*
X157772100Y-95478600D02*
G75*
G03*
X157772100Y-95478600I-254000J0D01*
G01*
X157772100Y-76428600D02*
G75*
G03*
X157772100Y-76428600I-254000J0D01*
G01*
X148755100Y-89001600D02*
G75*
G03*
X148755100Y-89001600I-254000J0D01*
G01*
X148785078Y-87985600D02*
G75*
G03*
X148785078Y-87985600I-283978J0D01*
G01*
%TO.C,X2*%
X129451100Y-75158600D02*
X129451100Y-58648600D01*
X128181100Y-57378600D02*
X111671100Y-57378600D01*
D11*
X126850100Y-74712600D02*
X122626100Y-74712600D01*
X126850100Y-73434600D02*
X126850100Y-74712600D01*
X126850100Y-59148600D02*
X126850100Y-73434600D01*
X126844100Y-60093600D02*
X126844100Y-60096600D01*
X125161100Y-73785600D02*
X125161100Y-73434600D01*
X125161100Y-73434600D02*
X126850100Y-73434600D01*
X124612100Y-72411600D02*
X122590100Y-72411600D01*
X124609100Y-73263600D02*
X124609100Y-70455600D01*
X124609100Y-70455600D02*
X115231100Y-70455600D01*
X122638100Y-59148600D02*
X126850100Y-59148600D01*
X122629100Y-73785600D02*
X125161100Y-73785600D01*
X122629100Y-73785600D02*
X122629100Y-73899600D01*
X122629100Y-60093600D02*
X126844100Y-60093600D01*
X122629100Y-60093600D02*
X122629100Y-59148600D01*
X122626100Y-74712600D02*
X122626100Y-73812600D01*
X122626100Y-73812600D02*
X117238100Y-73812600D01*
X122590100Y-72411600D02*
X122590100Y-70461600D01*
X121831100Y-74211600D02*
X122617100Y-74211600D01*
X121744100Y-74328600D02*
X121831100Y-74211600D01*
X121744100Y-74328600D02*
X120985100Y-74328600D01*
X121526100Y-73002600D02*
X121526100Y-71102600D01*
X121526100Y-71102600D02*
X121526100Y-70202600D01*
X121526100Y-71102600D02*
X120626100Y-70202600D01*
X121526100Y-70202600D02*
X120626100Y-70202600D01*
X120985100Y-74328600D02*
X120985100Y-74325600D01*
X120979100Y-74664600D02*
X118870100Y-74664600D01*
X120979100Y-74520600D02*
X120979100Y-74664600D01*
X120979100Y-74502600D02*
X120979100Y-73815600D01*
X120979100Y-73815600D02*
X120976100Y-73815600D01*
X120726100Y-69502600D02*
X121526100Y-70202600D01*
X120626100Y-70202600D02*
X120326100Y-69902600D01*
X120626100Y-70202600D02*
X118326100Y-70202600D01*
X120326100Y-69902600D02*
X120726100Y-69502600D01*
X118870100Y-74664600D02*
X118870100Y-74331600D01*
X118870100Y-74331600D02*
X118870100Y-74253600D01*
X118870100Y-74331600D02*
X118108100Y-74331600D01*
X118870100Y-74253600D02*
X120967100Y-74253600D01*
X118870100Y-74253600D02*
X118870100Y-73815600D01*
X118870100Y-73815600D02*
X118873100Y-73815600D01*
X118326100Y-73002600D02*
X121526100Y-73002600D01*
X118326100Y-70202600D02*
X118326100Y-73002600D01*
X118108100Y-74331600D02*
X118057100Y-74211600D01*
X118057100Y-74214600D02*
X118057100Y-74211600D01*
X117595100Y-74214600D02*
X118057100Y-74214600D01*
X117592100Y-74214600D02*
X117241100Y-74214600D01*
X117238100Y-74712600D02*
X112969100Y-74712600D01*
X117238100Y-73812600D02*
X117238100Y-74712600D01*
X117238100Y-73782600D02*
X117238100Y-73812600D01*
X117220100Y-60093600D02*
X122629100Y-60093600D01*
X117220100Y-60093600D02*
X112969100Y-60093600D01*
X117220100Y-59142600D02*
X117220100Y-60093600D01*
X115231100Y-73263600D02*
X124609100Y-73263600D01*
X115231100Y-70455600D02*
X115358100Y-70452600D01*
X115231100Y-70455600D02*
X115231100Y-73263600D01*
X114679100Y-73782600D02*
X117238100Y-73782600D01*
X114679100Y-73434600D02*
X114679100Y-73782600D01*
X113266100Y-73434600D02*
X114679100Y-73434600D01*
X113263100Y-73434600D02*
X112969100Y-73434600D01*
X112969100Y-74712600D02*
X112969100Y-73434600D01*
X112969100Y-73434600D02*
X112969100Y-60093600D01*
X112969100Y-60093600D02*
X112969100Y-59142600D01*
X112969100Y-59142600D02*
X117220100Y-59142600D01*
D10*
X111671100Y-76428600D02*
X128181100Y-76428600D01*
X110401100Y-58648600D02*
X110401100Y-75158600D01*
X128181100Y-76428600D02*
G75*
G03*
X129451100Y-75158600I1J1269999D01*
G01*
X129451100Y-58648600D02*
G75*
G03*
X128181100Y-57378600I-1269999J1D01*
G01*
X110401100Y-75158600D02*
G75*
G03*
X111671100Y-76428600I1270000J0D01*
G01*
X111671100Y-57378600D02*
G75*
G03*
X110401100Y-58648600I0J-1270000D01*
G01*
X129735078Y-69951600D02*
G75*
G03*
X129735078Y-69951600I-283978J0D01*
G01*
X129735078Y-68935600D02*
G75*
G03*
X129735078Y-68935600I-283978J0D01*
G01*
X120718078Y-76428600D02*
G75*
G03*
X120718078Y-76428600I-283978J0D01*
G01*
X120718078Y-57378600D02*
G75*
G03*
X120718078Y-57378600I-283978J0D01*
G01*
D11*
X121026100Y-71602600D02*
G75*
G03*
X121026100Y-71602600I-1100000J0D01*
G01*
D10*
X119702078Y-76428600D02*
G75*
G03*
X119702078Y-76428600I-283978J0D01*
G01*
X119702078Y-57378600D02*
G75*
G03*
X119702078Y-57378600I-283978J0D01*
G01*
X110685078Y-69951600D02*
G75*
G03*
X110685078Y-69951600I-283978J0D01*
G01*
X110685078Y-68935600D02*
G75*
G03*
X110685078Y-68935600I-283978J0D01*
G01*
%TO.C,X22*%
X167551100Y-132308600D02*
X167551100Y-115798600D01*
X166281100Y-114528600D02*
X149771100Y-114528600D01*
D11*
X164950100Y-131862600D02*
X160726100Y-131862600D01*
X164950100Y-130584600D02*
X164950100Y-131862600D01*
X164950100Y-116298600D02*
X164950100Y-130584600D01*
X164944100Y-117243600D02*
X164944100Y-117246600D01*
X163261100Y-130935600D02*
X163261100Y-130584600D01*
X163261100Y-130584600D02*
X164950100Y-130584600D01*
X162712100Y-129561600D02*
X160690100Y-129561600D01*
X162709100Y-130413600D02*
X162709100Y-127605600D01*
X162709100Y-127605600D02*
X153331100Y-127605600D01*
X160738100Y-116298600D02*
X164950100Y-116298600D01*
X160729100Y-130935600D02*
X163261100Y-130935600D01*
X160729100Y-130935600D02*
X160729100Y-131049600D01*
X160729100Y-117243600D02*
X164944100Y-117243600D01*
X160729100Y-117243600D02*
X160729100Y-116298600D01*
X160726100Y-131862600D02*
X160726100Y-130962600D01*
X160726100Y-130962600D02*
X155338100Y-130962600D01*
X160690100Y-129561600D02*
X160690100Y-127611600D01*
X159931100Y-131361600D02*
X160717100Y-131361600D01*
X159844100Y-131478600D02*
X159931100Y-131361600D01*
X159844100Y-131478600D02*
X159085100Y-131478600D01*
X159626100Y-130152600D02*
X159626100Y-128252600D01*
X159626100Y-128252600D02*
X159626100Y-127352600D01*
X159626100Y-128252600D02*
X158726100Y-127352600D01*
X159626100Y-127352600D02*
X158726100Y-127352600D01*
X159085100Y-131478600D02*
X159085100Y-131475600D01*
X159079100Y-131814600D02*
X156970100Y-131814600D01*
X159079100Y-131670600D02*
X159079100Y-131814600D01*
X159079100Y-131652600D02*
X159079100Y-130965600D01*
X159079100Y-130965600D02*
X159076100Y-130965600D01*
X158826100Y-126652600D02*
X159626100Y-127352600D01*
X158726100Y-127352600D02*
X158426100Y-127052600D01*
X158726100Y-127352600D02*
X156426100Y-127352600D01*
X158426100Y-127052600D02*
X158826100Y-126652600D01*
X156970100Y-131814600D02*
X156970100Y-131481600D01*
X156970100Y-131481600D02*
X156970100Y-131403600D01*
X156970100Y-131481600D02*
X156208100Y-131481600D01*
X156970100Y-131403600D02*
X159067100Y-131403600D01*
X156970100Y-131403600D02*
X156970100Y-130965600D01*
X156970100Y-130965600D02*
X156973100Y-130965600D01*
X156426100Y-130152600D02*
X159626100Y-130152600D01*
X156426100Y-127352600D02*
X156426100Y-130152600D01*
X156208100Y-131481600D02*
X156157100Y-131361600D01*
X156157100Y-131364600D02*
X156157100Y-131361600D01*
X155695100Y-131364600D02*
X156157100Y-131364600D01*
X155692100Y-131364600D02*
X155341100Y-131364600D01*
X155338100Y-131862600D02*
X151069100Y-131862600D01*
X155338100Y-130962600D02*
X155338100Y-131862600D01*
X155338100Y-130932600D02*
X155338100Y-130962600D01*
X155320100Y-117243600D02*
X160729100Y-117243600D01*
X155320100Y-117243600D02*
X151069100Y-117243600D01*
X155320100Y-116292600D02*
X155320100Y-117243600D01*
X153331100Y-130413600D02*
X162709100Y-130413600D01*
X153331100Y-127605600D02*
X153458100Y-127602600D01*
X153331100Y-127605600D02*
X153331100Y-130413600D01*
X152779100Y-130932600D02*
X155338100Y-130932600D01*
X152779100Y-130584600D02*
X152779100Y-130932600D01*
X151366100Y-130584600D02*
X152779100Y-130584600D01*
X151363100Y-130584600D02*
X151069100Y-130584600D01*
X151069100Y-131862600D02*
X151069100Y-130584600D01*
X151069100Y-130584600D02*
X151069100Y-117243600D01*
X151069100Y-117243600D02*
X151069100Y-116292600D01*
X151069100Y-116292600D02*
X155320100Y-116292600D01*
D10*
X149771100Y-133578600D02*
X166281100Y-133578600D01*
X148501100Y-115798600D02*
X148501100Y-132308600D01*
X166281100Y-133578600D02*
G75*
G03*
X167551100Y-132308600I1J1269999D01*
G01*
X167551100Y-115798600D02*
G75*
G03*
X166281100Y-114528600I-1269999J1D01*
G01*
X148501100Y-132308600D02*
G75*
G03*
X149771100Y-133578600I1270000J0D01*
G01*
X149771100Y-114528600D02*
G75*
G03*
X148501100Y-115798600I0J-1270000D01*
G01*
X167805100Y-127101600D02*
G75*
G03*
X167805100Y-127101600I-254000J0D01*
G01*
X167835078Y-125685600D02*
G75*
G03*
X167835078Y-125685600I-283978J0D01*
G01*
X158818078Y-133578600D02*
G75*
G03*
X158818078Y-133578600I-283978J0D01*
G01*
X158818078Y-114528600D02*
G75*
G03*
X158818078Y-114528600I-283978J0D01*
G01*
D11*
X159126100Y-128752600D02*
G75*
G03*
X159126100Y-128752600I-1100000J0D01*
G01*
D10*
X157772100Y-133578600D02*
G75*
G03*
X157772100Y-133578600I-254000J0D01*
G01*
X157772100Y-114528600D02*
G75*
G03*
X157772100Y-114528600I-254000J0D01*
G01*
X148755100Y-127101600D02*
G75*
G03*
X148755100Y-127101600I-254000J0D01*
G01*
X148785078Y-126085600D02*
G75*
G03*
X148785078Y-126085600I-283978J0D01*
G01*
%TO.C,X20*%
X129451100Y-132308600D02*
X129451100Y-115798600D01*
X128181100Y-114528600D02*
X111671100Y-114528600D01*
D11*
X126850100Y-131862600D02*
X122626100Y-131862600D01*
X126850100Y-130584600D02*
X126850100Y-131862600D01*
X126850100Y-116298600D02*
X126850100Y-130584600D01*
X126844100Y-117243600D02*
X126844100Y-117246600D01*
X125161100Y-130935600D02*
X125161100Y-130584600D01*
X125161100Y-130584600D02*
X126850100Y-130584600D01*
X124612100Y-129561600D02*
X122590100Y-129561600D01*
X124609100Y-130413600D02*
X124609100Y-127605600D01*
X124609100Y-127605600D02*
X115231100Y-127605600D01*
X122638100Y-116298600D02*
X126850100Y-116298600D01*
X122629100Y-130935600D02*
X125161100Y-130935600D01*
X122629100Y-130935600D02*
X122629100Y-131049600D01*
X122629100Y-117243600D02*
X126844100Y-117243600D01*
X122629100Y-117243600D02*
X122629100Y-116298600D01*
X122626100Y-131862600D02*
X122626100Y-130962600D01*
X122626100Y-130962600D02*
X117238100Y-130962600D01*
X122590100Y-129561600D02*
X122590100Y-127611600D01*
X121831100Y-131361600D02*
X122617100Y-131361600D01*
X121744100Y-131478600D02*
X121831100Y-131361600D01*
X121744100Y-131478600D02*
X120985100Y-131478600D01*
X121526100Y-130152600D02*
X121526100Y-128252600D01*
X121526100Y-128252600D02*
X121526100Y-127352600D01*
X121526100Y-128252600D02*
X120626100Y-127352600D01*
X121526100Y-127352600D02*
X120626100Y-127352600D01*
X120985100Y-131478600D02*
X120985100Y-131475600D01*
X120979100Y-131814600D02*
X118870100Y-131814600D01*
X120979100Y-131670600D02*
X120979100Y-131814600D01*
X120979100Y-131652600D02*
X120979100Y-130965600D01*
X120979100Y-130965600D02*
X120976100Y-130965600D01*
X120726100Y-126652600D02*
X121526100Y-127352600D01*
X120626100Y-127352600D02*
X120326100Y-127052600D01*
X120626100Y-127352600D02*
X118326100Y-127352600D01*
X120326100Y-127052600D02*
X120726100Y-126652600D01*
X118870100Y-131814600D02*
X118870100Y-131481600D01*
X118870100Y-131481600D02*
X118870100Y-131403600D01*
X118870100Y-131481600D02*
X118108100Y-131481600D01*
X118870100Y-131403600D02*
X120967100Y-131403600D01*
X118870100Y-131403600D02*
X118870100Y-130965600D01*
X118870100Y-130965600D02*
X118873100Y-130965600D01*
X118326100Y-130152600D02*
X121526100Y-130152600D01*
X118326100Y-127352600D02*
X118326100Y-130152600D01*
X118108100Y-131481600D02*
X118057100Y-131361600D01*
X118057100Y-131364600D02*
X118057100Y-131361600D01*
X117595100Y-131364600D02*
X118057100Y-131364600D01*
X117592100Y-131364600D02*
X117241100Y-131364600D01*
X117238100Y-131862600D02*
X112969100Y-131862600D01*
X117238100Y-130962600D02*
X117238100Y-131862600D01*
X117238100Y-130932600D02*
X117238100Y-130962600D01*
X117220100Y-117243600D02*
X122629100Y-117243600D01*
X117220100Y-117243600D02*
X112969100Y-117243600D01*
X117220100Y-116292600D02*
X117220100Y-117243600D01*
X115231100Y-130413600D02*
X124609100Y-130413600D01*
X115231100Y-127605600D02*
X115358100Y-127602600D01*
X115231100Y-127605600D02*
X115231100Y-130413600D01*
X114679100Y-130932600D02*
X117238100Y-130932600D01*
X114679100Y-130584600D02*
X114679100Y-130932600D01*
X113266100Y-130584600D02*
X114679100Y-130584600D01*
X113263100Y-130584600D02*
X112969100Y-130584600D01*
X112969100Y-131862600D02*
X112969100Y-130584600D01*
X112969100Y-130584600D02*
X112969100Y-117243600D01*
X112969100Y-117243600D02*
X112969100Y-116292600D01*
X112969100Y-116292600D02*
X117220100Y-116292600D01*
D10*
X111671100Y-133578600D02*
X128181100Y-133578600D01*
X110401100Y-115798600D02*
X110401100Y-132308600D01*
X128181100Y-133578600D02*
G75*
G03*
X129451100Y-132308600I1J1269999D01*
G01*
X129451100Y-115798600D02*
G75*
G03*
X128181100Y-114528600I-1269999J1D01*
G01*
X110401100Y-132308600D02*
G75*
G03*
X111671100Y-133578600I1270000J0D01*
G01*
X111671100Y-114528600D02*
G75*
G03*
X110401100Y-115798600I0J-1270000D01*
G01*
X129705100Y-127101600D02*
G75*
G03*
X129705100Y-127101600I-254000J0D01*
G01*
X129735078Y-125685600D02*
G75*
G03*
X129735078Y-125685600I-283978J0D01*
G01*
X120718078Y-133578600D02*
G75*
G03*
X120718078Y-133578600I-283978J0D01*
G01*
X120718078Y-114528600D02*
G75*
G03*
X120718078Y-114528600I-283978J0D01*
G01*
D11*
X121026100Y-128752600D02*
G75*
G03*
X121026100Y-128752600I-1100000J0D01*
G01*
D10*
X119672100Y-133578600D02*
G75*
G03*
X119672100Y-133578600I-254000J0D01*
G01*
X119672100Y-114528600D02*
G75*
G03*
X119672100Y-114528600I-254000J0D01*
G01*
X110655100Y-127101600D02*
G75*
G03*
X110655100Y-127101600I-254000J0D01*
G01*
X110685078Y-126085600D02*
G75*
G03*
X110685078Y-126085600I-283978J0D01*
G01*
%TO.C,X23*%
X186601100Y-132308600D02*
X186601100Y-115798600D01*
X185331100Y-114528600D02*
X168821100Y-114528600D01*
D11*
X184000100Y-131862600D02*
X179776100Y-131862600D01*
X184000100Y-130584600D02*
X184000100Y-131862600D01*
X184000100Y-116298600D02*
X184000100Y-130584600D01*
X183994100Y-117243600D02*
X183994100Y-117246600D01*
X182311100Y-130935600D02*
X182311100Y-130584600D01*
X182311100Y-130584600D02*
X184000100Y-130584600D01*
X181762100Y-129561600D02*
X179740100Y-129561600D01*
X181759100Y-130413600D02*
X181759100Y-127605600D01*
X181759100Y-127605600D02*
X172381100Y-127605600D01*
X179788100Y-116298600D02*
X184000100Y-116298600D01*
X179779100Y-130935600D02*
X182311100Y-130935600D01*
X179779100Y-130935600D02*
X179779100Y-131049600D01*
X179779100Y-117243600D02*
X183994100Y-117243600D01*
X179779100Y-117243600D02*
X179779100Y-116298600D01*
X179776100Y-131862600D02*
X179776100Y-130962600D01*
X179776100Y-130962600D02*
X174388100Y-130962600D01*
X179740100Y-129561600D02*
X179740100Y-127611600D01*
X178981100Y-131361600D02*
X179767100Y-131361600D01*
X178894100Y-131478600D02*
X178981100Y-131361600D01*
X178894100Y-131478600D02*
X178135100Y-131478600D01*
X178676100Y-130152600D02*
X178676100Y-128252600D01*
X178676100Y-128252600D02*
X178676100Y-127352600D01*
X178676100Y-128252600D02*
X177776100Y-127352600D01*
X178676100Y-127352600D02*
X177776100Y-127352600D01*
X178135100Y-131478600D02*
X178135100Y-131475600D01*
X178129100Y-131814600D02*
X176020100Y-131814600D01*
X178129100Y-131670600D02*
X178129100Y-131814600D01*
X178129100Y-131652600D02*
X178129100Y-130965600D01*
X178129100Y-130965600D02*
X178126100Y-130965600D01*
X177876100Y-126652600D02*
X178676100Y-127352600D01*
X177776100Y-127352600D02*
X177476100Y-127052600D01*
X177776100Y-127352600D02*
X175476100Y-127352600D01*
X177476100Y-127052600D02*
X177876100Y-126652600D01*
X176020100Y-131814600D02*
X176020100Y-131481600D01*
X176020100Y-131481600D02*
X176020100Y-131403600D01*
X176020100Y-131481600D02*
X175258100Y-131481600D01*
X176020100Y-131403600D02*
X178117100Y-131403600D01*
X176020100Y-131403600D02*
X176020100Y-130965600D01*
X176020100Y-130965600D02*
X176023100Y-130965600D01*
X175476100Y-130152600D02*
X178676100Y-130152600D01*
X175476100Y-127352600D02*
X175476100Y-130152600D01*
X175258100Y-131481600D02*
X175207100Y-131361600D01*
X175207100Y-131364600D02*
X175207100Y-131361600D01*
X174745100Y-131364600D02*
X175207100Y-131364600D01*
X174742100Y-131364600D02*
X174391100Y-131364600D01*
X174388100Y-131862600D02*
X170119100Y-131862600D01*
X174388100Y-130962600D02*
X174388100Y-131862600D01*
X174388100Y-130932600D02*
X174388100Y-130962600D01*
X174370100Y-117243600D02*
X179779100Y-117243600D01*
X174370100Y-117243600D02*
X170119100Y-117243600D01*
X174370100Y-116292600D02*
X174370100Y-117243600D01*
X172381100Y-130413600D02*
X181759100Y-130413600D01*
X172381100Y-127605600D02*
X172508100Y-127602600D01*
X172381100Y-127605600D02*
X172381100Y-130413600D01*
X171829100Y-130932600D02*
X174388100Y-130932600D01*
X171829100Y-130584600D02*
X171829100Y-130932600D01*
X170416100Y-130584600D02*
X171829100Y-130584600D01*
X170413100Y-130584600D02*
X170119100Y-130584600D01*
X170119100Y-131862600D02*
X170119100Y-130584600D01*
X170119100Y-130584600D02*
X170119100Y-117243600D01*
X170119100Y-117243600D02*
X170119100Y-116292600D01*
X170119100Y-116292600D02*
X174370100Y-116292600D01*
D10*
X168821100Y-133578600D02*
X185331100Y-133578600D01*
X167551100Y-115798600D02*
X167551100Y-132308600D01*
X185331100Y-133578600D02*
G75*
G03*
X186601100Y-132308600I1J1269999D01*
G01*
X186601100Y-115798600D02*
G75*
G03*
X185331100Y-114528600I-1269999J1D01*
G01*
X167551100Y-132308600D02*
G75*
G03*
X168821100Y-133578600I1270000J0D01*
G01*
X168821100Y-114528600D02*
G75*
G03*
X167551100Y-115798600I0J-1270000D01*
G01*
X186855100Y-127101600D02*
G75*
G03*
X186855100Y-127101600I-254000J0D01*
G01*
X186885078Y-125685600D02*
G75*
G03*
X186885078Y-125685600I-283978J0D01*
G01*
X177868078Y-133578600D02*
G75*
G03*
X177868078Y-133578600I-283978J0D01*
G01*
X177868078Y-114528600D02*
G75*
G03*
X177868078Y-114528600I-283978J0D01*
G01*
D11*
X178176100Y-128752600D02*
G75*
G03*
X178176100Y-128752600I-1100000J0D01*
G01*
D10*
X176822100Y-133578600D02*
G75*
G03*
X176822100Y-133578600I-254000J0D01*
G01*
X176822100Y-114528600D02*
G75*
G03*
X176822100Y-114528600I-254000J0D01*
G01*
X167805100Y-127101600D02*
G75*
G03*
X167805100Y-127101600I-254000J0D01*
G01*
X167835078Y-126085600D02*
G75*
G03*
X167835078Y-126085600I-283978J0D01*
G01*
%TO.C,X4*%
X167551100Y-75158600D02*
X167551100Y-58648600D01*
X166281100Y-57378600D02*
X149771100Y-57378600D01*
D11*
X164950100Y-74712600D02*
X160726100Y-74712600D01*
X164950100Y-73434600D02*
X164950100Y-74712600D01*
X164950100Y-59148600D02*
X164950100Y-73434600D01*
X164944100Y-60093600D02*
X164944100Y-60096600D01*
X163261100Y-73785600D02*
X163261100Y-73434600D01*
X163261100Y-73434600D02*
X164950100Y-73434600D01*
X162712100Y-72411600D02*
X160690100Y-72411600D01*
X162709100Y-73263600D02*
X162709100Y-70455600D01*
X162709100Y-70455600D02*
X153331100Y-70455600D01*
X160738100Y-59148600D02*
X164950100Y-59148600D01*
X160729100Y-73785600D02*
X163261100Y-73785600D01*
X160729100Y-73785600D02*
X160729100Y-73899600D01*
X160729100Y-60093600D02*
X164944100Y-60093600D01*
X160729100Y-60093600D02*
X160729100Y-59148600D01*
X160726100Y-74712600D02*
X160726100Y-73812600D01*
X160726100Y-73812600D02*
X155338100Y-73812600D01*
X160690100Y-72411600D02*
X160690100Y-70461600D01*
X159931100Y-74211600D02*
X160717100Y-74211600D01*
X159844100Y-74328600D02*
X159931100Y-74211600D01*
X159844100Y-74328600D02*
X159085100Y-74328600D01*
X159626100Y-73002600D02*
X159626100Y-71102600D01*
X159626100Y-71102600D02*
X159626100Y-70202600D01*
X159626100Y-71102600D02*
X158726100Y-70202600D01*
X159626100Y-70202600D02*
X158726100Y-70202600D01*
X159085100Y-74328600D02*
X159085100Y-74325600D01*
X159079100Y-74664600D02*
X156970100Y-74664600D01*
X159079100Y-74520600D02*
X159079100Y-74664600D01*
X159079100Y-74502600D02*
X159079100Y-73815600D01*
X159079100Y-73815600D02*
X159076100Y-73815600D01*
X158826100Y-69502600D02*
X159626100Y-70202600D01*
X158726100Y-70202600D02*
X158426100Y-69902600D01*
X158726100Y-70202600D02*
X156426100Y-70202600D01*
X158426100Y-69902600D02*
X158826100Y-69502600D01*
X156970100Y-74664600D02*
X156970100Y-74331600D01*
X156970100Y-74331600D02*
X156970100Y-74253600D01*
X156970100Y-74331600D02*
X156208100Y-74331600D01*
X156970100Y-74253600D02*
X159067100Y-74253600D01*
X156970100Y-74253600D02*
X156970100Y-73815600D01*
X156970100Y-73815600D02*
X156973100Y-73815600D01*
X156426100Y-73002600D02*
X159626100Y-73002600D01*
X156426100Y-70202600D02*
X156426100Y-73002600D01*
X156208100Y-74331600D02*
X156157100Y-74211600D01*
X156157100Y-74214600D02*
X156157100Y-74211600D01*
X155695100Y-74214600D02*
X156157100Y-74214600D01*
X155692100Y-74214600D02*
X155341100Y-74214600D01*
X155338100Y-74712600D02*
X151069100Y-74712600D01*
X155338100Y-73812600D02*
X155338100Y-74712600D01*
X155338100Y-73782600D02*
X155338100Y-73812600D01*
X155320100Y-60093600D02*
X160729100Y-60093600D01*
X155320100Y-60093600D02*
X151069100Y-60093600D01*
X155320100Y-59142600D02*
X155320100Y-60093600D01*
X153331100Y-73263600D02*
X162709100Y-73263600D01*
X153331100Y-70455600D02*
X153458100Y-70452600D01*
X153331100Y-70455600D02*
X153331100Y-73263600D01*
X152779100Y-73782600D02*
X155338100Y-73782600D01*
X152779100Y-73434600D02*
X152779100Y-73782600D01*
X151366100Y-73434600D02*
X152779100Y-73434600D01*
X151363100Y-73434600D02*
X151069100Y-73434600D01*
X151069100Y-74712600D02*
X151069100Y-73434600D01*
X151069100Y-73434600D02*
X151069100Y-60093600D01*
X151069100Y-60093600D02*
X151069100Y-59142600D01*
X151069100Y-59142600D02*
X155320100Y-59142600D01*
D10*
X149771100Y-76428600D02*
X166281100Y-76428600D01*
X148501100Y-58648600D02*
X148501100Y-75158600D01*
X166281100Y-76428600D02*
G75*
G03*
X167551100Y-75158600I1J1269999D01*
G01*
X167551100Y-58648600D02*
G75*
G03*
X166281100Y-57378600I-1269999J1D01*
G01*
X148501100Y-75158600D02*
G75*
G03*
X149771100Y-76428600I1270000J0D01*
G01*
X149771100Y-57378600D02*
G75*
G03*
X148501100Y-58648600I0J-1270000D01*
G01*
X167835078Y-69951600D02*
G75*
G03*
X167835078Y-69951600I-283978J0D01*
G01*
X167835078Y-68935600D02*
G75*
G03*
X167835078Y-68935600I-283978J0D01*
G01*
X158818078Y-76428600D02*
G75*
G03*
X158818078Y-76428600I-283978J0D01*
G01*
X158818078Y-57378600D02*
G75*
G03*
X158818078Y-57378600I-283978J0D01*
G01*
D11*
X159126100Y-71602600D02*
G75*
G03*
X159126100Y-71602600I-1100000J0D01*
G01*
D10*
X157802078Y-76428600D02*
G75*
G03*
X157802078Y-76428600I-283978J0D01*
G01*
X157802078Y-57378600D02*
G75*
G03*
X157802078Y-57378600I-283978J0D01*
G01*
X148785078Y-69951600D02*
G75*
G03*
X148785078Y-69951600I-283978J0D01*
G01*
X148785078Y-68935600D02*
G75*
G03*
X148785078Y-68935600I-283978J0D01*
G01*
%TO.C,X27*%
X148501100Y-151358600D02*
X148501100Y-134848600D01*
X147231100Y-133578600D02*
X130721100Y-133578600D01*
D11*
X145900100Y-150912600D02*
X141676100Y-150912600D01*
X145900100Y-149634600D02*
X145900100Y-150912600D01*
X145900100Y-135348600D02*
X145900100Y-149634600D01*
X145894100Y-136293600D02*
X145894100Y-136296600D01*
X144211100Y-149985600D02*
X144211100Y-149634600D01*
X144211100Y-149634600D02*
X145900100Y-149634600D01*
X143662100Y-148611600D02*
X141640100Y-148611600D01*
X143659100Y-149463600D02*
X143659100Y-146655600D01*
X143659100Y-146655600D02*
X134281100Y-146655600D01*
X141688100Y-135348600D02*
X145900100Y-135348600D01*
X141679100Y-149985600D02*
X144211100Y-149985600D01*
X141679100Y-149985600D02*
X141679100Y-150099600D01*
X141679100Y-136293600D02*
X145894100Y-136293600D01*
X141679100Y-136293600D02*
X141679100Y-135348600D01*
X141676100Y-150912600D02*
X141676100Y-150012600D01*
X141676100Y-150012600D02*
X136288100Y-150012600D01*
X141640100Y-148611600D02*
X141640100Y-146661600D01*
X140881100Y-150411600D02*
X141667100Y-150411600D01*
X140794100Y-150528600D02*
X140881100Y-150411600D01*
X140794100Y-150528600D02*
X140035100Y-150528600D01*
X140576100Y-149202600D02*
X140576100Y-147302600D01*
X140576100Y-147302600D02*
X140576100Y-146402600D01*
X140576100Y-147302600D02*
X139676100Y-146402600D01*
X140576100Y-146402600D02*
X139676100Y-146402600D01*
X140035100Y-150528600D02*
X140035100Y-150525600D01*
X140029100Y-150864600D02*
X137920100Y-150864600D01*
X140029100Y-150720600D02*
X140029100Y-150864600D01*
X140029100Y-150702600D02*
X140029100Y-150015600D01*
X140029100Y-150015600D02*
X140026100Y-150015600D01*
X139776100Y-145702600D02*
X140576100Y-146402600D01*
X139676100Y-146402600D02*
X139376100Y-146102600D01*
X139676100Y-146402600D02*
X137376100Y-146402600D01*
X139376100Y-146102600D02*
X139776100Y-145702600D01*
X137920100Y-150864600D02*
X137920100Y-150531600D01*
X137920100Y-150531600D02*
X137920100Y-150453600D01*
X137920100Y-150531600D02*
X137158100Y-150531600D01*
X137920100Y-150453600D02*
X140017100Y-150453600D01*
X137920100Y-150453600D02*
X137920100Y-150015600D01*
X137920100Y-150015600D02*
X137923100Y-150015600D01*
X137376100Y-149202600D02*
X140576100Y-149202600D01*
X137376100Y-146402600D02*
X137376100Y-149202600D01*
X137158100Y-150531600D02*
X137107100Y-150411600D01*
X137107100Y-150414600D02*
X137107100Y-150411600D01*
X136645100Y-150414600D02*
X137107100Y-150414600D01*
X136642100Y-150414600D02*
X136291100Y-150414600D01*
X136288100Y-150912600D02*
X132019100Y-150912600D01*
X136288100Y-150012600D02*
X136288100Y-150912600D01*
X136288100Y-149982600D02*
X136288100Y-150012600D01*
X136270100Y-136293600D02*
X141679100Y-136293600D01*
X136270100Y-136293600D02*
X132019100Y-136293600D01*
X136270100Y-135342600D02*
X136270100Y-136293600D01*
X134281100Y-149463600D02*
X143659100Y-149463600D01*
X134281100Y-146655600D02*
X134408100Y-146652600D01*
X134281100Y-146655600D02*
X134281100Y-149463600D01*
X133729100Y-149982600D02*
X136288100Y-149982600D01*
X133729100Y-149634600D02*
X133729100Y-149982600D01*
X132316100Y-149634600D02*
X133729100Y-149634600D01*
X132313100Y-149634600D02*
X132019100Y-149634600D01*
X132019100Y-150912600D02*
X132019100Y-149634600D01*
X132019100Y-149634600D02*
X132019100Y-136293600D01*
X132019100Y-136293600D02*
X132019100Y-135342600D01*
X132019100Y-135342600D02*
X136270100Y-135342600D01*
D10*
X130721100Y-152628600D02*
X147231100Y-152628600D01*
X129451100Y-134848600D02*
X129451100Y-151358600D01*
X147231100Y-152628600D02*
G75*
G03*
X148501100Y-151358600I1J1269999D01*
G01*
X148501100Y-134848600D02*
G75*
G03*
X147231100Y-133578600I-1269999J1D01*
G01*
X129451100Y-151358600D02*
G75*
G03*
X130721100Y-152628600I1270000J0D01*
G01*
X130721100Y-133578600D02*
G75*
G03*
X129451100Y-134848600I0J-1270000D01*
G01*
X148785078Y-146151600D02*
G75*
G03*
X148785078Y-146151600I-283978J0D01*
G01*
X148785078Y-145135600D02*
G75*
G03*
X148785078Y-145135600I-283978J0D01*
G01*
X139768078Y-152628600D02*
G75*
G03*
X139768078Y-152628600I-283978J0D01*
G01*
X139768078Y-133578600D02*
G75*
G03*
X139768078Y-133578600I-283978J0D01*
G01*
D11*
X140076100Y-147802600D02*
G75*
G03*
X140076100Y-147802600I-1100000J0D01*
G01*
D10*
X138752078Y-152628600D02*
G75*
G03*
X138752078Y-152628600I-283978J0D01*
G01*
X138752078Y-133578600D02*
G75*
G03*
X138752078Y-133578600I-283978J0D01*
G01*
X129735078Y-146151600D02*
G75*
G03*
X129735078Y-146151600I-283978J0D01*
G01*
X129735078Y-145135600D02*
G75*
G03*
X129735078Y-145135600I-283978J0D01*
G01*
%TO.C,X12*%
X205651100Y-94208600D02*
X205651100Y-77698600D01*
X204381100Y-76428600D02*
X187871100Y-76428600D01*
D11*
X203050100Y-93762600D02*
X198826100Y-93762600D01*
X203050100Y-92484600D02*
X203050100Y-93762600D01*
X203050100Y-78198600D02*
X203050100Y-92484600D01*
X203044100Y-79143600D02*
X203044100Y-79146600D01*
X201361100Y-92835600D02*
X201361100Y-92484600D01*
X201361100Y-92484600D02*
X203050100Y-92484600D01*
X200812100Y-91461600D02*
X198790100Y-91461600D01*
X200809100Y-92313600D02*
X200809100Y-89505600D01*
X200809100Y-89505600D02*
X191431100Y-89505600D01*
X198838100Y-78198600D02*
X203050100Y-78198600D01*
X198829100Y-92835600D02*
X201361100Y-92835600D01*
X198829100Y-92835600D02*
X198829100Y-92949600D01*
X198829100Y-79143600D02*
X203044100Y-79143600D01*
X198829100Y-79143600D02*
X198829100Y-78198600D01*
X198826100Y-93762600D02*
X198826100Y-92862600D01*
X198826100Y-92862600D02*
X193438100Y-92862600D01*
X198790100Y-91461600D02*
X198790100Y-89511600D01*
X198031100Y-93261600D02*
X198817100Y-93261600D01*
X197944100Y-93378600D02*
X198031100Y-93261600D01*
X197944100Y-93378600D02*
X197185100Y-93378600D01*
X197726100Y-92052600D02*
X197726100Y-90152600D01*
X197726100Y-90152600D02*
X197726100Y-89252600D01*
X197726100Y-90152600D02*
X196826100Y-89252600D01*
X197726100Y-89252600D02*
X196826100Y-89252600D01*
X197185100Y-93378600D02*
X197185100Y-93375600D01*
X197179100Y-93714600D02*
X195070100Y-93714600D01*
X197179100Y-93570600D02*
X197179100Y-93714600D01*
X197179100Y-93552600D02*
X197179100Y-92865600D01*
X197179100Y-92865600D02*
X197176100Y-92865600D01*
X196926100Y-88552600D02*
X197726100Y-89252600D01*
X196826100Y-89252600D02*
X196526100Y-88952600D01*
X196826100Y-89252600D02*
X194526100Y-89252600D01*
X196526100Y-88952600D02*
X196926100Y-88552600D01*
X195070100Y-93714600D02*
X195070100Y-93381600D01*
X195070100Y-93381600D02*
X195070100Y-93303600D01*
X195070100Y-93381600D02*
X194308100Y-93381600D01*
X195070100Y-93303600D02*
X197167100Y-93303600D01*
X195070100Y-93303600D02*
X195070100Y-92865600D01*
X195070100Y-92865600D02*
X195073100Y-92865600D01*
X194526100Y-92052600D02*
X197726100Y-92052600D01*
X194526100Y-89252600D02*
X194526100Y-92052600D01*
X194308100Y-93381600D02*
X194257100Y-93261600D01*
X194257100Y-93264600D02*
X194257100Y-93261600D01*
X193795100Y-93264600D02*
X194257100Y-93264600D01*
X193792100Y-93264600D02*
X193441100Y-93264600D01*
X193438100Y-93762600D02*
X189169100Y-93762600D01*
X193438100Y-92862600D02*
X193438100Y-93762600D01*
X193438100Y-92832600D02*
X193438100Y-92862600D01*
X193420100Y-79143600D02*
X198829100Y-79143600D01*
X193420100Y-79143600D02*
X189169100Y-79143600D01*
X193420100Y-78192600D02*
X193420100Y-79143600D01*
X191431100Y-92313600D02*
X200809100Y-92313600D01*
X191431100Y-89505600D02*
X191558100Y-89502600D01*
X191431100Y-89505600D02*
X191431100Y-92313600D01*
X190879100Y-92832600D02*
X193438100Y-92832600D01*
X190879100Y-92484600D02*
X190879100Y-92832600D01*
X189466100Y-92484600D02*
X190879100Y-92484600D01*
X189463100Y-92484600D02*
X189169100Y-92484600D01*
X189169100Y-93762600D02*
X189169100Y-92484600D01*
X189169100Y-92484600D02*
X189169100Y-79143600D01*
X189169100Y-79143600D02*
X189169100Y-78192600D01*
X189169100Y-78192600D02*
X193420100Y-78192600D01*
D10*
X187871100Y-95478600D02*
X204381100Y-95478600D01*
X186601100Y-77698600D02*
X186601100Y-94208600D01*
X204381100Y-95478600D02*
G75*
G03*
X205651100Y-94208600I1J1269999D01*
G01*
X205651100Y-77698600D02*
G75*
G03*
X204381100Y-76428600I-1269999J1D01*
G01*
X186601100Y-94208600D02*
G75*
G03*
X187871100Y-95478600I1270000J0D01*
G01*
X187871100Y-76428600D02*
G75*
G03*
X186601100Y-77698600I0J-1270000D01*
G01*
X205905100Y-89001600D02*
G75*
G03*
X205905100Y-89001600I-254000J0D01*
G01*
X205935078Y-87585600D02*
G75*
G03*
X205935078Y-87585600I-283978J0D01*
G01*
X196918078Y-95478600D02*
G75*
G03*
X196918078Y-95478600I-283978J0D01*
G01*
X196918078Y-76428600D02*
G75*
G03*
X196918078Y-76428600I-283978J0D01*
G01*
D11*
X197226100Y-90652600D02*
G75*
G03*
X197226100Y-90652600I-1100000J0D01*
G01*
D10*
X195872100Y-95478600D02*
G75*
G03*
X195872100Y-95478600I-254000J0D01*
G01*
X195872100Y-76428600D02*
G75*
G03*
X195872100Y-76428600I-254000J0D01*
G01*
X186855100Y-89001600D02*
G75*
G03*
X186855100Y-89001600I-254000J0D01*
G01*
X186885078Y-87985600D02*
G75*
G03*
X186885078Y-87985600I-283978J0D01*
G01*
%TO.C,X28*%
X167551100Y-151358600D02*
X167551100Y-134848600D01*
X166281100Y-133578600D02*
X149771100Y-133578600D01*
D11*
X164950100Y-150912600D02*
X160726100Y-150912600D01*
X164950100Y-149634600D02*
X164950100Y-150912600D01*
X164950100Y-135348600D02*
X164950100Y-149634600D01*
X164944100Y-136293600D02*
X164944100Y-136296600D01*
X163261100Y-149985600D02*
X163261100Y-149634600D01*
X163261100Y-149634600D02*
X164950100Y-149634600D01*
X162712100Y-148611600D02*
X160690100Y-148611600D01*
X162709100Y-149463600D02*
X162709100Y-146655600D01*
X162709100Y-146655600D02*
X153331100Y-146655600D01*
X160738100Y-135348600D02*
X164950100Y-135348600D01*
X160729100Y-149985600D02*
X163261100Y-149985600D01*
X160729100Y-149985600D02*
X160729100Y-150099600D01*
X160729100Y-136293600D02*
X164944100Y-136293600D01*
X160729100Y-136293600D02*
X160729100Y-135348600D01*
X160726100Y-150912600D02*
X160726100Y-150012600D01*
X160726100Y-150012600D02*
X155338100Y-150012600D01*
X160690100Y-148611600D02*
X160690100Y-146661600D01*
X159931100Y-150411600D02*
X160717100Y-150411600D01*
X159844100Y-150528600D02*
X159931100Y-150411600D01*
X159844100Y-150528600D02*
X159085100Y-150528600D01*
X159626100Y-149202600D02*
X159626100Y-147302600D01*
X159626100Y-147302600D02*
X159626100Y-146402600D01*
X159626100Y-147302600D02*
X158726100Y-146402600D01*
X159626100Y-146402600D02*
X158726100Y-146402600D01*
X159085100Y-150528600D02*
X159085100Y-150525600D01*
X159079100Y-150864600D02*
X156970100Y-150864600D01*
X159079100Y-150720600D02*
X159079100Y-150864600D01*
X159079100Y-150702600D02*
X159079100Y-150015600D01*
X159079100Y-150015600D02*
X159076100Y-150015600D01*
X158826100Y-145702600D02*
X159626100Y-146402600D01*
X158726100Y-146402600D02*
X158426100Y-146102600D01*
X158726100Y-146402600D02*
X156426100Y-146402600D01*
X158426100Y-146102600D02*
X158826100Y-145702600D01*
X156970100Y-150864600D02*
X156970100Y-150531600D01*
X156970100Y-150531600D02*
X156970100Y-150453600D01*
X156970100Y-150531600D02*
X156208100Y-150531600D01*
X156970100Y-150453600D02*
X159067100Y-150453600D01*
X156970100Y-150453600D02*
X156970100Y-150015600D01*
X156970100Y-150015600D02*
X156973100Y-150015600D01*
X156426100Y-149202600D02*
X159626100Y-149202600D01*
X156426100Y-146402600D02*
X156426100Y-149202600D01*
X156208100Y-150531600D02*
X156157100Y-150411600D01*
X156157100Y-150414600D02*
X156157100Y-150411600D01*
X155695100Y-150414600D02*
X156157100Y-150414600D01*
X155692100Y-150414600D02*
X155341100Y-150414600D01*
X155338100Y-150912600D02*
X151069100Y-150912600D01*
X155338100Y-150012600D02*
X155338100Y-150912600D01*
X155338100Y-149982600D02*
X155338100Y-150012600D01*
X155320100Y-136293600D02*
X160729100Y-136293600D01*
X155320100Y-136293600D02*
X151069100Y-136293600D01*
X155320100Y-135342600D02*
X155320100Y-136293600D01*
X153331100Y-149463600D02*
X162709100Y-149463600D01*
X153331100Y-146655600D02*
X153458100Y-146652600D01*
X153331100Y-146655600D02*
X153331100Y-149463600D01*
X152779100Y-149982600D02*
X155338100Y-149982600D01*
X152779100Y-149634600D02*
X152779100Y-149982600D01*
X151366100Y-149634600D02*
X152779100Y-149634600D01*
X151363100Y-149634600D02*
X151069100Y-149634600D01*
X151069100Y-150912600D02*
X151069100Y-149634600D01*
X151069100Y-149634600D02*
X151069100Y-136293600D01*
X151069100Y-136293600D02*
X151069100Y-135342600D01*
X151069100Y-135342600D02*
X155320100Y-135342600D01*
D10*
X149771100Y-152628600D02*
X166281100Y-152628600D01*
X148501100Y-134848600D02*
X148501100Y-151358600D01*
X166281100Y-152628600D02*
G75*
G03*
X167551100Y-151358600I1J1269999D01*
G01*
X167551100Y-134848600D02*
G75*
G03*
X166281100Y-133578600I-1269999J1D01*
G01*
X148501100Y-151358600D02*
G75*
G03*
X149771100Y-152628600I1270000J0D01*
G01*
X149771100Y-133578600D02*
G75*
G03*
X148501100Y-134848600I0J-1270000D01*
G01*
X167835078Y-146151600D02*
G75*
G03*
X167835078Y-146151600I-283978J0D01*
G01*
X167835078Y-145135600D02*
G75*
G03*
X167835078Y-145135600I-283978J0D01*
G01*
X158818078Y-152628600D02*
G75*
G03*
X158818078Y-152628600I-283978J0D01*
G01*
X158818078Y-133578600D02*
G75*
G03*
X158818078Y-133578600I-283978J0D01*
G01*
D11*
X159126100Y-147802600D02*
G75*
G03*
X159126100Y-147802600I-1100000J0D01*
G01*
D10*
X157802078Y-152628600D02*
G75*
G03*
X157802078Y-152628600I-283978J0D01*
G01*
X157802078Y-133578600D02*
G75*
G03*
X157802078Y-133578600I-283978J0D01*
G01*
X148785078Y-146151600D02*
G75*
G03*
X148785078Y-146151600I-283978J0D01*
G01*
X148785078Y-145135600D02*
G75*
G03*
X148785078Y-145135600I-283978J0D01*
G01*
%TO.C,X7*%
X110401100Y-94208600D02*
X110401100Y-77698600D01*
X109131100Y-76428600D02*
X92621100Y-76428600D01*
D11*
X107800100Y-93762600D02*
X103576100Y-93762600D01*
X107800100Y-92484600D02*
X107800100Y-93762600D01*
X107800100Y-78198600D02*
X107800100Y-92484600D01*
X107794100Y-79143600D02*
X107794100Y-79146600D01*
X106111100Y-92835600D02*
X106111100Y-92484600D01*
X106111100Y-92484600D02*
X107800100Y-92484600D01*
X105562100Y-91461600D02*
X103540100Y-91461600D01*
X105559100Y-92313600D02*
X105559100Y-89505600D01*
X105559100Y-89505600D02*
X96181100Y-89505600D01*
X103588100Y-78198600D02*
X107800100Y-78198600D01*
X103579100Y-92835600D02*
X106111100Y-92835600D01*
X103579100Y-92835600D02*
X103579100Y-92949600D01*
X103579100Y-79143600D02*
X107794100Y-79143600D01*
X103579100Y-79143600D02*
X103579100Y-78198600D01*
X103576100Y-93762600D02*
X103576100Y-92862600D01*
X103576100Y-92862600D02*
X98188100Y-92862600D01*
X103540100Y-91461600D02*
X103540100Y-89511600D01*
X102781100Y-93261600D02*
X103567100Y-93261600D01*
X102694100Y-93378600D02*
X102781100Y-93261600D01*
X102694100Y-93378600D02*
X101935100Y-93378600D01*
X102476100Y-92052600D02*
X102476100Y-90152600D01*
X102476100Y-90152600D02*
X102476100Y-89252600D01*
X102476100Y-90152600D02*
X101576100Y-89252600D01*
X102476100Y-89252600D02*
X101576100Y-89252600D01*
X101935100Y-93378600D02*
X101935100Y-93375600D01*
X101929100Y-93714600D02*
X99820100Y-93714600D01*
X101929100Y-93570600D02*
X101929100Y-93714600D01*
X101929100Y-93552600D02*
X101929100Y-92865600D01*
X101929100Y-92865600D02*
X101926100Y-92865600D01*
X101676100Y-88552600D02*
X102476100Y-89252600D01*
X101576100Y-89252600D02*
X101276100Y-88952600D01*
X101576100Y-89252600D02*
X99276100Y-89252600D01*
X101276100Y-88952600D02*
X101676100Y-88552600D01*
X99820100Y-93714600D02*
X99820100Y-93381600D01*
X99820100Y-93381600D02*
X99820100Y-93303600D01*
X99820100Y-93381600D02*
X99058100Y-93381600D01*
X99820100Y-93303600D02*
X101917100Y-93303600D01*
X99820100Y-93303600D02*
X99820100Y-92865600D01*
X99820100Y-92865600D02*
X99823100Y-92865600D01*
X99276100Y-92052600D02*
X102476100Y-92052600D01*
X99276100Y-89252600D02*
X99276100Y-92052600D01*
X99058100Y-93381600D02*
X99007100Y-93261600D01*
X99007100Y-93264600D02*
X99007100Y-93261600D01*
X98545100Y-93264600D02*
X99007100Y-93264600D01*
X98542100Y-93264600D02*
X98191100Y-93264600D01*
X98188100Y-93762600D02*
X93919100Y-93762600D01*
X98188100Y-92862600D02*
X98188100Y-93762600D01*
X98188100Y-92832600D02*
X98188100Y-92862600D01*
X98170100Y-79143600D02*
X103579100Y-79143600D01*
X98170100Y-79143600D02*
X93919100Y-79143600D01*
X98170100Y-78192600D02*
X98170100Y-79143600D01*
X96181100Y-92313600D02*
X105559100Y-92313600D01*
X96181100Y-89505600D02*
X96308100Y-89502600D01*
X96181100Y-89505600D02*
X96181100Y-92313600D01*
X95629100Y-92832600D02*
X98188100Y-92832600D01*
X95629100Y-92484600D02*
X95629100Y-92832600D01*
X94216100Y-92484600D02*
X95629100Y-92484600D01*
X94213100Y-92484600D02*
X93919100Y-92484600D01*
X93919100Y-93762600D02*
X93919100Y-92484600D01*
X93919100Y-92484600D02*
X93919100Y-79143600D01*
X93919100Y-79143600D02*
X93919100Y-78192600D01*
X93919100Y-78192600D02*
X98170100Y-78192600D01*
D10*
X92621100Y-95478600D02*
X109131100Y-95478600D01*
X91351100Y-77698600D02*
X91351100Y-94208600D01*
X109131100Y-95478600D02*
G75*
G03*
X110401100Y-94208600I1J1269999D01*
G01*
X110401100Y-77698600D02*
G75*
G03*
X109131100Y-76428600I-1269999J1D01*
G01*
X91351100Y-94208600D02*
G75*
G03*
X92621100Y-95478600I1270000J0D01*
G01*
X92621100Y-76428600D02*
G75*
G03*
X91351100Y-77698600I0J-1270000D01*
G01*
X110655100Y-89001600D02*
G75*
G03*
X110655100Y-89001600I-254000J0D01*
G01*
X110685078Y-87585600D02*
G75*
G03*
X110685078Y-87585600I-283978J0D01*
G01*
X101668078Y-95478600D02*
G75*
G03*
X101668078Y-95478600I-283978J0D01*
G01*
X101668078Y-76428600D02*
G75*
G03*
X101668078Y-76428600I-283978J0D01*
G01*
D11*
X101976100Y-90652600D02*
G75*
G03*
X101976100Y-90652600I-1100000J0D01*
G01*
D10*
X100622100Y-95478600D02*
G75*
G03*
X100622100Y-95478600I-254000J0D01*
G01*
X100622100Y-76428600D02*
G75*
G03*
X100622100Y-76428600I-254000J0D01*
G01*
X91605100Y-89001600D02*
G75*
G03*
X91605100Y-89001600I-254000J0D01*
G01*
X91635078Y-87985600D02*
G75*
G03*
X91635078Y-87985600I-283978J0D01*
G01*
%TO.C,X14*%
X129451100Y-113258600D02*
X129451100Y-96748600D01*
X128181100Y-95478600D02*
X111671100Y-95478600D01*
D11*
X126850100Y-112812600D02*
X122626100Y-112812600D01*
X126850100Y-111534600D02*
X126850100Y-112812600D01*
X126850100Y-97248600D02*
X126850100Y-111534600D01*
X126844100Y-98193600D02*
X126844100Y-98196600D01*
X125161100Y-111885600D02*
X125161100Y-111534600D01*
X125161100Y-111534600D02*
X126850100Y-111534600D01*
X124612100Y-110511600D02*
X122590100Y-110511600D01*
X124609100Y-111363600D02*
X124609100Y-108555600D01*
X124609100Y-108555600D02*
X115231100Y-108555600D01*
X122638100Y-97248600D02*
X126850100Y-97248600D01*
X122629100Y-111885600D02*
X125161100Y-111885600D01*
X122629100Y-111885600D02*
X122629100Y-111999600D01*
X122629100Y-98193600D02*
X126844100Y-98193600D01*
X122629100Y-98193600D02*
X122629100Y-97248600D01*
X122626100Y-112812600D02*
X122626100Y-111912600D01*
X122626100Y-111912600D02*
X117238100Y-111912600D01*
X122590100Y-110511600D02*
X122590100Y-108561600D01*
X121831100Y-112311600D02*
X122617100Y-112311600D01*
X121744100Y-112428600D02*
X121831100Y-112311600D01*
X121744100Y-112428600D02*
X120985100Y-112428600D01*
X121526100Y-111102600D02*
X121526100Y-109202600D01*
X121526100Y-109202600D02*
X121526100Y-108302600D01*
X121526100Y-109202600D02*
X120626100Y-108302600D01*
X121526100Y-108302600D02*
X120626100Y-108302600D01*
X120985100Y-112428600D02*
X120985100Y-112425600D01*
X120979100Y-112764600D02*
X118870100Y-112764600D01*
X120979100Y-112620600D02*
X120979100Y-112764600D01*
X120979100Y-112602600D02*
X120979100Y-111915600D01*
X120979100Y-111915600D02*
X120976100Y-111915600D01*
X120726100Y-107602600D02*
X121526100Y-108302600D01*
X120626100Y-108302600D02*
X120326100Y-108002600D01*
X120626100Y-108302600D02*
X118326100Y-108302600D01*
X120326100Y-108002600D02*
X120726100Y-107602600D01*
X118870100Y-112764600D02*
X118870100Y-112431600D01*
X118870100Y-112431600D02*
X118870100Y-112353600D01*
X118870100Y-112431600D02*
X118108100Y-112431600D01*
X118870100Y-112353600D02*
X120967100Y-112353600D01*
X118870100Y-112353600D02*
X118870100Y-111915600D01*
X118870100Y-111915600D02*
X118873100Y-111915600D01*
X118326100Y-111102600D02*
X121526100Y-111102600D01*
X118326100Y-108302600D02*
X118326100Y-111102600D01*
X118108100Y-112431600D02*
X118057100Y-112311600D01*
X118057100Y-112314600D02*
X118057100Y-112311600D01*
X117595100Y-112314600D02*
X118057100Y-112314600D01*
X117592100Y-112314600D02*
X117241100Y-112314600D01*
X117238100Y-112812600D02*
X112969100Y-112812600D01*
X117238100Y-111912600D02*
X117238100Y-112812600D01*
X117238100Y-111882600D02*
X117238100Y-111912600D01*
X117220100Y-98193600D02*
X122629100Y-98193600D01*
X117220100Y-98193600D02*
X112969100Y-98193600D01*
X117220100Y-97242600D02*
X117220100Y-98193600D01*
X115231100Y-111363600D02*
X124609100Y-111363600D01*
X115231100Y-108555600D02*
X115358100Y-108552600D01*
X115231100Y-108555600D02*
X115231100Y-111363600D01*
X114679100Y-111882600D02*
X117238100Y-111882600D01*
X114679100Y-111534600D02*
X114679100Y-111882600D01*
X113266100Y-111534600D02*
X114679100Y-111534600D01*
X113263100Y-111534600D02*
X112969100Y-111534600D01*
X112969100Y-112812600D02*
X112969100Y-111534600D01*
X112969100Y-111534600D02*
X112969100Y-98193600D01*
X112969100Y-98193600D02*
X112969100Y-97242600D01*
X112969100Y-97242600D02*
X117220100Y-97242600D01*
D10*
X111671100Y-114528600D02*
X128181100Y-114528600D01*
X110401100Y-96748600D02*
X110401100Y-113258600D01*
X128181100Y-114528600D02*
G75*
G03*
X129451100Y-113258600I1J1269999D01*
G01*
X129451100Y-96748600D02*
G75*
G03*
X128181100Y-95478600I-1269999J1D01*
G01*
X110401100Y-113258600D02*
G75*
G03*
X111671100Y-114528600I1270000J0D01*
G01*
X111671100Y-95478600D02*
G75*
G03*
X110401100Y-96748600I0J-1270000D01*
G01*
X129735078Y-108051600D02*
G75*
G03*
X129735078Y-108051600I-283978J0D01*
G01*
X129735078Y-107035600D02*
G75*
G03*
X129735078Y-107035600I-283978J0D01*
G01*
X120718078Y-114528600D02*
G75*
G03*
X120718078Y-114528600I-283978J0D01*
G01*
X120718078Y-95478600D02*
G75*
G03*
X120718078Y-95478600I-283978J0D01*
G01*
D11*
X121026100Y-109702600D02*
G75*
G03*
X121026100Y-109702600I-1100000J0D01*
G01*
D10*
X119702078Y-114528600D02*
G75*
G03*
X119702078Y-114528600I-283978J0D01*
G01*
X119702078Y-95478600D02*
G75*
G03*
X119702078Y-95478600I-283978J0D01*
G01*
X110685078Y-108051600D02*
G75*
G03*
X110685078Y-108051600I-283978J0D01*
G01*
X110685078Y-107035600D02*
G75*
G03*
X110685078Y-107035600I-283978J0D01*
G01*
%TO.C,X17*%
X186601100Y-113258600D02*
X186601100Y-96748600D01*
X185331100Y-95478600D02*
X168821100Y-95478600D01*
D11*
X184000100Y-112812600D02*
X179776100Y-112812600D01*
X184000100Y-111534600D02*
X184000100Y-112812600D01*
X184000100Y-97248600D02*
X184000100Y-111534600D01*
X183994100Y-98193600D02*
X183994100Y-98196600D01*
X182311100Y-111885600D02*
X182311100Y-111534600D01*
X182311100Y-111534600D02*
X184000100Y-111534600D01*
X181762100Y-110511600D02*
X179740100Y-110511600D01*
X181759100Y-111363600D02*
X181759100Y-108555600D01*
X181759100Y-108555600D02*
X172381100Y-108555600D01*
X179788100Y-97248600D02*
X184000100Y-97248600D01*
X179779100Y-111885600D02*
X182311100Y-111885600D01*
X179779100Y-111885600D02*
X179779100Y-111999600D01*
X179779100Y-98193600D02*
X183994100Y-98193600D01*
X179779100Y-98193600D02*
X179779100Y-97248600D01*
X179776100Y-112812600D02*
X179776100Y-111912600D01*
X179776100Y-111912600D02*
X174388100Y-111912600D01*
X179740100Y-110511600D02*
X179740100Y-108561600D01*
X178981100Y-112311600D02*
X179767100Y-112311600D01*
X178894100Y-112428600D02*
X178981100Y-112311600D01*
X178894100Y-112428600D02*
X178135100Y-112428600D01*
X178676100Y-111102600D02*
X178676100Y-109202600D01*
X178676100Y-109202600D02*
X178676100Y-108302600D01*
X178676100Y-109202600D02*
X177776100Y-108302600D01*
X178676100Y-108302600D02*
X177776100Y-108302600D01*
X178135100Y-112428600D02*
X178135100Y-112425600D01*
X178129100Y-112764600D02*
X176020100Y-112764600D01*
X178129100Y-112620600D02*
X178129100Y-112764600D01*
X178129100Y-112602600D02*
X178129100Y-111915600D01*
X178129100Y-111915600D02*
X178126100Y-111915600D01*
X177876100Y-107602600D02*
X178676100Y-108302600D01*
X177776100Y-108302600D02*
X177476100Y-108002600D01*
X177776100Y-108302600D02*
X175476100Y-108302600D01*
X177476100Y-108002600D02*
X177876100Y-107602600D01*
X176020100Y-112764600D02*
X176020100Y-112431600D01*
X176020100Y-112431600D02*
X176020100Y-112353600D01*
X176020100Y-112431600D02*
X175258100Y-112431600D01*
X176020100Y-112353600D02*
X178117100Y-112353600D01*
X176020100Y-112353600D02*
X176020100Y-111915600D01*
X176020100Y-111915600D02*
X176023100Y-111915600D01*
X175476100Y-111102600D02*
X178676100Y-111102600D01*
X175476100Y-108302600D02*
X175476100Y-111102600D01*
X175258100Y-112431600D02*
X175207100Y-112311600D01*
X175207100Y-112314600D02*
X175207100Y-112311600D01*
X174745100Y-112314600D02*
X175207100Y-112314600D01*
X174742100Y-112314600D02*
X174391100Y-112314600D01*
X174388100Y-112812600D02*
X170119100Y-112812600D01*
X174388100Y-111912600D02*
X174388100Y-112812600D01*
X174388100Y-111882600D02*
X174388100Y-111912600D01*
X174370100Y-98193600D02*
X179779100Y-98193600D01*
X174370100Y-98193600D02*
X170119100Y-98193600D01*
X174370100Y-97242600D02*
X174370100Y-98193600D01*
X172381100Y-111363600D02*
X181759100Y-111363600D01*
X172381100Y-108555600D02*
X172508100Y-108552600D01*
X172381100Y-108555600D02*
X172381100Y-111363600D01*
X171829100Y-111882600D02*
X174388100Y-111882600D01*
X171829100Y-111534600D02*
X171829100Y-111882600D01*
X170416100Y-111534600D02*
X171829100Y-111534600D01*
X170413100Y-111534600D02*
X170119100Y-111534600D01*
X170119100Y-112812600D02*
X170119100Y-111534600D01*
X170119100Y-111534600D02*
X170119100Y-98193600D01*
X170119100Y-98193600D02*
X170119100Y-97242600D01*
X170119100Y-97242600D02*
X174370100Y-97242600D01*
D10*
X168821100Y-114528600D02*
X185331100Y-114528600D01*
X167551100Y-96748600D02*
X167551100Y-113258600D01*
X185331100Y-114528600D02*
G75*
G03*
X186601100Y-113258600I1J1269999D01*
G01*
X186601100Y-96748600D02*
G75*
G03*
X185331100Y-95478600I-1269999J1D01*
G01*
X167551100Y-113258600D02*
G75*
G03*
X168821100Y-114528600I1270000J0D01*
G01*
X168821100Y-95478600D02*
G75*
G03*
X167551100Y-96748600I0J-1270000D01*
G01*
X186885078Y-108051600D02*
G75*
G03*
X186885078Y-108051600I-283978J0D01*
G01*
X186885078Y-107035600D02*
G75*
G03*
X186885078Y-107035600I-283978J0D01*
G01*
X177868078Y-114528600D02*
G75*
G03*
X177868078Y-114528600I-283978J0D01*
G01*
X177868078Y-95478600D02*
G75*
G03*
X177868078Y-95478600I-283978J0D01*
G01*
D11*
X178176100Y-109702600D02*
G75*
G03*
X178176100Y-109702600I-1100000J0D01*
G01*
D10*
X176852078Y-114528600D02*
G75*
G03*
X176852078Y-114528600I-283978J0D01*
G01*
X176852078Y-95478600D02*
G75*
G03*
X176852078Y-95478600I-283978J0D01*
G01*
X167835078Y-108051600D02*
G75*
G03*
X167835078Y-108051600I-283978J0D01*
G01*
X167835078Y-107035600D02*
G75*
G03*
X167835078Y-107035600I-283978J0D01*
G01*
%TO.C,X15*%
X148501100Y-113258600D02*
X148501100Y-96748600D01*
X147231100Y-95478600D02*
X130721100Y-95478600D01*
D11*
X145900100Y-112812600D02*
X141676100Y-112812600D01*
X145900100Y-111534600D02*
X145900100Y-112812600D01*
X145900100Y-97248600D02*
X145900100Y-111534600D01*
X145894100Y-98193600D02*
X145894100Y-98196600D01*
X144211100Y-111885600D02*
X144211100Y-111534600D01*
X144211100Y-111534600D02*
X145900100Y-111534600D01*
X143662100Y-110511600D02*
X141640100Y-110511600D01*
X143659100Y-111363600D02*
X143659100Y-108555600D01*
X143659100Y-108555600D02*
X134281100Y-108555600D01*
X141688100Y-97248600D02*
X145900100Y-97248600D01*
X141679100Y-111885600D02*
X144211100Y-111885600D01*
X141679100Y-111885600D02*
X141679100Y-111999600D01*
X141679100Y-98193600D02*
X145894100Y-98193600D01*
X141679100Y-98193600D02*
X141679100Y-97248600D01*
X141676100Y-112812600D02*
X141676100Y-111912600D01*
X141676100Y-111912600D02*
X136288100Y-111912600D01*
X141640100Y-110511600D02*
X141640100Y-108561600D01*
X140881100Y-112311600D02*
X141667100Y-112311600D01*
X140794100Y-112428600D02*
X140881100Y-112311600D01*
X140794100Y-112428600D02*
X140035100Y-112428600D01*
X140576100Y-111102600D02*
X140576100Y-109202600D01*
X140576100Y-109202600D02*
X140576100Y-108302600D01*
X140576100Y-109202600D02*
X139676100Y-108302600D01*
X140576100Y-108302600D02*
X139676100Y-108302600D01*
X140035100Y-112428600D02*
X140035100Y-112425600D01*
X140029100Y-112764600D02*
X137920100Y-112764600D01*
X140029100Y-112620600D02*
X140029100Y-112764600D01*
X140029100Y-112602600D02*
X140029100Y-111915600D01*
X140029100Y-111915600D02*
X140026100Y-111915600D01*
X139776100Y-107602600D02*
X140576100Y-108302600D01*
X139676100Y-108302600D02*
X139376100Y-108002600D01*
X139676100Y-108302600D02*
X137376100Y-108302600D01*
X139376100Y-108002600D02*
X139776100Y-107602600D01*
X137920100Y-112764600D02*
X137920100Y-112431600D01*
X137920100Y-112431600D02*
X137920100Y-112353600D01*
X137920100Y-112431600D02*
X137158100Y-112431600D01*
X137920100Y-112353600D02*
X140017100Y-112353600D01*
X137920100Y-112353600D02*
X137920100Y-111915600D01*
X137920100Y-111915600D02*
X137923100Y-111915600D01*
X137376100Y-111102600D02*
X140576100Y-111102600D01*
X137376100Y-108302600D02*
X137376100Y-111102600D01*
X137158100Y-112431600D02*
X137107100Y-112311600D01*
X137107100Y-112314600D02*
X137107100Y-112311600D01*
X136645100Y-112314600D02*
X137107100Y-112314600D01*
X136642100Y-112314600D02*
X136291100Y-112314600D01*
X136288100Y-112812600D02*
X132019100Y-112812600D01*
X136288100Y-111912600D02*
X136288100Y-112812600D01*
X136288100Y-111882600D02*
X136288100Y-111912600D01*
X136270100Y-98193600D02*
X141679100Y-98193600D01*
X136270100Y-98193600D02*
X132019100Y-98193600D01*
X136270100Y-97242600D02*
X136270100Y-98193600D01*
X134281100Y-111363600D02*
X143659100Y-111363600D01*
X134281100Y-108555600D02*
X134408100Y-108552600D01*
X134281100Y-108555600D02*
X134281100Y-111363600D01*
X133729100Y-111882600D02*
X136288100Y-111882600D01*
X133729100Y-111534600D02*
X133729100Y-111882600D01*
X132316100Y-111534600D02*
X133729100Y-111534600D01*
X132313100Y-111534600D02*
X132019100Y-111534600D01*
X132019100Y-112812600D02*
X132019100Y-111534600D01*
X132019100Y-111534600D02*
X132019100Y-98193600D01*
X132019100Y-98193600D02*
X132019100Y-97242600D01*
X132019100Y-97242600D02*
X136270100Y-97242600D01*
D10*
X130721100Y-114528600D02*
X147231100Y-114528600D01*
X129451100Y-96748600D02*
X129451100Y-113258600D01*
X147231100Y-114528600D02*
G75*
G03*
X148501100Y-113258600I1J1269999D01*
G01*
X148501100Y-96748600D02*
G75*
G03*
X147231100Y-95478600I-1269999J1D01*
G01*
X129451100Y-113258600D02*
G75*
G03*
X130721100Y-114528600I1270000J0D01*
G01*
X130721100Y-95478600D02*
G75*
G03*
X129451100Y-96748600I0J-1270000D01*
G01*
X148785078Y-108051600D02*
G75*
G03*
X148785078Y-108051600I-283978J0D01*
G01*
X148785078Y-107035600D02*
G75*
G03*
X148785078Y-107035600I-283978J0D01*
G01*
X139768078Y-114528600D02*
G75*
G03*
X139768078Y-114528600I-283978J0D01*
G01*
X139768078Y-95478600D02*
G75*
G03*
X139768078Y-95478600I-283978J0D01*
G01*
D11*
X140076100Y-109702600D02*
G75*
G03*
X140076100Y-109702600I-1100000J0D01*
G01*
D10*
X138752078Y-114528600D02*
G75*
G03*
X138752078Y-114528600I-283978J0D01*
G01*
X138752078Y-95478600D02*
G75*
G03*
X138752078Y-95478600I-283978J0D01*
G01*
X129735078Y-108051600D02*
G75*
G03*
X129735078Y-108051600I-283978J0D01*
G01*
X129735078Y-107035600D02*
G75*
G03*
X129735078Y-107035600I-283978J0D01*
G01*
%TO.C,X18*%
X205651100Y-113258600D02*
X205651100Y-96748600D01*
X204381100Y-95478600D02*
X187871100Y-95478600D01*
D11*
X203050100Y-112812600D02*
X198826100Y-112812600D01*
X203050100Y-111534600D02*
X203050100Y-112812600D01*
X203050100Y-97248600D02*
X203050100Y-111534600D01*
X203044100Y-98193600D02*
X203044100Y-98196600D01*
X201361100Y-111885600D02*
X201361100Y-111534600D01*
X201361100Y-111534600D02*
X203050100Y-111534600D01*
X200812100Y-110511600D02*
X198790100Y-110511600D01*
X200809100Y-111363600D02*
X200809100Y-108555600D01*
X200809100Y-108555600D02*
X191431100Y-108555600D01*
X198838100Y-97248600D02*
X203050100Y-97248600D01*
X198829100Y-111885600D02*
X201361100Y-111885600D01*
X198829100Y-111885600D02*
X198829100Y-111999600D01*
X198829100Y-98193600D02*
X203044100Y-98193600D01*
X198829100Y-98193600D02*
X198829100Y-97248600D01*
X198826100Y-112812600D02*
X198826100Y-111912600D01*
X198826100Y-111912600D02*
X193438100Y-111912600D01*
X198790100Y-110511600D02*
X198790100Y-108561600D01*
X198031100Y-112311600D02*
X198817100Y-112311600D01*
X197944100Y-112428600D02*
X198031100Y-112311600D01*
X197944100Y-112428600D02*
X197185100Y-112428600D01*
X197726100Y-111102600D02*
X197726100Y-109202600D01*
X197726100Y-109202600D02*
X197726100Y-108302600D01*
X197726100Y-109202600D02*
X196826100Y-108302600D01*
X197726100Y-108302600D02*
X196826100Y-108302600D01*
X197185100Y-112428600D02*
X197185100Y-112425600D01*
X197179100Y-112764600D02*
X195070100Y-112764600D01*
X197179100Y-112620600D02*
X197179100Y-112764600D01*
X197179100Y-112602600D02*
X197179100Y-111915600D01*
X197179100Y-111915600D02*
X197176100Y-111915600D01*
X196926100Y-107602600D02*
X197726100Y-108302600D01*
X196826100Y-108302600D02*
X196526100Y-108002600D01*
X196826100Y-108302600D02*
X194526100Y-108302600D01*
X196526100Y-108002600D02*
X196926100Y-107602600D01*
X195070100Y-112764600D02*
X195070100Y-112431600D01*
X195070100Y-112431600D02*
X195070100Y-112353600D01*
X195070100Y-112431600D02*
X194308100Y-112431600D01*
X195070100Y-112353600D02*
X197167100Y-112353600D01*
X195070100Y-112353600D02*
X195070100Y-111915600D01*
X195070100Y-111915600D02*
X195073100Y-111915600D01*
X194526100Y-111102600D02*
X197726100Y-111102600D01*
X194526100Y-108302600D02*
X194526100Y-111102600D01*
X194308100Y-112431600D02*
X194257100Y-112311600D01*
X194257100Y-112314600D02*
X194257100Y-112311600D01*
X193795100Y-112314600D02*
X194257100Y-112314600D01*
X193792100Y-112314600D02*
X193441100Y-112314600D01*
X193438100Y-112812600D02*
X189169100Y-112812600D01*
X193438100Y-111912600D02*
X193438100Y-112812600D01*
X193438100Y-111882600D02*
X193438100Y-111912600D01*
X193420100Y-98193600D02*
X198829100Y-98193600D01*
X193420100Y-98193600D02*
X189169100Y-98193600D01*
X193420100Y-97242600D02*
X193420100Y-98193600D01*
X191431100Y-111363600D02*
X200809100Y-111363600D01*
X191431100Y-108555600D02*
X191558100Y-108552600D01*
X191431100Y-108555600D02*
X191431100Y-111363600D01*
X190879100Y-111882600D02*
X193438100Y-111882600D01*
X190879100Y-111534600D02*
X190879100Y-111882600D01*
X189466100Y-111534600D02*
X190879100Y-111534600D01*
X189463100Y-111534600D02*
X189169100Y-111534600D01*
X189169100Y-112812600D02*
X189169100Y-111534600D01*
X189169100Y-111534600D02*
X189169100Y-98193600D01*
X189169100Y-98193600D02*
X189169100Y-97242600D01*
X189169100Y-97242600D02*
X193420100Y-97242600D01*
D10*
X187871100Y-114528600D02*
X204381100Y-114528600D01*
X186601100Y-96748600D02*
X186601100Y-113258600D01*
X204381100Y-114528600D02*
G75*
G03*
X205651100Y-113258600I1J1269999D01*
G01*
X205651100Y-96748600D02*
G75*
G03*
X204381100Y-95478600I-1269999J1D01*
G01*
X186601100Y-113258600D02*
G75*
G03*
X187871100Y-114528600I1270000J0D01*
G01*
X187871100Y-95478600D02*
G75*
G03*
X186601100Y-96748600I0J-1270000D01*
G01*
X205935078Y-108051600D02*
G75*
G03*
X205935078Y-108051600I-283978J0D01*
G01*
X205935078Y-107035600D02*
G75*
G03*
X205935078Y-107035600I-283978J0D01*
G01*
X196918078Y-114528600D02*
G75*
G03*
X196918078Y-114528600I-283978J0D01*
G01*
X196918078Y-95478600D02*
G75*
G03*
X196918078Y-95478600I-283978J0D01*
G01*
D11*
X197226100Y-109702600D02*
G75*
G03*
X197226100Y-109702600I-1100000J0D01*
G01*
D10*
X195902078Y-114528600D02*
G75*
G03*
X195902078Y-114528600I-283978J0D01*
G01*
X195902078Y-95478600D02*
G75*
G03*
X195902078Y-95478600I-283978J0D01*
G01*
X186885078Y-108051600D02*
G75*
G03*
X186885078Y-108051600I-283978J0D01*
G01*
X186885078Y-107035600D02*
G75*
G03*
X186885078Y-107035600I-283978J0D01*
G01*
%TO.C,X1*%
X110401100Y-75158600D02*
X110401100Y-58648600D01*
X109131100Y-57378600D02*
X92621100Y-57378600D01*
D11*
X107800100Y-74712600D02*
X103576100Y-74712600D01*
X107800100Y-73434600D02*
X107800100Y-74712600D01*
X107800100Y-59148600D02*
X107800100Y-73434600D01*
X107794100Y-60093600D02*
X107794100Y-60096600D01*
X106111100Y-73785600D02*
X106111100Y-73434600D01*
X106111100Y-73434600D02*
X107800100Y-73434600D01*
X105562100Y-72411600D02*
X103540100Y-72411600D01*
X105559100Y-73263600D02*
X105559100Y-70455600D01*
X105559100Y-70455600D02*
X96181100Y-70455600D01*
X103588100Y-59148600D02*
X107800100Y-59148600D01*
X103579100Y-73785600D02*
X106111100Y-73785600D01*
X103579100Y-73785600D02*
X103579100Y-73899600D01*
X103579100Y-60093600D02*
X107794100Y-60093600D01*
X103579100Y-60093600D02*
X103579100Y-59148600D01*
X103576100Y-74712600D02*
X103576100Y-73812600D01*
X103576100Y-73812600D02*
X98188100Y-73812600D01*
X103540100Y-72411600D02*
X103540100Y-70461600D01*
X102781100Y-74211600D02*
X103567100Y-74211600D01*
X102694100Y-74328600D02*
X102781100Y-74211600D01*
X102694100Y-74328600D02*
X101935100Y-74328600D01*
X102476100Y-73002600D02*
X102476100Y-71102600D01*
X102476100Y-71102600D02*
X102476100Y-70202600D01*
X102476100Y-71102600D02*
X101576100Y-70202600D01*
X102476100Y-70202600D02*
X101576100Y-70202600D01*
X101935100Y-74328600D02*
X101935100Y-74325600D01*
X101929100Y-74664600D02*
X99820100Y-74664600D01*
X101929100Y-74520600D02*
X101929100Y-74664600D01*
X101929100Y-74502600D02*
X101929100Y-73815600D01*
X101929100Y-73815600D02*
X101926100Y-73815600D01*
X101676100Y-69502600D02*
X102476100Y-70202600D01*
X101576100Y-70202600D02*
X101276100Y-69902600D01*
X101576100Y-70202600D02*
X99276100Y-70202600D01*
X101276100Y-69902600D02*
X101676100Y-69502600D01*
X99820100Y-74664600D02*
X99820100Y-74331600D01*
X99820100Y-74331600D02*
X99820100Y-74253600D01*
X99820100Y-74331600D02*
X99058100Y-74331600D01*
X99820100Y-74253600D02*
X101917100Y-74253600D01*
X99820100Y-74253600D02*
X99820100Y-73815600D01*
X99820100Y-73815600D02*
X99823100Y-73815600D01*
X99276100Y-73002600D02*
X102476100Y-73002600D01*
X99276100Y-70202600D02*
X99276100Y-73002600D01*
X99058100Y-74331600D02*
X99007100Y-74211600D01*
X99007100Y-74214600D02*
X99007100Y-74211600D01*
X98545100Y-74214600D02*
X99007100Y-74214600D01*
X98542100Y-74214600D02*
X98191100Y-74214600D01*
X98188100Y-74712600D02*
X93919100Y-74712600D01*
X98188100Y-73812600D02*
X98188100Y-74712600D01*
X98188100Y-73782600D02*
X98188100Y-73812600D01*
X98170100Y-60093600D02*
X103579100Y-60093600D01*
X98170100Y-60093600D02*
X93919100Y-60093600D01*
X98170100Y-59142600D02*
X98170100Y-60093600D01*
X96181100Y-73263600D02*
X105559100Y-73263600D01*
X96181100Y-70455600D02*
X96308100Y-70452600D01*
X96181100Y-70455600D02*
X96181100Y-73263600D01*
X95629100Y-73782600D02*
X98188100Y-73782600D01*
X95629100Y-73434600D02*
X95629100Y-73782600D01*
X94216100Y-73434600D02*
X95629100Y-73434600D01*
X94213100Y-73434600D02*
X93919100Y-73434600D01*
X93919100Y-74712600D02*
X93919100Y-73434600D01*
X93919100Y-73434600D02*
X93919100Y-60093600D01*
X93919100Y-60093600D02*
X93919100Y-59142600D01*
X93919100Y-59142600D02*
X98170100Y-59142600D01*
D10*
X92621100Y-76428600D02*
X109131100Y-76428600D01*
X91351100Y-58648600D02*
X91351100Y-75158600D01*
X109131100Y-76428600D02*
G75*
G03*
X110401100Y-75158600I1J1269999D01*
G01*
X110401100Y-58648600D02*
G75*
G03*
X109131100Y-57378600I-1269999J1D01*
G01*
X91351100Y-75158600D02*
G75*
G03*
X92621100Y-76428600I1270000J0D01*
G01*
X92621100Y-57378600D02*
G75*
G03*
X91351100Y-58648600I0J-1270000D01*
G01*
X110685078Y-69951600D02*
G75*
G03*
X110685078Y-69951600I-283978J0D01*
G01*
X110685078Y-68935600D02*
G75*
G03*
X110685078Y-68935600I-283978J0D01*
G01*
X101668078Y-76428600D02*
G75*
G03*
X101668078Y-76428600I-283978J0D01*
G01*
X101668078Y-57378600D02*
G75*
G03*
X101668078Y-57378600I-283978J0D01*
G01*
D11*
X101976100Y-71602600D02*
G75*
G03*
X101976100Y-71602600I-1100000J0D01*
G01*
D10*
X100652078Y-76428600D02*
G75*
G03*
X100652078Y-76428600I-283978J0D01*
G01*
X100652078Y-57378600D02*
G75*
G03*
X100652078Y-57378600I-283978J0D01*
G01*
X91635078Y-69951600D02*
G75*
G03*
X91635078Y-69951600I-283978J0D01*
G01*
X91635078Y-68935600D02*
G75*
G03*
X91635078Y-68935600I-283978J0D01*
G01*
%TO.C,X16*%
X167551100Y-113258600D02*
X167551100Y-96748600D01*
X166281100Y-95478600D02*
X149771100Y-95478600D01*
D11*
X164950100Y-112812600D02*
X160726100Y-112812600D01*
X164950100Y-111534600D02*
X164950100Y-112812600D01*
X164950100Y-97248600D02*
X164950100Y-111534600D01*
X164944100Y-98193600D02*
X164944100Y-98196600D01*
X163261100Y-111885600D02*
X163261100Y-111534600D01*
X163261100Y-111534600D02*
X164950100Y-111534600D01*
X162712100Y-110511600D02*
X160690100Y-110511600D01*
X162709100Y-111363600D02*
X162709100Y-108555600D01*
X162709100Y-108555600D02*
X153331100Y-108555600D01*
X160738100Y-97248600D02*
X164950100Y-97248600D01*
X160729100Y-111885600D02*
X163261100Y-111885600D01*
X160729100Y-111885600D02*
X160729100Y-111999600D01*
X160729100Y-98193600D02*
X164944100Y-98193600D01*
X160729100Y-98193600D02*
X160729100Y-97248600D01*
X160726100Y-112812600D02*
X160726100Y-111912600D01*
X160726100Y-111912600D02*
X155338100Y-111912600D01*
X160690100Y-110511600D02*
X160690100Y-108561600D01*
X159931100Y-112311600D02*
X160717100Y-112311600D01*
X159844100Y-112428600D02*
X159931100Y-112311600D01*
X159844100Y-112428600D02*
X159085100Y-112428600D01*
X159626100Y-111102600D02*
X159626100Y-109202600D01*
X159626100Y-109202600D02*
X159626100Y-108302600D01*
X159626100Y-109202600D02*
X158726100Y-108302600D01*
X159626100Y-108302600D02*
X158726100Y-108302600D01*
X159085100Y-112428600D02*
X159085100Y-112425600D01*
X159079100Y-112764600D02*
X156970100Y-112764600D01*
X159079100Y-112620600D02*
X159079100Y-112764600D01*
X159079100Y-112602600D02*
X159079100Y-111915600D01*
X159079100Y-111915600D02*
X159076100Y-111915600D01*
X158826100Y-107602600D02*
X159626100Y-108302600D01*
X158726100Y-108302600D02*
X158426100Y-108002600D01*
X158726100Y-108302600D02*
X156426100Y-108302600D01*
X158426100Y-108002600D02*
X158826100Y-107602600D01*
X156970100Y-112764600D02*
X156970100Y-112431600D01*
X156970100Y-112431600D02*
X156970100Y-112353600D01*
X156970100Y-112431600D02*
X156208100Y-112431600D01*
X156970100Y-112353600D02*
X159067100Y-112353600D01*
X156970100Y-112353600D02*
X156970100Y-111915600D01*
X156970100Y-111915600D02*
X156973100Y-111915600D01*
X156426100Y-111102600D02*
X159626100Y-111102600D01*
X156426100Y-108302600D02*
X156426100Y-111102600D01*
X156208100Y-112431600D02*
X156157100Y-112311600D01*
X156157100Y-112314600D02*
X156157100Y-112311600D01*
X155695100Y-112314600D02*
X156157100Y-112314600D01*
X155692100Y-112314600D02*
X155341100Y-112314600D01*
X155338100Y-112812600D02*
X151069100Y-112812600D01*
X155338100Y-111912600D02*
X155338100Y-112812600D01*
X155338100Y-111882600D02*
X155338100Y-111912600D01*
X155320100Y-98193600D02*
X160729100Y-98193600D01*
X155320100Y-98193600D02*
X151069100Y-98193600D01*
X155320100Y-97242600D02*
X155320100Y-98193600D01*
X153331100Y-111363600D02*
X162709100Y-111363600D01*
X153331100Y-108555600D02*
X153458100Y-108552600D01*
X153331100Y-108555600D02*
X153331100Y-111363600D01*
X152779100Y-111882600D02*
X155338100Y-111882600D01*
X152779100Y-111534600D02*
X152779100Y-111882600D01*
X151366100Y-111534600D02*
X152779100Y-111534600D01*
X151363100Y-111534600D02*
X151069100Y-111534600D01*
X151069100Y-112812600D02*
X151069100Y-111534600D01*
X151069100Y-111534600D02*
X151069100Y-98193600D01*
X151069100Y-98193600D02*
X151069100Y-97242600D01*
X151069100Y-97242600D02*
X155320100Y-97242600D01*
D10*
X149771100Y-114528600D02*
X166281100Y-114528600D01*
X148501100Y-96748600D02*
X148501100Y-113258600D01*
X166281100Y-114528600D02*
G75*
G03*
X167551100Y-113258600I1J1269999D01*
G01*
X167551100Y-96748600D02*
G75*
G03*
X166281100Y-95478600I-1269999J1D01*
G01*
X148501100Y-113258600D02*
G75*
G03*
X149771100Y-114528600I1270000J0D01*
G01*
X149771100Y-95478600D02*
G75*
G03*
X148501100Y-96748600I0J-1270000D01*
G01*
X167835078Y-108051600D02*
G75*
G03*
X167835078Y-108051600I-283978J0D01*
G01*
X167835078Y-107035600D02*
G75*
G03*
X167835078Y-107035600I-283978J0D01*
G01*
X158818078Y-114528600D02*
G75*
G03*
X158818078Y-114528600I-283978J0D01*
G01*
X158818078Y-95478600D02*
G75*
G03*
X158818078Y-95478600I-283978J0D01*
G01*
D11*
X159126100Y-109702600D02*
G75*
G03*
X159126100Y-109702600I-1100000J0D01*
G01*
D10*
X157802078Y-114528600D02*
G75*
G03*
X157802078Y-114528600I-283978J0D01*
G01*
X157802078Y-95478600D02*
G75*
G03*
X157802078Y-95478600I-283978J0D01*
G01*
X148785078Y-108051600D02*
G75*
G03*
X148785078Y-108051600I-283978J0D01*
G01*
X148785078Y-107035600D02*
G75*
G03*
X148785078Y-107035600I-283978J0D01*
G01*
%TO.C,X6*%
X205651100Y-75158600D02*
X205651100Y-58648600D01*
X204381100Y-57378600D02*
X187871100Y-57378600D01*
D11*
X203050100Y-74712600D02*
X198826100Y-74712600D01*
X203050100Y-73434600D02*
X203050100Y-74712600D01*
X203050100Y-59148600D02*
X203050100Y-73434600D01*
X203044100Y-60093600D02*
X203044100Y-60096600D01*
X201361100Y-73785600D02*
X201361100Y-73434600D01*
X201361100Y-73434600D02*
X203050100Y-73434600D01*
X200812100Y-72411600D02*
X198790100Y-72411600D01*
X200809100Y-73263600D02*
X200809100Y-70455600D01*
X200809100Y-70455600D02*
X191431100Y-70455600D01*
X198838100Y-59148600D02*
X203050100Y-59148600D01*
X198829100Y-73785600D02*
X201361100Y-73785600D01*
X198829100Y-73785600D02*
X198829100Y-73899600D01*
X198829100Y-60093600D02*
X203044100Y-60093600D01*
X198829100Y-60093600D02*
X198829100Y-59148600D01*
X198826100Y-74712600D02*
X198826100Y-73812600D01*
X198826100Y-73812600D02*
X193438100Y-73812600D01*
X198790100Y-72411600D02*
X198790100Y-70461600D01*
X198031100Y-74211600D02*
X198817100Y-74211600D01*
X197944100Y-74328600D02*
X198031100Y-74211600D01*
X197944100Y-74328600D02*
X197185100Y-74328600D01*
X197726100Y-73002600D02*
X197726100Y-71102600D01*
X197726100Y-71102600D02*
X197726100Y-70202600D01*
X197726100Y-71102600D02*
X196826100Y-70202600D01*
X197726100Y-70202600D02*
X196826100Y-70202600D01*
X197185100Y-74328600D02*
X197185100Y-74325600D01*
X197179100Y-74664600D02*
X195070100Y-74664600D01*
X197179100Y-74520600D02*
X197179100Y-74664600D01*
X197179100Y-74502600D02*
X197179100Y-73815600D01*
X197179100Y-73815600D02*
X197176100Y-73815600D01*
X196926100Y-69502600D02*
X197726100Y-70202600D01*
X196826100Y-70202600D02*
X196526100Y-69902600D01*
X196826100Y-70202600D02*
X194526100Y-70202600D01*
X196526100Y-69902600D02*
X196926100Y-69502600D01*
X195070100Y-74664600D02*
X195070100Y-74331600D01*
X195070100Y-74331600D02*
X195070100Y-74253600D01*
X195070100Y-74331600D02*
X194308100Y-74331600D01*
X195070100Y-74253600D02*
X197167100Y-74253600D01*
X195070100Y-74253600D02*
X195070100Y-73815600D01*
X195070100Y-73815600D02*
X195073100Y-73815600D01*
X194526100Y-73002600D02*
X197726100Y-73002600D01*
X194526100Y-70202600D02*
X194526100Y-73002600D01*
X194308100Y-74331600D02*
X194257100Y-74211600D01*
X194257100Y-74214600D02*
X194257100Y-74211600D01*
X193795100Y-74214600D02*
X194257100Y-74214600D01*
X193792100Y-74214600D02*
X193441100Y-74214600D01*
X193438100Y-74712600D02*
X189169100Y-74712600D01*
X193438100Y-73812600D02*
X193438100Y-74712600D01*
X193438100Y-73782600D02*
X193438100Y-73812600D01*
X193420100Y-60093600D02*
X198829100Y-60093600D01*
X193420100Y-60093600D02*
X189169100Y-60093600D01*
X193420100Y-59142600D02*
X193420100Y-60093600D01*
X191431100Y-73263600D02*
X200809100Y-73263600D01*
X191431100Y-70455600D02*
X191558100Y-70452600D01*
X191431100Y-70455600D02*
X191431100Y-73263600D01*
X190879100Y-73782600D02*
X193438100Y-73782600D01*
X190879100Y-73434600D02*
X190879100Y-73782600D01*
X189466100Y-73434600D02*
X190879100Y-73434600D01*
X189463100Y-73434600D02*
X189169100Y-73434600D01*
X189169100Y-74712600D02*
X189169100Y-73434600D01*
X189169100Y-73434600D02*
X189169100Y-60093600D01*
X189169100Y-60093600D02*
X189169100Y-59142600D01*
X189169100Y-59142600D02*
X193420100Y-59142600D01*
D10*
X187871100Y-76428600D02*
X204381100Y-76428600D01*
X186601100Y-58648600D02*
X186601100Y-75158600D01*
X204381100Y-76428600D02*
G75*
G03*
X205651100Y-75158600I1J1269999D01*
G01*
X205651100Y-58648600D02*
G75*
G03*
X204381100Y-57378600I-1269999J1D01*
G01*
X186601100Y-75158600D02*
G75*
G03*
X187871100Y-76428600I1270000J0D01*
G01*
X187871100Y-57378600D02*
G75*
G03*
X186601100Y-58648600I0J-1270000D01*
G01*
X205935078Y-69951600D02*
G75*
G03*
X205935078Y-69951600I-283978J0D01*
G01*
X205935078Y-68935600D02*
G75*
G03*
X205935078Y-68935600I-283978J0D01*
G01*
X196918078Y-76428600D02*
G75*
G03*
X196918078Y-76428600I-283978J0D01*
G01*
X196918078Y-57378600D02*
G75*
G03*
X196918078Y-57378600I-283978J0D01*
G01*
D11*
X197226100Y-71602600D02*
G75*
G03*
X197226100Y-71602600I-1100000J0D01*
G01*
D10*
X195902078Y-76428600D02*
G75*
G03*
X195902078Y-76428600I-283978J0D01*
G01*
X195902078Y-57378600D02*
G75*
G03*
X195902078Y-57378600I-283978J0D01*
G01*
X186885078Y-69951600D02*
G75*
G03*
X186885078Y-69951600I-283978J0D01*
G01*
X186885078Y-68935600D02*
G75*
G03*
X186885078Y-68935600I-283978J0D01*
G01*
%TO.C,X21*%
X148501100Y-132308600D02*
X148501100Y-115798600D01*
X147231100Y-114528600D02*
X130721100Y-114528600D01*
D11*
X145900100Y-131862600D02*
X141676100Y-131862600D01*
X145900100Y-130584600D02*
X145900100Y-131862600D01*
X145900100Y-116298600D02*
X145900100Y-130584600D01*
X145894100Y-117243600D02*
X145894100Y-117246600D01*
X144211100Y-130935600D02*
X144211100Y-130584600D01*
X144211100Y-130584600D02*
X145900100Y-130584600D01*
X143662100Y-129561600D02*
X141640100Y-129561600D01*
X143659100Y-130413600D02*
X143659100Y-127605600D01*
X143659100Y-127605600D02*
X134281100Y-127605600D01*
X141688100Y-116298600D02*
X145900100Y-116298600D01*
X141679100Y-130935600D02*
X144211100Y-130935600D01*
X141679100Y-130935600D02*
X141679100Y-131049600D01*
X141679100Y-117243600D02*
X145894100Y-117243600D01*
X141679100Y-117243600D02*
X141679100Y-116298600D01*
X141676100Y-131862600D02*
X141676100Y-130962600D01*
X141676100Y-130962600D02*
X136288100Y-130962600D01*
X141640100Y-129561600D02*
X141640100Y-127611600D01*
X140881100Y-131361600D02*
X141667100Y-131361600D01*
X140794100Y-131478600D02*
X140881100Y-131361600D01*
X140794100Y-131478600D02*
X140035100Y-131478600D01*
X140576100Y-130152600D02*
X140576100Y-128252600D01*
X140576100Y-128252600D02*
X140576100Y-127352600D01*
X140576100Y-128252600D02*
X139676100Y-127352600D01*
X140576100Y-127352600D02*
X139676100Y-127352600D01*
X140035100Y-131478600D02*
X140035100Y-131475600D01*
X140029100Y-131814600D02*
X137920100Y-131814600D01*
X140029100Y-131670600D02*
X140029100Y-131814600D01*
X140029100Y-131652600D02*
X140029100Y-130965600D01*
X140029100Y-130965600D02*
X140026100Y-130965600D01*
X139776100Y-126652600D02*
X140576100Y-127352600D01*
X139676100Y-127352600D02*
X139376100Y-127052600D01*
X139676100Y-127352600D02*
X137376100Y-127352600D01*
X139376100Y-127052600D02*
X139776100Y-126652600D01*
X137920100Y-131814600D02*
X137920100Y-131481600D01*
X137920100Y-131481600D02*
X137920100Y-131403600D01*
X137920100Y-131481600D02*
X137158100Y-131481600D01*
X137920100Y-131403600D02*
X140017100Y-131403600D01*
X137920100Y-131403600D02*
X137920100Y-130965600D01*
X137920100Y-130965600D02*
X137923100Y-130965600D01*
X137376100Y-130152600D02*
X140576100Y-130152600D01*
X137376100Y-127352600D02*
X137376100Y-130152600D01*
X137158100Y-131481600D02*
X137107100Y-131361600D01*
X137107100Y-131364600D02*
X137107100Y-131361600D01*
X136645100Y-131364600D02*
X137107100Y-131364600D01*
X136642100Y-131364600D02*
X136291100Y-131364600D01*
X136288100Y-131862600D02*
X132019100Y-131862600D01*
X136288100Y-130962600D02*
X136288100Y-131862600D01*
X136288100Y-130932600D02*
X136288100Y-130962600D01*
X136270100Y-117243600D02*
X141679100Y-117243600D01*
X136270100Y-117243600D02*
X132019100Y-117243600D01*
X136270100Y-116292600D02*
X136270100Y-117243600D01*
X134281100Y-130413600D02*
X143659100Y-130413600D01*
X134281100Y-127605600D02*
X134408100Y-127602600D01*
X134281100Y-127605600D02*
X134281100Y-130413600D01*
X133729100Y-130932600D02*
X136288100Y-130932600D01*
X133729100Y-130584600D02*
X133729100Y-130932600D01*
X132316100Y-130584600D02*
X133729100Y-130584600D01*
X132313100Y-130584600D02*
X132019100Y-130584600D01*
X132019100Y-131862600D02*
X132019100Y-130584600D01*
X132019100Y-130584600D02*
X132019100Y-117243600D01*
X132019100Y-117243600D02*
X132019100Y-116292600D01*
X132019100Y-116292600D02*
X136270100Y-116292600D01*
D10*
X130721100Y-133578600D02*
X147231100Y-133578600D01*
X129451100Y-115798600D02*
X129451100Y-132308600D01*
X147231100Y-133578600D02*
G75*
G03*
X148501100Y-132308600I1J1269999D01*
G01*
X148501100Y-115798600D02*
G75*
G03*
X147231100Y-114528600I-1269999J1D01*
G01*
X129451100Y-132308600D02*
G75*
G03*
X130721100Y-133578600I1270000J0D01*
G01*
X130721100Y-114528600D02*
G75*
G03*
X129451100Y-115798600I0J-1270000D01*
G01*
X148755100Y-127101600D02*
G75*
G03*
X148755100Y-127101600I-254000J0D01*
G01*
X148785078Y-125685600D02*
G75*
G03*
X148785078Y-125685600I-283978J0D01*
G01*
X139768078Y-133578600D02*
G75*
G03*
X139768078Y-133578600I-283978J0D01*
G01*
X139768078Y-114528600D02*
G75*
G03*
X139768078Y-114528600I-283978J0D01*
G01*
D11*
X140076100Y-128752600D02*
G75*
G03*
X140076100Y-128752600I-1100000J0D01*
G01*
D10*
X138722100Y-133578600D02*
G75*
G03*
X138722100Y-133578600I-254000J0D01*
G01*
X138722100Y-114528600D02*
G75*
G03*
X138722100Y-114528600I-254000J0D01*
G01*
X129705100Y-127101600D02*
G75*
G03*
X129705100Y-127101600I-254000J0D01*
G01*
X129735078Y-126085600D02*
G75*
G03*
X129735078Y-126085600I-283978J0D01*
G01*
%TO.C,X19*%
X110401100Y-132308600D02*
X110401100Y-115798600D01*
X109131100Y-114528600D02*
X92621100Y-114528600D01*
D11*
X107800100Y-131862600D02*
X103576100Y-131862600D01*
X107800100Y-130584600D02*
X107800100Y-131862600D01*
X107800100Y-116298600D02*
X107800100Y-130584600D01*
X107794100Y-117243600D02*
X107794100Y-117246600D01*
X106111100Y-130935600D02*
X106111100Y-130584600D01*
X106111100Y-130584600D02*
X107800100Y-130584600D01*
X105562100Y-129561600D02*
X103540100Y-129561600D01*
X105559100Y-130413600D02*
X105559100Y-127605600D01*
X105559100Y-127605600D02*
X96181100Y-127605600D01*
X103588100Y-116298600D02*
X107800100Y-116298600D01*
X103579100Y-130935600D02*
X106111100Y-130935600D01*
X103579100Y-130935600D02*
X103579100Y-131049600D01*
X103579100Y-117243600D02*
X107794100Y-117243600D01*
X103579100Y-117243600D02*
X103579100Y-116298600D01*
X103576100Y-131862600D02*
X103576100Y-130962600D01*
X103576100Y-130962600D02*
X98188100Y-130962600D01*
X103540100Y-129561600D02*
X103540100Y-127611600D01*
X102781100Y-131361600D02*
X103567100Y-131361600D01*
X102694100Y-131478600D02*
X102781100Y-131361600D01*
X102694100Y-131478600D02*
X101935100Y-131478600D01*
X102476100Y-130152600D02*
X102476100Y-128252600D01*
X102476100Y-128252600D02*
X102476100Y-127352600D01*
X102476100Y-128252600D02*
X101576100Y-127352600D01*
X102476100Y-127352600D02*
X101576100Y-127352600D01*
X101935100Y-131478600D02*
X101935100Y-131475600D01*
X101929100Y-131814600D02*
X99820100Y-131814600D01*
X101929100Y-131670600D02*
X101929100Y-131814600D01*
X101929100Y-131652600D02*
X101929100Y-130965600D01*
X101929100Y-130965600D02*
X101926100Y-130965600D01*
X101676100Y-126652600D02*
X102476100Y-127352600D01*
X101576100Y-127352600D02*
X101276100Y-127052600D01*
X101576100Y-127352600D02*
X99276100Y-127352600D01*
X101276100Y-127052600D02*
X101676100Y-126652600D01*
X99820100Y-131814600D02*
X99820100Y-131481600D01*
X99820100Y-131481600D02*
X99820100Y-131403600D01*
X99820100Y-131481600D02*
X99058100Y-131481600D01*
X99820100Y-131403600D02*
X101917100Y-131403600D01*
X99820100Y-131403600D02*
X99820100Y-130965600D01*
X99820100Y-130965600D02*
X99823100Y-130965600D01*
X99276100Y-130152600D02*
X102476100Y-130152600D01*
X99276100Y-127352600D02*
X99276100Y-130152600D01*
X99058100Y-131481600D02*
X99007100Y-131361600D01*
X99007100Y-131364600D02*
X99007100Y-131361600D01*
X98545100Y-131364600D02*
X99007100Y-131364600D01*
X98542100Y-131364600D02*
X98191100Y-131364600D01*
X98188100Y-131862600D02*
X93919100Y-131862600D01*
X98188100Y-130962600D02*
X98188100Y-131862600D01*
X98188100Y-130932600D02*
X98188100Y-130962600D01*
X98170100Y-117243600D02*
X103579100Y-117243600D01*
X98170100Y-117243600D02*
X93919100Y-117243600D01*
X98170100Y-116292600D02*
X98170100Y-117243600D01*
X96181100Y-130413600D02*
X105559100Y-130413600D01*
X96181100Y-127605600D02*
X96308100Y-127602600D01*
X96181100Y-127605600D02*
X96181100Y-130413600D01*
X95629100Y-130932600D02*
X98188100Y-130932600D01*
X95629100Y-130584600D02*
X95629100Y-130932600D01*
X94216100Y-130584600D02*
X95629100Y-130584600D01*
X94213100Y-130584600D02*
X93919100Y-130584600D01*
X93919100Y-131862600D02*
X93919100Y-130584600D01*
X93919100Y-130584600D02*
X93919100Y-117243600D01*
X93919100Y-117243600D02*
X93919100Y-116292600D01*
X93919100Y-116292600D02*
X98170100Y-116292600D01*
D10*
X92621100Y-133578600D02*
X109131100Y-133578600D01*
X91351100Y-115798600D02*
X91351100Y-132308600D01*
X109131100Y-133578600D02*
G75*
G03*
X110401100Y-132308600I1J1269999D01*
G01*
X110401100Y-115798600D02*
G75*
G03*
X109131100Y-114528600I-1269999J1D01*
G01*
X91351100Y-132308600D02*
G75*
G03*
X92621100Y-133578600I1270000J0D01*
G01*
X92621100Y-114528600D02*
G75*
G03*
X91351100Y-115798600I0J-1270000D01*
G01*
X110655100Y-127101600D02*
G75*
G03*
X110655100Y-127101600I-254000J0D01*
G01*
X110685078Y-125685600D02*
G75*
G03*
X110685078Y-125685600I-283978J0D01*
G01*
X101668078Y-133578600D02*
G75*
G03*
X101668078Y-133578600I-283978J0D01*
G01*
X101668078Y-114528600D02*
G75*
G03*
X101668078Y-114528600I-283978J0D01*
G01*
D11*
X101976100Y-128752600D02*
G75*
G03*
X101976100Y-128752600I-1100000J0D01*
G01*
D10*
X100622100Y-133578600D02*
G75*
G03*
X100622100Y-133578600I-254000J0D01*
G01*
X100622100Y-114528600D02*
G75*
G03*
X100622100Y-114528600I-254000J0D01*
G01*
X91605100Y-127101600D02*
G75*
G03*
X91605100Y-127101600I-254000J0D01*
G01*
X91635078Y-126085600D02*
G75*
G03*
X91635078Y-126085600I-283978J0D01*
G01*
%TO.C,X30*%
X205651100Y-151358600D02*
X205651100Y-134848600D01*
X204381100Y-133578600D02*
X187871100Y-133578600D01*
D11*
X203050100Y-150912600D02*
X198826100Y-150912600D01*
X203050100Y-149634600D02*
X203050100Y-150912600D01*
X203050100Y-135348600D02*
X203050100Y-149634600D01*
X203044100Y-136293600D02*
X203044100Y-136296600D01*
X201361100Y-149985600D02*
X201361100Y-149634600D01*
X201361100Y-149634600D02*
X203050100Y-149634600D01*
X200812100Y-148611600D02*
X198790100Y-148611600D01*
X200809100Y-149463600D02*
X200809100Y-146655600D01*
X200809100Y-146655600D02*
X191431100Y-146655600D01*
X198838100Y-135348600D02*
X203050100Y-135348600D01*
X198829100Y-149985600D02*
X201361100Y-149985600D01*
X198829100Y-149985600D02*
X198829100Y-150099600D01*
X198829100Y-136293600D02*
X203044100Y-136293600D01*
X198829100Y-136293600D02*
X198829100Y-135348600D01*
X198826100Y-150912600D02*
X198826100Y-150012600D01*
X198826100Y-150012600D02*
X193438100Y-150012600D01*
X198790100Y-148611600D02*
X198790100Y-146661600D01*
X198031100Y-150411600D02*
X198817100Y-150411600D01*
X197944100Y-150528600D02*
X198031100Y-150411600D01*
X197944100Y-150528600D02*
X197185100Y-150528600D01*
X197726100Y-149202600D02*
X197726100Y-147302600D01*
X197726100Y-147302600D02*
X197726100Y-146402600D01*
X197726100Y-147302600D02*
X196826100Y-146402600D01*
X197726100Y-146402600D02*
X196826100Y-146402600D01*
X197185100Y-150528600D02*
X197185100Y-150525600D01*
X197179100Y-150864600D02*
X195070100Y-150864600D01*
X197179100Y-150720600D02*
X197179100Y-150864600D01*
X197179100Y-150702600D02*
X197179100Y-150015600D01*
X197179100Y-150015600D02*
X197176100Y-150015600D01*
X196926100Y-145702600D02*
X197726100Y-146402600D01*
X196826100Y-146402600D02*
X196526100Y-146102600D01*
X196826100Y-146402600D02*
X194526100Y-146402600D01*
X196526100Y-146102600D02*
X196926100Y-145702600D01*
X195070100Y-150864600D02*
X195070100Y-150531600D01*
X195070100Y-150531600D02*
X195070100Y-150453600D01*
X195070100Y-150531600D02*
X194308100Y-150531600D01*
X195070100Y-150453600D02*
X197167100Y-150453600D01*
X195070100Y-150453600D02*
X195070100Y-150015600D01*
X195070100Y-150015600D02*
X195073100Y-150015600D01*
X194526100Y-149202600D02*
X197726100Y-149202600D01*
X194526100Y-146402600D02*
X194526100Y-149202600D01*
X194308100Y-150531600D02*
X194257100Y-150411600D01*
X194257100Y-150414600D02*
X194257100Y-150411600D01*
X193795100Y-150414600D02*
X194257100Y-150414600D01*
X193792100Y-150414600D02*
X193441100Y-150414600D01*
X193438100Y-150912600D02*
X189169100Y-150912600D01*
X193438100Y-150012600D02*
X193438100Y-150912600D01*
X193438100Y-149982600D02*
X193438100Y-150012600D01*
X193420100Y-136293600D02*
X198829100Y-136293600D01*
X193420100Y-136293600D02*
X189169100Y-136293600D01*
X193420100Y-135342600D02*
X193420100Y-136293600D01*
X191431100Y-149463600D02*
X200809100Y-149463600D01*
X191431100Y-146655600D02*
X191558100Y-146652600D01*
X191431100Y-146655600D02*
X191431100Y-149463600D01*
X190879100Y-149982600D02*
X193438100Y-149982600D01*
X190879100Y-149634600D02*
X190879100Y-149982600D01*
X189466100Y-149634600D02*
X190879100Y-149634600D01*
X189463100Y-149634600D02*
X189169100Y-149634600D01*
X189169100Y-150912600D02*
X189169100Y-149634600D01*
X189169100Y-149634600D02*
X189169100Y-136293600D01*
X189169100Y-136293600D02*
X189169100Y-135342600D01*
X189169100Y-135342600D02*
X193420100Y-135342600D01*
D10*
X187871100Y-152628600D02*
X204381100Y-152628600D01*
X186601100Y-134848600D02*
X186601100Y-151358600D01*
X204381100Y-152628600D02*
G75*
G03*
X205651100Y-151358600I1J1269999D01*
G01*
X205651100Y-134848600D02*
G75*
G03*
X204381100Y-133578600I-1269999J1D01*
G01*
X186601100Y-151358600D02*
G75*
G03*
X187871100Y-152628600I1270000J0D01*
G01*
X187871100Y-133578600D02*
G75*
G03*
X186601100Y-134848600I0J-1270000D01*
G01*
X205935078Y-146151600D02*
G75*
G03*
X205935078Y-146151600I-283978J0D01*
G01*
X205935078Y-145135600D02*
G75*
G03*
X205935078Y-145135600I-283978J0D01*
G01*
X196918078Y-152628600D02*
G75*
G03*
X196918078Y-152628600I-283978J0D01*
G01*
X196918078Y-133578600D02*
G75*
G03*
X196918078Y-133578600I-283978J0D01*
G01*
D11*
X197226100Y-147802600D02*
G75*
G03*
X197226100Y-147802600I-1100000J0D01*
G01*
D10*
X195902078Y-152628600D02*
G75*
G03*
X195902078Y-152628600I-283978J0D01*
G01*
X195902078Y-133578600D02*
G75*
G03*
X195902078Y-133578600I-283978J0D01*
G01*
X186885078Y-146151600D02*
G75*
G03*
X186885078Y-146151600I-283978J0D01*
G01*
X186885078Y-145135600D02*
G75*
G03*
X186885078Y-145135600I-283978J0D01*
G01*
%TO.C,X24*%
X205651100Y-132308600D02*
X205651100Y-115798600D01*
X204381100Y-114528600D02*
X187871100Y-114528600D01*
D11*
X203050100Y-131862600D02*
X198826100Y-131862600D01*
X203050100Y-130584600D02*
X203050100Y-131862600D01*
X203050100Y-116298600D02*
X203050100Y-130584600D01*
X203044100Y-117243600D02*
X203044100Y-117246600D01*
X201361100Y-130935600D02*
X201361100Y-130584600D01*
X201361100Y-130584600D02*
X203050100Y-130584600D01*
X200812100Y-129561600D02*
X198790100Y-129561600D01*
X200809100Y-130413600D02*
X200809100Y-127605600D01*
X200809100Y-127605600D02*
X191431100Y-127605600D01*
X198838100Y-116298600D02*
X203050100Y-116298600D01*
X198829100Y-130935600D02*
X201361100Y-130935600D01*
X198829100Y-130935600D02*
X198829100Y-131049600D01*
X198829100Y-117243600D02*
X203044100Y-117243600D01*
X198829100Y-117243600D02*
X198829100Y-116298600D01*
X198826100Y-131862600D02*
X198826100Y-130962600D01*
X198826100Y-130962600D02*
X193438100Y-130962600D01*
X198790100Y-129561600D02*
X198790100Y-127611600D01*
X198031100Y-131361600D02*
X198817100Y-131361600D01*
X197944100Y-131478600D02*
X198031100Y-131361600D01*
X197944100Y-131478600D02*
X197185100Y-131478600D01*
X197726100Y-130152600D02*
X197726100Y-128252600D01*
X197726100Y-128252600D02*
X197726100Y-127352600D01*
X197726100Y-128252600D02*
X196826100Y-127352600D01*
X197726100Y-127352600D02*
X196826100Y-127352600D01*
X197185100Y-131478600D02*
X197185100Y-131475600D01*
X197179100Y-131814600D02*
X195070100Y-131814600D01*
X197179100Y-131670600D02*
X197179100Y-131814600D01*
X197179100Y-131652600D02*
X197179100Y-130965600D01*
X197179100Y-130965600D02*
X197176100Y-130965600D01*
X196926100Y-126652600D02*
X197726100Y-127352600D01*
X196826100Y-127352600D02*
X196526100Y-127052600D01*
X196826100Y-127352600D02*
X194526100Y-127352600D01*
X196526100Y-127052600D02*
X196926100Y-126652600D01*
X195070100Y-131814600D02*
X195070100Y-131481600D01*
X195070100Y-131481600D02*
X195070100Y-131403600D01*
X195070100Y-131481600D02*
X194308100Y-131481600D01*
X195070100Y-131403600D02*
X197167100Y-131403600D01*
X195070100Y-131403600D02*
X195070100Y-130965600D01*
X195070100Y-130965600D02*
X195073100Y-130965600D01*
X194526100Y-130152600D02*
X197726100Y-130152600D01*
X194526100Y-127352600D02*
X194526100Y-130152600D01*
X194308100Y-131481600D02*
X194257100Y-131361600D01*
X194257100Y-131364600D02*
X194257100Y-131361600D01*
X193795100Y-131364600D02*
X194257100Y-131364600D01*
X193792100Y-131364600D02*
X193441100Y-131364600D01*
X193438100Y-131862600D02*
X189169100Y-131862600D01*
X193438100Y-130962600D02*
X193438100Y-131862600D01*
X193438100Y-130932600D02*
X193438100Y-130962600D01*
X193420100Y-117243600D02*
X198829100Y-117243600D01*
X193420100Y-117243600D02*
X189169100Y-117243600D01*
X193420100Y-116292600D02*
X193420100Y-117243600D01*
X191431100Y-130413600D02*
X200809100Y-130413600D01*
X191431100Y-127605600D02*
X191558100Y-127602600D01*
X191431100Y-127605600D02*
X191431100Y-130413600D01*
X190879100Y-130932600D02*
X193438100Y-130932600D01*
X190879100Y-130584600D02*
X190879100Y-130932600D01*
X189466100Y-130584600D02*
X190879100Y-130584600D01*
X189463100Y-130584600D02*
X189169100Y-130584600D01*
X189169100Y-131862600D02*
X189169100Y-130584600D01*
X189169100Y-130584600D02*
X189169100Y-117243600D01*
X189169100Y-117243600D02*
X189169100Y-116292600D01*
X189169100Y-116292600D02*
X193420100Y-116292600D01*
D10*
X187871100Y-133578600D02*
X204381100Y-133578600D01*
X186601100Y-115798600D02*
X186601100Y-132308600D01*
X204381100Y-133578600D02*
G75*
G03*
X205651100Y-132308600I1J1269999D01*
G01*
X205651100Y-115798600D02*
G75*
G03*
X204381100Y-114528600I-1269999J1D01*
G01*
X186601100Y-132308600D02*
G75*
G03*
X187871100Y-133578600I1270000J0D01*
G01*
X187871100Y-114528600D02*
G75*
G03*
X186601100Y-115798600I0J-1270000D01*
G01*
X205905100Y-127101600D02*
G75*
G03*
X205905100Y-127101600I-254000J0D01*
G01*
X205935078Y-125685600D02*
G75*
G03*
X205935078Y-125685600I-283978J0D01*
G01*
X196918078Y-133578600D02*
G75*
G03*
X196918078Y-133578600I-283978J0D01*
G01*
X196918078Y-114528600D02*
G75*
G03*
X196918078Y-114528600I-283978J0D01*
G01*
D11*
X197226100Y-128752600D02*
G75*
G03*
X197226100Y-128752600I-1100000J0D01*
G01*
D10*
X195872100Y-133578600D02*
G75*
G03*
X195872100Y-133578600I-254000J0D01*
G01*
X195872100Y-114528600D02*
G75*
G03*
X195872100Y-114528600I-254000J0D01*
G01*
X186855100Y-127101600D02*
G75*
G03*
X186855100Y-127101600I-254000J0D01*
G01*
X186885078Y-126085600D02*
G75*
G03*
X186885078Y-126085600I-283978J0D01*
G01*
%TO.C,X26*%
X129451100Y-151358600D02*
X129451100Y-134848600D01*
X128181100Y-133578600D02*
X111671100Y-133578600D01*
D11*
X126850100Y-150912600D02*
X122626100Y-150912600D01*
X126850100Y-149634600D02*
X126850100Y-150912600D01*
X126850100Y-135348600D02*
X126850100Y-149634600D01*
X126844100Y-136293600D02*
X126844100Y-136296600D01*
X125161100Y-149985600D02*
X125161100Y-149634600D01*
X125161100Y-149634600D02*
X126850100Y-149634600D01*
X124612100Y-148611600D02*
X122590100Y-148611600D01*
X124609100Y-149463600D02*
X124609100Y-146655600D01*
X124609100Y-146655600D02*
X115231100Y-146655600D01*
X122638100Y-135348600D02*
X126850100Y-135348600D01*
X122629100Y-149985600D02*
X125161100Y-149985600D01*
X122629100Y-149985600D02*
X122629100Y-150099600D01*
X122629100Y-136293600D02*
X126844100Y-136293600D01*
X122629100Y-136293600D02*
X122629100Y-135348600D01*
X122626100Y-150912600D02*
X122626100Y-150012600D01*
X122626100Y-150012600D02*
X117238100Y-150012600D01*
X122590100Y-148611600D02*
X122590100Y-146661600D01*
X121831100Y-150411600D02*
X122617100Y-150411600D01*
X121744100Y-150528600D02*
X121831100Y-150411600D01*
X121744100Y-150528600D02*
X120985100Y-150528600D01*
X121526100Y-149202600D02*
X121526100Y-147302600D01*
X121526100Y-147302600D02*
X121526100Y-146402600D01*
X121526100Y-147302600D02*
X120626100Y-146402600D01*
X121526100Y-146402600D02*
X120626100Y-146402600D01*
X120985100Y-150528600D02*
X120985100Y-150525600D01*
X120979100Y-150864600D02*
X118870100Y-150864600D01*
X120979100Y-150720600D02*
X120979100Y-150864600D01*
X120979100Y-150702600D02*
X120979100Y-150015600D01*
X120979100Y-150015600D02*
X120976100Y-150015600D01*
X120726100Y-145702600D02*
X121526100Y-146402600D01*
X120626100Y-146402600D02*
X120326100Y-146102600D01*
X120626100Y-146402600D02*
X118326100Y-146402600D01*
X120326100Y-146102600D02*
X120726100Y-145702600D01*
X118870100Y-150864600D02*
X118870100Y-150531600D01*
X118870100Y-150531600D02*
X118870100Y-150453600D01*
X118870100Y-150531600D02*
X118108100Y-150531600D01*
X118870100Y-150453600D02*
X120967100Y-150453600D01*
X118870100Y-150453600D02*
X118870100Y-150015600D01*
X118870100Y-150015600D02*
X118873100Y-150015600D01*
X118326100Y-149202600D02*
X121526100Y-149202600D01*
X118326100Y-146402600D02*
X118326100Y-149202600D01*
X118108100Y-150531600D02*
X118057100Y-150411600D01*
X118057100Y-150414600D02*
X118057100Y-150411600D01*
X117595100Y-150414600D02*
X118057100Y-150414600D01*
X117592100Y-150414600D02*
X117241100Y-150414600D01*
X117238100Y-150912600D02*
X112969100Y-150912600D01*
X117238100Y-150012600D02*
X117238100Y-150912600D01*
X117238100Y-149982600D02*
X117238100Y-150012600D01*
X117220100Y-136293600D02*
X122629100Y-136293600D01*
X117220100Y-136293600D02*
X112969100Y-136293600D01*
X117220100Y-135342600D02*
X117220100Y-136293600D01*
X115231100Y-149463600D02*
X124609100Y-149463600D01*
X115231100Y-146655600D02*
X115358100Y-146652600D01*
X115231100Y-146655600D02*
X115231100Y-149463600D01*
X114679100Y-149982600D02*
X117238100Y-149982600D01*
X114679100Y-149634600D02*
X114679100Y-149982600D01*
X113266100Y-149634600D02*
X114679100Y-149634600D01*
X113263100Y-149634600D02*
X112969100Y-149634600D01*
X112969100Y-150912600D02*
X112969100Y-149634600D01*
X112969100Y-149634600D02*
X112969100Y-136293600D01*
X112969100Y-136293600D02*
X112969100Y-135342600D01*
X112969100Y-135342600D02*
X117220100Y-135342600D01*
D10*
X111671100Y-152628600D02*
X128181100Y-152628600D01*
X110401100Y-134848600D02*
X110401100Y-151358600D01*
X128181100Y-152628600D02*
G75*
G03*
X129451100Y-151358600I1J1269999D01*
G01*
X129451100Y-134848600D02*
G75*
G03*
X128181100Y-133578600I-1269999J1D01*
G01*
X110401100Y-151358600D02*
G75*
G03*
X111671100Y-152628600I1270000J0D01*
G01*
X111671100Y-133578600D02*
G75*
G03*
X110401100Y-134848600I0J-1270000D01*
G01*
X129735078Y-146151600D02*
G75*
G03*
X129735078Y-146151600I-283978J0D01*
G01*
X129735078Y-145135600D02*
G75*
G03*
X129735078Y-145135600I-283978J0D01*
G01*
X120718078Y-152628600D02*
G75*
G03*
X120718078Y-152628600I-283978J0D01*
G01*
X120718078Y-133578600D02*
G75*
G03*
X120718078Y-133578600I-283978J0D01*
G01*
D11*
X121026100Y-147802600D02*
G75*
G03*
X121026100Y-147802600I-1100000J0D01*
G01*
D10*
X119702078Y-152628600D02*
G75*
G03*
X119702078Y-152628600I-283978J0D01*
G01*
X119702078Y-133578600D02*
G75*
G03*
X119702078Y-133578600I-283978J0D01*
G01*
X110685078Y-146151600D02*
G75*
G03*
X110685078Y-146151600I-283978J0D01*
G01*
X110685078Y-145135600D02*
G75*
G03*
X110685078Y-145135600I-283978J0D01*
G01*
%TO.C,X9*%
X148501100Y-94208600D02*
X148501100Y-77698600D01*
X147231100Y-76428600D02*
X130721100Y-76428600D01*
D11*
X145900100Y-93762600D02*
X141676100Y-93762600D01*
X145900100Y-92484600D02*
X145900100Y-93762600D01*
X145900100Y-78198600D02*
X145900100Y-92484600D01*
X145894100Y-79143600D02*
X145894100Y-79146600D01*
X144211100Y-92835600D02*
X144211100Y-92484600D01*
X144211100Y-92484600D02*
X145900100Y-92484600D01*
X143662100Y-91461600D02*
X141640100Y-91461600D01*
X143659100Y-92313600D02*
X143659100Y-89505600D01*
X143659100Y-89505600D02*
X134281100Y-89505600D01*
X141688100Y-78198600D02*
X145900100Y-78198600D01*
X141679100Y-92835600D02*
X144211100Y-92835600D01*
X141679100Y-92835600D02*
X141679100Y-92949600D01*
X141679100Y-79143600D02*
X145894100Y-79143600D01*
X141679100Y-79143600D02*
X141679100Y-78198600D01*
X141676100Y-93762600D02*
X141676100Y-92862600D01*
X141676100Y-92862600D02*
X136288100Y-92862600D01*
X141640100Y-91461600D02*
X141640100Y-89511600D01*
X140881100Y-93261600D02*
X141667100Y-93261600D01*
X140794100Y-93378600D02*
X140881100Y-93261600D01*
X140794100Y-93378600D02*
X140035100Y-93378600D01*
X140576100Y-92052600D02*
X140576100Y-90152600D01*
X140576100Y-90152600D02*
X140576100Y-89252600D01*
X140576100Y-90152600D02*
X139676100Y-89252600D01*
X140576100Y-89252600D02*
X139676100Y-89252600D01*
X140035100Y-93378600D02*
X140035100Y-93375600D01*
X140029100Y-93714600D02*
X137920100Y-93714600D01*
X140029100Y-93570600D02*
X140029100Y-93714600D01*
X140029100Y-93552600D02*
X140029100Y-92865600D01*
X140029100Y-92865600D02*
X140026100Y-92865600D01*
X139776100Y-88552600D02*
X140576100Y-89252600D01*
X139676100Y-89252600D02*
X139376100Y-88952600D01*
X139676100Y-89252600D02*
X137376100Y-89252600D01*
X139376100Y-88952600D02*
X139776100Y-88552600D01*
X137920100Y-93714600D02*
X137920100Y-93381600D01*
X137920100Y-93381600D02*
X137920100Y-93303600D01*
X137920100Y-93381600D02*
X137158100Y-93381600D01*
X137920100Y-93303600D02*
X140017100Y-93303600D01*
X137920100Y-93303600D02*
X137920100Y-92865600D01*
X137920100Y-92865600D02*
X137923100Y-92865600D01*
X137376100Y-92052600D02*
X140576100Y-92052600D01*
X137376100Y-89252600D02*
X137376100Y-92052600D01*
X137158100Y-93381600D02*
X137107100Y-93261600D01*
X137107100Y-93264600D02*
X137107100Y-93261600D01*
X136645100Y-93264600D02*
X137107100Y-93264600D01*
X136642100Y-93264600D02*
X136291100Y-93264600D01*
X136288100Y-93762600D02*
X132019100Y-93762600D01*
X136288100Y-92862600D02*
X136288100Y-93762600D01*
X136288100Y-92832600D02*
X136288100Y-92862600D01*
X136270100Y-79143600D02*
X141679100Y-79143600D01*
X136270100Y-79143600D02*
X132019100Y-79143600D01*
X136270100Y-78192600D02*
X136270100Y-79143600D01*
X134281100Y-92313600D02*
X143659100Y-92313600D01*
X134281100Y-89505600D02*
X134408100Y-89502600D01*
X134281100Y-89505600D02*
X134281100Y-92313600D01*
X133729100Y-92832600D02*
X136288100Y-92832600D01*
X133729100Y-92484600D02*
X133729100Y-92832600D01*
X132316100Y-92484600D02*
X133729100Y-92484600D01*
X132313100Y-92484600D02*
X132019100Y-92484600D01*
X132019100Y-93762600D02*
X132019100Y-92484600D01*
X132019100Y-92484600D02*
X132019100Y-79143600D01*
X132019100Y-79143600D02*
X132019100Y-78192600D01*
X132019100Y-78192600D02*
X136270100Y-78192600D01*
D10*
X130721100Y-95478600D02*
X147231100Y-95478600D01*
X129451100Y-77698600D02*
X129451100Y-94208600D01*
X147231100Y-95478600D02*
G75*
G03*
X148501100Y-94208600I1J1269999D01*
G01*
X148501100Y-77698600D02*
G75*
G03*
X147231100Y-76428600I-1269999J1D01*
G01*
X129451100Y-94208600D02*
G75*
G03*
X130721100Y-95478600I1270000J0D01*
G01*
X130721100Y-76428600D02*
G75*
G03*
X129451100Y-77698600I0J-1270000D01*
G01*
X148755100Y-89001600D02*
G75*
G03*
X148755100Y-89001600I-254000J0D01*
G01*
X148785078Y-87585600D02*
G75*
G03*
X148785078Y-87585600I-283978J0D01*
G01*
X139768078Y-95478600D02*
G75*
G03*
X139768078Y-95478600I-283978J0D01*
G01*
X139768078Y-76428600D02*
G75*
G03*
X139768078Y-76428600I-283978J0D01*
G01*
D11*
X140076100Y-90652600D02*
G75*
G03*
X140076100Y-90652600I-1100000J0D01*
G01*
D10*
X138722100Y-95478600D02*
G75*
G03*
X138722100Y-95478600I-254000J0D01*
G01*
X138722100Y-76428600D02*
G75*
G03*
X138722100Y-76428600I-254000J0D01*
G01*
X129705100Y-89001600D02*
G75*
G03*
X129705100Y-89001600I-254000J0D01*
G01*
X129735078Y-87985600D02*
G75*
G03*
X129735078Y-87985600I-283978J0D01*
G01*
%TO.C,X29*%
X186601100Y-151358600D02*
X186601100Y-134848600D01*
X185331100Y-133578600D02*
X168821100Y-133578600D01*
D11*
X184000100Y-150912600D02*
X179776100Y-150912600D01*
X184000100Y-149634600D02*
X184000100Y-150912600D01*
X184000100Y-135348600D02*
X184000100Y-149634600D01*
X183994100Y-136293600D02*
X183994100Y-136296600D01*
X182311100Y-149985600D02*
X182311100Y-149634600D01*
X182311100Y-149634600D02*
X184000100Y-149634600D01*
X181762100Y-148611600D02*
X179740100Y-148611600D01*
X181759100Y-149463600D02*
X181759100Y-146655600D01*
X181759100Y-146655600D02*
X172381100Y-146655600D01*
X179788100Y-135348600D02*
X184000100Y-135348600D01*
X179779100Y-149985600D02*
X182311100Y-149985600D01*
X179779100Y-149985600D02*
X179779100Y-150099600D01*
X179779100Y-136293600D02*
X183994100Y-136293600D01*
X179779100Y-136293600D02*
X179779100Y-135348600D01*
X179776100Y-150912600D02*
X179776100Y-150012600D01*
X179776100Y-150012600D02*
X174388100Y-150012600D01*
X179740100Y-148611600D02*
X179740100Y-146661600D01*
X178981100Y-150411600D02*
X179767100Y-150411600D01*
X178894100Y-150528600D02*
X178981100Y-150411600D01*
X178894100Y-150528600D02*
X178135100Y-150528600D01*
X178676100Y-149202600D02*
X178676100Y-147302600D01*
X178676100Y-147302600D02*
X178676100Y-146402600D01*
X178676100Y-147302600D02*
X177776100Y-146402600D01*
X178676100Y-146402600D02*
X177776100Y-146402600D01*
X178135100Y-150528600D02*
X178135100Y-150525600D01*
X178129100Y-150864600D02*
X176020100Y-150864600D01*
X178129100Y-150720600D02*
X178129100Y-150864600D01*
X178129100Y-150702600D02*
X178129100Y-150015600D01*
X178129100Y-150015600D02*
X178126100Y-150015600D01*
X177876100Y-145702600D02*
X178676100Y-146402600D01*
X177776100Y-146402600D02*
X177476100Y-146102600D01*
X177776100Y-146402600D02*
X175476100Y-146402600D01*
X177476100Y-146102600D02*
X177876100Y-145702600D01*
X176020100Y-150864600D02*
X176020100Y-150531600D01*
X176020100Y-150531600D02*
X176020100Y-150453600D01*
X176020100Y-150531600D02*
X175258100Y-150531600D01*
X176020100Y-150453600D02*
X178117100Y-150453600D01*
X176020100Y-150453600D02*
X176020100Y-150015600D01*
X176020100Y-150015600D02*
X176023100Y-150015600D01*
X175476100Y-149202600D02*
X178676100Y-149202600D01*
X175476100Y-146402600D02*
X175476100Y-149202600D01*
X175258100Y-150531600D02*
X175207100Y-150411600D01*
X175207100Y-150414600D02*
X175207100Y-150411600D01*
X174745100Y-150414600D02*
X175207100Y-150414600D01*
X174742100Y-150414600D02*
X174391100Y-150414600D01*
X174388100Y-150912600D02*
X170119100Y-150912600D01*
X174388100Y-150012600D02*
X174388100Y-150912600D01*
X174388100Y-149982600D02*
X174388100Y-150012600D01*
X174370100Y-136293600D02*
X179779100Y-136293600D01*
X174370100Y-136293600D02*
X170119100Y-136293600D01*
X174370100Y-135342600D02*
X174370100Y-136293600D01*
X172381100Y-149463600D02*
X181759100Y-149463600D01*
X172381100Y-146655600D02*
X172508100Y-146652600D01*
X172381100Y-146655600D02*
X172381100Y-149463600D01*
X171829100Y-149982600D02*
X174388100Y-149982600D01*
X171829100Y-149634600D02*
X171829100Y-149982600D01*
X170416100Y-149634600D02*
X171829100Y-149634600D01*
X170413100Y-149634600D02*
X170119100Y-149634600D01*
X170119100Y-150912600D02*
X170119100Y-149634600D01*
X170119100Y-149634600D02*
X170119100Y-136293600D01*
X170119100Y-136293600D02*
X170119100Y-135342600D01*
X170119100Y-135342600D02*
X174370100Y-135342600D01*
D10*
X168821100Y-152628600D02*
X185331100Y-152628600D01*
X167551100Y-134848600D02*
X167551100Y-151358600D01*
X185331100Y-152628600D02*
G75*
G03*
X186601100Y-151358600I1J1269999D01*
G01*
X186601100Y-134848600D02*
G75*
G03*
X185331100Y-133578600I-1269999J1D01*
G01*
X167551100Y-151358600D02*
G75*
G03*
X168821100Y-152628600I1270000J0D01*
G01*
X168821100Y-133578600D02*
G75*
G03*
X167551100Y-134848600I0J-1270000D01*
G01*
X186885078Y-146151600D02*
G75*
G03*
X186885078Y-146151600I-283978J0D01*
G01*
X186885078Y-145135600D02*
G75*
G03*
X186885078Y-145135600I-283978J0D01*
G01*
X177868078Y-152628600D02*
G75*
G03*
X177868078Y-152628600I-283978J0D01*
G01*
X177868078Y-133578600D02*
G75*
G03*
X177868078Y-133578600I-283978J0D01*
G01*
D11*
X178176100Y-147802600D02*
G75*
G03*
X178176100Y-147802600I-1100000J0D01*
G01*
D10*
X176852078Y-152628600D02*
G75*
G03*
X176852078Y-152628600I-283978J0D01*
G01*
X176852078Y-133578600D02*
G75*
G03*
X176852078Y-133578600I-283978J0D01*
G01*
X167835078Y-146151600D02*
G75*
G03*
X167835078Y-146151600I-283978J0D01*
G01*
X167835078Y-145135600D02*
G75*
G03*
X167835078Y-145135600I-283978J0D01*
G01*
%TO.C,X11*%
X186601100Y-94208600D02*
X186601100Y-77698600D01*
X185331100Y-76428600D02*
X168821100Y-76428600D01*
D11*
X184000100Y-93762600D02*
X179776100Y-93762600D01*
X184000100Y-92484600D02*
X184000100Y-93762600D01*
X184000100Y-78198600D02*
X184000100Y-92484600D01*
X183994100Y-79143600D02*
X183994100Y-79146600D01*
X182311100Y-92835600D02*
X182311100Y-92484600D01*
X182311100Y-92484600D02*
X184000100Y-92484600D01*
X181762100Y-91461600D02*
X179740100Y-91461600D01*
X181759100Y-92313600D02*
X181759100Y-89505600D01*
X181759100Y-89505600D02*
X172381100Y-89505600D01*
X179788100Y-78198600D02*
X184000100Y-78198600D01*
X179779100Y-92835600D02*
X182311100Y-92835600D01*
X179779100Y-92835600D02*
X179779100Y-92949600D01*
X179779100Y-79143600D02*
X183994100Y-79143600D01*
X179779100Y-79143600D02*
X179779100Y-78198600D01*
X179776100Y-93762600D02*
X179776100Y-92862600D01*
X179776100Y-92862600D02*
X174388100Y-92862600D01*
X179740100Y-91461600D02*
X179740100Y-89511600D01*
X178981100Y-93261600D02*
X179767100Y-93261600D01*
X178894100Y-93378600D02*
X178981100Y-93261600D01*
X178894100Y-93378600D02*
X178135100Y-93378600D01*
X178676100Y-92052600D02*
X178676100Y-90152600D01*
X178676100Y-90152600D02*
X178676100Y-89252600D01*
X178676100Y-90152600D02*
X177776100Y-89252600D01*
X178676100Y-89252600D02*
X177776100Y-89252600D01*
X178135100Y-93378600D02*
X178135100Y-93375600D01*
X178129100Y-93714600D02*
X176020100Y-93714600D01*
X178129100Y-93570600D02*
X178129100Y-93714600D01*
X178129100Y-93552600D02*
X178129100Y-92865600D01*
X178129100Y-92865600D02*
X178126100Y-92865600D01*
X177876100Y-88552600D02*
X178676100Y-89252600D01*
X177776100Y-89252600D02*
X177476100Y-88952600D01*
X177776100Y-89252600D02*
X175476100Y-89252600D01*
X177476100Y-88952600D02*
X177876100Y-88552600D01*
X176020100Y-93714600D02*
X176020100Y-93381600D01*
X176020100Y-93381600D02*
X176020100Y-93303600D01*
X176020100Y-93381600D02*
X175258100Y-93381600D01*
X176020100Y-93303600D02*
X178117100Y-93303600D01*
X176020100Y-93303600D02*
X176020100Y-92865600D01*
X176020100Y-92865600D02*
X176023100Y-92865600D01*
X175476100Y-92052600D02*
X178676100Y-92052600D01*
X175476100Y-89252600D02*
X175476100Y-92052600D01*
X175258100Y-93381600D02*
X175207100Y-93261600D01*
X175207100Y-93264600D02*
X175207100Y-93261600D01*
X174745100Y-93264600D02*
X175207100Y-93264600D01*
X174742100Y-93264600D02*
X174391100Y-93264600D01*
X174388100Y-93762600D02*
X170119100Y-93762600D01*
X174388100Y-92862600D02*
X174388100Y-93762600D01*
X174388100Y-92832600D02*
X174388100Y-92862600D01*
X174370100Y-79143600D02*
X179779100Y-79143600D01*
X174370100Y-79143600D02*
X170119100Y-79143600D01*
X174370100Y-78192600D02*
X174370100Y-79143600D01*
X172381100Y-92313600D02*
X181759100Y-92313600D01*
X172381100Y-89505600D02*
X172508100Y-89502600D01*
X172381100Y-89505600D02*
X172381100Y-92313600D01*
X171829100Y-92832600D02*
X174388100Y-92832600D01*
X171829100Y-92484600D02*
X171829100Y-92832600D01*
X170416100Y-92484600D02*
X171829100Y-92484600D01*
X170413100Y-92484600D02*
X170119100Y-92484600D01*
X170119100Y-93762600D02*
X170119100Y-92484600D01*
X170119100Y-92484600D02*
X170119100Y-79143600D01*
X170119100Y-79143600D02*
X170119100Y-78192600D01*
X170119100Y-78192600D02*
X174370100Y-78192600D01*
D10*
X168821100Y-95478600D02*
X185331100Y-95478600D01*
X167551100Y-77698600D02*
X167551100Y-94208600D01*
X185331100Y-95478600D02*
G75*
G03*
X186601100Y-94208600I1J1269999D01*
G01*
X186601100Y-77698600D02*
G75*
G03*
X185331100Y-76428600I-1269999J1D01*
G01*
X167551100Y-94208600D02*
G75*
G03*
X168821100Y-95478600I1270000J0D01*
G01*
X168821100Y-76428600D02*
G75*
G03*
X167551100Y-77698600I0J-1270000D01*
G01*
X186855100Y-89001600D02*
G75*
G03*
X186855100Y-89001600I-254000J0D01*
G01*
X186885078Y-87585600D02*
G75*
G03*
X186885078Y-87585600I-283978J0D01*
G01*
X177868078Y-95478600D02*
G75*
G03*
X177868078Y-95478600I-283978J0D01*
G01*
X177868078Y-76428600D02*
G75*
G03*
X177868078Y-76428600I-283978J0D01*
G01*
D11*
X178176100Y-90652600D02*
G75*
G03*
X178176100Y-90652600I-1100000J0D01*
G01*
D10*
X176822100Y-95478600D02*
G75*
G03*
X176822100Y-95478600I-254000J0D01*
G01*
X176822100Y-76428600D02*
G75*
G03*
X176822100Y-76428600I-254000J0D01*
G01*
X167805100Y-89001600D02*
G75*
G03*
X167805100Y-89001600I-254000J0D01*
G01*
X167835078Y-87985600D02*
G75*
G03*
X167835078Y-87985600I-283978J0D01*
G01*
%TO.C,X8*%
X129451100Y-94208600D02*
X129451100Y-77698600D01*
X128181100Y-76428600D02*
X111671100Y-76428600D01*
D11*
X126850100Y-93762600D02*
X122626100Y-93762600D01*
X126850100Y-92484600D02*
X126850100Y-93762600D01*
X126850100Y-78198600D02*
X126850100Y-92484600D01*
X126844100Y-79143600D02*
X126844100Y-79146600D01*
X125161100Y-92835600D02*
X125161100Y-92484600D01*
X125161100Y-92484600D02*
X126850100Y-92484600D01*
X124612100Y-91461600D02*
X122590100Y-91461600D01*
X124609100Y-92313600D02*
X124609100Y-89505600D01*
X124609100Y-89505600D02*
X115231100Y-89505600D01*
X122638100Y-78198600D02*
X126850100Y-78198600D01*
X122629100Y-92835600D02*
X125161100Y-92835600D01*
X122629100Y-92835600D02*
X122629100Y-92949600D01*
X122629100Y-79143600D02*
X126844100Y-79143600D01*
X122629100Y-79143600D02*
X122629100Y-78198600D01*
X122626100Y-93762600D02*
X122626100Y-92862600D01*
X122626100Y-92862600D02*
X117238100Y-92862600D01*
X122590100Y-91461600D02*
X122590100Y-89511600D01*
X121831100Y-93261600D02*
X122617100Y-93261600D01*
X121744100Y-93378600D02*
X121831100Y-93261600D01*
X121744100Y-93378600D02*
X120985100Y-93378600D01*
X121526100Y-92052600D02*
X121526100Y-90152600D01*
X121526100Y-90152600D02*
X121526100Y-89252600D01*
X121526100Y-90152600D02*
X120626100Y-89252600D01*
X121526100Y-89252600D02*
X120626100Y-89252600D01*
X120985100Y-93378600D02*
X120985100Y-93375600D01*
X120979100Y-93714600D02*
X118870100Y-93714600D01*
X120979100Y-93570600D02*
X120979100Y-93714600D01*
X120979100Y-93552600D02*
X120979100Y-92865600D01*
X120979100Y-92865600D02*
X120976100Y-92865600D01*
X120726100Y-88552600D02*
X121526100Y-89252600D01*
X120626100Y-89252600D02*
X120326100Y-88952600D01*
X120626100Y-89252600D02*
X118326100Y-89252600D01*
X120326100Y-88952600D02*
X120726100Y-88552600D01*
X118870100Y-93714600D02*
X118870100Y-93381600D01*
X118870100Y-93381600D02*
X118870100Y-93303600D01*
X118870100Y-93381600D02*
X118108100Y-93381600D01*
X118870100Y-93303600D02*
X120967100Y-93303600D01*
X118870100Y-93303600D02*
X118870100Y-92865600D01*
X118870100Y-92865600D02*
X118873100Y-92865600D01*
X118326100Y-92052600D02*
X121526100Y-92052600D01*
X118326100Y-89252600D02*
X118326100Y-92052600D01*
X118108100Y-93381600D02*
X118057100Y-93261600D01*
X118057100Y-93264600D02*
X118057100Y-93261600D01*
X117595100Y-93264600D02*
X118057100Y-93264600D01*
X117592100Y-93264600D02*
X117241100Y-93264600D01*
X117238100Y-93762600D02*
X112969100Y-93762600D01*
X117238100Y-92862600D02*
X117238100Y-93762600D01*
X117238100Y-92832600D02*
X117238100Y-92862600D01*
X117220100Y-79143600D02*
X122629100Y-79143600D01*
X117220100Y-79143600D02*
X112969100Y-79143600D01*
X117220100Y-78192600D02*
X117220100Y-79143600D01*
X115231100Y-92313600D02*
X124609100Y-92313600D01*
X115231100Y-89505600D02*
X115358100Y-89502600D01*
X115231100Y-89505600D02*
X115231100Y-92313600D01*
X114679100Y-92832600D02*
X117238100Y-92832600D01*
X114679100Y-92484600D02*
X114679100Y-92832600D01*
X113266100Y-92484600D02*
X114679100Y-92484600D01*
X113263100Y-92484600D02*
X112969100Y-92484600D01*
X112969100Y-93762600D02*
X112969100Y-92484600D01*
X112969100Y-92484600D02*
X112969100Y-79143600D01*
X112969100Y-79143600D02*
X112969100Y-78192600D01*
X112969100Y-78192600D02*
X117220100Y-78192600D01*
D10*
X111671100Y-95478600D02*
X128181100Y-95478600D01*
X110401100Y-77698600D02*
X110401100Y-94208600D01*
X128181100Y-95478600D02*
G75*
G03*
X129451100Y-94208600I1J1269999D01*
G01*
X129451100Y-77698600D02*
G75*
G03*
X128181100Y-76428600I-1269999J1D01*
G01*
X110401100Y-94208600D02*
G75*
G03*
X111671100Y-95478600I1270000J0D01*
G01*
X111671100Y-76428600D02*
G75*
G03*
X110401100Y-77698600I0J-1270000D01*
G01*
X129705100Y-89001600D02*
G75*
G03*
X129705100Y-89001600I-254000J0D01*
G01*
X129735078Y-87585600D02*
G75*
G03*
X129735078Y-87585600I-283978J0D01*
G01*
X120718078Y-95478600D02*
G75*
G03*
X120718078Y-95478600I-283978J0D01*
G01*
X120718078Y-76428600D02*
G75*
G03*
X120718078Y-76428600I-283978J0D01*
G01*
D11*
X121026100Y-90652600D02*
G75*
G03*
X121026100Y-90652600I-1100000J0D01*
G01*
D10*
X119672100Y-95478600D02*
G75*
G03*
X119672100Y-95478600I-254000J0D01*
G01*
X119672100Y-76428600D02*
G75*
G03*
X119672100Y-76428600I-254000J0D01*
G01*
X110655100Y-89001600D02*
G75*
G03*
X110655100Y-89001600I-254000J0D01*
G01*
X110685078Y-87985600D02*
G75*
G03*
X110685078Y-87985600I-283978J0D01*
G01*
%TO.C,X5*%
X186601100Y-75158600D02*
X186601100Y-58648600D01*
X185331100Y-57378600D02*
X168821100Y-57378600D01*
D11*
X184000100Y-74712600D02*
X179776100Y-74712600D01*
X184000100Y-73434600D02*
X184000100Y-74712600D01*
X184000100Y-59148600D02*
X184000100Y-73434600D01*
X183994100Y-60093600D02*
X183994100Y-60096600D01*
X182311100Y-73785600D02*
X182311100Y-73434600D01*
X182311100Y-73434600D02*
X184000100Y-73434600D01*
X181762100Y-72411600D02*
X179740100Y-72411600D01*
X181759100Y-73263600D02*
X181759100Y-70455600D01*
X181759100Y-70455600D02*
X172381100Y-70455600D01*
X179788100Y-59148600D02*
X184000100Y-59148600D01*
X179779100Y-73785600D02*
X182311100Y-73785600D01*
X179779100Y-73785600D02*
X179779100Y-73899600D01*
X179779100Y-60093600D02*
X183994100Y-60093600D01*
X179779100Y-60093600D02*
X179779100Y-59148600D01*
X179776100Y-74712600D02*
X179776100Y-73812600D01*
X179776100Y-73812600D02*
X174388100Y-73812600D01*
X179740100Y-72411600D02*
X179740100Y-70461600D01*
X178981100Y-74211600D02*
X179767100Y-74211600D01*
X178894100Y-74328600D02*
X178981100Y-74211600D01*
X178894100Y-74328600D02*
X178135100Y-74328600D01*
X178676100Y-73002600D02*
X178676100Y-71102600D01*
X178676100Y-71102600D02*
X178676100Y-70202600D01*
X178676100Y-71102600D02*
X177776100Y-70202600D01*
X178676100Y-70202600D02*
X177776100Y-70202600D01*
X178135100Y-74328600D02*
X178135100Y-74325600D01*
X178129100Y-74664600D02*
X176020100Y-74664600D01*
X178129100Y-74520600D02*
X178129100Y-74664600D01*
X178129100Y-74502600D02*
X178129100Y-73815600D01*
X178129100Y-73815600D02*
X178126100Y-73815600D01*
X177876100Y-69502600D02*
X178676100Y-70202600D01*
X177776100Y-70202600D02*
X177476100Y-69902600D01*
X177776100Y-70202600D02*
X175476100Y-70202600D01*
X177476100Y-69902600D02*
X177876100Y-69502600D01*
X176020100Y-74664600D02*
X176020100Y-74331600D01*
X176020100Y-74331600D02*
X176020100Y-74253600D01*
X176020100Y-74331600D02*
X175258100Y-74331600D01*
X176020100Y-74253600D02*
X178117100Y-74253600D01*
X176020100Y-74253600D02*
X176020100Y-73815600D01*
X176020100Y-73815600D02*
X176023100Y-73815600D01*
X175476100Y-73002600D02*
X178676100Y-73002600D01*
X175476100Y-70202600D02*
X175476100Y-73002600D01*
X175258100Y-74331600D02*
X175207100Y-74211600D01*
X175207100Y-74214600D02*
X175207100Y-74211600D01*
X174745100Y-74214600D02*
X175207100Y-74214600D01*
X174742100Y-74214600D02*
X174391100Y-74214600D01*
X174388100Y-74712600D02*
X170119100Y-74712600D01*
X174388100Y-73812600D02*
X174388100Y-74712600D01*
X174388100Y-73782600D02*
X174388100Y-73812600D01*
X174370100Y-60093600D02*
X179779100Y-60093600D01*
X174370100Y-60093600D02*
X170119100Y-60093600D01*
X174370100Y-59142600D02*
X174370100Y-60093600D01*
X172381100Y-73263600D02*
X181759100Y-73263600D01*
X172381100Y-70455600D02*
X172508100Y-70452600D01*
X172381100Y-70455600D02*
X172381100Y-73263600D01*
X171829100Y-73782600D02*
X174388100Y-73782600D01*
X171829100Y-73434600D02*
X171829100Y-73782600D01*
X170416100Y-73434600D02*
X171829100Y-73434600D01*
X170413100Y-73434600D02*
X170119100Y-73434600D01*
X170119100Y-74712600D02*
X170119100Y-73434600D01*
X170119100Y-73434600D02*
X170119100Y-60093600D01*
X170119100Y-60093600D02*
X170119100Y-59142600D01*
X170119100Y-59142600D02*
X174370100Y-59142600D01*
D10*
X168821100Y-76428600D02*
X185331100Y-76428600D01*
X167551100Y-58648600D02*
X167551100Y-75158600D01*
X185331100Y-76428600D02*
G75*
G03*
X186601100Y-75158600I1J1269999D01*
G01*
X186601100Y-58648600D02*
G75*
G03*
X185331100Y-57378600I-1269999J1D01*
G01*
X167551100Y-75158600D02*
G75*
G03*
X168821100Y-76428600I1270000J0D01*
G01*
X168821100Y-57378600D02*
G75*
G03*
X167551100Y-58648600I0J-1270000D01*
G01*
X186885078Y-69951600D02*
G75*
G03*
X186885078Y-69951600I-283978J0D01*
G01*
X186885078Y-68935600D02*
G75*
G03*
X186885078Y-68935600I-283978J0D01*
G01*
X177868078Y-76428600D02*
G75*
G03*
X177868078Y-76428600I-283978J0D01*
G01*
X177868078Y-57378600D02*
G75*
G03*
X177868078Y-57378600I-283978J0D01*
G01*
D11*
X178176100Y-71602600D02*
G75*
G03*
X178176100Y-71602600I-1100000J0D01*
G01*
D10*
X176852078Y-76428600D02*
G75*
G03*
X176852078Y-76428600I-283978J0D01*
G01*
X176852078Y-57378600D02*
G75*
G03*
X176852078Y-57378600I-283978J0D01*
G01*
X167835078Y-69951600D02*
G75*
G03*
X167835078Y-69951600I-283978J0D01*
G01*
X167835078Y-68935600D02*
G75*
G03*
X167835078Y-68935600I-283978J0D01*
G01*
%TD*%
M02*
