%TF.GenerationSoftware,KiCad,Pcbnew,7.0.6-7.0.6~ubuntu22.04.1*%
%TF.CreationDate,2023-08-05T21:08:19+01:00*%
%TF.ProjectId,working,776f726b-696e-4672-9e6b-696361645f70,rev?*%
%TF.SameCoordinates,Original*%
%TF.FileFunction,Paste,Top*%
%TF.FilePolarity,Positive*%
%FSLAX46Y46*%
G04 Gerber Fmt 4.6, Leading zero omitted, Abs format (unit mm)*
G04 Created by KiCad (PCBNEW 7.0.6-7.0.6~ubuntu22.04.1) date 2023-08-05 21:08:19*
%MOMM*%
%LPD*%
G01*
G04 APERTURE LIST*
%ADD10R,1.550000X0.600000*%
%ADD11R,1.800000X1.200000*%
%ADD12R,0.500000X0.500000*%
%ADD13R,0.500000X0.400000*%
%ADD14R,1.240000X1.500000*%
%ADD15R,1.500000X2.200000*%
%ADD16R,1.500000X1.240000*%
%ADD17R,0.575000X0.488000*%
%ADD18R,0.800000X0.800000*%
%ADD19R,1.000000X1.075000*%
%ADD20R,0.450000X0.900000*%
%ADD21R,1.075000X1.000000*%
%ADD22R,1.200000X0.550000*%
G04 APERTURE END LIST*
D10*
%TO.C,CONN3*%
X156147100Y-106503600D03*
X156147100Y-105503600D03*
X156147100Y-104503600D03*
X156147100Y-103503600D03*
D11*
X160047100Y-107803600D03*
X160047100Y-102203600D03*
%TD*%
D10*
%TO.C,CONN4*%
X140855100Y-103503600D03*
X140855100Y-104503600D03*
X140855100Y-105503600D03*
X140855100Y-106503600D03*
D11*
X136955100Y-102203600D03*
X136955100Y-107803600D03*
%TD*%
D12*
%TO.C,Q2*%
X154354100Y-106515600D03*
D13*
X154354100Y-105765600D03*
D12*
X154354100Y-105015600D03*
X152554100Y-105015600D03*
D13*
X152554100Y-105765600D03*
D12*
X152554100Y-106515600D03*
%TD*%
D14*
%TO.C,C2*%
X142598100Y-108178600D03*
X144498100Y-108178600D03*
%TD*%
D15*
%TO.C,LED1*%
X150051100Y-98018600D03*
X146951100Y-98018600D03*
%TD*%
D16*
%TO.C,C4*%
X143040100Y-103286600D03*
X143040100Y-101386600D03*
%TD*%
D17*
%TO.C,X1*%
X147866100Y-104184600D03*
X147866100Y-104984600D03*
X147866100Y-105784600D03*
X147866100Y-106584600D03*
X149136100Y-106584600D03*
X149136100Y-105784600D03*
X149136100Y-104984600D03*
X149136100Y-104184600D03*
%TD*%
D18*
%TO.C,D1*%
X140107100Y-101320600D03*
X138607100Y-101320600D03*
%TD*%
D19*
%TO.C,R1*%
X141389100Y-102297600D03*
X141389100Y-100597600D03*
%TD*%
D20*
%TO.C,R3*%
X154500100Y-101613600D03*
X153600100Y-101613600D03*
X152800100Y-101613600D03*
X151900100Y-101613600D03*
X151900100Y-103313600D03*
X152800100Y-103313600D03*
X153600100Y-103313600D03*
X154500100Y-103313600D03*
%TD*%
D16*
%TO.C,C3*%
X145072100Y-103286600D03*
X145072100Y-101386600D03*
%TD*%
D21*
%TO.C,C1*%
X147700100Y-108305600D03*
X146000100Y-108305600D03*
%TD*%
%TO.C,R2*%
X152477100Y-108686600D03*
X154177100Y-108686600D03*
%TD*%
D22*
%TO.C,U1*%
X142756100Y-104688600D03*
X142756100Y-105638600D03*
X142756100Y-106588600D03*
X145356100Y-106588600D03*
X145356100Y-105638600D03*
X145356100Y-104688600D03*
%TD*%
M02*
