%TF.GenerationSoftware,KiCad,Pcbnew,7.0.6-7.0.6~ubuntu22.04.1*%
%TF.CreationDate,2023-08-07T02:50:21+01:00*%
%TF.ProjectId,working,776f726b-696e-4672-9e6b-696361645f70,rev?*%
%TF.SameCoordinates,Original*%
%TF.FileFunction,Copper,L2,Bot*%
%TF.FilePolarity,Positive*%
%FSLAX46Y46*%
G04 Gerber Fmt 4.6, Leading zero omitted, Abs format (unit mm)*
G04 Created by KiCad (PCBNEW 7.0.6-7.0.6~ubuntu22.04.1) date 2023-08-07 02:50:21*
%MOMM*%
%LPD*%
G01*
G04 APERTURE LIST*
G04 Aperture macros list*
%AMOutline5P*
0 Free polygon, 5 corners , with rotation*
0 The origin of the aperture is its center*
0 number of corners: always 5*
0 $1 to $10 corner X, Y*
0 $11 Rotation angle, in degrees counterclockwise*
0 create outline with 5 corners*
4,1,5,$1,$2,$3,$4,$5,$6,$7,$8,$9,$10,$1,$2,$11*%
%AMOutline6P*
0 Free polygon, 6 corners , with rotation*
0 The origin of the aperture is its center*
0 number of corners: always 6*
0 $1 to $12 corner X, Y*
0 $13 Rotation angle, in degrees counterclockwise*
0 create outline with 6 corners*
4,1,6,$1,$2,$3,$4,$5,$6,$7,$8,$9,$10,$11,$12,$1,$2,$13*%
%AMOutline7P*
0 Free polygon, 7 corners , with rotation*
0 The origin of the aperture is its center*
0 number of corners: always 7*
0 $1 to $14 corner X, Y*
0 $15 Rotation angle, in degrees counterclockwise*
0 create outline with 7 corners*
4,1,7,$1,$2,$3,$4,$5,$6,$7,$8,$9,$10,$11,$12,$13,$14,$1,$2,$15*%
%AMOutline8P*
0 Free polygon, 8 corners , with rotation*
0 The origin of the aperture is its center*
0 number of corners: always 8*
0 $1 to $16 corner X, Y*
0 $17 Rotation angle, in degrees counterclockwise*
0 create outline with 8 corners*
4,1,8,$1,$2,$3,$4,$5,$6,$7,$8,$9,$10,$11,$12,$13,$14,$15,$16,$1,$2,$17*%
G04 Aperture macros list end*
%TA.AperFunction,ComponentPad*%
%ADD10C,1.676400*%
%TD*%
%TA.AperFunction,ComponentPad*%
%ADD11C,5.080000*%
%TD*%
%TA.AperFunction,ComponentPad*%
%ADD12Outline8P,-0.889000X0.368236X-0.368236X0.889000X0.368236X0.889000X0.889000X0.368236X0.889000X-0.368236X0.368236X-0.889000X-0.368236X-0.889000X-0.889000X-0.368236X180.000000*%
%TD*%
%TA.AperFunction,ComponentPad*%
%ADD13C,1.778000*%
%TD*%
%TA.AperFunction,ComponentPad*%
%ADD14Outline8P,-0.889000X0.368236X-0.368236X0.889000X0.368236X0.889000X0.889000X0.368236X0.889000X-0.368236X0.368236X-0.889000X-0.368236X-0.889000X-0.889000X-0.368236X0.000000*%
%TD*%
%TA.AperFunction,ComponentPad*%
%ADD15Outline8P,-0.838200X0.347194X-0.347194X0.838200X0.347194X0.838200X0.838200X0.347194X0.838200X-0.347194X0.347194X-0.838200X-0.347194X-0.838200X-0.838200X-0.347194X90.000000*%
%TD*%
%TA.AperFunction,ComponentPad*%
%ADD16Outline8P,-0.889000X0.368236X-0.368236X0.889000X0.368236X0.889000X0.889000X0.368236X0.889000X-0.368236X0.368236X-0.889000X-0.368236X-0.889000X-0.889000X-0.368236X90.000000*%
%TD*%
%TA.AperFunction,ComponentPad*%
%ADD17R,1.778000X1.778000*%
%TD*%
%TA.AperFunction,ViaPad*%
%ADD18C,0.800100*%
%TD*%
%TA.AperFunction,ViaPad*%
%ADD19C,0.906400*%
%TD*%
%TA.AperFunction,Conductor*%
%ADD20C,0.304800*%
%TD*%
%TA.AperFunction,Conductor*%
%ADD21C,0.609600*%
%TD*%
%TA.AperFunction,Conductor*%
%ADD22C,0.406400*%
%TD*%
%TA.AperFunction,Conductor*%
%ADD23C,0.254000*%
%TD*%
%TA.AperFunction,Conductor*%
%ADD24C,0.203200*%
%TD*%
G04 APERTURE END LIST*
D10*
%TO.P,JP16,1*%
%TO.N,ELEC0*%
X163741100Y-83413600D03*
%TD*%
%TO.P,IRQ0,1*%
%TO.N,IRQ*%
X124371100Y-130403600D03*
%TD*%
%TO.P,JP10,1*%
%TO.N,ELEC6*%
X143421100Y-83540600D03*
%TD*%
D11*
%TO.P,AL12,P$1*%
%TO.N,ELEC11*%
X133261100Y-122021600D03*
%TO.P,AL12,P$2*%
X133261100Y-115925600D03*
%TD*%
%TO.P,AL6,P$1*%
%TO.N,ELEC5*%
X153581100Y-115925600D03*
%TO.P,AL6,P$2*%
X153581100Y-122021600D03*
%TD*%
D12*
%TO.P,JP1,1*%
%TO.N,D7*%
X128181100Y-93573600D03*
%TO.P,JP1,2*%
%TO.N,D6*%
X128181100Y-91033600D03*
%TO.P,JP1,3*%
%TO.N,D5*%
X128181100Y-88493600D03*
%TO.P,JP1,4*%
%TO.N,D4*%
X128181100Y-85953600D03*
%TO.P,JP1,5*%
%TO.N,D3*%
X128181100Y-83413600D03*
%TO.P,JP1,6*%
%TO.N,D2*%
X128181100Y-80873600D03*
%TO.P,JP1,7*%
%TO.N,D1*%
X128181100Y-78333600D03*
%TO.P,JP1,8*%
%TO.N,D0*%
X128181100Y-75793600D03*
%TD*%
D10*
%TO.P,ADDR0,1*%
%TO.N,ADDR*%
X124371100Y-132943600D03*
%TD*%
D11*
%TO.P,AL11,P$1*%
%TO.N,ELEC10*%
X133261100Y-104241600D03*
%TO.P,AL11,P$2*%
X133261100Y-98145600D03*
%TD*%
D10*
%TO.P,JP3,1*%
%TO.N,ELEC10*%
X133261100Y-101193600D03*
%TD*%
%TO.P,JP15,1*%
%TO.N,ELEC1*%
X163741100Y-101193600D03*
%TD*%
D13*
%TO.P,JP6,1*%
%TO.N,SCL*%
X128181100Y-120497600D03*
%TO.P,JP6,2*%
%TO.N,SDA*%
X128181100Y-117957600D03*
%TO.P,JP6,3*%
%TO.N,AREF*%
X128181100Y-115417600D03*
%TO.P,JP6,4*%
%TO.N,GND*%
X128181100Y-112877600D03*
%TO.P,JP6,5*%
%TO.N,D13*%
X128181100Y-110337600D03*
%TO.P,JP6,6*%
%TO.N,D12*%
X128181100Y-107797600D03*
%TO.P,JP6,7*%
%TO.N,D11*%
X128181100Y-105257600D03*
%TO.P,JP6,8*%
%TO.N,D10*%
X128181100Y-102717600D03*
%TO.P,JP6,9*%
%TO.N,D9*%
X128181100Y-100177600D03*
%TO.P,JP6,10*%
%TO.N,D8*%
X128181100Y-97637600D03*
%TD*%
D10*
%TO.P,JP12,1*%
%TO.N,ELEC4*%
X153581100Y-101193600D03*
%TD*%
D11*
%TO.P,AL8,P$1*%
%TO.N,ELEC7*%
X143421100Y-104241600D03*
%TO.P,AL8,P$2*%
X143421100Y-98145600D03*
%TD*%
D10*
%TO.P,JP13,1*%
%TO.N,ELEC3*%
X153581100Y-83413600D03*
%TD*%
D11*
%TO.P,AL9,P$1*%
%TO.N,ELEC8*%
X143421100Y-122021600D03*
%TO.P,AL9,P$2*%
X143421100Y-115925600D03*
%TD*%
%TO.P,AL1,P$1*%
%TO.N,ELEC0*%
X163741100Y-86461600D03*
%TO.P,AL1,P$2*%
X163741100Y-80365600D03*
%TD*%
D14*
%TO.P,JP8,1*%
%TO.N,A5*%
X168821100Y-75793600D03*
%TO.P,JP8,2*%
%TO.N,A4*%
X168821100Y-78333600D03*
%TO.P,JP8,3*%
%TO.N,A3*%
X168821100Y-80873600D03*
%TO.P,JP8,4*%
%TO.N,A2*%
X168821100Y-83413600D03*
%TO.P,JP8,5*%
%TO.N,A1*%
X168821100Y-85953600D03*
%TO.P,JP8,6*%
%TO.N,A0*%
X168821100Y-88493600D03*
%TD*%
D10*
%TO.P,JP5,1*%
%TO.N,ELEC9*%
X133261100Y-83667600D03*
%TD*%
D11*
%TO.P,AL5,P$1*%
%TO.N,ELEC4*%
X153581100Y-104241600D03*
%TO.P,AL5,P$2*%
X153581100Y-98145600D03*
%TD*%
%TO.P,AL3,P$1*%
%TO.N,ELEC2*%
X163741100Y-115925600D03*
%TO.P,AL3,P$2*%
X163741100Y-122021600D03*
%TD*%
%TO.P,AL7,P$1*%
%TO.N,ELEC6*%
X143421100Y-86588600D03*
%TO.P,AL7,P$2*%
X143421100Y-80492600D03*
%TD*%
D10*
%TO.P,JP14,1*%
%TO.N,ELEC2*%
X163741100Y-118973600D03*
%TD*%
D11*
%TO.P,AL4,P$1*%
%TO.N,ELEC3*%
X153581100Y-86461600D03*
%TO.P,AL4,P$2*%
X153581100Y-80365600D03*
%TD*%
D15*
%TO.P,U$41,3V*%
%TO.N,+3V*%
X172631100Y-103733600D03*
%TO.P,U$41,5V*%
%TO.N,+5V*%
X172631100Y-101193600D03*
D16*
%TO.P,U$41,5V_ICSP*%
%TO.N,N/C*%
X144691100Y-73126600D03*
D15*
%TO.P,U$41,A0*%
%TO.N,A0*%
X172631100Y-88493600D03*
%TO.P,U$41,A1*%
%TO.N,A1*%
X172631100Y-85953600D03*
%TO.P,U$41,A2*%
%TO.N,A2*%
X172631100Y-83413600D03*
%TO.P,U$41,A3*%
%TO.N,A3*%
X172631100Y-80873600D03*
%TO.P,U$41,A4*%
%TO.N,A4*%
X172631100Y-78333600D03*
%TO.P,U$41,A5*%
%TO.N,A5*%
X172631100Y-75793600D03*
%TO.P,U$41,AREF*%
%TO.N,AREF*%
X124371100Y-115417600D03*
%TO.P,U$41,D0*%
%TO.N,D0*%
X124371100Y-75793600D03*
%TO.P,U$41,D1*%
%TO.N,D1*%
X124371100Y-78333600D03*
%TO.P,U$41,D2*%
%TO.N,D2*%
X124371100Y-80873600D03*
%TO.P,U$41,D3*%
%TO.N,D3*%
X124371100Y-83413600D03*
%TO.P,U$41,D4*%
%TO.N,D4*%
X124371100Y-85953600D03*
%TO.P,U$41,D5*%
%TO.N,D5*%
X124371100Y-88493600D03*
%TO.P,U$41,D6*%
%TO.N,D6*%
X124371100Y-91033600D03*
%TO.P,U$41,D7*%
%TO.N,D7*%
X124371100Y-93573600D03*
%TO.P,U$41,D8*%
%TO.N,D8*%
X124371100Y-97637600D03*
%TO.P,U$41,D9*%
%TO.N,D9*%
X124371100Y-100177600D03*
%TO.P,U$41,D10*%
%TO.N,D10*%
X124371100Y-102717600D03*
%TO.P,U$41,D11*%
%TO.N,D11*%
X124371100Y-105257600D03*
%TO.P,U$41,D12*%
%TO.N,D12*%
X124371100Y-107797600D03*
%TO.P,U$41,D13*%
%TO.N,D13*%
X124371100Y-110337600D03*
%TO.P,U$41,GND*%
%TO.N,GND*%
X124371100Y-112877600D03*
%TO.P,U$41,GND@1*%
X172631100Y-96113600D03*
%TO.P,U$41,GND@2*%
X172631100Y-98653600D03*
D16*
%TO.P,U$41,GND@3*%
X149771100Y-73126600D03*
D15*
%TO.P,U$41,IOREF*%
%TO.N,VCCIO*%
X172631100Y-108813600D03*
D17*
%TO.P,U$41,MISO*%
%TO.N,N/C*%
X144691100Y-75666600D03*
D16*
%TO.P,U$41,MOSI*%
X147231100Y-73126600D03*
D15*
%TO.P,U$41,RESERVED*%
%TO.N,NC*%
X172631100Y-111353600D03*
%TO.P,U$41,RESET*%
%TO.N,~{RESET}*%
X172631100Y-106273600D03*
D16*
%TO.P,U$41,RESET_ICSP*%
%TO.N,N/C*%
X149771100Y-75666600D03*
%TO.P,U$41,SCK*%
X147231100Y-75666600D03*
D15*
%TO.P,U$41,SCL*%
%TO.N,SCL*%
X124371100Y-120497600D03*
%TO.P,U$41,SDA*%
%TO.N,SDA*%
X124371100Y-117957600D03*
%TO.P,U$41,VIN*%
%TO.N,VIN*%
X172631100Y-93573600D03*
%TD*%
D10*
%TO.P,JP11,1*%
%TO.N,ELEC5*%
X153581100Y-118973600D03*
%TD*%
%TO.P,JP9,1*%
%TO.N,ELEC7*%
X143421100Y-101193600D03*
%TD*%
%TO.P,JP7,1*%
%TO.N,ELEC8*%
X143421100Y-118973600D03*
%TD*%
D11*
%TO.P,AL10,P$1*%
%TO.N,ELEC9*%
X133261100Y-86715600D03*
%TO.P,AL10,P$2*%
X133261100Y-80619600D03*
%TD*%
D14*
%TO.P,JP4,1*%
%TO.N,VIN*%
X168821100Y-93573600D03*
%TO.P,JP4,2*%
%TO.N,GND*%
X168821100Y-96113600D03*
%TO.P,JP4,3*%
X168821100Y-98653600D03*
%TO.P,JP4,4*%
%TO.N,+5V*%
X168821100Y-101193600D03*
%TO.P,JP4,5*%
%TO.N,+3V*%
X168821100Y-103733600D03*
%TO.P,JP4,6*%
%TO.N,~{RESET}*%
X168821100Y-106273600D03*
%TO.P,JP4,7*%
%TO.N,VCCIO*%
X168821100Y-108813600D03*
%TO.P,JP4,8*%
%TO.N,NC*%
X168821100Y-111353600D03*
%TD*%
D11*
%TO.P,AL2,P$1*%
%TO.N,ELEC1*%
X163741100Y-104241600D03*
%TO.P,AL2,P$2*%
X163741100Y-98145600D03*
%TD*%
D10*
%TO.P,JP2,1*%
%TO.N,ELEC11*%
X133261100Y-118973600D03*
%TD*%
D18*
%TO.N,GND*%
X135293100Y-128625600D03*
X140246100Y-137134600D03*
X165900100Y-137200600D03*
%TO.N,+5V*%
X167043100Y-134594600D03*
%TO.N,3.3V*%
X144056100Y-130784600D03*
X158026100Y-136499600D03*
%TO.N,IRQ*%
X143675100Y-133197600D03*
%TO.N,SCL_3V*%
X145326100Y-134086600D03*
X135547100Y-134213600D03*
%TO.N,SDA_3V*%
X135166100Y-129768600D03*
X145834100Y-135229600D03*
D19*
%TO.N,VCCIO*%
X132626100Y-134340600D03*
X167043100Y-133197600D03*
%TD*%
D20*
%TO.N,GND*%
X123101100Y-134721600D02*
X125895100Y-134721600D01*
X128943100Y-131673600D02*
X134150100Y-131673600D01*
X122847100Y-134467600D02*
X123101100Y-134721600D01*
D21*
X171234100Y-100050600D02*
X171234100Y-123037600D01*
X134150100Y-135102600D02*
X136182100Y-137134600D01*
X136182100Y-137134600D02*
X140246100Y-137134600D01*
X169710100Y-124561600D02*
X169710100Y-135483600D01*
D20*
X122847100Y-129133600D02*
X122847100Y-134467600D01*
D21*
X168186100Y-137200600D02*
X165900100Y-137200600D01*
X134150100Y-131673600D02*
X134150100Y-135102600D01*
D20*
X126911100Y-122021600D02*
X126911100Y-126085600D01*
D22*
X170853100Y-95097600D02*
X170853100Y-74142600D01*
D20*
X126403100Y-121513600D02*
X126911100Y-122021600D01*
X124371100Y-128625600D02*
X123355100Y-128625600D01*
X127165100Y-112877600D02*
X126403100Y-113639600D01*
D22*
X169837100Y-73126600D02*
X149771100Y-73126600D01*
D20*
X125895100Y-134721600D02*
X128943100Y-131673600D01*
X123355100Y-128625600D02*
X122847100Y-129133600D01*
D21*
X134150100Y-128625600D02*
X135293100Y-128625600D01*
X172631100Y-98653600D02*
X171234100Y-100050600D01*
D20*
X126403100Y-113639600D02*
X126403100Y-121513600D01*
X126911100Y-126085600D02*
X124371100Y-128625600D01*
D21*
X134150100Y-128625600D02*
X134150100Y-131673600D01*
X168089600Y-137104100D02*
X168186100Y-137200600D01*
D20*
X128181100Y-112877600D02*
X127165100Y-112877600D01*
D22*
X170853100Y-74142600D02*
X169837100Y-73126600D01*
X168821100Y-96113600D02*
X169837100Y-96113600D01*
X169837100Y-96113600D02*
X170853100Y-95097600D01*
D21*
X171234100Y-123037600D02*
X169710100Y-124561600D01*
X169710100Y-135483600D02*
X168089600Y-137104100D01*
%TO.N,+5V*%
X167043100Y-134594600D02*
X167468925Y-134594600D01*
X168694100Y-123799600D02*
X168694100Y-133332294D01*
X168694100Y-133332294D02*
X167468925Y-134594600D01*
X170218100Y-122275600D02*
X168694100Y-123799600D01*
X168821100Y-101193600D02*
X170218100Y-101193600D01*
X170218100Y-101193600D02*
X170218100Y-122275600D01*
D23*
%TO.N,3.3V*%
X144056100Y-130911600D02*
X148247100Y-135102600D01*
X152692100Y-135102600D02*
X153327100Y-134467600D01*
X153327100Y-134467600D02*
X155994100Y-134467600D01*
X144056100Y-130784600D02*
X144056100Y-130911600D01*
X155994100Y-134467600D02*
X158026100Y-136499600D01*
X148247100Y-135102600D02*
X152692100Y-135102600D01*
%TO.N,IRQ*%
X143675100Y-133070600D02*
X143675100Y-133197600D01*
X124371100Y-130403600D02*
X127419100Y-127355600D01*
X137452100Y-129514600D02*
X140119100Y-129514600D01*
X127419100Y-127355600D02*
X135293100Y-127355600D01*
X140119100Y-129514600D02*
X143675100Y-133070600D01*
X135293100Y-127355600D02*
X137452100Y-129514600D01*
D24*
%TO.N,SCL_3V*%
X146342100Y-134086600D02*
X147104100Y-134848600D01*
X147104100Y-134848600D02*
X147104100Y-135737600D01*
X147104100Y-135737600D02*
X146596100Y-136245600D01*
X137452100Y-136245600D02*
X135547100Y-134213600D01*
X146596100Y-136245600D02*
X137452100Y-136245600D01*
X145326100Y-134086600D02*
X146342100Y-134086600D01*
D23*
%TO.N,SDA_3V*%
X140881100Y-135483600D02*
X135166100Y-129768600D01*
X145834100Y-135229600D02*
X145834100Y-135483600D01*
X145834100Y-135483600D02*
X140881100Y-135483600D01*
%TO.N,VCCIO*%
X141643100Y-137769600D02*
X141065250Y-138347450D01*
X132822950Y-138347450D02*
X132245100Y-137769600D01*
X141065250Y-138347450D02*
X132822950Y-138347450D01*
X168313100Y-108813600D02*
X167297100Y-109829600D01*
X132245100Y-134721600D02*
X132626100Y-134340600D01*
X132245100Y-137769600D02*
X132245100Y-134721600D01*
X167297100Y-124307600D02*
X167043100Y-124561600D01*
X168821100Y-108813600D02*
X168313100Y-108813600D01*
X167043100Y-124561600D02*
X167043100Y-133197600D01*
X162471100Y-137769600D02*
X141643100Y-137769600D01*
X167043100Y-133197600D02*
X162471100Y-137769600D01*
X167297100Y-109829600D02*
X167297100Y-124307600D01*
%TD*%
M02*
