M48
; DRILL file {KiCad 7.0.6-7.0.6~ubuntu22.04.1} date Fri 04 Aug 2023 01:40:33 BST
; FORMAT={-:-/ absolute / metric / decimal}
; #@! TF.CreationDate,2023-08-04T01:40:33+01:00
; #@! TF.GenerationSoftware,Kicad,Pcbnew,7.0.6-7.0.6~ubuntu22.04.1
; #@! TF.FileFunction,MixedPlating,1,16
FMAT,2
METRIC
; #@! TA.AperFunction,Plated,PTH,ViaDrill
T1C0.500
; #@! TA.AperFunction,Plated,PTH,ComponentDrill
T2C0.950
; #@! TA.AperFunction,Plated,PTH,ComponentDrill
T3C1.000
; #@! TA.AperFunction,Plated,PTH,ComponentDrill
T4C1.016
; #@! TA.AperFunction,Plated,PTH,ComponentDrill
T5C2.300
; #@! TA.AperFunction,Plated,PTH,ComponentDrill
T6C2.500
; #@! TA.AperFunction,NonPlated,NPTH,ComponentDrill
T7C1.100
%
G90
G05
T1
X141.834Y-101.956
X142.342Y-106.02
X143.104Y-102.972
X148.438Y-110.084
T2
X157.031Y-101.504
X157.031Y-104.004
X157.031Y-106.004
X157.031Y-108.504
T3
X139.997Y-101.504
X139.997Y-104.004
X139.997Y-106.004
X139.997Y-108.504
T4
X141.58Y-97.384
X142.088Y-112.624
X144.628Y-112.624
X147.168Y-112.624
X149.708Y-112.624
X152.248Y-112.624
X154.788Y-112.624
T5
X159.741Y-98.434
X159.741Y-111.574
T6
X137.917Y-99.154
X137.917Y-110.854
T7
X137.875Y-102.754
X137.875Y-107.254
T0
M30
