%TF.GenerationSoftware,KiCad,Pcbnew,7.0.6-7.0.6~ubuntu22.04.1*%
%TF.CreationDate,2023-08-07T04:40:48+01:00*%
%TF.ProjectId,working,776f726b-696e-4672-9e6b-696361645f70,rev?*%
%TF.SameCoordinates,Original*%
%TF.FileFunction,Soldermask,Bot*%
%TF.FilePolarity,Negative*%
%FSLAX46Y46*%
G04 Gerber Fmt 4.6, Leading zero omitted, Abs format (unit mm)*
G04 Created by KiCad (PCBNEW 7.0.6-7.0.6~ubuntu22.04.1) date 2023-08-07 04:40:48*
%MOMM*%
%LPD*%
G01*
G04 APERTURE LIST*
%ADD10C,0.924570*%
%ADD11C,0.915808*%
%ADD12C,0.898024*%
%ADD13C,1.143000*%
%ADD14C,0.889000*%
%ADD15C,3.000000*%
%ADD16O,2.984500X5.765800*%
%ADD17C,2.082800*%
G04 APERTURE END LIST*
%TO.C,R1*%
G36*
X167735872Y-96392335D02*
G01*
X167929369Y-96448506D01*
X168108189Y-96541353D01*
X168265454Y-96667305D01*
X168395123Y-96821521D01*
X168493734Y-97000848D01*
X168575553Y-97388129D01*
X168552440Y-97592354D01*
X168491151Y-97784312D01*
X168393592Y-97960626D01*
X168263510Y-98114519D01*
X168105904Y-98240078D01*
X167926832Y-98332476D01*
X167733174Y-98388163D01*
X167593700Y-98399858D01*
X167593060Y-98411610D01*
X167532499Y-98404990D01*
X167472624Y-98410011D01*
X167472138Y-98398392D01*
X167337507Y-98383677D01*
X167150305Y-98324686D01*
X166978215Y-98230297D01*
X166827852Y-98104141D01*
X166704998Y-97951068D01*
X166614377Y-97776965D01*
X166559473Y-97588525D01*
X166547793Y-97454780D01*
X166537317Y-97454336D01*
X166542465Y-97393776D01*
X166537170Y-97333148D01*
X166547658Y-97332690D01*
X166559106Y-97198015D01*
X166613835Y-97008511D01*
X166704483Y-96833326D01*
X166827565Y-96679192D01*
X166978353Y-96552031D01*
X167153823Y-96455202D01*
X167531936Y-96374721D01*
X167735872Y-96392335D01*
G37*
G36*
X167728271Y-88764735D02*
G01*
X167921769Y-88820906D01*
X168100588Y-88913752D01*
X168257854Y-89039704D01*
X168387523Y-89193921D01*
X168486135Y-89373248D01*
X168567953Y-89760529D01*
X168544840Y-89964754D01*
X168483551Y-90156712D01*
X168385992Y-90333026D01*
X168255910Y-90486919D01*
X168098304Y-90612478D01*
X167919232Y-90704876D01*
X167725574Y-90760563D01*
X167586099Y-90772259D01*
X167585459Y-90784010D01*
X167524898Y-90777391D01*
X167465024Y-90782411D01*
X167464538Y-90770793D01*
X167329906Y-90756077D01*
X167142705Y-90697085D01*
X166970614Y-90602697D01*
X166820252Y-90476541D01*
X166697398Y-90323468D01*
X166606777Y-90149365D01*
X166551873Y-89960924D01*
X166540193Y-89827181D01*
X166529717Y-89826736D01*
X166534865Y-89766177D01*
X166529570Y-89705548D01*
X166540058Y-89705091D01*
X166551506Y-89570415D01*
X166606235Y-89380911D01*
X166696883Y-89205726D01*
X166819965Y-89051592D01*
X166970753Y-88924431D01*
X167146223Y-88827602D01*
X167466976Y-88759330D01*
X167467713Y-88742231D01*
X167728271Y-88764735D01*
G37*
%TO.C,U1*%
G36*
X165341349Y-88221895D02*
G01*
X165549005Y-88302342D01*
X165738342Y-88419575D01*
X165902915Y-88569603D01*
X166037118Y-88747316D01*
X166136382Y-88946664D01*
X166197324Y-89160856D01*
X166218146Y-89385561D01*
X166137707Y-89815874D01*
X166037118Y-90017884D01*
X165902915Y-90195597D01*
X165738342Y-90345625D01*
X165549005Y-90462858D01*
X165341349Y-90543305D01*
X165122447Y-90584224D01*
X164899753Y-90584224D01*
X164680851Y-90543305D01*
X164473195Y-90462858D01*
X164283858Y-90345625D01*
X164119285Y-90195597D01*
X163985082Y-90017884D01*
X163885818Y-89818536D01*
X163824876Y-89604344D01*
X163804328Y-89382600D01*
X163824876Y-89160856D01*
X163885818Y-88946664D01*
X163985082Y-88747316D01*
X164119285Y-88569603D01*
X164283858Y-88419575D01*
X164473195Y-88302342D01*
X164680851Y-88221895D01*
X164899753Y-88180976D01*
X165122447Y-88180976D01*
X165341349Y-88221895D01*
G37*
G36*
X162801349Y-96603895D02*
G01*
X163009005Y-96684342D01*
X163198342Y-96801575D01*
X163362915Y-96951603D01*
X163497118Y-97129316D01*
X163596382Y-97328664D01*
X163657324Y-97542856D01*
X163678146Y-97767561D01*
X163597707Y-98197874D01*
X163497118Y-98399884D01*
X163362915Y-98577597D01*
X163198342Y-98727625D01*
X163009005Y-98844858D01*
X162801349Y-98925305D01*
X162582447Y-98966224D01*
X162359753Y-98966224D01*
X162140851Y-98925305D01*
X161933195Y-98844858D01*
X161743858Y-98727625D01*
X161579285Y-98577597D01*
X161445082Y-98399884D01*
X161345818Y-98200536D01*
X161284876Y-97986344D01*
X161264328Y-97764600D01*
X161284876Y-97542856D01*
X161345818Y-97328664D01*
X161445082Y-97129316D01*
X161579285Y-96951603D01*
X161743858Y-96801575D01*
X161933195Y-96684342D01*
X162140851Y-96603895D01*
X162359753Y-96562976D01*
X162582447Y-96562976D01*
X162801349Y-96603895D01*
G37*
G36*
X162801349Y-88221895D02*
G01*
X163009005Y-88302342D01*
X163198342Y-88419575D01*
X163362915Y-88569603D01*
X163497118Y-88747316D01*
X163596382Y-88946664D01*
X163657324Y-89160856D01*
X163678146Y-89385561D01*
X163597707Y-89815874D01*
X163497118Y-90017884D01*
X163362915Y-90195597D01*
X163198342Y-90345625D01*
X163009005Y-90462858D01*
X162801349Y-90543305D01*
X162582447Y-90584224D01*
X162359753Y-90584224D01*
X162140851Y-90543305D01*
X161933195Y-90462858D01*
X161743858Y-90345625D01*
X161579285Y-90195597D01*
X161445082Y-90017884D01*
X161345818Y-89818536D01*
X161284876Y-89604344D01*
X161264328Y-89382600D01*
X161284876Y-89160856D01*
X161345818Y-88946664D01*
X161445082Y-88747316D01*
X161579285Y-88569603D01*
X161743858Y-88419575D01*
X161933195Y-88302342D01*
X162140851Y-88221895D01*
X162359753Y-88180976D01*
X162582447Y-88180976D01*
X162801349Y-88221895D01*
G37*
G36*
X160261349Y-96603895D02*
G01*
X160469005Y-96684342D01*
X160658342Y-96801575D01*
X160822915Y-96951603D01*
X160957118Y-97129316D01*
X161056382Y-97328664D01*
X161117324Y-97542856D01*
X161138146Y-97767561D01*
X161057707Y-98197874D01*
X160957118Y-98399884D01*
X160822915Y-98577597D01*
X160658342Y-98727625D01*
X160469005Y-98844858D01*
X160261349Y-98925305D01*
X160042447Y-98966224D01*
X159819753Y-98966224D01*
X159600851Y-98925305D01*
X159393195Y-98844858D01*
X159203858Y-98727625D01*
X159039285Y-98577597D01*
X158905082Y-98399884D01*
X158805818Y-98200536D01*
X158744876Y-97986344D01*
X158724328Y-97764600D01*
X158744876Y-97542856D01*
X158805818Y-97328664D01*
X158905082Y-97129316D01*
X159039285Y-96951603D01*
X159203858Y-96801575D01*
X159393195Y-96684342D01*
X159600851Y-96603895D01*
X159819753Y-96562976D01*
X160042447Y-96562976D01*
X160261349Y-96603895D01*
G37*
G36*
X160261349Y-88221895D02*
G01*
X160469005Y-88302342D01*
X160658342Y-88419575D01*
X160822915Y-88569603D01*
X160957118Y-88747316D01*
X161056382Y-88946664D01*
X161117324Y-89160856D01*
X161138146Y-89385561D01*
X161057707Y-89815874D01*
X160957118Y-90017884D01*
X160822915Y-90195597D01*
X160658342Y-90345625D01*
X160469005Y-90462858D01*
X160261349Y-90543305D01*
X160042447Y-90584224D01*
X159819753Y-90584224D01*
X159600851Y-90543305D01*
X159393195Y-90462858D01*
X159203858Y-90345625D01*
X159039285Y-90195597D01*
X158905082Y-90017884D01*
X158805818Y-89818536D01*
X158744876Y-89604344D01*
X158724328Y-89382600D01*
X158744876Y-89160856D01*
X158805818Y-88946664D01*
X158905082Y-88747316D01*
X159039285Y-88569603D01*
X159203858Y-88419575D01*
X159393195Y-88302342D01*
X159600851Y-88221895D01*
X159819753Y-88180976D01*
X160042447Y-88180976D01*
X160261349Y-88221895D01*
G37*
G36*
X157721349Y-96603895D02*
G01*
X157929005Y-96684342D01*
X158118342Y-96801575D01*
X158282915Y-96951603D01*
X158417118Y-97129316D01*
X158516382Y-97328664D01*
X158577324Y-97542856D01*
X158598146Y-97767561D01*
X158517707Y-98197874D01*
X158417118Y-98399884D01*
X158282915Y-98577597D01*
X158118342Y-98727625D01*
X157929005Y-98844858D01*
X157721349Y-98925305D01*
X157502447Y-98966224D01*
X157279753Y-98966224D01*
X157060851Y-98925305D01*
X156853195Y-98844858D01*
X156663858Y-98727625D01*
X156499285Y-98577597D01*
X156365082Y-98399884D01*
X156265818Y-98200536D01*
X156204876Y-97986344D01*
X156184328Y-97764600D01*
X156204876Y-97542856D01*
X156265818Y-97328664D01*
X156365082Y-97129316D01*
X156499285Y-96951603D01*
X156663858Y-96801575D01*
X156853195Y-96684342D01*
X157060851Y-96603895D01*
X157279753Y-96562976D01*
X157502447Y-96562976D01*
X157721349Y-96603895D01*
G37*
G36*
X157721349Y-88221895D02*
G01*
X157929005Y-88302342D01*
X158118342Y-88419575D01*
X158282915Y-88569603D01*
X158417118Y-88747316D01*
X158516382Y-88946664D01*
X158577324Y-89160856D01*
X158598146Y-89385561D01*
X158517707Y-89815874D01*
X158417118Y-90017884D01*
X158282915Y-90195597D01*
X158118342Y-90345625D01*
X157929005Y-90462858D01*
X157721349Y-90543305D01*
X157502447Y-90584224D01*
X157279753Y-90584224D01*
X157060851Y-90543305D01*
X156853195Y-90462858D01*
X156663858Y-90345625D01*
X156499285Y-90195597D01*
X156365082Y-90017884D01*
X156265818Y-89818536D01*
X156204876Y-89604344D01*
X156184328Y-89382600D01*
X156204876Y-89160856D01*
X156265818Y-88946664D01*
X156365082Y-88747316D01*
X156499285Y-88569603D01*
X156663858Y-88419575D01*
X156853195Y-88302342D01*
X157060851Y-88221895D01*
X157279753Y-88180976D01*
X157502447Y-88180976D01*
X157721349Y-88221895D01*
G37*
G36*
X155181349Y-96603895D02*
G01*
X155389005Y-96684342D01*
X155578342Y-96801575D01*
X155742915Y-96951603D01*
X155877118Y-97129316D01*
X155976382Y-97328664D01*
X156037324Y-97542856D01*
X156058146Y-97767561D01*
X155977707Y-98197874D01*
X155877118Y-98399884D01*
X155742915Y-98577597D01*
X155578342Y-98727625D01*
X155389005Y-98844858D01*
X155181349Y-98925305D01*
X154962447Y-98966224D01*
X154739753Y-98966224D01*
X154520851Y-98925305D01*
X154313195Y-98844858D01*
X154123858Y-98727625D01*
X153959285Y-98577597D01*
X153825082Y-98399884D01*
X153725818Y-98200536D01*
X153664876Y-97986344D01*
X153644328Y-97764600D01*
X153664876Y-97542856D01*
X153725818Y-97328664D01*
X153825082Y-97129316D01*
X153959285Y-96951603D01*
X154123858Y-96801575D01*
X154313195Y-96684342D01*
X154520851Y-96603895D01*
X154739753Y-96562976D01*
X154962447Y-96562976D01*
X155181349Y-96603895D01*
G37*
G36*
X155181349Y-88221895D02*
G01*
X155389005Y-88302342D01*
X155578342Y-88419575D01*
X155742915Y-88569603D01*
X155877118Y-88747316D01*
X155976382Y-88946664D01*
X156037324Y-89160856D01*
X156058146Y-89385561D01*
X155977707Y-89815874D01*
X155877118Y-90017884D01*
X155742915Y-90195597D01*
X155578342Y-90345625D01*
X155389005Y-90462858D01*
X155181349Y-90543305D01*
X154962447Y-90584224D01*
X154739753Y-90584224D01*
X154520851Y-90543305D01*
X154313195Y-90462858D01*
X154123858Y-90345625D01*
X153959285Y-90195597D01*
X153825082Y-90017884D01*
X153725818Y-89818536D01*
X153664876Y-89604344D01*
X153644328Y-89382600D01*
X153664876Y-89160856D01*
X153725818Y-88946664D01*
X153825082Y-88747316D01*
X153959285Y-88569603D01*
X154123858Y-88419575D01*
X154313195Y-88302342D01*
X154520851Y-88221895D01*
X154739753Y-88180976D01*
X154962447Y-88180976D01*
X155181349Y-88221895D01*
G37*
G36*
X152641349Y-96603895D02*
G01*
X152849005Y-96684342D01*
X153038342Y-96801575D01*
X153202915Y-96951603D01*
X153337118Y-97129316D01*
X153436382Y-97328664D01*
X153497324Y-97542856D01*
X153518146Y-97767561D01*
X153437707Y-98197874D01*
X153337118Y-98399884D01*
X153202915Y-98577597D01*
X153038342Y-98727625D01*
X152849005Y-98844858D01*
X152641349Y-98925305D01*
X152422447Y-98966224D01*
X152199753Y-98966224D01*
X151980851Y-98925305D01*
X151773195Y-98844858D01*
X151583858Y-98727625D01*
X151419285Y-98577597D01*
X151285082Y-98399884D01*
X151185818Y-98200536D01*
X151124876Y-97986344D01*
X151104328Y-97764600D01*
X151124876Y-97542856D01*
X151185818Y-97328664D01*
X151285082Y-97129316D01*
X151419285Y-96951603D01*
X151583858Y-96801575D01*
X151773195Y-96684342D01*
X151980851Y-96603895D01*
X152199753Y-96562976D01*
X152422447Y-96562976D01*
X152641349Y-96603895D01*
G37*
G36*
X152641349Y-88221895D02*
G01*
X152849005Y-88302342D01*
X153038342Y-88419575D01*
X153202915Y-88569603D01*
X153337118Y-88747316D01*
X153436382Y-88946664D01*
X153497324Y-89160856D01*
X153518146Y-89385561D01*
X153437707Y-89815874D01*
X153337118Y-90017884D01*
X153202915Y-90195597D01*
X153038342Y-90345625D01*
X152849005Y-90462858D01*
X152641349Y-90543305D01*
X152422447Y-90584224D01*
X152199753Y-90584224D01*
X151980851Y-90543305D01*
X151773195Y-90462858D01*
X151583858Y-90345625D01*
X151419285Y-90195597D01*
X151285082Y-90017884D01*
X151185818Y-89818536D01*
X151124876Y-89604344D01*
X151104328Y-89382600D01*
X151124876Y-89160856D01*
X151185818Y-88946664D01*
X151285082Y-88747316D01*
X151419285Y-88569603D01*
X151583858Y-88419575D01*
X151773195Y-88302342D01*
X151980851Y-88221895D01*
X152199753Y-88180976D01*
X152422447Y-88180976D01*
X152641349Y-88221895D01*
G37*
G36*
X150101349Y-96603895D02*
G01*
X150309005Y-96684342D01*
X150498342Y-96801575D01*
X150662915Y-96951603D01*
X150797118Y-97129316D01*
X150896382Y-97328664D01*
X150957324Y-97542856D01*
X150978146Y-97767561D01*
X150897707Y-98197874D01*
X150797118Y-98399884D01*
X150662915Y-98577597D01*
X150498342Y-98727625D01*
X150309005Y-98844858D01*
X150101349Y-98925305D01*
X149882447Y-98966224D01*
X149659753Y-98966224D01*
X149440851Y-98925305D01*
X149233195Y-98844858D01*
X149043858Y-98727625D01*
X148879285Y-98577597D01*
X148745082Y-98399884D01*
X148645818Y-98200536D01*
X148584876Y-97986344D01*
X148564328Y-97764600D01*
X148584876Y-97542856D01*
X148645818Y-97328664D01*
X148745082Y-97129316D01*
X148879285Y-96951603D01*
X149043858Y-96801575D01*
X149233195Y-96684342D01*
X149440851Y-96603895D01*
X149659753Y-96562976D01*
X149882447Y-96562976D01*
X150101349Y-96603895D01*
G37*
G36*
X150101349Y-88221895D02*
G01*
X150309005Y-88302342D01*
X150498342Y-88419575D01*
X150662915Y-88569603D01*
X150797118Y-88747316D01*
X150896382Y-88946664D01*
X150957324Y-89160856D01*
X150978146Y-89385561D01*
X150897707Y-89815874D01*
X150797118Y-90017884D01*
X150662915Y-90195597D01*
X150498342Y-90345625D01*
X150309005Y-90462858D01*
X150101349Y-90543305D01*
X149882447Y-90584224D01*
X149659753Y-90584224D01*
X149440851Y-90543305D01*
X149233195Y-90462858D01*
X149043858Y-90345625D01*
X148879285Y-90195597D01*
X148745082Y-90017884D01*
X148645818Y-89818536D01*
X148584876Y-89604344D01*
X148564328Y-89382600D01*
X148584876Y-89160856D01*
X148645818Y-88946664D01*
X148745082Y-88747316D01*
X148879285Y-88569603D01*
X149043858Y-88419575D01*
X149233195Y-88302342D01*
X149440851Y-88221895D01*
X149659753Y-88180976D01*
X149882447Y-88180976D01*
X150101349Y-88221895D01*
G37*
G36*
X147561349Y-96603895D02*
G01*
X147769005Y-96684342D01*
X147958342Y-96801575D01*
X148122915Y-96951603D01*
X148257118Y-97129316D01*
X148356382Y-97328664D01*
X148417324Y-97542856D01*
X148438146Y-97767561D01*
X148357707Y-98197874D01*
X148257118Y-98399884D01*
X148122915Y-98577597D01*
X147958342Y-98727625D01*
X147769005Y-98844858D01*
X147561349Y-98925305D01*
X147342447Y-98966224D01*
X147119753Y-98966224D01*
X146900851Y-98925305D01*
X146693195Y-98844858D01*
X146503858Y-98727625D01*
X146339285Y-98577597D01*
X146205082Y-98399884D01*
X146105818Y-98200536D01*
X146044876Y-97986344D01*
X146024328Y-97764600D01*
X146044876Y-97542856D01*
X146105818Y-97328664D01*
X146205082Y-97129316D01*
X146339285Y-96951603D01*
X146503858Y-96801575D01*
X146693195Y-96684342D01*
X146900851Y-96603895D01*
X147119753Y-96562976D01*
X147342447Y-96562976D01*
X147561349Y-96603895D01*
G37*
G36*
X147561349Y-88221895D02*
G01*
X147769005Y-88302342D01*
X147958342Y-88419575D01*
X148122915Y-88569603D01*
X148257118Y-88747316D01*
X148356382Y-88946664D01*
X148417324Y-89160856D01*
X148438146Y-89385561D01*
X148357707Y-89815874D01*
X148257118Y-90017884D01*
X148122915Y-90195597D01*
X147958342Y-90345625D01*
X147769005Y-90462858D01*
X147561349Y-90543305D01*
X147342447Y-90584224D01*
X147119753Y-90584224D01*
X146900851Y-90543305D01*
X146693195Y-90462858D01*
X146503858Y-90345625D01*
X146339285Y-90195597D01*
X146205082Y-90017884D01*
X146105818Y-89818536D01*
X146044876Y-89604344D01*
X146024328Y-89382600D01*
X146044876Y-89160856D01*
X146105818Y-88946664D01*
X146205082Y-88747316D01*
X146339285Y-88569603D01*
X146503858Y-88419575D01*
X146693195Y-88302342D01*
X146900851Y-88221895D01*
X147119753Y-88180976D01*
X147342447Y-88180976D01*
X147561349Y-88221895D01*
G37*
G36*
X145021349Y-96603895D02*
G01*
X145229005Y-96684342D01*
X145418342Y-96801575D01*
X145582915Y-96951603D01*
X145717118Y-97129316D01*
X145816382Y-97328664D01*
X145877324Y-97542856D01*
X145898146Y-97767561D01*
X145817707Y-98197874D01*
X145717118Y-98399884D01*
X145582915Y-98577597D01*
X145418342Y-98727625D01*
X145229005Y-98844858D01*
X145021349Y-98925305D01*
X144802447Y-98966224D01*
X144579753Y-98966224D01*
X144360851Y-98925305D01*
X144153195Y-98844858D01*
X143963858Y-98727625D01*
X143799285Y-98577597D01*
X143665082Y-98399884D01*
X143565818Y-98200536D01*
X143504876Y-97986344D01*
X143484328Y-97764600D01*
X143504876Y-97542856D01*
X143565818Y-97328664D01*
X143665082Y-97129316D01*
X143799285Y-96951603D01*
X143963858Y-96801575D01*
X144153195Y-96684342D01*
X144360851Y-96603895D01*
X144579753Y-96562976D01*
X144802447Y-96562976D01*
X145021349Y-96603895D01*
G37*
G36*
X145021349Y-88221895D02*
G01*
X145229005Y-88302342D01*
X145418342Y-88419575D01*
X145582915Y-88569603D01*
X145717118Y-88747316D01*
X145816382Y-88946664D01*
X145877324Y-89160856D01*
X145898146Y-89385561D01*
X145817707Y-89815874D01*
X145717118Y-90017884D01*
X145582915Y-90195597D01*
X145418342Y-90345625D01*
X145229005Y-90462858D01*
X145021349Y-90543305D01*
X144802447Y-90584224D01*
X144579753Y-90584224D01*
X144360851Y-90543305D01*
X144153195Y-90462858D01*
X143963858Y-90345625D01*
X143799285Y-90195597D01*
X143665082Y-90017884D01*
X143565818Y-89818536D01*
X143504876Y-89604344D01*
X143484328Y-89382600D01*
X143504876Y-89160856D01*
X143565818Y-88946664D01*
X143665082Y-88747316D01*
X143799285Y-88569603D01*
X143963858Y-88419575D01*
X144153195Y-88302342D01*
X144360851Y-88221895D01*
X144579753Y-88180976D01*
X144802447Y-88180976D01*
X145021349Y-88221895D01*
G37*
G36*
X142481349Y-96603895D02*
G01*
X142689005Y-96684342D01*
X142878342Y-96801575D01*
X143042915Y-96951603D01*
X143177118Y-97129316D01*
X143276382Y-97328664D01*
X143337324Y-97542856D01*
X143358146Y-97767561D01*
X143277707Y-98197874D01*
X143177118Y-98399884D01*
X143042915Y-98577597D01*
X142878342Y-98727625D01*
X142689005Y-98844858D01*
X142481349Y-98925305D01*
X142262447Y-98966224D01*
X142039753Y-98966224D01*
X141820851Y-98925305D01*
X141613195Y-98844858D01*
X141423858Y-98727625D01*
X141259285Y-98577597D01*
X141125082Y-98399884D01*
X141025818Y-98200536D01*
X140964876Y-97986344D01*
X140944328Y-97764600D01*
X140964876Y-97542856D01*
X141025818Y-97328664D01*
X141125082Y-97129316D01*
X141259285Y-96951603D01*
X141423858Y-96801575D01*
X141613195Y-96684342D01*
X141820851Y-96603895D01*
X142039753Y-96562976D01*
X142262447Y-96562976D01*
X142481349Y-96603895D01*
G37*
G36*
X142481349Y-88221895D02*
G01*
X142689005Y-88302342D01*
X142878342Y-88419575D01*
X143042915Y-88569603D01*
X143177118Y-88747316D01*
X143276382Y-88946664D01*
X143337324Y-89160856D01*
X143358146Y-89385561D01*
X143277707Y-89815874D01*
X143177118Y-90017884D01*
X143042915Y-90195597D01*
X142878342Y-90345625D01*
X142689005Y-90462858D01*
X142481349Y-90543305D01*
X142262447Y-90584224D01*
X142039753Y-90584224D01*
X141820851Y-90543305D01*
X141613195Y-90462858D01*
X141423858Y-90345625D01*
X141259285Y-90195597D01*
X141125082Y-90017884D01*
X141025818Y-89818536D01*
X140964876Y-89604344D01*
X140944328Y-89382600D01*
X140964876Y-89160856D01*
X141025818Y-88946664D01*
X141125082Y-88747316D01*
X141259285Y-88569603D01*
X141423858Y-88419575D01*
X141613195Y-88302342D01*
X141820851Y-88221895D01*
X142039753Y-88180976D01*
X142262447Y-88180976D01*
X142481349Y-88221895D01*
G37*
G36*
X139941349Y-96603895D02*
G01*
X140149005Y-96684342D01*
X140338342Y-96801575D01*
X140502915Y-96951603D01*
X140637118Y-97129316D01*
X140736382Y-97328664D01*
X140797324Y-97542856D01*
X140818146Y-97767561D01*
X140737707Y-98197874D01*
X140637118Y-98399884D01*
X140502915Y-98577597D01*
X140338342Y-98727625D01*
X140149005Y-98844858D01*
X139941349Y-98925305D01*
X139722447Y-98966224D01*
X139499753Y-98966224D01*
X139280851Y-98925305D01*
X139073195Y-98844858D01*
X138883858Y-98727625D01*
X138719285Y-98577597D01*
X138585082Y-98399884D01*
X138485818Y-98200536D01*
X138424876Y-97986344D01*
X138404328Y-97764600D01*
X138424876Y-97542856D01*
X138485818Y-97328664D01*
X138585082Y-97129316D01*
X138719285Y-96951603D01*
X138883858Y-96801575D01*
X139073195Y-96684342D01*
X139280851Y-96603895D01*
X139499753Y-96562976D01*
X139722447Y-96562976D01*
X139941349Y-96603895D01*
G37*
G36*
X139941349Y-88221895D02*
G01*
X140149005Y-88302342D01*
X140338342Y-88419575D01*
X140502915Y-88569603D01*
X140637118Y-88747316D01*
X140736382Y-88946664D01*
X140797324Y-89160856D01*
X140818146Y-89385561D01*
X140737707Y-89815874D01*
X140637118Y-90017884D01*
X140502915Y-90195597D01*
X140338342Y-90345625D01*
X140149005Y-90462858D01*
X139941349Y-90543305D01*
X139722447Y-90584224D01*
X139499753Y-90584224D01*
X139280851Y-90543305D01*
X139073195Y-90462858D01*
X138883858Y-90345625D01*
X138719285Y-90195597D01*
X138585082Y-90017884D01*
X138485818Y-89818536D01*
X138424876Y-89604344D01*
X138404328Y-89382600D01*
X138424876Y-89160856D01*
X138485818Y-88946664D01*
X138585082Y-88747316D01*
X138719285Y-88569603D01*
X138883858Y-88419575D01*
X139073195Y-88302342D01*
X139280851Y-88221895D01*
X139499753Y-88180976D01*
X139722447Y-88180976D01*
X139941349Y-88221895D01*
G37*
G36*
X137401349Y-96603895D02*
G01*
X137609005Y-96684342D01*
X137798342Y-96801575D01*
X137962915Y-96951603D01*
X138097118Y-97129316D01*
X138196382Y-97328664D01*
X138257324Y-97542856D01*
X138278146Y-97767561D01*
X138197707Y-98197874D01*
X138097118Y-98399884D01*
X137962915Y-98577597D01*
X137798342Y-98727625D01*
X137609005Y-98844858D01*
X137401349Y-98925305D01*
X137182447Y-98966224D01*
X136959753Y-98966224D01*
X136740851Y-98925305D01*
X136533195Y-98844858D01*
X136343858Y-98727625D01*
X136179285Y-98577597D01*
X136045082Y-98399884D01*
X135945818Y-98200536D01*
X135884876Y-97986344D01*
X135864328Y-97764600D01*
X135884876Y-97542856D01*
X135945818Y-97328664D01*
X136045082Y-97129316D01*
X136179285Y-96951603D01*
X136343858Y-96801575D01*
X136533195Y-96684342D01*
X136740851Y-96603895D01*
X136959753Y-96562976D01*
X137182447Y-96562976D01*
X137401349Y-96603895D01*
G37*
G36*
X137401349Y-88221895D02*
G01*
X137609005Y-88302342D01*
X137798342Y-88419575D01*
X137962915Y-88569603D01*
X138097118Y-88747316D01*
X138196382Y-88946664D01*
X138257324Y-89160856D01*
X138278146Y-89385561D01*
X138197707Y-89815874D01*
X138097118Y-90017884D01*
X137962915Y-90195597D01*
X137798342Y-90345625D01*
X137609005Y-90462858D01*
X137401349Y-90543305D01*
X137182447Y-90584224D01*
X136959753Y-90584224D01*
X136740851Y-90543305D01*
X136533195Y-90462858D01*
X136343858Y-90345625D01*
X136179285Y-90195597D01*
X136045082Y-90017884D01*
X135945818Y-89818536D01*
X135884876Y-89604344D01*
X135864328Y-89382600D01*
X135884876Y-89160856D01*
X135945818Y-88946664D01*
X136045082Y-88747316D01*
X136179285Y-88569603D01*
X136343858Y-88419575D01*
X136533195Y-88302342D01*
X136740851Y-88221895D01*
X136959753Y-88180976D01*
X137182447Y-88180976D01*
X137401349Y-88221895D01*
G37*
G36*
X134861349Y-96603895D02*
G01*
X135069005Y-96684342D01*
X135258342Y-96801575D01*
X135422915Y-96951603D01*
X135557118Y-97129316D01*
X135656382Y-97328664D01*
X135717324Y-97542856D01*
X135738146Y-97767561D01*
X135657707Y-98197874D01*
X135557118Y-98399884D01*
X135422915Y-98577597D01*
X135258342Y-98727625D01*
X135069005Y-98844858D01*
X134861349Y-98925305D01*
X134642447Y-98966224D01*
X134419753Y-98966224D01*
X134200851Y-98925305D01*
X133993195Y-98844858D01*
X133803858Y-98727625D01*
X133639285Y-98577597D01*
X133505082Y-98399884D01*
X133405818Y-98200536D01*
X133344876Y-97986344D01*
X133324328Y-97764600D01*
X133344876Y-97542856D01*
X133405818Y-97328664D01*
X133505082Y-97129316D01*
X133639285Y-96951603D01*
X133803858Y-96801575D01*
X133993195Y-96684342D01*
X134200851Y-96603895D01*
X134419753Y-96562976D01*
X134642447Y-96562976D01*
X134861349Y-96603895D01*
G37*
G36*
X134861349Y-88221895D02*
G01*
X135069005Y-88302342D01*
X135258342Y-88419575D01*
X135422915Y-88569603D01*
X135557118Y-88747316D01*
X135656382Y-88946664D01*
X135717324Y-89160856D01*
X135738146Y-89385561D01*
X135657707Y-89815874D01*
X135557118Y-90017884D01*
X135422915Y-90195597D01*
X135258342Y-90345625D01*
X135069005Y-90462858D01*
X134861349Y-90543305D01*
X134642447Y-90584224D01*
X134419753Y-90584224D01*
X134200851Y-90543305D01*
X133993195Y-90462858D01*
X133803858Y-90345625D01*
X133639285Y-90195597D01*
X133505082Y-90017884D01*
X133405818Y-89818536D01*
X133344876Y-89604344D01*
X133324328Y-89382600D01*
X133344876Y-89160856D01*
X133405818Y-88946664D01*
X133505082Y-88747316D01*
X133639285Y-88569603D01*
X133803858Y-88419575D01*
X133993195Y-88302342D01*
X134200851Y-88221895D01*
X134419753Y-88180976D01*
X134642447Y-88180976D01*
X134861349Y-88221895D01*
G37*
G36*
X132321349Y-96603895D02*
G01*
X132529005Y-96684342D01*
X132718342Y-96801575D01*
X132882915Y-96951603D01*
X133017118Y-97129316D01*
X133116382Y-97328664D01*
X133177324Y-97542856D01*
X133198146Y-97767561D01*
X133117707Y-98197874D01*
X133017118Y-98399884D01*
X132882915Y-98577597D01*
X132718342Y-98727625D01*
X132529005Y-98844858D01*
X132321349Y-98925305D01*
X132102447Y-98966224D01*
X131879753Y-98966224D01*
X131660851Y-98925305D01*
X131453195Y-98844858D01*
X131263858Y-98727625D01*
X131099285Y-98577597D01*
X130965082Y-98399884D01*
X130865818Y-98200536D01*
X130804876Y-97986344D01*
X130784328Y-97764600D01*
X130804876Y-97542856D01*
X130865818Y-97328664D01*
X130965082Y-97129316D01*
X131099285Y-96951603D01*
X131263858Y-96801575D01*
X131453195Y-96684342D01*
X131660851Y-96603895D01*
X131879753Y-96562976D01*
X132102447Y-96562976D01*
X132321349Y-96603895D01*
G37*
G36*
X132321349Y-88221895D02*
G01*
X132529005Y-88302342D01*
X132718342Y-88419575D01*
X132882915Y-88569603D01*
X133017118Y-88747316D01*
X133116382Y-88946664D01*
X133177324Y-89160856D01*
X133198146Y-89385561D01*
X133117707Y-89815874D01*
X133017118Y-90017884D01*
X132882915Y-90195597D01*
X132718342Y-90345625D01*
X132529005Y-90462858D01*
X132321349Y-90543305D01*
X132102447Y-90584224D01*
X131879753Y-90584224D01*
X131660851Y-90543305D01*
X131453195Y-90462858D01*
X131263858Y-90345625D01*
X131099285Y-90195597D01*
X130965082Y-90017884D01*
X130865818Y-89818536D01*
X130804876Y-89604344D01*
X130784328Y-89382600D01*
X130804876Y-89160856D01*
X130865818Y-88946664D01*
X130965082Y-88747316D01*
X131099285Y-88569603D01*
X131263858Y-88419575D01*
X131453195Y-88302342D01*
X131660851Y-88221895D01*
X131879753Y-88180976D01*
X132102447Y-88180976D01*
X132321349Y-88221895D01*
G37*
%TO.C,Y1*%
D10*
X143883385Y-87223600D02*
G75*
G03*
X143883385Y-87223600I-462285J0D01*
G01*
D11*
X143879004Y-84683600D02*
G75*
G03*
X143879004Y-84683600I-457904J0D01*
G01*
%TO.C,C1*%
D12*
X160380112Y-87223600D02*
G75*
G03*
X160380112Y-87223600I-449012J0D01*
G01*
D11*
X162929004Y-87223600D02*
G75*
G03*
X162929004Y-87223600I-457904J0D01*
G01*
%TO.C,C2*%
D12*
X129900112Y-94843600D02*
G75*
G03*
X129900112Y-94843600I-449012J0D01*
G01*
D11*
X129909004Y-92303600D02*
G75*
G03*
X129909004Y-92303600I-457904J0D01*
G01*
%TO.C,S1*%
D13*
X165622600Y-119933600D02*
G75*
G03*
X165622600Y-119933600I-571500J0D01*
G01*
D14*
X167995600Y-118933600D02*
G75*
G03*
X167995600Y-118933600I-444500J0D01*
G01*
X167995600Y-113933600D02*
G75*
G03*
X167995600Y-113933600I-444500J0D01*
G01*
D13*
X165622600Y-112933600D02*
G75*
G03*
X165622600Y-112933600I-571500J0D01*
G01*
%TO.C,LED1*%
G36*
X139827212Y-99006713D02*
G01*
X140026573Y-99078703D01*
X140204910Y-99193257D01*
X140353277Y-99344631D01*
X140464234Y-99525230D01*
X140532210Y-99725994D01*
X140554187Y-99940642D01*
X140455352Y-100344508D01*
X140337478Y-100525754D01*
X140184835Y-100673695D01*
X140003098Y-100783957D01*
X139801380Y-100851011D01*
X139596921Y-100870805D01*
X139590802Y-100871100D01*
X139590800Y-100871100D01*
X139582969Y-100870615D01*
X139382785Y-100845740D01*
X139186433Y-100774483D01*
X139010870Y-100661307D01*
X138864904Y-100511890D01*
X138755861Y-100333730D01*
X138689212Y-100135767D01*
X138668341Y-99928316D01*
X138692085Y-99717782D01*
X138762204Y-99517451D01*
X138875139Y-99337745D01*
X139025229Y-99187672D01*
X139204949Y-99074757D01*
X139405287Y-99004661D01*
X139616516Y-98980863D01*
X139827212Y-99006713D01*
G37*
G36*
X142367212Y-99006713D02*
G01*
X142566573Y-99078703D01*
X142744910Y-99193257D01*
X142893277Y-99344631D01*
X143004234Y-99525230D01*
X143072210Y-99725994D01*
X143094187Y-99940642D01*
X142995352Y-100344508D01*
X142877478Y-100525754D01*
X142724835Y-100673695D01*
X142543098Y-100783957D01*
X142341380Y-100851011D01*
X142136921Y-100870805D01*
X142130802Y-100871100D01*
X142130800Y-100871100D01*
X142122969Y-100870615D01*
X141922785Y-100845740D01*
X141726433Y-100774483D01*
X141550870Y-100661307D01*
X141404904Y-100511890D01*
X141295861Y-100333730D01*
X141229212Y-100135767D01*
X141208341Y-99928316D01*
X141232085Y-99717782D01*
X141302204Y-99517451D01*
X141415139Y-99337745D01*
X141565229Y-99187672D01*
X141744949Y-99074757D01*
X141945287Y-99004661D01*
X142156516Y-98980863D01*
X142367212Y-99006713D01*
G37*
G36*
X144907212Y-99006713D02*
G01*
X145106573Y-99078703D01*
X145284910Y-99193257D01*
X145433277Y-99344631D01*
X145544234Y-99525230D01*
X145612210Y-99725994D01*
X145634187Y-99940642D01*
X145535352Y-100344508D01*
X145417478Y-100525754D01*
X145264835Y-100673695D01*
X145083098Y-100783957D01*
X144881380Y-100851011D01*
X144676921Y-100870805D01*
X144670802Y-100871100D01*
X144670800Y-100871100D01*
X144662969Y-100870615D01*
X144462785Y-100845740D01*
X144266433Y-100774483D01*
X144090870Y-100661307D01*
X143944904Y-100511890D01*
X143835861Y-100333730D01*
X143769212Y-100135767D01*
X143748341Y-99928316D01*
X143772085Y-99717782D01*
X143842204Y-99517451D01*
X143955139Y-99337745D01*
X144105229Y-99187672D01*
X144284949Y-99074757D01*
X144485287Y-99004661D01*
X144696516Y-98980863D01*
X144907212Y-99006713D01*
G37*
G36*
X147447212Y-99006713D02*
G01*
X147646573Y-99078703D01*
X147824910Y-99193257D01*
X147973277Y-99344631D01*
X148084234Y-99525230D01*
X148152210Y-99725994D01*
X148174187Y-99940642D01*
X148075352Y-100344508D01*
X147957478Y-100525754D01*
X147804835Y-100673695D01*
X147623098Y-100783957D01*
X147421380Y-100851011D01*
X147216921Y-100870805D01*
X147210802Y-100871100D01*
X147210800Y-100871100D01*
X147202969Y-100870615D01*
X147002785Y-100845740D01*
X146806433Y-100774483D01*
X146630870Y-100661307D01*
X146484904Y-100511890D01*
X146375861Y-100333730D01*
X146309212Y-100135767D01*
X146288341Y-99928316D01*
X146312085Y-99717782D01*
X146382204Y-99517451D01*
X146495139Y-99337745D01*
X146645229Y-99187672D01*
X146824949Y-99074757D01*
X147025287Y-99004661D01*
X147236516Y-98980863D01*
X147447212Y-99006713D01*
G37*
G36*
X149783933Y-109141773D02*
G01*
X149987212Y-109166712D01*
X150186573Y-109238701D01*
X150364910Y-109353257D01*
X150513279Y-109504631D01*
X150624234Y-109685230D01*
X150692211Y-109885993D01*
X150714187Y-110100642D01*
X150615352Y-110504508D01*
X150497476Y-110685754D01*
X150344833Y-110833695D01*
X150163096Y-110943957D01*
X149961378Y-111011011D01*
X149749933Y-111031481D01*
X149542785Y-111005738D01*
X149346433Y-110934481D01*
X149170870Y-110821306D01*
X149024905Y-110671890D01*
X148915861Y-110493730D01*
X148849212Y-110295767D01*
X148828341Y-110088316D01*
X148852085Y-109877783D01*
X148922203Y-109677452D01*
X149035138Y-109497746D01*
X149185227Y-109347673D01*
X149364947Y-109234757D01*
X149565286Y-109164661D01*
X149769089Y-109141699D01*
X149776198Y-109141300D01*
X149776200Y-109141300D01*
X149783933Y-109141773D01*
G37*
G36*
X152323933Y-109141773D02*
G01*
X152527212Y-109166712D01*
X152726573Y-109238701D01*
X152904910Y-109353257D01*
X153053279Y-109504631D01*
X153164234Y-109685230D01*
X153232211Y-109885993D01*
X153254187Y-110100642D01*
X153155352Y-110504508D01*
X153037476Y-110685754D01*
X152884833Y-110833695D01*
X152703096Y-110943957D01*
X152501378Y-111011011D01*
X152289933Y-111031481D01*
X152082785Y-111005738D01*
X151886433Y-110934481D01*
X151710870Y-110821306D01*
X151564905Y-110671890D01*
X151455861Y-110493730D01*
X151389212Y-110295767D01*
X151368341Y-110088316D01*
X151392085Y-109877783D01*
X151462203Y-109677452D01*
X151575138Y-109497746D01*
X151725227Y-109347673D01*
X151904947Y-109234757D01*
X152105286Y-109164661D01*
X152309089Y-109141699D01*
X152316198Y-109141300D01*
X152316200Y-109141300D01*
X152323933Y-109141773D01*
G37*
G36*
X154863933Y-109141773D02*
G01*
X155067212Y-109166712D01*
X155266573Y-109238701D01*
X155444910Y-109353257D01*
X155593279Y-109504631D01*
X155704234Y-109685230D01*
X155772211Y-109885993D01*
X155794187Y-110100642D01*
X155695352Y-110504508D01*
X155577476Y-110685754D01*
X155424833Y-110833695D01*
X155243096Y-110943957D01*
X155041378Y-111011011D01*
X154829933Y-111031481D01*
X154622785Y-111005738D01*
X154426433Y-110934481D01*
X154250870Y-110821306D01*
X154104905Y-110671890D01*
X153995861Y-110493730D01*
X153929212Y-110295767D01*
X153908341Y-110088316D01*
X153932085Y-109877783D01*
X154002203Y-109677452D01*
X154115138Y-109497746D01*
X154265227Y-109347673D01*
X154444947Y-109234757D01*
X154645286Y-109164661D01*
X154849089Y-109141699D01*
X154856198Y-109141300D01*
X154856200Y-109141300D01*
X154863933Y-109141773D01*
G37*
G36*
X157403933Y-109141773D02*
G01*
X157607212Y-109166712D01*
X157806573Y-109238701D01*
X157984910Y-109353257D01*
X158133279Y-109504631D01*
X158244234Y-109685230D01*
X158312211Y-109885993D01*
X158334187Y-110100642D01*
X158235352Y-110504508D01*
X158117476Y-110685754D01*
X157964833Y-110833695D01*
X157783096Y-110943957D01*
X157581378Y-111011011D01*
X157369933Y-111031481D01*
X157162785Y-111005738D01*
X156966433Y-110934481D01*
X156790870Y-110821306D01*
X156644905Y-110671890D01*
X156535861Y-110493730D01*
X156469212Y-110295767D01*
X156448341Y-110088316D01*
X156472085Y-109877783D01*
X156542203Y-109677452D01*
X156655138Y-109497746D01*
X156805227Y-109347673D01*
X156984947Y-109234757D01*
X157185286Y-109164661D01*
X157389089Y-109141699D01*
X157396198Y-109141300D01*
X157396200Y-109141300D01*
X157403933Y-109141773D01*
G37*
G36*
X149783933Y-98981773D02*
G01*
X149987212Y-99006713D01*
X150186573Y-99078702D01*
X150364910Y-99193258D01*
X150513279Y-99344632D01*
X150624234Y-99525231D01*
X150692211Y-99725994D01*
X150719876Y-99996211D01*
X150700343Y-99997209D01*
X150615351Y-100344508D01*
X150497477Y-100525754D01*
X150344834Y-100673695D01*
X150163097Y-100783957D01*
X149961379Y-100851011D01*
X149756920Y-100870805D01*
X149750801Y-100871100D01*
X149750800Y-100871100D01*
X149742969Y-100870615D01*
X149542785Y-100845739D01*
X149346433Y-100774482D01*
X149170870Y-100661307D01*
X149024905Y-100511891D01*
X148915861Y-100333731D01*
X148849212Y-100135768D01*
X148829019Y-99935058D01*
X148828700Y-99928701D01*
X148828700Y-99928700D01*
X148829100Y-99921584D01*
X148852084Y-99717783D01*
X148922203Y-99517451D01*
X149035138Y-99337745D01*
X149185228Y-99187672D01*
X149364948Y-99074757D01*
X149565286Y-99004661D01*
X149769090Y-98981699D01*
X149776199Y-98981300D01*
X149776200Y-98981300D01*
X149783933Y-98981773D01*
G37*
G36*
X152323933Y-98981773D02*
G01*
X152527212Y-99006713D01*
X152726573Y-99078702D01*
X152904910Y-99193258D01*
X153053279Y-99344632D01*
X153164234Y-99525231D01*
X153232211Y-99725994D01*
X153259876Y-99996211D01*
X153240343Y-99997209D01*
X153155351Y-100344508D01*
X153037477Y-100525754D01*
X152884834Y-100673695D01*
X152703097Y-100783957D01*
X152501379Y-100851011D01*
X152296920Y-100870805D01*
X152290801Y-100871100D01*
X152290800Y-100871100D01*
X152282969Y-100870615D01*
X152082785Y-100845739D01*
X151886433Y-100774482D01*
X151710870Y-100661307D01*
X151564905Y-100511891D01*
X151455861Y-100333731D01*
X151389212Y-100135768D01*
X151369019Y-99935058D01*
X151368700Y-99928701D01*
X151368700Y-99928700D01*
X151369100Y-99921584D01*
X151392084Y-99717783D01*
X151462203Y-99517451D01*
X151575138Y-99337745D01*
X151725228Y-99187672D01*
X151904948Y-99074757D01*
X152105286Y-99004661D01*
X152309090Y-98981699D01*
X152316199Y-98981300D01*
X152316200Y-98981300D01*
X152323933Y-98981773D01*
G37*
G36*
X154863933Y-98981773D02*
G01*
X155067212Y-99006713D01*
X155266573Y-99078702D01*
X155444910Y-99193258D01*
X155593279Y-99344632D01*
X155704234Y-99525231D01*
X155772211Y-99725994D01*
X155799876Y-99996211D01*
X155780343Y-99997209D01*
X155695351Y-100344508D01*
X155577477Y-100525754D01*
X155424834Y-100673695D01*
X155243097Y-100783957D01*
X155041379Y-100851011D01*
X154836920Y-100870805D01*
X154830801Y-100871100D01*
X154830800Y-100871100D01*
X154822969Y-100870615D01*
X154622785Y-100845739D01*
X154426433Y-100774482D01*
X154250870Y-100661307D01*
X154104905Y-100511891D01*
X153995861Y-100333731D01*
X153929212Y-100135768D01*
X153909019Y-99935058D01*
X153908700Y-99928701D01*
X153908700Y-99928700D01*
X153909100Y-99921584D01*
X153932084Y-99717783D01*
X154002203Y-99517451D01*
X154115138Y-99337745D01*
X154265228Y-99187672D01*
X154444948Y-99074757D01*
X154645286Y-99004661D01*
X154849090Y-98981699D01*
X154856199Y-98981300D01*
X154856200Y-98981300D01*
X154863933Y-98981773D01*
G37*
G36*
X157403933Y-98981773D02*
G01*
X157607212Y-99006713D01*
X157806573Y-99078702D01*
X157984910Y-99193258D01*
X158133279Y-99344632D01*
X158244234Y-99525231D01*
X158312211Y-99725994D01*
X158339876Y-99996211D01*
X158320343Y-99997209D01*
X158235351Y-100344508D01*
X158117477Y-100525754D01*
X157964834Y-100673695D01*
X157783097Y-100783957D01*
X157581379Y-100851011D01*
X157376920Y-100870805D01*
X157370801Y-100871100D01*
X157370800Y-100871100D01*
X157362969Y-100870615D01*
X157162785Y-100845739D01*
X156966433Y-100774482D01*
X156790870Y-100661307D01*
X156644905Y-100511891D01*
X156535861Y-100333731D01*
X156469212Y-100135768D01*
X156449019Y-99935058D01*
X156448700Y-99928701D01*
X156448700Y-99928700D01*
X156449100Y-99921584D01*
X156472084Y-99717783D01*
X156542203Y-99517451D01*
X156655138Y-99337745D01*
X156805228Y-99187672D01*
X156984948Y-99074757D01*
X157185286Y-99004661D01*
X157389090Y-98981699D01*
X157396199Y-98981300D01*
X157396200Y-98981300D01*
X157403933Y-98981773D01*
G37*
G36*
X139623933Y-109141773D02*
G01*
X139827212Y-109166712D01*
X140026573Y-109238702D01*
X140204910Y-109353256D01*
X140353277Y-109504630D01*
X140464234Y-109685229D01*
X140532210Y-109885993D01*
X140553070Y-110089731D01*
X140553400Y-110096199D01*
X140553400Y-110103857D01*
X140455353Y-110504508D01*
X140337477Y-110685754D01*
X140184834Y-110833695D01*
X140003097Y-110943957D01*
X139801379Y-111011011D01*
X139596920Y-111030805D01*
X139590801Y-111031100D01*
X139590800Y-111031100D01*
X139582969Y-111030615D01*
X139382785Y-111005739D01*
X139186433Y-110934482D01*
X139010870Y-110821306D01*
X138864904Y-110671889D01*
X138755861Y-110493729D01*
X138689212Y-110295766D01*
X138674452Y-110149054D01*
X138661572Y-110148330D01*
X138668341Y-110088317D01*
X138662335Y-110028625D01*
X138675146Y-110027982D01*
X138692086Y-109877782D01*
X138762204Y-109677452D01*
X138875139Y-109497746D01*
X139025228Y-109347673D01*
X139204948Y-109234757D01*
X139405287Y-109164661D01*
X139609090Y-109141699D01*
X139616199Y-109141300D01*
X139616200Y-109141300D01*
X139623933Y-109141773D01*
G37*
G36*
X142163933Y-109141773D02*
G01*
X142367212Y-109166712D01*
X142566573Y-109238702D01*
X142744910Y-109353256D01*
X142893277Y-109504630D01*
X143004234Y-109685229D01*
X143072210Y-109885993D01*
X143093070Y-110089731D01*
X143093400Y-110096199D01*
X143093400Y-110103857D01*
X142995353Y-110504508D01*
X142877477Y-110685754D01*
X142724834Y-110833695D01*
X142543097Y-110943957D01*
X142341379Y-111011011D01*
X142136920Y-111030805D01*
X142130801Y-111031100D01*
X142130800Y-111031100D01*
X142122969Y-111030615D01*
X141922785Y-111005739D01*
X141726433Y-110934482D01*
X141550870Y-110821306D01*
X141404904Y-110671889D01*
X141295861Y-110493729D01*
X141229212Y-110295766D01*
X141214452Y-110149054D01*
X141201572Y-110148330D01*
X141208341Y-110088317D01*
X141202335Y-110028625D01*
X141215146Y-110027982D01*
X141232086Y-109877782D01*
X141302204Y-109677452D01*
X141415139Y-109497746D01*
X141565228Y-109347673D01*
X141744948Y-109234757D01*
X141945287Y-109164661D01*
X142149090Y-109141699D01*
X142156199Y-109141300D01*
X142156200Y-109141300D01*
X142163933Y-109141773D01*
G37*
G36*
X144703933Y-109141773D02*
G01*
X144907212Y-109166712D01*
X145106573Y-109238702D01*
X145284910Y-109353256D01*
X145433277Y-109504630D01*
X145544234Y-109685229D01*
X145612210Y-109885993D01*
X145633070Y-110089731D01*
X145633400Y-110096199D01*
X145633400Y-110103857D01*
X145535353Y-110504508D01*
X145417477Y-110685754D01*
X145264834Y-110833695D01*
X145083097Y-110943957D01*
X144881379Y-111011011D01*
X144676920Y-111030805D01*
X144670801Y-111031100D01*
X144670800Y-111031100D01*
X144662969Y-111030615D01*
X144462785Y-111005739D01*
X144266433Y-110934482D01*
X144090870Y-110821306D01*
X143944904Y-110671889D01*
X143835861Y-110493729D01*
X143769212Y-110295766D01*
X143754452Y-110149054D01*
X143741572Y-110148330D01*
X143748341Y-110088317D01*
X143742335Y-110028625D01*
X143755146Y-110027982D01*
X143772086Y-109877782D01*
X143842204Y-109677452D01*
X143955139Y-109497746D01*
X144105228Y-109347673D01*
X144284948Y-109234757D01*
X144485287Y-109164661D01*
X144689090Y-109141699D01*
X144696199Y-109141300D01*
X144696200Y-109141300D01*
X144703933Y-109141773D01*
G37*
G36*
X147243933Y-109141773D02*
G01*
X147447212Y-109166712D01*
X147646573Y-109238702D01*
X147824910Y-109353256D01*
X147973277Y-109504630D01*
X148084234Y-109685229D01*
X148152210Y-109885993D01*
X148173070Y-110089731D01*
X148173400Y-110096199D01*
X148173400Y-110103857D01*
X148075353Y-110504508D01*
X147957477Y-110685754D01*
X147804834Y-110833695D01*
X147623097Y-110943957D01*
X147421379Y-111011011D01*
X147216920Y-111030805D01*
X147210801Y-111031100D01*
X147210800Y-111031100D01*
X147202969Y-111030615D01*
X147002785Y-111005739D01*
X146806433Y-110934482D01*
X146630870Y-110821306D01*
X146484904Y-110671889D01*
X146375861Y-110493729D01*
X146309212Y-110295766D01*
X146294452Y-110149054D01*
X146281572Y-110148330D01*
X146288341Y-110088317D01*
X146282335Y-110028625D01*
X146295146Y-110027982D01*
X146312086Y-109877782D01*
X146382204Y-109677452D01*
X146495139Y-109497746D01*
X146645228Y-109347673D01*
X146824948Y-109234757D01*
X147025287Y-109164661D01*
X147229090Y-109141699D01*
X147236199Y-109141300D01*
X147236200Y-109141300D01*
X147243933Y-109141773D01*
G37*
%TD*%
D15*
%TO.C,@HOLE1*%
X166281100Y-122783600D03*
%TD*%
%TO.C,@HOLE0*%
X130721100Y-87223600D03*
%TD*%
D16*
%TO.C,BAT0*%
X159001100Y-122783600D03*
X138001100Y-122783600D03*
%TD*%
D15*
%TO.C,@HOLE3*%
X130721100Y-122783600D03*
%TD*%
%TO.C,@HOLE2*%
X166281100Y-87223600D03*
%TD*%
D17*
%TO.C,JP1*%
X152311100Y-84683600D03*
X162471100Y-84683600D03*
X149771100Y-84683600D03*
X159931100Y-84683600D03*
X157391100Y-84683600D03*
X154851100Y-84683600D03*
%TD*%
M02*
