M48
; DRILL file {KiCad 7.0.6-7.0.6~ubuntu22.04.1} date Mon 07 Aug 2023 04:41:56 BST
; FORMAT={-:-/ absolute / metric / decimal}
; #@! TF.CreationDate,2023-08-07T04:41:56+01:00
; #@! TF.GenerationSoftware,Kicad,Pcbnew,7.0.6-7.0.6~ubuntu22.04.1
; #@! TF.FileFunction,MixedPlating,1,2
FMAT,2
METRIC
; #@! TA.AperFunction,Plated,PTH,ViaDrill
T1C0.406
; #@! TA.AperFunction,Plated,PTH,ViaDrill
T2C0.500
; #@! TA.AperFunction,Plated,PTH,ComponentDrill
T3C1.000
; #@! TA.AperFunction,Plated,PTH,ComponentDrill
T4C2.500
%
G90
G05
T1
X153.086Y-102.972
X155.359Y-102.972
T2
X141.643Y-100.94
X143.675Y-96.114
X146.723Y-101.194
X147.485Y-104.242
X147.739Y-102.718
X152.057Y-100.432
X156.629Y-98.146
T3
X138.341Y-113.894
X140.881Y-113.894
X143.421Y-113.894
X145.961Y-113.894
X148.501Y-113.894
X151.041Y-113.894
X153.581Y-113.894
X156.121Y-113.894
X158.661Y-113.894
T4
X138.341Y-96.114
X158.661Y-96.114
T0
M30
