%TF.GenerationSoftware,KiCad,Pcbnew,7.0.6-7.0.6~ubuntu22.04.1*%
%TF.CreationDate,2023-08-05T21:25:14+01:00*%
%TF.ProjectId,working,776f726b-696e-4672-9e6b-696361645f70,rev?*%
%TF.SameCoordinates,Original*%
%TF.FileFunction,Soldermask,Top*%
%TF.FilePolarity,Negative*%
%FSLAX46Y46*%
G04 Gerber Fmt 4.6, Leading zero omitted, Abs format (unit mm)*
G04 Created by KiCad (PCBNEW 7.0.6-7.0.6~ubuntu22.04.1) date 2023-08-05 21:25:14*
%MOMM*%
%LPD*%
G01*
G04 APERTURE LIST*
G04 Aperture macros list*
%AMRoundRect*
0 Rectangle with rounded corners*
0 $1 Rounding radius*
0 $2 $3 $4 $5 $6 $7 $8 $9 X,Y pos of 4 corners*
0 Add a 4 corners polygon primitive as box body*
4,1,4,$2,$3,$4,$5,$6,$7,$8,$9,$2,$3,0*
0 Add four circle primitives for the rounded corners*
1,1,$1+$1,$2,$3*
1,1,$1+$1,$4,$5*
1,1,$1+$1,$6,$7*
1,1,$1+$1,$8,$9*
0 Add four rect primitives between the rounded corners*
20,1,$1+$1,$2,$3,$4,$5,0*
20,1,$1+$1,$4,$5,$6,$7,0*
20,1,$1+$1,$6,$7,$8,$9,0*
20,1,$1+$1,$8,$9,$2,$3,0*%
G04 Aperture macros list end*
%ADD10C,0.469900*%
%ADD11RoundRect,0.050800X-0.275000X-0.600000X0.275000X-0.600000X0.275000X0.600000X-0.275000X0.600000X0*%
%ADD12RoundRect,0.050800X-0.775000X-0.300000X0.775000X-0.300000X0.775000X0.300000X-0.775000X0.300000X0*%
%ADD13RoundRect,0.050800X-0.900000X-0.600000X0.900000X-0.600000X0.900000X0.600000X-0.900000X0.600000X0*%
%ADD14C,3.301600*%
%ADD15RoundRect,0.050800X-0.750000X0.620000X-0.750000X-0.620000X0.750000X-0.620000X0.750000X0.620000X0*%
%ADD16RoundRect,0.550800X0.000000X0.000000X0.000000X0.000000X0.000000X0.000000X0.000000X0.000000X0*%
%ADD17RoundRect,0.050800X-0.537500X-0.500000X0.537500X-0.500000X0.537500X0.500000X-0.537500X0.500000X0*%
%ADD18RoundRect,0.050800X-0.620000X-0.750000X0.620000X-0.750000X0.620000X0.750000X-0.620000X0.750000X0*%
%ADD19RoundRect,0.050800X-0.225000X-0.450000X0.225000X-0.450000X0.225000X0.450000X-0.225000X0.450000X0*%
%ADD20C,1.879600*%
%ADD21RoundRect,0.120800X-0.330000X-0.070000X0.330000X-0.070000X0.330000X0.070000X-0.330000X0.070000X0*%
%ADD22RoundRect,0.120800X-0.070000X0.330000X-0.070000X-0.330000X0.070000X-0.330000X0.070000X0.330000X0*%
%ADD23RoundRect,0.120800X0.330000X0.070000X-0.330000X0.070000X-0.330000X-0.070000X0.330000X-0.070000X0*%
%ADD24RoundRect,0.120800X0.070000X-0.330000X0.070000X0.330000X-0.070000X0.330000X-0.070000X-0.330000X0*%
%ADD25RoundRect,0.050800X0.889000X0.889000X-0.889000X0.889000X-0.889000X-0.889000X0.889000X-0.889000X0*%
%ADD26RoundRect,0.050800X0.250000X-0.250000X0.250000X0.250000X-0.250000X0.250000X-0.250000X-0.250000X0*%
%ADD27RoundRect,0.050800X0.250000X-0.200000X0.250000X0.200000X-0.250000X0.200000X-0.250000X-0.200000X0*%
%ADD28RoundRect,0.050800X0.500000X-0.537500X0.500000X0.537500X-0.500000X0.537500X-0.500000X-0.537500X0*%
%ADD29RoundRect,0.800800X0.000000X0.000000X0.000000X0.000000X0.000000X0.000000X0.000000X0.000000X0*%
%ADD30RoundRect,0.050800X-0.345000X-0.495000X0.345000X-0.495000X0.345000X0.495000X-0.345000X0.495000X0*%
%ADD31RoundRect,0.050800X0.537500X0.500000X-0.537500X0.500000X-0.537500X-0.500000X0.537500X-0.500000X0*%
%ADD32RoundRect,0.050800X0.400000X-0.400000X0.400000X0.400000X-0.400000X0.400000X-0.400000X-0.400000X0*%
%ADD33RoundRect,0.050800X0.775000X0.300000X-0.775000X0.300000X-0.775000X-0.300000X0.775000X-0.300000X0*%
%ADD34RoundRect,0.050800X0.900000X0.600000X-0.900000X0.600000X-0.900000X-0.600000X0.900000X-0.600000X0*%
%ADD35RoundRect,0.050800X-0.500000X0.537500X-0.500000X-0.537500X0.500000X-0.537500X0.500000X0.537500X0*%
%ADD36RoundRect,0.050800X0.600000X0.450000X-0.600000X0.450000X-0.600000X-0.450000X0.600000X-0.450000X0*%
%ADD37C,1.813500*%
%ADD38C,3.063500*%
%ADD39C,3.900000*%
%ADD40RoundRect,0.050800X-1.275000X-1.250000X1.275000X-1.250000X1.275000X1.250000X-1.275000X1.250000X0*%
G04 APERTURE END LIST*
%TO.C,SJ3*%
G36*
X149707600Y-104813100D02*
G01*
X148056600Y-104813100D01*
X148056600Y-101892100D01*
X149707600Y-101892100D01*
X149707600Y-104813100D01*
G37*
D10*
%TO.C,FID1*%
X181775100Y-94601600D02*
G75*
G03*
X181025100Y-95351600I0J-750000D01*
G01*
X182525100Y-95351600D02*
G75*
G03*
X181775100Y-94601600I-750000J0D01*
G01*
X181025100Y-95351600D02*
G75*
G03*
X181775100Y-96101600I750000J0D01*
G01*
X181775100Y-96101600D02*
G75*
G03*
X182525100Y-95351600I0J750000D01*
G01*
%TO.C,FID2*%
X111734600Y-102793100D02*
G75*
G03*
X110984600Y-103543100I0J-750000D01*
G01*
X112484600Y-103543100D02*
G75*
G03*
X111734600Y-102793100I-750000J0D01*
G01*
X110984600Y-103543100D02*
G75*
G03*
X111734600Y-104293100I750000J0D01*
G01*
X111734600Y-104293100D02*
G75*
G03*
X112484600Y-103543100I0J750000D01*
G01*
%TO.C,SJ2*%
G36*
X151739600Y-104813100D02*
G01*
X150088600Y-104813100D01*
X150088600Y-101892100D01*
X151739600Y-101892100D01*
X151739600Y-104813100D01*
G37*
%TO.C,SJ5*%
G36*
X145580100Y-109893100D02*
G01*
X142659100Y-109893100D01*
X142659100Y-108242100D01*
X145580100Y-108242100D01*
X145580100Y-109893100D01*
G37*
%TO.C,SJ4*%
G36*
X145453100Y-107861100D02*
G01*
X142532100Y-107861100D01*
X142532100Y-106210100D01*
X145453100Y-106210100D01*
X145453100Y-107861100D01*
G37*
%TD*%
D11*
%TO.C,U2*%
X166791600Y-108399200D03*
X167741600Y-108399200D03*
X168691600Y-108399200D03*
X168691600Y-105799000D03*
X166791600Y-105799000D03*
%TD*%
D12*
%TO.C,CONN3*%
X115455100Y-106678600D03*
X115455100Y-107678600D03*
X115455100Y-108678600D03*
X115455100Y-109678600D03*
D13*
X111555100Y-105378600D03*
X111555100Y-110978600D03*
%TD*%
D14*
%TO.C,U$19*%
X167551100Y-113258600D03*
%TD*%
D15*
%TO.C,C3*%
X164947600Y-106466600D03*
X164947600Y-108366600D03*
%TD*%
D14*
%TO.C,U$21*%
X129451100Y-113258600D03*
%TD*%
D16*
%TO.C,FID1*%
X181775100Y-95351600D03*
%TD*%
%TO.C,FID2*%
X111734600Y-103543100D03*
%TD*%
D17*
%TO.C,C5*%
X159906600Y-107607100D03*
X161606600Y-107607100D03*
%TD*%
D18*
%TO.C,C2*%
X170411100Y-107670600D03*
X172311100Y-107670600D03*
%TD*%
D19*
%TO.C,R3*%
X123960100Y-112584600D03*
X124860100Y-112584600D03*
X125660100Y-112584600D03*
X126560100Y-112584600D03*
X126560100Y-110884600D03*
X125660100Y-110884600D03*
X124860100Y-110884600D03*
X123960100Y-110884600D03*
%TD*%
D14*
%TO.C,U$3*%
X167551100Y-96748600D03*
%TD*%
D20*
%TO.C,JP1*%
X154851100Y-96113600D03*
X152311100Y-96113600D03*
X149771100Y-96113600D03*
X147231100Y-96113600D03*
X144691100Y-96113600D03*
X142151100Y-96113600D03*
%TD*%
D14*
%TO.C,U$17*%
X129451100Y-96748600D03*
%TD*%
D17*
%TO.C,R2*%
X167526600Y-109956600D03*
X169226600Y-109956600D03*
%TD*%
D21*
%TO.C,IC2*%
X151898100Y-108920600D03*
X151898100Y-108420600D03*
X151898100Y-107920600D03*
X151898100Y-107420600D03*
X151898100Y-106920600D03*
X151898100Y-106420600D03*
D22*
X151148100Y-105670600D03*
X150648100Y-105670600D03*
X150148100Y-105670600D03*
X149648100Y-105670600D03*
X149148100Y-105670600D03*
X148648100Y-105670600D03*
D23*
X147898100Y-106420600D03*
X147898100Y-106920600D03*
X147898100Y-107420600D03*
X147898100Y-107920600D03*
X147898100Y-108420600D03*
X147898100Y-108920600D03*
D24*
X148648100Y-109670600D03*
X149148100Y-109670600D03*
X149648100Y-109670600D03*
X150148100Y-109670600D03*
X150648100Y-109670600D03*
X151148100Y-109670600D03*
D25*
X149898100Y-107670600D03*
%TD*%
D26*
%TO.C,Q2*%
X126287100Y-108293600D03*
D27*
X126287100Y-107543600D03*
D26*
X126287100Y-106793600D03*
X124487100Y-106793600D03*
D27*
X124487100Y-107543600D03*
D26*
X124487100Y-108293600D03*
%TD*%
D28*
%TO.C,C1*%
X174218600Y-107822100D03*
X174218600Y-106122100D03*
%TD*%
D29*
%TO.C,TP5*%
X133832600Y-107353100D03*
%TD*%
D28*
%TO.C,C7*%
X117005100Y-107885600D03*
X117005100Y-106185600D03*
%TD*%
D30*
%TO.C,IC3*%
X170792100Y-112453100D03*
X171742100Y-112453100D03*
X172692100Y-112453100D03*
X172692100Y-109863100D03*
X170792100Y-109863100D03*
%TD*%
D31*
%TO.C,R7*%
X131444100Y-109067600D03*
X129744100Y-109067600D03*
%TD*%
D32*
%TO.C,D2*%
X185509600Y-98717100D03*
X184009600Y-98717100D03*
%TD*%
D29*
%TO.C,TP6*%
X131483100Y-107353100D03*
%TD*%
%TO.C,TP7*%
X136245600Y-107353100D03*
%TD*%
D17*
%TO.C,R1*%
X183909600Y-100177600D03*
X185609600Y-100177600D03*
%TD*%
%TO.C,C4*%
X167653600Y-104368600D03*
X169353600Y-104368600D03*
%TD*%
D33*
%TO.C,CONN4*%
X181547100Y-109678600D03*
X181547100Y-108678600D03*
X181547100Y-107678600D03*
X181547100Y-106678600D03*
D34*
X185447100Y-110978600D03*
X185447100Y-105378600D03*
%TD*%
D35*
%TO.C,C6*%
X134721600Y-109170100D03*
X134721600Y-110870100D03*
%TD*%
D36*
%TO.C,LED3*%
X136326100Y-110833600D03*
X136326100Y-109333600D03*
X141626100Y-109333600D03*
X141626100Y-110833600D03*
%TD*%
D20*
%TO.C,JP5*%
X154851100Y-113893600D03*
X152311100Y-113893600D03*
X149771100Y-113893600D03*
X147231100Y-113893600D03*
X144691100Y-113893600D03*
X142151100Y-113893600D03*
%TD*%
D37*
%TO.C,SW4*%
X182156100Y-105003600D03*
D38*
X180886100Y-102463600D03*
D39*
X177076100Y-105003600D03*
D38*
X174536100Y-99923600D03*
D37*
X171996100Y-105003600D03*
D40*
X170986100Y-99923600D03*
X184436100Y-102503600D03*
%TD*%
D37*
%TO.C,SW3*%
X163106100Y-105003600D03*
D38*
X161836100Y-102463600D03*
D39*
X158026100Y-105003600D03*
D38*
X155486100Y-99923600D03*
D37*
X152946100Y-105003600D03*
D40*
X151936100Y-99923600D03*
X165386100Y-102503600D03*
%TD*%
D37*
%TO.C,SW1*%
X125006100Y-105003600D03*
D38*
X123736100Y-102463600D03*
D39*
X119926100Y-105003600D03*
D38*
X117386100Y-99923600D03*
D37*
X114846100Y-105003600D03*
D40*
X113836100Y-99923600D03*
X127286100Y-102503600D03*
%TD*%
D36*
%TO.C,LED4*%
X117403100Y-110833600D03*
X117403100Y-109333600D03*
X122703100Y-109333600D03*
X122703100Y-110833600D03*
%TD*%
%TO.C,LED1*%
X174426100Y-110833600D03*
X174426100Y-109333600D03*
X179726100Y-109333600D03*
X179726100Y-110833600D03*
%TD*%
%TO.C,LED2*%
X155503100Y-110833600D03*
X155503100Y-109333600D03*
X160803100Y-109333600D03*
X160803100Y-110833600D03*
%TD*%
D37*
%TO.C,SW2*%
X144056100Y-105003600D03*
D38*
X142786100Y-102463600D03*
D39*
X138976100Y-105003600D03*
D38*
X136436100Y-99923600D03*
D37*
X133896100Y-105003600D03*
D40*
X132886100Y-99923600D03*
X146336100Y-102503600D03*
%TD*%
M02*
