M48
; DRILL file {KiCad 7.0.6-7.0.6~ubuntu22.04.1} date Sat 05 Aug 2023 04:38:46 BST
; FORMAT={-:-/ absolute / metric / decimal}
; #@! TF.CreationDate,2023-08-05T04:38:46+01:00
; #@! TF.GenerationSoftware,Kicad,Pcbnew,7.0.6-7.0.6~ubuntu22.04.1
; #@! TF.FileFunction,MixedPlating,1,2
FMAT,2
METRIC
; #@! TA.AperFunction,Plated,PTH,ViaDrill
T1C0.394
; #@! TA.AperFunction,Plated,PTH,ViaDrill
T2C0.400
; #@! TA.AperFunction,Plated,PTH,ComponentDrill
T3C0.600
; #@! TA.AperFunction,Plated,PTH,ComponentDrill
T4C1.000
; #@! TA.AperFunction,Plated,PTH,ComponentDrill
T5C2.500
; #@! TA.AperFunction,NonPlated,NPTH,ComponentDrill
T6C0.650
%
G90
G05
T1
X127.673Y-94.78
X141.707Y-99.67
X142.062Y-103.924
X142.088Y-107.861
X144.12Y-103.543
X144.477Y-109.679
X144.659Y-106.2
X145.104Y-107.114
X145.109Y-101.406
X145.11Y-111.677
X145.141Y-100.241
X145.378Y-109.249
X145.406Y-110.227
X145.974Y-111.042
X146.145Y-108.062
X146.42Y-110.098
X147.549Y-112.243
X147.75Y-98.781
X148.53Y-112.211
X148.639Y-99.225
X149.454Y-98.019
X149.507Y-112.211
X150.485Y-111.984
X151.527Y-97.765
X152.565Y-99.257
X152.756Y-102.908
X153.463Y-98.599
X153.994Y-107.491
X155.053Y-104.654
X155.169Y-109.988
X155.264Y-106.886
X155.931Y-106.147
X156.35Y-109.909
X157.328Y-110.02
X158.566Y-106.845
X159.185Y-109.94
X159.842Y-101.13
X160.085Y-109.556
X160.223Y-112.846
X160.28Y-111.868
X160.717Y-110.933
X161.133Y-109.955
X161.201Y-113.043
X162.217Y-113.195
X162.598Y-107.017
X163.614Y-107.036
X164.379Y-102.721
X165.265Y-100.305
X168.215Y-97.701
T2
X124.498Y-103.607
X124.562Y-106.21
X125.197Y-102.21
X125.197Y-107.798
X126.848Y-107.099
X127.356Y-98.654
X127.446Y-102.97
X127.864Y-115.545
X129.324Y-110.592
X130.658Y-98.336
X130.848Y-112.624
X131.674Y-99.733
X131.775Y-101.587
X131.929Y-105.128
X131.962Y-104.144
X132.436Y-94.717
X132.69Y-106.845
X134.468Y-107.988
X134.531Y-113.576
X134.722Y-97.257
X135.039Y-110.846
X135.674Y-105.512
X135.865Y-94.59
X136.246Y-98.082
X137.452Y-100.305
X138.748Y-107.963
X139.611Y-104.305
X140.818Y-100.99
X143.04Y-97.13
X143.485Y-101.765
X143.929Y-106.909
X144.691Y-97.384
X146.215Y-112.56
X149.327Y-104.242
X150.406Y-105.321
X151.422Y-103.797
X157.963Y-107.671
X159.042Y-100.178
X160.312Y-97.384
X160.312Y-104.813
X160.693Y-100.241
X162.154Y-101.575
X163.36Y-111.417
X164.757Y-96.749
X166.535Y-106.972
X166.853Y-101.638
T3
X124.495Y-100.684
X124.495Y-109.324
X128.675Y-100.684
X128.675Y-109.324
T4
X129.451Y-115.164
X131.991Y-115.164
X134.531Y-115.164
X137.071Y-115.164
X139.611Y-94.78
X139.611Y-115.164
X142.151Y-94.78
X142.151Y-115.164
X144.691Y-94.78
X144.691Y-115.164
X147.231Y-94.78
X147.231Y-115.164
X149.771Y-94.78
X149.771Y-115.164
X152.311Y-94.78
X152.311Y-115.164
X154.851Y-94.78
X154.851Y-115.164
X157.391Y-94.78
X157.391Y-115.164
X159.931Y-94.78
X159.931Y-115.164
X162.471Y-94.78
X162.471Y-115.164
X165.011Y-94.78
X165.011Y-115.164
X167.551Y-94.78
X167.551Y-115.164
X170.091Y-96.114
X170.091Y-98.654
X170.091Y-101.194
X170.091Y-103.734
X170.091Y-106.274
X170.091Y-108.814
X170.091Y-111.354
X170.091Y-113.894
X172.631Y-96.114
X172.631Y-98.654
X172.631Y-101.194
X172.631Y-103.734
X172.631Y-106.274
X172.631Y-108.814
X172.631Y-111.354
X172.631Y-113.894
T5
X125.641Y-96.114
X125.641Y-113.894
T6
X128.175Y-102.114
X128.175Y-107.894
T0
M30
