%TF.GenerationSoftware,KiCad,Pcbnew,7.0.6-7.0.6~ubuntu22.04.1*%
%TF.CreationDate,2023-08-07T08:42:49+01:00*%
%TF.ProjectId,working,776f726b-696e-4672-9e6b-696361645f70,rev?*%
%TF.SameCoordinates,Original*%
%TF.FileFunction,AssemblyDrawing,Top*%
%FSLAX46Y46*%
G04 Gerber Fmt 4.6, Leading zero omitted, Abs format (unit mm)*
G04 Created by KiCad (PCBNEW 7.0.6-7.0.6~ubuntu22.04.1) date 2023-08-07 08:42:49*
%MOMM*%
%LPD*%
G01*
G04 APERTURE LIST*
%ADD10C,0.050800*%
%ADD11C,0.101600*%
%ADD12C,0.029911*%
%ADD13C,0.152400*%
%ADD14C,0.127000*%
G04 APERTURE END LIST*
D10*
X139230100Y-119672100D02*
X158534100Y-119672100D01*
D11*
X133756132Y-123811892D02*
X133756132Y-124590826D01*
X133756132Y-123923168D02*
X133811770Y-123867530D01*
X133811770Y-123867530D02*
X133923046Y-123811892D01*
X133923046Y-123811892D02*
X134089961Y-123811892D01*
X134089961Y-123811892D02*
X134201237Y-123867530D01*
X134201237Y-123867530D02*
X134256875Y-123978807D01*
X134256875Y-123978807D02*
X134256875Y-124590826D01*
X135480913Y-124590826D02*
X135091446Y-124034445D01*
X134813256Y-124590826D02*
X134813256Y-123422426D01*
X134813256Y-123422426D02*
X135258361Y-123422426D01*
X135258361Y-123422426D02*
X135369637Y-123478064D01*
X135369637Y-123478064D02*
X135425275Y-123533702D01*
X135425275Y-123533702D02*
X135480913Y-123644978D01*
X135480913Y-123644978D02*
X135480913Y-123811892D01*
X135480913Y-123811892D02*
X135425275Y-123923168D01*
X135425275Y-123923168D02*
X135369637Y-123978807D01*
X135369637Y-123978807D02*
X135258361Y-124034445D01*
X135258361Y-124034445D02*
X134813256Y-124034445D01*
X136371123Y-123978807D02*
X135981656Y-123978807D01*
X135981656Y-124590826D02*
X135981656Y-123422426D01*
X135981656Y-123422426D02*
X136538037Y-123422426D01*
X136927504Y-123533702D02*
X136983142Y-123478064D01*
X136983142Y-123478064D02*
X137094418Y-123422426D01*
X137094418Y-123422426D02*
X137372609Y-123422426D01*
X137372609Y-123422426D02*
X137483885Y-123478064D01*
X137483885Y-123478064D02*
X137539523Y-123533702D01*
X137539523Y-123533702D02*
X137595161Y-123644978D01*
X137595161Y-123644978D02*
X137595161Y-123756254D01*
X137595161Y-123756254D02*
X137539523Y-123923168D01*
X137539523Y-123923168D02*
X136871866Y-124590826D01*
X136871866Y-124590826D02*
X137595161Y-124590826D01*
X138596647Y-123811892D02*
X138596647Y-124590826D01*
X138318456Y-123366788D02*
X138040266Y-124201359D01*
X138040266Y-124201359D02*
X138763561Y-124201359D01*
X139431218Y-123422426D02*
X139542495Y-123422426D01*
X139542495Y-123422426D02*
X139653771Y-123478064D01*
X139653771Y-123478064D02*
X139709409Y-123533702D01*
X139709409Y-123533702D02*
X139765047Y-123644978D01*
X139765047Y-123644978D02*
X139820685Y-123867530D01*
X139820685Y-123867530D02*
X139820685Y-124145721D01*
X139820685Y-124145721D02*
X139765047Y-124368273D01*
X139765047Y-124368273D02*
X139709409Y-124479549D01*
X139709409Y-124479549D02*
X139653771Y-124535188D01*
X139653771Y-124535188D02*
X139542495Y-124590826D01*
X139542495Y-124590826D02*
X139431218Y-124590826D01*
X139431218Y-124590826D02*
X139319942Y-124535188D01*
X139319942Y-124535188D02*
X139264304Y-124479549D01*
X139264304Y-124479549D02*
X139208666Y-124368273D01*
X139208666Y-124368273D02*
X139153028Y-124145721D01*
X139153028Y-124145721D02*
X139153028Y-123867530D01*
X139153028Y-123867530D02*
X139208666Y-123644978D01*
X139208666Y-123644978D02*
X139264304Y-123533702D01*
X139264304Y-123533702D02*
X139319942Y-123478064D01*
X139319942Y-123478064D02*
X139431218Y-123422426D01*
X140933447Y-124590826D02*
X140265790Y-124590826D01*
X140599618Y-124590826D02*
X140599618Y-123422426D01*
X140599618Y-123422426D02*
X140488342Y-123589340D01*
X140488342Y-123589340D02*
X140377066Y-123700616D01*
X140377066Y-123700616D02*
X140265790Y-123756254D01*
X141378552Y-124256997D02*
X141934933Y-124256997D01*
X141267276Y-124590826D02*
X141656742Y-123422426D01*
X141656742Y-123422426D02*
X142046209Y-124590826D01*
X143214610Y-123811892D02*
X143437162Y-124590826D01*
X143437162Y-124590826D02*
X143659715Y-124034445D01*
X143659715Y-124034445D02*
X143882267Y-124590826D01*
X143882267Y-124590826D02*
X144104819Y-123811892D01*
X145384495Y-123366788D02*
X144383010Y-124869016D01*
X146497258Y-123422426D02*
X147164915Y-123422426D01*
X146831086Y-124590826D02*
X146831086Y-123422426D01*
X147554382Y-124590826D02*
X147554382Y-123811892D01*
X147554382Y-124034445D02*
X147610020Y-123923168D01*
X147610020Y-123923168D02*
X147665658Y-123867530D01*
X147665658Y-123867530D02*
X147776934Y-123811892D01*
X147776934Y-123811892D02*
X147888211Y-123811892D01*
X148778420Y-124590826D02*
X148778420Y-123978807D01*
X148778420Y-123978807D02*
X148722782Y-123867530D01*
X148722782Y-123867530D02*
X148611506Y-123811892D01*
X148611506Y-123811892D02*
X148388953Y-123811892D01*
X148388953Y-123811892D02*
X148277677Y-123867530D01*
X148778420Y-124535188D02*
X148667144Y-124590826D01*
X148667144Y-124590826D02*
X148388953Y-124590826D01*
X148388953Y-124590826D02*
X148277677Y-124535188D01*
X148277677Y-124535188D02*
X148222039Y-124423911D01*
X148222039Y-124423911D02*
X148222039Y-124312635D01*
X148222039Y-124312635D02*
X148277677Y-124201359D01*
X148277677Y-124201359D02*
X148388953Y-124145721D01*
X148388953Y-124145721D02*
X148667144Y-124145721D01*
X148667144Y-124145721D02*
X148778420Y-124090083D01*
X149835544Y-124535188D02*
X149724268Y-124590826D01*
X149724268Y-124590826D02*
X149501715Y-124590826D01*
X149501715Y-124590826D02*
X149390439Y-124535188D01*
X149390439Y-124535188D02*
X149334801Y-124479549D01*
X149334801Y-124479549D02*
X149279163Y-124368273D01*
X149279163Y-124368273D02*
X149279163Y-124034445D01*
X149279163Y-124034445D02*
X149334801Y-123923168D01*
X149334801Y-123923168D02*
X149390439Y-123867530D01*
X149390439Y-123867530D02*
X149501715Y-123811892D01*
X149501715Y-123811892D02*
X149724268Y-123811892D01*
X149724268Y-123811892D02*
X149835544Y-123867530D01*
X150781392Y-124535188D02*
X150670116Y-124590826D01*
X150670116Y-124590826D02*
X150447563Y-124590826D01*
X150447563Y-124590826D02*
X150336287Y-124535188D01*
X150336287Y-124535188D02*
X150280649Y-124423911D01*
X150280649Y-124423911D02*
X150280649Y-123978807D01*
X150280649Y-123978807D02*
X150336287Y-123867530D01*
X150336287Y-123867530D02*
X150447563Y-123811892D01*
X150447563Y-123811892D02*
X150670116Y-123811892D01*
X150670116Y-123811892D02*
X150781392Y-123867530D01*
X150781392Y-123867530D02*
X150837030Y-123978807D01*
X150837030Y-123978807D02*
X150837030Y-124090083D01*
X150837030Y-124090083D02*
X150280649Y-124201359D01*
X152172345Y-124256997D02*
X152728726Y-124256997D01*
X152061069Y-124590826D02*
X152450535Y-123422426D01*
X152450535Y-123422426D02*
X152840002Y-124590826D01*
X153229469Y-123811892D02*
X153229469Y-124590826D01*
X153229469Y-123923168D02*
X153285107Y-123867530D01*
X153285107Y-123867530D02*
X153396383Y-123811892D01*
X153396383Y-123811892D02*
X153563298Y-123811892D01*
X153563298Y-123811892D02*
X153674574Y-123867530D01*
X153674574Y-123867530D02*
X153730212Y-123978807D01*
X153730212Y-123978807D02*
X153730212Y-124590826D01*
X154119679Y-123811892D02*
X154564783Y-123811892D01*
X154286593Y-123422426D02*
X154286593Y-124423911D01*
X154286593Y-124423911D02*
X154342231Y-124535188D01*
X154342231Y-124535188D02*
X154453507Y-124590826D01*
X154453507Y-124590826D02*
X154564783Y-124590826D01*
X155399355Y-124535188D02*
X155288079Y-124590826D01*
X155288079Y-124590826D02*
X155065526Y-124590826D01*
X155065526Y-124590826D02*
X154954250Y-124535188D01*
X154954250Y-124535188D02*
X154898612Y-124423911D01*
X154898612Y-124423911D02*
X154898612Y-123978807D01*
X154898612Y-123978807D02*
X154954250Y-123867530D01*
X154954250Y-123867530D02*
X155065526Y-123811892D01*
X155065526Y-123811892D02*
X155288079Y-123811892D01*
X155288079Y-123811892D02*
X155399355Y-123867530D01*
X155399355Y-123867530D02*
X155454993Y-123978807D01*
X155454993Y-123978807D02*
X155454993Y-124090083D01*
X155454993Y-124090083D02*
X154898612Y-124201359D01*
X155955736Y-123811892D02*
X155955736Y-124590826D01*
X155955736Y-123923168D02*
X156011374Y-123867530D01*
X156011374Y-123867530D02*
X156122650Y-123811892D01*
X156122650Y-123811892D02*
X156289565Y-123811892D01*
X156289565Y-123811892D02*
X156400841Y-123867530D01*
X156400841Y-123867530D02*
X156456479Y-123978807D01*
X156456479Y-123978807D02*
X156456479Y-124590826D01*
X157012860Y-123811892D02*
X157012860Y-124590826D01*
X157012860Y-123923168D02*
X157068498Y-123867530D01*
X157068498Y-123867530D02*
X157179774Y-123811892D01*
X157179774Y-123811892D02*
X157346689Y-123811892D01*
X157346689Y-123811892D02*
X157457965Y-123867530D01*
X157457965Y-123867530D02*
X157513603Y-123978807D01*
X157513603Y-123978807D02*
X157513603Y-124590826D01*
X158570727Y-124590826D02*
X158570727Y-123978807D01*
X158570727Y-123978807D02*
X158515089Y-123867530D01*
X158515089Y-123867530D02*
X158403813Y-123811892D01*
X158403813Y-123811892D02*
X158181260Y-123811892D01*
X158181260Y-123811892D02*
X158069984Y-123867530D01*
X158570727Y-124535188D02*
X158459451Y-124590826D01*
X158459451Y-124590826D02*
X158181260Y-124590826D01*
X158181260Y-124590826D02*
X158069984Y-124535188D01*
X158069984Y-124535188D02*
X158014346Y-124423911D01*
X158014346Y-124423911D02*
X158014346Y-124312635D01*
X158014346Y-124312635D02*
X158069984Y-124201359D01*
X158069984Y-124201359D02*
X158181260Y-124145721D01*
X158181260Y-124145721D02*
X158459451Y-124145721D01*
X158459451Y-124145721D02*
X158570727Y-124090083D01*
D12*
X147275226Y-112227137D02*
X147275226Y-111994073D01*
X147275226Y-111994073D02*
X147418650Y-112119569D01*
X147418650Y-112119569D02*
X147418650Y-112065785D01*
X147418650Y-112065785D02*
X147436578Y-112029929D01*
X147436578Y-112029929D02*
X147454506Y-112012001D01*
X147454506Y-112012001D02*
X147490362Y-111994073D01*
X147490362Y-111994073D02*
X147580002Y-111994073D01*
X147580002Y-111994073D02*
X147615858Y-112012001D01*
X147615858Y-112012001D02*
X147633787Y-112029929D01*
X147633787Y-112029929D02*
X147651715Y-112065785D01*
X147651715Y-112065785D02*
X147651715Y-112173353D01*
X147651715Y-112173353D02*
X147633787Y-112209209D01*
X147633787Y-112209209D02*
X147615858Y-112227137D01*
X147615858Y-111832720D02*
X147633787Y-111814792D01*
X147633787Y-111814792D02*
X147651715Y-111832720D01*
X147651715Y-111832720D02*
X147633787Y-111850648D01*
X147633787Y-111850648D02*
X147615858Y-111832720D01*
X147615858Y-111832720D02*
X147651715Y-111832720D01*
X147275226Y-111689296D02*
X147275226Y-111456232D01*
X147275226Y-111456232D02*
X147418650Y-111581728D01*
X147418650Y-111581728D02*
X147418650Y-111527944D01*
X147418650Y-111527944D02*
X147436578Y-111492088D01*
X147436578Y-111492088D02*
X147454506Y-111474160D01*
X147454506Y-111474160D02*
X147490362Y-111456232D01*
X147490362Y-111456232D02*
X147580002Y-111456232D01*
X147580002Y-111456232D02*
X147615858Y-111474160D01*
X147615858Y-111474160D02*
X147633787Y-111492088D01*
X147633787Y-111492088D02*
X147651715Y-111527944D01*
X147651715Y-111527944D02*
X147651715Y-111635512D01*
X147651715Y-111635512D02*
X147633787Y-111671368D01*
X147633787Y-111671368D02*
X147615858Y-111689296D01*
X147400722Y-111294879D02*
X147651715Y-111294879D01*
X147436578Y-111294879D02*
X147418650Y-111276951D01*
X147418650Y-111276951D02*
X147400722Y-111241095D01*
X147400722Y-111241095D02*
X147400722Y-111187311D01*
X147400722Y-111187311D02*
X147418650Y-111151455D01*
X147418650Y-111151455D02*
X147454506Y-111133527D01*
X147454506Y-111133527D02*
X147651715Y-111133527D01*
X147651715Y-110954246D02*
X147275226Y-110954246D01*
X147454506Y-110954246D02*
X147454506Y-110739110D01*
X147651715Y-110739110D02*
X147275226Y-110739110D01*
X156608082Y-114110209D02*
X156590154Y-114092281D01*
X156590154Y-114092281D02*
X156572226Y-114056425D01*
X156572226Y-114056425D02*
X156572226Y-113966785D01*
X156572226Y-113966785D02*
X156590154Y-113930929D01*
X156590154Y-113930929D02*
X156608082Y-113913001D01*
X156608082Y-113913001D02*
X156643938Y-113895073D01*
X156643938Y-113895073D02*
X156679794Y-113895073D01*
X156679794Y-113895073D02*
X156733578Y-113913001D01*
X156733578Y-113913001D02*
X156948715Y-114128137D01*
X156948715Y-114128137D02*
X156948715Y-113895073D01*
X156608082Y-113751648D02*
X156590154Y-113733720D01*
X156590154Y-113733720D02*
X156572226Y-113697864D01*
X156572226Y-113697864D02*
X156572226Y-113608224D01*
X156572226Y-113608224D02*
X156590154Y-113572368D01*
X156590154Y-113572368D02*
X156608082Y-113554440D01*
X156608082Y-113554440D02*
X156643938Y-113536512D01*
X156643938Y-113536512D02*
X156679794Y-113536512D01*
X156679794Y-113536512D02*
X156733578Y-113554440D01*
X156733578Y-113554440D02*
X156948715Y-113769576D01*
X156948715Y-113769576D02*
X156948715Y-113536512D01*
X156697722Y-113375159D02*
X157074211Y-113375159D01*
X156715650Y-113375159D02*
X156697722Y-113339303D01*
X156697722Y-113339303D02*
X156697722Y-113267591D01*
X156697722Y-113267591D02*
X156715650Y-113231735D01*
X156715650Y-113231735D02*
X156733578Y-113213807D01*
X156733578Y-113213807D02*
X156769434Y-113195879D01*
X156769434Y-113195879D02*
X156877002Y-113195879D01*
X156877002Y-113195879D02*
X156912858Y-113213807D01*
X156912858Y-113213807D02*
X156930787Y-113231735D01*
X156930787Y-113231735D02*
X156948715Y-113267591D01*
X156948715Y-113267591D02*
X156948715Y-113339303D01*
X156948715Y-113339303D02*
X156930787Y-113375159D01*
X156751506Y-112909030D02*
X156751506Y-113034526D01*
X156948715Y-113034526D02*
X156572226Y-113034526D01*
X156572226Y-113034526D02*
X156572226Y-112855246D01*
X149637062Y-110773226D02*
X149870126Y-110773226D01*
X149870126Y-110773226D02*
X149744630Y-110916650D01*
X149744630Y-110916650D02*
X149798414Y-110916650D01*
X149798414Y-110916650D02*
X149834270Y-110934578D01*
X149834270Y-110934578D02*
X149852198Y-110952506D01*
X149852198Y-110952506D02*
X149870126Y-110988362D01*
X149870126Y-110988362D02*
X149870126Y-111078002D01*
X149870126Y-111078002D02*
X149852198Y-111113858D01*
X149852198Y-111113858D02*
X149834270Y-111131787D01*
X149834270Y-111131787D02*
X149798414Y-111149715D01*
X149798414Y-111149715D02*
X149690846Y-111149715D01*
X149690846Y-111149715D02*
X149654990Y-111131787D01*
X149654990Y-111131787D02*
X149637062Y-111113858D01*
X149995623Y-110773226D02*
X150228687Y-110773226D01*
X150228687Y-110773226D02*
X150103191Y-110916650D01*
X150103191Y-110916650D02*
X150156975Y-110916650D01*
X150156975Y-110916650D02*
X150192831Y-110934578D01*
X150192831Y-110934578D02*
X150210759Y-110952506D01*
X150210759Y-110952506D02*
X150228687Y-110988362D01*
X150228687Y-110988362D02*
X150228687Y-111078002D01*
X150228687Y-111078002D02*
X150210759Y-111113858D01*
X150210759Y-111113858D02*
X150192831Y-111131787D01*
X150192831Y-111131787D02*
X150156975Y-111149715D01*
X150156975Y-111149715D02*
X150049407Y-111149715D01*
X150049407Y-111149715D02*
X150013551Y-111131787D01*
X150013551Y-111131787D02*
X149995623Y-111113858D01*
X150390040Y-110898722D02*
X150390040Y-111149715D01*
X150390040Y-110934578D02*
X150407968Y-110916650D01*
X150407968Y-110916650D02*
X150443824Y-110898722D01*
X150443824Y-110898722D02*
X150497608Y-110898722D01*
X150497608Y-110898722D02*
X150533464Y-110916650D01*
X150533464Y-110916650D02*
X150551392Y-110952506D01*
X150551392Y-110952506D02*
X150551392Y-111149715D01*
X150730673Y-111149715D02*
X150730673Y-110773226D01*
X150730673Y-110952506D02*
X150945809Y-110952506D01*
X150945809Y-111149715D02*
X150945809Y-110773226D01*
X153612715Y-115506573D02*
X153612715Y-115721709D01*
X153612715Y-115614141D02*
X153236226Y-115614141D01*
X153236226Y-115614141D02*
X153290010Y-115649997D01*
X153290010Y-115649997D02*
X153325866Y-115685853D01*
X153325866Y-115685853D02*
X153343794Y-115721709D01*
X153236226Y-115183868D02*
X153236226Y-115255580D01*
X153236226Y-115255580D02*
X153254154Y-115291436D01*
X153254154Y-115291436D02*
X153272082Y-115309364D01*
X153272082Y-115309364D02*
X153325866Y-115345220D01*
X153325866Y-115345220D02*
X153397578Y-115363148D01*
X153397578Y-115363148D02*
X153541002Y-115363148D01*
X153541002Y-115363148D02*
X153576858Y-115345220D01*
X153576858Y-115345220D02*
X153594787Y-115327292D01*
X153594787Y-115327292D02*
X153612715Y-115291436D01*
X153612715Y-115291436D02*
X153612715Y-115219724D01*
X153612715Y-115219724D02*
X153594787Y-115183868D01*
X153594787Y-115183868D02*
X153576858Y-115165940D01*
X153576858Y-115165940D02*
X153541002Y-115148012D01*
X153541002Y-115148012D02*
X153451362Y-115148012D01*
X153451362Y-115148012D02*
X153415506Y-115165940D01*
X153415506Y-115165940D02*
X153397578Y-115183868D01*
X153397578Y-115183868D02*
X153379650Y-115219724D01*
X153379650Y-115219724D02*
X153379650Y-115291436D01*
X153379650Y-115291436D02*
X153397578Y-115327292D01*
X153397578Y-115327292D02*
X153415506Y-115345220D01*
X153415506Y-115345220D02*
X153451362Y-115363148D01*
X153612715Y-114986659D02*
X153236226Y-114986659D01*
X153236226Y-114986659D02*
X153505146Y-114861163D01*
X153505146Y-114861163D02*
X153236226Y-114735667D01*
X153236226Y-114735667D02*
X153612715Y-114735667D01*
X153612715Y-114556386D02*
X153236226Y-114556386D01*
X153415506Y-114556386D02*
X153415506Y-114341250D01*
X153612715Y-114341250D02*
X153236226Y-114341250D01*
X153361722Y-114197825D02*
X153361722Y-114000617D01*
X153361722Y-114000617D02*
X153612715Y-114197825D01*
X153612715Y-114197825D02*
X153612715Y-114000617D01*
X142597715Y-117838073D02*
X142597715Y-118053209D01*
X142597715Y-117945641D02*
X142221226Y-117945641D01*
X142221226Y-117945641D02*
X142275010Y-117981497D01*
X142275010Y-117981497D02*
X142310866Y-118017353D01*
X142310866Y-118017353D02*
X142328794Y-118053209D01*
X142221226Y-117605008D02*
X142221226Y-117569152D01*
X142221226Y-117569152D02*
X142239154Y-117533296D01*
X142239154Y-117533296D02*
X142257082Y-117515368D01*
X142257082Y-117515368D02*
X142292938Y-117497440D01*
X142292938Y-117497440D02*
X142364650Y-117479512D01*
X142364650Y-117479512D02*
X142454290Y-117479512D01*
X142454290Y-117479512D02*
X142526002Y-117497440D01*
X142526002Y-117497440D02*
X142561858Y-117515368D01*
X142561858Y-117515368D02*
X142579787Y-117533296D01*
X142579787Y-117533296D02*
X142597715Y-117569152D01*
X142597715Y-117569152D02*
X142597715Y-117605008D01*
X142597715Y-117605008D02*
X142579787Y-117640864D01*
X142579787Y-117640864D02*
X142561858Y-117658792D01*
X142561858Y-117658792D02*
X142526002Y-117676720D01*
X142526002Y-117676720D02*
X142454290Y-117694648D01*
X142454290Y-117694648D02*
X142364650Y-117694648D01*
X142364650Y-117694648D02*
X142292938Y-117676720D01*
X142292938Y-117676720D02*
X142257082Y-117658792D01*
X142257082Y-117658792D02*
X142239154Y-117640864D01*
X142239154Y-117640864D02*
X142221226Y-117605008D01*
X142346722Y-117318159D02*
X142597715Y-117318159D01*
X142382578Y-117318159D02*
X142364650Y-117300231D01*
X142364650Y-117300231D02*
X142346722Y-117264375D01*
X142346722Y-117264375D02*
X142346722Y-117210591D01*
X142346722Y-117210591D02*
X142364650Y-117174735D01*
X142364650Y-117174735D02*
X142400506Y-117156807D01*
X142400506Y-117156807D02*
X142597715Y-117156807D01*
X142400506Y-116852030D02*
X142400506Y-116977526D01*
X142597715Y-116977526D02*
X142221226Y-116977526D01*
X142221226Y-116977526D02*
X142221226Y-116798246D01*
X143394030Y-112743715D02*
X143178894Y-112743715D01*
X143286462Y-112743715D02*
X143286462Y-112367226D01*
X143286462Y-112367226D02*
X143250606Y-112421010D01*
X143250606Y-112421010D02*
X143214750Y-112456866D01*
X143214750Y-112456866D02*
X143178894Y-112474794D01*
X143555383Y-112707858D02*
X143573311Y-112725787D01*
X143573311Y-112725787D02*
X143555383Y-112743715D01*
X143555383Y-112743715D02*
X143537455Y-112725787D01*
X143537455Y-112725787D02*
X143555383Y-112707858D01*
X143555383Y-112707858D02*
X143555383Y-112743715D01*
X143806375Y-112367226D02*
X143842231Y-112367226D01*
X143842231Y-112367226D02*
X143878087Y-112385154D01*
X143878087Y-112385154D02*
X143896015Y-112403082D01*
X143896015Y-112403082D02*
X143913943Y-112438938D01*
X143913943Y-112438938D02*
X143931871Y-112510650D01*
X143931871Y-112510650D02*
X143931871Y-112600290D01*
X143931871Y-112600290D02*
X143913943Y-112672002D01*
X143913943Y-112672002D02*
X143896015Y-112707858D01*
X143896015Y-112707858D02*
X143878087Y-112725787D01*
X143878087Y-112725787D02*
X143842231Y-112743715D01*
X143842231Y-112743715D02*
X143806375Y-112743715D01*
X143806375Y-112743715D02*
X143770519Y-112725787D01*
X143770519Y-112725787D02*
X143752591Y-112707858D01*
X143752591Y-112707858D02*
X143734663Y-112672002D01*
X143734663Y-112672002D02*
X143716735Y-112600290D01*
X143716735Y-112600290D02*
X143716735Y-112510650D01*
X143716735Y-112510650D02*
X143734663Y-112438938D01*
X143734663Y-112438938D02*
X143752591Y-112403082D01*
X143752591Y-112403082D02*
X143770519Y-112385154D01*
X143770519Y-112385154D02*
X143806375Y-112367226D01*
X144093224Y-112492722D02*
X144093224Y-112869211D01*
X144093224Y-112510650D02*
X144129080Y-112492722D01*
X144129080Y-112492722D02*
X144200792Y-112492722D01*
X144200792Y-112492722D02*
X144236648Y-112510650D01*
X144236648Y-112510650D02*
X144254576Y-112528578D01*
X144254576Y-112528578D02*
X144272504Y-112564434D01*
X144272504Y-112564434D02*
X144272504Y-112672002D01*
X144272504Y-112672002D02*
X144254576Y-112707858D01*
X144254576Y-112707858D02*
X144236648Y-112725787D01*
X144236648Y-112725787D02*
X144200792Y-112743715D01*
X144200792Y-112743715D02*
X144129080Y-112743715D01*
X144129080Y-112743715D02*
X144093224Y-112725787D01*
X144559353Y-112546506D02*
X144433857Y-112546506D01*
X144433857Y-112743715D02*
X144433857Y-112367226D01*
X144433857Y-112367226D02*
X144613137Y-112367226D01*
X151102715Y-116800073D02*
X151102715Y-117015209D01*
X151102715Y-116907641D02*
X150726226Y-116907641D01*
X150726226Y-116907641D02*
X150780010Y-116943497D01*
X150780010Y-116943497D02*
X150815866Y-116979353D01*
X150815866Y-116979353D02*
X150833794Y-117015209D01*
X151102715Y-116638720D02*
X150726226Y-116638720D01*
X150726226Y-116638720D02*
X150995146Y-116513224D01*
X150995146Y-116513224D02*
X150726226Y-116387728D01*
X150726226Y-116387728D02*
X151102715Y-116387728D01*
X151876990Y-110819082D02*
X151894918Y-110801154D01*
X151894918Y-110801154D02*
X151930774Y-110783226D01*
X151930774Y-110783226D02*
X152020414Y-110783226D01*
X152020414Y-110783226D02*
X152056270Y-110801154D01*
X152056270Y-110801154D02*
X152074198Y-110819082D01*
X152074198Y-110819082D02*
X152092126Y-110854938D01*
X152092126Y-110854938D02*
X152092126Y-110890794D01*
X152092126Y-110890794D02*
X152074198Y-110944578D01*
X152074198Y-110944578D02*
X151859062Y-111159715D01*
X151859062Y-111159715D02*
X152092126Y-111159715D01*
X152253479Y-111123858D02*
X152271407Y-111141787D01*
X152271407Y-111141787D02*
X152253479Y-111159715D01*
X152253479Y-111159715D02*
X152235551Y-111141787D01*
X152235551Y-111141787D02*
X152253479Y-111123858D01*
X152253479Y-111123858D02*
X152253479Y-111159715D01*
X152414831Y-110819082D02*
X152432759Y-110801154D01*
X152432759Y-110801154D02*
X152468615Y-110783226D01*
X152468615Y-110783226D02*
X152558255Y-110783226D01*
X152558255Y-110783226D02*
X152594111Y-110801154D01*
X152594111Y-110801154D02*
X152612039Y-110819082D01*
X152612039Y-110819082D02*
X152629967Y-110854938D01*
X152629967Y-110854938D02*
X152629967Y-110890794D01*
X152629967Y-110890794D02*
X152612039Y-110944578D01*
X152612039Y-110944578D02*
X152396903Y-111159715D01*
X152396903Y-111159715D02*
X152629967Y-111159715D01*
X152791320Y-110908722D02*
X152791320Y-111159715D01*
X152791320Y-110944578D02*
X152809248Y-110926650D01*
X152809248Y-110926650D02*
X152845104Y-110908722D01*
X152845104Y-110908722D02*
X152898888Y-110908722D01*
X152898888Y-110908722D02*
X152934744Y-110926650D01*
X152934744Y-110926650D02*
X152952672Y-110962506D01*
X152952672Y-110962506D02*
X152952672Y-111159715D01*
X153257449Y-110962506D02*
X153131953Y-110962506D01*
X153131953Y-111159715D02*
X153131953Y-110783226D01*
X153131953Y-110783226D02*
X153311233Y-110783226D01*
X140775715Y-117638073D02*
X140775715Y-117853209D01*
X140775715Y-117745641D02*
X140399226Y-117745641D01*
X140399226Y-117745641D02*
X140453010Y-117781497D01*
X140453010Y-117781497D02*
X140488866Y-117817353D01*
X140488866Y-117817353D02*
X140506794Y-117853209D01*
X140524722Y-117476720D02*
X140775715Y-117476720D01*
X140560578Y-117476720D02*
X140542650Y-117458792D01*
X140542650Y-117458792D02*
X140524722Y-117422936D01*
X140524722Y-117422936D02*
X140524722Y-117369152D01*
X140524722Y-117369152D02*
X140542650Y-117333296D01*
X140542650Y-117333296D02*
X140578506Y-117315368D01*
X140578506Y-117315368D02*
X140775715Y-117315368D01*
X140578506Y-117010591D02*
X140578506Y-117136087D01*
X140775715Y-117136087D02*
X140399226Y-117136087D01*
X140399226Y-117136087D02*
X140399226Y-116956807D01*
X145876418Y-115187715D02*
X145876418Y-114811226D01*
X145876418Y-114811226D02*
X146091554Y-115187715D01*
X146091554Y-115187715D02*
X146091554Y-114811226D01*
X146485971Y-115187715D02*
X146360475Y-115008434D01*
X146270835Y-115187715D02*
X146270835Y-114811226D01*
X146270835Y-114811226D02*
X146414259Y-114811226D01*
X146414259Y-114811226D02*
X146450115Y-114829154D01*
X146450115Y-114829154D02*
X146468043Y-114847082D01*
X146468043Y-114847082D02*
X146485971Y-114882938D01*
X146485971Y-114882938D02*
X146485971Y-114936722D01*
X146485971Y-114936722D02*
X146468043Y-114972578D01*
X146468043Y-114972578D02*
X146450115Y-114990506D01*
X146450115Y-114990506D02*
X146414259Y-115008434D01*
X146414259Y-115008434D02*
X146270835Y-115008434D01*
X146772820Y-114990506D02*
X146647324Y-114990506D01*
X146647324Y-115187715D02*
X146647324Y-114811226D01*
X146647324Y-114811226D02*
X146826604Y-114811226D01*
X146952101Y-114847082D02*
X146970029Y-114829154D01*
X146970029Y-114829154D02*
X147005885Y-114811226D01*
X147005885Y-114811226D02*
X147095525Y-114811226D01*
X147095525Y-114811226D02*
X147131381Y-114829154D01*
X147131381Y-114829154D02*
X147149309Y-114847082D01*
X147149309Y-114847082D02*
X147167237Y-114882938D01*
X147167237Y-114882938D02*
X147167237Y-114918794D01*
X147167237Y-114918794D02*
X147149309Y-114972578D01*
X147149309Y-114972578D02*
X146934173Y-115187715D01*
X146934173Y-115187715D02*
X147167237Y-115187715D01*
X147489942Y-114936722D02*
X147489942Y-115187715D01*
X147400302Y-114793298D02*
X147310662Y-115062218D01*
X147310662Y-115062218D02*
X147543726Y-115062218D01*
X147758863Y-114811226D02*
X147794719Y-114811226D01*
X147794719Y-114811226D02*
X147830575Y-114829154D01*
X147830575Y-114829154D02*
X147848503Y-114847082D01*
X147848503Y-114847082D02*
X147866431Y-114882938D01*
X147866431Y-114882938D02*
X147884359Y-114954650D01*
X147884359Y-114954650D02*
X147884359Y-115044290D01*
X147884359Y-115044290D02*
X147866431Y-115116002D01*
X147866431Y-115116002D02*
X147848503Y-115151858D01*
X147848503Y-115151858D02*
X147830575Y-115169787D01*
X147830575Y-115169787D02*
X147794719Y-115187715D01*
X147794719Y-115187715D02*
X147758863Y-115187715D01*
X147758863Y-115187715D02*
X147723007Y-115169787D01*
X147723007Y-115169787D02*
X147705079Y-115151858D01*
X147705079Y-115151858D02*
X147687151Y-115116002D01*
X147687151Y-115116002D02*
X147669223Y-115044290D01*
X147669223Y-115044290D02*
X147669223Y-114954650D01*
X147669223Y-114954650D02*
X147687151Y-114882938D01*
X147687151Y-114882938D02*
X147705079Y-114847082D01*
X147705079Y-114847082D02*
X147723007Y-114829154D01*
X147723007Y-114829154D02*
X147758863Y-114811226D01*
X148242920Y-115187715D02*
X148027784Y-115187715D01*
X148135352Y-115187715D02*
X148135352Y-114811226D01*
X148135352Y-114811226D02*
X148099496Y-114865010D01*
X148099496Y-114865010D02*
X148063640Y-114900866D01*
X148063640Y-114900866D02*
X148027784Y-114918794D01*
X148386345Y-115080146D02*
X148565625Y-115080146D01*
X148350489Y-115187715D02*
X148475985Y-114811226D01*
X148475985Y-114811226D02*
X148601481Y-115187715D01*
X148709050Y-115169787D02*
X148762834Y-115187715D01*
X148762834Y-115187715D02*
X148852474Y-115187715D01*
X148852474Y-115187715D02*
X148888330Y-115169787D01*
X148888330Y-115169787D02*
X148906258Y-115151858D01*
X148906258Y-115151858D02*
X148924186Y-115116002D01*
X148924186Y-115116002D02*
X148924186Y-115080146D01*
X148924186Y-115080146D02*
X148906258Y-115044290D01*
X148906258Y-115044290D02*
X148888330Y-115026362D01*
X148888330Y-115026362D02*
X148852474Y-115008434D01*
X148852474Y-115008434D02*
X148780762Y-114990506D01*
X148780762Y-114990506D02*
X148744906Y-114972578D01*
X148744906Y-114972578D02*
X148726978Y-114954650D01*
X148726978Y-114954650D02*
X148709050Y-114918794D01*
X148709050Y-114918794D02*
X148709050Y-114882938D01*
X148709050Y-114882938D02*
X148726978Y-114847082D01*
X148726978Y-114847082D02*
X148744906Y-114829154D01*
X148744906Y-114829154D02*
X148780762Y-114811226D01*
X148780762Y-114811226D02*
X148870402Y-114811226D01*
X148870402Y-114811226D02*
X148924186Y-114829154D01*
X149085539Y-115187715D02*
X149085539Y-114811226D01*
X149085539Y-114811226D02*
X149211035Y-115080146D01*
X149211035Y-115080146D02*
X149336531Y-114811226D01*
X149336531Y-114811226D02*
X149336531Y-115187715D01*
X149515812Y-115187715D02*
X149515812Y-114811226D01*
X149515812Y-114811226D02*
X149605452Y-114811226D01*
X149605452Y-114811226D02*
X149659236Y-114829154D01*
X149659236Y-114829154D02*
X149695092Y-114865010D01*
X149695092Y-114865010D02*
X149713020Y-114900866D01*
X149713020Y-114900866D02*
X149730948Y-114972578D01*
X149730948Y-114972578D02*
X149730948Y-115026362D01*
X149730948Y-115026362D02*
X149713020Y-115098074D01*
X149713020Y-115098074D02*
X149695092Y-115133930D01*
X149695092Y-115133930D02*
X149659236Y-115169787D01*
X149659236Y-115169787D02*
X149605452Y-115187715D01*
X149605452Y-115187715D02*
X149515812Y-115187715D01*
X154240062Y-118595226D02*
X154473126Y-118595226D01*
X154473126Y-118595226D02*
X154347630Y-118738650D01*
X154347630Y-118738650D02*
X154401414Y-118738650D01*
X154401414Y-118738650D02*
X154437270Y-118756578D01*
X154437270Y-118756578D02*
X154455198Y-118774506D01*
X154455198Y-118774506D02*
X154473126Y-118810362D01*
X154473126Y-118810362D02*
X154473126Y-118900002D01*
X154473126Y-118900002D02*
X154455198Y-118935858D01*
X154455198Y-118935858D02*
X154437270Y-118953787D01*
X154437270Y-118953787D02*
X154401414Y-118971715D01*
X154401414Y-118971715D02*
X154293846Y-118971715D01*
X154293846Y-118971715D02*
X154257990Y-118953787D01*
X154257990Y-118953787D02*
X154240062Y-118935858D01*
X154598623Y-118595226D02*
X154831687Y-118595226D01*
X154831687Y-118595226D02*
X154706191Y-118738650D01*
X154706191Y-118738650D02*
X154759975Y-118738650D01*
X154759975Y-118738650D02*
X154795831Y-118756578D01*
X154795831Y-118756578D02*
X154813759Y-118774506D01*
X154813759Y-118774506D02*
X154831687Y-118810362D01*
X154831687Y-118810362D02*
X154831687Y-118900002D01*
X154831687Y-118900002D02*
X154813759Y-118935858D01*
X154813759Y-118935858D02*
X154795831Y-118953787D01*
X154795831Y-118953787D02*
X154759975Y-118971715D01*
X154759975Y-118971715D02*
X154652407Y-118971715D01*
X154652407Y-118971715D02*
X154616551Y-118953787D01*
X154616551Y-118953787D02*
X154598623Y-118935858D01*
X154993040Y-118720722D02*
X154993040Y-118971715D01*
X154993040Y-118756578D02*
X155010968Y-118738650D01*
X155010968Y-118738650D02*
X155046824Y-118720722D01*
X155046824Y-118720722D02*
X155100608Y-118720722D01*
X155100608Y-118720722D02*
X155136464Y-118738650D01*
X155136464Y-118738650D02*
X155154392Y-118774506D01*
X155154392Y-118774506D02*
X155154392Y-118971715D01*
X155459169Y-118774506D02*
X155333673Y-118774506D01*
X155333673Y-118971715D02*
X155333673Y-118595226D01*
X155333673Y-118595226D02*
X155512953Y-118595226D01*
X148816715Y-109482073D02*
X148816715Y-109697209D01*
X148816715Y-109589641D02*
X148440226Y-109589641D01*
X148440226Y-109589641D02*
X148494010Y-109625497D01*
X148494010Y-109625497D02*
X148529866Y-109661353D01*
X148529866Y-109661353D02*
X148547794Y-109697209D01*
X148780858Y-109320720D02*
X148798787Y-109302792D01*
X148798787Y-109302792D02*
X148816715Y-109320720D01*
X148816715Y-109320720D02*
X148798787Y-109338648D01*
X148798787Y-109338648D02*
X148780858Y-109320720D01*
X148780858Y-109320720D02*
X148816715Y-109320720D01*
X148440226Y-109069728D02*
X148440226Y-109033872D01*
X148440226Y-109033872D02*
X148458154Y-108998016D01*
X148458154Y-108998016D02*
X148476082Y-108980088D01*
X148476082Y-108980088D02*
X148511938Y-108962160D01*
X148511938Y-108962160D02*
X148583650Y-108944232D01*
X148583650Y-108944232D02*
X148673290Y-108944232D01*
X148673290Y-108944232D02*
X148745002Y-108962160D01*
X148745002Y-108962160D02*
X148780858Y-108980088D01*
X148780858Y-108980088D02*
X148798787Y-108998016D01*
X148798787Y-108998016D02*
X148816715Y-109033872D01*
X148816715Y-109033872D02*
X148816715Y-109069728D01*
X148816715Y-109069728D02*
X148798787Y-109105584D01*
X148798787Y-109105584D02*
X148780858Y-109123512D01*
X148780858Y-109123512D02*
X148745002Y-109141440D01*
X148745002Y-109141440D02*
X148673290Y-109159368D01*
X148673290Y-109159368D02*
X148583650Y-109159368D01*
X148583650Y-109159368D02*
X148511938Y-109141440D01*
X148511938Y-109141440D02*
X148476082Y-109123512D01*
X148476082Y-109123512D02*
X148458154Y-109105584D01*
X148458154Y-109105584D02*
X148440226Y-109069728D01*
X148565722Y-108782879D02*
X148942211Y-108782879D01*
X148583650Y-108782879D02*
X148565722Y-108747023D01*
X148565722Y-108747023D02*
X148565722Y-108675311D01*
X148565722Y-108675311D02*
X148583650Y-108639455D01*
X148583650Y-108639455D02*
X148601578Y-108621527D01*
X148601578Y-108621527D02*
X148637434Y-108603599D01*
X148637434Y-108603599D02*
X148745002Y-108603599D01*
X148745002Y-108603599D02*
X148780858Y-108621527D01*
X148780858Y-108621527D02*
X148798787Y-108639455D01*
X148798787Y-108639455D02*
X148816715Y-108675311D01*
X148816715Y-108675311D02*
X148816715Y-108747023D01*
X148816715Y-108747023D02*
X148798787Y-108782879D01*
X148619506Y-108316750D02*
X148619506Y-108442246D01*
X148816715Y-108442246D02*
X148440226Y-108442246D01*
X148440226Y-108442246D02*
X148440226Y-108262966D01*
X149990990Y-113589082D02*
X150008918Y-113571154D01*
X150008918Y-113571154D02*
X150044774Y-113553226D01*
X150044774Y-113553226D02*
X150134414Y-113553226D01*
X150134414Y-113553226D02*
X150170270Y-113571154D01*
X150170270Y-113571154D02*
X150188198Y-113589082D01*
X150188198Y-113589082D02*
X150206126Y-113624938D01*
X150206126Y-113624938D02*
X150206126Y-113660794D01*
X150206126Y-113660794D02*
X150188198Y-113714578D01*
X150188198Y-113714578D02*
X149973062Y-113929715D01*
X149973062Y-113929715D02*
X150206126Y-113929715D01*
X150349551Y-113589082D02*
X150367479Y-113571154D01*
X150367479Y-113571154D02*
X150403335Y-113553226D01*
X150403335Y-113553226D02*
X150492975Y-113553226D01*
X150492975Y-113553226D02*
X150528831Y-113571154D01*
X150528831Y-113571154D02*
X150546759Y-113589082D01*
X150546759Y-113589082D02*
X150564687Y-113624938D01*
X150564687Y-113624938D02*
X150564687Y-113660794D01*
X150564687Y-113660794D02*
X150546759Y-113714578D01*
X150546759Y-113714578D02*
X150331623Y-113929715D01*
X150331623Y-113929715D02*
X150564687Y-113929715D01*
X150726040Y-113678722D02*
X150726040Y-114055211D01*
X150726040Y-113696650D02*
X150761896Y-113678722D01*
X150761896Y-113678722D02*
X150833608Y-113678722D01*
X150833608Y-113678722D02*
X150869464Y-113696650D01*
X150869464Y-113696650D02*
X150887392Y-113714578D01*
X150887392Y-113714578D02*
X150905320Y-113750434D01*
X150905320Y-113750434D02*
X150905320Y-113858002D01*
X150905320Y-113858002D02*
X150887392Y-113893858D01*
X150887392Y-113893858D02*
X150869464Y-113911787D01*
X150869464Y-113911787D02*
X150833608Y-113929715D01*
X150833608Y-113929715D02*
X150761896Y-113929715D01*
X150761896Y-113929715D02*
X150726040Y-113911787D01*
X151192169Y-113732506D02*
X151066673Y-113732506D01*
X151066673Y-113929715D02*
X151066673Y-113553226D01*
X151066673Y-113553226D02*
X151245953Y-113553226D01*
X142257082Y-115220209D02*
X142239154Y-115202281D01*
X142239154Y-115202281D02*
X142221226Y-115166425D01*
X142221226Y-115166425D02*
X142221226Y-115076785D01*
X142221226Y-115076785D02*
X142239154Y-115040929D01*
X142239154Y-115040929D02*
X142257082Y-115023001D01*
X142257082Y-115023001D02*
X142292938Y-115005073D01*
X142292938Y-115005073D02*
X142328794Y-115005073D01*
X142328794Y-115005073D02*
X142382578Y-115023001D01*
X142382578Y-115023001D02*
X142597715Y-115238137D01*
X142597715Y-115238137D02*
X142597715Y-115005073D01*
X142257082Y-114861648D02*
X142239154Y-114843720D01*
X142239154Y-114843720D02*
X142221226Y-114807864D01*
X142221226Y-114807864D02*
X142221226Y-114718224D01*
X142221226Y-114718224D02*
X142239154Y-114682368D01*
X142239154Y-114682368D02*
X142257082Y-114664440D01*
X142257082Y-114664440D02*
X142292938Y-114646512D01*
X142292938Y-114646512D02*
X142328794Y-114646512D01*
X142328794Y-114646512D02*
X142382578Y-114664440D01*
X142382578Y-114664440D02*
X142597715Y-114879576D01*
X142597715Y-114879576D02*
X142597715Y-114646512D01*
X142597715Y-114485159D02*
X142221226Y-114485159D01*
X142597715Y-114270023D02*
X142382578Y-114431375D01*
X142221226Y-114270023D02*
X142436362Y-114485159D01*
X156464082Y-116944209D02*
X156446154Y-116926281D01*
X156446154Y-116926281D02*
X156428226Y-116890425D01*
X156428226Y-116890425D02*
X156428226Y-116800785D01*
X156428226Y-116800785D02*
X156446154Y-116764929D01*
X156446154Y-116764929D02*
X156464082Y-116747001D01*
X156464082Y-116747001D02*
X156499938Y-116729073D01*
X156499938Y-116729073D02*
X156535794Y-116729073D01*
X156535794Y-116729073D02*
X156589578Y-116747001D01*
X156589578Y-116747001D02*
X156804715Y-116962137D01*
X156804715Y-116962137D02*
X156804715Y-116729073D01*
X156464082Y-116585648D02*
X156446154Y-116567720D01*
X156446154Y-116567720D02*
X156428226Y-116531864D01*
X156428226Y-116531864D02*
X156428226Y-116442224D01*
X156428226Y-116442224D02*
X156446154Y-116406368D01*
X156446154Y-116406368D02*
X156464082Y-116388440D01*
X156464082Y-116388440D02*
X156499938Y-116370512D01*
X156499938Y-116370512D02*
X156535794Y-116370512D01*
X156535794Y-116370512D02*
X156589578Y-116388440D01*
X156589578Y-116388440D02*
X156804715Y-116603576D01*
X156804715Y-116603576D02*
X156804715Y-116370512D01*
X156553722Y-116209159D02*
X156930211Y-116209159D01*
X156571650Y-116209159D02*
X156553722Y-116173303D01*
X156553722Y-116173303D02*
X156553722Y-116101591D01*
X156553722Y-116101591D02*
X156571650Y-116065735D01*
X156571650Y-116065735D02*
X156589578Y-116047807D01*
X156589578Y-116047807D02*
X156625434Y-116029879D01*
X156625434Y-116029879D02*
X156733002Y-116029879D01*
X156733002Y-116029879D02*
X156768858Y-116047807D01*
X156768858Y-116047807D02*
X156786787Y-116065735D01*
X156786787Y-116065735D02*
X156804715Y-116101591D01*
X156804715Y-116101591D02*
X156804715Y-116173303D01*
X156804715Y-116173303D02*
X156786787Y-116209159D01*
X156607506Y-115743030D02*
X156607506Y-115868526D01*
X156804715Y-115868526D02*
X156428226Y-115868526D01*
X156428226Y-115868526D02*
X156428226Y-115689246D01*
D13*
%TO.C,L1*%
X148238100Y-113038100D02*
X147748100Y-113038100D01*
X147748100Y-112590100D02*
X148238100Y-112590100D01*
G36*
X148547100Y-113109200D02*
G01*
X148247100Y-113109200D01*
X148247100Y-112509300D01*
X148547100Y-112509300D01*
X148547100Y-113109200D01*
G37*
G36*
X147734300Y-113109200D02*
G01*
X147434300Y-113109200D01*
X147434300Y-112509300D01*
X147734300Y-112509300D01*
X147734300Y-113109200D01*
G37*
%TO.C,JP1*%
G36*
X141135100Y-121323100D02*
G01*
X140627100Y-121323100D01*
X140627100Y-120815100D01*
X141135100Y-120815100D01*
X141135100Y-121323100D01*
G37*
G36*
X143675100Y-121323100D02*
G01*
X143167100Y-121323100D01*
X143167100Y-120815100D01*
X143675100Y-120815100D01*
X143675100Y-121323100D01*
G37*
G36*
X146215100Y-121323100D02*
G01*
X145707100Y-121323100D01*
X145707100Y-120815100D01*
X146215100Y-120815100D01*
X146215100Y-121323100D01*
G37*
G36*
X148755100Y-121323100D02*
G01*
X148247100Y-121323100D01*
X148247100Y-120815100D01*
X148755100Y-120815100D01*
X148755100Y-121323100D01*
G37*
G36*
X151295100Y-121323100D02*
G01*
X150787100Y-121323100D01*
X150787100Y-120815100D01*
X151295100Y-120815100D01*
X151295100Y-121323100D01*
G37*
G36*
X153835100Y-121323100D02*
G01*
X153327100Y-121323100D01*
X153327100Y-120815100D01*
X153835100Y-120815100D01*
X153835100Y-121323100D01*
G37*
G36*
X156375100Y-121323100D02*
G01*
X155867100Y-121323100D01*
X155867100Y-120815100D01*
X156375100Y-120815100D01*
X156375100Y-121323100D01*
G37*
%TO.C,C2*%
X155409100Y-113667100D02*
X155409100Y-113177100D01*
X155857100Y-113177100D02*
X155857100Y-113667100D01*
G36*
X155937900Y-113976100D02*
G01*
X155338000Y-113976100D01*
X155338000Y-113676100D01*
X155937900Y-113676100D01*
X155937900Y-113976100D01*
G37*
G36*
X155937900Y-113163300D02*
G01*
X155338000Y-113163300D01*
X155338000Y-112863300D01*
X155937900Y-112863300D01*
X155937900Y-113163300D01*
G37*
%TO.C,L2*%
X150524100Y-111768100D02*
X150034100Y-111768100D01*
X150034100Y-111320100D02*
X150524100Y-111320100D01*
G36*
X150833100Y-111839200D02*
G01*
X150533100Y-111839200D01*
X150533100Y-111239300D01*
X150833100Y-111239300D01*
X150833100Y-111839200D01*
G37*
G36*
X150020300Y-111839200D02*
G01*
X149720300Y-111839200D01*
X149720300Y-111239300D01*
X150020300Y-111239300D01*
X150020300Y-111839200D01*
G37*
%TO.C,C8*%
X143264100Y-117268100D02*
X143264100Y-117758100D01*
X142816100Y-117758100D02*
X142816100Y-117268100D01*
G36*
X143335200Y-117259100D02*
G01*
X142735300Y-117259100D01*
X142735300Y-116959100D01*
X143335200Y-116959100D01*
X143335200Y-117259100D01*
G37*
G36*
X143335200Y-118071900D02*
G01*
X142735300Y-118071900D01*
X142735300Y-117771900D01*
X143335200Y-117771900D01*
X143335200Y-118071900D01*
G37*
%TO.C,C7*%
X145952100Y-113038100D02*
X145462100Y-113038100D01*
X145462100Y-112590100D02*
X145952100Y-112590100D01*
G36*
X146261100Y-113109200D02*
G01*
X145961100Y-113109200D01*
X145961100Y-112509300D01*
X146261100Y-112509300D01*
X146261100Y-113109200D01*
G37*
G36*
X145448300Y-113109200D02*
G01*
X145148300Y-113109200D01*
X145148300Y-112509300D01*
X145448300Y-112509300D01*
X145448300Y-113109200D01*
G37*
%TO.C,R1*%
X150563100Y-115472100D02*
X150563100Y-114982100D01*
X151011100Y-114982100D02*
X151011100Y-115472100D01*
G36*
X151091900Y-115781100D02*
G01*
X150492000Y-115781100D01*
X150492000Y-115481100D01*
X151091900Y-115481100D01*
X151091900Y-115781100D01*
G37*
G36*
X151091900Y-114968300D02*
G01*
X150492000Y-114968300D01*
X150492000Y-114668300D01*
X151091900Y-114668300D01*
X151091900Y-114968300D01*
G37*
%TO.C,C4*%
X152320100Y-111320100D02*
X152810100Y-111320100D01*
X152810100Y-111768100D02*
X152320100Y-111768100D01*
G36*
X152311100Y-111848900D02*
G01*
X152011100Y-111848900D01*
X152011100Y-111249000D01*
X152311100Y-111249000D01*
X152311100Y-111848900D01*
G37*
G36*
X153123900Y-111848900D02*
G01*
X152823900Y-111848900D01*
X152823900Y-111249000D01*
X153123900Y-111249000D01*
X153123900Y-111848900D01*
G37*
%TO.C,C9*%
X141486100Y-117268100D02*
X141486100Y-117758100D01*
X141038100Y-117758100D02*
X141038100Y-117268100D01*
G36*
X141557200Y-117259100D02*
G01*
X140957300Y-117259100D01*
X140957300Y-116959100D01*
X141557200Y-116959100D01*
X141557200Y-117259100D01*
G37*
G36*
X141557200Y-118071900D02*
G01*
X140957300Y-118071900D01*
X140957300Y-117771900D01*
X141557200Y-117771900D01*
X141557200Y-118071900D01*
G37*
D14*
%TO.C,U1*%
X144731100Y-118743100D02*
X144731100Y-113743100D01*
X149731100Y-118743100D02*
X144731100Y-118743100D01*
X144731100Y-113743100D02*
X149731100Y-113743100D01*
X149731100Y-113743100D02*
X149731100Y-118743100D01*
D13*
%TO.C,C3*%
X152701100Y-118432100D02*
X153191100Y-118432100D01*
X153191100Y-118880100D02*
X152701100Y-118880100D01*
G36*
X152692100Y-118960900D02*
G01*
X152392100Y-118960900D01*
X152392100Y-118361000D01*
X152692100Y-118361000D01*
X152692100Y-118960900D01*
G37*
G36*
X153504900Y-118960900D02*
G01*
X153204900Y-118960900D01*
X153204900Y-118361000D01*
X153504900Y-118361000D01*
X153504900Y-118960900D01*
G37*
%TO.C,C6*%
X148277100Y-111154100D02*
X148277100Y-110664100D01*
X148725100Y-110664100D02*
X148725100Y-111154100D01*
G36*
X148805900Y-111463100D02*
G01*
X148206000Y-111463100D01*
X148206000Y-111163100D01*
X148805900Y-111163100D01*
X148805900Y-111463100D01*
G37*
G36*
X148805900Y-110650300D02*
G01*
X148206000Y-110650300D01*
X148206000Y-110350300D01*
X148805900Y-110350300D01*
X148805900Y-110650300D01*
G37*
%TO.C,C5*%
X150034100Y-112590100D02*
X150524100Y-112590100D01*
X150524100Y-113038100D02*
X150034100Y-113038100D01*
G36*
X150025100Y-113118900D02*
G01*
X149725100Y-113118900D01*
X149725100Y-112519000D01*
X150025100Y-112519000D01*
X150025100Y-113118900D01*
G37*
G36*
X150837900Y-113118900D02*
G01*
X150537900Y-113118900D01*
X150537900Y-112519000D01*
X150837900Y-112519000D01*
X150837900Y-113118900D01*
G37*
%TO.C,R2*%
X143264100Y-114601100D02*
X143264100Y-115091100D01*
X142816100Y-115091100D02*
X142816100Y-114601100D01*
G36*
X143335200Y-114592100D02*
G01*
X142735300Y-114592100D01*
X142735300Y-114292100D01*
X143335200Y-114292100D01*
X143335200Y-114592100D01*
G37*
G36*
X143335200Y-115404900D02*
G01*
X142735300Y-115404900D01*
X142735300Y-115104900D01*
X143335200Y-115104900D01*
X143335200Y-115404900D01*
G37*
%TO.C,C1*%
X155857100Y-116177100D02*
X155857100Y-116667100D01*
X155409100Y-116667100D02*
X155409100Y-116177100D01*
G36*
X155928200Y-116168100D02*
G01*
X155328300Y-116168100D01*
X155328300Y-115868100D01*
X155928200Y-115868100D01*
X155928200Y-116168100D01*
G37*
G36*
X155928200Y-116980900D02*
G01*
X155328300Y-116980900D01*
X155328300Y-116680900D01*
X155928200Y-116680900D01*
X155928200Y-116980900D01*
G37*
%TD*%
M02*
