%TF.GenerationSoftware,KiCad,Pcbnew,7.0.6-7.0.6~ubuntu22.04.1*%
%TF.CreationDate,2023-08-07T14:34:08+01:00*%
%TF.ProjectId,working,776f726b-696e-4672-9e6b-696361645f70,rev?*%
%TF.SameCoordinates,Original*%
%TF.FileFunction,Copper,L16,Bot*%
%TF.FilePolarity,Positive*%
%FSLAX46Y46*%
G04 Gerber Fmt 4.6, Leading zero omitted, Abs format (unit mm)*
G04 Created by KiCad (PCBNEW 7.0.6-7.0.6~ubuntu22.04.1) date 2023-08-07 14:34:08*
%MOMM*%
%LPD*%
G01*
G04 APERTURE LIST*
%TA.AperFunction,ComponentPad*%
%ADD10C,3.000000*%
%TD*%
%TA.AperFunction,ComponentPad*%
%ADD11C,1.930400*%
%TD*%
%TA.AperFunction,SMDPad,CuDef*%
%ADD12R,1.600200X1.168400*%
%TD*%
%TA.AperFunction,SMDPad,CuDef*%
%ADD13R,0.203200X0.635000*%
%TD*%
%TA.AperFunction,ViaPad*%
%ADD14C,0.906400*%
%TD*%
%TA.AperFunction,Conductor*%
%ADD15C,0.254000*%
%TD*%
%TA.AperFunction,Conductor*%
%ADD16C,0.406400*%
%TD*%
G04 APERTURE END LIST*
D10*
%TO.P,U$1,P$1*%
%TO.N,N/C*%
X140246100Y-94843600D03*
%TD*%
%TO.P,U$4,P$1*%
%TO.N,N/C*%
X156756100Y-115163600D03*
%TD*%
D11*
%TO.P,JP2,1*%
%TO.N,SQW*%
X151676100Y-115163600D03*
%TO.P,JP2,2*%
%TO.N,SCL*%
X149136100Y-115163600D03*
%TO.P,JP2,3*%
%TO.N,SDA*%
X146596100Y-115163600D03*
%TO.P,JP2,4*%
%TO.N,VCC*%
X144056100Y-115163600D03*
%TO.P,JP2,5*%
%TO.N,GND*%
X141516100Y-115163600D03*
%TD*%
D12*
%TO.P,SJ1,1*%
%TO.N,N$1*%
X140246100Y-111607600D03*
%TO.P,SJ1,2*%
%TO.N,VCC*%
X140246100Y-110083600D03*
D13*
%TO.P,SJ1,WIRE*%
%TO.N,N/C*%
X140246100Y-110845600D03*
%TD*%
D12*
%TO.P,SJ2,1*%
%TO.N,N$2*%
X140246100Y-106273600D03*
%TO.P,SJ2,2*%
%TO.N,VCC*%
X140246100Y-107797600D03*
D13*
%TO.P,SJ2,WIRE*%
%TO.N,N/C*%
X140246100Y-107035600D03*
%TD*%
D14*
%TO.N,VCC*%
X139611100Y-114274600D03*
%TO.N,SDA*%
X142659100Y-106019600D03*
%TO.N,SQW*%
X144945100Y-110591600D03*
%TO.N,N$1*%
X138849100Y-104368600D03*
%TO.N,N$2*%
X140500100Y-104495600D03*
%TD*%
D15*
%TO.N,VCC*%
X140246100Y-108940600D02*
X140246100Y-107797600D01*
X142024100Y-109448600D02*
X141516100Y-108940600D01*
D16*
X139611100Y-114274600D02*
X140246100Y-113639600D01*
D15*
X144056100Y-113512600D02*
X142024100Y-111480600D01*
X140246100Y-110083600D02*
X140246100Y-108940600D01*
D16*
X140246100Y-113639600D02*
X142786100Y-113639600D01*
X142786100Y-113639600D02*
X144056100Y-114909600D01*
D15*
X144056100Y-115163600D02*
X144056100Y-113512600D01*
D16*
X144056100Y-114909600D02*
X144056100Y-115163600D01*
D15*
X141516100Y-108940600D02*
X140246100Y-108940600D01*
X142024100Y-111480600D02*
X142024100Y-109448600D01*
%TO.N,SDA*%
X142659100Y-111226600D02*
X142659100Y-106019600D01*
X146596100Y-115163600D02*
X142659100Y-111226600D01*
%TO.N,SQW*%
X150787100Y-113639600D02*
X146596100Y-113639600D01*
X151676100Y-115163600D02*
X151676100Y-114528600D01*
X151676100Y-114528600D02*
X150787100Y-113639600D01*
X146596100Y-113639600D02*
X144945100Y-111988600D01*
X144945100Y-111988600D02*
X144945100Y-110591600D01*
%TO.N,N$1*%
X139484100Y-111607600D02*
X138849100Y-110972600D01*
X138849100Y-110972600D02*
X138849100Y-104368600D01*
X139484100Y-111607600D02*
X140246100Y-111607600D01*
%TO.N,N$2*%
X140246100Y-104749600D02*
X140500100Y-104495600D01*
X140246100Y-106273600D02*
X140246100Y-104749600D01*
%TD*%
M02*
