%TF.GenerationSoftware,KiCad,Pcbnew,7.0.6-7.0.6~ubuntu22.04.1*%
%TF.CreationDate,2023-08-05T07:45:47+01:00*%
%TF.ProjectId,working,776f726b-696e-4672-9e6b-696361645f70,rev?*%
%TF.SameCoordinates,Original*%
%TF.FileFunction,Copper,L1,Top*%
%TF.FilePolarity,Positive*%
%FSLAX46Y46*%
G04 Gerber Fmt 4.6, Leading zero omitted, Abs format (unit mm)*
G04 Created by KiCad (PCBNEW 7.0.6-7.0.6~ubuntu22.04.1) date 2023-08-05 07:45:47*
%MOMM*%
%LPD*%
G01*
G04 APERTURE LIST*
G04 Aperture macros list*
%AMRoundRect*
0 Rectangle with rounded corners*
0 $1 Rounding radius*
0 $2 $3 $4 $5 $6 $7 $8 $9 X,Y pos of 4 corners*
0 Add a 4 corners polygon primitive as box body*
4,1,4,$2,$3,$4,$5,$6,$7,$8,$9,$2,$3,0*
0 Add four circle primitives for the rounded corners*
1,1,$1+$1,$2,$3*
1,1,$1+$1,$4,$5*
1,1,$1+$1,$6,$7*
1,1,$1+$1,$8,$9*
0 Add four rect primitives between the rounded corners*
20,1,$1+$1,$2,$3,$4,$5,0*
20,1,$1+$1,$4,$5,$6,$7,0*
20,1,$1+$1,$6,$7,$8,$9,0*
20,1,$1+$1,$8,$9,$2,$3,0*%
G04 Aperture macros list end*
%TA.AperFunction,SMDPad,CuDef*%
%ADD10R,1.350000X0.800000*%
%TD*%
%TA.AperFunction,SMDPad,CuDef*%
%ADD11R,0.800000X0.800000*%
%TD*%
%TA.AperFunction,ComponentPad*%
%ADD12C,3.200000*%
%TD*%
%TA.AperFunction,SMDPad,CuDef*%
%ADD13R,0.500000X0.500000*%
%TD*%
%TA.AperFunction,SMDPad,CuDef*%
%ADD14R,0.500000X0.400000*%
%TD*%
%TA.AperFunction,SMDPad,CuDef*%
%ADD15R,0.900000X0.450000*%
%TD*%
%TA.AperFunction,SMDPad,CuDef*%
%ADD16R,0.450000X0.900000*%
%TD*%
%TA.AperFunction,SMDPad,CuDef*%
%ADD17R,1.550000X0.600000*%
%TD*%
%TA.AperFunction,SMDPad,CuDef*%
%ADD18R,1.800000X1.200000*%
%TD*%
%TA.AperFunction,ComponentPad*%
%ADD19C,1.778000*%
%TD*%
%TA.AperFunction,SMDPad,CuDef*%
%ADD20R,0.550000X1.200000*%
%TD*%
%TA.AperFunction,SMDPad,CuDef*%
%ADD21R,1.200000X1.300000*%
%TD*%
%TA.AperFunction,SMDPad,CuDef*%
%ADD22R,1.500000X1.240000*%
%TD*%
%TA.AperFunction,SMDPad,CuDef*%
%ADD23RoundRect,0.500000X0.000000X0.000000X0.000000X0.000000X0.000000X0.000000X0.000000X0.000000X0*%
%TD*%
%TA.AperFunction,SMDPad,CuDef*%
%ADD24R,0.500000X1.200000*%
%TD*%
%TA.AperFunction,SMDPad,CuDef*%
%ADD25R,1.200000X0.500000*%
%TD*%
%TA.AperFunction,SMDPad,CuDef*%
%ADD26R,1.075000X1.000000*%
%TD*%
%TA.AperFunction,ViaPad*%
%ADD27C,0.889000*%
%TD*%
%TA.AperFunction,Conductor*%
%ADD28C,0.304800*%
%TD*%
%TA.AperFunction,Conductor*%
%ADD29C,0.203200*%
%TD*%
%TA.AperFunction,Conductor*%
%ADD30C,0.254000*%
%TD*%
G04 APERTURE END LIST*
D10*
%TO.P,D2,A*%
%TO.N,CS_3V*%
X156756100Y-101193600D03*
%TO.P,D2,C*%
%TO.N,CS*%
X154216100Y-101193600D03*
%TD*%
D11*
%TO.P,D1,A*%
%TO.N,N$2*%
X140107100Y-101320600D03*
%TO.P,D1,C*%
%TO.N,GND*%
X138607100Y-101320600D03*
%TD*%
D12*
%TO.P,U$17,P$1*%
%TO.N,N/C*%
X158661100Y-98653600D03*
%TD*%
D13*
%TO.P,Q2,1*%
%TO.N,SCL_3V*%
X154481100Y-108547600D03*
D14*
%TO.P,Q2,2*%
%TO.N,3.3V*%
X154481100Y-107797600D03*
D13*
%TO.P,Q2,3*%
%TO.N,SDA/SDIO*%
X154481100Y-107047600D03*
%TO.P,Q2,4*%
%TO.N,SDA/SDIO_3V*%
X152681100Y-107047600D03*
D14*
%TO.P,Q2,5*%
%TO.N,3.3V*%
X152681100Y-107797600D03*
D13*
%TO.P,Q2,6*%
%TO.N,SCL*%
X152681100Y-108547600D03*
%TD*%
D15*
%TO.P,R3,1*%
%TO.N,VCC*%
X152667600Y-102878100D03*
%TO.P,R3,2*%
%TO.N,3.3V*%
X152667600Y-103778100D03*
%TO.P,R3,3*%
%TO.N,VCC*%
X152667600Y-104578100D03*
%TO.P,R3,4*%
%TO.N,3.3V*%
X152667600Y-105478100D03*
%TO.P,R3,5*%
%TO.N,SDA/SDIO_3V*%
X154367600Y-105478100D03*
%TO.P,R3,6*%
%TO.N,SDA/SDIO*%
X154367600Y-104578100D03*
%TO.P,R3,7*%
%TO.N,SCL_3V*%
X154367600Y-103778100D03*
%TO.P,R3,8*%
%TO.N,SCL*%
X154367600Y-102878100D03*
%TD*%
D16*
%TO.P,R1,1*%
%TO.N,3.3V*%
X143137100Y-102678600D03*
%TO.P,R1,2*%
X144037100Y-102678600D03*
%TO.P,R1,3*%
%TO.N,CS_3V*%
X144837100Y-102678600D03*
%TO.P,R1,4*%
%TO.N,GND*%
X145737100Y-102678600D03*
%TO.P,R1,5*%
%TO.N,SDO*%
X145737100Y-100978600D03*
%TO.P,R1,6*%
%TO.N,CS_3V*%
X144837100Y-100978600D03*
%TO.P,R1,7*%
X144037100Y-100978600D03*
%TO.P,R1,8*%
%TO.N,N$1*%
X143137100Y-100978600D03*
%TD*%
D17*
%TO.P,CONN3,1*%
%TO.N,GND*%
X156020100Y-106503600D03*
%TO.P,CONN3,2*%
%TO.N,VCC*%
X156020100Y-105503600D03*
%TO.P,CONN3,3*%
%TO.N,SDA/SDIO*%
X156020100Y-104503600D03*
%TO.P,CONN3,4*%
%TO.N,SCL*%
X156020100Y-103503600D03*
D18*
%TO.P,CONN3,MT1*%
%TO.N,GND*%
X159920100Y-107803600D03*
%TO.P,CONN3,MT2*%
X159920100Y-102203600D03*
%TD*%
D19*
%TO.P,JP2,1*%
%TO.N,GND*%
X144691100Y-98653600D03*
%TO.P,JP2,2*%
%TO.N,INT2*%
X147231100Y-98653600D03*
%TO.P,JP2,3*%
%TO.N,SDO*%
X149771100Y-98653600D03*
%TO.P,JP2,4*%
%TO.N,CS*%
X152311100Y-98653600D03*
%TD*%
D20*
%TO.P,U2,1*%
%TO.N,VCC*%
X142598100Y-106684700D03*
%TO.P,U2,2*%
%TO.N,GND*%
X143548100Y-106684700D03*
%TO.P,U2,3*%
%TO.N,VCC*%
X144498100Y-106684700D03*
%TO.P,U2,4*%
%TO.N,N/C*%
X144498100Y-104084500D03*
%TO.P,U2,5*%
%TO.N,3.3V*%
X142598100Y-104084500D03*
%TD*%
D17*
%TO.P,CONN4,1*%
%TO.N,GND*%
X140982100Y-103503600D03*
%TO.P,CONN4,2*%
%TO.N,VCC*%
X140982100Y-104503600D03*
%TO.P,CONN4,3*%
%TO.N,SDA/SDIO*%
X140982100Y-105503600D03*
%TO.P,CONN4,4*%
%TO.N,SCL*%
X140982100Y-106503600D03*
D18*
%TO.P,CONN4,MT1*%
%TO.N,GND*%
X137082100Y-102203600D03*
%TO.P,CONN4,MT2*%
X137082100Y-107803600D03*
%TD*%
D12*
%TO.P,U$19,P$1*%
%TO.N,N/C*%
X138341100Y-111353600D03*
%TD*%
%TO.P,U$21,P$1*%
%TO.N,N/C*%
X158661100Y-111353600D03*
%TD*%
D19*
%TO.P,JP1,1*%
%TO.N,VCC*%
X142151100Y-111353600D03*
%TO.P,JP1,2*%
%TO.N,3.3V*%
X144691100Y-111353600D03*
%TO.P,JP1,3*%
%TO.N,GND*%
X147231100Y-111353600D03*
%TO.P,JP1,4*%
%TO.N,SCL*%
X149771100Y-111353600D03*
%TO.P,JP1,5*%
%TO.N,SDA/SDIO*%
X152311100Y-111353600D03*
%TO.P,JP1,6*%
%TO.N,INT1*%
X154851100Y-111353600D03*
%TD*%
D21*
%TO.P,C2,1*%
%TO.N,VCC*%
X142151100Y-108369100D03*
%TO.P,C2,2*%
%TO.N,GND*%
X144183100Y-108369100D03*
%TD*%
D12*
%TO.P,U$1,P$1*%
%TO.N,N/C*%
X138341100Y-98653600D03*
%TD*%
D22*
%TO.P,C3,1*%
%TO.N,3.3V*%
X141643100Y-102270600D03*
%TO.P,C3,2*%
%TO.N,GND*%
X141643100Y-100370600D03*
%TD*%
D23*
%TO.P,FID3,1*%
%TO.N,N/C*%
X156057600Y-113068100D03*
%TD*%
D24*
%TO.P,U1,1*%
%TO.N,3.3V*%
X150501100Y-104157600D03*
%TO.P,U1,2*%
%TO.N,GND*%
X149701100Y-104157600D03*
%TO.P,U1,3*%
%TO.N,N/C*%
X148901100Y-104157600D03*
%TO.P,U1,4*%
%TO.N,GND*%
X148101100Y-104157600D03*
%TO.P,U1,5*%
X147301100Y-104157600D03*
%TO.P,U1,6*%
%TO.N,3.3V*%
X146501100Y-104157600D03*
D25*
%TO.P,U1,7*%
%TO.N,CS_3V*%
X146401100Y-105257600D03*
D24*
%TO.P,U1,8*%
%TO.N,INT1*%
X146501100Y-106357600D03*
%TO.P,U1,9*%
%TO.N,INT2*%
X147301100Y-106357600D03*
%TO.P,U1,10*%
%TO.N,N/C*%
X148101100Y-106357600D03*
%TO.P,U1,11*%
X148901100Y-106357600D03*
%TO.P,U1,12*%
%TO.N,SDO*%
X149701100Y-106357600D03*
%TO.P,U1,13*%
%TO.N,SDA/SDIO_3V*%
X150501100Y-106357600D03*
D25*
%TO.P,U1,14*%
%TO.N,SCL_3V*%
X150601100Y-105257600D03*
%TD*%
D26*
%TO.P,C1,1*%
%TO.N,3.3V*%
X147905100Y-102717600D03*
%TO.P,C1,2*%
%TO.N,GND*%
X149605100Y-102717600D03*
%TD*%
D23*
%TO.P,FID4,1*%
%TO.N,N/C*%
X137769600Y-105003600D03*
%TD*%
D27*
%TO.N,GND*%
X145516600Y-106654600D03*
X141198600Y-98971100D03*
X159804100Y-106400600D03*
X137198100Y-103606600D03*
X157454600Y-106781600D03*
X159804100Y-103606600D03*
X153581100Y-107035600D03*
X160248600Y-109194600D03*
X137198100Y-106400600D03*
%TO.N,SCL*%
X140881100Y-107670600D03*
X158343600Y-103670100D03*
%TO.N,SCL_3V*%
X152882600Y-101814900D03*
X155446303Y-108392804D03*
%TO.N,3.3V*%
X151422100Y-106146600D03*
X146659600Y-102717600D03*
X143575400Y-103987600D03*
X150279100Y-101574600D03*
X151549100Y-107797600D03*
%TO.N,VCC*%
X151783400Y-108940600D03*
X157505400Y-105638600D03*
X151824937Y-102104438D03*
%TO.N,N$1*%
X142405100Y-99034600D03*
%TO.N,INT1*%
X146469100Y-108940600D03*
%TO.N,INT2*%
X148223396Y-107694304D03*
%TO.N,SDO*%
X149426506Y-107681600D03*
%TO.N,N$2*%
X140245400Y-102463600D03*
%TD*%
D28*
%TO.N,GND*%
X143611600Y-106748200D02*
X143611600Y-107988100D01*
X149701100Y-104804707D02*
X149645500Y-104860307D01*
X154152600Y-106273600D02*
X155105100Y-106273600D01*
X149390100Y-105194100D02*
X148183600Y-105194100D01*
X149645500Y-104938700D02*
X149390100Y-105194100D01*
X149701100Y-104157600D02*
X149701100Y-104804707D01*
X155335100Y-106503600D02*
X156020100Y-106503600D01*
X143611600Y-107988100D02*
X143992600Y-108369100D01*
X153581100Y-107035600D02*
X153581100Y-106845100D01*
X143548100Y-106684700D02*
X143611600Y-106748200D01*
X148101100Y-105111600D02*
X148101100Y-104157600D01*
X149645500Y-104860307D02*
X149645500Y-104938700D01*
X154152600Y-106273600D02*
X153581100Y-106845100D01*
X148183600Y-105194100D02*
X148101100Y-105111600D01*
X155105100Y-106273600D02*
X155335100Y-106503600D01*
X143992600Y-108369100D02*
X144183100Y-108369100D01*
D29*
%TO.N,SCL*%
X155394600Y-102878100D02*
X154367600Y-102878100D01*
X156020100Y-103503600D02*
X155394600Y-102878100D01*
X140881100Y-107670600D02*
X140881100Y-106604600D01*
X152681100Y-109182600D02*
X150510100Y-111353600D01*
X152681100Y-108547600D02*
X152681100Y-109182600D01*
X140881100Y-106604600D02*
X140982100Y-106503600D01*
X150510100Y-111353600D02*
X149771100Y-111353600D01*
D30*
X156020100Y-103503600D02*
X158177100Y-103503600D01*
X158177100Y-103503600D02*
X158343600Y-103670100D01*
D29*
%TO.N,SCL_3V*%
X152197800Y-101320600D02*
X151549100Y-101320600D01*
X153517600Y-103479600D02*
X153517600Y-102527100D01*
X152882600Y-101814900D02*
X152692100Y-101814900D01*
X152692100Y-101814900D02*
X152197800Y-101320600D01*
X154367600Y-103778100D02*
X153816100Y-103778100D01*
D30*
X155291506Y-108547600D02*
X155446303Y-108392804D01*
D29*
X151055900Y-105257600D02*
X150601100Y-105257600D01*
X151549100Y-101320600D02*
X151055900Y-101813800D01*
X153816100Y-103778100D02*
X153517600Y-103479600D01*
X152882600Y-101814900D02*
X152882600Y-101892100D01*
X151055900Y-101813800D02*
X151055900Y-105257600D01*
X153517600Y-102527100D02*
X152882600Y-101892100D01*
D30*
X154481100Y-108547600D02*
X155291506Y-108547600D01*
%TO.N,3.3V*%
X143137100Y-102678600D02*
X142051100Y-102678600D01*
X150501100Y-104157600D02*
X150501100Y-101796600D01*
D28*
X153517600Y-104222600D02*
X153517600Y-105257600D01*
D30*
X146501100Y-104157600D02*
X146501100Y-103105600D01*
X150501100Y-101796600D02*
X150279100Y-101574600D01*
D28*
X152667600Y-103778100D02*
X153073100Y-103778100D01*
D30*
X154100100Y-107797600D02*
X153909600Y-107988100D01*
D28*
X153517600Y-104222600D02*
X153073100Y-103778100D01*
X153517600Y-105257600D02*
X153297100Y-105478100D01*
D30*
X152667600Y-105478100D02*
X152090600Y-105478100D01*
D28*
X153297100Y-105478100D02*
X152667600Y-105478100D01*
D30*
X143137100Y-103549300D02*
X143575400Y-103987600D01*
X147905100Y-102717600D02*
X146659600Y-102717600D01*
X146889100Y-102717600D02*
X146501100Y-103105600D01*
X146889100Y-102717600D02*
X147905100Y-102717600D01*
X154100100Y-107797600D02*
X154481100Y-107797600D01*
X143137100Y-103545500D02*
X143137100Y-103549300D01*
X142051100Y-102678600D02*
X141643100Y-102270600D01*
X153189100Y-107988100D02*
X152998600Y-107797600D01*
X143137100Y-102678600D02*
X143137100Y-103545500D01*
X144037100Y-102678600D02*
X143137100Y-102678600D01*
X153909600Y-107988100D02*
X153189100Y-107988100D01*
X152090600Y-105478100D02*
X151422100Y-106146600D01*
X151549100Y-107797600D02*
X152681100Y-107797600D01*
X152681100Y-107797600D02*
X152998600Y-107797600D01*
X142598100Y-104084500D02*
X143137100Y-103545500D01*
D28*
%TO.N,VCC*%
X151803100Y-103225600D02*
X151676100Y-103352600D01*
X142598100Y-107922100D02*
X142598100Y-106684700D01*
X144498100Y-106684700D02*
X144498100Y-105699600D01*
X151803100Y-102126275D02*
X151803100Y-103225600D01*
X142278100Y-111226600D02*
X142151100Y-111353600D01*
X156020100Y-105503600D02*
X157370400Y-105503600D01*
X142598100Y-106684700D02*
X142598100Y-105318600D01*
X141575806Y-104503600D02*
X140982100Y-104503600D01*
X152150600Y-102878100D02*
X151803100Y-103225600D01*
X152150600Y-102878100D02*
X152667600Y-102878100D01*
X142659100Y-105257600D02*
X142329806Y-105257600D01*
X152667600Y-104578100D02*
X152012600Y-104578100D01*
X142151100Y-108369100D02*
X142151100Y-109829600D01*
X152012600Y-104578100D02*
X151676100Y-104241600D01*
X150914100Y-109829600D02*
X151783400Y-108960300D01*
X144498100Y-105699600D02*
X144056100Y-105257600D01*
X142329806Y-105257600D02*
X141575806Y-104503600D01*
X151783400Y-108960300D02*
X151783400Y-108940600D01*
X151824937Y-102104438D02*
X151803100Y-102126275D01*
X142598100Y-105318600D02*
X142659100Y-105257600D01*
X142278100Y-109829600D02*
X142278100Y-111226600D01*
X142151100Y-108369100D02*
X142598100Y-107922100D01*
X157370400Y-105503600D02*
X157505400Y-105638600D01*
X144056100Y-105257600D02*
X142659100Y-105257600D01*
X151676100Y-104241600D02*
X151676100Y-103352600D01*
X142278100Y-109829600D02*
X150914100Y-109829600D01*
X142151100Y-109829600D02*
X142278100Y-109829600D01*
D30*
%TO.N,N$1*%
X143137100Y-99766600D02*
X142405100Y-99034600D01*
X143137100Y-100978600D02*
X143137100Y-99766600D01*
%TO.N,CS_3V*%
X143421100Y-97383600D02*
X143929100Y-96875600D01*
X143421100Y-99161600D02*
X143421100Y-97383600D01*
X144837100Y-102678600D02*
X144837100Y-100978600D01*
X144837100Y-100978600D02*
X144037100Y-100978600D01*
X146401100Y-105257600D02*
X146088100Y-105257600D01*
X145199100Y-103282575D02*
X145181900Y-103265375D01*
X145181900Y-103023400D02*
X144837100Y-102678600D01*
X145181900Y-103265375D02*
X145181900Y-103023400D01*
X156756100Y-100558600D02*
X156756100Y-101193600D01*
X145199100Y-104368600D02*
X145199100Y-103282575D01*
X146088100Y-105257600D02*
X145199100Y-104368600D01*
X144037100Y-100978600D02*
X144037100Y-99777600D01*
X144037100Y-99777600D02*
X143421100Y-99161600D01*
X143929100Y-96875600D02*
X153073100Y-96875600D01*
X153073100Y-96875600D02*
X156756100Y-100558600D01*
%TO.N,INT1*%
X146501100Y-106357600D02*
X146501100Y-108908600D01*
X146501100Y-108908600D02*
X146469100Y-108940600D01*
%TO.N,INT2*%
X148223396Y-107694304D02*
X147969396Y-107694304D01*
X147969396Y-107694304D02*
X147301100Y-107026007D01*
X147301100Y-106357600D02*
X147301100Y-107026007D01*
%TO.N,SDA/SDIO_3V*%
X150989600Y-106984100D02*
X150501100Y-106495600D01*
X152681100Y-107047600D02*
X152681100Y-106792600D01*
X152681100Y-107047600D02*
X152617600Y-106984100D01*
X150501100Y-106495600D02*
X150501100Y-106357600D01*
X153995600Y-105478100D02*
X154367600Y-105478100D01*
X152617600Y-106984100D02*
X150989600Y-106984100D01*
X152681100Y-106792600D02*
X153995600Y-105478100D01*
%TO.N,SDO*%
X145737100Y-100978600D02*
X146157100Y-100558600D01*
X147866100Y-100558600D02*
X149771100Y-98653600D01*
X149701100Y-106357600D02*
X149701100Y-107407007D01*
X146157100Y-100558600D02*
X147866100Y-100558600D01*
X149701100Y-107407007D02*
X149426506Y-107681600D01*
%TO.N,CS*%
X152311100Y-99288600D02*
X152311100Y-98653600D01*
X154216100Y-101193600D02*
X152311100Y-99288600D01*
%TO.N,SDA/SDIO*%
X155022125Y-107047600D02*
X155552825Y-107578300D01*
X155552825Y-107578300D02*
X156248100Y-107578300D01*
D29*
X154442100Y-104503600D02*
X156020100Y-104503600D01*
D30*
X154089100Y-109575600D02*
X152311100Y-111353600D01*
X157653100Y-104503600D02*
X156020100Y-104503600D01*
D29*
X140127100Y-105503600D02*
X139738100Y-105892600D01*
X139738100Y-107714275D02*
X140881100Y-108857275D01*
X141643100Y-112877600D02*
X150787100Y-112877600D01*
D30*
X155359100Y-109575600D02*
X154089100Y-109575600D01*
D29*
X154367600Y-104578100D02*
X154442100Y-104503600D01*
D30*
X156248100Y-107578300D02*
X156248100Y-108686600D01*
X156248100Y-108686600D02*
X155359100Y-109575600D01*
X156248100Y-107578300D02*
X157864400Y-107578300D01*
D29*
X139738100Y-105892600D02*
X139738100Y-107714275D01*
X150787100Y-112877600D02*
X152311100Y-111353600D01*
D30*
X157864400Y-107578300D02*
X158407100Y-107035600D01*
X158407100Y-105257600D02*
X157653100Y-104503600D01*
D29*
X140881100Y-112115600D02*
X141643100Y-112877600D01*
D30*
X154481100Y-107047600D02*
X155022125Y-107047600D01*
D29*
X140982100Y-105503600D02*
X140127100Y-105503600D01*
D30*
X158407100Y-107035600D02*
X158407100Y-105257600D01*
D29*
X140881100Y-108857275D02*
X140881100Y-112115600D01*
D30*
%TO.N,N$2*%
X140107100Y-101320600D02*
X140107100Y-102325300D01*
X140107100Y-102325300D02*
X140245400Y-102463600D01*
%TD*%
%TA.AperFunction,Conductor*%
%TO.N,GND*%
G36*
X144390803Y-110204006D02*
G01*
X144409109Y-110248200D01*
X144390803Y-110292394D01*
X144369188Y-110306478D01*
X144278986Y-110341422D01*
X144201956Y-110371264D01*
X144029775Y-110477874D01*
X143880124Y-110614301D01*
X143880122Y-110614303D01*
X143758088Y-110775903D01*
X143667823Y-110957179D01*
X143612404Y-111151953D01*
X143612402Y-111151964D01*
X143593719Y-111353595D01*
X143593719Y-111353604D01*
X143612402Y-111555235D01*
X143612404Y-111555246D01*
X143649152Y-111684398D01*
X143667823Y-111750020D01*
X143758088Y-111931297D01*
X143880126Y-112092901D01*
X143943714Y-112150869D01*
X144029775Y-112229325D01*
X144029776Y-112229326D01*
X144029780Y-112229329D01*
X144201955Y-112335935D01*
X144390787Y-112409089D01*
X144589846Y-112446300D01*
X144589849Y-112446300D01*
X144792351Y-112446300D01*
X144792354Y-112446300D01*
X144991413Y-112409089D01*
X145180245Y-112335935D01*
X145352420Y-112229329D01*
X145502074Y-112092901D01*
X145624112Y-111931297D01*
X145714377Y-111750020D01*
X145769796Y-111555243D01*
X145769797Y-111555235D01*
X145788481Y-111353604D01*
X145788481Y-111353595D01*
X145769797Y-111151964D01*
X145769795Y-111151953D01*
X145733048Y-111022802D01*
X145714377Y-110957180D01*
X145624112Y-110775903D01*
X145502074Y-110614299D01*
X145408190Y-110528712D01*
X145352424Y-110477874D01*
X145352421Y-110477872D01*
X145352420Y-110477871D01*
X145180245Y-110371265D01*
X145180243Y-110371264D01*
X145117656Y-110347018D01*
X145013012Y-110306478D01*
X144978416Y-110273445D01*
X144977311Y-110225623D01*
X145010346Y-110191025D01*
X145035591Y-110185700D01*
X146631459Y-110185700D01*
X146675653Y-110204006D01*
X146693959Y-110248200D01*
X146675653Y-110292394D01*
X146664361Y-110301338D01*
X146509079Y-110397484D01*
X146499070Y-110406609D01*
X147001324Y-110908862D01*
X146958000Y-110928648D01*
X146849339Y-111022802D01*
X146785177Y-111122638D01*
X146286865Y-110624326D01*
X146286864Y-110624326D01*
X146212449Y-110722869D01*
X146212445Y-110722875D01*
X146113895Y-110920791D01*
X146053389Y-111133444D01*
X146053387Y-111133455D01*
X146032989Y-111353595D01*
X146032989Y-111353604D01*
X146053387Y-111573744D01*
X146053389Y-111573755D01*
X146113895Y-111786408D01*
X146212447Y-111984327D01*
X146286865Y-112082872D01*
X146785177Y-111584559D01*
X146849339Y-111684398D01*
X146958000Y-111778552D01*
X147001322Y-111798336D01*
X146499069Y-112300589D01*
X146509077Y-112309713D01*
X146509081Y-112309715D01*
X146697052Y-112426103D01*
X146697054Y-112426104D01*
X146762660Y-112451520D01*
X146797258Y-112484555D01*
X146798363Y-112532377D01*
X146765328Y-112566975D01*
X146740083Y-112572300D01*
X141795447Y-112572300D01*
X141751253Y-112553994D01*
X141661269Y-112464010D01*
X141642963Y-112419816D01*
X141661269Y-112375622D01*
X141705463Y-112357316D01*
X141728036Y-112361535D01*
X141850787Y-112409089D01*
X141850791Y-112409089D01*
X141850792Y-112409090D01*
X141950316Y-112427694D01*
X142049846Y-112446300D01*
X142049849Y-112446300D01*
X142252351Y-112446300D01*
X142252354Y-112446300D01*
X142451413Y-112409089D01*
X142640245Y-112335935D01*
X142812420Y-112229329D01*
X142962074Y-112092901D01*
X143084112Y-111931297D01*
X143174377Y-111750020D01*
X143229796Y-111555243D01*
X143229797Y-111555235D01*
X143248481Y-111353604D01*
X143248481Y-111353595D01*
X143229797Y-111151964D01*
X143229795Y-111151953D01*
X143193048Y-111022802D01*
X143174377Y-110957180D01*
X143084112Y-110775903D01*
X142962074Y-110614299D01*
X142812420Y-110477871D01*
X142812421Y-110477871D01*
X142663798Y-110385847D01*
X142635860Y-110347018D01*
X142634200Y-110332709D01*
X142634200Y-110248200D01*
X142652506Y-110204006D01*
X142696700Y-110185700D01*
X144346609Y-110185700D01*
X144390803Y-110204006D01*
G37*
%TD.AperFunction*%
%TA.AperFunction,Conductor*%
G36*
X149470803Y-110204006D02*
G01*
X149489109Y-110248200D01*
X149470803Y-110292394D01*
X149449188Y-110306478D01*
X149358986Y-110341422D01*
X149281956Y-110371264D01*
X149109775Y-110477874D01*
X148960124Y-110614301D01*
X148960122Y-110614303D01*
X148838088Y-110775903D01*
X148747823Y-110957179D01*
X148692404Y-111151953D01*
X148692402Y-111151964D01*
X148673719Y-111353595D01*
X148673719Y-111353604D01*
X148692402Y-111555235D01*
X148692404Y-111555246D01*
X148729152Y-111684398D01*
X148747823Y-111750020D01*
X148838088Y-111931297D01*
X148960126Y-112092901D01*
X149023714Y-112150869D01*
X149109775Y-112229325D01*
X149109776Y-112229326D01*
X149109780Y-112229329D01*
X149281955Y-112335935D01*
X149470787Y-112409089D01*
X149669846Y-112446300D01*
X149669849Y-112446300D01*
X149872351Y-112446300D01*
X149872354Y-112446300D01*
X150071413Y-112409089D01*
X150260245Y-112335935D01*
X150432420Y-112229329D01*
X150582074Y-112092901D01*
X150704112Y-111931297D01*
X150794377Y-111750020D01*
X150849796Y-111555243D01*
X150858904Y-111456939D01*
X150876942Y-111418515D01*
X151119085Y-111176372D01*
X151163278Y-111158067D01*
X151207472Y-111176373D01*
X151225778Y-111220567D01*
X151225511Y-111226334D01*
X151213719Y-111353595D01*
X151213719Y-111353604D01*
X151232402Y-111555235D01*
X151232404Y-111555246D01*
X151287824Y-111750022D01*
X151332632Y-111840010D01*
X151335944Y-111887730D01*
X151320878Y-111912062D01*
X150678947Y-112553994D01*
X150634753Y-112572300D01*
X147722117Y-112572300D01*
X147677923Y-112553994D01*
X147659617Y-112509800D01*
X147677923Y-112465606D01*
X147699540Y-112451520D01*
X147765142Y-112426105D01*
X147953122Y-112309713D01*
X147953126Y-112309709D01*
X147963129Y-112300590D01*
X147460876Y-111798337D01*
X147504200Y-111778552D01*
X147612861Y-111684398D01*
X147677022Y-111584561D01*
X148175333Y-112082872D01*
X148249754Y-111984323D01*
X148348304Y-111786408D01*
X148408810Y-111573755D01*
X148408812Y-111573744D01*
X148429211Y-111353604D01*
X148429211Y-111353595D01*
X148408812Y-111133455D01*
X148408810Y-111133444D01*
X148348304Y-110920791D01*
X148249752Y-110722872D01*
X148175333Y-110624326D01*
X147677021Y-111122637D01*
X147612861Y-111022802D01*
X147504200Y-110928648D01*
X147460875Y-110908862D01*
X147963129Y-110406609D01*
X147953124Y-110397488D01*
X147797838Y-110301339D01*
X147769900Y-110262509D01*
X147777601Y-110215298D01*
X147816431Y-110187360D01*
X147830740Y-110185700D01*
X149426609Y-110185700D01*
X149470803Y-110204006D01*
G37*
%TD.AperFunction*%
%TA.AperFunction,Conductor*%
G36*
X145074509Y-104711689D02*
G01*
X145579094Y-105216274D01*
X145597400Y-105260467D01*
X145597400Y-105527663D01*
X145597399Y-105527663D01*
X145609219Y-105587080D01*
X145609219Y-105587081D01*
X145631123Y-105619862D01*
X145654240Y-105654460D01*
X145721620Y-105699481D01*
X145781036Y-105711300D01*
X145984900Y-105711300D01*
X146029094Y-105729606D01*
X146047400Y-105773800D01*
X146047400Y-106977663D01*
X146047399Y-106977663D01*
X146059219Y-107037080D01*
X146059219Y-107037081D01*
X146077785Y-107064867D01*
X146104240Y-107104460D01*
X146142623Y-107130105D01*
X146169199Y-107169877D01*
X146170400Y-107182072D01*
X146170400Y-108327534D01*
X146152094Y-108371728D01*
X146136947Y-108382874D01*
X146098175Y-108403223D01*
X146098173Y-108403225D01*
X145980353Y-108507605D01*
X145980349Y-108507609D01*
X145890933Y-108637150D01*
X145877657Y-108672156D01*
X145835113Y-108784336D01*
X145835112Y-108784338D01*
X145835112Y-108784340D01*
X145835111Y-108784343D01*
X145816139Y-108940596D01*
X145816139Y-108940603D01*
X145835111Y-109096856D01*
X145835112Y-109096859D01*
X145835113Y-109096864D01*
X145861318Y-109165960D01*
X145890933Y-109244049D01*
X145981665Y-109375496D01*
X145991705Y-109422266D01*
X145965733Y-109462436D01*
X145930229Y-109473500D01*
X142569700Y-109473500D01*
X142525506Y-109455194D01*
X142507200Y-109411000D01*
X142507200Y-109300154D01*
X143467005Y-109300154D01*
X143512291Y-109320150D01*
X143537711Y-109323099D01*
X144828488Y-109323099D01*
X144853907Y-109320150D01*
X144899193Y-109300154D01*
X144899194Y-109300154D01*
X144183100Y-108584060D01*
X143467005Y-109300154D01*
X142507200Y-109300154D01*
X142507200Y-109285300D01*
X142525506Y-109241106D01*
X142569700Y-109222800D01*
X142771163Y-109222800D01*
X142771164Y-109222800D01*
X142830580Y-109210981D01*
X142897960Y-109165960D01*
X142942981Y-109098580D01*
X142954800Y-109039164D01*
X142954800Y-107981075D01*
X142956130Y-107971946D01*
X142955711Y-107971894D01*
X142956350Y-107966762D01*
X142956352Y-107966756D01*
X142954800Y-107929237D01*
X142954800Y-107699036D01*
X142954799Y-107699035D01*
X142954351Y-107694477D01*
X142954200Y-107691411D01*
X142954200Y-107546609D01*
X142972506Y-107502415D01*
X143016700Y-107484109D01*
X143060894Y-107502415D01*
X143098321Y-107539842D01*
X143202294Y-107585751D01*
X143226065Y-107588509D01*
X143267855Y-107611787D01*
X143280946Y-107657794D01*
X143279100Y-107673708D01*
X143279100Y-109058139D01*
X143968140Y-108369100D01*
X144398060Y-108369100D01*
X145087098Y-109058139D01*
X145087099Y-109058139D01*
X145087099Y-107680059D01*
X145087098Y-107680059D01*
X144398060Y-108369099D01*
X144398060Y-108369100D01*
X143968140Y-108369100D01*
X144183100Y-108154140D01*
X144872570Y-107464668D01*
X144882037Y-107456898D01*
X144909289Y-107438689D01*
X144919956Y-107431563D01*
X144919956Y-107431562D01*
X144919960Y-107431560D01*
X144964981Y-107364180D01*
X144976800Y-107304764D01*
X144976800Y-106064636D01*
X144964981Y-106005220D01*
X144950170Y-105983054D01*
X144931117Y-105954538D01*
X144919960Y-105937840D01*
X144919959Y-105937839D01*
X144881976Y-105912459D01*
X144855401Y-105872685D01*
X144854200Y-105860493D01*
X144854200Y-105743012D01*
X144855530Y-105730186D01*
X144855758Y-105729097D01*
X144858815Y-105714519D01*
X144857526Y-105704181D01*
X144854788Y-105682210D01*
X144854439Y-105679418D01*
X144854200Y-105675551D01*
X144854200Y-105670097D01*
X144854200Y-105670092D01*
X144850553Y-105648238D01*
X144849683Y-105641257D01*
X144844116Y-105596590D01*
X144842638Y-105591627D01*
X144842753Y-105591592D01*
X144841356Y-105587234D01*
X144841244Y-105587273D01*
X144839563Y-105582376D01*
X144814782Y-105536585D01*
X144808554Y-105523845D01*
X144791919Y-105489817D01*
X144791918Y-105489816D01*
X144788910Y-105485603D01*
X144789006Y-105485533D01*
X144786273Y-105481867D01*
X144786179Y-105481941D01*
X144783001Y-105477859D01*
X144782999Y-105477854D01*
X144744697Y-105442595D01*
X144338599Y-105036498D01*
X144330470Y-105026487D01*
X144321717Y-105013088D01*
X144321714Y-105013086D01*
X144321714Y-105013085D01*
X144304927Y-105000019D01*
X144281297Y-104958431D01*
X144293995Y-104912312D01*
X144335586Y-104888680D01*
X144343317Y-104888200D01*
X144793163Y-104888200D01*
X144793164Y-104888200D01*
X144852580Y-104876381D01*
X144919960Y-104831360D01*
X144964981Y-104763980D01*
X144969017Y-104743688D01*
X144995590Y-104703917D01*
X145042506Y-104694583D01*
X145074509Y-104711689D01*
G37*
%TD.AperFunction*%
%TA.AperFunction,Conductor*%
G36*
X155046601Y-105870241D02*
G01*
X155052376Y-105881046D01*
X155053218Y-105883079D01*
X155057759Y-105889875D01*
X155067091Y-105936791D01*
X155049987Y-105968792D01*
X154989956Y-106028823D01*
X154944048Y-106132794D01*
X154941100Y-106158211D01*
X154941100Y-106576000D01*
X154922794Y-106620194D01*
X154878600Y-106638500D01*
X154843877Y-106627967D01*
X154810580Y-106605719D01*
X154751164Y-106593900D01*
X154211036Y-106593900D01*
X154181327Y-106599809D01*
X154151619Y-106605719D01*
X154151618Y-106605719D01*
X154084240Y-106650740D01*
X154039219Y-106718118D01*
X154039219Y-106718119D01*
X154027400Y-106777536D01*
X154027400Y-107317663D01*
X154027399Y-107317663D01*
X154039219Y-107377080D01*
X154043062Y-107382832D01*
X154052393Y-107429749D01*
X154025816Y-107469522D01*
X154001948Y-107479104D01*
X153985250Y-107482048D01*
X153985249Y-107482049D01*
X153979573Y-107485325D01*
X153964513Y-107491562D01*
X153958185Y-107493258D01*
X153923363Y-107517640D01*
X153921065Y-107519104D01*
X153884251Y-107540361D01*
X153884248Y-107540362D01*
X153856926Y-107572923D01*
X153855084Y-107574933D01*
X153818232Y-107611787D01*
X153790926Y-107639093D01*
X153746732Y-107657400D01*
X153351968Y-107657400D01*
X153307774Y-107639094D01*
X153280467Y-107611787D01*
X153243607Y-107574927D01*
X153241776Y-107572928D01*
X153214449Y-107540361D01*
X153177632Y-107519104D01*
X153175334Y-107517640D01*
X153140516Y-107493260D01*
X153140515Y-107493259D01*
X153140513Y-107493258D01*
X153135559Y-107490948D01*
X153136676Y-107488552D01*
X153106093Y-107465076D01*
X153099859Y-107417648D01*
X153108256Y-107399116D01*
X153122981Y-107377080D01*
X153134800Y-107317664D01*
X153134800Y-106832467D01*
X153153106Y-106788274D01*
X154016275Y-105925106D01*
X154060469Y-105906800D01*
X154837663Y-105906800D01*
X154837664Y-105906800D01*
X154897080Y-105894981D01*
X154959914Y-105852997D01*
X155006827Y-105843666D01*
X155046601Y-105870241D01*
G37*
%TD.AperFunction*%
%TA.AperFunction,Conductor*%
G36*
X158060682Y-106096148D02*
G01*
X158076400Y-106137593D01*
X158076400Y-106872731D01*
X158058094Y-106916925D01*
X157745726Y-107229294D01*
X157701532Y-107247600D01*
X155715693Y-107247600D01*
X155671499Y-107229294D01*
X155656498Y-107214293D01*
X155638192Y-107170099D01*
X155656498Y-107125905D01*
X155700692Y-107107599D01*
X156409139Y-107107599D01*
X156409139Y-107107598D01*
X155849334Y-106547793D01*
X155831028Y-106503599D01*
X155849334Y-106459405D01*
X155975906Y-106332834D01*
X156020100Y-106314528D01*
X156064294Y-106332834D01*
X156839059Y-107107599D01*
X156840488Y-107107599D01*
X156865907Y-107104650D01*
X156865908Y-107104650D01*
X156969878Y-107058742D01*
X157050242Y-106978378D01*
X157096151Y-106874405D01*
X157099099Y-106848988D01*
X157099099Y-106260796D01*
X157117405Y-106216602D01*
X157161599Y-106198296D01*
X157190641Y-106205454D01*
X157273857Y-106249129D01*
X157426694Y-106286800D01*
X157584106Y-106286800D01*
X157736943Y-106249129D01*
X157876324Y-106175976D01*
X157972455Y-106090810D01*
X158017674Y-106075207D01*
X158060682Y-106096148D01*
G37*
%TD.AperFunction*%
%TA.AperFunction,Conductor*%
G36*
X148618992Y-104958904D02*
G01*
X148631036Y-104961300D01*
X148631037Y-104961300D01*
X149171165Y-104961300D01*
X149171166Y-104961299D01*
X149183199Y-104958906D01*
X149230116Y-104968235D01*
X149239589Y-104976010D01*
X149276321Y-105012742D01*
X149380294Y-105058651D01*
X149405711Y-105061599D01*
X149734900Y-105061599D01*
X149779094Y-105079905D01*
X149797400Y-105124099D01*
X149797400Y-105491400D01*
X149779094Y-105535594D01*
X149734900Y-105553900D01*
X149431036Y-105553900D01*
X149401327Y-105559809D01*
X149371619Y-105565719D01*
X149335821Y-105589638D01*
X149288905Y-105598969D01*
X149266377Y-105589637D01*
X149230580Y-105565719D01*
X149171164Y-105553900D01*
X148631036Y-105553900D01*
X148601327Y-105559809D01*
X148571619Y-105565719D01*
X148535821Y-105589638D01*
X148488905Y-105598969D01*
X148466377Y-105589637D01*
X148430580Y-105565719D01*
X148371164Y-105553900D01*
X147831036Y-105553900D01*
X147801327Y-105559809D01*
X147771619Y-105565719D01*
X147735821Y-105589638D01*
X147688905Y-105598969D01*
X147666377Y-105589637D01*
X147630580Y-105565719D01*
X147571164Y-105553900D01*
X147571163Y-105553900D01*
X147267300Y-105553900D01*
X147223106Y-105535594D01*
X147204800Y-105491400D01*
X147204800Y-105124099D01*
X147223106Y-105079905D01*
X147267300Y-105061599D01*
X147596488Y-105061599D01*
X147621907Y-105058650D01*
X147621911Y-105058649D01*
X147675854Y-105034831D01*
X147723677Y-105033725D01*
X147726345Y-105034830D01*
X147780294Y-105058651D01*
X147805711Y-105061599D01*
X148396488Y-105061599D01*
X148421907Y-105058650D01*
X148421908Y-105058650D01*
X148525876Y-105012743D01*
X148562609Y-104976010D01*
X148606803Y-104957704D01*
X148618992Y-104958904D01*
G37*
%TD.AperFunction*%
%TA.AperFunction,Conductor*%
G36*
X158662042Y-96139157D02*
G01*
X158962316Y-96157320D01*
X158966031Y-96157771D01*
X159261005Y-96211827D01*
X159264663Y-96212729D01*
X159550944Y-96301938D01*
X159554475Y-96303276D01*
X159827930Y-96426348D01*
X159831267Y-96428101D01*
X160087886Y-96583232D01*
X160090978Y-96585366D01*
X160283593Y-96736270D01*
X160327035Y-96770305D01*
X160329853Y-96772801D01*
X160541897Y-96984845D01*
X160544394Y-96987664D01*
X160729331Y-97223717D01*
X160731469Y-97226816D01*
X160756819Y-97268749D01*
X160886598Y-97483432D01*
X160888354Y-97486776D01*
X161011422Y-97760223D01*
X161012761Y-97763755D01*
X161101970Y-98050036D01*
X161102874Y-98053703D01*
X161110975Y-98097909D01*
X161152188Y-98322802D01*
X161156925Y-98348648D01*
X161157380Y-98352397D01*
X161175543Y-98652657D01*
X161175600Y-98654544D01*
X161175600Y-101378291D01*
X161157294Y-101422485D01*
X161113100Y-101440791D01*
X161068906Y-101422485D01*
X160994880Y-101348459D01*
X160994873Y-101348454D01*
X160991635Y-101347024D01*
X160991634Y-101347024D01*
X160135060Y-102203599D01*
X160135060Y-102203600D01*
X160991634Y-103060174D01*
X160994877Y-103058743D01*
X160994881Y-103058740D01*
X161068906Y-102984715D01*
X161113100Y-102966409D01*
X161157294Y-102984715D01*
X161175600Y-103028909D01*
X161175600Y-106978291D01*
X161157294Y-107022485D01*
X161113100Y-107040791D01*
X161068906Y-107022485D01*
X160994880Y-106948459D01*
X160994873Y-106948454D01*
X160991634Y-106947024D01*
X160135060Y-107803599D01*
X160135060Y-107803600D01*
X160991634Y-108660174D01*
X160994877Y-108658743D01*
X160994881Y-108658740D01*
X161068906Y-108584715D01*
X161113100Y-108566409D01*
X161157294Y-108584715D01*
X161175600Y-108628909D01*
X161175600Y-111352654D01*
X161175543Y-111354541D01*
X161157380Y-111654802D01*
X161156925Y-111658551D01*
X161102874Y-111953496D01*
X161101970Y-111957163D01*
X161012761Y-112243444D01*
X161011422Y-112246976D01*
X160888354Y-112520423D01*
X160886598Y-112523767D01*
X160731472Y-112780379D01*
X160729327Y-112783487D01*
X160544394Y-113019535D01*
X160541890Y-113022362D01*
X160329862Y-113234390D01*
X160327035Y-113236894D01*
X160090987Y-113421827D01*
X160087879Y-113423972D01*
X159831267Y-113579098D01*
X159827923Y-113580854D01*
X159554476Y-113703922D01*
X159550944Y-113705261D01*
X159264663Y-113794470D01*
X159260996Y-113795374D01*
X159070471Y-113830289D01*
X158966047Y-113849425D01*
X158962302Y-113849880D01*
X158662042Y-113868043D01*
X158660155Y-113868100D01*
X156266314Y-113868100D01*
X156222120Y-113849794D01*
X156203814Y-113805600D01*
X156222120Y-113761406D01*
X156247719Y-113745930D01*
X156348529Y-113714517D01*
X156494772Y-113626109D01*
X156615609Y-113505272D01*
X156704017Y-113359029D01*
X156754857Y-113195877D01*
X156761300Y-113124973D01*
X156761299Y-113011228D01*
X156754857Y-112940323D01*
X156704017Y-112777171D01*
X156615609Y-112630928D01*
X156494772Y-112510091D01*
X156348529Y-112421683D01*
X156342538Y-112419816D01*
X156185381Y-112370844D01*
X156185380Y-112370843D01*
X156142834Y-112366977D01*
X156114473Y-112364400D01*
X156114471Y-112364400D01*
X156000730Y-112364400D01*
X155963191Y-112367811D01*
X155929823Y-112370843D01*
X155929820Y-112370844D01*
X155929819Y-112370844D01*
X155766670Y-112421683D01*
X155620427Y-112510091D01*
X155499591Y-112630927D01*
X155411183Y-112777170D01*
X155360344Y-112940318D01*
X155360343Y-112940319D01*
X155353900Y-113011228D01*
X155353900Y-113124969D01*
X155356128Y-113149488D01*
X155360343Y-113195877D01*
X155411183Y-113359029D01*
X155499591Y-113505272D01*
X155620428Y-113626109D01*
X155766671Y-113714517D01*
X155855562Y-113742216D01*
X155867479Y-113745930D01*
X155904226Y-113776555D01*
X155908555Y-113824194D01*
X155877930Y-113860941D01*
X155848885Y-113868100D01*
X138342045Y-113868100D01*
X138340158Y-113868043D01*
X138039897Y-113849880D01*
X138036154Y-113849425D01*
X137797004Y-113805600D01*
X137741203Y-113795374D01*
X137737536Y-113794470D01*
X137451255Y-113705261D01*
X137447723Y-113703922D01*
X137174276Y-113580854D01*
X137170932Y-113579098D01*
X137010935Y-113482377D01*
X136914316Y-113423969D01*
X136911217Y-113421831D01*
X136718604Y-113270927D01*
X136675164Y-113236894D01*
X136672345Y-113234397D01*
X136460301Y-113022353D01*
X136457805Y-113019535D01*
X136395742Y-112940318D01*
X136272866Y-112783478D01*
X136270732Y-112780386D01*
X136115601Y-112523767D01*
X136113848Y-112520430D01*
X135990776Y-112246975D01*
X135989438Y-112243444D01*
X135908694Y-111984327D01*
X135900228Y-111957160D01*
X135899327Y-111953505D01*
X135845271Y-111658531D01*
X135844820Y-111654816D01*
X135835107Y-111494231D01*
X136330011Y-111494231D01*
X136365959Y-111750022D01*
X136369154Y-111772750D01*
X136387945Y-111838280D01*
X136420982Y-111953496D01*
X136446680Y-112043113D01*
X136491548Y-112143889D01*
X136561079Y-112300058D01*
X136639842Y-112426104D01*
X136710122Y-112538575D01*
X136738421Y-112572300D01*
X136890910Y-112754030D01*
X136890914Y-112754035D01*
X137099923Y-112942227D01*
X137099922Y-112942227D01*
X137099924Y-112942228D01*
X137099926Y-112942230D01*
X137333100Y-113099507D01*
X137585893Y-113222803D01*
X137585895Y-113222803D01*
X137585898Y-113222805D01*
X137679243Y-113253134D01*
X137853385Y-113309716D01*
X138130371Y-113358556D01*
X138411457Y-113368372D01*
X138691175Y-113338972D01*
X138964078Y-113270930D01*
X139224856Y-113165569D01*
X139468433Y-113024940D01*
X139690067Y-112851780D01*
X139885446Y-112649460D01*
X140050765Y-112421917D01*
X140050890Y-112421683D01*
X140108892Y-112312596D01*
X140182808Y-112173581D01*
X140279004Y-111909285D01*
X140337480Y-111634173D01*
X140357100Y-111353600D01*
X140337480Y-111073027D01*
X140279004Y-110797915D01*
X140182808Y-110533619D01*
X140153166Y-110477871D01*
X140050769Y-110285289D01*
X140050767Y-110285286D01*
X140050412Y-110284798D01*
X139885446Y-110057740D01*
X139690067Y-109855420D01*
X139468433Y-109682260D01*
X139308038Y-109589656D01*
X139224857Y-109541631D01*
X139224855Y-109541630D01*
X138964085Y-109436272D01*
X138964079Y-109436270D01*
X138964078Y-109436270D01*
X138691175Y-109368228D01*
X138411457Y-109338828D01*
X138411456Y-109338828D01*
X138130379Y-109348643D01*
X138130363Y-109348645D01*
X137853390Y-109397483D01*
X137853381Y-109397485D01*
X137585898Y-109484394D01*
X137333105Y-109607690D01*
X137333096Y-109607695D01*
X137099922Y-109764972D01*
X136890914Y-109953164D01*
X136890910Y-109953169D01*
X136710123Y-110168623D01*
X136561079Y-110407141D01*
X136446679Y-110664089D01*
X136369153Y-110934453D01*
X136330011Y-111212968D01*
X136330011Y-111494231D01*
X135835107Y-111494231D01*
X135826657Y-111354541D01*
X135826600Y-111352654D01*
X135826600Y-108707598D01*
X136393059Y-108707598D01*
X136393060Y-108707599D01*
X137771139Y-108707599D01*
X137771139Y-108707598D01*
X137082100Y-108018560D01*
X136393059Y-108707598D01*
X135826600Y-108707598D01*
X135826600Y-108628908D01*
X135844906Y-108584714D01*
X135889100Y-108566408D01*
X135933294Y-108584714D01*
X136007322Y-108658743D01*
X136007328Y-108658747D01*
X136010561Y-108660174D01*
X136010564Y-108660174D01*
X136867139Y-107803600D01*
X137297060Y-107803600D01*
X138153634Y-108660174D01*
X138156877Y-108658743D01*
X138156881Y-108658740D01*
X138237242Y-108578378D01*
X138283151Y-108474405D01*
X138286099Y-108448988D01*
X138286099Y-107158211D01*
X138283150Y-107132792D01*
X138283150Y-107132791D01*
X138237242Y-107028821D01*
X138156880Y-106948459D01*
X138156873Y-106948454D01*
X138153635Y-106947024D01*
X138153634Y-106947024D01*
X137297060Y-107803599D01*
X137297060Y-107803600D01*
X136867139Y-107803600D01*
X136867140Y-107803599D01*
X136010564Y-106947023D01*
X136007320Y-106948457D01*
X135933294Y-107022484D01*
X135889100Y-107040790D01*
X135844906Y-107022484D01*
X135826600Y-106978290D01*
X135826600Y-106899600D01*
X136393059Y-106899600D01*
X137082099Y-107588640D01*
X137771139Y-106899600D01*
X136393059Y-106899600D01*
X135826600Y-106899600D01*
X135826600Y-105878255D01*
X139427842Y-105878255D01*
X139432500Y-105911641D01*
X139432800Y-105915963D01*
X139432800Y-107654277D01*
X139430956Y-107665583D01*
X139431290Y-107665630D01*
X139430489Y-107671367D01*
X139431769Y-107699036D01*
X139432767Y-107720624D01*
X139432800Y-107722040D01*
X139432800Y-107742562D01*
X139433706Y-107747414D01*
X139434204Y-107751712D01*
X139435761Y-107785383D01*
X139441577Y-107798555D01*
X139445837Y-107812311D01*
X139448484Y-107826471D01*
X139448485Y-107826472D01*
X139466229Y-107855129D01*
X139468250Y-107858962D01*
X139481863Y-107889796D01*
X139481866Y-107889800D01*
X139492047Y-107899981D01*
X139500990Y-107911271D01*
X139508572Y-107923515D01*
X139508573Y-107923517D01*
X139535473Y-107943831D01*
X139538741Y-107946675D01*
X140557494Y-108965428D01*
X140575800Y-109009622D01*
X140575800Y-112055602D01*
X140573956Y-112066908D01*
X140574290Y-112066955D01*
X140573489Y-112072692D01*
X140574908Y-112103359D01*
X140575767Y-112121949D01*
X140575800Y-112123365D01*
X140575800Y-112143887D01*
X140576706Y-112148739D01*
X140577204Y-112153037D01*
X140578761Y-112186708D01*
X140584577Y-112199880D01*
X140588837Y-112213636D01*
X140591484Y-112227796D01*
X140591485Y-112227797D01*
X140609229Y-112256454D01*
X140611250Y-112260287D01*
X140624863Y-112291121D01*
X140624866Y-112291125D01*
X140635047Y-112301306D01*
X140643990Y-112312596D01*
X140651572Y-112324840D01*
X140651573Y-112324842D01*
X140678473Y-112345156D01*
X140681741Y-112348000D01*
X141384795Y-113051054D01*
X141391485Y-113060351D01*
X141391754Y-113060149D01*
X141395243Y-113064769D01*
X141395244Y-113064770D01*
X141395245Y-113064771D01*
X141431699Y-113098003D01*
X141432701Y-113098960D01*
X141447224Y-113113483D01*
X141451288Y-113116267D01*
X141454681Y-113118954D01*
X141479595Y-113141667D01*
X141493022Y-113146868D01*
X141505767Y-113153586D01*
X141517647Y-113161724D01*
X141550459Y-113169441D01*
X141554591Y-113170720D01*
X141574510Y-113178437D01*
X141586029Y-113182900D01*
X141586030Y-113182900D01*
X141600430Y-113182900D01*
X141614737Y-113184559D01*
X141628757Y-113187857D01*
X141653468Y-113184410D01*
X141662145Y-113183200D01*
X141666468Y-113182900D01*
X150727101Y-113182900D01*
X150738405Y-113184744D01*
X150738452Y-113184410D01*
X150744190Y-113185210D01*
X150793449Y-113182932D01*
X150794865Y-113182900D01*
X150815387Y-113182900D01*
X150815389Y-113182900D01*
X150820238Y-113181993D01*
X150824526Y-113181495D01*
X150858209Y-113179938D01*
X150871376Y-113174123D01*
X150885145Y-113169860D01*
X150899297Y-113167215D01*
X150927969Y-113149460D01*
X150931770Y-113147456D01*
X150962625Y-113133834D01*
X150972806Y-113123651D01*
X150984095Y-113114709D01*
X150996342Y-113107127D01*
X151016660Y-113080219D01*
X151019494Y-113076963D01*
X151749147Y-112347310D01*
X151793340Y-112329005D01*
X151819183Y-112335088D01*
X151819260Y-112334891D01*
X151820676Y-112335439D01*
X151821217Y-112335567D01*
X151821946Y-112335929D01*
X151821955Y-112335935D01*
X152010787Y-112409089D01*
X152209846Y-112446300D01*
X152209849Y-112446300D01*
X152412351Y-112446300D01*
X152412354Y-112446300D01*
X152611413Y-112409089D01*
X152800245Y-112335935D01*
X152972420Y-112229329D01*
X153122074Y-112092901D01*
X153244112Y-111931297D01*
X153334377Y-111750020D01*
X153389796Y-111555243D01*
X153389797Y-111555235D01*
X153408481Y-111353604D01*
X153753719Y-111353604D01*
X153772402Y-111555235D01*
X153772404Y-111555246D01*
X153809152Y-111684398D01*
X153827823Y-111750020D01*
X153918088Y-111931297D01*
X154040126Y-112092901D01*
X154103714Y-112150869D01*
X154189775Y-112229325D01*
X154189776Y-112229326D01*
X154189780Y-112229329D01*
X154361955Y-112335935D01*
X154550787Y-112409089D01*
X154749846Y-112446300D01*
X154749849Y-112446300D01*
X154952351Y-112446300D01*
X154952354Y-112446300D01*
X155151413Y-112409089D01*
X155340245Y-112335935D01*
X155512420Y-112229329D01*
X155662074Y-112092901D01*
X155784112Y-111931297D01*
X155874377Y-111750020D01*
X155929796Y-111555243D01*
X155929797Y-111555235D01*
X155935450Y-111494231D01*
X156650011Y-111494231D01*
X156685959Y-111750022D01*
X156689154Y-111772750D01*
X156707945Y-111838280D01*
X156740982Y-111953496D01*
X156766680Y-112043113D01*
X156811548Y-112143889D01*
X156881079Y-112300058D01*
X156959842Y-112426104D01*
X157030122Y-112538575D01*
X157058421Y-112572300D01*
X157210910Y-112754030D01*
X157210914Y-112754035D01*
X157419923Y-112942227D01*
X157419922Y-112942227D01*
X157419924Y-112942228D01*
X157419926Y-112942230D01*
X157653100Y-113099507D01*
X157905893Y-113222803D01*
X157905895Y-113222803D01*
X157905898Y-113222805D01*
X157999243Y-113253134D01*
X158173385Y-113309716D01*
X158450371Y-113358556D01*
X158731457Y-113368372D01*
X159011175Y-113338972D01*
X159284078Y-113270930D01*
X159544856Y-113165569D01*
X159788433Y-113024940D01*
X160010067Y-112851780D01*
X160205446Y-112649460D01*
X160370765Y-112421917D01*
X160370890Y-112421683D01*
X160428892Y-112312596D01*
X160502808Y-112173581D01*
X160599004Y-111909285D01*
X160657480Y-111634173D01*
X160677100Y-111353600D01*
X160657480Y-111073027D01*
X160599004Y-110797915D01*
X160502808Y-110533619D01*
X160473166Y-110477871D01*
X160370769Y-110285289D01*
X160370767Y-110285286D01*
X160370412Y-110284798D01*
X160205446Y-110057740D01*
X160010067Y-109855420D01*
X159788433Y-109682260D01*
X159628038Y-109589656D01*
X159544857Y-109541631D01*
X159544855Y-109541630D01*
X159284085Y-109436272D01*
X159284079Y-109436270D01*
X159284078Y-109436270D01*
X159011175Y-109368228D01*
X158731457Y-109338828D01*
X158731456Y-109338828D01*
X158450379Y-109348643D01*
X158450363Y-109348645D01*
X158173390Y-109397483D01*
X158173381Y-109397485D01*
X157905898Y-109484394D01*
X157653105Y-109607690D01*
X157653096Y-109607695D01*
X157419922Y-109764972D01*
X157210914Y-109953164D01*
X157210910Y-109953169D01*
X157030123Y-110168623D01*
X156881079Y-110407141D01*
X156766679Y-110664089D01*
X156689153Y-110934453D01*
X156650011Y-111212968D01*
X156650011Y-111494231D01*
X155935450Y-111494231D01*
X155948481Y-111353604D01*
X155948481Y-111353595D01*
X155929797Y-111151964D01*
X155929795Y-111151953D01*
X155893048Y-111022802D01*
X155874377Y-110957180D01*
X155784112Y-110775903D01*
X155662074Y-110614299D01*
X155568190Y-110528712D01*
X155512424Y-110477874D01*
X155512421Y-110477872D01*
X155512420Y-110477871D01*
X155340245Y-110371265D01*
X155340243Y-110371264D01*
X155277656Y-110347018D01*
X155151413Y-110298111D01*
X155151410Y-110298110D01*
X155151409Y-110298110D01*
X154952358Y-110260900D01*
X154952354Y-110260900D01*
X154749846Y-110260900D01*
X154749841Y-110260900D01*
X154550790Y-110298110D01*
X154361956Y-110371264D01*
X154189775Y-110477874D01*
X154040124Y-110614301D01*
X154040122Y-110614303D01*
X153918088Y-110775903D01*
X153827823Y-110957179D01*
X153772404Y-111151953D01*
X153772402Y-111151964D01*
X153753719Y-111353595D01*
X153753719Y-111353604D01*
X153408481Y-111353604D01*
X153408481Y-111353595D01*
X153389797Y-111151964D01*
X153389795Y-111151953D01*
X153367337Y-111073022D01*
X153334377Y-110957180D01*
X153317113Y-110922509D01*
X153301508Y-110891169D01*
X153298196Y-110843449D01*
X153313260Y-110819119D01*
X154207774Y-109924606D01*
X154251969Y-109906300D01*
X155343294Y-109906300D01*
X155346015Y-109906418D01*
X155388367Y-109910124D01*
X155429443Y-109899116D01*
X155432059Y-109898536D01*
X155473951Y-109891151D01*
X155479619Y-109887878D01*
X155494697Y-109881633D01*
X155495774Y-109881344D01*
X155501016Y-109879940D01*
X155535839Y-109855555D01*
X155538128Y-109854097D01*
X155574949Y-109832839D01*
X155602287Y-109800256D01*
X155604097Y-109798281D01*
X156470781Y-108931597D01*
X156472756Y-108929787D01*
X156505339Y-108902449D01*
X156526599Y-108865624D01*
X156528055Y-108863339D01*
X156552440Y-108828516D01*
X156554132Y-108822197D01*
X156560379Y-108807117D01*
X156563650Y-108801452D01*
X156563651Y-108801451D01*
X156571036Y-108759559D01*
X156571616Y-108756943D01*
X156582624Y-108715867D01*
X156581900Y-108707598D01*
X159231059Y-108707598D01*
X159231060Y-108707599D01*
X160609139Y-108707599D01*
X160609139Y-108707598D01*
X159920100Y-108018560D01*
X159231059Y-108707598D01*
X156581900Y-108707598D01*
X156578918Y-108673514D01*
X156578800Y-108670793D01*
X156578800Y-107971500D01*
X156597106Y-107927306D01*
X156641300Y-107909000D01*
X157848594Y-107909000D01*
X157851315Y-107909118D01*
X157893667Y-107912824D01*
X157934743Y-107901816D01*
X157937359Y-107901236D01*
X157979251Y-107893851D01*
X157984919Y-107890578D01*
X157999997Y-107884333D01*
X158001074Y-107884044D01*
X158006316Y-107882640D01*
X158041139Y-107858255D01*
X158043428Y-107856797D01*
X158080249Y-107835539D01*
X158107586Y-107802959D01*
X158109397Y-107800981D01*
X158609407Y-107300972D01*
X158653600Y-107282667D01*
X158697794Y-107300973D01*
X158716100Y-107345167D01*
X158716100Y-108448988D01*
X158719049Y-108474407D01*
X158719049Y-108474408D01*
X158764957Y-108578378D01*
X158845322Y-108658743D01*
X158845328Y-108658747D01*
X158848561Y-108660174D01*
X158848564Y-108660174D01*
X159705140Y-107803599D01*
X158848564Y-106947023D01*
X158845320Y-106948457D01*
X158844494Y-106949284D01*
X158843532Y-106949682D01*
X158840545Y-106951729D01*
X158840113Y-106951098D01*
X158800300Y-106967590D01*
X158756106Y-106949284D01*
X158737800Y-106905090D01*
X158737800Y-106899600D01*
X159231059Y-106899600D01*
X159920099Y-107588640D01*
X160609139Y-106899600D01*
X159231059Y-106899600D01*
X158737800Y-106899600D01*
X158737800Y-105273405D01*
X158737919Y-105270680D01*
X158738286Y-105266492D01*
X158741624Y-105228333D01*
X158730620Y-105187269D01*
X158730034Y-105184629D01*
X158722651Y-105142749D01*
X158719378Y-105137081D01*
X158713133Y-105122002D01*
X158711440Y-105115685D01*
X158711441Y-105115685D01*
X158687052Y-105080855D01*
X158685587Y-105078554D01*
X158675798Y-105061599D01*
X158664339Y-105041751D01*
X158631763Y-105014416D01*
X158629753Y-105012573D01*
X157951533Y-104334353D01*
X157933227Y-104290159D01*
X157951533Y-104245965D01*
X157995727Y-104227659D01*
X158024770Y-104234817D01*
X158112057Y-104280629D01*
X158264894Y-104318300D01*
X158422306Y-104318300D01*
X158575143Y-104280629D01*
X158714524Y-104207476D01*
X158832348Y-104103093D01*
X158921768Y-103973546D01*
X158977587Y-103826364D01*
X158996561Y-103670100D01*
X158980464Y-103537534D01*
X158977588Y-103513843D01*
X158977587Y-103513840D01*
X158977587Y-103513836D01*
X158921768Y-103366654D01*
X158921766Y-103366652D01*
X158921766Y-103366650D01*
X158832350Y-103237109D01*
X158832346Y-103237105D01*
X158714523Y-103132723D01*
X158666651Y-103107598D01*
X159231059Y-103107598D01*
X159231060Y-103107599D01*
X160609139Y-103107599D01*
X160609139Y-103107598D01*
X159920100Y-102418560D01*
X159231059Y-103107598D01*
X158666651Y-103107598D01*
X158575144Y-103059571D01*
X158422309Y-103021900D01*
X158422306Y-103021900D01*
X158264894Y-103021900D01*
X158264890Y-103021900D01*
X158112055Y-103059571D01*
X157972675Y-103132723D01*
X157972673Y-103132725D01*
X157945070Y-103157181D01*
X157903624Y-103172900D01*
X157047976Y-103172900D01*
X157003782Y-103154594D01*
X156990316Y-103129400D01*
X156989336Y-103129807D01*
X156986981Y-103124122D01*
X156986981Y-103124120D01*
X156941960Y-103056740D01*
X156874580Y-103011719D01*
X156815164Y-102999900D01*
X156815163Y-102999900D01*
X155974048Y-102999900D01*
X155929854Y-102981594D01*
X155797248Y-102848988D01*
X158716100Y-102848988D01*
X158719049Y-102874407D01*
X158719049Y-102874408D01*
X158764957Y-102978378D01*
X158845322Y-103058743D01*
X158845328Y-103058747D01*
X158848561Y-103060174D01*
X158848564Y-103060174D01*
X159705140Y-102203599D01*
X158848564Y-101347023D01*
X158845320Y-101348457D01*
X158764957Y-101428821D01*
X158719048Y-101532794D01*
X158716100Y-101558211D01*
X158716100Y-102848988D01*
X155797248Y-102848988D01*
X155652905Y-102704646D01*
X155646216Y-102695349D01*
X155645947Y-102695553D01*
X155642455Y-102690929D01*
X155606020Y-102657714D01*
X155604996Y-102656737D01*
X155590476Y-102642217D01*
X155586684Y-102639619D01*
X155586410Y-102639431D01*
X155583016Y-102636742D01*
X155558106Y-102614034D01*
X155558104Y-102614033D01*
X155544673Y-102608829D01*
X155531933Y-102602114D01*
X155520053Y-102593976D01*
X155487236Y-102586257D01*
X155483097Y-102584975D01*
X155451671Y-102572800D01*
X155451670Y-102572800D01*
X155437271Y-102572800D01*
X155422963Y-102571140D01*
X155408944Y-102567843D01*
X155408943Y-102567843D01*
X155375558Y-102572500D01*
X155371236Y-102572800D01*
X155042340Y-102572800D01*
X154998146Y-102554494D01*
X154990373Y-102545023D01*
X154964460Y-102506240D01*
X154897080Y-102461219D01*
X154837664Y-102449400D01*
X153897536Y-102449400D01*
X153888105Y-102451275D01*
X153877586Y-102453368D01*
X153830670Y-102444034D01*
X153810936Y-102419410D01*
X153810264Y-102419827D01*
X153789472Y-102386246D01*
X153787452Y-102382414D01*
X153782294Y-102370733D01*
X153773835Y-102351575D01*
X153763649Y-102341389D01*
X153754705Y-102330098D01*
X153747127Y-102317858D01*
X153720230Y-102297546D01*
X153716961Y-102294701D01*
X153618575Y-102196315D01*
X153511292Y-102089033D01*
X153492987Y-102044840D01*
X153497047Y-102022684D01*
X153516587Y-101971164D01*
X153523577Y-101913600D01*
X153531024Y-101852267D01*
X153554523Y-101810601D01*
X153593068Y-101797300D01*
X154911163Y-101797300D01*
X154911164Y-101797300D01*
X154970580Y-101785481D01*
X155037960Y-101740460D01*
X155082981Y-101673080D01*
X155094800Y-101613664D01*
X155094800Y-100773536D01*
X155082981Y-100714120D01*
X155037960Y-100646740D01*
X154970580Y-100601719D01*
X154911164Y-100589900D01*
X154911163Y-100589900D01*
X154105968Y-100589900D01*
X154061774Y-100571594D01*
X153043336Y-99553156D01*
X153025030Y-99508962D01*
X153043336Y-99464768D01*
X153045383Y-99462812D01*
X153122074Y-99392901D01*
X153244112Y-99231297D01*
X153334377Y-99050020D01*
X153389796Y-98855243D01*
X153401403Y-98729985D01*
X153408481Y-98653604D01*
X153408481Y-98653595D01*
X153389797Y-98451964D01*
X153389795Y-98451953D01*
X153367337Y-98373022D01*
X153334377Y-98257180D01*
X153244112Y-98075903D01*
X153122074Y-97914299D01*
X153028190Y-97828712D01*
X152972424Y-97777874D01*
X152972421Y-97777872D01*
X152972420Y-97777871D01*
X152800245Y-97671265D01*
X152800243Y-97671264D01*
X152745358Y-97650001D01*
X152611413Y-97598111D01*
X152611410Y-97598110D01*
X152611409Y-97598110D01*
X152412358Y-97560900D01*
X152412354Y-97560900D01*
X152209846Y-97560900D01*
X152209841Y-97560900D01*
X152010790Y-97598110D01*
X151821956Y-97671264D01*
X151649775Y-97777874D01*
X151500124Y-97914301D01*
X151500122Y-97914303D01*
X151378088Y-98075903D01*
X151287823Y-98257179D01*
X151232404Y-98451953D01*
X151232402Y-98451964D01*
X151213719Y-98653595D01*
X151213719Y-98653604D01*
X151232402Y-98855235D01*
X151232404Y-98855246D01*
X151269152Y-98984398D01*
X151287823Y-99050020D01*
X151378088Y-99231297D01*
X151500126Y-99392901D01*
X151559031Y-99446600D01*
X151649775Y-99529325D01*
X151649776Y-99529326D01*
X151649780Y-99529329D01*
X151821955Y-99635935D01*
X152010787Y-99709089D01*
X152209846Y-99746300D01*
X152275232Y-99746300D01*
X152319426Y-99764606D01*
X153319094Y-100764274D01*
X153337400Y-100808467D01*
X153337400Y-101218157D01*
X153319094Y-101262351D01*
X153274900Y-101280657D01*
X153245855Y-101273498D01*
X153114143Y-101204371D01*
X153114146Y-101204371D01*
X152961309Y-101166700D01*
X152961306Y-101166700D01*
X152803894Y-101166700D01*
X152803890Y-101166700D01*
X152651058Y-101204370D01*
X152601453Y-101230404D01*
X152553813Y-101234732D01*
X152528215Y-101219256D01*
X152456105Y-101147146D01*
X152449416Y-101137849D01*
X152449147Y-101138053D01*
X152445655Y-101133429D01*
X152409219Y-101100213D01*
X152408195Y-101099236D01*
X152393676Y-101084717D01*
X152391888Y-101083492D01*
X152389610Y-101081931D01*
X152386216Y-101079242D01*
X152361306Y-101056534D01*
X152361304Y-101056533D01*
X152347873Y-101051329D01*
X152335133Y-101044614D01*
X152323253Y-101036476D01*
X152290436Y-101028757D01*
X152286297Y-101027475D01*
X152254871Y-101015300D01*
X152254870Y-101015300D01*
X152240471Y-101015300D01*
X152226163Y-101013640D01*
X152212144Y-101010343D01*
X152212143Y-101010343D01*
X152178758Y-101015000D01*
X152174436Y-101015300D01*
X151609099Y-101015300D01*
X151597794Y-101013455D01*
X151597748Y-101013790D01*
X151592009Y-101012989D01*
X151561843Y-101014384D01*
X151542750Y-101015267D01*
X151541335Y-101015300D01*
X151520809Y-101015300D01*
X151515963Y-101016205D01*
X151511662Y-101016704D01*
X151477993Y-101018261D01*
X151477989Y-101018262D01*
X151464818Y-101024077D01*
X151451067Y-101028336D01*
X151436903Y-101030985D01*
X151408241Y-101048731D01*
X151404410Y-101050750D01*
X151373574Y-101064366D01*
X151373572Y-101064367D01*
X151363387Y-101074552D01*
X151352100Y-101083492D01*
X151339858Y-101091072D01*
X151339856Y-101091074D01*
X151319543Y-101117972D01*
X151316699Y-101121241D01*
X151010729Y-101427210D01*
X150966535Y-101445516D01*
X150922341Y-101427210D01*
X150908098Y-101405183D01*
X150857268Y-101271154D01*
X150857266Y-101271152D01*
X150857266Y-101271150D01*
X150767850Y-101141609D01*
X150767846Y-101141605D01*
X150650023Y-101037223D01*
X150510644Y-100964071D01*
X150357809Y-100926400D01*
X150357806Y-100926400D01*
X150200394Y-100926400D01*
X150200390Y-100926400D01*
X150047555Y-100964071D01*
X149908176Y-101037223D01*
X149790353Y-101141605D01*
X149790349Y-101141609D01*
X149700933Y-101271150D01*
X149682180Y-101320599D01*
X149645113Y-101418336D01*
X149645112Y-101418338D01*
X149645112Y-101418340D01*
X149645111Y-101418343D01*
X149626139Y-101574596D01*
X149626139Y-101574603D01*
X149645111Y-101730856D01*
X149645112Y-101730863D01*
X149682307Y-101828938D01*
X149680862Y-101876751D01*
X149646030Y-101909539D01*
X149623868Y-101913600D01*
X149022210Y-101913600D01*
X149016700Y-101914239D01*
X149775866Y-102673405D01*
X149794172Y-102717599D01*
X149775866Y-102761793D01*
X149649294Y-102888365D01*
X149605100Y-102906671D01*
X149560906Y-102888365D01*
X148782716Y-102110175D01*
X148782715Y-102110176D01*
X148766549Y-102146791D01*
X148766548Y-102146794D01*
X148764349Y-102165743D01*
X148741070Y-102207532D01*
X148695060Y-102220620D01*
X148653271Y-102197341D01*
X148640967Y-102170731D01*
X148634481Y-102138120D01*
X148589460Y-102070740D01*
X148522080Y-102025719D01*
X148462664Y-102013900D01*
X147347536Y-102013900D01*
X147332108Y-102016969D01*
X147288119Y-102025719D01*
X147288118Y-102025719D01*
X147220740Y-102070740D01*
X147175719Y-102138118D01*
X147175719Y-102138119D01*
X147168087Y-102176484D01*
X147141510Y-102216257D01*
X147094593Y-102225588D01*
X147065343Y-102211071D01*
X147030523Y-102180223D01*
X146891144Y-102107071D01*
X146738309Y-102069400D01*
X146738306Y-102069400D01*
X146580894Y-102069400D01*
X146580890Y-102069400D01*
X146428055Y-102107071D01*
X146288676Y-102180223D01*
X146170853Y-102284605D01*
X146170849Y-102284609D01*
X146081433Y-102414150D01*
X146025613Y-102561336D01*
X146025613Y-102561337D01*
X146022171Y-102589679D01*
X146004321Y-102626337D01*
X145781293Y-102849365D01*
X145737099Y-102867671D01*
X145692905Y-102849365D01*
X145566333Y-102722793D01*
X145548027Y-102678599D01*
X145566333Y-102634405D01*
X146182079Y-102018658D01*
X146136878Y-101973457D01*
X146032905Y-101927548D01*
X146007488Y-101924600D01*
X145466711Y-101924600D01*
X145441292Y-101927549D01*
X145441291Y-101927549D01*
X145337321Y-101973457D01*
X145274494Y-102036285D01*
X145230300Y-102054591D01*
X145186106Y-102036285D01*
X145167800Y-101992091D01*
X145167800Y-101636368D01*
X145186106Y-101592174D01*
X145195575Y-101584402D01*
X145208960Y-101575460D01*
X145235134Y-101536286D01*
X145274904Y-101509712D01*
X145321821Y-101519043D01*
X145339066Y-101536288D01*
X145339067Y-101536289D01*
X145365240Y-101575460D01*
X145432620Y-101620481D01*
X145492036Y-101632300D01*
X145492037Y-101632300D01*
X145982163Y-101632300D01*
X145982164Y-101632300D01*
X146041580Y-101620481D01*
X146108960Y-101575460D01*
X146153981Y-101508080D01*
X146165800Y-101448664D01*
X146165800Y-101043468D01*
X146184106Y-100999274D01*
X146275775Y-100907606D01*
X146319969Y-100889300D01*
X147850294Y-100889300D01*
X147853015Y-100889418D01*
X147895367Y-100893124D01*
X147936443Y-100882116D01*
X147939059Y-100881536D01*
X147980951Y-100874151D01*
X147986619Y-100870878D01*
X148001697Y-100864633D01*
X148002774Y-100864344D01*
X148008016Y-100862940D01*
X148042839Y-100838555D01*
X148045128Y-100837097D01*
X148081949Y-100815839D01*
X148109287Y-100783256D01*
X148111097Y-100781281D01*
X149234771Y-99657607D01*
X149278964Y-99639302D01*
X149301536Y-99643521D01*
X149470787Y-99709089D01*
X149470791Y-99709089D01*
X149470792Y-99709090D01*
X149570316Y-99727694D01*
X149669846Y-99746300D01*
X149669849Y-99746300D01*
X149872351Y-99746300D01*
X149872354Y-99746300D01*
X150071413Y-99709089D01*
X150260245Y-99635935D01*
X150432420Y-99529329D01*
X150582074Y-99392901D01*
X150704112Y-99231297D01*
X150794377Y-99050020D01*
X150849796Y-98855243D01*
X150861403Y-98729985D01*
X150868481Y-98653604D01*
X150868481Y-98653595D01*
X150849797Y-98451964D01*
X150849795Y-98451953D01*
X150827337Y-98373022D01*
X150794377Y-98257180D01*
X150704112Y-98075903D01*
X150582074Y-97914299D01*
X150488190Y-97828712D01*
X150432424Y-97777874D01*
X150432421Y-97777872D01*
X150432420Y-97777871D01*
X150260245Y-97671265D01*
X150260243Y-97671264D01*
X150205358Y-97650001D01*
X150071413Y-97598111D01*
X150071410Y-97598110D01*
X150071409Y-97598110D01*
X149872358Y-97560900D01*
X149872354Y-97560900D01*
X149669846Y-97560900D01*
X149669841Y-97560900D01*
X149470790Y-97598110D01*
X149281956Y-97671264D01*
X149109775Y-97777874D01*
X148960124Y-97914301D01*
X148960122Y-97914303D01*
X148838088Y-98075903D01*
X148747823Y-98257179D01*
X148692404Y-98451953D01*
X148692402Y-98451964D01*
X148673719Y-98653595D01*
X148673719Y-98653604D01*
X148692402Y-98855235D01*
X148692404Y-98855246D01*
X148729152Y-98984398D01*
X148743436Y-99034603D01*
X148747824Y-99050022D01*
X148780691Y-99116029D01*
X148784003Y-99163749D01*
X148768937Y-99188081D01*
X147747426Y-100209594D01*
X147703232Y-100227900D01*
X146172906Y-100227900D01*
X146170184Y-100227781D01*
X146164481Y-100227282D01*
X146127833Y-100224075D01*
X146086774Y-100235076D01*
X146084113Y-100235667D01*
X146042249Y-100243048D01*
X146042249Y-100243049D01*
X146036573Y-100246325D01*
X146021513Y-100252562D01*
X146015185Y-100254258D01*
X145980363Y-100278640D01*
X145978065Y-100280104D01*
X145941251Y-100301361D01*
X145941249Y-100301362D01*
X145940232Y-100302575D01*
X145939105Y-100303161D01*
X145937062Y-100304876D01*
X145936681Y-100304422D01*
X145897801Y-100324662D01*
X145892355Y-100324900D01*
X145492036Y-100324900D01*
X145462327Y-100330809D01*
X145432619Y-100336719D01*
X145432618Y-100336719D01*
X145365239Y-100381740D01*
X145339065Y-100420912D01*
X145299291Y-100447487D01*
X145252375Y-100438154D01*
X145235132Y-100420910D01*
X145208960Y-100381740D01*
X145141580Y-100336719D01*
X145141579Y-100336718D01*
X145082164Y-100324900D01*
X144592036Y-100324900D01*
X144562327Y-100330809D01*
X144532619Y-100336719D01*
X144532618Y-100336719D01*
X144471823Y-100377341D01*
X144424906Y-100386673D01*
X144402380Y-100377343D01*
X144395580Y-100372800D01*
X144369002Y-100333028D01*
X144367800Y-100320831D01*
X144367800Y-99882095D01*
X144386106Y-99837901D01*
X144430300Y-99819595D01*
X144441785Y-99820659D01*
X144580549Y-99846599D01*
X144580555Y-99846600D01*
X144801645Y-99846600D01*
X144801652Y-99846599D01*
X145018975Y-99805974D01*
X145225142Y-99726105D01*
X145413122Y-99609713D01*
X145413126Y-99609709D01*
X145423129Y-99600590D01*
X144920876Y-99098337D01*
X144964200Y-99078552D01*
X145072861Y-98984398D01*
X145137022Y-98884561D01*
X145635333Y-99382872D01*
X145709754Y-99284323D01*
X145808304Y-99086408D01*
X145868810Y-98873755D01*
X145868812Y-98873744D01*
X145889211Y-98653604D01*
X146133719Y-98653604D01*
X146152402Y-98855235D01*
X146152404Y-98855246D01*
X146189152Y-98984398D01*
X146207823Y-99050020D01*
X146298088Y-99231297D01*
X146420126Y-99392901D01*
X146479031Y-99446600D01*
X146569775Y-99529325D01*
X146569776Y-99529326D01*
X146569780Y-99529329D01*
X146741955Y-99635935D01*
X146930787Y-99709089D01*
X147129846Y-99746300D01*
X147129849Y-99746300D01*
X147332351Y-99746300D01*
X147332354Y-99746300D01*
X147531413Y-99709089D01*
X147720245Y-99635935D01*
X147892420Y-99529329D01*
X148042074Y-99392901D01*
X148164112Y-99231297D01*
X148254377Y-99050020D01*
X148309796Y-98855243D01*
X148321403Y-98729985D01*
X148328481Y-98653604D01*
X148328481Y-98653595D01*
X148309797Y-98451964D01*
X148309795Y-98451953D01*
X148287337Y-98373022D01*
X148254377Y-98257180D01*
X148164112Y-98075903D01*
X148042074Y-97914299D01*
X147948190Y-97828712D01*
X147892424Y-97777874D01*
X147892421Y-97777872D01*
X147892420Y-97777871D01*
X147720245Y-97671265D01*
X147720243Y-97671264D01*
X147665358Y-97650001D01*
X147531413Y-97598111D01*
X147531410Y-97598110D01*
X147531409Y-97598110D01*
X147332358Y-97560900D01*
X147332354Y-97560900D01*
X147129846Y-97560900D01*
X147129841Y-97560900D01*
X146930790Y-97598110D01*
X146741956Y-97671264D01*
X146569775Y-97777874D01*
X146420124Y-97914301D01*
X146420122Y-97914303D01*
X146298088Y-98075903D01*
X146207823Y-98257179D01*
X146152404Y-98451953D01*
X146152402Y-98451964D01*
X146133719Y-98653595D01*
X146133719Y-98653604D01*
X145889211Y-98653604D01*
X145889211Y-98653595D01*
X145868812Y-98433455D01*
X145868810Y-98433444D01*
X145808304Y-98220791D01*
X145709752Y-98022872D01*
X145635333Y-97924326D01*
X145137021Y-98422637D01*
X145072861Y-98322802D01*
X144964200Y-98228648D01*
X144920876Y-98208862D01*
X145423129Y-97706609D01*
X145413122Y-97697486D01*
X145413118Y-97697484D01*
X145225147Y-97581096D01*
X145225145Y-97581095D01*
X145018975Y-97501225D01*
X144801652Y-97460600D01*
X144580547Y-97460600D01*
X144363224Y-97501225D01*
X144157057Y-97581094D01*
X143969076Y-97697487D01*
X143959070Y-97706609D01*
X144461323Y-98208862D01*
X144418000Y-98228648D01*
X144309339Y-98322802D01*
X144245178Y-98422638D01*
X143770106Y-97947565D01*
X143751800Y-97903371D01*
X143751800Y-97546468D01*
X143770106Y-97502274D01*
X144047774Y-97224606D01*
X144091968Y-97206300D01*
X152910232Y-97206300D01*
X152954426Y-97224606D01*
X156213025Y-100483206D01*
X156231331Y-100527400D01*
X156213025Y-100571594D01*
X156168831Y-100589900D01*
X156061036Y-100589900D01*
X156034010Y-100595276D01*
X156001619Y-100601719D01*
X156001618Y-100601719D01*
X155934240Y-100646740D01*
X155889219Y-100714118D01*
X155889219Y-100714119D01*
X155877400Y-100773536D01*
X155877400Y-101613663D01*
X155877399Y-101613663D01*
X155889219Y-101673080D01*
X155889219Y-101673081D01*
X155911729Y-101706769D01*
X155934240Y-101740460D01*
X156001620Y-101785481D01*
X156061036Y-101797300D01*
X156061037Y-101797300D01*
X157451163Y-101797300D01*
X157451164Y-101797300D01*
X157510580Y-101785481D01*
X157577960Y-101740460D01*
X157622981Y-101673080D01*
X157634800Y-101613664D01*
X157634800Y-101299600D01*
X159231059Y-101299600D01*
X159920099Y-101988640D01*
X160609139Y-101299600D01*
X159231059Y-101299600D01*
X157634800Y-101299600D01*
X157634800Y-100773536D01*
X157622981Y-100714120D01*
X157577960Y-100646740D01*
X157510580Y-100601719D01*
X157451164Y-100589900D01*
X157451163Y-100589900D01*
X157153194Y-100589900D01*
X157109000Y-100571594D01*
X157090932Y-100532854D01*
X157090623Y-100529338D01*
X157090624Y-100529333D01*
X157079620Y-100488269D01*
X157079034Y-100485629D01*
X157071651Y-100443749D01*
X157068378Y-100438081D01*
X157062133Y-100423002D01*
X157060440Y-100416684D01*
X157036054Y-100381856D01*
X157034596Y-100379569D01*
X157013339Y-100342751D01*
X157006150Y-100336719D01*
X156980776Y-100315427D01*
X156978765Y-100313584D01*
X155459412Y-98794231D01*
X156650011Y-98794231D01*
X156685959Y-99050022D01*
X156689154Y-99072750D01*
X156723023Y-99190864D01*
X156766679Y-99343110D01*
X156881079Y-99600058D01*
X157030123Y-99838576D01*
X157210910Y-100054030D01*
X157210914Y-100054035D01*
X157419923Y-100242227D01*
X157419922Y-100242227D01*
X157419924Y-100242228D01*
X157419926Y-100242230D01*
X157653100Y-100399507D01*
X157905893Y-100522803D01*
X157905895Y-100522803D01*
X157905898Y-100522805D01*
X157981761Y-100547454D01*
X158173385Y-100609716D01*
X158450371Y-100658556D01*
X158731457Y-100668372D01*
X159011175Y-100638972D01*
X159284078Y-100570930D01*
X159544856Y-100465569D01*
X159788433Y-100324940D01*
X160010067Y-100151780D01*
X160205446Y-99949460D01*
X160370765Y-99721917D01*
X160502808Y-99473581D01*
X160599004Y-99209285D01*
X160657480Y-98934173D01*
X160677100Y-98653600D01*
X160657480Y-98373027D01*
X160599004Y-98097915D01*
X160502808Y-97833619D01*
X160463783Y-97760223D01*
X160370769Y-97585289D01*
X160370767Y-97585286D01*
X160367721Y-97581094D01*
X160205446Y-97357740D01*
X160202156Y-97354333D01*
X160010068Y-97155421D01*
X159989749Y-97139546D01*
X159788433Y-96982260D01*
X159659274Y-96907690D01*
X159544857Y-96841631D01*
X159544855Y-96841630D01*
X159284085Y-96736272D01*
X159284079Y-96736270D01*
X159284078Y-96736270D01*
X159011175Y-96668228D01*
X158731457Y-96638828D01*
X158731456Y-96638828D01*
X158450379Y-96648643D01*
X158450363Y-96648645D01*
X158173390Y-96697483D01*
X158173381Y-96697485D01*
X157905898Y-96784394D01*
X157653105Y-96907690D01*
X157653096Y-96907695D01*
X157419922Y-97064972D01*
X157210914Y-97253164D01*
X157210910Y-97253169D01*
X157030123Y-97468623D01*
X156881079Y-97707141D01*
X156766679Y-97964089D01*
X156689153Y-98234453D01*
X156650011Y-98512968D01*
X156650011Y-98794231D01*
X155459412Y-98794231D01*
X153318120Y-96652940D01*
X153316277Y-96650929D01*
X153288949Y-96618361D01*
X153252132Y-96597104D01*
X153249841Y-96595645D01*
X153215016Y-96571260D01*
X153215015Y-96571259D01*
X153215014Y-96571259D01*
X153208692Y-96569565D01*
X153193618Y-96563321D01*
X153187950Y-96560048D01*
X153146074Y-96552665D01*
X153143419Y-96552075D01*
X153129632Y-96548381D01*
X153102366Y-96541075D01*
X153065317Y-96544317D01*
X153060015Y-96544781D01*
X153057294Y-96544900D01*
X143944895Y-96544900D01*
X143942173Y-96544781D01*
X143936509Y-96544285D01*
X143899833Y-96541076D01*
X143858771Y-96552078D01*
X143856119Y-96552665D01*
X143843663Y-96554862D01*
X143814249Y-96560048D01*
X143814248Y-96560048D01*
X143808575Y-96563324D01*
X143793509Y-96569564D01*
X143787186Y-96571258D01*
X143752362Y-96595641D01*
X143750063Y-96597106D01*
X143713252Y-96618360D01*
X143713251Y-96618361D01*
X143690805Y-96645108D01*
X143685921Y-96650930D01*
X143684079Y-96652939D01*
X143198439Y-97138579D01*
X143196429Y-97140421D01*
X143163860Y-97167751D01*
X143142608Y-97204558D01*
X143141144Y-97206856D01*
X143116758Y-97241686D01*
X143115063Y-97248012D01*
X143108825Y-97263073D01*
X143105549Y-97268747D01*
X143105548Y-97268749D01*
X143098167Y-97310613D01*
X143097576Y-97313274D01*
X143086575Y-97354333D01*
X143090281Y-97396680D01*
X143090400Y-97399405D01*
X143090400Y-98685791D01*
X143072094Y-98729985D01*
X143027900Y-98748291D01*
X142983706Y-98729985D01*
X142976464Y-98721295D01*
X142893850Y-98601609D01*
X142893846Y-98601605D01*
X142776023Y-98497223D01*
X142636644Y-98424071D01*
X142483809Y-98386400D01*
X142483806Y-98386400D01*
X142326394Y-98386400D01*
X142326390Y-98386400D01*
X142173555Y-98424071D01*
X142034176Y-98497223D01*
X141916353Y-98601605D01*
X141916349Y-98601609D01*
X141826933Y-98731150D01*
X141803011Y-98794229D01*
X141771113Y-98878336D01*
X141771112Y-98878338D01*
X141771112Y-98878340D01*
X141771111Y-98878343D01*
X141752139Y-99034596D01*
X141752139Y-99034603D01*
X141771111Y-99190856D01*
X141771112Y-99190859D01*
X141771113Y-99190864D01*
X141826932Y-99338046D01*
X141826933Y-99338048D01*
X141834214Y-99348597D01*
X141844253Y-99395367D01*
X141818280Y-99435537D01*
X141782777Y-99446600D01*
X140934060Y-99446600D01*
X142657330Y-101169870D01*
X142681220Y-101174910D01*
X142707336Y-101214988D01*
X142708400Y-101226473D01*
X142708400Y-101448663D01*
X142708399Y-101448663D01*
X142720219Y-101508080D01*
X142720219Y-101508081D01*
X142738580Y-101535560D01*
X142765240Y-101575460D01*
X142832620Y-101620481D01*
X142892036Y-101632300D01*
X142892037Y-101632300D01*
X143382163Y-101632300D01*
X143382164Y-101632300D01*
X143441580Y-101620481D01*
X143508960Y-101575460D01*
X143535134Y-101536286D01*
X143574904Y-101509712D01*
X143621821Y-101519043D01*
X143639066Y-101536288D01*
X143639067Y-101536289D01*
X143665240Y-101575460D01*
X143732620Y-101620481D01*
X143792036Y-101632300D01*
X143792037Y-101632300D01*
X144282163Y-101632300D01*
X144282164Y-101632300D01*
X144341580Y-101620481D01*
X144402378Y-101579857D01*
X144449293Y-101570526D01*
X144471818Y-101579855D01*
X144478621Y-101584400D01*
X144505198Y-101624171D01*
X144506400Y-101636368D01*
X144506400Y-102020831D01*
X144488094Y-102065025D01*
X144478616Y-102072802D01*
X144471815Y-102077345D01*
X144424898Y-102086671D01*
X144402376Y-102077341D01*
X144390491Y-102069400D01*
X144341580Y-102036719D01*
X144282164Y-102024900D01*
X143792036Y-102024900D01*
X143763346Y-102030607D01*
X143732619Y-102036719D01*
X143732618Y-102036719D01*
X143665240Y-102081740D01*
X143639067Y-102120911D01*
X143599293Y-102147487D01*
X143552377Y-102138155D01*
X143535133Y-102120911D01*
X143525885Y-102107071D01*
X143508960Y-102081740D01*
X143441580Y-102036719D01*
X143382164Y-102024900D01*
X142892036Y-102024900D01*
X142863346Y-102030607D01*
X142832619Y-102036719D01*
X142832618Y-102036719D01*
X142765240Y-102081740D01*
X142720219Y-102149118D01*
X142717864Y-102154806D01*
X142716030Y-102154046D01*
X142694022Y-102186984D01*
X142647106Y-102196315D01*
X142607332Y-102169738D01*
X142596800Y-102135016D01*
X142596800Y-101630536D01*
X142593444Y-101613664D01*
X142584981Y-101571120D01*
X142539960Y-101503740D01*
X142472580Y-101458719D01*
X142413164Y-101446900D01*
X140873036Y-101446900D01*
X140843328Y-101452809D01*
X140813619Y-101458719D01*
X140813616Y-101458720D01*
X140808021Y-101462459D01*
X140761105Y-101471790D01*
X140721332Y-101445212D01*
X140710800Y-101410491D01*
X140710800Y-101338339D01*
X140729106Y-101294145D01*
X140773300Y-101275839D01*
X140798546Y-101281165D01*
X140822293Y-101291650D01*
X140847711Y-101294599D01*
X142352138Y-101294599D01*
X142352138Y-101294598D01*
X140636549Y-99579009D01*
X140592048Y-99679795D01*
X140589100Y-99705211D01*
X140589100Y-100654400D01*
X140570794Y-100698594D01*
X140526600Y-100716900D01*
X139687036Y-100716900D01*
X139657327Y-100722809D01*
X139627619Y-100728719D01*
X139627618Y-100728719D01*
X139560240Y-100773740D01*
X139515219Y-100841118D01*
X139515219Y-100841119D01*
X139503400Y-100900536D01*
X139503400Y-101740663D01*
X139503399Y-101740663D01*
X139515219Y-101800080D01*
X139515219Y-101800081D01*
X139525121Y-101814900D01*
X139560240Y-101867460D01*
X139627620Y-101912481D01*
X139687036Y-101924300D01*
X139711962Y-101924300D01*
X139756156Y-101942606D01*
X139774462Y-101986800D01*
X139758747Y-102028242D01*
X139756649Y-102030609D01*
X139667233Y-102160150D01*
X139646277Y-102215407D01*
X139611413Y-102307336D01*
X139611412Y-102307338D01*
X139611412Y-102307340D01*
X139611411Y-102307343D01*
X139592439Y-102463596D01*
X139592439Y-102463603D01*
X139611411Y-102619856D01*
X139611412Y-102619859D01*
X139611413Y-102619864D01*
X139643567Y-102704646D01*
X139667233Y-102767049D01*
X139756649Y-102896590D01*
X139756653Y-102896594D01*
X139797074Y-102932404D01*
X139874476Y-103000976D01*
X139892624Y-103010501D01*
X139895635Y-103012081D01*
X139926260Y-103048828D01*
X139923765Y-103092666D01*
X139906049Y-103132791D01*
X139906047Y-103132795D01*
X139903100Y-103158201D01*
X139903100Y-103848988D01*
X139906049Y-103874407D01*
X139906049Y-103874408D01*
X139951956Y-103978376D01*
X140011987Y-104038408D01*
X140030292Y-104082602D01*
X140019760Y-104117323D01*
X140015219Y-104124119D01*
X140003400Y-104183536D01*
X140003400Y-104823663D01*
X140003399Y-104823663D01*
X140015219Y-104883080D01*
X140015219Y-104883081D01*
X140060240Y-104950460D01*
X140061998Y-104951635D01*
X140063171Y-104953391D01*
X140064593Y-104954813D01*
X140064310Y-104955095D01*
X140088572Y-104991411D01*
X140079237Y-105038326D01*
X140061998Y-105055565D01*
X140060240Y-105056739D01*
X140015219Y-105124118D01*
X140015219Y-105124119D01*
X140003400Y-105183536D01*
X140003400Y-105183757D01*
X140003371Y-105183825D01*
X140003099Y-105186592D01*
X140002259Y-105186509D01*
X139985094Y-105227951D01*
X139966148Y-105240930D01*
X139951577Y-105247364D01*
X139951572Y-105247367D01*
X139941387Y-105257552D01*
X139930100Y-105266492D01*
X139917858Y-105274072D01*
X139917856Y-105274074D01*
X139897543Y-105300972D01*
X139894699Y-105304241D01*
X139564642Y-105634297D01*
X139555345Y-105640989D01*
X139555548Y-105641257D01*
X139550927Y-105644746D01*
X139517723Y-105681168D01*
X139516728Y-105682210D01*
X139502219Y-105696721D01*
X139502213Y-105696727D01*
X139499429Y-105700792D01*
X139496743Y-105704181D01*
X139474032Y-105729097D01*
X139468828Y-105742528D01*
X139462115Y-105755263D01*
X139453976Y-105767145D01*
X139446258Y-105799959D01*
X139444976Y-105804097D01*
X139432800Y-105835529D01*
X139432800Y-105849928D01*
X139431140Y-105864237D01*
X139427842Y-105878255D01*
X135826600Y-105878255D01*
X135826600Y-105060469D01*
X137065900Y-105060469D01*
X137067681Y-105080067D01*
X137072343Y-105131377D01*
X137123183Y-105294529D01*
X137211591Y-105440772D01*
X137332428Y-105561609D01*
X137478671Y-105650017D01*
X137641818Y-105700855D01*
X137641819Y-105700856D01*
X137641820Y-105700856D01*
X137641823Y-105700857D01*
X137712727Y-105707300D01*
X137826472Y-105707299D01*
X137897377Y-105700857D01*
X138060529Y-105650017D01*
X138206772Y-105561609D01*
X138327609Y-105440772D01*
X138416017Y-105294529D01*
X138466857Y-105131377D01*
X138473300Y-105060473D01*
X138473299Y-104946728D01*
X138466857Y-104875823D01*
X138416017Y-104712671D01*
X138327609Y-104566428D01*
X138206772Y-104445591D01*
X138060529Y-104357183D01*
X137935749Y-104318300D01*
X137897381Y-104306344D01*
X137897380Y-104306343D01*
X137854834Y-104302477D01*
X137826473Y-104299900D01*
X137826471Y-104299900D01*
X137712730Y-104299900D01*
X137675191Y-104303311D01*
X137641823Y-104306343D01*
X137641820Y-104306344D01*
X137641819Y-104306344D01*
X137478670Y-104357183D01*
X137332427Y-104445591D01*
X137211591Y-104566427D01*
X137123183Y-104712670D01*
X137072344Y-104875818D01*
X137072343Y-104875819D01*
X137065900Y-104946728D01*
X137065900Y-105060469D01*
X135826600Y-105060469D01*
X135826600Y-103107598D01*
X136393059Y-103107598D01*
X136393060Y-103107599D01*
X137771139Y-103107599D01*
X137771139Y-103107598D01*
X137082100Y-102418560D01*
X136393059Y-103107598D01*
X135826600Y-103107598D01*
X135826600Y-103028909D01*
X135844906Y-102984715D01*
X135889100Y-102966409D01*
X135933294Y-102984715D01*
X136007322Y-103058743D01*
X136007328Y-103058747D01*
X136010561Y-103060174D01*
X136010564Y-103060174D01*
X136867140Y-102203599D01*
X136010564Y-101347023D01*
X136007320Y-101348457D01*
X135933294Y-101422484D01*
X135889100Y-101440790D01*
X135844906Y-101422484D01*
X135826600Y-101378290D01*
X135826600Y-101299600D01*
X136393059Y-101299600D01*
X137082100Y-101988640D01*
X138153634Y-103060173D01*
X138156877Y-103058743D01*
X138156881Y-103058740D01*
X138237242Y-102978378D01*
X138283151Y-102874405D01*
X138286099Y-102848988D01*
X138286099Y-102087099D01*
X138304405Y-102042905D01*
X138348599Y-102024599D01*
X139052488Y-102024599D01*
X139077904Y-102021651D01*
X139077910Y-102021649D01*
X139088508Y-102016969D01*
X138607100Y-101535560D01*
X138392139Y-101320599D01*
X138822060Y-101320599D01*
X139303468Y-101802007D01*
X139308150Y-101791407D01*
X139311099Y-101765988D01*
X139311099Y-100875211D01*
X139308150Y-100849792D01*
X139308150Y-100849791D01*
X139303469Y-100839190D01*
X138822060Y-101320599D01*
X138392139Y-101320599D01*
X137910730Y-100839190D01*
X137910729Y-100839191D01*
X137906049Y-100849791D01*
X137906047Y-100849795D01*
X137903100Y-100875201D01*
X137903100Y-101237100D01*
X137884794Y-101281294D01*
X137840600Y-101299600D01*
X136393059Y-101299600D01*
X135826600Y-101299600D01*
X135826600Y-98794231D01*
X136330011Y-98794231D01*
X136365959Y-99050022D01*
X136369154Y-99072750D01*
X136403023Y-99190864D01*
X136446679Y-99343110D01*
X136561079Y-99600058D01*
X136710123Y-99838576D01*
X136890910Y-100054030D01*
X136890914Y-100054035D01*
X137099923Y-100242227D01*
X137099922Y-100242227D01*
X137099924Y-100242228D01*
X137099926Y-100242230D01*
X137333100Y-100399507D01*
X137585893Y-100522803D01*
X137585895Y-100522803D01*
X137585898Y-100522805D01*
X137661761Y-100547454D01*
X137853385Y-100609716D01*
X138106801Y-100654400D01*
X138130359Y-100658554D01*
X138130371Y-100658556D01*
X138136480Y-100658769D01*
X138178498Y-100677037D01*
X138607099Y-101105638D01*
X139088508Y-100624229D01*
X139086708Y-100614600D01*
X139068257Y-100595276D01*
X139069363Y-100547454D01*
X139103122Y-100514752D01*
X139224856Y-100465569D01*
X139468433Y-100324940D01*
X139690067Y-100151780D01*
X139885446Y-99949460D01*
X140050765Y-99721917D01*
X140182808Y-99473581D01*
X140279004Y-99209285D01*
X140337480Y-98934173D01*
X140357100Y-98653600D01*
X140337480Y-98373027D01*
X140279004Y-98097915D01*
X140182808Y-97833619D01*
X140143783Y-97760223D01*
X140050769Y-97585289D01*
X140050767Y-97585286D01*
X140047721Y-97581094D01*
X139885446Y-97357740D01*
X139882156Y-97354333D01*
X139690068Y-97155421D01*
X139669749Y-97139546D01*
X139468433Y-96982260D01*
X139339274Y-96907690D01*
X139224857Y-96841631D01*
X139224855Y-96841630D01*
X138964085Y-96736272D01*
X138964079Y-96736270D01*
X138964078Y-96736270D01*
X138691175Y-96668228D01*
X138411457Y-96638828D01*
X138411456Y-96638828D01*
X138130379Y-96648643D01*
X138130363Y-96648645D01*
X137853390Y-96697483D01*
X137853381Y-96697485D01*
X137585898Y-96784394D01*
X137333105Y-96907690D01*
X137333096Y-96907695D01*
X137099922Y-97064972D01*
X136890914Y-97253164D01*
X136890910Y-97253169D01*
X136710123Y-97468623D01*
X136561079Y-97707141D01*
X136446679Y-97964089D01*
X136369153Y-98234453D01*
X136330011Y-98512968D01*
X136330011Y-98794231D01*
X135826600Y-98794231D01*
X135826600Y-98654544D01*
X135826657Y-98652657D01*
X135829745Y-98601605D01*
X135844820Y-98352381D01*
X135845271Y-98348670D01*
X135899328Y-98053690D01*
X135900229Y-98050036D01*
X135927012Y-97964089D01*
X135989439Y-97763750D01*
X135990777Y-97760223D01*
X136113851Y-97486762D01*
X136115597Y-97483438D01*
X136270737Y-97226805D01*
X136272860Y-97223728D01*
X136457811Y-96987656D01*
X136460293Y-96984854D01*
X136672354Y-96772793D01*
X136675156Y-96770311D01*
X136911228Y-96585360D01*
X136914305Y-96583237D01*
X137170938Y-96428097D01*
X137174262Y-96426351D01*
X137447729Y-96303274D01*
X137451250Y-96301939D01*
X137737543Y-96212727D01*
X137741190Y-96211828D01*
X138036170Y-96157771D01*
X138039881Y-96157320D01*
X138340157Y-96139157D01*
X138342045Y-96139100D01*
X138349385Y-96139100D01*
X158652815Y-96139100D01*
X158660155Y-96139100D01*
X158662042Y-96139157D01*
G37*
%TD.AperFunction*%
%TD*%
M02*
