M48
; DRILL file {KiCad 7.0.6-7.0.6~ubuntu22.04.1} date Mon 07 Aug 2023 10:02:57 BST
; FORMAT={-:-/ absolute / metric / decimal}
; #@! TF.CreationDate,2023-08-07T10:02:57+01:00
; #@! TF.GenerationSoftware,Kicad,Pcbnew,7.0.6-7.0.6~ubuntu22.04.1
; #@! TF.FileFunction,MixedPlating,1,2
FMAT,2
METRIC
; #@! TA.AperFunction,Plated,PTH,ViaDrill
T1C0.483
; #@! TA.AperFunction,Plated,PTH,ComponentDrill
T2C1.000
; #@! TA.AperFunction,Plated,PTH,ComponentDrill
T3C2.500
%
G90
G05
T1
X137.198Y-103.607
X137.198Y-106.401
X140.245Y-102.464
X140.881Y-107.671
X141.199Y-98.971
X142.405Y-99.035
X143.575Y-103.988
X145.517Y-106.655
X146.469Y-108.941
X146.66Y-102.718
X148.223Y-107.694
X149.427Y-107.682
X150.279Y-101.575
X151.422Y-106.147
X151.549Y-107.798
X151.783Y-108.941
X151.825Y-102.104
X152.883Y-101.815
X153.581Y-107.036
X155.446Y-108.393
X157.455Y-106.782
X157.505Y-105.639
X158.344Y-103.67
X159.804Y-103.607
X159.804Y-106.401
X160.249Y-109.195
T2
X142.151Y-111.354
X144.691Y-98.654
X144.691Y-111.354
X147.231Y-98.654
X147.231Y-111.354
X149.771Y-98.654
X149.771Y-111.354
X152.311Y-98.654
X152.311Y-111.354
X154.851Y-111.354
T3
X138.341Y-98.654
X138.341Y-111.354
X158.661Y-98.654
X158.661Y-111.354
T0
M30
