%TF.GenerationSoftware,KiCad,Pcbnew,7.0.6-7.0.6~ubuntu22.04.1*%
%TF.CreationDate,2023-08-07T00:19:50+01:00*%
%TF.ProjectId,working,776f726b-696e-4672-9e6b-696361645f70,rev?*%
%TF.SameCoordinates,Original*%
%TF.FileFunction,Profile,NP*%
%FSLAX46Y46*%
G04 Gerber Fmt 4.6, Leading zero omitted, Abs format (unit mm)*
G04 Created by KiCad (PCBNEW 7.0.6-7.0.6~ubuntu22.04.1) date 2023-08-07 00:19:50*
%MOMM*%
%LPD*%
G01*
G04 APERTURE LIST*
%TA.AperFunction,Profile*%
%ADD10C,0.203200*%
%TD*%
%ADD11C,0.152400*%
%ADD12C,0.124460*%
G04 APERTURE END LIST*
D10*
X77127100Y-85064600D02*
X77127100Y-49504600D01*
X153174700Y-117779800D02*
X153174700Y-115570000D01*
X220383100Y-170662600D02*
X226733100Y-170662600D01*
X95567500Y-67259200D02*
X82232500Y-67259200D01*
X81546700Y-157149800D02*
X81546700Y-154940000D01*
X82892899Y-115570000D02*
G75*
G03*
X82232500Y-114884201I-673099J12700D01*
G01*
X167855900Y-117856000D02*
G75*
G03*
X167144700Y-117144800I-711200J0D01*
G01*
X167195500Y-67259200D02*
X153860500Y-67259200D01*
X148755100Y-124434600D02*
X219875100Y-124434600D01*
X82207100Y-110490000D02*
G75*
G03*
X82867500Y-109829600I0J660400D01*
G01*
X219875100Y-39344600D02*
X77127100Y-39344600D01*
X154520900Y-77774800D02*
X167144700Y-77774800D01*
X153149300Y-149174200D02*
G75*
G03*
X153835100Y-149860000I685800J0D01*
G01*
X82232500Y-145999200D02*
G75*
G03*
X81521300Y-146710400I0J-711200D01*
G01*
X153835100Y-71120000D02*
G75*
G03*
X154495500Y-70459600I0J660400D01*
G01*
X153860500Y-154254200D02*
G75*
G03*
X153174700Y-154940000I0J-685800D01*
G01*
X82867500Y-109829600D02*
X82867500Y-107975400D01*
X154520900Y-154940000D02*
X154520900Y-156514800D01*
X95592900Y-79121000D02*
G75*
G03*
X96227900Y-78486000I0J635000D01*
G01*
X82232500Y-154254200D02*
G75*
G03*
X81546700Y-154940000I0J-685800D01*
G01*
X82892899Y-154940000D02*
G75*
G03*
X82232500Y-154254201I-673099J12700D01*
G01*
X153174700Y-78409800D02*
G75*
G03*
X153885900Y-79121000I711200J0D01*
G01*
X167195500Y-145999200D02*
X153860500Y-145999200D01*
X82892900Y-76200000D02*
X82892900Y-77774800D01*
X148755100Y-88874600D02*
X219875100Y-88874600D01*
X219875100Y-128244600D02*
X219875100Y-163804600D01*
X76619100Y-39344600D02*
X70269100Y-39344600D01*
X77127100Y-170662600D02*
X219875100Y-170662600D01*
X81546700Y-117779800D02*
G75*
G03*
X82257900Y-118491000I711200J0D01*
G01*
X82867500Y-68605400D02*
X95491300Y-68605400D01*
X154520899Y-154940000D02*
G75*
G03*
X153860500Y-154254201I-673099J12700D01*
G01*
X148755100Y-124434600D02*
X148755100Y-88874600D01*
X95592900Y-157861000D02*
G75*
G03*
X96227900Y-157226000I0J635000D01*
G01*
X167220900Y-118491000D02*
G75*
G03*
X167855900Y-117856000I0J635000D01*
G01*
X82232500Y-114884200D02*
G75*
G03*
X81546700Y-115570000I0J-685800D01*
G01*
X167855900Y-78486000D02*
G75*
G03*
X167144700Y-77774800I-711200J0D01*
G01*
X154495500Y-147345400D02*
X167119300Y-147345400D01*
X153149300Y-109804200D02*
G75*
G03*
X153835100Y-110490000I685800J0D01*
G01*
X82892900Y-154940000D02*
X82892900Y-156514800D01*
X154520900Y-117144800D02*
X167144700Y-117144800D01*
X153149300Y-146710400D02*
X153149300Y-149174200D01*
X82867500Y-70459600D02*
X82867500Y-68605400D01*
X81521300Y-67970400D02*
X81521300Y-70434200D01*
X95567500Y-145999200D02*
X82232500Y-145999200D01*
X77127100Y-39344600D02*
X77127100Y-45694600D01*
X154495500Y-149199600D02*
X154495500Y-147345400D01*
X226733100Y-170662600D02*
X226733100Y-39344600D01*
X167220900Y-79121000D02*
X153885900Y-79121000D01*
X95491300Y-107975400D02*
G75*
G03*
X96202500Y-107264200I0J711200D01*
G01*
X76619100Y-170662600D02*
X76619100Y-39344600D01*
X148247100Y-128244600D02*
X148247100Y-163804600D01*
X96227900Y-157226000D02*
G75*
G03*
X95516700Y-156514800I-711200J0D01*
G01*
X95567500Y-106629200D02*
X82232500Y-106629200D01*
X95592900Y-157861000D02*
X82257900Y-157861000D01*
X153860500Y-106629200D02*
G75*
G03*
X153149300Y-107340400I0J-711200D01*
G01*
X81521300Y-107340400D02*
X81521300Y-109804200D01*
X167220900Y-79121000D02*
G75*
G03*
X167855900Y-78486000I0J635000D01*
G01*
X96202500Y-107264200D02*
G75*
G03*
X95567500Y-106629200I-635000J0D01*
G01*
X167119300Y-107975400D02*
G75*
G03*
X167830500Y-107264200I0J711200D01*
G01*
X82892900Y-117144800D02*
X95516700Y-117144800D01*
X82892900Y-156514800D02*
X95516700Y-156514800D01*
X153860500Y-114884200D02*
G75*
G03*
X153174700Y-115570000I0J-685800D01*
G01*
X95592900Y-79121000D02*
X82257900Y-79121000D01*
X167220900Y-157861000D02*
G75*
G03*
X167855900Y-157226000I0J635000D01*
G01*
X154495500Y-70459600D02*
X154495500Y-68605400D01*
X154495500Y-109829600D02*
X154495500Y-107975400D01*
X167830500Y-107264200D02*
G75*
G03*
X167195500Y-106629200I-635000J0D01*
G01*
X77127100Y-49504600D02*
X148247100Y-49504600D01*
X153149300Y-70434200D02*
G75*
G03*
X153835100Y-71120000I685800J0D01*
G01*
X81546700Y-117779800D02*
X81546700Y-115570000D01*
X82892900Y-77774800D02*
X95516700Y-77774800D01*
X77127100Y-163804600D02*
X148247100Y-163804600D01*
X96227900Y-117856000D02*
G75*
G03*
X95516700Y-117144800I-711200J0D01*
G01*
X77127100Y-163804600D02*
X77127100Y-128244600D01*
X70269100Y-39344600D02*
X70269100Y-170662600D01*
X77127100Y-124434600D02*
X77127100Y-88874600D01*
X167855900Y-157226000D02*
G75*
G03*
X167144700Y-156514800I-711200J0D01*
G01*
X154520899Y-76200000D02*
G75*
G03*
X153860500Y-75514201I-673099J12700D01*
G01*
X148755100Y-163804600D02*
X148755100Y-128244600D01*
X153174700Y-157149800D02*
G75*
G03*
X153885900Y-157861000I711200J0D01*
G01*
X167119300Y-68605400D02*
G75*
G03*
X167830500Y-67894200I0J711200D01*
G01*
X81546700Y-78409800D02*
G75*
G03*
X82257900Y-79121000I711200J0D01*
G01*
X81546700Y-78409800D02*
X81546700Y-76200000D01*
X81521300Y-70434200D02*
G75*
G03*
X82207100Y-71120000I685800J0D01*
G01*
X82207100Y-71120000D02*
G75*
G03*
X82867500Y-70459600I0J660400D01*
G01*
X77127100Y-45694600D02*
X219875100Y-45694600D01*
X153149300Y-67970400D02*
X153149300Y-70434200D01*
X167830500Y-146634200D02*
G75*
G03*
X167195500Y-145999200I-635000J0D01*
G01*
X148755100Y-85064600D02*
X148755100Y-49504600D01*
X82892900Y-115570000D02*
X82892900Y-117144800D01*
X148755100Y-49504600D02*
X219875100Y-49504600D01*
X148755100Y-163804600D02*
X219875100Y-163804600D01*
X219875100Y-45694600D02*
X219875100Y-39344600D01*
X148755100Y-85064600D02*
X219875100Y-85064600D01*
X154495500Y-107975400D02*
X167119300Y-107975400D01*
X81521300Y-146710400D02*
X81521300Y-149174200D01*
X153860500Y-75514200D02*
G75*
G03*
X153174700Y-76200000I0J-685800D01*
G01*
X95592900Y-118491000D02*
G75*
G03*
X96227900Y-117856000I0J635000D01*
G01*
X148755100Y-128244600D02*
X219875100Y-128244600D01*
X81521300Y-109804200D02*
G75*
G03*
X82207100Y-110490000I685800J0D01*
G01*
X153174700Y-117779800D02*
G75*
G03*
X153885900Y-118491000I711200J0D01*
G01*
X153860500Y-67259200D02*
G75*
G03*
X153149300Y-67970400I0J-711200D01*
G01*
X96227900Y-78486000D02*
G75*
G03*
X95516700Y-77774800I-711200J0D01*
G01*
X148247100Y-49504600D02*
X148247100Y-85064600D01*
X153174700Y-78409800D02*
X153174700Y-76200000D01*
X154520900Y-115570000D02*
X154520900Y-117144800D01*
X77127100Y-88874600D02*
X148247100Y-88874600D01*
X219875100Y-49504600D02*
X219875100Y-85064600D01*
X96202500Y-146634200D02*
G75*
G03*
X95567500Y-145999200I-635000J0D01*
G01*
X154520899Y-115570000D02*
G75*
G03*
X153860500Y-114884201I-673099J12700D01*
G01*
X167830500Y-67894200D02*
G75*
G03*
X167195500Y-67259200I-635000J0D01*
G01*
X95592900Y-118491000D02*
X82257900Y-118491000D01*
X82232500Y-67259200D02*
G75*
G03*
X81521300Y-67970400I0J-711200D01*
G01*
X220383100Y-39344600D02*
X220383100Y-170662600D01*
X154520900Y-156514800D02*
X167144700Y-156514800D01*
X81521300Y-149174200D02*
G75*
G03*
X82207100Y-149860000I685800J0D01*
G01*
X95491300Y-147345400D02*
G75*
G03*
X96202500Y-146634200I0J711200D01*
G01*
X95491300Y-68605400D02*
G75*
G03*
X96202500Y-67894200I0J711200D01*
G01*
X154495500Y-68605400D02*
X167119300Y-68605400D01*
X167220900Y-118491000D02*
X153885900Y-118491000D01*
X82892899Y-76200000D02*
G75*
G03*
X82232500Y-75514201I-673099J12700D01*
G01*
X96202500Y-67894200D02*
G75*
G03*
X95567500Y-67259200I-635000J0D01*
G01*
X153835100Y-110490000D02*
G75*
G03*
X154495500Y-109829600I0J660400D01*
G01*
X82207100Y-149860000D02*
G75*
G03*
X82867500Y-149199600I0J660400D01*
G01*
X70269100Y-170662600D02*
X76619100Y-170662600D01*
X82232500Y-75514200D02*
G75*
G03*
X81546700Y-76200000I0J-685800D01*
G01*
X153149300Y-107340400D02*
X153149300Y-109804200D01*
X167195500Y-106629200D02*
X153860500Y-106629200D01*
X219875100Y-164312600D02*
X77127100Y-164312600D01*
X81546700Y-157149800D02*
G75*
G03*
X82257900Y-157861000I711200J0D01*
G01*
X82867500Y-107975400D02*
X95491300Y-107975400D01*
X77127100Y-85064600D02*
X148247100Y-85064600D01*
X153835100Y-149860000D02*
G75*
G03*
X154495500Y-149199600I0J660400D01*
G01*
X82867500Y-147345400D02*
X95491300Y-147345400D01*
X154520900Y-76200000D02*
X154520900Y-77774800D01*
X153860500Y-145999200D02*
G75*
G03*
X153149300Y-146710400I0J-711200D01*
G01*
X148247100Y-88874600D02*
X148247100Y-124434600D01*
X82867500Y-149199600D02*
X82867500Y-147345400D01*
X77127100Y-164312600D02*
X77127100Y-170662600D01*
X167119300Y-147345400D02*
G75*
G03*
X167830500Y-146634200I0J711200D01*
G01*
X167220900Y-157861000D02*
X153885900Y-157861000D01*
X77127100Y-128244600D02*
X148247100Y-128244600D01*
X153174700Y-157149800D02*
X153174700Y-154940000D01*
X219875100Y-170662600D02*
X219875100Y-164312600D01*
X219875100Y-88874600D02*
X219875100Y-124434600D01*
X226733100Y-39344600D02*
X220383100Y-39344600D01*
X77127100Y-124434600D02*
X148247100Y-124434600D01*
X82232500Y-106629200D02*
G75*
G03*
X81521300Y-107340400I0J-711200D01*
G01*
D11*
X157301467Y-157594987D02*
X157013601Y-157183749D01*
X156807982Y-157594987D02*
X156807982Y-156731387D01*
X156807982Y-156731387D02*
X157136972Y-156731387D01*
X157136972Y-156731387D02*
X157219220Y-156772511D01*
X157219220Y-156772511D02*
X157260343Y-156813635D01*
X157260343Y-156813635D02*
X157301467Y-156895883D01*
X157301467Y-156895883D02*
X157301467Y-157019254D01*
X157301467Y-157019254D02*
X157260343Y-157101502D01*
X157260343Y-157101502D02*
X157219220Y-157142625D01*
X157219220Y-157142625D02*
X157136972Y-157183749D01*
X157136972Y-157183749D02*
X156807982Y-157183749D01*
X157794953Y-157594987D02*
X157712705Y-157553864D01*
X157712705Y-157553864D02*
X157671582Y-157512740D01*
X157671582Y-157512740D02*
X157630458Y-157430492D01*
X157630458Y-157430492D02*
X157630458Y-157183749D01*
X157630458Y-157183749D02*
X157671582Y-157101502D01*
X157671582Y-157101502D02*
X157712705Y-157060378D01*
X157712705Y-157060378D02*
X157794953Y-157019254D01*
X157794953Y-157019254D02*
X157918324Y-157019254D01*
X157918324Y-157019254D02*
X158000572Y-157060378D01*
X158000572Y-157060378D02*
X158041696Y-157101502D01*
X158041696Y-157101502D02*
X158082820Y-157183749D01*
X158082820Y-157183749D02*
X158082820Y-157430492D01*
X158082820Y-157430492D02*
X158041696Y-157512740D01*
X158041696Y-157512740D02*
X158000572Y-157553864D01*
X158000572Y-157553864D02*
X157918324Y-157594987D01*
X157918324Y-157594987D02*
X157794953Y-157594987D01*
X158823048Y-157019254D02*
X158823048Y-157594987D01*
X158452934Y-157019254D02*
X158452934Y-157471616D01*
X158452934Y-157471616D02*
X158494057Y-157553864D01*
X158494057Y-157553864D02*
X158576305Y-157594987D01*
X158576305Y-157594987D02*
X158699676Y-157594987D01*
X158699676Y-157594987D02*
X158781924Y-157553864D01*
X158781924Y-157553864D02*
X158823048Y-157512740D01*
X159110914Y-157019254D02*
X159439905Y-157019254D01*
X159234286Y-156731387D02*
X159234286Y-157471616D01*
X159234286Y-157471616D02*
X159275409Y-157553864D01*
X159275409Y-157553864D02*
X159357657Y-157594987D01*
X159357657Y-157594987D02*
X159439905Y-157594987D01*
X160056762Y-157553864D02*
X159974514Y-157594987D01*
X159974514Y-157594987D02*
X159810019Y-157594987D01*
X159810019Y-157594987D02*
X159727772Y-157553864D01*
X159727772Y-157553864D02*
X159686648Y-157471616D01*
X159686648Y-157471616D02*
X159686648Y-157142625D01*
X159686648Y-157142625D02*
X159727772Y-157060378D01*
X159727772Y-157060378D02*
X159810019Y-157019254D01*
X159810019Y-157019254D02*
X159974514Y-157019254D01*
X159974514Y-157019254D02*
X160056762Y-157060378D01*
X160056762Y-157060378D02*
X160097886Y-157142625D01*
X160097886Y-157142625D02*
X160097886Y-157224873D01*
X160097886Y-157224873D02*
X159686648Y-157307121D01*
X161290477Y-156731387D02*
X161454972Y-156731387D01*
X161454972Y-156731387D02*
X161537220Y-156772511D01*
X161537220Y-156772511D02*
X161619467Y-156854759D01*
X161619467Y-156854759D02*
X161660591Y-157019254D01*
X161660591Y-157019254D02*
X161660591Y-157307121D01*
X161660591Y-157307121D02*
X161619467Y-157471616D01*
X161619467Y-157471616D02*
X161537220Y-157553864D01*
X161537220Y-157553864D02*
X161454972Y-157594987D01*
X161454972Y-157594987D02*
X161290477Y-157594987D01*
X161290477Y-157594987D02*
X161208229Y-157553864D01*
X161208229Y-157553864D02*
X161125982Y-157471616D01*
X161125982Y-157471616D02*
X161084858Y-157307121D01*
X161084858Y-157307121D02*
X161084858Y-157019254D01*
X161084858Y-157019254D02*
X161125982Y-156854759D01*
X161125982Y-156854759D02*
X161208229Y-156772511D01*
X161208229Y-156772511D02*
X161290477Y-156731387D01*
X162400820Y-157019254D02*
X162400820Y-157594987D01*
X162030706Y-157019254D02*
X162030706Y-157471616D01*
X162030706Y-157471616D02*
X162071829Y-157553864D01*
X162071829Y-157553864D02*
X162154077Y-157594987D01*
X162154077Y-157594987D02*
X162277448Y-157594987D01*
X162277448Y-157594987D02*
X162359696Y-157553864D01*
X162359696Y-157553864D02*
X162400820Y-157512740D01*
X162688686Y-157019254D02*
X163017677Y-157019254D01*
X162812058Y-156731387D02*
X162812058Y-157471616D01*
X162812058Y-157471616D02*
X162853181Y-157553864D01*
X162853181Y-157553864D02*
X162935429Y-157594987D01*
X162935429Y-157594987D02*
X163017677Y-157594987D01*
D12*
X201483561Y-87649767D02*
X200932381Y-86862367D01*
X200538681Y-87649767D02*
X200538681Y-85996227D01*
X200538681Y-85996227D02*
X201168601Y-85996227D01*
X201168601Y-85996227D02*
X201326081Y-86074967D01*
X201326081Y-86074967D02*
X201404821Y-86153707D01*
X201404821Y-86153707D02*
X201483561Y-86311187D01*
X201483561Y-86311187D02*
X201483561Y-86547407D01*
X201483561Y-86547407D02*
X201404821Y-86704887D01*
X201404821Y-86704887D02*
X201326081Y-86783627D01*
X201326081Y-86783627D02*
X201168601Y-86862367D01*
X201168601Y-86862367D02*
X200538681Y-86862367D01*
X202428441Y-87649767D02*
X202270961Y-87571027D01*
X202270961Y-87571027D02*
X202192221Y-87492287D01*
X202192221Y-87492287D02*
X202113481Y-87334807D01*
X202113481Y-87334807D02*
X202113481Y-86862367D01*
X202113481Y-86862367D02*
X202192221Y-86704887D01*
X202192221Y-86704887D02*
X202270961Y-86626147D01*
X202270961Y-86626147D02*
X202428441Y-86547407D01*
X202428441Y-86547407D02*
X202664661Y-86547407D01*
X202664661Y-86547407D02*
X202822141Y-86626147D01*
X202822141Y-86626147D02*
X202900881Y-86704887D01*
X202900881Y-86704887D02*
X202979621Y-86862367D01*
X202979621Y-86862367D02*
X202979621Y-87334807D01*
X202979621Y-87334807D02*
X202900881Y-87492287D01*
X202900881Y-87492287D02*
X202822141Y-87571027D01*
X202822141Y-87571027D02*
X202664661Y-87649767D01*
X202664661Y-87649767D02*
X202428441Y-87649767D01*
X204396941Y-86547407D02*
X204396941Y-87649767D01*
X203688281Y-86547407D02*
X203688281Y-87413547D01*
X203688281Y-87413547D02*
X203767021Y-87571027D01*
X203767021Y-87571027D02*
X203924501Y-87649767D01*
X203924501Y-87649767D02*
X204160721Y-87649767D01*
X204160721Y-87649767D02*
X204318201Y-87571027D01*
X204318201Y-87571027D02*
X204396941Y-87492287D01*
X204948121Y-86547407D02*
X205578041Y-86547407D01*
X205184341Y-85996227D02*
X205184341Y-87413547D01*
X205184341Y-87413547D02*
X205263081Y-87571027D01*
X205263081Y-87571027D02*
X205420561Y-87649767D01*
X205420561Y-87649767D02*
X205578041Y-87649767D01*
X206759141Y-87571027D02*
X206601661Y-87649767D01*
X206601661Y-87649767D02*
X206286701Y-87649767D01*
X206286701Y-87649767D02*
X206129221Y-87571027D01*
X206129221Y-87571027D02*
X206050481Y-87413547D01*
X206050481Y-87413547D02*
X206050481Y-86783627D01*
X206050481Y-86783627D02*
X206129221Y-86626147D01*
X206129221Y-86626147D02*
X206286701Y-86547407D01*
X206286701Y-86547407D02*
X206601661Y-86547407D01*
X206601661Y-86547407D02*
X206759141Y-86626147D01*
X206759141Y-86626147D02*
X206837881Y-86783627D01*
X206837881Y-86783627D02*
X206837881Y-86941107D01*
X206837881Y-86941107D02*
X206050481Y-87098587D01*
X209121341Y-85996227D02*
X209436301Y-85996227D01*
X209436301Y-85996227D02*
X209593781Y-86074967D01*
X209593781Y-86074967D02*
X209751261Y-86232447D01*
X209751261Y-86232447D02*
X209830001Y-86547407D01*
X209830001Y-86547407D02*
X209830001Y-87098587D01*
X209830001Y-87098587D02*
X209751261Y-87413547D01*
X209751261Y-87413547D02*
X209593781Y-87571027D01*
X209593781Y-87571027D02*
X209436301Y-87649767D01*
X209436301Y-87649767D02*
X209121341Y-87649767D01*
X209121341Y-87649767D02*
X208963861Y-87571027D01*
X208963861Y-87571027D02*
X208806381Y-87413547D01*
X208806381Y-87413547D02*
X208727641Y-87098587D01*
X208727641Y-87098587D02*
X208727641Y-86547407D01*
X208727641Y-86547407D02*
X208806381Y-86232447D01*
X208806381Y-86232447D02*
X208963861Y-86074967D01*
X208963861Y-86074967D02*
X209121341Y-85996227D01*
X211247321Y-86547407D02*
X211247321Y-87649767D01*
X210538661Y-86547407D02*
X210538661Y-87413547D01*
X210538661Y-87413547D02*
X210617401Y-87571027D01*
X210617401Y-87571027D02*
X210774881Y-87649767D01*
X210774881Y-87649767D02*
X211011101Y-87649767D01*
X211011101Y-87649767D02*
X211168581Y-87571027D01*
X211168581Y-87571027D02*
X211247321Y-87492287D01*
X211798501Y-86547407D02*
X212428421Y-86547407D01*
X212034721Y-85996227D02*
X212034721Y-87413547D01*
X212034721Y-87413547D02*
X212113461Y-87571027D01*
X212113461Y-87571027D02*
X212270941Y-87649767D01*
X212270941Y-87649767D02*
X212428421Y-87649767D01*
D11*
X85673467Y-118224987D02*
X85385601Y-117813749D01*
X85179982Y-118224987D02*
X85179982Y-117361387D01*
X85179982Y-117361387D02*
X85508972Y-117361387D01*
X85508972Y-117361387D02*
X85591220Y-117402511D01*
X85591220Y-117402511D02*
X85632343Y-117443635D01*
X85632343Y-117443635D02*
X85673467Y-117525883D01*
X85673467Y-117525883D02*
X85673467Y-117649254D01*
X85673467Y-117649254D02*
X85632343Y-117731502D01*
X85632343Y-117731502D02*
X85591220Y-117772625D01*
X85591220Y-117772625D02*
X85508972Y-117813749D01*
X85508972Y-117813749D02*
X85179982Y-117813749D01*
X86166953Y-118224987D02*
X86084705Y-118183864D01*
X86084705Y-118183864D02*
X86043582Y-118142740D01*
X86043582Y-118142740D02*
X86002458Y-118060492D01*
X86002458Y-118060492D02*
X86002458Y-117813749D01*
X86002458Y-117813749D02*
X86043582Y-117731502D01*
X86043582Y-117731502D02*
X86084705Y-117690378D01*
X86084705Y-117690378D02*
X86166953Y-117649254D01*
X86166953Y-117649254D02*
X86290324Y-117649254D01*
X86290324Y-117649254D02*
X86372572Y-117690378D01*
X86372572Y-117690378D02*
X86413696Y-117731502D01*
X86413696Y-117731502D02*
X86454820Y-117813749D01*
X86454820Y-117813749D02*
X86454820Y-118060492D01*
X86454820Y-118060492D02*
X86413696Y-118142740D01*
X86413696Y-118142740D02*
X86372572Y-118183864D01*
X86372572Y-118183864D02*
X86290324Y-118224987D01*
X86290324Y-118224987D02*
X86166953Y-118224987D01*
X87195048Y-117649254D02*
X87195048Y-118224987D01*
X86824934Y-117649254D02*
X86824934Y-118101616D01*
X86824934Y-118101616D02*
X86866057Y-118183864D01*
X86866057Y-118183864D02*
X86948305Y-118224987D01*
X86948305Y-118224987D02*
X87071676Y-118224987D01*
X87071676Y-118224987D02*
X87153924Y-118183864D01*
X87153924Y-118183864D02*
X87195048Y-118142740D01*
X87482914Y-117649254D02*
X87811905Y-117649254D01*
X87606286Y-117361387D02*
X87606286Y-118101616D01*
X87606286Y-118101616D02*
X87647409Y-118183864D01*
X87647409Y-118183864D02*
X87729657Y-118224987D01*
X87729657Y-118224987D02*
X87811905Y-118224987D01*
X88428762Y-118183864D02*
X88346514Y-118224987D01*
X88346514Y-118224987D02*
X88182019Y-118224987D01*
X88182019Y-118224987D02*
X88099772Y-118183864D01*
X88099772Y-118183864D02*
X88058648Y-118101616D01*
X88058648Y-118101616D02*
X88058648Y-117772625D01*
X88058648Y-117772625D02*
X88099772Y-117690378D01*
X88099772Y-117690378D02*
X88182019Y-117649254D01*
X88182019Y-117649254D02*
X88346514Y-117649254D01*
X88346514Y-117649254D02*
X88428762Y-117690378D01*
X88428762Y-117690378D02*
X88469886Y-117772625D01*
X88469886Y-117772625D02*
X88469886Y-117854873D01*
X88469886Y-117854873D02*
X88058648Y-117937121D01*
X89662477Y-117361387D02*
X89826972Y-117361387D01*
X89826972Y-117361387D02*
X89909220Y-117402511D01*
X89909220Y-117402511D02*
X89991467Y-117484759D01*
X89991467Y-117484759D02*
X90032591Y-117649254D01*
X90032591Y-117649254D02*
X90032591Y-117937121D01*
X90032591Y-117937121D02*
X89991467Y-118101616D01*
X89991467Y-118101616D02*
X89909220Y-118183864D01*
X89909220Y-118183864D02*
X89826972Y-118224987D01*
X89826972Y-118224987D02*
X89662477Y-118224987D01*
X89662477Y-118224987D02*
X89580229Y-118183864D01*
X89580229Y-118183864D02*
X89497982Y-118101616D01*
X89497982Y-118101616D02*
X89456858Y-117937121D01*
X89456858Y-117937121D02*
X89456858Y-117649254D01*
X89456858Y-117649254D02*
X89497982Y-117484759D01*
X89497982Y-117484759D02*
X89580229Y-117402511D01*
X89580229Y-117402511D02*
X89662477Y-117361387D01*
X90772820Y-117649254D02*
X90772820Y-118224987D01*
X90402706Y-117649254D02*
X90402706Y-118101616D01*
X90402706Y-118101616D02*
X90443829Y-118183864D01*
X90443829Y-118183864D02*
X90526077Y-118224987D01*
X90526077Y-118224987D02*
X90649448Y-118224987D01*
X90649448Y-118224987D02*
X90731696Y-118183864D01*
X90731696Y-118183864D02*
X90772820Y-118142740D01*
X91060686Y-117649254D02*
X91389677Y-117649254D01*
X91184058Y-117361387D02*
X91184058Y-118101616D01*
X91184058Y-118101616D02*
X91225181Y-118183864D01*
X91225181Y-118183864D02*
X91307429Y-118224987D01*
X91307429Y-118224987D02*
X91389677Y-118224987D01*
X157301467Y-68313987D02*
X157013601Y-67902749D01*
X156807982Y-68313987D02*
X156807982Y-67450387D01*
X156807982Y-67450387D02*
X157136972Y-67450387D01*
X157136972Y-67450387D02*
X157219220Y-67491511D01*
X157219220Y-67491511D02*
X157260343Y-67532635D01*
X157260343Y-67532635D02*
X157301467Y-67614883D01*
X157301467Y-67614883D02*
X157301467Y-67738254D01*
X157301467Y-67738254D02*
X157260343Y-67820502D01*
X157260343Y-67820502D02*
X157219220Y-67861625D01*
X157219220Y-67861625D02*
X157136972Y-67902749D01*
X157136972Y-67902749D02*
X156807982Y-67902749D01*
X157794953Y-68313987D02*
X157712705Y-68272864D01*
X157712705Y-68272864D02*
X157671582Y-68231740D01*
X157671582Y-68231740D02*
X157630458Y-68149492D01*
X157630458Y-68149492D02*
X157630458Y-67902749D01*
X157630458Y-67902749D02*
X157671582Y-67820502D01*
X157671582Y-67820502D02*
X157712705Y-67779378D01*
X157712705Y-67779378D02*
X157794953Y-67738254D01*
X157794953Y-67738254D02*
X157918324Y-67738254D01*
X157918324Y-67738254D02*
X158000572Y-67779378D01*
X158000572Y-67779378D02*
X158041696Y-67820502D01*
X158041696Y-67820502D02*
X158082820Y-67902749D01*
X158082820Y-67902749D02*
X158082820Y-68149492D01*
X158082820Y-68149492D02*
X158041696Y-68231740D01*
X158041696Y-68231740D02*
X158000572Y-68272864D01*
X158000572Y-68272864D02*
X157918324Y-68313987D01*
X157918324Y-68313987D02*
X157794953Y-68313987D01*
X158823048Y-67738254D02*
X158823048Y-68313987D01*
X158452934Y-67738254D02*
X158452934Y-68190616D01*
X158452934Y-68190616D02*
X158494057Y-68272864D01*
X158494057Y-68272864D02*
X158576305Y-68313987D01*
X158576305Y-68313987D02*
X158699676Y-68313987D01*
X158699676Y-68313987D02*
X158781924Y-68272864D01*
X158781924Y-68272864D02*
X158823048Y-68231740D01*
X159110914Y-67738254D02*
X159439905Y-67738254D01*
X159234286Y-67450387D02*
X159234286Y-68190616D01*
X159234286Y-68190616D02*
X159275409Y-68272864D01*
X159275409Y-68272864D02*
X159357657Y-68313987D01*
X159357657Y-68313987D02*
X159439905Y-68313987D01*
X160056762Y-68272864D02*
X159974514Y-68313987D01*
X159974514Y-68313987D02*
X159810019Y-68313987D01*
X159810019Y-68313987D02*
X159727772Y-68272864D01*
X159727772Y-68272864D02*
X159686648Y-68190616D01*
X159686648Y-68190616D02*
X159686648Y-67861625D01*
X159686648Y-67861625D02*
X159727772Y-67779378D01*
X159727772Y-67779378D02*
X159810019Y-67738254D01*
X159810019Y-67738254D02*
X159974514Y-67738254D01*
X159974514Y-67738254D02*
X160056762Y-67779378D01*
X160056762Y-67779378D02*
X160097886Y-67861625D01*
X160097886Y-67861625D02*
X160097886Y-67943873D01*
X160097886Y-67943873D02*
X159686648Y-68026121D01*
X161290477Y-67450387D02*
X161454972Y-67450387D01*
X161454972Y-67450387D02*
X161537220Y-67491511D01*
X161537220Y-67491511D02*
X161619467Y-67573759D01*
X161619467Y-67573759D02*
X161660591Y-67738254D01*
X161660591Y-67738254D02*
X161660591Y-68026121D01*
X161660591Y-68026121D02*
X161619467Y-68190616D01*
X161619467Y-68190616D02*
X161537220Y-68272864D01*
X161537220Y-68272864D02*
X161454972Y-68313987D01*
X161454972Y-68313987D02*
X161290477Y-68313987D01*
X161290477Y-68313987D02*
X161208229Y-68272864D01*
X161208229Y-68272864D02*
X161125982Y-68190616D01*
X161125982Y-68190616D02*
X161084858Y-68026121D01*
X161084858Y-68026121D02*
X161084858Y-67738254D01*
X161084858Y-67738254D02*
X161125982Y-67573759D01*
X161125982Y-67573759D02*
X161208229Y-67491511D01*
X161208229Y-67491511D02*
X161290477Y-67450387D01*
X162400820Y-67738254D02*
X162400820Y-68313987D01*
X162030706Y-67738254D02*
X162030706Y-68190616D01*
X162030706Y-68190616D02*
X162071829Y-68272864D01*
X162071829Y-68272864D02*
X162154077Y-68313987D01*
X162154077Y-68313987D02*
X162277448Y-68313987D01*
X162277448Y-68313987D02*
X162359696Y-68272864D01*
X162359696Y-68272864D02*
X162400820Y-68231740D01*
X162688686Y-67738254D02*
X163017677Y-67738254D01*
X162812058Y-67450387D02*
X162812058Y-68190616D01*
X162812058Y-68190616D02*
X162853181Y-68272864D01*
X162853181Y-68272864D02*
X162935429Y-68313987D01*
X162935429Y-68313987D02*
X163017677Y-68313987D01*
D12*
X81595561Y-126765767D02*
X81044381Y-125978367D01*
X80650681Y-126765767D02*
X80650681Y-125112227D01*
X80650681Y-125112227D02*
X81280601Y-125112227D01*
X81280601Y-125112227D02*
X81438081Y-125190967D01*
X81438081Y-125190967D02*
X81516821Y-125269707D01*
X81516821Y-125269707D02*
X81595561Y-125427187D01*
X81595561Y-125427187D02*
X81595561Y-125663407D01*
X81595561Y-125663407D02*
X81516821Y-125820887D01*
X81516821Y-125820887D02*
X81438081Y-125899627D01*
X81438081Y-125899627D02*
X81280601Y-125978367D01*
X81280601Y-125978367D02*
X80650681Y-125978367D01*
X82540441Y-126765767D02*
X82382961Y-126687027D01*
X82382961Y-126687027D02*
X82304221Y-126608287D01*
X82304221Y-126608287D02*
X82225481Y-126450807D01*
X82225481Y-126450807D02*
X82225481Y-125978367D01*
X82225481Y-125978367D02*
X82304221Y-125820887D01*
X82304221Y-125820887D02*
X82382961Y-125742147D01*
X82382961Y-125742147D02*
X82540441Y-125663407D01*
X82540441Y-125663407D02*
X82776661Y-125663407D01*
X82776661Y-125663407D02*
X82934141Y-125742147D01*
X82934141Y-125742147D02*
X83012881Y-125820887D01*
X83012881Y-125820887D02*
X83091621Y-125978367D01*
X83091621Y-125978367D02*
X83091621Y-126450807D01*
X83091621Y-126450807D02*
X83012881Y-126608287D01*
X83012881Y-126608287D02*
X82934141Y-126687027D01*
X82934141Y-126687027D02*
X82776661Y-126765767D01*
X82776661Y-126765767D02*
X82540441Y-126765767D01*
X84508941Y-125663407D02*
X84508941Y-126765767D01*
X83800281Y-125663407D02*
X83800281Y-126529547D01*
X83800281Y-126529547D02*
X83879021Y-126687027D01*
X83879021Y-126687027D02*
X84036501Y-126765767D01*
X84036501Y-126765767D02*
X84272721Y-126765767D01*
X84272721Y-126765767D02*
X84430201Y-126687027D01*
X84430201Y-126687027D02*
X84508941Y-126608287D01*
X85060121Y-125663407D02*
X85690041Y-125663407D01*
X85296341Y-125112227D02*
X85296341Y-126529547D01*
X85296341Y-126529547D02*
X85375081Y-126687027D01*
X85375081Y-126687027D02*
X85532561Y-126765767D01*
X85532561Y-126765767D02*
X85690041Y-126765767D01*
X86871141Y-126687027D02*
X86713661Y-126765767D01*
X86713661Y-126765767D02*
X86398701Y-126765767D01*
X86398701Y-126765767D02*
X86241221Y-126687027D01*
X86241221Y-126687027D02*
X86162481Y-126529547D01*
X86162481Y-126529547D02*
X86162481Y-125899627D01*
X86162481Y-125899627D02*
X86241221Y-125742147D01*
X86241221Y-125742147D02*
X86398701Y-125663407D01*
X86398701Y-125663407D02*
X86713661Y-125663407D01*
X86713661Y-125663407D02*
X86871141Y-125742147D01*
X86871141Y-125742147D02*
X86949881Y-125899627D01*
X86949881Y-125899627D02*
X86949881Y-126057107D01*
X86949881Y-126057107D02*
X86162481Y-126214587D01*
X89233341Y-125112227D02*
X89548301Y-125112227D01*
X89548301Y-125112227D02*
X89705781Y-125190967D01*
X89705781Y-125190967D02*
X89863261Y-125348447D01*
X89863261Y-125348447D02*
X89942001Y-125663407D01*
X89942001Y-125663407D02*
X89942001Y-126214587D01*
X89942001Y-126214587D02*
X89863261Y-126529547D01*
X89863261Y-126529547D02*
X89705781Y-126687027D01*
X89705781Y-126687027D02*
X89548301Y-126765767D01*
X89548301Y-126765767D02*
X89233341Y-126765767D01*
X89233341Y-126765767D02*
X89075861Y-126687027D01*
X89075861Y-126687027D02*
X88918381Y-126529547D01*
X88918381Y-126529547D02*
X88839641Y-126214587D01*
X88839641Y-126214587D02*
X88839641Y-125663407D01*
X88839641Y-125663407D02*
X88918381Y-125348447D01*
X88918381Y-125348447D02*
X89075861Y-125190967D01*
X89075861Y-125190967D02*
X89233341Y-125112227D01*
X91359321Y-125663407D02*
X91359321Y-126765767D01*
X90650661Y-125663407D02*
X90650661Y-126529547D01*
X90650661Y-126529547D02*
X90729401Y-126687027D01*
X90729401Y-126687027D02*
X90886881Y-126765767D01*
X90886881Y-126765767D02*
X91123101Y-126765767D01*
X91123101Y-126765767D02*
X91280581Y-126687027D01*
X91280581Y-126687027D02*
X91359321Y-126608287D01*
X91910501Y-125663407D02*
X92540421Y-125663407D01*
X92146721Y-125112227D02*
X92146721Y-126529547D01*
X92146721Y-126529547D02*
X92225461Y-126687027D01*
X92225461Y-126687027D02*
X92382941Y-126765767D01*
X92382941Y-126765767D02*
X92540421Y-126765767D01*
X200975561Y-127019767D02*
X200424381Y-126232367D01*
X200030681Y-127019767D02*
X200030681Y-125366227D01*
X200030681Y-125366227D02*
X200660601Y-125366227D01*
X200660601Y-125366227D02*
X200818081Y-125444967D01*
X200818081Y-125444967D02*
X200896821Y-125523707D01*
X200896821Y-125523707D02*
X200975561Y-125681187D01*
X200975561Y-125681187D02*
X200975561Y-125917407D01*
X200975561Y-125917407D02*
X200896821Y-126074887D01*
X200896821Y-126074887D02*
X200818081Y-126153627D01*
X200818081Y-126153627D02*
X200660601Y-126232367D01*
X200660601Y-126232367D02*
X200030681Y-126232367D01*
X201920441Y-127019767D02*
X201762961Y-126941027D01*
X201762961Y-126941027D02*
X201684221Y-126862287D01*
X201684221Y-126862287D02*
X201605481Y-126704807D01*
X201605481Y-126704807D02*
X201605481Y-126232367D01*
X201605481Y-126232367D02*
X201684221Y-126074887D01*
X201684221Y-126074887D02*
X201762961Y-125996147D01*
X201762961Y-125996147D02*
X201920441Y-125917407D01*
X201920441Y-125917407D02*
X202156661Y-125917407D01*
X202156661Y-125917407D02*
X202314141Y-125996147D01*
X202314141Y-125996147D02*
X202392881Y-126074887D01*
X202392881Y-126074887D02*
X202471621Y-126232367D01*
X202471621Y-126232367D02*
X202471621Y-126704807D01*
X202471621Y-126704807D02*
X202392881Y-126862287D01*
X202392881Y-126862287D02*
X202314141Y-126941027D01*
X202314141Y-126941027D02*
X202156661Y-127019767D01*
X202156661Y-127019767D02*
X201920441Y-127019767D01*
X203888941Y-125917407D02*
X203888941Y-127019767D01*
X203180281Y-125917407D02*
X203180281Y-126783547D01*
X203180281Y-126783547D02*
X203259021Y-126941027D01*
X203259021Y-126941027D02*
X203416501Y-127019767D01*
X203416501Y-127019767D02*
X203652721Y-127019767D01*
X203652721Y-127019767D02*
X203810201Y-126941027D01*
X203810201Y-126941027D02*
X203888941Y-126862287D01*
X204440121Y-125917407D02*
X205070041Y-125917407D01*
X204676341Y-125366227D02*
X204676341Y-126783547D01*
X204676341Y-126783547D02*
X204755081Y-126941027D01*
X204755081Y-126941027D02*
X204912561Y-127019767D01*
X204912561Y-127019767D02*
X205070041Y-127019767D01*
X206251141Y-126941027D02*
X206093661Y-127019767D01*
X206093661Y-127019767D02*
X205778701Y-127019767D01*
X205778701Y-127019767D02*
X205621221Y-126941027D01*
X205621221Y-126941027D02*
X205542481Y-126783547D01*
X205542481Y-126783547D02*
X205542481Y-126153627D01*
X205542481Y-126153627D02*
X205621221Y-125996147D01*
X205621221Y-125996147D02*
X205778701Y-125917407D01*
X205778701Y-125917407D02*
X206093661Y-125917407D01*
X206093661Y-125917407D02*
X206251141Y-125996147D01*
X206251141Y-125996147D02*
X206329881Y-126153627D01*
X206329881Y-126153627D02*
X206329881Y-126311107D01*
X206329881Y-126311107D02*
X205542481Y-126468587D01*
X208613341Y-125366227D02*
X208928301Y-125366227D01*
X208928301Y-125366227D02*
X209085781Y-125444967D01*
X209085781Y-125444967D02*
X209243261Y-125602447D01*
X209243261Y-125602447D02*
X209322001Y-125917407D01*
X209322001Y-125917407D02*
X209322001Y-126468587D01*
X209322001Y-126468587D02*
X209243261Y-126783547D01*
X209243261Y-126783547D02*
X209085781Y-126941027D01*
X209085781Y-126941027D02*
X208928301Y-127019767D01*
X208928301Y-127019767D02*
X208613341Y-127019767D01*
X208613341Y-127019767D02*
X208455861Y-126941027D01*
X208455861Y-126941027D02*
X208298381Y-126783547D01*
X208298381Y-126783547D02*
X208219641Y-126468587D01*
X208219641Y-126468587D02*
X208219641Y-125917407D01*
X208219641Y-125917407D02*
X208298381Y-125602447D01*
X208298381Y-125602447D02*
X208455861Y-125444967D01*
X208455861Y-125444967D02*
X208613341Y-125366227D01*
X210739321Y-125917407D02*
X210739321Y-127019767D01*
X210030661Y-125917407D02*
X210030661Y-126783547D01*
X210030661Y-126783547D02*
X210109401Y-126941027D01*
X210109401Y-126941027D02*
X210266881Y-127019767D01*
X210266881Y-127019767D02*
X210503101Y-127019767D01*
X210503101Y-127019767D02*
X210660581Y-126941027D01*
X210660581Y-126941027D02*
X210739321Y-126862287D01*
X211290501Y-125917407D02*
X211920421Y-125917407D01*
X211526721Y-125366227D02*
X211526721Y-126783547D01*
X211526721Y-126783547D02*
X211605461Y-126941027D01*
X211605461Y-126941027D02*
X211762941Y-127019767D01*
X211762941Y-127019767D02*
X211920421Y-127019767D01*
X84389561Y-48025767D02*
X83838381Y-47238367D01*
X83444681Y-48025767D02*
X83444681Y-46372227D01*
X83444681Y-46372227D02*
X84074601Y-46372227D01*
X84074601Y-46372227D02*
X84232081Y-46450967D01*
X84232081Y-46450967D02*
X84310821Y-46529707D01*
X84310821Y-46529707D02*
X84389561Y-46687187D01*
X84389561Y-46687187D02*
X84389561Y-46923407D01*
X84389561Y-46923407D02*
X84310821Y-47080887D01*
X84310821Y-47080887D02*
X84232081Y-47159627D01*
X84232081Y-47159627D02*
X84074601Y-47238367D01*
X84074601Y-47238367D02*
X83444681Y-47238367D01*
X85334441Y-48025767D02*
X85176961Y-47947027D01*
X85176961Y-47947027D02*
X85098221Y-47868287D01*
X85098221Y-47868287D02*
X85019481Y-47710807D01*
X85019481Y-47710807D02*
X85019481Y-47238367D01*
X85019481Y-47238367D02*
X85098221Y-47080887D01*
X85098221Y-47080887D02*
X85176961Y-47002147D01*
X85176961Y-47002147D02*
X85334441Y-46923407D01*
X85334441Y-46923407D02*
X85570661Y-46923407D01*
X85570661Y-46923407D02*
X85728141Y-47002147D01*
X85728141Y-47002147D02*
X85806881Y-47080887D01*
X85806881Y-47080887D02*
X85885621Y-47238367D01*
X85885621Y-47238367D02*
X85885621Y-47710807D01*
X85885621Y-47710807D02*
X85806881Y-47868287D01*
X85806881Y-47868287D02*
X85728141Y-47947027D01*
X85728141Y-47947027D02*
X85570661Y-48025767D01*
X85570661Y-48025767D02*
X85334441Y-48025767D01*
X87302941Y-46923407D02*
X87302941Y-48025767D01*
X86594281Y-46923407D02*
X86594281Y-47789547D01*
X86594281Y-47789547D02*
X86673021Y-47947027D01*
X86673021Y-47947027D02*
X86830501Y-48025767D01*
X86830501Y-48025767D02*
X87066721Y-48025767D01*
X87066721Y-48025767D02*
X87224201Y-47947027D01*
X87224201Y-47947027D02*
X87302941Y-47868287D01*
X87854121Y-46923407D02*
X88484041Y-46923407D01*
X88090341Y-46372227D02*
X88090341Y-47789547D01*
X88090341Y-47789547D02*
X88169081Y-47947027D01*
X88169081Y-47947027D02*
X88326561Y-48025767D01*
X88326561Y-48025767D02*
X88484041Y-48025767D01*
X89665141Y-47947027D02*
X89507661Y-48025767D01*
X89507661Y-48025767D02*
X89192701Y-48025767D01*
X89192701Y-48025767D02*
X89035221Y-47947027D01*
X89035221Y-47947027D02*
X88956481Y-47789547D01*
X88956481Y-47789547D02*
X88956481Y-47159627D01*
X88956481Y-47159627D02*
X89035221Y-47002147D01*
X89035221Y-47002147D02*
X89192701Y-46923407D01*
X89192701Y-46923407D02*
X89507661Y-46923407D01*
X89507661Y-46923407D02*
X89665141Y-47002147D01*
X89665141Y-47002147D02*
X89743881Y-47159627D01*
X89743881Y-47159627D02*
X89743881Y-47317107D01*
X89743881Y-47317107D02*
X88956481Y-47474587D01*
X92027341Y-46372227D02*
X92342301Y-46372227D01*
X92342301Y-46372227D02*
X92499781Y-46450967D01*
X92499781Y-46450967D02*
X92657261Y-46608447D01*
X92657261Y-46608447D02*
X92736001Y-46923407D01*
X92736001Y-46923407D02*
X92736001Y-47474587D01*
X92736001Y-47474587D02*
X92657261Y-47789547D01*
X92657261Y-47789547D02*
X92499781Y-47947027D01*
X92499781Y-47947027D02*
X92342301Y-48025767D01*
X92342301Y-48025767D02*
X92027341Y-48025767D01*
X92027341Y-48025767D02*
X91869861Y-47947027D01*
X91869861Y-47947027D02*
X91712381Y-47789547D01*
X91712381Y-47789547D02*
X91633641Y-47474587D01*
X91633641Y-47474587D02*
X91633641Y-46923407D01*
X91633641Y-46923407D02*
X91712381Y-46608447D01*
X91712381Y-46608447D02*
X91869861Y-46450967D01*
X91869861Y-46450967D02*
X92027341Y-46372227D01*
X94153321Y-46923407D02*
X94153321Y-48025767D01*
X93444661Y-46923407D02*
X93444661Y-47789547D01*
X93444661Y-47789547D02*
X93523401Y-47947027D01*
X93523401Y-47947027D02*
X93680881Y-48025767D01*
X93680881Y-48025767D02*
X93917101Y-48025767D01*
X93917101Y-48025767D02*
X94074581Y-47947027D01*
X94074581Y-47947027D02*
X94153321Y-47868287D01*
X94704501Y-46923407D02*
X95334421Y-46923407D01*
X94940721Y-46372227D02*
X94940721Y-47789547D01*
X94940721Y-47789547D02*
X95019461Y-47947027D01*
X95019461Y-47947027D02*
X95176941Y-48025767D01*
X95176941Y-48025767D02*
X95334421Y-48025767D01*
D11*
X85673467Y-107683987D02*
X85385601Y-107272749D01*
X85179982Y-107683987D02*
X85179982Y-106820387D01*
X85179982Y-106820387D02*
X85508972Y-106820387D01*
X85508972Y-106820387D02*
X85591220Y-106861511D01*
X85591220Y-106861511D02*
X85632343Y-106902635D01*
X85632343Y-106902635D02*
X85673467Y-106984883D01*
X85673467Y-106984883D02*
X85673467Y-107108254D01*
X85673467Y-107108254D02*
X85632343Y-107190502D01*
X85632343Y-107190502D02*
X85591220Y-107231625D01*
X85591220Y-107231625D02*
X85508972Y-107272749D01*
X85508972Y-107272749D02*
X85179982Y-107272749D01*
X86166953Y-107683987D02*
X86084705Y-107642864D01*
X86084705Y-107642864D02*
X86043582Y-107601740D01*
X86043582Y-107601740D02*
X86002458Y-107519492D01*
X86002458Y-107519492D02*
X86002458Y-107272749D01*
X86002458Y-107272749D02*
X86043582Y-107190502D01*
X86043582Y-107190502D02*
X86084705Y-107149378D01*
X86084705Y-107149378D02*
X86166953Y-107108254D01*
X86166953Y-107108254D02*
X86290324Y-107108254D01*
X86290324Y-107108254D02*
X86372572Y-107149378D01*
X86372572Y-107149378D02*
X86413696Y-107190502D01*
X86413696Y-107190502D02*
X86454820Y-107272749D01*
X86454820Y-107272749D02*
X86454820Y-107519492D01*
X86454820Y-107519492D02*
X86413696Y-107601740D01*
X86413696Y-107601740D02*
X86372572Y-107642864D01*
X86372572Y-107642864D02*
X86290324Y-107683987D01*
X86290324Y-107683987D02*
X86166953Y-107683987D01*
X87195048Y-107108254D02*
X87195048Y-107683987D01*
X86824934Y-107108254D02*
X86824934Y-107560616D01*
X86824934Y-107560616D02*
X86866057Y-107642864D01*
X86866057Y-107642864D02*
X86948305Y-107683987D01*
X86948305Y-107683987D02*
X87071676Y-107683987D01*
X87071676Y-107683987D02*
X87153924Y-107642864D01*
X87153924Y-107642864D02*
X87195048Y-107601740D01*
X87482914Y-107108254D02*
X87811905Y-107108254D01*
X87606286Y-106820387D02*
X87606286Y-107560616D01*
X87606286Y-107560616D02*
X87647409Y-107642864D01*
X87647409Y-107642864D02*
X87729657Y-107683987D01*
X87729657Y-107683987D02*
X87811905Y-107683987D01*
X88428762Y-107642864D02*
X88346514Y-107683987D01*
X88346514Y-107683987D02*
X88182019Y-107683987D01*
X88182019Y-107683987D02*
X88099772Y-107642864D01*
X88099772Y-107642864D02*
X88058648Y-107560616D01*
X88058648Y-107560616D02*
X88058648Y-107231625D01*
X88058648Y-107231625D02*
X88099772Y-107149378D01*
X88099772Y-107149378D02*
X88182019Y-107108254D01*
X88182019Y-107108254D02*
X88346514Y-107108254D01*
X88346514Y-107108254D02*
X88428762Y-107149378D01*
X88428762Y-107149378D02*
X88469886Y-107231625D01*
X88469886Y-107231625D02*
X88469886Y-107313873D01*
X88469886Y-107313873D02*
X88058648Y-107396121D01*
X89662477Y-106820387D02*
X89826972Y-106820387D01*
X89826972Y-106820387D02*
X89909220Y-106861511D01*
X89909220Y-106861511D02*
X89991467Y-106943759D01*
X89991467Y-106943759D02*
X90032591Y-107108254D01*
X90032591Y-107108254D02*
X90032591Y-107396121D01*
X90032591Y-107396121D02*
X89991467Y-107560616D01*
X89991467Y-107560616D02*
X89909220Y-107642864D01*
X89909220Y-107642864D02*
X89826972Y-107683987D01*
X89826972Y-107683987D02*
X89662477Y-107683987D01*
X89662477Y-107683987D02*
X89580229Y-107642864D01*
X89580229Y-107642864D02*
X89497982Y-107560616D01*
X89497982Y-107560616D02*
X89456858Y-107396121D01*
X89456858Y-107396121D02*
X89456858Y-107108254D01*
X89456858Y-107108254D02*
X89497982Y-106943759D01*
X89497982Y-106943759D02*
X89580229Y-106861511D01*
X89580229Y-106861511D02*
X89662477Y-106820387D01*
X90772820Y-107108254D02*
X90772820Y-107683987D01*
X90402706Y-107108254D02*
X90402706Y-107560616D01*
X90402706Y-107560616D02*
X90443829Y-107642864D01*
X90443829Y-107642864D02*
X90526077Y-107683987D01*
X90526077Y-107683987D02*
X90649448Y-107683987D01*
X90649448Y-107683987D02*
X90731696Y-107642864D01*
X90731696Y-107642864D02*
X90772820Y-107601740D01*
X91060686Y-107108254D02*
X91389677Y-107108254D01*
X91184058Y-106820387D02*
X91184058Y-107560616D01*
X91184058Y-107560616D02*
X91225181Y-107642864D01*
X91225181Y-107642864D02*
X91307429Y-107683987D01*
X91307429Y-107683987D02*
X91389677Y-107683987D01*
D12*
X128077561Y-126765767D02*
X127526381Y-125978367D01*
X127132681Y-126765767D02*
X127132681Y-125112227D01*
X127132681Y-125112227D02*
X127762601Y-125112227D01*
X127762601Y-125112227D02*
X127920081Y-125190967D01*
X127920081Y-125190967D02*
X127998821Y-125269707D01*
X127998821Y-125269707D02*
X128077561Y-125427187D01*
X128077561Y-125427187D02*
X128077561Y-125663407D01*
X128077561Y-125663407D02*
X127998821Y-125820887D01*
X127998821Y-125820887D02*
X127920081Y-125899627D01*
X127920081Y-125899627D02*
X127762601Y-125978367D01*
X127762601Y-125978367D02*
X127132681Y-125978367D01*
X129022441Y-126765767D02*
X128864961Y-126687027D01*
X128864961Y-126687027D02*
X128786221Y-126608287D01*
X128786221Y-126608287D02*
X128707481Y-126450807D01*
X128707481Y-126450807D02*
X128707481Y-125978367D01*
X128707481Y-125978367D02*
X128786221Y-125820887D01*
X128786221Y-125820887D02*
X128864961Y-125742147D01*
X128864961Y-125742147D02*
X129022441Y-125663407D01*
X129022441Y-125663407D02*
X129258661Y-125663407D01*
X129258661Y-125663407D02*
X129416141Y-125742147D01*
X129416141Y-125742147D02*
X129494881Y-125820887D01*
X129494881Y-125820887D02*
X129573621Y-125978367D01*
X129573621Y-125978367D02*
X129573621Y-126450807D01*
X129573621Y-126450807D02*
X129494881Y-126608287D01*
X129494881Y-126608287D02*
X129416141Y-126687027D01*
X129416141Y-126687027D02*
X129258661Y-126765767D01*
X129258661Y-126765767D02*
X129022441Y-126765767D01*
X130990941Y-125663407D02*
X130990941Y-126765767D01*
X130282281Y-125663407D02*
X130282281Y-126529547D01*
X130282281Y-126529547D02*
X130361021Y-126687027D01*
X130361021Y-126687027D02*
X130518501Y-126765767D01*
X130518501Y-126765767D02*
X130754721Y-126765767D01*
X130754721Y-126765767D02*
X130912201Y-126687027D01*
X130912201Y-126687027D02*
X130990941Y-126608287D01*
X131542121Y-125663407D02*
X132172041Y-125663407D01*
X131778341Y-125112227D02*
X131778341Y-126529547D01*
X131778341Y-126529547D02*
X131857081Y-126687027D01*
X131857081Y-126687027D02*
X132014561Y-126765767D01*
X132014561Y-126765767D02*
X132172041Y-126765767D01*
X133353141Y-126687027D02*
X133195661Y-126765767D01*
X133195661Y-126765767D02*
X132880701Y-126765767D01*
X132880701Y-126765767D02*
X132723221Y-126687027D01*
X132723221Y-126687027D02*
X132644481Y-126529547D01*
X132644481Y-126529547D02*
X132644481Y-125899627D01*
X132644481Y-125899627D02*
X132723221Y-125742147D01*
X132723221Y-125742147D02*
X132880701Y-125663407D01*
X132880701Y-125663407D02*
X133195661Y-125663407D01*
X133195661Y-125663407D02*
X133353141Y-125742147D01*
X133353141Y-125742147D02*
X133431881Y-125899627D01*
X133431881Y-125899627D02*
X133431881Y-126057107D01*
X133431881Y-126057107D02*
X132644481Y-126214587D01*
X135715341Y-125112227D02*
X136030301Y-125112227D01*
X136030301Y-125112227D02*
X136187781Y-125190967D01*
X136187781Y-125190967D02*
X136345261Y-125348447D01*
X136345261Y-125348447D02*
X136424001Y-125663407D01*
X136424001Y-125663407D02*
X136424001Y-126214587D01*
X136424001Y-126214587D02*
X136345261Y-126529547D01*
X136345261Y-126529547D02*
X136187781Y-126687027D01*
X136187781Y-126687027D02*
X136030301Y-126765767D01*
X136030301Y-126765767D02*
X135715341Y-126765767D01*
X135715341Y-126765767D02*
X135557861Y-126687027D01*
X135557861Y-126687027D02*
X135400381Y-126529547D01*
X135400381Y-126529547D02*
X135321641Y-126214587D01*
X135321641Y-126214587D02*
X135321641Y-125663407D01*
X135321641Y-125663407D02*
X135400381Y-125348447D01*
X135400381Y-125348447D02*
X135557861Y-125190967D01*
X135557861Y-125190967D02*
X135715341Y-125112227D01*
X137841321Y-125663407D02*
X137841321Y-126765767D01*
X137132661Y-125663407D02*
X137132661Y-126529547D01*
X137132661Y-126529547D02*
X137211401Y-126687027D01*
X137211401Y-126687027D02*
X137368881Y-126765767D01*
X137368881Y-126765767D02*
X137605101Y-126765767D01*
X137605101Y-126765767D02*
X137762581Y-126687027D01*
X137762581Y-126687027D02*
X137841321Y-126608287D01*
X138392501Y-125663407D02*
X139022421Y-125663407D01*
X138628721Y-125112227D02*
X138628721Y-126529547D01*
X138628721Y-126529547D02*
X138707461Y-126687027D01*
X138707461Y-126687027D02*
X138864941Y-126765767D01*
X138864941Y-126765767D02*
X139022421Y-126765767D01*
D11*
X85673467Y-78854987D02*
X85385601Y-78443749D01*
X85179982Y-78854987D02*
X85179982Y-77991387D01*
X85179982Y-77991387D02*
X85508972Y-77991387D01*
X85508972Y-77991387D02*
X85591220Y-78032511D01*
X85591220Y-78032511D02*
X85632343Y-78073635D01*
X85632343Y-78073635D02*
X85673467Y-78155883D01*
X85673467Y-78155883D02*
X85673467Y-78279254D01*
X85673467Y-78279254D02*
X85632343Y-78361502D01*
X85632343Y-78361502D02*
X85591220Y-78402625D01*
X85591220Y-78402625D02*
X85508972Y-78443749D01*
X85508972Y-78443749D02*
X85179982Y-78443749D01*
X86166953Y-78854987D02*
X86084705Y-78813864D01*
X86084705Y-78813864D02*
X86043582Y-78772740D01*
X86043582Y-78772740D02*
X86002458Y-78690492D01*
X86002458Y-78690492D02*
X86002458Y-78443749D01*
X86002458Y-78443749D02*
X86043582Y-78361502D01*
X86043582Y-78361502D02*
X86084705Y-78320378D01*
X86084705Y-78320378D02*
X86166953Y-78279254D01*
X86166953Y-78279254D02*
X86290324Y-78279254D01*
X86290324Y-78279254D02*
X86372572Y-78320378D01*
X86372572Y-78320378D02*
X86413696Y-78361502D01*
X86413696Y-78361502D02*
X86454820Y-78443749D01*
X86454820Y-78443749D02*
X86454820Y-78690492D01*
X86454820Y-78690492D02*
X86413696Y-78772740D01*
X86413696Y-78772740D02*
X86372572Y-78813864D01*
X86372572Y-78813864D02*
X86290324Y-78854987D01*
X86290324Y-78854987D02*
X86166953Y-78854987D01*
X87195048Y-78279254D02*
X87195048Y-78854987D01*
X86824934Y-78279254D02*
X86824934Y-78731616D01*
X86824934Y-78731616D02*
X86866057Y-78813864D01*
X86866057Y-78813864D02*
X86948305Y-78854987D01*
X86948305Y-78854987D02*
X87071676Y-78854987D01*
X87071676Y-78854987D02*
X87153924Y-78813864D01*
X87153924Y-78813864D02*
X87195048Y-78772740D01*
X87482914Y-78279254D02*
X87811905Y-78279254D01*
X87606286Y-77991387D02*
X87606286Y-78731616D01*
X87606286Y-78731616D02*
X87647409Y-78813864D01*
X87647409Y-78813864D02*
X87729657Y-78854987D01*
X87729657Y-78854987D02*
X87811905Y-78854987D01*
X88428762Y-78813864D02*
X88346514Y-78854987D01*
X88346514Y-78854987D02*
X88182019Y-78854987D01*
X88182019Y-78854987D02*
X88099772Y-78813864D01*
X88099772Y-78813864D02*
X88058648Y-78731616D01*
X88058648Y-78731616D02*
X88058648Y-78402625D01*
X88058648Y-78402625D02*
X88099772Y-78320378D01*
X88099772Y-78320378D02*
X88182019Y-78279254D01*
X88182019Y-78279254D02*
X88346514Y-78279254D01*
X88346514Y-78279254D02*
X88428762Y-78320378D01*
X88428762Y-78320378D02*
X88469886Y-78402625D01*
X88469886Y-78402625D02*
X88469886Y-78484873D01*
X88469886Y-78484873D02*
X88058648Y-78567121D01*
X89662477Y-77991387D02*
X89826972Y-77991387D01*
X89826972Y-77991387D02*
X89909220Y-78032511D01*
X89909220Y-78032511D02*
X89991467Y-78114759D01*
X89991467Y-78114759D02*
X90032591Y-78279254D01*
X90032591Y-78279254D02*
X90032591Y-78567121D01*
X90032591Y-78567121D02*
X89991467Y-78731616D01*
X89991467Y-78731616D02*
X89909220Y-78813864D01*
X89909220Y-78813864D02*
X89826972Y-78854987D01*
X89826972Y-78854987D02*
X89662477Y-78854987D01*
X89662477Y-78854987D02*
X89580229Y-78813864D01*
X89580229Y-78813864D02*
X89497982Y-78731616D01*
X89497982Y-78731616D02*
X89456858Y-78567121D01*
X89456858Y-78567121D02*
X89456858Y-78279254D01*
X89456858Y-78279254D02*
X89497982Y-78114759D01*
X89497982Y-78114759D02*
X89580229Y-78032511D01*
X89580229Y-78032511D02*
X89662477Y-77991387D01*
X90772820Y-78279254D02*
X90772820Y-78854987D01*
X90402706Y-78279254D02*
X90402706Y-78731616D01*
X90402706Y-78731616D02*
X90443829Y-78813864D01*
X90443829Y-78813864D02*
X90526077Y-78854987D01*
X90526077Y-78854987D02*
X90649448Y-78854987D01*
X90649448Y-78854987D02*
X90731696Y-78813864D01*
X90731696Y-78813864D02*
X90772820Y-78772740D01*
X91060686Y-78279254D02*
X91389677Y-78279254D01*
X91184058Y-77991387D02*
X91184058Y-78731616D01*
X91184058Y-78731616D02*
X91225181Y-78813864D01*
X91225181Y-78813864D02*
X91307429Y-78854987D01*
X91307429Y-78854987D02*
X91389677Y-78854987D01*
D12*
X82865561Y-87649767D02*
X82314381Y-86862367D01*
X81920681Y-87649767D02*
X81920681Y-85996227D01*
X81920681Y-85996227D02*
X82550601Y-85996227D01*
X82550601Y-85996227D02*
X82708081Y-86074967D01*
X82708081Y-86074967D02*
X82786821Y-86153707D01*
X82786821Y-86153707D02*
X82865561Y-86311187D01*
X82865561Y-86311187D02*
X82865561Y-86547407D01*
X82865561Y-86547407D02*
X82786821Y-86704887D01*
X82786821Y-86704887D02*
X82708081Y-86783627D01*
X82708081Y-86783627D02*
X82550601Y-86862367D01*
X82550601Y-86862367D02*
X81920681Y-86862367D01*
X83810441Y-87649767D02*
X83652961Y-87571027D01*
X83652961Y-87571027D02*
X83574221Y-87492287D01*
X83574221Y-87492287D02*
X83495481Y-87334807D01*
X83495481Y-87334807D02*
X83495481Y-86862367D01*
X83495481Y-86862367D02*
X83574221Y-86704887D01*
X83574221Y-86704887D02*
X83652961Y-86626147D01*
X83652961Y-86626147D02*
X83810441Y-86547407D01*
X83810441Y-86547407D02*
X84046661Y-86547407D01*
X84046661Y-86547407D02*
X84204141Y-86626147D01*
X84204141Y-86626147D02*
X84282881Y-86704887D01*
X84282881Y-86704887D02*
X84361621Y-86862367D01*
X84361621Y-86862367D02*
X84361621Y-87334807D01*
X84361621Y-87334807D02*
X84282881Y-87492287D01*
X84282881Y-87492287D02*
X84204141Y-87571027D01*
X84204141Y-87571027D02*
X84046661Y-87649767D01*
X84046661Y-87649767D02*
X83810441Y-87649767D01*
X85778941Y-86547407D02*
X85778941Y-87649767D01*
X85070281Y-86547407D02*
X85070281Y-87413547D01*
X85070281Y-87413547D02*
X85149021Y-87571027D01*
X85149021Y-87571027D02*
X85306501Y-87649767D01*
X85306501Y-87649767D02*
X85542721Y-87649767D01*
X85542721Y-87649767D02*
X85700201Y-87571027D01*
X85700201Y-87571027D02*
X85778941Y-87492287D01*
X86330121Y-86547407D02*
X86960041Y-86547407D01*
X86566341Y-85996227D02*
X86566341Y-87413547D01*
X86566341Y-87413547D02*
X86645081Y-87571027D01*
X86645081Y-87571027D02*
X86802561Y-87649767D01*
X86802561Y-87649767D02*
X86960041Y-87649767D01*
X88141141Y-87571027D02*
X87983661Y-87649767D01*
X87983661Y-87649767D02*
X87668701Y-87649767D01*
X87668701Y-87649767D02*
X87511221Y-87571027D01*
X87511221Y-87571027D02*
X87432481Y-87413547D01*
X87432481Y-87413547D02*
X87432481Y-86783627D01*
X87432481Y-86783627D02*
X87511221Y-86626147D01*
X87511221Y-86626147D02*
X87668701Y-86547407D01*
X87668701Y-86547407D02*
X87983661Y-86547407D01*
X87983661Y-86547407D02*
X88141141Y-86626147D01*
X88141141Y-86626147D02*
X88219881Y-86783627D01*
X88219881Y-86783627D02*
X88219881Y-86941107D01*
X88219881Y-86941107D02*
X87432481Y-87098587D01*
X90503341Y-85996227D02*
X90818301Y-85996227D01*
X90818301Y-85996227D02*
X90975781Y-86074967D01*
X90975781Y-86074967D02*
X91133261Y-86232447D01*
X91133261Y-86232447D02*
X91212001Y-86547407D01*
X91212001Y-86547407D02*
X91212001Y-87098587D01*
X91212001Y-87098587D02*
X91133261Y-87413547D01*
X91133261Y-87413547D02*
X90975781Y-87571027D01*
X90975781Y-87571027D02*
X90818301Y-87649767D01*
X90818301Y-87649767D02*
X90503341Y-87649767D01*
X90503341Y-87649767D02*
X90345861Y-87571027D01*
X90345861Y-87571027D02*
X90188381Y-87413547D01*
X90188381Y-87413547D02*
X90109641Y-87098587D01*
X90109641Y-87098587D02*
X90109641Y-86547407D01*
X90109641Y-86547407D02*
X90188381Y-86232447D01*
X90188381Y-86232447D02*
X90345861Y-86074967D01*
X90345861Y-86074967D02*
X90503341Y-85996227D01*
X92629321Y-86547407D02*
X92629321Y-87649767D01*
X91920661Y-86547407D02*
X91920661Y-87413547D01*
X91920661Y-87413547D02*
X91999401Y-87571027D01*
X91999401Y-87571027D02*
X92156881Y-87649767D01*
X92156881Y-87649767D02*
X92393101Y-87649767D01*
X92393101Y-87649767D02*
X92550581Y-87571027D01*
X92550581Y-87571027D02*
X92629321Y-87492287D01*
X93180501Y-86547407D02*
X93810421Y-86547407D01*
X93416721Y-85996227D02*
X93416721Y-87413547D01*
X93416721Y-87413547D02*
X93495461Y-87571027D01*
X93495461Y-87571027D02*
X93652941Y-87649767D01*
X93652941Y-87649767D02*
X93810421Y-87649767D01*
D11*
X85673467Y-68313987D02*
X85385601Y-67902749D01*
X85179982Y-68313987D02*
X85179982Y-67450387D01*
X85179982Y-67450387D02*
X85508972Y-67450387D01*
X85508972Y-67450387D02*
X85591220Y-67491511D01*
X85591220Y-67491511D02*
X85632343Y-67532635D01*
X85632343Y-67532635D02*
X85673467Y-67614883D01*
X85673467Y-67614883D02*
X85673467Y-67738254D01*
X85673467Y-67738254D02*
X85632343Y-67820502D01*
X85632343Y-67820502D02*
X85591220Y-67861625D01*
X85591220Y-67861625D02*
X85508972Y-67902749D01*
X85508972Y-67902749D02*
X85179982Y-67902749D01*
X86166953Y-68313987D02*
X86084705Y-68272864D01*
X86084705Y-68272864D02*
X86043582Y-68231740D01*
X86043582Y-68231740D02*
X86002458Y-68149492D01*
X86002458Y-68149492D02*
X86002458Y-67902749D01*
X86002458Y-67902749D02*
X86043582Y-67820502D01*
X86043582Y-67820502D02*
X86084705Y-67779378D01*
X86084705Y-67779378D02*
X86166953Y-67738254D01*
X86166953Y-67738254D02*
X86290324Y-67738254D01*
X86290324Y-67738254D02*
X86372572Y-67779378D01*
X86372572Y-67779378D02*
X86413696Y-67820502D01*
X86413696Y-67820502D02*
X86454820Y-67902749D01*
X86454820Y-67902749D02*
X86454820Y-68149492D01*
X86454820Y-68149492D02*
X86413696Y-68231740D01*
X86413696Y-68231740D02*
X86372572Y-68272864D01*
X86372572Y-68272864D02*
X86290324Y-68313987D01*
X86290324Y-68313987D02*
X86166953Y-68313987D01*
X87195048Y-67738254D02*
X87195048Y-68313987D01*
X86824934Y-67738254D02*
X86824934Y-68190616D01*
X86824934Y-68190616D02*
X86866057Y-68272864D01*
X86866057Y-68272864D02*
X86948305Y-68313987D01*
X86948305Y-68313987D02*
X87071676Y-68313987D01*
X87071676Y-68313987D02*
X87153924Y-68272864D01*
X87153924Y-68272864D02*
X87195048Y-68231740D01*
X87482914Y-67738254D02*
X87811905Y-67738254D01*
X87606286Y-67450387D02*
X87606286Y-68190616D01*
X87606286Y-68190616D02*
X87647409Y-68272864D01*
X87647409Y-68272864D02*
X87729657Y-68313987D01*
X87729657Y-68313987D02*
X87811905Y-68313987D01*
X88428762Y-68272864D02*
X88346514Y-68313987D01*
X88346514Y-68313987D02*
X88182019Y-68313987D01*
X88182019Y-68313987D02*
X88099772Y-68272864D01*
X88099772Y-68272864D02*
X88058648Y-68190616D01*
X88058648Y-68190616D02*
X88058648Y-67861625D01*
X88058648Y-67861625D02*
X88099772Y-67779378D01*
X88099772Y-67779378D02*
X88182019Y-67738254D01*
X88182019Y-67738254D02*
X88346514Y-67738254D01*
X88346514Y-67738254D02*
X88428762Y-67779378D01*
X88428762Y-67779378D02*
X88469886Y-67861625D01*
X88469886Y-67861625D02*
X88469886Y-67943873D01*
X88469886Y-67943873D02*
X88058648Y-68026121D01*
X89662477Y-67450387D02*
X89826972Y-67450387D01*
X89826972Y-67450387D02*
X89909220Y-67491511D01*
X89909220Y-67491511D02*
X89991467Y-67573759D01*
X89991467Y-67573759D02*
X90032591Y-67738254D01*
X90032591Y-67738254D02*
X90032591Y-68026121D01*
X90032591Y-68026121D02*
X89991467Y-68190616D01*
X89991467Y-68190616D02*
X89909220Y-68272864D01*
X89909220Y-68272864D02*
X89826972Y-68313987D01*
X89826972Y-68313987D02*
X89662477Y-68313987D01*
X89662477Y-68313987D02*
X89580229Y-68272864D01*
X89580229Y-68272864D02*
X89497982Y-68190616D01*
X89497982Y-68190616D02*
X89456858Y-68026121D01*
X89456858Y-68026121D02*
X89456858Y-67738254D01*
X89456858Y-67738254D02*
X89497982Y-67573759D01*
X89497982Y-67573759D02*
X89580229Y-67491511D01*
X89580229Y-67491511D02*
X89662477Y-67450387D01*
X90772820Y-67738254D02*
X90772820Y-68313987D01*
X90402706Y-67738254D02*
X90402706Y-68190616D01*
X90402706Y-68190616D02*
X90443829Y-68272864D01*
X90443829Y-68272864D02*
X90526077Y-68313987D01*
X90526077Y-68313987D02*
X90649448Y-68313987D01*
X90649448Y-68313987D02*
X90731696Y-68272864D01*
X90731696Y-68272864D02*
X90772820Y-68231740D01*
X91060686Y-67738254D02*
X91389677Y-67738254D01*
X91184058Y-67450387D02*
X91184058Y-68190616D01*
X91184058Y-68190616D02*
X91225181Y-68272864D01*
X91225181Y-68272864D02*
X91307429Y-68313987D01*
X91307429Y-68313987D02*
X91389677Y-68313987D01*
D12*
X157541561Y-127019767D02*
X156990381Y-126232367D01*
X156596681Y-127019767D02*
X156596681Y-125366227D01*
X156596681Y-125366227D02*
X157226601Y-125366227D01*
X157226601Y-125366227D02*
X157384081Y-125444967D01*
X157384081Y-125444967D02*
X157462821Y-125523707D01*
X157462821Y-125523707D02*
X157541561Y-125681187D01*
X157541561Y-125681187D02*
X157541561Y-125917407D01*
X157541561Y-125917407D02*
X157462821Y-126074887D01*
X157462821Y-126074887D02*
X157384081Y-126153627D01*
X157384081Y-126153627D02*
X157226601Y-126232367D01*
X157226601Y-126232367D02*
X156596681Y-126232367D01*
X158486441Y-127019767D02*
X158328961Y-126941027D01*
X158328961Y-126941027D02*
X158250221Y-126862287D01*
X158250221Y-126862287D02*
X158171481Y-126704807D01*
X158171481Y-126704807D02*
X158171481Y-126232367D01*
X158171481Y-126232367D02*
X158250221Y-126074887D01*
X158250221Y-126074887D02*
X158328961Y-125996147D01*
X158328961Y-125996147D02*
X158486441Y-125917407D01*
X158486441Y-125917407D02*
X158722661Y-125917407D01*
X158722661Y-125917407D02*
X158880141Y-125996147D01*
X158880141Y-125996147D02*
X158958881Y-126074887D01*
X158958881Y-126074887D02*
X159037621Y-126232367D01*
X159037621Y-126232367D02*
X159037621Y-126704807D01*
X159037621Y-126704807D02*
X158958881Y-126862287D01*
X158958881Y-126862287D02*
X158880141Y-126941027D01*
X158880141Y-126941027D02*
X158722661Y-127019767D01*
X158722661Y-127019767D02*
X158486441Y-127019767D01*
X160454941Y-125917407D02*
X160454941Y-127019767D01*
X159746281Y-125917407D02*
X159746281Y-126783547D01*
X159746281Y-126783547D02*
X159825021Y-126941027D01*
X159825021Y-126941027D02*
X159982501Y-127019767D01*
X159982501Y-127019767D02*
X160218721Y-127019767D01*
X160218721Y-127019767D02*
X160376201Y-126941027D01*
X160376201Y-126941027D02*
X160454941Y-126862287D01*
X161006121Y-125917407D02*
X161636041Y-125917407D01*
X161242341Y-125366227D02*
X161242341Y-126783547D01*
X161242341Y-126783547D02*
X161321081Y-126941027D01*
X161321081Y-126941027D02*
X161478561Y-127019767D01*
X161478561Y-127019767D02*
X161636041Y-127019767D01*
X162817141Y-126941027D02*
X162659661Y-127019767D01*
X162659661Y-127019767D02*
X162344701Y-127019767D01*
X162344701Y-127019767D02*
X162187221Y-126941027D01*
X162187221Y-126941027D02*
X162108481Y-126783547D01*
X162108481Y-126783547D02*
X162108481Y-126153627D01*
X162108481Y-126153627D02*
X162187221Y-125996147D01*
X162187221Y-125996147D02*
X162344701Y-125917407D01*
X162344701Y-125917407D02*
X162659661Y-125917407D01*
X162659661Y-125917407D02*
X162817141Y-125996147D01*
X162817141Y-125996147D02*
X162895881Y-126153627D01*
X162895881Y-126153627D02*
X162895881Y-126311107D01*
X162895881Y-126311107D02*
X162108481Y-126468587D01*
X165179341Y-125366227D02*
X165494301Y-125366227D01*
X165494301Y-125366227D02*
X165651781Y-125444967D01*
X165651781Y-125444967D02*
X165809261Y-125602447D01*
X165809261Y-125602447D02*
X165888001Y-125917407D01*
X165888001Y-125917407D02*
X165888001Y-126468587D01*
X165888001Y-126468587D02*
X165809261Y-126783547D01*
X165809261Y-126783547D02*
X165651781Y-126941027D01*
X165651781Y-126941027D02*
X165494301Y-127019767D01*
X165494301Y-127019767D02*
X165179341Y-127019767D01*
X165179341Y-127019767D02*
X165021861Y-126941027D01*
X165021861Y-126941027D02*
X164864381Y-126783547D01*
X164864381Y-126783547D02*
X164785641Y-126468587D01*
X164785641Y-126468587D02*
X164785641Y-125917407D01*
X164785641Y-125917407D02*
X164864381Y-125602447D01*
X164864381Y-125602447D02*
X165021861Y-125444967D01*
X165021861Y-125444967D02*
X165179341Y-125366227D01*
X167305321Y-125917407D02*
X167305321Y-127019767D01*
X166596661Y-125917407D02*
X166596661Y-126783547D01*
X166596661Y-126783547D02*
X166675401Y-126941027D01*
X166675401Y-126941027D02*
X166832881Y-127019767D01*
X166832881Y-127019767D02*
X167069101Y-127019767D01*
X167069101Y-127019767D02*
X167226581Y-126941027D01*
X167226581Y-126941027D02*
X167305321Y-126862287D01*
X167856501Y-125917407D02*
X168486421Y-125917407D01*
X168092721Y-125366227D02*
X168092721Y-126783547D01*
X168092721Y-126783547D02*
X168171461Y-126941027D01*
X168171461Y-126941027D02*
X168328941Y-127019767D01*
X168328941Y-127019767D02*
X168486421Y-127019767D01*
X129601561Y-87649767D02*
X129050381Y-86862367D01*
X128656681Y-87649767D02*
X128656681Y-85996227D01*
X128656681Y-85996227D02*
X129286601Y-85996227D01*
X129286601Y-85996227D02*
X129444081Y-86074967D01*
X129444081Y-86074967D02*
X129522821Y-86153707D01*
X129522821Y-86153707D02*
X129601561Y-86311187D01*
X129601561Y-86311187D02*
X129601561Y-86547407D01*
X129601561Y-86547407D02*
X129522821Y-86704887D01*
X129522821Y-86704887D02*
X129444081Y-86783627D01*
X129444081Y-86783627D02*
X129286601Y-86862367D01*
X129286601Y-86862367D02*
X128656681Y-86862367D01*
X130546441Y-87649767D02*
X130388961Y-87571027D01*
X130388961Y-87571027D02*
X130310221Y-87492287D01*
X130310221Y-87492287D02*
X130231481Y-87334807D01*
X130231481Y-87334807D02*
X130231481Y-86862367D01*
X130231481Y-86862367D02*
X130310221Y-86704887D01*
X130310221Y-86704887D02*
X130388961Y-86626147D01*
X130388961Y-86626147D02*
X130546441Y-86547407D01*
X130546441Y-86547407D02*
X130782661Y-86547407D01*
X130782661Y-86547407D02*
X130940141Y-86626147D01*
X130940141Y-86626147D02*
X131018881Y-86704887D01*
X131018881Y-86704887D02*
X131097621Y-86862367D01*
X131097621Y-86862367D02*
X131097621Y-87334807D01*
X131097621Y-87334807D02*
X131018881Y-87492287D01*
X131018881Y-87492287D02*
X130940141Y-87571027D01*
X130940141Y-87571027D02*
X130782661Y-87649767D01*
X130782661Y-87649767D02*
X130546441Y-87649767D01*
X132514941Y-86547407D02*
X132514941Y-87649767D01*
X131806281Y-86547407D02*
X131806281Y-87413547D01*
X131806281Y-87413547D02*
X131885021Y-87571027D01*
X131885021Y-87571027D02*
X132042501Y-87649767D01*
X132042501Y-87649767D02*
X132278721Y-87649767D01*
X132278721Y-87649767D02*
X132436201Y-87571027D01*
X132436201Y-87571027D02*
X132514941Y-87492287D01*
X133066121Y-86547407D02*
X133696041Y-86547407D01*
X133302341Y-85996227D02*
X133302341Y-87413547D01*
X133302341Y-87413547D02*
X133381081Y-87571027D01*
X133381081Y-87571027D02*
X133538561Y-87649767D01*
X133538561Y-87649767D02*
X133696041Y-87649767D01*
X134877141Y-87571027D02*
X134719661Y-87649767D01*
X134719661Y-87649767D02*
X134404701Y-87649767D01*
X134404701Y-87649767D02*
X134247221Y-87571027D01*
X134247221Y-87571027D02*
X134168481Y-87413547D01*
X134168481Y-87413547D02*
X134168481Y-86783627D01*
X134168481Y-86783627D02*
X134247221Y-86626147D01*
X134247221Y-86626147D02*
X134404701Y-86547407D01*
X134404701Y-86547407D02*
X134719661Y-86547407D01*
X134719661Y-86547407D02*
X134877141Y-86626147D01*
X134877141Y-86626147D02*
X134955881Y-86783627D01*
X134955881Y-86783627D02*
X134955881Y-86941107D01*
X134955881Y-86941107D02*
X134168481Y-87098587D01*
X137239341Y-85996227D02*
X137554301Y-85996227D01*
X137554301Y-85996227D02*
X137711781Y-86074967D01*
X137711781Y-86074967D02*
X137869261Y-86232447D01*
X137869261Y-86232447D02*
X137948001Y-86547407D01*
X137948001Y-86547407D02*
X137948001Y-87098587D01*
X137948001Y-87098587D02*
X137869261Y-87413547D01*
X137869261Y-87413547D02*
X137711781Y-87571027D01*
X137711781Y-87571027D02*
X137554301Y-87649767D01*
X137554301Y-87649767D02*
X137239341Y-87649767D01*
X137239341Y-87649767D02*
X137081861Y-87571027D01*
X137081861Y-87571027D02*
X136924381Y-87413547D01*
X136924381Y-87413547D02*
X136845641Y-87098587D01*
X136845641Y-87098587D02*
X136845641Y-86547407D01*
X136845641Y-86547407D02*
X136924381Y-86232447D01*
X136924381Y-86232447D02*
X137081861Y-86074967D01*
X137081861Y-86074967D02*
X137239341Y-85996227D01*
X139365321Y-86547407D02*
X139365321Y-87649767D01*
X138656661Y-86547407D02*
X138656661Y-87413547D01*
X138656661Y-87413547D02*
X138735401Y-87571027D01*
X138735401Y-87571027D02*
X138892881Y-87649767D01*
X138892881Y-87649767D02*
X139129101Y-87649767D01*
X139129101Y-87649767D02*
X139286581Y-87571027D01*
X139286581Y-87571027D02*
X139365321Y-87492287D01*
X139916501Y-86547407D02*
X140546421Y-86547407D01*
X140152721Y-85996227D02*
X140152721Y-87413547D01*
X140152721Y-87413547D02*
X140231461Y-87571027D01*
X140231461Y-87571027D02*
X140388941Y-87649767D01*
X140388941Y-87649767D02*
X140546421Y-87649767D01*
X122489561Y-48025767D02*
X121938381Y-47238367D01*
X121544681Y-48025767D02*
X121544681Y-46372227D01*
X121544681Y-46372227D02*
X122174601Y-46372227D01*
X122174601Y-46372227D02*
X122332081Y-46450967D01*
X122332081Y-46450967D02*
X122410821Y-46529707D01*
X122410821Y-46529707D02*
X122489561Y-46687187D01*
X122489561Y-46687187D02*
X122489561Y-46923407D01*
X122489561Y-46923407D02*
X122410821Y-47080887D01*
X122410821Y-47080887D02*
X122332081Y-47159627D01*
X122332081Y-47159627D02*
X122174601Y-47238367D01*
X122174601Y-47238367D02*
X121544681Y-47238367D01*
X123434441Y-48025767D02*
X123276961Y-47947027D01*
X123276961Y-47947027D02*
X123198221Y-47868287D01*
X123198221Y-47868287D02*
X123119481Y-47710807D01*
X123119481Y-47710807D02*
X123119481Y-47238367D01*
X123119481Y-47238367D02*
X123198221Y-47080887D01*
X123198221Y-47080887D02*
X123276961Y-47002147D01*
X123276961Y-47002147D02*
X123434441Y-46923407D01*
X123434441Y-46923407D02*
X123670661Y-46923407D01*
X123670661Y-46923407D02*
X123828141Y-47002147D01*
X123828141Y-47002147D02*
X123906881Y-47080887D01*
X123906881Y-47080887D02*
X123985621Y-47238367D01*
X123985621Y-47238367D02*
X123985621Y-47710807D01*
X123985621Y-47710807D02*
X123906881Y-47868287D01*
X123906881Y-47868287D02*
X123828141Y-47947027D01*
X123828141Y-47947027D02*
X123670661Y-48025767D01*
X123670661Y-48025767D02*
X123434441Y-48025767D01*
X125402941Y-46923407D02*
X125402941Y-48025767D01*
X124694281Y-46923407D02*
X124694281Y-47789547D01*
X124694281Y-47789547D02*
X124773021Y-47947027D01*
X124773021Y-47947027D02*
X124930501Y-48025767D01*
X124930501Y-48025767D02*
X125166721Y-48025767D01*
X125166721Y-48025767D02*
X125324201Y-47947027D01*
X125324201Y-47947027D02*
X125402941Y-47868287D01*
X125954121Y-46923407D02*
X126584041Y-46923407D01*
X126190341Y-46372227D02*
X126190341Y-47789547D01*
X126190341Y-47789547D02*
X126269081Y-47947027D01*
X126269081Y-47947027D02*
X126426561Y-48025767D01*
X126426561Y-48025767D02*
X126584041Y-48025767D01*
X127765141Y-47947027D02*
X127607661Y-48025767D01*
X127607661Y-48025767D02*
X127292701Y-48025767D01*
X127292701Y-48025767D02*
X127135221Y-47947027D01*
X127135221Y-47947027D02*
X127056481Y-47789547D01*
X127056481Y-47789547D02*
X127056481Y-47159627D01*
X127056481Y-47159627D02*
X127135221Y-47002147D01*
X127135221Y-47002147D02*
X127292701Y-46923407D01*
X127292701Y-46923407D02*
X127607661Y-46923407D01*
X127607661Y-46923407D02*
X127765141Y-47002147D01*
X127765141Y-47002147D02*
X127843881Y-47159627D01*
X127843881Y-47159627D02*
X127843881Y-47317107D01*
X127843881Y-47317107D02*
X127056481Y-47474587D01*
X130127341Y-46372227D02*
X130442301Y-46372227D01*
X130442301Y-46372227D02*
X130599781Y-46450967D01*
X130599781Y-46450967D02*
X130757261Y-46608447D01*
X130757261Y-46608447D02*
X130836001Y-46923407D01*
X130836001Y-46923407D02*
X130836001Y-47474587D01*
X130836001Y-47474587D02*
X130757261Y-47789547D01*
X130757261Y-47789547D02*
X130599781Y-47947027D01*
X130599781Y-47947027D02*
X130442301Y-48025767D01*
X130442301Y-48025767D02*
X130127341Y-48025767D01*
X130127341Y-48025767D02*
X129969861Y-47947027D01*
X129969861Y-47947027D02*
X129812381Y-47789547D01*
X129812381Y-47789547D02*
X129733641Y-47474587D01*
X129733641Y-47474587D02*
X129733641Y-46923407D01*
X129733641Y-46923407D02*
X129812381Y-46608447D01*
X129812381Y-46608447D02*
X129969861Y-46450967D01*
X129969861Y-46450967D02*
X130127341Y-46372227D01*
X132253321Y-46923407D02*
X132253321Y-48025767D01*
X131544661Y-46923407D02*
X131544661Y-47789547D01*
X131544661Y-47789547D02*
X131623401Y-47947027D01*
X131623401Y-47947027D02*
X131780881Y-48025767D01*
X131780881Y-48025767D02*
X132017101Y-48025767D01*
X132017101Y-48025767D02*
X132174581Y-47947027D01*
X132174581Y-47947027D02*
X132253321Y-47868287D01*
X132804501Y-46923407D02*
X133434421Y-46923407D01*
X133040721Y-46372227D02*
X133040721Y-47789547D01*
X133040721Y-47789547D02*
X133119461Y-47947027D01*
X133119461Y-47947027D02*
X133276941Y-48025767D01*
X133276941Y-48025767D02*
X133434421Y-48025767D01*
D11*
X157301467Y-107683987D02*
X157013601Y-107272749D01*
X156807982Y-107683987D02*
X156807982Y-106820387D01*
X156807982Y-106820387D02*
X157136972Y-106820387D01*
X157136972Y-106820387D02*
X157219220Y-106861511D01*
X157219220Y-106861511D02*
X157260343Y-106902635D01*
X157260343Y-106902635D02*
X157301467Y-106984883D01*
X157301467Y-106984883D02*
X157301467Y-107108254D01*
X157301467Y-107108254D02*
X157260343Y-107190502D01*
X157260343Y-107190502D02*
X157219220Y-107231625D01*
X157219220Y-107231625D02*
X157136972Y-107272749D01*
X157136972Y-107272749D02*
X156807982Y-107272749D01*
X157794953Y-107683987D02*
X157712705Y-107642864D01*
X157712705Y-107642864D02*
X157671582Y-107601740D01*
X157671582Y-107601740D02*
X157630458Y-107519492D01*
X157630458Y-107519492D02*
X157630458Y-107272749D01*
X157630458Y-107272749D02*
X157671582Y-107190502D01*
X157671582Y-107190502D02*
X157712705Y-107149378D01*
X157712705Y-107149378D02*
X157794953Y-107108254D01*
X157794953Y-107108254D02*
X157918324Y-107108254D01*
X157918324Y-107108254D02*
X158000572Y-107149378D01*
X158000572Y-107149378D02*
X158041696Y-107190502D01*
X158041696Y-107190502D02*
X158082820Y-107272749D01*
X158082820Y-107272749D02*
X158082820Y-107519492D01*
X158082820Y-107519492D02*
X158041696Y-107601740D01*
X158041696Y-107601740D02*
X158000572Y-107642864D01*
X158000572Y-107642864D02*
X157918324Y-107683987D01*
X157918324Y-107683987D02*
X157794953Y-107683987D01*
X158823048Y-107108254D02*
X158823048Y-107683987D01*
X158452934Y-107108254D02*
X158452934Y-107560616D01*
X158452934Y-107560616D02*
X158494057Y-107642864D01*
X158494057Y-107642864D02*
X158576305Y-107683987D01*
X158576305Y-107683987D02*
X158699676Y-107683987D01*
X158699676Y-107683987D02*
X158781924Y-107642864D01*
X158781924Y-107642864D02*
X158823048Y-107601740D01*
X159110914Y-107108254D02*
X159439905Y-107108254D01*
X159234286Y-106820387D02*
X159234286Y-107560616D01*
X159234286Y-107560616D02*
X159275409Y-107642864D01*
X159275409Y-107642864D02*
X159357657Y-107683987D01*
X159357657Y-107683987D02*
X159439905Y-107683987D01*
X160056762Y-107642864D02*
X159974514Y-107683987D01*
X159974514Y-107683987D02*
X159810019Y-107683987D01*
X159810019Y-107683987D02*
X159727772Y-107642864D01*
X159727772Y-107642864D02*
X159686648Y-107560616D01*
X159686648Y-107560616D02*
X159686648Y-107231625D01*
X159686648Y-107231625D02*
X159727772Y-107149378D01*
X159727772Y-107149378D02*
X159810019Y-107108254D01*
X159810019Y-107108254D02*
X159974514Y-107108254D01*
X159974514Y-107108254D02*
X160056762Y-107149378D01*
X160056762Y-107149378D02*
X160097886Y-107231625D01*
X160097886Y-107231625D02*
X160097886Y-107313873D01*
X160097886Y-107313873D02*
X159686648Y-107396121D01*
X161290477Y-106820387D02*
X161454972Y-106820387D01*
X161454972Y-106820387D02*
X161537220Y-106861511D01*
X161537220Y-106861511D02*
X161619467Y-106943759D01*
X161619467Y-106943759D02*
X161660591Y-107108254D01*
X161660591Y-107108254D02*
X161660591Y-107396121D01*
X161660591Y-107396121D02*
X161619467Y-107560616D01*
X161619467Y-107560616D02*
X161537220Y-107642864D01*
X161537220Y-107642864D02*
X161454972Y-107683987D01*
X161454972Y-107683987D02*
X161290477Y-107683987D01*
X161290477Y-107683987D02*
X161208229Y-107642864D01*
X161208229Y-107642864D02*
X161125982Y-107560616D01*
X161125982Y-107560616D02*
X161084858Y-107396121D01*
X161084858Y-107396121D02*
X161084858Y-107108254D01*
X161084858Y-107108254D02*
X161125982Y-106943759D01*
X161125982Y-106943759D02*
X161208229Y-106861511D01*
X161208229Y-106861511D02*
X161290477Y-106820387D01*
X162400820Y-107108254D02*
X162400820Y-107683987D01*
X162030706Y-107108254D02*
X162030706Y-107560616D01*
X162030706Y-107560616D02*
X162071829Y-107642864D01*
X162071829Y-107642864D02*
X162154077Y-107683987D01*
X162154077Y-107683987D02*
X162277448Y-107683987D01*
X162277448Y-107683987D02*
X162359696Y-107642864D01*
X162359696Y-107642864D02*
X162400820Y-107601740D01*
X162688686Y-107108254D02*
X163017677Y-107108254D01*
X162812058Y-106820387D02*
X162812058Y-107560616D01*
X162812058Y-107560616D02*
X162853181Y-107642864D01*
X162853181Y-107642864D02*
X162935429Y-107683987D01*
X162935429Y-107683987D02*
X163017677Y-107683987D01*
D12*
X197927561Y-48279767D02*
X197376381Y-47492367D01*
X196982681Y-48279767D02*
X196982681Y-46626227D01*
X196982681Y-46626227D02*
X197612601Y-46626227D01*
X197612601Y-46626227D02*
X197770081Y-46704967D01*
X197770081Y-46704967D02*
X197848821Y-46783707D01*
X197848821Y-46783707D02*
X197927561Y-46941187D01*
X197927561Y-46941187D02*
X197927561Y-47177407D01*
X197927561Y-47177407D02*
X197848821Y-47334887D01*
X197848821Y-47334887D02*
X197770081Y-47413627D01*
X197770081Y-47413627D02*
X197612601Y-47492367D01*
X197612601Y-47492367D02*
X196982681Y-47492367D01*
X198872441Y-48279767D02*
X198714961Y-48201027D01*
X198714961Y-48201027D02*
X198636221Y-48122287D01*
X198636221Y-48122287D02*
X198557481Y-47964807D01*
X198557481Y-47964807D02*
X198557481Y-47492367D01*
X198557481Y-47492367D02*
X198636221Y-47334887D01*
X198636221Y-47334887D02*
X198714961Y-47256147D01*
X198714961Y-47256147D02*
X198872441Y-47177407D01*
X198872441Y-47177407D02*
X199108661Y-47177407D01*
X199108661Y-47177407D02*
X199266141Y-47256147D01*
X199266141Y-47256147D02*
X199344881Y-47334887D01*
X199344881Y-47334887D02*
X199423621Y-47492367D01*
X199423621Y-47492367D02*
X199423621Y-47964807D01*
X199423621Y-47964807D02*
X199344881Y-48122287D01*
X199344881Y-48122287D02*
X199266141Y-48201027D01*
X199266141Y-48201027D02*
X199108661Y-48279767D01*
X199108661Y-48279767D02*
X198872441Y-48279767D01*
X200840941Y-47177407D02*
X200840941Y-48279767D01*
X200132281Y-47177407D02*
X200132281Y-48043547D01*
X200132281Y-48043547D02*
X200211021Y-48201027D01*
X200211021Y-48201027D02*
X200368501Y-48279767D01*
X200368501Y-48279767D02*
X200604721Y-48279767D01*
X200604721Y-48279767D02*
X200762201Y-48201027D01*
X200762201Y-48201027D02*
X200840941Y-48122287D01*
X201392121Y-47177407D02*
X202022041Y-47177407D01*
X201628341Y-46626227D02*
X201628341Y-48043547D01*
X201628341Y-48043547D02*
X201707081Y-48201027D01*
X201707081Y-48201027D02*
X201864561Y-48279767D01*
X201864561Y-48279767D02*
X202022041Y-48279767D01*
X203203141Y-48201027D02*
X203045661Y-48279767D01*
X203045661Y-48279767D02*
X202730701Y-48279767D01*
X202730701Y-48279767D02*
X202573221Y-48201027D01*
X202573221Y-48201027D02*
X202494481Y-48043547D01*
X202494481Y-48043547D02*
X202494481Y-47413627D01*
X202494481Y-47413627D02*
X202573221Y-47256147D01*
X202573221Y-47256147D02*
X202730701Y-47177407D01*
X202730701Y-47177407D02*
X203045661Y-47177407D01*
X203045661Y-47177407D02*
X203203141Y-47256147D01*
X203203141Y-47256147D02*
X203281881Y-47413627D01*
X203281881Y-47413627D02*
X203281881Y-47571107D01*
X203281881Y-47571107D02*
X202494481Y-47728587D01*
X205565341Y-46626227D02*
X205880301Y-46626227D01*
X205880301Y-46626227D02*
X206037781Y-46704967D01*
X206037781Y-46704967D02*
X206195261Y-46862447D01*
X206195261Y-46862447D02*
X206274001Y-47177407D01*
X206274001Y-47177407D02*
X206274001Y-47728587D01*
X206274001Y-47728587D02*
X206195261Y-48043547D01*
X206195261Y-48043547D02*
X206037781Y-48201027D01*
X206037781Y-48201027D02*
X205880301Y-48279767D01*
X205880301Y-48279767D02*
X205565341Y-48279767D01*
X205565341Y-48279767D02*
X205407861Y-48201027D01*
X205407861Y-48201027D02*
X205250381Y-48043547D01*
X205250381Y-48043547D02*
X205171641Y-47728587D01*
X205171641Y-47728587D02*
X205171641Y-47177407D01*
X205171641Y-47177407D02*
X205250381Y-46862447D01*
X205250381Y-46862447D02*
X205407861Y-46704967D01*
X205407861Y-46704967D02*
X205565341Y-46626227D01*
X207691321Y-47177407D02*
X207691321Y-48279767D01*
X206982661Y-47177407D02*
X206982661Y-48043547D01*
X206982661Y-48043547D02*
X207061401Y-48201027D01*
X207061401Y-48201027D02*
X207218881Y-48279767D01*
X207218881Y-48279767D02*
X207455101Y-48279767D01*
X207455101Y-48279767D02*
X207612581Y-48201027D01*
X207612581Y-48201027D02*
X207691321Y-48122287D01*
X208242501Y-47177407D02*
X208872421Y-47177407D01*
X208478721Y-46626227D02*
X208478721Y-48043547D01*
X208478721Y-48043547D02*
X208557461Y-48201027D01*
X208557461Y-48201027D02*
X208714941Y-48279767D01*
X208714941Y-48279767D02*
X208872421Y-48279767D01*
X162113561Y-48025767D02*
X161562381Y-47238367D01*
X161168681Y-48025767D02*
X161168681Y-46372227D01*
X161168681Y-46372227D02*
X161798601Y-46372227D01*
X161798601Y-46372227D02*
X161956081Y-46450967D01*
X161956081Y-46450967D02*
X162034821Y-46529707D01*
X162034821Y-46529707D02*
X162113561Y-46687187D01*
X162113561Y-46687187D02*
X162113561Y-46923407D01*
X162113561Y-46923407D02*
X162034821Y-47080887D01*
X162034821Y-47080887D02*
X161956081Y-47159627D01*
X161956081Y-47159627D02*
X161798601Y-47238367D01*
X161798601Y-47238367D02*
X161168681Y-47238367D01*
X163058441Y-48025767D02*
X162900961Y-47947027D01*
X162900961Y-47947027D02*
X162822221Y-47868287D01*
X162822221Y-47868287D02*
X162743481Y-47710807D01*
X162743481Y-47710807D02*
X162743481Y-47238367D01*
X162743481Y-47238367D02*
X162822221Y-47080887D01*
X162822221Y-47080887D02*
X162900961Y-47002147D01*
X162900961Y-47002147D02*
X163058441Y-46923407D01*
X163058441Y-46923407D02*
X163294661Y-46923407D01*
X163294661Y-46923407D02*
X163452141Y-47002147D01*
X163452141Y-47002147D02*
X163530881Y-47080887D01*
X163530881Y-47080887D02*
X163609621Y-47238367D01*
X163609621Y-47238367D02*
X163609621Y-47710807D01*
X163609621Y-47710807D02*
X163530881Y-47868287D01*
X163530881Y-47868287D02*
X163452141Y-47947027D01*
X163452141Y-47947027D02*
X163294661Y-48025767D01*
X163294661Y-48025767D02*
X163058441Y-48025767D01*
X165026941Y-46923407D02*
X165026941Y-48025767D01*
X164318281Y-46923407D02*
X164318281Y-47789547D01*
X164318281Y-47789547D02*
X164397021Y-47947027D01*
X164397021Y-47947027D02*
X164554501Y-48025767D01*
X164554501Y-48025767D02*
X164790721Y-48025767D01*
X164790721Y-48025767D02*
X164948201Y-47947027D01*
X164948201Y-47947027D02*
X165026941Y-47868287D01*
X165578121Y-46923407D02*
X166208041Y-46923407D01*
X165814341Y-46372227D02*
X165814341Y-47789547D01*
X165814341Y-47789547D02*
X165893081Y-47947027D01*
X165893081Y-47947027D02*
X166050561Y-48025767D01*
X166050561Y-48025767D02*
X166208041Y-48025767D01*
X167389141Y-47947027D02*
X167231661Y-48025767D01*
X167231661Y-48025767D02*
X166916701Y-48025767D01*
X166916701Y-48025767D02*
X166759221Y-47947027D01*
X166759221Y-47947027D02*
X166680481Y-47789547D01*
X166680481Y-47789547D02*
X166680481Y-47159627D01*
X166680481Y-47159627D02*
X166759221Y-47002147D01*
X166759221Y-47002147D02*
X166916701Y-46923407D01*
X166916701Y-46923407D02*
X167231661Y-46923407D01*
X167231661Y-46923407D02*
X167389141Y-47002147D01*
X167389141Y-47002147D02*
X167467881Y-47159627D01*
X167467881Y-47159627D02*
X167467881Y-47317107D01*
X167467881Y-47317107D02*
X166680481Y-47474587D01*
X169751341Y-46372227D02*
X170066301Y-46372227D01*
X170066301Y-46372227D02*
X170223781Y-46450967D01*
X170223781Y-46450967D02*
X170381261Y-46608447D01*
X170381261Y-46608447D02*
X170460001Y-46923407D01*
X170460001Y-46923407D02*
X170460001Y-47474587D01*
X170460001Y-47474587D02*
X170381261Y-47789547D01*
X170381261Y-47789547D02*
X170223781Y-47947027D01*
X170223781Y-47947027D02*
X170066301Y-48025767D01*
X170066301Y-48025767D02*
X169751341Y-48025767D01*
X169751341Y-48025767D02*
X169593861Y-47947027D01*
X169593861Y-47947027D02*
X169436381Y-47789547D01*
X169436381Y-47789547D02*
X169357641Y-47474587D01*
X169357641Y-47474587D02*
X169357641Y-46923407D01*
X169357641Y-46923407D02*
X169436381Y-46608447D01*
X169436381Y-46608447D02*
X169593861Y-46450967D01*
X169593861Y-46450967D02*
X169751341Y-46372227D01*
X171877321Y-46923407D02*
X171877321Y-48025767D01*
X171168661Y-46923407D02*
X171168661Y-47789547D01*
X171168661Y-47789547D02*
X171247401Y-47947027D01*
X171247401Y-47947027D02*
X171404881Y-48025767D01*
X171404881Y-48025767D02*
X171641101Y-48025767D01*
X171641101Y-48025767D02*
X171798581Y-47947027D01*
X171798581Y-47947027D02*
X171877321Y-47868287D01*
X172428501Y-46923407D02*
X173058421Y-46923407D01*
X172664721Y-46372227D02*
X172664721Y-47789547D01*
X172664721Y-47789547D02*
X172743461Y-47947027D01*
X172743461Y-47947027D02*
X172900941Y-48025767D01*
X172900941Y-48025767D02*
X173058421Y-48025767D01*
D11*
X157301467Y-78854987D02*
X157013601Y-78443749D01*
X156807982Y-78854987D02*
X156807982Y-77991387D01*
X156807982Y-77991387D02*
X157136972Y-77991387D01*
X157136972Y-77991387D02*
X157219220Y-78032511D01*
X157219220Y-78032511D02*
X157260343Y-78073635D01*
X157260343Y-78073635D02*
X157301467Y-78155883D01*
X157301467Y-78155883D02*
X157301467Y-78279254D01*
X157301467Y-78279254D02*
X157260343Y-78361502D01*
X157260343Y-78361502D02*
X157219220Y-78402625D01*
X157219220Y-78402625D02*
X157136972Y-78443749D01*
X157136972Y-78443749D02*
X156807982Y-78443749D01*
X157794953Y-78854987D02*
X157712705Y-78813864D01*
X157712705Y-78813864D02*
X157671582Y-78772740D01*
X157671582Y-78772740D02*
X157630458Y-78690492D01*
X157630458Y-78690492D02*
X157630458Y-78443749D01*
X157630458Y-78443749D02*
X157671582Y-78361502D01*
X157671582Y-78361502D02*
X157712705Y-78320378D01*
X157712705Y-78320378D02*
X157794953Y-78279254D01*
X157794953Y-78279254D02*
X157918324Y-78279254D01*
X157918324Y-78279254D02*
X158000572Y-78320378D01*
X158000572Y-78320378D02*
X158041696Y-78361502D01*
X158041696Y-78361502D02*
X158082820Y-78443749D01*
X158082820Y-78443749D02*
X158082820Y-78690492D01*
X158082820Y-78690492D02*
X158041696Y-78772740D01*
X158041696Y-78772740D02*
X158000572Y-78813864D01*
X158000572Y-78813864D02*
X157918324Y-78854987D01*
X157918324Y-78854987D02*
X157794953Y-78854987D01*
X158823048Y-78279254D02*
X158823048Y-78854987D01*
X158452934Y-78279254D02*
X158452934Y-78731616D01*
X158452934Y-78731616D02*
X158494057Y-78813864D01*
X158494057Y-78813864D02*
X158576305Y-78854987D01*
X158576305Y-78854987D02*
X158699676Y-78854987D01*
X158699676Y-78854987D02*
X158781924Y-78813864D01*
X158781924Y-78813864D02*
X158823048Y-78772740D01*
X159110914Y-78279254D02*
X159439905Y-78279254D01*
X159234286Y-77991387D02*
X159234286Y-78731616D01*
X159234286Y-78731616D02*
X159275409Y-78813864D01*
X159275409Y-78813864D02*
X159357657Y-78854987D01*
X159357657Y-78854987D02*
X159439905Y-78854987D01*
X160056762Y-78813864D02*
X159974514Y-78854987D01*
X159974514Y-78854987D02*
X159810019Y-78854987D01*
X159810019Y-78854987D02*
X159727772Y-78813864D01*
X159727772Y-78813864D02*
X159686648Y-78731616D01*
X159686648Y-78731616D02*
X159686648Y-78402625D01*
X159686648Y-78402625D02*
X159727772Y-78320378D01*
X159727772Y-78320378D02*
X159810019Y-78279254D01*
X159810019Y-78279254D02*
X159974514Y-78279254D01*
X159974514Y-78279254D02*
X160056762Y-78320378D01*
X160056762Y-78320378D02*
X160097886Y-78402625D01*
X160097886Y-78402625D02*
X160097886Y-78484873D01*
X160097886Y-78484873D02*
X159686648Y-78567121D01*
X161290477Y-77991387D02*
X161454972Y-77991387D01*
X161454972Y-77991387D02*
X161537220Y-78032511D01*
X161537220Y-78032511D02*
X161619467Y-78114759D01*
X161619467Y-78114759D02*
X161660591Y-78279254D01*
X161660591Y-78279254D02*
X161660591Y-78567121D01*
X161660591Y-78567121D02*
X161619467Y-78731616D01*
X161619467Y-78731616D02*
X161537220Y-78813864D01*
X161537220Y-78813864D02*
X161454972Y-78854987D01*
X161454972Y-78854987D02*
X161290477Y-78854987D01*
X161290477Y-78854987D02*
X161208229Y-78813864D01*
X161208229Y-78813864D02*
X161125982Y-78731616D01*
X161125982Y-78731616D02*
X161084858Y-78567121D01*
X161084858Y-78567121D02*
X161084858Y-78279254D01*
X161084858Y-78279254D02*
X161125982Y-78114759D01*
X161125982Y-78114759D02*
X161208229Y-78032511D01*
X161208229Y-78032511D02*
X161290477Y-77991387D01*
X162400820Y-78279254D02*
X162400820Y-78854987D01*
X162030706Y-78279254D02*
X162030706Y-78731616D01*
X162030706Y-78731616D02*
X162071829Y-78813864D01*
X162071829Y-78813864D02*
X162154077Y-78854987D01*
X162154077Y-78854987D02*
X162277448Y-78854987D01*
X162277448Y-78854987D02*
X162359696Y-78813864D01*
X162359696Y-78813864D02*
X162400820Y-78772740D01*
X162688686Y-78279254D02*
X163017677Y-78279254D01*
X162812058Y-77991387D02*
X162812058Y-78731616D01*
X162812058Y-78731616D02*
X162853181Y-78813864D01*
X162853181Y-78813864D02*
X162935429Y-78854987D01*
X162935429Y-78854987D02*
X163017677Y-78854987D01*
X85673467Y-157594987D02*
X85385601Y-157183749D01*
X85179982Y-157594987D02*
X85179982Y-156731387D01*
X85179982Y-156731387D02*
X85508972Y-156731387D01*
X85508972Y-156731387D02*
X85591220Y-156772511D01*
X85591220Y-156772511D02*
X85632343Y-156813635D01*
X85632343Y-156813635D02*
X85673467Y-156895883D01*
X85673467Y-156895883D02*
X85673467Y-157019254D01*
X85673467Y-157019254D02*
X85632343Y-157101502D01*
X85632343Y-157101502D02*
X85591220Y-157142625D01*
X85591220Y-157142625D02*
X85508972Y-157183749D01*
X85508972Y-157183749D02*
X85179982Y-157183749D01*
X86166953Y-157594987D02*
X86084705Y-157553864D01*
X86084705Y-157553864D02*
X86043582Y-157512740D01*
X86043582Y-157512740D02*
X86002458Y-157430492D01*
X86002458Y-157430492D02*
X86002458Y-157183749D01*
X86002458Y-157183749D02*
X86043582Y-157101502D01*
X86043582Y-157101502D02*
X86084705Y-157060378D01*
X86084705Y-157060378D02*
X86166953Y-157019254D01*
X86166953Y-157019254D02*
X86290324Y-157019254D01*
X86290324Y-157019254D02*
X86372572Y-157060378D01*
X86372572Y-157060378D02*
X86413696Y-157101502D01*
X86413696Y-157101502D02*
X86454820Y-157183749D01*
X86454820Y-157183749D02*
X86454820Y-157430492D01*
X86454820Y-157430492D02*
X86413696Y-157512740D01*
X86413696Y-157512740D02*
X86372572Y-157553864D01*
X86372572Y-157553864D02*
X86290324Y-157594987D01*
X86290324Y-157594987D02*
X86166953Y-157594987D01*
X87195048Y-157019254D02*
X87195048Y-157594987D01*
X86824934Y-157019254D02*
X86824934Y-157471616D01*
X86824934Y-157471616D02*
X86866057Y-157553864D01*
X86866057Y-157553864D02*
X86948305Y-157594987D01*
X86948305Y-157594987D02*
X87071676Y-157594987D01*
X87071676Y-157594987D02*
X87153924Y-157553864D01*
X87153924Y-157553864D02*
X87195048Y-157512740D01*
X87482914Y-157019254D02*
X87811905Y-157019254D01*
X87606286Y-156731387D02*
X87606286Y-157471616D01*
X87606286Y-157471616D02*
X87647409Y-157553864D01*
X87647409Y-157553864D02*
X87729657Y-157594987D01*
X87729657Y-157594987D02*
X87811905Y-157594987D01*
X88428762Y-157553864D02*
X88346514Y-157594987D01*
X88346514Y-157594987D02*
X88182019Y-157594987D01*
X88182019Y-157594987D02*
X88099772Y-157553864D01*
X88099772Y-157553864D02*
X88058648Y-157471616D01*
X88058648Y-157471616D02*
X88058648Y-157142625D01*
X88058648Y-157142625D02*
X88099772Y-157060378D01*
X88099772Y-157060378D02*
X88182019Y-157019254D01*
X88182019Y-157019254D02*
X88346514Y-157019254D01*
X88346514Y-157019254D02*
X88428762Y-157060378D01*
X88428762Y-157060378D02*
X88469886Y-157142625D01*
X88469886Y-157142625D02*
X88469886Y-157224873D01*
X88469886Y-157224873D02*
X88058648Y-157307121D01*
X89662477Y-156731387D02*
X89826972Y-156731387D01*
X89826972Y-156731387D02*
X89909220Y-156772511D01*
X89909220Y-156772511D02*
X89991467Y-156854759D01*
X89991467Y-156854759D02*
X90032591Y-157019254D01*
X90032591Y-157019254D02*
X90032591Y-157307121D01*
X90032591Y-157307121D02*
X89991467Y-157471616D01*
X89991467Y-157471616D02*
X89909220Y-157553864D01*
X89909220Y-157553864D02*
X89826972Y-157594987D01*
X89826972Y-157594987D02*
X89662477Y-157594987D01*
X89662477Y-157594987D02*
X89580229Y-157553864D01*
X89580229Y-157553864D02*
X89497982Y-157471616D01*
X89497982Y-157471616D02*
X89456858Y-157307121D01*
X89456858Y-157307121D02*
X89456858Y-157019254D01*
X89456858Y-157019254D02*
X89497982Y-156854759D01*
X89497982Y-156854759D02*
X89580229Y-156772511D01*
X89580229Y-156772511D02*
X89662477Y-156731387D01*
X90772820Y-157019254D02*
X90772820Y-157594987D01*
X90402706Y-157019254D02*
X90402706Y-157471616D01*
X90402706Y-157471616D02*
X90443829Y-157553864D01*
X90443829Y-157553864D02*
X90526077Y-157594987D01*
X90526077Y-157594987D02*
X90649448Y-157594987D01*
X90649448Y-157594987D02*
X90731696Y-157553864D01*
X90731696Y-157553864D02*
X90772820Y-157512740D01*
X91060686Y-157019254D02*
X91389677Y-157019254D01*
X91184058Y-156731387D02*
X91184058Y-157471616D01*
X91184058Y-157471616D02*
X91225181Y-157553864D01*
X91225181Y-157553864D02*
X91307429Y-157594987D01*
X91307429Y-157594987D02*
X91389677Y-157594987D01*
X157301467Y-118224987D02*
X157013601Y-117813749D01*
X156807982Y-118224987D02*
X156807982Y-117361387D01*
X156807982Y-117361387D02*
X157136972Y-117361387D01*
X157136972Y-117361387D02*
X157219220Y-117402511D01*
X157219220Y-117402511D02*
X157260343Y-117443635D01*
X157260343Y-117443635D02*
X157301467Y-117525883D01*
X157301467Y-117525883D02*
X157301467Y-117649254D01*
X157301467Y-117649254D02*
X157260343Y-117731502D01*
X157260343Y-117731502D02*
X157219220Y-117772625D01*
X157219220Y-117772625D02*
X157136972Y-117813749D01*
X157136972Y-117813749D02*
X156807982Y-117813749D01*
X157794953Y-118224987D02*
X157712705Y-118183864D01*
X157712705Y-118183864D02*
X157671582Y-118142740D01*
X157671582Y-118142740D02*
X157630458Y-118060492D01*
X157630458Y-118060492D02*
X157630458Y-117813749D01*
X157630458Y-117813749D02*
X157671582Y-117731502D01*
X157671582Y-117731502D02*
X157712705Y-117690378D01*
X157712705Y-117690378D02*
X157794953Y-117649254D01*
X157794953Y-117649254D02*
X157918324Y-117649254D01*
X157918324Y-117649254D02*
X158000572Y-117690378D01*
X158000572Y-117690378D02*
X158041696Y-117731502D01*
X158041696Y-117731502D02*
X158082820Y-117813749D01*
X158082820Y-117813749D02*
X158082820Y-118060492D01*
X158082820Y-118060492D02*
X158041696Y-118142740D01*
X158041696Y-118142740D02*
X158000572Y-118183864D01*
X158000572Y-118183864D02*
X157918324Y-118224987D01*
X157918324Y-118224987D02*
X157794953Y-118224987D01*
X158823048Y-117649254D02*
X158823048Y-118224987D01*
X158452934Y-117649254D02*
X158452934Y-118101616D01*
X158452934Y-118101616D02*
X158494057Y-118183864D01*
X158494057Y-118183864D02*
X158576305Y-118224987D01*
X158576305Y-118224987D02*
X158699676Y-118224987D01*
X158699676Y-118224987D02*
X158781924Y-118183864D01*
X158781924Y-118183864D02*
X158823048Y-118142740D01*
X159110914Y-117649254D02*
X159439905Y-117649254D01*
X159234286Y-117361387D02*
X159234286Y-118101616D01*
X159234286Y-118101616D02*
X159275409Y-118183864D01*
X159275409Y-118183864D02*
X159357657Y-118224987D01*
X159357657Y-118224987D02*
X159439905Y-118224987D01*
X160056762Y-118183864D02*
X159974514Y-118224987D01*
X159974514Y-118224987D02*
X159810019Y-118224987D01*
X159810019Y-118224987D02*
X159727772Y-118183864D01*
X159727772Y-118183864D02*
X159686648Y-118101616D01*
X159686648Y-118101616D02*
X159686648Y-117772625D01*
X159686648Y-117772625D02*
X159727772Y-117690378D01*
X159727772Y-117690378D02*
X159810019Y-117649254D01*
X159810019Y-117649254D02*
X159974514Y-117649254D01*
X159974514Y-117649254D02*
X160056762Y-117690378D01*
X160056762Y-117690378D02*
X160097886Y-117772625D01*
X160097886Y-117772625D02*
X160097886Y-117854873D01*
X160097886Y-117854873D02*
X159686648Y-117937121D01*
X161290477Y-117361387D02*
X161454972Y-117361387D01*
X161454972Y-117361387D02*
X161537220Y-117402511D01*
X161537220Y-117402511D02*
X161619467Y-117484759D01*
X161619467Y-117484759D02*
X161660591Y-117649254D01*
X161660591Y-117649254D02*
X161660591Y-117937121D01*
X161660591Y-117937121D02*
X161619467Y-118101616D01*
X161619467Y-118101616D02*
X161537220Y-118183864D01*
X161537220Y-118183864D02*
X161454972Y-118224987D01*
X161454972Y-118224987D02*
X161290477Y-118224987D01*
X161290477Y-118224987D02*
X161208229Y-118183864D01*
X161208229Y-118183864D02*
X161125982Y-118101616D01*
X161125982Y-118101616D02*
X161084858Y-117937121D01*
X161084858Y-117937121D02*
X161084858Y-117649254D01*
X161084858Y-117649254D02*
X161125982Y-117484759D01*
X161125982Y-117484759D02*
X161208229Y-117402511D01*
X161208229Y-117402511D02*
X161290477Y-117361387D01*
X162400820Y-117649254D02*
X162400820Y-118224987D01*
X162030706Y-117649254D02*
X162030706Y-118101616D01*
X162030706Y-118101616D02*
X162071829Y-118183864D01*
X162071829Y-118183864D02*
X162154077Y-118224987D01*
X162154077Y-118224987D02*
X162277448Y-118224987D01*
X162277448Y-118224987D02*
X162359696Y-118183864D01*
X162359696Y-118183864D02*
X162400820Y-118142740D01*
X162688686Y-117649254D02*
X163017677Y-117649254D01*
X162812058Y-117361387D02*
X162812058Y-118101616D01*
X162812058Y-118101616D02*
X162853181Y-118183864D01*
X162853181Y-118183864D02*
X162935429Y-118224987D01*
X162935429Y-118224987D02*
X163017677Y-118224987D01*
X157301467Y-147053987D02*
X157013601Y-146642749D01*
X156807982Y-147053987D02*
X156807982Y-146190387D01*
X156807982Y-146190387D02*
X157136972Y-146190387D01*
X157136972Y-146190387D02*
X157219220Y-146231511D01*
X157219220Y-146231511D02*
X157260343Y-146272635D01*
X157260343Y-146272635D02*
X157301467Y-146354883D01*
X157301467Y-146354883D02*
X157301467Y-146478254D01*
X157301467Y-146478254D02*
X157260343Y-146560502D01*
X157260343Y-146560502D02*
X157219220Y-146601625D01*
X157219220Y-146601625D02*
X157136972Y-146642749D01*
X157136972Y-146642749D02*
X156807982Y-146642749D01*
X157794953Y-147053987D02*
X157712705Y-147012864D01*
X157712705Y-147012864D02*
X157671582Y-146971740D01*
X157671582Y-146971740D02*
X157630458Y-146889492D01*
X157630458Y-146889492D02*
X157630458Y-146642749D01*
X157630458Y-146642749D02*
X157671582Y-146560502D01*
X157671582Y-146560502D02*
X157712705Y-146519378D01*
X157712705Y-146519378D02*
X157794953Y-146478254D01*
X157794953Y-146478254D02*
X157918324Y-146478254D01*
X157918324Y-146478254D02*
X158000572Y-146519378D01*
X158000572Y-146519378D02*
X158041696Y-146560502D01*
X158041696Y-146560502D02*
X158082820Y-146642749D01*
X158082820Y-146642749D02*
X158082820Y-146889492D01*
X158082820Y-146889492D02*
X158041696Y-146971740D01*
X158041696Y-146971740D02*
X158000572Y-147012864D01*
X158000572Y-147012864D02*
X157918324Y-147053987D01*
X157918324Y-147053987D02*
X157794953Y-147053987D01*
X158823048Y-146478254D02*
X158823048Y-147053987D01*
X158452934Y-146478254D02*
X158452934Y-146930616D01*
X158452934Y-146930616D02*
X158494057Y-147012864D01*
X158494057Y-147012864D02*
X158576305Y-147053987D01*
X158576305Y-147053987D02*
X158699676Y-147053987D01*
X158699676Y-147053987D02*
X158781924Y-147012864D01*
X158781924Y-147012864D02*
X158823048Y-146971740D01*
X159110914Y-146478254D02*
X159439905Y-146478254D01*
X159234286Y-146190387D02*
X159234286Y-146930616D01*
X159234286Y-146930616D02*
X159275409Y-147012864D01*
X159275409Y-147012864D02*
X159357657Y-147053987D01*
X159357657Y-147053987D02*
X159439905Y-147053987D01*
X160056762Y-147012864D02*
X159974514Y-147053987D01*
X159974514Y-147053987D02*
X159810019Y-147053987D01*
X159810019Y-147053987D02*
X159727772Y-147012864D01*
X159727772Y-147012864D02*
X159686648Y-146930616D01*
X159686648Y-146930616D02*
X159686648Y-146601625D01*
X159686648Y-146601625D02*
X159727772Y-146519378D01*
X159727772Y-146519378D02*
X159810019Y-146478254D01*
X159810019Y-146478254D02*
X159974514Y-146478254D01*
X159974514Y-146478254D02*
X160056762Y-146519378D01*
X160056762Y-146519378D02*
X160097886Y-146601625D01*
X160097886Y-146601625D02*
X160097886Y-146683873D01*
X160097886Y-146683873D02*
X159686648Y-146766121D01*
X161290477Y-146190387D02*
X161454972Y-146190387D01*
X161454972Y-146190387D02*
X161537220Y-146231511D01*
X161537220Y-146231511D02*
X161619467Y-146313759D01*
X161619467Y-146313759D02*
X161660591Y-146478254D01*
X161660591Y-146478254D02*
X161660591Y-146766121D01*
X161660591Y-146766121D02*
X161619467Y-146930616D01*
X161619467Y-146930616D02*
X161537220Y-147012864D01*
X161537220Y-147012864D02*
X161454972Y-147053987D01*
X161454972Y-147053987D02*
X161290477Y-147053987D01*
X161290477Y-147053987D02*
X161208229Y-147012864D01*
X161208229Y-147012864D02*
X161125982Y-146930616D01*
X161125982Y-146930616D02*
X161084858Y-146766121D01*
X161084858Y-146766121D02*
X161084858Y-146478254D01*
X161084858Y-146478254D02*
X161125982Y-146313759D01*
X161125982Y-146313759D02*
X161208229Y-146231511D01*
X161208229Y-146231511D02*
X161290477Y-146190387D01*
X162400820Y-146478254D02*
X162400820Y-147053987D01*
X162030706Y-146478254D02*
X162030706Y-146930616D01*
X162030706Y-146930616D02*
X162071829Y-147012864D01*
X162071829Y-147012864D02*
X162154077Y-147053987D01*
X162154077Y-147053987D02*
X162277448Y-147053987D01*
X162277448Y-147053987D02*
X162359696Y-147012864D01*
X162359696Y-147012864D02*
X162400820Y-146971740D01*
X162688686Y-146478254D02*
X163017677Y-146478254D01*
X162812058Y-146190387D02*
X162812058Y-146930616D01*
X162812058Y-146930616D02*
X162853181Y-147012864D01*
X162853181Y-147012864D02*
X162935429Y-147053987D01*
X162935429Y-147053987D02*
X163017677Y-147053987D01*
D12*
X159065561Y-87649767D02*
X158514381Y-86862367D01*
X158120681Y-87649767D02*
X158120681Y-85996227D01*
X158120681Y-85996227D02*
X158750601Y-85996227D01*
X158750601Y-85996227D02*
X158908081Y-86074967D01*
X158908081Y-86074967D02*
X158986821Y-86153707D01*
X158986821Y-86153707D02*
X159065561Y-86311187D01*
X159065561Y-86311187D02*
X159065561Y-86547407D01*
X159065561Y-86547407D02*
X158986821Y-86704887D01*
X158986821Y-86704887D02*
X158908081Y-86783627D01*
X158908081Y-86783627D02*
X158750601Y-86862367D01*
X158750601Y-86862367D02*
X158120681Y-86862367D01*
X160010441Y-87649767D02*
X159852961Y-87571027D01*
X159852961Y-87571027D02*
X159774221Y-87492287D01*
X159774221Y-87492287D02*
X159695481Y-87334807D01*
X159695481Y-87334807D02*
X159695481Y-86862367D01*
X159695481Y-86862367D02*
X159774221Y-86704887D01*
X159774221Y-86704887D02*
X159852961Y-86626147D01*
X159852961Y-86626147D02*
X160010441Y-86547407D01*
X160010441Y-86547407D02*
X160246661Y-86547407D01*
X160246661Y-86547407D02*
X160404141Y-86626147D01*
X160404141Y-86626147D02*
X160482881Y-86704887D01*
X160482881Y-86704887D02*
X160561621Y-86862367D01*
X160561621Y-86862367D02*
X160561621Y-87334807D01*
X160561621Y-87334807D02*
X160482881Y-87492287D01*
X160482881Y-87492287D02*
X160404141Y-87571027D01*
X160404141Y-87571027D02*
X160246661Y-87649767D01*
X160246661Y-87649767D02*
X160010441Y-87649767D01*
X161978941Y-86547407D02*
X161978941Y-87649767D01*
X161270281Y-86547407D02*
X161270281Y-87413547D01*
X161270281Y-87413547D02*
X161349021Y-87571027D01*
X161349021Y-87571027D02*
X161506501Y-87649767D01*
X161506501Y-87649767D02*
X161742721Y-87649767D01*
X161742721Y-87649767D02*
X161900201Y-87571027D01*
X161900201Y-87571027D02*
X161978941Y-87492287D01*
X162530121Y-86547407D02*
X163160041Y-86547407D01*
X162766341Y-85996227D02*
X162766341Y-87413547D01*
X162766341Y-87413547D02*
X162845081Y-87571027D01*
X162845081Y-87571027D02*
X163002561Y-87649767D01*
X163002561Y-87649767D02*
X163160041Y-87649767D01*
X164341141Y-87571027D02*
X164183661Y-87649767D01*
X164183661Y-87649767D02*
X163868701Y-87649767D01*
X163868701Y-87649767D02*
X163711221Y-87571027D01*
X163711221Y-87571027D02*
X163632481Y-87413547D01*
X163632481Y-87413547D02*
X163632481Y-86783627D01*
X163632481Y-86783627D02*
X163711221Y-86626147D01*
X163711221Y-86626147D02*
X163868701Y-86547407D01*
X163868701Y-86547407D02*
X164183661Y-86547407D01*
X164183661Y-86547407D02*
X164341141Y-86626147D01*
X164341141Y-86626147D02*
X164419881Y-86783627D01*
X164419881Y-86783627D02*
X164419881Y-86941107D01*
X164419881Y-86941107D02*
X163632481Y-87098587D01*
X166703341Y-85996227D02*
X167018301Y-85996227D01*
X167018301Y-85996227D02*
X167175781Y-86074967D01*
X167175781Y-86074967D02*
X167333261Y-86232447D01*
X167333261Y-86232447D02*
X167412001Y-86547407D01*
X167412001Y-86547407D02*
X167412001Y-87098587D01*
X167412001Y-87098587D02*
X167333261Y-87413547D01*
X167333261Y-87413547D02*
X167175781Y-87571027D01*
X167175781Y-87571027D02*
X167018301Y-87649767D01*
X167018301Y-87649767D02*
X166703341Y-87649767D01*
X166703341Y-87649767D02*
X166545861Y-87571027D01*
X166545861Y-87571027D02*
X166388381Y-87413547D01*
X166388381Y-87413547D02*
X166309641Y-87098587D01*
X166309641Y-87098587D02*
X166309641Y-86547407D01*
X166309641Y-86547407D02*
X166388381Y-86232447D01*
X166388381Y-86232447D02*
X166545861Y-86074967D01*
X166545861Y-86074967D02*
X166703341Y-85996227D01*
X168829321Y-86547407D02*
X168829321Y-87649767D01*
X168120661Y-86547407D02*
X168120661Y-87413547D01*
X168120661Y-87413547D02*
X168199401Y-87571027D01*
X168199401Y-87571027D02*
X168356881Y-87649767D01*
X168356881Y-87649767D02*
X168593101Y-87649767D01*
X168593101Y-87649767D02*
X168750581Y-87571027D01*
X168750581Y-87571027D02*
X168829321Y-87492287D01*
X169380501Y-86547407D02*
X170010421Y-86547407D01*
X169616721Y-85996227D02*
X169616721Y-87413547D01*
X169616721Y-87413547D02*
X169695461Y-87571027D01*
X169695461Y-87571027D02*
X169852941Y-87649767D01*
X169852941Y-87649767D02*
X170010421Y-87649767D01*
D11*
X85673467Y-147053987D02*
X85385601Y-146642749D01*
X85179982Y-147053987D02*
X85179982Y-146190387D01*
X85179982Y-146190387D02*
X85508972Y-146190387D01*
X85508972Y-146190387D02*
X85591220Y-146231511D01*
X85591220Y-146231511D02*
X85632343Y-146272635D01*
X85632343Y-146272635D02*
X85673467Y-146354883D01*
X85673467Y-146354883D02*
X85673467Y-146478254D01*
X85673467Y-146478254D02*
X85632343Y-146560502D01*
X85632343Y-146560502D02*
X85591220Y-146601625D01*
X85591220Y-146601625D02*
X85508972Y-146642749D01*
X85508972Y-146642749D02*
X85179982Y-146642749D01*
X86166953Y-147053987D02*
X86084705Y-147012864D01*
X86084705Y-147012864D02*
X86043582Y-146971740D01*
X86043582Y-146971740D02*
X86002458Y-146889492D01*
X86002458Y-146889492D02*
X86002458Y-146642749D01*
X86002458Y-146642749D02*
X86043582Y-146560502D01*
X86043582Y-146560502D02*
X86084705Y-146519378D01*
X86084705Y-146519378D02*
X86166953Y-146478254D01*
X86166953Y-146478254D02*
X86290324Y-146478254D01*
X86290324Y-146478254D02*
X86372572Y-146519378D01*
X86372572Y-146519378D02*
X86413696Y-146560502D01*
X86413696Y-146560502D02*
X86454820Y-146642749D01*
X86454820Y-146642749D02*
X86454820Y-146889492D01*
X86454820Y-146889492D02*
X86413696Y-146971740D01*
X86413696Y-146971740D02*
X86372572Y-147012864D01*
X86372572Y-147012864D02*
X86290324Y-147053987D01*
X86290324Y-147053987D02*
X86166953Y-147053987D01*
X87195048Y-146478254D02*
X87195048Y-147053987D01*
X86824934Y-146478254D02*
X86824934Y-146930616D01*
X86824934Y-146930616D02*
X86866057Y-147012864D01*
X86866057Y-147012864D02*
X86948305Y-147053987D01*
X86948305Y-147053987D02*
X87071676Y-147053987D01*
X87071676Y-147053987D02*
X87153924Y-147012864D01*
X87153924Y-147012864D02*
X87195048Y-146971740D01*
X87482914Y-146478254D02*
X87811905Y-146478254D01*
X87606286Y-146190387D02*
X87606286Y-146930616D01*
X87606286Y-146930616D02*
X87647409Y-147012864D01*
X87647409Y-147012864D02*
X87729657Y-147053987D01*
X87729657Y-147053987D02*
X87811905Y-147053987D01*
X88428762Y-147012864D02*
X88346514Y-147053987D01*
X88346514Y-147053987D02*
X88182019Y-147053987D01*
X88182019Y-147053987D02*
X88099772Y-147012864D01*
X88099772Y-147012864D02*
X88058648Y-146930616D01*
X88058648Y-146930616D02*
X88058648Y-146601625D01*
X88058648Y-146601625D02*
X88099772Y-146519378D01*
X88099772Y-146519378D02*
X88182019Y-146478254D01*
X88182019Y-146478254D02*
X88346514Y-146478254D01*
X88346514Y-146478254D02*
X88428762Y-146519378D01*
X88428762Y-146519378D02*
X88469886Y-146601625D01*
X88469886Y-146601625D02*
X88469886Y-146683873D01*
X88469886Y-146683873D02*
X88058648Y-146766121D01*
X89662477Y-146190387D02*
X89826972Y-146190387D01*
X89826972Y-146190387D02*
X89909220Y-146231511D01*
X89909220Y-146231511D02*
X89991467Y-146313759D01*
X89991467Y-146313759D02*
X90032591Y-146478254D01*
X90032591Y-146478254D02*
X90032591Y-146766121D01*
X90032591Y-146766121D02*
X89991467Y-146930616D01*
X89991467Y-146930616D02*
X89909220Y-147012864D01*
X89909220Y-147012864D02*
X89826972Y-147053987D01*
X89826972Y-147053987D02*
X89662477Y-147053987D01*
X89662477Y-147053987D02*
X89580229Y-147012864D01*
X89580229Y-147012864D02*
X89497982Y-146930616D01*
X89497982Y-146930616D02*
X89456858Y-146766121D01*
X89456858Y-146766121D02*
X89456858Y-146478254D01*
X89456858Y-146478254D02*
X89497982Y-146313759D01*
X89497982Y-146313759D02*
X89580229Y-146231511D01*
X89580229Y-146231511D02*
X89662477Y-146190387D01*
X90772820Y-146478254D02*
X90772820Y-147053987D01*
X90402706Y-146478254D02*
X90402706Y-146930616D01*
X90402706Y-146930616D02*
X90443829Y-147012864D01*
X90443829Y-147012864D02*
X90526077Y-147053987D01*
X90526077Y-147053987D02*
X90649448Y-147053987D01*
X90649448Y-147053987D02*
X90731696Y-147012864D01*
X90731696Y-147012864D02*
X90772820Y-146971740D01*
X91060686Y-146478254D02*
X91389677Y-146478254D01*
X91184058Y-146190387D02*
X91184058Y-146930616D01*
X91184058Y-146930616D02*
X91225181Y-147012864D01*
X91225181Y-147012864D02*
X91307429Y-147053987D01*
X91307429Y-147053987D02*
X91389677Y-147053987D01*
M02*
