%TF.GenerationSoftware,KiCad,Pcbnew,7.0.6-7.0.6~ubuntu22.04.1*%
%TF.CreationDate,2023-08-07T04:04:24+01:00*%
%TF.ProjectId,working,776f726b-696e-4672-9e6b-696361645f70,rev?*%
%TF.SameCoordinates,Original*%
%TF.FileFunction,Other,Comment*%
%FSLAX46Y46*%
G04 Gerber Fmt 4.6, Leading zero omitted, Abs format (unit mm)*
G04 Created by KiCad (PCBNEW 7.0.6-7.0.6~ubuntu22.04.1) date 2023-08-07 04:04:24*
%MOMM*%
%LPD*%
G01*
G04 APERTURE LIST*
%ADD10C,0.152400*%
%ADD11C,0.127000*%
G04 APERTURE END LIST*
D10*
X132820165Y-54169605D02*
X133395898Y-54169605D01*
X132491175Y-54375224D02*
X133108032Y-54580843D01*
X133108032Y-54580843D02*
X133108032Y-54046234D01*
X124917887Y-98991789D02*
X125781487Y-98703922D01*
X125781487Y-98703922D02*
X124917887Y-98416056D01*
X125781487Y-98128188D02*
X124917887Y-98128188D01*
X125781487Y-97716950D02*
X124917887Y-97716950D01*
X124917887Y-97716950D02*
X125781487Y-97223465D01*
X125781487Y-97223465D02*
X124917887Y-97223465D01*
X134649762Y-97284355D02*
X135061000Y-97284355D01*
X134567514Y-97531098D02*
X134855381Y-96667498D01*
X134855381Y-96667498D02*
X135143247Y-97531098D01*
X135431115Y-96955365D02*
X135431115Y-97531098D01*
X135431115Y-97037613D02*
X135472238Y-96996489D01*
X135472238Y-96996489D02*
X135554486Y-96955365D01*
X135554486Y-96955365D02*
X135677857Y-96955365D01*
X135677857Y-96955365D02*
X135760105Y-96996489D01*
X135760105Y-96996489D02*
X135801229Y-97078736D01*
X135801229Y-97078736D02*
X135801229Y-97531098D01*
X136582581Y-97531098D02*
X136582581Y-97078736D01*
X136582581Y-97078736D02*
X136541457Y-96996489D01*
X136541457Y-96996489D02*
X136459209Y-96955365D01*
X136459209Y-96955365D02*
X136294714Y-96955365D01*
X136294714Y-96955365D02*
X136212467Y-96996489D01*
X136582581Y-97489975D02*
X136500333Y-97531098D01*
X136500333Y-97531098D02*
X136294714Y-97531098D01*
X136294714Y-97531098D02*
X136212467Y-97489975D01*
X136212467Y-97489975D02*
X136171343Y-97407727D01*
X136171343Y-97407727D02*
X136171343Y-97325479D01*
X136171343Y-97325479D02*
X136212467Y-97243232D01*
X136212467Y-97243232D02*
X136294714Y-97202108D01*
X136294714Y-97202108D02*
X136500333Y-97202108D01*
X136500333Y-97202108D02*
X136582581Y-97160984D01*
X137117190Y-97531098D02*
X137034942Y-97489975D01*
X137034942Y-97489975D02*
X136993819Y-97407727D01*
X136993819Y-97407727D02*
X136993819Y-96667498D01*
X137569552Y-97531098D02*
X137487304Y-97489975D01*
X137487304Y-97489975D02*
X137446181Y-97448851D01*
X137446181Y-97448851D02*
X137405057Y-97366603D01*
X137405057Y-97366603D02*
X137405057Y-97119860D01*
X137405057Y-97119860D02*
X137446181Y-97037613D01*
X137446181Y-97037613D02*
X137487304Y-96996489D01*
X137487304Y-96996489D02*
X137569552Y-96955365D01*
X137569552Y-96955365D02*
X137692923Y-96955365D01*
X137692923Y-96955365D02*
X137775171Y-96996489D01*
X137775171Y-96996489D02*
X137816295Y-97037613D01*
X137816295Y-97037613D02*
X137857419Y-97119860D01*
X137857419Y-97119860D02*
X137857419Y-97366603D01*
X137857419Y-97366603D02*
X137816295Y-97448851D01*
X137816295Y-97448851D02*
X137775171Y-97489975D01*
X137775171Y-97489975D02*
X137692923Y-97531098D01*
X137692923Y-97531098D02*
X137569552Y-97531098D01*
X138597647Y-96955365D02*
X138597647Y-97654470D01*
X138597647Y-97654470D02*
X138556523Y-97736717D01*
X138556523Y-97736717D02*
X138515399Y-97777841D01*
X138515399Y-97777841D02*
X138433152Y-97818965D01*
X138433152Y-97818965D02*
X138309780Y-97818965D01*
X138309780Y-97818965D02*
X138227533Y-97777841D01*
X138597647Y-97489975D02*
X138515399Y-97531098D01*
X138515399Y-97531098D02*
X138350904Y-97531098D01*
X138350904Y-97531098D02*
X138268656Y-97489975D01*
X138268656Y-97489975D02*
X138227533Y-97448851D01*
X138227533Y-97448851D02*
X138186409Y-97366603D01*
X138186409Y-97366603D02*
X138186409Y-97119860D01*
X138186409Y-97119860D02*
X138227533Y-97037613D01*
X138227533Y-97037613D02*
X138268656Y-96996489D01*
X138268656Y-96996489D02*
X138350904Y-96955365D01*
X138350904Y-96955365D02*
X138515399Y-96955365D01*
X138515399Y-96955365D02*
X138597647Y-96996489D01*
X139666866Y-97531098D02*
X139666866Y-96667498D01*
X140078104Y-96955365D02*
X140078104Y-97531098D01*
X140078104Y-97037613D02*
X140119227Y-96996489D01*
X140119227Y-96996489D02*
X140201475Y-96955365D01*
X140201475Y-96955365D02*
X140324846Y-96955365D01*
X140324846Y-96955365D02*
X140407094Y-96996489D01*
X140407094Y-96996489D02*
X140448218Y-97078736D01*
X140448218Y-97078736D02*
X140448218Y-97531098D01*
X116631898Y-54909834D02*
X116631898Y-55403319D01*
X116631898Y-55156576D02*
X115768298Y-55156576D01*
X115768298Y-55156576D02*
X115891670Y-55238824D01*
X115891670Y-55238824D02*
X115973917Y-55321072D01*
X115973917Y-55321072D02*
X116015041Y-55403319D01*
X115768298Y-54375224D02*
X115768298Y-54292977D01*
X115768298Y-54292977D02*
X115809422Y-54210729D01*
X115809422Y-54210729D02*
X115850546Y-54169605D01*
X115850546Y-54169605D02*
X115932794Y-54128481D01*
X115932794Y-54128481D02*
X116097289Y-54087358D01*
X116097289Y-54087358D02*
X116302908Y-54087358D01*
X116302908Y-54087358D02*
X116467403Y-54128481D01*
X116467403Y-54128481D02*
X116549651Y-54169605D01*
X116549651Y-54169605D02*
X116590775Y-54210729D01*
X116590775Y-54210729D02*
X116631898Y-54292977D01*
X116631898Y-54292977D02*
X116631898Y-54375224D01*
X116631898Y-54375224D02*
X116590775Y-54457472D01*
X116590775Y-54457472D02*
X116549651Y-54498596D01*
X116549651Y-54498596D02*
X116467403Y-54539719D01*
X116467403Y-54539719D02*
X116302908Y-54580843D01*
X116302908Y-54580843D02*
X116097289Y-54580843D01*
X116097289Y-54580843D02*
X115932794Y-54539719D01*
X115932794Y-54539719D02*
X115850546Y-54498596D01*
X115850546Y-54498596D02*
X115809422Y-54457472D01*
X115809422Y-54457472D02*
X115768298Y-54375224D01*
X140445754Y-98498303D02*
X141021487Y-98498303D01*
X140116764Y-98703922D02*
X140733621Y-98909541D01*
X140733621Y-98909541D02*
X140733621Y-98374932D01*
X105649422Y-55896806D02*
X105608298Y-55979053D01*
X105608298Y-55979053D02*
X105608298Y-56102425D01*
X105608298Y-56102425D02*
X105649422Y-56225796D01*
X105649422Y-56225796D02*
X105731670Y-56308044D01*
X105731670Y-56308044D02*
X105813917Y-56349167D01*
X105813917Y-56349167D02*
X105978413Y-56390291D01*
X105978413Y-56390291D02*
X106101784Y-56390291D01*
X106101784Y-56390291D02*
X106266279Y-56349167D01*
X106266279Y-56349167D02*
X106348527Y-56308044D01*
X106348527Y-56308044D02*
X106430775Y-56225796D01*
X106430775Y-56225796D02*
X106471898Y-56102425D01*
X106471898Y-56102425D02*
X106471898Y-56020177D01*
X106471898Y-56020177D02*
X106430775Y-55896806D01*
X106430775Y-55896806D02*
X106389651Y-55855682D01*
X106389651Y-55855682D02*
X106101784Y-55855682D01*
X106101784Y-55855682D02*
X106101784Y-56020177D01*
X106471898Y-55485567D02*
X105608298Y-55485567D01*
X105608298Y-55485567D02*
X106471898Y-54992082D01*
X106471898Y-54992082D02*
X105608298Y-54992082D01*
X106471898Y-54580843D02*
X105608298Y-54580843D01*
X105608298Y-54580843D02*
X105608298Y-54375224D01*
X105608298Y-54375224D02*
X105649422Y-54251853D01*
X105649422Y-54251853D02*
X105731670Y-54169605D01*
X105731670Y-54169605D02*
X105813917Y-54128482D01*
X105813917Y-54128482D02*
X105978413Y-54087358D01*
X105978413Y-54087358D02*
X106101784Y-54087358D01*
X106101784Y-54087358D02*
X106266279Y-54128482D01*
X106266279Y-54128482D02*
X106348527Y-54169605D01*
X106348527Y-54169605D02*
X106430775Y-54251853D01*
X106430775Y-54251853D02*
X106471898Y-54375224D01*
X106471898Y-54375224D02*
X106471898Y-54580843D01*
X142697887Y-98457179D02*
X142697887Y-98868417D01*
X142697887Y-98868417D02*
X143109125Y-98909541D01*
X143109125Y-98909541D02*
X143068002Y-98868417D01*
X143068002Y-98868417D02*
X143026878Y-98786170D01*
X143026878Y-98786170D02*
X143026878Y-98580551D01*
X143026878Y-98580551D02*
X143068002Y-98498303D01*
X143068002Y-98498303D02*
X143109125Y-98457179D01*
X143109125Y-98457179D02*
X143191373Y-98416056D01*
X143191373Y-98416056D02*
X143396992Y-98416056D01*
X143396992Y-98416056D02*
X143479240Y-98457179D01*
X143479240Y-98457179D02*
X143520364Y-98498303D01*
X143520364Y-98498303D02*
X143561487Y-98580551D01*
X143561487Y-98580551D02*
X143561487Y-98786170D01*
X143561487Y-98786170D02*
X143520364Y-98868417D01*
X143520364Y-98868417D02*
X143479240Y-98909541D01*
X119879011Y-98416056D02*
X119837887Y-98498303D01*
X119837887Y-98498303D02*
X119837887Y-98621675D01*
X119837887Y-98621675D02*
X119879011Y-98745046D01*
X119879011Y-98745046D02*
X119961259Y-98827294D01*
X119961259Y-98827294D02*
X120043506Y-98868417D01*
X120043506Y-98868417D02*
X120208002Y-98909541D01*
X120208002Y-98909541D02*
X120331373Y-98909541D01*
X120331373Y-98909541D02*
X120495868Y-98868417D01*
X120495868Y-98868417D02*
X120578116Y-98827294D01*
X120578116Y-98827294D02*
X120660364Y-98745046D01*
X120660364Y-98745046D02*
X120701487Y-98621675D01*
X120701487Y-98621675D02*
X120701487Y-98539427D01*
X120701487Y-98539427D02*
X120660364Y-98416056D01*
X120660364Y-98416056D02*
X120619240Y-98374932D01*
X120619240Y-98374932D02*
X120331373Y-98374932D01*
X120331373Y-98374932D02*
X120331373Y-98539427D01*
X120701487Y-98004817D02*
X119837887Y-98004817D01*
X119837887Y-98004817D02*
X120701487Y-97511332D01*
X120701487Y-97511332D02*
X119837887Y-97511332D01*
X120701487Y-97100093D02*
X119837887Y-97100093D01*
X119837887Y-97100093D02*
X119837887Y-96894474D01*
X119837887Y-96894474D02*
X119879011Y-96771103D01*
X119879011Y-96771103D02*
X119961259Y-96688855D01*
X119961259Y-96688855D02*
X120043506Y-96647732D01*
X120043506Y-96647732D02*
X120208002Y-96606608D01*
X120208002Y-96606608D02*
X120331373Y-96606608D01*
X120331373Y-96606608D02*
X120495868Y-96647732D01*
X120495868Y-96647732D02*
X120578116Y-96688855D01*
X120578116Y-96688855D02*
X120660364Y-96771103D01*
X120660364Y-96771103D02*
X120701487Y-96894474D01*
X120701487Y-96894474D02*
X120701487Y-97100093D01*
X101350775Y-56184672D02*
X101391898Y-56061301D01*
X101391898Y-56061301D02*
X101391898Y-55855682D01*
X101391898Y-55855682D02*
X101350775Y-55773434D01*
X101350775Y-55773434D02*
X101309651Y-55732310D01*
X101309651Y-55732310D02*
X101227403Y-55691187D01*
X101227403Y-55691187D02*
X101145155Y-55691187D01*
X101145155Y-55691187D02*
X101062908Y-55732310D01*
X101062908Y-55732310D02*
X101021784Y-55773434D01*
X101021784Y-55773434D02*
X100980660Y-55855682D01*
X100980660Y-55855682D02*
X100939536Y-56020177D01*
X100939536Y-56020177D02*
X100898413Y-56102425D01*
X100898413Y-56102425D02*
X100857289Y-56143548D01*
X100857289Y-56143548D02*
X100775041Y-56184672D01*
X100775041Y-56184672D02*
X100692794Y-56184672D01*
X100692794Y-56184672D02*
X100610546Y-56143548D01*
X100610546Y-56143548D02*
X100569422Y-56102425D01*
X100569422Y-56102425D02*
X100528298Y-56020177D01*
X100528298Y-56020177D02*
X100528298Y-55814558D01*
X100528298Y-55814558D02*
X100569422Y-55691187D01*
X101391898Y-55321072D02*
X100528298Y-55321072D01*
X100528298Y-55321072D02*
X100528298Y-55115453D01*
X100528298Y-55115453D02*
X100569422Y-54992082D01*
X100569422Y-54992082D02*
X100651670Y-54909834D01*
X100651670Y-54909834D02*
X100733917Y-54868711D01*
X100733917Y-54868711D02*
X100898413Y-54827587D01*
X100898413Y-54827587D02*
X101021784Y-54827587D01*
X101021784Y-54827587D02*
X101186279Y-54868711D01*
X101186279Y-54868711D02*
X101268527Y-54909834D01*
X101268527Y-54909834D02*
X101350775Y-54992082D01*
X101350775Y-54992082D02*
X101391898Y-55115453D01*
X101391898Y-55115453D02*
X101391898Y-55321072D01*
X101145155Y-54498596D02*
X101145155Y-54087358D01*
X101391898Y-54580844D02*
X100528298Y-54292977D01*
X100528298Y-54292977D02*
X101391898Y-54005111D01*
X135072298Y-54621967D02*
X135072298Y-54087358D01*
X135072298Y-54087358D02*
X135401289Y-54375224D01*
X135401289Y-54375224D02*
X135401289Y-54251853D01*
X135401289Y-54251853D02*
X135442413Y-54169605D01*
X135442413Y-54169605D02*
X135483536Y-54128481D01*
X135483536Y-54128481D02*
X135565784Y-54087358D01*
X135565784Y-54087358D02*
X135771403Y-54087358D01*
X135771403Y-54087358D02*
X135853651Y-54128481D01*
X135853651Y-54128481D02*
X135894775Y-54169605D01*
X135894775Y-54169605D02*
X135935898Y-54251853D01*
X135935898Y-54251853D02*
X135935898Y-54498596D01*
X135935898Y-54498596D02*
X135894775Y-54580843D01*
X135894775Y-54580843D02*
X135853651Y-54621967D01*
X114091898Y-54909834D02*
X114091898Y-55403319D01*
X114091898Y-55156576D02*
X113228298Y-55156576D01*
X113228298Y-55156576D02*
X113351670Y-55238824D01*
X113351670Y-55238824D02*
X113433917Y-55321072D01*
X113433917Y-55321072D02*
X113475041Y-55403319D01*
X114091898Y-54087358D02*
X114091898Y-54580843D01*
X114091898Y-54334100D02*
X113228298Y-54334100D01*
X113228298Y-54334100D02*
X113351670Y-54416348D01*
X113351670Y-54416348D02*
X113433917Y-54498596D01*
X113433917Y-54498596D02*
X113475041Y-54580843D01*
X122419011Y-98416056D02*
X122377887Y-98498303D01*
X122377887Y-98498303D02*
X122377887Y-98621675D01*
X122377887Y-98621675D02*
X122419011Y-98745046D01*
X122419011Y-98745046D02*
X122501259Y-98827294D01*
X122501259Y-98827294D02*
X122583506Y-98868417D01*
X122583506Y-98868417D02*
X122748002Y-98909541D01*
X122748002Y-98909541D02*
X122871373Y-98909541D01*
X122871373Y-98909541D02*
X123035868Y-98868417D01*
X123035868Y-98868417D02*
X123118116Y-98827294D01*
X123118116Y-98827294D02*
X123200364Y-98745046D01*
X123200364Y-98745046D02*
X123241487Y-98621675D01*
X123241487Y-98621675D02*
X123241487Y-98539427D01*
X123241487Y-98539427D02*
X123200364Y-98416056D01*
X123200364Y-98416056D02*
X123159240Y-98374932D01*
X123159240Y-98374932D02*
X122871373Y-98374932D01*
X122871373Y-98374932D02*
X122871373Y-98539427D01*
X123241487Y-98004817D02*
X122377887Y-98004817D01*
X122377887Y-98004817D02*
X123241487Y-97511332D01*
X123241487Y-97511332D02*
X122377887Y-97511332D01*
X123241487Y-97100093D02*
X122377887Y-97100093D01*
X122377887Y-97100093D02*
X122377887Y-96894474D01*
X122377887Y-96894474D02*
X122419011Y-96771103D01*
X122419011Y-96771103D02*
X122501259Y-96688855D01*
X122501259Y-96688855D02*
X122583506Y-96647732D01*
X122583506Y-96647732D02*
X122748002Y-96606608D01*
X122748002Y-96606608D02*
X122871373Y-96606608D01*
X122871373Y-96606608D02*
X123035868Y-96647732D01*
X123035868Y-96647732D02*
X123118116Y-96688855D01*
X123118116Y-96688855D02*
X123200364Y-96771103D01*
X123200364Y-96771103D02*
X123241487Y-96894474D01*
X123241487Y-96894474D02*
X123241487Y-97100093D01*
X137617887Y-98950665D02*
X137617887Y-98416056D01*
X137617887Y-98416056D02*
X137946878Y-98703922D01*
X137946878Y-98703922D02*
X137946878Y-98580551D01*
X137946878Y-98580551D02*
X137988002Y-98498303D01*
X137988002Y-98498303D02*
X138029125Y-98457179D01*
X138029125Y-98457179D02*
X138111373Y-98416056D01*
X138111373Y-98416056D02*
X138316992Y-98416056D01*
X138316992Y-98416056D02*
X138399240Y-98457179D01*
X138399240Y-98457179D02*
X138440364Y-98498303D01*
X138440364Y-98498303D02*
X138481487Y-98580551D01*
X138481487Y-98580551D02*
X138481487Y-98827294D01*
X138481487Y-98827294D02*
X138440364Y-98909541D01*
X138440364Y-98909541D02*
X138399240Y-98950665D01*
X110541487Y-98868417D02*
X109677887Y-98868417D01*
X109677887Y-98292684D02*
X109677887Y-98128189D01*
X109677887Y-98128189D02*
X109719011Y-98045941D01*
X109719011Y-98045941D02*
X109801259Y-97963694D01*
X109801259Y-97963694D02*
X109965754Y-97922570D01*
X109965754Y-97922570D02*
X110253621Y-97922570D01*
X110253621Y-97922570D02*
X110418116Y-97963694D01*
X110418116Y-97963694D02*
X110500364Y-98045941D01*
X110500364Y-98045941D02*
X110541487Y-98128189D01*
X110541487Y-98128189D02*
X110541487Y-98292684D01*
X110541487Y-98292684D02*
X110500364Y-98374932D01*
X110500364Y-98374932D02*
X110418116Y-98457179D01*
X110418116Y-98457179D02*
X110253621Y-98498303D01*
X110253621Y-98498303D02*
X109965754Y-98498303D01*
X109965754Y-98498303D02*
X109801259Y-98457179D01*
X109801259Y-98457179D02*
X109719011Y-98374932D01*
X109719011Y-98374932D02*
X109677887Y-98292684D01*
X110541487Y-97058970D02*
X110130249Y-97346836D01*
X110541487Y-97552455D02*
X109677887Y-97552455D01*
X109677887Y-97552455D02*
X109677887Y-97223465D01*
X109677887Y-97223465D02*
X109719011Y-97141217D01*
X109719011Y-97141217D02*
X109760135Y-97100094D01*
X109760135Y-97100094D02*
X109842383Y-97058970D01*
X109842383Y-97058970D02*
X109965754Y-97058970D01*
X109965754Y-97058970D02*
X110048002Y-97100094D01*
X110048002Y-97100094D02*
X110089125Y-97141217D01*
X110089125Y-97141217D02*
X110130249Y-97223465D01*
X110130249Y-97223465D02*
X110130249Y-97552455D01*
X110089125Y-96688855D02*
X110089125Y-96400989D01*
X110541487Y-96277617D02*
X110541487Y-96688855D01*
X110541487Y-96688855D02*
X109677887Y-96688855D01*
X109677887Y-96688855D02*
X109677887Y-96277617D01*
X110089125Y-95619637D02*
X110089125Y-95907503D01*
X110541487Y-95907503D02*
X109677887Y-95907503D01*
X109677887Y-95907503D02*
X109677887Y-95496265D01*
X109011898Y-54909834D02*
X109011898Y-55403319D01*
X109011898Y-55156576D02*
X108148298Y-55156576D01*
X108148298Y-55156576D02*
X108271670Y-55238824D01*
X108271670Y-55238824D02*
X108353917Y-55321072D01*
X108353917Y-55321072D02*
X108395041Y-55403319D01*
X108148298Y-54621967D02*
X108148298Y-54087358D01*
X108148298Y-54087358D02*
X108477289Y-54375224D01*
X108477289Y-54375224D02*
X108477289Y-54251853D01*
X108477289Y-54251853D02*
X108518413Y-54169605D01*
X108518413Y-54169605D02*
X108559536Y-54128481D01*
X108559536Y-54128481D02*
X108641784Y-54087358D01*
X108641784Y-54087358D02*
X108847403Y-54087358D01*
X108847403Y-54087358D02*
X108929651Y-54128481D01*
X108929651Y-54128481D02*
X108970775Y-54169605D01*
X108970775Y-54169605D02*
X109011898Y-54251853D01*
X109011898Y-54251853D02*
X109011898Y-54498596D01*
X109011898Y-54498596D02*
X108970775Y-54580843D01*
X108970775Y-54580843D02*
X108929651Y-54621967D01*
X121218413Y-54416348D02*
X121177289Y-54498596D01*
X121177289Y-54498596D02*
X121136165Y-54539719D01*
X121136165Y-54539719D02*
X121053917Y-54580843D01*
X121053917Y-54580843D02*
X121012794Y-54580843D01*
X121012794Y-54580843D02*
X120930546Y-54539719D01*
X120930546Y-54539719D02*
X120889422Y-54498596D01*
X120889422Y-54498596D02*
X120848298Y-54416348D01*
X120848298Y-54416348D02*
X120848298Y-54251853D01*
X120848298Y-54251853D02*
X120889422Y-54169605D01*
X120889422Y-54169605D02*
X120930546Y-54128481D01*
X120930546Y-54128481D02*
X121012794Y-54087358D01*
X121012794Y-54087358D02*
X121053917Y-54087358D01*
X121053917Y-54087358D02*
X121136165Y-54128481D01*
X121136165Y-54128481D02*
X121177289Y-54169605D01*
X121177289Y-54169605D02*
X121218413Y-54251853D01*
X121218413Y-54251853D02*
X121218413Y-54416348D01*
X121218413Y-54416348D02*
X121259536Y-54498596D01*
X121259536Y-54498596D02*
X121300660Y-54539719D01*
X121300660Y-54539719D02*
X121382908Y-54580843D01*
X121382908Y-54580843D02*
X121547403Y-54580843D01*
X121547403Y-54580843D02*
X121629651Y-54539719D01*
X121629651Y-54539719D02*
X121670775Y-54498596D01*
X121670775Y-54498596D02*
X121711898Y-54416348D01*
X121711898Y-54416348D02*
X121711898Y-54251853D01*
X121711898Y-54251853D02*
X121670775Y-54169605D01*
X121670775Y-54169605D02*
X121629651Y-54128481D01*
X121629651Y-54128481D02*
X121547403Y-54087358D01*
X121547403Y-54087358D02*
X121382908Y-54087358D01*
X121382908Y-54087358D02*
X121300660Y-54128481D01*
X121300660Y-54128481D02*
X121259536Y-54169605D01*
X121259536Y-54169605D02*
X121218413Y-54251853D01*
X140152298Y-55321072D02*
X140152298Y-54827586D01*
X141015898Y-55074329D02*
X140152298Y-55074329D01*
X140152298Y-54621967D02*
X141015898Y-54046234D01*
X140152298Y-54046234D02*
X141015898Y-54621967D01*
X124912298Y-54621967D02*
X124912298Y-54046234D01*
X124912298Y-54046234D02*
X125775898Y-54416348D01*
X113081487Y-98374932D02*
X112670249Y-98662798D01*
X113081487Y-98868417D02*
X112217887Y-98868417D01*
X112217887Y-98868417D02*
X112217887Y-98539427D01*
X112217887Y-98539427D02*
X112259011Y-98457179D01*
X112259011Y-98457179D02*
X112300135Y-98416056D01*
X112300135Y-98416056D02*
X112382383Y-98374932D01*
X112382383Y-98374932D02*
X112505754Y-98374932D01*
X112505754Y-98374932D02*
X112588002Y-98416056D01*
X112588002Y-98416056D02*
X112629125Y-98457179D01*
X112629125Y-98457179D02*
X112670249Y-98539427D01*
X112670249Y-98539427D02*
X112670249Y-98868417D01*
X113040364Y-98045941D02*
X113081487Y-97922570D01*
X113081487Y-97922570D02*
X113081487Y-97716951D01*
X113081487Y-97716951D02*
X113040364Y-97634703D01*
X113040364Y-97634703D02*
X112999240Y-97593579D01*
X112999240Y-97593579D02*
X112916992Y-97552456D01*
X112916992Y-97552456D02*
X112834744Y-97552456D01*
X112834744Y-97552456D02*
X112752497Y-97593579D01*
X112752497Y-97593579D02*
X112711373Y-97634703D01*
X112711373Y-97634703D02*
X112670249Y-97716951D01*
X112670249Y-97716951D02*
X112629125Y-97881446D01*
X112629125Y-97881446D02*
X112588002Y-97963694D01*
X112588002Y-97963694D02*
X112546878Y-98004817D01*
X112546878Y-98004817D02*
X112464630Y-98045941D01*
X112464630Y-98045941D02*
X112382383Y-98045941D01*
X112382383Y-98045941D02*
X112300135Y-98004817D01*
X112300135Y-98004817D02*
X112259011Y-97963694D01*
X112259011Y-97963694D02*
X112217887Y-97881446D01*
X112217887Y-97881446D02*
X112217887Y-97675827D01*
X112217887Y-97675827D02*
X112259011Y-97552456D01*
X112217887Y-97305713D02*
X112217887Y-96812227D01*
X113081487Y-97058970D02*
X112217887Y-97058970D01*
X133401487Y-98416056D02*
X133401487Y-98909541D01*
X133401487Y-98662798D02*
X132537887Y-98662798D01*
X132537887Y-98662798D02*
X132661259Y-98745046D01*
X132661259Y-98745046D02*
X132743506Y-98827294D01*
X132743506Y-98827294D02*
X132784630Y-98909541D01*
X111551898Y-54909834D02*
X111551898Y-55403319D01*
X111551898Y-55156576D02*
X110688298Y-55156576D01*
X110688298Y-55156576D02*
X110811670Y-55238824D01*
X110811670Y-55238824D02*
X110893917Y-55321072D01*
X110893917Y-55321072D02*
X110935041Y-55403319D01*
X110770546Y-54580843D02*
X110729422Y-54539719D01*
X110729422Y-54539719D02*
X110688298Y-54457472D01*
X110688298Y-54457472D02*
X110688298Y-54251853D01*
X110688298Y-54251853D02*
X110729422Y-54169605D01*
X110729422Y-54169605D02*
X110770546Y-54128481D01*
X110770546Y-54128481D02*
X110852794Y-54087358D01*
X110852794Y-54087358D02*
X110935041Y-54087358D01*
X110935041Y-54087358D02*
X111058413Y-54128481D01*
X111058413Y-54128481D02*
X111551898Y-54621967D01*
X111551898Y-54621967D02*
X111551898Y-54087358D01*
X103685155Y-56883777D02*
X103685155Y-56472539D01*
X103931898Y-56966025D02*
X103068298Y-56678158D01*
X103068298Y-56678158D02*
X103931898Y-56390292D01*
X103931898Y-55608939D02*
X103520660Y-55896805D01*
X103931898Y-56102424D02*
X103068298Y-56102424D01*
X103068298Y-56102424D02*
X103068298Y-55773434D01*
X103068298Y-55773434D02*
X103109422Y-55691186D01*
X103109422Y-55691186D02*
X103150546Y-55650063D01*
X103150546Y-55650063D02*
X103232794Y-55608939D01*
X103232794Y-55608939D02*
X103356165Y-55608939D01*
X103356165Y-55608939D02*
X103438413Y-55650063D01*
X103438413Y-55650063D02*
X103479536Y-55691186D01*
X103479536Y-55691186D02*
X103520660Y-55773434D01*
X103520660Y-55773434D02*
X103520660Y-56102424D01*
X103479536Y-55238824D02*
X103479536Y-54950958D01*
X103931898Y-54827586D02*
X103931898Y-55238824D01*
X103931898Y-55238824D02*
X103068298Y-55238824D01*
X103068298Y-55238824D02*
X103068298Y-54827586D01*
X103479536Y-54169606D02*
X103479536Y-54457472D01*
X103931898Y-54457472D02*
X103068298Y-54457472D01*
X103068298Y-54457472D02*
X103068298Y-54046234D01*
X98810775Y-56143548D02*
X98851898Y-56020177D01*
X98851898Y-56020177D02*
X98851898Y-55814558D01*
X98851898Y-55814558D02*
X98810775Y-55732310D01*
X98810775Y-55732310D02*
X98769651Y-55691186D01*
X98769651Y-55691186D02*
X98687403Y-55650063D01*
X98687403Y-55650063D02*
X98605155Y-55650063D01*
X98605155Y-55650063D02*
X98522908Y-55691186D01*
X98522908Y-55691186D02*
X98481784Y-55732310D01*
X98481784Y-55732310D02*
X98440660Y-55814558D01*
X98440660Y-55814558D02*
X98399536Y-55979053D01*
X98399536Y-55979053D02*
X98358413Y-56061301D01*
X98358413Y-56061301D02*
X98317289Y-56102424D01*
X98317289Y-56102424D02*
X98235041Y-56143548D01*
X98235041Y-56143548D02*
X98152794Y-56143548D01*
X98152794Y-56143548D02*
X98070546Y-56102424D01*
X98070546Y-56102424D02*
X98029422Y-56061301D01*
X98029422Y-56061301D02*
X97988298Y-55979053D01*
X97988298Y-55979053D02*
X97988298Y-55773434D01*
X97988298Y-55773434D02*
X98029422Y-55650063D01*
X98769651Y-54786463D02*
X98810775Y-54827587D01*
X98810775Y-54827587D02*
X98851898Y-54950958D01*
X98851898Y-54950958D02*
X98851898Y-55033206D01*
X98851898Y-55033206D02*
X98810775Y-55156577D01*
X98810775Y-55156577D02*
X98728527Y-55238825D01*
X98728527Y-55238825D02*
X98646279Y-55279948D01*
X98646279Y-55279948D02*
X98481784Y-55321072D01*
X98481784Y-55321072D02*
X98358413Y-55321072D01*
X98358413Y-55321072D02*
X98193917Y-55279948D01*
X98193917Y-55279948D02*
X98111670Y-55238825D01*
X98111670Y-55238825D02*
X98029422Y-55156577D01*
X98029422Y-55156577D02*
X97988298Y-55033206D01*
X97988298Y-55033206D02*
X97988298Y-54950958D01*
X97988298Y-54950958D02*
X98029422Y-54827587D01*
X98029422Y-54827587D02*
X98070546Y-54786463D01*
X98851898Y-54005110D02*
X98851898Y-54416348D01*
X98851898Y-54416348D02*
X97988298Y-54416348D01*
X135160135Y-98909541D02*
X135119011Y-98868417D01*
X135119011Y-98868417D02*
X135077887Y-98786170D01*
X135077887Y-98786170D02*
X135077887Y-98580551D01*
X135077887Y-98580551D02*
X135119011Y-98498303D01*
X135119011Y-98498303D02*
X135160135Y-98457179D01*
X135160135Y-98457179D02*
X135242383Y-98416056D01*
X135242383Y-98416056D02*
X135324630Y-98416056D01*
X135324630Y-98416056D02*
X135448002Y-98457179D01*
X135448002Y-98457179D02*
X135941487Y-98950665D01*
X135941487Y-98950665D02*
X135941487Y-98416056D01*
X127452298Y-54169605D02*
X127452298Y-54334100D01*
X127452298Y-54334100D02*
X127493422Y-54416348D01*
X127493422Y-54416348D02*
X127534546Y-54457472D01*
X127534546Y-54457472D02*
X127657917Y-54539719D01*
X127657917Y-54539719D02*
X127822413Y-54580843D01*
X127822413Y-54580843D02*
X128151403Y-54580843D01*
X128151403Y-54580843D02*
X128233651Y-54539719D01*
X128233651Y-54539719D02*
X128274775Y-54498596D01*
X128274775Y-54498596D02*
X128315898Y-54416348D01*
X128315898Y-54416348D02*
X128315898Y-54251853D01*
X128315898Y-54251853D02*
X128274775Y-54169605D01*
X128274775Y-54169605D02*
X128233651Y-54128481D01*
X128233651Y-54128481D02*
X128151403Y-54087358D01*
X128151403Y-54087358D02*
X127945784Y-54087358D01*
X127945784Y-54087358D02*
X127863536Y-54128481D01*
X127863536Y-54128481D02*
X127822413Y-54169605D01*
X127822413Y-54169605D02*
X127781289Y-54251853D01*
X127781289Y-54251853D02*
X127781289Y-54416348D01*
X127781289Y-54416348D02*
X127822413Y-54498596D01*
X127822413Y-54498596D02*
X127863536Y-54539719D01*
X127863536Y-54539719D02*
X127945784Y-54580843D01*
X143555898Y-54909834D02*
X143144660Y-55197700D01*
X143555898Y-55403319D02*
X142692298Y-55403319D01*
X142692298Y-55403319D02*
X142692298Y-55074329D01*
X142692298Y-55074329D02*
X142733422Y-54992081D01*
X142733422Y-54992081D02*
X142774546Y-54950958D01*
X142774546Y-54950958D02*
X142856794Y-54909834D01*
X142856794Y-54909834D02*
X142980165Y-54909834D01*
X142980165Y-54909834D02*
X143062413Y-54950958D01*
X143062413Y-54950958D02*
X143103536Y-54992081D01*
X143103536Y-54992081D02*
X143144660Y-55074329D01*
X143144660Y-55074329D02*
X143144660Y-55403319D01*
X142692298Y-54621967D02*
X143555898Y-54046234D01*
X142692298Y-54046234D02*
X143555898Y-54621967D01*
X129997887Y-98703922D02*
X129997887Y-98621675D01*
X129997887Y-98621675D02*
X130039011Y-98539427D01*
X130039011Y-98539427D02*
X130080135Y-98498303D01*
X130080135Y-98498303D02*
X130162383Y-98457179D01*
X130162383Y-98457179D02*
X130326878Y-98416056D01*
X130326878Y-98416056D02*
X130532497Y-98416056D01*
X130532497Y-98416056D02*
X130696992Y-98457179D01*
X130696992Y-98457179D02*
X130779240Y-98498303D01*
X130779240Y-98498303D02*
X130820364Y-98539427D01*
X130820364Y-98539427D02*
X130861487Y-98621675D01*
X130861487Y-98621675D02*
X130861487Y-98703922D01*
X130861487Y-98703922D02*
X130820364Y-98786170D01*
X130820364Y-98786170D02*
X130779240Y-98827294D01*
X130779240Y-98827294D02*
X130696992Y-98868417D01*
X130696992Y-98868417D02*
X130532497Y-98909541D01*
X130532497Y-98909541D02*
X130326878Y-98909541D01*
X130326878Y-98909541D02*
X130162383Y-98868417D01*
X130162383Y-98868417D02*
X130080135Y-98827294D01*
X130080135Y-98827294D02*
X130039011Y-98786170D01*
X130039011Y-98786170D02*
X129997887Y-98703922D01*
X129992298Y-54128481D02*
X129992298Y-54539719D01*
X129992298Y-54539719D02*
X130403536Y-54580843D01*
X130403536Y-54580843D02*
X130362413Y-54539719D01*
X130362413Y-54539719D02*
X130321289Y-54457472D01*
X130321289Y-54457472D02*
X130321289Y-54251853D01*
X130321289Y-54251853D02*
X130362413Y-54169605D01*
X130362413Y-54169605D02*
X130403536Y-54128481D01*
X130403536Y-54128481D02*
X130485784Y-54087358D01*
X130485784Y-54087358D02*
X130691403Y-54087358D01*
X130691403Y-54087358D02*
X130773651Y-54128481D01*
X130773651Y-54128481D02*
X130814775Y-54169605D01*
X130814775Y-54169605D02*
X130855898Y-54251853D01*
X130855898Y-54251853D02*
X130855898Y-54457472D01*
X130855898Y-54457472D02*
X130814775Y-54539719D01*
X130814775Y-54539719D02*
X130773651Y-54580843D01*
X137694546Y-54580843D02*
X137653422Y-54539719D01*
X137653422Y-54539719D02*
X137612298Y-54457472D01*
X137612298Y-54457472D02*
X137612298Y-54251853D01*
X137612298Y-54251853D02*
X137653422Y-54169605D01*
X137653422Y-54169605D02*
X137694546Y-54128481D01*
X137694546Y-54128481D02*
X137776794Y-54087358D01*
X137776794Y-54087358D02*
X137859041Y-54087358D01*
X137859041Y-54087358D02*
X137982413Y-54128481D01*
X137982413Y-54128481D02*
X138475898Y-54621967D01*
X138475898Y-54621967D02*
X138475898Y-54087358D01*
X119171898Y-54498596D02*
X119171898Y-54334100D01*
X119171898Y-54334100D02*
X119130775Y-54251853D01*
X119130775Y-54251853D02*
X119089651Y-54210729D01*
X119089651Y-54210729D02*
X118966279Y-54128481D01*
X118966279Y-54128481D02*
X118801784Y-54087358D01*
X118801784Y-54087358D02*
X118472794Y-54087358D01*
X118472794Y-54087358D02*
X118390546Y-54128481D01*
X118390546Y-54128481D02*
X118349422Y-54169605D01*
X118349422Y-54169605D02*
X118308298Y-54251853D01*
X118308298Y-54251853D02*
X118308298Y-54416348D01*
X118308298Y-54416348D02*
X118349422Y-54498596D01*
X118349422Y-54498596D02*
X118390546Y-54539719D01*
X118390546Y-54539719D02*
X118472794Y-54580843D01*
X118472794Y-54580843D02*
X118678413Y-54580843D01*
X118678413Y-54580843D02*
X118760660Y-54539719D01*
X118760660Y-54539719D02*
X118801784Y-54498596D01*
X118801784Y-54498596D02*
X118842908Y-54416348D01*
X118842908Y-54416348D02*
X118842908Y-54251853D01*
X118842908Y-54251853D02*
X118801784Y-54169605D01*
X118801784Y-54169605D02*
X118760660Y-54128481D01*
X118760660Y-54128481D02*
X118678413Y-54087358D01*
X115292497Y-98868417D02*
X115292497Y-98210437D01*
X115621487Y-98539427D02*
X114963506Y-98539427D01*
X114757887Y-97881446D02*
X114757887Y-97346837D01*
X114757887Y-97346837D02*
X115086878Y-97634703D01*
X115086878Y-97634703D02*
X115086878Y-97511332D01*
X115086878Y-97511332D02*
X115128002Y-97429084D01*
X115128002Y-97429084D02*
X115169125Y-97387960D01*
X115169125Y-97387960D02*
X115251373Y-97346837D01*
X115251373Y-97346837D02*
X115456992Y-97346837D01*
X115456992Y-97346837D02*
X115539240Y-97387960D01*
X115539240Y-97387960D02*
X115580364Y-97429084D01*
X115580364Y-97429084D02*
X115621487Y-97511332D01*
X115621487Y-97511332D02*
X115621487Y-97758075D01*
X115621487Y-97758075D02*
X115580364Y-97840322D01*
X115580364Y-97840322D02*
X115539240Y-97881446D01*
X115539240Y-96976722D02*
X115580364Y-96935599D01*
X115580364Y-96935599D02*
X115621487Y-96976722D01*
X115621487Y-96976722D02*
X115580364Y-97017846D01*
X115580364Y-97017846D02*
X115539240Y-96976722D01*
X115539240Y-96976722D02*
X115621487Y-96976722D01*
X114757887Y-96647732D02*
X114757887Y-96113123D01*
X114757887Y-96113123D02*
X115086878Y-96400989D01*
X115086878Y-96400989D02*
X115086878Y-96277618D01*
X115086878Y-96277618D02*
X115128002Y-96195370D01*
X115128002Y-96195370D02*
X115169125Y-96154246D01*
X115169125Y-96154246D02*
X115251373Y-96113123D01*
X115251373Y-96113123D02*
X115456992Y-96113123D01*
X115456992Y-96113123D02*
X115539240Y-96154246D01*
X115539240Y-96154246D02*
X115580364Y-96195370D01*
X115580364Y-96195370D02*
X115621487Y-96277618D01*
X115621487Y-96277618D02*
X115621487Y-96524361D01*
X115621487Y-96524361D02*
X115580364Y-96606608D01*
X115580364Y-96606608D02*
X115539240Y-96647732D01*
X114757887Y-95866380D02*
X115621487Y-95578513D01*
X115621487Y-95578513D02*
X114757887Y-95290647D01*
X117832497Y-98868417D02*
X117832497Y-98210437D01*
X118161487Y-98539427D02*
X117503506Y-98539427D01*
X117297887Y-97387960D02*
X117297887Y-97799198D01*
X117297887Y-97799198D02*
X117709125Y-97840322D01*
X117709125Y-97840322D02*
X117668002Y-97799198D01*
X117668002Y-97799198D02*
X117626878Y-97716951D01*
X117626878Y-97716951D02*
X117626878Y-97511332D01*
X117626878Y-97511332D02*
X117668002Y-97429084D01*
X117668002Y-97429084D02*
X117709125Y-97387960D01*
X117709125Y-97387960D02*
X117791373Y-97346837D01*
X117791373Y-97346837D02*
X117996992Y-97346837D01*
X117996992Y-97346837D02*
X118079240Y-97387960D01*
X118079240Y-97387960D02*
X118120364Y-97429084D01*
X118120364Y-97429084D02*
X118161487Y-97511332D01*
X118161487Y-97511332D02*
X118161487Y-97716951D01*
X118161487Y-97716951D02*
X118120364Y-97799198D01*
X118120364Y-97799198D02*
X118079240Y-97840322D01*
X117297887Y-97100094D02*
X118161487Y-96812227D01*
X118161487Y-96812227D02*
X117297887Y-96524361D01*
X191059487Y-98416056D02*
X191059487Y-98909541D01*
X191059487Y-98662798D02*
X190195887Y-98662798D01*
X190195887Y-98662798D02*
X190319259Y-98745046D01*
X190319259Y-98745046D02*
X190401506Y-98827294D01*
X190401506Y-98827294D02*
X190442630Y-98909541D01*
X178876413Y-54416348D02*
X178835289Y-54498596D01*
X178835289Y-54498596D02*
X178794165Y-54539719D01*
X178794165Y-54539719D02*
X178711917Y-54580843D01*
X178711917Y-54580843D02*
X178670794Y-54580843D01*
X178670794Y-54580843D02*
X178588546Y-54539719D01*
X178588546Y-54539719D02*
X178547422Y-54498596D01*
X178547422Y-54498596D02*
X178506298Y-54416348D01*
X178506298Y-54416348D02*
X178506298Y-54251853D01*
X178506298Y-54251853D02*
X178547422Y-54169605D01*
X178547422Y-54169605D02*
X178588546Y-54128481D01*
X178588546Y-54128481D02*
X178670794Y-54087358D01*
X178670794Y-54087358D02*
X178711917Y-54087358D01*
X178711917Y-54087358D02*
X178794165Y-54128481D01*
X178794165Y-54128481D02*
X178835289Y-54169605D01*
X178835289Y-54169605D02*
X178876413Y-54251853D01*
X178876413Y-54251853D02*
X178876413Y-54416348D01*
X178876413Y-54416348D02*
X178917536Y-54498596D01*
X178917536Y-54498596D02*
X178958660Y-54539719D01*
X178958660Y-54539719D02*
X179040908Y-54580843D01*
X179040908Y-54580843D02*
X179205403Y-54580843D01*
X179205403Y-54580843D02*
X179287651Y-54539719D01*
X179287651Y-54539719D02*
X179328775Y-54498596D01*
X179328775Y-54498596D02*
X179369898Y-54416348D01*
X179369898Y-54416348D02*
X179369898Y-54251853D01*
X179369898Y-54251853D02*
X179328775Y-54169605D01*
X179328775Y-54169605D02*
X179287651Y-54128481D01*
X179287651Y-54128481D02*
X179205403Y-54087358D01*
X179205403Y-54087358D02*
X179040908Y-54087358D01*
X179040908Y-54087358D02*
X178958660Y-54128481D01*
X178958660Y-54128481D02*
X178917536Y-54169605D01*
X178917536Y-54169605D02*
X178876413Y-54251853D01*
X187655887Y-98703922D02*
X187655887Y-98621675D01*
X187655887Y-98621675D02*
X187697011Y-98539427D01*
X187697011Y-98539427D02*
X187738135Y-98498303D01*
X187738135Y-98498303D02*
X187820383Y-98457179D01*
X187820383Y-98457179D02*
X187984878Y-98416056D01*
X187984878Y-98416056D02*
X188190497Y-98416056D01*
X188190497Y-98416056D02*
X188354992Y-98457179D01*
X188354992Y-98457179D02*
X188437240Y-98498303D01*
X188437240Y-98498303D02*
X188478364Y-98539427D01*
X188478364Y-98539427D02*
X188519487Y-98621675D01*
X188519487Y-98621675D02*
X188519487Y-98703922D01*
X188519487Y-98703922D02*
X188478364Y-98786170D01*
X188478364Y-98786170D02*
X188437240Y-98827294D01*
X188437240Y-98827294D02*
X188354992Y-98868417D01*
X188354992Y-98868417D02*
X188190497Y-98909541D01*
X188190497Y-98909541D02*
X187984878Y-98909541D01*
X187984878Y-98909541D02*
X187820383Y-98868417D01*
X187820383Y-98868417D02*
X187738135Y-98827294D01*
X187738135Y-98827294D02*
X187697011Y-98786170D01*
X187697011Y-98786170D02*
X187655887Y-98703922D01*
X182575887Y-98991789D02*
X183439487Y-98703922D01*
X183439487Y-98703922D02*
X182575887Y-98416056D01*
X183439487Y-98128188D02*
X182575887Y-98128188D01*
X183439487Y-97716950D02*
X182575887Y-97716950D01*
X182575887Y-97716950D02*
X183439487Y-97223465D01*
X183439487Y-97223465D02*
X182575887Y-97223465D01*
X156468775Y-56143548D02*
X156509898Y-56020177D01*
X156509898Y-56020177D02*
X156509898Y-55814558D01*
X156509898Y-55814558D02*
X156468775Y-55732310D01*
X156468775Y-55732310D02*
X156427651Y-55691186D01*
X156427651Y-55691186D02*
X156345403Y-55650063D01*
X156345403Y-55650063D02*
X156263155Y-55650063D01*
X156263155Y-55650063D02*
X156180908Y-55691186D01*
X156180908Y-55691186D02*
X156139784Y-55732310D01*
X156139784Y-55732310D02*
X156098660Y-55814558D01*
X156098660Y-55814558D02*
X156057536Y-55979053D01*
X156057536Y-55979053D02*
X156016413Y-56061301D01*
X156016413Y-56061301D02*
X155975289Y-56102424D01*
X155975289Y-56102424D02*
X155893041Y-56143548D01*
X155893041Y-56143548D02*
X155810794Y-56143548D01*
X155810794Y-56143548D02*
X155728546Y-56102424D01*
X155728546Y-56102424D02*
X155687422Y-56061301D01*
X155687422Y-56061301D02*
X155646298Y-55979053D01*
X155646298Y-55979053D02*
X155646298Y-55773434D01*
X155646298Y-55773434D02*
X155687422Y-55650063D01*
X156427651Y-54786463D02*
X156468775Y-54827587D01*
X156468775Y-54827587D02*
X156509898Y-54950958D01*
X156509898Y-54950958D02*
X156509898Y-55033206D01*
X156509898Y-55033206D02*
X156468775Y-55156577D01*
X156468775Y-55156577D02*
X156386527Y-55238825D01*
X156386527Y-55238825D02*
X156304279Y-55279948D01*
X156304279Y-55279948D02*
X156139784Y-55321072D01*
X156139784Y-55321072D02*
X156016413Y-55321072D01*
X156016413Y-55321072D02*
X155851917Y-55279948D01*
X155851917Y-55279948D02*
X155769670Y-55238825D01*
X155769670Y-55238825D02*
X155687422Y-55156577D01*
X155687422Y-55156577D02*
X155646298Y-55033206D01*
X155646298Y-55033206D02*
X155646298Y-54950958D01*
X155646298Y-54950958D02*
X155687422Y-54827587D01*
X155687422Y-54827587D02*
X155728546Y-54786463D01*
X156509898Y-54005110D02*
X156509898Y-54416348D01*
X156509898Y-54416348D02*
X155646298Y-54416348D01*
X159008775Y-56184672D02*
X159049898Y-56061301D01*
X159049898Y-56061301D02*
X159049898Y-55855682D01*
X159049898Y-55855682D02*
X159008775Y-55773434D01*
X159008775Y-55773434D02*
X158967651Y-55732310D01*
X158967651Y-55732310D02*
X158885403Y-55691187D01*
X158885403Y-55691187D02*
X158803155Y-55691187D01*
X158803155Y-55691187D02*
X158720908Y-55732310D01*
X158720908Y-55732310D02*
X158679784Y-55773434D01*
X158679784Y-55773434D02*
X158638660Y-55855682D01*
X158638660Y-55855682D02*
X158597536Y-56020177D01*
X158597536Y-56020177D02*
X158556413Y-56102425D01*
X158556413Y-56102425D02*
X158515289Y-56143548D01*
X158515289Y-56143548D02*
X158433041Y-56184672D01*
X158433041Y-56184672D02*
X158350794Y-56184672D01*
X158350794Y-56184672D02*
X158268546Y-56143548D01*
X158268546Y-56143548D02*
X158227422Y-56102425D01*
X158227422Y-56102425D02*
X158186298Y-56020177D01*
X158186298Y-56020177D02*
X158186298Y-55814558D01*
X158186298Y-55814558D02*
X158227422Y-55691187D01*
X159049898Y-55321072D02*
X158186298Y-55321072D01*
X158186298Y-55321072D02*
X158186298Y-55115453D01*
X158186298Y-55115453D02*
X158227422Y-54992082D01*
X158227422Y-54992082D02*
X158309670Y-54909834D01*
X158309670Y-54909834D02*
X158391917Y-54868711D01*
X158391917Y-54868711D02*
X158556413Y-54827587D01*
X158556413Y-54827587D02*
X158679784Y-54827587D01*
X158679784Y-54827587D02*
X158844279Y-54868711D01*
X158844279Y-54868711D02*
X158926527Y-54909834D01*
X158926527Y-54909834D02*
X159008775Y-54992082D01*
X159008775Y-54992082D02*
X159049898Y-55115453D01*
X159049898Y-55115453D02*
X159049898Y-55321072D01*
X158803155Y-54498596D02*
X158803155Y-54087358D01*
X159049898Y-54580844D02*
X158186298Y-54292977D01*
X158186298Y-54292977D02*
X159049898Y-54005111D01*
X187650298Y-54128481D02*
X187650298Y-54539719D01*
X187650298Y-54539719D02*
X188061536Y-54580843D01*
X188061536Y-54580843D02*
X188020413Y-54539719D01*
X188020413Y-54539719D02*
X187979289Y-54457472D01*
X187979289Y-54457472D02*
X187979289Y-54251853D01*
X187979289Y-54251853D02*
X188020413Y-54169605D01*
X188020413Y-54169605D02*
X188061536Y-54128481D01*
X188061536Y-54128481D02*
X188143784Y-54087358D01*
X188143784Y-54087358D02*
X188349403Y-54087358D01*
X188349403Y-54087358D02*
X188431651Y-54128481D01*
X188431651Y-54128481D02*
X188472775Y-54169605D01*
X188472775Y-54169605D02*
X188513898Y-54251853D01*
X188513898Y-54251853D02*
X188513898Y-54457472D01*
X188513898Y-54457472D02*
X188472775Y-54539719D01*
X188472775Y-54539719D02*
X188431651Y-54580843D01*
X161343155Y-56883777D02*
X161343155Y-56472539D01*
X161589898Y-56966025D02*
X160726298Y-56678158D01*
X160726298Y-56678158D02*
X161589898Y-56390292D01*
X161589898Y-55608939D02*
X161178660Y-55896805D01*
X161589898Y-56102424D02*
X160726298Y-56102424D01*
X160726298Y-56102424D02*
X160726298Y-55773434D01*
X160726298Y-55773434D02*
X160767422Y-55691186D01*
X160767422Y-55691186D02*
X160808546Y-55650063D01*
X160808546Y-55650063D02*
X160890794Y-55608939D01*
X160890794Y-55608939D02*
X161014165Y-55608939D01*
X161014165Y-55608939D02*
X161096413Y-55650063D01*
X161096413Y-55650063D02*
X161137536Y-55691186D01*
X161137536Y-55691186D02*
X161178660Y-55773434D01*
X161178660Y-55773434D02*
X161178660Y-56102424D01*
X161137536Y-55238824D02*
X161137536Y-54950958D01*
X161589898Y-54827586D02*
X161589898Y-55238824D01*
X161589898Y-55238824D02*
X160726298Y-55238824D01*
X160726298Y-55238824D02*
X160726298Y-54827586D01*
X161137536Y-54169606D02*
X161137536Y-54457472D01*
X161589898Y-54457472D02*
X160726298Y-54457472D01*
X160726298Y-54457472D02*
X160726298Y-54046234D01*
X185110298Y-54169605D02*
X185110298Y-54334100D01*
X185110298Y-54334100D02*
X185151422Y-54416348D01*
X185151422Y-54416348D02*
X185192546Y-54457472D01*
X185192546Y-54457472D02*
X185315917Y-54539719D01*
X185315917Y-54539719D02*
X185480413Y-54580843D01*
X185480413Y-54580843D02*
X185809403Y-54580843D01*
X185809403Y-54580843D02*
X185891651Y-54539719D01*
X185891651Y-54539719D02*
X185932775Y-54498596D01*
X185932775Y-54498596D02*
X185973898Y-54416348D01*
X185973898Y-54416348D02*
X185973898Y-54251853D01*
X185973898Y-54251853D02*
X185932775Y-54169605D01*
X185932775Y-54169605D02*
X185891651Y-54128481D01*
X185891651Y-54128481D02*
X185809403Y-54087358D01*
X185809403Y-54087358D02*
X185603784Y-54087358D01*
X185603784Y-54087358D02*
X185521536Y-54128481D01*
X185521536Y-54128481D02*
X185480413Y-54169605D01*
X185480413Y-54169605D02*
X185439289Y-54251853D01*
X185439289Y-54251853D02*
X185439289Y-54416348D01*
X185439289Y-54416348D02*
X185480413Y-54498596D01*
X185480413Y-54498596D02*
X185521536Y-54539719D01*
X185521536Y-54539719D02*
X185603784Y-54580843D01*
X175490497Y-98868417D02*
X175490497Y-98210437D01*
X175819487Y-98539427D02*
X175161506Y-98539427D01*
X174955887Y-97387960D02*
X174955887Y-97799198D01*
X174955887Y-97799198D02*
X175367125Y-97840322D01*
X175367125Y-97840322D02*
X175326002Y-97799198D01*
X175326002Y-97799198D02*
X175284878Y-97716951D01*
X175284878Y-97716951D02*
X175284878Y-97511332D01*
X175284878Y-97511332D02*
X175326002Y-97429084D01*
X175326002Y-97429084D02*
X175367125Y-97387960D01*
X175367125Y-97387960D02*
X175449373Y-97346837D01*
X175449373Y-97346837D02*
X175654992Y-97346837D01*
X175654992Y-97346837D02*
X175737240Y-97387960D01*
X175737240Y-97387960D02*
X175778364Y-97429084D01*
X175778364Y-97429084D02*
X175819487Y-97511332D01*
X175819487Y-97511332D02*
X175819487Y-97716951D01*
X175819487Y-97716951D02*
X175778364Y-97799198D01*
X175778364Y-97799198D02*
X175737240Y-97840322D01*
X174955887Y-97100094D02*
X175819487Y-96812227D01*
X175819487Y-96812227D02*
X174955887Y-96524361D01*
X169209898Y-54909834D02*
X169209898Y-55403319D01*
X169209898Y-55156576D02*
X168346298Y-55156576D01*
X168346298Y-55156576D02*
X168469670Y-55238824D01*
X168469670Y-55238824D02*
X168551917Y-55321072D01*
X168551917Y-55321072D02*
X168593041Y-55403319D01*
X168428546Y-54580843D02*
X168387422Y-54539719D01*
X168387422Y-54539719D02*
X168346298Y-54457472D01*
X168346298Y-54457472D02*
X168346298Y-54251853D01*
X168346298Y-54251853D02*
X168387422Y-54169605D01*
X168387422Y-54169605D02*
X168428546Y-54128481D01*
X168428546Y-54128481D02*
X168510794Y-54087358D01*
X168510794Y-54087358D02*
X168593041Y-54087358D01*
X168593041Y-54087358D02*
X168716413Y-54128481D01*
X168716413Y-54128481D02*
X169209898Y-54621967D01*
X169209898Y-54621967D02*
X169209898Y-54087358D01*
X168199487Y-98868417D02*
X167335887Y-98868417D01*
X167335887Y-98292684D02*
X167335887Y-98128189D01*
X167335887Y-98128189D02*
X167377011Y-98045941D01*
X167377011Y-98045941D02*
X167459259Y-97963694D01*
X167459259Y-97963694D02*
X167623754Y-97922570D01*
X167623754Y-97922570D02*
X167911621Y-97922570D01*
X167911621Y-97922570D02*
X168076116Y-97963694D01*
X168076116Y-97963694D02*
X168158364Y-98045941D01*
X168158364Y-98045941D02*
X168199487Y-98128189D01*
X168199487Y-98128189D02*
X168199487Y-98292684D01*
X168199487Y-98292684D02*
X168158364Y-98374932D01*
X168158364Y-98374932D02*
X168076116Y-98457179D01*
X168076116Y-98457179D02*
X167911621Y-98498303D01*
X167911621Y-98498303D02*
X167623754Y-98498303D01*
X167623754Y-98498303D02*
X167459259Y-98457179D01*
X167459259Y-98457179D02*
X167377011Y-98374932D01*
X167377011Y-98374932D02*
X167335887Y-98292684D01*
X168199487Y-97058970D02*
X167788249Y-97346836D01*
X168199487Y-97552455D02*
X167335887Y-97552455D01*
X167335887Y-97552455D02*
X167335887Y-97223465D01*
X167335887Y-97223465D02*
X167377011Y-97141217D01*
X167377011Y-97141217D02*
X167418135Y-97100094D01*
X167418135Y-97100094D02*
X167500383Y-97058970D01*
X167500383Y-97058970D02*
X167623754Y-97058970D01*
X167623754Y-97058970D02*
X167706002Y-97100094D01*
X167706002Y-97100094D02*
X167747125Y-97141217D01*
X167747125Y-97141217D02*
X167788249Y-97223465D01*
X167788249Y-97223465D02*
X167788249Y-97552455D01*
X167747125Y-96688855D02*
X167747125Y-96400989D01*
X168199487Y-96277617D02*
X168199487Y-96688855D01*
X168199487Y-96688855D02*
X167335887Y-96688855D01*
X167335887Y-96688855D02*
X167335887Y-96277617D01*
X167747125Y-95619637D02*
X167747125Y-95907503D01*
X168199487Y-95907503D02*
X167335887Y-95907503D01*
X167335887Y-95907503D02*
X167335887Y-95496265D01*
X174289898Y-54909834D02*
X174289898Y-55403319D01*
X174289898Y-55156576D02*
X173426298Y-55156576D01*
X173426298Y-55156576D02*
X173549670Y-55238824D01*
X173549670Y-55238824D02*
X173631917Y-55321072D01*
X173631917Y-55321072D02*
X173673041Y-55403319D01*
X173426298Y-54375224D02*
X173426298Y-54292977D01*
X173426298Y-54292977D02*
X173467422Y-54210729D01*
X173467422Y-54210729D02*
X173508546Y-54169605D01*
X173508546Y-54169605D02*
X173590794Y-54128481D01*
X173590794Y-54128481D02*
X173755289Y-54087358D01*
X173755289Y-54087358D02*
X173960908Y-54087358D01*
X173960908Y-54087358D02*
X174125403Y-54128481D01*
X174125403Y-54128481D02*
X174207651Y-54169605D01*
X174207651Y-54169605D02*
X174248775Y-54210729D01*
X174248775Y-54210729D02*
X174289898Y-54292977D01*
X174289898Y-54292977D02*
X174289898Y-54375224D01*
X174289898Y-54375224D02*
X174248775Y-54457472D01*
X174248775Y-54457472D02*
X174207651Y-54498596D01*
X174207651Y-54498596D02*
X174125403Y-54539719D01*
X174125403Y-54539719D02*
X173960908Y-54580843D01*
X173960908Y-54580843D02*
X173755289Y-54580843D01*
X173755289Y-54580843D02*
X173590794Y-54539719D01*
X173590794Y-54539719D02*
X173508546Y-54498596D01*
X173508546Y-54498596D02*
X173467422Y-54457472D01*
X173467422Y-54457472D02*
X173426298Y-54375224D01*
X177537011Y-98416056D02*
X177495887Y-98498303D01*
X177495887Y-98498303D02*
X177495887Y-98621675D01*
X177495887Y-98621675D02*
X177537011Y-98745046D01*
X177537011Y-98745046D02*
X177619259Y-98827294D01*
X177619259Y-98827294D02*
X177701506Y-98868417D01*
X177701506Y-98868417D02*
X177866002Y-98909541D01*
X177866002Y-98909541D02*
X177989373Y-98909541D01*
X177989373Y-98909541D02*
X178153868Y-98868417D01*
X178153868Y-98868417D02*
X178236116Y-98827294D01*
X178236116Y-98827294D02*
X178318364Y-98745046D01*
X178318364Y-98745046D02*
X178359487Y-98621675D01*
X178359487Y-98621675D02*
X178359487Y-98539427D01*
X178359487Y-98539427D02*
X178318364Y-98416056D01*
X178318364Y-98416056D02*
X178277240Y-98374932D01*
X178277240Y-98374932D02*
X177989373Y-98374932D01*
X177989373Y-98374932D02*
X177989373Y-98539427D01*
X178359487Y-98004817D02*
X177495887Y-98004817D01*
X177495887Y-98004817D02*
X178359487Y-97511332D01*
X178359487Y-97511332D02*
X177495887Y-97511332D01*
X178359487Y-97100093D02*
X177495887Y-97100093D01*
X177495887Y-97100093D02*
X177495887Y-96894474D01*
X177495887Y-96894474D02*
X177537011Y-96771103D01*
X177537011Y-96771103D02*
X177619259Y-96688855D01*
X177619259Y-96688855D02*
X177701506Y-96647732D01*
X177701506Y-96647732D02*
X177866002Y-96606608D01*
X177866002Y-96606608D02*
X177989373Y-96606608D01*
X177989373Y-96606608D02*
X178153868Y-96647732D01*
X178153868Y-96647732D02*
X178236116Y-96688855D01*
X178236116Y-96688855D02*
X178318364Y-96771103D01*
X178318364Y-96771103D02*
X178359487Y-96894474D01*
X178359487Y-96894474D02*
X178359487Y-97100093D01*
X190478165Y-54169605D02*
X191053898Y-54169605D01*
X190149175Y-54375224D02*
X190766032Y-54580843D01*
X190766032Y-54580843D02*
X190766032Y-54046234D01*
X171749898Y-54909834D02*
X171749898Y-55403319D01*
X171749898Y-55156576D02*
X170886298Y-55156576D01*
X170886298Y-55156576D02*
X171009670Y-55238824D01*
X171009670Y-55238824D02*
X171091917Y-55321072D01*
X171091917Y-55321072D02*
X171133041Y-55403319D01*
X171749898Y-54087358D02*
X171749898Y-54580843D01*
X171749898Y-54334100D02*
X170886298Y-54334100D01*
X170886298Y-54334100D02*
X171009670Y-54416348D01*
X171009670Y-54416348D02*
X171091917Y-54498596D01*
X171091917Y-54498596D02*
X171133041Y-54580843D01*
X195352546Y-54580843D02*
X195311422Y-54539719D01*
X195311422Y-54539719D02*
X195270298Y-54457472D01*
X195270298Y-54457472D02*
X195270298Y-54251853D01*
X195270298Y-54251853D02*
X195311422Y-54169605D01*
X195311422Y-54169605D02*
X195352546Y-54128481D01*
X195352546Y-54128481D02*
X195434794Y-54087358D01*
X195434794Y-54087358D02*
X195517041Y-54087358D01*
X195517041Y-54087358D02*
X195640413Y-54128481D01*
X195640413Y-54128481D02*
X196133898Y-54621967D01*
X196133898Y-54621967D02*
X196133898Y-54087358D01*
X192307762Y-97284355D02*
X192719000Y-97284355D01*
X192225514Y-97531098D02*
X192513381Y-96667498D01*
X192513381Y-96667498D02*
X192801247Y-97531098D01*
X193089115Y-96955365D02*
X193089115Y-97531098D01*
X193089115Y-97037613D02*
X193130238Y-96996489D01*
X193130238Y-96996489D02*
X193212486Y-96955365D01*
X193212486Y-96955365D02*
X193335857Y-96955365D01*
X193335857Y-96955365D02*
X193418105Y-96996489D01*
X193418105Y-96996489D02*
X193459229Y-97078736D01*
X193459229Y-97078736D02*
X193459229Y-97531098D01*
X194240581Y-97531098D02*
X194240581Y-97078736D01*
X194240581Y-97078736D02*
X194199457Y-96996489D01*
X194199457Y-96996489D02*
X194117209Y-96955365D01*
X194117209Y-96955365D02*
X193952714Y-96955365D01*
X193952714Y-96955365D02*
X193870467Y-96996489D01*
X194240581Y-97489975D02*
X194158333Y-97531098D01*
X194158333Y-97531098D02*
X193952714Y-97531098D01*
X193952714Y-97531098D02*
X193870467Y-97489975D01*
X193870467Y-97489975D02*
X193829343Y-97407727D01*
X193829343Y-97407727D02*
X193829343Y-97325479D01*
X193829343Y-97325479D02*
X193870467Y-97243232D01*
X193870467Y-97243232D02*
X193952714Y-97202108D01*
X193952714Y-97202108D02*
X194158333Y-97202108D01*
X194158333Y-97202108D02*
X194240581Y-97160984D01*
X194775190Y-97531098D02*
X194692942Y-97489975D01*
X194692942Y-97489975D02*
X194651819Y-97407727D01*
X194651819Y-97407727D02*
X194651819Y-96667498D01*
X195227552Y-97531098D02*
X195145304Y-97489975D01*
X195145304Y-97489975D02*
X195104181Y-97448851D01*
X195104181Y-97448851D02*
X195063057Y-97366603D01*
X195063057Y-97366603D02*
X195063057Y-97119860D01*
X195063057Y-97119860D02*
X195104181Y-97037613D01*
X195104181Y-97037613D02*
X195145304Y-96996489D01*
X195145304Y-96996489D02*
X195227552Y-96955365D01*
X195227552Y-96955365D02*
X195350923Y-96955365D01*
X195350923Y-96955365D02*
X195433171Y-96996489D01*
X195433171Y-96996489D02*
X195474295Y-97037613D01*
X195474295Y-97037613D02*
X195515419Y-97119860D01*
X195515419Y-97119860D02*
X195515419Y-97366603D01*
X195515419Y-97366603D02*
X195474295Y-97448851D01*
X195474295Y-97448851D02*
X195433171Y-97489975D01*
X195433171Y-97489975D02*
X195350923Y-97531098D01*
X195350923Y-97531098D02*
X195227552Y-97531098D01*
X196255647Y-96955365D02*
X196255647Y-97654470D01*
X196255647Y-97654470D02*
X196214523Y-97736717D01*
X196214523Y-97736717D02*
X196173399Y-97777841D01*
X196173399Y-97777841D02*
X196091152Y-97818965D01*
X196091152Y-97818965D02*
X195967780Y-97818965D01*
X195967780Y-97818965D02*
X195885533Y-97777841D01*
X196255647Y-97489975D02*
X196173399Y-97531098D01*
X196173399Y-97531098D02*
X196008904Y-97531098D01*
X196008904Y-97531098D02*
X195926656Y-97489975D01*
X195926656Y-97489975D02*
X195885533Y-97448851D01*
X195885533Y-97448851D02*
X195844409Y-97366603D01*
X195844409Y-97366603D02*
X195844409Y-97119860D01*
X195844409Y-97119860D02*
X195885533Y-97037613D01*
X195885533Y-97037613D02*
X195926656Y-96996489D01*
X195926656Y-96996489D02*
X196008904Y-96955365D01*
X196008904Y-96955365D02*
X196173399Y-96955365D01*
X196173399Y-96955365D02*
X196255647Y-96996489D01*
X197324866Y-97531098D02*
X197324866Y-96667498D01*
X197736104Y-96955365D02*
X197736104Y-97531098D01*
X197736104Y-97037613D02*
X197777227Y-96996489D01*
X197777227Y-96996489D02*
X197859475Y-96955365D01*
X197859475Y-96955365D02*
X197982846Y-96955365D01*
X197982846Y-96955365D02*
X198065094Y-96996489D01*
X198065094Y-96996489D02*
X198106218Y-97078736D01*
X198106218Y-97078736D02*
X198106218Y-97531098D01*
X192818135Y-98909541D02*
X192777011Y-98868417D01*
X192777011Y-98868417D02*
X192735887Y-98786170D01*
X192735887Y-98786170D02*
X192735887Y-98580551D01*
X192735887Y-98580551D02*
X192777011Y-98498303D01*
X192777011Y-98498303D02*
X192818135Y-98457179D01*
X192818135Y-98457179D02*
X192900383Y-98416056D01*
X192900383Y-98416056D02*
X192982630Y-98416056D01*
X192982630Y-98416056D02*
X193106002Y-98457179D01*
X193106002Y-98457179D02*
X193599487Y-98950665D01*
X193599487Y-98950665D02*
X193599487Y-98416056D01*
X172950497Y-98868417D02*
X172950497Y-98210437D01*
X173279487Y-98539427D02*
X172621506Y-98539427D01*
X172415887Y-97881446D02*
X172415887Y-97346837D01*
X172415887Y-97346837D02*
X172744878Y-97634703D01*
X172744878Y-97634703D02*
X172744878Y-97511332D01*
X172744878Y-97511332D02*
X172786002Y-97429084D01*
X172786002Y-97429084D02*
X172827125Y-97387960D01*
X172827125Y-97387960D02*
X172909373Y-97346837D01*
X172909373Y-97346837D02*
X173114992Y-97346837D01*
X173114992Y-97346837D02*
X173197240Y-97387960D01*
X173197240Y-97387960D02*
X173238364Y-97429084D01*
X173238364Y-97429084D02*
X173279487Y-97511332D01*
X173279487Y-97511332D02*
X173279487Y-97758075D01*
X173279487Y-97758075D02*
X173238364Y-97840322D01*
X173238364Y-97840322D02*
X173197240Y-97881446D01*
X173197240Y-96976722D02*
X173238364Y-96935599D01*
X173238364Y-96935599D02*
X173279487Y-96976722D01*
X173279487Y-96976722D02*
X173238364Y-97017846D01*
X173238364Y-97017846D02*
X173197240Y-96976722D01*
X173197240Y-96976722D02*
X173279487Y-96976722D01*
X172415887Y-96647732D02*
X172415887Y-96113123D01*
X172415887Y-96113123D02*
X172744878Y-96400989D01*
X172744878Y-96400989D02*
X172744878Y-96277618D01*
X172744878Y-96277618D02*
X172786002Y-96195370D01*
X172786002Y-96195370D02*
X172827125Y-96154246D01*
X172827125Y-96154246D02*
X172909373Y-96113123D01*
X172909373Y-96113123D02*
X173114992Y-96113123D01*
X173114992Y-96113123D02*
X173197240Y-96154246D01*
X173197240Y-96154246D02*
X173238364Y-96195370D01*
X173238364Y-96195370D02*
X173279487Y-96277618D01*
X173279487Y-96277618D02*
X173279487Y-96524361D01*
X173279487Y-96524361D02*
X173238364Y-96606608D01*
X173238364Y-96606608D02*
X173197240Y-96647732D01*
X172415887Y-95866380D02*
X173279487Y-95578513D01*
X173279487Y-95578513D02*
X172415887Y-95290647D01*
X200355887Y-98457179D02*
X200355887Y-98868417D01*
X200355887Y-98868417D02*
X200767125Y-98909541D01*
X200767125Y-98909541D02*
X200726002Y-98868417D01*
X200726002Y-98868417D02*
X200684878Y-98786170D01*
X200684878Y-98786170D02*
X200684878Y-98580551D01*
X200684878Y-98580551D02*
X200726002Y-98498303D01*
X200726002Y-98498303D02*
X200767125Y-98457179D01*
X200767125Y-98457179D02*
X200849373Y-98416056D01*
X200849373Y-98416056D02*
X201054992Y-98416056D01*
X201054992Y-98416056D02*
X201137240Y-98457179D01*
X201137240Y-98457179D02*
X201178364Y-98498303D01*
X201178364Y-98498303D02*
X201219487Y-98580551D01*
X201219487Y-98580551D02*
X201219487Y-98786170D01*
X201219487Y-98786170D02*
X201178364Y-98868417D01*
X201178364Y-98868417D02*
X201137240Y-98909541D01*
X201213898Y-54909834D02*
X200802660Y-55197700D01*
X201213898Y-55403319D02*
X200350298Y-55403319D01*
X200350298Y-55403319D02*
X200350298Y-55074329D01*
X200350298Y-55074329D02*
X200391422Y-54992081D01*
X200391422Y-54992081D02*
X200432546Y-54950958D01*
X200432546Y-54950958D02*
X200514794Y-54909834D01*
X200514794Y-54909834D02*
X200638165Y-54909834D01*
X200638165Y-54909834D02*
X200720413Y-54950958D01*
X200720413Y-54950958D02*
X200761536Y-54992081D01*
X200761536Y-54992081D02*
X200802660Y-55074329D01*
X200802660Y-55074329D02*
X200802660Y-55403319D01*
X200350298Y-54621967D02*
X201213898Y-54046234D01*
X200350298Y-54046234D02*
X201213898Y-54621967D01*
X197810298Y-55321072D02*
X197810298Y-54827586D01*
X198673898Y-55074329D02*
X197810298Y-55074329D01*
X197810298Y-54621967D02*
X198673898Y-54046234D01*
X197810298Y-54046234D02*
X198673898Y-54621967D01*
X182570298Y-54621967D02*
X182570298Y-54046234D01*
X182570298Y-54046234D02*
X183433898Y-54416348D01*
X163307422Y-55896806D02*
X163266298Y-55979053D01*
X163266298Y-55979053D02*
X163266298Y-56102425D01*
X163266298Y-56102425D02*
X163307422Y-56225796D01*
X163307422Y-56225796D02*
X163389670Y-56308044D01*
X163389670Y-56308044D02*
X163471917Y-56349167D01*
X163471917Y-56349167D02*
X163636413Y-56390291D01*
X163636413Y-56390291D02*
X163759784Y-56390291D01*
X163759784Y-56390291D02*
X163924279Y-56349167D01*
X163924279Y-56349167D02*
X164006527Y-56308044D01*
X164006527Y-56308044D02*
X164088775Y-56225796D01*
X164088775Y-56225796D02*
X164129898Y-56102425D01*
X164129898Y-56102425D02*
X164129898Y-56020177D01*
X164129898Y-56020177D02*
X164088775Y-55896806D01*
X164088775Y-55896806D02*
X164047651Y-55855682D01*
X164047651Y-55855682D02*
X163759784Y-55855682D01*
X163759784Y-55855682D02*
X163759784Y-56020177D01*
X164129898Y-55485567D02*
X163266298Y-55485567D01*
X163266298Y-55485567D02*
X164129898Y-54992082D01*
X164129898Y-54992082D02*
X163266298Y-54992082D01*
X164129898Y-54580843D02*
X163266298Y-54580843D01*
X163266298Y-54580843D02*
X163266298Y-54375224D01*
X163266298Y-54375224D02*
X163307422Y-54251853D01*
X163307422Y-54251853D02*
X163389670Y-54169605D01*
X163389670Y-54169605D02*
X163471917Y-54128482D01*
X163471917Y-54128482D02*
X163636413Y-54087358D01*
X163636413Y-54087358D02*
X163759784Y-54087358D01*
X163759784Y-54087358D02*
X163924279Y-54128482D01*
X163924279Y-54128482D02*
X164006527Y-54169605D01*
X164006527Y-54169605D02*
X164088775Y-54251853D01*
X164088775Y-54251853D02*
X164129898Y-54375224D01*
X164129898Y-54375224D02*
X164129898Y-54580843D01*
X180077011Y-98416056D02*
X180035887Y-98498303D01*
X180035887Y-98498303D02*
X180035887Y-98621675D01*
X180035887Y-98621675D02*
X180077011Y-98745046D01*
X180077011Y-98745046D02*
X180159259Y-98827294D01*
X180159259Y-98827294D02*
X180241506Y-98868417D01*
X180241506Y-98868417D02*
X180406002Y-98909541D01*
X180406002Y-98909541D02*
X180529373Y-98909541D01*
X180529373Y-98909541D02*
X180693868Y-98868417D01*
X180693868Y-98868417D02*
X180776116Y-98827294D01*
X180776116Y-98827294D02*
X180858364Y-98745046D01*
X180858364Y-98745046D02*
X180899487Y-98621675D01*
X180899487Y-98621675D02*
X180899487Y-98539427D01*
X180899487Y-98539427D02*
X180858364Y-98416056D01*
X180858364Y-98416056D02*
X180817240Y-98374932D01*
X180817240Y-98374932D02*
X180529373Y-98374932D01*
X180529373Y-98374932D02*
X180529373Y-98539427D01*
X180899487Y-98004817D02*
X180035887Y-98004817D01*
X180035887Y-98004817D02*
X180899487Y-97511332D01*
X180899487Y-97511332D02*
X180035887Y-97511332D01*
X180899487Y-97100093D02*
X180035887Y-97100093D01*
X180035887Y-97100093D02*
X180035887Y-96894474D01*
X180035887Y-96894474D02*
X180077011Y-96771103D01*
X180077011Y-96771103D02*
X180159259Y-96688855D01*
X180159259Y-96688855D02*
X180241506Y-96647732D01*
X180241506Y-96647732D02*
X180406002Y-96606608D01*
X180406002Y-96606608D02*
X180529373Y-96606608D01*
X180529373Y-96606608D02*
X180693868Y-96647732D01*
X180693868Y-96647732D02*
X180776116Y-96688855D01*
X180776116Y-96688855D02*
X180858364Y-96771103D01*
X180858364Y-96771103D02*
X180899487Y-96894474D01*
X180899487Y-96894474D02*
X180899487Y-97100093D01*
X166669898Y-54909834D02*
X166669898Y-55403319D01*
X166669898Y-55156576D02*
X165806298Y-55156576D01*
X165806298Y-55156576D02*
X165929670Y-55238824D01*
X165929670Y-55238824D02*
X166011917Y-55321072D01*
X166011917Y-55321072D02*
X166053041Y-55403319D01*
X165806298Y-54621967D02*
X165806298Y-54087358D01*
X165806298Y-54087358D02*
X166135289Y-54375224D01*
X166135289Y-54375224D02*
X166135289Y-54251853D01*
X166135289Y-54251853D02*
X166176413Y-54169605D01*
X166176413Y-54169605D02*
X166217536Y-54128481D01*
X166217536Y-54128481D02*
X166299784Y-54087358D01*
X166299784Y-54087358D02*
X166505403Y-54087358D01*
X166505403Y-54087358D02*
X166587651Y-54128481D01*
X166587651Y-54128481D02*
X166628775Y-54169605D01*
X166628775Y-54169605D02*
X166669898Y-54251853D01*
X166669898Y-54251853D02*
X166669898Y-54498596D01*
X166669898Y-54498596D02*
X166628775Y-54580843D01*
X166628775Y-54580843D02*
X166587651Y-54621967D01*
X170739487Y-98374932D02*
X170328249Y-98662798D01*
X170739487Y-98868417D02*
X169875887Y-98868417D01*
X169875887Y-98868417D02*
X169875887Y-98539427D01*
X169875887Y-98539427D02*
X169917011Y-98457179D01*
X169917011Y-98457179D02*
X169958135Y-98416056D01*
X169958135Y-98416056D02*
X170040383Y-98374932D01*
X170040383Y-98374932D02*
X170163754Y-98374932D01*
X170163754Y-98374932D02*
X170246002Y-98416056D01*
X170246002Y-98416056D02*
X170287125Y-98457179D01*
X170287125Y-98457179D02*
X170328249Y-98539427D01*
X170328249Y-98539427D02*
X170328249Y-98868417D01*
X170698364Y-98045941D02*
X170739487Y-97922570D01*
X170739487Y-97922570D02*
X170739487Y-97716951D01*
X170739487Y-97716951D02*
X170698364Y-97634703D01*
X170698364Y-97634703D02*
X170657240Y-97593579D01*
X170657240Y-97593579D02*
X170574992Y-97552456D01*
X170574992Y-97552456D02*
X170492744Y-97552456D01*
X170492744Y-97552456D02*
X170410497Y-97593579D01*
X170410497Y-97593579D02*
X170369373Y-97634703D01*
X170369373Y-97634703D02*
X170328249Y-97716951D01*
X170328249Y-97716951D02*
X170287125Y-97881446D01*
X170287125Y-97881446D02*
X170246002Y-97963694D01*
X170246002Y-97963694D02*
X170204878Y-98004817D01*
X170204878Y-98004817D02*
X170122630Y-98045941D01*
X170122630Y-98045941D02*
X170040383Y-98045941D01*
X170040383Y-98045941D02*
X169958135Y-98004817D01*
X169958135Y-98004817D02*
X169917011Y-97963694D01*
X169917011Y-97963694D02*
X169875887Y-97881446D01*
X169875887Y-97881446D02*
X169875887Y-97675827D01*
X169875887Y-97675827D02*
X169917011Y-97552456D01*
X169875887Y-97305713D02*
X169875887Y-96812227D01*
X170739487Y-97058970D02*
X169875887Y-97058970D01*
X176829898Y-54498596D02*
X176829898Y-54334100D01*
X176829898Y-54334100D02*
X176788775Y-54251853D01*
X176788775Y-54251853D02*
X176747651Y-54210729D01*
X176747651Y-54210729D02*
X176624279Y-54128481D01*
X176624279Y-54128481D02*
X176459784Y-54087358D01*
X176459784Y-54087358D02*
X176130794Y-54087358D01*
X176130794Y-54087358D02*
X176048546Y-54128481D01*
X176048546Y-54128481D02*
X176007422Y-54169605D01*
X176007422Y-54169605D02*
X175966298Y-54251853D01*
X175966298Y-54251853D02*
X175966298Y-54416348D01*
X175966298Y-54416348D02*
X176007422Y-54498596D01*
X176007422Y-54498596D02*
X176048546Y-54539719D01*
X176048546Y-54539719D02*
X176130794Y-54580843D01*
X176130794Y-54580843D02*
X176336413Y-54580843D01*
X176336413Y-54580843D02*
X176418660Y-54539719D01*
X176418660Y-54539719D02*
X176459784Y-54498596D01*
X176459784Y-54498596D02*
X176500908Y-54416348D01*
X176500908Y-54416348D02*
X176500908Y-54251853D01*
X176500908Y-54251853D02*
X176459784Y-54169605D01*
X176459784Y-54169605D02*
X176418660Y-54128481D01*
X176418660Y-54128481D02*
X176336413Y-54087358D01*
X195275887Y-98950665D02*
X195275887Y-98416056D01*
X195275887Y-98416056D02*
X195604878Y-98703922D01*
X195604878Y-98703922D02*
X195604878Y-98580551D01*
X195604878Y-98580551D02*
X195646002Y-98498303D01*
X195646002Y-98498303D02*
X195687125Y-98457179D01*
X195687125Y-98457179D02*
X195769373Y-98416056D01*
X195769373Y-98416056D02*
X195974992Y-98416056D01*
X195974992Y-98416056D02*
X196057240Y-98457179D01*
X196057240Y-98457179D02*
X196098364Y-98498303D01*
X196098364Y-98498303D02*
X196139487Y-98580551D01*
X196139487Y-98580551D02*
X196139487Y-98827294D01*
X196139487Y-98827294D02*
X196098364Y-98909541D01*
X196098364Y-98909541D02*
X196057240Y-98950665D01*
X192730298Y-54621967D02*
X192730298Y-54087358D01*
X192730298Y-54087358D02*
X193059289Y-54375224D01*
X193059289Y-54375224D02*
X193059289Y-54251853D01*
X193059289Y-54251853D02*
X193100413Y-54169605D01*
X193100413Y-54169605D02*
X193141536Y-54128481D01*
X193141536Y-54128481D02*
X193223784Y-54087358D01*
X193223784Y-54087358D02*
X193429403Y-54087358D01*
X193429403Y-54087358D02*
X193511651Y-54128481D01*
X193511651Y-54128481D02*
X193552775Y-54169605D01*
X193552775Y-54169605D02*
X193593898Y-54251853D01*
X193593898Y-54251853D02*
X193593898Y-54498596D01*
X193593898Y-54498596D02*
X193552775Y-54580843D01*
X193552775Y-54580843D02*
X193511651Y-54621967D01*
X198103754Y-98498303D02*
X198679487Y-98498303D01*
X197774764Y-98703922D02*
X198391621Y-98909541D01*
X198391621Y-98909541D02*
X198391621Y-98374932D01*
X174289898Y-112059834D02*
X174289898Y-112553319D01*
X174289898Y-112306576D02*
X173426298Y-112306576D01*
X173426298Y-112306576D02*
X173549670Y-112388824D01*
X173549670Y-112388824D02*
X173631917Y-112471072D01*
X173631917Y-112471072D02*
X173673041Y-112553319D01*
X173426298Y-111525224D02*
X173426298Y-111442977D01*
X173426298Y-111442977D02*
X173467422Y-111360729D01*
X173467422Y-111360729D02*
X173508546Y-111319605D01*
X173508546Y-111319605D02*
X173590794Y-111278481D01*
X173590794Y-111278481D02*
X173755289Y-111237358D01*
X173755289Y-111237358D02*
X173960908Y-111237358D01*
X173960908Y-111237358D02*
X174125403Y-111278481D01*
X174125403Y-111278481D02*
X174207651Y-111319605D01*
X174207651Y-111319605D02*
X174248775Y-111360729D01*
X174248775Y-111360729D02*
X174289898Y-111442977D01*
X174289898Y-111442977D02*
X174289898Y-111525224D01*
X174289898Y-111525224D02*
X174248775Y-111607472D01*
X174248775Y-111607472D02*
X174207651Y-111648596D01*
X174207651Y-111648596D02*
X174125403Y-111689719D01*
X174125403Y-111689719D02*
X173960908Y-111730843D01*
X173960908Y-111730843D02*
X173755289Y-111730843D01*
X173755289Y-111730843D02*
X173590794Y-111689719D01*
X173590794Y-111689719D02*
X173508546Y-111648596D01*
X173508546Y-111648596D02*
X173467422Y-111607472D01*
X173467422Y-111607472D02*
X173426298Y-111525224D01*
X171749898Y-112059834D02*
X171749898Y-112553319D01*
X171749898Y-112306576D02*
X170886298Y-112306576D01*
X170886298Y-112306576D02*
X171009670Y-112388824D01*
X171009670Y-112388824D02*
X171091917Y-112471072D01*
X171091917Y-112471072D02*
X171133041Y-112553319D01*
X171749898Y-111237358D02*
X171749898Y-111730843D01*
X171749898Y-111484100D02*
X170886298Y-111484100D01*
X170886298Y-111484100D02*
X171009670Y-111566348D01*
X171009670Y-111566348D02*
X171091917Y-111648596D01*
X171091917Y-111648596D02*
X171133041Y-111730843D01*
X200355887Y-155607179D02*
X200355887Y-156018417D01*
X200355887Y-156018417D02*
X200767125Y-156059541D01*
X200767125Y-156059541D02*
X200726002Y-156018417D01*
X200726002Y-156018417D02*
X200684878Y-155936170D01*
X200684878Y-155936170D02*
X200684878Y-155730551D01*
X200684878Y-155730551D02*
X200726002Y-155648303D01*
X200726002Y-155648303D02*
X200767125Y-155607179D01*
X200767125Y-155607179D02*
X200849373Y-155566056D01*
X200849373Y-155566056D02*
X201054992Y-155566056D01*
X201054992Y-155566056D02*
X201137240Y-155607179D01*
X201137240Y-155607179D02*
X201178364Y-155648303D01*
X201178364Y-155648303D02*
X201219487Y-155730551D01*
X201219487Y-155730551D02*
X201219487Y-155936170D01*
X201219487Y-155936170D02*
X201178364Y-156018417D01*
X201178364Y-156018417D02*
X201137240Y-156059541D01*
X166669898Y-112059834D02*
X166669898Y-112553319D01*
X166669898Y-112306576D02*
X165806298Y-112306576D01*
X165806298Y-112306576D02*
X165929670Y-112388824D01*
X165929670Y-112388824D02*
X166011917Y-112471072D01*
X166011917Y-112471072D02*
X166053041Y-112553319D01*
X165806298Y-111771967D02*
X165806298Y-111237358D01*
X165806298Y-111237358D02*
X166135289Y-111525224D01*
X166135289Y-111525224D02*
X166135289Y-111401853D01*
X166135289Y-111401853D02*
X166176413Y-111319605D01*
X166176413Y-111319605D02*
X166217536Y-111278481D01*
X166217536Y-111278481D02*
X166299784Y-111237358D01*
X166299784Y-111237358D02*
X166505403Y-111237358D01*
X166505403Y-111237358D02*
X166587651Y-111278481D01*
X166587651Y-111278481D02*
X166628775Y-111319605D01*
X166628775Y-111319605D02*
X166669898Y-111401853D01*
X166669898Y-111401853D02*
X166669898Y-111648596D01*
X166669898Y-111648596D02*
X166628775Y-111730843D01*
X166628775Y-111730843D02*
X166587651Y-111771967D01*
X185110298Y-111319605D02*
X185110298Y-111484100D01*
X185110298Y-111484100D02*
X185151422Y-111566348D01*
X185151422Y-111566348D02*
X185192546Y-111607472D01*
X185192546Y-111607472D02*
X185315917Y-111689719D01*
X185315917Y-111689719D02*
X185480413Y-111730843D01*
X185480413Y-111730843D02*
X185809403Y-111730843D01*
X185809403Y-111730843D02*
X185891651Y-111689719D01*
X185891651Y-111689719D02*
X185932775Y-111648596D01*
X185932775Y-111648596D02*
X185973898Y-111566348D01*
X185973898Y-111566348D02*
X185973898Y-111401853D01*
X185973898Y-111401853D02*
X185932775Y-111319605D01*
X185932775Y-111319605D02*
X185891651Y-111278481D01*
X185891651Y-111278481D02*
X185809403Y-111237358D01*
X185809403Y-111237358D02*
X185603784Y-111237358D01*
X185603784Y-111237358D02*
X185521536Y-111278481D01*
X185521536Y-111278481D02*
X185480413Y-111319605D01*
X185480413Y-111319605D02*
X185439289Y-111401853D01*
X185439289Y-111401853D02*
X185439289Y-111566348D01*
X185439289Y-111566348D02*
X185480413Y-111648596D01*
X185480413Y-111648596D02*
X185521536Y-111689719D01*
X185521536Y-111689719D02*
X185603784Y-111730843D01*
X192307762Y-154434355D02*
X192719000Y-154434355D01*
X192225514Y-154681098D02*
X192513381Y-153817498D01*
X192513381Y-153817498D02*
X192801247Y-154681098D01*
X193089115Y-154105365D02*
X193089115Y-154681098D01*
X193089115Y-154187613D02*
X193130238Y-154146489D01*
X193130238Y-154146489D02*
X193212486Y-154105365D01*
X193212486Y-154105365D02*
X193335857Y-154105365D01*
X193335857Y-154105365D02*
X193418105Y-154146489D01*
X193418105Y-154146489D02*
X193459229Y-154228736D01*
X193459229Y-154228736D02*
X193459229Y-154681098D01*
X194240581Y-154681098D02*
X194240581Y-154228736D01*
X194240581Y-154228736D02*
X194199457Y-154146489D01*
X194199457Y-154146489D02*
X194117209Y-154105365D01*
X194117209Y-154105365D02*
X193952714Y-154105365D01*
X193952714Y-154105365D02*
X193870467Y-154146489D01*
X194240581Y-154639975D02*
X194158333Y-154681098D01*
X194158333Y-154681098D02*
X193952714Y-154681098D01*
X193952714Y-154681098D02*
X193870467Y-154639975D01*
X193870467Y-154639975D02*
X193829343Y-154557727D01*
X193829343Y-154557727D02*
X193829343Y-154475479D01*
X193829343Y-154475479D02*
X193870467Y-154393232D01*
X193870467Y-154393232D02*
X193952714Y-154352108D01*
X193952714Y-154352108D02*
X194158333Y-154352108D01*
X194158333Y-154352108D02*
X194240581Y-154310984D01*
X194775190Y-154681098D02*
X194692942Y-154639975D01*
X194692942Y-154639975D02*
X194651819Y-154557727D01*
X194651819Y-154557727D02*
X194651819Y-153817498D01*
X195227552Y-154681098D02*
X195145304Y-154639975D01*
X195145304Y-154639975D02*
X195104181Y-154598851D01*
X195104181Y-154598851D02*
X195063057Y-154516603D01*
X195063057Y-154516603D02*
X195063057Y-154269860D01*
X195063057Y-154269860D02*
X195104181Y-154187613D01*
X195104181Y-154187613D02*
X195145304Y-154146489D01*
X195145304Y-154146489D02*
X195227552Y-154105365D01*
X195227552Y-154105365D02*
X195350923Y-154105365D01*
X195350923Y-154105365D02*
X195433171Y-154146489D01*
X195433171Y-154146489D02*
X195474295Y-154187613D01*
X195474295Y-154187613D02*
X195515419Y-154269860D01*
X195515419Y-154269860D02*
X195515419Y-154516603D01*
X195515419Y-154516603D02*
X195474295Y-154598851D01*
X195474295Y-154598851D02*
X195433171Y-154639975D01*
X195433171Y-154639975D02*
X195350923Y-154681098D01*
X195350923Y-154681098D02*
X195227552Y-154681098D01*
X196255647Y-154105365D02*
X196255647Y-154804470D01*
X196255647Y-154804470D02*
X196214523Y-154886717D01*
X196214523Y-154886717D02*
X196173399Y-154927841D01*
X196173399Y-154927841D02*
X196091152Y-154968965D01*
X196091152Y-154968965D02*
X195967780Y-154968965D01*
X195967780Y-154968965D02*
X195885533Y-154927841D01*
X196255647Y-154639975D02*
X196173399Y-154681098D01*
X196173399Y-154681098D02*
X196008904Y-154681098D01*
X196008904Y-154681098D02*
X195926656Y-154639975D01*
X195926656Y-154639975D02*
X195885533Y-154598851D01*
X195885533Y-154598851D02*
X195844409Y-154516603D01*
X195844409Y-154516603D02*
X195844409Y-154269860D01*
X195844409Y-154269860D02*
X195885533Y-154187613D01*
X195885533Y-154187613D02*
X195926656Y-154146489D01*
X195926656Y-154146489D02*
X196008904Y-154105365D01*
X196008904Y-154105365D02*
X196173399Y-154105365D01*
X196173399Y-154105365D02*
X196255647Y-154146489D01*
X197324866Y-154681098D02*
X197324866Y-153817498D01*
X197736104Y-154105365D02*
X197736104Y-154681098D01*
X197736104Y-154187613D02*
X197777227Y-154146489D01*
X197777227Y-154146489D02*
X197859475Y-154105365D01*
X197859475Y-154105365D02*
X197982846Y-154105365D01*
X197982846Y-154105365D02*
X198065094Y-154146489D01*
X198065094Y-154146489D02*
X198106218Y-154228736D01*
X198106218Y-154228736D02*
X198106218Y-154681098D01*
X169209898Y-112059834D02*
X169209898Y-112553319D01*
X169209898Y-112306576D02*
X168346298Y-112306576D01*
X168346298Y-112306576D02*
X168469670Y-112388824D01*
X168469670Y-112388824D02*
X168551917Y-112471072D01*
X168551917Y-112471072D02*
X168593041Y-112553319D01*
X168428546Y-111730843D02*
X168387422Y-111689719D01*
X168387422Y-111689719D02*
X168346298Y-111607472D01*
X168346298Y-111607472D02*
X168346298Y-111401853D01*
X168346298Y-111401853D02*
X168387422Y-111319605D01*
X168387422Y-111319605D02*
X168428546Y-111278481D01*
X168428546Y-111278481D02*
X168510794Y-111237358D01*
X168510794Y-111237358D02*
X168593041Y-111237358D01*
X168593041Y-111237358D02*
X168716413Y-111278481D01*
X168716413Y-111278481D02*
X169209898Y-111771967D01*
X169209898Y-111771967D02*
X169209898Y-111237358D01*
X198103754Y-155648303D02*
X198679487Y-155648303D01*
X197774764Y-155853922D02*
X198391621Y-156059541D01*
X198391621Y-156059541D02*
X198391621Y-155524932D01*
X182570298Y-111771967D02*
X182570298Y-111196234D01*
X182570298Y-111196234D02*
X183433898Y-111566348D01*
X161343155Y-114033777D02*
X161343155Y-113622539D01*
X161589898Y-114116025D02*
X160726298Y-113828158D01*
X160726298Y-113828158D02*
X161589898Y-113540292D01*
X161589898Y-112758939D02*
X161178660Y-113046805D01*
X161589898Y-113252424D02*
X160726298Y-113252424D01*
X160726298Y-113252424D02*
X160726298Y-112923434D01*
X160726298Y-112923434D02*
X160767422Y-112841186D01*
X160767422Y-112841186D02*
X160808546Y-112800063D01*
X160808546Y-112800063D02*
X160890794Y-112758939D01*
X160890794Y-112758939D02*
X161014165Y-112758939D01*
X161014165Y-112758939D02*
X161096413Y-112800063D01*
X161096413Y-112800063D02*
X161137536Y-112841186D01*
X161137536Y-112841186D02*
X161178660Y-112923434D01*
X161178660Y-112923434D02*
X161178660Y-113252424D01*
X161137536Y-112388824D02*
X161137536Y-112100958D01*
X161589898Y-111977586D02*
X161589898Y-112388824D01*
X161589898Y-112388824D02*
X160726298Y-112388824D01*
X160726298Y-112388824D02*
X160726298Y-111977586D01*
X161137536Y-111319606D02*
X161137536Y-111607472D01*
X161589898Y-111607472D02*
X160726298Y-111607472D01*
X160726298Y-111607472D02*
X160726298Y-111196234D01*
X195275887Y-156100665D02*
X195275887Y-155566056D01*
X195275887Y-155566056D02*
X195604878Y-155853922D01*
X195604878Y-155853922D02*
X195604878Y-155730551D01*
X195604878Y-155730551D02*
X195646002Y-155648303D01*
X195646002Y-155648303D02*
X195687125Y-155607179D01*
X195687125Y-155607179D02*
X195769373Y-155566056D01*
X195769373Y-155566056D02*
X195974992Y-155566056D01*
X195974992Y-155566056D02*
X196057240Y-155607179D01*
X196057240Y-155607179D02*
X196098364Y-155648303D01*
X196098364Y-155648303D02*
X196139487Y-155730551D01*
X196139487Y-155730551D02*
X196139487Y-155977294D01*
X196139487Y-155977294D02*
X196098364Y-156059541D01*
X196098364Y-156059541D02*
X196057240Y-156100665D01*
X201213898Y-112059834D02*
X200802660Y-112347700D01*
X201213898Y-112553319D02*
X200350298Y-112553319D01*
X200350298Y-112553319D02*
X200350298Y-112224329D01*
X200350298Y-112224329D02*
X200391422Y-112142081D01*
X200391422Y-112142081D02*
X200432546Y-112100958D01*
X200432546Y-112100958D02*
X200514794Y-112059834D01*
X200514794Y-112059834D02*
X200638165Y-112059834D01*
X200638165Y-112059834D02*
X200720413Y-112100958D01*
X200720413Y-112100958D02*
X200761536Y-112142081D01*
X200761536Y-112142081D02*
X200802660Y-112224329D01*
X200802660Y-112224329D02*
X200802660Y-112553319D01*
X200350298Y-111771967D02*
X201213898Y-111196234D01*
X200350298Y-111196234D02*
X201213898Y-111771967D01*
X192818135Y-156059541D02*
X192777011Y-156018417D01*
X192777011Y-156018417D02*
X192735887Y-155936170D01*
X192735887Y-155936170D02*
X192735887Y-155730551D01*
X192735887Y-155730551D02*
X192777011Y-155648303D01*
X192777011Y-155648303D02*
X192818135Y-155607179D01*
X192818135Y-155607179D02*
X192900383Y-155566056D01*
X192900383Y-155566056D02*
X192982630Y-155566056D01*
X192982630Y-155566056D02*
X193106002Y-155607179D01*
X193106002Y-155607179D02*
X193599487Y-156100665D01*
X193599487Y-156100665D02*
X193599487Y-155566056D01*
X176829898Y-111648596D02*
X176829898Y-111484100D01*
X176829898Y-111484100D02*
X176788775Y-111401853D01*
X176788775Y-111401853D02*
X176747651Y-111360729D01*
X176747651Y-111360729D02*
X176624279Y-111278481D01*
X176624279Y-111278481D02*
X176459784Y-111237358D01*
X176459784Y-111237358D02*
X176130794Y-111237358D01*
X176130794Y-111237358D02*
X176048546Y-111278481D01*
X176048546Y-111278481D02*
X176007422Y-111319605D01*
X176007422Y-111319605D02*
X175966298Y-111401853D01*
X175966298Y-111401853D02*
X175966298Y-111566348D01*
X175966298Y-111566348D02*
X176007422Y-111648596D01*
X176007422Y-111648596D02*
X176048546Y-111689719D01*
X176048546Y-111689719D02*
X176130794Y-111730843D01*
X176130794Y-111730843D02*
X176336413Y-111730843D01*
X176336413Y-111730843D02*
X176418660Y-111689719D01*
X176418660Y-111689719D02*
X176459784Y-111648596D01*
X176459784Y-111648596D02*
X176500908Y-111566348D01*
X176500908Y-111566348D02*
X176500908Y-111401853D01*
X176500908Y-111401853D02*
X176459784Y-111319605D01*
X176459784Y-111319605D02*
X176418660Y-111278481D01*
X176418660Y-111278481D02*
X176336413Y-111237358D01*
X191059487Y-155566056D02*
X191059487Y-156059541D01*
X191059487Y-155812798D02*
X190195887Y-155812798D01*
X190195887Y-155812798D02*
X190319259Y-155895046D01*
X190319259Y-155895046D02*
X190401506Y-155977294D01*
X190401506Y-155977294D02*
X190442630Y-156059541D01*
X156468775Y-113293548D02*
X156509898Y-113170177D01*
X156509898Y-113170177D02*
X156509898Y-112964558D01*
X156509898Y-112964558D02*
X156468775Y-112882310D01*
X156468775Y-112882310D02*
X156427651Y-112841186D01*
X156427651Y-112841186D02*
X156345403Y-112800063D01*
X156345403Y-112800063D02*
X156263155Y-112800063D01*
X156263155Y-112800063D02*
X156180908Y-112841186D01*
X156180908Y-112841186D02*
X156139784Y-112882310D01*
X156139784Y-112882310D02*
X156098660Y-112964558D01*
X156098660Y-112964558D02*
X156057536Y-113129053D01*
X156057536Y-113129053D02*
X156016413Y-113211301D01*
X156016413Y-113211301D02*
X155975289Y-113252424D01*
X155975289Y-113252424D02*
X155893041Y-113293548D01*
X155893041Y-113293548D02*
X155810794Y-113293548D01*
X155810794Y-113293548D02*
X155728546Y-113252424D01*
X155728546Y-113252424D02*
X155687422Y-113211301D01*
X155687422Y-113211301D02*
X155646298Y-113129053D01*
X155646298Y-113129053D02*
X155646298Y-112923434D01*
X155646298Y-112923434D02*
X155687422Y-112800063D01*
X156427651Y-111936463D02*
X156468775Y-111977587D01*
X156468775Y-111977587D02*
X156509898Y-112100958D01*
X156509898Y-112100958D02*
X156509898Y-112183206D01*
X156509898Y-112183206D02*
X156468775Y-112306577D01*
X156468775Y-112306577D02*
X156386527Y-112388825D01*
X156386527Y-112388825D02*
X156304279Y-112429948D01*
X156304279Y-112429948D02*
X156139784Y-112471072D01*
X156139784Y-112471072D02*
X156016413Y-112471072D01*
X156016413Y-112471072D02*
X155851917Y-112429948D01*
X155851917Y-112429948D02*
X155769670Y-112388825D01*
X155769670Y-112388825D02*
X155687422Y-112306577D01*
X155687422Y-112306577D02*
X155646298Y-112183206D01*
X155646298Y-112183206D02*
X155646298Y-112100958D01*
X155646298Y-112100958D02*
X155687422Y-111977587D01*
X155687422Y-111977587D02*
X155728546Y-111936463D01*
X156509898Y-111155110D02*
X156509898Y-111566348D01*
X156509898Y-111566348D02*
X155646298Y-111566348D01*
X168199487Y-156018417D02*
X167335887Y-156018417D01*
X167335887Y-155442684D02*
X167335887Y-155278189D01*
X167335887Y-155278189D02*
X167377011Y-155195941D01*
X167377011Y-155195941D02*
X167459259Y-155113694D01*
X167459259Y-155113694D02*
X167623754Y-155072570D01*
X167623754Y-155072570D02*
X167911621Y-155072570D01*
X167911621Y-155072570D02*
X168076116Y-155113694D01*
X168076116Y-155113694D02*
X168158364Y-155195941D01*
X168158364Y-155195941D02*
X168199487Y-155278189D01*
X168199487Y-155278189D02*
X168199487Y-155442684D01*
X168199487Y-155442684D02*
X168158364Y-155524932D01*
X168158364Y-155524932D02*
X168076116Y-155607179D01*
X168076116Y-155607179D02*
X167911621Y-155648303D01*
X167911621Y-155648303D02*
X167623754Y-155648303D01*
X167623754Y-155648303D02*
X167459259Y-155607179D01*
X167459259Y-155607179D02*
X167377011Y-155524932D01*
X167377011Y-155524932D02*
X167335887Y-155442684D01*
X168199487Y-154208970D02*
X167788249Y-154496836D01*
X168199487Y-154702455D02*
X167335887Y-154702455D01*
X167335887Y-154702455D02*
X167335887Y-154373465D01*
X167335887Y-154373465D02*
X167377011Y-154291217D01*
X167377011Y-154291217D02*
X167418135Y-154250094D01*
X167418135Y-154250094D02*
X167500383Y-154208970D01*
X167500383Y-154208970D02*
X167623754Y-154208970D01*
X167623754Y-154208970D02*
X167706002Y-154250094D01*
X167706002Y-154250094D02*
X167747125Y-154291217D01*
X167747125Y-154291217D02*
X167788249Y-154373465D01*
X167788249Y-154373465D02*
X167788249Y-154702455D01*
X167747125Y-153838855D02*
X167747125Y-153550989D01*
X168199487Y-153427617D02*
X168199487Y-153838855D01*
X168199487Y-153838855D02*
X167335887Y-153838855D01*
X167335887Y-153838855D02*
X167335887Y-153427617D01*
X167747125Y-152769637D02*
X167747125Y-153057503D01*
X168199487Y-153057503D02*
X167335887Y-153057503D01*
X167335887Y-153057503D02*
X167335887Y-152646265D01*
X195352546Y-111730843D02*
X195311422Y-111689719D01*
X195311422Y-111689719D02*
X195270298Y-111607472D01*
X195270298Y-111607472D02*
X195270298Y-111401853D01*
X195270298Y-111401853D02*
X195311422Y-111319605D01*
X195311422Y-111319605D02*
X195352546Y-111278481D01*
X195352546Y-111278481D02*
X195434794Y-111237358D01*
X195434794Y-111237358D02*
X195517041Y-111237358D01*
X195517041Y-111237358D02*
X195640413Y-111278481D01*
X195640413Y-111278481D02*
X196133898Y-111771967D01*
X196133898Y-111771967D02*
X196133898Y-111237358D01*
X175490497Y-156018417D02*
X175490497Y-155360437D01*
X175819487Y-155689427D02*
X175161506Y-155689427D01*
X174955887Y-154537960D02*
X174955887Y-154949198D01*
X174955887Y-154949198D02*
X175367125Y-154990322D01*
X175367125Y-154990322D02*
X175326002Y-154949198D01*
X175326002Y-154949198D02*
X175284878Y-154866951D01*
X175284878Y-154866951D02*
X175284878Y-154661332D01*
X175284878Y-154661332D02*
X175326002Y-154579084D01*
X175326002Y-154579084D02*
X175367125Y-154537960D01*
X175367125Y-154537960D02*
X175449373Y-154496837D01*
X175449373Y-154496837D02*
X175654992Y-154496837D01*
X175654992Y-154496837D02*
X175737240Y-154537960D01*
X175737240Y-154537960D02*
X175778364Y-154579084D01*
X175778364Y-154579084D02*
X175819487Y-154661332D01*
X175819487Y-154661332D02*
X175819487Y-154866951D01*
X175819487Y-154866951D02*
X175778364Y-154949198D01*
X175778364Y-154949198D02*
X175737240Y-154990322D01*
X174955887Y-154250094D02*
X175819487Y-153962227D01*
X175819487Y-153962227D02*
X174955887Y-153674361D01*
X177537011Y-155566056D02*
X177495887Y-155648303D01*
X177495887Y-155648303D02*
X177495887Y-155771675D01*
X177495887Y-155771675D02*
X177537011Y-155895046D01*
X177537011Y-155895046D02*
X177619259Y-155977294D01*
X177619259Y-155977294D02*
X177701506Y-156018417D01*
X177701506Y-156018417D02*
X177866002Y-156059541D01*
X177866002Y-156059541D02*
X177989373Y-156059541D01*
X177989373Y-156059541D02*
X178153868Y-156018417D01*
X178153868Y-156018417D02*
X178236116Y-155977294D01*
X178236116Y-155977294D02*
X178318364Y-155895046D01*
X178318364Y-155895046D02*
X178359487Y-155771675D01*
X178359487Y-155771675D02*
X178359487Y-155689427D01*
X178359487Y-155689427D02*
X178318364Y-155566056D01*
X178318364Y-155566056D02*
X178277240Y-155524932D01*
X178277240Y-155524932D02*
X177989373Y-155524932D01*
X177989373Y-155524932D02*
X177989373Y-155689427D01*
X178359487Y-155154817D02*
X177495887Y-155154817D01*
X177495887Y-155154817D02*
X178359487Y-154661332D01*
X178359487Y-154661332D02*
X177495887Y-154661332D01*
X178359487Y-154250093D02*
X177495887Y-154250093D01*
X177495887Y-154250093D02*
X177495887Y-154044474D01*
X177495887Y-154044474D02*
X177537011Y-153921103D01*
X177537011Y-153921103D02*
X177619259Y-153838855D01*
X177619259Y-153838855D02*
X177701506Y-153797732D01*
X177701506Y-153797732D02*
X177866002Y-153756608D01*
X177866002Y-153756608D02*
X177989373Y-153756608D01*
X177989373Y-153756608D02*
X178153868Y-153797732D01*
X178153868Y-153797732D02*
X178236116Y-153838855D01*
X178236116Y-153838855D02*
X178318364Y-153921103D01*
X178318364Y-153921103D02*
X178359487Y-154044474D01*
X178359487Y-154044474D02*
X178359487Y-154250093D01*
X163307422Y-113046806D02*
X163266298Y-113129053D01*
X163266298Y-113129053D02*
X163266298Y-113252425D01*
X163266298Y-113252425D02*
X163307422Y-113375796D01*
X163307422Y-113375796D02*
X163389670Y-113458044D01*
X163389670Y-113458044D02*
X163471917Y-113499167D01*
X163471917Y-113499167D02*
X163636413Y-113540291D01*
X163636413Y-113540291D02*
X163759784Y-113540291D01*
X163759784Y-113540291D02*
X163924279Y-113499167D01*
X163924279Y-113499167D02*
X164006527Y-113458044D01*
X164006527Y-113458044D02*
X164088775Y-113375796D01*
X164088775Y-113375796D02*
X164129898Y-113252425D01*
X164129898Y-113252425D02*
X164129898Y-113170177D01*
X164129898Y-113170177D02*
X164088775Y-113046806D01*
X164088775Y-113046806D02*
X164047651Y-113005682D01*
X164047651Y-113005682D02*
X163759784Y-113005682D01*
X163759784Y-113005682D02*
X163759784Y-113170177D01*
X164129898Y-112635567D02*
X163266298Y-112635567D01*
X163266298Y-112635567D02*
X164129898Y-112142082D01*
X164129898Y-112142082D02*
X163266298Y-112142082D01*
X164129898Y-111730843D02*
X163266298Y-111730843D01*
X163266298Y-111730843D02*
X163266298Y-111525224D01*
X163266298Y-111525224D02*
X163307422Y-111401853D01*
X163307422Y-111401853D02*
X163389670Y-111319605D01*
X163389670Y-111319605D02*
X163471917Y-111278482D01*
X163471917Y-111278482D02*
X163636413Y-111237358D01*
X163636413Y-111237358D02*
X163759784Y-111237358D01*
X163759784Y-111237358D02*
X163924279Y-111278482D01*
X163924279Y-111278482D02*
X164006527Y-111319605D01*
X164006527Y-111319605D02*
X164088775Y-111401853D01*
X164088775Y-111401853D02*
X164129898Y-111525224D01*
X164129898Y-111525224D02*
X164129898Y-111730843D01*
X172950497Y-156018417D02*
X172950497Y-155360437D01*
X173279487Y-155689427D02*
X172621506Y-155689427D01*
X172415887Y-155031446D02*
X172415887Y-154496837D01*
X172415887Y-154496837D02*
X172744878Y-154784703D01*
X172744878Y-154784703D02*
X172744878Y-154661332D01*
X172744878Y-154661332D02*
X172786002Y-154579084D01*
X172786002Y-154579084D02*
X172827125Y-154537960D01*
X172827125Y-154537960D02*
X172909373Y-154496837D01*
X172909373Y-154496837D02*
X173114992Y-154496837D01*
X173114992Y-154496837D02*
X173197240Y-154537960D01*
X173197240Y-154537960D02*
X173238364Y-154579084D01*
X173238364Y-154579084D02*
X173279487Y-154661332D01*
X173279487Y-154661332D02*
X173279487Y-154908075D01*
X173279487Y-154908075D02*
X173238364Y-154990322D01*
X173238364Y-154990322D02*
X173197240Y-155031446D01*
X173197240Y-154126722D02*
X173238364Y-154085599D01*
X173238364Y-154085599D02*
X173279487Y-154126722D01*
X173279487Y-154126722D02*
X173238364Y-154167846D01*
X173238364Y-154167846D02*
X173197240Y-154126722D01*
X173197240Y-154126722D02*
X173279487Y-154126722D01*
X172415887Y-153797732D02*
X172415887Y-153263123D01*
X172415887Y-153263123D02*
X172744878Y-153550989D01*
X172744878Y-153550989D02*
X172744878Y-153427618D01*
X172744878Y-153427618D02*
X172786002Y-153345370D01*
X172786002Y-153345370D02*
X172827125Y-153304246D01*
X172827125Y-153304246D02*
X172909373Y-153263123D01*
X172909373Y-153263123D02*
X173114992Y-153263123D01*
X173114992Y-153263123D02*
X173197240Y-153304246D01*
X173197240Y-153304246D02*
X173238364Y-153345370D01*
X173238364Y-153345370D02*
X173279487Y-153427618D01*
X173279487Y-153427618D02*
X173279487Y-153674361D01*
X173279487Y-153674361D02*
X173238364Y-153756608D01*
X173238364Y-153756608D02*
X173197240Y-153797732D01*
X172415887Y-153016380D02*
X173279487Y-152728513D01*
X173279487Y-152728513D02*
X172415887Y-152440647D01*
X182575887Y-156141789D02*
X183439487Y-155853922D01*
X183439487Y-155853922D02*
X182575887Y-155566056D01*
X183439487Y-155278188D02*
X182575887Y-155278188D01*
X183439487Y-154866950D02*
X182575887Y-154866950D01*
X182575887Y-154866950D02*
X183439487Y-154373465D01*
X183439487Y-154373465D02*
X182575887Y-154373465D01*
X170739487Y-155524932D02*
X170328249Y-155812798D01*
X170739487Y-156018417D02*
X169875887Y-156018417D01*
X169875887Y-156018417D02*
X169875887Y-155689427D01*
X169875887Y-155689427D02*
X169917011Y-155607179D01*
X169917011Y-155607179D02*
X169958135Y-155566056D01*
X169958135Y-155566056D02*
X170040383Y-155524932D01*
X170040383Y-155524932D02*
X170163754Y-155524932D01*
X170163754Y-155524932D02*
X170246002Y-155566056D01*
X170246002Y-155566056D02*
X170287125Y-155607179D01*
X170287125Y-155607179D02*
X170328249Y-155689427D01*
X170328249Y-155689427D02*
X170328249Y-156018417D01*
X170698364Y-155195941D02*
X170739487Y-155072570D01*
X170739487Y-155072570D02*
X170739487Y-154866951D01*
X170739487Y-154866951D02*
X170698364Y-154784703D01*
X170698364Y-154784703D02*
X170657240Y-154743579D01*
X170657240Y-154743579D02*
X170574992Y-154702456D01*
X170574992Y-154702456D02*
X170492744Y-154702456D01*
X170492744Y-154702456D02*
X170410497Y-154743579D01*
X170410497Y-154743579D02*
X170369373Y-154784703D01*
X170369373Y-154784703D02*
X170328249Y-154866951D01*
X170328249Y-154866951D02*
X170287125Y-155031446D01*
X170287125Y-155031446D02*
X170246002Y-155113694D01*
X170246002Y-155113694D02*
X170204878Y-155154817D01*
X170204878Y-155154817D02*
X170122630Y-155195941D01*
X170122630Y-155195941D02*
X170040383Y-155195941D01*
X170040383Y-155195941D02*
X169958135Y-155154817D01*
X169958135Y-155154817D02*
X169917011Y-155113694D01*
X169917011Y-155113694D02*
X169875887Y-155031446D01*
X169875887Y-155031446D02*
X169875887Y-154825827D01*
X169875887Y-154825827D02*
X169917011Y-154702456D01*
X169875887Y-154455713D02*
X169875887Y-153962227D01*
X170739487Y-154208970D02*
X169875887Y-154208970D01*
X192730298Y-111771967D02*
X192730298Y-111237358D01*
X192730298Y-111237358D02*
X193059289Y-111525224D01*
X193059289Y-111525224D02*
X193059289Y-111401853D01*
X193059289Y-111401853D02*
X193100413Y-111319605D01*
X193100413Y-111319605D02*
X193141536Y-111278481D01*
X193141536Y-111278481D02*
X193223784Y-111237358D01*
X193223784Y-111237358D02*
X193429403Y-111237358D01*
X193429403Y-111237358D02*
X193511651Y-111278481D01*
X193511651Y-111278481D02*
X193552775Y-111319605D01*
X193552775Y-111319605D02*
X193593898Y-111401853D01*
X193593898Y-111401853D02*
X193593898Y-111648596D01*
X193593898Y-111648596D02*
X193552775Y-111730843D01*
X193552775Y-111730843D02*
X193511651Y-111771967D01*
X190478165Y-111319605D02*
X191053898Y-111319605D01*
X190149175Y-111525224D02*
X190766032Y-111730843D01*
X190766032Y-111730843D02*
X190766032Y-111196234D01*
X187655887Y-155853922D02*
X187655887Y-155771675D01*
X187655887Y-155771675D02*
X187697011Y-155689427D01*
X187697011Y-155689427D02*
X187738135Y-155648303D01*
X187738135Y-155648303D02*
X187820383Y-155607179D01*
X187820383Y-155607179D02*
X187984878Y-155566056D01*
X187984878Y-155566056D02*
X188190497Y-155566056D01*
X188190497Y-155566056D02*
X188354992Y-155607179D01*
X188354992Y-155607179D02*
X188437240Y-155648303D01*
X188437240Y-155648303D02*
X188478364Y-155689427D01*
X188478364Y-155689427D02*
X188519487Y-155771675D01*
X188519487Y-155771675D02*
X188519487Y-155853922D01*
X188519487Y-155853922D02*
X188478364Y-155936170D01*
X188478364Y-155936170D02*
X188437240Y-155977294D01*
X188437240Y-155977294D02*
X188354992Y-156018417D01*
X188354992Y-156018417D02*
X188190497Y-156059541D01*
X188190497Y-156059541D02*
X187984878Y-156059541D01*
X187984878Y-156059541D02*
X187820383Y-156018417D01*
X187820383Y-156018417D02*
X187738135Y-155977294D01*
X187738135Y-155977294D02*
X187697011Y-155936170D01*
X187697011Y-155936170D02*
X187655887Y-155853922D01*
X197810298Y-112471072D02*
X197810298Y-111977586D01*
X198673898Y-112224329D02*
X197810298Y-112224329D01*
X197810298Y-111771967D02*
X198673898Y-111196234D01*
X197810298Y-111196234D02*
X198673898Y-111771967D01*
X187650298Y-111278481D02*
X187650298Y-111689719D01*
X187650298Y-111689719D02*
X188061536Y-111730843D01*
X188061536Y-111730843D02*
X188020413Y-111689719D01*
X188020413Y-111689719D02*
X187979289Y-111607472D01*
X187979289Y-111607472D02*
X187979289Y-111401853D01*
X187979289Y-111401853D02*
X188020413Y-111319605D01*
X188020413Y-111319605D02*
X188061536Y-111278481D01*
X188061536Y-111278481D02*
X188143784Y-111237358D01*
X188143784Y-111237358D02*
X188349403Y-111237358D01*
X188349403Y-111237358D02*
X188431651Y-111278481D01*
X188431651Y-111278481D02*
X188472775Y-111319605D01*
X188472775Y-111319605D02*
X188513898Y-111401853D01*
X188513898Y-111401853D02*
X188513898Y-111607472D01*
X188513898Y-111607472D02*
X188472775Y-111689719D01*
X188472775Y-111689719D02*
X188431651Y-111730843D01*
X180077011Y-155566056D02*
X180035887Y-155648303D01*
X180035887Y-155648303D02*
X180035887Y-155771675D01*
X180035887Y-155771675D02*
X180077011Y-155895046D01*
X180077011Y-155895046D02*
X180159259Y-155977294D01*
X180159259Y-155977294D02*
X180241506Y-156018417D01*
X180241506Y-156018417D02*
X180406002Y-156059541D01*
X180406002Y-156059541D02*
X180529373Y-156059541D01*
X180529373Y-156059541D02*
X180693868Y-156018417D01*
X180693868Y-156018417D02*
X180776116Y-155977294D01*
X180776116Y-155977294D02*
X180858364Y-155895046D01*
X180858364Y-155895046D02*
X180899487Y-155771675D01*
X180899487Y-155771675D02*
X180899487Y-155689427D01*
X180899487Y-155689427D02*
X180858364Y-155566056D01*
X180858364Y-155566056D02*
X180817240Y-155524932D01*
X180817240Y-155524932D02*
X180529373Y-155524932D01*
X180529373Y-155524932D02*
X180529373Y-155689427D01*
X180899487Y-155154817D02*
X180035887Y-155154817D01*
X180035887Y-155154817D02*
X180899487Y-154661332D01*
X180899487Y-154661332D02*
X180035887Y-154661332D01*
X180899487Y-154250093D02*
X180035887Y-154250093D01*
X180035887Y-154250093D02*
X180035887Y-154044474D01*
X180035887Y-154044474D02*
X180077011Y-153921103D01*
X180077011Y-153921103D02*
X180159259Y-153838855D01*
X180159259Y-153838855D02*
X180241506Y-153797732D01*
X180241506Y-153797732D02*
X180406002Y-153756608D01*
X180406002Y-153756608D02*
X180529373Y-153756608D01*
X180529373Y-153756608D02*
X180693868Y-153797732D01*
X180693868Y-153797732D02*
X180776116Y-153838855D01*
X180776116Y-153838855D02*
X180858364Y-153921103D01*
X180858364Y-153921103D02*
X180899487Y-154044474D01*
X180899487Y-154044474D02*
X180899487Y-154250093D01*
X178876413Y-111566348D02*
X178835289Y-111648596D01*
X178835289Y-111648596D02*
X178794165Y-111689719D01*
X178794165Y-111689719D02*
X178711917Y-111730843D01*
X178711917Y-111730843D02*
X178670794Y-111730843D01*
X178670794Y-111730843D02*
X178588546Y-111689719D01*
X178588546Y-111689719D02*
X178547422Y-111648596D01*
X178547422Y-111648596D02*
X178506298Y-111566348D01*
X178506298Y-111566348D02*
X178506298Y-111401853D01*
X178506298Y-111401853D02*
X178547422Y-111319605D01*
X178547422Y-111319605D02*
X178588546Y-111278481D01*
X178588546Y-111278481D02*
X178670794Y-111237358D01*
X178670794Y-111237358D02*
X178711917Y-111237358D01*
X178711917Y-111237358D02*
X178794165Y-111278481D01*
X178794165Y-111278481D02*
X178835289Y-111319605D01*
X178835289Y-111319605D02*
X178876413Y-111401853D01*
X178876413Y-111401853D02*
X178876413Y-111566348D01*
X178876413Y-111566348D02*
X178917536Y-111648596D01*
X178917536Y-111648596D02*
X178958660Y-111689719D01*
X178958660Y-111689719D02*
X179040908Y-111730843D01*
X179040908Y-111730843D02*
X179205403Y-111730843D01*
X179205403Y-111730843D02*
X179287651Y-111689719D01*
X179287651Y-111689719D02*
X179328775Y-111648596D01*
X179328775Y-111648596D02*
X179369898Y-111566348D01*
X179369898Y-111566348D02*
X179369898Y-111401853D01*
X179369898Y-111401853D02*
X179328775Y-111319605D01*
X179328775Y-111319605D02*
X179287651Y-111278481D01*
X179287651Y-111278481D02*
X179205403Y-111237358D01*
X179205403Y-111237358D02*
X179040908Y-111237358D01*
X179040908Y-111237358D02*
X178958660Y-111278481D01*
X178958660Y-111278481D02*
X178917536Y-111319605D01*
X178917536Y-111319605D02*
X178876413Y-111401853D01*
X159008775Y-113334672D02*
X159049898Y-113211301D01*
X159049898Y-113211301D02*
X159049898Y-113005682D01*
X159049898Y-113005682D02*
X159008775Y-112923434D01*
X159008775Y-112923434D02*
X158967651Y-112882310D01*
X158967651Y-112882310D02*
X158885403Y-112841187D01*
X158885403Y-112841187D02*
X158803155Y-112841187D01*
X158803155Y-112841187D02*
X158720908Y-112882310D01*
X158720908Y-112882310D02*
X158679784Y-112923434D01*
X158679784Y-112923434D02*
X158638660Y-113005682D01*
X158638660Y-113005682D02*
X158597536Y-113170177D01*
X158597536Y-113170177D02*
X158556413Y-113252425D01*
X158556413Y-113252425D02*
X158515289Y-113293548D01*
X158515289Y-113293548D02*
X158433041Y-113334672D01*
X158433041Y-113334672D02*
X158350794Y-113334672D01*
X158350794Y-113334672D02*
X158268546Y-113293548D01*
X158268546Y-113293548D02*
X158227422Y-113252425D01*
X158227422Y-113252425D02*
X158186298Y-113170177D01*
X158186298Y-113170177D02*
X158186298Y-112964558D01*
X158186298Y-112964558D02*
X158227422Y-112841187D01*
X159049898Y-112471072D02*
X158186298Y-112471072D01*
X158186298Y-112471072D02*
X158186298Y-112265453D01*
X158186298Y-112265453D02*
X158227422Y-112142082D01*
X158227422Y-112142082D02*
X158309670Y-112059834D01*
X158309670Y-112059834D02*
X158391917Y-112018711D01*
X158391917Y-112018711D02*
X158556413Y-111977587D01*
X158556413Y-111977587D02*
X158679784Y-111977587D01*
X158679784Y-111977587D02*
X158844279Y-112018711D01*
X158844279Y-112018711D02*
X158926527Y-112059834D01*
X158926527Y-112059834D02*
X159008775Y-112142082D01*
X159008775Y-112142082D02*
X159049898Y-112265453D01*
X159049898Y-112265453D02*
X159049898Y-112471072D01*
X158803155Y-111648596D02*
X158803155Y-111237358D01*
X159049898Y-111730844D02*
X158186298Y-111442977D01*
X158186298Y-111442977D02*
X159049898Y-111155111D01*
X119879011Y-155566056D02*
X119837887Y-155648303D01*
X119837887Y-155648303D02*
X119837887Y-155771675D01*
X119837887Y-155771675D02*
X119879011Y-155895046D01*
X119879011Y-155895046D02*
X119961259Y-155977294D01*
X119961259Y-155977294D02*
X120043506Y-156018417D01*
X120043506Y-156018417D02*
X120208002Y-156059541D01*
X120208002Y-156059541D02*
X120331373Y-156059541D01*
X120331373Y-156059541D02*
X120495868Y-156018417D01*
X120495868Y-156018417D02*
X120578116Y-155977294D01*
X120578116Y-155977294D02*
X120660364Y-155895046D01*
X120660364Y-155895046D02*
X120701487Y-155771675D01*
X120701487Y-155771675D02*
X120701487Y-155689427D01*
X120701487Y-155689427D02*
X120660364Y-155566056D01*
X120660364Y-155566056D02*
X120619240Y-155524932D01*
X120619240Y-155524932D02*
X120331373Y-155524932D01*
X120331373Y-155524932D02*
X120331373Y-155689427D01*
X120701487Y-155154817D02*
X119837887Y-155154817D01*
X119837887Y-155154817D02*
X120701487Y-154661332D01*
X120701487Y-154661332D02*
X119837887Y-154661332D01*
X120701487Y-154250093D02*
X119837887Y-154250093D01*
X119837887Y-154250093D02*
X119837887Y-154044474D01*
X119837887Y-154044474D02*
X119879011Y-153921103D01*
X119879011Y-153921103D02*
X119961259Y-153838855D01*
X119961259Y-153838855D02*
X120043506Y-153797732D01*
X120043506Y-153797732D02*
X120208002Y-153756608D01*
X120208002Y-153756608D02*
X120331373Y-153756608D01*
X120331373Y-153756608D02*
X120495868Y-153797732D01*
X120495868Y-153797732D02*
X120578116Y-153838855D01*
X120578116Y-153838855D02*
X120660364Y-153921103D01*
X120660364Y-153921103D02*
X120701487Y-154044474D01*
X120701487Y-154044474D02*
X120701487Y-154250093D01*
X143555898Y-112059834D02*
X143144660Y-112347700D01*
X143555898Y-112553319D02*
X142692298Y-112553319D01*
X142692298Y-112553319D02*
X142692298Y-112224329D01*
X142692298Y-112224329D02*
X142733422Y-112142081D01*
X142733422Y-112142081D02*
X142774546Y-112100958D01*
X142774546Y-112100958D02*
X142856794Y-112059834D01*
X142856794Y-112059834D02*
X142980165Y-112059834D01*
X142980165Y-112059834D02*
X143062413Y-112100958D01*
X143062413Y-112100958D02*
X143103536Y-112142081D01*
X143103536Y-112142081D02*
X143144660Y-112224329D01*
X143144660Y-112224329D02*
X143144660Y-112553319D01*
X142692298Y-111771967D02*
X143555898Y-111196234D01*
X142692298Y-111196234D02*
X143555898Y-111771967D01*
X137617887Y-156100665D02*
X137617887Y-155566056D01*
X137617887Y-155566056D02*
X137946878Y-155853922D01*
X137946878Y-155853922D02*
X137946878Y-155730551D01*
X137946878Y-155730551D02*
X137988002Y-155648303D01*
X137988002Y-155648303D02*
X138029125Y-155607179D01*
X138029125Y-155607179D02*
X138111373Y-155566056D01*
X138111373Y-155566056D02*
X138316992Y-155566056D01*
X138316992Y-155566056D02*
X138399240Y-155607179D01*
X138399240Y-155607179D02*
X138440364Y-155648303D01*
X138440364Y-155648303D02*
X138481487Y-155730551D01*
X138481487Y-155730551D02*
X138481487Y-155977294D01*
X138481487Y-155977294D02*
X138440364Y-156059541D01*
X138440364Y-156059541D02*
X138399240Y-156100665D01*
X133401487Y-155566056D02*
X133401487Y-156059541D01*
X133401487Y-155812798D02*
X132537887Y-155812798D01*
X132537887Y-155812798D02*
X132661259Y-155895046D01*
X132661259Y-155895046D02*
X132743506Y-155977294D01*
X132743506Y-155977294D02*
X132784630Y-156059541D01*
X117832497Y-156018417D02*
X117832497Y-155360437D01*
X118161487Y-155689427D02*
X117503506Y-155689427D01*
X117297887Y-154537960D02*
X117297887Y-154949198D01*
X117297887Y-154949198D02*
X117709125Y-154990322D01*
X117709125Y-154990322D02*
X117668002Y-154949198D01*
X117668002Y-154949198D02*
X117626878Y-154866951D01*
X117626878Y-154866951D02*
X117626878Y-154661332D01*
X117626878Y-154661332D02*
X117668002Y-154579084D01*
X117668002Y-154579084D02*
X117709125Y-154537960D01*
X117709125Y-154537960D02*
X117791373Y-154496837D01*
X117791373Y-154496837D02*
X117996992Y-154496837D01*
X117996992Y-154496837D02*
X118079240Y-154537960D01*
X118079240Y-154537960D02*
X118120364Y-154579084D01*
X118120364Y-154579084D02*
X118161487Y-154661332D01*
X118161487Y-154661332D02*
X118161487Y-154866951D01*
X118161487Y-154866951D02*
X118120364Y-154949198D01*
X118120364Y-154949198D02*
X118079240Y-154990322D01*
X117297887Y-154250094D02*
X118161487Y-153962227D01*
X118161487Y-153962227D02*
X117297887Y-153674361D01*
X124912298Y-111771967D02*
X124912298Y-111196234D01*
X124912298Y-111196234D02*
X125775898Y-111566348D01*
X127452298Y-111319605D02*
X127452298Y-111484100D01*
X127452298Y-111484100D02*
X127493422Y-111566348D01*
X127493422Y-111566348D02*
X127534546Y-111607472D01*
X127534546Y-111607472D02*
X127657917Y-111689719D01*
X127657917Y-111689719D02*
X127822413Y-111730843D01*
X127822413Y-111730843D02*
X128151403Y-111730843D01*
X128151403Y-111730843D02*
X128233651Y-111689719D01*
X128233651Y-111689719D02*
X128274775Y-111648596D01*
X128274775Y-111648596D02*
X128315898Y-111566348D01*
X128315898Y-111566348D02*
X128315898Y-111401853D01*
X128315898Y-111401853D02*
X128274775Y-111319605D01*
X128274775Y-111319605D02*
X128233651Y-111278481D01*
X128233651Y-111278481D02*
X128151403Y-111237358D01*
X128151403Y-111237358D02*
X127945784Y-111237358D01*
X127945784Y-111237358D02*
X127863536Y-111278481D01*
X127863536Y-111278481D02*
X127822413Y-111319605D01*
X127822413Y-111319605D02*
X127781289Y-111401853D01*
X127781289Y-111401853D02*
X127781289Y-111566348D01*
X127781289Y-111566348D02*
X127822413Y-111648596D01*
X127822413Y-111648596D02*
X127863536Y-111689719D01*
X127863536Y-111689719D02*
X127945784Y-111730843D01*
X105649422Y-113046806D02*
X105608298Y-113129053D01*
X105608298Y-113129053D02*
X105608298Y-113252425D01*
X105608298Y-113252425D02*
X105649422Y-113375796D01*
X105649422Y-113375796D02*
X105731670Y-113458044D01*
X105731670Y-113458044D02*
X105813917Y-113499167D01*
X105813917Y-113499167D02*
X105978413Y-113540291D01*
X105978413Y-113540291D02*
X106101784Y-113540291D01*
X106101784Y-113540291D02*
X106266279Y-113499167D01*
X106266279Y-113499167D02*
X106348527Y-113458044D01*
X106348527Y-113458044D02*
X106430775Y-113375796D01*
X106430775Y-113375796D02*
X106471898Y-113252425D01*
X106471898Y-113252425D02*
X106471898Y-113170177D01*
X106471898Y-113170177D02*
X106430775Y-113046806D01*
X106430775Y-113046806D02*
X106389651Y-113005682D01*
X106389651Y-113005682D02*
X106101784Y-113005682D01*
X106101784Y-113005682D02*
X106101784Y-113170177D01*
X106471898Y-112635567D02*
X105608298Y-112635567D01*
X105608298Y-112635567D02*
X106471898Y-112142082D01*
X106471898Y-112142082D02*
X105608298Y-112142082D01*
X106471898Y-111730843D02*
X105608298Y-111730843D01*
X105608298Y-111730843D02*
X105608298Y-111525224D01*
X105608298Y-111525224D02*
X105649422Y-111401853D01*
X105649422Y-111401853D02*
X105731670Y-111319605D01*
X105731670Y-111319605D02*
X105813917Y-111278482D01*
X105813917Y-111278482D02*
X105978413Y-111237358D01*
X105978413Y-111237358D02*
X106101784Y-111237358D01*
X106101784Y-111237358D02*
X106266279Y-111278482D01*
X106266279Y-111278482D02*
X106348527Y-111319605D01*
X106348527Y-111319605D02*
X106430775Y-111401853D01*
X106430775Y-111401853D02*
X106471898Y-111525224D01*
X106471898Y-111525224D02*
X106471898Y-111730843D01*
X140152298Y-112471072D02*
X140152298Y-111977586D01*
X141015898Y-112224329D02*
X140152298Y-112224329D01*
X140152298Y-111771967D02*
X141015898Y-111196234D01*
X140152298Y-111196234D02*
X141015898Y-111771967D01*
X135160135Y-156059541D02*
X135119011Y-156018417D01*
X135119011Y-156018417D02*
X135077887Y-155936170D01*
X135077887Y-155936170D02*
X135077887Y-155730551D01*
X135077887Y-155730551D02*
X135119011Y-155648303D01*
X135119011Y-155648303D02*
X135160135Y-155607179D01*
X135160135Y-155607179D02*
X135242383Y-155566056D01*
X135242383Y-155566056D02*
X135324630Y-155566056D01*
X135324630Y-155566056D02*
X135448002Y-155607179D01*
X135448002Y-155607179D02*
X135941487Y-156100665D01*
X135941487Y-156100665D02*
X135941487Y-155566056D01*
X142697887Y-155607179D02*
X142697887Y-156018417D01*
X142697887Y-156018417D02*
X143109125Y-156059541D01*
X143109125Y-156059541D02*
X143068002Y-156018417D01*
X143068002Y-156018417D02*
X143026878Y-155936170D01*
X143026878Y-155936170D02*
X143026878Y-155730551D01*
X143026878Y-155730551D02*
X143068002Y-155648303D01*
X143068002Y-155648303D02*
X143109125Y-155607179D01*
X143109125Y-155607179D02*
X143191373Y-155566056D01*
X143191373Y-155566056D02*
X143396992Y-155566056D01*
X143396992Y-155566056D02*
X143479240Y-155607179D01*
X143479240Y-155607179D02*
X143520364Y-155648303D01*
X143520364Y-155648303D02*
X143561487Y-155730551D01*
X143561487Y-155730551D02*
X143561487Y-155936170D01*
X143561487Y-155936170D02*
X143520364Y-156018417D01*
X143520364Y-156018417D02*
X143479240Y-156059541D01*
X124917887Y-156141789D02*
X125781487Y-155853922D01*
X125781487Y-155853922D02*
X124917887Y-155566056D01*
X125781487Y-155278188D02*
X124917887Y-155278188D01*
X125781487Y-154866950D02*
X124917887Y-154866950D01*
X124917887Y-154866950D02*
X125781487Y-154373465D01*
X125781487Y-154373465D02*
X124917887Y-154373465D01*
X129992298Y-111278481D02*
X129992298Y-111689719D01*
X129992298Y-111689719D02*
X130403536Y-111730843D01*
X130403536Y-111730843D02*
X130362413Y-111689719D01*
X130362413Y-111689719D02*
X130321289Y-111607472D01*
X130321289Y-111607472D02*
X130321289Y-111401853D01*
X130321289Y-111401853D02*
X130362413Y-111319605D01*
X130362413Y-111319605D02*
X130403536Y-111278481D01*
X130403536Y-111278481D02*
X130485784Y-111237358D01*
X130485784Y-111237358D02*
X130691403Y-111237358D01*
X130691403Y-111237358D02*
X130773651Y-111278481D01*
X130773651Y-111278481D02*
X130814775Y-111319605D01*
X130814775Y-111319605D02*
X130855898Y-111401853D01*
X130855898Y-111401853D02*
X130855898Y-111607472D01*
X130855898Y-111607472D02*
X130814775Y-111689719D01*
X130814775Y-111689719D02*
X130773651Y-111730843D01*
X109011898Y-112059834D02*
X109011898Y-112553319D01*
X109011898Y-112306576D02*
X108148298Y-112306576D01*
X108148298Y-112306576D02*
X108271670Y-112388824D01*
X108271670Y-112388824D02*
X108353917Y-112471072D01*
X108353917Y-112471072D02*
X108395041Y-112553319D01*
X108148298Y-111771967D02*
X108148298Y-111237358D01*
X108148298Y-111237358D02*
X108477289Y-111525224D01*
X108477289Y-111525224D02*
X108477289Y-111401853D01*
X108477289Y-111401853D02*
X108518413Y-111319605D01*
X108518413Y-111319605D02*
X108559536Y-111278481D01*
X108559536Y-111278481D02*
X108641784Y-111237358D01*
X108641784Y-111237358D02*
X108847403Y-111237358D01*
X108847403Y-111237358D02*
X108929651Y-111278481D01*
X108929651Y-111278481D02*
X108970775Y-111319605D01*
X108970775Y-111319605D02*
X109011898Y-111401853D01*
X109011898Y-111401853D02*
X109011898Y-111648596D01*
X109011898Y-111648596D02*
X108970775Y-111730843D01*
X108970775Y-111730843D02*
X108929651Y-111771967D01*
X121218413Y-111566348D02*
X121177289Y-111648596D01*
X121177289Y-111648596D02*
X121136165Y-111689719D01*
X121136165Y-111689719D02*
X121053917Y-111730843D01*
X121053917Y-111730843D02*
X121012794Y-111730843D01*
X121012794Y-111730843D02*
X120930546Y-111689719D01*
X120930546Y-111689719D02*
X120889422Y-111648596D01*
X120889422Y-111648596D02*
X120848298Y-111566348D01*
X120848298Y-111566348D02*
X120848298Y-111401853D01*
X120848298Y-111401853D02*
X120889422Y-111319605D01*
X120889422Y-111319605D02*
X120930546Y-111278481D01*
X120930546Y-111278481D02*
X121012794Y-111237358D01*
X121012794Y-111237358D02*
X121053917Y-111237358D01*
X121053917Y-111237358D02*
X121136165Y-111278481D01*
X121136165Y-111278481D02*
X121177289Y-111319605D01*
X121177289Y-111319605D02*
X121218413Y-111401853D01*
X121218413Y-111401853D02*
X121218413Y-111566348D01*
X121218413Y-111566348D02*
X121259536Y-111648596D01*
X121259536Y-111648596D02*
X121300660Y-111689719D01*
X121300660Y-111689719D02*
X121382908Y-111730843D01*
X121382908Y-111730843D02*
X121547403Y-111730843D01*
X121547403Y-111730843D02*
X121629651Y-111689719D01*
X121629651Y-111689719D02*
X121670775Y-111648596D01*
X121670775Y-111648596D02*
X121711898Y-111566348D01*
X121711898Y-111566348D02*
X121711898Y-111401853D01*
X121711898Y-111401853D02*
X121670775Y-111319605D01*
X121670775Y-111319605D02*
X121629651Y-111278481D01*
X121629651Y-111278481D02*
X121547403Y-111237358D01*
X121547403Y-111237358D02*
X121382908Y-111237358D01*
X121382908Y-111237358D02*
X121300660Y-111278481D01*
X121300660Y-111278481D02*
X121259536Y-111319605D01*
X121259536Y-111319605D02*
X121218413Y-111401853D01*
X129997887Y-155853922D02*
X129997887Y-155771675D01*
X129997887Y-155771675D02*
X130039011Y-155689427D01*
X130039011Y-155689427D02*
X130080135Y-155648303D01*
X130080135Y-155648303D02*
X130162383Y-155607179D01*
X130162383Y-155607179D02*
X130326878Y-155566056D01*
X130326878Y-155566056D02*
X130532497Y-155566056D01*
X130532497Y-155566056D02*
X130696992Y-155607179D01*
X130696992Y-155607179D02*
X130779240Y-155648303D01*
X130779240Y-155648303D02*
X130820364Y-155689427D01*
X130820364Y-155689427D02*
X130861487Y-155771675D01*
X130861487Y-155771675D02*
X130861487Y-155853922D01*
X130861487Y-155853922D02*
X130820364Y-155936170D01*
X130820364Y-155936170D02*
X130779240Y-155977294D01*
X130779240Y-155977294D02*
X130696992Y-156018417D01*
X130696992Y-156018417D02*
X130532497Y-156059541D01*
X130532497Y-156059541D02*
X130326878Y-156059541D01*
X130326878Y-156059541D02*
X130162383Y-156018417D01*
X130162383Y-156018417D02*
X130080135Y-155977294D01*
X130080135Y-155977294D02*
X130039011Y-155936170D01*
X130039011Y-155936170D02*
X129997887Y-155853922D01*
X132820165Y-111319605D02*
X133395898Y-111319605D01*
X132491175Y-111525224D02*
X133108032Y-111730843D01*
X133108032Y-111730843D02*
X133108032Y-111196234D01*
X137694546Y-111730843D02*
X137653422Y-111689719D01*
X137653422Y-111689719D02*
X137612298Y-111607472D01*
X137612298Y-111607472D02*
X137612298Y-111401853D01*
X137612298Y-111401853D02*
X137653422Y-111319605D01*
X137653422Y-111319605D02*
X137694546Y-111278481D01*
X137694546Y-111278481D02*
X137776794Y-111237358D01*
X137776794Y-111237358D02*
X137859041Y-111237358D01*
X137859041Y-111237358D02*
X137982413Y-111278481D01*
X137982413Y-111278481D02*
X138475898Y-111771967D01*
X138475898Y-111771967D02*
X138475898Y-111237358D01*
X134649762Y-154434355D02*
X135061000Y-154434355D01*
X134567514Y-154681098D02*
X134855381Y-153817498D01*
X134855381Y-153817498D02*
X135143247Y-154681098D01*
X135431115Y-154105365D02*
X135431115Y-154681098D01*
X135431115Y-154187613D02*
X135472238Y-154146489D01*
X135472238Y-154146489D02*
X135554486Y-154105365D01*
X135554486Y-154105365D02*
X135677857Y-154105365D01*
X135677857Y-154105365D02*
X135760105Y-154146489D01*
X135760105Y-154146489D02*
X135801229Y-154228736D01*
X135801229Y-154228736D02*
X135801229Y-154681098D01*
X136582581Y-154681098D02*
X136582581Y-154228736D01*
X136582581Y-154228736D02*
X136541457Y-154146489D01*
X136541457Y-154146489D02*
X136459209Y-154105365D01*
X136459209Y-154105365D02*
X136294714Y-154105365D01*
X136294714Y-154105365D02*
X136212467Y-154146489D01*
X136582581Y-154639975D02*
X136500333Y-154681098D01*
X136500333Y-154681098D02*
X136294714Y-154681098D01*
X136294714Y-154681098D02*
X136212467Y-154639975D01*
X136212467Y-154639975D02*
X136171343Y-154557727D01*
X136171343Y-154557727D02*
X136171343Y-154475479D01*
X136171343Y-154475479D02*
X136212467Y-154393232D01*
X136212467Y-154393232D02*
X136294714Y-154352108D01*
X136294714Y-154352108D02*
X136500333Y-154352108D01*
X136500333Y-154352108D02*
X136582581Y-154310984D01*
X137117190Y-154681098D02*
X137034942Y-154639975D01*
X137034942Y-154639975D02*
X136993819Y-154557727D01*
X136993819Y-154557727D02*
X136993819Y-153817498D01*
X137569552Y-154681098D02*
X137487304Y-154639975D01*
X137487304Y-154639975D02*
X137446181Y-154598851D01*
X137446181Y-154598851D02*
X137405057Y-154516603D01*
X137405057Y-154516603D02*
X137405057Y-154269860D01*
X137405057Y-154269860D02*
X137446181Y-154187613D01*
X137446181Y-154187613D02*
X137487304Y-154146489D01*
X137487304Y-154146489D02*
X137569552Y-154105365D01*
X137569552Y-154105365D02*
X137692923Y-154105365D01*
X137692923Y-154105365D02*
X137775171Y-154146489D01*
X137775171Y-154146489D02*
X137816295Y-154187613D01*
X137816295Y-154187613D02*
X137857419Y-154269860D01*
X137857419Y-154269860D02*
X137857419Y-154516603D01*
X137857419Y-154516603D02*
X137816295Y-154598851D01*
X137816295Y-154598851D02*
X137775171Y-154639975D01*
X137775171Y-154639975D02*
X137692923Y-154681098D01*
X137692923Y-154681098D02*
X137569552Y-154681098D01*
X138597647Y-154105365D02*
X138597647Y-154804470D01*
X138597647Y-154804470D02*
X138556523Y-154886717D01*
X138556523Y-154886717D02*
X138515399Y-154927841D01*
X138515399Y-154927841D02*
X138433152Y-154968965D01*
X138433152Y-154968965D02*
X138309780Y-154968965D01*
X138309780Y-154968965D02*
X138227533Y-154927841D01*
X138597647Y-154639975D02*
X138515399Y-154681098D01*
X138515399Y-154681098D02*
X138350904Y-154681098D01*
X138350904Y-154681098D02*
X138268656Y-154639975D01*
X138268656Y-154639975D02*
X138227533Y-154598851D01*
X138227533Y-154598851D02*
X138186409Y-154516603D01*
X138186409Y-154516603D02*
X138186409Y-154269860D01*
X138186409Y-154269860D02*
X138227533Y-154187613D01*
X138227533Y-154187613D02*
X138268656Y-154146489D01*
X138268656Y-154146489D02*
X138350904Y-154105365D01*
X138350904Y-154105365D02*
X138515399Y-154105365D01*
X138515399Y-154105365D02*
X138597647Y-154146489D01*
X139666866Y-154681098D02*
X139666866Y-153817498D01*
X140078104Y-154105365D02*
X140078104Y-154681098D01*
X140078104Y-154187613D02*
X140119227Y-154146489D01*
X140119227Y-154146489D02*
X140201475Y-154105365D01*
X140201475Y-154105365D02*
X140324846Y-154105365D01*
X140324846Y-154105365D02*
X140407094Y-154146489D01*
X140407094Y-154146489D02*
X140448218Y-154228736D01*
X140448218Y-154228736D02*
X140448218Y-154681098D01*
X122419011Y-155566056D02*
X122377887Y-155648303D01*
X122377887Y-155648303D02*
X122377887Y-155771675D01*
X122377887Y-155771675D02*
X122419011Y-155895046D01*
X122419011Y-155895046D02*
X122501259Y-155977294D01*
X122501259Y-155977294D02*
X122583506Y-156018417D01*
X122583506Y-156018417D02*
X122748002Y-156059541D01*
X122748002Y-156059541D02*
X122871373Y-156059541D01*
X122871373Y-156059541D02*
X123035868Y-156018417D01*
X123035868Y-156018417D02*
X123118116Y-155977294D01*
X123118116Y-155977294D02*
X123200364Y-155895046D01*
X123200364Y-155895046D02*
X123241487Y-155771675D01*
X123241487Y-155771675D02*
X123241487Y-155689427D01*
X123241487Y-155689427D02*
X123200364Y-155566056D01*
X123200364Y-155566056D02*
X123159240Y-155524932D01*
X123159240Y-155524932D02*
X122871373Y-155524932D01*
X122871373Y-155524932D02*
X122871373Y-155689427D01*
X123241487Y-155154817D02*
X122377887Y-155154817D01*
X122377887Y-155154817D02*
X123241487Y-154661332D01*
X123241487Y-154661332D02*
X122377887Y-154661332D01*
X123241487Y-154250093D02*
X122377887Y-154250093D01*
X122377887Y-154250093D02*
X122377887Y-154044474D01*
X122377887Y-154044474D02*
X122419011Y-153921103D01*
X122419011Y-153921103D02*
X122501259Y-153838855D01*
X122501259Y-153838855D02*
X122583506Y-153797732D01*
X122583506Y-153797732D02*
X122748002Y-153756608D01*
X122748002Y-153756608D02*
X122871373Y-153756608D01*
X122871373Y-153756608D02*
X123035868Y-153797732D01*
X123035868Y-153797732D02*
X123118116Y-153838855D01*
X123118116Y-153838855D02*
X123200364Y-153921103D01*
X123200364Y-153921103D02*
X123241487Y-154044474D01*
X123241487Y-154044474D02*
X123241487Y-154250093D01*
X110541487Y-156018417D02*
X109677887Y-156018417D01*
X109677887Y-155442684D02*
X109677887Y-155278189D01*
X109677887Y-155278189D02*
X109719011Y-155195941D01*
X109719011Y-155195941D02*
X109801259Y-155113694D01*
X109801259Y-155113694D02*
X109965754Y-155072570D01*
X109965754Y-155072570D02*
X110253621Y-155072570D01*
X110253621Y-155072570D02*
X110418116Y-155113694D01*
X110418116Y-155113694D02*
X110500364Y-155195941D01*
X110500364Y-155195941D02*
X110541487Y-155278189D01*
X110541487Y-155278189D02*
X110541487Y-155442684D01*
X110541487Y-155442684D02*
X110500364Y-155524932D01*
X110500364Y-155524932D02*
X110418116Y-155607179D01*
X110418116Y-155607179D02*
X110253621Y-155648303D01*
X110253621Y-155648303D02*
X109965754Y-155648303D01*
X109965754Y-155648303D02*
X109801259Y-155607179D01*
X109801259Y-155607179D02*
X109719011Y-155524932D01*
X109719011Y-155524932D02*
X109677887Y-155442684D01*
X110541487Y-154208970D02*
X110130249Y-154496836D01*
X110541487Y-154702455D02*
X109677887Y-154702455D01*
X109677887Y-154702455D02*
X109677887Y-154373465D01*
X109677887Y-154373465D02*
X109719011Y-154291217D01*
X109719011Y-154291217D02*
X109760135Y-154250094D01*
X109760135Y-154250094D02*
X109842383Y-154208970D01*
X109842383Y-154208970D02*
X109965754Y-154208970D01*
X109965754Y-154208970D02*
X110048002Y-154250094D01*
X110048002Y-154250094D02*
X110089125Y-154291217D01*
X110089125Y-154291217D02*
X110130249Y-154373465D01*
X110130249Y-154373465D02*
X110130249Y-154702455D01*
X110089125Y-153838855D02*
X110089125Y-153550989D01*
X110541487Y-153427617D02*
X110541487Y-153838855D01*
X110541487Y-153838855D02*
X109677887Y-153838855D01*
X109677887Y-153838855D02*
X109677887Y-153427617D01*
X110089125Y-152769637D02*
X110089125Y-153057503D01*
X110541487Y-153057503D02*
X109677887Y-153057503D01*
X109677887Y-153057503D02*
X109677887Y-152646265D01*
X111551898Y-112059834D02*
X111551898Y-112553319D01*
X111551898Y-112306576D02*
X110688298Y-112306576D01*
X110688298Y-112306576D02*
X110811670Y-112388824D01*
X110811670Y-112388824D02*
X110893917Y-112471072D01*
X110893917Y-112471072D02*
X110935041Y-112553319D01*
X110770546Y-111730843D02*
X110729422Y-111689719D01*
X110729422Y-111689719D02*
X110688298Y-111607472D01*
X110688298Y-111607472D02*
X110688298Y-111401853D01*
X110688298Y-111401853D02*
X110729422Y-111319605D01*
X110729422Y-111319605D02*
X110770546Y-111278481D01*
X110770546Y-111278481D02*
X110852794Y-111237358D01*
X110852794Y-111237358D02*
X110935041Y-111237358D01*
X110935041Y-111237358D02*
X111058413Y-111278481D01*
X111058413Y-111278481D02*
X111551898Y-111771967D01*
X111551898Y-111771967D02*
X111551898Y-111237358D01*
X135072298Y-111771967D02*
X135072298Y-111237358D01*
X135072298Y-111237358D02*
X135401289Y-111525224D01*
X135401289Y-111525224D02*
X135401289Y-111401853D01*
X135401289Y-111401853D02*
X135442413Y-111319605D01*
X135442413Y-111319605D02*
X135483536Y-111278481D01*
X135483536Y-111278481D02*
X135565784Y-111237358D01*
X135565784Y-111237358D02*
X135771403Y-111237358D01*
X135771403Y-111237358D02*
X135853651Y-111278481D01*
X135853651Y-111278481D02*
X135894775Y-111319605D01*
X135894775Y-111319605D02*
X135935898Y-111401853D01*
X135935898Y-111401853D02*
X135935898Y-111648596D01*
X135935898Y-111648596D02*
X135894775Y-111730843D01*
X135894775Y-111730843D02*
X135853651Y-111771967D01*
X140445754Y-155648303D02*
X141021487Y-155648303D01*
X140116764Y-155853922D02*
X140733621Y-156059541D01*
X140733621Y-156059541D02*
X140733621Y-155524932D01*
X116631898Y-112059834D02*
X116631898Y-112553319D01*
X116631898Y-112306576D02*
X115768298Y-112306576D01*
X115768298Y-112306576D02*
X115891670Y-112388824D01*
X115891670Y-112388824D02*
X115973917Y-112471072D01*
X115973917Y-112471072D02*
X116015041Y-112553319D01*
X115768298Y-111525224D02*
X115768298Y-111442977D01*
X115768298Y-111442977D02*
X115809422Y-111360729D01*
X115809422Y-111360729D02*
X115850546Y-111319605D01*
X115850546Y-111319605D02*
X115932794Y-111278481D01*
X115932794Y-111278481D02*
X116097289Y-111237358D01*
X116097289Y-111237358D02*
X116302908Y-111237358D01*
X116302908Y-111237358D02*
X116467403Y-111278481D01*
X116467403Y-111278481D02*
X116549651Y-111319605D01*
X116549651Y-111319605D02*
X116590775Y-111360729D01*
X116590775Y-111360729D02*
X116631898Y-111442977D01*
X116631898Y-111442977D02*
X116631898Y-111525224D01*
X116631898Y-111525224D02*
X116590775Y-111607472D01*
X116590775Y-111607472D02*
X116549651Y-111648596D01*
X116549651Y-111648596D02*
X116467403Y-111689719D01*
X116467403Y-111689719D02*
X116302908Y-111730843D01*
X116302908Y-111730843D02*
X116097289Y-111730843D01*
X116097289Y-111730843D02*
X115932794Y-111689719D01*
X115932794Y-111689719D02*
X115850546Y-111648596D01*
X115850546Y-111648596D02*
X115809422Y-111607472D01*
X115809422Y-111607472D02*
X115768298Y-111525224D01*
X98810775Y-113293548D02*
X98851898Y-113170177D01*
X98851898Y-113170177D02*
X98851898Y-112964558D01*
X98851898Y-112964558D02*
X98810775Y-112882310D01*
X98810775Y-112882310D02*
X98769651Y-112841186D01*
X98769651Y-112841186D02*
X98687403Y-112800063D01*
X98687403Y-112800063D02*
X98605155Y-112800063D01*
X98605155Y-112800063D02*
X98522908Y-112841186D01*
X98522908Y-112841186D02*
X98481784Y-112882310D01*
X98481784Y-112882310D02*
X98440660Y-112964558D01*
X98440660Y-112964558D02*
X98399536Y-113129053D01*
X98399536Y-113129053D02*
X98358413Y-113211301D01*
X98358413Y-113211301D02*
X98317289Y-113252424D01*
X98317289Y-113252424D02*
X98235041Y-113293548D01*
X98235041Y-113293548D02*
X98152794Y-113293548D01*
X98152794Y-113293548D02*
X98070546Y-113252424D01*
X98070546Y-113252424D02*
X98029422Y-113211301D01*
X98029422Y-113211301D02*
X97988298Y-113129053D01*
X97988298Y-113129053D02*
X97988298Y-112923434D01*
X97988298Y-112923434D02*
X98029422Y-112800063D01*
X98769651Y-111936463D02*
X98810775Y-111977587D01*
X98810775Y-111977587D02*
X98851898Y-112100958D01*
X98851898Y-112100958D02*
X98851898Y-112183206D01*
X98851898Y-112183206D02*
X98810775Y-112306577D01*
X98810775Y-112306577D02*
X98728527Y-112388825D01*
X98728527Y-112388825D02*
X98646279Y-112429948D01*
X98646279Y-112429948D02*
X98481784Y-112471072D01*
X98481784Y-112471072D02*
X98358413Y-112471072D01*
X98358413Y-112471072D02*
X98193917Y-112429948D01*
X98193917Y-112429948D02*
X98111670Y-112388825D01*
X98111670Y-112388825D02*
X98029422Y-112306577D01*
X98029422Y-112306577D02*
X97988298Y-112183206D01*
X97988298Y-112183206D02*
X97988298Y-112100958D01*
X97988298Y-112100958D02*
X98029422Y-111977587D01*
X98029422Y-111977587D02*
X98070546Y-111936463D01*
X98851898Y-111155110D02*
X98851898Y-111566348D01*
X98851898Y-111566348D02*
X97988298Y-111566348D01*
X114091898Y-112059834D02*
X114091898Y-112553319D01*
X114091898Y-112306576D02*
X113228298Y-112306576D01*
X113228298Y-112306576D02*
X113351670Y-112388824D01*
X113351670Y-112388824D02*
X113433917Y-112471072D01*
X113433917Y-112471072D02*
X113475041Y-112553319D01*
X114091898Y-111237358D02*
X114091898Y-111730843D01*
X114091898Y-111484100D02*
X113228298Y-111484100D01*
X113228298Y-111484100D02*
X113351670Y-111566348D01*
X113351670Y-111566348D02*
X113433917Y-111648596D01*
X113433917Y-111648596D02*
X113475041Y-111730843D01*
X119171898Y-111648596D02*
X119171898Y-111484100D01*
X119171898Y-111484100D02*
X119130775Y-111401853D01*
X119130775Y-111401853D02*
X119089651Y-111360729D01*
X119089651Y-111360729D02*
X118966279Y-111278481D01*
X118966279Y-111278481D02*
X118801784Y-111237358D01*
X118801784Y-111237358D02*
X118472794Y-111237358D01*
X118472794Y-111237358D02*
X118390546Y-111278481D01*
X118390546Y-111278481D02*
X118349422Y-111319605D01*
X118349422Y-111319605D02*
X118308298Y-111401853D01*
X118308298Y-111401853D02*
X118308298Y-111566348D01*
X118308298Y-111566348D02*
X118349422Y-111648596D01*
X118349422Y-111648596D02*
X118390546Y-111689719D01*
X118390546Y-111689719D02*
X118472794Y-111730843D01*
X118472794Y-111730843D02*
X118678413Y-111730843D01*
X118678413Y-111730843D02*
X118760660Y-111689719D01*
X118760660Y-111689719D02*
X118801784Y-111648596D01*
X118801784Y-111648596D02*
X118842908Y-111566348D01*
X118842908Y-111566348D02*
X118842908Y-111401853D01*
X118842908Y-111401853D02*
X118801784Y-111319605D01*
X118801784Y-111319605D02*
X118760660Y-111278481D01*
X118760660Y-111278481D02*
X118678413Y-111237358D01*
X101350775Y-113334672D02*
X101391898Y-113211301D01*
X101391898Y-113211301D02*
X101391898Y-113005682D01*
X101391898Y-113005682D02*
X101350775Y-112923434D01*
X101350775Y-112923434D02*
X101309651Y-112882310D01*
X101309651Y-112882310D02*
X101227403Y-112841187D01*
X101227403Y-112841187D02*
X101145155Y-112841187D01*
X101145155Y-112841187D02*
X101062908Y-112882310D01*
X101062908Y-112882310D02*
X101021784Y-112923434D01*
X101021784Y-112923434D02*
X100980660Y-113005682D01*
X100980660Y-113005682D02*
X100939536Y-113170177D01*
X100939536Y-113170177D02*
X100898413Y-113252425D01*
X100898413Y-113252425D02*
X100857289Y-113293548D01*
X100857289Y-113293548D02*
X100775041Y-113334672D01*
X100775041Y-113334672D02*
X100692794Y-113334672D01*
X100692794Y-113334672D02*
X100610546Y-113293548D01*
X100610546Y-113293548D02*
X100569422Y-113252425D01*
X100569422Y-113252425D02*
X100528298Y-113170177D01*
X100528298Y-113170177D02*
X100528298Y-112964558D01*
X100528298Y-112964558D02*
X100569422Y-112841187D01*
X101391898Y-112471072D02*
X100528298Y-112471072D01*
X100528298Y-112471072D02*
X100528298Y-112265453D01*
X100528298Y-112265453D02*
X100569422Y-112142082D01*
X100569422Y-112142082D02*
X100651670Y-112059834D01*
X100651670Y-112059834D02*
X100733917Y-112018711D01*
X100733917Y-112018711D02*
X100898413Y-111977587D01*
X100898413Y-111977587D02*
X101021784Y-111977587D01*
X101021784Y-111977587D02*
X101186279Y-112018711D01*
X101186279Y-112018711D02*
X101268527Y-112059834D01*
X101268527Y-112059834D02*
X101350775Y-112142082D01*
X101350775Y-112142082D02*
X101391898Y-112265453D01*
X101391898Y-112265453D02*
X101391898Y-112471072D01*
X101145155Y-111648596D02*
X101145155Y-111237358D01*
X101391898Y-111730844D02*
X100528298Y-111442977D01*
X100528298Y-111442977D02*
X101391898Y-111155111D01*
X103685155Y-114033777D02*
X103685155Y-113622539D01*
X103931898Y-114116025D02*
X103068298Y-113828158D01*
X103068298Y-113828158D02*
X103931898Y-113540292D01*
X103931898Y-112758939D02*
X103520660Y-113046805D01*
X103931898Y-113252424D02*
X103068298Y-113252424D01*
X103068298Y-113252424D02*
X103068298Y-112923434D01*
X103068298Y-112923434D02*
X103109422Y-112841186D01*
X103109422Y-112841186D02*
X103150546Y-112800063D01*
X103150546Y-112800063D02*
X103232794Y-112758939D01*
X103232794Y-112758939D02*
X103356165Y-112758939D01*
X103356165Y-112758939D02*
X103438413Y-112800063D01*
X103438413Y-112800063D02*
X103479536Y-112841186D01*
X103479536Y-112841186D02*
X103520660Y-112923434D01*
X103520660Y-112923434D02*
X103520660Y-113252424D01*
X103479536Y-112388824D02*
X103479536Y-112100958D01*
X103931898Y-111977586D02*
X103931898Y-112388824D01*
X103931898Y-112388824D02*
X103068298Y-112388824D01*
X103068298Y-112388824D02*
X103068298Y-111977586D01*
X103479536Y-111319606D02*
X103479536Y-111607472D01*
X103931898Y-111607472D02*
X103068298Y-111607472D01*
X103068298Y-111607472D02*
X103068298Y-111196234D01*
X115292497Y-156018417D02*
X115292497Y-155360437D01*
X115621487Y-155689427D02*
X114963506Y-155689427D01*
X114757887Y-155031446D02*
X114757887Y-154496837D01*
X114757887Y-154496837D02*
X115086878Y-154784703D01*
X115086878Y-154784703D02*
X115086878Y-154661332D01*
X115086878Y-154661332D02*
X115128002Y-154579084D01*
X115128002Y-154579084D02*
X115169125Y-154537960D01*
X115169125Y-154537960D02*
X115251373Y-154496837D01*
X115251373Y-154496837D02*
X115456992Y-154496837D01*
X115456992Y-154496837D02*
X115539240Y-154537960D01*
X115539240Y-154537960D02*
X115580364Y-154579084D01*
X115580364Y-154579084D02*
X115621487Y-154661332D01*
X115621487Y-154661332D02*
X115621487Y-154908075D01*
X115621487Y-154908075D02*
X115580364Y-154990322D01*
X115580364Y-154990322D02*
X115539240Y-155031446D01*
X115539240Y-154126722D02*
X115580364Y-154085599D01*
X115580364Y-154085599D02*
X115621487Y-154126722D01*
X115621487Y-154126722D02*
X115580364Y-154167846D01*
X115580364Y-154167846D02*
X115539240Y-154126722D01*
X115539240Y-154126722D02*
X115621487Y-154126722D01*
X114757887Y-153797732D02*
X114757887Y-153263123D01*
X114757887Y-153263123D02*
X115086878Y-153550989D01*
X115086878Y-153550989D02*
X115086878Y-153427618D01*
X115086878Y-153427618D02*
X115128002Y-153345370D01*
X115128002Y-153345370D02*
X115169125Y-153304246D01*
X115169125Y-153304246D02*
X115251373Y-153263123D01*
X115251373Y-153263123D02*
X115456992Y-153263123D01*
X115456992Y-153263123D02*
X115539240Y-153304246D01*
X115539240Y-153304246D02*
X115580364Y-153345370D01*
X115580364Y-153345370D02*
X115621487Y-153427618D01*
X115621487Y-153427618D02*
X115621487Y-153674361D01*
X115621487Y-153674361D02*
X115580364Y-153756608D01*
X115580364Y-153756608D02*
X115539240Y-153797732D01*
X114757887Y-153016380D02*
X115621487Y-152728513D01*
X115621487Y-152728513D02*
X114757887Y-152440647D01*
X113081487Y-155524932D02*
X112670249Y-155812798D01*
X113081487Y-156018417D02*
X112217887Y-156018417D01*
X112217887Y-156018417D02*
X112217887Y-155689427D01*
X112217887Y-155689427D02*
X112259011Y-155607179D01*
X112259011Y-155607179D02*
X112300135Y-155566056D01*
X112300135Y-155566056D02*
X112382383Y-155524932D01*
X112382383Y-155524932D02*
X112505754Y-155524932D01*
X112505754Y-155524932D02*
X112588002Y-155566056D01*
X112588002Y-155566056D02*
X112629125Y-155607179D01*
X112629125Y-155607179D02*
X112670249Y-155689427D01*
X112670249Y-155689427D02*
X112670249Y-156018417D01*
X113040364Y-155195941D02*
X113081487Y-155072570D01*
X113081487Y-155072570D02*
X113081487Y-154866951D01*
X113081487Y-154866951D02*
X113040364Y-154784703D01*
X113040364Y-154784703D02*
X112999240Y-154743579D01*
X112999240Y-154743579D02*
X112916992Y-154702456D01*
X112916992Y-154702456D02*
X112834744Y-154702456D01*
X112834744Y-154702456D02*
X112752497Y-154743579D01*
X112752497Y-154743579D02*
X112711373Y-154784703D01*
X112711373Y-154784703D02*
X112670249Y-154866951D01*
X112670249Y-154866951D02*
X112629125Y-155031446D01*
X112629125Y-155031446D02*
X112588002Y-155113694D01*
X112588002Y-155113694D02*
X112546878Y-155154817D01*
X112546878Y-155154817D02*
X112464630Y-155195941D01*
X112464630Y-155195941D02*
X112382383Y-155195941D01*
X112382383Y-155195941D02*
X112300135Y-155154817D01*
X112300135Y-155154817D02*
X112259011Y-155113694D01*
X112259011Y-155113694D02*
X112217887Y-155031446D01*
X112217887Y-155031446D02*
X112217887Y-154825827D01*
X112217887Y-154825827D02*
X112259011Y-154702456D01*
X112217887Y-154455713D02*
X112217887Y-153962227D01*
X113081487Y-154208970D02*
X112217887Y-154208970D01*
D11*
%TO.C,J8*%
X97193100Y-51028600D02*
X122593100Y-51028600D01*
X97193100Y-53568600D02*
X97193100Y-51028600D01*
X106337100Y-99288600D02*
X106337100Y-101828600D01*
X106337100Y-101828600D02*
X126657100Y-101828600D01*
X122593100Y-51028600D02*
X122593100Y-53568600D01*
X122593100Y-53568600D02*
X97193100Y-53568600D01*
X124117100Y-51028600D02*
X144437100Y-51028600D01*
X124117100Y-53568600D02*
X124117100Y-51028600D01*
X126657100Y-99288600D02*
X106337100Y-99288600D01*
X126657100Y-101828600D02*
X126657100Y-99288600D01*
X129197100Y-99288600D02*
X144437100Y-99288600D01*
X129197100Y-101828600D02*
X129197100Y-99288600D01*
X144437100Y-51028600D02*
X144437100Y-53568600D01*
X144437100Y-53568600D02*
X124117100Y-53568600D01*
X144437100Y-99288600D02*
X144437100Y-101828600D01*
X144437100Y-101828600D02*
X129197100Y-101828600D01*
%TO.C,J11*%
X154851100Y-51028600D02*
X180251100Y-51028600D01*
X154851100Y-53568600D02*
X154851100Y-51028600D01*
X163995100Y-99288600D02*
X163995100Y-101828600D01*
X163995100Y-101828600D02*
X184315100Y-101828600D01*
X180251100Y-51028600D02*
X180251100Y-53568600D01*
X180251100Y-53568600D02*
X154851100Y-53568600D01*
X181775100Y-51028600D02*
X202095100Y-51028600D01*
X181775100Y-53568600D02*
X181775100Y-51028600D01*
X184315100Y-99288600D02*
X163995100Y-99288600D01*
X184315100Y-101828600D02*
X184315100Y-99288600D01*
X186855100Y-99288600D02*
X202095100Y-99288600D01*
X186855100Y-101828600D02*
X186855100Y-99288600D01*
X202095100Y-51028600D02*
X202095100Y-53568600D01*
X202095100Y-53568600D02*
X181775100Y-53568600D01*
X202095100Y-99288600D02*
X202095100Y-101828600D01*
X202095100Y-101828600D02*
X186855100Y-101828600D01*
%TO.C,J5*%
X154851100Y-108178600D02*
X180251100Y-108178600D01*
X154851100Y-110718600D02*
X154851100Y-108178600D01*
X163995100Y-156438600D02*
X163995100Y-158978600D01*
X163995100Y-158978600D02*
X184315100Y-158978600D01*
X180251100Y-108178600D02*
X180251100Y-110718600D01*
X180251100Y-110718600D02*
X154851100Y-110718600D01*
X181775100Y-108178600D02*
X202095100Y-108178600D01*
X181775100Y-110718600D02*
X181775100Y-108178600D01*
X184315100Y-156438600D02*
X163995100Y-156438600D01*
X184315100Y-158978600D02*
X184315100Y-156438600D01*
X186855100Y-156438600D02*
X202095100Y-156438600D01*
X186855100Y-158978600D02*
X186855100Y-156438600D01*
X202095100Y-108178600D02*
X202095100Y-110718600D01*
X202095100Y-110718600D02*
X181775100Y-110718600D01*
X202095100Y-156438600D02*
X202095100Y-158978600D01*
X202095100Y-158978600D02*
X186855100Y-158978600D01*
%TO.C,J2*%
X97193100Y-108178600D02*
X122593100Y-108178600D01*
X97193100Y-110718600D02*
X97193100Y-108178600D01*
X106337100Y-156438600D02*
X106337100Y-158978600D01*
X106337100Y-158978600D02*
X126657100Y-158978600D01*
X122593100Y-108178600D02*
X122593100Y-110718600D01*
X122593100Y-110718600D02*
X97193100Y-110718600D01*
X124117100Y-108178600D02*
X144437100Y-108178600D01*
X124117100Y-110718600D02*
X124117100Y-108178600D01*
X126657100Y-156438600D02*
X106337100Y-156438600D01*
X126657100Y-158978600D02*
X126657100Y-156438600D01*
X129197100Y-156438600D02*
X144437100Y-156438600D01*
X129197100Y-158978600D02*
X129197100Y-156438600D01*
X144437100Y-108178600D02*
X144437100Y-110718600D01*
X144437100Y-110718600D02*
X124117100Y-110718600D01*
X144437100Y-156438600D02*
X144437100Y-158978600D01*
X144437100Y-158978600D02*
X129197100Y-158978600D01*
%TD*%
M02*
