M48
; DRILL file {KiCad 7.0.6-7.0.6~ubuntu22.04.1} date Fri 04 Aug 2023 13:30:46 BST
; FORMAT={-:-/ absolute / metric / decimal}
; #@! TF.CreationDate,2023-08-04T13:30:46+01:00
; #@! TF.GenerationSoftware,Kicad,Pcbnew,7.0.6-7.0.6~ubuntu22.04.1
; #@! TF.FileFunction,MixedPlating,1,2
FMAT,2
METRIC
; #@! TA.AperFunction,Plated,PTH,ViaDrill
T1C0.500
; #@! TA.AperFunction,Plated,PTH,ComponentDrill
T2C1.000
; #@! TA.AperFunction,Plated,PTH,ComponentDrill
T3C2.500
%
G90
G05
T1
X144.691Y-110.846
X144.691Y-113.259
X145.961Y-114.529
X146.469Y-112.243
X147.993Y-103.48
X148.628Y-101.448
X148.628Y-104.623
X149.009Y-105.766
X149.009Y-107.163
X149.644Y-102.464
X150.025Y-100.94
X152.946Y-97.765
X153.581Y-110.084
T2
X140.881Y-91.034
X140.881Y-93.574
X140.881Y-96.114
X140.881Y-98.654
X140.881Y-101.194
X140.881Y-103.734
X140.881Y-106.274
X140.881Y-108.814
X140.881Y-111.354
X140.881Y-113.894
X140.881Y-116.434
X140.881Y-118.974
X156.121Y-91.034
X156.121Y-93.574
X156.121Y-96.114
X156.121Y-98.654
X156.121Y-101.194
X156.121Y-103.734
X156.121Y-106.274
X156.121Y-108.814
X156.121Y-111.354
X156.121Y-113.894
X156.121Y-116.434
X156.121Y-118.974
T3
X148.501Y-92.304
X148.501Y-117.704
T0
M30
