%TF.GenerationSoftware,KiCad,Pcbnew,7.0.6-7.0.6~ubuntu22.04.1*%
%TF.CreationDate,2023-08-04T22:43:38+01:00*%
%TF.ProjectId,working,776f726b-696e-4672-9e6b-696361645f70,rev?*%
%TF.SameCoordinates,Original*%
%TF.FileFunction,Copper,L2,Bot*%
%TF.FilePolarity,Positive*%
%FSLAX46Y46*%
G04 Gerber Fmt 4.6, Leading zero omitted, Abs format (unit mm)*
G04 Created by KiCad (PCBNEW 7.0.6-7.0.6~ubuntu22.04.1) date 2023-08-04 22:43:38*
%MOMM*%
%LPD*%
G01*
G04 APERTURE LIST*
G04 Aperture macros list*
%AMRoundRect*
0 Rectangle with rounded corners*
0 $1 Rounding radius*
0 $2 $3 $4 $5 $6 $7 $8 $9 X,Y pos of 4 corners*
0 Add a 4 corners polygon primitive as box body*
4,1,4,$2,$3,$4,$5,$6,$7,$8,$9,$2,$3,0*
0 Add four circle primitives for the rounded corners*
1,1,$1+$1,$2,$3*
1,1,$1+$1,$4,$5*
1,1,$1+$1,$6,$7*
1,1,$1+$1,$8,$9*
0 Add four rect primitives between the rounded corners*
20,1,$1+$1,$2,$3,$4,$5,0*
20,1,$1+$1,$4,$5,$6,$7,0*
20,1,$1+$1,$6,$7,$8,$9,0*
20,1,$1+$1,$8,$9,$2,$3,0*%
G04 Aperture macros list end*
%TA.AperFunction,SMDPad,CuDef*%
%ADD10RoundRect,1.000000X0.000000X0.000000X0.000000X0.000000X0.000000X0.000000X0.000000X0.000000X0*%
%TD*%
%TA.AperFunction,SMDPad,CuDef*%
%ADD11R,3.000000X1.400000*%
%TD*%
%TA.AperFunction,SMDPad,CuDef*%
%ADD12R,1.400000X3.000000*%
%TD*%
%TA.AperFunction,ViaPad*%
%ADD13C,0.906400*%
%TD*%
%TA.AperFunction,Conductor*%
%ADD14C,0.254000*%
%TD*%
G04 APERTURE END LIST*
D10*
%TO.P,TP4,TP*%
%TO.N,GND*%
X162276100Y-88028600D03*
%TD*%
%TO.P,TP2,TP*%
%TO.N,GND*%
X142076100Y-74528600D03*
%TD*%
%TO.P,TP6,TP*%
%TO.N,GND*%
X180576100Y-114328600D03*
%TD*%
D11*
%TO.P,U$1,1*%
%TO.N,VDD*%
X110576100Y-70803600D03*
%TO.P,U$1,2*%
%TO.N,N$17*%
X110576100Y-68803600D03*
%TO.P,U$1,3*%
%TO.N,GND*%
X110576100Y-66803600D03*
%TD*%
D12*
%TO.P,U$2,1*%
%TO.N,GND*%
X186701100Y-142928600D03*
%TO.P,U$2,2*%
%TO.N,N$16*%
X184701100Y-142928600D03*
%TO.P,U$2,3*%
%TO.N,VDD*%
X182701100Y-142928600D03*
%TD*%
D10*
%TO.P,TP3,TP*%
%TO.N,VDD*%
X162776100Y-93428600D03*
%TD*%
%TO.P,TP5,TP*%
%TO.N,VDD*%
X178676100Y-119828600D03*
%TD*%
%TO.P,TP1,TP*%
%TO.N,VDD*%
X144176100Y-79528600D03*
%TD*%
D13*
%TO.N,N$1*%
X113825309Y-67695247D03*
X120624915Y-69741566D03*
%TO.N,N$2*%
X128368571Y-71357888D03*
X120846496Y-68308597D03*
%TO.N,N$3*%
X135900856Y-73774791D03*
X128738725Y-69955932D03*
%TO.N,N$4*%
X143139240Y-76965791D03*
X136415521Y-72419204D03*
%TO.N,N$5*%
X150004421Y-80895925D03*
X143792787Y-75671425D03*
%TO.N,N$6*%
X150789687Y-79676966D03*
X156421184Y-85522138D03*
%TO.N,N$7*%
X157329565Y-84391941D03*
X162319225Y-90793744D03*
%TO.N,N$8*%
X163340765Y-89764688D03*
X167633925Y-96652985D03*
%TO.N,N$9*%
X172307050Y-103035663D03*
X168757434Y-95736344D03*
%TO.N,N$10*%
X173520218Y-102241485D03*
X176287403Y-109871850D03*
%TO.N,N$11*%
X179531378Y-117086650D03*
X177576943Y-109208835D03*
%TO.N,GND*%
X113447950Y-66476444D03*
X182067128Y-116716485D03*
X137322515Y-71642672D03*
X174710428Y-102146375D03*
X164485190Y-89424197D03*
X158432128Y-83933691D03*
X129559578Y-69088844D03*
X151838309Y-79105979D03*
X184563981Y-124497935D03*
X187058209Y-140628282D03*
X178770571Y-109238657D03*
X121572218Y-67360457D03*
X144775981Y-74993954D03*
X169931178Y-95517344D03*
X186233771Y-132497750D03*
%TO.N,VDD*%
X142614490Y-78605800D03*
X161313368Y-92191332D03*
X174898900Y-110890210D03*
X128196268Y-73071163D03*
X166487487Y-97937775D03*
X149311118Y-82472104D03*
X182849512Y-140562300D03*
X112942400Y-70655188D03*
X178044031Y-117954291D03*
X120632640Y-71463466D03*
X135550409Y-75460669D03*
X180433537Y-125308432D03*
X182041234Y-132872060D03*
X155566925Y-87017213D03*
X171032596Y-104193582D03*
%TO.N,N$12*%
X180883156Y-116562060D03*
X182003428Y-124601016D03*
%TO.N,N$13*%
X183402634Y-124220597D03*
X183676471Y-132332616D03*
%TO.N,N$14*%
X184532178Y-140196741D03*
X185107778Y-132100538D03*
%TO.N,N$16*%
X185986100Y-140108600D03*
%TO.N,N$17*%
X112976100Y-68728600D03*
%TD*%
D14*
%TO.N,N$1*%
X113825309Y-67695247D02*
X120624915Y-69741566D01*
%TO.N,N$2*%
X120846496Y-68308597D02*
X128368571Y-71357888D01*
%TO.N,N$3*%
X128738725Y-69955932D02*
X135900856Y-73774791D01*
%TO.N,N$4*%
X136415521Y-72419204D02*
X143139240Y-76965791D01*
%TO.N,N$5*%
X143792787Y-75671425D02*
X150004421Y-80895925D01*
%TO.N,N$6*%
X150789687Y-79676966D02*
X156421184Y-85522138D01*
%TO.N,N$7*%
X157329565Y-84391941D02*
X162319225Y-90793744D01*
%TO.N,N$8*%
X163340765Y-89764688D02*
X167633925Y-96652985D01*
%TO.N,N$9*%
X168757434Y-95736344D02*
X172307050Y-103035663D01*
%TO.N,N$10*%
X173520218Y-102241485D02*
X176287403Y-109871850D01*
%TO.N,N$11*%
X177576943Y-109208835D02*
X179531378Y-117086650D01*
%TO.N,N$12*%
X180883156Y-116562060D02*
X182003428Y-124601016D01*
%TO.N,N$13*%
X183402634Y-124220597D02*
X183676471Y-132332616D01*
%TO.N,N$14*%
X185107778Y-132100538D02*
X184532178Y-140196741D01*
%TO.N,N$16*%
X185986100Y-140108600D02*
X184701100Y-142928600D01*
%TO.N,N$17*%
X110576100Y-68803600D02*
X112301100Y-68803600D01*
X112301100Y-68803600D02*
X112876100Y-68828600D01*
X112876100Y-68828600D02*
X112976100Y-68728600D01*
%TD*%
%TA.AperFunction,Conductor*%
%TO.N,VDD*%
G36*
X114298997Y-69182637D02*
G01*
X116035626Y-69323350D01*
X117768543Y-69504138D01*
X119055413Y-69668519D01*
X119065484Y-69670662D01*
X119911571Y-69925289D01*
X119948615Y-69955555D01*
X119951998Y-69962975D01*
X119993674Y-70072865D01*
X120091300Y-70214302D01*
X120091304Y-70214306D01*
X120219942Y-70328270D01*
X120219943Y-70328270D01*
X120372116Y-70408136D01*
X120372117Y-70408136D01*
X120372118Y-70408137D01*
X120538985Y-70449266D01*
X120710845Y-70449266D01*
X120877712Y-70408137D01*
X121029887Y-70328270D01*
X121158527Y-70214305D01*
X121256155Y-70072866D01*
X121266616Y-70045281D01*
X121299402Y-70010452D01*
X121335823Y-70005881D01*
X122935777Y-70285880D01*
X124644619Y-70625789D01*
X126345155Y-71005080D01*
X126694003Y-71091392D01*
X126702469Y-71094140D01*
X127637212Y-71473065D01*
X127671292Y-71506633D01*
X127675776Y-71523454D01*
X127676387Y-71528488D01*
X127676388Y-71528492D01*
X127676388Y-71528493D01*
X127676389Y-71528496D01*
X127678099Y-71533004D01*
X127737332Y-71689191D01*
X127834956Y-71830624D01*
X127834959Y-71830627D01*
X127963599Y-71944592D01*
X128115772Y-72024458D01*
X128115773Y-72024458D01*
X128115774Y-72024459D01*
X128282641Y-72065588D01*
X128454501Y-72065588D01*
X128621368Y-72024459D01*
X128773543Y-71944592D01*
X128902183Y-71830627D01*
X128976727Y-71722630D01*
X129016896Y-71696660D01*
X129044565Y-71697827D01*
X129717681Y-71880969D01*
X131387871Y-72377101D01*
X133046156Y-72911679D01*
X134265950Y-73336245D01*
X134274799Y-73340117D01*
X135166022Y-73815319D01*
X135196406Y-73852264D01*
X135198660Y-73862934D01*
X135208672Y-73945392D01*
X135208673Y-73945395D01*
X135208673Y-73945396D01*
X135208674Y-73945399D01*
X135220472Y-73976508D01*
X135269617Y-74106094D01*
X135367241Y-74247527D01*
X135367244Y-74247530D01*
X135495884Y-74361495D01*
X135648057Y-74441361D01*
X135648058Y-74441361D01*
X135648059Y-74441362D01*
X135814926Y-74482491D01*
X135986786Y-74482491D01*
X136153653Y-74441362D01*
X136305828Y-74361495D01*
X136434468Y-74247530D01*
X136464531Y-74203974D01*
X136504701Y-74178004D01*
X136539215Y-74181464D01*
X137940766Y-74743130D01*
X139542653Y-75428435D01*
X141128283Y-76150557D01*
X141560611Y-76359634D01*
X141568395Y-76364118D01*
X142399893Y-76926378D01*
X142426249Y-76966298D01*
X142426927Y-76970618D01*
X142447056Y-77136392D01*
X142447057Y-77136395D01*
X142447057Y-77136396D01*
X142447058Y-77136399D01*
X142469673Y-77196029D01*
X142508001Y-77297094D01*
X142605625Y-77438527D01*
X142605628Y-77438530D01*
X142734268Y-77552495D01*
X142886441Y-77632361D01*
X142886442Y-77632361D01*
X142886443Y-77632362D01*
X143053310Y-77673491D01*
X143225170Y-77673491D01*
X143392037Y-77632362D01*
X143544212Y-77552495D01*
X143661822Y-77448301D01*
X143707038Y-77432698D01*
X143731764Y-77439461D01*
X144247399Y-77703692D01*
X145779220Y-78533877D01*
X147291457Y-79399222D01*
X148492717Y-80123952D01*
X148500649Y-80129627D01*
X149102163Y-80635550D01*
X149276769Y-80782409D01*
X149298807Y-80824865D01*
X149298583Y-80837773D01*
X149291523Y-80895921D01*
X149291523Y-80895927D01*
X149312237Y-81066526D01*
X149312238Y-81066529D01*
X149312238Y-81066530D01*
X149312239Y-81066533D01*
X149360360Y-81193420D01*
X149373182Y-81227228D01*
X149470806Y-81368661D01*
X149470809Y-81368664D01*
X149599449Y-81482629D01*
X149751622Y-81562495D01*
X149751623Y-81562495D01*
X149751624Y-81562496D01*
X149918491Y-81603625D01*
X150090351Y-81603625D01*
X150257218Y-81562496D01*
X150409393Y-81482629D01*
X150466770Y-81431796D01*
X150511986Y-81416194D01*
X150542936Y-81426613D01*
X151702649Y-82201508D01*
X153128591Y-83202693D01*
X154531028Y-84236548D01*
X155005453Y-84603498D01*
X155012224Y-84609572D01*
X155708167Y-85331921D01*
X155725647Y-85376448D01*
X155725202Y-85382818D01*
X155708286Y-85522135D01*
X155708286Y-85522140D01*
X155729000Y-85692739D01*
X155729001Y-85692742D01*
X155729001Y-85692743D01*
X155729002Y-85692746D01*
X155777123Y-85819633D01*
X155789945Y-85853441D01*
X155887569Y-85994874D01*
X155887572Y-85994877D01*
X156016212Y-86108842D01*
X156168385Y-86188708D01*
X156168386Y-86188708D01*
X156168387Y-86188709D01*
X156335254Y-86229838D01*
X156507114Y-86229838D01*
X156673981Y-86188709D01*
X156826156Y-86108842D01*
X156826161Y-86108837D01*
X156829270Y-86106693D01*
X156830781Y-86108882D01*
X156868079Y-86095651D01*
X156904211Y-86109525D01*
X157052552Y-86229838D01*
X157262403Y-86400040D01*
X158589885Y-87528523D01*
X159890947Y-88687369D01*
X160997430Y-89719711D01*
X161004088Y-89726988D01*
X161630153Y-90530238D01*
X161642883Y-90576349D01*
X161639297Y-90590820D01*
X161627044Y-90623131D01*
X161627041Y-90623143D01*
X161606327Y-90793741D01*
X161606327Y-90793746D01*
X161627041Y-90964345D01*
X161627042Y-90964348D01*
X161627042Y-90964349D01*
X161627043Y-90964352D01*
X161675164Y-91091239D01*
X161687986Y-91125047D01*
X161785610Y-91266480D01*
X161785613Y-91266483D01*
X161914253Y-91380448D01*
X162066426Y-91460314D01*
X162066427Y-91460314D01*
X162066428Y-91460315D01*
X162233295Y-91501444D01*
X162405155Y-91501444D01*
X162572022Y-91460315D01*
X162661237Y-91413491D01*
X162708872Y-91409163D01*
X162734981Y-91425152D01*
X163474541Y-92181997D01*
X163492335Y-92226399D01*
X163473520Y-92270379D01*
X163429117Y-92288173D01*
X163403426Y-92282321D01*
X163223803Y-92198562D01*
X163223787Y-92198556D01*
X163003414Y-92139507D01*
X163003398Y-92139504D01*
X162833034Y-92124600D01*
X162719166Y-92124600D01*
X162548801Y-92139504D01*
X162548785Y-92139507D01*
X162328412Y-92198556D01*
X162328396Y-92198562D01*
X162121612Y-92294986D01*
X162121610Y-92294988D01*
X161966240Y-92403778D01*
X161966239Y-92403778D01*
X162776100Y-93213640D01*
X163800919Y-94238458D01*
X163909714Y-94083085D01*
X164006137Y-93876303D01*
X164006143Y-93876287D01*
X164065192Y-93655914D01*
X164065195Y-93655898D01*
X164080100Y-93485534D01*
X164080100Y-93371666D01*
X164065195Y-93201301D01*
X164065192Y-93201285D01*
X164006143Y-92980912D01*
X164006139Y-92980901D01*
X163952204Y-92865238D01*
X163950117Y-92817448D01*
X163982434Y-92782180D01*
X164030224Y-92780093D01*
X164054547Y-92796187D01*
X164817331Y-93613753D01*
X165976177Y-94914815D01*
X166441249Y-95461899D01*
X166446671Y-95469322D01*
X166976936Y-96320122D01*
X166984777Y-96367310D01*
X166982334Y-96375342D01*
X166941742Y-96482377D01*
X166941741Y-96482383D01*
X166921027Y-96652982D01*
X166921027Y-96652987D01*
X166941741Y-96823586D01*
X166941742Y-96823589D01*
X166941742Y-96823590D01*
X166941743Y-96823593D01*
X166977783Y-96918623D01*
X167002686Y-96984288D01*
X167100310Y-97125721D01*
X167100313Y-97125724D01*
X167228953Y-97239689D01*
X167381126Y-97319555D01*
X167381127Y-97319555D01*
X167381128Y-97319556D01*
X167547995Y-97360685D01*
X167719855Y-97360685D01*
X167886722Y-97319556D01*
X167905676Y-97309607D01*
X167953314Y-97305276D01*
X167983264Y-97325577D01*
X168011738Y-97360684D01*
X168202180Y-97595490D01*
X169268152Y-98973672D01*
X170302007Y-100376109D01*
X171234421Y-101704104D01*
X171239474Y-101712681D01*
X171686790Y-102632528D01*
X171689655Y-102680278D01*
X171682022Y-102695362D01*
X171675813Y-102704357D01*
X171675809Y-102704364D01*
X171614867Y-102865058D01*
X171614866Y-102865061D01*
X171594152Y-103035660D01*
X171594152Y-103035665D01*
X171614866Y-103206264D01*
X171614867Y-103206267D01*
X171614867Y-103206268D01*
X171614868Y-103206271D01*
X171662989Y-103333158D01*
X171675811Y-103366966D01*
X171773435Y-103508399D01*
X171773438Y-103508402D01*
X171902078Y-103622367D01*
X172054251Y-103702233D01*
X172054252Y-103702233D01*
X172054253Y-103702234D01*
X172221120Y-103743363D01*
X172392980Y-103743363D01*
X172514624Y-103713380D01*
X172561913Y-103720577D01*
X172582335Y-103740550D01*
X173205435Y-104721397D01*
X174105478Y-106213243D01*
X174970823Y-107725480D01*
X175368719Y-108459661D01*
X175372526Y-108468133D01*
X175714195Y-109410266D01*
X175712053Y-109458053D01*
X175706876Y-109467077D01*
X175656164Y-109540547D01*
X175656162Y-109540551D01*
X175595220Y-109701245D01*
X175595219Y-109701248D01*
X175574505Y-109871847D01*
X175574505Y-109871852D01*
X175595219Y-110042451D01*
X175595220Y-110042454D01*
X175595220Y-110042455D01*
X175595221Y-110042458D01*
X175643342Y-110169345D01*
X175656164Y-110203153D01*
X175753788Y-110344586D01*
X175753791Y-110344589D01*
X175882431Y-110458554D01*
X176034604Y-110538420D01*
X176034605Y-110538420D01*
X176034606Y-110538421D01*
X176201473Y-110579550D01*
X176373333Y-110579550D01*
X176373339Y-110579549D01*
X176396154Y-110573925D01*
X176418752Y-110568355D01*
X176466042Y-110575551D01*
X176489332Y-110600535D01*
X176595589Y-110807889D01*
X177354143Y-112376417D01*
X178076265Y-113962047D01*
X178757123Y-115553541D01*
X178760322Y-115563074D01*
X179008091Y-116561762D01*
X179000966Y-116609064D01*
X178998867Y-116612316D01*
X178900138Y-116755349D01*
X178839195Y-116916045D01*
X178839194Y-116916048D01*
X178818480Y-117086647D01*
X178818480Y-117086652D01*
X178839194Y-117257251D01*
X178839195Y-117257254D01*
X178839195Y-117257255D01*
X178839196Y-117257258D01*
X178887317Y-117384145D01*
X178900139Y-117417953D01*
X178997763Y-117559386D01*
X178997766Y-117559389D01*
X179126406Y-117673354D01*
X179278579Y-117753220D01*
X179278580Y-117753220D01*
X179278581Y-117753221D01*
X179445448Y-117794350D01*
X179595763Y-117794350D01*
X179639957Y-117812656D01*
X179654299Y-117834947D01*
X180020283Y-118813049D01*
X180593021Y-120458544D01*
X181127599Y-122116829D01*
X181398372Y-123028369D01*
X181400361Y-123037540D01*
X181538666Y-124029995D01*
X181526635Y-124076292D01*
X181518210Y-124085402D01*
X181469817Y-124128274D01*
X181469813Y-124128279D01*
X181372189Y-124269712D01*
X181311245Y-124430411D01*
X181311244Y-124430414D01*
X181290530Y-124601013D01*
X181290530Y-124601018D01*
X181311244Y-124771617D01*
X181311245Y-124771620D01*
X181311245Y-124771621D01*
X181311246Y-124771624D01*
X181359367Y-124898511D01*
X181372189Y-124932319D01*
X181469813Y-125073752D01*
X181469816Y-125073755D01*
X181598456Y-125187720D01*
X181750629Y-125267586D01*
X181750630Y-125267586D01*
X181750631Y-125267587D01*
X181917498Y-125308716D01*
X181989987Y-125308716D01*
X182034181Y-125327022D01*
X182050295Y-125354807D01*
X182081153Y-125468223D01*
X182499620Y-127159545D01*
X182878911Y-128860081D01*
X183218820Y-130568923D01*
X183238758Y-130682853D01*
X183239209Y-130687191D01*
X183273855Y-131713554D01*
X183257051Y-131758341D01*
X183252836Y-131762445D01*
X183142860Y-131859875D01*
X183142856Y-131859879D01*
X183045232Y-132001312D01*
X182984288Y-132162011D01*
X182984287Y-132162014D01*
X182963573Y-132332613D01*
X182963573Y-132332618D01*
X182984287Y-132503217D01*
X182984288Y-132503220D01*
X182984288Y-132503221D01*
X182984289Y-132503224D01*
X183032410Y-132630111D01*
X183045232Y-132663919D01*
X183142856Y-132805352D01*
X183142859Y-132805355D01*
X183271499Y-132919320D01*
X183423672Y-132999186D01*
X183423670Y-132999186D01*
X183594211Y-133041221D01*
X183593625Y-133043598D01*
X183628721Y-133063388D01*
X183641323Y-133092589D01*
X183779796Y-134007879D01*
X184000562Y-135736157D01*
X184181350Y-137469074D01*
X184267406Y-138531168D01*
X184267453Y-138540648D01*
X184196385Y-139540296D01*
X184174991Y-139583081D01*
X184163087Y-139591205D01*
X184127206Y-139610036D01*
X183998567Y-139724000D01*
X183998563Y-139724004D01*
X183900939Y-139865437D01*
X183839995Y-140026136D01*
X183839994Y-140026139D01*
X183819280Y-140196738D01*
X183819280Y-140196743D01*
X183839994Y-140367342D01*
X183839995Y-140367345D01*
X183839995Y-140367346D01*
X183839996Y-140367349D01*
X183888117Y-140494236D01*
X183900939Y-140528044D01*
X183998563Y-140669477D01*
X183998567Y-140669481D01*
X184127206Y-140783445D01*
X184279378Y-140863311D01*
X184279380Y-140863311D01*
X184279381Y-140863312D01*
X184375124Y-140886910D01*
X184413651Y-140915259D01*
X184422560Y-140943976D01*
X184422626Y-140945116D01*
X184428321Y-141109435D01*
X184411557Y-141154237D01*
X184368024Y-141174062D01*
X184365859Y-141174100D01*
X183976035Y-141174100D01*
X183976031Y-141174101D01*
X183901800Y-141188865D01*
X183901796Y-141188867D01*
X183817616Y-141245114D01*
X183781332Y-141299418D01*
X183741558Y-141325993D01*
X183694641Y-141316661D01*
X183672190Y-141289939D01*
X183656242Y-141253821D01*
X183575878Y-141173457D01*
X183471905Y-141127548D01*
X183446488Y-141124600D01*
X181955711Y-141124600D01*
X181930292Y-141127549D01*
X181930291Y-141127549D01*
X181826321Y-141173457D01*
X181745957Y-141253821D01*
X181700048Y-141357794D01*
X181697100Y-141383211D01*
X181697100Y-141709640D01*
X182871865Y-142884405D01*
X182890171Y-142928599D01*
X182871865Y-142972793D01*
X181697100Y-144147558D01*
X181697101Y-144340600D01*
X181678795Y-144384794D01*
X181634601Y-144403100D01*
X181564100Y-144403100D01*
X181519906Y-144384794D01*
X181501600Y-144340600D01*
X181501600Y-143592050D01*
X181468042Y-142139559D01*
X181697100Y-142139559D01*
X181697100Y-143717639D01*
X182486140Y-142928599D01*
X181697100Y-142139559D01*
X181468042Y-142139559D01*
X181462955Y-141919397D01*
X181385685Y-140248083D01*
X181269833Y-138578999D01*
X181115458Y-136913037D01*
X180922645Y-135251085D01*
X180691496Y-133594029D01*
X180422134Y-131942755D01*
X180114702Y-130298143D01*
X179769366Y-128661071D01*
X179386309Y-127032413D01*
X178965736Y-125413036D01*
X178507870Y-123803806D01*
X178012957Y-122205581D01*
X177559759Y-120853419D01*
X177866240Y-120853419D01*
X178021614Y-120962214D01*
X178228396Y-121058637D01*
X178228412Y-121058643D01*
X178448785Y-121117692D01*
X178448801Y-121117695D01*
X178619166Y-121132600D01*
X178733034Y-121132600D01*
X178903398Y-121117695D01*
X178903414Y-121117692D01*
X179123787Y-121058643D01*
X179123803Y-121058637D01*
X179330585Y-120962214D01*
X179485959Y-120853419D01*
X178676100Y-120043560D01*
X177866240Y-120853419D01*
X177559759Y-120853419D01*
X177481261Y-120619214D01*
X177474238Y-120599763D01*
X177476448Y-120551978D01*
X177511799Y-120519752D01*
X177559584Y-120521962D01*
X177584221Y-120542690D01*
X177651278Y-120638458D01*
X177651278Y-120638459D01*
X178461138Y-119828599D01*
X178891060Y-119828599D01*
X179700919Y-120638458D01*
X179809714Y-120483085D01*
X179906137Y-120276303D01*
X179906143Y-120276287D01*
X179965192Y-120055914D01*
X179965195Y-120055898D01*
X179980100Y-119885534D01*
X179980100Y-119771666D01*
X179965195Y-119601301D01*
X179965192Y-119601285D01*
X179906143Y-119380912D01*
X179906137Y-119380896D01*
X179809714Y-119174114D01*
X179700919Y-119018740D01*
X178891060Y-119828599D01*
X178461138Y-119828599D01*
X177651278Y-119018739D01*
X177651278Y-119018740D01*
X177542488Y-119174110D01*
X177542486Y-119174112D01*
X177446062Y-119380896D01*
X177446056Y-119380912D01*
X177387007Y-119601285D01*
X177387004Y-119601301D01*
X177372100Y-119771666D01*
X177372100Y-119885534D01*
X177380116Y-119977164D01*
X177365732Y-120022785D01*
X177323301Y-120044873D01*
X177277680Y-120030489D01*
X177259069Y-120003836D01*
X176913064Y-119045551D01*
X176819401Y-118803778D01*
X177866239Y-118803778D01*
X178676099Y-119613638D01*
X179485959Y-118803778D01*
X179330589Y-118694988D01*
X179330587Y-118694986D01*
X179123803Y-118598562D01*
X179123787Y-118598556D01*
X178903414Y-118539507D01*
X178903398Y-118539504D01*
X178733034Y-118524600D01*
X178619166Y-118524600D01*
X178448801Y-118539504D01*
X178448785Y-118539507D01*
X178228412Y-118598556D01*
X178228396Y-118598562D01*
X178021612Y-118694986D01*
X178021610Y-118694988D01*
X177866240Y-118803778D01*
X177866239Y-118803778D01*
X176819401Y-118803778D01*
X176308671Y-117485432D01*
X175668403Y-115939690D01*
X174992603Y-114409149D01*
X174281631Y-112894625D01*
X173535867Y-111396928D01*
X172755707Y-109916856D01*
X171941569Y-108455199D01*
X171093888Y-107012736D01*
X170213114Y-105590239D01*
X169299719Y-104188464D01*
X168354190Y-102808161D01*
X167377030Y-101450066D01*
X166368763Y-100114904D01*
X165329925Y-98803387D01*
X164261070Y-97516215D01*
X163162770Y-96254074D01*
X162035610Y-95017639D01*
X161496873Y-94453419D01*
X161966240Y-94453419D01*
X162121614Y-94562214D01*
X162328396Y-94658637D01*
X162328412Y-94658643D01*
X162548785Y-94717692D01*
X162548801Y-94717695D01*
X162719166Y-94732600D01*
X162833034Y-94732600D01*
X163003398Y-94717695D01*
X163003414Y-94717692D01*
X163223787Y-94658643D01*
X163223803Y-94658637D01*
X163430585Y-94562214D01*
X163585959Y-94453419D01*
X162776100Y-93643560D01*
X161966240Y-94453419D01*
X161496873Y-94453419D01*
X160880192Y-93807568D01*
X160558158Y-93485534D01*
X161472100Y-93485534D01*
X161487004Y-93655898D01*
X161487007Y-93655914D01*
X161546056Y-93876287D01*
X161546062Y-93876303D01*
X161642486Y-94083087D01*
X161642488Y-94083089D01*
X161751278Y-94238458D01*
X161751278Y-94238459D01*
X162561138Y-93428599D01*
X161751278Y-92618739D01*
X161751278Y-92618740D01*
X161642488Y-92774110D01*
X161642486Y-92774112D01*
X161546062Y-92980896D01*
X161546056Y-92980912D01*
X161487007Y-93201285D01*
X161487004Y-93201301D01*
X161472100Y-93371666D01*
X161472100Y-93485534D01*
X160558158Y-93485534D01*
X159697132Y-92624508D01*
X158487061Y-91469090D01*
X157250626Y-90341930D01*
X155988485Y-89243630D01*
X154701313Y-88174775D01*
X153389796Y-87135937D01*
X152054634Y-86127670D01*
X150696539Y-85150510D01*
X149316236Y-84204981D01*
X147914461Y-83291586D01*
X146491964Y-82410812D01*
X145049501Y-81563131D01*
X143922499Y-80935394D01*
X143892798Y-80897897D01*
X143898311Y-80850380D01*
X143935808Y-80820679D01*
X143958359Y-80818531D01*
X144119166Y-80832600D01*
X144233034Y-80832600D01*
X144403398Y-80817695D01*
X144403414Y-80817692D01*
X144623787Y-80758643D01*
X144623803Y-80758637D01*
X144830585Y-80662214D01*
X144985959Y-80553419D01*
X144176100Y-79743560D01*
X143347242Y-80572417D01*
X143303048Y-80590723D01*
X143273904Y-80583512D01*
X142107772Y-79968833D01*
X141338003Y-79585534D01*
X142872100Y-79585534D01*
X142887004Y-79755898D01*
X142887007Y-79755914D01*
X142946056Y-79976287D01*
X142946062Y-79976303D01*
X143042486Y-80183087D01*
X143042488Y-80183089D01*
X143151278Y-80338458D01*
X143151278Y-80338459D01*
X143961138Y-79528599D01*
X144391060Y-79528599D01*
X145200919Y-80338458D01*
X145309714Y-80183085D01*
X145406137Y-79976303D01*
X145406143Y-79976287D01*
X145465192Y-79755914D01*
X145465195Y-79755898D01*
X145480100Y-79585534D01*
X145480100Y-79471666D01*
X145465195Y-79301301D01*
X145465192Y-79301285D01*
X145406143Y-79080912D01*
X145406137Y-79080896D01*
X145309714Y-78874114D01*
X145200919Y-78718740D01*
X144391060Y-79528599D01*
X143961138Y-79528599D01*
X143151278Y-78718739D01*
X143151278Y-78718740D01*
X143042488Y-78874110D01*
X143042486Y-78874112D01*
X142946062Y-79080896D01*
X142946056Y-79080912D01*
X142887007Y-79301285D01*
X142887004Y-79301301D01*
X142872100Y-79471666D01*
X142872100Y-79585534D01*
X141338003Y-79585534D01*
X140610075Y-79223069D01*
X139095551Y-78512097D01*
X139076710Y-78503778D01*
X143366239Y-78503778D01*
X144176099Y-79313638D01*
X144985959Y-78503778D01*
X144830589Y-78394988D01*
X144830587Y-78394986D01*
X144623803Y-78298562D01*
X144623787Y-78298556D01*
X144403414Y-78239507D01*
X144403398Y-78239504D01*
X144233034Y-78224600D01*
X144119166Y-78224600D01*
X143948801Y-78239504D01*
X143948785Y-78239507D01*
X143728412Y-78298556D01*
X143728396Y-78298562D01*
X143521612Y-78394986D01*
X143521610Y-78394988D01*
X143366240Y-78503778D01*
X143366239Y-78503778D01*
X139076710Y-78503778D01*
X137565010Y-77836297D01*
X136019268Y-77196029D01*
X134459149Y-76591636D01*
X132885486Y-76023439D01*
X131299119Y-75491743D01*
X129700894Y-74996830D01*
X128091664Y-74538964D01*
X126472287Y-74118391D01*
X124843629Y-73735334D01*
X123206557Y-73389998D01*
X121561945Y-73082566D01*
X119910671Y-72813204D01*
X118253615Y-72582055D01*
X116591663Y-72389242D01*
X114925701Y-72234867D01*
X113256617Y-72119015D01*
X111585303Y-72041745D01*
X109912650Y-72003100D01*
X109164100Y-72003100D01*
X109119906Y-71984794D01*
X109101600Y-71940600D01*
X109101600Y-71870099D01*
X109119906Y-71825905D01*
X109164100Y-71807599D01*
X109357141Y-71807599D01*
X109357142Y-71807598D01*
X109787060Y-71807598D01*
X109787061Y-71807599D01*
X111365139Y-71807599D01*
X111365139Y-71807598D01*
X110576100Y-71018560D01*
X109787060Y-71807598D01*
X109357142Y-71807598D01*
X110531906Y-70632834D01*
X110576100Y-70614528D01*
X110620294Y-70632834D01*
X111795059Y-71807599D01*
X112121488Y-71807599D01*
X112146907Y-71804650D01*
X112146908Y-71804650D01*
X112250878Y-71758742D01*
X112331242Y-71678378D01*
X112377151Y-71574405D01*
X112380099Y-71548988D01*
X112380099Y-70058211D01*
X112377150Y-70032792D01*
X112377150Y-70032791D01*
X112331242Y-69928821D01*
X112250876Y-69848456D01*
X112250877Y-69848456D01*
X112214759Y-69832508D01*
X112181725Y-69797911D01*
X112182831Y-69750088D01*
X112205280Y-69723369D01*
X112259584Y-69687084D01*
X112315834Y-69602901D01*
X112330600Y-69528667D01*
X112330599Y-69252017D01*
X112348905Y-69207824D01*
X112393099Y-69189518D01*
X112395763Y-69189575D01*
X112408798Y-69190142D01*
X112447524Y-69205801D01*
X112571128Y-69315304D01*
X112723301Y-69395170D01*
X112723302Y-69395170D01*
X112723303Y-69395171D01*
X112890170Y-69436300D01*
X113062030Y-69436300D01*
X113228897Y-69395171D01*
X113381072Y-69315304D01*
X113509712Y-69201339D01*
X113532453Y-69168392D01*
X113572621Y-69142421D01*
X113587485Y-69141501D01*
X114298997Y-69182637D01*
G37*
%TD.AperFunction*%
%TD*%
%TA.AperFunction,Conductor*%
%TO.N,GND*%
G36*
X109164782Y-65605080D02*
G01*
X110819229Y-65623383D01*
X110819862Y-65623390D01*
X112562771Y-65681251D01*
X114303974Y-65777655D01*
X116042618Y-65912554D01*
X117777851Y-66085883D01*
X119508826Y-66297556D01*
X121234695Y-66547470D01*
X122954613Y-66835503D01*
X124667738Y-67161514D01*
X126373231Y-67525342D01*
X128070259Y-67926811D01*
X129757990Y-68365723D01*
X131435598Y-68841864D01*
X133102262Y-69355001D01*
X134757167Y-69904882D01*
X136399503Y-70491238D01*
X138028465Y-71113783D01*
X139643256Y-71772212D01*
X141243087Y-72466202D01*
X142827173Y-73195413D01*
X144394740Y-73959490D01*
X145945021Y-74758058D01*
X147477256Y-75590725D01*
X148990696Y-76457085D01*
X150484599Y-77356713D01*
X151958236Y-78289170D01*
X153410884Y-79253998D01*
X154841832Y-80250726D01*
X156250381Y-81278865D01*
X157635840Y-82337913D01*
X158997532Y-83427351D01*
X160334790Y-84546645D01*
X161646960Y-85695249D01*
X162717108Y-86674650D01*
X162737351Y-86717991D01*
X162721018Y-86762952D01*
X162677677Y-86783195D01*
X162658736Y-86781126D01*
X162503414Y-86739507D01*
X162503398Y-86739504D01*
X162333034Y-86724600D01*
X162219166Y-86724600D01*
X162048801Y-86739504D01*
X162048785Y-86739507D01*
X161828412Y-86798556D01*
X161828396Y-86798562D01*
X161621612Y-86894986D01*
X161621610Y-86894988D01*
X161466240Y-87003778D01*
X161466239Y-87003778D01*
X162276100Y-87813640D01*
X163300919Y-88838458D01*
X163409714Y-88683085D01*
X163506137Y-88476303D01*
X163506143Y-88476287D01*
X163565192Y-88255914D01*
X163565195Y-88255898D01*
X163580100Y-88085534D01*
X163580100Y-87971666D01*
X163565195Y-87801301D01*
X163565192Y-87801285D01*
X163506165Y-87580995D01*
X163512408Y-87533569D01*
X163550359Y-87504449D01*
X163597785Y-87510692D01*
X163609737Y-87519655D01*
X163917027Y-87813640D01*
X164193477Y-88078121D01*
X165426579Y-89311223D01*
X166632100Y-90571301D01*
X167809451Y-91857740D01*
X168958055Y-93169910D01*
X170077349Y-94507168D01*
X171166787Y-95868860D01*
X172225835Y-97254319D01*
X173253974Y-98662868D01*
X174250702Y-100093816D01*
X175215530Y-101546464D01*
X176147987Y-103020101D01*
X177047615Y-104514004D01*
X177913975Y-106027444D01*
X178746642Y-107559679D01*
X179545210Y-109109960D01*
X180309287Y-110677527D01*
X181038498Y-112261613D01*
X181448172Y-113206022D01*
X181448965Y-113253850D01*
X181415706Y-113288232D01*
X181367878Y-113289025D01*
X181354986Y-113282091D01*
X181230589Y-113194988D01*
X181230587Y-113194986D01*
X181023803Y-113098562D01*
X181023787Y-113098556D01*
X180803414Y-113039507D01*
X180803398Y-113039504D01*
X180633034Y-113024600D01*
X180519166Y-113024600D01*
X180348801Y-113039504D01*
X180348785Y-113039507D01*
X180128412Y-113098556D01*
X180128396Y-113098562D01*
X179921612Y-113194986D01*
X179921610Y-113194988D01*
X179766240Y-113303778D01*
X179766239Y-113303778D01*
X180576100Y-114113640D01*
X181600919Y-115138458D01*
X181709714Y-114983085D01*
X181806137Y-114776303D01*
X181806143Y-114776287D01*
X181865192Y-114555914D01*
X181865195Y-114555898D01*
X181869244Y-114509620D01*
X181891332Y-114467189D01*
X181936953Y-114452805D01*
X181979384Y-114474893D01*
X181989380Y-114491469D01*
X182390917Y-115476235D01*
X183013462Y-117105197D01*
X183599818Y-118747533D01*
X184149699Y-120402438D01*
X184662836Y-122069102D01*
X185138977Y-123746710D01*
X185577889Y-125434441D01*
X185979358Y-127131469D01*
X186343186Y-128836962D01*
X186669197Y-130550087D01*
X186957230Y-132270005D01*
X187207144Y-133995874D01*
X187418817Y-135726849D01*
X187592146Y-137462082D01*
X187727045Y-139200726D01*
X187823449Y-140941929D01*
X187881310Y-142684838D01*
X187899619Y-144339909D01*
X187881803Y-144384303D01*
X187837814Y-144403096D01*
X187837123Y-144403100D01*
X187767600Y-144403100D01*
X187723406Y-144384794D01*
X187705100Y-144340600D01*
X187705099Y-144147559D01*
X186530334Y-142972794D01*
X186512028Y-142928600D01*
X186916060Y-142928600D01*
X187705098Y-143717639D01*
X187705099Y-143717639D01*
X187705099Y-142139559D01*
X187705098Y-142139559D01*
X186916060Y-142928599D01*
X186916060Y-142928600D01*
X186512028Y-142928600D01*
X186530334Y-142884406D01*
X186701100Y-142713640D01*
X187705099Y-141709640D01*
X187705099Y-141383211D01*
X187702150Y-141357792D01*
X187702150Y-141357791D01*
X187656242Y-141253821D01*
X187575878Y-141173457D01*
X187471905Y-141127548D01*
X187446489Y-141124600D01*
X186039537Y-141124600D01*
X185995343Y-141106294D01*
X185977037Y-141062100D01*
X185982661Y-141036188D01*
X186071686Y-140840819D01*
X186106670Y-140808195D01*
X186113596Y-140806053D01*
X186238897Y-140775171D01*
X186391072Y-140695304D01*
X186519712Y-140581339D01*
X186617340Y-140439900D01*
X186678282Y-140279208D01*
X186678283Y-140279201D01*
X186698998Y-140108602D01*
X186698998Y-140108597D01*
X186678283Y-139937998D01*
X186678282Y-139937995D01*
X186678282Y-139937992D01*
X186617340Y-139777300D01*
X186617338Y-139777298D01*
X186617338Y-139777296D01*
X186519714Y-139635863D01*
X186519710Y-139635859D01*
X186391071Y-139521895D01*
X186238897Y-139442029D01*
X186238900Y-139442029D01*
X186072033Y-139400900D01*
X186072030Y-139400900D01*
X185900170Y-139400900D01*
X185900166Y-139400900D01*
X185733301Y-139442029D01*
X185581128Y-139521895D01*
X185452489Y-139635859D01*
X185452485Y-139635863D01*
X185354861Y-139777296D01*
X185300864Y-139919677D01*
X185268076Y-139954508D01*
X185220262Y-139955953D01*
X185185431Y-139923165D01*
X185183991Y-139919689D01*
X185163418Y-139865441D01*
X185163417Y-139865438D01*
X185065792Y-139724004D01*
X185065788Y-139724000D01*
X184978299Y-139646492D01*
X184957358Y-139603484D01*
X184957401Y-139595278D01*
X185047590Y-138326713D01*
X185443570Y-132756980D01*
X185464963Y-132714198D01*
X185476865Y-132706074D01*
X185512750Y-132687242D01*
X185641390Y-132573277D01*
X185739018Y-132431838D01*
X185799960Y-132271146D01*
X185800099Y-132270005D01*
X185820676Y-132100540D01*
X185820676Y-132100535D01*
X185799961Y-131929936D01*
X185799960Y-131929933D01*
X185799960Y-131929930D01*
X185739018Y-131769238D01*
X185739016Y-131769236D01*
X185739016Y-131769234D01*
X185641392Y-131627801D01*
X185641388Y-131627797D01*
X185512749Y-131513833D01*
X185360575Y-131433967D01*
X185360578Y-131433967D01*
X185193711Y-131392838D01*
X185193708Y-131392838D01*
X185021848Y-131392838D01*
X185021844Y-131392838D01*
X184854979Y-131433967D01*
X184702806Y-131513833D01*
X184574167Y-131627797D01*
X184574163Y-131627801D01*
X184476539Y-131769234D01*
X184415595Y-131929933D01*
X184415594Y-131929936D01*
X184411949Y-131959956D01*
X184388449Y-132001622D01*
X184342371Y-132014466D01*
X184300705Y-131990966D01*
X184298477Y-131987938D01*
X184210083Y-131859877D01*
X184081443Y-131745912D01*
X184078053Y-131744133D01*
X184069796Y-131739799D01*
X184039172Y-131703051D01*
X184036379Y-131686568D01*
X184034395Y-131627801D01*
X183805248Y-124839658D01*
X183822052Y-124794872D01*
X183826257Y-124790776D01*
X183936246Y-124693336D01*
X184033874Y-124551897D01*
X184094816Y-124391205D01*
X184115532Y-124220597D01*
X184108977Y-124166616D01*
X184094817Y-124049995D01*
X184094816Y-124049992D01*
X184094816Y-124049989D01*
X184033874Y-123889297D01*
X184033872Y-123889295D01*
X184033872Y-123889293D01*
X183936248Y-123747860D01*
X183936244Y-123747856D01*
X183807605Y-123633892D01*
X183655431Y-123554026D01*
X183655434Y-123554026D01*
X183488567Y-123512897D01*
X183488564Y-123512897D01*
X183316704Y-123512897D01*
X183316700Y-123512897D01*
X183149835Y-123554026D01*
X182997662Y-123633892D01*
X182869023Y-123747856D01*
X182869019Y-123747860D01*
X182771395Y-123889293D01*
X182710451Y-124049992D01*
X182710450Y-124049995D01*
X182696290Y-124166616D01*
X182672791Y-124208281D01*
X182626712Y-124221126D01*
X182585047Y-124197627D01*
X182582819Y-124194600D01*
X182537040Y-124128277D01*
X182448674Y-124049992D01*
X182408399Y-124014311D01*
X182327266Y-123971729D01*
X182296641Y-123934982D01*
X182294409Y-123925014D01*
X181946521Y-121428605D01*
X181347916Y-117133077D01*
X181359947Y-117086782D01*
X181368365Y-117077679D01*
X181416768Y-117034799D01*
X181514396Y-116893360D01*
X181575338Y-116732668D01*
X181575410Y-116732078D01*
X181596054Y-116562062D01*
X181596054Y-116562057D01*
X181575339Y-116391458D01*
X181575338Y-116391455D01*
X181575338Y-116391452D01*
X181514396Y-116230760D01*
X181514394Y-116230758D01*
X181514394Y-116230756D01*
X181416770Y-116089323D01*
X181416766Y-116089319D01*
X181288127Y-115975355D01*
X181135953Y-115895489D01*
X181135956Y-115895489D01*
X180969089Y-115854360D01*
X180969086Y-115854360D01*
X180797226Y-115854360D01*
X180797222Y-115854360D01*
X180630357Y-115895489D01*
X180478184Y-115975355D01*
X180349545Y-116089319D01*
X180349541Y-116089323D01*
X180251917Y-116230756D01*
X180190973Y-116391455D01*
X180190972Y-116391458D01*
X180170258Y-116562057D01*
X180170258Y-116565841D01*
X180168809Y-116565841D01*
X180157282Y-116607153D01*
X180115611Y-116630643D01*
X180069536Y-116617787D01*
X180066647Y-116615379D01*
X179936349Y-116499945D01*
X179780828Y-116418322D01*
X179781891Y-116416296D01*
X179752249Y-116388397D01*
X179748581Y-116377799D01*
X179494439Y-115353419D01*
X179766240Y-115353419D01*
X179921614Y-115462214D01*
X180128396Y-115558637D01*
X180128412Y-115558643D01*
X180348785Y-115617692D01*
X180348801Y-115617695D01*
X180519166Y-115632600D01*
X180633034Y-115632600D01*
X180803398Y-115617695D01*
X180803414Y-115617692D01*
X181023787Y-115558643D01*
X181023803Y-115558637D01*
X181230585Y-115462214D01*
X181385959Y-115353419D01*
X180576100Y-114543560D01*
X179766240Y-115353419D01*
X179494439Y-115353419D01*
X179459737Y-115213543D01*
X179466862Y-115166244D01*
X179505348Y-115137835D01*
X179525845Y-115136234D01*
X179551278Y-115138459D01*
X180361138Y-114328599D01*
X179551278Y-113518739D01*
X179551278Y-113518740D01*
X179442488Y-113674110D01*
X179442486Y-113674112D01*
X179346062Y-113880896D01*
X179346056Y-113880912D01*
X179296113Y-114067302D01*
X179266993Y-114105253D01*
X179219567Y-114111496D01*
X179181616Y-114082376D01*
X179175084Y-114066182D01*
X178100229Y-109733722D01*
X178107355Y-109686421D01*
X178109454Y-109683169D01*
X178208181Y-109540138D01*
X178208181Y-109540137D01*
X178208183Y-109540135D01*
X178269125Y-109379443D01*
X178289841Y-109208835D01*
X178289409Y-109205279D01*
X178269126Y-109038233D01*
X178269125Y-109038230D01*
X178269125Y-109038227D01*
X178208183Y-108877535D01*
X178208181Y-108877533D01*
X178208181Y-108877531D01*
X178110557Y-108736098D01*
X178110553Y-108736094D01*
X177981914Y-108622130D01*
X177829740Y-108542264D01*
X177829743Y-108542264D01*
X177662876Y-108501135D01*
X177662873Y-108501135D01*
X177491013Y-108501135D01*
X177491009Y-108501135D01*
X177324144Y-108542264D01*
X177171971Y-108622130D01*
X177043332Y-108736094D01*
X177043328Y-108736098D01*
X176945704Y-108877531D01*
X176884760Y-109038230D01*
X176884759Y-109038233D01*
X176864045Y-109208832D01*
X176864045Y-109208838D01*
X176875255Y-109301165D01*
X176862410Y-109347243D01*
X176820744Y-109370742D01*
X176774666Y-109357897D01*
X176771766Y-109355480D01*
X176692374Y-109285145D01*
X176540201Y-109205279D01*
X176504637Y-109196513D01*
X176475186Y-109189254D01*
X176436658Y-109160905D01*
X176431391Y-109149885D01*
X174093424Y-102703065D01*
X174095567Y-102655280D01*
X174100737Y-102646265D01*
X174151458Y-102572785D01*
X174212400Y-102412093D01*
X174217621Y-102369093D01*
X174233116Y-102241487D01*
X174233116Y-102241482D01*
X174212401Y-102070883D01*
X174212400Y-102070880D01*
X174212400Y-102070877D01*
X174151458Y-101910185D01*
X174151456Y-101910183D01*
X174151456Y-101910181D01*
X174053832Y-101768748D01*
X174053828Y-101768744D01*
X173925189Y-101654780D01*
X173773015Y-101574914D01*
X173773018Y-101574914D01*
X173606151Y-101533785D01*
X173606148Y-101533785D01*
X173434288Y-101533785D01*
X173434284Y-101533785D01*
X173267419Y-101574914D01*
X173115246Y-101654780D01*
X172986607Y-101768744D01*
X172986603Y-101768748D01*
X172888979Y-101910181D01*
X172828035Y-102070880D01*
X172828034Y-102070883D01*
X172807320Y-102241482D01*
X172807320Y-102241488D01*
X172827170Y-102404973D01*
X172814325Y-102451051D01*
X172772659Y-102474550D01*
X172726581Y-102461705D01*
X172723681Y-102459288D01*
X172712021Y-102448958D01*
X172559849Y-102369093D01*
X172559848Y-102369092D01*
X172559847Y-102369092D01*
X172468592Y-102346599D01*
X172414756Y-102333330D01*
X172376228Y-102304979D01*
X172373513Y-102299988D01*
X169377692Y-96139478D01*
X169374828Y-96091729D01*
X169382463Y-96076641D01*
X169388674Y-96067644D01*
X169449616Y-95906952D01*
X169470332Y-95736344D01*
X169462302Y-95670215D01*
X169449617Y-95565742D01*
X169449616Y-95565739D01*
X169449616Y-95565736D01*
X169388674Y-95405044D01*
X169388672Y-95405042D01*
X169388672Y-95405040D01*
X169291048Y-95263607D01*
X169291044Y-95263603D01*
X169162405Y-95149639D01*
X169010231Y-95069773D01*
X169010234Y-95069773D01*
X168843367Y-95028644D01*
X168843364Y-95028644D01*
X168671504Y-95028644D01*
X168671500Y-95028644D01*
X168504635Y-95069773D01*
X168352462Y-95149639D01*
X168223823Y-95263603D01*
X168223819Y-95263607D01*
X168126195Y-95405040D01*
X168065251Y-95565739D01*
X168065250Y-95565742D01*
X168044536Y-95736341D01*
X168044536Y-95736346D01*
X168065250Y-95906945D01*
X168065251Y-95906948D01*
X168065251Y-95906949D01*
X168065252Y-95906952D01*
X168088804Y-95969056D01*
X168087360Y-96016869D01*
X168052529Y-96049657D01*
X168004715Y-96048212D01*
X168001321Y-96046559D01*
X167886722Y-95986414D01*
X167886725Y-95986414D01*
X167719858Y-95945285D01*
X167719855Y-95945285D01*
X167677070Y-95945285D01*
X167632876Y-95926979D01*
X167624029Y-95915843D01*
X167512157Y-95736346D01*
X163997751Y-90097548D01*
X163989911Y-90050361D01*
X163992355Y-90042328D01*
X164032946Y-89935299D01*
X164032948Y-89935289D01*
X164053663Y-89764690D01*
X164053663Y-89764685D01*
X164032948Y-89594086D01*
X164032947Y-89594083D01*
X164032947Y-89594080D01*
X163972005Y-89433388D01*
X163972003Y-89433386D01*
X163972003Y-89433384D01*
X163874379Y-89291951D01*
X163874375Y-89291947D01*
X163745736Y-89177983D01*
X163593562Y-89098117D01*
X163593565Y-89098117D01*
X163426698Y-89056988D01*
X163426695Y-89056988D01*
X163254835Y-89056988D01*
X163254831Y-89056988D01*
X163156440Y-89081240D01*
X163109150Y-89074042D01*
X163097289Y-89064750D01*
X162276100Y-88243560D01*
X161251278Y-87218739D01*
X161251278Y-87218740D01*
X161142488Y-87374110D01*
X161142486Y-87374112D01*
X161046062Y-87580896D01*
X161046056Y-87580912D01*
X160987007Y-87801285D01*
X160987004Y-87801301D01*
X160972100Y-87971666D01*
X160972100Y-88085534D01*
X160987004Y-88255898D01*
X160987006Y-88255910D01*
X160992191Y-88275260D01*
X160985946Y-88322686D01*
X160947994Y-88351805D01*
X160900568Y-88345560D01*
X160882527Y-88329858D01*
X158018634Y-84655444D01*
X158005905Y-84609334D01*
X158009488Y-84594870D01*
X158021747Y-84562549D01*
X158042463Y-84391941D01*
X158021747Y-84221333D01*
X157960805Y-84060641D01*
X157960803Y-84060639D01*
X157960803Y-84060637D01*
X157863179Y-83919204D01*
X157863175Y-83919200D01*
X157734536Y-83805236D01*
X157582362Y-83725370D01*
X157582365Y-83725370D01*
X157415498Y-83684241D01*
X157415495Y-83684241D01*
X157243635Y-83684241D01*
X157243631Y-83684241D01*
X157076766Y-83725370D01*
X156924593Y-83805236D01*
X156795954Y-83919200D01*
X156795950Y-83919204D01*
X156698326Y-84060637D01*
X156650203Y-84187528D01*
X156643585Y-84204981D01*
X156637382Y-84221336D01*
X156637381Y-84221339D01*
X156616667Y-84391938D01*
X156616667Y-84391943D01*
X156637381Y-84562542D01*
X156637382Y-84562545D01*
X156637382Y-84562546D01*
X156637383Y-84562549D01*
X156672614Y-84655445D01*
X156698325Y-84723241D01*
X156719762Y-84754298D01*
X156729801Y-84801069D01*
X156703829Y-84841239D01*
X156657058Y-84851278D01*
X156653368Y-84850486D01*
X156507117Y-84814438D01*
X156507114Y-84814438D01*
X156335254Y-84814438D01*
X156335248Y-84814438D01*
X156316774Y-84818992D01*
X156269483Y-84811794D01*
X156256809Y-84801672D01*
X156115927Y-84655445D01*
X153556942Y-81999365D01*
X151502703Y-79867182D01*
X151485223Y-79822655D01*
X151485668Y-79816284D01*
X151485991Y-79813618D01*
X151502585Y-79676966D01*
X151498291Y-79641604D01*
X151481870Y-79506364D01*
X151481869Y-79506361D01*
X151481869Y-79506358D01*
X151420927Y-79345666D01*
X151420925Y-79345664D01*
X151420925Y-79345662D01*
X151323301Y-79204229D01*
X151323297Y-79204225D01*
X151194658Y-79090261D01*
X151042484Y-79010395D01*
X151042487Y-79010395D01*
X150875620Y-78969266D01*
X150875617Y-78969266D01*
X150703757Y-78969266D01*
X150703753Y-78969266D01*
X150536888Y-79010395D01*
X150384715Y-79090261D01*
X150256076Y-79204225D01*
X150256072Y-79204229D01*
X150158448Y-79345662D01*
X150097504Y-79506361D01*
X150097503Y-79506364D01*
X150076789Y-79676963D01*
X150076789Y-79676968D01*
X150097503Y-79847567D01*
X150097504Y-79847570D01*
X150097504Y-79847571D01*
X150097505Y-79847574D01*
X150134306Y-79944610D01*
X150158447Y-80008266D01*
X150228473Y-80109716D01*
X150238512Y-80156486D01*
X150212540Y-80196657D01*
X150165770Y-80206696D01*
X150162079Y-80205904D01*
X150090354Y-80188225D01*
X150090351Y-80188225D01*
X149918491Y-80188225D01*
X149918487Y-80188225D01*
X149823449Y-80211650D01*
X149776158Y-80204452D01*
X149768262Y-80198797D01*
X149755692Y-80188225D01*
X145985833Y-77017459D01*
X144520437Y-75784939D01*
X144498399Y-75742483D01*
X144498622Y-75729581D01*
X144505685Y-75671425D01*
X144484969Y-75500817D01*
X144424027Y-75340125D01*
X144424025Y-75340123D01*
X144424025Y-75340121D01*
X144326401Y-75198688D01*
X144326397Y-75198684D01*
X144197758Y-75084720D01*
X144045584Y-75004854D01*
X144045587Y-75004854D01*
X143878720Y-74963725D01*
X143878717Y-74963725D01*
X143706857Y-74963725D01*
X143706853Y-74963725D01*
X143539988Y-75004854D01*
X143387815Y-75084720D01*
X143387811Y-75084723D01*
X143387787Y-75084745D01*
X143387773Y-75084749D01*
X143384706Y-75086867D01*
X143384115Y-75086011D01*
X143342567Y-75100345D01*
X143299561Y-75079399D01*
X143283961Y-75034179D01*
X143289703Y-75011545D01*
X143306139Y-74976298D01*
X143306143Y-74976287D01*
X143365192Y-74755914D01*
X143365195Y-74755898D01*
X143380100Y-74585534D01*
X143380100Y-74471666D01*
X143365195Y-74301301D01*
X143365192Y-74301285D01*
X143306143Y-74080912D01*
X143306137Y-74080896D01*
X143209714Y-73874114D01*
X143100919Y-73718740D01*
X142291060Y-74528599D01*
X143116760Y-75354299D01*
X143135066Y-75398493D01*
X143131005Y-75420655D01*
X143100604Y-75500817D01*
X143100603Y-75500823D01*
X143079889Y-75671422D01*
X143079889Y-75671427D01*
X143100603Y-75842026D01*
X143100604Y-75842029D01*
X143100604Y-75842030D01*
X143100605Y-75842033D01*
X143133635Y-75929126D01*
X143161548Y-76002728D01*
X143259172Y-76144161D01*
X143259176Y-76144165D01*
X143264418Y-76148809D01*
X143285359Y-76191817D01*
X143269755Y-76237036D01*
X143226747Y-76257977D01*
X143222973Y-76258091D01*
X143053306Y-76258091D01*
X142886440Y-76299220D01*
X142883502Y-76300335D01*
X142835688Y-76298887D01*
X142826333Y-76293669D01*
X142287229Y-75929126D01*
X142260873Y-75889206D01*
X142270465Y-75842342D01*
X142306063Y-75816982D01*
X142523787Y-75758643D01*
X142523803Y-75758637D01*
X142730585Y-75662214D01*
X142885959Y-75553419D01*
X142076100Y-74743560D01*
X141051278Y-73718739D01*
X141051278Y-73718740D01*
X140942488Y-73874110D01*
X140942486Y-73874112D01*
X140846062Y-74080896D01*
X140846056Y-74080912D01*
X140787007Y-74301285D01*
X140787004Y-74301301D01*
X140772100Y-74471666D01*
X140772100Y-74585534D01*
X140787004Y-74755898D01*
X140787006Y-74755906D01*
X140795619Y-74788052D01*
X140789374Y-74835478D01*
X140751423Y-74864598D01*
X140703997Y-74858353D01*
X140700238Y-74856001D01*
X138700504Y-73503778D01*
X141266239Y-73503778D01*
X142076099Y-74313638D01*
X142885959Y-73503778D01*
X142730589Y-73394988D01*
X142730587Y-73394986D01*
X142523803Y-73298562D01*
X142523787Y-73298556D01*
X142303414Y-73239507D01*
X142303398Y-73239504D01*
X142133034Y-73224600D01*
X142019166Y-73224600D01*
X141848801Y-73239504D01*
X141848785Y-73239507D01*
X141628412Y-73298556D01*
X141628396Y-73298562D01*
X141421612Y-73394986D01*
X141421610Y-73394988D01*
X141266240Y-73503778D01*
X141266239Y-73503778D01*
X138700504Y-73503778D01*
X137154867Y-72458616D01*
X137128511Y-72418696D01*
X137127833Y-72414376D01*
X137107704Y-72248602D01*
X137107703Y-72248599D01*
X137107703Y-72248596D01*
X137046761Y-72087904D01*
X137046759Y-72087902D01*
X137046759Y-72087900D01*
X136949135Y-71946467D01*
X136949131Y-71946463D01*
X136820492Y-71832499D01*
X136668318Y-71752633D01*
X136668321Y-71752633D01*
X136501454Y-71711504D01*
X136501451Y-71711504D01*
X136329591Y-71711504D01*
X136329587Y-71711504D01*
X136162722Y-71752633D01*
X136010549Y-71832499D01*
X135881910Y-71946463D01*
X135881906Y-71946467D01*
X135784282Y-72087900D01*
X135723338Y-72248599D01*
X135723337Y-72248602D01*
X135702623Y-72419201D01*
X135702623Y-72419206D01*
X135723337Y-72589805D01*
X135723338Y-72589808D01*
X135723338Y-72589809D01*
X135723339Y-72589812D01*
X135771460Y-72716699D01*
X135784282Y-72750507D01*
X135881906Y-72891940D01*
X135881910Y-72891944D01*
X135956256Y-72957809D01*
X135977197Y-73000817D01*
X135961593Y-73046036D01*
X135918585Y-73066977D01*
X135914811Y-73067091D01*
X135814922Y-73067091D01*
X135648060Y-73108219D01*
X135583351Y-73142180D01*
X135535712Y-73146508D01*
X135524901Y-73141988D01*
X129779503Y-70078534D01*
X129473556Y-69915402D01*
X129443173Y-69878457D01*
X129440919Y-69867786D01*
X129438650Y-69849100D01*
X129430908Y-69785330D01*
X129430908Y-69785328D01*
X129430907Y-69785326D01*
X129430907Y-69785324D01*
X129369965Y-69624632D01*
X129369963Y-69624630D01*
X129369963Y-69624628D01*
X129272339Y-69483195D01*
X129272335Y-69483191D01*
X129143696Y-69369227D01*
X128991522Y-69289361D01*
X128991525Y-69289361D01*
X128824658Y-69248232D01*
X128824655Y-69248232D01*
X128652795Y-69248232D01*
X128652791Y-69248232D01*
X128485926Y-69289361D01*
X128333753Y-69369227D01*
X128205114Y-69483191D01*
X128205110Y-69483195D01*
X128107486Y-69624628D01*
X128046542Y-69785327D01*
X128046541Y-69785330D01*
X128025826Y-69955929D01*
X128025826Y-69955934D01*
X128046541Y-70126533D01*
X128046542Y-70126536D01*
X128046542Y-70126537D01*
X128046543Y-70126540D01*
X128079828Y-70214305D01*
X128107486Y-70287235D01*
X128205110Y-70428668D01*
X128205114Y-70428672D01*
X128331800Y-70540906D01*
X128352741Y-70583914D01*
X128337137Y-70629133D01*
X128294129Y-70650074D01*
X128290355Y-70650188D01*
X128282637Y-70650188D01*
X128115771Y-70691317D01*
X127977565Y-70763853D01*
X127929926Y-70768182D01*
X127925040Y-70766434D01*
X121738866Y-68258690D01*
X121577853Y-68193418D01*
X121543774Y-68159851D01*
X121539289Y-68143025D01*
X121538678Y-68137995D01*
X121538678Y-68137989D01*
X121477736Y-67977297D01*
X121477734Y-67977295D01*
X121477734Y-67977293D01*
X121380110Y-67835860D01*
X121380106Y-67835856D01*
X121251467Y-67721892D01*
X121099293Y-67642026D01*
X121099296Y-67642026D01*
X120932429Y-67600897D01*
X120932426Y-67600897D01*
X120760566Y-67600897D01*
X120760562Y-67600897D01*
X120593697Y-67642026D01*
X120441524Y-67721892D01*
X120312885Y-67835856D01*
X120312881Y-67835860D01*
X120215257Y-67977293D01*
X120154313Y-68137992D01*
X120154312Y-68137995D01*
X120133598Y-68308594D01*
X120133598Y-68308599D01*
X120154312Y-68479198D01*
X120154313Y-68479201D01*
X120154313Y-68479202D01*
X120154314Y-68479205D01*
X120179437Y-68545449D01*
X120215257Y-68639900D01*
X120312881Y-68781333D01*
X120312885Y-68781337D01*
X120441524Y-68895301D01*
X120506392Y-68929346D01*
X120537017Y-68966093D01*
X120532688Y-69013732D01*
X120495941Y-69044357D01*
X120492305Y-69045371D01*
X120409345Y-69065819D01*
X120372118Y-69074995D01*
X120372117Y-69074995D01*
X120372115Y-69074996D01*
X120219943Y-69154862D01*
X120219941Y-69154863D01*
X120190059Y-69181336D01*
X120144840Y-69196939D01*
X120130604Y-69194402D01*
X114538651Y-67511522D01*
X114501607Y-67481256D01*
X114498227Y-67473845D01*
X114456549Y-67363947D01*
X114456546Y-67363942D01*
X114358923Y-67222510D01*
X114358919Y-67222506D01*
X114230280Y-67108542D01*
X114078106Y-67028676D01*
X114078109Y-67028676D01*
X113911242Y-66987547D01*
X113911239Y-66987547D01*
X113739379Y-66987547D01*
X113739375Y-66987547D01*
X113572510Y-67028676D01*
X113420337Y-67108542D01*
X113291698Y-67222506D01*
X113291694Y-67222510D01*
X113194070Y-67363943D01*
X113133126Y-67524642D01*
X113133125Y-67524645D01*
X113112410Y-67695244D01*
X113112410Y-67695249D01*
X113133125Y-67865848D01*
X113133126Y-67865854D01*
X113163094Y-67944873D01*
X113161649Y-67992686D01*
X113126817Y-68025474D01*
X113089698Y-68027719D01*
X113062032Y-68020900D01*
X113062030Y-68020900D01*
X112890170Y-68020900D01*
X112890166Y-68020900D01*
X112723301Y-68062029D01*
X112571128Y-68141895D01*
X112442489Y-68255859D01*
X112439982Y-68258690D01*
X112438157Y-68257073D01*
X112404191Y-68278898D01*
X112357449Y-68268726D01*
X112331591Y-68228482D01*
X112330599Y-68217390D01*
X112330599Y-68078535D01*
X112330598Y-68078531D01*
X112320045Y-68025474D01*
X112315834Y-68004299D01*
X112297789Y-67977293D01*
X112259584Y-67920115D01*
X112205282Y-67883832D01*
X112178706Y-67844058D01*
X112188038Y-67797142D01*
X112214761Y-67774690D01*
X112250877Y-67758743D01*
X112331242Y-67678378D01*
X112377151Y-67574405D01*
X112380099Y-67548988D01*
X112380099Y-66058211D01*
X112377150Y-66032792D01*
X112377150Y-66032791D01*
X112331242Y-65928821D01*
X112250878Y-65848457D01*
X112146905Y-65802548D01*
X112121489Y-65799600D01*
X111795060Y-65799600D01*
X110620294Y-66974365D01*
X110576100Y-66992671D01*
X110531906Y-66974365D01*
X109357140Y-65799600D01*
X109787059Y-65799600D01*
X110576100Y-66588640D01*
X111365140Y-65799600D01*
X109787059Y-65799600D01*
X109357140Y-65799600D01*
X109164099Y-65799600D01*
X109119905Y-65781294D01*
X109101599Y-65737100D01*
X109101599Y-65667577D01*
X109119905Y-65623383D01*
X109164099Y-65605077D01*
X109164782Y-65605080D01*
G37*
%TD.AperFunction*%
%TD*%
M02*
