%TF.GenerationSoftware,KiCad,Pcbnew,7.0.6-7.0.6~ubuntu22.04.1*%
%TF.CreationDate,2023-08-04T15:40:55+01:00*%
%TF.ProjectId,working,776f726b-696e-4672-9e6b-696361645f70,rev?*%
%TF.SameCoordinates,Original*%
%TF.FileFunction,Other,User*%
%FSLAX46Y46*%
G04 Gerber Fmt 4.6, Leading zero omitted, Abs format (unit mm)*
G04 Created by KiCad (PCBNEW 7.0.6-7.0.6~ubuntu22.04.1) date 2023-08-04 15:40:55*
%MOMM*%
%LPD*%
G01*
G04 APERTURE LIST*
%ADD10C,0.050000*%
G04 APERTURE END LIST*
D10*
%TO.C,C1*%
X68520000Y-14270000D02*
X71480000Y-14270000D01*
X71480000Y-15730000D02*
X68520000Y-15730000D01*
X71480000Y-14270000D02*
X71480000Y-15730000D01*
X68520000Y-15730000D02*
X68520000Y-14270000D01*
%TO.C,C4*%
X73520000Y-19490000D02*
X76480000Y-19490000D01*
X73520000Y-20950000D02*
X73520000Y-19490000D01*
X76480000Y-19490000D02*
X76480000Y-20950000D01*
X76480000Y-20950000D02*
X73520000Y-20950000D01*
%TO.C,R2*%
X68520000Y-19270000D02*
X71480000Y-19270000D01*
X71480000Y-19270000D02*
X71480000Y-20730000D01*
X71480000Y-20730000D02*
X68520000Y-20730000D01*
X68520000Y-20730000D02*
X68520000Y-19270000D01*
%TO.C,D1*%
X83520000Y-20950000D02*
X83520000Y-19490000D01*
X83520000Y-19490000D02*
X86480000Y-19490000D01*
X86480000Y-20950000D02*
X83520000Y-20950000D01*
X86480000Y-19490000D02*
X86480000Y-20950000D01*
%TO.C,SW1*%
X72400000Y-36650000D02*
X72400000Y-33350000D01*
X67600000Y-36650000D02*
X72400000Y-36650000D01*
X72400000Y-33350000D02*
X67600000Y-33350000D01*
X67600000Y-33350000D02*
X67600000Y-36650000D01*
%TO.C,C2*%
X76480000Y-14270000D02*
X76480000Y-15730000D01*
X76480000Y-15730000D02*
X73520000Y-15730000D01*
X73520000Y-15730000D02*
X73520000Y-14270000D01*
X73520000Y-14270000D02*
X76480000Y-14270000D01*
%TO.C,J1*%
X147120000Y-5430000D02*
X143520000Y-5430000D01*
X143520000Y-5430000D02*
X143520000Y-44580000D01*
X147120000Y-44580000D02*
X147120000Y-5430000D01*
X143520000Y-44580000D02*
X147120000Y-44580000D01*
%TO.C,R3*%
X72695000Y-15730000D02*
X72695000Y-14270000D01*
X75655000Y-14270000D02*
X75655000Y-15730000D01*
X75655000Y-15730000D02*
X72695000Y-15730000D01*
X72695000Y-14270000D02*
X75655000Y-14270000D01*
%TO.C,U3*%
X78120000Y-21880000D02*
X71880000Y-21880000D01*
X78120000Y-28120000D02*
X78120000Y-21880000D01*
X71880000Y-28120000D02*
X78120000Y-28120000D01*
X71880000Y-21880000D02*
X71880000Y-28120000D01*
%TO.C,R4*%
X73520000Y-16980000D02*
X76480000Y-16980000D01*
X76480000Y-16980000D02*
X76480000Y-18440000D01*
X76480000Y-18440000D02*
X73520000Y-18440000D01*
X73520000Y-18440000D02*
X73520000Y-16980000D01*
%TO.C,J1*%
X2880000Y-44570000D02*
X6480000Y-44570000D01*
X6480000Y-44570000D02*
X6480000Y-5420000D01*
X2880000Y-5420000D02*
X2880000Y-44570000D01*
X6480000Y-5420000D02*
X2880000Y-5420000D01*
%TO.C,C3*%
X71480000Y-24270000D02*
X71480000Y-25730000D01*
X68520000Y-24270000D02*
X71480000Y-24270000D01*
X68520000Y-25730000D02*
X68520000Y-24270000D01*
X71480000Y-25730000D02*
X68520000Y-25730000D01*
%TO.C,Y1*%
X81800000Y-16850000D02*
X81800000Y-8200000D01*
X81800000Y-8200000D02*
X78200000Y-8200000D01*
X78200000Y-16850000D02*
X81800000Y-16850000D01*
X78200000Y-8200000D02*
X78200000Y-16850000D01*
%TO.C,R1*%
X68520000Y-29270000D02*
X71480000Y-29270000D01*
X71480000Y-29270000D02*
X71480000Y-30730000D01*
X71480000Y-30730000D02*
X68520000Y-30730000D01*
X68520000Y-30730000D02*
X68520000Y-29270000D01*
%TD*%
M02*
