%TF.GenerationSoftware,KiCad,Pcbnew,7.0.6-7.0.6~ubuntu22.04.1*%
%TF.CreationDate,2023-08-07T11:34:15+01:00*%
%TF.ProjectId,working,776f726b-696e-4672-9e6b-696361645f70,rev?*%
%TF.SameCoordinates,Original*%
%TF.FileFunction,Legend,Bot*%
%TF.FilePolarity,Positive*%
%FSLAX46Y46*%
G04 Gerber Fmt 4.6, Leading zero omitted, Abs format (unit mm)*
G04 Created by KiCad (PCBNEW 7.0.6-7.0.6~ubuntu22.04.1) date 2023-08-07 11:34:15*
%MOMM*%
%LPD*%
G01*
G04 APERTURE LIST*
%ADD10C,0.254000*%
%ADD11C,0.304800*%
%ADD12C,0.406400*%
%ADD13C,0.231140*%
%ADD14C,0.160020*%
%ADD15C,0.127000*%
%ADD16C,0.119969*%
%ADD17C,0.152400*%
%ADD18C,0.203200*%
G04 APERTURE END LIST*
D10*
X127472718Y-113893600D02*
G75*
G03*
X127472718Y-113893600I-1831618J0D01*
G01*
D11*
X161016187Y-115163600D02*
G75*
G03*
X161016187Y-115163600I-1085087J0D01*
G01*
X133076187Y-115163600D02*
G75*
G03*
X133076187Y-115163600I-1085087J0D01*
G01*
X166096187Y-115163600D02*
G75*
G03*
X166096187Y-115163600I-1085087J0D01*
G01*
D12*
X124371100Y-105003600D02*
X124371100Y-99923600D01*
X124371100Y-99923600D02*
X125006100Y-101193600D01*
D10*
X127472718Y-96113600D02*
G75*
G03*
X127472718Y-96113600I-1831618J0D01*
G01*
D12*
X124371100Y-99923600D02*
X123736100Y-101193600D01*
X172758100Y-105130600D02*
X173393100Y-103860600D01*
X172758100Y-100050600D02*
X172758100Y-105130600D01*
D11*
X135616187Y-115163600D02*
G75*
G03*
X135616187Y-115163600I-1085087J0D01*
G01*
D12*
X172758100Y-105130600D02*
X172123100Y-103860600D01*
D13*
X125699513Y-109701330D02*
X127246373Y-109701330D01*
X127246373Y-109701330D02*
X126141473Y-109185710D01*
X126141473Y-109185710D02*
X127246373Y-108670090D01*
X127246373Y-108670090D02*
X125699513Y-108670090D01*
X125699513Y-107933490D02*
X127246373Y-107933490D01*
X125699513Y-107196890D02*
X127246373Y-107196890D01*
X127246373Y-107196890D02*
X127246373Y-106828590D01*
X127246373Y-106828590D02*
X127172713Y-106607610D01*
X127172713Y-106607610D02*
X127025393Y-106460290D01*
X127025393Y-106460290D02*
X126878073Y-106386630D01*
X126878073Y-106386630D02*
X126583433Y-106312970D01*
X126583433Y-106312970D02*
X126362453Y-106312970D01*
X126362453Y-106312970D02*
X126067813Y-106386630D01*
X126067813Y-106386630D02*
X125920493Y-106460290D01*
X125920493Y-106460290D02*
X125773173Y-106607610D01*
X125773173Y-106607610D02*
X125699513Y-106828590D01*
X125699513Y-106828590D02*
X125699513Y-107196890D01*
X125699513Y-105650030D02*
X127246373Y-105650030D01*
X127246373Y-103440230D02*
X127246373Y-103145590D01*
X127246373Y-103145590D02*
X127172713Y-102998270D01*
X127172713Y-102998270D02*
X127025393Y-102850950D01*
X127025393Y-102850950D02*
X126730753Y-102777290D01*
X126730753Y-102777290D02*
X126215133Y-102777290D01*
X126215133Y-102777290D02*
X125920493Y-102850950D01*
X125920493Y-102850950D02*
X125773173Y-102998270D01*
X125773173Y-102998270D02*
X125699513Y-103145590D01*
X125699513Y-103145590D02*
X125699513Y-103440230D01*
X125699513Y-103440230D02*
X125773173Y-103587550D01*
X125773173Y-103587550D02*
X125920493Y-103734870D01*
X125920493Y-103734870D02*
X126215133Y-103808530D01*
X126215133Y-103808530D02*
X126730753Y-103808530D01*
X126730753Y-103808530D02*
X127025393Y-103734870D01*
X127025393Y-103734870D02*
X127172713Y-103587550D01*
X127172713Y-103587550D02*
X127246373Y-103440230D01*
X127246373Y-102114350D02*
X125994153Y-102114350D01*
X125994153Y-102114350D02*
X125846833Y-102040690D01*
X125846833Y-102040690D02*
X125773173Y-101967030D01*
X125773173Y-101967030D02*
X125699513Y-101819710D01*
X125699513Y-101819710D02*
X125699513Y-101525070D01*
X125699513Y-101525070D02*
X125773173Y-101377750D01*
X125773173Y-101377750D02*
X125846833Y-101304090D01*
X125846833Y-101304090D02*
X125994153Y-101230430D01*
X125994153Y-101230430D02*
X127246373Y-101230430D01*
X127246373Y-100714810D02*
X127246373Y-99830890D01*
X125699513Y-100272850D02*
X127246373Y-100272850D01*
X169895513Y-108797090D02*
X171442373Y-108797090D01*
X171442373Y-108797090D02*
X170337473Y-108281470D01*
X170337473Y-108281470D02*
X171442373Y-107765850D01*
X171442373Y-107765850D02*
X169895513Y-107765850D01*
X169895513Y-107029250D02*
X171442373Y-107029250D01*
X169895513Y-106292650D02*
X171442373Y-106292650D01*
X171442373Y-106292650D02*
X171442373Y-105924350D01*
X171442373Y-105924350D02*
X171368713Y-105703370D01*
X171368713Y-105703370D02*
X171221393Y-105556050D01*
X171221393Y-105556050D02*
X171074073Y-105482390D01*
X171074073Y-105482390D02*
X170779433Y-105408730D01*
X170779433Y-105408730D02*
X170558453Y-105408730D01*
X170558453Y-105408730D02*
X170263813Y-105482390D01*
X170263813Y-105482390D02*
X170116493Y-105556050D01*
X170116493Y-105556050D02*
X169969173Y-105703370D01*
X169969173Y-105703370D02*
X169895513Y-105924350D01*
X169895513Y-105924350D02*
X169895513Y-106292650D01*
X169895513Y-104745790D02*
X171442373Y-104745790D01*
X169895513Y-102830630D02*
X171442373Y-102830630D01*
X169895513Y-102094030D02*
X171442373Y-102094030D01*
X171442373Y-102094030D02*
X169895513Y-101210110D01*
X169895513Y-101210110D02*
X171442373Y-101210110D01*
D14*
X142628910Y-137319786D02*
X142628910Y-135701806D01*
X142628910Y-135701806D02*
X142089584Y-136857506D01*
X142089584Y-136857506D02*
X141550257Y-135701806D01*
X141550257Y-135701806D02*
X141550257Y-137319786D01*
X140779790Y-137319786D02*
X140779790Y-135701806D01*
X140009323Y-137319786D02*
X140009323Y-135701806D01*
X140009323Y-135701806D02*
X139624090Y-135701806D01*
X139624090Y-135701806D02*
X139392950Y-135778853D01*
X139392950Y-135778853D02*
X139238857Y-135932946D01*
X139238857Y-135932946D02*
X139161810Y-136087040D01*
X139161810Y-136087040D02*
X139084763Y-136395226D01*
X139084763Y-136395226D02*
X139084763Y-136626366D01*
X139084763Y-136626366D02*
X139161810Y-136934553D01*
X139161810Y-136934553D02*
X139238857Y-137088646D01*
X139238857Y-137088646D02*
X139392950Y-137242740D01*
X139392950Y-137242740D02*
X139624090Y-137319786D01*
X139624090Y-137319786D02*
X140009323Y-137319786D01*
X138391343Y-137319786D02*
X138391343Y-135701806D01*
X137312690Y-135701806D02*
X137004503Y-135701806D01*
X137004503Y-135701806D02*
X136850410Y-135778853D01*
X136850410Y-135778853D02*
X136696316Y-135932946D01*
X136696316Y-135932946D02*
X136619270Y-136241133D01*
X136619270Y-136241133D02*
X136619270Y-136780460D01*
X136619270Y-136780460D02*
X136696316Y-137088646D01*
X136696316Y-137088646D02*
X136850410Y-137242740D01*
X136850410Y-137242740D02*
X137004503Y-137319786D01*
X137004503Y-137319786D02*
X137312690Y-137319786D01*
X137312690Y-137319786D02*
X137466783Y-137242740D01*
X137466783Y-137242740D02*
X137620876Y-137088646D01*
X137620876Y-137088646D02*
X137697923Y-136780460D01*
X137697923Y-136780460D02*
X137697923Y-136241133D01*
X137697923Y-136241133D02*
X137620876Y-135932946D01*
X137620876Y-135932946D02*
X137466783Y-135778853D01*
X137466783Y-135778853D02*
X137312690Y-135701806D01*
X135925849Y-135701806D02*
X135925849Y-137011600D01*
X135925849Y-137011600D02*
X135848803Y-137165693D01*
X135848803Y-137165693D02*
X135771756Y-137242740D01*
X135771756Y-137242740D02*
X135617663Y-137319786D01*
X135617663Y-137319786D02*
X135309476Y-137319786D01*
X135309476Y-137319786D02*
X135155383Y-137242740D01*
X135155383Y-137242740D02*
X135078336Y-137165693D01*
X135078336Y-137165693D02*
X135001289Y-137011600D01*
X135001289Y-137011600D02*
X135001289Y-135701806D01*
X134461962Y-135701806D02*
X133537402Y-135701806D01*
X133999682Y-137319786D02*
X133999682Y-135701806D01*
X132689889Y-135701806D02*
X132535795Y-135701806D01*
X132535795Y-135701806D02*
X132381702Y-135778853D01*
X132381702Y-135778853D02*
X132304655Y-135855900D01*
X132304655Y-135855900D02*
X132227609Y-136009993D01*
X132227609Y-136009993D02*
X132150562Y-136318180D01*
X132150562Y-136318180D02*
X132150562Y-136703413D01*
X132150562Y-136703413D02*
X132227609Y-137011600D01*
X132227609Y-137011600D02*
X132304655Y-137165693D01*
X132304655Y-137165693D02*
X132381702Y-137242740D01*
X132381702Y-137242740D02*
X132535795Y-137319786D01*
X132535795Y-137319786D02*
X132689889Y-137319786D01*
X132689889Y-137319786D02*
X132843982Y-137242740D01*
X132843982Y-137242740D02*
X132921029Y-137165693D01*
X132921029Y-137165693D02*
X132998075Y-137011600D01*
X132998075Y-137011600D02*
X133075122Y-136703413D01*
X133075122Y-136703413D02*
X133075122Y-136318180D01*
X133075122Y-136318180D02*
X132998075Y-136009993D01*
X132998075Y-136009993D02*
X132921029Y-135855900D01*
X132921029Y-135855900D02*
X132843982Y-135778853D01*
X132843982Y-135778853D02*
X132689889Y-135701806D01*
D15*
X131363262Y-105893114D02*
X130655690Y-105893114D01*
X130655690Y-105893114D02*
X131036690Y-106328543D01*
X131036690Y-106328543D02*
X130873405Y-106328543D01*
X130873405Y-106328543D02*
X130764548Y-106382971D01*
X130764548Y-106382971D02*
X130710119Y-106437400D01*
X130710119Y-106437400D02*
X130655690Y-106546257D01*
X130655690Y-106546257D02*
X130655690Y-106818400D01*
X130655690Y-106818400D02*
X130710119Y-106927257D01*
X130710119Y-106927257D02*
X130764548Y-106981686D01*
X130764548Y-106981686D02*
X130873405Y-107036114D01*
X130873405Y-107036114D02*
X131199976Y-107036114D01*
X131199976Y-107036114D02*
X131308833Y-106981686D01*
X131308833Y-106981686D02*
X131363262Y-106927257D01*
X128678119Y-110084114D02*
X129222405Y-110084114D01*
X129222405Y-110084114D02*
X129276833Y-110628400D01*
X129276833Y-110628400D02*
X129222405Y-110573971D01*
X129222405Y-110573971D02*
X129113548Y-110519543D01*
X129113548Y-110519543D02*
X128841405Y-110519543D01*
X128841405Y-110519543D02*
X128732548Y-110573971D01*
X128732548Y-110573971D02*
X128678119Y-110628400D01*
X128678119Y-110628400D02*
X128623690Y-110737257D01*
X128623690Y-110737257D02*
X128623690Y-111009400D01*
X128623690Y-111009400D02*
X128678119Y-111118257D01*
X128678119Y-111118257D02*
X128732548Y-111172686D01*
X128732548Y-111172686D02*
X128841405Y-111227114D01*
X128841405Y-111227114D02*
X129113548Y-111227114D01*
X129113548Y-111227114D02*
X129222405Y-111172686D01*
X129222405Y-111172686D02*
X129276833Y-111118257D01*
X144226548Y-110465114D02*
X144226548Y-111227114D01*
X144498690Y-110029686D02*
X144770833Y-110846114D01*
X144770833Y-110846114D02*
X144063262Y-110846114D01*
X141958690Y-107036114D02*
X142611833Y-107036114D01*
X142285262Y-107036114D02*
X142285262Y-105893114D01*
X142285262Y-105893114D02*
X142394119Y-106056400D01*
X142394119Y-106056400D02*
X142502976Y-106165257D01*
X142502976Y-106165257D02*
X142611833Y-106219686D01*
X136980833Y-104201971D02*
X136926405Y-104147543D01*
X136926405Y-104147543D02*
X136817548Y-104093114D01*
X136817548Y-104093114D02*
X136545405Y-104093114D01*
X136545405Y-104093114D02*
X136436548Y-104147543D01*
X136436548Y-104147543D02*
X136382119Y-104201971D01*
X136382119Y-104201971D02*
X136327690Y-104310828D01*
X136327690Y-104310828D02*
X136327690Y-104419686D01*
X136327690Y-104419686D02*
X136382119Y-104582971D01*
X136382119Y-104582971D02*
X137035262Y-105236114D01*
X137035262Y-105236114D02*
X136327690Y-105236114D01*
D14*
X161807603Y-87154786D02*
X161807603Y-85536806D01*
X161807603Y-85536806D02*
X161268277Y-86692506D01*
X161268277Y-86692506D02*
X160728950Y-85536806D01*
X160728950Y-85536806D02*
X160728950Y-87154786D01*
X159958483Y-87154786D02*
X159958483Y-85536806D01*
X159188016Y-87154786D02*
X159188016Y-85536806D01*
X159188016Y-85536806D02*
X158802783Y-85536806D01*
X158802783Y-85536806D02*
X158571643Y-85613853D01*
X158571643Y-85613853D02*
X158417550Y-85767946D01*
X158417550Y-85767946D02*
X158340503Y-85922040D01*
X158340503Y-85922040D02*
X158263456Y-86230226D01*
X158263456Y-86230226D02*
X158263456Y-86461366D01*
X158263456Y-86461366D02*
X158340503Y-86769553D01*
X158340503Y-86769553D02*
X158417550Y-86923646D01*
X158417550Y-86923646D02*
X158571643Y-87077740D01*
X158571643Y-87077740D02*
X158802783Y-87154786D01*
X158802783Y-87154786D02*
X159188016Y-87154786D01*
X157570036Y-87154786D02*
X157570036Y-85536806D01*
X156799569Y-87154786D02*
X156799569Y-85536806D01*
X156029102Y-87154786D02*
X156029102Y-85536806D01*
X156029102Y-85536806D02*
X155104542Y-87154786D01*
X155104542Y-87154786D02*
X155104542Y-85536806D01*
X154025889Y-85536806D02*
X153871795Y-85536806D01*
X153871795Y-85536806D02*
X153717702Y-85613853D01*
X153717702Y-85613853D02*
X153640655Y-85690900D01*
X153640655Y-85690900D02*
X153563609Y-85844993D01*
X153563609Y-85844993D02*
X153486562Y-86153180D01*
X153486562Y-86153180D02*
X153486562Y-86538413D01*
X153486562Y-86538413D02*
X153563609Y-86846600D01*
X153563609Y-86846600D02*
X153640655Y-87000693D01*
X153640655Y-87000693D02*
X153717702Y-87077740D01*
X153717702Y-87077740D02*
X153871795Y-87154786D01*
X153871795Y-87154786D02*
X154025889Y-87154786D01*
X154025889Y-87154786D02*
X154179982Y-87077740D01*
X154179982Y-87077740D02*
X154257029Y-87000693D01*
X154257029Y-87000693D02*
X154334075Y-86846600D01*
X154334075Y-86846600D02*
X154411122Y-86538413D01*
X154411122Y-86538413D02*
X154411122Y-86153180D01*
X154411122Y-86153180D02*
X154334075Y-85844993D01*
X154334075Y-85844993D02*
X154257029Y-85690900D01*
X154257029Y-85690900D02*
X154179982Y-85613853D01*
X154179982Y-85613853D02*
X154025889Y-85536806D01*
D15*
X152699262Y-105893114D02*
X151991690Y-105893114D01*
X151991690Y-105893114D02*
X152372690Y-106328543D01*
X152372690Y-106328543D02*
X152209405Y-106328543D01*
X152209405Y-106328543D02*
X152100548Y-106382971D01*
X152100548Y-106382971D02*
X152046119Y-106437400D01*
X152046119Y-106437400D02*
X151991690Y-106546257D01*
X151991690Y-106546257D02*
X151991690Y-106818400D01*
X151991690Y-106818400D02*
X152046119Y-106927257D01*
X152046119Y-106927257D02*
X152100548Y-106981686D01*
X152100548Y-106981686D02*
X152209405Y-107036114D01*
X152209405Y-107036114D02*
X152535976Y-107036114D01*
X152535976Y-107036114D02*
X152644833Y-106981686D01*
X152644833Y-106981686D02*
X152699262Y-106927257D01*
X163294690Y-107036114D02*
X163947833Y-107036114D01*
X163621262Y-107036114D02*
X163621262Y-105893114D01*
X163621262Y-105893114D02*
X163730119Y-106056400D01*
X163730119Y-106056400D02*
X163838976Y-106165257D01*
X163838976Y-106165257D02*
X163947833Y-106219686D01*
X165562548Y-110465114D02*
X165562548Y-111227114D01*
X165834690Y-110029686D02*
X166106833Y-110846114D01*
X166106833Y-110846114D02*
X165399262Y-110846114D01*
X150014119Y-110084114D02*
X150558405Y-110084114D01*
X150558405Y-110084114D02*
X150612833Y-110628400D01*
X150612833Y-110628400D02*
X150558405Y-110573971D01*
X150558405Y-110573971D02*
X150449548Y-110519543D01*
X150449548Y-110519543D02*
X150177405Y-110519543D01*
X150177405Y-110519543D02*
X150068548Y-110573971D01*
X150068548Y-110573971D02*
X150014119Y-110628400D01*
X150014119Y-110628400D02*
X149959690Y-110737257D01*
X149959690Y-110737257D02*
X149959690Y-111009400D01*
X149959690Y-111009400D02*
X150014119Y-111118257D01*
X150014119Y-111118257D02*
X150068548Y-111172686D01*
X150068548Y-111172686D02*
X150177405Y-111227114D01*
X150177405Y-111227114D02*
X150449548Y-111227114D01*
X150449548Y-111227114D02*
X150558405Y-111172686D01*
X150558405Y-111172686D02*
X150612833Y-111118257D01*
X158316833Y-104201971D02*
X158262405Y-104147543D01*
X158262405Y-104147543D02*
X158153548Y-104093114D01*
X158153548Y-104093114D02*
X157881405Y-104093114D01*
X157881405Y-104093114D02*
X157772548Y-104147543D01*
X157772548Y-104147543D02*
X157718119Y-104201971D01*
X157718119Y-104201971D02*
X157663690Y-104310828D01*
X157663690Y-104310828D02*
X157663690Y-104419686D01*
X157663690Y-104419686D02*
X157718119Y-104582971D01*
X157718119Y-104582971D02*
X158371262Y-105236114D01*
X158371262Y-105236114D02*
X157663690Y-105236114D01*
D16*
X131204546Y-99973971D02*
X131897377Y-100435859D01*
X131204546Y-100435859D02*
X131897377Y-99973971D01*
X131270530Y-100666802D02*
X131237538Y-100699794D01*
X131237538Y-100699794D02*
X131204546Y-100765778D01*
X131204546Y-100765778D02*
X131204546Y-100930738D01*
X131204546Y-100930738D02*
X131237538Y-100996722D01*
X131237538Y-100996722D02*
X131270530Y-101029714D01*
X131270530Y-101029714D02*
X131336514Y-101062706D01*
X131336514Y-101062706D02*
X131402498Y-101062706D01*
X131402498Y-101062706D02*
X131501474Y-101029714D01*
X131501474Y-101029714D02*
X131897377Y-100633810D01*
X131897377Y-100633810D02*
X131897377Y-101062706D01*
D15*
X140417262Y-108789114D02*
X139709690Y-108789114D01*
X139709690Y-108789114D02*
X140090690Y-109224543D01*
X140090690Y-109224543D02*
X139927405Y-109224543D01*
X139927405Y-109224543D02*
X139818548Y-109278971D01*
X139818548Y-109278971D02*
X139764119Y-109333400D01*
X139764119Y-109333400D02*
X139709690Y-109442257D01*
X139709690Y-109442257D02*
X139709690Y-109714400D01*
X139709690Y-109714400D02*
X139764119Y-109823257D01*
X139764119Y-109823257D02*
X139818548Y-109877686D01*
X139818548Y-109877686D02*
X139927405Y-109932114D01*
X139927405Y-109932114D02*
X140253976Y-109932114D01*
X140253976Y-109932114D02*
X140362833Y-109877686D01*
X140362833Y-109877686D02*
X140417262Y-109823257D01*
X139165405Y-109877686D02*
X139165405Y-109932114D01*
X139165405Y-109932114D02*
X139219834Y-110040971D01*
X139219834Y-110040971D02*
X139274262Y-110095400D01*
X138131262Y-108789114D02*
X138675548Y-108789114D01*
X138675548Y-108789114D02*
X138729976Y-109333400D01*
X138729976Y-109333400D02*
X138675548Y-109278971D01*
X138675548Y-109278971D02*
X138566691Y-109224543D01*
X138566691Y-109224543D02*
X138294548Y-109224543D01*
X138294548Y-109224543D02*
X138185691Y-109278971D01*
X138185691Y-109278971D02*
X138131262Y-109333400D01*
X138131262Y-109333400D02*
X138076833Y-109442257D01*
X138076833Y-109442257D02*
X138076833Y-109714400D01*
X138076833Y-109714400D02*
X138131262Y-109823257D01*
X138131262Y-109823257D02*
X138185691Y-109877686D01*
X138185691Y-109877686D02*
X138294548Y-109932114D01*
X138294548Y-109932114D02*
X138566691Y-109932114D01*
X138566691Y-109932114D02*
X138675548Y-109877686D01*
X138675548Y-109877686D02*
X138729976Y-109823257D01*
X137586977Y-109932114D02*
X137586977Y-109170114D01*
X137586977Y-109278971D02*
X137532548Y-109224543D01*
X137532548Y-109224543D02*
X137423691Y-109170114D01*
X137423691Y-109170114D02*
X137260405Y-109170114D01*
X137260405Y-109170114D02*
X137151548Y-109224543D01*
X137151548Y-109224543D02*
X137097120Y-109333400D01*
X137097120Y-109333400D02*
X137097120Y-109932114D01*
X137097120Y-109333400D02*
X137042691Y-109224543D01*
X137042691Y-109224543D02*
X136933834Y-109170114D01*
X136933834Y-109170114D02*
X136770548Y-109170114D01*
X136770548Y-109170114D02*
X136661691Y-109224543D01*
X136661691Y-109224543D02*
X136607262Y-109333400D01*
X136607262Y-109333400D02*
X136607262Y-109932114D01*
X136062977Y-109932114D02*
X136062977Y-109170114D01*
X136062977Y-109278971D02*
X136008548Y-109224543D01*
X136008548Y-109224543D02*
X135899691Y-109170114D01*
X135899691Y-109170114D02*
X135736405Y-109170114D01*
X135736405Y-109170114D02*
X135627548Y-109224543D01*
X135627548Y-109224543D02*
X135573120Y-109333400D01*
X135573120Y-109333400D02*
X135573120Y-109932114D01*
X135573120Y-109333400D02*
X135518691Y-109224543D01*
X135518691Y-109224543D02*
X135409834Y-109170114D01*
X135409834Y-109170114D02*
X135246548Y-109170114D01*
X135246548Y-109170114D02*
X135137691Y-109224543D01*
X135137691Y-109224543D02*
X135083262Y-109333400D01*
X135083262Y-109333400D02*
X135083262Y-109932114D01*
D16*
X152540546Y-99973971D02*
X153233377Y-100435859D01*
X152540546Y-100435859D02*
X153233377Y-99973971D01*
X153233377Y-101062706D02*
X153233377Y-100666802D01*
X153233377Y-100864754D02*
X152540546Y-100864754D01*
X152540546Y-100864754D02*
X152639522Y-100798770D01*
X152639522Y-100798770D02*
X152705506Y-100732786D01*
X152705506Y-100732786D02*
X152738498Y-100666802D01*
D15*
X161753262Y-108789114D02*
X161045690Y-108789114D01*
X161045690Y-108789114D02*
X161426690Y-109224543D01*
X161426690Y-109224543D02*
X161263405Y-109224543D01*
X161263405Y-109224543D02*
X161154548Y-109278971D01*
X161154548Y-109278971D02*
X161100119Y-109333400D01*
X161100119Y-109333400D02*
X161045690Y-109442257D01*
X161045690Y-109442257D02*
X161045690Y-109714400D01*
X161045690Y-109714400D02*
X161100119Y-109823257D01*
X161100119Y-109823257D02*
X161154548Y-109877686D01*
X161154548Y-109877686D02*
X161263405Y-109932114D01*
X161263405Y-109932114D02*
X161589976Y-109932114D01*
X161589976Y-109932114D02*
X161698833Y-109877686D01*
X161698833Y-109877686D02*
X161753262Y-109823257D01*
X160501405Y-109877686D02*
X160501405Y-109932114D01*
X160501405Y-109932114D02*
X160555834Y-110040971D01*
X160555834Y-110040971D02*
X160610262Y-110095400D01*
X159467262Y-108789114D02*
X160011548Y-108789114D01*
X160011548Y-108789114D02*
X160065976Y-109333400D01*
X160065976Y-109333400D02*
X160011548Y-109278971D01*
X160011548Y-109278971D02*
X159902691Y-109224543D01*
X159902691Y-109224543D02*
X159630548Y-109224543D01*
X159630548Y-109224543D02*
X159521691Y-109278971D01*
X159521691Y-109278971D02*
X159467262Y-109333400D01*
X159467262Y-109333400D02*
X159412833Y-109442257D01*
X159412833Y-109442257D02*
X159412833Y-109714400D01*
X159412833Y-109714400D02*
X159467262Y-109823257D01*
X159467262Y-109823257D02*
X159521691Y-109877686D01*
X159521691Y-109877686D02*
X159630548Y-109932114D01*
X159630548Y-109932114D02*
X159902691Y-109932114D01*
X159902691Y-109932114D02*
X160011548Y-109877686D01*
X160011548Y-109877686D02*
X160065976Y-109823257D01*
X158922977Y-109932114D02*
X158922977Y-109170114D01*
X158922977Y-109278971D02*
X158868548Y-109224543D01*
X158868548Y-109224543D02*
X158759691Y-109170114D01*
X158759691Y-109170114D02*
X158596405Y-109170114D01*
X158596405Y-109170114D02*
X158487548Y-109224543D01*
X158487548Y-109224543D02*
X158433120Y-109333400D01*
X158433120Y-109333400D02*
X158433120Y-109932114D01*
X158433120Y-109333400D02*
X158378691Y-109224543D01*
X158378691Y-109224543D02*
X158269834Y-109170114D01*
X158269834Y-109170114D02*
X158106548Y-109170114D01*
X158106548Y-109170114D02*
X157997691Y-109224543D01*
X157997691Y-109224543D02*
X157943262Y-109333400D01*
X157943262Y-109333400D02*
X157943262Y-109932114D01*
X157398977Y-109932114D02*
X157398977Y-109170114D01*
X157398977Y-109278971D02*
X157344548Y-109224543D01*
X157344548Y-109224543D02*
X157235691Y-109170114D01*
X157235691Y-109170114D02*
X157072405Y-109170114D01*
X157072405Y-109170114D02*
X156963548Y-109224543D01*
X156963548Y-109224543D02*
X156909120Y-109333400D01*
X156909120Y-109333400D02*
X156909120Y-109932114D01*
X156909120Y-109333400D02*
X156854691Y-109224543D01*
X156854691Y-109224543D02*
X156745834Y-109170114D01*
X156745834Y-109170114D02*
X156582548Y-109170114D01*
X156582548Y-109170114D02*
X156473691Y-109224543D01*
X156473691Y-109224543D02*
X156419262Y-109333400D01*
X156419262Y-109333400D02*
X156419262Y-109932114D01*
D17*
%TO.C,MIDIOUT0*%
X127765100Y-96768600D02*
X127765100Y-97530600D01*
X127765100Y-96768600D02*
X147812100Y-96768600D01*
X127765100Y-98038600D02*
X127765100Y-98688600D01*
X127765100Y-98038600D02*
X127808100Y-98038600D01*
X127808100Y-97530600D02*
X127765100Y-97530600D01*
X127808100Y-97530600D02*
X127808100Y-98038600D01*
X128054100Y-102229600D02*
X128054100Y-106928600D01*
X128054100Y-102229600D02*
X130213100Y-102229600D01*
X129070100Y-110865600D02*
X128054100Y-106928600D01*
X130140100Y-98688600D02*
X131550100Y-98688600D01*
X130213100Y-98688600D02*
X127765100Y-98688600D01*
X130213100Y-98688600D02*
X130213100Y-102229600D01*
X130213100Y-102229600D02*
X130213100Y-102991600D01*
X130213100Y-106928600D02*
X128054100Y-106928600D01*
X130213100Y-106928600D02*
X130213100Y-105785600D01*
X134658100Y-110865600D02*
X134658100Y-108960600D01*
X135928100Y-106928600D02*
X130213100Y-106928600D01*
X135928100Y-108960600D02*
X134658100Y-108960600D01*
X135928100Y-108960600D02*
X135928100Y-106928600D01*
X135928100Y-110865600D02*
X134658100Y-110865600D01*
X135928100Y-110865600D02*
X135928100Y-108960600D01*
X135928100Y-111500600D02*
X135928100Y-110865600D01*
X135928100Y-111500600D02*
X137198100Y-111500600D01*
X135928100Y-113024600D02*
X135928100Y-111500600D01*
X136436100Y-98688600D02*
X139230100Y-98688600D01*
X137198100Y-113024600D02*
X135928100Y-113024600D01*
X137198100Y-113024600D02*
X137198100Y-111500600D01*
X138468100Y-113024600D02*
X137198100Y-113024600D01*
X138468100Y-113024600D02*
X138468100Y-111500600D01*
X139738100Y-106928600D02*
X135928100Y-106928600D01*
X139738100Y-108833600D02*
X139738100Y-106928600D01*
X139738100Y-108833600D02*
X141008100Y-108833600D01*
X139738100Y-110738600D02*
X139738100Y-108833600D01*
X139738100Y-111500600D02*
X138468100Y-111500600D01*
X139738100Y-111500600D02*
X139738100Y-110738600D01*
X139738100Y-113024600D02*
X138468100Y-113024600D01*
X139738100Y-113024600D02*
X139738100Y-111500600D01*
X141008100Y-110738600D02*
X139738100Y-110738600D01*
X141008100Y-110738600D02*
X141008100Y-108833600D01*
X144116100Y-98688600D02*
X145453100Y-98688600D01*
X145453100Y-98688600D02*
X145453100Y-102229600D01*
X145453100Y-102229600D02*
X145453100Y-102991600D01*
X145453100Y-106928600D02*
X139738100Y-106928600D01*
X145453100Y-106928600D02*
X145453100Y-105785600D01*
X146596100Y-110738600D02*
X147612100Y-106928600D01*
X147612100Y-102229600D02*
X145453100Y-102229600D01*
X147612100Y-102229600D02*
X147612100Y-106928600D01*
X147612100Y-106928600D02*
X145453100Y-106928600D01*
X147801100Y-97630600D02*
X147801100Y-98138600D01*
X147801100Y-97630600D02*
X147812100Y-97530600D01*
X147801100Y-98138600D02*
X147812100Y-98038600D01*
X147812100Y-96768600D02*
X147812100Y-97530600D01*
X147812100Y-98688600D02*
X145453100Y-98688600D01*
X147812100Y-98688600D02*
X147812100Y-98038600D01*
%TO.C,MIDIIN0*%
X149101100Y-96768600D02*
X149101100Y-97530600D01*
X149101100Y-96768600D02*
X169148100Y-96768600D01*
X149101100Y-98038600D02*
X149101100Y-98688600D01*
X149101100Y-98038600D02*
X149144100Y-98038600D01*
X149144100Y-97530600D02*
X149101100Y-97530600D01*
X149144100Y-97530600D02*
X149144100Y-98038600D01*
X149390100Y-102229600D02*
X149390100Y-106928600D01*
X149390100Y-102229600D02*
X151549100Y-102229600D01*
X150406100Y-110865600D02*
X149390100Y-106928600D01*
X151476100Y-98688600D02*
X152886100Y-98688600D01*
X151549100Y-98688600D02*
X149101100Y-98688600D01*
X151549100Y-98688600D02*
X151549100Y-102229600D01*
X151549100Y-102229600D02*
X151549100Y-102991600D01*
X151549100Y-106928600D02*
X149390100Y-106928600D01*
X151549100Y-106928600D02*
X151549100Y-105785600D01*
X155994100Y-110865600D02*
X155994100Y-108960600D01*
X157264100Y-106928600D02*
X151549100Y-106928600D01*
X157264100Y-108960600D02*
X155994100Y-108960600D01*
X157264100Y-108960600D02*
X157264100Y-106928600D01*
X157264100Y-110865600D02*
X155994100Y-110865600D01*
X157264100Y-110865600D02*
X157264100Y-108960600D01*
X157264100Y-111500600D02*
X157264100Y-110865600D01*
X157264100Y-111500600D02*
X158534100Y-111500600D01*
X157264100Y-113024600D02*
X157264100Y-111500600D01*
X157772100Y-98688600D02*
X160566100Y-98688600D01*
X158534100Y-113024600D02*
X157264100Y-113024600D01*
X158534100Y-113024600D02*
X158534100Y-111500600D01*
X159804100Y-113024600D02*
X158534100Y-113024600D01*
X159804100Y-113024600D02*
X159804100Y-111500600D01*
X161074100Y-106928600D02*
X157264100Y-106928600D01*
X161074100Y-108833600D02*
X161074100Y-106928600D01*
X161074100Y-108833600D02*
X162344100Y-108833600D01*
X161074100Y-110738600D02*
X161074100Y-108833600D01*
X161074100Y-111500600D02*
X159804100Y-111500600D01*
X161074100Y-111500600D02*
X161074100Y-110738600D01*
X161074100Y-113024600D02*
X159804100Y-113024600D01*
X161074100Y-113024600D02*
X161074100Y-111500600D01*
X162344100Y-110738600D02*
X161074100Y-110738600D01*
X162344100Y-110738600D02*
X162344100Y-108833600D01*
X165452100Y-98688600D02*
X166789100Y-98688600D01*
X166789100Y-98688600D02*
X166789100Y-102229600D01*
X166789100Y-102229600D02*
X166789100Y-102991600D01*
X166789100Y-106928600D02*
X161074100Y-106928600D01*
X166789100Y-106928600D02*
X166789100Y-105785600D01*
X167932100Y-110738600D02*
X168948100Y-106928600D01*
X168948100Y-102229600D02*
X166789100Y-102229600D01*
X168948100Y-102229600D02*
X168948100Y-106928600D01*
X168948100Y-106928600D02*
X166789100Y-106928600D01*
X169137100Y-97630600D02*
X169137100Y-98138600D01*
X169137100Y-97630600D02*
X169148100Y-97530600D01*
X169137100Y-98138600D02*
X169148100Y-98038600D01*
X169148100Y-96768600D02*
X169148100Y-97530600D01*
X169148100Y-98688600D02*
X166789100Y-98688600D01*
X169148100Y-98688600D02*
X169148100Y-98038600D01*
D18*
%TO.C,X2*%
X140473100Y-95820600D02*
X135393100Y-95820600D01*
X140981100Y-96328600D02*
X140473100Y-95820600D01*
X140981100Y-96328600D02*
X134885100Y-96328600D01*
X140981100Y-96328600D02*
X140981100Y-99076600D01*
X134885100Y-96328600D02*
X135393100Y-95820600D01*
X143975100Y-99076600D02*
X140981100Y-99076600D01*
X143975100Y-99076600D02*
X143975100Y-104194600D01*
X140981100Y-99076600D02*
X134885100Y-99076600D01*
X134885100Y-99076600D02*
X134885100Y-96328600D01*
X134885100Y-99076600D02*
X131891100Y-99076600D01*
X143975100Y-106353600D02*
X143975100Y-110800600D01*
X131891100Y-108893600D02*
X131891100Y-99076600D01*
X131891100Y-110800600D02*
X131891100Y-110798600D01*
X131891100Y-110800600D02*
X143975100Y-110800600D01*
%TO.C,X1*%
X161809100Y-95820600D02*
X156729100Y-95820600D01*
X162317100Y-96328600D02*
X161809100Y-95820600D01*
X162317100Y-96328600D02*
X156221100Y-96328600D01*
X162317100Y-96328600D02*
X162317100Y-99076600D01*
X156221100Y-96328600D02*
X156729100Y-95820600D01*
X165311100Y-99076600D02*
X162317100Y-99076600D01*
X165311100Y-99076600D02*
X165311100Y-104194600D01*
X162317100Y-99076600D02*
X156221100Y-99076600D01*
X156221100Y-99076600D02*
X156221100Y-96328600D01*
X156221100Y-99076600D02*
X153227100Y-99076600D01*
X165311100Y-106353600D02*
X165311100Y-110800600D01*
X153227100Y-108893600D02*
X153227100Y-99076600D01*
X153227100Y-110800600D02*
X153227100Y-110798600D01*
X153227100Y-110800600D02*
X165311100Y-110800600D01*
%TD*%
M02*
