%TF.GenerationSoftware,KiCad,Pcbnew,7.0.6-7.0.6~ubuntu22.04.1*%
%TF.CreationDate,2023-08-05T06:32:02+01:00*%
%TF.ProjectId,working,776f726b-696e-4672-9e6b-696361645f70,rev?*%
%TF.SameCoordinates,Original*%
%TF.FileFunction,AssemblyDrawing,Top*%
%FSLAX46Y46*%
G04 Gerber Fmt 4.6, Leading zero omitted, Abs format (unit mm)*
G04 Created by KiCad (PCBNEW 7.0.6-7.0.6~ubuntu22.04.1) date 2023-08-05 06:32:02*
%MOMM*%
%LPD*%
G01*
G04 APERTURE LIST*
%ADD10C,0.036576*%
%ADD11C,0.101600*%
%ADD12C,0.127000*%
G04 APERTURE END LIST*
D10*
X147357216Y-105807785D02*
X147357216Y-105437961D01*
X147357216Y-105437961D02*
X147445269Y-105437961D01*
X147445269Y-105437961D02*
X147498101Y-105455572D01*
X147498101Y-105455572D02*
X147533323Y-105490793D01*
X147533323Y-105490793D02*
X147550933Y-105526015D01*
X147550933Y-105526015D02*
X147568544Y-105596457D01*
X147568544Y-105596457D02*
X147568544Y-105649289D01*
X147568544Y-105649289D02*
X147550933Y-105719732D01*
X147550933Y-105719732D02*
X147533323Y-105754953D01*
X147533323Y-105754953D02*
X147498101Y-105790175D01*
X147498101Y-105790175D02*
X147445269Y-105807785D01*
X147445269Y-105807785D02*
X147357216Y-105807785D01*
X147709429Y-105790175D02*
X147762261Y-105807785D01*
X147762261Y-105807785D02*
X147850315Y-105807785D01*
X147850315Y-105807785D02*
X147885536Y-105790175D01*
X147885536Y-105790175D02*
X147903147Y-105772564D01*
X147903147Y-105772564D02*
X147920757Y-105737343D01*
X147920757Y-105737343D02*
X147920757Y-105702121D01*
X147920757Y-105702121D02*
X147903147Y-105666900D01*
X147903147Y-105666900D02*
X147885536Y-105649289D01*
X147885536Y-105649289D02*
X147850315Y-105631679D01*
X147850315Y-105631679D02*
X147779872Y-105614068D01*
X147779872Y-105614068D02*
X147744651Y-105596457D01*
X147744651Y-105596457D02*
X147727040Y-105578847D01*
X147727040Y-105578847D02*
X147709429Y-105543625D01*
X147709429Y-105543625D02*
X147709429Y-105508404D01*
X147709429Y-105508404D02*
X147727040Y-105473183D01*
X147727040Y-105473183D02*
X147744651Y-105455572D01*
X147744651Y-105455572D02*
X147779872Y-105437961D01*
X147779872Y-105437961D02*
X147867925Y-105437961D01*
X147867925Y-105437961D02*
X147920757Y-105455572D01*
X148061642Y-105473183D02*
X148079253Y-105455572D01*
X148079253Y-105455572D02*
X148114474Y-105437961D01*
X148114474Y-105437961D02*
X148202528Y-105437961D01*
X148202528Y-105437961D02*
X148237749Y-105455572D01*
X148237749Y-105455572D02*
X148255360Y-105473183D01*
X148255360Y-105473183D02*
X148272970Y-105508404D01*
X148272970Y-105508404D02*
X148272970Y-105543625D01*
X148272970Y-105543625D02*
X148255360Y-105596457D01*
X148255360Y-105596457D02*
X148044032Y-105807785D01*
X148044032Y-105807785D02*
X148272970Y-105807785D01*
X148589962Y-105561236D02*
X148589962Y-105807785D01*
X148501909Y-105420351D02*
X148413855Y-105684511D01*
X148413855Y-105684511D02*
X148642794Y-105684511D01*
X148977396Y-105807785D02*
X148766068Y-105807785D01*
X148871732Y-105807785D02*
X148871732Y-105437961D01*
X148871732Y-105437961D02*
X148836511Y-105490793D01*
X148836511Y-105490793D02*
X148801290Y-105526015D01*
X148801290Y-105526015D02*
X148766068Y-105543625D01*
X149100671Y-105437961D02*
X149329609Y-105437961D01*
X149329609Y-105437961D02*
X149206335Y-105578847D01*
X149206335Y-105578847D02*
X149259167Y-105578847D01*
X149259167Y-105578847D02*
X149294388Y-105596457D01*
X149294388Y-105596457D02*
X149311999Y-105614068D01*
X149311999Y-105614068D02*
X149329609Y-105649289D01*
X149329609Y-105649289D02*
X149329609Y-105737343D01*
X149329609Y-105737343D02*
X149311999Y-105772564D01*
X149311999Y-105772564D02*
X149294388Y-105790175D01*
X149294388Y-105790175D02*
X149259167Y-105807785D01*
X149259167Y-105807785D02*
X149153503Y-105807785D01*
X149153503Y-105807785D02*
X149118281Y-105790175D01*
X149118281Y-105790175D02*
X149100671Y-105772564D01*
D11*
X146918151Y-114380326D02*
X146250494Y-114380326D01*
X146584322Y-114380326D02*
X146584322Y-113211926D01*
X146584322Y-113211926D02*
X146473046Y-113378840D01*
X146473046Y-113378840D02*
X146361770Y-113490116D01*
X146361770Y-113490116D02*
X146250494Y-113545754D01*
X147307618Y-113211926D02*
X148086551Y-114380326D01*
X148086551Y-113211926D02*
X147307618Y-114380326D01*
X149032399Y-113601392D02*
X149032399Y-114380326D01*
X148754208Y-113156288D02*
X148476018Y-113990859D01*
X148476018Y-113990859D02*
X149199313Y-113990859D01*
X149644418Y-113935221D02*
X150534628Y-113935221D01*
X151758665Y-114269049D02*
X151703027Y-114324688D01*
X151703027Y-114324688D02*
X151536113Y-114380326D01*
X151536113Y-114380326D02*
X151424837Y-114380326D01*
X151424837Y-114380326D02*
X151257922Y-114324688D01*
X151257922Y-114324688D02*
X151146646Y-114213411D01*
X151146646Y-114213411D02*
X151091008Y-114102135D01*
X151091008Y-114102135D02*
X151035370Y-113879583D01*
X151035370Y-113879583D02*
X151035370Y-113712668D01*
X151035370Y-113712668D02*
X151091008Y-113490116D01*
X151091008Y-113490116D02*
X151146646Y-113378840D01*
X151146646Y-113378840D02*
X151257922Y-113267564D01*
X151257922Y-113267564D02*
X151424837Y-113211926D01*
X151424837Y-113211926D02*
X151536113Y-113211926D01*
X151536113Y-113211926D02*
X151703027Y-113267564D01*
X151703027Y-113267564D02*
X151758665Y-113323202D01*
X152815789Y-114380326D02*
X152259408Y-114380326D01*
X152259408Y-114380326D02*
X152259408Y-113211926D01*
X153205256Y-113768307D02*
X153594723Y-113768307D01*
X153761637Y-114380326D02*
X153205256Y-114380326D01*
X153205256Y-114380326D02*
X153205256Y-113211926D01*
X153205256Y-113211926D02*
X153761637Y-113211926D01*
X154206742Y-114046497D02*
X154763123Y-114046497D01*
X154095466Y-114380326D02*
X154484932Y-113211926D01*
X154484932Y-113211926D02*
X154874399Y-114380326D01*
X155263866Y-114380326D02*
X155263866Y-113211926D01*
X155263866Y-113211926D02*
X155931523Y-114380326D01*
X155931523Y-114380326D02*
X155931523Y-113211926D01*
X156877371Y-113768307D02*
X157044285Y-113823945D01*
X157044285Y-113823945D02*
X157099923Y-113879583D01*
X157099923Y-113879583D02*
X157155561Y-113990859D01*
X157155561Y-113990859D02*
X157155561Y-114157773D01*
X157155561Y-114157773D02*
X157099923Y-114269049D01*
X157099923Y-114269049D02*
X157044285Y-114324688D01*
X157044285Y-114324688D02*
X156933009Y-114380326D01*
X156933009Y-114380326D02*
X156487904Y-114380326D01*
X156487904Y-114380326D02*
X156487904Y-113211926D01*
X156487904Y-113211926D02*
X156877371Y-113211926D01*
X156877371Y-113211926D02*
X156988647Y-113267564D01*
X156988647Y-113267564D02*
X157044285Y-113323202D01*
X157044285Y-113323202D02*
X157099923Y-113434478D01*
X157099923Y-113434478D02*
X157099923Y-113545754D01*
X157099923Y-113545754D02*
X157044285Y-113657030D01*
X157044285Y-113657030D02*
X156988647Y-113712668D01*
X156988647Y-113712668D02*
X156877371Y-113768307D01*
X156877371Y-113768307D02*
X156487904Y-113768307D01*
X157656304Y-114380326D02*
X157656304Y-113211926D01*
X158824704Y-113267564D02*
X158713428Y-113211926D01*
X158713428Y-113211926D02*
X158546514Y-113211926D01*
X158546514Y-113211926D02*
X158379599Y-113267564D01*
X158379599Y-113267564D02*
X158268323Y-113378840D01*
X158268323Y-113378840D02*
X158212685Y-113490116D01*
X158212685Y-113490116D02*
X158157047Y-113712668D01*
X158157047Y-113712668D02*
X158157047Y-113879583D01*
X158157047Y-113879583D02*
X158212685Y-114102135D01*
X158212685Y-114102135D02*
X158268323Y-114213411D01*
X158268323Y-114213411D02*
X158379599Y-114324688D01*
X158379599Y-114324688D02*
X158546514Y-114380326D01*
X158546514Y-114380326D02*
X158657790Y-114380326D01*
X158657790Y-114380326D02*
X158824704Y-114324688D01*
X158824704Y-114324688D02*
X158880342Y-114269049D01*
X158880342Y-114269049D02*
X158880342Y-113879583D01*
X158880342Y-113879583D02*
X158657790Y-113879583D01*
D12*
%TO.C,U1*%
X150381100Y-103541600D02*
X150381100Y-107481600D01*
X146621100Y-103541600D02*
X150381100Y-103541600D01*
X150381100Y-107481600D02*
X146621100Y-107481600D01*
X146621100Y-107481600D02*
X146621100Y-103541600D01*
X150024706Y-106811600D02*
G75*
G03*
X150024706Y-106811600I-223606J0D01*
G01*
%TO.C,CN1*%
G36*
X144945100Y-111607600D02*
G01*
X144437100Y-111607600D01*
X144437100Y-111099600D01*
X144945100Y-111099600D01*
X144945100Y-111607600D01*
G37*
G36*
X147485100Y-111607600D02*
G01*
X146977100Y-111607600D01*
X146977100Y-111099600D01*
X147485100Y-111099600D01*
X147485100Y-111607600D01*
G37*
G36*
X150025100Y-111607600D02*
G01*
X149517100Y-111607600D01*
X149517100Y-111099600D01*
X150025100Y-111099600D01*
X150025100Y-111607600D01*
G37*
G36*
X152565100Y-111607600D02*
G01*
X152057100Y-111607600D01*
X152057100Y-111099600D01*
X152565100Y-111099600D01*
X152565100Y-111607600D01*
G37*
%TD*%
M02*
