%TF.GenerationSoftware,KiCad,Pcbnew,7.0.6-7.0.6~ubuntu22.04.1*%
%TF.CreationDate,2023-08-06T19:27:56+01:00*%
%TF.ProjectId,working,776f726b-696e-4672-9e6b-696361645f70,rev?*%
%TF.SameCoordinates,Original*%
%TF.FileFunction,Legend,Top*%
%TF.FilePolarity,Positive*%
%FSLAX46Y46*%
G04 Gerber Fmt 4.6, Leading zero omitted, Abs format (unit mm)*
G04 Created by KiCad (PCBNEW 7.0.6-7.0.6~ubuntu22.04.1) date 2023-08-06 19:27:56*
%MOMM*%
%LPD*%
G01*
G04 APERTURE LIST*
%ADD10C,0.101600*%
%ADD11C,0.032512*%
%ADD12C,0.146304*%
%ADD13C,0.203200*%
G04 APERTURE END LIST*
D10*
X137922788Y-108914105D02*
X137978426Y-108747191D01*
X137978426Y-108747191D02*
X137978426Y-108469000D01*
X137978426Y-108469000D02*
X137922788Y-108357724D01*
X137922788Y-108357724D02*
X137867149Y-108302086D01*
X137867149Y-108302086D02*
X137755873Y-108246448D01*
X137755873Y-108246448D02*
X137644597Y-108246448D01*
X137644597Y-108246448D02*
X137533321Y-108302086D01*
X137533321Y-108302086D02*
X137477683Y-108357724D01*
X137477683Y-108357724D02*
X137422045Y-108469000D01*
X137422045Y-108469000D02*
X137366407Y-108691553D01*
X137366407Y-108691553D02*
X137310768Y-108802829D01*
X137310768Y-108802829D02*
X137255130Y-108858467D01*
X137255130Y-108858467D02*
X137143854Y-108914105D01*
X137143854Y-108914105D02*
X137032578Y-108914105D01*
X137032578Y-108914105D02*
X136921302Y-108858467D01*
X136921302Y-108858467D02*
X136865664Y-108802829D01*
X136865664Y-108802829D02*
X136810026Y-108691553D01*
X136810026Y-108691553D02*
X136810026Y-108413362D01*
X136810026Y-108413362D02*
X136865664Y-108246448D01*
X137978426Y-107745705D02*
X136810026Y-107745705D01*
X136810026Y-107745705D02*
X136810026Y-107467515D01*
X136810026Y-107467515D02*
X136865664Y-107300600D01*
X136865664Y-107300600D02*
X136976940Y-107189324D01*
X136976940Y-107189324D02*
X137088216Y-107133686D01*
X137088216Y-107133686D02*
X137310768Y-107078048D01*
X137310768Y-107078048D02*
X137477683Y-107078048D01*
X137477683Y-107078048D02*
X137700235Y-107133686D01*
X137700235Y-107133686D02*
X137811511Y-107189324D01*
X137811511Y-107189324D02*
X137922788Y-107300600D01*
X137922788Y-107300600D02*
X137978426Y-107467515D01*
X137978426Y-107467515D02*
X137978426Y-107745705D01*
X137533321Y-106577305D02*
X137533321Y-105687096D01*
X137199492Y-105130715D02*
X137533321Y-104240506D01*
X137533321Y-104240506D02*
X137867149Y-105130715D01*
X137978426Y-103684125D02*
X137199492Y-103684125D01*
X137310768Y-103684125D02*
X137255130Y-103628487D01*
X137255130Y-103628487D02*
X137199492Y-103517211D01*
X137199492Y-103517211D02*
X137199492Y-103350296D01*
X137199492Y-103350296D02*
X137255130Y-103239020D01*
X137255130Y-103239020D02*
X137366407Y-103183382D01*
X137366407Y-103183382D02*
X137978426Y-103183382D01*
X137366407Y-103183382D02*
X137255130Y-103127744D01*
X137255130Y-103127744D02*
X137199492Y-103016468D01*
X137199492Y-103016468D02*
X137199492Y-102849554D01*
X137199492Y-102849554D02*
X137255130Y-102738277D01*
X137255130Y-102738277D02*
X137366407Y-102682639D01*
X137366407Y-102682639D02*
X137978426Y-102682639D01*
X137978426Y-102126258D02*
X137199492Y-102126258D01*
X136810026Y-102126258D02*
X136865664Y-102181896D01*
X136865664Y-102181896D02*
X136921302Y-102126258D01*
X136921302Y-102126258D02*
X136865664Y-102070620D01*
X136865664Y-102070620D02*
X136810026Y-102126258D01*
X136810026Y-102126258D02*
X136921302Y-102126258D01*
X137922788Y-101069134D02*
X137978426Y-101180410D01*
X137978426Y-101180410D02*
X137978426Y-101402963D01*
X137978426Y-101402963D02*
X137922788Y-101514239D01*
X137922788Y-101514239D02*
X137867149Y-101569877D01*
X137867149Y-101569877D02*
X137755873Y-101625515D01*
X137755873Y-101625515D02*
X137422045Y-101625515D01*
X137422045Y-101625515D02*
X137310768Y-101569877D01*
X137310768Y-101569877D02*
X137255130Y-101514239D01*
X137255130Y-101514239D02*
X137199492Y-101402963D01*
X137199492Y-101402963D02*
X137199492Y-101180410D01*
X137199492Y-101180410D02*
X137255130Y-101069134D01*
X137978426Y-100568391D02*
X137199492Y-100568391D01*
X137422045Y-100568391D02*
X137310768Y-100512753D01*
X137310768Y-100512753D02*
X137255130Y-100457115D01*
X137255130Y-100457115D02*
X137199492Y-100345839D01*
X137199492Y-100345839D02*
X137199492Y-100234562D01*
X137978426Y-99678182D02*
X137922788Y-99789458D01*
X137922788Y-99789458D02*
X137867149Y-99845096D01*
X137867149Y-99845096D02*
X137755873Y-99900734D01*
X137755873Y-99900734D02*
X137422045Y-99900734D01*
X137422045Y-99900734D02*
X137310768Y-99845096D01*
X137310768Y-99845096D02*
X137255130Y-99789458D01*
X137255130Y-99789458D02*
X137199492Y-99678182D01*
X137199492Y-99678182D02*
X137199492Y-99511267D01*
X137199492Y-99511267D02*
X137255130Y-99399991D01*
X137255130Y-99399991D02*
X137310768Y-99344353D01*
X137310768Y-99344353D02*
X137422045Y-99288715D01*
X137422045Y-99288715D02*
X137755873Y-99288715D01*
X137755873Y-99288715D02*
X137867149Y-99344353D01*
X137867149Y-99344353D02*
X137922788Y-99399991D01*
X137922788Y-99399991D02*
X137978426Y-99511267D01*
X137978426Y-99511267D02*
X137978426Y-99678182D01*
X137922788Y-98843610D02*
X137978426Y-98676696D01*
X137978426Y-98676696D02*
X137978426Y-98398505D01*
X137978426Y-98398505D02*
X137922788Y-98287229D01*
X137922788Y-98287229D02*
X137867149Y-98231591D01*
X137867149Y-98231591D02*
X137755873Y-98175953D01*
X137755873Y-98175953D02*
X137644597Y-98175953D01*
X137644597Y-98175953D02*
X137533321Y-98231591D01*
X137533321Y-98231591D02*
X137477683Y-98287229D01*
X137477683Y-98287229D02*
X137422045Y-98398505D01*
X137422045Y-98398505D02*
X137366407Y-98621058D01*
X137366407Y-98621058D02*
X137310768Y-98732334D01*
X137310768Y-98732334D02*
X137255130Y-98787972D01*
X137255130Y-98787972D02*
X137143854Y-98843610D01*
X137143854Y-98843610D02*
X137032578Y-98843610D01*
X137032578Y-98843610D02*
X136921302Y-98787972D01*
X136921302Y-98787972D02*
X136865664Y-98732334D01*
X136865664Y-98732334D02*
X136810026Y-98621058D01*
X136810026Y-98621058D02*
X136810026Y-98342867D01*
X136810026Y-98342867D02*
X136865664Y-98175953D01*
X137978426Y-97675210D02*
X136810026Y-97675210D01*
X136810026Y-97675210D02*
X136810026Y-97397020D01*
X136810026Y-97397020D02*
X136865664Y-97230105D01*
X136865664Y-97230105D02*
X136976940Y-97118829D01*
X136976940Y-97118829D02*
X137088216Y-97063191D01*
X137088216Y-97063191D02*
X137310768Y-97007553D01*
X137310768Y-97007553D02*
X137477683Y-97007553D01*
X137477683Y-97007553D02*
X137700235Y-97063191D01*
X137700235Y-97063191D02*
X137811511Y-97118829D01*
X137811511Y-97118829D02*
X137922788Y-97230105D01*
X137922788Y-97230105D02*
X137978426Y-97397020D01*
X137978426Y-97397020D02*
X137978426Y-97675210D01*
D11*
X138102756Y-112153253D02*
X137889105Y-112153253D01*
X137995930Y-112153253D02*
X137995930Y-111779365D01*
X137995930Y-111779365D02*
X137960322Y-111832777D01*
X137960322Y-111832777D02*
X137924714Y-111868386D01*
X137924714Y-111868386D02*
X137889105Y-111886190D01*
X138262993Y-112153253D02*
X138262993Y-111903994D01*
X138262993Y-111939602D02*
X138280798Y-111921798D01*
X138280798Y-111921798D02*
X138316406Y-111903994D01*
X138316406Y-111903994D02*
X138369819Y-111903994D01*
X138369819Y-111903994D02*
X138405427Y-111921798D01*
X138405427Y-111921798D02*
X138423231Y-111957407D01*
X138423231Y-111957407D02*
X138423231Y-112153253D01*
X138423231Y-111957407D02*
X138441035Y-111921798D01*
X138441035Y-111921798D02*
X138476644Y-111903994D01*
X138476644Y-111903994D02*
X138530056Y-111903994D01*
X138530056Y-111903994D02*
X138565665Y-111921798D01*
X138565665Y-111921798D02*
X138583469Y-111957407D01*
X138583469Y-111957407D02*
X138583469Y-112153253D01*
X138761510Y-112153253D02*
X138761510Y-111903994D01*
X138761510Y-111939602D02*
X138779315Y-111921798D01*
X138779315Y-111921798D02*
X138814923Y-111903994D01*
X138814923Y-111903994D02*
X138868336Y-111903994D01*
X138868336Y-111903994D02*
X138903944Y-111921798D01*
X138903944Y-111921798D02*
X138921748Y-111957407D01*
X138921748Y-111957407D02*
X138921748Y-112153253D01*
X138921748Y-111957407D02*
X138939552Y-111921798D01*
X138939552Y-111921798D02*
X138975161Y-111903994D01*
X138975161Y-111903994D02*
X139028573Y-111903994D01*
X139028573Y-111903994D02*
X139064182Y-111921798D01*
X139064182Y-111921798D02*
X139081986Y-111957407D01*
X139081986Y-111957407D02*
X139081986Y-112153253D01*
D12*
X143376896Y-99960650D02*
X143345158Y-99992388D01*
X143345158Y-99992388D02*
X143249944Y-100024125D01*
X143249944Y-100024125D02*
X143186468Y-100024125D01*
X143186468Y-100024125D02*
X143091255Y-99992388D01*
X143091255Y-99992388D02*
X143027779Y-99928912D01*
X143027779Y-99928912D02*
X142996041Y-99865436D01*
X142996041Y-99865436D02*
X142964303Y-99738484D01*
X142964303Y-99738484D02*
X142964303Y-99643271D01*
X142964303Y-99643271D02*
X142996041Y-99516319D01*
X142996041Y-99516319D02*
X143027779Y-99452843D01*
X143027779Y-99452843D02*
X143091255Y-99389367D01*
X143091255Y-99389367D02*
X143186468Y-99357629D01*
X143186468Y-99357629D02*
X143249944Y-99357629D01*
X143249944Y-99357629D02*
X143345158Y-99389367D01*
X143345158Y-99389367D02*
X143376896Y-99421105D01*
X143662537Y-100024125D02*
X143662537Y-99357629D01*
X143662537Y-99357629D02*
X144043392Y-100024125D01*
X144043392Y-100024125D02*
X144043392Y-99357629D01*
X144709888Y-100024125D02*
X144329033Y-100024125D01*
X144519461Y-100024125D02*
X144519461Y-99357629D01*
X144519461Y-99357629D02*
X144455985Y-99452843D01*
X144455985Y-99452843D02*
X144392509Y-99516319D01*
X144392509Y-99516319D02*
X144329033Y-99548057D01*
D11*
X157711556Y-102247253D02*
X157497905Y-102247253D01*
X157604730Y-102247253D02*
X157604730Y-101873365D01*
X157604730Y-101873365D02*
X157569122Y-101926777D01*
X157569122Y-101926777D02*
X157533514Y-101962386D01*
X157533514Y-101962386D02*
X157497905Y-101980190D01*
X157871793Y-102247253D02*
X157871793Y-101997994D01*
X157871793Y-102033602D02*
X157889598Y-102015798D01*
X157889598Y-102015798D02*
X157925206Y-101997994D01*
X157925206Y-101997994D02*
X157978619Y-101997994D01*
X157978619Y-101997994D02*
X158014227Y-102015798D01*
X158014227Y-102015798D02*
X158032031Y-102051407D01*
X158032031Y-102051407D02*
X158032031Y-102247253D01*
X158032031Y-102051407D02*
X158049835Y-102015798D01*
X158049835Y-102015798D02*
X158085444Y-101997994D01*
X158085444Y-101997994D02*
X158138856Y-101997994D01*
X158138856Y-101997994D02*
X158174465Y-102015798D01*
X158174465Y-102015798D02*
X158192269Y-102051407D01*
X158192269Y-102051407D02*
X158192269Y-102247253D01*
X158370310Y-102247253D02*
X158370310Y-101997994D01*
X158370310Y-102033602D02*
X158388115Y-102015798D01*
X158388115Y-102015798D02*
X158423723Y-101997994D01*
X158423723Y-101997994D02*
X158477136Y-101997994D01*
X158477136Y-101997994D02*
X158512744Y-102015798D01*
X158512744Y-102015798D02*
X158530548Y-102051407D01*
X158530548Y-102051407D02*
X158530548Y-102247253D01*
X158530548Y-102051407D02*
X158548352Y-102015798D01*
X158548352Y-102015798D02*
X158583961Y-101997994D01*
X158583961Y-101997994D02*
X158637373Y-101997994D01*
X158637373Y-101997994D02*
X158672982Y-102015798D01*
X158672982Y-102015798D02*
X158690786Y-102051407D01*
X158690786Y-102051407D02*
X158690786Y-102247253D01*
D13*
%TO.C,CN1*%
X141581100Y-97483300D02*
X141581100Y-109343300D01*
X142373100Y-97483300D02*
X141581100Y-97483300D01*
X143281100Y-110983300D02*
X152981100Y-110983300D01*
X148215100Y-97483300D02*
X144883100Y-97483300D01*
X155581100Y-97483300D02*
X150979100Y-97483300D01*
X155581100Y-110043300D02*
X155581100Y-97483300D01*
%TO.C,U$5*%
G36*
X157224300Y-108641500D02*
G01*
X155948000Y-108641500D01*
X155948000Y-108635200D01*
X157224300Y-108635200D01*
X157224300Y-108641500D01*
G37*
G36*
X157237000Y-108647900D02*
G01*
X155948000Y-108647900D01*
X155948000Y-108641500D01*
X157237000Y-108641500D01*
X157237000Y-108647900D01*
G37*
G36*
X157243400Y-108654200D02*
G01*
X155948000Y-108654200D01*
X155948000Y-108647900D01*
X157243400Y-108647900D01*
X157243400Y-108654200D01*
G37*
G36*
X157249700Y-108660600D02*
G01*
X155948000Y-108660600D01*
X155948000Y-108654200D01*
X157249700Y-108654200D01*
X157249700Y-108660600D01*
G37*
G36*
X157262400Y-108666900D02*
G01*
X155948000Y-108666900D01*
X155948000Y-108660600D01*
X157262400Y-108660600D01*
X157262400Y-108666900D01*
G37*
G36*
X157186200Y-108616100D02*
G01*
X155954300Y-108616100D01*
X155954300Y-108609800D01*
X157186200Y-108609800D01*
X157186200Y-108616100D01*
G37*
G36*
X157198900Y-108622500D02*
G01*
X155954300Y-108622500D01*
X155954300Y-108616100D01*
X157198900Y-108616100D01*
X157198900Y-108622500D01*
G37*
G36*
X157205300Y-108628800D02*
G01*
X155954300Y-108628800D01*
X155954300Y-108622500D01*
X157205300Y-108622500D01*
X157205300Y-108628800D01*
G37*
G36*
X157218000Y-108635200D02*
G01*
X155954300Y-108635200D01*
X155954300Y-108628800D01*
X157218000Y-108628800D01*
X157218000Y-108635200D01*
G37*
G36*
X157268800Y-108673300D02*
G01*
X155954300Y-108673300D01*
X155954300Y-108666900D01*
X157268800Y-108666900D01*
X157268800Y-108673300D01*
G37*
G36*
X157275100Y-108679600D02*
G01*
X155954300Y-108679600D01*
X155954300Y-108673300D01*
X157275100Y-108673300D01*
X157275100Y-108679600D01*
G37*
G36*
X157281500Y-108686000D02*
G01*
X155954300Y-108686000D01*
X155954300Y-108679600D01*
X157281500Y-108679600D01*
X157281500Y-108686000D01*
G37*
G36*
X157287800Y-108692300D02*
G01*
X155954300Y-108692300D01*
X155954300Y-108686000D01*
X157287800Y-108686000D01*
X157287800Y-108692300D01*
G37*
G36*
X157148100Y-108597100D02*
G01*
X155960700Y-108597100D01*
X155960700Y-108590700D01*
X157148100Y-108590700D01*
X157148100Y-108597100D01*
G37*
G36*
X157160800Y-108603400D02*
G01*
X155960700Y-108603400D01*
X155960700Y-108597100D01*
X157160800Y-108597100D01*
X157160800Y-108603400D01*
G37*
G36*
X157173500Y-108609800D02*
G01*
X155960700Y-108609800D01*
X155960700Y-108603400D01*
X157173500Y-108603400D01*
X157173500Y-108609800D01*
G37*
G36*
X157294200Y-108698700D02*
G01*
X155960700Y-108698700D01*
X155960700Y-108692300D01*
X157294200Y-108692300D01*
X157294200Y-108698700D01*
G37*
G36*
X157300500Y-108705000D02*
G01*
X155960700Y-108705000D01*
X155960700Y-108698700D01*
X157300500Y-108698700D01*
X157300500Y-108705000D01*
G37*
G36*
X157135400Y-108590700D02*
G01*
X155967000Y-108590700D01*
X155967000Y-108584400D01*
X157135400Y-108584400D01*
X157135400Y-108590700D01*
G37*
G36*
X157306900Y-108711400D02*
G01*
X155967000Y-108711400D01*
X155967000Y-108705000D01*
X157306900Y-108705000D01*
X157306900Y-108711400D01*
G37*
G36*
X157313200Y-108717700D02*
G01*
X155967000Y-108717700D01*
X155967000Y-108711400D01*
X157313200Y-108711400D01*
X157313200Y-108717700D01*
G37*
G36*
X157103700Y-108578000D02*
G01*
X155973400Y-108578000D01*
X155973400Y-108571700D01*
X157103700Y-108571700D01*
X157103700Y-108578000D01*
G37*
G36*
X157122700Y-108584400D02*
G01*
X155973400Y-108584400D01*
X155973400Y-108578000D01*
X157122700Y-108578000D01*
X157122700Y-108584400D01*
G37*
G36*
X157319600Y-108724100D02*
G01*
X155973400Y-108724100D01*
X155973400Y-108717700D01*
X157319600Y-108717700D01*
X157319600Y-108724100D01*
G37*
G36*
X157325900Y-108730400D02*
G01*
X155973400Y-108730400D01*
X155973400Y-108724100D01*
X157325900Y-108724100D01*
X157325900Y-108730400D01*
G37*
G36*
X157091000Y-108571700D02*
G01*
X155979700Y-108571700D01*
X155979700Y-108565300D01*
X157091000Y-108565300D01*
X157091000Y-108571700D01*
G37*
G36*
X157332300Y-108736800D02*
G01*
X155979700Y-108736800D01*
X155979700Y-108730400D01*
X157332300Y-108730400D01*
X157332300Y-108736800D01*
G37*
G36*
X157338600Y-108743100D02*
G01*
X155979700Y-108743100D01*
X155979700Y-108736800D01*
X157338600Y-108736800D01*
X157338600Y-108743100D01*
G37*
G36*
X157052900Y-108559000D02*
G01*
X155986100Y-108559000D01*
X155986100Y-108552600D01*
X157052900Y-108552600D01*
X157052900Y-108559000D01*
G37*
G36*
X157071900Y-108565300D02*
G01*
X155986100Y-108565300D01*
X155986100Y-108559000D01*
X157071900Y-108559000D01*
X157071900Y-108565300D01*
G37*
G36*
X157345000Y-108749500D02*
G01*
X155986100Y-108749500D01*
X155986100Y-108743100D01*
X157345000Y-108743100D01*
X157345000Y-108749500D01*
G37*
G36*
X157033800Y-108552600D02*
G01*
X155992400Y-108552600D01*
X155992400Y-108546300D01*
X157033800Y-108546300D01*
X157033800Y-108552600D01*
G37*
G36*
X157345000Y-108755800D02*
G01*
X155992400Y-108755800D01*
X155992400Y-108749500D01*
X157345000Y-108749500D01*
X157345000Y-108755800D01*
G37*
G36*
X157008400Y-108546300D02*
G01*
X155998800Y-108546300D01*
X155998800Y-108539900D01*
X157008400Y-108539900D01*
X157008400Y-108546300D01*
G37*
G36*
X157351300Y-108762200D02*
G01*
X155998800Y-108762200D01*
X155998800Y-108755800D01*
X157351300Y-108755800D01*
X157351300Y-108762200D01*
G37*
G36*
X157357700Y-108768500D02*
G01*
X155998800Y-108768500D01*
X155998800Y-108762200D01*
X157357700Y-108762200D01*
X157357700Y-108768500D01*
G37*
G36*
X157364000Y-108774900D02*
G01*
X156005100Y-108774900D01*
X156005100Y-108768500D01*
X157364000Y-108768500D01*
X157364000Y-108774900D01*
G37*
G36*
X156983000Y-108539900D02*
G01*
X156011500Y-108539900D01*
X156011500Y-108533600D01*
X156983000Y-108533600D01*
X156983000Y-108539900D01*
G37*
G36*
X157364000Y-108781200D02*
G01*
X156011500Y-108781200D01*
X156011500Y-108774900D01*
X157364000Y-108774900D01*
X157364000Y-108781200D01*
G37*
G36*
X157370400Y-108787600D02*
G01*
X156011500Y-108787600D01*
X156011500Y-108781200D01*
X157370400Y-108781200D01*
X157370400Y-108787600D01*
G37*
G36*
X157376700Y-108793900D02*
G01*
X156017800Y-108793900D01*
X156017800Y-108787600D01*
X157376700Y-108787600D01*
X157376700Y-108793900D01*
G37*
G36*
X156951300Y-108533600D02*
G01*
X156024200Y-108533600D01*
X156024200Y-108527200D01*
X156951300Y-108527200D01*
X156951300Y-108533600D01*
G37*
G36*
X157376700Y-108800300D02*
G01*
X156024200Y-108800300D01*
X156024200Y-108793900D01*
X157376700Y-108793900D01*
X157376700Y-108800300D01*
G37*
G36*
X157383100Y-108806600D02*
G01*
X156030500Y-108806600D01*
X156030500Y-108800300D01*
X157383100Y-108800300D01*
X157383100Y-108806600D01*
G37*
G36*
X157389400Y-108813000D02*
G01*
X156030500Y-108813000D01*
X156030500Y-108806600D01*
X157389400Y-108806600D01*
X157389400Y-108813000D01*
G37*
G36*
X156913200Y-108527200D02*
G01*
X156036900Y-108527200D01*
X156036900Y-108520900D01*
X156913200Y-108520900D01*
X156913200Y-108527200D01*
G37*
G36*
X157389400Y-108819300D02*
G01*
X156036900Y-108819300D01*
X156036900Y-108813000D01*
X157389400Y-108813000D01*
X157389400Y-108819300D01*
G37*
G36*
X157395800Y-108825700D02*
G01*
X156043200Y-108825700D01*
X156043200Y-108819300D01*
X157395800Y-108819300D01*
X157395800Y-108825700D01*
G37*
G36*
X157402100Y-108832000D02*
G01*
X156043200Y-108832000D01*
X156043200Y-108825700D01*
X157402100Y-108825700D01*
X157402100Y-108832000D01*
G37*
G36*
X157402100Y-108838400D02*
G01*
X156049600Y-108838400D01*
X156049600Y-108832000D01*
X157402100Y-108832000D01*
X157402100Y-108838400D01*
G37*
G36*
X157408500Y-108844700D02*
G01*
X156055900Y-108844700D01*
X156055900Y-108838400D01*
X157408500Y-108838400D01*
X157408500Y-108844700D01*
G37*
G36*
X156856000Y-108520900D02*
G01*
X156062300Y-108520900D01*
X156062300Y-108514500D01*
X156856000Y-108514500D01*
X156856000Y-108520900D01*
G37*
G36*
X157414800Y-108851100D02*
G01*
X156062300Y-108851100D01*
X156062300Y-108844700D01*
X157414800Y-108844700D01*
X157414800Y-108851100D01*
G37*
G36*
X157414800Y-108857400D02*
G01*
X156062300Y-108857400D01*
X156062300Y-108851100D01*
X157414800Y-108851100D01*
X157414800Y-108857400D01*
G37*
G36*
X157421200Y-108863800D02*
G01*
X156068600Y-108863800D01*
X156068600Y-108857400D01*
X157421200Y-108857400D01*
X157421200Y-108863800D01*
G37*
G36*
X157427500Y-108870100D02*
G01*
X156075000Y-108870100D01*
X156075000Y-108863800D01*
X157427500Y-108863800D01*
X157427500Y-108870100D01*
G37*
G36*
X157757700Y-108876500D02*
G01*
X156081300Y-108876500D01*
X156081300Y-108870100D01*
X157757700Y-108870100D01*
X157757700Y-108876500D01*
G37*
G36*
X157757700Y-108882800D02*
G01*
X156081300Y-108882800D01*
X156081300Y-108876500D01*
X157757700Y-108876500D01*
X157757700Y-108882800D01*
G37*
G36*
X157751400Y-108889200D02*
G01*
X156087700Y-108889200D01*
X156087700Y-108882800D01*
X157751400Y-108882800D01*
X157751400Y-108889200D01*
G37*
G36*
X157751400Y-108895500D02*
G01*
X156094000Y-108895500D01*
X156094000Y-108889200D01*
X157751400Y-108889200D01*
X157751400Y-108895500D01*
G37*
G36*
X157745000Y-108901900D02*
G01*
X156100400Y-108901900D01*
X156100400Y-108895500D01*
X157745000Y-108895500D01*
X157745000Y-108901900D01*
G37*
G36*
X157745000Y-108908200D02*
G01*
X156100400Y-108908200D01*
X156100400Y-108901900D01*
X157745000Y-108901900D01*
X157745000Y-108908200D01*
G37*
G36*
X157745000Y-108914600D02*
G01*
X156106700Y-108914600D01*
X156106700Y-108908200D01*
X157745000Y-108908200D01*
X157745000Y-108914600D01*
G37*
G36*
X157738700Y-108920900D02*
G01*
X156113100Y-108920900D01*
X156113100Y-108914600D01*
X157738700Y-108914600D01*
X157738700Y-108920900D01*
G37*
G36*
X157738700Y-108927300D02*
G01*
X156113100Y-108927300D01*
X156113100Y-108920900D01*
X157738700Y-108920900D01*
X157738700Y-108927300D01*
G37*
G36*
X157732300Y-108933600D02*
G01*
X156119400Y-108933600D01*
X156119400Y-108927300D01*
X157732300Y-108927300D01*
X157732300Y-108933600D01*
G37*
G36*
X157732300Y-108940000D02*
G01*
X156125800Y-108940000D01*
X156125800Y-108933600D01*
X157732300Y-108933600D01*
X157732300Y-108940000D01*
G37*
G36*
X157732300Y-108946300D02*
G01*
X156132100Y-108946300D01*
X156132100Y-108940000D01*
X157732300Y-108940000D01*
X157732300Y-108946300D01*
G37*
G36*
X157732300Y-108952700D02*
G01*
X156132100Y-108952700D01*
X156132100Y-108946300D01*
X157732300Y-108946300D01*
X157732300Y-108952700D01*
G37*
G36*
X157726000Y-108959000D02*
G01*
X156138500Y-108959000D01*
X156138500Y-108952700D01*
X157726000Y-108952700D01*
X157726000Y-108959000D01*
G37*
G36*
X157726000Y-108965400D02*
G01*
X156144800Y-108965400D01*
X156144800Y-108959000D01*
X157726000Y-108959000D01*
X157726000Y-108965400D01*
G37*
G36*
X157726000Y-108971700D02*
G01*
X156151200Y-108971700D01*
X156151200Y-108965400D01*
X157726000Y-108965400D01*
X157726000Y-108971700D01*
G37*
G36*
X157719600Y-108978100D02*
G01*
X156151200Y-108978100D01*
X156151200Y-108971700D01*
X157719600Y-108971700D01*
X157719600Y-108978100D01*
G37*
G36*
X157719600Y-108984400D02*
G01*
X156157500Y-108984400D01*
X156157500Y-108978100D01*
X157719600Y-108978100D01*
X157719600Y-108984400D01*
G37*
G36*
X157719600Y-108990800D02*
G01*
X156163900Y-108990800D01*
X156163900Y-108984400D01*
X157719600Y-108984400D01*
X157719600Y-108990800D01*
G37*
G36*
X157719600Y-108997100D02*
G01*
X156170200Y-108997100D01*
X156170200Y-108990800D01*
X157719600Y-108990800D01*
X157719600Y-108997100D01*
G37*
G36*
X157719600Y-109003500D02*
G01*
X156170200Y-109003500D01*
X156170200Y-108997100D01*
X157719600Y-108997100D01*
X157719600Y-109003500D01*
G37*
G36*
X157713300Y-109009800D02*
G01*
X156176600Y-109009800D01*
X156176600Y-109003500D01*
X157713300Y-109003500D01*
X157713300Y-109009800D01*
G37*
G36*
X157713300Y-109016200D02*
G01*
X156182900Y-109016200D01*
X156182900Y-109009800D01*
X157713300Y-109009800D01*
X157713300Y-109016200D01*
G37*
G36*
X157713300Y-109022500D02*
G01*
X156189300Y-109022500D01*
X156189300Y-109016200D01*
X157713300Y-109016200D01*
X157713300Y-109022500D01*
G37*
G36*
X157713300Y-109028900D02*
G01*
X156189300Y-109028900D01*
X156189300Y-109022500D01*
X157713300Y-109022500D01*
X157713300Y-109028900D01*
G37*
G36*
X157713300Y-109035200D02*
G01*
X156195600Y-109035200D01*
X156195600Y-109028900D01*
X157713300Y-109028900D01*
X157713300Y-109035200D01*
G37*
G36*
X157713300Y-109041600D02*
G01*
X156202000Y-109041600D01*
X156202000Y-109035200D01*
X157713300Y-109035200D01*
X157713300Y-109041600D01*
G37*
G36*
X157706900Y-109047900D02*
G01*
X156208300Y-109047900D01*
X156208300Y-109041600D01*
X157706900Y-109041600D01*
X157706900Y-109047900D01*
G37*
G36*
X157706900Y-109054300D02*
G01*
X156208300Y-109054300D01*
X156208300Y-109047900D01*
X157706900Y-109047900D01*
X157706900Y-109054300D01*
G37*
G36*
X157706900Y-109060600D02*
G01*
X156214700Y-109060600D01*
X156214700Y-109054300D01*
X157706900Y-109054300D01*
X157706900Y-109060600D01*
G37*
G36*
X157706900Y-109067000D02*
G01*
X156221000Y-109067000D01*
X156221000Y-109060600D01*
X157706900Y-109060600D01*
X157706900Y-109067000D01*
G37*
G36*
X157706900Y-109073300D02*
G01*
X156221000Y-109073300D01*
X156221000Y-109067000D01*
X157706900Y-109067000D01*
X157706900Y-109073300D01*
G37*
G36*
X157706900Y-109079700D02*
G01*
X156227400Y-109079700D01*
X156227400Y-109073300D01*
X157706900Y-109073300D01*
X157706900Y-109079700D01*
G37*
G36*
X157706900Y-109086000D02*
G01*
X156233700Y-109086000D01*
X156233700Y-109079700D01*
X157706900Y-109079700D01*
X157706900Y-109086000D01*
G37*
G36*
X157706900Y-109092400D02*
G01*
X156240100Y-109092400D01*
X156240100Y-109086000D01*
X157706900Y-109086000D01*
X157706900Y-109092400D01*
G37*
G36*
X157706900Y-109098700D02*
G01*
X156240100Y-109098700D01*
X156240100Y-109092400D01*
X157706900Y-109092400D01*
X157706900Y-109098700D01*
G37*
G36*
X157706900Y-109105100D02*
G01*
X156246400Y-109105100D01*
X156246400Y-109098700D01*
X157706900Y-109098700D01*
X157706900Y-109105100D01*
G37*
G36*
X157706900Y-109111400D02*
G01*
X156252800Y-109111400D01*
X156252800Y-109105100D01*
X157706900Y-109105100D01*
X157706900Y-109111400D01*
G37*
G36*
X157706900Y-109117800D02*
G01*
X156259100Y-109117800D01*
X156259100Y-109111400D01*
X157706900Y-109111400D01*
X157706900Y-109117800D01*
G37*
G36*
X157706900Y-109124100D02*
G01*
X156259100Y-109124100D01*
X156259100Y-109117800D01*
X157706900Y-109117800D01*
X157706900Y-109124100D01*
G37*
G36*
X157706900Y-109130500D02*
G01*
X156265500Y-109130500D01*
X156265500Y-109124100D01*
X157706900Y-109124100D01*
X157706900Y-109130500D01*
G37*
G36*
X157173500Y-109136800D02*
G01*
X156271800Y-109136800D01*
X156271800Y-109130500D01*
X157173500Y-109130500D01*
X157173500Y-109136800D01*
G37*
G36*
X157141800Y-109143200D02*
G01*
X156278200Y-109143200D01*
X156278200Y-109136800D01*
X157141800Y-109136800D01*
X157141800Y-109143200D01*
G37*
G36*
X157122700Y-109149500D02*
G01*
X156278200Y-109149500D01*
X156278200Y-109143200D01*
X157122700Y-109143200D01*
X157122700Y-109149500D01*
G37*
G36*
X157116400Y-109155900D02*
G01*
X156284500Y-109155900D01*
X156284500Y-109149500D01*
X157116400Y-109149500D01*
X157116400Y-109155900D01*
G37*
G36*
X157110000Y-109162200D02*
G01*
X156290900Y-109162200D01*
X156290900Y-109155900D01*
X157110000Y-109155900D01*
X157110000Y-109162200D01*
G37*
G36*
X157103700Y-109168600D02*
G01*
X156290900Y-109168600D01*
X156290900Y-109162200D01*
X157103700Y-109162200D01*
X157103700Y-109168600D01*
G37*
G36*
X157103700Y-109174900D02*
G01*
X156297200Y-109174900D01*
X156297200Y-109168600D01*
X157103700Y-109168600D01*
X157103700Y-109174900D01*
G37*
G36*
X156951300Y-110794200D02*
G01*
X156297200Y-110794200D01*
X156297200Y-110787800D01*
X156951300Y-110787800D01*
X156951300Y-110794200D01*
G37*
G36*
X156932200Y-110800500D02*
G01*
X156297200Y-110800500D01*
X156297200Y-110794200D01*
X156932200Y-110794200D01*
X156932200Y-110800500D01*
G37*
G36*
X156913200Y-110806900D02*
G01*
X156297200Y-110806900D01*
X156297200Y-110800500D01*
X156913200Y-110800500D01*
X156913200Y-110806900D01*
G37*
G36*
X156894100Y-110813200D02*
G01*
X156297200Y-110813200D01*
X156297200Y-110806900D01*
X156894100Y-110806900D01*
X156894100Y-110813200D01*
G37*
G36*
X156875100Y-110819600D02*
G01*
X156297200Y-110819600D01*
X156297200Y-110813200D01*
X156875100Y-110813200D01*
X156875100Y-110819600D01*
G37*
G36*
X156856000Y-110825900D02*
G01*
X156297200Y-110825900D01*
X156297200Y-110819600D01*
X156856000Y-110819600D01*
X156856000Y-110825900D01*
G37*
G36*
X156830600Y-110832300D02*
G01*
X156297200Y-110832300D01*
X156297200Y-110825900D01*
X156830600Y-110825900D01*
X156830600Y-110832300D01*
G37*
G36*
X156817900Y-110838600D02*
G01*
X156297200Y-110838600D01*
X156297200Y-110832300D01*
X156817900Y-110832300D01*
X156817900Y-110838600D01*
G37*
G36*
X156792500Y-110845000D02*
G01*
X156297200Y-110845000D01*
X156297200Y-110838600D01*
X156792500Y-110838600D01*
X156792500Y-110845000D01*
G37*
G36*
X156779800Y-110851300D02*
G01*
X156297200Y-110851300D01*
X156297200Y-110845000D01*
X156779800Y-110845000D01*
X156779800Y-110851300D01*
G37*
G36*
X156760800Y-110857700D02*
G01*
X156297200Y-110857700D01*
X156297200Y-110851300D01*
X156760800Y-110851300D01*
X156760800Y-110857700D01*
G37*
G36*
X157097300Y-109181300D02*
G01*
X156303600Y-109181300D01*
X156303600Y-109174900D01*
X157097300Y-109174900D01*
X157097300Y-109181300D01*
G37*
G36*
X157046500Y-110762400D02*
G01*
X156303600Y-110762400D01*
X156303600Y-110756100D01*
X157046500Y-110756100D01*
X157046500Y-110762400D01*
G37*
G36*
X157027500Y-110768800D02*
G01*
X156303600Y-110768800D01*
X156303600Y-110762400D01*
X157027500Y-110762400D01*
X157027500Y-110768800D01*
G37*
G36*
X157008400Y-110775100D02*
G01*
X156303600Y-110775100D01*
X156303600Y-110768800D01*
X157008400Y-110768800D01*
X157008400Y-110775100D01*
G37*
G36*
X156989400Y-110781500D02*
G01*
X156303600Y-110781500D01*
X156303600Y-110775100D01*
X156989400Y-110775100D01*
X156989400Y-110781500D01*
G37*
G36*
X156970300Y-110787800D02*
G01*
X156303600Y-110787800D01*
X156303600Y-110781500D01*
X156970300Y-110781500D01*
X156970300Y-110787800D01*
G37*
G36*
X156741700Y-110864000D02*
G01*
X156303600Y-110864000D01*
X156303600Y-110857700D01*
X156741700Y-110857700D01*
X156741700Y-110864000D01*
G37*
G36*
X156716300Y-110870400D02*
G01*
X156303600Y-110870400D01*
X156303600Y-110864000D01*
X156716300Y-110864000D01*
X156716300Y-110870400D01*
G37*
G36*
X157097300Y-109187600D02*
G01*
X156309900Y-109187600D01*
X156309900Y-109181300D01*
X157097300Y-109181300D01*
X157097300Y-109187600D01*
G37*
G36*
X157097300Y-109194000D02*
G01*
X156309900Y-109194000D01*
X156309900Y-109187600D01*
X157097300Y-109187600D01*
X157097300Y-109194000D01*
G37*
G36*
X157103700Y-110743400D02*
G01*
X156309900Y-110743400D01*
X156309900Y-110737000D01*
X157103700Y-110737000D01*
X157103700Y-110743400D01*
G37*
G36*
X157084600Y-110749700D02*
G01*
X156309900Y-110749700D01*
X156309900Y-110743400D01*
X157084600Y-110743400D01*
X157084600Y-110749700D01*
G37*
G36*
X157065600Y-110756100D02*
G01*
X156309900Y-110756100D01*
X156309900Y-110749700D01*
X157065600Y-110749700D01*
X157065600Y-110756100D01*
G37*
G36*
X156703600Y-110876700D02*
G01*
X156309900Y-110876700D01*
X156309900Y-110870400D01*
X156703600Y-110870400D01*
X156703600Y-110876700D01*
G37*
G36*
X156684600Y-110883100D02*
G01*
X156309900Y-110883100D01*
X156309900Y-110876700D01*
X156684600Y-110876700D01*
X156684600Y-110883100D01*
G37*
G36*
X157097300Y-109200300D02*
G01*
X156316300Y-109200300D01*
X156316300Y-109194000D01*
X157097300Y-109194000D01*
X157097300Y-109200300D01*
G37*
G36*
X157160800Y-110724300D02*
G01*
X156316300Y-110724300D01*
X156316300Y-110718000D01*
X157160800Y-110718000D01*
X157160800Y-110724300D01*
G37*
G36*
X157141800Y-110730700D02*
G01*
X156316300Y-110730700D01*
X156316300Y-110724300D01*
X157141800Y-110724300D01*
X157141800Y-110730700D01*
G37*
G36*
X157122700Y-110737000D02*
G01*
X156316300Y-110737000D01*
X156316300Y-110730700D01*
X157122700Y-110730700D01*
X157122700Y-110737000D01*
G37*
G36*
X156659200Y-110889400D02*
G01*
X156316300Y-110889400D01*
X156316300Y-110883100D01*
X156659200Y-110883100D01*
X156659200Y-110889400D01*
G37*
G36*
X156646500Y-110895800D02*
G01*
X156316300Y-110895800D01*
X156316300Y-110889400D01*
X156646500Y-110889400D01*
X156646500Y-110895800D01*
G37*
G36*
X157097300Y-109206700D02*
G01*
X156322600Y-109206700D01*
X156322600Y-109200300D01*
X157097300Y-109200300D01*
X157097300Y-109206700D01*
G37*
G36*
X157211600Y-110705300D02*
G01*
X156322600Y-110705300D01*
X156322600Y-110698900D01*
X157211600Y-110698900D01*
X157211600Y-110705300D01*
G37*
G36*
X157192600Y-110711600D02*
G01*
X156322600Y-110711600D01*
X156322600Y-110705300D01*
X157192600Y-110705300D01*
X157192600Y-110711600D01*
G37*
G36*
X157179900Y-110718000D02*
G01*
X156322600Y-110718000D01*
X156322600Y-110711600D01*
X157179900Y-110711600D01*
X157179900Y-110718000D01*
G37*
G36*
X156621100Y-110902100D02*
G01*
X156322600Y-110902100D01*
X156322600Y-110895800D01*
X156621100Y-110895800D01*
X156621100Y-110902100D01*
G37*
G36*
X157103700Y-109213000D02*
G01*
X156329000Y-109213000D01*
X156329000Y-109206700D01*
X157103700Y-109206700D01*
X157103700Y-109213000D01*
G37*
G36*
X157103700Y-109219400D02*
G01*
X156329000Y-109219400D01*
X156329000Y-109213000D01*
X157103700Y-109213000D01*
X157103700Y-109219400D01*
G37*
G36*
X157249700Y-110686200D02*
G01*
X156329000Y-110686200D01*
X156329000Y-110679900D01*
X157249700Y-110679900D01*
X157249700Y-110686200D01*
G37*
G36*
X157237000Y-110692600D02*
G01*
X156329000Y-110692600D01*
X156329000Y-110686200D01*
X157237000Y-110686200D01*
X157237000Y-110692600D01*
G37*
G36*
X157224300Y-110698900D02*
G01*
X156329000Y-110698900D01*
X156329000Y-110692600D01*
X157224300Y-110692600D01*
X157224300Y-110698900D01*
G37*
G36*
X156608400Y-110908500D02*
G01*
X156329000Y-110908500D01*
X156329000Y-110902100D01*
X156608400Y-110902100D01*
X156608400Y-110908500D01*
G37*
G36*
X157103700Y-109225700D02*
G01*
X156335300Y-109225700D01*
X156335300Y-109219400D01*
X157103700Y-109219400D01*
X157103700Y-109225700D01*
G37*
G36*
X157287800Y-110667200D02*
G01*
X156335300Y-110667200D01*
X156335300Y-110660800D01*
X157287800Y-110660800D01*
X157287800Y-110667200D01*
G37*
G36*
X157275100Y-110673500D02*
G01*
X156335300Y-110673500D01*
X156335300Y-110667200D01*
X157275100Y-110667200D01*
X157275100Y-110673500D01*
G37*
G36*
X157262400Y-110679900D02*
G01*
X156335300Y-110679900D01*
X156335300Y-110673500D01*
X157262400Y-110673500D01*
X157262400Y-110679900D01*
G37*
G36*
X156583000Y-110914800D02*
G01*
X156335300Y-110914800D01*
X156335300Y-110908500D01*
X156583000Y-110908500D01*
X156583000Y-110914800D01*
G37*
G36*
X157110000Y-109232100D02*
G01*
X156341700Y-109232100D01*
X156341700Y-109225700D01*
X157110000Y-109225700D01*
X157110000Y-109232100D01*
G37*
G36*
X157325900Y-110648100D02*
G01*
X156341700Y-110648100D01*
X156341700Y-110641800D01*
X157325900Y-110641800D01*
X157325900Y-110648100D01*
G37*
G36*
X157313200Y-110654500D02*
G01*
X156341700Y-110654500D01*
X156341700Y-110648100D01*
X157313200Y-110648100D01*
X157313200Y-110654500D01*
G37*
G36*
X157300500Y-110660800D02*
G01*
X156341700Y-110660800D01*
X156341700Y-110654500D01*
X157300500Y-110654500D01*
X157300500Y-110660800D01*
G37*
G36*
X156563900Y-110921200D02*
G01*
X156341700Y-110921200D01*
X156341700Y-110914800D01*
X156563900Y-110914800D01*
X156563900Y-110921200D01*
G37*
G36*
X157110000Y-109238400D02*
G01*
X156348000Y-109238400D01*
X156348000Y-109232100D01*
X157110000Y-109232100D01*
X157110000Y-109238400D01*
G37*
G36*
X157116400Y-109244800D02*
G01*
X156348000Y-109244800D01*
X156348000Y-109238400D01*
X157116400Y-109238400D01*
X157116400Y-109244800D01*
G37*
G36*
X157364000Y-110622700D02*
G01*
X156348000Y-110622700D01*
X156348000Y-110616400D01*
X157364000Y-110616400D01*
X157364000Y-110622700D01*
G37*
G36*
X157351300Y-110629100D02*
G01*
X156348000Y-110629100D01*
X156348000Y-110622700D01*
X157351300Y-110622700D01*
X157351300Y-110629100D01*
G37*
G36*
X157345000Y-110635400D02*
G01*
X156348000Y-110635400D01*
X156348000Y-110629100D01*
X157345000Y-110629100D01*
X157345000Y-110635400D01*
G37*
G36*
X157332300Y-110641800D02*
G01*
X156348000Y-110641800D01*
X156348000Y-110635400D01*
X157332300Y-110635400D01*
X157332300Y-110641800D01*
G37*
G36*
X156544900Y-110927500D02*
G01*
X156348000Y-110927500D01*
X156348000Y-110921200D01*
X156544900Y-110921200D01*
X156544900Y-110927500D01*
G37*
G36*
X157122700Y-109251100D02*
G01*
X156354400Y-109251100D01*
X156354400Y-109244800D01*
X157122700Y-109244800D01*
X157122700Y-109251100D01*
G37*
G36*
X157376700Y-110610000D02*
G01*
X156354400Y-110610000D01*
X156354400Y-110603700D01*
X157376700Y-110603700D01*
X157376700Y-110610000D01*
G37*
G36*
X157370400Y-110616400D02*
G01*
X156354400Y-110616400D01*
X156354400Y-110610000D01*
X157370400Y-110610000D01*
X157370400Y-110616400D01*
G37*
G36*
X157122700Y-109257500D02*
G01*
X156360700Y-109257500D01*
X156360700Y-109251100D01*
X157122700Y-109251100D01*
X157122700Y-109257500D01*
G37*
G36*
X157129100Y-109263800D02*
G01*
X156360700Y-109263800D01*
X156360700Y-109257500D01*
X157129100Y-109257500D01*
X157129100Y-109263800D01*
G37*
G36*
X157414800Y-110584600D02*
G01*
X156360700Y-110584600D01*
X156360700Y-110578300D01*
X157414800Y-110578300D01*
X157414800Y-110584600D01*
G37*
G36*
X157408500Y-110591000D02*
G01*
X156360700Y-110591000D01*
X156360700Y-110584600D01*
X157408500Y-110584600D01*
X157408500Y-110591000D01*
G37*
G36*
X157395800Y-110597300D02*
G01*
X156360700Y-110597300D01*
X156360700Y-110591000D01*
X157395800Y-110591000D01*
X157395800Y-110597300D01*
G37*
G36*
X157389400Y-110603700D02*
G01*
X156360700Y-110603700D01*
X156360700Y-110597300D01*
X157389400Y-110597300D01*
X157389400Y-110603700D01*
G37*
G36*
X156525800Y-110933900D02*
G01*
X156360700Y-110933900D01*
X156360700Y-110927500D01*
X156525800Y-110927500D01*
X156525800Y-110933900D01*
G37*
G36*
X157135400Y-109270200D02*
G01*
X156367100Y-109270200D01*
X156367100Y-109263800D01*
X157135400Y-109263800D01*
X157135400Y-109270200D01*
G37*
G36*
X157427500Y-110571900D02*
G01*
X156367100Y-110571900D01*
X156367100Y-110565600D01*
X157427500Y-110565600D01*
X157427500Y-110571900D01*
G37*
G36*
X157421200Y-110578300D02*
G01*
X156367100Y-110578300D01*
X156367100Y-110571900D01*
X157421200Y-110571900D01*
X157421200Y-110578300D01*
G37*
G36*
X156506800Y-110940200D02*
G01*
X156367100Y-110940200D01*
X156367100Y-110933900D01*
X156506800Y-110933900D01*
X156506800Y-110940200D01*
G37*
G36*
X157141800Y-109276500D02*
G01*
X156373400Y-109276500D01*
X156373400Y-109270200D01*
X157141800Y-109270200D01*
X157141800Y-109276500D01*
G37*
G36*
X157459300Y-110546500D02*
G01*
X156373400Y-110546500D01*
X156373400Y-110540200D01*
X157459300Y-110540200D01*
X157459300Y-110546500D01*
G37*
G36*
X157452900Y-110552900D02*
G01*
X156373400Y-110552900D01*
X156373400Y-110546500D01*
X157452900Y-110546500D01*
X157452900Y-110552900D01*
G37*
G36*
X157440200Y-110559200D02*
G01*
X156373400Y-110559200D01*
X156373400Y-110552900D01*
X157440200Y-110552900D01*
X157440200Y-110559200D01*
G37*
G36*
X157433900Y-110565600D02*
G01*
X156373400Y-110565600D01*
X156373400Y-110559200D01*
X157433900Y-110559200D01*
X157433900Y-110565600D01*
G37*
G36*
X157141800Y-109282900D02*
G01*
X156379800Y-109282900D01*
X156379800Y-109276500D01*
X157141800Y-109276500D01*
X157141800Y-109282900D01*
G37*
G36*
X157154500Y-109289200D02*
G01*
X156379800Y-109289200D01*
X156379800Y-109282900D01*
X157154500Y-109282900D01*
X157154500Y-109289200D01*
G37*
G36*
X157472000Y-110533800D02*
G01*
X156379800Y-110533800D01*
X156379800Y-110527500D01*
X157472000Y-110527500D01*
X157472000Y-110533800D01*
G37*
G36*
X157465600Y-110540200D02*
G01*
X156379800Y-110540200D01*
X156379800Y-110533800D01*
X157465600Y-110533800D01*
X157465600Y-110540200D01*
G37*
G36*
X156481400Y-110946600D02*
G01*
X156379800Y-110946600D01*
X156379800Y-110940200D01*
X156481400Y-110940200D01*
X156481400Y-110946600D01*
G37*
G36*
X157154500Y-109295600D02*
G01*
X156386100Y-109295600D01*
X156386100Y-109289200D01*
X157154500Y-109289200D01*
X157154500Y-109295600D01*
G37*
G36*
X157491000Y-110508400D02*
G01*
X156386100Y-110508400D01*
X156386100Y-110502100D01*
X157491000Y-110502100D01*
X157491000Y-110508400D01*
G37*
G36*
X157484700Y-110514800D02*
G01*
X156386100Y-110514800D01*
X156386100Y-110508400D01*
X157484700Y-110508400D01*
X157484700Y-110514800D01*
G37*
G36*
X157484700Y-110521100D02*
G01*
X156386100Y-110521100D01*
X156386100Y-110514800D01*
X157484700Y-110514800D01*
X157484700Y-110521100D01*
G37*
G36*
X157472000Y-110527500D02*
G01*
X156386100Y-110527500D01*
X156386100Y-110521100D01*
X157472000Y-110521100D01*
X157472000Y-110527500D01*
G37*
G36*
X157167200Y-109301900D02*
G01*
X156392500Y-109301900D01*
X156392500Y-109295600D01*
X157167200Y-109295600D01*
X157167200Y-109301900D01*
G37*
G36*
X157510100Y-110489400D02*
G01*
X156392500Y-110489400D01*
X156392500Y-110483000D01*
X157510100Y-110483000D01*
X157510100Y-110489400D01*
G37*
G36*
X157503700Y-110495700D02*
G01*
X156392500Y-110495700D01*
X156392500Y-110489400D01*
X157503700Y-110489400D01*
X157503700Y-110495700D01*
G37*
G36*
X157497400Y-110502100D02*
G01*
X156392500Y-110502100D01*
X156392500Y-110495700D01*
X157497400Y-110495700D01*
X157497400Y-110502100D01*
G37*
G36*
X157173500Y-109308300D02*
G01*
X156398800Y-109308300D01*
X156398800Y-109301900D01*
X157173500Y-109301900D01*
X157173500Y-109308300D01*
G37*
G36*
X157179900Y-109314600D02*
G01*
X156398800Y-109314600D01*
X156398800Y-109308300D01*
X157179900Y-109308300D01*
X157179900Y-109314600D01*
G37*
G36*
X157522800Y-110470300D02*
G01*
X156398800Y-110470300D01*
X156398800Y-110464000D01*
X157522800Y-110464000D01*
X157522800Y-110470300D01*
G37*
G36*
X157516400Y-110476700D02*
G01*
X156398800Y-110476700D01*
X156398800Y-110470300D01*
X157516400Y-110470300D01*
X157516400Y-110476700D01*
G37*
G36*
X157516400Y-110483000D02*
G01*
X156398800Y-110483000D01*
X156398800Y-110476700D01*
X157516400Y-110476700D01*
X157516400Y-110483000D01*
G37*
G36*
X156462300Y-110952900D02*
G01*
X156398800Y-110952900D01*
X156398800Y-110946600D01*
X156462300Y-110946600D01*
X156462300Y-110952900D01*
G37*
G36*
X157186200Y-109321000D02*
G01*
X156405200Y-109321000D01*
X156405200Y-109314600D01*
X157186200Y-109314600D01*
X157186200Y-109321000D01*
G37*
G36*
X157535500Y-110451300D02*
G01*
X156405200Y-110451300D01*
X156405200Y-110444900D01*
X157535500Y-110444900D01*
X157535500Y-110451300D01*
G37*
G36*
X157535500Y-110457600D02*
G01*
X156405200Y-110457600D01*
X156405200Y-110451300D01*
X157535500Y-110451300D01*
X157535500Y-110457600D01*
G37*
G36*
X157529100Y-110464000D02*
G01*
X156405200Y-110464000D01*
X156405200Y-110457600D01*
X157529100Y-110457600D01*
X157529100Y-110464000D01*
G37*
G36*
X157192600Y-109327300D02*
G01*
X156411500Y-109327300D01*
X156411500Y-109321000D01*
X157192600Y-109321000D01*
X157192600Y-109327300D01*
G37*
G36*
X157548200Y-110432200D02*
G01*
X156411500Y-110432200D01*
X156411500Y-110425900D01*
X157548200Y-110425900D01*
X157548200Y-110432200D01*
G37*
G36*
X157548200Y-110438600D02*
G01*
X156411500Y-110438600D01*
X156411500Y-110432200D01*
X157548200Y-110432200D01*
X157548200Y-110438600D01*
G37*
G36*
X157541800Y-110444900D02*
G01*
X156411500Y-110444900D01*
X156411500Y-110438600D01*
X157541800Y-110438600D01*
X157541800Y-110444900D01*
G37*
G36*
X157198900Y-109333700D02*
G01*
X156417900Y-109333700D01*
X156417900Y-109327300D01*
X157198900Y-109327300D01*
X157198900Y-109333700D01*
G37*
G36*
X157211600Y-109340000D02*
G01*
X156417900Y-109340000D01*
X156417900Y-109333700D01*
X157211600Y-109333700D01*
X157211600Y-109340000D01*
G37*
G36*
X157560900Y-110413200D02*
G01*
X156417900Y-110413200D01*
X156417900Y-110406800D01*
X157560900Y-110406800D01*
X157560900Y-110413200D01*
G37*
G36*
X157554500Y-110419500D02*
G01*
X156417900Y-110419500D01*
X156417900Y-110413200D01*
X157554500Y-110413200D01*
X157554500Y-110419500D01*
G37*
G36*
X157554500Y-110425900D02*
G01*
X156417900Y-110425900D01*
X156417900Y-110419500D01*
X157554500Y-110419500D01*
X157554500Y-110425900D01*
G37*
G36*
X157218000Y-109346400D02*
G01*
X156424200Y-109346400D01*
X156424200Y-109340000D01*
X157218000Y-109340000D01*
X157218000Y-109346400D01*
G37*
G36*
X157573600Y-110394100D02*
G01*
X156424200Y-110394100D01*
X156424200Y-110387800D01*
X157573600Y-110387800D01*
X157573600Y-110394100D01*
G37*
G36*
X157567200Y-110400500D02*
G01*
X156424200Y-110400500D01*
X156424200Y-110394100D01*
X157567200Y-110394100D01*
X157567200Y-110400500D01*
G37*
G36*
X157567200Y-110406800D02*
G01*
X156424200Y-110406800D01*
X156424200Y-110400500D01*
X157567200Y-110400500D01*
X157567200Y-110406800D01*
G37*
G36*
X157230700Y-109352700D02*
G01*
X156430600Y-109352700D01*
X156430600Y-109346400D01*
X157230700Y-109346400D01*
X157230700Y-109352700D01*
G37*
G36*
X157579900Y-110375100D02*
G01*
X156430600Y-110375100D01*
X156430600Y-110368700D01*
X157579900Y-110368700D01*
X157579900Y-110375100D01*
G37*
G36*
X157579900Y-110381400D02*
G01*
X156430600Y-110381400D01*
X156430600Y-110375100D01*
X157579900Y-110375100D01*
X157579900Y-110381400D01*
G37*
G36*
X157573600Y-110387800D02*
G01*
X156430600Y-110387800D01*
X156430600Y-110381400D01*
X157573600Y-110381400D01*
X157573600Y-110387800D01*
G37*
G36*
X157237000Y-109359100D02*
G01*
X156436900Y-109359100D01*
X156436900Y-109352700D01*
X157237000Y-109352700D01*
X157237000Y-109359100D01*
G37*
G36*
X157586300Y-110356000D02*
G01*
X156436900Y-110356000D01*
X156436900Y-110349700D01*
X157586300Y-110349700D01*
X157586300Y-110356000D01*
G37*
G36*
X157586300Y-110362400D02*
G01*
X156436900Y-110362400D01*
X156436900Y-110356000D01*
X157586300Y-110356000D01*
X157586300Y-110362400D01*
G37*
G36*
X157586300Y-110368700D02*
G01*
X156436900Y-110368700D01*
X156436900Y-110362400D01*
X157586300Y-110362400D01*
X157586300Y-110368700D01*
G37*
G36*
X157249700Y-109365400D02*
G01*
X156443300Y-109365400D01*
X156443300Y-109359100D01*
X157249700Y-109359100D01*
X157249700Y-109365400D01*
G37*
G36*
X157599000Y-110337000D02*
G01*
X156443300Y-110337000D01*
X156443300Y-110330600D01*
X157599000Y-110330600D01*
X157599000Y-110337000D01*
G37*
G36*
X157592600Y-110343300D02*
G01*
X156443300Y-110343300D01*
X156443300Y-110337000D01*
X157592600Y-110337000D01*
X157592600Y-110343300D01*
G37*
G36*
X157592600Y-110349700D02*
G01*
X156443300Y-110349700D01*
X156443300Y-110343300D01*
X157592600Y-110343300D01*
X157592600Y-110349700D01*
G37*
G36*
X157262400Y-109371800D02*
G01*
X156449600Y-109371800D01*
X156449600Y-109365400D01*
X157262400Y-109365400D01*
X157262400Y-109371800D01*
G37*
G36*
X157605300Y-110317900D02*
G01*
X156449600Y-110317900D01*
X156449600Y-110311600D01*
X157605300Y-110311600D01*
X157605300Y-110317900D01*
G37*
G36*
X157599000Y-110324300D02*
G01*
X156449600Y-110324300D01*
X156449600Y-110317900D01*
X157599000Y-110317900D01*
X157599000Y-110324300D01*
G37*
G36*
X157599000Y-110330600D02*
G01*
X156449600Y-110330600D01*
X156449600Y-110324300D01*
X157599000Y-110324300D01*
X157599000Y-110330600D01*
G37*
G36*
X157268800Y-109378100D02*
G01*
X156456000Y-109378100D01*
X156456000Y-109371800D01*
X157268800Y-109371800D01*
X157268800Y-109378100D01*
G37*
G36*
X157611700Y-110298900D02*
G01*
X156456000Y-110298900D01*
X156456000Y-110292500D01*
X157611700Y-110292500D01*
X157611700Y-110298900D01*
G37*
G36*
X157605300Y-110305200D02*
G01*
X156456000Y-110305200D01*
X156456000Y-110298900D01*
X157605300Y-110298900D01*
X157605300Y-110305200D01*
G37*
G36*
X157605300Y-110311600D02*
G01*
X156456000Y-110311600D01*
X156456000Y-110305200D01*
X157605300Y-110305200D01*
X157605300Y-110311600D01*
G37*
G36*
X157281500Y-109384500D02*
G01*
X156462300Y-109384500D01*
X156462300Y-109378100D01*
X157281500Y-109378100D01*
X157281500Y-109384500D01*
G37*
G36*
X157611700Y-110279800D02*
G01*
X156462300Y-110279800D01*
X156462300Y-110273500D01*
X157611700Y-110273500D01*
X157611700Y-110279800D01*
G37*
G36*
X157611700Y-110286200D02*
G01*
X156462300Y-110286200D01*
X156462300Y-110279800D01*
X157611700Y-110279800D01*
X157611700Y-110286200D01*
G37*
G36*
X157611700Y-110292500D02*
G01*
X156462300Y-110292500D01*
X156462300Y-110286200D01*
X157611700Y-110286200D01*
X157611700Y-110292500D01*
G37*
G36*
X157294200Y-109390800D02*
G01*
X156468700Y-109390800D01*
X156468700Y-109384500D01*
X157294200Y-109384500D01*
X157294200Y-109390800D01*
G37*
G36*
X157618000Y-110260800D02*
G01*
X156468700Y-110260800D01*
X156468700Y-110254400D01*
X157618000Y-110254400D01*
X157618000Y-110260800D01*
G37*
G36*
X157618000Y-110267100D02*
G01*
X156468700Y-110267100D01*
X156468700Y-110260800D01*
X157618000Y-110260800D01*
X157618000Y-110267100D01*
G37*
G36*
X157618000Y-110273500D02*
G01*
X156468700Y-110273500D01*
X156468700Y-110267100D01*
X157618000Y-110267100D01*
X157618000Y-110273500D01*
G37*
G36*
X157306900Y-109397200D02*
G01*
X156475000Y-109397200D01*
X156475000Y-109390800D01*
X157306900Y-109390800D01*
X157306900Y-109397200D01*
G37*
G36*
X157319600Y-109403500D02*
G01*
X156475000Y-109403500D01*
X156475000Y-109397200D01*
X157319600Y-109397200D01*
X157319600Y-109403500D01*
G37*
G36*
X157624400Y-110241700D02*
G01*
X156475000Y-110241700D01*
X156475000Y-110235400D01*
X157624400Y-110235400D01*
X157624400Y-110241700D01*
G37*
G36*
X157624400Y-110248100D02*
G01*
X156475000Y-110248100D01*
X156475000Y-110241700D01*
X157624400Y-110241700D01*
X157624400Y-110248100D01*
G37*
G36*
X157624400Y-110254400D02*
G01*
X156475000Y-110254400D01*
X156475000Y-110248100D01*
X157624400Y-110248100D01*
X157624400Y-110254400D01*
G37*
G36*
X157630700Y-110222700D02*
G01*
X156481400Y-110222700D01*
X156481400Y-110216300D01*
X157630700Y-110216300D01*
X157630700Y-110222700D01*
G37*
G36*
X157630700Y-110229000D02*
G01*
X156481400Y-110229000D01*
X156481400Y-110222700D01*
X157630700Y-110222700D01*
X157630700Y-110229000D01*
G37*
G36*
X157624400Y-110235400D02*
G01*
X156481400Y-110235400D01*
X156481400Y-110229000D01*
X157624400Y-110229000D01*
X157624400Y-110235400D01*
G37*
G36*
X157332300Y-109409900D02*
G01*
X156487700Y-109409900D01*
X156487700Y-109403500D01*
X157332300Y-109403500D01*
X157332300Y-109409900D01*
G37*
G36*
X157637100Y-110203600D02*
G01*
X156487700Y-110203600D01*
X156487700Y-110197300D01*
X157637100Y-110197300D01*
X157637100Y-110203600D01*
G37*
G36*
X157637100Y-110210000D02*
G01*
X156487700Y-110210000D01*
X156487700Y-110203600D01*
X157637100Y-110203600D01*
X157637100Y-110210000D01*
G37*
G36*
X157630700Y-110216300D02*
G01*
X156487700Y-110216300D01*
X156487700Y-110210000D01*
X157630700Y-110210000D01*
X157630700Y-110216300D01*
G37*
G36*
X157351300Y-109416200D02*
G01*
X156494100Y-109416200D01*
X156494100Y-109409900D01*
X157351300Y-109409900D01*
X157351300Y-109416200D01*
G37*
G36*
X158691200Y-110184600D02*
G01*
X156494100Y-110184600D01*
X156494100Y-110178200D01*
X158691200Y-110178200D01*
X158691200Y-110184600D01*
G37*
G36*
X158691200Y-110190900D02*
G01*
X156494100Y-110190900D01*
X156494100Y-110184600D01*
X158691200Y-110184600D01*
X158691200Y-110190900D01*
G37*
G36*
X158691200Y-110197300D02*
G01*
X156494100Y-110197300D01*
X156494100Y-110190900D01*
X158691200Y-110190900D01*
X158691200Y-110197300D01*
G37*
G36*
X157364000Y-109422600D02*
G01*
X156500400Y-109422600D01*
X156500400Y-109416200D01*
X157364000Y-109416200D01*
X157364000Y-109422600D01*
G37*
G36*
X158684800Y-110165500D02*
G01*
X156500400Y-110165500D01*
X156500400Y-110159200D01*
X158684800Y-110159200D01*
X158684800Y-110165500D01*
G37*
G36*
X158684800Y-110171900D02*
G01*
X156500400Y-110171900D01*
X156500400Y-110165500D01*
X158684800Y-110165500D01*
X158684800Y-110171900D01*
G37*
G36*
X158684800Y-110178200D02*
G01*
X156500400Y-110178200D01*
X156500400Y-110171900D01*
X158684800Y-110171900D01*
X158684800Y-110178200D01*
G37*
G36*
X157383100Y-109428900D02*
G01*
X156506800Y-109428900D01*
X156506800Y-109422600D01*
X157383100Y-109422600D01*
X157383100Y-109428900D01*
G37*
G36*
X158037100Y-110146500D02*
G01*
X156506800Y-110146500D01*
X156506800Y-110140100D01*
X158037100Y-110140100D01*
X158037100Y-110146500D01*
G37*
G36*
X158678500Y-110152800D02*
G01*
X156506800Y-110152800D01*
X156506800Y-110146500D01*
X158678500Y-110146500D01*
X158678500Y-110152800D01*
G37*
G36*
X158678500Y-110159200D02*
G01*
X156506800Y-110159200D01*
X156506800Y-110152800D01*
X158678500Y-110152800D01*
X158678500Y-110159200D01*
G37*
G36*
X157402100Y-109435300D02*
G01*
X156513100Y-109435300D01*
X156513100Y-109428900D01*
X157402100Y-109428900D01*
X157402100Y-109435300D01*
G37*
G36*
X157986300Y-110121100D02*
G01*
X156513100Y-110121100D01*
X156513100Y-110114700D01*
X157986300Y-110114700D01*
X157986300Y-110121100D01*
G37*
G36*
X157999000Y-110127400D02*
G01*
X156513100Y-110127400D01*
X156513100Y-110121100D01*
X157999000Y-110121100D01*
X157999000Y-110127400D01*
G37*
G36*
X158005400Y-110133800D02*
G01*
X156513100Y-110133800D01*
X156513100Y-110127400D01*
X158005400Y-110127400D01*
X158005400Y-110133800D01*
G37*
G36*
X158018100Y-110140100D02*
G01*
X156513100Y-110140100D01*
X156513100Y-110133800D01*
X158018100Y-110133800D01*
X158018100Y-110140100D01*
G37*
G36*
X157433900Y-109441600D02*
G01*
X156519500Y-109441600D01*
X156519500Y-109435300D01*
X157433900Y-109435300D01*
X157433900Y-109441600D01*
G37*
G36*
X157973600Y-110108400D02*
G01*
X156519500Y-110108400D01*
X156519500Y-110102000D01*
X157973600Y-110102000D01*
X157973600Y-110108400D01*
G37*
G36*
X157980000Y-110114700D02*
G01*
X156519500Y-110114700D01*
X156519500Y-110108400D01*
X157980000Y-110108400D01*
X157980000Y-110114700D01*
G37*
G36*
X157465600Y-109448000D02*
G01*
X156525800Y-109448000D01*
X156525800Y-109441600D01*
X157465600Y-109441600D01*
X157465600Y-109448000D01*
G37*
G36*
X157948200Y-110083000D02*
G01*
X156525800Y-110083000D01*
X156525800Y-110076600D01*
X157948200Y-110076600D01*
X157948200Y-110083000D01*
G37*
G36*
X157954600Y-110089300D02*
G01*
X156525800Y-110089300D01*
X156525800Y-110083000D01*
X157954600Y-110083000D01*
X157954600Y-110089300D01*
G37*
G36*
X157960900Y-110095700D02*
G01*
X156525800Y-110095700D01*
X156525800Y-110089300D01*
X157960900Y-110089300D01*
X157960900Y-110095700D01*
G37*
G36*
X157967300Y-110102000D02*
G01*
X156525800Y-110102000D01*
X156525800Y-110095700D01*
X157967300Y-110095700D01*
X157967300Y-110102000D01*
G37*
G36*
X157935500Y-109454300D02*
G01*
X156532200Y-109454300D01*
X156532200Y-109448000D01*
X157935500Y-109448000D01*
X157935500Y-109454300D01*
G37*
G36*
X157935500Y-110070300D02*
G01*
X156532200Y-110070300D01*
X156532200Y-110063900D01*
X157935500Y-110063900D01*
X157935500Y-110070300D01*
G37*
G36*
X157941900Y-110076600D02*
G01*
X156532200Y-110076600D01*
X156532200Y-110070300D01*
X157941900Y-110070300D01*
X157941900Y-110076600D01*
G37*
G36*
X157935500Y-109460700D02*
G01*
X156538500Y-109460700D01*
X156538500Y-109454300D01*
X157935500Y-109454300D01*
X157935500Y-109460700D01*
G37*
G36*
X157922800Y-110051200D02*
G01*
X156538500Y-110051200D01*
X156538500Y-110044900D01*
X157922800Y-110044900D01*
X157922800Y-110051200D01*
G37*
G36*
X157922800Y-110057600D02*
G01*
X156538500Y-110057600D01*
X156538500Y-110051200D01*
X157922800Y-110051200D01*
X157922800Y-110057600D01*
G37*
G36*
X157929200Y-110063900D02*
G01*
X156538500Y-110063900D01*
X156538500Y-110057600D01*
X157929200Y-110057600D01*
X157929200Y-110063900D01*
G37*
G36*
X157910100Y-110038500D02*
G01*
X156544900Y-110038500D01*
X156544900Y-110032200D01*
X157910100Y-110032200D01*
X157910100Y-110038500D01*
G37*
G36*
X157916500Y-110044900D02*
G01*
X156544900Y-110044900D01*
X156544900Y-110038500D01*
X157916500Y-110038500D01*
X157916500Y-110044900D01*
G37*
G36*
X157935500Y-109467000D02*
G01*
X156551200Y-109467000D01*
X156551200Y-109460700D01*
X157935500Y-109460700D01*
X157935500Y-109467000D01*
G37*
G36*
X157262400Y-110025800D02*
G01*
X156551200Y-110025800D01*
X156551200Y-110019500D01*
X157262400Y-110019500D01*
X157262400Y-110025800D01*
G37*
G36*
X157903800Y-110032200D02*
G01*
X156551200Y-110032200D01*
X156551200Y-110025800D01*
X157903800Y-110025800D01*
X157903800Y-110032200D01*
G37*
G36*
X157935500Y-109473400D02*
G01*
X156557600Y-109473400D01*
X156557600Y-109467000D01*
X157935500Y-109467000D01*
X157935500Y-109473400D01*
G37*
G36*
X157237000Y-110013100D02*
G01*
X156557600Y-110013100D01*
X156557600Y-110006800D01*
X157237000Y-110006800D01*
X157237000Y-110013100D01*
G37*
G36*
X157249700Y-110019500D02*
G01*
X156557600Y-110019500D01*
X156557600Y-110013100D01*
X157249700Y-110013100D01*
X157249700Y-110019500D01*
G37*
G36*
X157935500Y-109479700D02*
G01*
X156563900Y-109479700D01*
X156563900Y-109473400D01*
X157935500Y-109473400D01*
X157935500Y-109479700D01*
G37*
G36*
X157224300Y-109994100D02*
G01*
X156563900Y-109994100D01*
X156563900Y-109987700D01*
X157224300Y-109987700D01*
X157224300Y-109994100D01*
G37*
G36*
X157230700Y-110000400D02*
G01*
X156563900Y-110000400D01*
X156563900Y-109994100D01*
X157230700Y-109994100D01*
X157230700Y-110000400D01*
G37*
G36*
X157237000Y-110006800D02*
G01*
X156563900Y-110006800D01*
X156563900Y-110000400D01*
X157237000Y-110000400D01*
X157237000Y-110006800D01*
G37*
G36*
X157941900Y-109486100D02*
G01*
X156570300Y-109486100D01*
X156570300Y-109479700D01*
X157941900Y-109479700D01*
X157941900Y-109486100D01*
G37*
G36*
X157224300Y-109981400D02*
G01*
X156570300Y-109981400D01*
X156570300Y-109975000D01*
X157224300Y-109975000D01*
X157224300Y-109981400D01*
G37*
G36*
X157224300Y-109987700D02*
G01*
X156570300Y-109987700D01*
X156570300Y-109981400D01*
X157224300Y-109981400D01*
X157224300Y-109987700D01*
G37*
G36*
X157224300Y-109975000D02*
G01*
X156576600Y-109975000D01*
X156576600Y-109968700D01*
X157224300Y-109968700D01*
X157224300Y-109975000D01*
G37*
G36*
X157941900Y-109492400D02*
G01*
X156583000Y-109492400D01*
X156583000Y-109486100D01*
X157941900Y-109486100D01*
X157941900Y-109492400D01*
G37*
G36*
X157224300Y-109962300D02*
G01*
X156583000Y-109962300D01*
X156583000Y-109956000D01*
X157224300Y-109956000D01*
X157224300Y-109962300D01*
G37*
G36*
X157224300Y-109968700D02*
G01*
X156583000Y-109968700D01*
X156583000Y-109962300D01*
X157224300Y-109962300D01*
X157224300Y-109968700D01*
G37*
G36*
X157948200Y-109498800D02*
G01*
X156589300Y-109498800D01*
X156589300Y-109492400D01*
X157948200Y-109492400D01*
X157948200Y-109498800D01*
G37*
G36*
X157224300Y-109949600D02*
G01*
X156589300Y-109949600D01*
X156589300Y-109943300D01*
X157224300Y-109943300D01*
X157224300Y-109949600D01*
G37*
G36*
X157224300Y-109956000D02*
G01*
X156589300Y-109956000D01*
X156589300Y-109949600D01*
X157224300Y-109949600D01*
X157224300Y-109956000D01*
G37*
G36*
X157224300Y-109936900D02*
G01*
X156595700Y-109936900D01*
X156595700Y-109930600D01*
X157224300Y-109930600D01*
X157224300Y-109936900D01*
G37*
G36*
X157224300Y-109943300D02*
G01*
X156595700Y-109943300D01*
X156595700Y-109936900D01*
X157224300Y-109936900D01*
X157224300Y-109943300D01*
G37*
G36*
X157954600Y-109505100D02*
G01*
X156602000Y-109505100D01*
X156602000Y-109498800D01*
X157954600Y-109498800D01*
X157954600Y-109505100D01*
G37*
G36*
X157230700Y-109930600D02*
G01*
X156602000Y-109930600D01*
X156602000Y-109924200D01*
X157230700Y-109924200D01*
X157230700Y-109930600D01*
G37*
G36*
X157967300Y-109511500D02*
G01*
X156608400Y-109511500D01*
X156608400Y-109505100D01*
X157967300Y-109505100D01*
X157967300Y-109511500D01*
G37*
G36*
X157230700Y-109917900D02*
G01*
X156608400Y-109917900D01*
X156608400Y-109911500D01*
X157230700Y-109911500D01*
X157230700Y-109917900D01*
G37*
G36*
X157230700Y-109924200D02*
G01*
X156608400Y-109924200D01*
X156608400Y-109917900D01*
X157230700Y-109917900D01*
X157230700Y-109924200D01*
G37*
G36*
X157237000Y-109905200D02*
G01*
X156614700Y-109905200D01*
X156614700Y-109898800D01*
X157237000Y-109898800D01*
X157237000Y-109905200D01*
G37*
G36*
X157237000Y-109911500D02*
G01*
X156614700Y-109911500D01*
X156614700Y-109905200D01*
X157237000Y-109905200D01*
X157237000Y-109911500D01*
G37*
G36*
X157973600Y-109517800D02*
G01*
X156621100Y-109517800D01*
X156621100Y-109511500D01*
X157973600Y-109511500D01*
X157973600Y-109517800D01*
G37*
G36*
X157237000Y-109898800D02*
G01*
X156621100Y-109898800D01*
X156621100Y-109892500D01*
X157237000Y-109892500D01*
X157237000Y-109898800D01*
G37*
G36*
X157992700Y-109524200D02*
G01*
X156627400Y-109524200D01*
X156627400Y-109517800D01*
X157992700Y-109517800D01*
X157992700Y-109524200D01*
G37*
G36*
X157243400Y-109886100D02*
G01*
X156627400Y-109886100D01*
X156627400Y-109879800D01*
X157243400Y-109879800D01*
X157243400Y-109886100D01*
G37*
G36*
X157243400Y-109892500D02*
G01*
X156627400Y-109892500D01*
X156627400Y-109886100D01*
X157243400Y-109886100D01*
X157243400Y-109892500D01*
G37*
G36*
X157249700Y-109879800D02*
G01*
X156633800Y-109879800D01*
X156633800Y-109873400D01*
X157249700Y-109873400D01*
X157249700Y-109879800D01*
G37*
G36*
X158005400Y-109530500D02*
G01*
X156640100Y-109530500D01*
X156640100Y-109524200D01*
X158005400Y-109524200D01*
X158005400Y-109530500D01*
G37*
G36*
X157256100Y-109867100D02*
G01*
X156640100Y-109867100D01*
X156640100Y-109860700D01*
X157256100Y-109860700D01*
X157256100Y-109867100D01*
G37*
G36*
X157249700Y-109873400D02*
G01*
X156640100Y-109873400D01*
X156640100Y-109867100D01*
X157249700Y-109867100D01*
X157249700Y-109873400D01*
G37*
G36*
X157262400Y-109860700D02*
G01*
X156646500Y-109860700D01*
X156646500Y-109854400D01*
X157262400Y-109854400D01*
X157262400Y-109860700D01*
G37*
G36*
X158037100Y-109536900D02*
G01*
X156652800Y-109536900D01*
X156652800Y-109530500D01*
X158037100Y-109530500D01*
X158037100Y-109536900D01*
G37*
G36*
X157262400Y-109854400D02*
G01*
X156652800Y-109854400D01*
X156652800Y-109848000D01*
X157262400Y-109848000D01*
X157262400Y-109854400D01*
G37*
G36*
X158081600Y-109543200D02*
G01*
X156659200Y-109543200D01*
X156659200Y-109536900D01*
X158081600Y-109536900D01*
X158081600Y-109543200D01*
G37*
G36*
X157268800Y-109848000D02*
G01*
X156659200Y-109848000D01*
X156659200Y-109841700D01*
X157268800Y-109841700D01*
X157268800Y-109848000D01*
G37*
G36*
X157275100Y-109835300D02*
G01*
X156665500Y-109835300D01*
X156665500Y-109829000D01*
X157275100Y-109829000D01*
X157275100Y-109835300D01*
G37*
G36*
X157268800Y-109841700D02*
G01*
X156665500Y-109841700D01*
X156665500Y-109835300D01*
X157268800Y-109835300D01*
X157268800Y-109841700D01*
G37*
G36*
X157281500Y-109829000D02*
G01*
X156671900Y-109829000D01*
X156671900Y-109822600D01*
X157281500Y-109822600D01*
X157281500Y-109829000D01*
G37*
G36*
X159351600Y-109549600D02*
G01*
X156678200Y-109549600D01*
X156678200Y-109543200D01*
X159351600Y-109543200D01*
X159351600Y-109549600D01*
G37*
G36*
X157281500Y-109822600D02*
G01*
X156678200Y-109822600D01*
X156678200Y-109816300D01*
X157281500Y-109816300D01*
X157281500Y-109822600D01*
G37*
G36*
X159345200Y-109555900D02*
G01*
X156684600Y-109555900D01*
X156684600Y-109549600D01*
X159345200Y-109549600D01*
X159345200Y-109555900D01*
G37*
G36*
X157287800Y-109816300D02*
G01*
X156684600Y-109816300D01*
X156684600Y-109809900D01*
X157287800Y-109809900D01*
X157287800Y-109816300D01*
G37*
G36*
X157294200Y-109809900D02*
G01*
X156690900Y-109809900D01*
X156690900Y-109803600D01*
X157294200Y-109803600D01*
X157294200Y-109809900D01*
G37*
G36*
X157300500Y-109803600D02*
G01*
X156697300Y-109803600D01*
X156697300Y-109797200D01*
X157300500Y-109797200D01*
X157300500Y-109803600D01*
G37*
G36*
X159332500Y-109562300D02*
G01*
X156703600Y-109562300D01*
X156703600Y-109555900D01*
X159332500Y-109555900D01*
X159332500Y-109562300D01*
G37*
G36*
X157300500Y-109797200D02*
G01*
X156703600Y-109797200D01*
X156703600Y-109790900D01*
X157300500Y-109790900D01*
X157300500Y-109797200D01*
G37*
G36*
X157306900Y-109790900D02*
G01*
X156710000Y-109790900D01*
X156710000Y-109784500D01*
X157306900Y-109784500D01*
X157306900Y-109790900D01*
G37*
G36*
X159326200Y-109568600D02*
G01*
X156716300Y-109568600D01*
X156716300Y-109562300D01*
X159326200Y-109562300D01*
X159326200Y-109568600D01*
G37*
G36*
X157313200Y-109784500D02*
G01*
X156716300Y-109784500D01*
X156716300Y-109778200D01*
X157313200Y-109778200D01*
X157313200Y-109784500D01*
G37*
G36*
X157319600Y-109778200D02*
G01*
X156722700Y-109778200D01*
X156722700Y-109771800D01*
X157319600Y-109771800D01*
X157319600Y-109778200D01*
G37*
G36*
X159313500Y-109575000D02*
G01*
X156729000Y-109575000D01*
X156729000Y-109568600D01*
X159313500Y-109568600D01*
X159313500Y-109575000D01*
G37*
G36*
X157325900Y-109771800D02*
G01*
X156729000Y-109771800D01*
X156729000Y-109765500D01*
X157325900Y-109765500D01*
X157325900Y-109771800D01*
G37*
G36*
X157332300Y-109765500D02*
G01*
X156735400Y-109765500D01*
X156735400Y-109759100D01*
X157332300Y-109759100D01*
X157332300Y-109765500D01*
G37*
G36*
X157338600Y-109759100D02*
G01*
X156741700Y-109759100D01*
X156741700Y-109752800D01*
X157338600Y-109752800D01*
X157338600Y-109759100D01*
G37*
G36*
X159307100Y-109581300D02*
G01*
X156748100Y-109581300D01*
X156748100Y-109575000D01*
X159307100Y-109575000D01*
X159307100Y-109581300D01*
G37*
G36*
X157345000Y-109752800D02*
G01*
X156748100Y-109752800D01*
X156748100Y-109746400D01*
X157345000Y-109746400D01*
X157345000Y-109752800D01*
G37*
G36*
X157351300Y-109746400D02*
G01*
X156754400Y-109746400D01*
X156754400Y-109740100D01*
X157351300Y-109740100D01*
X157351300Y-109746400D01*
G37*
G36*
X157351300Y-109740100D02*
G01*
X156760800Y-109740100D01*
X156760800Y-109733700D01*
X157351300Y-109733700D01*
X157351300Y-109740100D01*
G37*
G36*
X159300800Y-109587700D02*
G01*
X156767100Y-109587700D01*
X156767100Y-109581300D01*
X159300800Y-109581300D01*
X159300800Y-109587700D01*
G37*
G36*
X157364000Y-109733700D02*
G01*
X156773500Y-109733700D01*
X156773500Y-109727400D01*
X157364000Y-109727400D01*
X157364000Y-109733700D01*
G37*
G36*
X157364000Y-109727400D02*
G01*
X156779800Y-109727400D01*
X156779800Y-109721000D01*
X157364000Y-109721000D01*
X157364000Y-109727400D01*
G37*
G36*
X159288100Y-109594000D02*
G01*
X156786200Y-109594000D01*
X156786200Y-109587700D01*
X159288100Y-109587700D01*
X159288100Y-109594000D01*
G37*
G36*
X157376700Y-109721000D02*
G01*
X156786200Y-109721000D01*
X156786200Y-109714700D01*
X157376700Y-109714700D01*
X157376700Y-109721000D01*
G37*
G36*
X157383100Y-109714700D02*
G01*
X156798900Y-109714700D01*
X156798900Y-109708300D01*
X157383100Y-109708300D01*
X157383100Y-109714700D01*
G37*
G36*
X157389400Y-109708300D02*
G01*
X156805200Y-109708300D01*
X156805200Y-109702000D01*
X157389400Y-109702000D01*
X157389400Y-109708300D01*
G37*
G36*
X159281700Y-109600400D02*
G01*
X156811600Y-109600400D01*
X156811600Y-109594000D01*
X159281700Y-109594000D01*
X159281700Y-109600400D01*
G37*
G36*
X157395800Y-109702000D02*
G01*
X156817900Y-109702000D01*
X156817900Y-109695600D01*
X157395800Y-109695600D01*
X157395800Y-109702000D01*
G37*
G36*
X157402100Y-109695600D02*
G01*
X156824300Y-109695600D01*
X156824300Y-109689300D01*
X157402100Y-109689300D01*
X157402100Y-109695600D01*
G37*
G36*
X157414800Y-109689300D02*
G01*
X156837000Y-109689300D01*
X156837000Y-109682900D01*
X157414800Y-109682900D01*
X157414800Y-109689300D01*
G37*
G36*
X159275400Y-109606700D02*
G01*
X156849700Y-109606700D01*
X156849700Y-109600400D01*
X159275400Y-109600400D01*
X159275400Y-109606700D01*
G37*
G36*
X157421200Y-109682900D02*
G01*
X156849700Y-109682900D01*
X156849700Y-109676600D01*
X157421200Y-109676600D01*
X157421200Y-109682900D01*
G37*
G36*
X157427500Y-109676600D02*
G01*
X156862400Y-109676600D01*
X156862400Y-109670200D01*
X157427500Y-109670200D01*
X157427500Y-109676600D01*
G37*
G36*
X157440200Y-109670200D02*
G01*
X156875100Y-109670200D01*
X156875100Y-109663900D01*
X157440200Y-109663900D01*
X157440200Y-109670200D01*
G37*
G36*
X157446600Y-109663900D02*
G01*
X156887800Y-109663900D01*
X156887800Y-109657500D01*
X157446600Y-109657500D01*
X157446600Y-109663900D01*
G37*
G36*
X157459300Y-109657500D02*
G01*
X156906800Y-109657500D01*
X156906800Y-109651200D01*
X157459300Y-109651200D01*
X157459300Y-109657500D01*
G37*
G36*
X157472000Y-109651200D02*
G01*
X156919500Y-109651200D01*
X156919500Y-109644800D01*
X157472000Y-109644800D01*
X157472000Y-109651200D01*
G37*
G36*
X157478300Y-109644800D02*
G01*
X156944900Y-109644800D01*
X156944900Y-109638500D01*
X157478300Y-109638500D01*
X157478300Y-109644800D01*
G37*
G36*
X157497400Y-109638500D02*
G01*
X156964000Y-109638500D01*
X156964000Y-109632100D01*
X157497400Y-109632100D01*
X157497400Y-109638500D01*
G37*
G36*
X157503700Y-109632100D02*
G01*
X156983000Y-109632100D01*
X156983000Y-109625800D01*
X157503700Y-109625800D01*
X157503700Y-109632100D01*
G37*
G36*
X157522800Y-109625800D02*
G01*
X157008400Y-109625800D01*
X157008400Y-109619400D01*
X157522800Y-109619400D01*
X157522800Y-109625800D01*
G37*
G36*
X157548200Y-109619400D02*
G01*
X157027500Y-109619400D01*
X157027500Y-109613100D01*
X157548200Y-109613100D01*
X157548200Y-109619400D01*
G37*
G36*
X159262700Y-109613100D02*
G01*
X157052900Y-109613100D01*
X157052900Y-109606700D01*
X159262700Y-109606700D01*
X159262700Y-109613100D01*
G37*
G36*
X157706900Y-109136800D02*
G01*
X157205300Y-109136800D01*
X157205300Y-109130500D01*
X157706900Y-109130500D01*
X157706900Y-109136800D01*
G37*
G36*
X157706900Y-109143200D02*
G01*
X157249700Y-109143200D01*
X157249700Y-109136800D01*
X157706900Y-109136800D01*
X157706900Y-109143200D01*
G37*
G36*
X157706900Y-109149500D02*
G01*
X157281500Y-109149500D01*
X157281500Y-109143200D01*
X157706900Y-109143200D01*
X157706900Y-109149500D01*
G37*
G36*
X157706900Y-109155900D02*
G01*
X157300500Y-109155900D01*
X157300500Y-109149500D01*
X157706900Y-109149500D01*
X157706900Y-109155900D01*
G37*
G36*
X157903800Y-110025800D02*
G01*
X157300500Y-110025800D01*
X157300500Y-110019500D01*
X157903800Y-110019500D01*
X157903800Y-110025800D01*
G37*
G36*
X157706900Y-109162200D02*
G01*
X157319600Y-109162200D01*
X157319600Y-109155900D01*
X157706900Y-109155900D01*
X157706900Y-109162200D01*
G37*
G36*
X157897400Y-110019500D02*
G01*
X157325900Y-110019500D01*
X157325900Y-110013100D01*
X157897400Y-110013100D01*
X157897400Y-110019500D01*
G37*
G36*
X157706900Y-109168600D02*
G01*
X157332300Y-109168600D01*
X157332300Y-109162200D01*
X157706900Y-109162200D01*
X157706900Y-109168600D01*
G37*
G36*
X157891100Y-110013100D02*
G01*
X157345000Y-110013100D01*
X157345000Y-110006800D01*
X157891100Y-110006800D01*
X157891100Y-110013100D01*
G37*
G36*
X157706900Y-109174900D02*
G01*
X157351300Y-109174900D01*
X157351300Y-109168600D01*
X157706900Y-109168600D01*
X157706900Y-109174900D01*
G37*
G36*
X157891100Y-110006800D02*
G01*
X157357700Y-110006800D01*
X157357700Y-110000400D01*
X157891100Y-110000400D01*
X157891100Y-110006800D01*
G37*
G36*
X158430800Y-108508200D02*
G01*
X157364000Y-108508200D01*
X157364000Y-108501800D01*
X158430800Y-108501800D01*
X158430800Y-108508200D01*
G37*
G36*
X158430800Y-108514500D02*
G01*
X157364000Y-108514500D01*
X157364000Y-108508200D01*
X158430800Y-108508200D01*
X158430800Y-108514500D01*
G37*
G36*
X158430800Y-108520900D02*
G01*
X157364000Y-108520900D01*
X157364000Y-108514500D01*
X158430800Y-108514500D01*
X158430800Y-108520900D01*
G37*
G36*
X158430800Y-108527200D02*
G01*
X157364000Y-108527200D01*
X157364000Y-108520900D01*
X158430800Y-108520900D01*
X158430800Y-108527200D01*
G37*
G36*
X158430800Y-108533600D02*
G01*
X157364000Y-108533600D01*
X157364000Y-108527200D01*
X158430800Y-108527200D01*
X158430800Y-108533600D01*
G37*
G36*
X158430800Y-108539900D02*
G01*
X157364000Y-108539900D01*
X157364000Y-108533600D01*
X158430800Y-108533600D01*
X158430800Y-108539900D01*
G37*
G36*
X158430800Y-108546300D02*
G01*
X157364000Y-108546300D01*
X157364000Y-108539900D01*
X158430800Y-108539900D01*
X158430800Y-108546300D01*
G37*
G36*
X158430800Y-108552600D02*
G01*
X157364000Y-108552600D01*
X157364000Y-108546300D01*
X158430800Y-108546300D01*
X158430800Y-108552600D01*
G37*
G36*
X158430800Y-108559000D02*
G01*
X157364000Y-108559000D01*
X157364000Y-108552600D01*
X158430800Y-108552600D01*
X158430800Y-108559000D01*
G37*
G36*
X158430800Y-108565300D02*
G01*
X157364000Y-108565300D01*
X157364000Y-108559000D01*
X158430800Y-108559000D01*
X158430800Y-108565300D01*
G37*
G36*
X158430800Y-108571700D02*
G01*
X157364000Y-108571700D01*
X157364000Y-108565300D01*
X158430800Y-108565300D01*
X158430800Y-108571700D01*
G37*
G36*
X158430800Y-108578000D02*
G01*
X157364000Y-108578000D01*
X157364000Y-108571700D01*
X158430800Y-108571700D01*
X158430800Y-108578000D01*
G37*
G36*
X158430800Y-108584400D02*
G01*
X157364000Y-108584400D01*
X157364000Y-108578000D01*
X158430800Y-108578000D01*
X158430800Y-108584400D01*
G37*
G36*
X158430800Y-108590700D02*
G01*
X157364000Y-108590700D01*
X157364000Y-108584400D01*
X158430800Y-108584400D01*
X158430800Y-108590700D01*
G37*
G36*
X158424500Y-108597100D02*
G01*
X157364000Y-108597100D01*
X157364000Y-108590700D01*
X158424500Y-108590700D01*
X158424500Y-108597100D01*
G37*
G36*
X158424500Y-108603400D02*
G01*
X157364000Y-108603400D01*
X157364000Y-108597100D01*
X158424500Y-108597100D01*
X158424500Y-108603400D01*
G37*
G36*
X158424500Y-108609800D02*
G01*
X157364000Y-108609800D01*
X157364000Y-108603400D01*
X158424500Y-108603400D01*
X158424500Y-108609800D01*
G37*
G36*
X158424500Y-108616100D02*
G01*
X157364000Y-108616100D01*
X157364000Y-108609800D01*
X158424500Y-108609800D01*
X158424500Y-108616100D01*
G37*
G36*
X158424500Y-108622500D02*
G01*
X157364000Y-108622500D01*
X157364000Y-108616100D01*
X158424500Y-108616100D01*
X158424500Y-108622500D01*
G37*
G36*
X158424500Y-108628800D02*
G01*
X157364000Y-108628800D01*
X157364000Y-108622500D01*
X158424500Y-108622500D01*
X158424500Y-108628800D01*
G37*
G36*
X158424500Y-108635200D02*
G01*
X157364000Y-108635200D01*
X157364000Y-108628800D01*
X158424500Y-108628800D01*
X158424500Y-108635200D01*
G37*
G36*
X158424500Y-108641500D02*
G01*
X157364000Y-108641500D01*
X157364000Y-108635200D01*
X158424500Y-108635200D01*
X158424500Y-108641500D01*
G37*
G36*
X158424500Y-108647900D02*
G01*
X157364000Y-108647900D01*
X157364000Y-108641500D01*
X158424500Y-108641500D01*
X158424500Y-108647900D01*
G37*
G36*
X158424500Y-108654200D02*
G01*
X157364000Y-108654200D01*
X157364000Y-108647900D01*
X158424500Y-108647900D01*
X158424500Y-108654200D01*
G37*
G36*
X158418100Y-108660600D02*
G01*
X157364000Y-108660600D01*
X157364000Y-108654200D01*
X158418100Y-108654200D01*
X158418100Y-108660600D01*
G37*
G36*
X157706900Y-109181300D02*
G01*
X157364000Y-109181300D01*
X157364000Y-109174900D01*
X157706900Y-109174900D01*
X157706900Y-109181300D01*
G37*
G36*
X158424500Y-108476400D02*
G01*
X157370400Y-108476400D01*
X157370400Y-108470100D01*
X158424500Y-108470100D01*
X158424500Y-108476400D01*
G37*
G36*
X158424500Y-108482800D02*
G01*
X157370400Y-108482800D01*
X157370400Y-108476400D01*
X158424500Y-108476400D01*
X158424500Y-108482800D01*
G37*
G36*
X158424500Y-108489100D02*
G01*
X157370400Y-108489100D01*
X157370400Y-108482800D01*
X158424500Y-108482800D01*
X158424500Y-108489100D01*
G37*
G36*
X158424500Y-108495500D02*
G01*
X157370400Y-108495500D01*
X157370400Y-108489100D01*
X158424500Y-108489100D01*
X158424500Y-108495500D01*
G37*
G36*
X158424500Y-108501800D02*
G01*
X157370400Y-108501800D01*
X157370400Y-108495500D01*
X158424500Y-108495500D01*
X158424500Y-108501800D01*
G37*
G36*
X158418100Y-108666900D02*
G01*
X157370400Y-108666900D01*
X157370400Y-108660600D01*
X158418100Y-108660600D01*
X158418100Y-108666900D01*
G37*
G36*
X158418100Y-108673300D02*
G01*
X157370400Y-108673300D01*
X157370400Y-108666900D01*
X158418100Y-108666900D01*
X158418100Y-108673300D01*
G37*
G36*
X158418100Y-108679600D02*
G01*
X157370400Y-108679600D01*
X157370400Y-108673300D01*
X158418100Y-108673300D01*
X158418100Y-108679600D01*
G37*
G36*
X158418100Y-108686000D02*
G01*
X157370400Y-108686000D01*
X157370400Y-108679600D01*
X158418100Y-108679600D01*
X158418100Y-108686000D01*
G37*
G36*
X158411800Y-108692300D02*
G01*
X157370400Y-108692300D01*
X157370400Y-108686000D01*
X158411800Y-108686000D01*
X158411800Y-108692300D01*
G37*
G36*
X157884700Y-110000400D02*
G01*
X157370400Y-110000400D01*
X157370400Y-109994100D01*
X157884700Y-109994100D01*
X157884700Y-110000400D01*
G37*
G36*
X158424500Y-108444700D02*
G01*
X157376700Y-108444700D01*
X157376700Y-108438300D01*
X158424500Y-108438300D01*
X158424500Y-108444700D01*
G37*
G36*
X158424500Y-108451000D02*
G01*
X157376700Y-108451000D01*
X157376700Y-108444700D01*
X158424500Y-108444700D01*
X158424500Y-108451000D01*
G37*
G36*
X158424500Y-108457400D02*
G01*
X157376700Y-108457400D01*
X157376700Y-108451000D01*
X158424500Y-108451000D01*
X158424500Y-108457400D01*
G37*
G36*
X158424500Y-108463700D02*
G01*
X157376700Y-108463700D01*
X157376700Y-108457400D01*
X158424500Y-108457400D01*
X158424500Y-108463700D01*
G37*
G36*
X158424500Y-108470100D02*
G01*
X157376700Y-108470100D01*
X157376700Y-108463700D01*
X158424500Y-108463700D01*
X158424500Y-108470100D01*
G37*
G36*
X158411800Y-108698700D02*
G01*
X157376700Y-108698700D01*
X157376700Y-108692300D01*
X158411800Y-108692300D01*
X158411800Y-108698700D01*
G37*
G36*
X158411800Y-108705000D02*
G01*
X157376700Y-108705000D01*
X157376700Y-108698700D01*
X158411800Y-108698700D01*
X158411800Y-108705000D01*
G37*
G36*
X158411800Y-108711400D02*
G01*
X157376700Y-108711400D01*
X157376700Y-108705000D01*
X158411800Y-108705000D01*
X158411800Y-108711400D01*
G37*
G36*
X158405400Y-108717700D02*
G01*
X157376700Y-108717700D01*
X157376700Y-108711400D01*
X158405400Y-108711400D01*
X158405400Y-108717700D01*
G37*
G36*
X158418100Y-108419300D02*
G01*
X157383100Y-108419300D01*
X157383100Y-108412900D01*
X158418100Y-108412900D01*
X158418100Y-108419300D01*
G37*
G36*
X158418100Y-108425600D02*
G01*
X157383100Y-108425600D01*
X157383100Y-108419300D01*
X158418100Y-108419300D01*
X158418100Y-108425600D01*
G37*
G36*
X158418100Y-108432000D02*
G01*
X157383100Y-108432000D01*
X157383100Y-108425600D01*
X158418100Y-108425600D01*
X158418100Y-108432000D01*
G37*
G36*
X158424500Y-108438300D02*
G01*
X157383100Y-108438300D01*
X157383100Y-108432000D01*
X158424500Y-108432000D01*
X158424500Y-108438300D01*
G37*
G36*
X158405400Y-108724100D02*
G01*
X157383100Y-108724100D01*
X157383100Y-108717700D01*
X158405400Y-108717700D01*
X158405400Y-108724100D01*
G37*
G36*
X158405400Y-108730400D02*
G01*
X157383100Y-108730400D01*
X157383100Y-108724100D01*
X158405400Y-108724100D01*
X158405400Y-108730400D01*
G37*
G36*
X158405400Y-108736800D02*
G01*
X157383100Y-108736800D01*
X157383100Y-108730400D01*
X158405400Y-108730400D01*
X158405400Y-108736800D01*
G37*
G36*
X158399100Y-108743100D02*
G01*
X157383100Y-108743100D01*
X157383100Y-108736800D01*
X158399100Y-108736800D01*
X158399100Y-108743100D01*
G37*
G36*
X157706900Y-109187600D02*
G01*
X157383100Y-109187600D01*
X157383100Y-109181300D01*
X157706900Y-109181300D01*
X157706900Y-109187600D01*
G37*
G36*
X157878400Y-109994100D02*
G01*
X157383100Y-109994100D01*
X157383100Y-109987700D01*
X157878400Y-109987700D01*
X157878400Y-109994100D01*
G37*
G36*
X158418100Y-108400200D02*
G01*
X157389400Y-108400200D01*
X157389400Y-108393900D01*
X158418100Y-108393900D01*
X158418100Y-108400200D01*
G37*
G36*
X158418100Y-108406600D02*
G01*
X157389400Y-108406600D01*
X157389400Y-108400200D01*
X158418100Y-108400200D01*
X158418100Y-108406600D01*
G37*
G36*
X158418100Y-108412900D02*
G01*
X157389400Y-108412900D01*
X157389400Y-108406600D01*
X158418100Y-108406600D01*
X158418100Y-108412900D01*
G37*
G36*
X158399100Y-108749500D02*
G01*
X157389400Y-108749500D01*
X157389400Y-108743100D01*
X158399100Y-108743100D01*
X158399100Y-108749500D01*
G37*
G36*
X158399100Y-108755800D02*
G01*
X157389400Y-108755800D01*
X157389400Y-108749500D01*
X158399100Y-108749500D01*
X158399100Y-108755800D01*
G37*
G36*
X158392700Y-108762200D02*
G01*
X157389400Y-108762200D01*
X157389400Y-108755800D01*
X158392700Y-108755800D01*
X158392700Y-108762200D01*
G37*
G36*
X157706900Y-109194000D02*
G01*
X157389400Y-109194000D01*
X157389400Y-109187600D01*
X157706900Y-109187600D01*
X157706900Y-109194000D01*
G37*
G36*
X158411800Y-108381200D02*
G01*
X157395800Y-108381200D01*
X157395800Y-108374800D01*
X158411800Y-108374800D01*
X158411800Y-108381200D01*
G37*
G36*
X158411800Y-108387500D02*
G01*
X157395800Y-108387500D01*
X157395800Y-108381200D01*
X158411800Y-108381200D01*
X158411800Y-108387500D01*
G37*
G36*
X158411800Y-108393900D02*
G01*
X157395800Y-108393900D01*
X157395800Y-108387500D01*
X158411800Y-108387500D01*
X158411800Y-108393900D01*
G37*
G36*
X158392700Y-108768500D02*
G01*
X157395800Y-108768500D01*
X157395800Y-108762200D01*
X158392700Y-108762200D01*
X158392700Y-108768500D01*
G37*
G36*
X158392700Y-108774900D02*
G01*
X157395800Y-108774900D01*
X157395800Y-108768500D01*
X158392700Y-108768500D01*
X158392700Y-108774900D01*
G37*
G36*
X158386400Y-108781200D02*
G01*
X157395800Y-108781200D01*
X157395800Y-108774900D01*
X158386400Y-108774900D01*
X158386400Y-108781200D01*
G37*
G36*
X157878400Y-109987700D02*
G01*
X157395800Y-109987700D01*
X157395800Y-109981400D01*
X157878400Y-109981400D01*
X157878400Y-109987700D01*
G37*
G36*
X158405400Y-108362100D02*
G01*
X157402100Y-108362100D01*
X157402100Y-108355800D01*
X158405400Y-108355800D01*
X158405400Y-108362100D01*
G37*
G36*
X158411800Y-108368500D02*
G01*
X157402100Y-108368500D01*
X157402100Y-108362100D01*
X158411800Y-108362100D01*
X158411800Y-108368500D01*
G37*
G36*
X158411800Y-108374800D02*
G01*
X157402100Y-108374800D01*
X157402100Y-108368500D01*
X158411800Y-108368500D01*
X158411800Y-108374800D01*
G37*
G36*
X157833900Y-108787600D02*
G01*
X157402100Y-108787600D01*
X157402100Y-108781200D01*
X157833900Y-108781200D01*
X157833900Y-108787600D01*
G37*
G36*
X157821200Y-108793900D02*
G01*
X157402100Y-108793900D01*
X157402100Y-108787600D01*
X157821200Y-108787600D01*
X157821200Y-108793900D01*
G37*
G36*
X157706900Y-109200300D02*
G01*
X157402100Y-109200300D01*
X157402100Y-109194000D01*
X157706900Y-109194000D01*
X157706900Y-109200300D01*
G37*
G36*
X157872000Y-109981400D02*
G01*
X157402100Y-109981400D01*
X157402100Y-109975000D01*
X157872000Y-109975000D01*
X157872000Y-109981400D01*
G37*
G36*
X158405400Y-108343100D02*
G01*
X157408500Y-108343100D01*
X157408500Y-108336700D01*
X158405400Y-108336700D01*
X158405400Y-108343100D01*
G37*
G36*
X158405400Y-108349400D02*
G01*
X157408500Y-108349400D01*
X157408500Y-108343100D01*
X158405400Y-108343100D01*
X158405400Y-108349400D01*
G37*
G36*
X158405400Y-108355800D02*
G01*
X157408500Y-108355800D01*
X157408500Y-108349400D01*
X158405400Y-108349400D01*
X158405400Y-108355800D01*
G37*
G36*
X157814900Y-108800300D02*
G01*
X157408500Y-108800300D01*
X157408500Y-108793900D01*
X157814900Y-108793900D01*
X157814900Y-108800300D01*
G37*
G36*
X157808500Y-108806600D02*
G01*
X157408500Y-108806600D01*
X157408500Y-108800300D01*
X157808500Y-108800300D01*
X157808500Y-108806600D01*
G37*
G36*
X157802200Y-108813000D02*
G01*
X157408500Y-108813000D01*
X157408500Y-108806600D01*
X157802200Y-108806600D01*
X157802200Y-108813000D01*
G37*
G36*
X158399100Y-108330400D02*
G01*
X157414800Y-108330400D01*
X157414800Y-108324000D01*
X158399100Y-108324000D01*
X158399100Y-108330400D01*
G37*
G36*
X158405400Y-108336700D02*
G01*
X157414800Y-108336700D01*
X157414800Y-108330400D01*
X158405400Y-108330400D01*
X158405400Y-108336700D01*
G37*
G36*
X157795800Y-108819300D02*
G01*
X157414800Y-108819300D01*
X157414800Y-108813000D01*
X157795800Y-108813000D01*
X157795800Y-108819300D01*
G37*
G36*
X157789500Y-108825700D02*
G01*
X157414800Y-108825700D01*
X157414800Y-108819300D01*
X157789500Y-108819300D01*
X157789500Y-108825700D01*
G37*
G36*
X157783100Y-108832000D02*
G01*
X157414800Y-108832000D01*
X157414800Y-108825700D01*
X157783100Y-108825700D01*
X157783100Y-108832000D01*
G37*
G36*
X157713300Y-109206700D02*
G01*
X157414800Y-109206700D01*
X157414800Y-109200300D01*
X157713300Y-109200300D01*
X157713300Y-109206700D01*
G37*
G36*
X157872000Y-109975000D02*
G01*
X157414800Y-109975000D01*
X157414800Y-109968700D01*
X157872000Y-109968700D01*
X157872000Y-109975000D01*
G37*
G36*
X158392700Y-108311300D02*
G01*
X157421200Y-108311300D01*
X157421200Y-108305000D01*
X158392700Y-108305000D01*
X158392700Y-108311300D01*
G37*
G36*
X158399100Y-108317700D02*
G01*
X157421200Y-108317700D01*
X157421200Y-108311300D01*
X158399100Y-108311300D01*
X158399100Y-108317700D01*
G37*
G36*
X158399100Y-108324000D02*
G01*
X157421200Y-108324000D01*
X157421200Y-108317700D01*
X158399100Y-108317700D01*
X158399100Y-108324000D01*
G37*
G36*
X157783100Y-108838400D02*
G01*
X157421200Y-108838400D01*
X157421200Y-108832000D01*
X157783100Y-108832000D01*
X157783100Y-108838400D01*
G37*
G36*
X157776800Y-108844700D02*
G01*
X157421200Y-108844700D01*
X157421200Y-108838400D01*
X157776800Y-108838400D01*
X157776800Y-108844700D01*
G37*
G36*
X157770400Y-108851100D02*
G01*
X157421200Y-108851100D01*
X157421200Y-108844700D01*
X157770400Y-108844700D01*
X157770400Y-108851100D01*
G37*
G36*
X157865700Y-109968700D02*
G01*
X157421200Y-109968700D01*
X157421200Y-109962300D01*
X157865700Y-109962300D01*
X157865700Y-109968700D01*
G37*
G36*
X158392700Y-108298600D02*
G01*
X157427500Y-108298600D01*
X157427500Y-108292300D01*
X158392700Y-108292300D01*
X158392700Y-108298600D01*
G37*
G36*
X158392700Y-108305000D02*
G01*
X157427500Y-108305000D01*
X157427500Y-108298600D01*
X158392700Y-108298600D01*
X158392700Y-108305000D01*
G37*
G36*
X157770400Y-108857400D02*
G01*
X157427500Y-108857400D01*
X157427500Y-108851100D01*
X157770400Y-108851100D01*
X157770400Y-108857400D01*
G37*
G36*
X157764100Y-108863800D02*
G01*
X157427500Y-108863800D01*
X157427500Y-108857400D01*
X157764100Y-108857400D01*
X157764100Y-108863800D01*
G37*
G36*
X157713300Y-109213000D02*
G01*
X157427500Y-109213000D01*
X157427500Y-109206700D01*
X157713300Y-109206700D01*
X157713300Y-109213000D01*
G37*
G36*
X158386400Y-108285900D02*
G01*
X157433900Y-108285900D01*
X157433900Y-108279600D01*
X158386400Y-108279600D01*
X158386400Y-108285900D01*
G37*
G36*
X158392700Y-108292300D02*
G01*
X157433900Y-108292300D01*
X157433900Y-108285900D01*
X158392700Y-108285900D01*
X158392700Y-108292300D01*
G37*
G36*
X157764100Y-108870100D02*
G01*
X157433900Y-108870100D01*
X157433900Y-108863800D01*
X157764100Y-108863800D01*
X157764100Y-108870100D01*
G37*
G36*
X157865700Y-109962300D02*
G01*
X157433900Y-109962300D01*
X157433900Y-109956000D01*
X157865700Y-109956000D01*
X157865700Y-109962300D01*
G37*
G36*
X158380000Y-108273200D02*
G01*
X157440200Y-108273200D01*
X157440200Y-108266900D01*
X158380000Y-108266900D01*
X158380000Y-108273200D01*
G37*
G36*
X158386400Y-108279600D02*
G01*
X157440200Y-108279600D01*
X157440200Y-108273200D01*
X158386400Y-108273200D01*
X158386400Y-108279600D01*
G37*
G36*
X157713300Y-109219400D02*
G01*
X157440200Y-109219400D01*
X157440200Y-109213000D01*
X157713300Y-109213000D01*
X157713300Y-109219400D01*
G37*
G36*
X157859300Y-109956000D02*
G01*
X157440200Y-109956000D01*
X157440200Y-109949600D01*
X157859300Y-109949600D01*
X157859300Y-109956000D01*
G37*
G36*
X158380000Y-108260500D02*
G01*
X157446600Y-108260500D01*
X157446600Y-108254200D01*
X158380000Y-108254200D01*
X158380000Y-108260500D01*
G37*
G36*
X158380000Y-108266900D02*
G01*
X157446600Y-108266900D01*
X157446600Y-108260500D01*
X158380000Y-108260500D01*
X158380000Y-108266900D01*
G37*
G36*
X157713300Y-109225700D02*
G01*
X157446600Y-109225700D01*
X157446600Y-109219400D01*
X157713300Y-109219400D01*
X157713300Y-109225700D01*
G37*
G36*
X157859300Y-109949600D02*
G01*
X157446600Y-109949600D01*
X157446600Y-109943300D01*
X157859300Y-109943300D01*
X157859300Y-109949600D01*
G37*
G36*
X158373700Y-108247800D02*
G01*
X157452900Y-108247800D01*
X157452900Y-108241500D01*
X158373700Y-108241500D01*
X158373700Y-108247800D01*
G37*
G36*
X158380000Y-108254200D02*
G01*
X157452900Y-108254200D01*
X157452900Y-108247800D01*
X158380000Y-108247800D01*
X158380000Y-108254200D01*
G37*
G36*
X158373700Y-108235100D02*
G01*
X157459300Y-108235100D01*
X157459300Y-108228800D01*
X158373700Y-108228800D01*
X158373700Y-108235100D01*
G37*
G36*
X158373700Y-108241500D02*
G01*
X157459300Y-108241500D01*
X157459300Y-108235100D01*
X158373700Y-108235100D01*
X158373700Y-108241500D01*
G37*
G36*
X157719600Y-109232100D02*
G01*
X157459300Y-109232100D01*
X157459300Y-109225700D01*
X157719600Y-109225700D01*
X157719600Y-109232100D01*
G37*
G36*
X157853000Y-109943300D02*
G01*
X157459300Y-109943300D01*
X157459300Y-109936900D01*
X157853000Y-109936900D01*
X157853000Y-109943300D01*
G37*
G36*
X158367300Y-108222400D02*
G01*
X157465600Y-108222400D01*
X157465600Y-108216100D01*
X158367300Y-108216100D01*
X158367300Y-108222400D01*
G37*
G36*
X158367300Y-108228800D02*
G01*
X157465600Y-108228800D01*
X157465600Y-108222400D01*
X158367300Y-108222400D01*
X158367300Y-108228800D01*
G37*
G36*
X157719600Y-109238400D02*
G01*
X157465600Y-109238400D01*
X157465600Y-109232100D01*
X157719600Y-109232100D01*
X157719600Y-109238400D01*
G37*
G36*
X157853000Y-109936900D02*
G01*
X157465600Y-109936900D01*
X157465600Y-109930600D01*
X157853000Y-109930600D01*
X157853000Y-109936900D01*
G37*
G36*
X158367300Y-108216100D02*
G01*
X157472000Y-108216100D01*
X157472000Y-108209700D01*
X158367300Y-108209700D01*
X158367300Y-108216100D01*
G37*
G36*
X157846600Y-109930600D02*
G01*
X157472000Y-109930600D01*
X157472000Y-109924200D01*
X157846600Y-109924200D01*
X157846600Y-109930600D01*
G37*
G36*
X158361000Y-108203400D02*
G01*
X157478300Y-108203400D01*
X157478300Y-108197000D01*
X158361000Y-108197000D01*
X158361000Y-108203400D01*
G37*
G36*
X158361000Y-108209700D02*
G01*
X157478300Y-108209700D01*
X157478300Y-108203400D01*
X158361000Y-108203400D01*
X158361000Y-108209700D01*
G37*
G36*
X157719600Y-109244800D02*
G01*
X157478300Y-109244800D01*
X157478300Y-109238400D01*
X157719600Y-109238400D01*
X157719600Y-109244800D01*
G37*
G36*
X157846600Y-109924200D02*
G01*
X157478300Y-109924200D01*
X157478300Y-109917900D01*
X157846600Y-109917900D01*
X157846600Y-109924200D01*
G37*
G36*
X158361000Y-108197000D02*
G01*
X157484700Y-108197000D01*
X157484700Y-108190700D01*
X158361000Y-108190700D01*
X158361000Y-108197000D01*
G37*
G36*
X157719600Y-109251100D02*
G01*
X157484700Y-109251100D01*
X157484700Y-109244800D01*
X157719600Y-109244800D01*
X157719600Y-109251100D01*
G37*
G36*
X157840300Y-109917900D02*
G01*
X157484700Y-109917900D01*
X157484700Y-109911500D01*
X157840300Y-109911500D01*
X157840300Y-109917900D01*
G37*
G36*
X158354600Y-108184300D02*
G01*
X157491000Y-108184300D01*
X157491000Y-108178000D01*
X158354600Y-108178000D01*
X158354600Y-108184300D01*
G37*
G36*
X158354600Y-108190700D02*
G01*
X157491000Y-108190700D01*
X157491000Y-108184300D01*
X158354600Y-108184300D01*
X158354600Y-108190700D01*
G37*
G36*
X157726000Y-109257500D02*
G01*
X157491000Y-109257500D01*
X157491000Y-109251100D01*
X157726000Y-109251100D01*
X157726000Y-109257500D01*
G37*
G36*
X157840300Y-109911500D02*
G01*
X157491000Y-109911500D01*
X157491000Y-109905200D01*
X157840300Y-109905200D01*
X157840300Y-109911500D01*
G37*
G36*
X158348300Y-108171600D02*
G01*
X157497400Y-108171600D01*
X157497400Y-108165300D01*
X158348300Y-108165300D01*
X158348300Y-108171600D01*
G37*
G36*
X158354600Y-108178000D02*
G01*
X157497400Y-108178000D01*
X157497400Y-108171600D01*
X158354600Y-108171600D01*
X158354600Y-108178000D01*
G37*
G36*
X158348300Y-108165300D02*
G01*
X157503700Y-108165300D01*
X157503700Y-108158900D01*
X158348300Y-108158900D01*
X158348300Y-108165300D01*
G37*
G36*
X157726000Y-109263800D02*
G01*
X157503700Y-109263800D01*
X157503700Y-109257500D01*
X157726000Y-109257500D01*
X157726000Y-109263800D01*
G37*
G36*
X157833900Y-109898800D02*
G01*
X157503700Y-109898800D01*
X157503700Y-109892500D01*
X157833900Y-109892500D01*
X157833900Y-109898800D01*
G37*
G36*
X157833900Y-109905200D02*
G01*
X157503700Y-109905200D01*
X157503700Y-109898800D01*
X157833900Y-109898800D01*
X157833900Y-109905200D01*
G37*
G36*
X158341900Y-108152600D02*
G01*
X157510100Y-108152600D01*
X157510100Y-108146200D01*
X158341900Y-108146200D01*
X158341900Y-108152600D01*
G37*
G36*
X158348300Y-108158900D02*
G01*
X157510100Y-108158900D01*
X157510100Y-108152600D01*
X158348300Y-108152600D01*
X158348300Y-108158900D01*
G37*
G36*
X157732300Y-109270200D02*
G01*
X157510100Y-109270200D01*
X157510100Y-109263800D01*
X157732300Y-109263800D01*
X157732300Y-109270200D01*
G37*
G36*
X158341900Y-108146200D02*
G01*
X157516400Y-108146200D01*
X157516400Y-108139900D01*
X158341900Y-108139900D01*
X158341900Y-108146200D01*
G37*
G36*
X157732300Y-109276500D02*
G01*
X157516400Y-109276500D01*
X157516400Y-109270200D01*
X157732300Y-109270200D01*
X157732300Y-109276500D01*
G37*
G36*
X157827600Y-109886100D02*
G01*
X157516400Y-109886100D01*
X157516400Y-109879800D01*
X157827600Y-109879800D01*
X157827600Y-109886100D01*
G37*
G36*
X157827600Y-109892500D02*
G01*
X157516400Y-109892500D01*
X157516400Y-109886100D01*
X157827600Y-109886100D01*
X157827600Y-109892500D01*
G37*
G36*
X158341900Y-108139900D02*
G01*
X157522800Y-108139900D01*
X157522800Y-108133500D01*
X158341900Y-108133500D01*
X158341900Y-108139900D01*
G37*
G36*
X157738700Y-109282900D02*
G01*
X157522800Y-109282900D01*
X157522800Y-109276500D01*
X157738700Y-109276500D01*
X157738700Y-109282900D01*
G37*
G36*
X157827600Y-109879800D02*
G01*
X157522800Y-109879800D01*
X157522800Y-109873400D01*
X157827600Y-109873400D01*
X157827600Y-109879800D01*
G37*
G36*
X158335600Y-108127200D02*
G01*
X157529100Y-108127200D01*
X157529100Y-108120800D01*
X158335600Y-108120800D01*
X158335600Y-108127200D01*
G37*
G36*
X158335600Y-108133500D02*
G01*
X157529100Y-108133500D01*
X157529100Y-108127200D01*
X158335600Y-108127200D01*
X158335600Y-108133500D01*
G37*
G36*
X157738700Y-109289200D02*
G01*
X157529100Y-109289200D01*
X157529100Y-109282900D01*
X157738700Y-109282900D01*
X157738700Y-109289200D01*
G37*
G36*
X157935500Y-109448000D02*
G01*
X157529100Y-109448000D01*
X157529100Y-109441600D01*
X157935500Y-109441600D01*
X157935500Y-109448000D01*
G37*
G36*
X157821200Y-109873400D02*
G01*
X157529100Y-109873400D01*
X157529100Y-109867100D01*
X157821200Y-109867100D01*
X157821200Y-109873400D01*
G37*
G36*
X158335600Y-108120800D02*
G01*
X157535500Y-108120800D01*
X157535500Y-108114500D01*
X158335600Y-108114500D01*
X158335600Y-108120800D01*
G37*
G36*
X157745000Y-109295600D02*
G01*
X157535500Y-109295600D01*
X157535500Y-109289200D01*
X157745000Y-109289200D01*
X157745000Y-109295600D01*
G37*
G36*
X157821200Y-109867100D02*
G01*
X157535500Y-109867100D01*
X157535500Y-109860700D01*
X157821200Y-109860700D01*
X157821200Y-109867100D01*
G37*
G36*
X158335600Y-108114500D02*
G01*
X157541800Y-108114500D01*
X157541800Y-108108100D01*
X158335600Y-108108100D01*
X158335600Y-108114500D01*
G37*
G36*
X157751400Y-109301900D02*
G01*
X157541800Y-109301900D01*
X157541800Y-109295600D01*
X157751400Y-109295600D01*
X157751400Y-109301900D01*
G37*
G36*
X157821200Y-109860700D02*
G01*
X157541800Y-109860700D01*
X157541800Y-109854400D01*
X157821200Y-109854400D01*
X157821200Y-109860700D01*
G37*
G36*
X158329200Y-108101800D02*
G01*
X157548200Y-108101800D01*
X157548200Y-108095400D01*
X158329200Y-108095400D01*
X158329200Y-108101800D01*
G37*
G36*
X158329200Y-108108100D02*
G01*
X157548200Y-108108100D01*
X157548200Y-108101800D01*
X158329200Y-108101800D01*
X158329200Y-108108100D01*
G37*
G36*
X157764100Y-109308300D02*
G01*
X157548200Y-109308300D01*
X157548200Y-109301900D01*
X157764100Y-109301900D01*
X157764100Y-109308300D01*
G37*
G36*
X157941900Y-109441600D02*
G01*
X157548200Y-109441600D01*
X157548200Y-109435300D01*
X157941900Y-109435300D01*
X157941900Y-109441600D01*
G37*
G36*
X157814900Y-109854400D02*
G01*
X157548200Y-109854400D01*
X157548200Y-109848000D01*
X157814900Y-109848000D01*
X157814900Y-109854400D01*
G37*
G36*
X158322900Y-108095400D02*
G01*
X157554500Y-108095400D01*
X157554500Y-108089100D01*
X158322900Y-108089100D01*
X158322900Y-108095400D01*
G37*
G36*
X157783100Y-109314600D02*
G01*
X157554500Y-109314600D01*
X157554500Y-109308300D01*
X157783100Y-109308300D01*
X157783100Y-109314600D01*
G37*
G36*
X158170500Y-109321000D02*
G01*
X157554500Y-109321000D01*
X157554500Y-109314600D01*
X158170500Y-109314600D01*
X158170500Y-109321000D01*
G37*
G36*
X157814900Y-109841700D02*
G01*
X157554500Y-109841700D01*
X157554500Y-109835300D01*
X157814900Y-109835300D01*
X157814900Y-109841700D01*
G37*
G36*
X157814900Y-109848000D02*
G01*
X157554500Y-109848000D01*
X157554500Y-109841700D01*
X157814900Y-109841700D01*
X157814900Y-109848000D01*
G37*
G36*
X158322900Y-108082700D02*
G01*
X157560900Y-108082700D01*
X157560900Y-108076400D01*
X158322900Y-108076400D01*
X158322900Y-108082700D01*
G37*
G36*
X158322900Y-108089100D02*
G01*
X157560900Y-108089100D01*
X157560900Y-108082700D01*
X158322900Y-108082700D01*
X158322900Y-108089100D01*
G37*
G36*
X158138700Y-109327300D02*
G01*
X157560900Y-109327300D01*
X157560900Y-109321000D01*
X158138700Y-109321000D01*
X158138700Y-109327300D01*
G37*
G36*
X157814900Y-109835300D02*
G01*
X157560900Y-109835300D01*
X157560900Y-109829000D01*
X157814900Y-109829000D01*
X157814900Y-109835300D01*
G37*
G36*
X158322900Y-108076400D02*
G01*
X157567200Y-108076400D01*
X157567200Y-108070000D01*
X158322900Y-108070000D01*
X158322900Y-108076400D01*
G37*
G36*
X158113300Y-109333700D02*
G01*
X157567200Y-109333700D01*
X157567200Y-109327300D01*
X158113300Y-109327300D01*
X158113300Y-109333700D01*
G37*
G36*
X157941900Y-109435300D02*
G01*
X157567200Y-109435300D01*
X157567200Y-109428900D01*
X157941900Y-109428900D01*
X157941900Y-109435300D01*
G37*
G36*
X157808500Y-109829000D02*
G01*
X157567200Y-109829000D01*
X157567200Y-109822600D01*
X157808500Y-109822600D01*
X157808500Y-109829000D01*
G37*
G36*
X158316500Y-108070000D02*
G01*
X157573600Y-108070000D01*
X157573600Y-108063700D01*
X158316500Y-108063700D01*
X158316500Y-108070000D01*
G37*
G36*
X158087900Y-109340000D02*
G01*
X157573600Y-109340000D01*
X157573600Y-109333700D01*
X158087900Y-109333700D01*
X158087900Y-109340000D01*
G37*
G36*
X158075200Y-109346400D02*
G01*
X157573600Y-109346400D01*
X157573600Y-109340000D01*
X158075200Y-109340000D01*
X158075200Y-109346400D01*
G37*
G36*
X157948200Y-109428900D02*
G01*
X157573600Y-109428900D01*
X157573600Y-109422600D01*
X157948200Y-109422600D01*
X157948200Y-109428900D01*
G37*
G36*
X157808500Y-109816300D02*
G01*
X157573600Y-109816300D01*
X157573600Y-109809900D01*
X157808500Y-109809900D01*
X157808500Y-109816300D01*
G37*
G36*
X157808500Y-109822600D02*
G01*
X157573600Y-109822600D01*
X157573600Y-109816300D01*
X157808500Y-109816300D01*
X157808500Y-109822600D01*
G37*
G36*
X158316500Y-108057300D02*
G01*
X157579900Y-108057300D01*
X157579900Y-108051000D01*
X158316500Y-108051000D01*
X158316500Y-108057300D01*
G37*
G36*
X158316500Y-108063700D02*
G01*
X157579900Y-108063700D01*
X157579900Y-108057300D01*
X158316500Y-108057300D01*
X158316500Y-108063700D01*
G37*
G36*
X158056200Y-109352700D02*
G01*
X157579900Y-109352700D01*
X157579900Y-109346400D01*
X158056200Y-109346400D01*
X158056200Y-109352700D01*
G37*
G36*
X158043500Y-109359100D02*
G01*
X157579900Y-109359100D01*
X157579900Y-109352700D01*
X158043500Y-109352700D01*
X158043500Y-109359100D01*
G37*
G36*
X157954600Y-109416200D02*
G01*
X157579900Y-109416200D01*
X157579900Y-109409900D01*
X157954600Y-109409900D01*
X157954600Y-109416200D01*
G37*
G36*
X157948200Y-109422600D02*
G01*
X157579900Y-109422600D01*
X157579900Y-109416200D01*
X157948200Y-109416200D01*
X157948200Y-109422600D01*
G37*
G36*
X157808500Y-109809900D02*
G01*
X157579900Y-109809900D01*
X157579900Y-109803600D01*
X157808500Y-109803600D01*
X157808500Y-109809900D01*
G37*
G36*
X158310200Y-108051000D02*
G01*
X157586300Y-108051000D01*
X157586300Y-108044600D01*
X158310200Y-108044600D01*
X158310200Y-108051000D01*
G37*
G36*
X158024400Y-109365400D02*
G01*
X157586300Y-109365400D01*
X157586300Y-109359100D01*
X158024400Y-109359100D01*
X158024400Y-109365400D01*
G37*
G36*
X158018100Y-109371800D02*
G01*
X157586300Y-109371800D01*
X157586300Y-109365400D01*
X158018100Y-109365400D01*
X158018100Y-109371800D01*
G37*
G36*
X158005400Y-109378100D02*
G01*
X157586300Y-109378100D01*
X157586300Y-109371800D01*
X158005400Y-109371800D01*
X158005400Y-109378100D01*
G37*
G36*
X157992700Y-109384500D02*
G01*
X157586300Y-109384500D01*
X157586300Y-109378100D01*
X157992700Y-109378100D01*
X157992700Y-109384500D01*
G37*
G36*
X157986300Y-109390800D02*
G01*
X157586300Y-109390800D01*
X157586300Y-109384500D01*
X157986300Y-109384500D01*
X157986300Y-109390800D01*
G37*
G36*
X157973600Y-109397200D02*
G01*
X157586300Y-109397200D01*
X157586300Y-109390800D01*
X157973600Y-109390800D01*
X157973600Y-109397200D01*
G37*
G36*
X157967300Y-109403500D02*
G01*
X157586300Y-109403500D01*
X157586300Y-109397200D01*
X157967300Y-109397200D01*
X157967300Y-109403500D01*
G37*
G36*
X157960900Y-109409900D02*
G01*
X157586300Y-109409900D01*
X157586300Y-109403500D01*
X157960900Y-109403500D01*
X157960900Y-109409900D01*
G37*
G36*
X157802200Y-109797200D02*
G01*
X157586300Y-109797200D01*
X157586300Y-109790900D01*
X157802200Y-109790900D01*
X157802200Y-109797200D01*
G37*
G36*
X157802200Y-109803600D02*
G01*
X157586300Y-109803600D01*
X157586300Y-109797200D01*
X157802200Y-109797200D01*
X157802200Y-109803600D01*
G37*
G36*
X158310200Y-108044600D02*
G01*
X157592600Y-108044600D01*
X157592600Y-108038300D01*
X158310200Y-108038300D01*
X158310200Y-108044600D01*
G37*
G36*
X157802200Y-109790900D02*
G01*
X157592600Y-109790900D01*
X157592600Y-109784500D01*
X157802200Y-109784500D01*
X157802200Y-109790900D01*
G37*
G36*
X158303800Y-108031900D02*
G01*
X157599000Y-108031900D01*
X157599000Y-108025600D01*
X158303800Y-108025600D01*
X158303800Y-108031900D01*
G37*
G36*
X158310200Y-108038300D02*
G01*
X157599000Y-108038300D01*
X157599000Y-108031900D01*
X158310200Y-108031900D01*
X158310200Y-108038300D01*
G37*
G36*
X159256300Y-109619400D02*
G01*
X157599000Y-109619400D01*
X157599000Y-109613100D01*
X159256300Y-109613100D01*
X159256300Y-109619400D01*
G37*
G36*
X157802200Y-109778200D02*
G01*
X157599000Y-109778200D01*
X157599000Y-109771800D01*
X157802200Y-109771800D01*
X157802200Y-109778200D01*
G37*
G36*
X157802200Y-109784500D02*
G01*
X157599000Y-109784500D01*
X157599000Y-109778200D01*
X157802200Y-109778200D01*
X157802200Y-109784500D01*
G37*
G36*
X158303800Y-108025600D02*
G01*
X157605300Y-108025600D01*
X157605300Y-108019200D01*
X158303800Y-108019200D01*
X158303800Y-108025600D01*
G37*
G36*
X157802200Y-109765500D02*
G01*
X157605300Y-109765500D01*
X157605300Y-109759100D01*
X157802200Y-109759100D01*
X157802200Y-109765500D01*
G37*
G36*
X157802200Y-109771800D02*
G01*
X157605300Y-109771800D01*
X157605300Y-109765500D01*
X157802200Y-109765500D01*
X157802200Y-109771800D01*
G37*
G36*
X158297500Y-108012900D02*
G01*
X157611700Y-108012900D01*
X157611700Y-108006500D01*
X158297500Y-108006500D01*
X158297500Y-108012900D01*
G37*
G36*
X158303800Y-108019200D02*
G01*
X157611700Y-108019200D01*
X157611700Y-108012900D01*
X158303800Y-108012900D01*
X158303800Y-108019200D01*
G37*
G36*
X159250000Y-109625800D02*
G01*
X157611700Y-109625800D01*
X157611700Y-109619400D01*
X159250000Y-109619400D01*
X159250000Y-109625800D01*
G37*
G36*
X157802200Y-109752800D02*
G01*
X157611700Y-109752800D01*
X157611700Y-109746400D01*
X157802200Y-109746400D01*
X157802200Y-109752800D01*
G37*
G36*
X157802200Y-109759100D02*
G01*
X157611700Y-109759100D01*
X157611700Y-109752800D01*
X157802200Y-109752800D01*
X157802200Y-109759100D01*
G37*
G36*
X158297500Y-108006500D02*
G01*
X157618000Y-108006500D01*
X157618000Y-108000200D01*
X158297500Y-108000200D01*
X158297500Y-108006500D01*
G37*
G36*
X159237300Y-109632100D02*
G01*
X157618000Y-109632100D01*
X157618000Y-109625800D01*
X159237300Y-109625800D01*
X159237300Y-109632100D01*
G37*
G36*
X157802200Y-109740100D02*
G01*
X157618000Y-109740100D01*
X157618000Y-109733700D01*
X157802200Y-109733700D01*
X157802200Y-109740100D01*
G37*
G36*
X157802200Y-109746400D02*
G01*
X157618000Y-109746400D01*
X157618000Y-109740100D01*
X157802200Y-109740100D01*
X157802200Y-109746400D01*
G37*
G36*
X158291100Y-107993800D02*
G01*
X157624400Y-107993800D01*
X157624400Y-107987500D01*
X158291100Y-107987500D01*
X158291100Y-107993800D01*
G37*
G36*
X158297500Y-108000200D02*
G01*
X157624400Y-108000200D01*
X157624400Y-107993800D01*
X158297500Y-107993800D01*
X158297500Y-108000200D01*
G37*
G36*
X159230900Y-109638500D02*
G01*
X157624400Y-109638500D01*
X157624400Y-109632100D01*
X159230900Y-109632100D01*
X159230900Y-109638500D01*
G37*
G36*
X159218200Y-109644800D02*
G01*
X157624400Y-109644800D01*
X157624400Y-109638500D01*
X159218200Y-109638500D01*
X159218200Y-109644800D01*
G37*
G36*
X157802200Y-109714700D02*
G01*
X157624400Y-109714700D01*
X157624400Y-109708300D01*
X157802200Y-109708300D01*
X157802200Y-109714700D01*
G37*
G36*
X157802200Y-109721000D02*
G01*
X157624400Y-109721000D01*
X157624400Y-109714700D01*
X157802200Y-109714700D01*
X157802200Y-109721000D01*
G37*
G36*
X157802200Y-109727400D02*
G01*
X157624400Y-109727400D01*
X157624400Y-109721000D01*
X157802200Y-109721000D01*
X157802200Y-109727400D01*
G37*
G36*
X157802200Y-109733700D02*
G01*
X157624400Y-109733700D01*
X157624400Y-109727400D01*
X157802200Y-109727400D01*
X157802200Y-109733700D01*
G37*
G36*
X158291100Y-107987500D02*
G01*
X157630700Y-107987500D01*
X157630700Y-107981100D01*
X158291100Y-107981100D01*
X158291100Y-107987500D01*
G37*
G36*
X159211900Y-109651200D02*
G01*
X157630700Y-109651200D01*
X157630700Y-109644800D01*
X159211900Y-109644800D01*
X159211900Y-109651200D01*
G37*
G36*
X159199200Y-109657500D02*
G01*
X157630700Y-109657500D01*
X157630700Y-109651200D01*
X159199200Y-109651200D01*
X159199200Y-109657500D01*
G37*
G36*
X157840300Y-109663900D02*
G01*
X157630700Y-109663900D01*
X157630700Y-109657500D01*
X157840300Y-109657500D01*
X157840300Y-109663900D01*
G37*
G36*
X157827600Y-109670200D02*
G01*
X157630700Y-109670200D01*
X157630700Y-109663900D01*
X157827600Y-109663900D01*
X157827600Y-109670200D01*
G37*
G36*
X157814900Y-109682900D02*
G01*
X157630700Y-109682900D01*
X157630700Y-109676600D01*
X157814900Y-109676600D01*
X157814900Y-109682900D01*
G37*
G36*
X157814900Y-109689300D02*
G01*
X157630700Y-109689300D01*
X157630700Y-109682900D01*
X157814900Y-109682900D01*
X157814900Y-109689300D01*
G37*
G36*
X157808500Y-109695600D02*
G01*
X157630700Y-109695600D01*
X157630700Y-109689300D01*
X157808500Y-109689300D01*
X157808500Y-109695600D01*
G37*
G36*
X157808500Y-109702000D02*
G01*
X157630700Y-109702000D01*
X157630700Y-109695600D01*
X157808500Y-109695600D01*
X157808500Y-109702000D01*
G37*
G36*
X157802200Y-109708300D02*
G01*
X157630700Y-109708300D01*
X157630700Y-109702000D01*
X157802200Y-109702000D01*
X157802200Y-109708300D01*
G37*
G36*
X158291100Y-107981100D02*
G01*
X157637100Y-107981100D01*
X157637100Y-107974800D01*
X158291100Y-107974800D01*
X158291100Y-107981100D01*
G37*
G36*
X157821200Y-109676600D02*
G01*
X157637100Y-109676600D01*
X157637100Y-109670200D01*
X157821200Y-109670200D01*
X157821200Y-109676600D01*
G37*
G36*
X158710200Y-110267100D02*
G01*
X157637100Y-110267100D01*
X157637100Y-110260800D01*
X158710200Y-110260800D01*
X158710200Y-110267100D01*
G37*
G36*
X158710200Y-110273500D02*
G01*
X157637100Y-110273500D01*
X157637100Y-110267100D01*
X158710200Y-110267100D01*
X158710200Y-110273500D01*
G37*
G36*
X158716600Y-110279800D02*
G01*
X157637100Y-110279800D01*
X157637100Y-110273500D01*
X158716600Y-110273500D01*
X158716600Y-110279800D01*
G37*
G36*
X158716600Y-110286200D02*
G01*
X157637100Y-110286200D01*
X157637100Y-110279800D01*
X158716600Y-110279800D01*
X158716600Y-110286200D01*
G37*
G36*
X158716600Y-110292500D02*
G01*
X157637100Y-110292500D01*
X157637100Y-110286200D01*
X158716600Y-110286200D01*
X158716600Y-110292500D01*
G37*
G36*
X158716600Y-110298900D02*
G01*
X157637100Y-110298900D01*
X157637100Y-110292500D01*
X158716600Y-110292500D01*
X158716600Y-110298900D01*
G37*
G36*
X158716600Y-110305200D02*
G01*
X157637100Y-110305200D01*
X157637100Y-110298900D01*
X158716600Y-110298900D01*
X158716600Y-110305200D01*
G37*
G36*
X158722900Y-110311600D02*
G01*
X157637100Y-110311600D01*
X157637100Y-110305200D01*
X158722900Y-110305200D01*
X158722900Y-110311600D01*
G37*
G36*
X158722900Y-110317900D02*
G01*
X157637100Y-110317900D01*
X157637100Y-110311600D01*
X158722900Y-110311600D01*
X158722900Y-110317900D01*
G37*
G36*
X158722900Y-110324300D02*
G01*
X157637100Y-110324300D01*
X157637100Y-110317900D01*
X158722900Y-110317900D01*
X158722900Y-110324300D01*
G37*
G36*
X158722900Y-110330600D02*
G01*
X157637100Y-110330600D01*
X157637100Y-110324300D01*
X158722900Y-110324300D01*
X158722900Y-110330600D01*
G37*
G36*
X158722900Y-110337000D02*
G01*
X157637100Y-110337000D01*
X157637100Y-110330600D01*
X158722900Y-110330600D01*
X158722900Y-110337000D01*
G37*
G36*
X158722900Y-110343300D02*
G01*
X157637100Y-110343300D01*
X157637100Y-110337000D01*
X158722900Y-110337000D01*
X158722900Y-110343300D01*
G37*
G36*
X158722900Y-110349700D02*
G01*
X157637100Y-110349700D01*
X157637100Y-110343300D01*
X158722900Y-110343300D01*
X158722900Y-110349700D01*
G37*
G36*
X158722900Y-110356000D02*
G01*
X157637100Y-110356000D01*
X157637100Y-110349700D01*
X158722900Y-110349700D01*
X158722900Y-110356000D01*
G37*
G36*
X158284800Y-107968400D02*
G01*
X157643400Y-107968400D01*
X157643400Y-107962100D01*
X158284800Y-107962100D01*
X158284800Y-107968400D01*
G37*
G36*
X158284800Y-107974800D02*
G01*
X157643400Y-107974800D01*
X157643400Y-107968400D01*
X158284800Y-107968400D01*
X158284800Y-107974800D01*
G37*
G36*
X158697500Y-110203600D02*
G01*
X157643400Y-110203600D01*
X157643400Y-110197300D01*
X158697500Y-110197300D01*
X158697500Y-110203600D01*
G37*
G36*
X158697500Y-110210000D02*
G01*
X157643400Y-110210000D01*
X157643400Y-110203600D01*
X158697500Y-110203600D01*
X158697500Y-110210000D01*
G37*
G36*
X158697500Y-110216300D02*
G01*
X157643400Y-110216300D01*
X157643400Y-110210000D01*
X158697500Y-110210000D01*
X158697500Y-110216300D01*
G37*
G36*
X158697500Y-110222700D02*
G01*
X157643400Y-110222700D01*
X157643400Y-110216300D01*
X158697500Y-110216300D01*
X158697500Y-110222700D01*
G37*
G36*
X158703900Y-110229000D02*
G01*
X157643400Y-110229000D01*
X157643400Y-110222700D01*
X158703900Y-110222700D01*
X158703900Y-110229000D01*
G37*
G36*
X158703900Y-110235400D02*
G01*
X157643400Y-110235400D01*
X157643400Y-110229000D01*
X158703900Y-110229000D01*
X158703900Y-110235400D01*
G37*
G36*
X158703900Y-110241700D02*
G01*
X157643400Y-110241700D01*
X157643400Y-110235400D01*
X158703900Y-110235400D01*
X158703900Y-110241700D01*
G37*
G36*
X158710200Y-110248100D02*
G01*
X157643400Y-110248100D01*
X157643400Y-110241700D01*
X158710200Y-110241700D01*
X158710200Y-110248100D01*
G37*
G36*
X158710200Y-110254400D02*
G01*
X157643400Y-110254400D01*
X157643400Y-110248100D01*
X158710200Y-110248100D01*
X158710200Y-110254400D01*
G37*
G36*
X158710200Y-110260800D02*
G01*
X157643400Y-110260800D01*
X157643400Y-110254400D01*
X158710200Y-110254400D01*
X158710200Y-110260800D01*
G37*
G36*
X158729300Y-110362400D02*
G01*
X157643400Y-110362400D01*
X157643400Y-110356000D01*
X158729300Y-110356000D01*
X158729300Y-110362400D01*
G37*
G36*
X158729300Y-110368700D02*
G01*
X157643400Y-110368700D01*
X157643400Y-110362400D01*
X158729300Y-110362400D01*
X158729300Y-110368700D01*
G37*
G36*
X158729300Y-110375100D02*
G01*
X157643400Y-110375100D01*
X157643400Y-110368700D01*
X158729300Y-110368700D01*
X158729300Y-110375100D01*
G37*
G36*
X158729300Y-110381400D02*
G01*
X157643400Y-110381400D01*
X157643400Y-110375100D01*
X158729300Y-110375100D01*
X158729300Y-110381400D01*
G37*
G36*
X158729300Y-110387800D02*
G01*
X157643400Y-110387800D01*
X157643400Y-110381400D01*
X158729300Y-110381400D01*
X158729300Y-110387800D01*
G37*
G36*
X158729300Y-110394100D02*
G01*
X157643400Y-110394100D01*
X157643400Y-110387800D01*
X158729300Y-110387800D01*
X158729300Y-110394100D01*
G37*
G36*
X158729300Y-110400500D02*
G01*
X157643400Y-110400500D01*
X157643400Y-110394100D01*
X158729300Y-110394100D01*
X158729300Y-110400500D01*
G37*
G36*
X158729300Y-110406800D02*
G01*
X157643400Y-110406800D01*
X157643400Y-110400500D01*
X158729300Y-110400500D01*
X158729300Y-110406800D01*
G37*
G36*
X158729300Y-110413200D02*
G01*
X157643400Y-110413200D01*
X157643400Y-110406800D01*
X158729300Y-110406800D01*
X158729300Y-110413200D01*
G37*
G36*
X158284800Y-107962100D02*
G01*
X157649800Y-107962100D01*
X157649800Y-107955700D01*
X158284800Y-107955700D01*
X158284800Y-107962100D01*
G37*
G36*
X158729300Y-110419500D02*
G01*
X157649800Y-110419500D01*
X157649800Y-110413200D01*
X158729300Y-110413200D01*
X158729300Y-110419500D01*
G37*
G36*
X158729300Y-110425900D02*
G01*
X157649800Y-110425900D01*
X157649800Y-110419500D01*
X158729300Y-110419500D01*
X158729300Y-110425900D01*
G37*
G36*
X158735600Y-110432200D02*
G01*
X157649800Y-110432200D01*
X157649800Y-110425900D01*
X158735600Y-110425900D01*
X158735600Y-110432200D01*
G37*
G36*
X158735600Y-110438600D02*
G01*
X157649800Y-110438600D01*
X157649800Y-110432200D01*
X158735600Y-110432200D01*
X158735600Y-110438600D01*
G37*
G36*
X158278400Y-107949400D02*
G01*
X157656100Y-107949400D01*
X157656100Y-107943000D01*
X158278400Y-107943000D01*
X158278400Y-107949400D01*
G37*
G36*
X158284800Y-107955700D02*
G01*
X157656100Y-107955700D01*
X157656100Y-107949400D01*
X158284800Y-107949400D01*
X158284800Y-107955700D01*
G37*
G36*
X158735600Y-110444900D02*
G01*
X157656100Y-110444900D01*
X157656100Y-110438600D01*
X158735600Y-110438600D01*
X158735600Y-110444900D01*
G37*
G36*
X158735600Y-110451300D02*
G01*
X157656100Y-110451300D01*
X157656100Y-110444900D01*
X158735600Y-110444900D01*
X158735600Y-110451300D01*
G37*
G36*
X158735600Y-110457600D02*
G01*
X157656100Y-110457600D01*
X157656100Y-110451300D01*
X158735600Y-110451300D01*
X158735600Y-110457600D01*
G37*
G36*
X158735600Y-110464000D02*
G01*
X157656100Y-110464000D01*
X157656100Y-110457600D01*
X158735600Y-110457600D01*
X158735600Y-110464000D01*
G37*
G36*
X158735600Y-110470300D02*
G01*
X157656100Y-110470300D01*
X157656100Y-110464000D01*
X158735600Y-110464000D01*
X158735600Y-110470300D01*
G37*
G36*
X158278400Y-107943000D02*
G01*
X157662500Y-107943000D01*
X157662500Y-107936700D01*
X158278400Y-107936700D01*
X158278400Y-107943000D01*
G37*
G36*
X158735600Y-110476700D02*
G01*
X157662500Y-110476700D01*
X157662500Y-110470300D01*
X158735600Y-110470300D01*
X158735600Y-110476700D01*
G37*
G36*
X158735600Y-110483000D02*
G01*
X157662500Y-110483000D01*
X157662500Y-110476700D01*
X158735600Y-110476700D01*
X158735600Y-110483000D01*
G37*
G36*
X158278400Y-107936700D02*
G01*
X157668800Y-107936700D01*
X157668800Y-107930300D01*
X158278400Y-107930300D01*
X158278400Y-107936700D01*
G37*
G36*
X158735600Y-110489400D02*
G01*
X157668800Y-110489400D01*
X157668800Y-110483000D01*
X158735600Y-110483000D01*
X158735600Y-110489400D01*
G37*
G36*
X158735600Y-110495700D02*
G01*
X157668800Y-110495700D01*
X157668800Y-110489400D01*
X158735600Y-110489400D01*
X158735600Y-110495700D01*
G37*
G36*
X158735600Y-110502100D02*
G01*
X157668800Y-110502100D01*
X157668800Y-110495700D01*
X158735600Y-110495700D01*
X158735600Y-110502100D01*
G37*
G36*
X158735600Y-110508400D02*
G01*
X157668800Y-110508400D01*
X157668800Y-110502100D01*
X158735600Y-110502100D01*
X158735600Y-110508400D01*
G37*
G36*
X158272100Y-107924000D02*
G01*
X157675200Y-107924000D01*
X157675200Y-107917600D01*
X158272100Y-107917600D01*
X158272100Y-107924000D01*
G37*
G36*
X158272100Y-107930300D02*
G01*
X157675200Y-107930300D01*
X157675200Y-107924000D01*
X158272100Y-107924000D01*
X158272100Y-107930300D01*
G37*
G36*
X158735600Y-110514800D02*
G01*
X157675200Y-110514800D01*
X157675200Y-110508400D01*
X158735600Y-110508400D01*
X158735600Y-110514800D01*
G37*
G36*
X158735600Y-110521100D02*
G01*
X157675200Y-110521100D01*
X157675200Y-110514800D01*
X158735600Y-110514800D01*
X158735600Y-110521100D01*
G37*
G36*
X158272100Y-107917600D02*
G01*
X157681500Y-107917600D01*
X157681500Y-107911300D01*
X158272100Y-107911300D01*
X158272100Y-107917600D01*
G37*
G36*
X158735600Y-110527500D02*
G01*
X157681500Y-110527500D01*
X157681500Y-110521100D01*
X158735600Y-110521100D01*
X158735600Y-110527500D01*
G37*
G36*
X158735600Y-110533800D02*
G01*
X157681500Y-110533800D01*
X157681500Y-110527500D01*
X158735600Y-110527500D01*
X158735600Y-110533800D01*
G37*
G36*
X158735600Y-110540200D02*
G01*
X157681500Y-110540200D01*
X157681500Y-110533800D01*
X158735600Y-110533800D01*
X158735600Y-110540200D01*
G37*
G36*
X158265700Y-107911300D02*
G01*
X157687900Y-107911300D01*
X157687900Y-107904900D01*
X158265700Y-107904900D01*
X158265700Y-107911300D01*
G37*
G36*
X158735600Y-110546500D02*
G01*
X157687900Y-110546500D01*
X157687900Y-110540200D01*
X158735600Y-110540200D01*
X158735600Y-110546500D01*
G37*
G36*
X158735600Y-110552900D02*
G01*
X157687900Y-110552900D01*
X157687900Y-110546500D01*
X158735600Y-110546500D01*
X158735600Y-110552900D01*
G37*
G36*
X158265700Y-107898600D02*
G01*
X157694200Y-107898600D01*
X157694200Y-107892200D01*
X158265700Y-107892200D01*
X158265700Y-107898600D01*
G37*
G36*
X158265700Y-107904900D02*
G01*
X157694200Y-107904900D01*
X157694200Y-107898600D01*
X158265700Y-107898600D01*
X158265700Y-107904900D01*
G37*
G36*
X158735600Y-110559200D02*
G01*
X157694200Y-110559200D01*
X157694200Y-110552900D01*
X158735600Y-110552900D01*
X158735600Y-110559200D01*
G37*
G36*
X158735600Y-110565600D02*
G01*
X157694200Y-110565600D01*
X157694200Y-110559200D01*
X158735600Y-110559200D01*
X158735600Y-110565600D01*
G37*
G36*
X158259400Y-107892200D02*
G01*
X157700600Y-107892200D01*
X157700600Y-107885900D01*
X158259400Y-107885900D01*
X158259400Y-107892200D01*
G37*
G36*
X158735600Y-110571900D02*
G01*
X157700600Y-110571900D01*
X157700600Y-110565600D01*
X158735600Y-110565600D01*
X158735600Y-110571900D01*
G37*
G36*
X158735600Y-110578300D02*
G01*
X157700600Y-110578300D01*
X157700600Y-110571900D01*
X158735600Y-110571900D01*
X158735600Y-110578300D01*
G37*
G36*
X158259400Y-107879500D02*
G01*
X157706900Y-107879500D01*
X157706900Y-107873200D01*
X158259400Y-107873200D01*
X158259400Y-107879500D01*
G37*
G36*
X158259400Y-107885900D02*
G01*
X157706900Y-107885900D01*
X157706900Y-107879500D01*
X158259400Y-107879500D01*
X158259400Y-107885900D01*
G37*
G36*
X158735600Y-110584600D02*
G01*
X157706900Y-110584600D01*
X157706900Y-110578300D01*
X158735600Y-110578300D01*
X158735600Y-110584600D01*
G37*
G36*
X158735600Y-110591000D02*
G01*
X157706900Y-110591000D01*
X157706900Y-110584600D01*
X158735600Y-110584600D01*
X158735600Y-110591000D01*
G37*
G36*
X158253000Y-107873200D02*
G01*
X157713300Y-107873200D01*
X157713300Y-107866800D01*
X158253000Y-107866800D01*
X158253000Y-107873200D01*
G37*
G36*
X158735600Y-110597300D02*
G01*
X157713300Y-110597300D01*
X157713300Y-110591000D01*
X158735600Y-110591000D01*
X158735600Y-110597300D01*
G37*
G36*
X158253000Y-107866800D02*
G01*
X157719600Y-107866800D01*
X157719600Y-107860500D01*
X158253000Y-107860500D01*
X158253000Y-107866800D01*
G37*
G36*
X158735600Y-110603700D02*
G01*
X157719600Y-110603700D01*
X157719600Y-110597300D01*
X158735600Y-110597300D01*
X158735600Y-110603700D01*
G37*
G36*
X158735600Y-110610000D02*
G01*
X157719600Y-110610000D01*
X157719600Y-110603700D01*
X158735600Y-110603700D01*
X158735600Y-110610000D01*
G37*
G36*
X158246700Y-107854100D02*
G01*
X157726000Y-107854100D01*
X157726000Y-107847800D01*
X158246700Y-107847800D01*
X158246700Y-107854100D01*
G37*
G36*
X158253000Y-107860500D02*
G01*
X157726000Y-107860500D01*
X157726000Y-107854100D01*
X158253000Y-107854100D01*
X158253000Y-107860500D01*
G37*
G36*
X158735600Y-110616400D02*
G01*
X157726000Y-110616400D01*
X157726000Y-110610000D01*
X158735600Y-110610000D01*
X158735600Y-110616400D01*
G37*
G36*
X158735600Y-110622700D02*
G01*
X157726000Y-110622700D01*
X157726000Y-110616400D01*
X158735600Y-110616400D01*
X158735600Y-110622700D01*
G37*
G36*
X158246700Y-107847800D02*
G01*
X157732300Y-107847800D01*
X157732300Y-107841400D01*
X158246700Y-107841400D01*
X158246700Y-107847800D01*
G37*
G36*
X158735600Y-110629100D02*
G01*
X157732300Y-110629100D01*
X157732300Y-110622700D01*
X158735600Y-110622700D01*
X158735600Y-110629100D01*
G37*
G36*
X158240300Y-107835100D02*
G01*
X157738700Y-107835100D01*
X157738700Y-107828700D01*
X158240300Y-107828700D01*
X158240300Y-107835100D01*
G37*
G36*
X158246700Y-107841400D02*
G01*
X157738700Y-107841400D01*
X157738700Y-107835100D01*
X158246700Y-107835100D01*
X158246700Y-107841400D01*
G37*
G36*
X158735600Y-110635400D02*
G01*
X157738700Y-110635400D01*
X157738700Y-110629100D01*
X158735600Y-110629100D01*
X158735600Y-110635400D01*
G37*
G36*
X158735600Y-110641800D02*
G01*
X157738700Y-110641800D01*
X157738700Y-110635400D01*
X158735600Y-110635400D01*
X158735600Y-110641800D01*
G37*
G36*
X158240300Y-107828700D02*
G01*
X157745000Y-107828700D01*
X157745000Y-107822400D01*
X158240300Y-107822400D01*
X158240300Y-107828700D01*
G37*
G36*
X158735600Y-110648100D02*
G01*
X157745000Y-110648100D01*
X157745000Y-110641800D01*
X158735600Y-110641800D01*
X158735600Y-110648100D01*
G37*
G36*
X158240300Y-107822400D02*
G01*
X157751400Y-107822400D01*
X157751400Y-107816000D01*
X158240300Y-107816000D01*
X158240300Y-107822400D01*
G37*
G36*
X158735600Y-110654500D02*
G01*
X157751400Y-110654500D01*
X157751400Y-110648100D01*
X158735600Y-110648100D01*
X158735600Y-110654500D01*
G37*
G36*
X158735600Y-110660800D02*
G01*
X157751400Y-110660800D01*
X157751400Y-110654500D01*
X158735600Y-110654500D01*
X158735600Y-110660800D01*
G37*
G36*
X158234000Y-107809700D02*
G01*
X157757700Y-107809700D01*
X157757700Y-107803300D01*
X158234000Y-107803300D01*
X158234000Y-107809700D01*
G37*
G36*
X158234000Y-107816000D02*
G01*
X157757700Y-107816000D01*
X157757700Y-107809700D01*
X158234000Y-107809700D01*
X158234000Y-107816000D01*
G37*
G36*
X158735600Y-110667200D02*
G01*
X157757700Y-110667200D01*
X157757700Y-110660800D01*
X158735600Y-110660800D01*
X158735600Y-110667200D01*
G37*
G36*
X158234000Y-107803300D02*
G01*
X157764100Y-107803300D01*
X157764100Y-107797000D01*
X158234000Y-107797000D01*
X158234000Y-107803300D01*
G37*
G36*
X158735600Y-110673500D02*
G01*
X157764100Y-110673500D01*
X157764100Y-110667200D01*
X158735600Y-110667200D01*
X158735600Y-110673500D01*
G37*
G36*
X158227600Y-107797000D02*
G01*
X157770400Y-107797000D01*
X157770400Y-107790600D01*
X158227600Y-107790600D01*
X158227600Y-107797000D01*
G37*
G36*
X158735600Y-110679900D02*
G01*
X157770400Y-110679900D01*
X157770400Y-110673500D01*
X158735600Y-110673500D01*
X158735600Y-110679900D01*
G37*
G36*
X158735600Y-110686200D02*
G01*
X157770400Y-110686200D01*
X157770400Y-110679900D01*
X158735600Y-110679900D01*
X158735600Y-110686200D01*
G37*
G36*
X158227600Y-107784300D02*
G01*
X157776800Y-107784300D01*
X157776800Y-107777900D01*
X158227600Y-107777900D01*
X158227600Y-107784300D01*
G37*
G36*
X158227600Y-107790600D02*
G01*
X157776800Y-107790600D01*
X157776800Y-107784300D01*
X158227600Y-107784300D01*
X158227600Y-107790600D01*
G37*
G36*
X158735600Y-110692600D02*
G01*
X157776800Y-110692600D01*
X157776800Y-110686200D01*
X158735600Y-110686200D01*
X158735600Y-110692600D01*
G37*
G36*
X158227600Y-107777900D02*
G01*
X157783100Y-107777900D01*
X157783100Y-107771600D01*
X158227600Y-107771600D01*
X158227600Y-107777900D01*
G37*
G36*
X158735600Y-110698900D02*
G01*
X157783100Y-110698900D01*
X157783100Y-110692600D01*
X158735600Y-110692600D01*
X158735600Y-110698900D01*
G37*
G36*
X158221300Y-107765200D02*
G01*
X157789500Y-107765200D01*
X157789500Y-107758900D01*
X158221300Y-107758900D01*
X158221300Y-107765200D01*
G37*
G36*
X158221300Y-107771600D02*
G01*
X157789500Y-107771600D01*
X157789500Y-107765200D01*
X158221300Y-107765200D01*
X158221300Y-107771600D01*
G37*
G36*
X158214900Y-109314600D02*
G01*
X157789500Y-109314600D01*
X157789500Y-109308300D01*
X158214900Y-109308300D01*
X158214900Y-109314600D01*
G37*
G36*
X158735600Y-110705300D02*
G01*
X157789500Y-110705300D01*
X157789500Y-110698900D01*
X158735600Y-110698900D01*
X158735600Y-110705300D01*
G37*
G36*
X158214900Y-107758900D02*
G01*
X157795800Y-107758900D01*
X157795800Y-107752500D01*
X158214900Y-107752500D01*
X158214900Y-107758900D01*
G37*
G36*
X158735600Y-110711600D02*
G01*
X157795800Y-110711600D01*
X157795800Y-110705300D01*
X158735600Y-110705300D01*
X158735600Y-110711600D01*
G37*
G36*
X158735600Y-110718000D02*
G01*
X157795800Y-110718000D01*
X157795800Y-110711600D01*
X158735600Y-110711600D01*
X158735600Y-110718000D01*
G37*
G36*
X158214900Y-107746200D02*
G01*
X157802200Y-107746200D01*
X157802200Y-107739800D01*
X158214900Y-107739800D01*
X158214900Y-107746200D01*
G37*
G36*
X158214900Y-107752500D02*
G01*
X157802200Y-107752500D01*
X157802200Y-107746200D01*
X158214900Y-107746200D01*
X158214900Y-107752500D01*
G37*
G36*
X158735600Y-110724300D02*
G01*
X157802200Y-110724300D01*
X157802200Y-110718000D01*
X158735600Y-110718000D01*
X158735600Y-110724300D01*
G37*
G36*
X158214900Y-107739800D02*
G01*
X157808500Y-107739800D01*
X157808500Y-107733500D01*
X158214900Y-107733500D01*
X158214900Y-107739800D01*
G37*
G36*
X158735600Y-110730700D02*
G01*
X157808500Y-110730700D01*
X157808500Y-110724300D01*
X158735600Y-110724300D01*
X158735600Y-110730700D01*
G37*
G36*
X158208600Y-107733500D02*
G01*
X157814900Y-107733500D01*
X157814900Y-107727100D01*
X158208600Y-107727100D01*
X158208600Y-107733500D01*
G37*
G36*
X159681800Y-109308300D02*
G01*
X157814900Y-109308300D01*
X157814900Y-109301900D01*
X159681800Y-109301900D01*
X159681800Y-109308300D01*
G37*
G36*
X158735600Y-110737000D02*
G01*
X157814900Y-110737000D01*
X157814900Y-110730700D01*
X158735600Y-110730700D01*
X158735600Y-110737000D01*
G37*
G36*
X158208600Y-107720800D02*
G01*
X157821200Y-107720800D01*
X157821200Y-107714400D01*
X158208600Y-107714400D01*
X158208600Y-107720800D01*
G37*
G36*
X158208600Y-107727100D02*
G01*
X157821200Y-107727100D01*
X157821200Y-107720800D01*
X158208600Y-107720800D01*
X158208600Y-107727100D01*
G37*
G36*
X159688100Y-109301900D02*
G01*
X157821200Y-109301900D01*
X157821200Y-109295600D01*
X159688100Y-109295600D01*
X159688100Y-109301900D01*
G37*
G36*
X158735600Y-110743400D02*
G01*
X157821200Y-110743400D01*
X157821200Y-110737000D01*
X158735600Y-110737000D01*
X158735600Y-110743400D01*
G37*
G36*
X158202200Y-107714400D02*
G01*
X157827600Y-107714400D01*
X157827600Y-107708100D01*
X158202200Y-107708100D01*
X158202200Y-107714400D01*
G37*
G36*
X158735600Y-110749700D02*
G01*
X157827600Y-110749700D01*
X157827600Y-110743400D01*
X158735600Y-110743400D01*
X158735600Y-110749700D01*
G37*
G36*
X158202200Y-107701700D02*
G01*
X157833900Y-107701700D01*
X157833900Y-107695400D01*
X158202200Y-107695400D01*
X158202200Y-107701700D01*
G37*
G36*
X158202200Y-107708100D02*
G01*
X157833900Y-107708100D01*
X157833900Y-107701700D01*
X158202200Y-107701700D01*
X158202200Y-107708100D01*
G37*
G36*
X159700800Y-109289200D02*
G01*
X157833900Y-109289200D01*
X157833900Y-109282900D01*
X159700800Y-109282900D01*
X159700800Y-109289200D01*
G37*
G36*
X159694500Y-109295600D02*
G01*
X157833900Y-109295600D01*
X157833900Y-109289200D01*
X159694500Y-109289200D01*
X159694500Y-109295600D01*
G37*
G36*
X158735600Y-110756100D02*
G01*
X157833900Y-110756100D01*
X157833900Y-110749700D01*
X158735600Y-110749700D01*
X158735600Y-110756100D01*
G37*
G36*
X158195900Y-107695400D02*
G01*
X157840300Y-107695400D01*
X157840300Y-107689000D01*
X158195900Y-107689000D01*
X158195900Y-107695400D01*
G37*
G36*
X158735600Y-110762400D02*
G01*
X157840300Y-110762400D01*
X157840300Y-110756100D01*
X158735600Y-110756100D01*
X158735600Y-110762400D01*
G37*
G36*
X158195900Y-107689000D02*
G01*
X157846600Y-107689000D01*
X157846600Y-107682700D01*
X158195900Y-107682700D01*
X158195900Y-107689000D01*
G37*
G36*
X159707200Y-109276500D02*
G01*
X157846600Y-109276500D01*
X157846600Y-109270200D01*
X159707200Y-109270200D01*
X159707200Y-109276500D01*
G37*
G36*
X159707200Y-109282900D02*
G01*
X157846600Y-109282900D01*
X157846600Y-109276500D01*
X159707200Y-109276500D01*
X159707200Y-109282900D01*
G37*
G36*
X158735600Y-110768800D02*
G01*
X157846600Y-110768800D01*
X157846600Y-110762400D01*
X158735600Y-110762400D01*
X158735600Y-110768800D01*
G37*
G36*
X158189500Y-107676300D02*
G01*
X157853000Y-107676300D01*
X157853000Y-107670000D01*
X158189500Y-107670000D01*
X158189500Y-107676300D01*
G37*
G36*
X158195900Y-107682700D02*
G01*
X157853000Y-107682700D01*
X157853000Y-107676300D01*
X158195900Y-107676300D01*
X158195900Y-107682700D01*
G37*
G36*
X159713500Y-109270200D02*
G01*
X157853000Y-109270200D01*
X157853000Y-109263800D01*
X159713500Y-109263800D01*
X159713500Y-109270200D01*
G37*
G36*
X158735600Y-110775100D02*
G01*
X157853000Y-110775100D01*
X157853000Y-110768800D01*
X158735600Y-110768800D01*
X158735600Y-110775100D01*
G37*
G36*
X158189500Y-107670000D02*
G01*
X157859300Y-107670000D01*
X157859300Y-107663600D01*
X158189500Y-107663600D01*
X158189500Y-107670000D01*
G37*
G36*
X159713500Y-109263800D02*
G01*
X157859300Y-109263800D01*
X157859300Y-109257500D01*
X159713500Y-109257500D01*
X159713500Y-109263800D01*
G37*
G36*
X158735600Y-110781500D02*
G01*
X157859300Y-110781500D01*
X157859300Y-110775100D01*
X158735600Y-110775100D01*
X158735600Y-110781500D01*
G37*
G36*
X158189500Y-107663600D02*
G01*
X157865700Y-107663600D01*
X157865700Y-107657300D01*
X158189500Y-107657300D01*
X158189500Y-107663600D01*
G37*
G36*
X159719900Y-109251100D02*
G01*
X157865700Y-109251100D01*
X157865700Y-109244800D01*
X159719900Y-109244800D01*
X159719900Y-109251100D01*
G37*
G36*
X159719900Y-109257500D02*
G01*
X157865700Y-109257500D01*
X157865700Y-109251100D01*
X159719900Y-109251100D01*
X159719900Y-109257500D01*
G37*
G36*
X158735600Y-110787800D02*
G01*
X157865700Y-110787800D01*
X157865700Y-110781500D01*
X158735600Y-110781500D01*
X158735600Y-110787800D01*
G37*
G36*
X158183200Y-107650900D02*
G01*
X157872000Y-107650900D01*
X157872000Y-107644600D01*
X158183200Y-107644600D01*
X158183200Y-107650900D01*
G37*
G36*
X158183200Y-107657300D02*
G01*
X157872000Y-107657300D01*
X157872000Y-107650900D01*
X158183200Y-107650900D01*
X158183200Y-107657300D01*
G37*
G36*
X159726200Y-109238400D02*
G01*
X157872000Y-109238400D01*
X157872000Y-109232100D01*
X159726200Y-109232100D01*
X159726200Y-109238400D01*
G37*
G36*
X159726200Y-109244800D02*
G01*
X157872000Y-109244800D01*
X157872000Y-109238400D01*
X159726200Y-109238400D01*
X159726200Y-109244800D01*
G37*
G36*
X158735600Y-110794200D02*
G01*
X157872000Y-110794200D01*
X157872000Y-110787800D01*
X158735600Y-110787800D01*
X158735600Y-110794200D01*
G37*
G36*
X158183200Y-107644600D02*
G01*
X157878400Y-107644600D01*
X157878400Y-107638200D01*
X158183200Y-107638200D01*
X158183200Y-107644600D01*
G37*
G36*
X158386400Y-108787600D02*
G01*
X157878400Y-108787600D01*
X157878400Y-108781200D01*
X158386400Y-108781200D01*
X158386400Y-108787600D01*
G37*
G36*
X159726200Y-109225700D02*
G01*
X157878400Y-109225700D01*
X157878400Y-109219400D01*
X159726200Y-109219400D01*
X159726200Y-109225700D01*
G37*
G36*
X159726200Y-109232100D02*
G01*
X157878400Y-109232100D01*
X157878400Y-109225700D01*
X159726200Y-109225700D01*
X159726200Y-109232100D01*
G37*
G36*
X159192800Y-109663900D02*
G01*
X157878400Y-109663900D01*
X157878400Y-109657500D01*
X159192800Y-109657500D01*
X159192800Y-109663900D01*
G37*
G36*
X158735600Y-110800500D02*
G01*
X157878400Y-110800500D01*
X157878400Y-110794200D01*
X158735600Y-110794200D01*
X158735600Y-110800500D01*
G37*
G36*
X158176800Y-107631900D02*
G01*
X157884700Y-107631900D01*
X157884700Y-107625500D01*
X158176800Y-107625500D01*
X158176800Y-107631900D01*
G37*
G36*
X158176800Y-107638200D02*
G01*
X157884700Y-107638200D01*
X157884700Y-107631900D01*
X158176800Y-107631900D01*
X158176800Y-107638200D01*
G37*
G36*
X158380000Y-108793900D02*
G01*
X157884700Y-108793900D01*
X157884700Y-108787600D01*
X158380000Y-108787600D01*
X158380000Y-108793900D01*
G37*
G36*
X159726200Y-109213000D02*
G01*
X157884700Y-109213000D01*
X157884700Y-109206700D01*
X159726200Y-109206700D01*
X159726200Y-109213000D01*
G37*
G36*
X159726200Y-109219400D02*
G01*
X157884700Y-109219400D01*
X157884700Y-109213000D01*
X159726200Y-109213000D01*
X159726200Y-109219400D01*
G37*
G36*
X158735600Y-110806900D02*
G01*
X157884700Y-110806900D01*
X157884700Y-110800500D01*
X158735600Y-110800500D01*
X158735600Y-110806900D01*
G37*
G36*
X158176800Y-107625500D02*
G01*
X157891100Y-107625500D01*
X157891100Y-107619200D01*
X158176800Y-107619200D01*
X158176800Y-107625500D01*
G37*
G36*
X158380000Y-108800300D02*
G01*
X157891100Y-108800300D01*
X157891100Y-108793900D01*
X158380000Y-108793900D01*
X158380000Y-108800300D01*
G37*
G36*
X159726200Y-109200300D02*
G01*
X157891100Y-109200300D01*
X157891100Y-109194000D01*
X159726200Y-109194000D01*
X159726200Y-109200300D01*
G37*
G36*
X159726200Y-109206700D02*
G01*
X157891100Y-109206700D01*
X157891100Y-109200300D01*
X159726200Y-109200300D01*
X159726200Y-109206700D01*
G37*
G36*
X158735600Y-110813200D02*
G01*
X157891100Y-110813200D01*
X157891100Y-110806900D01*
X158735600Y-110806900D01*
X158735600Y-110813200D01*
G37*
G36*
X158170500Y-107619200D02*
G01*
X157897400Y-107619200D01*
X157897400Y-107612800D01*
X158170500Y-107612800D01*
X158170500Y-107619200D01*
G37*
G36*
X158380000Y-108806600D02*
G01*
X157897400Y-108806600D01*
X157897400Y-108800300D01*
X158380000Y-108800300D01*
X158380000Y-108806600D01*
G37*
G36*
X159726200Y-109187600D02*
G01*
X157897400Y-109187600D01*
X157897400Y-109181300D01*
X159726200Y-109181300D01*
X159726200Y-109187600D01*
G37*
G36*
X159726200Y-109194000D02*
G01*
X157897400Y-109194000D01*
X157897400Y-109187600D01*
X159726200Y-109187600D01*
X159726200Y-109194000D01*
G37*
G36*
X159186500Y-109670200D02*
G01*
X157897400Y-109670200D01*
X157897400Y-109663900D01*
X159186500Y-109663900D01*
X159186500Y-109670200D01*
G37*
G36*
X158164100Y-107606500D02*
G01*
X157903800Y-107606500D01*
X157903800Y-107600100D01*
X158164100Y-107600100D01*
X158164100Y-107606500D01*
G37*
G36*
X158170500Y-107612800D02*
G01*
X157903800Y-107612800D01*
X157903800Y-107606500D01*
X158170500Y-107606500D01*
X158170500Y-107612800D01*
G37*
G36*
X158373700Y-108813000D02*
G01*
X157903800Y-108813000D01*
X157903800Y-108806600D01*
X158373700Y-108806600D01*
X158373700Y-108813000D01*
G37*
G36*
X158373700Y-108819300D02*
G01*
X157903800Y-108819300D01*
X157903800Y-108813000D01*
X158373700Y-108813000D01*
X158373700Y-108819300D01*
G37*
G36*
X159719900Y-109162200D02*
G01*
X157903800Y-109162200D01*
X157903800Y-109155900D01*
X159719900Y-109155900D01*
X159719900Y-109162200D01*
G37*
G36*
X159719900Y-109168600D02*
G01*
X157903800Y-109168600D01*
X157903800Y-109162200D01*
X159719900Y-109162200D01*
X159719900Y-109168600D01*
G37*
G36*
X159726200Y-109174900D02*
G01*
X157903800Y-109174900D01*
X157903800Y-109168600D01*
X159726200Y-109168600D01*
X159726200Y-109174900D01*
G37*
G36*
X159726200Y-109181300D02*
G01*
X157903800Y-109181300D01*
X157903800Y-109174900D01*
X159726200Y-109174900D01*
X159726200Y-109181300D01*
G37*
G36*
X158735600Y-110819600D02*
G01*
X157903800Y-110819600D01*
X157903800Y-110813200D01*
X158735600Y-110813200D01*
X158735600Y-110819600D01*
G37*
G36*
X158164100Y-107600100D02*
G01*
X157910100Y-107600100D01*
X157910100Y-107593800D01*
X158164100Y-107593800D01*
X158164100Y-107600100D01*
G37*
G36*
X158367300Y-108825700D02*
G01*
X157910100Y-108825700D01*
X157910100Y-108819300D01*
X158367300Y-108819300D01*
X158367300Y-108825700D01*
G37*
G36*
X159713500Y-109149500D02*
G01*
X157910100Y-109149500D01*
X157910100Y-109143200D01*
X159713500Y-109143200D01*
X159713500Y-109149500D01*
G37*
G36*
X159719900Y-109155900D02*
G01*
X157910100Y-109155900D01*
X157910100Y-109149500D01*
X159719900Y-109149500D01*
X159719900Y-109155900D01*
G37*
G36*
X159173800Y-109676600D02*
G01*
X157910100Y-109676600D01*
X157910100Y-109670200D01*
X159173800Y-109670200D01*
X159173800Y-109676600D01*
G37*
G36*
X158735600Y-110825900D02*
G01*
X157910100Y-110825900D01*
X157910100Y-110819600D01*
X158735600Y-110819600D01*
X158735600Y-110825900D01*
G37*
G36*
X158157800Y-107593800D02*
G01*
X157916500Y-107593800D01*
X157916500Y-107587400D01*
X158157800Y-107587400D01*
X158157800Y-107593800D01*
G37*
G36*
X158367300Y-108832000D02*
G01*
X157916500Y-108832000D01*
X157916500Y-108825700D01*
X158367300Y-108825700D01*
X158367300Y-108832000D01*
G37*
G36*
X158361000Y-108838400D02*
G01*
X157916500Y-108838400D01*
X157916500Y-108832000D01*
X158361000Y-108832000D01*
X158361000Y-108838400D01*
G37*
G36*
X158361000Y-108844700D02*
G01*
X157916500Y-108844700D01*
X157916500Y-108838400D01*
X158361000Y-108838400D01*
X158361000Y-108844700D01*
G37*
G36*
X159700800Y-109117800D02*
G01*
X157916500Y-109117800D01*
X157916500Y-109111400D01*
X159700800Y-109111400D01*
X159700800Y-109117800D01*
G37*
G36*
X159700800Y-109124100D02*
G01*
X157916500Y-109124100D01*
X157916500Y-109117800D01*
X159700800Y-109117800D01*
X159700800Y-109124100D01*
G37*
G36*
X159707200Y-109130500D02*
G01*
X157916500Y-109130500D01*
X157916500Y-109124100D01*
X159707200Y-109124100D01*
X159707200Y-109130500D01*
G37*
G36*
X159713500Y-109136800D02*
G01*
X157916500Y-109136800D01*
X157916500Y-109130500D01*
X159713500Y-109130500D01*
X159713500Y-109136800D01*
G37*
G36*
X159713500Y-109143200D02*
G01*
X157916500Y-109143200D01*
X157916500Y-109136800D01*
X159713500Y-109136800D01*
X159713500Y-109143200D01*
G37*
G36*
X159167400Y-109682900D02*
G01*
X157916500Y-109682900D01*
X157916500Y-109676600D01*
X159167400Y-109676600D01*
X159167400Y-109682900D01*
G37*
G36*
X158735600Y-110832300D02*
G01*
X157916500Y-110832300D01*
X157916500Y-110825900D01*
X158735600Y-110825900D01*
X158735600Y-110832300D01*
G37*
G36*
X158157800Y-107587400D02*
G01*
X157922800Y-107587400D01*
X157922800Y-107581100D01*
X158157800Y-107581100D01*
X158157800Y-107587400D01*
G37*
G36*
X158354600Y-108851100D02*
G01*
X157922800Y-108851100D01*
X157922800Y-108844700D01*
X158354600Y-108844700D01*
X158354600Y-108851100D01*
G37*
G36*
X158354600Y-108857400D02*
G01*
X157922800Y-108857400D01*
X157922800Y-108851100D01*
X158354600Y-108851100D01*
X158354600Y-108857400D01*
G37*
G36*
X158348300Y-108863800D02*
G01*
X157922800Y-108863800D01*
X157922800Y-108857400D01*
X158348300Y-108857400D01*
X158348300Y-108863800D01*
G37*
G36*
X159662700Y-109092400D02*
G01*
X157922800Y-109092400D01*
X157922800Y-109086000D01*
X159662700Y-109086000D01*
X159662700Y-109092400D01*
G37*
G36*
X159675400Y-109098700D02*
G01*
X157922800Y-109098700D01*
X157922800Y-109092400D01*
X159675400Y-109092400D01*
X159675400Y-109098700D01*
G37*
G36*
X159681800Y-109105100D02*
G01*
X157922800Y-109105100D01*
X157922800Y-109098700D01*
X159681800Y-109098700D01*
X159681800Y-109105100D01*
G37*
G36*
X159694500Y-109111400D02*
G01*
X157922800Y-109111400D01*
X157922800Y-109105100D01*
X159694500Y-109105100D01*
X159694500Y-109111400D01*
G37*
G36*
X158735600Y-110838600D02*
G01*
X157922800Y-110838600D01*
X157922800Y-110832300D01*
X158735600Y-110832300D01*
X158735600Y-110838600D01*
G37*
G36*
X158151400Y-107574700D02*
G01*
X157929200Y-107574700D01*
X157929200Y-107568400D01*
X158151400Y-107568400D01*
X158151400Y-107574700D01*
G37*
G36*
X158151400Y-107581100D02*
G01*
X157929200Y-107581100D01*
X157929200Y-107574700D01*
X158151400Y-107574700D01*
X158151400Y-107581100D01*
G37*
G36*
X158341900Y-108870100D02*
G01*
X157929200Y-108870100D01*
X157929200Y-108863800D01*
X158341900Y-108863800D01*
X158341900Y-108870100D01*
G37*
G36*
X158341900Y-108876500D02*
G01*
X157929200Y-108876500D01*
X157929200Y-108870100D01*
X158341900Y-108870100D01*
X158341900Y-108876500D01*
G37*
G36*
X158335600Y-108882800D02*
G01*
X157929200Y-108882800D01*
X157929200Y-108876500D01*
X158335600Y-108876500D01*
X158335600Y-108882800D01*
G37*
G36*
X158329200Y-108889200D02*
G01*
X157929200Y-108889200D01*
X157929200Y-108882800D01*
X158329200Y-108882800D01*
X158329200Y-108889200D01*
G37*
G36*
X158329200Y-108895500D02*
G01*
X157929200Y-108895500D01*
X157929200Y-108889200D01*
X158329200Y-108889200D01*
X158329200Y-108895500D01*
G37*
G36*
X159548400Y-109047900D02*
G01*
X157929200Y-109047900D01*
X157929200Y-109041600D01*
X159548400Y-109041600D01*
X159548400Y-109047900D01*
G37*
G36*
X159573800Y-109054300D02*
G01*
X157929200Y-109054300D01*
X157929200Y-109047900D01*
X159573800Y-109047900D01*
X159573800Y-109054300D01*
G37*
G36*
X159592900Y-109060600D02*
G01*
X157929200Y-109060600D01*
X157929200Y-109054300D01*
X159592900Y-109054300D01*
X159592900Y-109060600D01*
G37*
G36*
X159611900Y-109067000D02*
G01*
X157929200Y-109067000D01*
X157929200Y-109060600D01*
X159611900Y-109060600D01*
X159611900Y-109067000D01*
G37*
G36*
X159624600Y-109073300D02*
G01*
X157929200Y-109073300D01*
X157929200Y-109067000D01*
X159624600Y-109067000D01*
X159624600Y-109073300D01*
G37*
G36*
X159643700Y-109079700D02*
G01*
X157929200Y-109079700D01*
X157929200Y-109073300D01*
X159643700Y-109073300D01*
X159643700Y-109079700D01*
G37*
G36*
X159656400Y-109086000D02*
G01*
X157929200Y-109086000D01*
X157929200Y-109079700D01*
X159656400Y-109079700D01*
X159656400Y-109086000D01*
G37*
G36*
X159161100Y-109689300D02*
G01*
X157929200Y-109689300D01*
X157929200Y-109682900D01*
X159161100Y-109682900D01*
X159161100Y-109689300D01*
G37*
G36*
X158145100Y-107568400D02*
G01*
X157935500Y-107568400D01*
X157935500Y-107562000D01*
X158145100Y-107562000D01*
X158145100Y-107568400D01*
G37*
G36*
X158322900Y-108901900D02*
G01*
X157935500Y-108901900D01*
X157935500Y-108895500D01*
X158322900Y-108895500D01*
X158322900Y-108901900D01*
G37*
G36*
X158316500Y-108908200D02*
G01*
X157935500Y-108908200D01*
X157935500Y-108901900D01*
X158316500Y-108901900D01*
X158316500Y-108908200D01*
G37*
G36*
X158310200Y-108914600D02*
G01*
X157935500Y-108914600D01*
X157935500Y-108908200D01*
X158310200Y-108908200D01*
X158310200Y-108914600D01*
G37*
G36*
X158310200Y-108920900D02*
G01*
X157935500Y-108920900D01*
X157935500Y-108914600D01*
X158310200Y-108914600D01*
X158310200Y-108920900D01*
G37*
G36*
X158303800Y-108927300D02*
G01*
X157935500Y-108927300D01*
X157935500Y-108920900D01*
X158303800Y-108920900D01*
X158303800Y-108927300D01*
G37*
G36*
X158297500Y-108933600D02*
G01*
X157935500Y-108933600D01*
X157935500Y-108927300D01*
X158297500Y-108927300D01*
X158297500Y-108933600D01*
G37*
G36*
X158291100Y-108940000D02*
G01*
X157935500Y-108940000D01*
X157935500Y-108933600D01*
X158291100Y-108933600D01*
X158291100Y-108940000D01*
G37*
G36*
X158291100Y-108946300D02*
G01*
X157935500Y-108946300D01*
X157935500Y-108940000D01*
X158291100Y-108940000D01*
X158291100Y-108946300D01*
G37*
G36*
X158284800Y-108952700D02*
G01*
X157935500Y-108952700D01*
X157935500Y-108946300D01*
X158284800Y-108946300D01*
X158284800Y-108952700D01*
G37*
G36*
X158278400Y-108959000D02*
G01*
X157935500Y-108959000D01*
X157935500Y-108952700D01*
X158278400Y-108952700D01*
X158278400Y-108959000D01*
G37*
G36*
X158272100Y-108965400D02*
G01*
X157935500Y-108965400D01*
X157935500Y-108959000D01*
X158272100Y-108959000D01*
X158272100Y-108965400D01*
G37*
G36*
X158265700Y-108971700D02*
G01*
X157935500Y-108971700D01*
X157935500Y-108965400D01*
X158265700Y-108965400D01*
X158265700Y-108971700D01*
G37*
G36*
X158265700Y-108978100D02*
G01*
X157935500Y-108978100D01*
X157935500Y-108971700D01*
X158265700Y-108971700D01*
X158265700Y-108978100D01*
G37*
G36*
X158259400Y-108984400D02*
G01*
X157935500Y-108984400D01*
X157935500Y-108978100D01*
X158259400Y-108978100D01*
X158259400Y-108984400D01*
G37*
G36*
X158253000Y-108990800D02*
G01*
X157935500Y-108990800D01*
X157935500Y-108984400D01*
X158253000Y-108984400D01*
X158253000Y-108990800D01*
G37*
G36*
X158246700Y-108997100D02*
G01*
X157935500Y-108997100D01*
X157935500Y-108990800D01*
X158246700Y-108990800D01*
X158246700Y-108997100D01*
G37*
G36*
X159415100Y-109003500D02*
G01*
X157935500Y-109003500D01*
X157935500Y-108997100D01*
X159415100Y-108997100D01*
X159415100Y-109003500D01*
G37*
G36*
X159427800Y-109009800D02*
G01*
X157935500Y-109009800D01*
X157935500Y-109003500D01*
X159427800Y-109003500D01*
X159427800Y-109009800D01*
G37*
G36*
X159453200Y-109016200D02*
G01*
X157935500Y-109016200D01*
X157935500Y-109009800D01*
X159453200Y-109009800D01*
X159453200Y-109016200D01*
G37*
G36*
X159472200Y-109022500D02*
G01*
X157935500Y-109022500D01*
X157935500Y-109016200D01*
X159472200Y-109016200D01*
X159472200Y-109022500D01*
G37*
G36*
X159491300Y-109028900D02*
G01*
X157935500Y-109028900D01*
X157935500Y-109022500D01*
X159491300Y-109022500D01*
X159491300Y-109028900D01*
G37*
G36*
X159510300Y-109035200D02*
G01*
X157935500Y-109035200D01*
X157935500Y-109028900D01*
X159510300Y-109028900D01*
X159510300Y-109035200D01*
G37*
G36*
X159535700Y-109041600D02*
G01*
X157935500Y-109041600D01*
X157935500Y-109035200D01*
X159535700Y-109035200D01*
X159535700Y-109041600D01*
G37*
G36*
X159148400Y-109695600D02*
G01*
X157935500Y-109695600D01*
X157935500Y-109689300D01*
X159148400Y-109689300D01*
X159148400Y-109695600D01*
G37*
G36*
X158735600Y-110845000D02*
G01*
X157935500Y-110845000D01*
X157935500Y-110838600D01*
X158735600Y-110838600D01*
X158735600Y-110845000D01*
G37*
G36*
X158138700Y-107562000D02*
G01*
X157941900Y-107562000D01*
X157941900Y-107555700D01*
X158138700Y-107555700D01*
X158138700Y-107562000D01*
G37*
G36*
X159142000Y-109702000D02*
G01*
X157941900Y-109702000D01*
X157941900Y-109695600D01*
X159142000Y-109695600D01*
X159142000Y-109702000D01*
G37*
G36*
X158735600Y-110851300D02*
G01*
X157941900Y-110851300D01*
X157941900Y-110845000D01*
X158735600Y-110845000D01*
X158735600Y-110851300D01*
G37*
G36*
X158132400Y-107555700D02*
G01*
X157948200Y-107555700D01*
X157948200Y-107549300D01*
X158132400Y-107549300D01*
X158132400Y-107555700D01*
G37*
G36*
X159135700Y-109708300D02*
G01*
X157948200Y-109708300D01*
X157948200Y-109702000D01*
X159135700Y-109702000D01*
X159135700Y-109708300D01*
G37*
G36*
X158735600Y-110857700D02*
G01*
X157948200Y-110857700D01*
X157948200Y-110851300D01*
X158735600Y-110851300D01*
X158735600Y-110857700D01*
G37*
G36*
X158126000Y-107549300D02*
G01*
X157954600Y-107549300D01*
X157954600Y-107543000D01*
X158126000Y-107543000D01*
X158126000Y-107549300D01*
G37*
G36*
X159123000Y-109714700D02*
G01*
X157954600Y-109714700D01*
X157954600Y-109708300D01*
X159123000Y-109708300D01*
X159123000Y-109714700D01*
G37*
G36*
X159116600Y-109721000D02*
G01*
X157960900Y-109721000D01*
X157960900Y-109714700D01*
X159116600Y-109714700D01*
X159116600Y-109721000D01*
G37*
G36*
X158735600Y-110864000D02*
G01*
X157960900Y-110864000D01*
X157960900Y-110857700D01*
X158735600Y-110857700D01*
X158735600Y-110864000D01*
G37*
G36*
X158119700Y-107543000D02*
G01*
X157967300Y-107543000D01*
X157967300Y-107536600D01*
X158119700Y-107536600D01*
X158119700Y-107543000D01*
G37*
G36*
X159103900Y-109727400D02*
G01*
X157967300Y-109727400D01*
X157967300Y-109721000D01*
X159103900Y-109721000D01*
X159103900Y-109727400D01*
G37*
G36*
X158735600Y-110870400D02*
G01*
X157967300Y-110870400D01*
X157967300Y-110864000D01*
X158735600Y-110864000D01*
X158735600Y-110870400D01*
G37*
G36*
X158107000Y-107536600D02*
G01*
X157973600Y-107536600D01*
X157973600Y-107530300D01*
X158107000Y-107530300D01*
X158107000Y-107536600D01*
G37*
G36*
X159097600Y-109733700D02*
G01*
X157973600Y-109733700D01*
X157973600Y-109727400D01*
X159097600Y-109727400D01*
X159097600Y-109733700D01*
G37*
G36*
X158735600Y-110876700D02*
G01*
X157973600Y-110876700D01*
X157973600Y-110870400D01*
X158735600Y-110870400D01*
X158735600Y-110876700D01*
G37*
G36*
X159084900Y-109740100D02*
G01*
X157980000Y-109740100D01*
X157980000Y-109733700D01*
X159084900Y-109733700D01*
X159084900Y-109740100D01*
G37*
G36*
X158087900Y-107530300D02*
G01*
X157986300Y-107530300D01*
X157986300Y-107523900D01*
X158087900Y-107523900D01*
X158087900Y-107530300D01*
G37*
G36*
X159078500Y-109746400D02*
G01*
X157986300Y-109746400D01*
X157986300Y-109740100D01*
X159078500Y-109740100D01*
X159078500Y-109746400D01*
G37*
G36*
X158735600Y-110883100D02*
G01*
X157986300Y-110883100D01*
X157986300Y-110876700D01*
X158735600Y-110876700D01*
X158735600Y-110883100D01*
G37*
G36*
X159065800Y-109752800D02*
G01*
X157992700Y-109752800D01*
X157992700Y-109746400D01*
X159065800Y-109746400D01*
X159065800Y-109752800D01*
G37*
G36*
X159059500Y-109759100D02*
G01*
X157992700Y-109759100D01*
X157992700Y-109752800D01*
X159059500Y-109752800D01*
X159059500Y-109759100D01*
G37*
G36*
X158735600Y-110889400D02*
G01*
X157992700Y-110889400D01*
X157992700Y-110883100D01*
X158735600Y-110883100D01*
X158735600Y-110889400D01*
G37*
G36*
X159046800Y-109765500D02*
G01*
X157999000Y-109765500D01*
X157999000Y-109759100D01*
X159046800Y-109759100D01*
X159046800Y-109765500D01*
G37*
G36*
X158735600Y-110895800D02*
G01*
X157999000Y-110895800D01*
X157999000Y-110889400D01*
X158735600Y-110889400D01*
X158735600Y-110895800D01*
G37*
G36*
X158068900Y-107523900D02*
G01*
X158005400Y-107523900D01*
X158005400Y-107517600D01*
X158068900Y-107517600D01*
X158068900Y-107523900D01*
G37*
G36*
X159040400Y-109771800D02*
G01*
X158005400Y-109771800D01*
X158005400Y-109765500D01*
X159040400Y-109765500D01*
X159040400Y-109771800D01*
G37*
G36*
X159027700Y-109778200D02*
G01*
X158011700Y-109778200D01*
X158011700Y-109771800D01*
X159027700Y-109771800D01*
X159027700Y-109778200D01*
G37*
G36*
X159015000Y-109784500D02*
G01*
X158011700Y-109784500D01*
X158011700Y-109778200D01*
X159015000Y-109778200D01*
X159015000Y-109784500D01*
G37*
G36*
X158735600Y-110902100D02*
G01*
X158011700Y-110902100D01*
X158011700Y-110895800D01*
X158735600Y-110895800D01*
X158735600Y-110902100D01*
G37*
G36*
X159002300Y-109790900D02*
G01*
X158018100Y-109790900D01*
X158018100Y-109784500D01*
X159002300Y-109784500D01*
X159002300Y-109790900D01*
G37*
G36*
X158735600Y-110908500D02*
G01*
X158018100Y-110908500D01*
X158018100Y-110902100D01*
X158735600Y-110902100D01*
X158735600Y-110908500D01*
G37*
G36*
X158989600Y-109797200D02*
G01*
X158024400Y-109797200D01*
X158024400Y-109790900D01*
X158989600Y-109790900D01*
X158989600Y-109797200D01*
G37*
G36*
X158983300Y-109803600D02*
G01*
X158024400Y-109803600D01*
X158024400Y-109797200D01*
X158983300Y-109797200D01*
X158983300Y-109803600D01*
G37*
G36*
X158964200Y-109809900D02*
G01*
X158030800Y-109809900D01*
X158030800Y-109803600D01*
X158964200Y-109803600D01*
X158964200Y-109809900D01*
G37*
G36*
X158951500Y-109816300D02*
G01*
X158030800Y-109816300D01*
X158030800Y-109809900D01*
X158951500Y-109809900D01*
X158951500Y-109816300D01*
G37*
G36*
X158735600Y-110914800D02*
G01*
X158030800Y-110914800D01*
X158030800Y-110908500D01*
X158735600Y-110908500D01*
X158735600Y-110914800D01*
G37*
G36*
X158380000Y-109822600D02*
G01*
X158037100Y-109822600D01*
X158037100Y-109816300D01*
X158380000Y-109816300D01*
X158380000Y-109822600D01*
G37*
G36*
X158735600Y-110921200D02*
G01*
X158037100Y-110921200D01*
X158037100Y-110914800D01*
X158735600Y-110914800D01*
X158735600Y-110921200D01*
G37*
G36*
X158386400Y-109829000D02*
G01*
X158043500Y-109829000D01*
X158043500Y-109822600D01*
X158386400Y-109822600D01*
X158386400Y-109829000D01*
G37*
G36*
X158399100Y-109835300D02*
G01*
X158043500Y-109835300D01*
X158043500Y-109829000D01*
X158399100Y-109829000D01*
X158399100Y-109835300D01*
G37*
G36*
X158735600Y-110927500D02*
G01*
X158043500Y-110927500D01*
X158043500Y-110921200D01*
X158735600Y-110921200D01*
X158735600Y-110927500D01*
G37*
G36*
X158411800Y-109841700D02*
G01*
X158049800Y-109841700D01*
X158049800Y-109835300D01*
X158411800Y-109835300D01*
X158411800Y-109841700D01*
G37*
G36*
X158418100Y-109848000D02*
G01*
X158049800Y-109848000D01*
X158049800Y-109841700D01*
X158418100Y-109841700D01*
X158418100Y-109848000D01*
G37*
G36*
X158430800Y-109854400D02*
G01*
X158056200Y-109854400D01*
X158056200Y-109848000D01*
X158430800Y-109848000D01*
X158430800Y-109854400D01*
G37*
G36*
X158437200Y-109860700D02*
G01*
X158056200Y-109860700D01*
X158056200Y-109854400D01*
X158437200Y-109854400D01*
X158437200Y-109860700D01*
G37*
G36*
X158735600Y-110933900D02*
G01*
X158056200Y-110933900D01*
X158056200Y-110927500D01*
X158735600Y-110927500D01*
X158735600Y-110933900D01*
G37*
G36*
X158449900Y-109867100D02*
G01*
X158062500Y-109867100D01*
X158062500Y-109860700D01*
X158449900Y-109860700D01*
X158449900Y-109867100D01*
G37*
G36*
X158456200Y-109873400D02*
G01*
X158062500Y-109873400D01*
X158062500Y-109867100D01*
X158456200Y-109867100D01*
X158456200Y-109873400D01*
G37*
G36*
X158735600Y-110940200D02*
G01*
X158062500Y-110940200D01*
X158062500Y-110933900D01*
X158735600Y-110933900D01*
X158735600Y-110940200D01*
G37*
G36*
X158462600Y-109879800D02*
G01*
X158068900Y-109879800D01*
X158068900Y-109873400D01*
X158462600Y-109873400D01*
X158462600Y-109879800D01*
G37*
G36*
X158475300Y-109886100D02*
G01*
X158068900Y-109886100D01*
X158068900Y-109879800D01*
X158475300Y-109879800D01*
X158475300Y-109886100D01*
G37*
G36*
X158735600Y-110946600D02*
G01*
X158068900Y-110946600D01*
X158068900Y-110940200D01*
X158735600Y-110940200D01*
X158735600Y-110946600D01*
G37*
G36*
X158481600Y-109892500D02*
G01*
X158075200Y-109892500D01*
X158075200Y-109886100D01*
X158481600Y-109886100D01*
X158481600Y-109892500D01*
G37*
G36*
X158494300Y-109898800D02*
G01*
X158075200Y-109898800D01*
X158075200Y-109892500D01*
X158494300Y-109892500D01*
X158494300Y-109898800D01*
G37*
G36*
X158672100Y-110146500D02*
G01*
X158075200Y-110146500D01*
X158075200Y-110140100D01*
X158672100Y-110140100D01*
X158672100Y-110146500D01*
G37*
G36*
X158500700Y-109905200D02*
G01*
X158081600Y-109905200D01*
X158081600Y-109898800D01*
X158500700Y-109898800D01*
X158500700Y-109905200D01*
G37*
G36*
X158507000Y-109911500D02*
G01*
X158081600Y-109911500D01*
X158081600Y-109905200D01*
X158507000Y-109905200D01*
X158507000Y-109911500D01*
G37*
G36*
X158513400Y-109917900D02*
G01*
X158081600Y-109917900D01*
X158081600Y-109911500D01*
X158513400Y-109911500D01*
X158513400Y-109917900D01*
G37*
G36*
X158735600Y-110952900D02*
G01*
X158081600Y-110952900D01*
X158081600Y-110946600D01*
X158735600Y-110946600D01*
X158735600Y-110952900D01*
G37*
G36*
X158526100Y-109924200D02*
G01*
X158087900Y-109924200D01*
X158087900Y-109917900D01*
X158526100Y-109917900D01*
X158526100Y-109924200D01*
G37*
G36*
X158532400Y-109930600D02*
G01*
X158087900Y-109930600D01*
X158087900Y-109924200D01*
X158532400Y-109924200D01*
X158532400Y-109930600D01*
G37*
G36*
X158538800Y-109936900D02*
G01*
X158087900Y-109936900D01*
X158087900Y-109930600D01*
X158538800Y-109930600D01*
X158538800Y-109936900D01*
G37*
G36*
X158672100Y-110140100D02*
G01*
X158087900Y-110140100D01*
X158087900Y-110133800D01*
X158672100Y-110133800D01*
X158672100Y-110140100D01*
G37*
G36*
X158735600Y-110959300D02*
G01*
X158087900Y-110959300D01*
X158087900Y-110952900D01*
X158735600Y-110952900D01*
X158735600Y-110959300D01*
G37*
G36*
X158545100Y-109943300D02*
G01*
X158094300Y-109943300D01*
X158094300Y-109936900D01*
X158545100Y-109936900D01*
X158545100Y-109943300D01*
G37*
G36*
X158551500Y-109949600D02*
G01*
X158094300Y-109949600D01*
X158094300Y-109943300D01*
X158551500Y-109943300D01*
X158551500Y-109949600D01*
G37*
G36*
X158557800Y-109956000D02*
G01*
X158094300Y-109956000D01*
X158094300Y-109949600D01*
X158557800Y-109949600D01*
X158557800Y-109956000D01*
G37*
G36*
X158672100Y-110133800D02*
G01*
X158094300Y-110133800D01*
X158094300Y-110127400D01*
X158672100Y-110127400D01*
X158672100Y-110133800D01*
G37*
G36*
X158735600Y-110965600D02*
G01*
X158094300Y-110965600D01*
X158094300Y-110959300D01*
X158735600Y-110959300D01*
X158735600Y-110965600D01*
G37*
G36*
X158564200Y-109962300D02*
G01*
X158100600Y-109962300D01*
X158100600Y-109956000D01*
X158564200Y-109956000D01*
X158564200Y-109962300D01*
G37*
G36*
X158570500Y-109968700D02*
G01*
X158100600Y-109968700D01*
X158100600Y-109962300D01*
X158570500Y-109962300D01*
X158570500Y-109968700D01*
G37*
G36*
X158570500Y-109975000D02*
G01*
X158100600Y-109975000D01*
X158100600Y-109968700D01*
X158570500Y-109968700D01*
X158570500Y-109975000D01*
G37*
G36*
X158576900Y-109981400D02*
G01*
X158100600Y-109981400D01*
X158100600Y-109975000D01*
X158576900Y-109975000D01*
X158576900Y-109981400D01*
G37*
G36*
X158665800Y-110121100D02*
G01*
X158100600Y-110121100D01*
X158100600Y-110114700D01*
X158665800Y-110114700D01*
X158665800Y-110121100D01*
G37*
G36*
X158665800Y-110127400D02*
G01*
X158100600Y-110127400D01*
X158100600Y-110121100D01*
X158665800Y-110121100D01*
X158665800Y-110127400D01*
G37*
G36*
X158583200Y-109987700D02*
G01*
X158107000Y-109987700D01*
X158107000Y-109981400D01*
X158583200Y-109981400D01*
X158583200Y-109987700D01*
G37*
G36*
X158589600Y-109994100D02*
G01*
X158107000Y-109994100D01*
X158107000Y-109987700D01*
X158589600Y-109987700D01*
X158589600Y-109994100D01*
G37*
G36*
X158595900Y-110000400D02*
G01*
X158107000Y-110000400D01*
X158107000Y-109994100D01*
X158595900Y-109994100D01*
X158595900Y-110000400D01*
G37*
G36*
X158595900Y-110006800D02*
G01*
X158107000Y-110006800D01*
X158107000Y-110000400D01*
X158595900Y-110000400D01*
X158595900Y-110006800D01*
G37*
G36*
X158602300Y-110013100D02*
G01*
X158107000Y-110013100D01*
X158107000Y-110006800D01*
X158602300Y-110006800D01*
X158602300Y-110013100D01*
G37*
G36*
X158653100Y-110102000D02*
G01*
X158107000Y-110102000D01*
X158107000Y-110095700D01*
X158653100Y-110095700D01*
X158653100Y-110102000D01*
G37*
G36*
X158659400Y-110108400D02*
G01*
X158107000Y-110108400D01*
X158107000Y-110102000D01*
X158659400Y-110102000D01*
X158659400Y-110108400D01*
G37*
G36*
X158659400Y-110114700D02*
G01*
X158107000Y-110114700D01*
X158107000Y-110108400D01*
X158659400Y-110108400D01*
X158659400Y-110114700D01*
G37*
G36*
X158735600Y-110972000D02*
G01*
X158107000Y-110972000D01*
X158107000Y-110965600D01*
X158735600Y-110965600D01*
X158735600Y-110972000D01*
G37*
G36*
X158608600Y-110019500D02*
G01*
X158113300Y-110019500D01*
X158113300Y-110013100D01*
X158608600Y-110013100D01*
X158608600Y-110019500D01*
G37*
G36*
X158615000Y-110025800D02*
G01*
X158113300Y-110025800D01*
X158113300Y-110019500D01*
X158615000Y-110019500D01*
X158615000Y-110025800D01*
G37*
G36*
X158615000Y-110032200D02*
G01*
X158113300Y-110032200D01*
X158113300Y-110025800D01*
X158615000Y-110025800D01*
X158615000Y-110032200D01*
G37*
G36*
X158621300Y-110038500D02*
G01*
X158113300Y-110038500D01*
X158113300Y-110032200D01*
X158621300Y-110032200D01*
X158621300Y-110038500D01*
G37*
G36*
X158621300Y-110044900D02*
G01*
X158113300Y-110044900D01*
X158113300Y-110038500D01*
X158621300Y-110038500D01*
X158621300Y-110044900D01*
G37*
G36*
X158627700Y-110051200D02*
G01*
X158113300Y-110051200D01*
X158113300Y-110044900D01*
X158627700Y-110044900D01*
X158627700Y-110051200D01*
G37*
G36*
X158634000Y-110057600D02*
G01*
X158113300Y-110057600D01*
X158113300Y-110051200D01*
X158634000Y-110051200D01*
X158634000Y-110057600D01*
G37*
G36*
X158634000Y-110063900D02*
G01*
X158113300Y-110063900D01*
X158113300Y-110057600D01*
X158634000Y-110057600D01*
X158634000Y-110063900D01*
G37*
G36*
X158640400Y-110070300D02*
G01*
X158113300Y-110070300D01*
X158113300Y-110063900D01*
X158640400Y-110063900D01*
X158640400Y-110070300D01*
G37*
G36*
X158640400Y-110076600D02*
G01*
X158113300Y-110076600D01*
X158113300Y-110070300D01*
X158640400Y-110070300D01*
X158640400Y-110076600D01*
G37*
G36*
X158646700Y-110083000D02*
G01*
X158113300Y-110083000D01*
X158113300Y-110076600D01*
X158646700Y-110076600D01*
X158646700Y-110083000D01*
G37*
G36*
X158646700Y-110089300D02*
G01*
X158113300Y-110089300D01*
X158113300Y-110083000D01*
X158646700Y-110083000D01*
X158646700Y-110089300D01*
G37*
G36*
X158653100Y-110095700D02*
G01*
X158113300Y-110095700D01*
X158113300Y-110089300D01*
X158653100Y-110089300D01*
X158653100Y-110095700D01*
G37*
G36*
X158735600Y-110978300D02*
G01*
X158113300Y-110978300D01*
X158113300Y-110972000D01*
X158735600Y-110972000D01*
X158735600Y-110978300D01*
G37*
G36*
X158735600Y-110984700D02*
G01*
X158126000Y-110984700D01*
X158126000Y-110978300D01*
X158735600Y-110978300D01*
X158735600Y-110984700D01*
G37*
G36*
X158735600Y-110991000D02*
G01*
X158132400Y-110991000D01*
X158132400Y-110984700D01*
X158735600Y-110984700D01*
X158735600Y-110991000D01*
G37*
G36*
X158735600Y-110997400D02*
G01*
X158138700Y-110997400D01*
X158138700Y-110991000D01*
X158735600Y-110991000D01*
X158735600Y-110997400D01*
G37*
G36*
X158735600Y-111003700D02*
G01*
X158151400Y-111003700D01*
X158151400Y-110997400D01*
X158735600Y-110997400D01*
X158735600Y-111003700D01*
G37*
G36*
X158735600Y-111010100D02*
G01*
X158157800Y-111010100D01*
X158157800Y-111003700D01*
X158735600Y-111003700D01*
X158735600Y-111010100D01*
G37*
G36*
X159364300Y-109543200D02*
G01*
X158164100Y-109543200D01*
X158164100Y-109536900D01*
X159364300Y-109536900D01*
X159364300Y-109543200D01*
G37*
G36*
X158735600Y-111016400D02*
G01*
X158164100Y-111016400D01*
X158164100Y-111010100D01*
X158735600Y-111010100D01*
X158735600Y-111016400D01*
G37*
G36*
X158735600Y-111022800D02*
G01*
X158176800Y-111022800D01*
X158176800Y-111016400D01*
X158735600Y-111016400D01*
X158735600Y-111022800D01*
G37*
G36*
X158735600Y-111029100D02*
G01*
X158183200Y-111029100D01*
X158183200Y-111022800D01*
X158735600Y-111022800D01*
X158735600Y-111029100D01*
G37*
G36*
X158735600Y-111035500D02*
G01*
X158189500Y-111035500D01*
X158189500Y-111029100D01*
X158735600Y-111029100D01*
X158735600Y-111035500D01*
G37*
G36*
X158735600Y-111041800D02*
G01*
X158202200Y-111041800D01*
X158202200Y-111035500D01*
X158735600Y-111035500D01*
X158735600Y-111041800D01*
G37*
G36*
X158735600Y-111048200D02*
G01*
X158208600Y-111048200D01*
X158208600Y-111041800D01*
X158735600Y-111041800D01*
X158735600Y-111048200D01*
G37*
G36*
X159370600Y-109536900D02*
G01*
X158214900Y-109536900D01*
X158214900Y-109530500D01*
X159370600Y-109530500D01*
X159370600Y-109536900D01*
G37*
G36*
X158735600Y-111054500D02*
G01*
X158221300Y-111054500D01*
X158221300Y-111048200D01*
X158735600Y-111048200D01*
X158735600Y-111054500D01*
G37*
G36*
X158735600Y-111060900D02*
G01*
X158227600Y-111060900D01*
X158227600Y-111054500D01*
X158735600Y-111054500D01*
X158735600Y-111060900D01*
G37*
G36*
X158735600Y-111067200D02*
G01*
X158234000Y-111067200D01*
X158234000Y-111060900D01*
X158735600Y-111060900D01*
X158735600Y-111067200D01*
G37*
G36*
X158735600Y-111073600D02*
G01*
X158246700Y-111073600D01*
X158246700Y-111067200D01*
X158735600Y-111067200D01*
X158735600Y-111073600D01*
G37*
G36*
X159396000Y-108997100D02*
G01*
X158253000Y-108997100D01*
X158253000Y-108990800D01*
X159396000Y-108990800D01*
X159396000Y-108997100D01*
G37*
G36*
X159377000Y-109530500D02*
G01*
X158253000Y-109530500D01*
X158253000Y-109524200D01*
X159377000Y-109524200D01*
X159377000Y-109530500D01*
G37*
G36*
X158735600Y-111079900D02*
G01*
X158253000Y-111079900D01*
X158253000Y-111073600D01*
X158735600Y-111073600D01*
X158735600Y-111079900D01*
G37*
G36*
X158735600Y-111086300D02*
G01*
X158259400Y-111086300D01*
X158259400Y-111079900D01*
X158735600Y-111079900D01*
X158735600Y-111086300D01*
G37*
G36*
X159370600Y-108990800D02*
G01*
X158265700Y-108990800D01*
X158265700Y-108984400D01*
X159370600Y-108984400D01*
X159370600Y-108990800D01*
G37*
G36*
X159357900Y-108984400D02*
G01*
X158272100Y-108984400D01*
X158272100Y-108978100D01*
X159357900Y-108978100D01*
X159357900Y-108984400D01*
G37*
G36*
X159389700Y-109524200D02*
G01*
X158272100Y-109524200D01*
X158272100Y-109517800D01*
X159389700Y-109517800D01*
X159389700Y-109524200D01*
G37*
G36*
X158735600Y-111092600D02*
G01*
X158272100Y-111092600D01*
X158272100Y-111086300D01*
X158735600Y-111086300D01*
X158735600Y-111092600D01*
G37*
G36*
X159332500Y-108978100D02*
G01*
X158278400Y-108978100D01*
X158278400Y-108971700D01*
X159332500Y-108971700D01*
X159332500Y-108978100D01*
G37*
G36*
X158735600Y-111099000D02*
G01*
X158278400Y-111099000D01*
X158278400Y-111092600D01*
X158735600Y-111092600D01*
X158735600Y-111099000D01*
G37*
G36*
X159313500Y-108971700D02*
G01*
X158284800Y-108971700D01*
X158284800Y-108965400D01*
X159313500Y-108965400D01*
X159313500Y-108971700D01*
G37*
G36*
X158735600Y-111105300D02*
G01*
X158284800Y-111105300D01*
X158284800Y-111099000D01*
X158735600Y-111099000D01*
X158735600Y-111105300D01*
G37*
G36*
X159294400Y-108965400D02*
G01*
X158297500Y-108965400D01*
X158297500Y-108959000D01*
X159294400Y-108959000D01*
X159294400Y-108965400D01*
G37*
G36*
X159396000Y-109517800D02*
G01*
X158297500Y-109517800D01*
X158297500Y-109511500D01*
X159396000Y-109511500D01*
X159396000Y-109517800D01*
G37*
G36*
X158735600Y-111111700D02*
G01*
X158297500Y-111111700D01*
X158297500Y-111105300D01*
X158735600Y-111105300D01*
X158735600Y-111111700D01*
G37*
G36*
X159275400Y-108959000D02*
G01*
X158303800Y-108959000D01*
X158303800Y-108952700D01*
X159275400Y-108952700D01*
X159275400Y-108959000D01*
G37*
G36*
X158735600Y-111118000D02*
G01*
X158303800Y-111118000D01*
X158303800Y-111111700D01*
X158735600Y-111111700D01*
X158735600Y-111118000D01*
G37*
G36*
X159250000Y-108952700D02*
G01*
X158310200Y-108952700D01*
X158310200Y-108946300D01*
X159250000Y-108946300D01*
X159250000Y-108952700D01*
G37*
G36*
X159237300Y-108946300D02*
G01*
X158316500Y-108946300D01*
X158316500Y-108940000D01*
X159237300Y-108940000D01*
X159237300Y-108946300D01*
G37*
G36*
X159402400Y-109511500D02*
G01*
X158316500Y-109511500D01*
X158316500Y-109505100D01*
X159402400Y-109505100D01*
X159402400Y-109511500D01*
G37*
G36*
X158735600Y-111124400D02*
G01*
X158316500Y-111124400D01*
X158316500Y-111118000D01*
X158735600Y-111118000D01*
X158735600Y-111124400D01*
G37*
G36*
X158735600Y-111130700D02*
G01*
X158322900Y-111130700D01*
X158322900Y-111124400D01*
X158735600Y-111124400D01*
X158735600Y-111130700D01*
G37*
G36*
X159211900Y-108940000D02*
G01*
X158329200Y-108940000D01*
X158329200Y-108933600D01*
X159211900Y-108933600D01*
X159211900Y-108940000D01*
G37*
G36*
X158735600Y-111137100D02*
G01*
X158329200Y-111137100D01*
X158329200Y-111130700D01*
X158735600Y-111130700D01*
X158735600Y-111137100D01*
G37*
G36*
X159192800Y-108933600D02*
G01*
X158335600Y-108933600D01*
X158335600Y-108927300D01*
X159192800Y-108927300D01*
X159192800Y-108933600D01*
G37*
G36*
X159415100Y-109505100D02*
G01*
X158335600Y-109505100D01*
X158335600Y-109498800D01*
X159415100Y-109498800D01*
X159415100Y-109505100D01*
G37*
G36*
X159173800Y-108927300D02*
G01*
X158341900Y-108927300D01*
X158341900Y-108920900D01*
X159173800Y-108920900D01*
X159173800Y-108927300D01*
G37*
G36*
X159675400Y-109314600D02*
G01*
X158341900Y-109314600D01*
X158341900Y-109308300D01*
X159675400Y-109308300D01*
X159675400Y-109314600D01*
G37*
G36*
X158735600Y-111143400D02*
G01*
X158341900Y-111143400D01*
X158341900Y-111137100D01*
X158735600Y-111137100D01*
X158735600Y-111143400D01*
G37*
G36*
X158735600Y-111149800D02*
G01*
X158348300Y-111149800D01*
X158348300Y-111143400D01*
X158735600Y-111143400D01*
X158735600Y-111149800D01*
G37*
G36*
X159154700Y-108920900D02*
G01*
X158354600Y-108920900D01*
X158354600Y-108914600D01*
X159154700Y-108914600D01*
X159154700Y-108920900D01*
G37*
G36*
X159421400Y-109498800D02*
G01*
X158354600Y-109498800D01*
X158354600Y-109492400D01*
X159421400Y-109492400D01*
X159421400Y-109498800D01*
G37*
G36*
X158735600Y-111156100D02*
G01*
X158354600Y-111156100D01*
X158354600Y-111149800D01*
X158735600Y-111149800D01*
X158735600Y-111156100D01*
G37*
G36*
X159135700Y-108914600D02*
G01*
X158361000Y-108914600D01*
X158361000Y-108908200D01*
X159135700Y-108908200D01*
X159135700Y-108914600D01*
G37*
G36*
X159427800Y-109492400D02*
G01*
X158367300Y-109492400D01*
X158367300Y-109486100D01*
X159427800Y-109486100D01*
X159427800Y-109492400D01*
G37*
G36*
X158735600Y-111162500D02*
G01*
X158367300Y-111162500D01*
X158367300Y-111156100D01*
X158735600Y-111156100D01*
X158735600Y-111162500D01*
G37*
G36*
X159110300Y-108908200D02*
G01*
X158373700Y-108908200D01*
X158373700Y-108901900D01*
X159110300Y-108901900D01*
X159110300Y-108908200D01*
G37*
G36*
X159669100Y-109321000D02*
G01*
X158373700Y-109321000D01*
X158373700Y-109314600D01*
X159669100Y-109314600D01*
X159669100Y-109321000D01*
G37*
G36*
X158735600Y-111168800D02*
G01*
X158373700Y-111168800D01*
X158373700Y-111162500D01*
X158735600Y-111162500D01*
X158735600Y-111168800D01*
G37*
G36*
X159097600Y-108901900D02*
G01*
X158380000Y-108901900D01*
X158380000Y-108895500D01*
X159097600Y-108895500D01*
X159097600Y-108901900D01*
G37*
G36*
X159440500Y-109486100D02*
G01*
X158380000Y-109486100D01*
X158380000Y-109479700D01*
X159440500Y-109479700D01*
X159440500Y-109486100D01*
G37*
G36*
X158735600Y-111175200D02*
G01*
X158386400Y-111175200D01*
X158386400Y-111168800D01*
X158735600Y-111168800D01*
X158735600Y-111175200D01*
G37*
G36*
X159072200Y-108895500D02*
G01*
X158392700Y-108895500D01*
X158392700Y-108889200D01*
X159072200Y-108889200D01*
X159072200Y-108895500D01*
G37*
G36*
X159446800Y-109479700D02*
G01*
X158392700Y-109479700D01*
X158392700Y-109473400D01*
X159446800Y-109473400D01*
X159446800Y-109479700D01*
G37*
G36*
X158729300Y-111181500D02*
G01*
X158392700Y-111181500D01*
X158392700Y-111175200D01*
X158729300Y-111175200D01*
X158729300Y-111181500D01*
G37*
G36*
X159656400Y-109327300D02*
G01*
X158399100Y-109327300D01*
X158399100Y-109321000D01*
X159656400Y-109321000D01*
X159656400Y-109327300D01*
G37*
G36*
X159459500Y-109473400D02*
G01*
X158399100Y-109473400D01*
X158399100Y-109467000D01*
X159459500Y-109467000D01*
X159459500Y-109473400D01*
G37*
G36*
X158938800Y-109822600D02*
G01*
X158399100Y-109822600D01*
X158399100Y-109816300D01*
X158938800Y-109816300D01*
X158938800Y-109822600D01*
G37*
G36*
X158729300Y-111187900D02*
G01*
X158399100Y-111187900D01*
X158399100Y-111181500D01*
X158729300Y-111181500D01*
X158729300Y-111187900D01*
G37*
G36*
X159053100Y-108889200D02*
G01*
X158405400Y-108889200D01*
X158405400Y-108882800D01*
X159053100Y-108882800D01*
X159053100Y-108889200D01*
G37*
G36*
X159650000Y-109333700D02*
G01*
X158411800Y-109333700D01*
X158411800Y-109327300D01*
X159650000Y-109327300D01*
X159650000Y-109333700D01*
G37*
G36*
X159465900Y-109467000D02*
G01*
X158411800Y-109467000D01*
X158411800Y-109460700D01*
X159465900Y-109460700D01*
X159465900Y-109467000D01*
G37*
G36*
X158926100Y-109829000D02*
G01*
X158411800Y-109829000D01*
X158411800Y-109822600D01*
X158926100Y-109822600D01*
X158926100Y-109829000D01*
G37*
G36*
X158729300Y-111194200D02*
G01*
X158411800Y-111194200D01*
X158411800Y-111187900D01*
X158729300Y-111187900D01*
X158729300Y-111194200D01*
G37*
G36*
X159034100Y-108882800D02*
G01*
X158418100Y-108882800D01*
X158418100Y-108876500D01*
X159034100Y-108876500D01*
X159034100Y-108882800D01*
G37*
G36*
X159478600Y-109460700D02*
G01*
X158418100Y-109460700D01*
X158418100Y-109454300D01*
X159478600Y-109454300D01*
X159478600Y-109460700D01*
G37*
G36*
X158729300Y-111200600D02*
G01*
X158418100Y-111200600D01*
X158418100Y-111194200D01*
X158729300Y-111194200D01*
X158729300Y-111200600D01*
G37*
G36*
X159015000Y-108876500D02*
G01*
X158424500Y-108876500D01*
X158424500Y-108870100D01*
X159015000Y-108870100D01*
X159015000Y-108876500D01*
G37*
G36*
X158907100Y-109835300D02*
G01*
X158424500Y-109835300D01*
X158424500Y-109829000D01*
X158907100Y-109829000D01*
X158907100Y-109835300D01*
G37*
G36*
X158722900Y-111206900D02*
G01*
X158424500Y-111206900D01*
X158424500Y-111200600D01*
X158722900Y-111200600D01*
X158722900Y-111206900D01*
G37*
G36*
X159643700Y-109340000D02*
G01*
X158430800Y-109340000D01*
X158430800Y-109333700D01*
X159643700Y-109333700D01*
X159643700Y-109340000D01*
G37*
G36*
X159484900Y-109454300D02*
G01*
X158430800Y-109454300D01*
X158430800Y-109448000D01*
X159484900Y-109448000D01*
X159484900Y-109454300D01*
G37*
G36*
X159631000Y-109346400D02*
G01*
X158437200Y-109346400D01*
X158437200Y-109340000D01*
X159631000Y-109340000D01*
X159631000Y-109346400D01*
G37*
G36*
X159491300Y-109448000D02*
G01*
X158437200Y-109448000D01*
X158437200Y-109441600D01*
X159491300Y-109441600D01*
X159491300Y-109448000D01*
G37*
G36*
X158722900Y-111213300D02*
G01*
X158437200Y-111213300D01*
X158437200Y-111206900D01*
X158722900Y-111206900D01*
X158722900Y-111213300D01*
G37*
G36*
X158989600Y-108870100D02*
G01*
X158443500Y-108870100D01*
X158443500Y-108863800D01*
X158989600Y-108863800D01*
X158989600Y-108870100D01*
G37*
G36*
X159624600Y-109352700D02*
G01*
X158443500Y-109352700D01*
X158443500Y-109346400D01*
X159624600Y-109346400D01*
X159624600Y-109352700D01*
G37*
G36*
X159504000Y-109441600D02*
G01*
X158443500Y-109441600D01*
X158443500Y-109435300D01*
X159504000Y-109435300D01*
X159504000Y-109441600D01*
G37*
G36*
X158894400Y-109841700D02*
G01*
X158443500Y-109841700D01*
X158443500Y-109835300D01*
X158894400Y-109835300D01*
X158894400Y-109841700D01*
G37*
G36*
X158722900Y-111219600D02*
G01*
X158443500Y-111219600D01*
X158443500Y-111213300D01*
X158722900Y-111213300D01*
X158722900Y-111219600D01*
G37*
G36*
X159618300Y-109359100D02*
G01*
X158449900Y-109359100D01*
X158449900Y-109352700D01*
X159618300Y-109352700D01*
X159618300Y-109359100D01*
G37*
G36*
X159523000Y-109428900D02*
G01*
X158449900Y-109428900D01*
X158449900Y-109422600D01*
X159523000Y-109422600D01*
X159523000Y-109428900D01*
G37*
G36*
X159510300Y-109435300D02*
G01*
X158449900Y-109435300D01*
X158449900Y-109428900D01*
X159510300Y-109428900D01*
X159510300Y-109435300D01*
G37*
G36*
X158716600Y-111226000D02*
G01*
X158449900Y-111226000D01*
X158449900Y-111219600D01*
X158716600Y-111219600D01*
X158716600Y-111226000D01*
G37*
G36*
X158976900Y-108863800D02*
G01*
X158456200Y-108863800D01*
X158456200Y-108857400D01*
X158976900Y-108857400D01*
X158976900Y-108863800D01*
G37*
G36*
X159605600Y-109365400D02*
G01*
X158456200Y-109365400D01*
X158456200Y-109359100D01*
X159605600Y-109359100D01*
X159605600Y-109365400D01*
G37*
G36*
X159529400Y-109422600D02*
G01*
X158456200Y-109422600D01*
X158456200Y-109416200D01*
X159529400Y-109416200D01*
X159529400Y-109422600D01*
G37*
G36*
X159599200Y-109371800D02*
G01*
X158462600Y-109371800D01*
X158462600Y-109365400D01*
X159599200Y-109365400D01*
X159599200Y-109371800D01*
G37*
G36*
X159592900Y-109378100D02*
G01*
X158462600Y-109378100D01*
X158462600Y-109371800D01*
X159592900Y-109371800D01*
X159592900Y-109378100D01*
G37*
G36*
X159554800Y-109403500D02*
G01*
X158462600Y-109403500D01*
X158462600Y-109397200D01*
X159554800Y-109397200D01*
X159554800Y-109403500D01*
G37*
G36*
X159548400Y-109409900D02*
G01*
X158462600Y-109409900D01*
X158462600Y-109403500D01*
X159548400Y-109403500D01*
X159548400Y-109409900D01*
G37*
G36*
X159535700Y-109416200D02*
G01*
X158462600Y-109416200D01*
X158462600Y-109409900D01*
X159535700Y-109409900D01*
X159535700Y-109416200D01*
G37*
G36*
X158875300Y-109848000D02*
G01*
X158462600Y-109848000D01*
X158462600Y-109841700D01*
X158875300Y-109841700D01*
X158875300Y-109848000D01*
G37*
G36*
X158716600Y-111232300D02*
G01*
X158462600Y-111232300D01*
X158462600Y-111226000D01*
X158716600Y-111226000D01*
X158716600Y-111232300D01*
G37*
G36*
X159580200Y-109384500D02*
G01*
X158468900Y-109384500D01*
X158468900Y-109378100D01*
X159580200Y-109378100D01*
X159580200Y-109384500D01*
G37*
G36*
X159573800Y-109390800D02*
G01*
X158468900Y-109390800D01*
X158468900Y-109384500D01*
X159573800Y-109384500D01*
X159573800Y-109390800D01*
G37*
G36*
X159561100Y-109397200D02*
G01*
X158468900Y-109397200D01*
X158468900Y-109390800D01*
X159561100Y-109390800D01*
X159561100Y-109397200D01*
G37*
G36*
X158710200Y-111238700D02*
G01*
X158468900Y-111238700D01*
X158468900Y-111232300D01*
X158710200Y-111232300D01*
X158710200Y-111238700D01*
G37*
G36*
X158951500Y-108857400D02*
G01*
X158475300Y-108857400D01*
X158475300Y-108851100D01*
X158951500Y-108851100D01*
X158951500Y-108857400D01*
G37*
G36*
X158856300Y-109854400D02*
G01*
X158481600Y-109854400D01*
X158481600Y-109848000D01*
X158856300Y-109848000D01*
X158856300Y-109854400D01*
G37*
G36*
X158710200Y-111245000D02*
G01*
X158481600Y-111245000D01*
X158481600Y-111238700D01*
X158710200Y-111238700D01*
X158710200Y-111245000D01*
G37*
G36*
X158932500Y-108851100D02*
G01*
X158488000Y-108851100D01*
X158488000Y-108844700D01*
X158932500Y-108844700D01*
X158932500Y-108851100D01*
G37*
G36*
X158703900Y-111251400D02*
G01*
X158488000Y-111251400D01*
X158488000Y-111245000D01*
X158703900Y-111245000D01*
X158703900Y-111251400D01*
G37*
G36*
X158837200Y-109860700D02*
G01*
X158500700Y-109860700D01*
X158500700Y-109854400D01*
X158837200Y-109854400D01*
X158837200Y-109860700D01*
G37*
G36*
X158697500Y-111257700D02*
G01*
X158500700Y-111257700D01*
X158500700Y-111251400D01*
X158697500Y-111251400D01*
X158697500Y-111257700D01*
G37*
G36*
X158913400Y-108844700D02*
G01*
X158507000Y-108844700D01*
X158507000Y-108838400D01*
X158913400Y-108838400D01*
X158913400Y-108844700D01*
G37*
G36*
X158684800Y-111264100D02*
G01*
X158507000Y-111264100D01*
X158507000Y-111257700D01*
X158684800Y-111257700D01*
X158684800Y-111264100D01*
G37*
G36*
X158811800Y-109867100D02*
G01*
X158519700Y-109867100D01*
X158519700Y-109860700D01*
X158811800Y-109860700D01*
X158811800Y-109867100D01*
G37*
G36*
X158678500Y-111270400D02*
G01*
X158519700Y-111270400D01*
X158519700Y-111264100D01*
X158678500Y-111264100D01*
X158678500Y-111270400D01*
G37*
G36*
X158665800Y-111276800D02*
G01*
X158526100Y-111276800D01*
X158526100Y-111270400D01*
X158665800Y-111270400D01*
X158665800Y-111276800D01*
G37*
G36*
X158881700Y-108838400D02*
G01*
X158532400Y-108838400D01*
X158532400Y-108832000D01*
X158881700Y-108832000D01*
X158881700Y-108838400D01*
G37*
G36*
X158659400Y-111283100D02*
G01*
X158538800Y-111283100D01*
X158538800Y-111276800D01*
X158659400Y-111276800D01*
X158659400Y-111283100D01*
G37*
G36*
X158780100Y-109873400D02*
G01*
X158545100Y-109873400D01*
X158545100Y-109867100D01*
X158780100Y-109867100D01*
X158780100Y-109873400D01*
G37*
G36*
X158849900Y-108832000D02*
G01*
X158557800Y-108832000D01*
X158557800Y-108825700D01*
X158849900Y-108825700D01*
X158849900Y-108832000D01*
G37*
G36*
X158640400Y-111289500D02*
G01*
X158557800Y-111289500D01*
X158557800Y-111283100D01*
X158640400Y-111283100D01*
X158640400Y-111289500D01*
G37*
G36*
X158621300Y-111295800D02*
G01*
X158570500Y-111295800D01*
X158570500Y-111289500D01*
X158621300Y-111289500D01*
X158621300Y-111295800D01*
G37*
G36*
X158742000Y-109879800D02*
G01*
X158583200Y-109879800D01*
X158583200Y-109873400D01*
X158742000Y-109873400D01*
X158742000Y-109879800D01*
G37*
G36*
X158805500Y-108825700D02*
G01*
X158595900Y-108825700D01*
X158595900Y-108819300D01*
X158805500Y-108819300D01*
X158805500Y-108825700D01*
G37*
G36*
X158742000Y-108819300D02*
G01*
X158653100Y-108819300D01*
X158653100Y-108813000D01*
X158742000Y-108813000D01*
X158742000Y-108819300D01*
G37*
%TD*%
M02*
