<?xml version="1.0" standalone="no"?>
 <!DOCTYPE svg PUBLIC "-//W3C//DTD SVG 1.1//EN" 
 "http://www.w3.org/Graphics/SVG/1.1/DTD/svg11.dtd"> 
<svg
  xmlns:svg="http://www.w3.org/2000/svg"
  xmlns="http://www.w3.org/2000/svg"
  xmlns:xlink="http://www.w3.org/1999/xlink"
  version="1.1"
  width="297.0022mm" height="210.0072mm" viewBox="0.0000 0.0000 297.0022 210.0072">
<title>SVG Image created as working-Edge_Cuts.svg date 2023/08/06 14:09:00 </title>
  <desc>Image generated by PCBNEW </desc>
<g style="fill:#000000; fill-opacity:1.0000;stroke:#000000; stroke-opacity:1.0000;
stroke-linecap:round; stroke-linejoin:round;"
 transform="translate(0 0) scale(1 1)">
</g>
<g style="fill:#000000; fill-opacity:0.0; 
stroke:#000000; stroke-width:0.0000; stroke-opacity:1; 
stroke-linecap:round; stroke-linejoin:round;">
</g>
<g style="fill:#000000; fill-opacity:0.0; 
stroke:#000000; stroke-width:0.2540; stroke-opacity:1; 
stroke-linecap:round; stroke-linejoin:round;">
<path d="M161.2011 134.4676
L248.8311 134.4676
" />
<path d="M261.5311 61.4426
L261.5311 29.0576
" />
<path d="M45.6311 75.4126 A10.4823 10.4823 0.0 0 0 35.4711 86.2076" />
</g>
<g style="fill:#000000; fill-opacity:0.0; 
stroke:#000000; stroke-width:0.2032; stroke-opacity:1; 
stroke-linecap:round; stroke-linejoin:round;">
<path d="M272.9611 194.2846
L266.6111 194.2846
" />
</g>
<g style="fill:#000000; fill-opacity:0.0; 
stroke:#000000; stroke-width:0.2540; stroke-opacity:1; 
stroke-linecap:round; stroke-linejoin:round;">
<path d="M151.0411 64.6176 A10.1600 10.1600 0.0 0 0 161.2011 74.7776" />
<path d="M151.0411 124.3076
L151.0411 86.2076
" />
<path d="M45.6311 75.4126
L133.2611 75.4126
" />
</g>
<g style="fill:#000000; fill-opacity:0.0; 
stroke:#000000; stroke-width:0.2032; stroke-opacity:1; 
stroke-linecap:round; stroke-linejoin:round;">
<path d="M272.9611 194.7926
L272.9611 201.1426
" />
</g>
<g style="fill:#000000; fill-opacity:0.0; 
stroke:#000000; stroke-width:0.2540; stroke-opacity:1; 
stroke-linecap:round; stroke-linejoin:round;">
<path d="M161.2011 135.1026 A10.4823 10.4823 0.0 0 0 151.0411 145.8976" />
</g>
<g style="fill:#000000; fill-opacity:0.0; 
stroke:#000000; stroke-width:0.2032; stroke-opacity:1; 
stroke-linecap:round; stroke-linejoin:round;">
<path d="M272.9611 8.8646
L272.9611 15.2146
" />
</g>
<g style="fill:#000000; fill-opacity:0.0; 
stroke:#000000; stroke-width:0.2540; stroke-opacity:1; 
stroke-linecap:round; stroke-linejoin:round;">
<path d="M145.9611 61.4426
L145.9611 29.0576
" />
<path d="M35.4711 183.9976 A10.1600 10.1600 0.0 0 0 45.6311 194.1576" />
</g>
<g style="fill:#000000; fill-opacity:0.0; 
stroke:#000000; stroke-width:0.2032; stroke-opacity:1; 
stroke-linecap:round; stroke-linejoin:round;">
<path d="M24.0411 194.2846
L24.0411 15.7226
" />
<path d="M24.0411 201.1426
L24.0411 194.7926
" />
<path d="M266.6111 194.2846
L266.6111 15.7226
" />
</g>
<g style="fill:#000000; fill-opacity:0.0; 
stroke:#000000; stroke-width:0.2540; stroke-opacity:1; 
stroke-linecap:round; stroke-linejoin:round;">
<path d="M261.5311 121.1326
L261.5311 88.7476
" />
<path d="M35.4711 64.6176
L35.4711 26.5176
" />
</g>
<g style="fill:#000000; fill-opacity:0.0; 
stroke:#000000; stroke-width:0.2032; stroke-opacity:1; 
stroke-linecap:round; stroke-linejoin:round;">
<path d="M24.0411 201.1426
L272.9611 201.1426
" />
</g>
<g style="fill:#000000; fill-opacity:0.0; 
stroke:#000000; stroke-width:0.2540; stroke-opacity:1; 
stroke-linecap:round; stroke-linejoin:round;">
<path d="M151.0411 64.6176
L151.0411 26.5176
" />
</g>
<g style="fill:#000000; fill-opacity:0.0; 
stroke:#000000; stroke-width:0.2032; stroke-opacity:1; 
stroke-linecap:round; stroke-linejoin:round;">
<path d="M30.3911 194.2846
L24.0411 194.2846
" />
</g>
<g style="fill:#000000; fill-opacity:0.0; 
stroke:#000000; stroke-width:0.2540; stroke-opacity:1; 
stroke-linecap:round; stroke-linejoin:round;">
<path d="M45.6311 194.1576
L133.2611 194.1576
" />
<path d="M145.9611 88.7476 A13.0214 13.0214 0.0 0 0 133.2611 75.4126" />
<path d="M45.6311 134.4676
L133.2611 134.4676
" />
<path d="M133.2611 74.7776 A12.7000 12.7000 0.0 0 0 145.9611 62.0776" />
<path d="M45.6311 74.7776
L133.2611 74.7776
" />
</g>
<g style="fill:#000000; fill-opacity:0.0; 
stroke:#000000; stroke-width:0.2032; stroke-opacity:1; 
stroke-linecap:round; stroke-linejoin:round;">
<path d="M266.6111 15.7226
L272.9611 15.7226
" />
</g>
<g style="fill:#000000; fill-opacity:0.0; 
stroke:#000000; stroke-width:0.2540; stroke-opacity:1; 
stroke-linecap:round; stroke-linejoin:round;">
<path d="M45.6311 15.7226 A10.4823 10.4823 0.0 0 0 35.4711 26.5176" />
<path d="M161.2011 75.4126
L248.8311 75.4126
" />
<path d="M133.2611 134.4676 A12.7000 12.7000 0.0 0 0 145.9611 121.7676" />
<path d="M35.4711 124.3076 A10.1600 10.1600 0.0 0 0 45.6311 134.4676" />
<path d="M261.5311 29.0576 A13.0214 13.0214 0.0 0 0 248.8311 15.7226" />
<path d="M45.6311 135.1026
L133.2611 135.1026
" />
<path d="M151.0411 183.9976 A10.1600 10.1600 0.0 0 0 161.2011 194.1576" />
<path d="M248.8311 194.1576 A12.7000 12.7000 0.0 0 0 261.5311 181.4576" />
<path d="M261.5311 148.4376 A13.0214 13.0214 0.0 0 0 248.8311 135.1026" />
<path d="M35.4711 124.3076
L35.4711 86.2076
" />
<path d="M133.2611 194.1576 A12.7000 12.7000 0.0 0 0 145.9611 181.4576" />
<path d="M161.2011 15.7226
L248.8311 15.7226
" />
</g>
<g style="fill:#000000; fill-opacity:0.0; 
stroke:#000000; stroke-width:0.2032; stroke-opacity:1; 
stroke-linecap:round; stroke-linejoin:round;">
<path d="M24.0411 194.7926
L272.9611 194.7926
" />
<path d="M30.3911 15.7226
L30.3911 194.2846
" />
</g>
<g style="fill:#000000; fill-opacity:0.0; 
stroke:#000000; stroke-width:0.2540; stroke-opacity:1; 
stroke-linecap:round; stroke-linejoin:round;">
<path d="M35.4711 183.9976
L35.4711 145.8976
" />
<path d="M161.2011 15.7226 A10.4823 10.4823 0.0 0 0 151.0411 26.5176" />
<path d="M35.4711 64.6176 A10.1600 10.1600 0.0 0 0 45.6311 74.7776" />
<path d="M145.9611 148.4376 A13.0214 13.0214 0.0 0 0 133.2611 135.1026" />
<path d="M161.2011 194.1576
L248.8311 194.1576
" />
</g>
<g style="fill:#000000; fill-opacity:0.0; 
stroke:#000000; stroke-width:0.2032; stroke-opacity:1; 
stroke-linecap:round; stroke-linejoin:round;">
<path d="M24.0411 15.7226
L30.3911 15.7226
" />
</g>
<g style="fill:#000000; fill-opacity:0.0; 
stroke:#000000; stroke-width:0.2540; stroke-opacity:1; 
stroke-linecap:round; stroke-linejoin:round;">
<path d="M145.9611 180.8226
L145.9611 148.4376
" />
<path d="M161.2011 75.4126 A10.4823 10.4823 0.0 0 0 151.0411 86.2076" />
<path d="M151.0411 124.3076 A10.1600 10.1600 0.0 0 0 161.2011 134.4676" />
</g>
<g style="fill:#000000; fill-opacity:0.0; 
stroke:#000000; stroke-width:0.2032; stroke-opacity:1; 
stroke-linecap:round; stroke-linejoin:round;">
<path d="M24.0411 8.8646
L272.9611 8.8646
" />
</g>
<g style="fill:#000000; fill-opacity:0.0; 
stroke:#000000; stroke-width:0.2540; stroke-opacity:1; 
stroke-linecap:round; stroke-linejoin:round;">
<path d="M248.8311 74.7776 A12.7000 12.7000 0.0 0 0 261.5311 62.0776" />
<path d="M261.5311 180.8226
L261.5311 148.4376
" />
<path d="M45.6311 135.1026 A10.4823 10.4823 0.0 0 0 35.4711 145.8976" />
</g>
<g style="fill:#000000; fill-opacity:0.0; 
stroke:#000000; stroke-width:0.2032; stroke-opacity:1; 
stroke-linecap:round; stroke-linejoin:round;">
<path d="M272.9611 194.2846
L272.9611 15.7226
" />
</g>
<g style="fill:#000000; fill-opacity:0.0; 
stroke:#000000; stroke-width:0.2540; stroke-opacity:1; 
stroke-linecap:round; stroke-linejoin:round;">
<path d="M161.2011 74.7776
L248.8311 74.7776
" />
<path d="M145.9611 121.1326
L145.9611 88.7476
" />
<path d="M248.8311 134.4676 A12.7000 12.7000 0.0 0 0 261.5311 121.7676" />
</g>
<g style="fill:#000000; fill-opacity:0.0; 
stroke:#000000; stroke-width:0.2032; stroke-opacity:1; 
stroke-linecap:round; stroke-linejoin:round;">
<path d="M24.0411 15.2146
L272.9611 15.2146
" />
<path d="M24.0411 15.2146
L24.0411 8.8646
" />
</g>
<g style="fill:#000000; fill-opacity:0.0; 
stroke:#000000; stroke-width:0.2540; stroke-opacity:1; 
stroke-linecap:round; stroke-linejoin:round;">
<path d="M145.9611 29.0576 A13.0214 13.0214 0.0 0 0 133.2611 15.7226" />
<path d="M151.0411 183.9976
L151.0411 145.8976
" />
<path d="M45.6311 15.7226
L133.2611 15.7226
" />
<path d="M261.5311 88.7476 A13.0214 13.0214 0.0 0 0 248.8311 75.4126" />
<path d="M161.2011 135.1026
L248.8311 135.1026
" />
<g >
</g>
<g >
</g>
<g >
</g>
<g >
</g>
<g >
</g>
<g >
</g>
<g >
</g>
<g >
</g>
<g >
</g>
<g >
</g>
<g >
</g>
<g >
</g>
<g >
</g>
<g >
</g>
<g >
</g>
<g >
</g>
<g >
</g>
<g >
</g>
<g >
</g>
<g >
</g>
<g >
</g>
<g >
</g>
<g >
</g>
<g >
</g>
<g >
</g>
<g >
</g>
<g >
</g>
<g >
</g>
<g >
</g>
<g >
</g>
<g >
</g>
<g >
</g>
<g >
</g>
<g >
</g>
<g >
</g>
<g >
</g>
<g >
</g>
<g >
</g>
<g >
</g>
<g >
</g>
<g >
</g>
<g >
</g>
<g >
</g>
<g >
</g>
<g >
</g>
<g >
</g>
<g >
</g>
<g >
</g>
<g >
</g>
<g >
</g>
<g >
</g>
<g >
</g>
<g >
</g>
<g >
</g>
<g >
</g>
<g >
</g>
<g >
</g>
<g >
</g>
<g >
</g>
<g >
</g>
<g >
</g>
<g >
</g>
<g >
</g>
<g >
</g>
<g >
</g>
<g >
</g>
<g >
</g>
<g >
</g>
<g >
</g>
<g >
</g>
<g >
</g>
<g >
</g>
<g >
</g>
<g >
</g>
<g >
</g>
<g >
</g>
<g >
</g>
<g >
</g>
<g >
</g>
<g >
</g>
<g >
</g>
<g >
</g>
<g >
</g>
<g >
</g>
<g >
</g>
<g >
</g>
<g >
</g>
<g >
</g>
<g >
</g>
<g >
</g>
<g >
</g>
<g >
</g>
<g >
</g>
<g >
</g>
<g >
</g>
<g >
</g>
<g >
</g>
<g >
</g>
<g >
</g>
<g >
</g>
<g >
</g>
<g >
</g>
<g >
</g>
<g >
</g>
<g >
</g>
<g >
</g>
<g >
</g>
<g >
</g>
<g >
</g>
<g >
</g>
<g >
</g>
<g >
</g>
<g >
</g>
<g >
</g>
<g >
</g>
<g >
</g>
<g >
</g>
<g >
</g>
<g >
</g>
<g >
</g>
<g >
</g>
<g >
</g>
<g >
</g>
<g >
</g>
<g >
</g>
<g >
</g>
<g >
</g>
<g >
</g>
<g >
</g>
<g >
</g>
<g >
</g>
<g >
</g>
<g >
</g>
<g >
</g>
<g >
</g>
<g >
</g>
<g >
</g>
<g >
</g>
<g >
</g>
<g >
</g>
<g >
</g>
<g >
</g>
<g >
</g>
<g >
</g>
<g >
</g>
<g >
</g>
<g >
</g>
<g >
</g>
<g >
</g>
<g >
</g>
<g >
</g>
<g >
</g>
<g >
</g>
<g >
</g>
<g >
</g>
<g >
</g>
<g >
</g>
<g >
</g>
<g >
</g>
<g >
</g>
<g >
</g>
<g >
</g>
<g >
</g>
<g >
</g>
<g >
</g>
<g >
</g>
<g >
</g>
<g >
</g>
<g >
</g>
<g >
</g>
<g >
</g>
<g >
</g>
<g >
</g>
<g >
</g>
<g >
</g>
<g >
</g>
<g >
</g>
<g >
</g>
<g >
</g>
<g >
</g>
<g >
</g>
<g >
</g>
<g >
</g>
<g >
</g>
<g >
</g>
<g >
</g>
<g >
</g>
<g >
</g>
<g >
</g>
<g >
</g>
<g >
</g>
<g >
</g>
<g >
</g>
<g >
</g>
<g >
</g>
<g >
</g>
<g >
</g>
<g >
</g>
<g >
</g>
<g >
</g>
<g >
</g>
<g >
</g>
<g >
</g>
<g >
</g>
<g >
</g>
<g >
</g>
<g >
</g>
<g >
</g>
<g >
</g>
<g >
</g>
<g >
</g>
<g >
</g>
<g >
</g>
<g >
</g>
<g >
</g>
<g >
</g>
<g >
</g>
<g >
</g>
<g >
</g>
<g >
</g>
<g >
</g>
<g >
</g>
<g >
</g>
<g >
</g>
<g >
</g>
<g >
</g>
<g >
</g>
<g >
</g>
<g >
</g>
<g >
</g>
<g >
</g>
<g >
</g>
<g >
</g>
<g >
</g>
<g >
</g>
<g >
</g>
<g >
</g>
<g >
</g>
<g >
</g>
<g >
</g>
<g >
</g>
<g >
</g>
<g >
</g>
<g >
</g>
<g >
</g>
<g >
</g>
<g >
</g>
<g >
</g>
<g >
</g>
<g >
</g>
<g >
</g>
<g >
</g>
<g >
</g>
<g >
</g>
<g >
</g>
<g >
</g>
<g >
</g>
<g >
</g>
<g >
</g>
<g >
</g>
<g >
</g>
<g >
</g>
<g >
</g>
<g >
</g>
<g >
</g>
<g >
</g>
<g >
</g>
<g >
</g>
<g >
</g>
<g >
</g>
<g >
</g>
<g >
</g>
<g >
</g>
<g >
</g>
<g >
</g>
<g >
</g>
</g> 
</svg>
