%TF.GenerationSoftware,KiCad,Pcbnew,7.0.6-7.0.6~ubuntu22.04.1*%
%TF.CreationDate,2023-08-04T05:18:28+01:00*%
%TF.ProjectId,working,776f726b-696e-4672-9e6b-696361645f70,rev?*%
%TF.SameCoordinates,Original*%
%TF.FileFunction,Copper,L2,Bot*%
%TF.FilePolarity,Positive*%
%FSLAX46Y46*%
G04 Gerber Fmt 4.6, Leading zero omitted, Abs format (unit mm)*
G04 Created by KiCad (PCBNEW 7.0.6-7.0.6~ubuntu22.04.1) date 2023-08-04 05:18:28*
%MOMM*%
%LPD*%
G01*
G04 APERTURE LIST*
G04 Aperture macros list*
%AMRoundRect*
0 Rectangle with rounded corners*
0 $1 Rounding radius*
0 $2 $3 $4 $5 $6 $7 $8 $9 X,Y pos of 4 corners*
0 Add a 4 corners polygon primitive as box body*
4,1,4,$2,$3,$4,$5,$6,$7,$8,$9,$2,$3,0*
0 Add four circle primitives for the rounded corners*
1,1,$1+$1,$2,$3*
1,1,$1+$1,$4,$5*
1,1,$1+$1,$6,$7*
1,1,$1+$1,$8,$9*
0 Add four rect primitives between the rounded corners*
20,1,$1+$1,$2,$3,$4,$5,0*
20,1,$1+$1,$4,$5,$6,$7,0*
20,1,$1+$1,$6,$7,$8,$9,0*
20,1,$1+$1,$8,$9,$2,$3,0*%
G04 Aperture macros list end*
%TA.AperFunction,ComponentPad*%
%ADD10C,1.676400*%
%TD*%
%TA.AperFunction,ComponentPad*%
%ADD11C,1.778000*%
%TD*%
%TA.AperFunction,ComponentPad*%
%ADD12C,3.810000*%
%TD*%
%TA.AperFunction,SMDPad,CuDef*%
%ADD13R,1.600200X1.168400*%
%TD*%
%TA.AperFunction,SMDPad,CuDef*%
%ADD14R,0.203200X0.635000*%
%TD*%
%TA.AperFunction,SMDPad,CuDef*%
%ADD15RoundRect,0.190500X-0.190500X-0.571500X0.190500X-0.571500X0.190500X0.571500X-0.190500X0.571500X0*%
%TD*%
%TA.AperFunction,SMDPad,CuDef*%
%ADD16RoundRect,0.750000X0.000000X0.000000X0.000000X0.000000X0.000000X0.000000X0.000000X0.000000X0*%
%TD*%
%TA.AperFunction,ViaPad*%
%ADD17C,0.906400*%
%TD*%
%TA.AperFunction,Conductor*%
%ADD18C,0.406400*%
%TD*%
%TA.AperFunction,Conductor*%
%ADD19C,0.304800*%
%TD*%
G04 APERTURE END LIST*
%TA.AperFunction,EtchedComponent*%
%TO.C,SJ1*%
G36*
X148956121Y-99923600D02*
G01*
X148194121Y-100685600D01*
X147586700Y-100685600D01*
X147586700Y-99161600D01*
X148194121Y-99161600D01*
X148956121Y-99923600D01*
G37*
%TD.AperFunction*%
%TA.AperFunction,EtchedComponent*%
G36*
X149923500Y-100685600D02*
G01*
X148568269Y-100685600D01*
X149303992Y-99923600D01*
X148568269Y-99161600D01*
X149923500Y-99161600D01*
X149923500Y-100685600D01*
G37*
%TD.AperFunction*%
%TD*%
D10*
%TO.P,JP4,1*%
%TO.N,N$6*%
X151676100Y-112623600D03*
%TO.P,JP4,2*%
%TO.N,N$7*%
X149136100Y-112623600D03*
%TO.P,JP4,3*%
%TO.N,N$8*%
X146596100Y-112623600D03*
%TO.P,JP4,4*%
%TO.N,N$9*%
X144056100Y-112623600D03*
%TO.P,JP4,5*%
%TO.N,N$10*%
X141516100Y-112623600D03*
%TO.P,JP4,6*%
%TO.N,N$11*%
X138976100Y-112623600D03*
%TO.P,JP4,7*%
%TO.N,GND*%
X136436100Y-112623600D03*
%TO.P,JP4,8*%
%TO.N,N$13*%
X133896100Y-112623600D03*
%TO.P,JP4,9*%
%TO.N,3V*%
X131356100Y-112623600D03*
%TO.P,JP4,10*%
%TO.N,N$12*%
X128816100Y-112623600D03*
%TD*%
%TO.P,JP1,1*%
%TO.N,GRESET*%
X151549100Y-99923600D03*
%TO.P,JP1,2*%
%TO.N,FIX*%
X151549100Y-102463600D03*
%TO.P,JP1,3*%
%TO.N,1PPS*%
X151549100Y-105003600D03*
%TO.P,JP1,4*%
%TO.N,ENABLE*%
X151549100Y-107543600D03*
%TD*%
D11*
%TO.P,JP2,1*%
%TO.N,N$14*%
X141389100Y-97383600D03*
%TO.P,JP2,2*%
%TO.N,USB*%
X143929100Y-97383600D03*
%TO.P,JP2,3*%
%TO.N,N$1*%
X146469100Y-97383600D03*
%TO.P,JP2,4*%
%TO.N,N$3*%
X149009100Y-97383600D03*
%TO.P,JP2,5*%
%TO.N,N$5*%
X151549100Y-97383600D03*
%TD*%
%TO.P,MS1,1*%
%TO.N,N$12*%
X129451100Y-115163600D03*
%TO.P,MS1,2*%
%TO.N,3V*%
X131991100Y-115163600D03*
%TO.P,MS1,3*%
%TO.N,N$13*%
X134531100Y-115163600D03*
%TO.P,MS1,4*%
%TO.N,GND*%
X137071100Y-115163600D03*
%TO.P,MS1,5*%
%TO.N,N$11*%
X139611100Y-115163600D03*
%TO.P,MS1,6*%
%TO.N,N$10*%
X142151100Y-115163600D03*
%TO.P,MS1,7*%
%TO.N,N$9*%
X144691100Y-115163600D03*
%TO.P,MS1,8*%
%TO.N,N$8*%
X147231100Y-115163600D03*
%TO.P,MS1,9*%
%TO.N,N$7*%
X149771100Y-115163600D03*
%TO.P,MS1,10*%
%TO.N,N$6*%
X152311100Y-115163600D03*
%TO.P,MS1,11*%
%TO.N,N/C*%
X154851100Y-115163600D03*
%TO.P,MS1,12*%
X157391100Y-115163600D03*
%TO.P,MS1,13*%
X159931100Y-115163600D03*
%TO.P,MS1,14*%
%TO.N,N$16*%
X162471100Y-115163600D03*
%TO.P,MS1,15*%
%TO.N,N$17*%
X165011100Y-115163600D03*
%TO.P,MS1,16*%
%TO.N,N/C*%
X167551100Y-115163600D03*
%TO.P,MS1,17*%
X167551100Y-94843600D03*
%TO.P,MS1,18*%
X165011100Y-94843600D03*
%TO.P,MS1,19*%
X162471100Y-94843600D03*
%TO.P,MS1,20*%
X159931100Y-94843600D03*
%TO.P,MS1,21*%
X157391100Y-94843600D03*
%TO.P,MS1,22*%
X154851100Y-94843600D03*
%TO.P,MS1,23*%
%TO.N,N$5*%
X152311100Y-94843600D03*
%TO.P,MS1,24*%
%TO.N,N$3*%
X149771100Y-94843600D03*
%TO.P,MS1,25*%
%TO.N,N$1*%
X147231100Y-94843600D03*
%TO.P,MS1,26*%
%TO.N,USB*%
X144691100Y-94843600D03*
%TO.P,MS1,27*%
%TO.N,N$14*%
X142151100Y-94843600D03*
%TO.P,MS1,28*%
%TO.N,N/C*%
X139611100Y-94843600D03*
D12*
%TO.P,MS1,P$1*%
X125641100Y-96113600D03*
%TO.P,MS1,P$2*%
X125641100Y-113893600D03*
%TD*%
D11*
%TO.P,JP3,1*%
%TO.N,RX*%
X172758100Y-109448600D03*
%TO.P,JP3,2*%
%TO.N,TX*%
X170218100Y-109448600D03*
%TD*%
D13*
%TO.P,SJ2,1*%
%TO.N,TX*%
X162471100Y-111480600D03*
%TO.P,SJ2,2*%
%TO.N,N$16*%
X162471100Y-113004600D03*
D14*
%TO.P,SJ2,WIRE*%
%TO.N,N/C*%
X162471100Y-112242600D03*
%TD*%
D15*
%TO.P,SJ1,1*%
%TO.N,N$12*%
X147739100Y-99923600D03*
%TO.P,SJ1,2*%
%TO.N,GRESET*%
X149771100Y-99923600D03*
%TD*%
D16*
%TO.P,TP1,P$1*%
%TO.N,VBACKUP*%
X144310100Y-101828600D03*
%TD*%
D13*
%TO.P,SJ3,1*%
%TO.N,RX*%
X165011100Y-111480600D03*
%TO.P,SJ3,2*%
%TO.N,N$17*%
X165011100Y-113004600D03*
D14*
%TO.P,SJ3,WIRE*%
%TO.N,N/C*%
X165011100Y-112242600D03*
%TD*%
D17*
%TO.N,GND*%
X133642100Y-107289600D03*
X130467100Y-105638600D03*
%TO.N,VBACKUP*%
X153962100Y-109448600D03*
X144310100Y-101828600D03*
X144691100Y-103733600D03*
%TO.N,TX*%
X166662100Y-109829600D03*
%TO.N,RX*%
X167805100Y-110845600D03*
%TO.N,1PPS*%
X159296100Y-101701600D03*
%TO.N,GRESET*%
X155740100Y-110083600D03*
X160185100Y-107416600D03*
%TO.N,N$12*%
X144183100Y-99377600D03*
%TD*%
D18*
%TO.N,VBACKUP*%
X150406100Y-109448600D02*
X153962100Y-109448600D01*
X144691100Y-103733600D02*
X150406100Y-109448600D01*
%TO.N,TX*%
X162471100Y-111480600D02*
X162471100Y-110337600D01*
X166535100Y-109956600D02*
X166662100Y-109829600D01*
X162852100Y-109956600D02*
X166535100Y-109956600D01*
X162471100Y-110337600D02*
X162852100Y-109956600D01*
%TO.N,RX*%
X165646100Y-110845600D02*
X167805100Y-110845600D01*
X165011100Y-111480600D02*
X165646100Y-110845600D01*
%TO.N,1PPS*%
X155994100Y-105003600D02*
X159296100Y-101701600D01*
X151549100Y-105003600D02*
X155994100Y-105003600D01*
%TO.N,GRESET*%
X160185100Y-107416600D02*
X158407100Y-107416600D01*
D19*
X151549100Y-99923600D02*
X149771100Y-99923600D01*
D18*
X158407100Y-107416600D02*
X155740100Y-110083600D01*
D19*
%TO.N,N$12*%
X147739100Y-99923600D02*
X147193100Y-99377600D01*
X147193100Y-99377600D02*
X144183100Y-99377600D01*
D18*
%TO.N,N$16*%
X162471100Y-113004600D02*
X162471100Y-115163600D01*
%TO.N,N$17*%
X165011100Y-113004600D02*
X165011100Y-115163600D01*
%TD*%
M02*
