M48
; DRILL file {KiCad 7.0.6-7.0.6~ubuntu22.04.1} date Fri 04 Aug 2023 02:32:07 BST
; FORMAT={-:-/ absolute / metric / decimal}
; #@! TF.CreationDate,2023-08-04T02:32:07+01:00
; #@! TF.GenerationSoftware,Kicad,Pcbnew,7.0.6-7.0.6~ubuntu22.04.1
; #@! TF.FileFunction,MixedPlating,1,2
FMAT,2
METRIC
; #@! TA.AperFunction,Plated,PTH,ViaDrill
T1C0.350
; #@! TA.AperFunction,Plated,PTH,ViaDrill
T2C0.400
; #@! TA.AperFunction,Plated,PTH,ComponentDrill
T3C0.800
; #@! TA.AperFunction,Plated,PTH,ComponentDrill
T4C1.000
; #@! TA.AperFunction,Plated,PTH,ComponentDrill
T5C1.016
; #@! TA.AperFunction,Plated,PTH,ComponentDrill
T6C3.048
%
G90
G05
T1
X142.898Y-79.565
X153.198Y-91.365
X153.198Y-92.365
X154.598Y-91.365
X154.598Y-92.365
X170.0Y-107.0
X170.0Y-109.0
X171.0Y-107.0
X171.0Y-109.0
X172.0Y-107.0
X172.0Y-109.0
X173.0Y-107.0
X173.0Y-109.0
X174.5Y-106.0
X174.5Y-110.0
T2
X135.598Y-78.765
X146.198Y-78.465
X146.998Y-90.365
X150.098Y-79.565
X152.198Y-105.965
X156.098Y-90.365
X166.598Y-86.065
X169.698Y-103.965
X169.798Y-101.965
T3
X174.65Y-107.95
T4
X154.798Y-79.165
X154.798Y-81.705
X158.398Y-79.165
X158.398Y-81.705
X161.998Y-79.165
X161.998Y-81.705
X165.598Y-79.165
X165.598Y-81.705
X169.198Y-79.165
X169.198Y-81.705
T5
X129.794Y-75.565
X132.334Y-75.565
X134.874Y-75.565
X137.414Y-75.565
X138.938Y-123.825
X139.954Y-75.565
X141.478Y-123.825
X142.494Y-75.565
X144.018Y-123.825
X145.034Y-75.565
X146.558Y-123.825
X147.574Y-75.565
X149.098Y-123.825
X150.114Y-75.565
X151.638Y-123.825
X152.654Y-75.565
X154.178Y-123.825
X156.718Y-75.565
X156.718Y-123.825
X159.258Y-75.565
X161.798Y-75.565
X161.798Y-123.825
X164.338Y-75.565
X164.338Y-123.825
X166.878Y-75.565
X166.878Y-123.825
X169.418Y-75.565
X169.418Y-123.825
X171.958Y-75.565
X171.958Y-123.825
X174.498Y-75.565
X174.498Y-123.825
T6
X124.968Y-123.825
X126.238Y-75.565
X177.038Y-90.805
X177.038Y-118.745
T0
M30
