%TF.GenerationSoftware,KiCad,Pcbnew,7.0.6-7.0.6~ubuntu22.04.1*%
%TF.CreationDate,2023-08-06T23:56:00+01:00*%
%TF.ProjectId,working,776f726b-696e-4672-9e6b-696361645f70,rev?*%
%TF.SameCoordinates,Original*%
%TF.FileFunction,Other,User*%
%FSLAX46Y46*%
G04 Gerber Fmt 4.6, Leading zero omitted, Abs format (unit mm)*
G04 Created by KiCad (PCBNEW 7.0.6-7.0.6~ubuntu22.04.1) date 2023-08-06 23:56:00*
%MOMM*%
%LPD*%
G01*
G04 APERTURE LIST*
%ADD10C,0.050800*%
G04 APERTURE END LIST*
D10*
%TO.C,C204*%
X132024100Y-39658600D02*
X132024100Y-34712600D01*
X133990100Y-39658600D02*
X132024100Y-39658600D01*
X132024100Y-34712600D02*
X133990100Y-34712600D01*
X133990100Y-34712600D02*
X133990100Y-39658600D01*
%TO.C,R282*%
X134564100Y-19418100D02*
X134564100Y-16472100D01*
X136530100Y-19418100D02*
X134564100Y-19418100D01*
X134564100Y-16472100D02*
X136530100Y-16472100D01*
X136530100Y-16472100D02*
X136530100Y-19418100D01*
%TO.C,R43*%
X136530100Y-179921100D02*
X136530100Y-182867100D01*
X134564100Y-179921100D02*
X136530100Y-179921100D01*
X136530100Y-182867100D02*
X134564100Y-182867100D01*
X134564100Y-182867100D02*
X134564100Y-179921100D01*
%TO.C,R24*%
X184536100Y-202336600D02*
X184536100Y-205282600D01*
X182570100Y-202336600D02*
X184536100Y-202336600D01*
X184536100Y-205282600D02*
X182570100Y-205282600D01*
X182570100Y-205282600D02*
X182570100Y-202336600D01*
%TO.C,R125*%
X99258100Y-111810600D02*
X99258100Y-108864600D01*
X101224100Y-111810600D02*
X99258100Y-111810600D01*
X99258100Y-108864600D02*
X101224100Y-108864600D01*
X101224100Y-108864600D02*
X101224100Y-111810600D01*
%TO.C,C175*%
X124592100Y-45380600D02*
X124592100Y-50326600D01*
X122626100Y-45380600D02*
X124592100Y-45380600D01*
X124592100Y-50326600D02*
X122626100Y-50326600D01*
X122626100Y-50326600D02*
X122626100Y-45380600D01*
%TO.C,C216*%
X194508100Y-39658600D02*
X194508100Y-34712600D01*
X196474100Y-39658600D02*
X194508100Y-39658600D01*
X194508100Y-34712600D02*
X196474100Y-34712600D01*
X196474100Y-34712600D02*
X196474100Y-39658600D01*
%TO.C,R74*%
X142880100Y-160680600D02*
X142880100Y-163626600D01*
X140914100Y-160680600D02*
X142880100Y-160680600D01*
X142880100Y-163626600D02*
X140914100Y-163626600D01*
X140914100Y-163626600D02*
X140914100Y-160680600D01*
%TO.C,R131*%
X134956400Y-125290600D02*
X132010400Y-125290600D01*
X134956400Y-123324600D02*
X134956400Y-125290600D01*
X132010400Y-125290600D02*
X132010400Y-123324600D01*
X132010400Y-123324600D02*
X134956400Y-123324600D01*
%TO.C,C121*%
X92334100Y-87036600D02*
X92334100Y-91982600D01*
X90368100Y-87036600D02*
X92334100Y-87036600D01*
X92334100Y-91982600D02*
X90368100Y-91982600D01*
X90368100Y-91982600D02*
X90368100Y-87036600D01*
%TO.C,C211*%
X187076100Y-24552600D02*
X187076100Y-29498600D01*
X185110100Y-24552600D02*
X187076100Y-24552600D01*
X187076100Y-29498600D02*
X185110100Y-29498600D01*
X185110100Y-29498600D02*
X185110100Y-24552600D01*
%TO.C,R280*%
X120086100Y-7670600D02*
X120086100Y-4724600D01*
X122052100Y-7670600D02*
X120086100Y-7670600D01*
X120086100Y-4724600D02*
X122052100Y-4724600D01*
X122052100Y-4724600D02*
X122052100Y-7670600D01*
%TO.C,R4*%
X94874100Y-200749100D02*
X94874100Y-203695100D01*
X92908100Y-200749100D02*
X94874100Y-200749100D01*
X94874100Y-203695100D02*
X92908100Y-203695100D01*
X92908100Y-203695100D02*
X92908100Y-200749100D01*
%TO.C,R256*%
X155784400Y-41978600D02*
X152838400Y-41978600D01*
X155784400Y-40012600D02*
X155784400Y-41978600D01*
X152838400Y-41978600D02*
X152838400Y-40012600D01*
X152838400Y-40012600D02*
X155784400Y-40012600D01*
%TO.C,R25*%
X182570100Y-195122600D02*
X182570100Y-192176600D01*
X184536100Y-195122600D02*
X182570100Y-195122600D01*
X182570100Y-192176600D02*
X184536100Y-192176600D01*
X184536100Y-192176600D02*
X184536100Y-195122600D01*
%TO.C,R51*%
X176612400Y-187774600D02*
X173666400Y-187774600D01*
X176612400Y-185808600D02*
X176612400Y-187774600D01*
X173666400Y-187774600D02*
X173666400Y-185808600D01*
X173666400Y-185808600D02*
X176612400Y-185808600D01*
%TO.C,C63*%
X166248100Y-149520600D02*
X166248100Y-154466600D01*
X164282100Y-149520600D02*
X166248100Y-149520600D01*
X166248100Y-154466600D02*
X164282100Y-154466600D01*
X164282100Y-154466600D02*
X164282100Y-149520600D01*
%TO.C,R298*%
X199014100Y-13297100D02*
X199014100Y-16243100D01*
X197048100Y-13297100D02*
X199014100Y-13297100D01*
X199014100Y-16243100D02*
X197048100Y-16243100D01*
X197048100Y-16243100D02*
X197048100Y-13297100D01*
%TO.C,R86*%
X197440400Y-166946600D02*
X194494400Y-166946600D01*
X197440400Y-164980600D02*
X197440400Y-166946600D01*
X194494400Y-166946600D02*
X194494400Y-164980600D01*
X194494400Y-164980600D02*
X197440400Y-164980600D01*
%TO.C,C218*%
X101798100Y-18830600D02*
X101798100Y-13884600D01*
X103764100Y-18830600D02*
X101798100Y-18830600D01*
X101798100Y-13884600D02*
X103764100Y-13884600D01*
X103764100Y-13884600D02*
X103764100Y-18830600D01*
%TO.C,C123*%
X103764100Y-87036600D02*
X103764100Y-91982600D01*
X101798100Y-87036600D02*
X103764100Y-87036600D01*
X103764100Y-91982600D02*
X101798100Y-91982600D01*
X101798100Y-91982600D02*
X101798100Y-87036600D01*
%TO.C,R196*%
X155784400Y-83634600D02*
X152838400Y-83634600D01*
X155784400Y-81668600D02*
X155784400Y-83634600D01*
X152838400Y-83634600D02*
X152838400Y-81668600D01*
X152838400Y-81668600D02*
X155784400Y-81668600D01*
%TO.C,C152*%
X111196100Y-81314600D02*
X111196100Y-76368600D01*
X113162100Y-81314600D02*
X111196100Y-81314600D01*
X111196100Y-76368600D02*
X113162100Y-76368600D01*
X113162100Y-76368600D02*
X113162100Y-81314600D01*
%TO.C,R103*%
X136530100Y-138265100D02*
X136530100Y-141211100D01*
X134564100Y-138265100D02*
X136530100Y-138265100D01*
X136530100Y-141211100D02*
X134564100Y-141211100D01*
X134564100Y-141211100D02*
X134564100Y-138265100D01*
%TO.C,R184*%
X101224100Y-77368600D02*
X101224100Y-80314600D01*
X99258100Y-77368600D02*
X101224100Y-77368600D01*
X101224100Y-80314600D02*
X99258100Y-80314600D01*
X99258100Y-80314600D02*
X99258100Y-77368600D01*
%TO.C,C32*%
X111196100Y-185454600D02*
X111196100Y-180508600D01*
X113162100Y-185454600D02*
X111196100Y-185454600D01*
X111196100Y-180508600D02*
X113162100Y-180508600D01*
X113162100Y-180508600D02*
X113162100Y-185454600D01*
%TO.C,R277*%
X113736100Y-19418100D02*
X113736100Y-16472100D01*
X115702100Y-19418100D02*
X113736100Y-19418100D01*
X113736100Y-16472100D02*
X115702100Y-16472100D01*
X115702100Y-16472100D02*
X115702100Y-19418100D01*
%TO.C,C143*%
X207904100Y-87036600D02*
X207904100Y-91982600D01*
X205938100Y-87036600D02*
X207904100Y-87036600D01*
X207904100Y-91982600D02*
X205938100Y-91982600D01*
X205938100Y-91982600D02*
X205938100Y-87036600D01*
%TO.C,R11*%
X134956400Y-208602600D02*
X132010400Y-208602600D01*
X134956400Y-206636600D02*
X134956400Y-208602600D01*
X132010400Y-208602600D02*
X132010400Y-206636600D01*
X132010400Y-206636600D02*
X134956400Y-206636600D01*
%TO.C,R237*%
X197048100Y-61074100D02*
X197048100Y-58128100D01*
X199014100Y-61074100D02*
X197048100Y-61074100D01*
X197048100Y-58128100D02*
X199014100Y-58128100D01*
X199014100Y-58128100D02*
X199014100Y-61074100D01*
%TO.C,C97*%
X92334100Y-107864600D02*
X92334100Y-112810600D01*
X90368100Y-107864600D02*
X92334100Y-107864600D01*
X92334100Y-112810600D02*
X90368100Y-112810600D01*
X90368100Y-112810600D02*
X90368100Y-107864600D01*
%TO.C,R115*%
X182570100Y-132638600D02*
X182570100Y-129692600D01*
X184536100Y-132638600D02*
X182570100Y-132638600D01*
X182570100Y-129692600D02*
X184536100Y-129692600D01*
X184536100Y-129692600D02*
X184536100Y-132638600D01*
%TO.C,R67*%
X113736100Y-165214100D02*
X113736100Y-162268100D01*
X115702100Y-165214100D02*
X113736100Y-165214100D01*
X113736100Y-162268100D02*
X115702100Y-162268100D01*
X115702100Y-162268100D02*
X115702100Y-165214100D01*
%TO.C,R34*%
X101224100Y-181508600D02*
X101224100Y-184454600D01*
X99258100Y-181508600D02*
X101224100Y-181508600D01*
X101224100Y-184454600D02*
X99258100Y-184454600D01*
X99258100Y-184454600D02*
X99258100Y-181508600D01*
%TO.C,R163*%
X136530100Y-96609100D02*
X136530100Y-99555100D01*
X134564100Y-96609100D02*
X136530100Y-96609100D01*
X136530100Y-99555100D02*
X134564100Y-99555100D01*
X134564100Y-99555100D02*
X134564100Y-96609100D01*
%TO.C,C129*%
X133990100Y-87036600D02*
X133990100Y-91982600D01*
X132024100Y-87036600D02*
X133990100Y-87036600D01*
X133990100Y-91982600D02*
X132024100Y-91982600D01*
X132024100Y-91982600D02*
X132024100Y-87036600D01*
%TO.C,R273*%
X94874100Y-13297100D02*
X94874100Y-16243100D01*
X92908100Y-13297100D02*
X94874100Y-13297100D01*
X94874100Y-16243100D02*
X92908100Y-16243100D01*
X92908100Y-16243100D02*
X92908100Y-13297100D01*
%TO.C,R240*%
X203398100Y-49326600D02*
X203398100Y-46380600D01*
X205364100Y-49326600D02*
X203398100Y-49326600D01*
X203398100Y-46380600D02*
X205364100Y-46380600D01*
X205364100Y-46380600D02*
X205364100Y-49326600D01*
%TO.C,R167*%
X155392100Y-102730100D02*
X155392100Y-99784100D01*
X157358100Y-102730100D02*
X155392100Y-102730100D01*
X155392100Y-99784100D02*
X157358100Y-99784100D01*
X157358100Y-99784100D02*
X157358100Y-102730100D01*
%TO.C,R127*%
X113736100Y-123558100D02*
X113736100Y-120612100D01*
X115702100Y-123558100D02*
X113736100Y-123558100D01*
X113736100Y-120612100D02*
X115702100Y-120612100D01*
X115702100Y-120612100D02*
X115702100Y-123558100D01*
%TO.C,R77*%
X155392100Y-165214100D02*
X155392100Y-162268100D01*
X157358100Y-165214100D02*
X155392100Y-165214100D01*
X155392100Y-162268100D02*
X157358100Y-162268100D01*
X157358100Y-162268100D02*
X157358100Y-165214100D01*
%TO.C,R96*%
X114128400Y-146118600D02*
X111182400Y-146118600D01*
X114128400Y-144152600D02*
X114128400Y-146118600D01*
X111182400Y-146118600D02*
X111182400Y-144152600D01*
X111182400Y-144152600D02*
X114128400Y-144152600D01*
%TO.C,C233*%
X175646100Y-3724600D02*
X175646100Y-8670600D01*
X173680100Y-3724600D02*
X175646100Y-3724600D01*
X175646100Y-8670600D02*
X173680100Y-8670600D01*
X173680100Y-8670600D02*
X173680100Y-3724600D01*
%TO.C,R99*%
X122052100Y-139852600D02*
X122052100Y-142798600D01*
X120086100Y-139852600D02*
X122052100Y-139852600D01*
X122052100Y-142798600D02*
X120086100Y-142798600D01*
X120086100Y-142798600D02*
X120086100Y-139852600D01*
%TO.C,C94*%
X205938100Y-143798600D02*
X205938100Y-138852600D01*
X207904100Y-143798600D02*
X205938100Y-143798600D01*
X205938100Y-138852600D02*
X207904100Y-138852600D01*
X207904100Y-138852600D02*
X207904100Y-143798600D01*
%TO.C,R223*%
X136530100Y-54953100D02*
X136530100Y-57899100D01*
X134564100Y-54953100D02*
X136530100Y-54953100D01*
X136530100Y-57899100D02*
X134564100Y-57899100D01*
X134564100Y-57899100D02*
X134564100Y-54953100D01*
%TO.C,C88*%
X152852100Y-143798600D02*
X152852100Y-138852600D01*
X154818100Y-143798600D02*
X152852100Y-143798600D01*
X152852100Y-138852600D02*
X154818100Y-138852600D01*
X154818100Y-138852600D02*
X154818100Y-143798600D01*
%TO.C,C30*%
X122626100Y-185454600D02*
X122626100Y-180508600D01*
X124592100Y-185454600D02*
X122626100Y-185454600D01*
X122626100Y-180508600D02*
X124592100Y-180508600D01*
X124592100Y-180508600D02*
X124592100Y-185454600D01*
%TO.C,R121*%
X93300400Y-125290600D02*
X90354400Y-125290600D01*
X93300400Y-123324600D02*
X93300400Y-125290600D01*
X90354400Y-125290600D02*
X90354400Y-123324600D01*
X90354400Y-123324600D02*
X93300400Y-123324600D01*
%TO.C,R275*%
X99258100Y-7670600D02*
X99258100Y-4724600D01*
X101224100Y-7670600D02*
X99258100Y-7670600D01*
X99258100Y-4724600D02*
X101224100Y-4724600D01*
X101224100Y-4724600D02*
X101224100Y-7670600D01*
%TO.C,R176*%
X197440400Y-104462600D02*
X194494400Y-104462600D01*
X197440400Y-102496600D02*
X197440400Y-104462600D01*
X194494400Y-104462600D02*
X194494400Y-102496600D01*
X194494400Y-102496600D02*
X197440400Y-102496600D01*
%TO.C,C212*%
X173680100Y-39658600D02*
X173680100Y-34712600D01*
X175646100Y-39658600D02*
X173680100Y-39658600D01*
X173680100Y-34712600D02*
X175646100Y-34712600D01*
X175646100Y-34712600D02*
X175646100Y-39658600D01*
%TO.C,C230*%
X164282100Y-18830600D02*
X164282100Y-13884600D01*
X166248100Y-18830600D02*
X164282100Y-18830600D01*
X164282100Y-13884600D02*
X166248100Y-13884600D01*
X166248100Y-13884600D02*
X166248100Y-18830600D01*
%TO.C,R290*%
X161742100Y-7670600D02*
X161742100Y-4724600D01*
X163708100Y-7670600D02*
X161742100Y-7670600D01*
X161742100Y-4724600D02*
X163708100Y-4724600D01*
X163708100Y-4724600D02*
X163708100Y-7670600D01*
%TO.C,R166*%
X155784400Y-104462600D02*
X152838400Y-104462600D01*
X155784400Y-102496600D02*
X155784400Y-104462600D01*
X152838400Y-104462600D02*
X152838400Y-102496600D01*
X152838400Y-102496600D02*
X155784400Y-102496600D01*
%TO.C,C89*%
X175646100Y-128692600D02*
X175646100Y-133638600D01*
X173680100Y-128692600D02*
X175646100Y-128692600D01*
X175646100Y-133638600D02*
X173680100Y-133638600D01*
X173680100Y-133638600D02*
X173680100Y-128692600D01*
%TO.C,R150*%
X203398100Y-111810600D02*
X203398100Y-108864600D01*
X205364100Y-111810600D02*
X203398100Y-111810600D01*
X203398100Y-108864600D02*
X205364100Y-108864600D01*
X205364100Y-108864600D02*
X205364100Y-111810600D01*
%TO.C,C87*%
X166248100Y-128692600D02*
X166248100Y-133638600D01*
X164282100Y-128692600D02*
X166248100Y-128692600D01*
X166248100Y-133638600D02*
X164282100Y-133638600D01*
X164282100Y-133638600D02*
X164282100Y-128692600D01*
%TO.C,R113*%
X178186100Y-138265100D02*
X178186100Y-141211100D01*
X176220100Y-138265100D02*
X178186100Y-138265100D01*
X178186100Y-141211100D02*
X176220100Y-141211100D01*
X176220100Y-141211100D02*
X176220100Y-138265100D01*
%TO.C,C101*%
X113162100Y-107864600D02*
X113162100Y-112810600D01*
X111196100Y-107864600D02*
X113162100Y-107864600D01*
X113162100Y-112810600D02*
X111196100Y-112810600D01*
X111196100Y-112810600D02*
X111196100Y-107864600D01*
%TO.C,R291*%
X176612400Y-21150600D02*
X173666400Y-21150600D01*
X176612400Y-19184600D02*
X176612400Y-21150600D01*
X173666400Y-21150600D02*
X173666400Y-19184600D01*
X173666400Y-19184600D02*
X176612400Y-19184600D01*
%TO.C,R133*%
X136530100Y-117437100D02*
X136530100Y-120383100D01*
X134564100Y-117437100D02*
X136530100Y-117437100D01*
X136530100Y-120383100D02*
X134564100Y-120383100D01*
X134564100Y-120383100D02*
X134564100Y-117437100D01*
%TO.C,C155*%
X145420100Y-66208600D02*
X145420100Y-71154600D01*
X143454100Y-66208600D02*
X145420100Y-66208600D01*
X145420100Y-71154600D02*
X143454100Y-71154600D01*
X143454100Y-71154600D02*
X143454100Y-66208600D01*
%TO.C,C56*%
X111196100Y-164626600D02*
X111196100Y-159680600D01*
X113162100Y-164626600D02*
X111196100Y-164626600D01*
X111196100Y-159680600D02*
X113162100Y-159680600D01*
X113162100Y-159680600D02*
X113162100Y-164626600D01*
%TO.C,C14*%
X164282100Y-206282600D02*
X164282100Y-201336600D01*
X166248100Y-206282600D02*
X164282100Y-206282600D01*
X164282100Y-201336600D02*
X166248100Y-201336600D01*
X166248100Y-201336600D02*
X166248100Y-206282600D01*
%TO.C,C192*%
X194508100Y-60486600D02*
X194508100Y-55540600D01*
X196474100Y-60486600D02*
X194508100Y-60486600D01*
X194508100Y-55540600D02*
X196474100Y-55540600D01*
X196474100Y-55540600D02*
X196474100Y-60486600D01*
%TO.C,C140*%
X173680100Y-102142600D02*
X173680100Y-97196600D01*
X175646100Y-102142600D02*
X173680100Y-102142600D01*
X173680100Y-97196600D02*
X175646100Y-97196600D01*
X175646100Y-97196600D02*
X175646100Y-102142600D01*
%TO.C,C22*%
X205938100Y-206282600D02*
X205938100Y-201336600D01*
X207904100Y-206282600D02*
X205938100Y-206282600D01*
X205938100Y-201336600D02*
X207904100Y-201336600D01*
X207904100Y-201336600D02*
X207904100Y-206282600D01*
%TO.C,R138*%
X157358100Y-117437100D02*
X157358100Y-120383100D01*
X155392100Y-117437100D02*
X157358100Y-117437100D01*
X157358100Y-120383100D02*
X155392100Y-120383100D01*
X155392100Y-120383100D02*
X155392100Y-117437100D01*
%TO.C,R215*%
X99258100Y-49326600D02*
X99258100Y-46380600D01*
X101224100Y-49326600D02*
X99258100Y-49326600D01*
X99258100Y-46380600D02*
X101224100Y-46380600D01*
X101224100Y-46380600D02*
X101224100Y-49326600D01*
%TO.C,C133*%
X154818100Y-87036600D02*
X154818100Y-91982600D01*
X152852100Y-87036600D02*
X154818100Y-87036600D01*
X154818100Y-91982600D02*
X152852100Y-91982600D01*
X152852100Y-91982600D02*
X152852100Y-87036600D01*
%TO.C,C215*%
X207904100Y-24552600D02*
X207904100Y-29498600D01*
X205938100Y-24552600D02*
X207904100Y-24552600D01*
X207904100Y-29498600D02*
X205938100Y-29498600D01*
X205938100Y-29498600D02*
X205938100Y-24552600D01*
%TO.C,R22*%
X176220100Y-206870100D02*
X176220100Y-203924100D01*
X178186100Y-206870100D02*
X176220100Y-206870100D01*
X176220100Y-203924100D02*
X178186100Y-203924100D01*
X178186100Y-203924100D02*
X178186100Y-206870100D01*
%TO.C,C23*%
X207904100Y-191176600D02*
X207904100Y-196122600D01*
X205938100Y-191176600D02*
X207904100Y-191176600D01*
X207904100Y-196122600D02*
X205938100Y-196122600D01*
X205938100Y-196122600D02*
X205938100Y-191176600D01*
%TO.C,C98*%
X101798100Y-122970600D02*
X101798100Y-118024600D01*
X103764100Y-122970600D02*
X101798100Y-122970600D01*
X101798100Y-118024600D02*
X103764100Y-118024600D01*
X103764100Y-118024600D02*
X103764100Y-122970600D01*
%TO.C,C151*%
X124592100Y-66208600D02*
X124592100Y-71154600D01*
X122626100Y-66208600D02*
X124592100Y-66208600D01*
X124592100Y-71154600D02*
X122626100Y-71154600D01*
X122626100Y-71154600D02*
X122626100Y-66208600D01*
%TO.C,C21*%
X196474100Y-191176600D02*
X196474100Y-196122600D01*
X194508100Y-191176600D02*
X196474100Y-191176600D01*
X196474100Y-196122600D02*
X194508100Y-196122600D01*
X194508100Y-196122600D02*
X194508100Y-191176600D01*
%TO.C,C91*%
X187076100Y-128692600D02*
X187076100Y-133638600D01*
X185110100Y-128692600D02*
X187076100Y-128692600D01*
X187076100Y-133638600D02*
X185110100Y-133638600D01*
X185110100Y-133638600D02*
X185110100Y-128692600D01*
%TO.C,R73*%
X136530100Y-159093100D02*
X136530100Y-162039100D01*
X134564100Y-159093100D02*
X136530100Y-159093100D01*
X136530100Y-162039100D02*
X134564100Y-162039100D01*
X134564100Y-162039100D02*
X134564100Y-159093100D01*
%TO.C,R271*%
X93300400Y-21150600D02*
X90354400Y-21150600D01*
X93300400Y-19184600D02*
X93300400Y-21150600D01*
X90354400Y-21150600D02*
X90354400Y-19184600D01*
X90354400Y-19184600D02*
X93300400Y-19184600D01*
%TO.C,R187*%
X113736100Y-81902100D02*
X113736100Y-78956100D01*
X115702100Y-81902100D02*
X113736100Y-81902100D01*
X113736100Y-78956100D02*
X115702100Y-78956100D01*
X115702100Y-78956100D02*
X115702100Y-81902100D01*
%TO.C,C183*%
X166248100Y-45380600D02*
X166248100Y-50326600D01*
X164282100Y-45380600D02*
X166248100Y-45380600D01*
X166248100Y-50326600D02*
X164282100Y-50326600D01*
X164282100Y-50326600D02*
X164282100Y-45380600D01*
%TO.C,R249*%
X122052100Y-35712600D02*
X122052100Y-38658600D01*
X120086100Y-35712600D02*
X122052100Y-35712600D01*
X122052100Y-38658600D02*
X120086100Y-38658600D01*
X120086100Y-38658600D02*
X120086100Y-35712600D01*
%TO.C,R62*%
X92908100Y-165214100D02*
X92908100Y-162268100D01*
X94874100Y-165214100D02*
X92908100Y-165214100D01*
X92908100Y-162268100D02*
X94874100Y-162268100D01*
X94874100Y-162268100D02*
X94874100Y-165214100D01*
%TO.C,C16*%
X152852100Y-206282600D02*
X152852100Y-201336600D01*
X154818100Y-206282600D02*
X152852100Y-206282600D01*
X152852100Y-201336600D02*
X154818100Y-201336600D01*
X154818100Y-201336600D02*
X154818100Y-206282600D01*
%TO.C,R59*%
X205364100Y-181508600D02*
X205364100Y-184454600D01*
X203398100Y-181508600D02*
X205364100Y-181508600D01*
X205364100Y-184454600D02*
X203398100Y-184454600D01*
X203398100Y-184454600D02*
X203398100Y-181508600D01*
%TO.C,R75*%
X140914100Y-153466600D02*
X140914100Y-150520600D01*
X142880100Y-153466600D02*
X140914100Y-153466600D01*
X140914100Y-150520600D02*
X142880100Y-150520600D01*
X142880100Y-150520600D02*
X142880100Y-153466600D01*
%TO.C,R149*%
X205364100Y-119024600D02*
X205364100Y-121970600D01*
X203398100Y-119024600D02*
X205364100Y-119024600D01*
X205364100Y-121970600D02*
X203398100Y-121970600D01*
X203398100Y-121970600D02*
X203398100Y-119024600D01*
%TO.C,C20*%
X173680100Y-206282600D02*
X173680100Y-201336600D01*
X175646100Y-206282600D02*
X173680100Y-206282600D01*
X173680100Y-201336600D02*
X175646100Y-201336600D01*
X175646100Y-201336600D02*
X175646100Y-206282600D01*
%TO.C,C147*%
X103764100Y-66208600D02*
X103764100Y-71154600D01*
X101798100Y-66208600D02*
X103764100Y-66208600D01*
X103764100Y-71154600D02*
X101798100Y-71154600D01*
X101798100Y-71154600D02*
X101798100Y-66208600D01*
%TO.C,C128*%
X111196100Y-102142600D02*
X111196100Y-97196600D01*
X113162100Y-102142600D02*
X111196100Y-102142600D01*
X111196100Y-97196600D02*
X113162100Y-97196600D01*
X113162100Y-97196600D02*
X113162100Y-102142600D01*
%TO.C,R250*%
X120086100Y-28498600D02*
X120086100Y-25552600D01*
X122052100Y-28498600D02*
X120086100Y-28498600D01*
X120086100Y-25552600D02*
X122052100Y-25552600D01*
X122052100Y-25552600D02*
X122052100Y-28498600D01*
%TO.C,R265*%
X182570100Y-28498600D02*
X182570100Y-25552600D01*
X184536100Y-28498600D02*
X182570100Y-28498600D01*
X182570100Y-25552600D02*
X184536100Y-25552600D01*
X184536100Y-25552600D02*
X184536100Y-28498600D01*
%TO.C,C77*%
X113162100Y-128692600D02*
X113162100Y-133638600D01*
X111196100Y-128692600D02*
X113162100Y-128692600D01*
X113162100Y-133638600D02*
X111196100Y-133638600D01*
X111196100Y-133638600D02*
X111196100Y-128692600D01*
%TO.C,C234*%
X185110100Y-18830600D02*
X185110100Y-13884600D01*
X187076100Y-18830600D02*
X185110100Y-18830600D01*
X185110100Y-13884600D02*
X187076100Y-13884600D01*
X187076100Y-13884600D02*
X187076100Y-18830600D01*
%TO.C,R238*%
X199014100Y-54953100D02*
X199014100Y-57899100D01*
X197048100Y-54953100D02*
X199014100Y-54953100D01*
X199014100Y-57899100D02*
X197048100Y-57899100D01*
X197048100Y-57899100D02*
X197048100Y-54953100D01*
%TO.C,C197*%
X113162100Y-24552600D02*
X113162100Y-29498600D01*
X111196100Y-24552600D02*
X113162100Y-24552600D01*
X113162100Y-29498600D02*
X111196100Y-29498600D01*
X111196100Y-29498600D02*
X111196100Y-24552600D01*
%TO.C,R268*%
X199014100Y-34125100D02*
X199014100Y-37071100D01*
X197048100Y-34125100D02*
X199014100Y-34125100D01*
X199014100Y-37071100D02*
X197048100Y-37071100D01*
X197048100Y-37071100D02*
X197048100Y-34125100D01*
%TO.C,R190*%
X120086100Y-70154600D02*
X120086100Y-67208600D01*
X122052100Y-70154600D02*
X120086100Y-70154600D01*
X120086100Y-67208600D02*
X122052100Y-67208600D01*
X122052100Y-67208600D02*
X122052100Y-70154600D01*
%TO.C,R124*%
X101224100Y-119024600D02*
X101224100Y-121970600D01*
X99258100Y-119024600D02*
X101224100Y-119024600D01*
X101224100Y-121970600D02*
X99258100Y-121970600D01*
X99258100Y-121970600D02*
X99258100Y-119024600D01*
%TO.C,R38*%
X115702100Y-179921100D02*
X115702100Y-182867100D01*
X113736100Y-179921100D02*
X115702100Y-179921100D01*
X115702100Y-182867100D02*
X113736100Y-182867100D01*
X113736100Y-182867100D02*
X113736100Y-179921100D01*
%TO.C,R123*%
X94874100Y-117437100D02*
X94874100Y-120383100D01*
X92908100Y-117437100D02*
X94874100Y-117437100D01*
X94874100Y-120383100D02*
X92908100Y-120383100D01*
X92908100Y-120383100D02*
X92908100Y-117437100D01*
%TO.C,C25*%
X92334100Y-170348600D02*
X92334100Y-175294600D01*
X90368100Y-170348600D02*
X92334100Y-170348600D01*
X92334100Y-175294600D02*
X90368100Y-175294600D01*
X90368100Y-175294600D02*
X90368100Y-170348600D01*
%TO.C,C86*%
X164282100Y-143798600D02*
X164282100Y-138852600D01*
X166248100Y-143798600D02*
X164282100Y-143798600D01*
X164282100Y-138852600D02*
X166248100Y-138852600D01*
X166248100Y-138852600D02*
X166248100Y-143798600D01*
%TO.C,C208*%
X152852100Y-39658600D02*
X152852100Y-34712600D01*
X154818100Y-39658600D02*
X152852100Y-39658600D01*
X152852100Y-34712600D02*
X154818100Y-34712600D01*
X154818100Y-34712600D02*
X154818100Y-39658600D01*
%TO.C,C107*%
X145420100Y-107864600D02*
X145420100Y-112810600D01*
X143454100Y-107864600D02*
X145420100Y-107864600D01*
X145420100Y-112810600D02*
X143454100Y-112810600D01*
X143454100Y-112810600D02*
X143454100Y-107864600D01*
%TO.C,R212*%
X92908100Y-61074100D02*
X92908100Y-58128100D01*
X94874100Y-61074100D02*
X92908100Y-61074100D01*
X92908100Y-58128100D02*
X94874100Y-58128100D01*
X94874100Y-58128100D02*
X94874100Y-61074100D01*
%TO.C,C160*%
X152852100Y-81314600D02*
X152852100Y-76368600D01*
X154818100Y-81314600D02*
X152852100Y-81314600D01*
X152852100Y-76368600D02*
X154818100Y-76368600D01*
X154818100Y-76368600D02*
X154818100Y-81314600D01*
%TO.C,C220*%
X90368100Y-18830600D02*
X90368100Y-13884600D01*
X92334100Y-18830600D02*
X90368100Y-18830600D01*
X90368100Y-13884600D02*
X92334100Y-13884600D01*
X92334100Y-13884600D02*
X92334100Y-18830600D01*
%TO.C,R69*%
X122052100Y-160680600D02*
X122052100Y-163626600D01*
X120086100Y-160680600D02*
X122052100Y-160680600D01*
X122052100Y-163626600D02*
X120086100Y-163626600D01*
X120086100Y-163626600D02*
X120086100Y-160680600D01*
%TO.C,R259*%
X163708100Y-35712600D02*
X163708100Y-38658600D01*
X161742100Y-35712600D02*
X163708100Y-35712600D01*
X163708100Y-38658600D02*
X161742100Y-38658600D01*
X161742100Y-38658600D02*
X161742100Y-35712600D01*
%TO.C,R183*%
X94874100Y-75781100D02*
X94874100Y-78727100D01*
X92908100Y-75781100D02*
X94874100Y-75781100D01*
X94874100Y-78727100D02*
X92908100Y-78727100D01*
X92908100Y-78727100D02*
X92908100Y-75781100D01*
%TO.C,C51*%
X103764100Y-149520600D02*
X103764100Y-154466600D01*
X101798100Y-149520600D02*
X103764100Y-149520600D01*
X103764100Y-154466600D02*
X101798100Y-154466600D01*
X101798100Y-154466600D02*
X101798100Y-149520600D01*
%TO.C,R83*%
X178186100Y-159093100D02*
X178186100Y-162039100D01*
X176220100Y-159093100D02*
X178186100Y-159093100D01*
X178186100Y-162039100D02*
X176220100Y-162039100D01*
X176220100Y-162039100D02*
X176220100Y-159093100D01*
%TO.C,C17*%
X175646100Y-191176600D02*
X175646100Y-196122600D01*
X173680100Y-191176600D02*
X175646100Y-191176600D01*
X175646100Y-196122600D02*
X173680100Y-196122600D01*
X173680100Y-196122600D02*
X173680100Y-191176600D01*
%TO.C,R10*%
X120086100Y-195122600D02*
X120086100Y-192176600D01*
X122052100Y-195122600D02*
X120086100Y-195122600D01*
X120086100Y-192176600D02*
X122052100Y-192176600D01*
X122052100Y-192176600D02*
X122052100Y-195122600D01*
%TO.C,R147*%
X197048100Y-123558100D02*
X197048100Y-120612100D01*
X199014100Y-123558100D02*
X197048100Y-123558100D01*
X197048100Y-120612100D02*
X199014100Y-120612100D01*
X199014100Y-120612100D02*
X199014100Y-123558100D01*
%TO.C,C142*%
X205938100Y-102142600D02*
X205938100Y-97196600D01*
X207904100Y-102142600D02*
X205938100Y-102142600D01*
X205938100Y-97196600D02*
X207904100Y-97196600D01*
X207904100Y-97196600D02*
X207904100Y-102142600D01*
%TO.C,C57*%
X133990100Y-149520600D02*
X133990100Y-154466600D01*
X132024100Y-149520600D02*
X133990100Y-149520600D01*
X133990100Y-154466600D02*
X132024100Y-154466600D01*
X132024100Y-154466600D02*
X132024100Y-149520600D01*
%TO.C,C227*%
X145420100Y-3724600D02*
X145420100Y-8670600D01*
X143454100Y-3724600D02*
X145420100Y-3724600D01*
X145420100Y-8670600D02*
X143454100Y-8670600D01*
X143454100Y-8670600D02*
X143454100Y-3724600D01*
%TO.C,C190*%
X205938100Y-60486600D02*
X205938100Y-55540600D01*
X207904100Y-60486600D02*
X205938100Y-60486600D01*
X205938100Y-55540600D02*
X207904100Y-55540600D01*
X207904100Y-55540600D02*
X207904100Y-60486600D01*
%TO.C,R199*%
X163708100Y-77368600D02*
X163708100Y-80314600D01*
X161742100Y-77368600D02*
X163708100Y-77368600D01*
X163708100Y-80314600D02*
X161742100Y-80314600D01*
X161742100Y-80314600D02*
X161742100Y-77368600D01*
%TO.C,R214*%
X101224100Y-56540600D02*
X101224100Y-59486600D01*
X99258100Y-56540600D02*
X101224100Y-56540600D01*
X101224100Y-59486600D02*
X99258100Y-59486600D01*
X99258100Y-59486600D02*
X99258100Y-56540600D01*
%TO.C,R63*%
X94874100Y-159093100D02*
X94874100Y-162039100D01*
X92908100Y-159093100D02*
X94874100Y-159093100D01*
X94874100Y-162039100D02*
X92908100Y-162039100D01*
X92908100Y-162039100D02*
X92908100Y-159093100D01*
%TO.C,C35*%
X145420100Y-170348600D02*
X145420100Y-175294600D01*
X143454100Y-170348600D02*
X145420100Y-170348600D01*
X145420100Y-175294600D02*
X143454100Y-175294600D01*
X143454100Y-175294600D02*
X143454100Y-170348600D01*
%TO.C,R257*%
X155392100Y-40246100D02*
X155392100Y-37300100D01*
X157358100Y-40246100D02*
X155392100Y-40246100D01*
X155392100Y-37300100D02*
X157358100Y-37300100D01*
X157358100Y-37300100D02*
X157358100Y-40246100D01*
%TO.C,R230*%
X161742100Y-49326600D02*
X161742100Y-46380600D01*
X163708100Y-49326600D02*
X161742100Y-49326600D01*
X161742100Y-46380600D02*
X163708100Y-46380600D01*
X163708100Y-46380600D02*
X163708100Y-49326600D01*
%TO.C,R168*%
X157358100Y-96609100D02*
X157358100Y-99555100D01*
X155392100Y-96609100D02*
X157358100Y-96609100D01*
X157358100Y-99555100D02*
X155392100Y-99555100D01*
X155392100Y-99555100D02*
X155392100Y-96609100D01*
%TO.C,R205*%
X182570100Y-70154600D02*
X182570100Y-67208600D01*
X184536100Y-70154600D02*
X182570100Y-70154600D01*
X182570100Y-67208600D02*
X184536100Y-67208600D01*
X184536100Y-67208600D02*
X184536100Y-70154600D01*
%TO.C,R195*%
X140914100Y-70154600D02*
X140914100Y-67208600D01*
X142880100Y-70154600D02*
X140914100Y-70154600D01*
X140914100Y-67208600D02*
X142880100Y-67208600D01*
X142880100Y-67208600D02*
X142880100Y-70154600D01*
%TO.C,C189*%
X196474100Y-45380600D02*
X196474100Y-50326600D01*
X194508100Y-45380600D02*
X196474100Y-45380600D01*
X196474100Y-50326600D02*
X194508100Y-50326600D01*
X194508100Y-50326600D02*
X194508100Y-45380600D01*
%TO.C,R278*%
X115702100Y-13297100D02*
X115702100Y-16243100D01*
X113736100Y-13297100D02*
X115702100Y-13297100D01*
X115702100Y-16243100D02*
X113736100Y-16243100D01*
X113736100Y-16243100D02*
X113736100Y-13297100D01*
%TO.C,R211*%
X93300400Y-62806600D02*
X90354400Y-62806600D01*
X93300400Y-60840600D02*
X93300400Y-62806600D01*
X90354400Y-62806600D02*
X90354400Y-60840600D01*
X90354400Y-60840600D02*
X93300400Y-60840600D01*
%TO.C,R264*%
X184536100Y-35712600D02*
X184536100Y-38658600D01*
X182570100Y-35712600D02*
X184536100Y-35712600D01*
X184536100Y-38658600D02*
X182570100Y-38658600D01*
X182570100Y-38658600D02*
X182570100Y-35712600D01*
%TO.C,R6*%
X114128400Y-208602600D02*
X111182400Y-208602600D01*
X114128400Y-206636600D02*
X114128400Y-208602600D01*
X111182400Y-208602600D02*
X111182400Y-206636600D01*
X111182400Y-206636600D02*
X114128400Y-206636600D01*
%TO.C,R41*%
X134956400Y-187774600D02*
X132010400Y-187774600D01*
X134956400Y-185808600D02*
X134956400Y-187774600D01*
X132010400Y-187774600D02*
X132010400Y-185808600D01*
X132010400Y-185808600D02*
X134956400Y-185808600D01*
%TO.C,C148*%
X90368100Y-81314600D02*
X90368100Y-76368600D01*
X92334100Y-81314600D02*
X90368100Y-81314600D01*
X90368100Y-76368600D02*
X92334100Y-76368600D01*
X92334100Y-76368600D02*
X92334100Y-81314600D01*
%TO.C,C228*%
X132024100Y-18830600D02*
X132024100Y-13884600D01*
X133990100Y-18830600D02*
X132024100Y-18830600D01*
X132024100Y-13884600D02*
X133990100Y-13884600D01*
X133990100Y-13884600D02*
X133990100Y-18830600D01*
%TO.C,C102*%
X122626100Y-122970600D02*
X122626100Y-118024600D01*
X124592100Y-122970600D02*
X122626100Y-122970600D01*
X122626100Y-118024600D02*
X124592100Y-118024600D01*
X124592100Y-118024600D02*
X124592100Y-122970600D01*
%TO.C,R164*%
X142880100Y-98196600D02*
X142880100Y-101142600D01*
X140914100Y-98196600D02*
X142880100Y-98196600D01*
X142880100Y-101142600D02*
X140914100Y-101142600D01*
X140914100Y-101142600D02*
X140914100Y-98196600D01*
%TO.C,C187*%
X187076100Y-45380600D02*
X187076100Y-50326600D01*
X185110100Y-45380600D02*
X187076100Y-45380600D01*
X187076100Y-50326600D02*
X185110100Y-50326600D01*
X185110100Y-50326600D02*
X185110100Y-45380600D01*
%TO.C,C115*%
X187076100Y-107864600D02*
X187076100Y-112810600D01*
X185110100Y-107864600D02*
X187076100Y-107864600D01*
X187076100Y-112810600D02*
X185110100Y-112810600D01*
X185110100Y-112810600D02*
X185110100Y-107864600D01*
%TO.C,C135*%
X166248100Y-87036600D02*
X166248100Y-91982600D01*
X164282100Y-87036600D02*
X166248100Y-87036600D01*
X166248100Y-91982600D02*
X164282100Y-91982600D01*
X164282100Y-91982600D02*
X164282100Y-87036600D01*
%TO.C,C49*%
X92334100Y-149520600D02*
X92334100Y-154466600D01*
X90368100Y-149520600D02*
X92334100Y-149520600D01*
X92334100Y-154466600D02*
X90368100Y-154466600D01*
X90368100Y-154466600D02*
X90368100Y-149520600D01*
%TO.C,R90*%
X203398100Y-153466600D02*
X203398100Y-150520600D01*
X205364100Y-153466600D02*
X203398100Y-153466600D01*
X203398100Y-150520600D02*
X205364100Y-150520600D01*
X205364100Y-150520600D02*
X205364100Y-153466600D01*
%TO.C,C34*%
X143454100Y-185454600D02*
X143454100Y-180508600D01*
X145420100Y-185454600D02*
X143454100Y-185454600D01*
X143454100Y-180508600D02*
X145420100Y-180508600D01*
X145420100Y-180508600D02*
X145420100Y-185454600D01*
%TO.C,R170*%
X161742100Y-90982600D02*
X161742100Y-88036600D01*
X163708100Y-90982600D02*
X161742100Y-90982600D01*
X161742100Y-88036600D02*
X163708100Y-88036600D01*
X163708100Y-88036600D02*
X163708100Y-90982600D01*
%TO.C,C136*%
X152852100Y-102142600D02*
X152852100Y-97196600D01*
X154818100Y-102142600D02*
X152852100Y-102142600D01*
X152852100Y-97196600D02*
X154818100Y-97196600D01*
X154818100Y-97196600D02*
X154818100Y-102142600D01*
%TO.C,C214*%
X205938100Y-39658600D02*
X205938100Y-34712600D01*
X207904100Y-39658600D02*
X205938100Y-39658600D01*
X205938100Y-34712600D02*
X207904100Y-34712600D01*
X207904100Y-34712600D02*
X207904100Y-39658600D01*
%TO.C,R286*%
X155784400Y-21150600D02*
X152838400Y-21150600D01*
X155784400Y-19184600D02*
X155784400Y-21150600D01*
X152838400Y-21150600D02*
X152838400Y-19184600D01*
X152838400Y-19184600D02*
X155784400Y-19184600D01*
%TO.C,R289*%
X163708100Y-14884600D02*
X163708100Y-17830600D01*
X161742100Y-14884600D02*
X163708100Y-14884600D01*
X163708100Y-17830600D02*
X161742100Y-17830600D01*
X161742100Y-17830600D02*
X161742100Y-14884600D01*
%TO.C,R146*%
X197440400Y-125290600D02*
X194494400Y-125290600D01*
X197440400Y-123324600D02*
X197440400Y-125290600D01*
X194494400Y-125290600D02*
X194494400Y-123324600D01*
X194494400Y-123324600D02*
X197440400Y-123324600D01*
%TO.C,C179*%
X145420100Y-45380600D02*
X145420100Y-50326600D01*
X143454100Y-45380600D02*
X145420100Y-45380600D01*
X145420100Y-50326600D02*
X143454100Y-50326600D01*
X143454100Y-50326600D02*
X143454100Y-45380600D01*
%TO.C,R247*%
X113736100Y-40246100D02*
X113736100Y-37300100D01*
X115702100Y-40246100D02*
X113736100Y-40246100D01*
X113736100Y-37300100D02*
X115702100Y-37300100D01*
X115702100Y-37300100D02*
X115702100Y-40246100D01*
%TO.C,R283*%
X136530100Y-13297100D02*
X136530100Y-16243100D01*
X134564100Y-13297100D02*
X136530100Y-13297100D01*
X136530100Y-16243100D02*
X134564100Y-16243100D01*
X134564100Y-16243100D02*
X134564100Y-13297100D01*
%TO.C,R35*%
X99258100Y-174294600D02*
X99258100Y-171348600D01*
X101224100Y-174294600D02*
X99258100Y-174294600D01*
X99258100Y-171348600D02*
X101224100Y-171348600D01*
X101224100Y-171348600D02*
X101224100Y-174294600D01*
%TO.C,C156*%
X132024100Y-81314600D02*
X132024100Y-76368600D01*
X133990100Y-81314600D02*
X132024100Y-81314600D01*
X132024100Y-76368600D02*
X133990100Y-76368600D01*
X133990100Y-76368600D02*
X133990100Y-81314600D01*
%TO.C,R193*%
X136530100Y-75781100D02*
X136530100Y-78727100D01*
X134564100Y-75781100D02*
X136530100Y-75781100D01*
X136530100Y-78727100D02*
X134564100Y-78727100D01*
X134564100Y-78727100D02*
X134564100Y-75781100D01*
%TO.C,C118*%
X205938100Y-122970600D02*
X205938100Y-118024600D01*
X207904100Y-122970600D02*
X205938100Y-122970600D01*
X205938100Y-118024600D02*
X207904100Y-118024600D01*
X207904100Y-118024600D02*
X207904100Y-122970600D01*
%TO.C,C24*%
X194508100Y-206282600D02*
X194508100Y-201336600D01*
X196474100Y-206282600D02*
X194508100Y-206282600D01*
X194508100Y-201336600D02*
X196474100Y-201336600D01*
X196474100Y-201336600D02*
X196474100Y-206282600D01*
%TO.C,C103*%
X124592100Y-107864600D02*
X124592100Y-112810600D01*
X122626100Y-107864600D02*
X124592100Y-107864600D01*
X124592100Y-112810600D02*
X122626100Y-112810600D01*
X122626100Y-112810600D02*
X122626100Y-107864600D01*
%TO.C,R28*%
X199014100Y-200749100D02*
X199014100Y-203695100D01*
X197048100Y-200749100D02*
X199014100Y-200749100D01*
X199014100Y-203695100D02*
X197048100Y-203695100D01*
X197048100Y-203695100D02*
X197048100Y-200749100D01*
%TO.C,C68*%
X173680100Y-164626600D02*
X173680100Y-159680600D01*
X175646100Y-164626600D02*
X173680100Y-164626600D01*
X173680100Y-159680600D02*
X175646100Y-159680600D01*
X175646100Y-159680600D02*
X175646100Y-164626600D01*
%TO.C,C110*%
X164282100Y-122970600D02*
X164282100Y-118024600D01*
X166248100Y-122970600D02*
X164282100Y-122970600D01*
X164282100Y-118024600D02*
X166248100Y-118024600D01*
X166248100Y-118024600D02*
X166248100Y-122970600D01*
%TO.C,C7*%
X124592100Y-191176600D02*
X124592100Y-196122600D01*
X122626100Y-191176600D02*
X124592100Y-191176600D01*
X124592100Y-196122600D02*
X122626100Y-196122600D01*
X122626100Y-196122600D02*
X122626100Y-191176600D01*
%TO.C,R181*%
X93300400Y-83634600D02*
X90354400Y-83634600D01*
X93300400Y-81668600D02*
X93300400Y-83634600D01*
X90354400Y-83634600D02*
X90354400Y-81668600D01*
X90354400Y-81668600D02*
X93300400Y-81668600D01*
%TO.C,C174*%
X122626100Y-60486600D02*
X122626100Y-55540600D01*
X124592100Y-60486600D02*
X122626100Y-60486600D01*
X122626100Y-55540600D02*
X124592100Y-55540600D01*
X124592100Y-55540600D02*
X124592100Y-60486600D01*
%TO.C,C198*%
X122626100Y-39658600D02*
X122626100Y-34712600D01*
X124592100Y-39658600D02*
X122626100Y-39658600D01*
X122626100Y-34712600D02*
X124592100Y-34712600D01*
X124592100Y-34712600D02*
X124592100Y-39658600D01*
%TO.C,R44*%
X142880100Y-181508600D02*
X142880100Y-184454600D01*
X140914100Y-181508600D02*
X142880100Y-181508600D01*
X142880100Y-184454600D02*
X140914100Y-184454600D01*
X140914100Y-184454600D02*
X140914100Y-181508600D01*
%TO.C,C180*%
X132024100Y-60486600D02*
X132024100Y-55540600D01*
X133990100Y-60486600D02*
X132024100Y-60486600D01*
X132024100Y-55540600D02*
X133990100Y-55540600D01*
X133990100Y-55540600D02*
X133990100Y-60486600D01*
%TO.C,R140*%
X161742100Y-111810600D02*
X161742100Y-108864600D01*
X163708100Y-111810600D02*
X161742100Y-111810600D01*
X161742100Y-108864600D02*
X163708100Y-108864600D01*
X163708100Y-108864600D02*
X163708100Y-111810600D01*
%TO.C,C184*%
X152852100Y-60486600D02*
X152852100Y-55540600D01*
X154818100Y-60486600D02*
X152852100Y-60486600D01*
X152852100Y-55540600D02*
X154818100Y-55540600D01*
X154818100Y-55540600D02*
X154818100Y-60486600D01*
%TO.C,R72*%
X134564100Y-165214100D02*
X134564100Y-162268100D01*
X136530100Y-165214100D02*
X134564100Y-165214100D01*
X134564100Y-162268100D02*
X136530100Y-162268100D01*
X136530100Y-162268100D02*
X136530100Y-165214100D01*
%TO.C,R234*%
X184536100Y-56540600D02*
X184536100Y-59486600D01*
X182570100Y-56540600D02*
X184536100Y-56540600D01*
X184536100Y-59486600D02*
X182570100Y-59486600D01*
X182570100Y-59486600D02*
X182570100Y-56540600D01*
%TO.C,C79*%
X124592100Y-128692600D02*
X124592100Y-133638600D01*
X122626100Y-128692600D02*
X124592100Y-128692600D01*
X124592100Y-133638600D02*
X122626100Y-133638600D01*
X122626100Y-133638600D02*
X122626100Y-128692600D01*
%TO.C,C166*%
X205938100Y-81314600D02*
X205938100Y-76368600D01*
X207904100Y-81314600D02*
X205938100Y-81314600D01*
X205938100Y-76368600D02*
X207904100Y-76368600D01*
X207904100Y-76368600D02*
X207904100Y-81314600D01*
%TO.C,R178*%
X199014100Y-96609100D02*
X199014100Y-99555100D01*
X197048100Y-96609100D02*
X199014100Y-96609100D01*
X199014100Y-99555100D02*
X197048100Y-99555100D01*
X197048100Y-99555100D02*
X197048100Y-96609100D01*
%TO.C,R92*%
X92908100Y-144386100D02*
X92908100Y-141440100D01*
X94874100Y-144386100D02*
X92908100Y-144386100D01*
X92908100Y-141440100D02*
X94874100Y-141440100D01*
X94874100Y-141440100D02*
X94874100Y-144386100D01*
%TO.C,C41*%
X175646100Y-170348600D02*
X175646100Y-175294600D01*
X173680100Y-170348600D02*
X175646100Y-170348600D01*
X175646100Y-175294600D02*
X173680100Y-175294600D01*
X173680100Y-175294600D02*
X173680100Y-170348600D01*
%TO.C,R110*%
X161742100Y-132638600D02*
X161742100Y-129692600D01*
X163708100Y-132638600D02*
X161742100Y-132638600D01*
X161742100Y-129692600D02*
X163708100Y-129692600D01*
X163708100Y-129692600D02*
X163708100Y-132638600D01*
%TO.C,R143*%
X178186100Y-117437100D02*
X178186100Y-120383100D01*
X176220100Y-117437100D02*
X178186100Y-117437100D01*
X178186100Y-120383100D02*
X176220100Y-120383100D01*
X176220100Y-120383100D02*
X176220100Y-117437100D01*
%TO.C,C76*%
X90368100Y-143798600D02*
X90368100Y-138852600D01*
X92334100Y-143798600D02*
X90368100Y-143798600D01*
X90368100Y-138852600D02*
X92334100Y-138852600D01*
X92334100Y-138852600D02*
X92334100Y-143798600D01*
%TO.C,C176*%
X111196100Y-60486600D02*
X111196100Y-55540600D01*
X113162100Y-60486600D02*
X111196100Y-60486600D01*
X111196100Y-55540600D02*
X113162100Y-55540600D01*
X113162100Y-55540600D02*
X113162100Y-60486600D01*
%TO.C,R206*%
X197440400Y-83634600D02*
X194494400Y-83634600D01*
X197440400Y-81668600D02*
X197440400Y-83634600D01*
X194494400Y-83634600D02*
X194494400Y-81668600D01*
X194494400Y-81668600D02*
X197440400Y-81668600D01*
%TO.C,C96*%
X194508100Y-143798600D02*
X194508100Y-138852600D01*
X196474100Y-143798600D02*
X194508100Y-143798600D01*
X194508100Y-138852600D02*
X196474100Y-138852600D01*
X196474100Y-138852600D02*
X196474100Y-143798600D01*
%TO.C,R155*%
X99258100Y-90982600D02*
X99258100Y-88036600D01*
X101224100Y-90982600D02*
X99258100Y-90982600D01*
X99258100Y-88036600D02*
X101224100Y-88036600D01*
X101224100Y-88036600D02*
X101224100Y-90982600D01*
%TO.C,R14*%
X142880100Y-202336600D02*
X142880100Y-205282600D01*
X140914100Y-202336600D02*
X142880100Y-202336600D01*
X142880100Y-205282600D02*
X140914100Y-205282600D01*
X140914100Y-205282600D02*
X140914100Y-202336600D01*
%TO.C,C33*%
X133990100Y-170348600D02*
X133990100Y-175294600D01*
X132024100Y-170348600D02*
X133990100Y-170348600D01*
X133990100Y-175294600D02*
X132024100Y-175294600D01*
X132024100Y-175294600D02*
X132024100Y-170348600D01*
%TO.C,C201*%
X133990100Y-24552600D02*
X133990100Y-29498600D01*
X132024100Y-24552600D02*
X133990100Y-24552600D01*
X133990100Y-29498600D02*
X132024100Y-29498600D01*
X132024100Y-29498600D02*
X132024100Y-24552600D01*
%TO.C,R252*%
X134564100Y-40246100D02*
X134564100Y-37300100D01*
X136530100Y-40246100D02*
X134564100Y-40246100D01*
X134564100Y-37300100D02*
X136530100Y-37300100D01*
X136530100Y-37300100D02*
X136530100Y-40246100D01*
%TO.C,C39*%
X166248100Y-170348600D02*
X166248100Y-175294600D01*
X164282100Y-170348600D02*
X166248100Y-170348600D01*
X166248100Y-175294600D02*
X164282100Y-175294600D01*
X164282100Y-175294600D02*
X164282100Y-170348600D01*
%TO.C,C196*%
X90368100Y-39658600D02*
X90368100Y-34712600D01*
X92334100Y-39658600D02*
X90368100Y-39658600D01*
X90368100Y-34712600D02*
X92334100Y-34712600D01*
X92334100Y-34712600D02*
X92334100Y-39658600D01*
%TO.C,C48*%
X194508100Y-185454600D02*
X194508100Y-180508600D01*
X196474100Y-185454600D02*
X194508100Y-185454600D01*
X194508100Y-180508600D02*
X196474100Y-180508600D01*
X196474100Y-180508600D02*
X196474100Y-185454600D01*
%TO.C,C232*%
X152852100Y-18830600D02*
X152852100Y-13884600D01*
X154818100Y-18830600D02*
X152852100Y-18830600D01*
X152852100Y-13884600D02*
X154818100Y-13884600D01*
X154818100Y-13884600D02*
X154818100Y-18830600D01*
%TO.C,R266*%
X197440400Y-41978600D02*
X194494400Y-41978600D01*
X197440400Y-40012600D02*
X197440400Y-41978600D01*
X194494400Y-41978600D02*
X194494400Y-40012600D01*
X194494400Y-40012600D02*
X197440400Y-40012600D01*
%TO.C,C116*%
X173680100Y-122970600D02*
X173680100Y-118024600D01*
X175646100Y-122970600D02*
X173680100Y-122970600D01*
X173680100Y-118024600D02*
X175646100Y-118024600D01*
X175646100Y-118024600D02*
X175646100Y-122970600D01*
%TO.C,R117*%
X197048100Y-144386100D02*
X197048100Y-141440100D01*
X199014100Y-144386100D02*
X197048100Y-144386100D01*
X197048100Y-141440100D02*
X199014100Y-141440100D01*
X199014100Y-141440100D02*
X199014100Y-144386100D01*
%TO.C,C194*%
X101798100Y-39658600D02*
X101798100Y-34712600D01*
X103764100Y-39658600D02*
X101798100Y-39658600D01*
X101798100Y-34712600D02*
X103764100Y-34712600D01*
X103764100Y-34712600D02*
X103764100Y-39658600D01*
%TO.C,R194*%
X142880100Y-77368600D02*
X142880100Y-80314600D01*
X140914100Y-77368600D02*
X142880100Y-77368600D01*
X142880100Y-80314600D02*
X140914100Y-80314600D01*
X140914100Y-80314600D02*
X140914100Y-77368600D01*
%TO.C,R253*%
X136530100Y-34125100D02*
X136530100Y-37071100D01*
X134564100Y-34125100D02*
X136530100Y-34125100D01*
X136530100Y-37071100D02*
X134564100Y-37071100D01*
X134564100Y-37071100D02*
X134564100Y-34125100D01*
%TO.C,C163*%
X187076100Y-66208600D02*
X187076100Y-71154600D01*
X185110100Y-66208600D02*
X187076100Y-66208600D01*
X187076100Y-71154600D02*
X185110100Y-71154600D01*
X185110100Y-71154600D02*
X185110100Y-66208600D01*
%TO.C,C134*%
X164282100Y-102142600D02*
X164282100Y-97196600D01*
X166248100Y-102142600D02*
X164282100Y-102142600D01*
X164282100Y-97196600D02*
X166248100Y-97196600D01*
X166248100Y-97196600D02*
X166248100Y-102142600D01*
%TO.C,C149*%
X113162100Y-66208600D02*
X113162100Y-71154600D01*
X111196100Y-66208600D02*
X113162100Y-66208600D01*
X113162100Y-71154600D02*
X111196100Y-71154600D01*
X111196100Y-71154600D02*
X111196100Y-66208600D01*
%TO.C,C45*%
X196474100Y-170348600D02*
X196474100Y-175294600D01*
X194508100Y-170348600D02*
X196474100Y-170348600D01*
X196474100Y-175294600D02*
X194508100Y-175294600D01*
X194508100Y-175294600D02*
X194508100Y-170348600D01*
%TO.C,C130*%
X143454100Y-102142600D02*
X143454100Y-97196600D01*
X145420100Y-102142600D02*
X143454100Y-102142600D01*
X143454100Y-97196600D02*
X145420100Y-97196600D01*
X145420100Y-97196600D02*
X145420100Y-102142600D01*
%TO.C,C3*%
X103764100Y-191176600D02*
X103764100Y-196122600D01*
X101798100Y-191176600D02*
X103764100Y-191176600D01*
X103764100Y-196122600D02*
X101798100Y-196122600D01*
X101798100Y-196122600D02*
X101798100Y-191176600D01*
%TO.C,R39*%
X122052100Y-181508600D02*
X122052100Y-184454600D01*
X120086100Y-181508600D02*
X122052100Y-181508600D01*
X122052100Y-184454600D02*
X120086100Y-184454600D01*
X120086100Y-184454600D02*
X120086100Y-181508600D01*
%TO.C,R13*%
X136530100Y-200749100D02*
X136530100Y-203695100D01*
X134564100Y-200749100D02*
X136530100Y-200749100D01*
X136530100Y-203695100D02*
X134564100Y-203695100D01*
X134564100Y-203695100D02*
X134564100Y-200749100D01*
%TO.C,C162*%
X185110100Y-81314600D02*
X185110100Y-76368600D01*
X187076100Y-81314600D02*
X185110100Y-81314600D01*
X185110100Y-76368600D02*
X187076100Y-76368600D01*
X187076100Y-76368600D02*
X187076100Y-81314600D01*
%TO.C,C92*%
X173680100Y-143798600D02*
X173680100Y-138852600D01*
X175646100Y-143798600D02*
X173680100Y-143798600D01*
X173680100Y-138852600D02*
X175646100Y-138852600D01*
X175646100Y-138852600D02*
X175646100Y-143798600D01*
%TO.C,R145*%
X182570100Y-111810600D02*
X182570100Y-108864600D01*
X184536100Y-111810600D02*
X182570100Y-111810600D01*
X182570100Y-108864600D02*
X184536100Y-108864600D01*
X184536100Y-108864600D02*
X184536100Y-111810600D01*
%TO.C,R148*%
X199014100Y-117437100D02*
X199014100Y-120383100D01*
X197048100Y-117437100D02*
X199014100Y-117437100D01*
X199014100Y-120383100D02*
X197048100Y-120383100D01*
X197048100Y-120383100D02*
X197048100Y-117437100D01*
%TO.C,C54*%
X122626100Y-164626600D02*
X122626100Y-159680600D01*
X124592100Y-164626600D02*
X122626100Y-164626600D01*
X122626100Y-159680600D02*
X124592100Y-159680600D01*
X124592100Y-159680600D02*
X124592100Y-164626600D01*
%TO.C,R52*%
X176220100Y-186042100D02*
X176220100Y-183096100D01*
X178186100Y-186042100D02*
X176220100Y-186042100D01*
X176220100Y-183096100D02*
X178186100Y-183096100D01*
X178186100Y-183096100D02*
X178186100Y-186042100D01*
%TO.C,R276*%
X114128400Y-21150600D02*
X111182400Y-21150600D01*
X114128400Y-19184600D02*
X114128400Y-21150600D01*
X111182400Y-21150600D02*
X111182400Y-19184600D01*
X111182400Y-19184600D02*
X114128400Y-19184600D01*
%TO.C,C83*%
X145420100Y-128692600D02*
X145420100Y-133638600D01*
X143454100Y-128692600D02*
X145420100Y-128692600D01*
X145420100Y-133638600D02*
X143454100Y-133638600D01*
X143454100Y-133638600D02*
X143454100Y-128692600D01*
%TO.C,C73*%
X92334100Y-128692600D02*
X92334100Y-133638600D01*
X90368100Y-128692600D02*
X92334100Y-128692600D01*
X92334100Y-133638600D02*
X90368100Y-133638600D01*
X90368100Y-133638600D02*
X90368100Y-128692600D01*
%TO.C,R27*%
X197048100Y-206870100D02*
X197048100Y-203924100D01*
X199014100Y-206870100D02*
X197048100Y-206870100D01*
X197048100Y-203924100D02*
X199014100Y-203924100D01*
X199014100Y-203924100D02*
X199014100Y-206870100D01*
%TO.C,C137*%
X175646100Y-87036600D02*
X175646100Y-91982600D01*
X173680100Y-87036600D02*
X175646100Y-87036600D01*
X175646100Y-91982600D02*
X173680100Y-91982600D01*
X173680100Y-91982600D02*
X173680100Y-87036600D01*
%TO.C,C239*%
X207904100Y-3724600D02*
X207904100Y-8670600D01*
X205938100Y-3724600D02*
X207904100Y-3724600D01*
X207904100Y-8670600D02*
X205938100Y-8670600D01*
X205938100Y-8670600D02*
X205938100Y-3724600D01*
%TO.C,C69*%
X196474100Y-149520600D02*
X196474100Y-154466600D01*
X194508100Y-149520600D02*
X196474100Y-149520600D01*
X196474100Y-154466600D02*
X194508100Y-154466600D01*
X194508100Y-154466600D02*
X194508100Y-149520600D01*
%TO.C,R119*%
X205364100Y-139852600D02*
X205364100Y-142798600D01*
X203398100Y-139852600D02*
X205364100Y-139852600D01*
X205364100Y-142798600D02*
X203398100Y-142798600D01*
X203398100Y-142798600D02*
X203398100Y-139852600D01*
%TO.C,C200*%
X111196100Y-39658600D02*
X111196100Y-34712600D01*
X113162100Y-39658600D02*
X111196100Y-39658600D01*
X111196100Y-34712600D02*
X113162100Y-34712600D01*
X113162100Y-34712600D02*
X113162100Y-39658600D01*
%TO.C,C199*%
X124592100Y-24552600D02*
X124592100Y-29498600D01*
X122626100Y-24552600D02*
X124592100Y-24552600D01*
X124592100Y-29498600D02*
X122626100Y-29498600D01*
X122626100Y-29498600D02*
X122626100Y-24552600D01*
%TO.C,R114*%
X184536100Y-139852600D02*
X184536100Y-142798600D01*
X182570100Y-139852600D02*
X184536100Y-139852600D01*
X184536100Y-142798600D02*
X182570100Y-142798600D01*
X182570100Y-142798600D02*
X182570100Y-139852600D01*
%TO.C,C38*%
X164282100Y-185454600D02*
X164282100Y-180508600D01*
X166248100Y-185454600D02*
X164282100Y-185454600D01*
X164282100Y-180508600D02*
X166248100Y-180508600D01*
X166248100Y-180508600D02*
X166248100Y-185454600D01*
%TO.C,C46*%
X205938100Y-185454600D02*
X205938100Y-180508600D01*
X207904100Y-185454600D02*
X205938100Y-185454600D01*
X205938100Y-180508600D02*
X207904100Y-180508600D01*
X207904100Y-180508600D02*
X207904100Y-185454600D01*
%TO.C,R213*%
X94874100Y-54953100D02*
X94874100Y-57899100D01*
X92908100Y-54953100D02*
X94874100Y-54953100D01*
X94874100Y-57899100D02*
X92908100Y-57899100D01*
X92908100Y-57899100D02*
X92908100Y-54953100D01*
%TO.C,R109*%
X163708100Y-139852600D02*
X163708100Y-142798600D01*
X161742100Y-139852600D02*
X163708100Y-139852600D01*
X163708100Y-142798600D02*
X161742100Y-142798600D01*
X161742100Y-142798600D02*
X161742100Y-139852600D01*
%TO.C,R141*%
X176612400Y-125290600D02*
X173666400Y-125290600D01*
X176612400Y-123324600D02*
X176612400Y-125290600D01*
X173666400Y-125290600D02*
X173666400Y-123324600D01*
X173666400Y-123324600D02*
X176612400Y-123324600D01*
%TO.C,C124*%
X90368100Y-102142600D02*
X90368100Y-97196600D01*
X92334100Y-102142600D02*
X90368100Y-102142600D01*
X90368100Y-97196600D02*
X92334100Y-97196600D01*
X92334100Y-97196600D02*
X92334100Y-102142600D01*
%TO.C,R198*%
X157358100Y-75781100D02*
X157358100Y-78727100D01*
X155392100Y-75781100D02*
X157358100Y-75781100D01*
X157358100Y-78727100D02*
X155392100Y-78727100D01*
X155392100Y-78727100D02*
X155392100Y-75781100D01*
%TO.C,C168*%
X194508100Y-81314600D02*
X194508100Y-76368600D01*
X196474100Y-81314600D02*
X194508100Y-81314600D01*
X194508100Y-76368600D02*
X196474100Y-76368600D01*
X196474100Y-76368600D02*
X196474100Y-81314600D01*
%TO.C,C226*%
X143454100Y-18830600D02*
X143454100Y-13884600D01*
X145420100Y-18830600D02*
X143454100Y-18830600D01*
X143454100Y-13884600D02*
X145420100Y-13884600D01*
X145420100Y-13884600D02*
X145420100Y-18830600D01*
%TO.C,C223*%
X124592100Y-3724600D02*
X124592100Y-8670600D01*
X122626100Y-3724600D02*
X124592100Y-3724600D01*
X124592100Y-8670600D02*
X122626100Y-8670600D01*
X122626100Y-8670600D02*
X122626100Y-3724600D01*
%TO.C,R120*%
X203398100Y-132638600D02*
X203398100Y-129692600D01*
X205364100Y-132638600D02*
X203398100Y-132638600D01*
X203398100Y-129692600D02*
X205364100Y-129692600D01*
X205364100Y-129692600D02*
X205364100Y-132638600D01*
%TO.C,R204*%
X184536100Y-77368600D02*
X184536100Y-80314600D01*
X182570100Y-77368600D02*
X184536100Y-77368600D01*
X184536100Y-80314600D02*
X182570100Y-80314600D01*
X182570100Y-80314600D02*
X182570100Y-77368600D01*
%TO.C,C26*%
X101798100Y-185454600D02*
X101798100Y-180508600D01*
X103764100Y-185454600D02*
X101798100Y-185454600D01*
X101798100Y-180508600D02*
X103764100Y-180508600D01*
X103764100Y-180508600D02*
X103764100Y-185454600D01*
%TO.C,R128*%
X115702100Y-117437100D02*
X115702100Y-120383100D01*
X113736100Y-117437100D02*
X115702100Y-117437100D01*
X115702100Y-120383100D02*
X113736100Y-120383100D01*
X113736100Y-120383100D02*
X113736100Y-117437100D01*
%TO.C,C43*%
X187076100Y-170348600D02*
X187076100Y-175294600D01*
X185110100Y-170348600D02*
X187076100Y-170348600D01*
X187076100Y-175294600D02*
X185110100Y-175294600D01*
X185110100Y-175294600D02*
X185110100Y-170348600D01*
%TO.C,C53*%
X113162100Y-149520600D02*
X113162100Y-154466600D01*
X111196100Y-149520600D02*
X113162100Y-149520600D01*
X113162100Y-154466600D02*
X111196100Y-154466600D01*
X111196100Y-154466600D02*
X111196100Y-149520600D01*
%TO.C,C125*%
X113162100Y-87036600D02*
X113162100Y-91982600D01*
X111196100Y-87036600D02*
X113162100Y-87036600D01*
X113162100Y-91982600D02*
X111196100Y-91982600D01*
X111196100Y-91982600D02*
X111196100Y-87036600D01*
%TO.C,R192*%
X134564100Y-81902100D02*
X134564100Y-78956100D01*
X136530100Y-81902100D02*
X134564100Y-81902100D01*
X134564100Y-78956100D02*
X136530100Y-78956100D01*
X136530100Y-78956100D02*
X136530100Y-81902100D01*
%TO.C,C157*%
X154818100Y-66208600D02*
X154818100Y-71154600D01*
X152852100Y-66208600D02*
X154818100Y-66208600D01*
X154818100Y-71154600D02*
X152852100Y-71154600D01*
X152852100Y-71154600D02*
X152852100Y-66208600D01*
%TO.C,R232*%
X176220100Y-61074100D02*
X176220100Y-58128100D01*
X178186100Y-61074100D02*
X176220100Y-61074100D01*
X176220100Y-58128100D02*
X178186100Y-58128100D01*
X178186100Y-58128100D02*
X178186100Y-61074100D01*
%TO.C,C203*%
X145420100Y-24552600D02*
X145420100Y-29498600D01*
X143454100Y-24552600D02*
X145420100Y-24552600D01*
X145420100Y-29498600D02*
X143454100Y-29498600D01*
X143454100Y-29498600D02*
X143454100Y-24552600D01*
%TO.C,C161*%
X175646100Y-66208600D02*
X175646100Y-71154600D01*
X173680100Y-66208600D02*
X175646100Y-66208600D01*
X175646100Y-71154600D02*
X173680100Y-71154600D01*
X173680100Y-71154600D02*
X173680100Y-66208600D01*
%TO.C,C150*%
X122626100Y-81314600D02*
X122626100Y-76368600D01*
X124592100Y-81314600D02*
X122626100Y-81314600D01*
X122626100Y-76368600D02*
X124592100Y-76368600D01*
X124592100Y-76368600D02*
X124592100Y-81314600D01*
%TO.C,C18*%
X185110100Y-206282600D02*
X185110100Y-201336600D01*
X187076100Y-206282600D02*
X185110100Y-206282600D01*
X185110100Y-201336600D02*
X187076100Y-201336600D01*
X187076100Y-201336600D02*
X187076100Y-206282600D01*
%TO.C,C185*%
X175646100Y-45380600D02*
X175646100Y-50326600D01*
X173680100Y-45380600D02*
X175646100Y-45380600D01*
X175646100Y-50326600D02*
X173680100Y-50326600D01*
X173680100Y-50326600D02*
X173680100Y-45380600D01*
%TO.C,R95*%
X99258100Y-132638600D02*
X99258100Y-129692600D01*
X101224100Y-132638600D02*
X99258100Y-132638600D01*
X99258100Y-129692600D02*
X101224100Y-129692600D01*
X101224100Y-129692600D02*
X101224100Y-132638600D01*
%TO.C,R85*%
X182570100Y-153466600D02*
X182570100Y-150520600D01*
X184536100Y-153466600D02*
X182570100Y-153466600D01*
X182570100Y-150520600D02*
X184536100Y-150520600D01*
X184536100Y-150520600D02*
X184536100Y-153466600D01*
%TO.C,R102*%
X134564100Y-144386100D02*
X134564100Y-141440100D01*
X136530100Y-144386100D02*
X134564100Y-144386100D01*
X134564100Y-141440100D02*
X136530100Y-141440100D01*
X136530100Y-141440100D02*
X136530100Y-144386100D01*
%TO.C,R32*%
X92908100Y-186042100D02*
X92908100Y-183096100D01*
X94874100Y-186042100D02*
X92908100Y-186042100D01*
X92908100Y-183096100D02*
X94874100Y-183096100D01*
X94874100Y-183096100D02*
X94874100Y-186042100D01*
%TO.C,C109*%
X154818100Y-107864600D02*
X154818100Y-112810600D01*
X152852100Y-107864600D02*
X154818100Y-107864600D01*
X154818100Y-112810600D02*
X152852100Y-112810600D01*
X152852100Y-112810600D02*
X152852100Y-107864600D01*
%TO.C,C145*%
X92334100Y-66208600D02*
X92334100Y-71154600D01*
X90368100Y-66208600D02*
X92334100Y-66208600D01*
X92334100Y-71154600D02*
X90368100Y-71154600D01*
X90368100Y-71154600D02*
X90368100Y-66208600D01*
%TO.C,C217*%
X92334100Y-3724600D02*
X92334100Y-8670600D01*
X90368100Y-3724600D02*
X92334100Y-3724600D01*
X92334100Y-8670600D02*
X90368100Y-8670600D01*
X90368100Y-8670600D02*
X90368100Y-3724600D01*
%TO.C,R172*%
X176220100Y-102730100D02*
X176220100Y-99784100D01*
X178186100Y-102730100D02*
X176220100Y-102730100D01*
X176220100Y-99784100D02*
X178186100Y-99784100D01*
X178186100Y-99784100D02*
X178186100Y-102730100D01*
%TO.C,R156*%
X114128400Y-104462600D02*
X111182400Y-104462600D01*
X114128400Y-102496600D02*
X114128400Y-104462600D01*
X111182400Y-104462600D02*
X111182400Y-102496600D01*
X111182400Y-102496600D02*
X114128400Y-102496600D01*
%TO.C,C10*%
X143454100Y-206282600D02*
X143454100Y-201336600D01*
X145420100Y-206282600D02*
X143454100Y-206282600D01*
X143454100Y-201336600D02*
X145420100Y-201336600D01*
X145420100Y-201336600D02*
X145420100Y-206282600D01*
%TO.C,C191*%
X207904100Y-45380600D02*
X207904100Y-50326600D01*
X205938100Y-45380600D02*
X207904100Y-45380600D01*
X207904100Y-50326600D02*
X205938100Y-50326600D01*
X205938100Y-50326600D02*
X205938100Y-45380600D01*
%TO.C,C177*%
X133990100Y-45380600D02*
X133990100Y-50326600D01*
X132024100Y-45380600D02*
X133990100Y-45380600D01*
X133990100Y-50326600D02*
X132024100Y-50326600D01*
X132024100Y-50326600D02*
X132024100Y-45380600D01*
%TO.C,R76*%
X155784400Y-166946600D02*
X152838400Y-166946600D01*
X155784400Y-164980600D02*
X155784400Y-166946600D01*
X152838400Y-166946600D02*
X152838400Y-164980600D01*
X152838400Y-164980600D02*
X155784400Y-164980600D01*
%TO.C,R50*%
X161742100Y-174294600D02*
X161742100Y-171348600D01*
X163708100Y-174294600D02*
X161742100Y-174294600D01*
X161742100Y-171348600D02*
X163708100Y-171348600D01*
X163708100Y-171348600D02*
X163708100Y-174294600D01*
%TO.C,C202*%
X143454100Y-39658600D02*
X143454100Y-34712600D01*
X145420100Y-39658600D02*
X143454100Y-39658600D01*
X143454100Y-34712600D02*
X145420100Y-34712600D01*
X145420100Y-34712600D02*
X145420100Y-39658600D01*
%TO.C,C5*%
X113162100Y-191176600D02*
X113162100Y-196122600D01*
X111196100Y-191176600D02*
X113162100Y-191176600D01*
X113162100Y-196122600D02*
X111196100Y-196122600D01*
X111196100Y-196122600D02*
X111196100Y-191176600D01*
%TO.C,C47*%
X207904100Y-170348600D02*
X207904100Y-175294600D01*
X205938100Y-170348600D02*
X207904100Y-170348600D01*
X207904100Y-175294600D02*
X205938100Y-175294600D01*
X205938100Y-175294600D02*
X205938100Y-170348600D01*
%TO.C,R144*%
X184536100Y-119024600D02*
X184536100Y-121970600D01*
X182570100Y-119024600D02*
X184536100Y-119024600D01*
X184536100Y-121970600D02*
X182570100Y-121970600D01*
X182570100Y-121970600D02*
X182570100Y-119024600D01*
%TO.C,R112*%
X176220100Y-144386100D02*
X176220100Y-141440100D01*
X178186100Y-144386100D02*
X176220100Y-144386100D01*
X176220100Y-141440100D02*
X178186100Y-141440100D01*
X178186100Y-141440100D02*
X178186100Y-144386100D01*
%TO.C,R180*%
X203398100Y-90982600D02*
X203398100Y-88036600D01*
X205364100Y-90982600D02*
X203398100Y-90982600D01*
X203398100Y-88036600D02*
X205364100Y-88036600D01*
X205364100Y-88036600D02*
X205364100Y-90982600D01*
%TO.C,C19*%
X187076100Y-191176600D02*
X187076100Y-196122600D01*
X185110100Y-191176600D02*
X187076100Y-191176600D01*
X187076100Y-196122600D02*
X185110100Y-196122600D01*
X185110100Y-196122600D02*
X185110100Y-191176600D01*
%TO.C,R226*%
X155784400Y-62806600D02*
X152838400Y-62806600D01*
X155784400Y-60840600D02*
X155784400Y-62806600D01*
X152838400Y-62806600D02*
X152838400Y-60840600D01*
X152838400Y-60840600D02*
X155784400Y-60840600D01*
%TO.C,C171*%
X103764100Y-45380600D02*
X103764100Y-50326600D01*
X101798100Y-45380600D02*
X103764100Y-45380600D01*
X103764100Y-50326600D02*
X101798100Y-50326600D01*
X101798100Y-50326600D02*
X101798100Y-45380600D01*
%TO.C,R296*%
X197440400Y-21150600D02*
X194494400Y-21150600D01*
X197440400Y-19184600D02*
X197440400Y-21150600D01*
X194494400Y-21150600D02*
X194494400Y-19184600D01*
X194494400Y-19184600D02*
X197440400Y-19184600D01*
%TO.C,R233*%
X178186100Y-54953100D02*
X178186100Y-57899100D01*
X176220100Y-54953100D02*
X178186100Y-54953100D01*
X178186100Y-57899100D02*
X176220100Y-57899100D01*
X176220100Y-57899100D02*
X176220100Y-54953100D01*
%TO.C,C219*%
X103764100Y-3724600D02*
X103764100Y-8670600D01*
X101798100Y-3724600D02*
X103764100Y-3724600D01*
X103764100Y-8670600D02*
X101798100Y-8670600D01*
X101798100Y-8670600D02*
X101798100Y-3724600D01*
%TO.C,R203*%
X178186100Y-75781100D02*
X178186100Y-78727100D01*
X176220100Y-75781100D02*
X178186100Y-75781100D01*
X178186100Y-78727100D02*
X176220100Y-78727100D01*
X176220100Y-78727100D02*
X176220100Y-75781100D01*
%TO.C,C108*%
X132024100Y-122970600D02*
X132024100Y-118024600D01*
X133990100Y-122970600D02*
X132024100Y-122970600D01*
X132024100Y-118024600D02*
X133990100Y-118024600D01*
X133990100Y-118024600D02*
X133990100Y-122970600D01*
%TO.C,R79*%
X163708100Y-160680600D02*
X163708100Y-163626600D01*
X161742100Y-160680600D02*
X163708100Y-160680600D01*
X163708100Y-163626600D02*
X161742100Y-163626600D01*
X161742100Y-163626600D02*
X161742100Y-160680600D01*
%TO.C,C105*%
X133990100Y-107864600D02*
X133990100Y-112810600D01*
X132024100Y-107864600D02*
X133990100Y-107864600D01*
X133990100Y-112810600D02*
X132024100Y-112810600D01*
X132024100Y-112810600D02*
X132024100Y-107864600D01*
%TO.C,C42*%
X185110100Y-185454600D02*
X185110100Y-180508600D01*
X187076100Y-185454600D02*
X185110100Y-185454600D01*
X185110100Y-180508600D02*
X187076100Y-180508600D01*
X187076100Y-180508600D02*
X187076100Y-185454600D01*
%TO.C,R65*%
X99258100Y-153466600D02*
X99258100Y-150520600D01*
X101224100Y-153466600D02*
X99258100Y-153466600D01*
X99258100Y-150520600D02*
X101224100Y-150520600D01*
X101224100Y-150520600D02*
X101224100Y-153466600D01*
%TO.C,R241*%
X93300400Y-41978600D02*
X90354400Y-41978600D01*
X93300400Y-40012600D02*
X93300400Y-41978600D01*
X90354400Y-41978600D02*
X90354400Y-40012600D01*
X90354400Y-40012600D02*
X93300400Y-40012600D01*
%TO.C,R16*%
X155784400Y-208602600D02*
X152838400Y-208602600D01*
X155784400Y-206636600D02*
X155784400Y-208602600D01*
X152838400Y-208602600D02*
X152838400Y-206636600D01*
X152838400Y-206636600D02*
X155784400Y-206636600D01*
%TO.C,R224*%
X142880100Y-56540600D02*
X142880100Y-59486600D01*
X140914100Y-56540600D02*
X142880100Y-56540600D01*
X142880100Y-59486600D02*
X140914100Y-59486600D01*
X140914100Y-59486600D02*
X140914100Y-56540600D01*
%TO.C,R225*%
X140914100Y-49326600D02*
X140914100Y-46380600D01*
X142880100Y-49326600D02*
X140914100Y-49326600D01*
X140914100Y-46380600D02*
X142880100Y-46380600D01*
X142880100Y-46380600D02*
X142880100Y-49326600D01*
%TO.C,R40*%
X120086100Y-174294600D02*
X120086100Y-171348600D01*
X122052100Y-174294600D02*
X120086100Y-174294600D01*
X120086100Y-171348600D02*
X122052100Y-171348600D01*
X122052100Y-171348600D02*
X122052100Y-174294600D01*
%TO.C,R80*%
X161742100Y-153466600D02*
X161742100Y-150520600D01*
X163708100Y-153466600D02*
X161742100Y-153466600D01*
X161742100Y-150520600D02*
X163708100Y-150520600D01*
X163708100Y-150520600D02*
X163708100Y-153466600D01*
%TO.C,C127*%
X124592100Y-87036600D02*
X124592100Y-91982600D01*
X122626100Y-87036600D02*
X124592100Y-87036600D01*
X124592100Y-91982600D02*
X122626100Y-91982600D01*
X122626100Y-91982600D02*
X122626100Y-87036600D01*
%TO.C,R251*%
X134956400Y-41978600D02*
X132010400Y-41978600D01*
X134956400Y-40012600D02*
X134956400Y-41978600D01*
X132010400Y-41978600D02*
X132010400Y-40012600D01*
X132010400Y-40012600D02*
X134956400Y-40012600D01*
%TO.C,R272*%
X92908100Y-19418100D02*
X92908100Y-16472100D01*
X94874100Y-19418100D02*
X92908100Y-19418100D01*
X92908100Y-16472100D02*
X94874100Y-16472100D01*
X94874100Y-16472100D02*
X94874100Y-19418100D01*
%TO.C,C36*%
X132024100Y-185454600D02*
X132024100Y-180508600D01*
X133990100Y-185454600D02*
X132024100Y-185454600D01*
X132024100Y-180508600D02*
X133990100Y-180508600D01*
X133990100Y-180508600D02*
X133990100Y-185454600D01*
%TO.C,C74*%
X101798100Y-143798600D02*
X101798100Y-138852600D01*
X103764100Y-143798600D02*
X101798100Y-143798600D01*
X101798100Y-138852600D02*
X103764100Y-138852600D01*
X103764100Y-138852600D02*
X103764100Y-143798600D01*
%TO.C,C224*%
X111196100Y-18830600D02*
X111196100Y-13884600D01*
X113162100Y-18830600D02*
X111196100Y-18830600D01*
X111196100Y-13884600D02*
X113162100Y-13884600D01*
X113162100Y-13884600D02*
X113162100Y-18830600D01*
%TO.C,R104*%
X142880100Y-139852600D02*
X142880100Y-142798600D01*
X140914100Y-139852600D02*
X142880100Y-139852600D01*
X142880100Y-142798600D02*
X140914100Y-142798600D01*
X140914100Y-142798600D02*
X140914100Y-139852600D01*
%TO.C,R84*%
X184536100Y-160680600D02*
X184536100Y-163626600D01*
X182570100Y-160680600D02*
X184536100Y-160680600D01*
X184536100Y-163626600D02*
X182570100Y-163626600D01*
X182570100Y-163626600D02*
X182570100Y-160680600D01*
%TO.C,R78*%
X157358100Y-159093100D02*
X157358100Y-162039100D01*
X155392100Y-159093100D02*
X157358100Y-159093100D01*
X157358100Y-162039100D02*
X155392100Y-162039100D01*
X155392100Y-162039100D02*
X155392100Y-159093100D01*
%TO.C,R3*%
X92908100Y-206870100D02*
X92908100Y-203924100D01*
X94874100Y-206870100D02*
X92908100Y-206870100D01*
X92908100Y-203924100D02*
X94874100Y-203924100D01*
X94874100Y-203924100D02*
X94874100Y-206870100D01*
%TO.C,C138*%
X185110100Y-102142600D02*
X185110100Y-97196600D01*
X187076100Y-102142600D02*
X185110100Y-102142600D01*
X185110100Y-97196600D02*
X187076100Y-97196600D01*
X187076100Y-97196600D02*
X187076100Y-102142600D01*
%TO.C,R48*%
X157358100Y-179921100D02*
X157358100Y-182867100D01*
X155392100Y-179921100D02*
X157358100Y-179921100D01*
X157358100Y-182867100D02*
X155392100Y-182867100D01*
X155392100Y-182867100D02*
X155392100Y-179921100D01*
%TO.C,R36*%
X114128400Y-187774600D02*
X111182400Y-187774600D01*
X114128400Y-185808600D02*
X114128400Y-187774600D01*
X111182400Y-187774600D02*
X111182400Y-185808600D01*
X111182400Y-185808600D02*
X114128400Y-185808600D01*
%TO.C,R136*%
X155784400Y-125290600D02*
X152838400Y-125290600D01*
X155784400Y-123324600D02*
X155784400Y-125290600D01*
X152838400Y-125290600D02*
X152838400Y-123324600D01*
X152838400Y-123324600D02*
X155784400Y-123324600D01*
%TO.C,C55*%
X124592100Y-149520600D02*
X124592100Y-154466600D01*
X122626100Y-149520600D02*
X124592100Y-149520600D01*
X124592100Y-154466600D02*
X122626100Y-154466600D01*
X122626100Y-154466600D02*
X122626100Y-149520600D01*
%TO.C,C182*%
X164282100Y-60486600D02*
X164282100Y-55540600D01*
X166248100Y-60486600D02*
X164282100Y-60486600D01*
X164282100Y-55540600D02*
X166248100Y-55540600D01*
X166248100Y-55540600D02*
X166248100Y-60486600D01*
%TO.C,C66*%
X185110100Y-164626600D02*
X185110100Y-159680600D01*
X187076100Y-164626600D02*
X185110100Y-164626600D01*
X185110100Y-159680600D02*
X187076100Y-159680600D01*
X187076100Y-159680600D02*
X187076100Y-164626600D01*
%TO.C,R21*%
X176612400Y-208602600D02*
X173666400Y-208602600D01*
X176612400Y-206636600D02*
X176612400Y-208602600D01*
X173666400Y-208602600D02*
X173666400Y-206636600D01*
X173666400Y-206636600D02*
X176612400Y-206636600D01*
%TO.C,R157*%
X113736100Y-102730100D02*
X113736100Y-99784100D01*
X115702100Y-102730100D02*
X113736100Y-102730100D01*
X113736100Y-99784100D02*
X115702100Y-99784100D01*
X115702100Y-99784100D02*
X115702100Y-102730100D01*
%TO.C,C165*%
X196474100Y-66208600D02*
X196474100Y-71154600D01*
X194508100Y-66208600D02*
X196474100Y-66208600D01*
X196474100Y-71154600D02*
X194508100Y-71154600D01*
X194508100Y-71154600D02*
X194508100Y-66208600D01*
%TO.C,C100*%
X90368100Y-122970600D02*
X90368100Y-118024600D01*
X92334100Y-122970600D02*
X90368100Y-122970600D01*
X90368100Y-118024600D02*
X92334100Y-118024600D01*
X92334100Y-118024600D02*
X92334100Y-122970600D01*
%TO.C,C206*%
X164282100Y-39658600D02*
X164282100Y-34712600D01*
X166248100Y-39658600D02*
X164282100Y-39658600D01*
X164282100Y-34712600D02*
X166248100Y-34712600D01*
X166248100Y-34712600D02*
X166248100Y-39658600D01*
%TO.C,R116*%
X197440400Y-146118600D02*
X194494400Y-146118600D01*
X197440400Y-144152600D02*
X197440400Y-146118600D01*
X194494400Y-146118600D02*
X194494400Y-144152600D01*
X194494400Y-144152600D02*
X197440400Y-144152600D01*
%TO.C,R285*%
X140914100Y-7670600D02*
X140914100Y-4724600D01*
X142880100Y-7670600D02*
X140914100Y-7670600D01*
X140914100Y-4724600D02*
X142880100Y-4724600D01*
X142880100Y-4724600D02*
X142880100Y-7670600D01*
%TO.C,R134*%
X142880100Y-119024600D02*
X142880100Y-121970600D01*
X140914100Y-119024600D02*
X142880100Y-119024600D01*
X142880100Y-121970600D02*
X140914100Y-121970600D01*
X140914100Y-121970600D02*
X140914100Y-119024600D01*
%TO.C,R175*%
X182570100Y-90982600D02*
X182570100Y-88036600D01*
X184536100Y-90982600D02*
X182570100Y-90982600D01*
X182570100Y-88036600D02*
X184536100Y-88036600D01*
X184536100Y-88036600D02*
X184536100Y-90982600D01*
%TO.C,C195*%
X103764100Y-24552600D02*
X103764100Y-29498600D01*
X101798100Y-24552600D02*
X103764100Y-24552600D01*
X103764100Y-29498600D02*
X101798100Y-29498600D01*
X101798100Y-29498600D02*
X101798100Y-24552600D01*
%TO.C,R231*%
X176612400Y-62806600D02*
X173666400Y-62806600D01*
X176612400Y-60840600D02*
X176612400Y-62806600D01*
X173666400Y-62806600D02*
X173666400Y-60840600D01*
X173666400Y-60840600D02*
X176612400Y-60840600D01*
%TO.C,C207*%
X166248100Y-24552600D02*
X166248100Y-29498600D01*
X164282100Y-24552600D02*
X166248100Y-24552600D01*
X166248100Y-29498600D02*
X164282100Y-29498600D01*
X164282100Y-29498600D02*
X164282100Y-24552600D01*
%TO.C,C1*%
X92334100Y-191176600D02*
X92334100Y-196122600D01*
X90368100Y-191176600D02*
X92334100Y-191176600D01*
X92334100Y-196122600D02*
X90368100Y-196122600D01*
X90368100Y-196122600D02*
X90368100Y-191176600D01*
%TO.C,R2*%
X99258100Y-195122600D02*
X99258100Y-192176600D01*
X101224100Y-195122600D02*
X99258100Y-195122600D01*
X99258100Y-192176600D02*
X101224100Y-192176600D01*
X101224100Y-192176600D02*
X101224100Y-195122600D01*
%TO.C,R87*%
X197048100Y-165214100D02*
X197048100Y-162268100D01*
X199014100Y-165214100D02*
X197048100Y-165214100D01*
X197048100Y-162268100D02*
X199014100Y-162268100D01*
X199014100Y-162268100D02*
X199014100Y-165214100D01*
%TO.C,C6*%
X122626100Y-206282600D02*
X122626100Y-201336600D01*
X124592100Y-206282600D02*
X122626100Y-206282600D01*
X122626100Y-201336600D02*
X124592100Y-201336600D01*
X124592100Y-201336600D02*
X124592100Y-206282600D01*
%TO.C,C132*%
X132024100Y-102142600D02*
X132024100Y-97196600D01*
X133990100Y-102142600D02*
X132024100Y-102142600D01*
X132024100Y-97196600D02*
X133990100Y-97196600D01*
X133990100Y-97196600D02*
X133990100Y-102142600D01*
%TO.C,R42*%
X134564100Y-186042100D02*
X134564100Y-183096100D01*
X136530100Y-186042100D02*
X134564100Y-186042100D01*
X134564100Y-183096100D02*
X136530100Y-183096100D01*
X136530100Y-183096100D02*
X136530100Y-186042100D01*
%TO.C,R130*%
X120086100Y-111810600D02*
X120086100Y-108864600D01*
X122052100Y-111810600D02*
X120086100Y-111810600D01*
X120086100Y-108864600D02*
X122052100Y-108864600D01*
X122052100Y-108864600D02*
X122052100Y-111810600D01*
%TO.C,R297*%
X197048100Y-19418100D02*
X197048100Y-16472100D01*
X199014100Y-19418100D02*
X197048100Y-19418100D01*
X197048100Y-16472100D02*
X199014100Y-16472100D01*
X199014100Y-16472100D02*
X199014100Y-19418100D01*
%TO.C,R236*%
X197440400Y-62806600D02*
X194494400Y-62806600D01*
X197440400Y-60840600D02*
X197440400Y-62806600D01*
X194494400Y-62806600D02*
X194494400Y-60840600D01*
X194494400Y-60840600D02*
X197440400Y-60840600D01*
%TO.C,R100*%
X120086100Y-132638600D02*
X120086100Y-129692600D01*
X122052100Y-132638600D02*
X120086100Y-132638600D01*
X120086100Y-129692600D02*
X122052100Y-129692600D01*
X122052100Y-129692600D02*
X122052100Y-132638600D01*
%TO.C,C222*%
X122626100Y-18830600D02*
X122626100Y-13884600D01*
X124592100Y-18830600D02*
X122626100Y-18830600D01*
X122626100Y-13884600D02*
X124592100Y-13884600D01*
X124592100Y-13884600D02*
X124592100Y-18830600D01*
%TO.C,C167*%
X207904100Y-66208600D02*
X207904100Y-71154600D01*
X205938100Y-66208600D02*
X207904100Y-66208600D01*
X207904100Y-71154600D02*
X205938100Y-71154600D01*
X205938100Y-71154600D02*
X205938100Y-66208600D01*
%TO.C,C236*%
X173680100Y-18830600D02*
X173680100Y-13884600D01*
X175646100Y-18830600D02*
X173680100Y-18830600D01*
X173680100Y-13884600D02*
X175646100Y-13884600D01*
X175646100Y-13884600D02*
X175646100Y-18830600D01*
%TO.C,R279*%
X122052100Y-14884600D02*
X122052100Y-17830600D01*
X120086100Y-14884600D02*
X122052100Y-14884600D01*
X122052100Y-17830600D02*
X120086100Y-17830600D01*
X120086100Y-17830600D02*
X120086100Y-14884600D01*
%TO.C,R9*%
X122052100Y-202336600D02*
X122052100Y-205282600D01*
X120086100Y-202336600D02*
X122052100Y-202336600D01*
X122052100Y-205282600D02*
X120086100Y-205282600D01*
X120086100Y-205282600D02*
X120086100Y-202336600D01*
%TO.C,C12*%
X132024100Y-206282600D02*
X132024100Y-201336600D01*
X133990100Y-206282600D02*
X132024100Y-206282600D01*
X132024100Y-201336600D02*
X133990100Y-201336600D01*
X133990100Y-201336600D02*
X133990100Y-206282600D01*
%TO.C,C186*%
X185110100Y-60486600D02*
X185110100Y-55540600D01*
X187076100Y-60486600D02*
X185110100Y-60486600D01*
X185110100Y-55540600D02*
X187076100Y-55540600D01*
X187076100Y-55540600D02*
X187076100Y-60486600D01*
%TO.C,R220*%
X120086100Y-49326600D02*
X120086100Y-46380600D01*
X122052100Y-49326600D02*
X120086100Y-49326600D01*
X120086100Y-46380600D02*
X122052100Y-46380600D01*
X122052100Y-46380600D02*
X122052100Y-49326600D01*
%TO.C,R191*%
X134956400Y-83634600D02*
X132010400Y-83634600D01*
X134956400Y-81668600D02*
X134956400Y-83634600D01*
X132010400Y-83634600D02*
X132010400Y-81668600D01*
X132010400Y-81668600D02*
X134956400Y-81668600D01*
%TO.C,R66*%
X114128400Y-166946600D02*
X111182400Y-166946600D01*
X114128400Y-164980600D02*
X114128400Y-166946600D01*
X111182400Y-166946600D02*
X111182400Y-164980600D01*
X111182400Y-164980600D02*
X114128400Y-164980600D01*
%TO.C,R292*%
X176220100Y-19418100D02*
X176220100Y-16472100D01*
X178186100Y-19418100D02*
X176220100Y-19418100D01*
X176220100Y-16472100D02*
X178186100Y-16472100D01*
X178186100Y-16472100D02*
X178186100Y-19418100D01*
%TO.C,R47*%
X155392100Y-186042100D02*
X155392100Y-183096100D01*
X157358100Y-186042100D02*
X155392100Y-186042100D01*
X155392100Y-183096100D02*
X157358100Y-183096100D01*
X157358100Y-183096100D02*
X157358100Y-186042100D01*
%TO.C,R68*%
X115702100Y-159093100D02*
X115702100Y-162039100D01*
X113736100Y-159093100D02*
X115702100Y-159093100D01*
X115702100Y-162039100D02*
X113736100Y-162039100D01*
X113736100Y-162039100D02*
X113736100Y-159093100D01*
%TO.C,R129*%
X122052100Y-119024600D02*
X122052100Y-121970600D01*
X120086100Y-119024600D02*
X122052100Y-119024600D01*
X122052100Y-121970600D02*
X120086100Y-121970600D01*
X120086100Y-121970600D02*
X120086100Y-119024600D01*
%TO.C,C141*%
X196474100Y-87036600D02*
X196474100Y-91982600D01*
X194508100Y-87036600D02*
X196474100Y-87036600D01*
X196474100Y-91982600D02*
X194508100Y-91982600D01*
X194508100Y-91982600D02*
X194508100Y-87036600D01*
%TO.C,C153*%
X133990100Y-66208600D02*
X133990100Y-71154600D01*
X132024100Y-66208600D02*
X133990100Y-66208600D01*
X133990100Y-71154600D02*
X132024100Y-71154600D01*
X132024100Y-71154600D02*
X132024100Y-66208600D01*
%TO.C,R18*%
X157358100Y-200749100D02*
X157358100Y-203695100D01*
X155392100Y-200749100D02*
X157358100Y-200749100D01*
X157358100Y-203695100D02*
X155392100Y-203695100D01*
X155392100Y-203695100D02*
X155392100Y-200749100D01*
%TO.C,C159*%
X166248100Y-66208600D02*
X166248100Y-71154600D01*
X164282100Y-66208600D02*
X166248100Y-66208600D01*
X166248100Y-71154600D02*
X164282100Y-71154600D01*
X164282100Y-71154600D02*
X164282100Y-66208600D01*
%TO.C,R244*%
X101224100Y-35712600D02*
X101224100Y-38658600D01*
X99258100Y-35712600D02*
X101224100Y-35712600D01*
X101224100Y-38658600D02*
X99258100Y-38658600D01*
X99258100Y-38658600D02*
X99258100Y-35712600D01*
%TO.C,R118*%
X199014100Y-138265100D02*
X199014100Y-141211100D01*
X197048100Y-138265100D02*
X199014100Y-138265100D01*
X199014100Y-141211100D02*
X197048100Y-141211100D01*
X197048100Y-141211100D02*
X197048100Y-138265100D01*
%TO.C,R287*%
X155392100Y-19418100D02*
X155392100Y-16472100D01*
X157358100Y-19418100D02*
X155392100Y-19418100D01*
X155392100Y-16472100D02*
X157358100Y-16472100D01*
X157358100Y-16472100D02*
X157358100Y-19418100D01*
%TO.C,R284*%
X142880100Y-14884600D02*
X142880100Y-17830600D01*
X140914100Y-14884600D02*
X142880100Y-14884600D01*
X142880100Y-17830600D02*
X140914100Y-17830600D01*
X140914100Y-17830600D02*
X140914100Y-14884600D01*
%TO.C,R200*%
X161742100Y-70154600D02*
X161742100Y-67208600D01*
X163708100Y-70154600D02*
X161742100Y-70154600D01*
X161742100Y-67208600D02*
X163708100Y-67208600D01*
X163708100Y-67208600D02*
X163708100Y-70154600D01*
%TO.C,C37*%
X154818100Y-170348600D02*
X154818100Y-175294600D01*
X152852100Y-170348600D02*
X154818100Y-170348600D01*
X154818100Y-175294600D02*
X152852100Y-175294600D01*
X152852100Y-175294600D02*
X152852100Y-170348600D01*
%TO.C,C52*%
X90368100Y-164626600D02*
X90368100Y-159680600D01*
X92334100Y-164626600D02*
X90368100Y-164626600D01*
X90368100Y-159680600D02*
X92334100Y-159680600D01*
X92334100Y-159680600D02*
X92334100Y-164626600D01*
%TO.C,C44*%
X173680100Y-185454600D02*
X173680100Y-180508600D01*
X175646100Y-185454600D02*
X173680100Y-185454600D01*
X173680100Y-180508600D02*
X175646100Y-180508600D01*
X175646100Y-180508600D02*
X175646100Y-185454600D01*
%TO.C,R158*%
X115702100Y-96609100D02*
X115702100Y-99555100D01*
X113736100Y-96609100D02*
X115702100Y-96609100D01*
X115702100Y-99555100D02*
X113736100Y-99555100D01*
X113736100Y-99555100D02*
X113736100Y-96609100D01*
%TO.C,R108*%
X157358100Y-138265100D02*
X157358100Y-141211100D01*
X155392100Y-138265100D02*
X157358100Y-138265100D01*
X157358100Y-141211100D02*
X155392100Y-141211100D01*
X155392100Y-141211100D02*
X155392100Y-138265100D01*
%TO.C,R1*%
X101224100Y-202336600D02*
X101224100Y-205282600D01*
X99258100Y-202336600D02*
X101224100Y-202336600D01*
X101224100Y-205282600D02*
X99258100Y-205282600D01*
X99258100Y-205282600D02*
X99258100Y-202336600D01*
%TO.C,R263*%
X178186100Y-34125100D02*
X178186100Y-37071100D01*
X176220100Y-34125100D02*
X178186100Y-34125100D01*
X178186100Y-37071100D02*
X176220100Y-37071100D01*
X176220100Y-37071100D02*
X176220100Y-34125100D01*
%TO.C,R188*%
X115702100Y-75781100D02*
X115702100Y-78727100D01*
X113736100Y-75781100D02*
X115702100Y-75781100D01*
X115702100Y-78727100D02*
X113736100Y-78727100D01*
X113736100Y-78727100D02*
X113736100Y-75781100D01*
%TO.C,C82*%
X143454100Y-143798600D02*
X143454100Y-138852600D01*
X145420100Y-143798600D02*
X143454100Y-143798600D01*
X143454100Y-138852600D02*
X145420100Y-138852600D01*
X145420100Y-138852600D02*
X145420100Y-143798600D01*
%TO.C,C229*%
X154818100Y-3724600D02*
X154818100Y-8670600D01*
X152852100Y-3724600D02*
X154818100Y-3724600D01*
X154818100Y-8670600D02*
X152852100Y-8670600D01*
X152852100Y-8670600D02*
X152852100Y-3724600D01*
%TO.C,R49*%
X163708100Y-181508600D02*
X163708100Y-184454600D01*
X161742100Y-181508600D02*
X163708100Y-181508600D01*
X163708100Y-184454600D02*
X161742100Y-184454600D01*
X161742100Y-184454600D02*
X161742100Y-181508600D01*
%TO.C,C169*%
X92334100Y-45380600D02*
X92334100Y-50326600D01*
X90368100Y-45380600D02*
X92334100Y-45380600D01*
X92334100Y-50326600D02*
X90368100Y-50326600D01*
X90368100Y-50326600D02*
X90368100Y-45380600D01*
%TO.C,R177*%
X197048100Y-102730100D02*
X197048100Y-99784100D01*
X199014100Y-102730100D02*
X197048100Y-102730100D01*
X197048100Y-99784100D02*
X199014100Y-99784100D01*
X199014100Y-99784100D02*
X199014100Y-102730100D01*
%TO.C,C65*%
X175646100Y-149520600D02*
X175646100Y-154466600D01*
X173680100Y-149520600D02*
X175646100Y-149520600D01*
X175646100Y-154466600D02*
X173680100Y-154466600D01*
X173680100Y-154466600D02*
X173680100Y-149520600D01*
%TO.C,C15*%
X166248100Y-191176600D02*
X166248100Y-196122600D01*
X164282100Y-191176600D02*
X166248100Y-191176600D01*
X166248100Y-196122600D02*
X164282100Y-196122600D01*
X164282100Y-196122600D02*
X164282100Y-191176600D01*
%TO.C,C80*%
X111196100Y-143798600D02*
X111196100Y-138852600D01*
X113162100Y-143798600D02*
X111196100Y-143798600D01*
X111196100Y-138852600D02*
X113162100Y-138852600D01*
X113162100Y-138852600D02*
X113162100Y-143798600D01*
%TO.C,R300*%
X203398100Y-7670600D02*
X203398100Y-4724600D01*
X205364100Y-7670600D02*
X203398100Y-7670600D01*
X203398100Y-4724600D02*
X205364100Y-4724600D01*
X205364100Y-4724600D02*
X205364100Y-7670600D01*
%TO.C,R235*%
X182570100Y-49326600D02*
X182570100Y-46380600D01*
X184536100Y-49326600D02*
X182570100Y-49326600D01*
X182570100Y-46380600D02*
X184536100Y-46380600D01*
X184536100Y-46380600D02*
X184536100Y-49326600D01*
%TO.C,C231*%
X166248100Y-3724600D02*
X166248100Y-8670600D01*
X164282100Y-3724600D02*
X166248100Y-3724600D01*
X166248100Y-8670600D02*
X164282100Y-8670600D01*
X164282100Y-8670600D02*
X164282100Y-3724600D01*
%TO.C,R281*%
X134956400Y-21150600D02*
X132010400Y-21150600D01*
X134956400Y-19184600D02*
X134956400Y-21150600D01*
X132010400Y-21150600D02*
X132010400Y-19184600D01*
X132010400Y-19184600D02*
X134956400Y-19184600D01*
%TO.C,C40*%
X152852100Y-185454600D02*
X152852100Y-180508600D01*
X154818100Y-185454600D02*
X152852100Y-185454600D01*
X152852100Y-180508600D02*
X154818100Y-180508600D01*
X154818100Y-180508600D02*
X154818100Y-185454600D01*
%TO.C,C78*%
X122626100Y-143798600D02*
X122626100Y-138852600D01*
X124592100Y-143798600D02*
X122626100Y-143798600D01*
X122626100Y-138852600D02*
X124592100Y-138852600D01*
X124592100Y-138852600D02*
X124592100Y-143798600D01*
%TO.C,R269*%
X205364100Y-35712600D02*
X205364100Y-38658600D01*
X203398100Y-35712600D02*
X205364100Y-35712600D01*
X205364100Y-38658600D02*
X203398100Y-38658600D01*
X203398100Y-38658600D02*
X203398100Y-35712600D01*
%TO.C,C50*%
X101798100Y-164626600D02*
X101798100Y-159680600D01*
X103764100Y-164626600D02*
X101798100Y-164626600D01*
X101798100Y-159680600D02*
X103764100Y-159680600D01*
X103764100Y-159680600D02*
X103764100Y-164626600D01*
%TO.C,C70*%
X205938100Y-164626600D02*
X205938100Y-159680600D01*
X207904100Y-164626600D02*
X205938100Y-164626600D01*
X205938100Y-159680600D02*
X207904100Y-159680600D01*
X207904100Y-159680600D02*
X207904100Y-164626600D01*
%TO.C,R12*%
X134564100Y-206870100D02*
X134564100Y-203924100D01*
X136530100Y-206870100D02*
X134564100Y-206870100D01*
X134564100Y-203924100D02*
X136530100Y-203924100D01*
X136530100Y-203924100D02*
X136530100Y-206870100D01*
%TO.C,R93*%
X94874100Y-138265100D02*
X94874100Y-141211100D01*
X92908100Y-138265100D02*
X94874100Y-138265100D01*
X94874100Y-141211100D02*
X92908100Y-141211100D01*
X92908100Y-141211100D02*
X92908100Y-138265100D01*
%TO.C,C225*%
X133990100Y-3724600D02*
X133990100Y-8670600D01*
X132024100Y-3724600D02*
X133990100Y-3724600D01*
X133990100Y-8670600D02*
X132024100Y-8670600D01*
X132024100Y-8670600D02*
X132024100Y-3724600D01*
%TO.C,R261*%
X176612400Y-41978600D02*
X173666400Y-41978600D01*
X176612400Y-40012600D02*
X176612400Y-41978600D01*
X173666400Y-41978600D02*
X173666400Y-40012600D01*
X173666400Y-40012600D02*
X176612400Y-40012600D01*
%TO.C,R222*%
X134564100Y-61074100D02*
X134564100Y-58128100D01*
X136530100Y-61074100D02*
X134564100Y-61074100D01*
X134564100Y-58128100D02*
X136530100Y-58128100D01*
X136530100Y-58128100D02*
X136530100Y-61074100D01*
%TO.C,R23*%
X178186100Y-200749100D02*
X178186100Y-203695100D01*
X176220100Y-200749100D02*
X178186100Y-200749100D01*
X178186100Y-203695100D02*
X176220100Y-203695100D01*
X176220100Y-203695100D02*
X176220100Y-200749100D01*
%TO.C,C104*%
X111196100Y-122970600D02*
X111196100Y-118024600D01*
X113162100Y-122970600D02*
X111196100Y-122970600D01*
X111196100Y-118024600D02*
X113162100Y-118024600D01*
X113162100Y-118024600D02*
X113162100Y-122970600D01*
%TO.C,R33*%
X94874100Y-179921100D02*
X94874100Y-182867100D01*
X92908100Y-179921100D02*
X94874100Y-179921100D01*
X94874100Y-182867100D02*
X92908100Y-182867100D01*
X92908100Y-182867100D02*
X92908100Y-179921100D01*
%TO.C,C146*%
X101798100Y-81314600D02*
X101798100Y-76368600D01*
X103764100Y-81314600D02*
X101798100Y-81314600D01*
X101798100Y-76368600D02*
X103764100Y-76368600D01*
X103764100Y-76368600D02*
X103764100Y-81314600D01*
%TO.C,R185*%
X99258100Y-70154600D02*
X99258100Y-67208600D01*
X101224100Y-70154600D02*
X99258100Y-70154600D01*
X99258100Y-67208600D02*
X101224100Y-67208600D01*
X101224100Y-67208600D02*
X101224100Y-70154600D01*
%TO.C,C144*%
X194508100Y-102142600D02*
X194508100Y-97196600D01*
X196474100Y-102142600D02*
X194508100Y-102142600D01*
X194508100Y-97196600D02*
X196474100Y-97196600D01*
X196474100Y-97196600D02*
X196474100Y-102142600D01*
%TO.C,C95*%
X207904100Y-128692600D02*
X207904100Y-133638600D01*
X205938100Y-128692600D02*
X207904100Y-128692600D01*
X207904100Y-133638600D02*
X205938100Y-133638600D01*
X205938100Y-133638600D02*
X205938100Y-128692600D01*
%TO.C,C90*%
X185110100Y-143798600D02*
X185110100Y-138852600D01*
X187076100Y-143798600D02*
X185110100Y-143798600D01*
X185110100Y-138852600D02*
X187076100Y-138852600D01*
X187076100Y-138852600D02*
X187076100Y-143798600D01*
%TO.C,C119*%
X207904100Y-107864600D02*
X207904100Y-112810600D01*
X205938100Y-107864600D02*
X207904100Y-107864600D01*
X207904100Y-112810600D02*
X205938100Y-112810600D01*
X205938100Y-112810600D02*
X205938100Y-107864600D01*
%TO.C,R94*%
X101224100Y-139852600D02*
X101224100Y-142798600D01*
X99258100Y-139852600D02*
X101224100Y-139852600D01*
X101224100Y-142798600D02*
X99258100Y-142798600D01*
X99258100Y-142798600D02*
X99258100Y-139852600D01*
%TO.C,C81*%
X133990100Y-128692600D02*
X133990100Y-133638600D01*
X132024100Y-128692600D02*
X133990100Y-128692600D01*
X133990100Y-133638600D02*
X132024100Y-133638600D01*
X132024100Y-133638600D02*
X132024100Y-128692600D01*
%TO.C,R37*%
X113736100Y-186042100D02*
X113736100Y-183096100D01*
X115702100Y-186042100D02*
X113736100Y-186042100D01*
X113736100Y-183096100D02*
X115702100Y-183096100D01*
X115702100Y-183096100D02*
X115702100Y-186042100D01*
%TO.C,C13*%
X154818100Y-191176600D02*
X154818100Y-196122600D01*
X152852100Y-191176600D02*
X154818100Y-191176600D01*
X154818100Y-196122600D02*
X152852100Y-196122600D01*
X152852100Y-196122600D02*
X152852100Y-191176600D01*
%TO.C,R105*%
X140914100Y-132638600D02*
X140914100Y-129692600D01*
X142880100Y-132638600D02*
X140914100Y-132638600D01*
X140914100Y-129692600D02*
X142880100Y-129692600D01*
X142880100Y-129692600D02*
X142880100Y-132638600D01*
%TO.C,C93*%
X196474100Y-128692600D02*
X196474100Y-133638600D01*
X194508100Y-128692600D02*
X196474100Y-128692600D01*
X196474100Y-133638600D02*
X194508100Y-133638600D01*
X194508100Y-133638600D02*
X194508100Y-128692600D01*
%TO.C,R7*%
X113736100Y-206870100D02*
X113736100Y-203924100D01*
X115702100Y-206870100D02*
X113736100Y-206870100D01*
X113736100Y-203924100D02*
X115702100Y-203924100D01*
X115702100Y-203924100D02*
X115702100Y-206870100D01*
%TO.C,C9*%
X133990100Y-191176600D02*
X133990100Y-196122600D01*
X132024100Y-191176600D02*
X133990100Y-191176600D01*
X133990100Y-196122600D02*
X132024100Y-196122600D01*
X132024100Y-196122600D02*
X132024100Y-191176600D01*
%TO.C,R71*%
X134956400Y-166946600D02*
X132010400Y-166946600D01*
X134956400Y-164980600D02*
X134956400Y-166946600D01*
X132010400Y-166946600D02*
X132010400Y-164980600D01*
X132010400Y-164980600D02*
X134956400Y-164980600D01*
%TO.C,R152*%
X92908100Y-102730100D02*
X92908100Y-99784100D01*
X94874100Y-102730100D02*
X92908100Y-102730100D01*
X92908100Y-99784100D02*
X94874100Y-99784100D01*
X94874100Y-99784100D02*
X94874100Y-102730100D01*
%TO.C,R270*%
X203398100Y-28498600D02*
X203398100Y-25552600D01*
X205364100Y-28498600D02*
X203398100Y-28498600D01*
X203398100Y-25552600D02*
X205364100Y-25552600D01*
X205364100Y-25552600D02*
X205364100Y-28498600D01*
%TO.C,R227*%
X155392100Y-61074100D02*
X155392100Y-58128100D01*
X157358100Y-61074100D02*
X155392100Y-61074100D01*
X155392100Y-58128100D02*
X157358100Y-58128100D01*
X157358100Y-58128100D02*
X157358100Y-61074100D01*
%TO.C,R58*%
X199014100Y-179921100D02*
X199014100Y-182867100D01*
X197048100Y-179921100D02*
X199014100Y-179921100D01*
X199014100Y-182867100D02*
X197048100Y-182867100D01*
X197048100Y-182867100D02*
X197048100Y-179921100D01*
%TO.C,R288*%
X157358100Y-13297100D02*
X157358100Y-16243100D01*
X155392100Y-13297100D02*
X157358100Y-13297100D01*
X157358100Y-16243100D02*
X155392100Y-16243100D01*
X155392100Y-16243100D02*
X155392100Y-13297100D01*
%TO.C,R186*%
X114128400Y-83634600D02*
X111182400Y-83634600D01*
X114128400Y-81668600D02*
X114128400Y-83634600D01*
X111182400Y-83634600D02*
X111182400Y-81668600D01*
X111182400Y-81668600D02*
X114128400Y-81668600D01*
%TO.C,R57*%
X197048100Y-186042100D02*
X197048100Y-183096100D01*
X199014100Y-186042100D02*
X197048100Y-186042100D01*
X197048100Y-183096100D02*
X199014100Y-183096100D01*
X199014100Y-183096100D02*
X199014100Y-186042100D01*
%TO.C,C131*%
X145420100Y-87036600D02*
X145420100Y-91982600D01*
X143454100Y-87036600D02*
X145420100Y-87036600D01*
X145420100Y-91982600D02*
X143454100Y-91982600D01*
X143454100Y-91982600D02*
X143454100Y-87036600D01*
%TO.C,C28*%
X90368100Y-185454600D02*
X90368100Y-180508600D01*
X92334100Y-185454600D02*
X90368100Y-185454600D01*
X90368100Y-180508600D02*
X92334100Y-180508600D01*
X92334100Y-180508600D02*
X92334100Y-185454600D01*
%TO.C,R98*%
X115702100Y-138265100D02*
X115702100Y-141211100D01*
X113736100Y-138265100D02*
X115702100Y-138265100D01*
X115702100Y-141211100D02*
X113736100Y-141211100D01*
X113736100Y-141211100D02*
X113736100Y-138265100D01*
%TO.C,R31*%
X93300400Y-187774600D02*
X90354400Y-187774600D01*
X93300400Y-185808600D02*
X93300400Y-187774600D01*
X90354400Y-187774600D02*
X90354400Y-185808600D01*
X90354400Y-185808600D02*
X93300400Y-185808600D01*
%TO.C,R81*%
X176612400Y-166946600D02*
X173666400Y-166946600D01*
X176612400Y-164980600D02*
X176612400Y-166946600D01*
X173666400Y-166946600D02*
X173666400Y-164980600D01*
X173666400Y-164980600D02*
X176612400Y-164980600D01*
%TO.C,C164*%
X173680100Y-81314600D02*
X173680100Y-76368600D01*
X175646100Y-81314600D02*
X173680100Y-81314600D01*
X173680100Y-76368600D02*
X175646100Y-76368600D01*
X175646100Y-76368600D02*
X175646100Y-81314600D01*
%TO.C,R132*%
X134564100Y-123558100D02*
X134564100Y-120612100D01*
X136530100Y-123558100D02*
X134564100Y-123558100D01*
X134564100Y-120612100D02*
X136530100Y-120612100D01*
X136530100Y-120612100D02*
X136530100Y-123558100D01*
%TO.C,C221*%
X113162100Y-3724600D02*
X113162100Y-8670600D01*
X111196100Y-3724600D02*
X113162100Y-3724600D01*
X113162100Y-8670600D02*
X111196100Y-8670600D01*
X111196100Y-8670600D02*
X111196100Y-3724600D01*
%TO.C,C8*%
X111196100Y-206282600D02*
X111196100Y-201336600D01*
X113162100Y-206282600D02*
X111196100Y-206282600D01*
X111196100Y-201336600D02*
X113162100Y-201336600D01*
X113162100Y-201336600D02*
X113162100Y-206282600D01*
%TO.C,C113*%
X175646100Y-107864600D02*
X175646100Y-112810600D01*
X173680100Y-107864600D02*
X175646100Y-107864600D01*
X175646100Y-112810600D02*
X173680100Y-112810600D01*
X173680100Y-112810600D02*
X173680100Y-107864600D01*
%TO.C,C173*%
X113162100Y-45380600D02*
X113162100Y-50326600D01*
X111196100Y-45380600D02*
X113162100Y-45380600D01*
X113162100Y-50326600D02*
X111196100Y-50326600D01*
X111196100Y-50326600D02*
X111196100Y-45380600D01*
%TO.C,R201*%
X176612400Y-83634600D02*
X173666400Y-83634600D01*
X176612400Y-81668600D02*
X176612400Y-83634600D01*
X173666400Y-83634600D02*
X173666400Y-81668600D01*
X173666400Y-81668600D02*
X176612400Y-81668600D01*
%TO.C,R169*%
X163708100Y-98196600D02*
X163708100Y-101142600D01*
X161742100Y-98196600D02*
X163708100Y-98196600D01*
X163708100Y-101142600D02*
X161742100Y-101142600D01*
X161742100Y-101142600D02*
X161742100Y-98196600D01*
%TO.C,C27*%
X103764100Y-170348600D02*
X103764100Y-175294600D01*
X101798100Y-170348600D02*
X103764100Y-170348600D01*
X103764100Y-175294600D02*
X101798100Y-175294600D01*
X101798100Y-175294600D02*
X101798100Y-170348600D01*
%TO.C,R208*%
X199014100Y-75781100D02*
X199014100Y-78727100D01*
X197048100Y-75781100D02*
X199014100Y-75781100D01*
X199014100Y-78727100D02*
X197048100Y-78727100D01*
X197048100Y-78727100D02*
X197048100Y-75781100D01*
%TO.C,C67*%
X187076100Y-149520600D02*
X187076100Y-154466600D01*
X185110100Y-149520600D02*
X187076100Y-149520600D01*
X187076100Y-154466600D02*
X185110100Y-154466600D01*
X185110100Y-154466600D02*
X185110100Y-149520600D01*
%TO.C,C122*%
X101798100Y-102142600D02*
X101798100Y-97196600D01*
X103764100Y-102142600D02*
X101798100Y-102142600D01*
X101798100Y-97196600D02*
X103764100Y-97196600D01*
X103764100Y-97196600D02*
X103764100Y-102142600D01*
%TO.C,C126*%
X122626100Y-102142600D02*
X122626100Y-97196600D01*
X124592100Y-102142600D02*
X122626100Y-102142600D01*
X122626100Y-97196600D02*
X124592100Y-97196600D01*
X124592100Y-97196600D02*
X124592100Y-102142600D01*
%TO.C,R111*%
X176612400Y-146118600D02*
X173666400Y-146118600D01*
X176612400Y-144152600D02*
X176612400Y-146118600D01*
X173666400Y-146118600D02*
X173666400Y-144152600D01*
X173666400Y-144152600D02*
X176612400Y-144152600D01*
%TO.C,C99*%
X103764100Y-107864600D02*
X103764100Y-112810600D01*
X101798100Y-107864600D02*
X103764100Y-107864600D01*
X103764100Y-112810600D02*
X101798100Y-112810600D01*
X101798100Y-112810600D02*
X101798100Y-107864600D01*
%TO.C,R274*%
X101224100Y-14884600D02*
X101224100Y-17830600D01*
X99258100Y-14884600D02*
X101224100Y-14884600D01*
X101224100Y-17830600D02*
X99258100Y-17830600D01*
X99258100Y-17830600D02*
X99258100Y-14884600D01*
%TO.C,R30*%
X203398100Y-195122600D02*
X203398100Y-192176600D01*
X205364100Y-195122600D02*
X203398100Y-195122600D01*
X203398100Y-192176600D02*
X205364100Y-192176600D01*
X205364100Y-192176600D02*
X205364100Y-195122600D01*
%TO.C,R8*%
X115702100Y-200749100D02*
X115702100Y-203695100D01*
X113736100Y-200749100D02*
X115702100Y-200749100D01*
X115702100Y-203695100D02*
X113736100Y-203695100D01*
X113736100Y-203695100D02*
X113736100Y-200749100D01*
%TO.C,C172*%
X90368100Y-60486600D02*
X90368100Y-55540600D01*
X92334100Y-60486600D02*
X90368100Y-60486600D01*
X90368100Y-55540600D02*
X92334100Y-55540600D01*
X92334100Y-55540600D02*
X92334100Y-60486600D01*
%TO.C,R255*%
X140914100Y-28498600D02*
X140914100Y-25552600D01*
X142880100Y-28498600D02*
X140914100Y-28498600D01*
X140914100Y-25552600D02*
X142880100Y-25552600D01*
X142880100Y-25552600D02*
X142880100Y-28498600D01*
%TO.C,R154*%
X101224100Y-98196600D02*
X101224100Y-101142600D01*
X99258100Y-98196600D02*
X101224100Y-98196600D01*
X101224100Y-101142600D02*
X99258100Y-101142600D01*
X99258100Y-101142600D02*
X99258100Y-98196600D01*
%TO.C,C64*%
X152852100Y-164626600D02*
X152852100Y-159680600D01*
X154818100Y-164626600D02*
X152852100Y-164626600D01*
X152852100Y-159680600D02*
X154818100Y-159680600D01*
X154818100Y-159680600D02*
X154818100Y-164626600D01*
%TO.C,C85*%
X154818100Y-128692600D02*
X154818100Y-133638600D01*
X152852100Y-128692600D02*
X154818100Y-128692600D01*
X154818100Y-133638600D02*
X152852100Y-133638600D01*
X152852100Y-133638600D02*
X152852100Y-128692600D01*
%TO.C,R70*%
X120086100Y-153466600D02*
X120086100Y-150520600D01*
X122052100Y-153466600D02*
X120086100Y-153466600D01*
X120086100Y-150520600D02*
X122052100Y-150520600D01*
X122052100Y-150520600D02*
X122052100Y-153466600D01*
%TO.C,R106*%
X155784400Y-146118600D02*
X152838400Y-146118600D01*
X155784400Y-144152600D02*
X155784400Y-146118600D01*
X152838400Y-146118600D02*
X152838400Y-144152600D01*
X152838400Y-144152600D02*
X155784400Y-144152600D01*
%TO.C,R218*%
X115702100Y-54953100D02*
X115702100Y-57899100D01*
X113736100Y-54953100D02*
X115702100Y-54953100D01*
X115702100Y-57899100D02*
X113736100Y-57899100D01*
X113736100Y-57899100D02*
X113736100Y-54953100D01*
%TO.C,R210*%
X203398100Y-70154600D02*
X203398100Y-67208600D01*
X205364100Y-70154600D02*
X203398100Y-70154600D01*
X203398100Y-67208600D02*
X205364100Y-67208600D01*
X205364100Y-67208600D02*
X205364100Y-70154600D01*
%TO.C,R17*%
X155392100Y-206870100D02*
X155392100Y-203924100D01*
X157358100Y-206870100D02*
X155392100Y-206870100D01*
X155392100Y-203924100D02*
X157358100Y-203924100D01*
X157358100Y-203924100D02*
X157358100Y-206870100D01*
%TO.C,C112*%
X152852100Y-122970600D02*
X152852100Y-118024600D01*
X154818100Y-122970600D02*
X152852100Y-122970600D01*
X152852100Y-118024600D02*
X154818100Y-118024600D01*
X154818100Y-118024600D02*
X154818100Y-122970600D01*
%TO.C,C193*%
X92334100Y-24552600D02*
X92334100Y-29498600D01*
X90368100Y-24552600D02*
X92334100Y-24552600D01*
X92334100Y-29498600D02*
X90368100Y-29498600D01*
X90368100Y-29498600D02*
X90368100Y-24552600D01*
%TO.C,R53*%
X178186100Y-179921100D02*
X178186100Y-182867100D01*
X176220100Y-179921100D02*
X178186100Y-179921100D01*
X178186100Y-182867100D02*
X176220100Y-182867100D01*
X176220100Y-182867100D02*
X176220100Y-179921100D01*
%TO.C,R61*%
X93300400Y-166946600D02*
X90354400Y-166946600D01*
X93300400Y-164980600D02*
X93300400Y-166946600D01*
X90354400Y-166946600D02*
X90354400Y-164980600D01*
X90354400Y-164980600D02*
X93300400Y-164980600D01*
%TO.C,R293*%
X178186100Y-13297100D02*
X178186100Y-16243100D01*
X176220100Y-13297100D02*
X178186100Y-13297100D01*
X178186100Y-16243100D02*
X176220100Y-16243100D01*
X176220100Y-16243100D02*
X176220100Y-13297100D01*
%TO.C,R135*%
X140914100Y-111810600D02*
X140914100Y-108864600D01*
X142880100Y-111810600D02*
X140914100Y-111810600D01*
X140914100Y-108864600D02*
X142880100Y-108864600D01*
X142880100Y-108864600D02*
X142880100Y-111810600D01*
%TO.C,C11*%
X145420100Y-191176600D02*
X145420100Y-196122600D01*
X143454100Y-191176600D02*
X145420100Y-191176600D01*
X145420100Y-196122600D02*
X143454100Y-196122600D01*
X143454100Y-196122600D02*
X143454100Y-191176600D01*
%TO.C,R60*%
X203398100Y-174294600D02*
X203398100Y-171348600D01*
X205364100Y-174294600D02*
X203398100Y-174294600D01*
X203398100Y-171348600D02*
X205364100Y-171348600D01*
X205364100Y-171348600D02*
X205364100Y-174294600D01*
%TO.C,R294*%
X184536100Y-14884600D02*
X184536100Y-17830600D01*
X182570100Y-14884600D02*
X184536100Y-14884600D01*
X184536100Y-17830600D02*
X182570100Y-17830600D01*
X182570100Y-17830600D02*
X182570100Y-14884600D01*
%TO.C,C238*%
X205938100Y-18830600D02*
X205938100Y-13884600D01*
X207904100Y-18830600D02*
X205938100Y-18830600D01*
X205938100Y-13884600D02*
X207904100Y-13884600D01*
X207904100Y-13884600D02*
X207904100Y-18830600D01*
%TO.C,R228*%
X157358100Y-54953100D02*
X157358100Y-57899100D01*
X155392100Y-54953100D02*
X157358100Y-54953100D01*
X157358100Y-57899100D02*
X155392100Y-57899100D01*
X155392100Y-57899100D02*
X155392100Y-54953100D01*
%TO.C,R182*%
X92908100Y-81902100D02*
X92908100Y-78956100D01*
X94874100Y-81902100D02*
X92908100Y-81902100D01*
X92908100Y-78956100D02*
X94874100Y-78956100D01*
X94874100Y-78956100D02*
X94874100Y-81902100D01*
%TO.C,C117*%
X196474100Y-107864600D02*
X196474100Y-112810600D01*
X194508100Y-107864600D02*
X196474100Y-107864600D01*
X196474100Y-112810600D02*
X194508100Y-112810600D01*
X194508100Y-112810600D02*
X194508100Y-107864600D01*
%TO.C,C84*%
X132024100Y-143798600D02*
X132024100Y-138852600D01*
X133990100Y-143798600D02*
X132024100Y-143798600D01*
X132024100Y-138852600D02*
X133990100Y-138852600D01*
X133990100Y-138852600D02*
X133990100Y-143798600D01*
%TO.C,C158*%
X164282100Y-81314600D02*
X164282100Y-76368600D01*
X166248100Y-81314600D02*
X164282100Y-81314600D01*
X164282100Y-76368600D02*
X166248100Y-76368600D01*
X166248100Y-76368600D02*
X166248100Y-81314600D01*
%TO.C,R26*%
X197440400Y-208602600D02*
X194494400Y-208602600D01*
X197440400Y-206636600D02*
X197440400Y-208602600D01*
X194494400Y-208602600D02*
X194494400Y-206636600D01*
X194494400Y-206636600D02*
X197440400Y-206636600D01*
%TO.C,C72*%
X194508100Y-164626600D02*
X194508100Y-159680600D01*
X196474100Y-164626600D02*
X194508100Y-164626600D01*
X194508100Y-159680600D02*
X196474100Y-159680600D01*
X196474100Y-159680600D02*
X196474100Y-164626600D01*
%TO.C,R19*%
X163708100Y-202336600D02*
X163708100Y-205282600D01*
X161742100Y-202336600D02*
X163708100Y-202336600D01*
X163708100Y-205282600D02*
X161742100Y-205282600D01*
X161742100Y-205282600D02*
X161742100Y-202336600D01*
%TO.C,R217*%
X113736100Y-61074100D02*
X113736100Y-58128100D01*
X115702100Y-61074100D02*
X113736100Y-61074100D01*
X113736100Y-58128100D02*
X115702100Y-58128100D01*
X115702100Y-58128100D02*
X115702100Y-61074100D01*
%TO.C,C154*%
X143454100Y-81314600D02*
X143454100Y-76368600D01*
X145420100Y-81314600D02*
X143454100Y-81314600D01*
X143454100Y-76368600D02*
X145420100Y-76368600D01*
X145420100Y-76368600D02*
X145420100Y-81314600D01*
%TO.C,R248*%
X115702100Y-34125100D02*
X115702100Y-37071100D01*
X113736100Y-34125100D02*
X115702100Y-34125100D01*
X115702100Y-37071100D02*
X113736100Y-37071100D01*
X113736100Y-37071100D02*
X113736100Y-34125100D01*
%TO.C,R55*%
X182570100Y-174294600D02*
X182570100Y-171348600D01*
X184536100Y-174294600D02*
X182570100Y-174294600D01*
X182570100Y-171348600D02*
X184536100Y-171348600D01*
X184536100Y-171348600D02*
X184536100Y-174294600D01*
%TO.C,R221*%
X134956400Y-62806600D02*
X132010400Y-62806600D01*
X134956400Y-60840600D02*
X134956400Y-62806600D01*
X132010400Y-62806600D02*
X132010400Y-60840600D01*
X132010400Y-60840600D02*
X134956400Y-60840600D01*
%TO.C,R151*%
X93300400Y-104462600D02*
X90354400Y-104462600D01*
X93300400Y-102496600D02*
X93300400Y-104462600D01*
X90354400Y-104462600D02*
X90354400Y-102496600D01*
X90354400Y-102496600D02*
X93300400Y-102496600D01*
%TO.C,C31*%
X124592100Y-170348600D02*
X124592100Y-175294600D01*
X122626100Y-170348600D02*
X124592100Y-170348600D01*
X124592100Y-175294600D02*
X122626100Y-175294600D01*
X122626100Y-175294600D02*
X122626100Y-170348600D01*
%TO.C,R29*%
X205364100Y-202336600D02*
X205364100Y-205282600D01*
X203398100Y-202336600D02*
X205364100Y-202336600D01*
X205364100Y-205282600D02*
X203398100Y-205282600D01*
X203398100Y-205282600D02*
X203398100Y-202336600D01*
%TO.C,R165*%
X140914100Y-90982600D02*
X140914100Y-88036600D01*
X142880100Y-90982600D02*
X140914100Y-90982600D01*
X140914100Y-88036600D02*
X142880100Y-88036600D01*
X142880100Y-88036600D02*
X142880100Y-90982600D01*
%TO.C,R91*%
X93300400Y-146118600D02*
X90354400Y-146118600D01*
X93300400Y-144152600D02*
X93300400Y-146118600D01*
X90354400Y-146118600D02*
X90354400Y-144152600D01*
X90354400Y-144152600D02*
X93300400Y-144152600D01*
%TO.C,C60*%
X132024100Y-164626600D02*
X132024100Y-159680600D01*
X133990100Y-164626600D02*
X132024100Y-164626600D01*
X132024100Y-159680600D02*
X133990100Y-159680600D01*
X133990100Y-159680600D02*
X133990100Y-164626600D01*
%TO.C,R101*%
X134956400Y-146118600D02*
X132010400Y-146118600D01*
X134956400Y-144152600D02*
X134956400Y-146118600D01*
X132010400Y-146118600D02*
X132010400Y-144152600D01*
X132010400Y-144152600D02*
X134956400Y-144152600D01*
%TO.C,C106*%
X143454100Y-122970600D02*
X143454100Y-118024600D01*
X145420100Y-122970600D02*
X143454100Y-122970600D01*
X143454100Y-118024600D02*
X145420100Y-118024600D01*
X145420100Y-118024600D02*
X145420100Y-122970600D01*
%TO.C,R142*%
X176220100Y-123558100D02*
X176220100Y-120612100D01*
X178186100Y-123558100D02*
X176220100Y-123558100D01*
X176220100Y-120612100D02*
X178186100Y-120612100D01*
X178186100Y-120612100D02*
X178186100Y-123558100D01*
%TO.C,R162*%
X134564100Y-102730100D02*
X134564100Y-99784100D01*
X136530100Y-102730100D02*
X134564100Y-102730100D01*
X134564100Y-99784100D02*
X136530100Y-99784100D01*
X136530100Y-99784100D02*
X136530100Y-102730100D01*
%TO.C,C114*%
X185110100Y-122970600D02*
X185110100Y-118024600D01*
X187076100Y-122970600D02*
X185110100Y-122970600D01*
X185110100Y-118024600D02*
X187076100Y-118024600D01*
X187076100Y-118024600D02*
X187076100Y-122970600D01*
%TO.C,R197*%
X155392100Y-81902100D02*
X155392100Y-78956100D01*
X157358100Y-81902100D02*
X155392100Y-81902100D01*
X155392100Y-78956100D02*
X157358100Y-78956100D01*
X157358100Y-78956100D02*
X157358100Y-81902100D01*
%TO.C,C178*%
X143454100Y-60486600D02*
X143454100Y-55540600D01*
X145420100Y-60486600D02*
X143454100Y-60486600D01*
X143454100Y-55540600D02*
X145420100Y-55540600D01*
X145420100Y-55540600D02*
X145420100Y-60486600D01*
%TO.C,R295*%
X182570100Y-7670600D02*
X182570100Y-4724600D01*
X184536100Y-7670600D02*
X182570100Y-7670600D01*
X182570100Y-4724600D02*
X184536100Y-4724600D01*
X184536100Y-4724600D02*
X184536100Y-7670600D01*
%TO.C,R254*%
X142880100Y-35712600D02*
X142880100Y-38658600D01*
X140914100Y-35712600D02*
X142880100Y-35712600D01*
X142880100Y-38658600D02*
X140914100Y-38658600D01*
X140914100Y-38658600D02*
X140914100Y-35712600D01*
%TO.C,R88*%
X199014100Y-159093100D02*
X199014100Y-162039100D01*
X197048100Y-159093100D02*
X199014100Y-159093100D01*
X199014100Y-162039100D02*
X197048100Y-162039100D01*
X197048100Y-162039100D02*
X197048100Y-159093100D01*
%TO.C,R243*%
X94874100Y-34125100D02*
X94874100Y-37071100D01*
X92908100Y-34125100D02*
X94874100Y-34125100D01*
X94874100Y-37071100D02*
X92908100Y-37071100D01*
X92908100Y-37071100D02*
X92908100Y-34125100D01*
%TO.C,R20*%
X161742100Y-195122600D02*
X161742100Y-192176600D01*
X163708100Y-195122600D02*
X161742100Y-195122600D01*
X161742100Y-192176600D02*
X163708100Y-192176600D01*
X163708100Y-192176600D02*
X163708100Y-195122600D01*
%TO.C,C75*%
X103764100Y-128692600D02*
X103764100Y-133638600D01*
X101798100Y-128692600D02*
X103764100Y-128692600D01*
X103764100Y-133638600D02*
X101798100Y-133638600D01*
X101798100Y-133638600D02*
X101798100Y-128692600D01*
%TO.C,R189*%
X122052100Y-77368600D02*
X122052100Y-80314600D01*
X120086100Y-77368600D02*
X122052100Y-77368600D01*
X122052100Y-80314600D02*
X120086100Y-80314600D01*
X120086100Y-80314600D02*
X120086100Y-77368600D01*
%TO.C,R137*%
X155392100Y-123558100D02*
X155392100Y-120612100D01*
X157358100Y-123558100D02*
X155392100Y-123558100D01*
X155392100Y-120612100D02*
X157358100Y-120612100D01*
X157358100Y-120612100D02*
X157358100Y-123558100D01*
%TO.C,R262*%
X176220100Y-40246100D02*
X176220100Y-37300100D01*
X178186100Y-40246100D02*
X176220100Y-40246100D01*
X176220100Y-37300100D02*
X178186100Y-37300100D01*
X178186100Y-37300100D02*
X178186100Y-40246100D01*
%TO.C,C111*%
X166248100Y-107864600D02*
X166248100Y-112810600D01*
X164282100Y-107864600D02*
X166248100Y-107864600D01*
X166248100Y-112810600D02*
X164282100Y-112810600D01*
X164282100Y-112810600D02*
X164282100Y-107864600D01*
%TO.C,R258*%
X157358100Y-34125100D02*
X157358100Y-37071100D01*
X155392100Y-34125100D02*
X157358100Y-34125100D01*
X157358100Y-37071100D02*
X155392100Y-37071100D01*
X155392100Y-37071100D02*
X155392100Y-34125100D01*
%TO.C,R219*%
X122052100Y-56540600D02*
X122052100Y-59486600D01*
X120086100Y-56540600D02*
X122052100Y-56540600D01*
X122052100Y-59486600D02*
X120086100Y-59486600D01*
X120086100Y-59486600D02*
X120086100Y-56540600D01*
%TO.C,R126*%
X114128400Y-125290600D02*
X111182400Y-125290600D01*
X114128400Y-123324600D02*
X114128400Y-125290600D01*
X111182400Y-125290600D02*
X111182400Y-123324600D01*
X111182400Y-123324600D02*
X114128400Y-123324600D01*
%TO.C,R242*%
X92908100Y-40246100D02*
X92908100Y-37300100D01*
X94874100Y-40246100D02*
X92908100Y-40246100D01*
X92908100Y-37300100D02*
X94874100Y-37300100D01*
X94874100Y-37300100D02*
X94874100Y-40246100D01*
%TO.C,C29*%
X113162100Y-170348600D02*
X113162100Y-175294600D01*
X111196100Y-170348600D02*
X113162100Y-170348600D01*
X113162100Y-175294600D02*
X111196100Y-175294600D01*
X111196100Y-175294600D02*
X111196100Y-170348600D01*
%TO.C,C62*%
X164282100Y-164626600D02*
X164282100Y-159680600D01*
X166248100Y-164626600D02*
X164282100Y-164626600D01*
X164282100Y-159680600D02*
X166248100Y-159680600D01*
X166248100Y-159680600D02*
X166248100Y-164626600D01*
%TO.C,R64*%
X101224100Y-160680600D02*
X101224100Y-163626600D01*
X99258100Y-160680600D02*
X101224100Y-160680600D01*
X101224100Y-163626600D02*
X99258100Y-163626600D01*
X99258100Y-163626600D02*
X99258100Y-160680600D01*
%TO.C,C240*%
X194508100Y-18830600D02*
X194508100Y-13884600D01*
X196474100Y-18830600D02*
X194508100Y-18830600D01*
X194508100Y-13884600D02*
X196474100Y-13884600D01*
X196474100Y-13884600D02*
X196474100Y-18830600D01*
%TO.C,R229*%
X163708100Y-56540600D02*
X163708100Y-59486600D01*
X161742100Y-56540600D02*
X163708100Y-56540600D01*
X163708100Y-59486600D02*
X161742100Y-59486600D01*
X161742100Y-59486600D02*
X161742100Y-56540600D01*
%TO.C,C170*%
X101798100Y-60486600D02*
X101798100Y-55540600D01*
X103764100Y-60486600D02*
X101798100Y-60486600D01*
X101798100Y-55540600D02*
X103764100Y-55540600D01*
X103764100Y-55540600D02*
X103764100Y-60486600D01*
%TO.C,R160*%
X120086100Y-90982600D02*
X120086100Y-88036600D01*
X122052100Y-90982600D02*
X120086100Y-90982600D01*
X120086100Y-88036600D02*
X122052100Y-88036600D01*
X122052100Y-88036600D02*
X122052100Y-90982600D01*
%TO.C,C71*%
X207904100Y-149520600D02*
X207904100Y-154466600D01*
X205938100Y-149520600D02*
X207904100Y-149520600D01*
X207904100Y-154466600D02*
X205938100Y-154466600D01*
X205938100Y-154466600D02*
X205938100Y-149520600D01*
%TO.C,C209*%
X175646100Y-24552600D02*
X175646100Y-29498600D01*
X173680100Y-24552600D02*
X175646100Y-24552600D01*
X175646100Y-29498600D02*
X173680100Y-29498600D01*
X173680100Y-29498600D02*
X173680100Y-24552600D01*
%TO.C,R56*%
X197440400Y-187774600D02*
X194494400Y-187774600D01*
X197440400Y-185808600D02*
X197440400Y-187774600D01*
X194494400Y-187774600D02*
X194494400Y-185808600D01*
X194494400Y-185808600D02*
X197440400Y-185808600D01*
%TO.C,R216*%
X114128400Y-62806600D02*
X111182400Y-62806600D01*
X114128400Y-60840600D02*
X114128400Y-62806600D01*
X111182400Y-62806600D02*
X111182400Y-60840600D01*
X111182400Y-60840600D02*
X114128400Y-60840600D01*
%TO.C,C139*%
X187076100Y-87036600D02*
X187076100Y-91982600D01*
X185110100Y-87036600D02*
X187076100Y-87036600D01*
X187076100Y-91982600D02*
X185110100Y-91982600D01*
X185110100Y-91982600D02*
X185110100Y-87036600D01*
%TO.C,R209*%
X205364100Y-77368600D02*
X205364100Y-80314600D01*
X203398100Y-77368600D02*
X205364100Y-77368600D01*
X205364100Y-80314600D02*
X203398100Y-80314600D01*
X203398100Y-80314600D02*
X203398100Y-77368600D01*
%TO.C,R267*%
X197048100Y-40246100D02*
X197048100Y-37300100D01*
X199014100Y-40246100D02*
X197048100Y-40246100D01*
X197048100Y-37300100D02*
X199014100Y-37300100D01*
X199014100Y-37300100D02*
X199014100Y-40246100D01*
%TO.C,R89*%
X205364100Y-160680600D02*
X205364100Y-163626600D01*
X203398100Y-160680600D02*
X205364100Y-160680600D01*
X205364100Y-163626600D02*
X203398100Y-163626600D01*
X203398100Y-163626600D02*
X203398100Y-160680600D01*
%TO.C,C181*%
X154818100Y-45380600D02*
X154818100Y-50326600D01*
X152852100Y-45380600D02*
X154818100Y-45380600D01*
X154818100Y-50326600D02*
X152852100Y-50326600D01*
X152852100Y-50326600D02*
X152852100Y-45380600D01*
%TO.C,R161*%
X134956400Y-104462600D02*
X132010400Y-104462600D01*
X134956400Y-102496600D02*
X134956400Y-104462600D01*
X132010400Y-104462600D02*
X132010400Y-102496600D01*
X132010400Y-102496600D02*
X134956400Y-102496600D01*
%TO.C,C4*%
X101798100Y-206282600D02*
X101798100Y-201336600D01*
X103764100Y-206282600D02*
X101798100Y-206282600D01*
X101798100Y-201336600D02*
X103764100Y-201336600D01*
X103764100Y-201336600D02*
X103764100Y-206282600D01*
%TO.C,R246*%
X114128400Y-41978600D02*
X111182400Y-41978600D01*
X114128400Y-40012600D02*
X114128400Y-41978600D01*
X111182400Y-41978600D02*
X111182400Y-40012600D01*
X111182400Y-40012600D02*
X114128400Y-40012600D01*
%TO.C,R5*%
X93300400Y-208602600D02*
X90354400Y-208602600D01*
X93300400Y-206636600D02*
X93300400Y-208602600D01*
X90354400Y-208602600D02*
X90354400Y-206636600D01*
X90354400Y-206636600D02*
X93300400Y-206636600D01*
%TO.C,R239*%
X205364100Y-56540600D02*
X205364100Y-59486600D01*
X203398100Y-56540600D02*
X205364100Y-56540600D01*
X205364100Y-59486600D02*
X203398100Y-59486600D01*
X203398100Y-59486600D02*
X203398100Y-56540600D01*
%TO.C,C188*%
X173680100Y-60486600D02*
X173680100Y-55540600D01*
X175646100Y-60486600D02*
X173680100Y-60486600D01*
X173680100Y-55540600D02*
X175646100Y-55540600D01*
X175646100Y-55540600D02*
X175646100Y-60486600D01*
%TO.C,R202*%
X176220100Y-81902100D02*
X176220100Y-78956100D01*
X178186100Y-81902100D02*
X176220100Y-81902100D01*
X176220100Y-78956100D02*
X178186100Y-78956100D01*
X178186100Y-78956100D02*
X178186100Y-81902100D01*
%TO.C,R15*%
X140914100Y-195122600D02*
X140914100Y-192176600D01*
X142880100Y-195122600D02*
X140914100Y-195122600D01*
X140914100Y-192176600D02*
X142880100Y-192176600D01*
X142880100Y-192176600D02*
X142880100Y-195122600D01*
%TO.C,R97*%
X113736100Y-144386100D02*
X113736100Y-141440100D01*
X115702100Y-144386100D02*
X113736100Y-144386100D01*
X113736100Y-141440100D02*
X115702100Y-141440100D01*
X115702100Y-141440100D02*
X115702100Y-144386100D01*
%TO.C,C210*%
X185110100Y-39658600D02*
X185110100Y-34712600D01*
X187076100Y-39658600D02*
X185110100Y-39658600D01*
X185110100Y-34712600D02*
X187076100Y-34712600D01*
X187076100Y-34712600D02*
X187076100Y-39658600D01*
%TO.C,C237*%
X196474100Y-3724600D02*
X196474100Y-8670600D01*
X194508100Y-3724600D02*
X196474100Y-3724600D01*
X196474100Y-8670600D02*
X194508100Y-8670600D01*
X194508100Y-8670600D02*
X194508100Y-3724600D01*
%TO.C,R299*%
X205364100Y-14884600D02*
X205364100Y-17830600D01*
X203398100Y-14884600D02*
X205364100Y-14884600D01*
X205364100Y-17830600D02*
X203398100Y-17830600D01*
X203398100Y-17830600D02*
X203398100Y-14884600D01*
%TO.C,C58*%
X143454100Y-164626600D02*
X143454100Y-159680600D01*
X145420100Y-164626600D02*
X143454100Y-164626600D01*
X143454100Y-159680600D02*
X145420100Y-159680600D01*
X145420100Y-159680600D02*
X145420100Y-164626600D01*
%TO.C,R159*%
X122052100Y-98196600D02*
X122052100Y-101142600D01*
X120086100Y-98196600D02*
X122052100Y-98196600D01*
X122052100Y-101142600D02*
X120086100Y-101142600D01*
X120086100Y-101142600D02*
X120086100Y-98196600D01*
%TO.C,C213*%
X196474100Y-24552600D02*
X196474100Y-29498600D01*
X194508100Y-24552600D02*
X196474100Y-24552600D01*
X196474100Y-29498600D02*
X194508100Y-29498600D01*
X194508100Y-29498600D02*
X194508100Y-24552600D01*
%TO.C,R260*%
X161742100Y-28498600D02*
X161742100Y-25552600D01*
X163708100Y-28498600D02*
X161742100Y-28498600D01*
X161742100Y-25552600D02*
X163708100Y-25552600D01*
X163708100Y-25552600D02*
X163708100Y-28498600D01*
%TO.C,C59*%
X145420100Y-149520600D02*
X145420100Y-154466600D01*
X143454100Y-149520600D02*
X145420100Y-149520600D01*
X145420100Y-154466600D02*
X143454100Y-154466600D01*
X143454100Y-154466600D02*
X143454100Y-149520600D01*
%TO.C,R173*%
X178186100Y-96609100D02*
X178186100Y-99555100D01*
X176220100Y-96609100D02*
X178186100Y-96609100D01*
X178186100Y-99555100D02*
X176220100Y-99555100D01*
X176220100Y-99555100D02*
X176220100Y-96609100D01*
%TO.C,R107*%
X155392100Y-144386100D02*
X155392100Y-141440100D01*
X157358100Y-144386100D02*
X155392100Y-144386100D01*
X155392100Y-141440100D02*
X157358100Y-141440100D01*
X157358100Y-141440100D02*
X157358100Y-144386100D01*
%TO.C,R207*%
X197048100Y-81902100D02*
X197048100Y-78956100D01*
X199014100Y-81902100D02*
X197048100Y-81902100D01*
X197048100Y-78956100D02*
X199014100Y-78956100D01*
X199014100Y-78956100D02*
X199014100Y-81902100D01*
%TO.C,R54*%
X184536100Y-181508600D02*
X184536100Y-184454600D01*
X182570100Y-181508600D02*
X184536100Y-181508600D01*
X184536100Y-184454600D02*
X182570100Y-184454600D01*
X182570100Y-184454600D02*
X182570100Y-181508600D01*
%TO.C,C235*%
X187076100Y-3724600D02*
X187076100Y-8670600D01*
X185110100Y-3724600D02*
X187076100Y-3724600D01*
X187076100Y-8670600D02*
X185110100Y-8670600D01*
X185110100Y-8670600D02*
X185110100Y-3724600D01*
%TO.C,C120*%
X194508100Y-122970600D02*
X194508100Y-118024600D01*
X196474100Y-122970600D02*
X194508100Y-122970600D01*
X194508100Y-118024600D02*
X196474100Y-118024600D01*
X196474100Y-118024600D02*
X196474100Y-122970600D01*
%TO.C,R45*%
X140914100Y-174294600D02*
X140914100Y-171348600D01*
X142880100Y-174294600D02*
X140914100Y-174294600D01*
X140914100Y-171348600D02*
X142880100Y-171348600D01*
X142880100Y-171348600D02*
X142880100Y-174294600D01*
%TO.C,R46*%
X155784400Y-187774600D02*
X152838400Y-187774600D01*
X155784400Y-185808600D02*
X155784400Y-187774600D01*
X152838400Y-187774600D02*
X152838400Y-185808600D01*
X152838400Y-185808600D02*
X155784400Y-185808600D01*
%TO.C,C205*%
X154818100Y-24552600D02*
X154818100Y-29498600D01*
X152852100Y-24552600D02*
X154818100Y-24552600D01*
X154818100Y-29498600D02*
X152852100Y-29498600D01*
X152852100Y-29498600D02*
X152852100Y-24552600D01*
%TO.C,R82*%
X176220100Y-165214100D02*
X176220100Y-162268100D01*
X178186100Y-165214100D02*
X176220100Y-165214100D01*
X176220100Y-162268100D02*
X178186100Y-162268100D01*
X178186100Y-162268100D02*
X178186100Y-165214100D01*
%TO.C,R139*%
X163708100Y-119024600D02*
X163708100Y-121970600D01*
X161742100Y-119024600D02*
X163708100Y-119024600D01*
X163708100Y-121970600D02*
X161742100Y-121970600D01*
X161742100Y-121970600D02*
X161742100Y-119024600D01*
%TO.C,R245*%
X99258100Y-28498600D02*
X99258100Y-25552600D01*
X101224100Y-28498600D02*
X99258100Y-28498600D01*
X99258100Y-25552600D02*
X101224100Y-25552600D01*
X101224100Y-25552600D02*
X101224100Y-28498600D01*
%TO.C,R171*%
X176612400Y-104462600D02*
X173666400Y-104462600D01*
X176612400Y-102496600D02*
X176612400Y-104462600D01*
X173666400Y-104462600D02*
X173666400Y-102496600D01*
X173666400Y-102496600D02*
X176612400Y-102496600D01*
%TO.C,C2*%
X90368100Y-206282600D02*
X90368100Y-201336600D01*
X92334100Y-206282600D02*
X90368100Y-206282600D01*
X90368100Y-201336600D02*
X92334100Y-201336600D01*
X92334100Y-201336600D02*
X92334100Y-206282600D01*
%TO.C,R153*%
X94874100Y-96609100D02*
X94874100Y-99555100D01*
X92908100Y-96609100D02*
X94874100Y-96609100D01*
X94874100Y-99555100D02*
X92908100Y-99555100D01*
X92908100Y-99555100D02*
X92908100Y-96609100D01*
%TO.C,R179*%
X205364100Y-98196600D02*
X205364100Y-101142600D01*
X203398100Y-98196600D02*
X205364100Y-98196600D01*
X205364100Y-101142600D02*
X203398100Y-101142600D01*
X203398100Y-101142600D02*
X203398100Y-98196600D01*
%TO.C,R174*%
X184536100Y-98196600D02*
X184536100Y-101142600D01*
X182570100Y-98196600D02*
X184536100Y-98196600D01*
X184536100Y-101142600D02*
X182570100Y-101142600D01*
X182570100Y-101142600D02*
X182570100Y-98196600D01*
%TO.C,C61*%
X154818100Y-149520600D02*
X154818100Y-154466600D01*
X152852100Y-149520600D02*
X154818100Y-149520600D01*
X154818100Y-154466600D02*
X152852100Y-154466600D01*
X152852100Y-154466600D02*
X152852100Y-149520600D01*
%TO.C,R122*%
X92908100Y-123558100D02*
X92908100Y-120612100D01*
X94874100Y-123558100D02*
X92908100Y-123558100D01*
X92908100Y-120612100D02*
X94874100Y-120612100D01*
X94874100Y-120612100D02*
X94874100Y-123558100D01*
%TD*%
M02*
