%TF.GenerationSoftware,KiCad,Pcbnew,7.0.6-7.0.6~ubuntu22.04.1*%
%TF.CreationDate,2023-08-07T16:13:10+01:00*%
%TF.ProjectId,working,776f726b-696e-4672-9e6b-696361645f70,rev?*%
%TF.SameCoordinates,Original*%
%TF.FileFunction,Paste,Top*%
%TF.FilePolarity,Positive*%
%FSLAX46Y46*%
G04 Gerber Fmt 4.6, Leading zero omitted, Abs format (unit mm)*
G04 Created by KiCad (PCBNEW 7.0.6-7.0.6~ubuntu22.04.1) date 2023-08-07 16:13:10*
%MOMM*%
%LPD*%
G01*
G04 APERTURE LIST*
G04 Aperture macros list*
%AMRoundRect*
0 Rectangle with rounded corners*
0 $1 Rounding radius*
0 $2 $3 $4 $5 $6 $7 $8 $9 X,Y pos of 4 corners*
0 Add a 4 corners polygon primitive as box body*
4,1,4,$2,$3,$4,$5,$6,$7,$8,$9,$2,$3,0*
0 Add four circle primitives for the rounded corners*
1,1,$1+$1,$2,$3*
1,1,$1+$1,$4,$5*
1,1,$1+$1,$6,$7*
1,1,$1+$1,$8,$9*
0 Add four rect primitives between the rounded corners*
20,1,$1+$1,$2,$3,$4,$5,0*
20,1,$1+$1,$4,$5,$6,$7,0*
20,1,$1+$1,$6,$7,$8,$9,0*
20,1,$1+$1,$8,$9,$2,$3,0*%
G04 Aperture macros list end*
%ADD10RoundRect,0.050800X0.249200X0.249200X-0.249200X0.249200X-0.249200X-0.249200X0.249200X-0.249200X0*%
%ADD11RoundRect,0.050800X-0.249200X-0.249200X0.249200X-0.249200X0.249200X0.249200X-0.249200X0.249200X0*%
%ADD12RoundRect,0.050800X0.249200X-0.249200X0.249200X0.249200X-0.249200X0.249200X-0.249200X-0.249200X0*%
%ADD13RoundRect,0.050800X-0.449200X-2.249200X0.449200X-2.249200X0.449200X2.249200X-0.449200X2.249200X0*%
%ADD14RoundRect,0.050800X0.749200X-1.649200X0.749200X1.649200X-0.749200X1.649200X-0.749200X-1.649200X0*%
G04 APERTURE END LIST*
%TO.C,U2*%
G36*
X111541562Y-194657979D02*
G01*
X111277400Y-194657979D01*
X111277400Y-193903604D01*
X111541562Y-193903604D01*
X111541562Y-194657979D01*
G37*
G36*
X111046263Y-194657979D02*
G01*
X110782100Y-194657979D01*
X110782100Y-193903604D01*
X111046263Y-193903604D01*
X111046263Y-194657979D01*
G37*
G36*
X110543344Y-194657979D02*
G01*
X110279182Y-194657979D01*
X110279182Y-193903604D01*
X110543344Y-193903604D01*
X110543344Y-194657979D01*
G37*
G36*
X112044481Y-194660519D02*
G01*
X111780318Y-194660519D01*
X111780318Y-193906141D01*
X112044481Y-193906141D01*
X112044481Y-194660519D01*
G37*
G36*
X111493300Y-196011800D02*
G01*
X110832900Y-196011800D01*
X110832900Y-195351400D01*
X111493300Y-195351400D01*
X111493300Y-196011800D01*
G37*
G36*
X112044481Y-197457059D02*
G01*
X111780318Y-197457059D01*
X111780318Y-196702684D01*
X112044481Y-196702684D01*
X112044481Y-197457059D01*
G37*
G36*
X111546640Y-197459600D02*
G01*
X111282478Y-197459600D01*
X111282478Y-196705225D01*
X111546640Y-196705225D01*
X111546640Y-197459600D01*
G37*
G36*
X111046260Y-197459600D02*
G01*
X110782097Y-197459600D01*
X110782097Y-196705225D01*
X111046260Y-196705225D01*
X111046260Y-197459600D01*
G37*
G36*
X110545879Y-197462140D02*
G01*
X110281716Y-197462140D01*
X110281716Y-196707765D01*
X110545879Y-196707765D01*
X110545879Y-197462140D01*
G37*
%TO.C,U63*%
G36*
X175549562Y-22191979D02*
G01*
X175285400Y-22191979D01*
X175285400Y-21437604D01*
X175549562Y-21437604D01*
X175549562Y-22191979D01*
G37*
G36*
X175054263Y-22191979D02*
G01*
X174790100Y-22191979D01*
X174790100Y-21437604D01*
X175054263Y-21437604D01*
X175054263Y-22191979D01*
G37*
G36*
X174551344Y-22191979D02*
G01*
X174287182Y-22191979D01*
X174287182Y-21437604D01*
X174551344Y-21437604D01*
X174551344Y-22191979D01*
G37*
G36*
X176052481Y-22194519D02*
G01*
X175788318Y-22194519D01*
X175788318Y-21440141D01*
X176052481Y-21440141D01*
X176052481Y-22194519D01*
G37*
G36*
X175501300Y-23545800D02*
G01*
X174840900Y-23545800D01*
X174840900Y-22885400D01*
X175501300Y-22885400D01*
X175501300Y-23545800D01*
G37*
G36*
X176052481Y-24991059D02*
G01*
X175788318Y-24991059D01*
X175788318Y-24236684D01*
X176052481Y-24236684D01*
X176052481Y-24991059D01*
G37*
G36*
X175554640Y-24993600D02*
G01*
X175290478Y-24993600D01*
X175290478Y-24239225D01*
X175554640Y-24239225D01*
X175554640Y-24993600D01*
G37*
G36*
X175054260Y-24993600D02*
G01*
X174790097Y-24993600D01*
X174790097Y-24239225D01*
X175054260Y-24239225D01*
X175054260Y-24993600D01*
G37*
G36*
X174553879Y-24996140D02*
G01*
X174289716Y-24996140D01*
X174289716Y-24241765D01*
X174553879Y-24241765D01*
X174553879Y-24996140D01*
G37*
%TO.C,U64*%
G36*
X186217562Y-22191979D02*
G01*
X185953400Y-22191979D01*
X185953400Y-21437604D01*
X186217562Y-21437604D01*
X186217562Y-22191979D01*
G37*
G36*
X185722263Y-22191979D02*
G01*
X185458100Y-22191979D01*
X185458100Y-21437604D01*
X185722263Y-21437604D01*
X185722263Y-22191979D01*
G37*
G36*
X185219344Y-22191979D02*
G01*
X184955182Y-22191979D01*
X184955182Y-21437604D01*
X185219344Y-21437604D01*
X185219344Y-22191979D01*
G37*
G36*
X186720481Y-22194519D02*
G01*
X186456318Y-22194519D01*
X186456318Y-21440141D01*
X186720481Y-21440141D01*
X186720481Y-22194519D01*
G37*
G36*
X186169300Y-23545800D02*
G01*
X185508900Y-23545800D01*
X185508900Y-22885400D01*
X186169300Y-22885400D01*
X186169300Y-23545800D01*
G37*
G36*
X186720481Y-24991059D02*
G01*
X186456318Y-24991059D01*
X186456318Y-24236684D01*
X186720481Y-24236684D01*
X186720481Y-24991059D01*
G37*
G36*
X186222640Y-24993600D02*
G01*
X185958478Y-24993600D01*
X185958478Y-24239225D01*
X186222640Y-24239225D01*
X186222640Y-24993600D01*
G37*
G36*
X185722260Y-24993600D02*
G01*
X185458097Y-24993600D01*
X185458097Y-24239225D01*
X185722260Y-24239225D01*
X185722260Y-24993600D01*
G37*
G36*
X185221879Y-24996140D02*
G01*
X184957716Y-24996140D01*
X184957716Y-24241765D01*
X185221879Y-24241765D01*
X185221879Y-24996140D01*
G37*
%TO.C,U26*%
G36*
X122209562Y-120743979D02*
G01*
X121945400Y-120743979D01*
X121945400Y-119989604D01*
X122209562Y-119989604D01*
X122209562Y-120743979D01*
G37*
G36*
X121714263Y-120743979D02*
G01*
X121450100Y-120743979D01*
X121450100Y-119989604D01*
X121714263Y-119989604D01*
X121714263Y-120743979D01*
G37*
G36*
X121211344Y-120743979D02*
G01*
X120947182Y-120743979D01*
X120947182Y-119989604D01*
X121211344Y-119989604D01*
X121211344Y-120743979D01*
G37*
G36*
X122712481Y-120746519D02*
G01*
X122448318Y-120746519D01*
X122448318Y-119992141D01*
X122712481Y-119992141D01*
X122712481Y-120746519D01*
G37*
G36*
X122161300Y-122097800D02*
G01*
X121500900Y-122097800D01*
X121500900Y-121437400D01*
X122161300Y-121437400D01*
X122161300Y-122097800D01*
G37*
G36*
X122712481Y-123543059D02*
G01*
X122448318Y-123543059D01*
X122448318Y-122788684D01*
X122712481Y-122788684D01*
X122712481Y-123543059D01*
G37*
G36*
X122214640Y-123545600D02*
G01*
X121950478Y-123545600D01*
X121950478Y-122791225D01*
X122214640Y-122791225D01*
X122214640Y-123545600D01*
G37*
G36*
X121714260Y-123545600D02*
G01*
X121450097Y-123545600D01*
X121450097Y-122791225D01*
X121714260Y-122791225D01*
X121714260Y-123545600D01*
G37*
G36*
X121213879Y-123548140D02*
G01*
X120949716Y-123548140D01*
X120949716Y-122793765D01*
X121213879Y-122793765D01*
X121213879Y-123548140D01*
G37*
%TO.C,U6*%
G36*
X164881562Y-194657979D02*
G01*
X164617400Y-194657979D01*
X164617400Y-193903604D01*
X164881562Y-193903604D01*
X164881562Y-194657979D01*
G37*
G36*
X164386263Y-194657979D02*
G01*
X164122100Y-194657979D01*
X164122100Y-193903604D01*
X164386263Y-193903604D01*
X164386263Y-194657979D01*
G37*
G36*
X163883344Y-194657979D02*
G01*
X163619182Y-194657979D01*
X163619182Y-193903604D01*
X163883344Y-193903604D01*
X163883344Y-194657979D01*
G37*
G36*
X165384481Y-194660519D02*
G01*
X165120318Y-194660519D01*
X165120318Y-193906141D01*
X165384481Y-193906141D01*
X165384481Y-194660519D01*
G37*
G36*
X164833300Y-196011800D02*
G01*
X164172900Y-196011800D01*
X164172900Y-195351400D01*
X164833300Y-195351400D01*
X164833300Y-196011800D01*
G37*
G36*
X165384481Y-197457059D02*
G01*
X165120318Y-197457059D01*
X165120318Y-196702684D01*
X165384481Y-196702684D01*
X165384481Y-197457059D01*
G37*
G36*
X164886640Y-197459600D02*
G01*
X164622478Y-197459600D01*
X164622478Y-196705225D01*
X164886640Y-196705225D01*
X164886640Y-197459600D01*
G37*
G36*
X164386260Y-197459600D02*
G01*
X164122097Y-197459600D01*
X164122097Y-196705225D01*
X164386260Y-196705225D01*
X164386260Y-197459600D01*
G37*
G36*
X163885879Y-197462140D02*
G01*
X163621716Y-197462140D01*
X163621716Y-196707765D01*
X163885879Y-196707765D01*
X163885879Y-197462140D01*
G37*
%TO.C,U3*%
G36*
X132877562Y-194657979D02*
G01*
X132613400Y-194657979D01*
X132613400Y-193903604D01*
X132877562Y-193903604D01*
X132877562Y-194657979D01*
G37*
G36*
X132382263Y-194657979D02*
G01*
X132118100Y-194657979D01*
X132118100Y-193903604D01*
X132382263Y-193903604D01*
X132382263Y-194657979D01*
G37*
G36*
X131879344Y-194657979D02*
G01*
X131615182Y-194657979D01*
X131615182Y-193903604D01*
X131879344Y-193903604D01*
X131879344Y-194657979D01*
G37*
G36*
X133380481Y-194660519D02*
G01*
X133116318Y-194660519D01*
X133116318Y-193906141D01*
X133380481Y-193906141D01*
X133380481Y-194660519D01*
G37*
G36*
X132829300Y-196011800D02*
G01*
X132168900Y-196011800D01*
X132168900Y-195351400D01*
X132829300Y-195351400D01*
X132829300Y-196011800D01*
G37*
G36*
X133380481Y-197457059D02*
G01*
X133116318Y-197457059D01*
X133116318Y-196702684D01*
X133380481Y-196702684D01*
X133380481Y-197457059D01*
G37*
G36*
X132882640Y-197459600D02*
G01*
X132618478Y-197459600D01*
X132618478Y-196705225D01*
X132882640Y-196705225D01*
X132882640Y-197459600D01*
G37*
G36*
X132382260Y-197459600D02*
G01*
X132118097Y-197459600D01*
X132118097Y-196705225D01*
X132382260Y-196705225D01*
X132382260Y-197459600D01*
G37*
G36*
X131881879Y-197462140D02*
G01*
X131617716Y-197462140D01*
X131617716Y-196707765D01*
X131881879Y-196707765D01*
X131881879Y-197462140D01*
G37*
%TO.C,U33*%
G36*
X111541562Y-96105979D02*
G01*
X111277400Y-96105979D01*
X111277400Y-95351604D01*
X111541562Y-95351604D01*
X111541562Y-96105979D01*
G37*
G36*
X111046263Y-96105979D02*
G01*
X110782100Y-96105979D01*
X110782100Y-95351604D01*
X111046263Y-95351604D01*
X111046263Y-96105979D01*
G37*
G36*
X110543344Y-96105979D02*
G01*
X110279182Y-96105979D01*
X110279182Y-95351604D01*
X110543344Y-95351604D01*
X110543344Y-96105979D01*
G37*
G36*
X112044481Y-96108519D02*
G01*
X111780318Y-96108519D01*
X111780318Y-95354141D01*
X112044481Y-95354141D01*
X112044481Y-96108519D01*
G37*
G36*
X111493300Y-97459800D02*
G01*
X110832900Y-97459800D01*
X110832900Y-96799400D01*
X111493300Y-96799400D01*
X111493300Y-97459800D01*
G37*
G36*
X112044481Y-98905059D02*
G01*
X111780318Y-98905059D01*
X111780318Y-98150684D01*
X112044481Y-98150684D01*
X112044481Y-98905059D01*
G37*
G36*
X111546640Y-98907600D02*
G01*
X111282478Y-98907600D01*
X111282478Y-98153225D01*
X111546640Y-98153225D01*
X111546640Y-98907600D01*
G37*
G36*
X111046260Y-98907600D02*
G01*
X110782097Y-98907600D01*
X110782097Y-98153225D01*
X111046260Y-98153225D01*
X111046260Y-98907600D01*
G37*
G36*
X110545879Y-98910140D02*
G01*
X110281716Y-98910140D01*
X110281716Y-98155765D01*
X110545879Y-98155765D01*
X110545879Y-98910140D01*
G37*
%TO.C,U7*%
G36*
X175549562Y-194657979D02*
G01*
X175285400Y-194657979D01*
X175285400Y-193903604D01*
X175549562Y-193903604D01*
X175549562Y-194657979D01*
G37*
G36*
X175054263Y-194657979D02*
G01*
X174790100Y-194657979D01*
X174790100Y-193903604D01*
X175054263Y-193903604D01*
X175054263Y-194657979D01*
G37*
G36*
X174551344Y-194657979D02*
G01*
X174287182Y-194657979D01*
X174287182Y-193903604D01*
X174551344Y-193903604D01*
X174551344Y-194657979D01*
G37*
G36*
X176052481Y-194660519D02*
G01*
X175788318Y-194660519D01*
X175788318Y-193906141D01*
X176052481Y-193906141D01*
X176052481Y-194660519D01*
G37*
G36*
X175501300Y-196011800D02*
G01*
X174840900Y-196011800D01*
X174840900Y-195351400D01*
X175501300Y-195351400D01*
X175501300Y-196011800D01*
G37*
G36*
X176052481Y-197457059D02*
G01*
X175788318Y-197457059D01*
X175788318Y-196702684D01*
X176052481Y-196702684D01*
X176052481Y-197457059D01*
G37*
G36*
X175554640Y-197459600D02*
G01*
X175290478Y-197459600D01*
X175290478Y-196705225D01*
X175554640Y-196705225D01*
X175554640Y-197459600D01*
G37*
G36*
X175054260Y-197459600D02*
G01*
X174790097Y-197459600D01*
X174790097Y-196705225D01*
X175054260Y-196705225D01*
X175054260Y-197459600D01*
G37*
G36*
X174553879Y-197462140D02*
G01*
X174289716Y-197462140D01*
X174289716Y-196707765D01*
X174553879Y-196707765D01*
X174553879Y-197462140D01*
G37*
%TO.C,U27*%
G36*
X132877562Y-120743979D02*
G01*
X132613400Y-120743979D01*
X132613400Y-119989604D01*
X132877562Y-119989604D01*
X132877562Y-120743979D01*
G37*
G36*
X132382263Y-120743979D02*
G01*
X132118100Y-120743979D01*
X132118100Y-119989604D01*
X132382263Y-119989604D01*
X132382263Y-120743979D01*
G37*
G36*
X131879344Y-120743979D02*
G01*
X131615182Y-120743979D01*
X131615182Y-119989604D01*
X131879344Y-119989604D01*
X131879344Y-120743979D01*
G37*
G36*
X133380481Y-120746519D02*
G01*
X133116318Y-120746519D01*
X133116318Y-119992141D01*
X133380481Y-119992141D01*
X133380481Y-120746519D01*
G37*
G36*
X132829300Y-122097800D02*
G01*
X132168900Y-122097800D01*
X132168900Y-121437400D01*
X132829300Y-121437400D01*
X132829300Y-122097800D01*
G37*
G36*
X133380481Y-123543059D02*
G01*
X133116318Y-123543059D01*
X133116318Y-122788684D01*
X133380481Y-122788684D01*
X133380481Y-123543059D01*
G37*
G36*
X132882640Y-123545600D02*
G01*
X132618478Y-123545600D01*
X132618478Y-122791225D01*
X132882640Y-122791225D01*
X132882640Y-123545600D01*
G37*
G36*
X132382260Y-123545600D02*
G01*
X132118097Y-123545600D01*
X132118097Y-122791225D01*
X132382260Y-122791225D01*
X132382260Y-123545600D01*
G37*
G36*
X131881879Y-123548140D02*
G01*
X131617716Y-123548140D01*
X131617716Y-122793765D01*
X131881879Y-122793765D01*
X131881879Y-123548140D01*
G37*
%TO.C,U22*%
G36*
X164881562Y-145381979D02*
G01*
X164617400Y-145381979D01*
X164617400Y-144627604D01*
X164881562Y-144627604D01*
X164881562Y-145381979D01*
G37*
G36*
X164386263Y-145381979D02*
G01*
X164122100Y-145381979D01*
X164122100Y-144627604D01*
X164386263Y-144627604D01*
X164386263Y-145381979D01*
G37*
G36*
X163883344Y-145381979D02*
G01*
X163619182Y-145381979D01*
X163619182Y-144627604D01*
X163883344Y-144627604D01*
X163883344Y-145381979D01*
G37*
G36*
X165384481Y-145384519D02*
G01*
X165120318Y-145384519D01*
X165120318Y-144630141D01*
X165384481Y-144630141D01*
X165384481Y-145384519D01*
G37*
G36*
X164833300Y-146735800D02*
G01*
X164172900Y-146735800D01*
X164172900Y-146075400D01*
X164833300Y-146075400D01*
X164833300Y-146735800D01*
G37*
G36*
X165384481Y-148181059D02*
G01*
X165120318Y-148181059D01*
X165120318Y-147426684D01*
X165384481Y-147426684D01*
X165384481Y-148181059D01*
G37*
G36*
X164886640Y-148183600D02*
G01*
X164622478Y-148183600D01*
X164622478Y-147429225D01*
X164886640Y-147429225D01*
X164886640Y-148183600D01*
G37*
G36*
X164386260Y-148183600D02*
G01*
X164122097Y-148183600D01*
X164122097Y-147429225D01*
X164386260Y-147429225D01*
X164386260Y-148183600D01*
G37*
G36*
X163885879Y-148186140D02*
G01*
X163621716Y-148186140D01*
X163621716Y-147431765D01*
X163885879Y-147431765D01*
X163885879Y-148186140D01*
G37*
%TO.C,U47*%
G36*
X175549562Y-71467979D02*
G01*
X175285400Y-71467979D01*
X175285400Y-70713604D01*
X175549562Y-70713604D01*
X175549562Y-71467979D01*
G37*
G36*
X175054263Y-71467979D02*
G01*
X174790100Y-71467979D01*
X174790100Y-70713604D01*
X175054263Y-70713604D01*
X175054263Y-71467979D01*
G37*
G36*
X174551344Y-71467979D02*
G01*
X174287182Y-71467979D01*
X174287182Y-70713604D01*
X174551344Y-70713604D01*
X174551344Y-71467979D01*
G37*
G36*
X176052481Y-71470519D02*
G01*
X175788318Y-71470519D01*
X175788318Y-70716141D01*
X176052481Y-70716141D01*
X176052481Y-71470519D01*
G37*
G36*
X175501300Y-72821800D02*
G01*
X174840900Y-72821800D01*
X174840900Y-72161400D01*
X175501300Y-72161400D01*
X175501300Y-72821800D01*
G37*
G36*
X176052481Y-74267059D02*
G01*
X175788318Y-74267059D01*
X175788318Y-73512684D01*
X176052481Y-73512684D01*
X176052481Y-74267059D01*
G37*
G36*
X175554640Y-74269600D02*
G01*
X175290478Y-74269600D01*
X175290478Y-73515225D01*
X175554640Y-73515225D01*
X175554640Y-74269600D01*
G37*
G36*
X175054260Y-74269600D02*
G01*
X174790097Y-74269600D01*
X174790097Y-73515225D01*
X175054260Y-73515225D01*
X175054260Y-74269600D01*
G37*
G36*
X174553879Y-74272140D02*
G01*
X174289716Y-74272140D01*
X174289716Y-73517765D01*
X174553879Y-73517765D01*
X174553879Y-74272140D01*
G37*
%TO.C,U30*%
G36*
X164881562Y-120743979D02*
G01*
X164617400Y-120743979D01*
X164617400Y-119989604D01*
X164881562Y-119989604D01*
X164881562Y-120743979D01*
G37*
G36*
X164386263Y-120743979D02*
G01*
X164122100Y-120743979D01*
X164122100Y-119989604D01*
X164386263Y-119989604D01*
X164386263Y-120743979D01*
G37*
G36*
X163883344Y-120743979D02*
G01*
X163619182Y-120743979D01*
X163619182Y-119989604D01*
X163883344Y-119989604D01*
X163883344Y-120743979D01*
G37*
G36*
X165384481Y-120746519D02*
G01*
X165120318Y-120746519D01*
X165120318Y-119992141D01*
X165384481Y-119992141D01*
X165384481Y-120746519D01*
G37*
G36*
X164833300Y-122097800D02*
G01*
X164172900Y-122097800D01*
X164172900Y-121437400D01*
X164833300Y-121437400D01*
X164833300Y-122097800D01*
G37*
G36*
X165384481Y-123543059D02*
G01*
X165120318Y-123543059D01*
X165120318Y-122788684D01*
X165384481Y-122788684D01*
X165384481Y-123543059D01*
G37*
G36*
X164886640Y-123545600D02*
G01*
X164622478Y-123545600D01*
X164622478Y-122791225D01*
X164886640Y-122791225D01*
X164886640Y-123545600D01*
G37*
G36*
X164386260Y-123545600D02*
G01*
X164122097Y-123545600D01*
X164122097Y-122791225D01*
X164386260Y-122791225D01*
X164386260Y-123545600D01*
G37*
G36*
X163885879Y-123548140D02*
G01*
X163621716Y-123548140D01*
X163621716Y-122793765D01*
X163885879Y-122793765D01*
X163885879Y-123548140D01*
G37*
%TO.C,U42*%
G36*
X122209562Y-71467979D02*
G01*
X121945400Y-71467979D01*
X121945400Y-70713604D01*
X122209562Y-70713604D01*
X122209562Y-71467979D01*
G37*
G36*
X121714263Y-71467979D02*
G01*
X121450100Y-71467979D01*
X121450100Y-70713604D01*
X121714263Y-70713604D01*
X121714263Y-71467979D01*
G37*
G36*
X121211344Y-71467979D02*
G01*
X120947182Y-71467979D01*
X120947182Y-70713604D01*
X121211344Y-70713604D01*
X121211344Y-71467979D01*
G37*
G36*
X122712481Y-71470519D02*
G01*
X122448318Y-71470519D01*
X122448318Y-70716141D01*
X122712481Y-70716141D01*
X122712481Y-71470519D01*
G37*
G36*
X122161300Y-72821800D02*
G01*
X121500900Y-72821800D01*
X121500900Y-72161400D01*
X122161300Y-72161400D01*
X122161300Y-72821800D01*
G37*
G36*
X122712481Y-74267059D02*
G01*
X122448318Y-74267059D01*
X122448318Y-73512684D01*
X122712481Y-73512684D01*
X122712481Y-74267059D01*
G37*
G36*
X122214640Y-74269600D02*
G01*
X121950478Y-74269600D01*
X121950478Y-73515225D01*
X122214640Y-73515225D01*
X122214640Y-74269600D01*
G37*
G36*
X121714260Y-74269600D02*
G01*
X121450097Y-74269600D01*
X121450097Y-73515225D01*
X121714260Y-73515225D01*
X121714260Y-74269600D01*
G37*
G36*
X121213879Y-74272140D02*
G01*
X120949716Y-74272140D01*
X120949716Y-73517765D01*
X121213879Y-73517765D01*
X121213879Y-74272140D01*
G37*
%TO.C,U39*%
G36*
X175549562Y-96105979D02*
G01*
X175285400Y-96105979D01*
X175285400Y-95351604D01*
X175549562Y-95351604D01*
X175549562Y-96105979D01*
G37*
G36*
X175054263Y-96105979D02*
G01*
X174790100Y-96105979D01*
X174790100Y-95351604D01*
X175054263Y-95351604D01*
X175054263Y-96105979D01*
G37*
G36*
X174551344Y-96105979D02*
G01*
X174287182Y-96105979D01*
X174287182Y-95351604D01*
X174551344Y-95351604D01*
X174551344Y-96105979D01*
G37*
G36*
X176052481Y-96108519D02*
G01*
X175788318Y-96108519D01*
X175788318Y-95354141D01*
X176052481Y-95354141D01*
X176052481Y-96108519D01*
G37*
G36*
X175501300Y-97459800D02*
G01*
X174840900Y-97459800D01*
X174840900Y-96799400D01*
X175501300Y-96799400D01*
X175501300Y-97459800D01*
G37*
G36*
X176052481Y-98905059D02*
G01*
X175788318Y-98905059D01*
X175788318Y-98150684D01*
X176052481Y-98150684D01*
X176052481Y-98905059D01*
G37*
G36*
X175554640Y-98907600D02*
G01*
X175290478Y-98907600D01*
X175290478Y-98153225D01*
X175554640Y-98153225D01*
X175554640Y-98907600D01*
G37*
G36*
X175054260Y-98907600D02*
G01*
X174790097Y-98907600D01*
X174790097Y-98153225D01*
X175054260Y-98153225D01*
X175054260Y-98907600D01*
G37*
G36*
X174553879Y-98910140D02*
G01*
X174289716Y-98910140D01*
X174289716Y-98155765D01*
X174553879Y-98155765D01*
X174553879Y-98910140D01*
G37*
%TO.C,U18*%
G36*
X122209562Y-145381979D02*
G01*
X121945400Y-145381979D01*
X121945400Y-144627604D01*
X122209562Y-144627604D01*
X122209562Y-145381979D01*
G37*
G36*
X121714263Y-145381979D02*
G01*
X121450100Y-145381979D01*
X121450100Y-144627604D01*
X121714263Y-144627604D01*
X121714263Y-145381979D01*
G37*
G36*
X121211344Y-145381979D02*
G01*
X120947182Y-145381979D01*
X120947182Y-144627604D01*
X121211344Y-144627604D01*
X121211344Y-145381979D01*
G37*
G36*
X122712481Y-145384519D02*
G01*
X122448318Y-145384519D01*
X122448318Y-144630141D01*
X122712481Y-144630141D01*
X122712481Y-145384519D01*
G37*
G36*
X122161300Y-146735800D02*
G01*
X121500900Y-146735800D01*
X121500900Y-146075400D01*
X122161300Y-146075400D01*
X122161300Y-146735800D01*
G37*
G36*
X122712481Y-148181059D02*
G01*
X122448318Y-148181059D01*
X122448318Y-147426684D01*
X122712481Y-147426684D01*
X122712481Y-148181059D01*
G37*
G36*
X122214640Y-148183600D02*
G01*
X121950478Y-148183600D01*
X121950478Y-147429225D01*
X122214640Y-147429225D01*
X122214640Y-148183600D01*
G37*
G36*
X121714260Y-148183600D02*
G01*
X121450097Y-148183600D01*
X121450097Y-147429225D01*
X121714260Y-147429225D01*
X121714260Y-148183600D01*
G37*
G36*
X121213879Y-148186140D02*
G01*
X120949716Y-148186140D01*
X120949716Y-147431765D01*
X121213879Y-147431765D01*
X121213879Y-148186140D01*
G37*
%TO.C,U24*%
G36*
X186217562Y-145381979D02*
G01*
X185953400Y-145381979D01*
X185953400Y-144627604D01*
X186217562Y-144627604D01*
X186217562Y-145381979D01*
G37*
G36*
X185722263Y-145381979D02*
G01*
X185458100Y-145381979D01*
X185458100Y-144627604D01*
X185722263Y-144627604D01*
X185722263Y-145381979D01*
G37*
G36*
X185219344Y-145381979D02*
G01*
X184955182Y-145381979D01*
X184955182Y-144627604D01*
X185219344Y-144627604D01*
X185219344Y-145381979D01*
G37*
G36*
X186720481Y-145384519D02*
G01*
X186456318Y-145384519D01*
X186456318Y-144630141D01*
X186720481Y-144630141D01*
X186720481Y-145384519D01*
G37*
G36*
X186169300Y-146735800D02*
G01*
X185508900Y-146735800D01*
X185508900Y-146075400D01*
X186169300Y-146075400D01*
X186169300Y-146735800D01*
G37*
G36*
X186720481Y-148181059D02*
G01*
X186456318Y-148181059D01*
X186456318Y-147426684D01*
X186720481Y-147426684D01*
X186720481Y-148181059D01*
G37*
G36*
X186222640Y-148183600D02*
G01*
X185958478Y-148183600D01*
X185958478Y-147429225D01*
X186222640Y-147429225D01*
X186222640Y-148183600D01*
G37*
G36*
X185722260Y-148183600D02*
G01*
X185458097Y-148183600D01*
X185458097Y-147429225D01*
X185722260Y-147429225D01*
X185722260Y-148183600D01*
G37*
G36*
X185221879Y-148186140D02*
G01*
X184957716Y-148186140D01*
X184957716Y-147431765D01*
X185221879Y-147431765D01*
X185221879Y-148186140D01*
G37*
%TO.C,U52*%
G36*
X143545562Y-46829979D02*
G01*
X143281400Y-46829979D01*
X143281400Y-46075604D01*
X143545562Y-46075604D01*
X143545562Y-46829979D01*
G37*
G36*
X143050263Y-46829979D02*
G01*
X142786100Y-46829979D01*
X142786100Y-46075604D01*
X143050263Y-46075604D01*
X143050263Y-46829979D01*
G37*
G36*
X142547344Y-46829979D02*
G01*
X142283182Y-46829979D01*
X142283182Y-46075604D01*
X142547344Y-46075604D01*
X142547344Y-46829979D01*
G37*
G36*
X144048481Y-46832519D02*
G01*
X143784318Y-46832519D01*
X143784318Y-46078141D01*
X144048481Y-46078141D01*
X144048481Y-46832519D01*
G37*
G36*
X143497300Y-48183800D02*
G01*
X142836900Y-48183800D01*
X142836900Y-47523400D01*
X143497300Y-47523400D01*
X143497300Y-48183800D01*
G37*
G36*
X144048481Y-49629059D02*
G01*
X143784318Y-49629059D01*
X143784318Y-48874684D01*
X144048481Y-48874684D01*
X144048481Y-49629059D01*
G37*
G36*
X143550640Y-49631600D02*
G01*
X143286478Y-49631600D01*
X143286478Y-48877225D01*
X143550640Y-48877225D01*
X143550640Y-49631600D01*
G37*
G36*
X143050260Y-49631600D02*
G01*
X142786097Y-49631600D01*
X142786097Y-48877225D01*
X143050260Y-48877225D01*
X143050260Y-49631600D01*
G37*
G36*
X142549879Y-49634140D02*
G01*
X142285716Y-49634140D01*
X142285716Y-48879765D01*
X142549879Y-48879765D01*
X142549879Y-49634140D01*
G37*
%TO.C,U36*%
G36*
X143545562Y-96105979D02*
G01*
X143281400Y-96105979D01*
X143281400Y-95351604D01*
X143545562Y-95351604D01*
X143545562Y-96105979D01*
G37*
G36*
X143050263Y-96105979D02*
G01*
X142786100Y-96105979D01*
X142786100Y-95351604D01*
X143050263Y-95351604D01*
X143050263Y-96105979D01*
G37*
G36*
X142547344Y-96105979D02*
G01*
X142283182Y-96105979D01*
X142283182Y-95351604D01*
X142547344Y-95351604D01*
X142547344Y-96105979D01*
G37*
G36*
X144048481Y-96108519D02*
G01*
X143784318Y-96108519D01*
X143784318Y-95354141D01*
X144048481Y-95354141D01*
X144048481Y-96108519D01*
G37*
G36*
X143497300Y-97459800D02*
G01*
X142836900Y-97459800D01*
X142836900Y-96799400D01*
X143497300Y-96799400D01*
X143497300Y-97459800D01*
G37*
G36*
X144048481Y-98905059D02*
G01*
X143784318Y-98905059D01*
X143784318Y-98150684D01*
X144048481Y-98150684D01*
X144048481Y-98905059D01*
G37*
G36*
X143550640Y-98907600D02*
G01*
X143286478Y-98907600D01*
X143286478Y-98153225D01*
X143550640Y-98153225D01*
X143550640Y-98907600D01*
G37*
G36*
X143050260Y-98907600D02*
G01*
X142786097Y-98907600D01*
X142786097Y-98153225D01*
X143050260Y-98153225D01*
X143050260Y-98907600D01*
G37*
G36*
X142549879Y-98910140D02*
G01*
X142285716Y-98910140D01*
X142285716Y-98155765D01*
X142549879Y-98155765D01*
X142549879Y-98910140D01*
G37*
%TO.C,U51*%
G36*
X132877562Y-46829979D02*
G01*
X132613400Y-46829979D01*
X132613400Y-46075604D01*
X132877562Y-46075604D01*
X132877562Y-46829979D01*
G37*
G36*
X132382263Y-46829979D02*
G01*
X132118100Y-46829979D01*
X132118100Y-46075604D01*
X132382263Y-46075604D01*
X132382263Y-46829979D01*
G37*
G36*
X131879344Y-46829979D02*
G01*
X131615182Y-46829979D01*
X131615182Y-46075604D01*
X131879344Y-46075604D01*
X131879344Y-46829979D01*
G37*
G36*
X133380481Y-46832519D02*
G01*
X133116318Y-46832519D01*
X133116318Y-46078141D01*
X133380481Y-46078141D01*
X133380481Y-46832519D01*
G37*
G36*
X132829300Y-48183800D02*
G01*
X132168900Y-48183800D01*
X132168900Y-47523400D01*
X132829300Y-47523400D01*
X132829300Y-48183800D01*
G37*
G36*
X133380481Y-49629059D02*
G01*
X133116318Y-49629059D01*
X133116318Y-48874684D01*
X133380481Y-48874684D01*
X133380481Y-49629059D01*
G37*
G36*
X132882640Y-49631600D02*
G01*
X132618478Y-49631600D01*
X132618478Y-48877225D01*
X132882640Y-48877225D01*
X132882640Y-49631600D01*
G37*
G36*
X132382260Y-49631600D02*
G01*
X132118097Y-49631600D01*
X132118097Y-48877225D01*
X132382260Y-48877225D01*
X132382260Y-49631600D01*
G37*
G36*
X131881879Y-49634140D02*
G01*
X131617716Y-49634140D01*
X131617716Y-48879765D01*
X131881879Y-48879765D01*
X131881879Y-49634140D01*
G37*
%TO.C,U54*%
G36*
X164881562Y-46829979D02*
G01*
X164617400Y-46829979D01*
X164617400Y-46075604D01*
X164881562Y-46075604D01*
X164881562Y-46829979D01*
G37*
G36*
X164386263Y-46829979D02*
G01*
X164122100Y-46829979D01*
X164122100Y-46075604D01*
X164386263Y-46075604D01*
X164386263Y-46829979D01*
G37*
G36*
X163883344Y-46829979D02*
G01*
X163619182Y-46829979D01*
X163619182Y-46075604D01*
X163883344Y-46075604D01*
X163883344Y-46829979D01*
G37*
G36*
X165384481Y-46832519D02*
G01*
X165120318Y-46832519D01*
X165120318Y-46078141D01*
X165384481Y-46078141D01*
X165384481Y-46832519D01*
G37*
G36*
X164833300Y-48183800D02*
G01*
X164172900Y-48183800D01*
X164172900Y-47523400D01*
X164833300Y-47523400D01*
X164833300Y-48183800D01*
G37*
G36*
X165384481Y-49629059D02*
G01*
X165120318Y-49629059D01*
X165120318Y-48874684D01*
X165384481Y-48874684D01*
X165384481Y-49629059D01*
G37*
G36*
X164886640Y-49631600D02*
G01*
X164622478Y-49631600D01*
X164622478Y-48877225D01*
X164886640Y-48877225D01*
X164886640Y-49631600D01*
G37*
G36*
X164386260Y-49631600D02*
G01*
X164122097Y-49631600D01*
X164122097Y-48877225D01*
X164386260Y-48877225D01*
X164386260Y-49631600D01*
G37*
G36*
X163885879Y-49634140D02*
G01*
X163621716Y-49634140D01*
X163621716Y-48879765D01*
X163885879Y-48879765D01*
X163885879Y-49634140D01*
G37*
%TO.C,U59*%
G36*
X132877562Y-22191979D02*
G01*
X132613400Y-22191979D01*
X132613400Y-21437604D01*
X132877562Y-21437604D01*
X132877562Y-22191979D01*
G37*
G36*
X132382263Y-22191979D02*
G01*
X132118100Y-22191979D01*
X132118100Y-21437604D01*
X132382263Y-21437604D01*
X132382263Y-22191979D01*
G37*
G36*
X131879344Y-22191979D02*
G01*
X131615182Y-22191979D01*
X131615182Y-21437604D01*
X131879344Y-21437604D01*
X131879344Y-22191979D01*
G37*
G36*
X133380481Y-22194519D02*
G01*
X133116318Y-22194519D01*
X133116318Y-21440141D01*
X133380481Y-21440141D01*
X133380481Y-22194519D01*
G37*
G36*
X132829300Y-23545800D02*
G01*
X132168900Y-23545800D01*
X132168900Y-22885400D01*
X132829300Y-22885400D01*
X132829300Y-23545800D01*
G37*
G36*
X133380481Y-24991059D02*
G01*
X133116318Y-24991059D01*
X133116318Y-24236684D01*
X133380481Y-24236684D01*
X133380481Y-24991059D01*
G37*
G36*
X132882640Y-24993600D02*
G01*
X132618478Y-24993600D01*
X132618478Y-24239225D01*
X132882640Y-24239225D01*
X132882640Y-24993600D01*
G37*
G36*
X132382260Y-24993600D02*
G01*
X132118097Y-24993600D01*
X132118097Y-24239225D01*
X132382260Y-24239225D01*
X132382260Y-24993600D01*
G37*
G36*
X131881879Y-24996140D02*
G01*
X131617716Y-24996140D01*
X131617716Y-24241765D01*
X131881879Y-24241765D01*
X131881879Y-24996140D01*
G37*
%TO.C,U60*%
G36*
X143545562Y-22191979D02*
G01*
X143281400Y-22191979D01*
X143281400Y-21437604D01*
X143545562Y-21437604D01*
X143545562Y-22191979D01*
G37*
G36*
X143050263Y-22191979D02*
G01*
X142786100Y-22191979D01*
X142786100Y-21437604D01*
X143050263Y-21437604D01*
X143050263Y-22191979D01*
G37*
G36*
X142547344Y-22191979D02*
G01*
X142283182Y-22191979D01*
X142283182Y-21437604D01*
X142547344Y-21437604D01*
X142547344Y-22191979D01*
G37*
G36*
X144048481Y-22194519D02*
G01*
X143784318Y-22194519D01*
X143784318Y-21440141D01*
X144048481Y-21440141D01*
X144048481Y-22194519D01*
G37*
G36*
X143497300Y-23545800D02*
G01*
X142836900Y-23545800D01*
X142836900Y-22885400D01*
X143497300Y-22885400D01*
X143497300Y-23545800D01*
G37*
G36*
X144048481Y-24991059D02*
G01*
X143784318Y-24991059D01*
X143784318Y-24236684D01*
X144048481Y-24236684D01*
X144048481Y-24991059D01*
G37*
G36*
X143550640Y-24993600D02*
G01*
X143286478Y-24993600D01*
X143286478Y-24239225D01*
X143550640Y-24239225D01*
X143550640Y-24993600D01*
G37*
G36*
X143050260Y-24993600D02*
G01*
X142786097Y-24993600D01*
X142786097Y-24239225D01*
X143050260Y-24239225D01*
X143050260Y-24993600D01*
G37*
G36*
X142549879Y-24996140D02*
G01*
X142285716Y-24996140D01*
X142285716Y-24241765D01*
X142549879Y-24241765D01*
X142549879Y-24996140D01*
G37*
%TO.C,U1*%
G36*
X122209562Y-194657979D02*
G01*
X121945400Y-194657979D01*
X121945400Y-193903604D01*
X122209562Y-193903604D01*
X122209562Y-194657979D01*
G37*
G36*
X121714263Y-194657979D02*
G01*
X121450100Y-194657979D01*
X121450100Y-193903604D01*
X121714263Y-193903604D01*
X121714263Y-194657979D01*
G37*
G36*
X121211344Y-194657979D02*
G01*
X120947182Y-194657979D01*
X120947182Y-193903604D01*
X121211344Y-193903604D01*
X121211344Y-194657979D01*
G37*
G36*
X122712481Y-194660519D02*
G01*
X122448318Y-194660519D01*
X122448318Y-193906141D01*
X122712481Y-193906141D01*
X122712481Y-194660519D01*
G37*
G36*
X122161300Y-196011800D02*
G01*
X121500900Y-196011800D01*
X121500900Y-195351400D01*
X122161300Y-195351400D01*
X122161300Y-196011800D01*
G37*
G36*
X122712481Y-197457059D02*
G01*
X122448318Y-197457059D01*
X122448318Y-196702684D01*
X122712481Y-196702684D01*
X122712481Y-197457059D01*
G37*
G36*
X122214640Y-197459600D02*
G01*
X121950478Y-197459600D01*
X121950478Y-196705225D01*
X122214640Y-196705225D01*
X122214640Y-197459600D01*
G37*
G36*
X121714260Y-197459600D02*
G01*
X121450097Y-197459600D01*
X121450097Y-196705225D01*
X121714260Y-196705225D01*
X121714260Y-197459600D01*
G37*
G36*
X121213879Y-197462140D02*
G01*
X120949716Y-197462140D01*
X120949716Y-196707765D01*
X121213879Y-196707765D01*
X121213879Y-197462140D01*
G37*
%TO.C,U10*%
G36*
X122209562Y-170019979D02*
G01*
X121945400Y-170019979D01*
X121945400Y-169265604D01*
X122209562Y-169265604D01*
X122209562Y-170019979D01*
G37*
G36*
X121714263Y-170019979D02*
G01*
X121450100Y-170019979D01*
X121450100Y-169265604D01*
X121714263Y-169265604D01*
X121714263Y-170019979D01*
G37*
G36*
X121211344Y-170019979D02*
G01*
X120947182Y-170019979D01*
X120947182Y-169265604D01*
X121211344Y-169265604D01*
X121211344Y-170019979D01*
G37*
G36*
X122712481Y-170022519D02*
G01*
X122448318Y-170022519D01*
X122448318Y-169268141D01*
X122712481Y-169268141D01*
X122712481Y-170022519D01*
G37*
G36*
X122161300Y-171373800D02*
G01*
X121500900Y-171373800D01*
X121500900Y-170713400D01*
X122161300Y-170713400D01*
X122161300Y-171373800D01*
G37*
G36*
X122712481Y-172819059D02*
G01*
X122448318Y-172819059D01*
X122448318Y-172064684D01*
X122712481Y-172064684D01*
X122712481Y-172819059D01*
G37*
G36*
X122214640Y-172821600D02*
G01*
X121950478Y-172821600D01*
X121950478Y-172067225D01*
X122214640Y-172067225D01*
X122214640Y-172821600D01*
G37*
G36*
X121714260Y-172821600D02*
G01*
X121450097Y-172821600D01*
X121450097Y-172067225D01*
X121714260Y-172067225D01*
X121714260Y-172821600D01*
G37*
G36*
X121213879Y-172824140D02*
G01*
X120949716Y-172824140D01*
X120949716Y-172069765D01*
X121213879Y-172069765D01*
X121213879Y-172824140D01*
G37*
%TO.C,U21*%
G36*
X154213562Y-145381979D02*
G01*
X153949400Y-145381979D01*
X153949400Y-144627604D01*
X154213562Y-144627604D01*
X154213562Y-145381979D01*
G37*
G36*
X153718263Y-145381979D02*
G01*
X153454100Y-145381979D01*
X153454100Y-144627604D01*
X153718263Y-144627604D01*
X153718263Y-145381979D01*
G37*
G36*
X153215344Y-145381979D02*
G01*
X152951182Y-145381979D01*
X152951182Y-144627604D01*
X153215344Y-144627604D01*
X153215344Y-145381979D01*
G37*
G36*
X154716481Y-145384519D02*
G01*
X154452318Y-145384519D01*
X154452318Y-144630141D01*
X154716481Y-144630141D01*
X154716481Y-145384519D01*
G37*
G36*
X154165300Y-146735800D02*
G01*
X153504900Y-146735800D01*
X153504900Y-146075400D01*
X154165300Y-146075400D01*
X154165300Y-146735800D01*
G37*
G36*
X154716481Y-148181059D02*
G01*
X154452318Y-148181059D01*
X154452318Y-147426684D01*
X154716481Y-147426684D01*
X154716481Y-148181059D01*
G37*
G36*
X154218640Y-148183600D02*
G01*
X153954478Y-148183600D01*
X153954478Y-147429225D01*
X154218640Y-147429225D01*
X154218640Y-148183600D01*
G37*
G36*
X153718260Y-148183600D02*
G01*
X153454097Y-148183600D01*
X153454097Y-147429225D01*
X153718260Y-147429225D01*
X153718260Y-148183600D01*
G37*
G36*
X153217879Y-148186140D02*
G01*
X152953716Y-148186140D01*
X152953716Y-147431765D01*
X153217879Y-147431765D01*
X153217879Y-148186140D01*
G37*
%TO.C,U45*%
G36*
X154213562Y-71467979D02*
G01*
X153949400Y-71467979D01*
X153949400Y-70713604D01*
X154213562Y-70713604D01*
X154213562Y-71467979D01*
G37*
G36*
X153718263Y-71467979D02*
G01*
X153454100Y-71467979D01*
X153454100Y-70713604D01*
X153718263Y-70713604D01*
X153718263Y-71467979D01*
G37*
G36*
X153215344Y-71467979D02*
G01*
X152951182Y-71467979D01*
X152951182Y-70713604D01*
X153215344Y-70713604D01*
X153215344Y-71467979D01*
G37*
G36*
X154716481Y-71470519D02*
G01*
X154452318Y-71470519D01*
X154452318Y-70716141D01*
X154716481Y-70716141D01*
X154716481Y-71470519D01*
G37*
G36*
X154165300Y-72821800D02*
G01*
X153504900Y-72821800D01*
X153504900Y-72161400D01*
X154165300Y-72161400D01*
X154165300Y-72821800D01*
G37*
G36*
X154716481Y-74267059D02*
G01*
X154452318Y-74267059D01*
X154452318Y-73512684D01*
X154716481Y-73512684D01*
X154716481Y-74267059D01*
G37*
G36*
X154218640Y-74269600D02*
G01*
X153954478Y-74269600D01*
X153954478Y-73515225D01*
X154218640Y-73515225D01*
X154218640Y-74269600D01*
G37*
G36*
X153718260Y-74269600D02*
G01*
X153454097Y-74269600D01*
X153454097Y-73515225D01*
X153718260Y-73515225D01*
X153718260Y-74269600D01*
G37*
G36*
X153217879Y-74272140D02*
G01*
X152953716Y-74272140D01*
X152953716Y-73517765D01*
X153217879Y-73517765D01*
X153217879Y-74272140D01*
G37*
%TO.C,U34*%
G36*
X122209562Y-96105979D02*
G01*
X121945400Y-96105979D01*
X121945400Y-95351604D01*
X122209562Y-95351604D01*
X122209562Y-96105979D01*
G37*
G36*
X121714263Y-96105979D02*
G01*
X121450100Y-96105979D01*
X121450100Y-95351604D01*
X121714263Y-95351604D01*
X121714263Y-96105979D01*
G37*
G36*
X121211344Y-96105979D02*
G01*
X120947182Y-96105979D01*
X120947182Y-95351604D01*
X121211344Y-95351604D01*
X121211344Y-96105979D01*
G37*
G36*
X122712481Y-96108519D02*
G01*
X122448318Y-96108519D01*
X122448318Y-95354141D01*
X122712481Y-95354141D01*
X122712481Y-96108519D01*
G37*
G36*
X122161300Y-97459800D02*
G01*
X121500900Y-97459800D01*
X121500900Y-96799400D01*
X122161300Y-96799400D01*
X122161300Y-97459800D01*
G37*
G36*
X122712481Y-98905059D02*
G01*
X122448318Y-98905059D01*
X122448318Y-98150684D01*
X122712481Y-98150684D01*
X122712481Y-98905059D01*
G37*
G36*
X122214640Y-98907600D02*
G01*
X121950478Y-98907600D01*
X121950478Y-98153225D01*
X122214640Y-98153225D01*
X122214640Y-98907600D01*
G37*
G36*
X121714260Y-98907600D02*
G01*
X121450097Y-98907600D01*
X121450097Y-98153225D01*
X121714260Y-98153225D01*
X121714260Y-98907600D01*
G37*
G36*
X121213879Y-98910140D02*
G01*
X120949716Y-98910140D01*
X120949716Y-98155765D01*
X121213879Y-98155765D01*
X121213879Y-98910140D01*
G37*
%TO.C,U50*%
G36*
X122209562Y-46829979D02*
G01*
X121945400Y-46829979D01*
X121945400Y-46075604D01*
X122209562Y-46075604D01*
X122209562Y-46829979D01*
G37*
G36*
X121714263Y-46829979D02*
G01*
X121450100Y-46829979D01*
X121450100Y-46075604D01*
X121714263Y-46075604D01*
X121714263Y-46829979D01*
G37*
G36*
X121211344Y-46829979D02*
G01*
X120947182Y-46829979D01*
X120947182Y-46075604D01*
X121211344Y-46075604D01*
X121211344Y-46829979D01*
G37*
G36*
X122712481Y-46832519D02*
G01*
X122448318Y-46832519D01*
X122448318Y-46078141D01*
X122712481Y-46078141D01*
X122712481Y-46832519D01*
G37*
G36*
X122161300Y-48183800D02*
G01*
X121500900Y-48183800D01*
X121500900Y-47523400D01*
X122161300Y-47523400D01*
X122161300Y-48183800D01*
G37*
G36*
X122712481Y-49629059D02*
G01*
X122448318Y-49629059D01*
X122448318Y-48874684D01*
X122712481Y-48874684D01*
X122712481Y-49629059D01*
G37*
G36*
X122214640Y-49631600D02*
G01*
X121950478Y-49631600D01*
X121950478Y-48877225D01*
X122214640Y-48877225D01*
X122214640Y-49631600D01*
G37*
G36*
X121714260Y-49631600D02*
G01*
X121450097Y-49631600D01*
X121450097Y-48877225D01*
X121714260Y-48877225D01*
X121714260Y-49631600D01*
G37*
G36*
X121213879Y-49634140D02*
G01*
X120949716Y-49634140D01*
X120949716Y-48879765D01*
X121213879Y-48879765D01*
X121213879Y-49634140D01*
G37*
%TO.C,U48*%
G36*
X186217562Y-71467979D02*
G01*
X185953400Y-71467979D01*
X185953400Y-70713604D01*
X186217562Y-70713604D01*
X186217562Y-71467979D01*
G37*
G36*
X185722263Y-71467979D02*
G01*
X185458100Y-71467979D01*
X185458100Y-70713604D01*
X185722263Y-70713604D01*
X185722263Y-71467979D01*
G37*
G36*
X185219344Y-71467979D02*
G01*
X184955182Y-71467979D01*
X184955182Y-70713604D01*
X185219344Y-70713604D01*
X185219344Y-71467979D01*
G37*
G36*
X186720481Y-71470519D02*
G01*
X186456318Y-71470519D01*
X186456318Y-70716141D01*
X186720481Y-70716141D01*
X186720481Y-71470519D01*
G37*
G36*
X186169300Y-72821800D02*
G01*
X185508900Y-72821800D01*
X185508900Y-72161400D01*
X186169300Y-72161400D01*
X186169300Y-72821800D01*
G37*
G36*
X186720481Y-74267059D02*
G01*
X186456318Y-74267059D01*
X186456318Y-73512684D01*
X186720481Y-73512684D01*
X186720481Y-74267059D01*
G37*
G36*
X186222640Y-74269600D02*
G01*
X185958478Y-74269600D01*
X185958478Y-73515225D01*
X186222640Y-73515225D01*
X186222640Y-74269600D01*
G37*
G36*
X185722260Y-74269600D02*
G01*
X185458097Y-74269600D01*
X185458097Y-73515225D01*
X185722260Y-73515225D01*
X185722260Y-74269600D01*
G37*
G36*
X185221879Y-74272140D02*
G01*
X184957716Y-74272140D01*
X184957716Y-73517765D01*
X185221879Y-73517765D01*
X185221879Y-74272140D01*
G37*
%TO.C,U17*%
G36*
X111541562Y-145381979D02*
G01*
X111277400Y-145381979D01*
X111277400Y-144627604D01*
X111541562Y-144627604D01*
X111541562Y-145381979D01*
G37*
G36*
X111046263Y-145381979D02*
G01*
X110782100Y-145381979D01*
X110782100Y-144627604D01*
X111046263Y-144627604D01*
X111046263Y-145381979D01*
G37*
G36*
X110543344Y-145381979D02*
G01*
X110279182Y-145381979D01*
X110279182Y-144627604D01*
X110543344Y-144627604D01*
X110543344Y-145381979D01*
G37*
G36*
X112044481Y-145384519D02*
G01*
X111780318Y-145384519D01*
X111780318Y-144630141D01*
X112044481Y-144630141D01*
X112044481Y-145384519D01*
G37*
G36*
X111493300Y-146735800D02*
G01*
X110832900Y-146735800D01*
X110832900Y-146075400D01*
X111493300Y-146075400D01*
X111493300Y-146735800D01*
G37*
G36*
X112044481Y-148181059D02*
G01*
X111780318Y-148181059D01*
X111780318Y-147426684D01*
X112044481Y-147426684D01*
X112044481Y-148181059D01*
G37*
G36*
X111546640Y-148183600D02*
G01*
X111282478Y-148183600D01*
X111282478Y-147429225D01*
X111546640Y-147429225D01*
X111546640Y-148183600D01*
G37*
G36*
X111046260Y-148183600D02*
G01*
X110782097Y-148183600D01*
X110782097Y-147429225D01*
X111046260Y-147429225D01*
X111046260Y-148183600D01*
G37*
G36*
X110545879Y-148186140D02*
G01*
X110281716Y-148186140D01*
X110281716Y-147431765D01*
X110545879Y-147431765D01*
X110545879Y-148186140D01*
G37*
%TO.C,U43*%
G36*
X132877562Y-71467979D02*
G01*
X132613400Y-71467979D01*
X132613400Y-70713604D01*
X132877562Y-70713604D01*
X132877562Y-71467979D01*
G37*
G36*
X132382263Y-71467979D02*
G01*
X132118100Y-71467979D01*
X132118100Y-70713604D01*
X132382263Y-70713604D01*
X132382263Y-71467979D01*
G37*
G36*
X131879344Y-71467979D02*
G01*
X131615182Y-71467979D01*
X131615182Y-70713604D01*
X131879344Y-70713604D01*
X131879344Y-71467979D01*
G37*
G36*
X133380481Y-71470519D02*
G01*
X133116318Y-71470519D01*
X133116318Y-70716141D01*
X133380481Y-70716141D01*
X133380481Y-71470519D01*
G37*
G36*
X132829300Y-72821800D02*
G01*
X132168900Y-72821800D01*
X132168900Y-72161400D01*
X132829300Y-72161400D01*
X132829300Y-72821800D01*
G37*
G36*
X133380481Y-74267059D02*
G01*
X133116318Y-74267059D01*
X133116318Y-73512684D01*
X133380481Y-73512684D01*
X133380481Y-74267059D01*
G37*
G36*
X132882640Y-74269600D02*
G01*
X132618478Y-74269600D01*
X132618478Y-73515225D01*
X132882640Y-73515225D01*
X132882640Y-74269600D01*
G37*
G36*
X132382260Y-74269600D02*
G01*
X132118097Y-74269600D01*
X132118097Y-73515225D01*
X132382260Y-73515225D01*
X132382260Y-74269600D01*
G37*
G36*
X131881879Y-74272140D02*
G01*
X131617716Y-74272140D01*
X131617716Y-73517765D01*
X131881879Y-73517765D01*
X131881879Y-74272140D01*
G37*
%TO.C,U35*%
G36*
X132877562Y-96105979D02*
G01*
X132613400Y-96105979D01*
X132613400Y-95351604D01*
X132877562Y-95351604D01*
X132877562Y-96105979D01*
G37*
G36*
X132382263Y-96105979D02*
G01*
X132118100Y-96105979D01*
X132118100Y-95351604D01*
X132382263Y-95351604D01*
X132382263Y-96105979D01*
G37*
G36*
X131879344Y-96105979D02*
G01*
X131615182Y-96105979D01*
X131615182Y-95351604D01*
X131879344Y-95351604D01*
X131879344Y-96105979D01*
G37*
G36*
X133380481Y-96108519D02*
G01*
X133116318Y-96108519D01*
X133116318Y-95354141D01*
X133380481Y-95354141D01*
X133380481Y-96108519D01*
G37*
G36*
X132829300Y-97459800D02*
G01*
X132168900Y-97459800D01*
X132168900Y-96799400D01*
X132829300Y-96799400D01*
X132829300Y-97459800D01*
G37*
G36*
X133380481Y-98905059D02*
G01*
X133116318Y-98905059D01*
X133116318Y-98150684D01*
X133380481Y-98150684D01*
X133380481Y-98905059D01*
G37*
G36*
X132882640Y-98907600D02*
G01*
X132618478Y-98907600D01*
X132618478Y-98153225D01*
X132882640Y-98153225D01*
X132882640Y-98907600D01*
G37*
G36*
X132382260Y-98907600D02*
G01*
X132118097Y-98907600D01*
X132118097Y-98153225D01*
X132382260Y-98153225D01*
X132382260Y-98907600D01*
G37*
G36*
X131881879Y-98910140D02*
G01*
X131617716Y-98910140D01*
X131617716Y-98155765D01*
X131881879Y-98155765D01*
X131881879Y-98910140D01*
G37*
%TO.C,U40*%
G36*
X186217562Y-96105979D02*
G01*
X185953400Y-96105979D01*
X185953400Y-95351604D01*
X186217562Y-95351604D01*
X186217562Y-96105979D01*
G37*
G36*
X185722263Y-96105979D02*
G01*
X185458100Y-96105979D01*
X185458100Y-95351604D01*
X185722263Y-95351604D01*
X185722263Y-96105979D01*
G37*
G36*
X185219344Y-96105979D02*
G01*
X184955182Y-96105979D01*
X184955182Y-95351604D01*
X185219344Y-95351604D01*
X185219344Y-96105979D01*
G37*
G36*
X186720481Y-96108519D02*
G01*
X186456318Y-96108519D01*
X186456318Y-95354141D01*
X186720481Y-95354141D01*
X186720481Y-96108519D01*
G37*
G36*
X186169300Y-97459800D02*
G01*
X185508900Y-97459800D01*
X185508900Y-96799400D01*
X186169300Y-96799400D01*
X186169300Y-97459800D01*
G37*
G36*
X186720481Y-98905059D02*
G01*
X186456318Y-98905059D01*
X186456318Y-98150684D01*
X186720481Y-98150684D01*
X186720481Y-98905059D01*
G37*
G36*
X186222640Y-98907600D02*
G01*
X185958478Y-98907600D01*
X185958478Y-98153225D01*
X186222640Y-98153225D01*
X186222640Y-98907600D01*
G37*
G36*
X185722260Y-98907600D02*
G01*
X185458097Y-98907600D01*
X185458097Y-98153225D01*
X185722260Y-98153225D01*
X185722260Y-98907600D01*
G37*
G36*
X185221879Y-98910140D02*
G01*
X184957716Y-98910140D01*
X184957716Y-98155765D01*
X185221879Y-98155765D01*
X185221879Y-98910140D01*
G37*
%TO.C,U4*%
G36*
X143545562Y-194657979D02*
G01*
X143281400Y-194657979D01*
X143281400Y-193903604D01*
X143545562Y-193903604D01*
X143545562Y-194657979D01*
G37*
G36*
X143050263Y-194657979D02*
G01*
X142786100Y-194657979D01*
X142786100Y-193903604D01*
X143050263Y-193903604D01*
X143050263Y-194657979D01*
G37*
G36*
X142547344Y-194657979D02*
G01*
X142283182Y-194657979D01*
X142283182Y-193903604D01*
X142547344Y-193903604D01*
X142547344Y-194657979D01*
G37*
G36*
X144048481Y-194660519D02*
G01*
X143784318Y-194660519D01*
X143784318Y-193906141D01*
X144048481Y-193906141D01*
X144048481Y-194660519D01*
G37*
G36*
X143497300Y-196011800D02*
G01*
X142836900Y-196011800D01*
X142836900Y-195351400D01*
X143497300Y-195351400D01*
X143497300Y-196011800D01*
G37*
G36*
X144048481Y-197457059D02*
G01*
X143784318Y-197457059D01*
X143784318Y-196702684D01*
X144048481Y-196702684D01*
X144048481Y-197457059D01*
G37*
G36*
X143550640Y-197459600D02*
G01*
X143286478Y-197459600D01*
X143286478Y-196705225D01*
X143550640Y-196705225D01*
X143550640Y-197459600D01*
G37*
G36*
X143050260Y-197459600D02*
G01*
X142786097Y-197459600D01*
X142786097Y-196705225D01*
X143050260Y-196705225D01*
X143050260Y-197459600D01*
G37*
G36*
X142549879Y-197462140D02*
G01*
X142285716Y-197462140D01*
X142285716Y-196707765D01*
X142549879Y-196707765D01*
X142549879Y-197462140D01*
G37*
%TO.C,U37*%
G36*
X154213562Y-96105979D02*
G01*
X153949400Y-96105979D01*
X153949400Y-95351604D01*
X154213562Y-95351604D01*
X154213562Y-96105979D01*
G37*
G36*
X153718263Y-96105979D02*
G01*
X153454100Y-96105979D01*
X153454100Y-95351604D01*
X153718263Y-95351604D01*
X153718263Y-96105979D01*
G37*
G36*
X153215344Y-96105979D02*
G01*
X152951182Y-96105979D01*
X152951182Y-95351604D01*
X153215344Y-95351604D01*
X153215344Y-96105979D01*
G37*
G36*
X154716481Y-96108519D02*
G01*
X154452318Y-96108519D01*
X154452318Y-95354141D01*
X154716481Y-95354141D01*
X154716481Y-96108519D01*
G37*
G36*
X154165300Y-97459800D02*
G01*
X153504900Y-97459800D01*
X153504900Y-96799400D01*
X154165300Y-96799400D01*
X154165300Y-97459800D01*
G37*
G36*
X154716481Y-98905059D02*
G01*
X154452318Y-98905059D01*
X154452318Y-98150684D01*
X154716481Y-98150684D01*
X154716481Y-98905059D01*
G37*
G36*
X154218640Y-98907600D02*
G01*
X153954478Y-98907600D01*
X153954478Y-98153225D01*
X154218640Y-98153225D01*
X154218640Y-98907600D01*
G37*
G36*
X153718260Y-98907600D02*
G01*
X153454097Y-98907600D01*
X153454097Y-98153225D01*
X153718260Y-98153225D01*
X153718260Y-98907600D01*
G37*
G36*
X153217879Y-98910140D02*
G01*
X152953716Y-98910140D01*
X152953716Y-98155765D01*
X153217879Y-98155765D01*
X153217879Y-98910140D01*
G37*
%TO.C,U8*%
G36*
X186217562Y-194657979D02*
G01*
X185953400Y-194657979D01*
X185953400Y-193903604D01*
X186217562Y-193903604D01*
X186217562Y-194657979D01*
G37*
G36*
X185722263Y-194657979D02*
G01*
X185458100Y-194657979D01*
X185458100Y-193903604D01*
X185722263Y-193903604D01*
X185722263Y-194657979D01*
G37*
G36*
X185219344Y-194657979D02*
G01*
X184955182Y-194657979D01*
X184955182Y-193903604D01*
X185219344Y-193903604D01*
X185219344Y-194657979D01*
G37*
G36*
X186720481Y-194660519D02*
G01*
X186456318Y-194660519D01*
X186456318Y-193906141D01*
X186720481Y-193906141D01*
X186720481Y-194660519D01*
G37*
G36*
X186169300Y-196011800D02*
G01*
X185508900Y-196011800D01*
X185508900Y-195351400D01*
X186169300Y-195351400D01*
X186169300Y-196011800D01*
G37*
G36*
X186720481Y-197457059D02*
G01*
X186456318Y-197457059D01*
X186456318Y-196702684D01*
X186720481Y-196702684D01*
X186720481Y-197457059D01*
G37*
G36*
X186222640Y-197459600D02*
G01*
X185958478Y-197459600D01*
X185958478Y-196705225D01*
X186222640Y-196705225D01*
X186222640Y-197459600D01*
G37*
G36*
X185722260Y-197459600D02*
G01*
X185458097Y-197459600D01*
X185458097Y-196705225D01*
X185722260Y-196705225D01*
X185722260Y-197459600D01*
G37*
G36*
X185221879Y-197462140D02*
G01*
X184957716Y-197462140D01*
X184957716Y-196707765D01*
X185221879Y-196707765D01*
X185221879Y-197462140D01*
G37*
%TO.C,U49*%
G36*
X111541562Y-46829979D02*
G01*
X111277400Y-46829979D01*
X111277400Y-46075604D01*
X111541562Y-46075604D01*
X111541562Y-46829979D01*
G37*
G36*
X111046263Y-46829979D02*
G01*
X110782100Y-46829979D01*
X110782100Y-46075604D01*
X111046263Y-46075604D01*
X111046263Y-46829979D01*
G37*
G36*
X110543344Y-46829979D02*
G01*
X110279182Y-46829979D01*
X110279182Y-46075604D01*
X110543344Y-46075604D01*
X110543344Y-46829979D01*
G37*
G36*
X112044481Y-46832519D02*
G01*
X111780318Y-46832519D01*
X111780318Y-46078141D01*
X112044481Y-46078141D01*
X112044481Y-46832519D01*
G37*
G36*
X111493300Y-48183800D02*
G01*
X110832900Y-48183800D01*
X110832900Y-47523400D01*
X111493300Y-47523400D01*
X111493300Y-48183800D01*
G37*
G36*
X112044481Y-49629059D02*
G01*
X111780318Y-49629059D01*
X111780318Y-48874684D01*
X112044481Y-48874684D01*
X112044481Y-49629059D01*
G37*
G36*
X111546640Y-49631600D02*
G01*
X111282478Y-49631600D01*
X111282478Y-48877225D01*
X111546640Y-48877225D01*
X111546640Y-49631600D01*
G37*
G36*
X111046260Y-49631600D02*
G01*
X110782097Y-49631600D01*
X110782097Y-48877225D01*
X111046260Y-48877225D01*
X111046260Y-49631600D01*
G37*
G36*
X110545879Y-49634140D02*
G01*
X110281716Y-49634140D01*
X110281716Y-48879765D01*
X110545879Y-48879765D01*
X110545879Y-49634140D01*
G37*
%TO.C,U31*%
G36*
X175549562Y-120743979D02*
G01*
X175285400Y-120743979D01*
X175285400Y-119989604D01*
X175549562Y-119989604D01*
X175549562Y-120743979D01*
G37*
G36*
X175054263Y-120743979D02*
G01*
X174790100Y-120743979D01*
X174790100Y-119989604D01*
X175054263Y-119989604D01*
X175054263Y-120743979D01*
G37*
G36*
X174551344Y-120743979D02*
G01*
X174287182Y-120743979D01*
X174287182Y-119989604D01*
X174551344Y-119989604D01*
X174551344Y-120743979D01*
G37*
G36*
X176052481Y-120746519D02*
G01*
X175788318Y-120746519D01*
X175788318Y-119992141D01*
X176052481Y-119992141D01*
X176052481Y-120746519D01*
G37*
G36*
X175501300Y-122097800D02*
G01*
X174840900Y-122097800D01*
X174840900Y-121437400D01*
X175501300Y-121437400D01*
X175501300Y-122097800D01*
G37*
G36*
X176052481Y-123543059D02*
G01*
X175788318Y-123543059D01*
X175788318Y-122788684D01*
X176052481Y-122788684D01*
X176052481Y-123543059D01*
G37*
G36*
X175554640Y-123545600D02*
G01*
X175290478Y-123545600D01*
X175290478Y-122791225D01*
X175554640Y-122791225D01*
X175554640Y-123545600D01*
G37*
G36*
X175054260Y-123545600D02*
G01*
X174790097Y-123545600D01*
X174790097Y-122791225D01*
X175054260Y-122791225D01*
X175054260Y-123545600D01*
G37*
G36*
X174553879Y-123548140D02*
G01*
X174289716Y-123548140D01*
X174289716Y-122793765D01*
X174553879Y-122793765D01*
X174553879Y-123548140D01*
G37*
%TO.C,U25*%
G36*
X111541562Y-120743979D02*
G01*
X111277400Y-120743979D01*
X111277400Y-119989604D01*
X111541562Y-119989604D01*
X111541562Y-120743979D01*
G37*
G36*
X111046263Y-120743979D02*
G01*
X110782100Y-120743979D01*
X110782100Y-119989604D01*
X111046263Y-119989604D01*
X111046263Y-120743979D01*
G37*
G36*
X110543344Y-120743979D02*
G01*
X110279182Y-120743979D01*
X110279182Y-119989604D01*
X110543344Y-119989604D01*
X110543344Y-120743979D01*
G37*
G36*
X112044481Y-120746519D02*
G01*
X111780318Y-120746519D01*
X111780318Y-119992141D01*
X112044481Y-119992141D01*
X112044481Y-120746519D01*
G37*
G36*
X111493300Y-122097800D02*
G01*
X110832900Y-122097800D01*
X110832900Y-121437400D01*
X111493300Y-121437400D01*
X111493300Y-122097800D01*
G37*
G36*
X112044481Y-123543059D02*
G01*
X111780318Y-123543059D01*
X111780318Y-122788684D01*
X112044481Y-122788684D01*
X112044481Y-123543059D01*
G37*
G36*
X111546640Y-123545600D02*
G01*
X111282478Y-123545600D01*
X111282478Y-122791225D01*
X111546640Y-122791225D01*
X111546640Y-123545600D01*
G37*
G36*
X111046260Y-123545600D02*
G01*
X110782097Y-123545600D01*
X110782097Y-122791225D01*
X111046260Y-122791225D01*
X111046260Y-123545600D01*
G37*
G36*
X110545879Y-123548140D02*
G01*
X110281716Y-123548140D01*
X110281716Y-122793765D01*
X110545879Y-122793765D01*
X110545879Y-123548140D01*
G37*
%TO.C,U19*%
G36*
X132877562Y-145381979D02*
G01*
X132613400Y-145381979D01*
X132613400Y-144627604D01*
X132877562Y-144627604D01*
X132877562Y-145381979D01*
G37*
G36*
X132382263Y-145381979D02*
G01*
X132118100Y-145381979D01*
X132118100Y-144627604D01*
X132382263Y-144627604D01*
X132382263Y-145381979D01*
G37*
G36*
X131879344Y-145381979D02*
G01*
X131615182Y-145381979D01*
X131615182Y-144627604D01*
X131879344Y-144627604D01*
X131879344Y-145381979D01*
G37*
G36*
X133380481Y-145384519D02*
G01*
X133116318Y-145384519D01*
X133116318Y-144630141D01*
X133380481Y-144630141D01*
X133380481Y-145384519D01*
G37*
G36*
X132829300Y-146735800D02*
G01*
X132168900Y-146735800D01*
X132168900Y-146075400D01*
X132829300Y-146075400D01*
X132829300Y-146735800D01*
G37*
G36*
X133380481Y-148181059D02*
G01*
X133116318Y-148181059D01*
X133116318Y-147426684D01*
X133380481Y-147426684D01*
X133380481Y-148181059D01*
G37*
G36*
X132882640Y-148183600D02*
G01*
X132618478Y-148183600D01*
X132618478Y-147429225D01*
X132882640Y-147429225D01*
X132882640Y-148183600D01*
G37*
G36*
X132382260Y-148183600D02*
G01*
X132118097Y-148183600D01*
X132118097Y-147429225D01*
X132382260Y-147429225D01*
X132382260Y-148183600D01*
G37*
G36*
X131881879Y-148186140D02*
G01*
X131617716Y-148186140D01*
X131617716Y-147431765D01*
X131881879Y-147431765D01*
X131881879Y-148186140D01*
G37*
%TO.C,U55*%
G36*
X175549562Y-46829979D02*
G01*
X175285400Y-46829979D01*
X175285400Y-46075604D01*
X175549562Y-46075604D01*
X175549562Y-46829979D01*
G37*
G36*
X175054263Y-46829979D02*
G01*
X174790100Y-46829979D01*
X174790100Y-46075604D01*
X175054263Y-46075604D01*
X175054263Y-46829979D01*
G37*
G36*
X174551344Y-46829979D02*
G01*
X174287182Y-46829979D01*
X174287182Y-46075604D01*
X174551344Y-46075604D01*
X174551344Y-46829979D01*
G37*
G36*
X176052481Y-46832519D02*
G01*
X175788318Y-46832519D01*
X175788318Y-46078141D01*
X176052481Y-46078141D01*
X176052481Y-46832519D01*
G37*
G36*
X175501300Y-48183800D02*
G01*
X174840900Y-48183800D01*
X174840900Y-47523400D01*
X175501300Y-47523400D01*
X175501300Y-48183800D01*
G37*
G36*
X176052481Y-49629059D02*
G01*
X175788318Y-49629059D01*
X175788318Y-48874684D01*
X176052481Y-48874684D01*
X176052481Y-49629059D01*
G37*
G36*
X175554640Y-49631600D02*
G01*
X175290478Y-49631600D01*
X175290478Y-48877225D01*
X175554640Y-48877225D01*
X175554640Y-49631600D01*
G37*
G36*
X175054260Y-49631600D02*
G01*
X174790097Y-49631600D01*
X174790097Y-48877225D01*
X175054260Y-48877225D01*
X175054260Y-49631600D01*
G37*
G36*
X174553879Y-49634140D02*
G01*
X174289716Y-49634140D01*
X174289716Y-48879765D01*
X174553879Y-48879765D01*
X174553879Y-49634140D01*
G37*
%TO.C,U38*%
G36*
X164881562Y-96105979D02*
G01*
X164617400Y-96105979D01*
X164617400Y-95351604D01*
X164881562Y-95351604D01*
X164881562Y-96105979D01*
G37*
G36*
X164386263Y-96105979D02*
G01*
X164122100Y-96105979D01*
X164122100Y-95351604D01*
X164386263Y-95351604D01*
X164386263Y-96105979D01*
G37*
G36*
X163883344Y-96105979D02*
G01*
X163619182Y-96105979D01*
X163619182Y-95351604D01*
X163883344Y-95351604D01*
X163883344Y-96105979D01*
G37*
G36*
X165384481Y-96108519D02*
G01*
X165120318Y-96108519D01*
X165120318Y-95354141D01*
X165384481Y-95354141D01*
X165384481Y-96108519D01*
G37*
G36*
X164833300Y-97459800D02*
G01*
X164172900Y-97459800D01*
X164172900Y-96799400D01*
X164833300Y-96799400D01*
X164833300Y-97459800D01*
G37*
G36*
X165384481Y-98905059D02*
G01*
X165120318Y-98905059D01*
X165120318Y-98150684D01*
X165384481Y-98150684D01*
X165384481Y-98905059D01*
G37*
G36*
X164886640Y-98907600D02*
G01*
X164622478Y-98907600D01*
X164622478Y-98153225D01*
X164886640Y-98153225D01*
X164886640Y-98907600D01*
G37*
G36*
X164386260Y-98907600D02*
G01*
X164122097Y-98907600D01*
X164122097Y-98153225D01*
X164386260Y-98153225D01*
X164386260Y-98907600D01*
G37*
G36*
X163885879Y-98910140D02*
G01*
X163621716Y-98910140D01*
X163621716Y-98155765D01*
X163885879Y-98155765D01*
X163885879Y-98910140D01*
G37*
%TO.C,U53*%
G36*
X154213562Y-46829979D02*
G01*
X153949400Y-46829979D01*
X153949400Y-46075604D01*
X154213562Y-46075604D01*
X154213562Y-46829979D01*
G37*
G36*
X153718263Y-46829979D02*
G01*
X153454100Y-46829979D01*
X153454100Y-46075604D01*
X153718263Y-46075604D01*
X153718263Y-46829979D01*
G37*
G36*
X153215344Y-46829979D02*
G01*
X152951182Y-46829979D01*
X152951182Y-46075604D01*
X153215344Y-46075604D01*
X153215344Y-46829979D01*
G37*
G36*
X154716481Y-46832519D02*
G01*
X154452318Y-46832519D01*
X154452318Y-46078141D01*
X154716481Y-46078141D01*
X154716481Y-46832519D01*
G37*
G36*
X154165300Y-48183800D02*
G01*
X153504900Y-48183800D01*
X153504900Y-47523400D01*
X154165300Y-47523400D01*
X154165300Y-48183800D01*
G37*
G36*
X154716481Y-49629059D02*
G01*
X154452318Y-49629059D01*
X154452318Y-48874684D01*
X154716481Y-48874684D01*
X154716481Y-49629059D01*
G37*
G36*
X154218640Y-49631600D02*
G01*
X153954478Y-49631600D01*
X153954478Y-48877225D01*
X154218640Y-48877225D01*
X154218640Y-49631600D01*
G37*
G36*
X153718260Y-49631600D02*
G01*
X153454097Y-49631600D01*
X153454097Y-48877225D01*
X153718260Y-48877225D01*
X153718260Y-49631600D01*
G37*
G36*
X153217879Y-49634140D02*
G01*
X152953716Y-49634140D01*
X152953716Y-48879765D01*
X153217879Y-48879765D01*
X153217879Y-49634140D01*
G37*
%TO.C,U15*%
G36*
X175549562Y-170019979D02*
G01*
X175285400Y-170019979D01*
X175285400Y-169265604D01*
X175549562Y-169265604D01*
X175549562Y-170019979D01*
G37*
G36*
X175054263Y-170019979D02*
G01*
X174790100Y-170019979D01*
X174790100Y-169265604D01*
X175054263Y-169265604D01*
X175054263Y-170019979D01*
G37*
G36*
X174551344Y-170019979D02*
G01*
X174287182Y-170019979D01*
X174287182Y-169265604D01*
X174551344Y-169265604D01*
X174551344Y-170019979D01*
G37*
G36*
X176052481Y-170022519D02*
G01*
X175788318Y-170022519D01*
X175788318Y-169268141D01*
X176052481Y-169268141D01*
X176052481Y-170022519D01*
G37*
G36*
X175501300Y-171373800D02*
G01*
X174840900Y-171373800D01*
X174840900Y-170713400D01*
X175501300Y-170713400D01*
X175501300Y-171373800D01*
G37*
G36*
X176052481Y-172819059D02*
G01*
X175788318Y-172819059D01*
X175788318Y-172064684D01*
X176052481Y-172064684D01*
X176052481Y-172819059D01*
G37*
G36*
X175554640Y-172821600D02*
G01*
X175290478Y-172821600D01*
X175290478Y-172067225D01*
X175554640Y-172067225D01*
X175554640Y-172821600D01*
G37*
G36*
X175054260Y-172821600D02*
G01*
X174790097Y-172821600D01*
X174790097Y-172067225D01*
X175054260Y-172067225D01*
X175054260Y-172821600D01*
G37*
G36*
X174553879Y-172824140D02*
G01*
X174289716Y-172824140D01*
X174289716Y-172069765D01*
X174553879Y-172069765D01*
X174553879Y-172824140D01*
G37*
%TO.C,U16*%
G36*
X186217562Y-170019979D02*
G01*
X185953400Y-170019979D01*
X185953400Y-169265604D01*
X186217562Y-169265604D01*
X186217562Y-170019979D01*
G37*
G36*
X185722263Y-170019979D02*
G01*
X185458100Y-170019979D01*
X185458100Y-169265604D01*
X185722263Y-169265604D01*
X185722263Y-170019979D01*
G37*
G36*
X185219344Y-170019979D02*
G01*
X184955182Y-170019979D01*
X184955182Y-169265604D01*
X185219344Y-169265604D01*
X185219344Y-170019979D01*
G37*
G36*
X186720481Y-170022519D02*
G01*
X186456318Y-170022519D01*
X186456318Y-169268141D01*
X186720481Y-169268141D01*
X186720481Y-170022519D01*
G37*
G36*
X186169300Y-171373800D02*
G01*
X185508900Y-171373800D01*
X185508900Y-170713400D01*
X186169300Y-170713400D01*
X186169300Y-171373800D01*
G37*
G36*
X186720481Y-172819059D02*
G01*
X186456318Y-172819059D01*
X186456318Y-172064684D01*
X186720481Y-172064684D01*
X186720481Y-172819059D01*
G37*
G36*
X186222640Y-172821600D02*
G01*
X185958478Y-172821600D01*
X185958478Y-172067225D01*
X186222640Y-172067225D01*
X186222640Y-172821600D01*
G37*
G36*
X185722260Y-172821600D02*
G01*
X185458097Y-172821600D01*
X185458097Y-172067225D01*
X185722260Y-172067225D01*
X185722260Y-172821600D01*
G37*
G36*
X185221879Y-172824140D02*
G01*
X184957716Y-172824140D01*
X184957716Y-172069765D01*
X185221879Y-172069765D01*
X185221879Y-172824140D01*
G37*
%TO.C,U58*%
G36*
X122209562Y-22191979D02*
G01*
X121945400Y-22191979D01*
X121945400Y-21437604D01*
X122209562Y-21437604D01*
X122209562Y-22191979D01*
G37*
G36*
X121714263Y-22191979D02*
G01*
X121450100Y-22191979D01*
X121450100Y-21437604D01*
X121714263Y-21437604D01*
X121714263Y-22191979D01*
G37*
G36*
X121211344Y-22191979D02*
G01*
X120947182Y-22191979D01*
X120947182Y-21437604D01*
X121211344Y-21437604D01*
X121211344Y-22191979D01*
G37*
G36*
X122712481Y-22194519D02*
G01*
X122448318Y-22194519D01*
X122448318Y-21440141D01*
X122712481Y-21440141D01*
X122712481Y-22194519D01*
G37*
G36*
X122161300Y-23545800D02*
G01*
X121500900Y-23545800D01*
X121500900Y-22885400D01*
X122161300Y-22885400D01*
X122161300Y-23545800D01*
G37*
G36*
X122712481Y-24991059D02*
G01*
X122448318Y-24991059D01*
X122448318Y-24236684D01*
X122712481Y-24236684D01*
X122712481Y-24991059D01*
G37*
G36*
X122214640Y-24993600D02*
G01*
X121950478Y-24993600D01*
X121950478Y-24239225D01*
X122214640Y-24239225D01*
X122214640Y-24993600D01*
G37*
G36*
X121714260Y-24993600D02*
G01*
X121450097Y-24993600D01*
X121450097Y-24239225D01*
X121714260Y-24239225D01*
X121714260Y-24993600D01*
G37*
G36*
X121213879Y-24996140D02*
G01*
X120949716Y-24996140D01*
X120949716Y-24241765D01*
X121213879Y-24241765D01*
X121213879Y-24996140D01*
G37*
%TO.C,U12*%
G36*
X143545562Y-170019979D02*
G01*
X143281400Y-170019979D01*
X143281400Y-169265604D01*
X143545562Y-169265604D01*
X143545562Y-170019979D01*
G37*
G36*
X143050263Y-170019979D02*
G01*
X142786100Y-170019979D01*
X142786100Y-169265604D01*
X143050263Y-169265604D01*
X143050263Y-170019979D01*
G37*
G36*
X142547344Y-170019979D02*
G01*
X142283182Y-170019979D01*
X142283182Y-169265604D01*
X142547344Y-169265604D01*
X142547344Y-170019979D01*
G37*
G36*
X144048481Y-170022519D02*
G01*
X143784318Y-170022519D01*
X143784318Y-169268141D01*
X144048481Y-169268141D01*
X144048481Y-170022519D01*
G37*
G36*
X143497300Y-171373800D02*
G01*
X142836900Y-171373800D01*
X142836900Y-170713400D01*
X143497300Y-170713400D01*
X143497300Y-171373800D01*
G37*
G36*
X144048481Y-172819059D02*
G01*
X143784318Y-172819059D01*
X143784318Y-172064684D01*
X144048481Y-172064684D01*
X144048481Y-172819059D01*
G37*
G36*
X143550640Y-172821600D02*
G01*
X143286478Y-172821600D01*
X143286478Y-172067225D01*
X143550640Y-172067225D01*
X143550640Y-172821600D01*
G37*
G36*
X143050260Y-172821600D02*
G01*
X142786097Y-172821600D01*
X142786097Y-172067225D01*
X143050260Y-172067225D01*
X143050260Y-172821600D01*
G37*
G36*
X142549879Y-172824140D02*
G01*
X142285716Y-172824140D01*
X142285716Y-172069765D01*
X142549879Y-172069765D01*
X142549879Y-172824140D01*
G37*
%TO.C,U57*%
G36*
X111541562Y-22191979D02*
G01*
X111277400Y-22191979D01*
X111277400Y-21437604D01*
X111541562Y-21437604D01*
X111541562Y-22191979D01*
G37*
G36*
X111046263Y-22191979D02*
G01*
X110782100Y-22191979D01*
X110782100Y-21437604D01*
X111046263Y-21437604D01*
X111046263Y-22191979D01*
G37*
G36*
X110543344Y-22191979D02*
G01*
X110279182Y-22191979D01*
X110279182Y-21437604D01*
X110543344Y-21437604D01*
X110543344Y-22191979D01*
G37*
G36*
X112044481Y-22194519D02*
G01*
X111780318Y-22194519D01*
X111780318Y-21440141D01*
X112044481Y-21440141D01*
X112044481Y-22194519D01*
G37*
G36*
X111493300Y-23545800D02*
G01*
X110832900Y-23545800D01*
X110832900Y-22885400D01*
X111493300Y-22885400D01*
X111493300Y-23545800D01*
G37*
G36*
X112044481Y-24991059D02*
G01*
X111780318Y-24991059D01*
X111780318Y-24236684D01*
X112044481Y-24236684D01*
X112044481Y-24991059D01*
G37*
G36*
X111546640Y-24993600D02*
G01*
X111282478Y-24993600D01*
X111282478Y-24239225D01*
X111546640Y-24239225D01*
X111546640Y-24993600D01*
G37*
G36*
X111046260Y-24993600D02*
G01*
X110782097Y-24993600D01*
X110782097Y-24239225D01*
X111046260Y-24239225D01*
X111046260Y-24993600D01*
G37*
G36*
X110545879Y-24996140D02*
G01*
X110281716Y-24996140D01*
X110281716Y-24241765D01*
X110545879Y-24241765D01*
X110545879Y-24996140D01*
G37*
%TO.C,U56*%
G36*
X186217562Y-46829979D02*
G01*
X185953400Y-46829979D01*
X185953400Y-46075604D01*
X186217562Y-46075604D01*
X186217562Y-46829979D01*
G37*
G36*
X185722263Y-46829979D02*
G01*
X185458100Y-46829979D01*
X185458100Y-46075604D01*
X185722263Y-46075604D01*
X185722263Y-46829979D01*
G37*
G36*
X185219344Y-46829979D02*
G01*
X184955182Y-46829979D01*
X184955182Y-46075604D01*
X185219344Y-46075604D01*
X185219344Y-46829979D01*
G37*
G36*
X186720481Y-46832519D02*
G01*
X186456318Y-46832519D01*
X186456318Y-46078141D01*
X186720481Y-46078141D01*
X186720481Y-46832519D01*
G37*
G36*
X186169300Y-48183800D02*
G01*
X185508900Y-48183800D01*
X185508900Y-47523400D01*
X186169300Y-47523400D01*
X186169300Y-48183800D01*
G37*
G36*
X186720481Y-49629059D02*
G01*
X186456318Y-49629059D01*
X186456318Y-48874684D01*
X186720481Y-48874684D01*
X186720481Y-49629059D01*
G37*
G36*
X186222640Y-49631600D02*
G01*
X185958478Y-49631600D01*
X185958478Y-48877225D01*
X186222640Y-48877225D01*
X186222640Y-49631600D01*
G37*
G36*
X185722260Y-49631600D02*
G01*
X185458097Y-49631600D01*
X185458097Y-48877225D01*
X185722260Y-48877225D01*
X185722260Y-49631600D01*
G37*
G36*
X185221879Y-49634140D02*
G01*
X184957716Y-49634140D01*
X184957716Y-48879765D01*
X185221879Y-48879765D01*
X185221879Y-49634140D01*
G37*
%TO.C,U32*%
G36*
X186217562Y-120743979D02*
G01*
X185953400Y-120743979D01*
X185953400Y-119989604D01*
X186217562Y-119989604D01*
X186217562Y-120743979D01*
G37*
G36*
X185722263Y-120743979D02*
G01*
X185458100Y-120743979D01*
X185458100Y-119989604D01*
X185722263Y-119989604D01*
X185722263Y-120743979D01*
G37*
G36*
X185219344Y-120743979D02*
G01*
X184955182Y-120743979D01*
X184955182Y-119989604D01*
X185219344Y-119989604D01*
X185219344Y-120743979D01*
G37*
G36*
X186720481Y-120746519D02*
G01*
X186456318Y-120746519D01*
X186456318Y-119992141D01*
X186720481Y-119992141D01*
X186720481Y-120746519D01*
G37*
G36*
X186169300Y-122097800D02*
G01*
X185508900Y-122097800D01*
X185508900Y-121437400D01*
X186169300Y-121437400D01*
X186169300Y-122097800D01*
G37*
G36*
X186720481Y-123543059D02*
G01*
X186456318Y-123543059D01*
X186456318Y-122788684D01*
X186720481Y-122788684D01*
X186720481Y-123543059D01*
G37*
G36*
X186222640Y-123545600D02*
G01*
X185958478Y-123545600D01*
X185958478Y-122791225D01*
X186222640Y-122791225D01*
X186222640Y-123545600D01*
G37*
G36*
X185722260Y-123545600D02*
G01*
X185458097Y-123545600D01*
X185458097Y-122791225D01*
X185722260Y-122791225D01*
X185722260Y-123545600D01*
G37*
G36*
X185221879Y-123548140D02*
G01*
X184957716Y-123548140D01*
X184957716Y-122793765D01*
X185221879Y-122793765D01*
X185221879Y-123548140D01*
G37*
%TO.C,U44*%
G36*
X143545562Y-71467979D02*
G01*
X143281400Y-71467979D01*
X143281400Y-70713604D01*
X143545562Y-70713604D01*
X143545562Y-71467979D01*
G37*
G36*
X143050263Y-71467979D02*
G01*
X142786100Y-71467979D01*
X142786100Y-70713604D01*
X143050263Y-70713604D01*
X143050263Y-71467979D01*
G37*
G36*
X142547344Y-71467979D02*
G01*
X142283182Y-71467979D01*
X142283182Y-70713604D01*
X142547344Y-70713604D01*
X142547344Y-71467979D01*
G37*
G36*
X144048481Y-71470519D02*
G01*
X143784318Y-71470519D01*
X143784318Y-70716141D01*
X144048481Y-70716141D01*
X144048481Y-71470519D01*
G37*
G36*
X143497300Y-72821800D02*
G01*
X142836900Y-72821800D01*
X142836900Y-72161400D01*
X143497300Y-72161400D01*
X143497300Y-72821800D01*
G37*
G36*
X144048481Y-74267059D02*
G01*
X143784318Y-74267059D01*
X143784318Y-73512684D01*
X144048481Y-73512684D01*
X144048481Y-74267059D01*
G37*
G36*
X143550640Y-74269600D02*
G01*
X143286478Y-74269600D01*
X143286478Y-73515225D01*
X143550640Y-73515225D01*
X143550640Y-74269600D01*
G37*
G36*
X143050260Y-74269600D02*
G01*
X142786097Y-74269600D01*
X142786097Y-73515225D01*
X143050260Y-73515225D01*
X143050260Y-74269600D01*
G37*
G36*
X142549879Y-74272140D02*
G01*
X142285716Y-74272140D01*
X142285716Y-73517765D01*
X142549879Y-73517765D01*
X142549879Y-74272140D01*
G37*
%TO.C,U9*%
G36*
X111541562Y-170019979D02*
G01*
X111277400Y-170019979D01*
X111277400Y-169265604D01*
X111541562Y-169265604D01*
X111541562Y-170019979D01*
G37*
G36*
X111046263Y-170019979D02*
G01*
X110782100Y-170019979D01*
X110782100Y-169265604D01*
X111046263Y-169265604D01*
X111046263Y-170019979D01*
G37*
G36*
X110543344Y-170019979D02*
G01*
X110279182Y-170019979D01*
X110279182Y-169265604D01*
X110543344Y-169265604D01*
X110543344Y-170019979D01*
G37*
G36*
X112044481Y-170022519D02*
G01*
X111780318Y-170022519D01*
X111780318Y-169268141D01*
X112044481Y-169268141D01*
X112044481Y-170022519D01*
G37*
G36*
X111493300Y-171373800D02*
G01*
X110832900Y-171373800D01*
X110832900Y-170713400D01*
X111493300Y-170713400D01*
X111493300Y-171373800D01*
G37*
G36*
X112044481Y-172819059D02*
G01*
X111780318Y-172819059D01*
X111780318Y-172064684D01*
X112044481Y-172064684D01*
X112044481Y-172819059D01*
G37*
G36*
X111546640Y-172821600D02*
G01*
X111282478Y-172821600D01*
X111282478Y-172067225D01*
X111546640Y-172067225D01*
X111546640Y-172821600D01*
G37*
G36*
X111046260Y-172821600D02*
G01*
X110782097Y-172821600D01*
X110782097Y-172067225D01*
X111046260Y-172067225D01*
X111046260Y-172821600D01*
G37*
G36*
X110545879Y-172824140D02*
G01*
X110281716Y-172824140D01*
X110281716Y-172069765D01*
X110545879Y-172069765D01*
X110545879Y-172824140D01*
G37*
%TO.C,U61*%
G36*
X154213562Y-22191979D02*
G01*
X153949400Y-22191979D01*
X153949400Y-21437604D01*
X154213562Y-21437604D01*
X154213562Y-22191979D01*
G37*
G36*
X153718263Y-22191979D02*
G01*
X153454100Y-22191979D01*
X153454100Y-21437604D01*
X153718263Y-21437604D01*
X153718263Y-22191979D01*
G37*
G36*
X153215344Y-22191979D02*
G01*
X152951182Y-22191979D01*
X152951182Y-21437604D01*
X153215344Y-21437604D01*
X153215344Y-22191979D01*
G37*
G36*
X154716481Y-22194519D02*
G01*
X154452318Y-22194519D01*
X154452318Y-21440141D01*
X154716481Y-21440141D01*
X154716481Y-22194519D01*
G37*
G36*
X154165300Y-23545800D02*
G01*
X153504900Y-23545800D01*
X153504900Y-22885400D01*
X154165300Y-22885400D01*
X154165300Y-23545800D01*
G37*
G36*
X154716481Y-24991059D02*
G01*
X154452318Y-24991059D01*
X154452318Y-24236684D01*
X154716481Y-24236684D01*
X154716481Y-24991059D01*
G37*
G36*
X154218640Y-24993600D02*
G01*
X153954478Y-24993600D01*
X153954478Y-24239225D01*
X154218640Y-24239225D01*
X154218640Y-24993600D01*
G37*
G36*
X153718260Y-24993600D02*
G01*
X153454097Y-24993600D01*
X153454097Y-24239225D01*
X153718260Y-24239225D01*
X153718260Y-24993600D01*
G37*
G36*
X153217879Y-24996140D02*
G01*
X152953716Y-24996140D01*
X152953716Y-24241765D01*
X153217879Y-24241765D01*
X153217879Y-24996140D01*
G37*
%TO.C,U41*%
G36*
X111541562Y-71467979D02*
G01*
X111277400Y-71467979D01*
X111277400Y-70713604D01*
X111541562Y-70713604D01*
X111541562Y-71467979D01*
G37*
G36*
X111046263Y-71467979D02*
G01*
X110782100Y-71467979D01*
X110782100Y-70713604D01*
X111046263Y-70713604D01*
X111046263Y-71467979D01*
G37*
G36*
X110543344Y-71467979D02*
G01*
X110279182Y-71467979D01*
X110279182Y-70713604D01*
X110543344Y-70713604D01*
X110543344Y-71467979D01*
G37*
G36*
X112044481Y-71470519D02*
G01*
X111780318Y-71470519D01*
X111780318Y-70716141D01*
X112044481Y-70716141D01*
X112044481Y-71470519D01*
G37*
G36*
X111493300Y-72821800D02*
G01*
X110832900Y-72821800D01*
X110832900Y-72161400D01*
X111493300Y-72161400D01*
X111493300Y-72821800D01*
G37*
G36*
X112044481Y-74267059D02*
G01*
X111780318Y-74267059D01*
X111780318Y-73512684D01*
X112044481Y-73512684D01*
X112044481Y-74267059D01*
G37*
G36*
X111546640Y-74269600D02*
G01*
X111282478Y-74269600D01*
X111282478Y-73515225D01*
X111546640Y-73515225D01*
X111546640Y-74269600D01*
G37*
G36*
X111046260Y-74269600D02*
G01*
X110782097Y-74269600D01*
X110782097Y-73515225D01*
X111046260Y-73515225D01*
X111046260Y-74269600D01*
G37*
G36*
X110545879Y-74272140D02*
G01*
X110281716Y-74272140D01*
X110281716Y-73517765D01*
X110545879Y-73517765D01*
X110545879Y-74272140D01*
G37*
%TO.C,U20*%
G36*
X143545562Y-145381979D02*
G01*
X143281400Y-145381979D01*
X143281400Y-144627604D01*
X143545562Y-144627604D01*
X143545562Y-145381979D01*
G37*
G36*
X143050263Y-145381979D02*
G01*
X142786100Y-145381979D01*
X142786100Y-144627604D01*
X143050263Y-144627604D01*
X143050263Y-145381979D01*
G37*
G36*
X142547344Y-145381979D02*
G01*
X142283182Y-145381979D01*
X142283182Y-144627604D01*
X142547344Y-144627604D01*
X142547344Y-145381979D01*
G37*
G36*
X144048481Y-145384519D02*
G01*
X143784318Y-145384519D01*
X143784318Y-144630141D01*
X144048481Y-144630141D01*
X144048481Y-145384519D01*
G37*
G36*
X143497300Y-146735800D02*
G01*
X142836900Y-146735800D01*
X142836900Y-146075400D01*
X143497300Y-146075400D01*
X143497300Y-146735800D01*
G37*
G36*
X144048481Y-148181059D02*
G01*
X143784318Y-148181059D01*
X143784318Y-147426684D01*
X144048481Y-147426684D01*
X144048481Y-148181059D01*
G37*
G36*
X143550640Y-148183600D02*
G01*
X143286478Y-148183600D01*
X143286478Y-147429225D01*
X143550640Y-147429225D01*
X143550640Y-148183600D01*
G37*
G36*
X143050260Y-148183600D02*
G01*
X142786097Y-148183600D01*
X142786097Y-147429225D01*
X143050260Y-147429225D01*
X143050260Y-148183600D01*
G37*
G36*
X142549879Y-148186140D02*
G01*
X142285716Y-148186140D01*
X142285716Y-147431765D01*
X142549879Y-147431765D01*
X142549879Y-148186140D01*
G37*
%TO.C,U11*%
G36*
X132877562Y-170019979D02*
G01*
X132613400Y-170019979D01*
X132613400Y-169265604D01*
X132877562Y-169265604D01*
X132877562Y-170019979D01*
G37*
G36*
X132382263Y-170019979D02*
G01*
X132118100Y-170019979D01*
X132118100Y-169265604D01*
X132382263Y-169265604D01*
X132382263Y-170019979D01*
G37*
G36*
X131879344Y-170019979D02*
G01*
X131615182Y-170019979D01*
X131615182Y-169265604D01*
X131879344Y-169265604D01*
X131879344Y-170019979D01*
G37*
G36*
X133380481Y-170022519D02*
G01*
X133116318Y-170022519D01*
X133116318Y-169268141D01*
X133380481Y-169268141D01*
X133380481Y-170022519D01*
G37*
G36*
X132829300Y-171373800D02*
G01*
X132168900Y-171373800D01*
X132168900Y-170713400D01*
X132829300Y-170713400D01*
X132829300Y-171373800D01*
G37*
G36*
X133380481Y-172819059D02*
G01*
X133116318Y-172819059D01*
X133116318Y-172064684D01*
X133380481Y-172064684D01*
X133380481Y-172819059D01*
G37*
G36*
X132882640Y-172821600D02*
G01*
X132618478Y-172821600D01*
X132618478Y-172067225D01*
X132882640Y-172067225D01*
X132882640Y-172821600D01*
G37*
G36*
X132382260Y-172821600D02*
G01*
X132118097Y-172821600D01*
X132118097Y-172067225D01*
X132382260Y-172067225D01*
X132382260Y-172821600D01*
G37*
G36*
X131881879Y-172824140D02*
G01*
X131617716Y-172824140D01*
X131617716Y-172069765D01*
X131881879Y-172069765D01*
X131881879Y-172824140D01*
G37*
%TO.C,U14*%
G36*
X164881562Y-170019979D02*
G01*
X164617400Y-170019979D01*
X164617400Y-169265604D01*
X164881562Y-169265604D01*
X164881562Y-170019979D01*
G37*
G36*
X164386263Y-170019979D02*
G01*
X164122100Y-170019979D01*
X164122100Y-169265604D01*
X164386263Y-169265604D01*
X164386263Y-170019979D01*
G37*
G36*
X163883344Y-170019979D02*
G01*
X163619182Y-170019979D01*
X163619182Y-169265604D01*
X163883344Y-169265604D01*
X163883344Y-170019979D01*
G37*
G36*
X165384481Y-170022519D02*
G01*
X165120318Y-170022519D01*
X165120318Y-169268141D01*
X165384481Y-169268141D01*
X165384481Y-170022519D01*
G37*
G36*
X164833300Y-171373800D02*
G01*
X164172900Y-171373800D01*
X164172900Y-170713400D01*
X164833300Y-170713400D01*
X164833300Y-171373800D01*
G37*
G36*
X165384481Y-172819059D02*
G01*
X165120318Y-172819059D01*
X165120318Y-172064684D01*
X165384481Y-172064684D01*
X165384481Y-172819059D01*
G37*
G36*
X164886640Y-172821600D02*
G01*
X164622478Y-172821600D01*
X164622478Y-172067225D01*
X164886640Y-172067225D01*
X164886640Y-172821600D01*
G37*
G36*
X164386260Y-172821600D02*
G01*
X164122097Y-172821600D01*
X164122097Y-172067225D01*
X164386260Y-172067225D01*
X164386260Y-172821600D01*
G37*
G36*
X163885879Y-172824140D02*
G01*
X163621716Y-172824140D01*
X163621716Y-172069765D01*
X163885879Y-172069765D01*
X163885879Y-172824140D01*
G37*
%TO.C,U5*%
G36*
X154213562Y-194657979D02*
G01*
X153949400Y-194657979D01*
X153949400Y-193903604D01*
X154213562Y-193903604D01*
X154213562Y-194657979D01*
G37*
G36*
X153718263Y-194657979D02*
G01*
X153454100Y-194657979D01*
X153454100Y-193903604D01*
X153718263Y-193903604D01*
X153718263Y-194657979D01*
G37*
G36*
X153215344Y-194657979D02*
G01*
X152951182Y-194657979D01*
X152951182Y-193903604D01*
X153215344Y-193903604D01*
X153215344Y-194657979D01*
G37*
G36*
X154716481Y-194660519D02*
G01*
X154452318Y-194660519D01*
X154452318Y-193906141D01*
X154716481Y-193906141D01*
X154716481Y-194660519D01*
G37*
G36*
X154165300Y-196011800D02*
G01*
X153504900Y-196011800D01*
X153504900Y-195351400D01*
X154165300Y-195351400D01*
X154165300Y-196011800D01*
G37*
G36*
X154716481Y-197457059D02*
G01*
X154452318Y-197457059D01*
X154452318Y-196702684D01*
X154716481Y-196702684D01*
X154716481Y-197457059D01*
G37*
G36*
X154218640Y-197459600D02*
G01*
X153954478Y-197459600D01*
X153954478Y-196705225D01*
X154218640Y-196705225D01*
X154218640Y-197459600D01*
G37*
G36*
X153718260Y-197459600D02*
G01*
X153454097Y-197459600D01*
X153454097Y-196705225D01*
X153718260Y-196705225D01*
X153718260Y-197459600D01*
G37*
G36*
X153217879Y-197462140D02*
G01*
X152953716Y-197462140D01*
X152953716Y-196707765D01*
X153217879Y-196707765D01*
X153217879Y-197462140D01*
G37*
%TO.C,U28*%
G36*
X143545562Y-120743979D02*
G01*
X143281400Y-120743979D01*
X143281400Y-119989604D01*
X143545562Y-119989604D01*
X143545562Y-120743979D01*
G37*
G36*
X143050263Y-120743979D02*
G01*
X142786100Y-120743979D01*
X142786100Y-119989604D01*
X143050263Y-119989604D01*
X143050263Y-120743979D01*
G37*
G36*
X142547344Y-120743979D02*
G01*
X142283182Y-120743979D01*
X142283182Y-119989604D01*
X142547344Y-119989604D01*
X142547344Y-120743979D01*
G37*
G36*
X144048481Y-120746519D02*
G01*
X143784318Y-120746519D01*
X143784318Y-119992141D01*
X144048481Y-119992141D01*
X144048481Y-120746519D01*
G37*
G36*
X143497300Y-122097800D02*
G01*
X142836900Y-122097800D01*
X142836900Y-121437400D01*
X143497300Y-121437400D01*
X143497300Y-122097800D01*
G37*
G36*
X144048481Y-123543059D02*
G01*
X143784318Y-123543059D01*
X143784318Y-122788684D01*
X144048481Y-122788684D01*
X144048481Y-123543059D01*
G37*
G36*
X143550640Y-123545600D02*
G01*
X143286478Y-123545600D01*
X143286478Y-122791225D01*
X143550640Y-122791225D01*
X143550640Y-123545600D01*
G37*
G36*
X143050260Y-123545600D02*
G01*
X142786097Y-123545600D01*
X142786097Y-122791225D01*
X143050260Y-122791225D01*
X143050260Y-123545600D01*
G37*
G36*
X142549879Y-123548140D02*
G01*
X142285716Y-123548140D01*
X142285716Y-122793765D01*
X142549879Y-122793765D01*
X142549879Y-123548140D01*
G37*
%TO.C,U23*%
G36*
X175549562Y-145381979D02*
G01*
X175285400Y-145381979D01*
X175285400Y-144627604D01*
X175549562Y-144627604D01*
X175549562Y-145381979D01*
G37*
G36*
X175054263Y-145381979D02*
G01*
X174790100Y-145381979D01*
X174790100Y-144627604D01*
X175054263Y-144627604D01*
X175054263Y-145381979D01*
G37*
G36*
X174551344Y-145381979D02*
G01*
X174287182Y-145381979D01*
X174287182Y-144627604D01*
X174551344Y-144627604D01*
X174551344Y-145381979D01*
G37*
G36*
X176052481Y-145384519D02*
G01*
X175788318Y-145384519D01*
X175788318Y-144630141D01*
X176052481Y-144630141D01*
X176052481Y-145384519D01*
G37*
G36*
X175501300Y-146735800D02*
G01*
X174840900Y-146735800D01*
X174840900Y-146075400D01*
X175501300Y-146075400D01*
X175501300Y-146735800D01*
G37*
G36*
X176052481Y-148181059D02*
G01*
X175788318Y-148181059D01*
X175788318Y-147426684D01*
X176052481Y-147426684D01*
X176052481Y-148181059D01*
G37*
G36*
X175554640Y-148183600D02*
G01*
X175290478Y-148183600D01*
X175290478Y-147429225D01*
X175554640Y-147429225D01*
X175554640Y-148183600D01*
G37*
G36*
X175054260Y-148183600D02*
G01*
X174790097Y-148183600D01*
X174790097Y-147429225D01*
X175054260Y-147429225D01*
X175054260Y-148183600D01*
G37*
G36*
X174553879Y-148186140D02*
G01*
X174289716Y-148186140D01*
X174289716Y-147431765D01*
X174553879Y-147431765D01*
X174553879Y-148186140D01*
G37*
%TO.C,U13*%
G36*
X154213562Y-170019979D02*
G01*
X153949400Y-170019979D01*
X153949400Y-169265604D01*
X154213562Y-169265604D01*
X154213562Y-170019979D01*
G37*
G36*
X153718263Y-170019979D02*
G01*
X153454100Y-170019979D01*
X153454100Y-169265604D01*
X153718263Y-169265604D01*
X153718263Y-170019979D01*
G37*
G36*
X153215344Y-170019979D02*
G01*
X152951182Y-170019979D01*
X152951182Y-169265604D01*
X153215344Y-169265604D01*
X153215344Y-170019979D01*
G37*
G36*
X154716481Y-170022519D02*
G01*
X154452318Y-170022519D01*
X154452318Y-169268141D01*
X154716481Y-169268141D01*
X154716481Y-170022519D01*
G37*
G36*
X154165300Y-171373800D02*
G01*
X153504900Y-171373800D01*
X153504900Y-170713400D01*
X154165300Y-170713400D01*
X154165300Y-171373800D01*
G37*
G36*
X154716481Y-172819059D02*
G01*
X154452318Y-172819059D01*
X154452318Y-172064684D01*
X154716481Y-172064684D01*
X154716481Y-172819059D01*
G37*
G36*
X154218640Y-172821600D02*
G01*
X153954478Y-172821600D01*
X153954478Y-172067225D01*
X154218640Y-172067225D01*
X154218640Y-172821600D01*
G37*
G36*
X153718260Y-172821600D02*
G01*
X153454097Y-172821600D01*
X153454097Y-172067225D01*
X153718260Y-172067225D01*
X153718260Y-172821600D01*
G37*
G36*
X153217879Y-172824140D02*
G01*
X152953716Y-172824140D01*
X152953716Y-172069765D01*
X153217879Y-172069765D01*
X153217879Y-172824140D01*
G37*
%TO.C,U29*%
G36*
X154213562Y-120743979D02*
G01*
X153949400Y-120743979D01*
X153949400Y-119989604D01*
X154213562Y-119989604D01*
X154213562Y-120743979D01*
G37*
G36*
X153718263Y-120743979D02*
G01*
X153454100Y-120743979D01*
X153454100Y-119989604D01*
X153718263Y-119989604D01*
X153718263Y-120743979D01*
G37*
G36*
X153215344Y-120743979D02*
G01*
X152951182Y-120743979D01*
X152951182Y-119989604D01*
X153215344Y-119989604D01*
X153215344Y-120743979D01*
G37*
G36*
X154716481Y-120746519D02*
G01*
X154452318Y-120746519D01*
X154452318Y-119992141D01*
X154716481Y-119992141D01*
X154716481Y-120746519D01*
G37*
G36*
X154165300Y-122097800D02*
G01*
X153504900Y-122097800D01*
X153504900Y-121437400D01*
X154165300Y-121437400D01*
X154165300Y-122097800D01*
G37*
G36*
X154716481Y-123543059D02*
G01*
X154452318Y-123543059D01*
X154452318Y-122788684D01*
X154716481Y-122788684D01*
X154716481Y-123543059D01*
G37*
G36*
X154218640Y-123545600D02*
G01*
X153954478Y-123545600D01*
X153954478Y-122791225D01*
X154218640Y-122791225D01*
X154218640Y-123545600D01*
G37*
G36*
X153718260Y-123545600D02*
G01*
X153454097Y-123545600D01*
X153454097Y-122791225D01*
X153718260Y-122791225D01*
X153718260Y-123545600D01*
G37*
G36*
X153217879Y-123548140D02*
G01*
X152953716Y-123548140D01*
X152953716Y-122793765D01*
X153217879Y-122793765D01*
X153217879Y-123548140D01*
G37*
%TO.C,U62*%
G36*
X164881562Y-22191979D02*
G01*
X164617400Y-22191979D01*
X164617400Y-21437604D01*
X164881562Y-21437604D01*
X164881562Y-22191979D01*
G37*
G36*
X164386263Y-22191979D02*
G01*
X164122100Y-22191979D01*
X164122100Y-21437604D01*
X164386263Y-21437604D01*
X164386263Y-22191979D01*
G37*
G36*
X163883344Y-22191979D02*
G01*
X163619182Y-22191979D01*
X163619182Y-21437604D01*
X163883344Y-21437604D01*
X163883344Y-22191979D01*
G37*
G36*
X165384481Y-22194519D02*
G01*
X165120318Y-22194519D01*
X165120318Y-21440141D01*
X165384481Y-21440141D01*
X165384481Y-22194519D01*
G37*
G36*
X164833300Y-23545800D02*
G01*
X164172900Y-23545800D01*
X164172900Y-22885400D01*
X164833300Y-22885400D01*
X164833300Y-23545800D01*
G37*
G36*
X165384481Y-24991059D02*
G01*
X165120318Y-24991059D01*
X165120318Y-24236684D01*
X165384481Y-24236684D01*
X165384481Y-24991059D01*
G37*
G36*
X164886640Y-24993600D02*
G01*
X164622478Y-24993600D01*
X164622478Y-24239225D01*
X164886640Y-24239225D01*
X164886640Y-24993600D01*
G37*
G36*
X164386260Y-24993600D02*
G01*
X164122097Y-24993600D01*
X164122097Y-24239225D01*
X164386260Y-24239225D01*
X164386260Y-24993600D01*
G37*
G36*
X163885879Y-24996140D02*
G01*
X163621716Y-24996140D01*
X163621716Y-24241765D01*
X163885879Y-24241765D01*
X163885879Y-24996140D01*
G37*
%TO.C,U46*%
G36*
X164881562Y-71467979D02*
G01*
X164617400Y-71467979D01*
X164617400Y-70713604D01*
X164881562Y-70713604D01*
X164881562Y-71467979D01*
G37*
G36*
X164386263Y-71467979D02*
G01*
X164122100Y-71467979D01*
X164122100Y-70713604D01*
X164386263Y-70713604D01*
X164386263Y-71467979D01*
G37*
G36*
X163883344Y-71467979D02*
G01*
X163619182Y-71467979D01*
X163619182Y-70713604D01*
X163883344Y-70713604D01*
X163883344Y-71467979D01*
G37*
G36*
X165384481Y-71470519D02*
G01*
X165120318Y-71470519D01*
X165120318Y-70716141D01*
X165384481Y-70716141D01*
X165384481Y-71470519D01*
G37*
G36*
X164833300Y-72821800D02*
G01*
X164172900Y-72821800D01*
X164172900Y-72161400D01*
X164833300Y-72161400D01*
X164833300Y-72821800D01*
G37*
G36*
X165384481Y-74267059D02*
G01*
X165120318Y-74267059D01*
X165120318Y-73512684D01*
X165384481Y-73512684D01*
X165384481Y-74267059D01*
G37*
G36*
X164886640Y-74269600D02*
G01*
X164622478Y-74269600D01*
X164622478Y-73515225D01*
X164886640Y-73515225D01*
X164886640Y-74269600D01*
G37*
G36*
X164386260Y-74269600D02*
G01*
X164122097Y-74269600D01*
X164122097Y-73515225D01*
X164386260Y-73515225D01*
X164386260Y-74269600D01*
G37*
G36*
X163885879Y-74272140D02*
G01*
X163621716Y-74272140D01*
X163621716Y-73517765D01*
X163885879Y-73517765D01*
X163885879Y-74272140D01*
G37*
%TD*%
D10*
%TO.C,R307*%
X144937100Y-45313600D03*
X143937100Y-45313600D03*
%TD*%
%TO.C,R91*%
X187609100Y-168503600D03*
X186609100Y-168503600D03*
%TD*%
D11*
%TO.C,R40*%
X172131100Y-200761600D03*
X173131100Y-200761600D03*
%TD*%
D10*
%TO.C,R158*%
X131729100Y-119227600D03*
X130729100Y-119227600D03*
%TD*%
D12*
%TO.C,C63*%
X189649100Y-117187600D03*
X189649100Y-116187600D03*
%TD*%
D10*
%TO.C,R269*%
X156875100Y-78841600D03*
X155875100Y-78841600D03*
%TD*%
D12*
%TO.C,C20*%
X118021100Y-166463600D03*
X118021100Y-165463600D03*
%TD*%
D10*
%TO.C,R253*%
X134269100Y-69951600D03*
X133269100Y-69951600D03*
%TD*%
D13*
%TO.C,JP523*%
X131499100Y-14215600D03*
X133499100Y-14215600D03*
D14*
X129099100Y-9015600D03*
X135899100Y-9015600D03*
%TD*%
D12*
%TO.C,C70*%
X128689100Y-92549600D03*
X128689100Y-91549600D03*
%TD*%
D10*
%TO.C,R61*%
X134269100Y-168503600D03*
X133269100Y-168503600D03*
%TD*%
D13*
%TO.C,JP370*%
X120831100Y-63491600D03*
X122831100Y-63491600D03*
D14*
X118431100Y-58291600D03*
X125231100Y-58291600D03*
%TD*%
D11*
%TO.C,R75*%
X150795100Y-177393600D03*
X151795100Y-177393600D03*
%TD*%
D13*
%TO.C,JP496*%
X184839100Y-38853600D03*
X186839100Y-38853600D03*
D14*
X182439100Y-33653600D03*
X189239100Y-33653600D03*
%TD*%
D13*
%TO.C,JP397*%
X152835100Y-63491600D03*
X154835100Y-63491600D03*
D14*
X150435100Y-58291600D03*
X157235100Y-58291600D03*
%TD*%
D13*
%TO.C,JP298*%
X120831100Y-88129600D03*
X122831100Y-88129600D03*
D14*
X118431100Y-82929600D03*
X125231100Y-82929600D03*
%TD*%
D10*
%TO.C,R329*%
X178211100Y-54203600D03*
X177211100Y-54203600D03*
%TD*%
%TO.C,R139*%
X187609100Y-143865600D03*
X186609100Y-143865600D03*
%TD*%
D12*
%TO.C,C11*%
X168313100Y-191101600D03*
X168313100Y-190101600D03*
%TD*%
%TO.C,C67*%
X125641100Y-92549600D03*
X125641100Y-91549600D03*
%TD*%
%TO.C,C13*%
X178981100Y-191101600D03*
X178981100Y-190101600D03*
%TD*%
D10*
%TO.C,R162*%
X135539100Y-126847600D03*
X134539100Y-126847600D03*
%TD*%
%TO.C,R102*%
X114203100Y-151485600D03*
X113203100Y-151485600D03*
%TD*%
%TO.C,R360*%
X146207100Y-28295600D03*
X145207100Y-28295600D03*
%TD*%
D11*
%TO.C,R81*%
X161463100Y-177393600D03*
X162463100Y-177393600D03*
%TD*%
D10*
%TO.C,R108*%
X124871100Y-151485600D03*
X123871100Y-151485600D03*
%TD*%
%TO.C,R131*%
X167543100Y-152755600D03*
X166543100Y-152755600D03*
%TD*%
D13*
%TO.C,JP460*%
X142167100Y-38853600D03*
X144167100Y-38853600D03*
D14*
X139767100Y-33653600D03*
X146567100Y-33653600D03*
%TD*%
D12*
%TO.C,C105*%
X157645100Y-43273600D03*
X157645100Y-42273600D03*
%TD*%
D10*
%TO.C,R155*%
X124871100Y-128117600D03*
X123871100Y-128117600D03*
%TD*%
%TO.C,R245*%
X114203100Y-78841600D03*
X113203100Y-78841600D03*
%TD*%
D12*
%TO.C,C51*%
X125641100Y-117187600D03*
X125641100Y-116187600D03*
%TD*%
D11*
%TO.C,R357*%
X140127100Y-29565600D03*
X141127100Y-29565600D03*
%TD*%
D12*
%TO.C,C122*%
X150025100Y-18635600D03*
X150025100Y-17635600D03*
%TD*%
%TO.C,C32*%
X182029100Y-166463600D03*
X182029100Y-165463600D03*
%TD*%
D11*
%TO.C,R340*%
X108123100Y-28295600D03*
X109123100Y-28295600D03*
%TD*%
%TO.C,R291*%
X108123100Y-54203600D03*
X109123100Y-54203600D03*
%TD*%
D10*
%TO.C,R224*%
X163733100Y-94589600D03*
X162733100Y-94589600D03*
%TD*%
D13*
%TO.C,JP379*%
X131499100Y-63491600D03*
X133499100Y-63491600D03*
D14*
X129099100Y-58291600D03*
X135899100Y-58291600D03*
%TD*%
D10*
%TO.C,R338*%
X110393100Y-20675600D03*
X109393100Y-20675600D03*
%TD*%
D12*
%TO.C,C121*%
X157645100Y-18635600D03*
X157645100Y-17635600D03*
%TD*%
D10*
%TO.C,R374*%
X174401100Y-20675600D03*
X173401100Y-20675600D03*
%TD*%
%TO.C,R230*%
X174401100Y-94589600D03*
X173401100Y-94589600D03*
%TD*%
D11*
%TO.C,R183*%
X172131100Y-128117600D03*
X173131100Y-128117600D03*
%TD*%
D13*
%TO.C,JP64*%
X184839100Y-186681600D03*
X186839100Y-186681600D03*
D14*
X182439100Y-181481600D03*
X189239100Y-181481600D03*
%TD*%
D10*
%TO.C,R127*%
X166273100Y-143865600D03*
X165273100Y-143865600D03*
%TD*%
D12*
%TO.C,C95*%
X189649100Y-67911600D03*
X189649100Y-66911600D03*
%TD*%
%TO.C,C39*%
X146977100Y-141825600D03*
X146977100Y-140825600D03*
%TD*%
D11*
%TO.C,R177*%
X161463100Y-128117600D03*
X162463100Y-128117600D03*
%TD*%
%TO.C,R249*%
X118791100Y-78841600D03*
X119791100Y-78841600D03*
%TD*%
D10*
%TO.C,R113*%
X135539100Y-152755600D03*
X134539100Y-152755600D03*
%TD*%
D11*
%TO.C,R231*%
X172131100Y-103479600D03*
X173131100Y-103479600D03*
%TD*%
D10*
%TO.C,R204*%
X124871100Y-102209600D03*
X123871100Y-102209600D03*
%TD*%
%TO.C,R121*%
X155605100Y-143865600D03*
X154605100Y-143865600D03*
%TD*%
D11*
%TO.C,R286*%
X182799100Y-77571600D03*
X183799100Y-77571600D03*
%TD*%
%TO.C,R214*%
X140127100Y-102209600D03*
X141127100Y-102209600D03*
%TD*%
D10*
%TO.C,R138*%
X178211100Y-151485600D03*
X177211100Y-151485600D03*
%TD*%
%TO.C,R25*%
X155605100Y-193141600D03*
X154605100Y-193141600D03*
%TD*%
D11*
%TO.C,R207*%
X129459100Y-103479600D03*
X130459100Y-103479600D03*
%TD*%
D10*
%TO.C,R302*%
X131729100Y-45313600D03*
X130729100Y-45313600D03*
%TD*%
%TO.C,R47*%
X188879100Y-202031600D03*
X187879100Y-202031600D03*
%TD*%
D12*
%TO.C,C103*%
X146977100Y-43273600D03*
X146977100Y-42273600D03*
%TD*%
%TO.C,C111*%
X189649100Y-43273600D03*
X189649100Y-42273600D03*
%TD*%
%TO.C,C28*%
X160693100Y-166463600D03*
X160693100Y-165463600D03*
%TD*%
D13*
%TO.C,JP514*%
X120831100Y-14215600D03*
X122831100Y-14215600D03*
D14*
X118431100Y-9015600D03*
X125231100Y-9015600D03*
%TD*%
D10*
%TO.C,R150*%
X114203100Y-126847600D03*
X113203100Y-126847600D03*
%TD*%
%TO.C,R277*%
X176941100Y-69951600D03*
X175941100Y-69951600D03*
%TD*%
%TO.C,R216*%
X146207100Y-102209600D03*
X145207100Y-102209600D03*
%TD*%
%TO.C,R344*%
X121061100Y-20675600D03*
X120061100Y-20675600D03*
%TD*%
D11*
%TO.C,R160*%
X129459100Y-126847600D03*
X130459100Y-126847600D03*
%TD*%
D12*
%TO.C,C81*%
X114973100Y-67911600D03*
X114973100Y-66911600D03*
%TD*%
D10*
%TO.C,R133*%
X176941100Y-143865600D03*
X175941100Y-143865600D03*
%TD*%
D12*
%TO.C,C4*%
X118021100Y-191101600D03*
X118021100Y-190101600D03*
%TD*%
D11*
%TO.C,R22*%
X140127100Y-200761600D03*
X141127100Y-200761600D03*
%TD*%
%TO.C,R100*%
X108123100Y-151485600D03*
X109123100Y-151485600D03*
%TD*%
D12*
%TO.C,C10*%
X150025100Y-191101600D03*
X150025100Y-190101600D03*
%TD*%
D11*
%TO.C,R130*%
X161463100Y-151485600D03*
X162463100Y-151485600D03*
%TD*%
D10*
%TO.C,R257*%
X135539100Y-78841600D03*
X134539100Y-78841600D03*
%TD*%
D12*
%TO.C,C17*%
X114973100Y-166463600D03*
X114973100Y-165463600D03*
%TD*%
%TO.C,C92*%
X160693100Y-67911600D03*
X160693100Y-66911600D03*
%TD*%
D11*
%TO.C,R261*%
X140127100Y-78841600D03*
X141127100Y-78841600D03*
%TD*%
%TO.C,R202*%
X118791100Y-102209600D03*
X119791100Y-102209600D03*
%TD*%
D13*
%TO.C,JP136*%
X184839100Y-162043600D03*
X186839100Y-162043600D03*
D14*
X182439100Y-156843600D03*
X189239100Y-156843600D03*
%TD*%
D10*
%TO.C,R198*%
X114203100Y-102209600D03*
X113203100Y-102209600D03*
%TD*%
D11*
%TO.C,R106*%
X118791100Y-151485600D03*
X119791100Y-151485600D03*
%TD*%
D10*
%TO.C,R246*%
X114203100Y-77571600D03*
X113203100Y-77571600D03*
%TD*%
D12*
%TO.C,C54*%
X128689100Y-117187600D03*
X128689100Y-116187600D03*
%TD*%
D11*
%TO.C,R285*%
X182799100Y-78841600D03*
X183799100Y-78841600D03*
%TD*%
%TO.C,R147*%
X108123100Y-128117600D03*
X109123100Y-128117600D03*
%TD*%
D13*
%TO.C,JP559*%
X174171100Y-14215600D03*
X176171100Y-14215600D03*
D14*
X171771100Y-9015600D03*
X178571100Y-9015600D03*
%TD*%
D12*
%TO.C,C97*%
X114973100Y-43273600D03*
X114973100Y-42273600D03*
%TD*%
D10*
%TO.C,R317*%
X156875100Y-54203600D03*
X155875100Y-54203600D03*
%TD*%
%TO.C,R96*%
X188879100Y-176123600D03*
X187879100Y-176123600D03*
%TD*%
%TO.C,R240*%
X188879100Y-102209600D03*
X187879100Y-102209600D03*
%TD*%
D12*
%TO.C,C33*%
X114973100Y-141825600D03*
X114973100Y-140825600D03*
%TD*%
D11*
%TO.C,R154*%
X118791100Y-126847600D03*
X119791100Y-126847600D03*
%TD*%
D10*
%TO.C,R169*%
X155605100Y-119227600D03*
X154605100Y-119227600D03*
%TD*%
%TO.C,R168*%
X146207100Y-126847600D03*
X145207100Y-126847600D03*
%TD*%
D11*
%TO.C,R171*%
X150795100Y-128117600D03*
X151795100Y-128117600D03*
%TD*%
D13*
%TO.C,JP487*%
X174171100Y-38853600D03*
X176171100Y-38853600D03*
D14*
X171771100Y-33653600D03*
X178571100Y-33653600D03*
%TD*%
D10*
%TO.C,R103*%
X123601100Y-143865600D03*
X122601100Y-143865600D03*
%TD*%
%TO.C,R366*%
X156875100Y-28295600D03*
X155875100Y-28295600D03*
%TD*%
%TO.C,R211*%
X144937100Y-94589600D03*
X143937100Y-94589600D03*
%TD*%
D12*
%TO.C,C73*%
X157645100Y-92549600D03*
X157645100Y-91549600D03*
%TD*%
D10*
%TO.C,R193*%
X112933100Y-94589600D03*
X111933100Y-94589600D03*
%TD*%
%TO.C,R80*%
X163733100Y-168503600D03*
X162733100Y-168503600D03*
%TD*%
D11*
%TO.C,R327*%
X172131100Y-54203600D03*
X173131100Y-54203600D03*
%TD*%
%TO.C,R213*%
X140127100Y-103479600D03*
X141127100Y-103479600D03*
%TD*%
D12*
%TO.C,C84*%
X118021100Y-67911600D03*
X118021100Y-66911600D03*
%TD*%
%TO.C,C88*%
X139357100Y-67911600D03*
X139357100Y-66911600D03*
%TD*%
%TO.C,C66*%
X107353100Y-92549600D03*
X107353100Y-91549600D03*
%TD*%
D10*
%TO.C,R151*%
X123601100Y-119227600D03*
X122601100Y-119227600D03*
%TD*%
%TO.C,R66*%
X135539100Y-176123600D03*
X134539100Y-176123600D03*
%TD*%
%TO.C,R265*%
X155605100Y-69951600D03*
X154605100Y-69951600D03*
%TD*%
%TO.C,R104*%
X121061100Y-143865600D03*
X120061100Y-143865600D03*
%TD*%
D11*
%TO.C,R46*%
X182799100Y-200761600D03*
X183799100Y-200761600D03*
%TD*%
D12*
%TO.C,C118*%
X128689100Y-18635600D03*
X128689100Y-17635600D03*
%TD*%
D10*
%TO.C,R248*%
X121061100Y-69951600D03*
X120061100Y-69951600D03*
%TD*%
D11*
%TO.C,R345*%
X118791100Y-29565600D03*
X119791100Y-29565600D03*
%TD*%
D10*
%TO.C,R83*%
X167543100Y-177393600D03*
X166543100Y-177393600D03*
%TD*%
D12*
%TO.C,C43*%
X168313100Y-141825600D03*
X168313100Y-140825600D03*
%TD*%
D13*
%TO.C,JP37*%
X152835100Y-186681600D03*
X154835100Y-186681600D03*
D14*
X150435100Y-181481600D03*
X157235100Y-181481600D03*
%TD*%
D12*
%TO.C,C23*%
X146977100Y-166463600D03*
X146977100Y-165463600D03*
%TD*%
D10*
%TO.C,R197*%
X114203100Y-103479600D03*
X113203100Y-103479600D03*
%TD*%
%TO.C,R301*%
X134269100Y-45313600D03*
X133269100Y-45313600D03*
%TD*%
D11*
%TO.C,R322*%
X161463100Y-52933600D03*
X162463100Y-52933600D03*
%TD*%
D10*
%TO.C,R161*%
X135539100Y-128117600D03*
X134539100Y-128117600D03*
%TD*%
%TO.C,R143*%
X188879100Y-152755600D03*
X187879100Y-152755600D03*
%TD*%
%TO.C,R242*%
X110393100Y-69951600D03*
X109393100Y-69951600D03*
%TD*%
D12*
%TO.C,C37*%
X136309100Y-141825600D03*
X136309100Y-140825600D03*
%TD*%
D10*
%TO.C,R343*%
X123601100Y-20675600D03*
X122601100Y-20675600D03*
%TD*%
%TO.C,R101*%
X114203100Y-152755600D03*
X113203100Y-152755600D03*
%TD*%
D11*
%TO.C,R112*%
X129459100Y-151485600D03*
X130459100Y-151485600D03*
%TD*%
D10*
%TO.C,R284*%
X185069100Y-69951600D03*
X184069100Y-69951600D03*
%TD*%
D11*
%TO.C,R118*%
X140127100Y-151485600D03*
X141127100Y-151485600D03*
%TD*%
D12*
%TO.C,C90*%
X150025100Y-67911600D03*
X150025100Y-66911600D03*
%TD*%
D11*
%TO.C,R117*%
X140127100Y-152755600D03*
X141127100Y-152755600D03*
%TD*%
D10*
%TO.C,R167*%
X146207100Y-128117600D03*
X145207100Y-128117600D03*
%TD*%
D12*
%TO.C,C77*%
X178981100Y-92549600D03*
X178981100Y-91549600D03*
%TD*%
D10*
%TO.C,R170*%
X153065100Y-119227600D03*
X152065100Y-119227600D03*
%TD*%
%TO.C,R288*%
X188879100Y-77571600D03*
X187879100Y-77571600D03*
%TD*%
D13*
%TO.C,JP181*%
X152835100Y-137405600D03*
X154835100Y-137405600D03*
D14*
X150435100Y-132205600D03*
X157235100Y-132205600D03*
%TD*%
D10*
%TO.C,R342*%
X114203100Y-28295600D03*
X113203100Y-28295600D03*
%TD*%
D12*
%TO.C,C79*%
X189649100Y-92549600D03*
X189649100Y-91549600D03*
%TD*%
D10*
%TO.C,R372*%
X167543100Y-28295600D03*
X166543100Y-28295600D03*
%TD*%
D12*
%TO.C,C60*%
X160693100Y-117187600D03*
X160693100Y-116187600D03*
%TD*%
D10*
%TO.C,R144*%
X188879100Y-151485600D03*
X187879100Y-151485600D03*
%TD*%
D12*
%TO.C,C74*%
X150025100Y-92549600D03*
X150025100Y-91549600D03*
%TD*%
D11*
%TO.C,R10*%
X118791100Y-200761600D03*
X119791100Y-200761600D03*
%TD*%
D10*
%TO.C,R300*%
X124871100Y-52933600D03*
X123871100Y-52933600D03*
%TD*%
%TO.C,R312*%
X146207100Y-52933600D03*
X145207100Y-52933600D03*
%TD*%
D11*
%TO.C,R51*%
X108123100Y-177393600D03*
X109123100Y-177393600D03*
%TD*%
%TO.C,R316*%
X150795100Y-52933600D03*
X151795100Y-52933600D03*
%TD*%
%TO.C,R124*%
X150795100Y-151485600D03*
X151795100Y-151485600D03*
%TD*%
D13*
%TO.C,JP145*%
X110163100Y-137405600D03*
X112163100Y-137405600D03*
D14*
X107763100Y-132205600D03*
X114563100Y-132205600D03*
%TD*%
D10*
%TO.C,R8*%
X121061100Y-193141600D03*
X120061100Y-193141600D03*
%TD*%
D11*
%TO.C,R279*%
X172131100Y-78841600D03*
X173131100Y-78841600D03*
%TD*%
D12*
%TO.C,C86*%
X128689100Y-67911600D03*
X128689100Y-66911600D03*
%TD*%
D13*
%TO.C,JP307*%
X131499100Y-88129600D03*
X133499100Y-88129600D03*
D14*
X129099100Y-82929600D03*
X135899100Y-82929600D03*
%TD*%
D10*
%TO.C,R107*%
X124871100Y-152755600D03*
X123871100Y-152755600D03*
%TD*%
D13*
%TO.C,JP217*%
X110163100Y-112767600D03*
X112163100Y-112767600D03*
D14*
X107763100Y-107567600D03*
X114563100Y-107567600D03*
%TD*%
D12*
%TO.C,C42*%
X150025100Y-141825600D03*
X150025100Y-140825600D03*
%TD*%
D11*
%TO.C,R16*%
X129459100Y-200761600D03*
X130459100Y-200761600D03*
%TD*%
D10*
%TO.C,R114*%
X135539100Y-151485600D03*
X134539100Y-151485600D03*
%TD*%
%TO.C,R229*%
X176941100Y-94589600D03*
X175941100Y-94589600D03*
%TD*%
%TO.C,R48*%
X188879100Y-200761600D03*
X187879100Y-200761600D03*
%TD*%
D11*
%TO.C,R298*%
X118791100Y-52933600D03*
X119791100Y-52933600D03*
%TD*%
%TO.C,R58*%
X118791100Y-176123600D03*
X119791100Y-176123600D03*
%TD*%
D12*
%TO.C,C59*%
X168313100Y-117187600D03*
X168313100Y-116187600D03*
%TD*%
D10*
%TO.C,R73*%
X155605100Y-168503600D03*
X154605100Y-168503600D03*
%TD*%
%TO.C,R20*%
X142397100Y-193141600D03*
X141397100Y-193141600D03*
%TD*%
%TO.C,R371*%
X167543100Y-29565600D03*
X166543100Y-29565600D03*
%TD*%
D11*
%TO.C,R136*%
X172131100Y-151485600D03*
X173131100Y-151485600D03*
%TD*%
D12*
%TO.C,C41*%
X157645100Y-141825600D03*
X157645100Y-140825600D03*
%TD*%
D10*
%TO.C,R119*%
X146207100Y-152755600D03*
X145207100Y-152755600D03*
%TD*%
%TO.C,R223*%
X166273100Y-94589600D03*
X165273100Y-94589600D03*
%TD*%
D13*
%TO.C,JP568*%
X184839100Y-14215600D03*
X186839100Y-14215600D03*
D14*
X182439100Y-9015600D03*
X189239100Y-9015600D03*
%TD*%
D10*
%TO.C,R49*%
X112933100Y-168503600D03*
X111933100Y-168503600D03*
%TD*%
D11*
%TO.C,R87*%
X172131100Y-177393600D03*
X173131100Y-177393600D03*
%TD*%
D10*
%TO.C,R266*%
X153065100Y-69951600D03*
X152065100Y-69951600D03*
%TD*%
D11*
%TO.C,R21*%
X140127100Y-202031600D03*
X141127100Y-202031600D03*
%TD*%
D13*
%TO.C,JP235*%
X131499100Y-112767600D03*
X133499100Y-112767600D03*
D14*
X129099100Y-107567600D03*
X135899100Y-107567600D03*
%TD*%
D12*
%TO.C,C91*%
X168313100Y-67911600D03*
X168313100Y-66911600D03*
%TD*%
%TO.C,C56*%
X139357100Y-117187600D03*
X139357100Y-116187600D03*
%TD*%
D10*
%TO.C,R251*%
X124871100Y-78841600D03*
X123871100Y-78841600D03*
%TD*%
D11*
%TO.C,R34*%
X161463100Y-200761600D03*
X162463100Y-200761600D03*
%TD*%
%TO.C,R280*%
X172131100Y-77571600D03*
X173131100Y-77571600D03*
%TD*%
D13*
%TO.C,JP1*%
X110163100Y-186681600D03*
X112163100Y-186681600D03*
D14*
X107763100Y-181481600D03*
X114563100Y-181481600D03*
%TD*%
D12*
%TO.C,C47*%
X189649100Y-141825600D03*
X189649100Y-140825600D03*
%TD*%
%TO.C,C22*%
X128689100Y-166463600D03*
X128689100Y-165463600D03*
%TD*%
D10*
%TO.C,R194*%
X110393100Y-94589600D03*
X109393100Y-94589600D03*
%TD*%
%TO.C,R355*%
X144937100Y-20675600D03*
X143937100Y-20675600D03*
%TD*%
%TO.C,R290*%
X110393100Y-45313600D03*
X109393100Y-45313600D03*
%TD*%
D13*
%TO.C,JP28*%
X142167100Y-186681600D03*
X144167100Y-186681600D03*
D14*
X139767100Y-181481600D03*
X146567100Y-181481600D03*
%TD*%
D12*
%TO.C,C110*%
X171361100Y-43273600D03*
X171361100Y-42273600D03*
%TD*%
D10*
%TO.C,R95*%
X188879100Y-177393600D03*
X187879100Y-177393600D03*
%TD*%
D12*
%TO.C,C55*%
X146977100Y-117187600D03*
X146977100Y-116187600D03*
%TD*%
D10*
%TO.C,R308*%
X142397100Y-45313600D03*
X141397100Y-45313600D03*
%TD*%
%TO.C,R305*%
X135539100Y-54203600D03*
X134539100Y-54203600D03*
%TD*%
D12*
%TO.C,C98*%
X107353100Y-43273600D03*
X107353100Y-42273600D03*
%TD*%
D10*
%TO.C,R13*%
X134269100Y-193141600D03*
X133269100Y-193141600D03*
%TD*%
D13*
%TO.C,JP244*%
X142167100Y-112767600D03*
X144167100Y-112767600D03*
D14*
X139767100Y-107567600D03*
X146567100Y-107567600D03*
%TD*%
D11*
%TO.C,R351*%
X129459100Y-29565600D03*
X130459100Y-29565600D03*
%TD*%
%TO.C,R129*%
X161463100Y-152755600D03*
X162463100Y-152755600D03*
%TD*%
%TO.C,R273*%
X161463100Y-78841600D03*
X162463100Y-78841600D03*
%TD*%
D13*
%TO.C,JP334*%
X163503100Y-88129600D03*
X165503100Y-88129600D03*
D14*
X161103100Y-82929600D03*
X167903100Y-82929600D03*
%TD*%
D11*
%TO.C,R64*%
X129459100Y-176123600D03*
X130459100Y-176123600D03*
%TD*%
D12*
%TO.C,C124*%
X160693100Y-18635600D03*
X160693100Y-17635600D03*
%TD*%
D10*
%TO.C,R235*%
X187609100Y-94589600D03*
X186609100Y-94589600D03*
%TD*%
D12*
%TO.C,C14*%
X171361100Y-191101600D03*
X171361100Y-190101600D03*
%TD*%
D10*
%TO.C,R43*%
X187609100Y-193141600D03*
X186609100Y-193141600D03*
%TD*%
%TO.C,R5*%
X114203100Y-202031600D03*
X113203100Y-202031600D03*
%TD*%
%TO.C,R263*%
X146207100Y-78841600D03*
X145207100Y-78841600D03*
%TD*%
D11*
%TO.C,R358*%
X140127100Y-28295600D03*
X141127100Y-28295600D03*
%TD*%
D12*
%TO.C,C61*%
X178981100Y-117187600D03*
X178981100Y-116187600D03*
%TD*%
D10*
%TO.C,R203*%
X124871100Y-103479600D03*
X123871100Y-103479600D03*
%TD*%
%TO.C,R350*%
X131729100Y-20675600D03*
X130729100Y-20675600D03*
%TD*%
D12*
%TO.C,C24*%
X139357100Y-166463600D03*
X139357100Y-165463600D03*
%TD*%
D11*
%TO.C,R225*%
X161463100Y-103479600D03*
X162463100Y-103479600D03*
%TD*%
D12*
%TO.C,C15*%
X189649100Y-191101600D03*
X189649100Y-190101600D03*
%TD*%
D11*
%TO.C,R123*%
X150795100Y-152755600D03*
X151795100Y-152755600D03*
%TD*%
D12*
%TO.C,C57*%
X157645100Y-117187600D03*
X157645100Y-116187600D03*
%TD*%
%TO.C,C19*%
X125641100Y-166463600D03*
X125641100Y-165463600D03*
%TD*%
D11*
%TO.C,R3*%
X108123100Y-202031600D03*
X109123100Y-202031600D03*
%TD*%
D10*
%TO.C,R341*%
X114203100Y-29565600D03*
X113203100Y-29565600D03*
%TD*%
%TO.C,R120*%
X146207100Y-151485600D03*
X145207100Y-151485600D03*
%TD*%
%TO.C,R326*%
X174401100Y-45313600D03*
X173401100Y-45313600D03*
%TD*%
D13*
%TO.C,JP469*%
X152835100Y-38853600D03*
X154835100Y-38853600D03*
D14*
X150435100Y-33653600D03*
X157235100Y-33653600D03*
%TD*%
D13*
%TO.C,JP109*%
X152835100Y-162043600D03*
X154835100Y-162043600D03*
D14*
X150435100Y-156843600D03*
X157235100Y-156843600D03*
%TD*%
D10*
%TO.C,R379*%
X187609100Y-20675600D03*
X186609100Y-20675600D03*
%TD*%
D13*
%TO.C,JP100*%
X142167100Y-162043600D03*
X144167100Y-162043600D03*
D14*
X139767100Y-156843600D03*
X146567100Y-156843600D03*
%TD*%
D10*
%TO.C,R163*%
X144937100Y-119227600D03*
X143937100Y-119227600D03*
%TD*%
D12*
%TO.C,C85*%
X136309100Y-67911600D03*
X136309100Y-66911600D03*
%TD*%
D10*
%TO.C,R2*%
X110393100Y-193141600D03*
X109393100Y-193141600D03*
%TD*%
D12*
%TO.C,C78*%
X171361100Y-92549600D03*
X171361100Y-91549600D03*
%TD*%
D13*
%TO.C,JP253*%
X152835100Y-112767600D03*
X154835100Y-112767600D03*
D14*
X150435100Y-107567600D03*
X157235100Y-107567600D03*
%TD*%
D12*
%TO.C,C7*%
X146977100Y-191101600D03*
X146977100Y-190101600D03*
%TD*%
D11*
%TO.C,R9*%
X118791100Y-202031600D03*
X119791100Y-202031600D03*
%TD*%
D10*
%TO.C,R349*%
X134269100Y-20675600D03*
X133269100Y-20675600D03*
%TD*%
%TO.C,R174*%
X156875100Y-126847600D03*
X155875100Y-126847600D03*
%TD*%
%TO.C,R294*%
X114203100Y-52933600D03*
X113203100Y-52933600D03*
%TD*%
D11*
%TO.C,R243*%
X108123100Y-78841600D03*
X109123100Y-78841600D03*
%TD*%
D12*
%TO.C,C93*%
X178981100Y-67911600D03*
X178981100Y-66911600D03*
%TD*%
D10*
%TO.C,R18*%
X135539100Y-200761600D03*
X134539100Y-200761600D03*
%TD*%
%TO.C,R259*%
X144937100Y-69951600D03*
X143937100Y-69951600D03*
%TD*%
D12*
%TO.C,C58*%
X150025100Y-117187600D03*
X150025100Y-116187600D03*
%TD*%
D10*
%TO.C,R37*%
X176941100Y-193141600D03*
X175941100Y-193141600D03*
%TD*%
%TO.C,R378*%
X178211100Y-28295600D03*
X177211100Y-28295600D03*
%TD*%
%TO.C,R383*%
X188879100Y-29565600D03*
X187879100Y-29565600D03*
%TD*%
%TO.C,R270*%
X156875100Y-77571600D03*
X155875100Y-77571600D03*
%TD*%
%TO.C,R26*%
X153065100Y-193141600D03*
X152065100Y-193141600D03*
%TD*%
D13*
%TO.C,JP352*%
X184839100Y-88129600D03*
X186839100Y-88129600D03*
D14*
X182439100Y-82929600D03*
X189239100Y-82929600D03*
%TD*%
D13*
%TO.C,JP82*%
X120831100Y-162043600D03*
X122831100Y-162043600D03*
D14*
X118431100Y-156843600D03*
X125231100Y-156843600D03*
%TD*%
D10*
%TO.C,R217*%
X155605100Y-94589600D03*
X154605100Y-94589600D03*
%TD*%
%TO.C,R77*%
X156875100Y-177393600D03*
X155875100Y-177393600D03*
%TD*%
D12*
%TO.C,C126*%
X171361100Y-18635600D03*
X171361100Y-17635600D03*
%TD*%
D11*
%TO.C,R88*%
X172131100Y-176123600D03*
X173131100Y-176123600D03*
%TD*%
D10*
%TO.C,R122*%
X153065100Y-143865600D03*
X152065100Y-143865600D03*
%TD*%
%TO.C,R56*%
X121061100Y-168503600D03*
X120061100Y-168503600D03*
%TD*%
D13*
%TO.C,JP316*%
X142167100Y-88129600D03*
X144167100Y-88129600D03*
D14*
X139767100Y-82929600D03*
X146567100Y-82929600D03*
%TD*%
D11*
%TO.C,R370*%
X161463100Y-28295600D03*
X162463100Y-28295600D03*
%TD*%
D10*
%TO.C,R71*%
X146207100Y-177393600D03*
X145207100Y-177393600D03*
%TD*%
%TO.C,R260*%
X142397100Y-69951600D03*
X141397100Y-69951600D03*
%TD*%
D11*
%TO.C,R148*%
X108123100Y-126847600D03*
X109123100Y-126847600D03*
%TD*%
D10*
%TO.C,R206*%
X131729100Y-94589600D03*
X130729100Y-94589600D03*
%TD*%
D11*
%TO.C,R346*%
X118791100Y-28295600D03*
X119791100Y-28295600D03*
%TD*%
D10*
%TO.C,R212*%
X142397100Y-94589600D03*
X141397100Y-94589600D03*
%TD*%
D11*
%TO.C,R189*%
X182799100Y-128117600D03*
X183799100Y-128117600D03*
%TD*%
D12*
%TO.C,C75*%
X168313100Y-92549600D03*
X168313100Y-91549600D03*
%TD*%
D10*
%TO.C,R126*%
X156875100Y-151485600D03*
X155875100Y-151485600D03*
%TD*%
%TO.C,R29*%
X156875100Y-202031600D03*
X155875100Y-202031600D03*
%TD*%
D12*
%TO.C,C96*%
X182029100Y-67911600D03*
X182029100Y-66911600D03*
%TD*%
D11*
%TO.C,R195*%
X108123100Y-103479600D03*
X109123100Y-103479600D03*
%TD*%
D10*
%TO.C,R7*%
X123601100Y-193141600D03*
X122601100Y-193141600D03*
%TD*%
D12*
%TO.C,C25*%
X157645100Y-166463600D03*
X157645100Y-165463600D03*
%TD*%
%TO.C,C53*%
X136309100Y-117187600D03*
X136309100Y-116187600D03*
%TD*%
D11*
%TO.C,R309*%
X140127100Y-54203600D03*
X141127100Y-54203600D03*
%TD*%
%TO.C,R237*%
X182799100Y-103479600D03*
X183799100Y-103479600D03*
%TD*%
%TO.C,R321*%
X161463100Y-54203600D03*
X162463100Y-54203600D03*
%TD*%
D10*
%TO.C,R36*%
X167543100Y-200761600D03*
X166543100Y-200761600D03*
%TD*%
%TO.C,R132*%
X167543100Y-151485600D03*
X166543100Y-151485600D03*
%TD*%
%TO.C,R218*%
X153065100Y-94589600D03*
X152065100Y-94589600D03*
%TD*%
D13*
%TO.C,JP226*%
X120831100Y-112767600D03*
X122831100Y-112767600D03*
D14*
X118431100Y-107567600D03*
X125231100Y-107567600D03*
%TD*%
D11*
%TO.C,R63*%
X129459100Y-177393600D03*
X130459100Y-177393600D03*
%TD*%
D10*
%TO.C,R319*%
X166273100Y-45313600D03*
X165273100Y-45313600D03*
%TD*%
D12*
%TO.C,C112*%
X182029100Y-43273600D03*
X182029100Y-42273600D03*
%TD*%
D11*
%TO.C,R33*%
X161463100Y-202031600D03*
X162463100Y-202031600D03*
%TD*%
D10*
%TO.C,R65*%
X135539100Y-177393600D03*
X134539100Y-177393600D03*
%TD*%
D11*
%TO.C,R57*%
X118791100Y-177393600D03*
X119791100Y-177393600D03*
%TD*%
%TO.C,R255*%
X129459100Y-78841600D03*
X130459100Y-78841600D03*
%TD*%
D10*
%TO.C,R185*%
X178211100Y-128117600D03*
X177211100Y-128117600D03*
%TD*%
%TO.C,R278*%
X174401100Y-69951600D03*
X173401100Y-69951600D03*
%TD*%
D12*
%TO.C,C64*%
X182029100Y-117187600D03*
X182029100Y-116187600D03*
%TD*%
D11*
%TO.C,R94*%
X182799100Y-176123600D03*
X183799100Y-176123600D03*
%TD*%
D10*
%TO.C,R6*%
X114203100Y-200761600D03*
X113203100Y-200761600D03*
%TD*%
%TO.C,R32*%
X163733100Y-193141600D03*
X162733100Y-193141600D03*
%TD*%
D13*
%TO.C,JP478*%
X163503100Y-38853600D03*
X165503100Y-38853600D03*
D14*
X161103100Y-33653600D03*
X167903100Y-33653600D03*
%TD*%
D11*
%TO.C,R190*%
X182799100Y-126847600D03*
X183799100Y-126847600D03*
%TD*%
D10*
%TO.C,R182*%
X174401100Y-119227600D03*
X173401100Y-119227600D03*
%TD*%
D12*
%TO.C,C94*%
X171361100Y-67911600D03*
X171361100Y-66911600D03*
%TD*%
%TO.C,C36*%
X118021100Y-141825600D03*
X118021100Y-140825600D03*
%TD*%
D11*
%TO.C,R328*%
X172131100Y-52933600D03*
X173131100Y-52933600D03*
%TD*%
D10*
%TO.C,R55*%
X123601100Y-168503600D03*
X122601100Y-168503600D03*
%TD*%
D12*
%TO.C,C29*%
X178981100Y-166463600D03*
X178981100Y-165463600D03*
%TD*%
D13*
%TO.C,JP532*%
X142167100Y-14215600D03*
X144167100Y-14215600D03*
D14*
X139767100Y-9015600D03*
X146567100Y-9015600D03*
%TD*%
D10*
%TO.C,R140*%
X185069100Y-143865600D03*
X184069100Y-143865600D03*
%TD*%
D11*
%TO.C,R27*%
X150795100Y-202031600D03*
X151795100Y-202031600D03*
%TD*%
%TO.C,R267*%
X150795100Y-78841600D03*
X151795100Y-78841600D03*
%TD*%
%TO.C,R135*%
X172131100Y-152755600D03*
X173131100Y-152755600D03*
%TD*%
%TO.C,R172*%
X150795100Y-126847600D03*
X151795100Y-126847600D03*
%TD*%
D13*
%TO.C,JP73*%
X110163100Y-162043600D03*
X112163100Y-162043600D03*
D14*
X107763100Y-156843600D03*
X114563100Y-156843600D03*
%TD*%
D10*
%TO.C,R38*%
X174401100Y-193141600D03*
X173401100Y-193141600D03*
%TD*%
D12*
%TO.C,C65*%
X114973100Y-92549600D03*
X114973100Y-91549600D03*
%TD*%
D13*
%TO.C,JP388*%
X142167100Y-63491600D03*
X144167100Y-63491600D03*
D14*
X139767100Y-58291600D03*
X146567100Y-58291600D03*
%TD*%
D10*
%TO.C,R92*%
X185069100Y-168503600D03*
X184069100Y-168503600D03*
%TD*%
D11*
%TO.C,R274*%
X161463100Y-77571600D03*
X162463100Y-77571600D03*
%TD*%
D10*
%TO.C,R30*%
X156875100Y-200761600D03*
X155875100Y-200761600D03*
%TD*%
D12*
%TO.C,C113*%
X114973100Y-18635600D03*
X114973100Y-17635600D03*
%TD*%
D10*
%TO.C,R287*%
X188879100Y-78841600D03*
X187879100Y-78841600D03*
%TD*%
%TO.C,R24*%
X146207100Y-200761600D03*
X145207100Y-200761600D03*
%TD*%
D11*
%TO.C,R333*%
X182799100Y-54203600D03*
X183799100Y-54203600D03*
%TD*%
D10*
%TO.C,R176*%
X163733100Y-119227600D03*
X162733100Y-119227600D03*
%TD*%
%TO.C,R53*%
X114203100Y-177393600D03*
X113203100Y-177393600D03*
%TD*%
%TO.C,R62*%
X131729100Y-168503600D03*
X130729100Y-168503600D03*
%TD*%
D12*
%TO.C,C120*%
X139357100Y-18635600D03*
X139357100Y-17635600D03*
%TD*%
D10*
%TO.C,R365*%
X156875100Y-29565600D03*
X155875100Y-29565600D03*
%TD*%
D11*
%TO.C,R201*%
X118791100Y-103479600D03*
X119791100Y-103479600D03*
%TD*%
D13*
%TO.C,JP262*%
X163503100Y-112767600D03*
X165503100Y-112767600D03*
D14*
X161103100Y-107567600D03*
X167903100Y-107567600D03*
%TD*%
D10*
%TO.C,R281*%
X178211100Y-78841600D03*
X177211100Y-78841600D03*
%TD*%
D11*
%TO.C,R165*%
X140127100Y-128117600D03*
X141127100Y-128117600D03*
%TD*%
D10*
%TO.C,R19*%
X144937100Y-193141600D03*
X143937100Y-193141600D03*
%TD*%
D11*
%TO.C,R315*%
X150795100Y-54203600D03*
X151795100Y-54203600D03*
%TD*%
D10*
%TO.C,R134*%
X174401100Y-143865600D03*
X173401100Y-143865600D03*
%TD*%
%TO.C,R353*%
X135539100Y-29565600D03*
X134539100Y-29565600D03*
%TD*%
D13*
%TO.C,JP550*%
X163503100Y-14215600D03*
X165503100Y-14215600D03*
D14*
X161103100Y-9015600D03*
X167903100Y-9015600D03*
%TD*%
D10*
%TO.C,R221*%
X156875100Y-103479600D03*
X155875100Y-103479600D03*
%TD*%
%TO.C,R311*%
X146207100Y-54203600D03*
X145207100Y-54203600D03*
%TD*%
D11*
%TO.C,R238*%
X182799100Y-102209600D03*
X183799100Y-102209600D03*
%TD*%
D10*
%TO.C,R228*%
X167543100Y-102209600D03*
X166543100Y-102209600D03*
%TD*%
D11*
%TO.C,R105*%
X118791100Y-152755600D03*
X119791100Y-152755600D03*
%TD*%
D12*
%TO.C,C89*%
X157645100Y-67911600D03*
X157645100Y-66911600D03*
%TD*%
D10*
%TO.C,R247*%
X123601100Y-69951600D03*
X122601100Y-69951600D03*
%TD*%
D11*
%TO.C,R69*%
X140127100Y-177393600D03*
X141127100Y-177393600D03*
%TD*%
D12*
%TO.C,C30*%
X171361100Y-166463600D03*
X171361100Y-165463600D03*
%TD*%
D10*
%TO.C,R12*%
X124871100Y-200761600D03*
X123871100Y-200761600D03*
%TD*%
D13*
%TO.C,JP433*%
X110163100Y-38853600D03*
X112163100Y-38853600D03*
D14*
X107763100Y-33653600D03*
X114563100Y-33653600D03*
%TD*%
D11*
%TO.C,R93*%
X182799100Y-177393600D03*
X183799100Y-177393600D03*
%TD*%
D10*
%TO.C,R79*%
X166273100Y-168503600D03*
X165273100Y-168503600D03*
%TD*%
%TO.C,R173*%
X156875100Y-128117600D03*
X155875100Y-128117600D03*
%TD*%
%TO.C,R188*%
X185069100Y-119227600D03*
X184069100Y-119227600D03*
%TD*%
%TO.C,R97*%
X112933100Y-143865600D03*
X111933100Y-143865600D03*
%TD*%
%TO.C,R306*%
X135539100Y-52933600D03*
X134539100Y-52933600D03*
%TD*%
%TO.C,R152*%
X121061100Y-119227600D03*
X120061100Y-119227600D03*
%TD*%
%TO.C,R50*%
X110393100Y-168503600D03*
X109393100Y-168503600D03*
%TD*%
D12*
%TO.C,C68*%
X118021100Y-92549600D03*
X118021100Y-91549600D03*
%TD*%
D10*
%TO.C,R74*%
X153065100Y-168503600D03*
X152065100Y-168503600D03*
%TD*%
%TO.C,R199*%
X123601100Y-94589600D03*
X122601100Y-94589600D03*
%TD*%
D13*
%TO.C,JP19*%
X131499100Y-186681600D03*
X133499100Y-186681600D03*
D14*
X129099100Y-181481600D03*
X135899100Y-181481600D03*
%TD*%
D13*
%TO.C,JP154*%
X120831100Y-137405600D03*
X122831100Y-137405600D03*
D14*
X118431100Y-132205600D03*
X125231100Y-132205600D03*
%TD*%
D11*
%TO.C,R334*%
X182799100Y-52933600D03*
X183799100Y-52933600D03*
%TD*%
D10*
%TO.C,R336*%
X188879100Y-52933600D03*
X187879100Y-52933600D03*
%TD*%
D12*
%TO.C,C102*%
X128689100Y-43273600D03*
X128689100Y-42273600D03*
%TD*%
D10*
%TO.C,R354*%
X135539100Y-28295600D03*
X134539100Y-28295600D03*
%TD*%
%TO.C,R293*%
X114203100Y-54203600D03*
X113203100Y-54203600D03*
%TD*%
%TO.C,R78*%
X156875100Y-176123600D03*
X155875100Y-176123600D03*
%TD*%
%TO.C,R264*%
X146207100Y-77571600D03*
X145207100Y-77571600D03*
%TD*%
%TO.C,R361*%
X155605100Y-20675600D03*
X154605100Y-20675600D03*
%TD*%
D11*
%TO.C,R28*%
X150795100Y-200761600D03*
X151795100Y-200761600D03*
%TD*%
D12*
%TO.C,C115*%
X125641100Y-18635600D03*
X125641100Y-17635600D03*
%TD*%
%TO.C,C5*%
X136309100Y-191101600D03*
X136309100Y-190101600D03*
%TD*%
D13*
%TO.C,JP325*%
X152835100Y-88129600D03*
X154835100Y-88129600D03*
D14*
X150435100Y-82929600D03*
X157235100Y-82929600D03*
%TD*%
D10*
%TO.C,R110*%
X131729100Y-143865600D03*
X130729100Y-143865600D03*
%TD*%
D11*
%TO.C,R184*%
X172131100Y-126847600D03*
X173131100Y-126847600D03*
%TD*%
D10*
%TO.C,R89*%
X178211100Y-177393600D03*
X177211100Y-177393600D03*
%TD*%
D12*
%TO.C,C8*%
X139357100Y-191101600D03*
X139357100Y-190101600D03*
%TD*%
D13*
%TO.C,JP280*%
X184839100Y-112767600D03*
X186839100Y-112767600D03*
D14*
X182439100Y-107567600D03*
X189239100Y-107567600D03*
%TD*%
D11*
%TO.C,R339*%
X108123100Y-29565600D03*
X109123100Y-29565600D03*
%TD*%
D10*
%TO.C,R330*%
X178211100Y-52933600D03*
X177211100Y-52933600D03*
%TD*%
D11*
%TO.C,R375*%
X172131100Y-29565600D03*
X173131100Y-29565600D03*
%TD*%
D12*
%TO.C,C1*%
X114973100Y-191101600D03*
X114973100Y-190101600D03*
%TD*%
D10*
%TO.C,R258*%
X135539100Y-77571600D03*
X134539100Y-77571600D03*
%TD*%
D13*
%TO.C,JP91*%
X131499100Y-162043600D03*
X133499100Y-162043600D03*
D14*
X129099100Y-156843600D03*
X135899100Y-156843600D03*
%TD*%
D11*
%TO.C,R304*%
X129459100Y-52933600D03*
X130459100Y-52933600D03*
%TD*%
D10*
%TO.C,R377*%
X178211100Y-29565600D03*
X177211100Y-29565600D03*
%TD*%
D11*
%TO.C,R166*%
X140127100Y-126847600D03*
X141127100Y-126847600D03*
%TD*%
D10*
%TO.C,R181*%
X176941100Y-119227600D03*
X175941100Y-119227600D03*
%TD*%
%TO.C,R241*%
X112933100Y-69951600D03*
X111933100Y-69951600D03*
%TD*%
D11*
%TO.C,R256*%
X129459100Y-77571600D03*
X130459100Y-77571600D03*
%TD*%
%TO.C,R219*%
X150795100Y-103479600D03*
X151795100Y-103479600D03*
%TD*%
D13*
%TO.C,JP190*%
X163503100Y-137405600D03*
X165503100Y-137405600D03*
D14*
X161103100Y-132205600D03*
X167903100Y-132205600D03*
%TD*%
D11*
%TO.C,R250*%
X118791100Y-77571600D03*
X119791100Y-77571600D03*
%TD*%
D10*
%TO.C,R191*%
X188879100Y-128117600D03*
X187879100Y-128117600D03*
%TD*%
%TO.C,R337*%
X112933100Y-20675600D03*
X111933100Y-20675600D03*
%TD*%
%TO.C,R200*%
X121061100Y-94589600D03*
X120061100Y-94589600D03*
%TD*%
D11*
%TO.C,R45*%
X182799100Y-202031600D03*
X183799100Y-202031600D03*
%TD*%
D10*
%TO.C,R209*%
X135539100Y-103479600D03*
X134539100Y-103479600D03*
%TD*%
D11*
%TO.C,R178*%
X161463100Y-126847600D03*
X162463100Y-126847600D03*
%TD*%
D12*
%TO.C,C128*%
X182029100Y-18635600D03*
X182029100Y-17635600D03*
%TD*%
%TO.C,C125*%
X178981100Y-18635600D03*
X178981100Y-17635600D03*
%TD*%
D10*
%TO.C,R356*%
X142397100Y-20675600D03*
X141397100Y-20675600D03*
%TD*%
%TO.C,R318*%
X156875100Y-52933600D03*
X155875100Y-52933600D03*
%TD*%
%TO.C,R210*%
X135539100Y-102209600D03*
X134539100Y-102209600D03*
%TD*%
D11*
%TO.C,R381*%
X182799100Y-29565600D03*
X183799100Y-29565600D03*
%TD*%
D10*
%TO.C,R23*%
X146207100Y-202031600D03*
X145207100Y-202031600D03*
%TD*%
D12*
%TO.C,C99*%
X125641100Y-43273600D03*
X125641100Y-42273600D03*
%TD*%
D13*
%TO.C,JP118*%
X163503100Y-162043600D03*
X165503100Y-162043600D03*
D14*
X161103100Y-156843600D03*
X167903100Y-156843600D03*
%TD*%
D10*
%TO.C,R41*%
X178211100Y-202031600D03*
X177211100Y-202031600D03*
%TD*%
D12*
%TO.C,C72*%
X139357100Y-92549600D03*
X139357100Y-91549600D03*
%TD*%
D11*
%TO.C,R364*%
X150795100Y-28295600D03*
X151795100Y-28295600D03*
%TD*%
D10*
%TO.C,R296*%
X121061100Y-45313600D03*
X120061100Y-45313600D03*
%TD*%
D11*
%TO.C,R142*%
X182799100Y-151485600D03*
X183799100Y-151485600D03*
%TD*%
D13*
%TO.C,JP406*%
X163503100Y-63491600D03*
X165503100Y-63491600D03*
D14*
X161103100Y-58291600D03*
X167903100Y-58291600D03*
%TD*%
D10*
%TO.C,R272*%
X163733100Y-69951600D03*
X162733100Y-69951600D03*
%TD*%
D12*
%TO.C,C76*%
X160693100Y-92549600D03*
X160693100Y-91549600D03*
%TD*%
D10*
%TO.C,R313*%
X155605100Y-45313600D03*
X154605100Y-45313600D03*
%TD*%
%TO.C,R289*%
X112933100Y-45313600D03*
X111933100Y-45313600D03*
%TD*%
%TO.C,R156*%
X124871100Y-126847600D03*
X123871100Y-126847600D03*
%TD*%
%TO.C,R59*%
X124871100Y-177393600D03*
X123871100Y-177393600D03*
%TD*%
D12*
%TO.C,C3*%
X125641100Y-191101600D03*
X125641100Y-190101600D03*
%TD*%
%TO.C,C80*%
X182029100Y-92549600D03*
X182029100Y-91549600D03*
%TD*%
D13*
%TO.C,JP271*%
X174171100Y-112767600D03*
X176171100Y-112767600D03*
D14*
X171771100Y-107567600D03*
X178571100Y-107567600D03*
%TD*%
D10*
%TO.C,R67*%
X144937100Y-168503600D03*
X143937100Y-168503600D03*
%TD*%
%TO.C,R14*%
X131729100Y-193141600D03*
X130729100Y-193141600D03*
%TD*%
%TO.C,R31*%
X166273100Y-193141600D03*
X165273100Y-193141600D03*
%TD*%
D13*
%TO.C,JP361*%
X110163100Y-63491600D03*
X112163100Y-63491600D03*
D14*
X107763100Y-58291600D03*
X114563100Y-58291600D03*
%TD*%
D12*
%TO.C,C109*%
X178981100Y-43273600D03*
X178981100Y-42273600D03*
%TD*%
D10*
%TO.C,R179*%
X167543100Y-128117600D03*
X166543100Y-128117600D03*
%TD*%
%TO.C,R86*%
X174401100Y-168503600D03*
X173401100Y-168503600D03*
%TD*%
%TO.C,R157*%
X134269100Y-119227600D03*
X133269100Y-119227600D03*
%TD*%
D11*
%TO.C,R363*%
X150795100Y-29565600D03*
X151795100Y-29565600D03*
%TD*%
%TO.C,R303*%
X129459100Y-54203600D03*
X130459100Y-54203600D03*
%TD*%
D12*
%TO.C,C27*%
X168313100Y-166463600D03*
X168313100Y-165463600D03*
%TD*%
D10*
%TO.C,R282*%
X178211100Y-77571600D03*
X177211100Y-77571600D03*
%TD*%
D11*
%TO.C,R99*%
X108123100Y-152755600D03*
X109123100Y-152755600D03*
%TD*%
D10*
%TO.C,R175*%
X166273100Y-119227600D03*
X165273100Y-119227600D03*
%TD*%
D13*
%TO.C,JP343*%
X174171100Y-88129600D03*
X176171100Y-88129600D03*
D14*
X171771100Y-82929600D03*
X178571100Y-82929600D03*
%TD*%
D11*
%TO.C,R208*%
X129459100Y-102209600D03*
X130459100Y-102209600D03*
%TD*%
D12*
%TO.C,C21*%
X136309100Y-166463600D03*
X136309100Y-165463600D03*
%TD*%
D11*
%TO.C,R220*%
X150795100Y-102209600D03*
X151795100Y-102209600D03*
%TD*%
D10*
%TO.C,R332*%
X185069100Y-45313600D03*
X184069100Y-45313600D03*
%TD*%
D11*
%TO.C,R70*%
X140127100Y-176123600D03*
X141127100Y-176123600D03*
%TD*%
D12*
%TO.C,C116*%
X118021100Y-18635600D03*
X118021100Y-17635600D03*
%TD*%
D10*
%TO.C,R236*%
X185069100Y-94589600D03*
X184069100Y-94589600D03*
%TD*%
%TO.C,R137*%
X178211100Y-152755600D03*
X177211100Y-152755600D03*
%TD*%
D11*
%TO.C,R159*%
X129459100Y-128117600D03*
X130459100Y-128117600D03*
%TD*%
D12*
%TO.C,C40*%
X139357100Y-141825600D03*
X139357100Y-140825600D03*
%TD*%
D10*
%TO.C,R215*%
X146207100Y-103479600D03*
X145207100Y-103479600D03*
%TD*%
D11*
%TO.C,R39*%
X172131100Y-202031600D03*
X173131100Y-202031600D03*
%TD*%
D10*
%TO.C,R116*%
X142397100Y-143865600D03*
X141397100Y-143865600D03*
%TD*%
%TO.C,R347*%
X124871100Y-29565600D03*
X123871100Y-29565600D03*
%TD*%
D12*
%TO.C,C123*%
X168313100Y-18635600D03*
X168313100Y-17635600D03*
%TD*%
D11*
%TO.C,R352*%
X129459100Y-28295600D03*
X130459100Y-28295600D03*
%TD*%
D10*
%TO.C,R222*%
X156875100Y-102209600D03*
X155875100Y-102209600D03*
%TD*%
%TO.C,R84*%
X167543100Y-176123600D03*
X166543100Y-176123600D03*
%TD*%
D11*
%TO.C,R111*%
X129459100Y-152755600D03*
X130459100Y-152755600D03*
%TD*%
D10*
%TO.C,R60*%
X124871100Y-176123600D03*
X123871100Y-176123600D03*
%TD*%
D13*
%TO.C,JP505*%
X110163100Y-14215600D03*
X112163100Y-14215600D03*
D14*
X107763100Y-9015600D03*
X114563100Y-9015600D03*
%TD*%
D11*
%TO.C,R76*%
X150795100Y-176123600D03*
X151795100Y-176123600D03*
%TD*%
D13*
%TO.C,JP442*%
X120831100Y-38853600D03*
X122831100Y-38853600D03*
D14*
X118431100Y-33653600D03*
X125231100Y-33653600D03*
%TD*%
D13*
%TO.C,JP199*%
X174171100Y-137405600D03*
X176171100Y-137405600D03*
D14*
X171771100Y-132205600D03*
X178571100Y-132205600D03*
%TD*%
D13*
%TO.C,JP289*%
X110163100Y-88129600D03*
X112163100Y-88129600D03*
D14*
X107763100Y-82929600D03*
X114563100Y-82929600D03*
%TD*%
D10*
%TO.C,R128*%
X163733100Y-143865600D03*
X162733100Y-143865600D03*
%TD*%
%TO.C,R187*%
X187609100Y-119227600D03*
X186609100Y-119227600D03*
%TD*%
%TO.C,R98*%
X110393100Y-143865600D03*
X109393100Y-143865600D03*
%TD*%
%TO.C,R42*%
X178211100Y-200761600D03*
X177211100Y-200761600D03*
%TD*%
%TO.C,R323*%
X167543100Y-54203600D03*
X166543100Y-54203600D03*
%TD*%
%TO.C,R115*%
X144937100Y-143865600D03*
X143937100Y-143865600D03*
%TD*%
D11*
%TO.C,R297*%
X118791100Y-54203600D03*
X119791100Y-54203600D03*
%TD*%
D10*
%TO.C,R1*%
X112933100Y-193141600D03*
X111933100Y-193141600D03*
%TD*%
D11*
%TO.C,R141*%
X182799100Y-152755600D03*
X183799100Y-152755600D03*
%TD*%
D10*
%TO.C,R180*%
X167543100Y-126847600D03*
X166543100Y-126847600D03*
%TD*%
D11*
%TO.C,R292*%
X108123100Y-52933600D03*
X109123100Y-52933600D03*
%TD*%
D12*
%TO.C,C38*%
X128689100Y-141825600D03*
X128689100Y-140825600D03*
%TD*%
D10*
%TO.C,R85*%
X176941100Y-168503600D03*
X175941100Y-168503600D03*
%TD*%
D12*
%TO.C,C62*%
X171361100Y-117187600D03*
X171361100Y-116187600D03*
%TD*%
D10*
%TO.C,R239*%
X188879100Y-103479600D03*
X187879100Y-103479600D03*
%TD*%
D11*
%TO.C,R382*%
X182799100Y-28295600D03*
X183799100Y-28295600D03*
%TD*%
D10*
%TO.C,R205*%
X134269100Y-94589600D03*
X133269100Y-94589600D03*
%TD*%
D11*
%TO.C,R15*%
X129459100Y-202031600D03*
X130459100Y-202031600D03*
%TD*%
D12*
%TO.C,C100*%
X118021100Y-43273600D03*
X118021100Y-42273600D03*
%TD*%
D10*
%TO.C,R283*%
X187609100Y-69951600D03*
X186609100Y-69951600D03*
%TD*%
%TO.C,R324*%
X167543100Y-52933600D03*
X166543100Y-52933600D03*
%TD*%
D12*
%TO.C,C12*%
X160693100Y-191101600D03*
X160693100Y-190101600D03*
%TD*%
%TO.C,C35*%
X125641100Y-141825600D03*
X125641100Y-140825600D03*
%TD*%
%TO.C,C6*%
X128689100Y-191101600D03*
X128689100Y-190101600D03*
%TD*%
%TO.C,C83*%
X125641100Y-67911600D03*
X125641100Y-66911600D03*
%TD*%
%TO.C,C48*%
X182029100Y-141825600D03*
X182029100Y-140825600D03*
%TD*%
D10*
%TO.C,R44*%
X185069100Y-193141600D03*
X184069100Y-193141600D03*
%TD*%
%TO.C,R384*%
X188879100Y-28295600D03*
X187879100Y-28295600D03*
%TD*%
D12*
%TO.C,C46*%
X171361100Y-141825600D03*
X171361100Y-140825600D03*
%TD*%
D10*
%TO.C,R35*%
X167543100Y-202031600D03*
X166543100Y-202031600D03*
%TD*%
D12*
%TO.C,C117*%
X136309100Y-18635600D03*
X136309100Y-17635600D03*
%TD*%
D10*
%TO.C,R271*%
X166273100Y-69951600D03*
X165273100Y-69951600D03*
%TD*%
D11*
%TO.C,R232*%
X172131100Y-102209600D03*
X173131100Y-102209600D03*
%TD*%
D12*
%TO.C,C107*%
X168313100Y-43273600D03*
X168313100Y-42273600D03*
%TD*%
D10*
%TO.C,R192*%
X188879100Y-126847600D03*
X187879100Y-126847600D03*
%TD*%
%TO.C,R335*%
X188879100Y-54203600D03*
X187879100Y-54203600D03*
%TD*%
D12*
%TO.C,C16*%
X182029100Y-191101600D03*
X182029100Y-190101600D03*
%TD*%
D13*
%TO.C,JP451*%
X131499100Y-38853600D03*
X133499100Y-38853600D03*
D14*
X129099100Y-33653600D03*
X135899100Y-33653600D03*
%TD*%
D10*
%TO.C,R164*%
X142397100Y-119227600D03*
X141397100Y-119227600D03*
%TD*%
D12*
%TO.C,C18*%
X107353100Y-166463600D03*
X107353100Y-165463600D03*
%TD*%
D13*
%TO.C,JP10*%
X120831100Y-186681600D03*
X122831100Y-186681600D03*
D14*
X118431100Y-181481600D03*
X125231100Y-181481600D03*
%TD*%
D13*
%TO.C,JP415*%
X174171100Y-63491600D03*
X176171100Y-63491600D03*
D14*
X171771100Y-58291600D03*
X178571100Y-58291600D03*
%TD*%
D11*
%TO.C,R262*%
X140127100Y-77571600D03*
X141127100Y-77571600D03*
%TD*%
D10*
%TO.C,R72*%
X146207100Y-176123600D03*
X145207100Y-176123600D03*
%TD*%
%TO.C,R145*%
X112933100Y-119227600D03*
X111933100Y-119227600D03*
%TD*%
D11*
%TO.C,R369*%
X161463100Y-29565600D03*
X162463100Y-29565600D03*
%TD*%
%TO.C,R196*%
X108123100Y-102209600D03*
X109123100Y-102209600D03*
%TD*%
D12*
%TO.C,C106*%
X150025100Y-43273600D03*
X150025100Y-42273600D03*
%TD*%
%TO.C,C114*%
X107353100Y-18635600D03*
X107353100Y-17635600D03*
%TD*%
D10*
%TO.C,R17*%
X135539100Y-202031600D03*
X134539100Y-202031600D03*
%TD*%
D13*
%TO.C,JP172*%
X142167100Y-137405600D03*
X144167100Y-137405600D03*
D14*
X139767100Y-132205600D03*
X146567100Y-132205600D03*
%TD*%
D11*
%TO.C,R268*%
X150795100Y-77571600D03*
X151795100Y-77571600D03*
%TD*%
D12*
%TO.C,C104*%
X139357100Y-43273600D03*
X139357100Y-42273600D03*
%TD*%
D11*
%TO.C,R153*%
X118791100Y-128117600D03*
X119791100Y-128117600D03*
%TD*%
D12*
%TO.C,C44*%
X160693100Y-141825600D03*
X160693100Y-140825600D03*
%TD*%
D13*
%TO.C,JP541*%
X152835100Y-14215600D03*
X154835100Y-14215600D03*
D14*
X150435100Y-9015600D03*
X157235100Y-9015600D03*
%TD*%
D10*
%TO.C,R380*%
X185069100Y-20675600D03*
X184069100Y-20675600D03*
%TD*%
D12*
%TO.C,C127*%
X189649100Y-18635600D03*
X189649100Y-17635600D03*
%TD*%
D10*
%TO.C,R348*%
X124871100Y-28295600D03*
X123871100Y-28295600D03*
%TD*%
D12*
%TO.C,C119*%
X146977100Y-18635600D03*
X146977100Y-17635600D03*
%TD*%
D10*
%TO.C,R146*%
X110393100Y-119227600D03*
X109393100Y-119227600D03*
%TD*%
D12*
%TO.C,C108*%
X160693100Y-43273600D03*
X160693100Y-42273600D03*
%TD*%
%TO.C,C101*%
X136309100Y-43273600D03*
X136309100Y-42273600D03*
%TD*%
D10*
%TO.C,R359*%
X146207100Y-29565600D03*
X145207100Y-29565600D03*
%TD*%
D13*
%TO.C,JP46*%
X163503100Y-186681600D03*
X165503100Y-186681600D03*
D14*
X161103100Y-181481600D03*
X167903100Y-181481600D03*
%TD*%
D10*
%TO.C,R275*%
X167543100Y-78841600D03*
X166543100Y-78841600D03*
%TD*%
%TO.C,R325*%
X176941100Y-45313600D03*
X175941100Y-45313600D03*
%TD*%
D12*
%TO.C,C31*%
X189649100Y-166463600D03*
X189649100Y-165463600D03*
%TD*%
D13*
%TO.C,JP163*%
X131499100Y-137405600D03*
X133499100Y-137405600D03*
D14*
X129099100Y-132205600D03*
X135899100Y-132205600D03*
%TD*%
D10*
%TO.C,R227*%
X167543100Y-103479600D03*
X166543100Y-103479600D03*
%TD*%
D13*
%TO.C,JP55*%
X174171100Y-186681600D03*
X176171100Y-186681600D03*
D14*
X171771100Y-181481600D03*
X178571100Y-181481600D03*
%TD*%
D10*
%TO.C,R234*%
X178211100Y-102209600D03*
X177211100Y-102209600D03*
%TD*%
D11*
%TO.C,R226*%
X161463100Y-102209600D03*
X162463100Y-102209600D03*
%TD*%
D10*
%TO.C,R368*%
X163733100Y-20675600D03*
X162733100Y-20675600D03*
%TD*%
%TO.C,R90*%
X178211100Y-176123600D03*
X177211100Y-176123600D03*
%TD*%
%TO.C,R109*%
X134269100Y-143865600D03*
X133269100Y-143865600D03*
%TD*%
D12*
%TO.C,C71*%
X146977100Y-92549600D03*
X146977100Y-91549600D03*
%TD*%
D10*
%TO.C,R362*%
X153065100Y-20675600D03*
X152065100Y-20675600D03*
%TD*%
D12*
%TO.C,C9*%
X157645100Y-191101600D03*
X157645100Y-190101600D03*
%TD*%
D10*
%TO.C,R367*%
X166273100Y-20675600D03*
X165273100Y-20675600D03*
%TD*%
%TO.C,R299*%
X124871100Y-54203600D03*
X123871100Y-54203600D03*
%TD*%
%TO.C,R11*%
X124871100Y-202031600D03*
X123871100Y-202031600D03*
%TD*%
D12*
%TO.C,C50*%
X107353100Y-117187600D03*
X107353100Y-116187600D03*
%TD*%
%TO.C,C87*%
X146977100Y-67911600D03*
X146977100Y-66911600D03*
%TD*%
%TO.C,C82*%
X107353100Y-67911600D03*
X107353100Y-66911600D03*
%TD*%
D11*
%TO.C,R376*%
X172131100Y-28295600D03*
X173131100Y-28295600D03*
%TD*%
%TO.C,R52*%
X108123100Y-176123600D03*
X109123100Y-176123600D03*
%TD*%
%TO.C,R244*%
X108123100Y-77571600D03*
X109123100Y-77571600D03*
%TD*%
D13*
%TO.C,JP424*%
X184839100Y-63491600D03*
X186839100Y-63491600D03*
D14*
X182439100Y-58291600D03*
X189239100Y-58291600D03*
%TD*%
D12*
%TO.C,C49*%
X114973100Y-117187600D03*
X114973100Y-116187600D03*
%TD*%
D13*
%TO.C,JP127*%
X174171100Y-162043600D03*
X176171100Y-162043600D03*
D14*
X171771100Y-156843600D03*
X178571100Y-156843600D03*
%TD*%
D10*
%TO.C,R276*%
X167543100Y-77571600D03*
X166543100Y-77571600D03*
%TD*%
%TO.C,R68*%
X142397100Y-168503600D03*
X141397100Y-168503600D03*
%TD*%
%TO.C,R125*%
X156875100Y-152755600D03*
X155875100Y-152755600D03*
%TD*%
%TO.C,R331*%
X187609100Y-45313600D03*
X186609100Y-45313600D03*
%TD*%
%TO.C,R314*%
X153065100Y-45313600D03*
X152065100Y-45313600D03*
%TD*%
%TO.C,R320*%
X163733100Y-45313600D03*
X162733100Y-45313600D03*
%TD*%
D12*
%TO.C,C2*%
X107353100Y-191101600D03*
X107353100Y-190101600D03*
%TD*%
%TO.C,C52*%
X118021100Y-117187600D03*
X118021100Y-116187600D03*
%TD*%
%TO.C,C26*%
X150025100Y-166463600D03*
X150025100Y-165463600D03*
%TD*%
D10*
%TO.C,R254*%
X131729100Y-69951600D03*
X130729100Y-69951600D03*
%TD*%
D12*
%TO.C,C45*%
X178981100Y-141825600D03*
X178981100Y-140825600D03*
%TD*%
D10*
%TO.C,R233*%
X178211100Y-103479600D03*
X177211100Y-103479600D03*
%TD*%
%TO.C,R149*%
X114203100Y-128117600D03*
X113203100Y-128117600D03*
%TD*%
D12*
%TO.C,C69*%
X136309100Y-92549600D03*
X136309100Y-91549600D03*
%TD*%
D10*
%TO.C,R186*%
X178211100Y-126847600D03*
X177211100Y-126847600D03*
%TD*%
%TO.C,R252*%
X124871100Y-77571600D03*
X123871100Y-77571600D03*
%TD*%
%TO.C,R373*%
X176941100Y-20675600D03*
X175941100Y-20675600D03*
%TD*%
D11*
%TO.C,R4*%
X108123100Y-200761600D03*
X109123100Y-200761600D03*
%TD*%
D12*
%TO.C,C34*%
X107353100Y-141825600D03*
X107353100Y-140825600D03*
%TD*%
D10*
%TO.C,R295*%
X123601100Y-45313600D03*
X122601100Y-45313600D03*
%TD*%
D11*
%TO.C,R310*%
X140127100Y-52933600D03*
X141127100Y-52933600D03*
%TD*%
D10*
%TO.C,R54*%
X114203100Y-176123600D03*
X113203100Y-176123600D03*
%TD*%
D11*
%TO.C,R82*%
X161463100Y-176123600D03*
X162463100Y-176123600D03*
%TD*%
D13*
%TO.C,JP208*%
X184839100Y-137405600D03*
X186839100Y-137405600D03*
D14*
X182439100Y-132205600D03*
X189239100Y-132205600D03*
%TD*%
M02*
