%TF.GenerationSoftware,KiCad,Pcbnew,7.0.6-7.0.6~ubuntu22.04.1*%
%TF.CreationDate,2023-08-05T15:14:41+01:00*%
%TF.ProjectId,working,776f726b-696e-4672-9e6b-696361645f70,rev?*%
%TF.SameCoordinates,Original*%
%TF.FileFunction,Profile,NP*%
%FSLAX46Y46*%
G04 Gerber Fmt 4.6, Leading zero omitted, Abs format (unit mm)*
G04 Created by KiCad (PCBNEW 7.0.6-7.0.6~ubuntu22.04.1) date 2023-08-05 15:14:41*
%MOMM*%
%LPD*%
G01*
G04 APERTURE LIST*
%TA.AperFunction,Profile*%
%ADD10C,0.050000*%
%TD*%
G04 APERTURE END LIST*
D10*
X129001100Y-62503600D02*
X168001100Y-62503600D01*
X171001100Y-65503600D02*
X171001100Y-144503600D01*
X129001100Y-62503600D02*
G75*
G03*
X126001100Y-65503600I0J-3000000D01*
G01*
X126001100Y-144503600D02*
G75*
G03*
X129001100Y-147503600I3000000J0D01*
G01*
X168001100Y-147503600D02*
X129001100Y-147503600D01*
X126001100Y-144503600D02*
X126001100Y-65503600D01*
X168001100Y-147503600D02*
G75*
G03*
X171001100Y-144503600I0J3000000D01*
G01*
X171001100Y-65503600D02*
G75*
G03*
X168001100Y-62503600I-3000000J0D01*
G01*
%TO.C,X1*%
X160301100Y-139103600D02*
X159751100Y-139103600D01*
X160851100Y-139103600D02*
X160301100Y-139103600D01*
X167101100Y-139103600D02*
X166851100Y-139103600D01*
X167351100Y-139103600D02*
X167101100Y-139103600D01*
X159751100Y-138403600D02*
X160301100Y-138403600D01*
X160301100Y-138403600D02*
X160851100Y-138403600D01*
X166851100Y-138403600D02*
X167101100Y-138403600D01*
X167101100Y-138403600D02*
X167351100Y-138403600D01*
X160301100Y-122603600D02*
X159751100Y-122603600D01*
X160851100Y-122603600D02*
X160301100Y-122603600D01*
X167101100Y-122603600D02*
X166851100Y-122603600D01*
X167351100Y-122603600D02*
X167101100Y-122603600D01*
X159751100Y-121903600D02*
X160301100Y-121903600D01*
X160301100Y-121903600D02*
X160851100Y-121903600D01*
X166851100Y-121903600D02*
X167101100Y-121903600D01*
X167101100Y-121903600D02*
X167351100Y-121903600D01*
X159401100Y-138753600D02*
G75*
G03*
X159751100Y-139103600I350001J1D01*
G01*
X166501100Y-138753600D02*
G75*
G03*
X166851100Y-139103600I350001J1D01*
G01*
X159751100Y-138403600D02*
G75*
G03*
X159401100Y-138753600I1J-350001D01*
G01*
X160851100Y-139103600D02*
G75*
G03*
X161201100Y-138753600I-1J350001D01*
G01*
X166851100Y-138403600D02*
G75*
G03*
X166501100Y-138753600I1J-350001D01*
G01*
X167351100Y-139103600D02*
G75*
G03*
X167701100Y-138753600I-1J350001D01*
G01*
X161201100Y-138753600D02*
G75*
G03*
X160851100Y-138403600I-350001J-1D01*
G01*
X167701100Y-138753600D02*
G75*
G03*
X167351100Y-138403600I-350001J-1D01*
G01*
X159401100Y-122253600D02*
G75*
G03*
X159751100Y-122603600I350000J0D01*
G01*
X166501100Y-122253600D02*
G75*
G03*
X166851100Y-122603600I350000J0D01*
G01*
X159751100Y-121903600D02*
G75*
G03*
X159401100Y-122253600I0J-350000D01*
G01*
X160851100Y-122603600D02*
G75*
G03*
X161201100Y-122253600I0J350000D01*
G01*
X166851100Y-121903600D02*
G75*
G03*
X166501100Y-122253600I0J-350000D01*
G01*
X167351100Y-122603600D02*
G75*
G03*
X167701100Y-122253600I0J350000D01*
G01*
X161201100Y-122253600D02*
G75*
G03*
X160851100Y-121903600I-350000J0D01*
G01*
X167701100Y-122253600D02*
G75*
G03*
X167351100Y-121903600I-350000J0D01*
G01*
%TD*%
M02*
