#VRML V2.0 utf8
DEF TXFM_1 Transform {
  center 0 0 0
  rotation 0 0 1 0
  scale 0.00254 0.00254 0.00254
  scaleOrientation 0 0 1 0
  translation 0 0 0
 children [
DEF TXFM_2 Transform {
  center 0 0 0
  rotation 0 0 1 0
  scale 1 1 1
  scaleOrientation 0 0 1 0
  translation 0 0 0
 children [
DEF SHAPE_1 Shape {
 appearance DEF APP_1 Appearance {
  material Material {
   ambientIntensity 1
   diffuseColor 0.43000001 0.44999999 0.30000001
   emissiveColor 0 0 0
   shininess 0.0099999998
   specularColor 0.48699999 0.505 0.37
   transparency 0.1
} }
 geometry DEF FACE_1 IndexedFaceSet {
  coord DEF COORD_1 Coordinate { point [
  46.60223 -42.218056 0.31003937,46.60223 -25.092072 0.31003937,
  46.609926 -24.989385 0.31003937,46.63284 -24.888993 0.31003937,
  46.67046 -24.793136 0.31003937,46.721948 -24.703958 0.31003937,
  46.786151 -24.623449 0.31003937,46.861637 -24.553409 0.31003937,
  46.946719 -24.495401 0.31003937,47.039495 -24.450722 0.31003937,
  47.137895 -24.42037 0.31003937,47.239719 -24.405022 0.31003937,
  47.342694 -24.405022 0.31003937,47.444519 -24.42037 0.31003937,
  47.542918 -24.450722 0.31003937,47.635695 -24.495401 0.31003937,
  47.720776 -24.553409 0.31003937,47.796262 -24.623449 0.31003937,
  47.860466 -24.703958 0.31003937,47.911953 -24.793136 0.31003937,
  47.949574 -24.888993 0.31003937,47.972488 -24.989385 0.31003937,
  47.980183 -25.092072 0.31003937,47.980183 -42.218056 0.31003937,
  47.972488 -42.320743 0.31003937,47.949574 -42.421136 0.31003937,
  47.911953 -42.516992 0.31003937,47.860466 -42.60617 0.31003937,
  47.796262 -42.686679 0.31003937,47.720776 -42.75672 0.31003937,
  47.635695 -42.814727 0.31003937,47.542918 -42.859406 0.31003937,
  47.444519 -42.889759 0.31003937,47.342694 -42.905106 0.31003937,
  47.239719 -42.905106 0.31003937,47.137895 -42.889759 0.31003937,
  47.039495 -42.859406 0.31003937,46.946719 -42.814727 0.31003937,
  46.861637 -42.75672 0.31003937,46.786151 -42.686679 0.31003937,
  46.721948 -42.60617 0.31003937,46.67046 -42.516992 0.31003937,
  46.63284 -42.421136 0.31003937,46.609926 -42.320743 0.31003937,
  46.588596 -21.655205 0.31003937,46.478819 -21.679085 0.31003937,
  46.373557 -21.718346 0.31003937,46.274954 -21.772187 0.31003937,
  46.185017 -21.839513 0.31003937,46.105577 -21.918954 0.31003937,
  46.038251 -22.00889 0.31003937,45.98441 -22.107493 0.31003937,
  45.945149 -22.212755 0.31003937,45.921269 -22.322533 0.31003937,
  45.913254 -22.434592 0.31003937,45.913254 -44.875537 0.31003937,
  45.921269 -44.987596 0.31003937,45.945149 -45.097373 0.31003937,
  45.98441 -45.202635 0.31003937,46.038251 -45.301238 0.31003937,
  46.105577 -45.391175 0.31003937,46.185017 -45.470615 0.31003937,
  46.274954 -45.537941 0.31003937,46.373557 -45.591782 0.31003937,
  46.478819 -45.631043 0.31003937,46.588596 -45.654924 0.31003937,
  46.700656 -45.662938 0.31003937,47.881758 -45.662938 0.31003937,
  47.993817 -45.654924 0.31003937,48.103594 -45.631043 0.31003937,
  48.208856 -45.591782 0.31003937,48.307459 -45.537941 0.31003937,
  48.397396 -45.470615 0.31003937,48.476836 -45.391175 0.31003937,
  48.544162 -45.301238 0.31003937,48.598004 -45.202635 0.31003937,
  48.637264 -45.097373 0.31003937,48.661145 -44.987596 0.31003937,
  48.669159 -44.875537 0.31003937,48.669159 -22.434592 0.31003937,
  48.661145 -22.322533 0.31003937,48.637264 -22.212755 0.31003937,
  48.598004 -22.107493 0.31003937,48.544162 -22.00889 0.31003937,
  48.476836 -21.918954 0.31003937,48.397396 -21.839513 0.31003937,
  48.307459 -21.772187 0.31003937,48.208856 -21.718346 0.31003937,
  48.103594 -21.679085 0.31003937,47.993817 -21.655205 0.31003937,
  47.881758 -21.64719 0.31003937,46.700656 -21.64719 0.31003937,
  46.60223 -44.284985 0.31003937,46.654676 -44.021326 0.31003937,
  46.804027 -43.797806 0.31003937,47.027547 -43.648454 0.31003937,
  47.291207 -43.596009 0.31003937,47.554867 -43.648454 0.31003937,
  47.778387 -43.797806 0.31003937,47.927738 -44.021326 0.31003937,
  47.980183 -44.284985 0.31003937,47.927738 -44.548645 0.31003937,
  47.778387 -44.772165 0.31003937,47.554867 -44.921517 0.31003937,
  47.291207 -44.973962 0.31003937,47.027547 -44.921517 0.31003937,
  46.804027 -44.772165 0.31003937,46.654676 -44.548645 0.31003937,
  47.980183 -23.025143 0.31003937,47.927738 -23.288803 0.31003937,
  47.778387 -23.512323 0.31003937,47.554867 -23.661674 0.31003937,
  47.291207 -23.714119 0.31003937,47.027547 -23.661674 0.31003937,
  46.804027 -23.512323 0.31003937,46.654676 -23.288803 0.31003937,
  46.60223 -23.025143 0.31003937,46.654676 -22.761483 0.31003937,
  46.804027 -22.537963 0.31003937,47.027547 -22.388612 0.31003937,
  47.291207 -22.336167 0.31003937,47.554867 -22.388612 0.31003937,
  47.778387 -22.537963 0.31003937,47.927738 -22.761483 0.31003937,
  46.60223 -42.218056 -0.31003937,46.60223 -25.092072 -0.31003937,
  46.609926 -24.989385 -0.31003937,46.63284 -24.888993 -0.31003937,
  46.67046 -24.793136 -0.31003937,46.721948 -24.703958 -0.31003937,
  46.786151 -24.623449 -0.31003937,46.861637 -24.553409 -0.31003937,
  46.946719 -24.495401 -0.31003937,47.039495 -24.450722 -0.31003937,
  47.137895 -24.42037 -0.31003937,47.239719 -24.405022 -0.31003937,
  47.342694 -24.405022 -0.31003937,47.444519 -24.42037 -0.31003937,
  47.542918 -24.450722 -0.31003937,47.635695 -24.495401 -0.31003937,
  47.720776 -24.553409 -0.31003937,47.796262 -24.623449 -0.31003937,
  47.860466 -24.703958 -0.31003937,47.911953 -24.793136 -0.31003937,
  47.949574 -24.888993 -0.31003937,47.972488 -24.989385 -0.31003937,
  47.980183 -25.092072 -0.31003937,47.980183 -42.218056 -0.31003937,
  47.972488 -42.320743 -0.31003937,47.949574 -42.421136 -0.31003937,
  47.911953 -42.516992 -0.31003937,47.860466 -42.60617 -0.31003937,
  47.796262 -42.686679 -0.31003937,47.720776 -42.75672 -0.31003937,
  47.635695 -42.814727 -0.31003937,47.542918 -42.859406 -0.31003937,
  47.444519 -42.889759 -0.31003937,47.342694 -42.905106 -0.31003937,
  47.239719 -42.905106 -0.31003937,47.137895 -42.889759 -0.31003937,
  47.039495 -42.859406 -0.31003937,46.946719 -42.814727 -0.31003937,
  46.861637 -42.75672 -0.31003937,46.786151 -42.686679 -0.31003937,
  46.721948 -42.60617 -0.31003937,46.67046 -42.516992 -0.31003937,
  46.63284 -42.421136 -0.31003937,46.609926 -42.320743 -0.31003937,
  46.588596 -21.655205 -0.31003937,46.478819 -21.679085 -0.31003937,
  46.373557 -21.718346 -0.31003937,46.274954 -21.772187 -0.31003937,
  46.185017 -21.839513 -0.31003937,46.105577 -21.918954 -0.31003937,
  46.038251 -22.00889 -0.31003937,45.98441 -22.107493 -0.31003937,
  45.945149 -22.212755 -0.31003937,45.921269 -22.322533 -0.31003937,
  45.913254 -22.434592 -0.31003937,45.913254 -44.875537 -0.31003937,
  45.921269 -44.987596 -0.31003937,45.945149 -45.097373 -0.31003937,
  45.98441 -45.202635 -0.31003937,46.038251 -45.301238 -0.31003937,
  46.105577 -45.391175 -0.31003937,46.185017 -45.470615 -0.31003937,
  46.274954 -45.537941 -0.31003937,46.373557 -45.591782 -0.31003937,
  46.478819 -45.631043 -0.31003937,46.588596 -45.654924 -0.31003937,
  46.700656 -45.662938 -0.31003937,47.881758 -45.662938 -0.31003937,
  47.993817 -45.654924 -0.31003937,48.103594 -45.631043 -0.31003937,
  48.208856 -45.591782 -0.31003937,48.307459 -45.537941 -0.31003937,
  48.397396 -45.470615 -0.31003937,48.476836 -45.391175 -0.31003937,
  48.544162 -45.301238 -0.31003937,48.598004 -45.202635 -0.31003937,
  48.637264 -45.097373 -0.31003937,48.661145 -44.987596 -0.31003937,
  48.669159 -44.875537 -0.31003937,48.669159 -22.434592 -0.31003937,
  48.661145 -22.322533 -0.31003937,48.637264 -22.212755 -0.31003937,
  48.598004 -22.107493 -0.31003937,48.544162 -22.00889 -0.31003937,
  48.476836 -21.918954 -0.31003937,48.397396 -21.839513 -0.31003937,
  48.307459 -21.772187 -0.31003937,48.208856 -21.718346 -0.31003937,
  48.103594 -21.679085 -0.31003937,47.993817 -21.655205 -0.31003937,
  47.881758 -21.64719 -0.31003937,46.700656 -21.64719 -0.31003937,
  46.60223 -44.284985 -0.31003937,46.654676 -44.021326 -0.31003937,
  46.804027 -43.797806 -0.31003937,47.027547 -43.648454 -0.31003937,
  47.291207 -43.596009 -0.31003937,47.554867 -43.648454 -0.31003937,
  47.778387 -43.797806 -0.31003937,47.927738 -44.021326 -0.31003937,
  47.980183 -44.284985 -0.31003937,47.927738 -44.548645 -0.31003937,
  47.778387 -44.772165 -0.31003937,47.554867 -44.921517 -0.31003937,
  47.291207 -44.973962 -0.31003937,47.027547 -44.921517 -0.31003937,
  46.804027 -44.772165 -0.31003937,46.654676 -44.548645 -0.31003937,
  47.980183 -23.025143 -0.31003937,47.927738 -23.288803 -0.31003937,
  47.778387 -23.512323 -0.31003937,47.554867 -23.661674 -0.31003937,
  47.291207 -23.714119 -0.31003937,47.027547 -23.661674 -0.31003937,
  46.804027 -23.512323 -0.31003937,46.654676 -23.288803 -0.31003937,
  46.60223 -23.025143 -0.31003937,46.654676 -22.761483 -0.31003937,
  46.804027 -22.537963 -0.31003937,47.027547 -22.388612 -0.31003937,
  47.291207 -22.336167 -0.31003937,47.554867 -22.388612 -0.31003937,
  47.778387 -22.537963 -0.31003937,47.927738 -22.761483 -0.31003937] }
 coordIndex [
  20,21,108,-1,108,21,22,-1,108,22,68,-1,68,22,23,-1,68,23,100,-1,100,23,24,-1,100,24,25,-1,99,100,25,-1,
  99,25,26,-1,99,26,27,-1,99,27,28,-1,99,28,98,-1,28,29,98,-1,98,29,30,-1,98,30,97,-1,97,30,31,-1,
  97,31,32,-1,33,34,96,-1,33,96,97,-1,33,97,32,-1,34,35,96,-1,96,35,36,-1,96,36,95,-1,95,36,37,-1,
  95,37,38,-1,94,95,38,-1,94,38,39,-1,94,39,40,-1,94,40,41,-1,94,41,93,-1,93,41,42,-1,93,42,43,-1,
  93,43,0,-1,93,0,92,-1,109,110,17,-1,109,17,18,-1,109,18,19,-1,109,19,20,-1,109,20,108,-1,13,14,111,-1,
  111,14,15,-1,111,15,110,-1,110,15,16,-1,110,16,17,-1,10,11,112,-1,112,11,12,-1,112,12,111,-1,111,12,13,-1,
  7,8,113,-1,113,8,9,-1,113,9,112,-1,112,9,10,-1,114,115,4,-1,114,4,5,-1,114,5,6,-1,114,6,7,-1,
  114,7,113,-1,0,1,116,-1,116,1,2,-1,116,2,115,-1,115,2,3,-1,115,3,4,-1,108,68,89,-1,89,68,69,-1,
  89,69,88,-1,88,69,70,-1,88,70,87,-1,87,70,71,-1,87,71,86,-1,86,71,72,-1,86,72,85,-1,85,72,73,-1,
  85,73,84,-1,84,73,74,-1,84,74,83,-1,83,74,75,-1,83,75,82,-1,82,75,76,-1,82,76,81,-1,81,76,77,-1,
  81,77,80,-1,80,77,78,-1,80,78,79,-1,121,122,90,-1,90,122,123,-1,90,123,89,-1,89,123,108,-1,90,91,118,-1,
  90,118,119,-1,90,119,120,-1,90,120,121,-1,65,92,44,-1,44,92,116,-1,44,116,91,-1,91,116,117,-1,91,117,118,-1,
  101,102,67,-1,101,67,68,-1,101,68,100,-1,67,102,103,-1,67,103,104,-1,67,104,105,-1,67,105,106,-1,67,106,66,-1,
  66,106,107,-1,66,107,92,-1,66,92,65,-1,54,56,53,-1,53,56,57,-1,53,57,52,-1,52,57,58,-1,52,58,51,-1,
  51,58,59,-1,51,59,50,-1,50,59,60,-1,50,60,49,-1,49,60,61,-1,49,61,48,-1,48,61,62,-1,48,62,47,-1,
  47,62,63,-1,47,63,46,-1,46,63,64,-1,46,64,45,-1,45,64,65,-1,45,65,44,-1,56,54,55,-1,116,92,0,-1,
  145,144,232,-1,145,232,146,-1,146,232,192,-1,146,192,147,-1,147,192,224,-1,147,224,148,-1,148,224,149,-1,224,223,149,-1,
  149,223,150,-1,150,223,151,-1,151,223,152,-1,152,223,222,-1,153,152,222,-1,153,222,154,-1,154,222,221,-1,154,221,155,-1,
  155,221,156,-1,158,157,220,-1,220,157,221,-1,221,157,156,-1,159,158,220,-1,159,220,160,-1,160,220,219,-1,160,219,161,-1,
  161,219,162,-1,219,218,162,-1,162,218,163,-1,163,218,164,-1,164,218,165,-1,165,218,217,-1,165,217,166,-1,166,217,167,-1,
  167,217,124,-1,124,217,216,-1,234,233,141,-1,141,233,142,-1,142,233,143,-1,143,233,144,-1,144,233,232,-1,138,137,235,-1,
  138,235,139,-1,139,235,234,-1,139,234,140,-1,140,234,141,-1,135,134,236,-1,135,236,136,-1,136,236,235,-1,136,235,137,-1,
  132,131,237,-1,132,237,133,-1,133,237,236,-1,133,236,134,-1,239,238,128,-1,128,238,129,-1,129,238,130,-1,130,238,131,-1,
  131,238,237,-1,125,124,240,-1,125,240,126,-1,126,240,239,-1,126,239,127,-1,127,239,128,-1,192,232,213,-1,192,213,193,-1,
  193,213,212,-1,193,212,194,-1,194,212,211,-1,194,211,195,-1,195,211,210,-1,195,210,196,-1,196,210,209,-1,196,209,197,-1,
  197,209,208,-1,197,208,198,-1,198,208,207,-1,198,207,199,-1,199,207,206,-1,199,206,200,-1,200,206,205,-1,200,205,201,-1,
  201,205,204,-1,201,204,202,-1,202,204,203,-1,246,245,214,-1,246,214,247,-1,247,214,213,-1,247,213,232,-1,215,214,242,-1,
  242,214,243,-1,243,214,244,-1,244,214,245,-1,216,189,168,-1,216,168,240,-1,240,168,215,-1,240,215,241,-1,241,215,242,-1,
  226,225,191,-1,191,225,192,-1,192,225,224,-1,226,191,227,-1,227,191,228,-1,228,191,229,-1,229,191,230,-1,230,191,190,-1,
  230,190,231,-1,231,190,216,-1,216,190,189,-1,180,178,177,-1,180,177,181,-1,181,177,176,-1,181,176,182,-1,182,176,175,-1,
  182,175,183,-1,183,175,174,-1,183,174,184,-1,184,174,173,-1,184,173,185,-1,185,173,172,-1,185,172,186,-1,186,172,171,-1,
  186,171,187,-1,187,171,170,-1,187,170,188,-1,188,170,169,-1,188,169,189,-1,189,169,168,-1,178,180,179,-1,216,240,124,-1]
  normalPerVertex TRUE
  normal DEF NORM_1 Normal { vector [
  0 0 1,0 0 1,
  0 0 1,0 0 1,
  0 0 1,0 0 1,
  0 0 1,0 0 1,
  0 0 1,0 0 1,
  0 0 1,0 0 1,
  0 0 1,0 0 1,
  0 0 1,0 0 1,
  0 0 1,0 0 1,
  0 0 1,0 0 1,
  0 0 1,0 0 1,
  0 0 1,0 0 1,
  0 0 1,0 0 1,
  0 0 1,0 0 1,
  0 0 1,0 0 1,
  0 0 1,0 0 1,
  0 0 1,0 0 1,
  0 0 1,0 0 1,
  0 0 1,0 0 1,
  0 0 1,0 0 1,
  0 0 1,0 0 1,
  0 0 1,0 0 1,
  0 0 1,0 0 1,
  0 0 1,0 0 1,
  0 0 1,0 0 1,
  0 0 1,0 0 1,
  0 0 1,0 0 1,
  0 0 1,0 0 1,
  0 0 1,0 0 1,
  0 0 1,0 0 1,
  0 0 1,0 0 1,
  0 0 1,0 0 1,
  0 0 1,0 0 1,
  0 0 1,0 0 1,
  0 0 1,0 0 1,
  0 0 1,0 0 1,
  0 0 1,0 0 1,
  0 0 1,0 0 1,
  0 0 1,0 0 1,
  0 0 1,0 0 1,
  0 0 1,0 0 1,
  0 0 1,0 0 1,
  0 0 1,0 0 1,
  0 0 1,0 0 1,
  0 0 1,0 0 1,
  0 0 1,0 0 1,
  0 0 1,0 0 1,
  0 0 1,0 0 1,
  0 0 1,0 0 1,
  0 0 1,0 0 1,
  0 0 1,0 0 1,
  0 0 1,0 0 1,
  0 0 1,0 0 1,
  0 0 1,0 0 1,
  0 0 1,0 0 1,
  0 0 1,0 0 1,
  0 0 1,0 0 1,
  0 0 1,0 0 1,
  0 0 1,0 0 1,
  0 0 1,0 0 1,
  0 0 1,0 0 1,
  0 0 1,0 0 1,
  0 0 -1,0 0 -1,
  0 0 -1,0 0 -1,
  0 0 -1,0 0 -1,
  0 0 -1,0 0 -1,
  0 0 -1,0 0 -1,
  0 0 -1,0 0 -1,
  0 0 -1,0 0 -1,
  0 0 -1,0 0 -1,
  0 0 -1,0 0 -1,
  0 0 -1,0 0 -1,
  0 0 -1,0 0 -1,
  0 0 -1,0 0 -1,
  0 0 -1,0 0 -1,
  0 0 -1,0 0 -1,
  0 0 -1,0 0 -1,
  0 0 -1,0 0 -1,
  0 0 -1,0 0 -1,
  0 0 -1,0 0 -1,
  0 0 -1,0 0 -1,
  0 0 -1,0 0 -1,
  0 0 -1,0 0 -1,
  0 0 -1,0 0 -1,
  0 0 -1,0 0 -1,
  0 0 -1,0 0 -1,
  0 0 -1,0 0 -1,
  0 0 -1,0 0 -1,
  0 0 -1,0 0 -1,
  0 0 -1,0 0 -1,
  0 0 -1,0 0 -1,
  0 0 -1,0 0 -1,
  0 0 -1,0 0 -1,
  0 0 -1,0 0 -1,
  0 0 -1,0 0 -1,
  0 0 -1,0 0 -1,
  0 0 -1,0 0 -1,
  0 0 -1,0 0 -1,
  0 0 -1,0 0 -1,
  0 0 -1,0 0 -1,
  0 0 -1,0 0 -1,
  0 0 -1,0 0 -1,
  0 0 -1,0 0 -1,
  0 0 -1,0 0 -1,
  0 0 -1,0 0 -1,
  0 0 -1,0 0 -1,
  0 0 -1,0 0 -1,
  0 0 -1,0 0 -1,
  0 0 -1,0 0 -1,
  0 0 -1,0 0 -1,
  0 0 -1,0 0 -1,
  0 0 -1,0 0 -1,
  0 0 -1,0 0 -1,
  0 0 -1,0 0 -1,
  0 0 -1,0 0 -1,
  0 0 -1,0 0 -1,
  0 0 -1,0 0 -1,
  0 0 -1,0 0 -1,
  0 0 -1,0 0 -1,
  0 0 -1,0 0 -1,
  0 0 -1,0 0 -1,
  0 0 -1,0 0 -1,
  0 0 -1,0 0 -1,
  0 0 -1,0 0 -1] }
}
}
DEF SHAPE_2 Shape {
 appearance USE APP_1
 geometry DEF FACE_2 IndexedFaceSet {
  coord DEF COORD_2 Coordinate { point [
  46.60223 -25.092072 0.31003937,46.60223 -42.218056 0.31003937,
  46.60223 -25.092072 -0.31003937,46.60223 -25.092072 -0.31003937,
  46.60223 -42.218056 0.31003937,46.60223 -42.218056 -0.31003937,
  46.609926 -24.989385 0.31003937,46.60223 -25.092072 0.31003937,
  46.609926 -24.989385 -0.31003937,46.609926 -24.989385 -0.31003937,
  46.60223 -25.092072 0.31003937,46.60223 -25.092072 -0.31003937,
  46.63284 -24.888993 0.31003937,46.609926 -24.989385 0.31003937,
  46.63284 -24.888993 -0.31003937,46.63284 -24.888993 -0.31003937,
  46.609926 -24.989385 0.31003937,46.609926 -24.989385 -0.31003937,
  46.67046 -24.793136 0.31003937,46.63284 -24.888993 0.31003937,
  46.67046 -24.793136 -0.31003937,46.67046 -24.793136 -0.31003937,
  46.63284 -24.888993 0.31003937,46.63284 -24.888993 -0.31003937,
  46.721948 -24.703958 0.31003937,46.67046 -24.793136 0.31003937,
  46.721948 -24.703958 -0.31003937,46.721948 -24.703958 -0.31003937,
  46.67046 -24.793136 0.31003937,46.67046 -24.793136 -0.31003937,
  46.786151 -24.623449 0.31003937,46.721948 -24.703958 0.31003937,
  46.786151 -24.623449 -0.31003937,46.786151 -24.623449 -0.31003937,
  46.721948 -24.703958 0.31003937,46.721948 -24.703958 -0.31003937,
  46.861637 -24.553409 0.31003937,46.786151 -24.623449 0.31003937,
  46.861637 -24.553409 -0.31003937,46.861637 -24.553409 -0.31003937,
  46.786151 -24.623449 0.31003937,46.786151 -24.623449 -0.31003937,
  46.946719 -24.495401 0.31003937,46.861637 -24.553409 0.31003937,
  46.946719 -24.495401 -0.31003937,46.946719 -24.495401 -0.31003937,
  46.861637 -24.553409 0.31003937,46.861637 -24.553409 -0.31003937,
  47.039495 -24.450722 0.31003937,46.946719 -24.495401 0.31003937,
  47.039495 -24.450722 -0.31003937,47.039495 -24.450722 -0.31003937,
  46.946719 -24.495401 0.31003937,46.946719 -24.495401 -0.31003937,
  47.137895 -24.42037 0.31003937,47.039495 -24.450722 0.31003937,
  47.137895 -24.42037 -0.31003937,47.137895 -24.42037 -0.31003937,
  47.039495 -24.450722 0.31003937,47.039495 -24.450722 -0.31003937,
  47.239719 -24.405022 0.31003937,47.137895 -24.42037 0.31003937,
  47.239719 -24.405022 -0.31003937,47.239719 -24.405022 -0.31003937,
  47.137895 -24.42037 0.31003937,47.137895 -24.42037 -0.31003937,
  47.342694 -24.405022 0.31003937,47.239719 -24.405022 0.31003937,
  47.342694 -24.405022 -0.31003937,47.342694 -24.405022 -0.31003937,
  47.239719 -24.405022 0.31003937,47.239719 -24.405022 -0.31003937,
  47.444519 -24.42037 0.31003937,47.342694 -24.405022 0.31003937,
  47.444519 -24.42037 -0.31003937,47.444519 -24.42037 -0.31003937,
  47.342694 -24.405022 0.31003937,47.342694 -24.405022 -0.31003937,
  47.542918 -24.450722 0.31003937,47.444519 -24.42037 0.31003937,
  47.542918 -24.450722 -0.31003937,47.542918 -24.450722 -0.31003937,
  47.444519 -24.42037 0.31003937,47.444519 -24.42037 -0.31003937,
  47.635695 -24.495401 0.31003937,47.542918 -24.450722 0.31003937,
  47.635695 -24.495401 -0.31003937,47.635695 -24.495401 -0.31003937,
  47.542918 -24.450722 0.31003937,47.542918 -24.450722 -0.31003937,
  47.720776 -24.553409 0.31003937,47.635695 -24.495401 0.31003937,
  47.720776 -24.553409 -0.31003937,47.720776 -24.553409 -0.31003937,
  47.635695 -24.495401 0.31003937,47.635695 -24.495401 -0.31003937,
  47.796262 -24.623449 0.31003937,47.720776 -24.553409 0.31003937,
  47.796262 -24.623449 -0.31003937,47.796262 -24.623449 -0.31003937,
  47.720776 -24.553409 0.31003937,47.720776 -24.553409 -0.31003937,
  47.860466 -24.703958 0.31003937,47.796262 -24.623449 0.31003937,
  47.860466 -24.703958 -0.31003937,47.860466 -24.703958 -0.31003937,
  47.796262 -24.623449 0.31003937,47.796262 -24.623449 -0.31003937,
  47.911953 -24.793136 0.31003937,47.860466 -24.703958 0.31003937,
  47.911953 -24.793136 -0.31003937,47.911953 -24.793136 -0.31003937,
  47.860466 -24.703958 0.31003937,47.860466 -24.703958 -0.31003937,
  47.949574 -24.888993 0.31003937,47.911953 -24.793136 0.31003937,
  47.949574 -24.888993 -0.31003937,47.949574 -24.888993 -0.31003937,
  47.911953 -24.793136 0.31003937,47.911953 -24.793136 -0.31003937,
  47.972488 -24.989385 0.31003937,47.949574 -24.888993 0.31003937,
  47.972488 -24.989385 -0.31003937,47.972488 -24.989385 -0.31003937,
  47.949574 -24.888993 0.31003937,47.949574 -24.888993 -0.31003937,
  47.980183 -25.092072 0.31003937,47.972488 -24.989385 0.31003937,
  47.980183 -25.092072 -0.31003937,47.980183 -25.092072 -0.31003937,
  47.972488 -24.989385 0.31003937,47.972488 -24.989385 -0.31003937,
  47.980183 -42.218056 0.31003937,47.980183 -25.092072 0.31003937,
  47.980183 -42.218056 -0.31003937,47.980183 -42.218056 -0.31003937,
  47.980183 -25.092072 0.31003937,47.980183 -25.092072 -0.31003937,
  47.972488 -42.320743 0.31003937,47.980183 -42.218056 0.31003937,
  47.972488 -42.320743 -0.31003937,47.972488 -42.320743 -0.31003937,
  47.980183 -42.218056 0.31003937,47.980183 -42.218056 -0.31003937,
  47.949574 -42.421136 0.31003937,47.972488 -42.320743 0.31003937,
  47.949574 -42.421136 -0.31003937,47.949574 -42.421136 -0.31003937,
  47.972488 -42.320743 0.31003937,47.972488 -42.320743 -0.31003937,
  47.911953 -42.516992 0.31003937,47.949574 -42.421136 0.31003937,
  47.911953 -42.516992 -0.31003937,47.911953 -42.516992 -0.31003937,
  47.949574 -42.421136 0.31003937,47.949574 -42.421136 -0.31003937,
  47.860466 -42.60617 0.31003937,47.911953 -42.516992 0.31003937,
  47.860466 -42.60617 -0.31003937,47.860466 -42.60617 -0.31003937,
  47.911953 -42.516992 0.31003937,47.911953 -42.516992 -0.31003937,
  47.796262 -42.686679 0.31003937,47.860466 -42.60617 0.31003937,
  47.796262 -42.686679 -0.31003937,47.796262 -42.686679 -0.31003937,
  47.860466 -42.60617 0.31003937,47.860466 -42.60617 -0.31003937,
  47.720776 -42.75672 0.31003937,47.796262 -42.686679 0.31003937,
  47.720776 -42.75672 -0.31003937,47.720776 -42.75672 -0.31003937,
  47.796262 -42.686679 0.31003937,47.796262 -42.686679 -0.31003937,
  47.635695 -42.814727 0.31003937,47.720776 -42.75672 0.31003937,
  47.635695 -42.814727 -0.31003937,47.635695 -42.814727 -0.31003937,
  47.720776 -42.75672 0.31003937,47.720776 -42.75672 -0.31003937,
  47.542918 -42.859406 0.31003937,47.635695 -42.814727 0.31003937,
  47.542918 -42.859406 -0.31003937,47.542918 -42.859406 -0.31003937,
  47.635695 -42.814727 0.31003937,47.635695 -42.814727 -0.31003937,
  47.444519 -42.889759 0.31003937,47.542918 -42.859406 0.31003937,
  47.444519 -42.889759 -0.31003937,47.444519 -42.889759 -0.31003937,
  47.542918 -42.859406 0.31003937,47.542918 -42.859406 -0.31003937,
  47.342694 -42.905106 0.31003937,47.444519 -42.889759 0.31003937,
  47.342694 -42.905106 -0.31003937,47.342694 -42.905106 -0.31003937,
  47.444519 -42.889759 0.31003937,47.444519 -42.889759 -0.31003937,
  47.239719 -42.905106 0.31003937,47.342694 -42.905106 0.31003937,
  47.239719 -42.905106 -0.31003937,47.239719 -42.905106 -0.31003937,
  47.342694 -42.905106 0.31003937,47.342694 -42.905106 -0.31003937,
  47.137895 -42.889759 0.31003937,47.239719 -42.905106 0.31003937,
  47.137895 -42.889759 -0.31003937,47.137895 -42.889759 -0.31003937,
  47.239719 -42.905106 0.31003937,47.239719 -42.905106 -0.31003937,
  47.039495 -42.859406 0.31003937,47.137895 -42.889759 0.31003937,
  47.039495 -42.859406 -0.31003937,47.039495 -42.859406 -0.31003937,
  47.137895 -42.889759 0.31003937,47.137895 -42.889759 -0.31003937,
  46.946719 -42.814727 0.31003937,47.039495 -42.859406 0.31003937,
  46.946719 -42.814727 -0.31003937,46.946719 -42.814727 -0.31003937,
  47.039495 -42.859406 0.31003937,47.039495 -42.859406 -0.31003937,
  46.861637 -42.75672 0.31003937,46.946719 -42.814727 0.31003937,
  46.861637 -42.75672 -0.31003937,46.861637 -42.75672 -0.31003937,
  46.946719 -42.814727 0.31003937,46.946719 -42.814727 -0.31003937,
  46.786151 -42.686679 0.31003937,46.861637 -42.75672 0.31003937,
  46.786151 -42.686679 -0.31003937,46.786151 -42.686679 -0.31003937,
  46.861637 -42.75672 0.31003937,46.861637 -42.75672 -0.31003937,
  46.721948 -42.60617 0.31003937,46.786151 -42.686679 0.31003937,
  46.721948 -42.60617 -0.31003937,46.721948 -42.60617 -0.31003937,
  46.786151 -42.686679 0.31003937,46.786151 -42.686679 -0.31003937,
  46.67046 -42.516992 0.31003937,46.721948 -42.60617 0.31003937,
  46.67046 -42.516992 -0.31003937,46.67046 -42.516992 -0.31003937,
  46.721948 -42.60617 0.31003937,46.721948 -42.60617 -0.31003937,
  46.63284 -42.421136 0.31003937,46.67046 -42.516992 0.31003937,
  46.63284 -42.421136 -0.31003937,46.63284 -42.421136 -0.31003937,
  46.67046 -42.516992 0.31003937,46.67046 -42.516992 -0.31003937,
  46.609926 -42.320743 0.31003937,46.63284 -42.421136 0.31003937,
  46.609926 -42.320743 -0.31003937,46.609926 -42.320743 -0.31003937,
  46.63284 -42.421136 0.31003937,46.63284 -42.421136 -0.31003937,
  46.60223 -42.218056 0.31003937,46.609926 -42.320743 0.31003937,
  46.60223 -42.218056 -0.31003937,46.60223 -42.218056 -0.31003937,
  46.609926 -42.320743 0.31003937,46.609926 -42.320743 -0.31003937,
  46.478819 -21.679085 0.31003937,46.588596 -21.655205 0.31003937,
  46.478819 -21.679085 -0.31003937,46.478819 -21.679085 -0.31003937,
  46.588596 -21.655205 0.31003937,46.588596 -21.655205 -0.31003937,
  46.373557 -21.718346 0.31003937,46.478819 -21.679085 0.31003937,
  46.373557 -21.718346 -0.31003937,46.373557 -21.718346 -0.31003937,
  46.478819 -21.679085 0.31003937,46.478819 -21.679085 -0.31003937,
  46.274954 -21.772187 0.31003937,46.373557 -21.718346 0.31003937,
  46.274954 -21.772187 -0.31003937,46.274954 -21.772187 -0.31003937,
  46.373557 -21.718346 0.31003937,46.373557 -21.718346 -0.31003937,
  46.185017 -21.839513 0.31003937,46.274954 -21.772187 0.31003937,
  46.185017 -21.839513 -0.31003937,46.185017 -21.839513 -0.31003937,
  46.274954 -21.772187 0.31003937,46.274954 -21.772187 -0.31003937,
  46.105577 -21.918954 0.31003937,46.185017 -21.839513 0.31003937,
  46.105577 -21.918954 -0.31003937,46.105577 -21.918954 -0.31003937,
  46.185017 -21.839513 0.31003937,46.185017 -21.839513 -0.31003937,
  46.038251 -22.00889 0.31003937,46.105577 -21.918954 0.31003937,
  46.038251 -22.00889 -0.31003937,46.038251 -22.00889 -0.31003937,
  46.105577 -21.918954 0.31003937,46.105577 -21.918954 -0.31003937,
  45.98441 -22.107493 0.31003937,46.038251 -22.00889 0.31003937,
  45.98441 -22.107493 -0.31003937,45.98441 -22.107493 -0.31003937,
  46.038251 -22.00889 0.31003937,46.038251 -22.00889 -0.31003937,
  45.945149 -22.212755 0.31003937,45.98441 -22.107493 0.31003937,
  45.945149 -22.212755 -0.31003937,45.945149 -22.212755 -0.31003937,
  45.98441 -22.107493 0.31003937,45.98441 -22.107493 -0.31003937,
  45.921269 -22.322533 0.31003937,45.945149 -22.212755 0.31003937,
  45.921269 -22.322533 -0.31003937,45.921269 -22.322533 -0.31003937,
  45.945149 -22.212755 0.31003937,45.945149 -22.212755 -0.31003937,
  45.913254 -22.434592 0.31003937,45.921269 -22.322533 0.31003937,
  45.913254 -22.434592 -0.31003937,45.913254 -22.434592 -0.31003937,
  45.921269 -22.322533 0.31003937,45.921269 -22.322533 -0.31003937,
  45.913254 -44.875537 0.31003937,45.913254 -22.434592 0.31003937,
  45.913254 -44.875537 -0.31003937,45.913254 -44.875537 -0.31003937,
  45.913254 -22.434592 0.31003937,45.913254 -22.434592 -0.31003937,
  45.921269 -44.987596 0.31003937,45.913254 -44.875537 0.31003937,
  45.921269 -44.987596 -0.31003937,45.921269 -44.987596 -0.31003937,
  45.913254 -44.875537 0.31003937,45.913254 -44.875537 -0.31003937,
  45.945149 -45.097373 0.31003937,45.921269 -44.987596 0.31003937,
  45.945149 -45.097373 -0.31003937,45.945149 -45.097373 -0.31003937,
  45.921269 -44.987596 0.31003937,45.921269 -44.987596 -0.31003937,
  45.98441 -45.202635 0.31003937,45.945149 -45.097373 0.31003937,
  45.98441 -45.202635 -0.31003937,45.98441 -45.202635 -0.31003937,
  45.945149 -45.097373 0.31003937,45.945149 -45.097373 -0.31003937,
  46.038251 -45.301238 0.31003937,45.98441 -45.202635 0.31003937,
  46.038251 -45.301238 -0.31003937,46.038251 -45.301238 -0.31003937,
  45.98441 -45.202635 0.31003937,45.98441 -45.202635 -0.31003937,
  46.105577 -45.391175 0.31003937,46.038251 -45.301238 0.31003937,
  46.105577 -45.391175 -0.31003937,46.105577 -45.391175 -0.31003937,
  46.038251 -45.301238 0.31003937,46.038251 -45.301238 -0.31003937,
  46.185017 -45.470615 0.31003937,46.105577 -45.391175 0.31003937,
  46.185017 -45.470615 -0.31003937,46.185017 -45.470615 -0.31003937,
  46.105577 -45.391175 0.31003937,46.105577 -45.391175 -0.31003937,
  46.274954 -45.537941 0.31003937,46.185017 -45.470615 0.31003937,
  46.274954 -45.537941 -0.31003937,46.274954 -45.537941 -0.31003937,
  46.185017 -45.470615 0.31003937,46.185017 -45.470615 -0.31003937,
  46.373557 -45.591782 0.31003937,46.274954 -45.537941 0.31003937,
  46.373557 -45.591782 -0.31003937,46.373557 -45.591782 -0.31003937,
  46.274954 -45.537941 0.31003937,46.274954 -45.537941 -0.31003937,
  46.478819 -45.631043 0.31003937,46.373557 -45.591782 0.31003937,
  46.478819 -45.631043 -0.31003937,46.478819 -45.631043 -0.31003937,
  46.373557 -45.591782 0.31003937,46.373557 -45.591782 -0.31003937,
  46.588596 -45.654924 0.31003937,46.478819 -45.631043 0.31003937,
  46.588596 -45.654924 -0.31003937,46.588596 -45.654924 -0.31003937,
  46.478819 -45.631043 0.31003937,46.478819 -45.631043 -0.31003937,
  46.700656 -45.662938 0.31003937,46.588596 -45.654924 0.31003937,
  46.700656 -45.662938 -0.31003937,46.700656 -45.662938 -0.31003937,
  46.588596 -45.654924 0.31003937,46.588596 -45.654924 -0.31003937,
  47.881758 -45.662938 0.31003937,46.700656 -45.662938 0.31003937,
  47.881758 -45.662938 -0.31003937,47.881758 -45.662938 -0.31003937,
  46.700656 -45.662938 0.31003937,46.700656 -45.662938 -0.31003937,
  47.993817 -45.654924 0.31003937,47.881758 -45.662938 0.31003937,
  47.993817 -45.654924 -0.31003937,47.993817 -45.654924 -0.31003937,
  47.881758 -45.662938 0.31003937,47.881758 -45.662938 -0.31003937,
  48.103594 -45.631043 0.31003937,47.993817 -45.654924 0.31003937,
  48.103594 -45.631043 -0.31003937,48.103594 -45.631043 -0.31003937,
  47.993817 -45.654924 0.31003937,47.993817 -45.654924 -0.31003937,
  48.208856 -45.591782 0.31003937,48.103594 -45.631043 0.31003937,
  48.208856 -45.591782 -0.31003937,48.208856 -45.591782 -0.31003937,
  48.103594 -45.631043 0.31003937,48.103594 -45.631043 -0.31003937,
  48.307459 -45.537941 0.31003937,48.208856 -45.591782 0.31003937,
  48.307459 -45.537941 -0.31003937,48.307459 -45.537941 -0.31003937,
  48.208856 -45.591782 0.31003937,48.208856 -45.591782 -0.31003937,
  48.397396 -45.470615 0.31003937,48.307459 -45.537941 0.31003937,
  48.397396 -45.470615 -0.31003937,48.397396 -45.470615 -0.31003937,
  48.307459 -45.537941 0.31003937,48.307459 -45.537941 -0.31003937,
  48.476836 -45.391175 0.31003937,48.397396 -45.470615 0.31003937,
  48.476836 -45.391175 -0.31003937,48.476836 -45.391175 -0.31003937,
  48.397396 -45.470615 0.31003937,48.397396 -45.470615 -0.31003937,
  48.544162 -45.301238 0.31003937,48.476836 -45.391175 0.31003937,
  48.544162 -45.301238 -0.31003937,48.544162 -45.301238 -0.31003937,
  48.476836 -45.391175 0.31003937,48.476836 -45.391175 -0.31003937,
  48.598004 -45.202635 0.31003937,48.544162 -45.301238 0.31003937,
  48.598004 -45.202635 -0.31003937,48.598004 -45.202635 -0.31003937,
  48.544162 -45.301238 0.31003937,48.544162 -45.301238 -0.31003937,
  48.637264 -45.097373 0.31003937,48.598004 -45.202635 0.31003937,
  48.637264 -45.097373 -0.31003937,48.637264 -45.097373 -0.31003937,
  48.598004 -45.202635 0.31003937,48.598004 -45.202635 -0.31003937,
  48.661145 -44.987596 0.31003937,48.637264 -45.097373 0.31003937,
  48.661145 -44.987596 -0.31003937,48.661145 -44.987596 -0.31003937,
  48.637264 -45.097373 0.31003937,48.637264 -45.097373 -0.31003937,
  48.669159 -44.875537 0.31003937,48.661145 -44.987596 0.31003937,
  48.669159 -44.875537 -0.31003937,48.669159 -44.875537 -0.31003937,
  48.661145 -44.987596 0.31003937,48.661145 -44.987596 -0.31003937,
  48.669159 -22.434592 0.31003937,48.669159 -44.875537 0.31003937,
  48.669159 -22.434592 -0.31003937,48.669159 -22.434592 -0.31003937,
  48.669159 -44.875537 0.31003937,48.669159 -44.875537 -0.31003937,
  48.661145 -22.322533 0.31003937,48.669159 -22.434592 0.31003937,
  48.661145 -22.322533 -0.31003937,48.661145 -22.322533 -0.31003937,
  48.669159 -22.434592 0.31003937,48.669159 -22.434592 -0.31003937,
  48.637264 -22.212755 0.31003937,48.661145 -22.322533 0.31003937,
  48.637264 -22.212755 -0.31003937,48.637264 -22.212755 -0.31003937,
  48.661145 -22.322533 0.31003937,48.661145 -22.322533 -0.31003937,
  48.598004 -22.107493 0.31003937,48.637264 -22.212755 0.31003937,
  48.598004 -22.107493 -0.31003937,48.598004 -22.107493 -0.31003937,
  48.637264 -22.212755 0.31003937,48.637264 -22.212755 -0.31003937,
  48.544162 -22.00889 0.31003937,48.598004 -22.107493 0.31003937,
  48.544162 -22.00889 -0.31003937,48.544162 -22.00889 -0.31003937,
  48.598004 -22.107493 0.31003937,48.598004 -22.107493 -0.31003937,
  48.476836 -21.918954 0.31003937,48.544162 -22.00889 0.31003937,
  48.476836 -21.918954 -0.31003937,48.476836 -21.918954 -0.31003937,
  48.544162 -22.00889 0.31003937,48.544162 -22.00889 -0.31003937,
  48.397396 -21.839513 0.31003937,48.476836 -21.918954 0.31003937,
  48.397396 -21.839513 -0.31003937,48.397396 -21.839513 -0.31003937,
  48.476836 -21.918954 0.31003937,48.476836 -21.918954 -0.31003937,
  48.307459 -21.772187 0.31003937,48.397396 -21.839513 0.31003937,
  48.307459 -21.772187 -0.31003937,48.307459 -21.772187 -0.31003937,
  48.397396 -21.839513 0.31003937,48.397396 -21.839513 -0.31003937,
  48.208856 -21.718346 0.31003937,48.307459 -21.772187 0.31003937,
  48.208856 -21.718346 -0.31003937,48.208856 -21.718346 -0.31003937,
  48.307459 -21.772187 0.31003937,48.307459 -21.772187 -0.31003937,
  48.103594 -21.679085 0.31003937,48.208856 -21.718346 0.31003937,
  48.103594 -21.679085 -0.31003937,48.103594 -21.679085 -0.31003937,
  48.208856 -21.718346 0.31003937,48.208856 -21.718346 -0.31003937,
  47.993817 -21.655205 0.31003937,48.103594 -21.679085 0.31003937,
  47.993817 -21.655205 -0.31003937,47.993817 -21.655205 -0.31003937,
  48.103594 -21.679085 0.31003937,48.103594 -21.679085 -0.31003937,
  47.881758 -21.64719 0.31003937,47.993817 -21.655205 0.31003937,
  47.881758 -21.64719 -0.31003937,47.881758 -21.64719 -0.31003937,
  47.993817 -21.655205 0.31003937,47.993817 -21.655205 -0.31003937,
  46.700656 -21.64719 0.31003937,47.881758 -21.64719 0.31003937,
  46.700656 -21.64719 -0.31003937,46.700656 -21.64719 -0.31003937,
  47.881758 -21.64719 0.31003937,47.881758 -21.64719 -0.31003937,
  46.588596 -21.655205 0.31003937,46.700656 -21.64719 0.31003937,
  46.588596 -21.655205 -0.31003937,46.588596 -21.655205 -0.31003937,
  46.700656 -21.64719 0.31003937,46.700656 -21.64719 -0.31003937,
  46.654676 -44.021326 0.31003937,46.60223 -44.284985 0.31003937,
  46.654676 -44.021326 -0.31003937,46.654676 -44.021326 -0.31003937,
  46.60223 -44.284985 0.31003937,46.60223 -44.284985 -0.31003937,
  46.804027 -43.797806 0.31003937,46.654676 -44.021326 0.31003937,
  46.804027 -43.797806 -0.31003937,46.804027 -43.797806 -0.31003937,
  46.654676 -44.021326 0.31003937,46.654676 -44.021326 -0.31003937,
  47.027547 -43.648454 0.31003937,46.804027 -43.797806 0.31003937,
  47.027547 -43.648454 -0.31003937,47.027547 -43.648454 -0.31003937,
  46.804027 -43.797806 0.31003937,46.804027 -43.797806 -0.31003937,
  47.291207 -43.596009 0.31003937,47.027547 -43.648454 0.31003937,
  47.291207 -43.596009 -0.31003937,47.291207 -43.596009 -0.31003937,
  47.027547 -43.648454 0.31003937,47.027547 -43.648454 -0.31003937,
  47.554867 -43.648454 0.31003937,47.291207 -43.596009 0.31003937,
  47.554867 -43.648454 -0.31003937,47.554867 -43.648454 -0.31003937,
  47.291207 -43.596009 0.31003937,47.291207 -43.596009 -0.31003937,
  47.778387 -43.797806 0.31003937,47.554867 -43.648454 0.31003937,
  47.778387 -43.797806 -0.31003937,47.778387 -43.797806 -0.31003937,
  47.554867 -43.648454 0.31003937,47.554867 -43.648454 -0.31003937,
  47.927738 -44.021326 0.31003937,47.778387 -43.797806 0.31003937,
  47.927738 -44.021326 -0.31003937,47.927738 -44.021326 -0.31003937,
  47.778387 -43.797806 0.31003937,47.778387 -43.797806 -0.31003937,
  47.980183 -44.284985 0.31003937,47.927738 -44.021326 0.31003937,
  47.980183 -44.284985 -0.31003937,47.980183 -44.284985 -0.31003937,
  47.927738 -44.021326 0.31003937,47.927738 -44.021326 -0.31003937,
  47.927738 -44.548645 0.31003937,47.980183 -44.284985 0.31003937,
  47.927738 -44.548645 -0.31003937,47.927738 -44.548645 -0.31003937,
  47.980183 -44.284985 0.31003937,47.980183 -44.284985 -0.31003937,
  47.778387 -44.772165 0.31003937,47.927738 -44.548645 0.31003937,
  47.778387 -44.772165 -0.31003937,47.778387 -44.772165 -0.31003937,
  47.927738 -44.548645 0.31003937,47.927738 -44.548645 -0.31003937,
  47.554867 -44.921517 0.31003937,47.778387 -44.772165 0.31003937,
  47.554867 -44.921517 -0.31003937,47.554867 -44.921517 -0.31003937,
  47.778387 -44.772165 0.31003937,47.778387 -44.772165 -0.31003937,
  47.291207 -44.973962 0.31003937,47.554867 -44.921517 0.31003937,
  47.291207 -44.973962 -0.31003937,47.291207 -44.973962 -0.31003937,
  47.554867 -44.921517 0.31003937,47.554867 -44.921517 -0.31003937,
  47.027547 -44.921517 0.31003937,47.291207 -44.973962 0.31003937,
  47.027547 -44.921517 -0.31003937,47.027547 -44.921517 -0.31003937,
  47.291207 -44.973962 0.31003937,47.291207 -44.973962 -0.31003937,
  46.804027 -44.772165 0.31003937,47.027547 -44.921517 0.31003937,
  46.804027 -44.772165 -0.31003937,46.804027 -44.772165 -0.31003937,
  47.027547 -44.921517 0.31003937,47.027547 -44.921517 -0.31003937,
  46.654676 -44.548645 0.31003937,46.804027 -44.772165 0.31003937,
  46.654676 -44.548645 -0.31003937,46.654676 -44.548645 -0.31003937,
  46.804027 -44.772165 0.31003937,46.804027 -44.772165 -0.31003937,
  46.60223 -44.284985 0.31003937,46.654676 -44.548645 0.31003937,
  46.60223 -44.284985 -0.31003937,46.60223 -44.284985 -0.31003937,
  46.654676 -44.548645 0.31003937,46.654676 -44.548645 -0.31003937,
  47.927738 -23.288803 0.31003937,47.980183 -23.025143 0.31003937,
  47.927738 -23.288803 -0.31003937,47.927738 -23.288803 -0.31003937,
  47.980183 -23.025143 0.31003937,47.980183 -23.025143 -0.31003937,
  47.778387 -23.512323 0.31003937,47.927738 -23.288803 0.31003937,
  47.778387 -23.512323 -0.31003937,47.778387 -23.512323 -0.31003937,
  47.927738 -23.288803 0.31003937,47.927738 -23.288803 -0.31003937,
  47.554867 -23.661674 0.31003937,47.778387 -23.512323 0.31003937,
  47.554867 -23.661674 -0.31003937,47.554867 -23.661674 -0.31003937,
  47.778387 -23.512323 0.31003937,47.778387 -23.512323 -0.31003937,
  47.291207 -23.714119 0.31003937,47.554867 -23.661674 0.31003937,
  47.291207 -23.714119 -0.31003937,47.291207 -23.714119 -0.31003937,
  47.554867 -23.661674 0.31003937,47.554867 -23.661674 -0.31003937,
  47.027547 -23.661674 0.31003937,47.291207 -23.714119 0.31003937,
  47.027547 -23.661674 -0.31003937,47.027547 -23.661674 -0.31003937,
  47.291207 -23.714119 0.31003937,47.291207 -23.714119 -0.31003937,
  46.804027 -23.512323 0.31003937,47.027547 -23.661674 0.31003937,
  46.804027 -23.512323 -0.31003937,46.804027 -23.512323 -0.31003937,
  47.027547 -23.661674 0.31003937,47.027547 -23.661674 -0.31003937,
  46.654676 -23.288803 0.31003937,46.804027 -23.512323 0.31003937,
  46.654676 -23.288803 -0.31003937,46.654676 -23.288803 -0.31003937,
  46.804027 -23.512323 0.31003937,46.804027 -23.512323 -0.31003937,
  46.60223 -23.025143 0.31003937,46.654676 -23.288803 0.31003937,
  46.60223 -23.025143 -0.31003937,46.60223 -23.025143 -0.31003937,
  46.654676 -23.288803 0.31003937,46.654676 -23.288803 -0.31003937,
  46.654676 -22.761483 0.31003937,46.60223 -23.025143 0.31003937,
  46.654676 -22.761483 -0.31003937,46.654676 -22.761483 -0.31003937,
  46.60223 -23.025143 0.31003937,46.60223 -23.025143 -0.31003937,
  46.804027 -22.537963 0.31003937,46.654676 -22.761483 0.31003937,
  46.804027 -22.537963 -0.31003937,46.804027 -22.537963 -0.31003937,
  46.654676 -22.761483 0.31003937,46.654676 -22.761483 -0.31003937,
  47.027547 -22.388612 0.31003937,46.804027 -22.537963 0.31003937,
  47.027547 -22.388612 -0.31003937,47.027547 -22.388612 -0.31003937,
  46.804027 -22.537963 0.31003937,46.804027 -22.537963 -0.31003937,
  47.291207 -22.336167 0.31003937,47.027547 -22.388612 0.31003937,
  47.291207 -22.336167 -0.31003937,47.291207 -22.336167 -0.31003937,
  47.027547 -22.388612 0.31003937,47.027547 -22.388612 -0.31003937,
  47.554867 -22.388612 0.31003937,47.291207 -22.336167 0.31003937,
  47.554867 -22.388612 -0.31003937,47.554867 -22.388612 -0.31003937,
  47.291207 -22.336167 0.31003937,47.291207 -22.336167 -0.31003937,
  47.778387 -22.537963 0.31003937,47.554867 -22.388612 0.31003937,
  47.778387 -22.537963 -0.31003937,47.778387 -22.537963 -0.31003937,
  47.554867 -22.388612 0.31003937,47.554867 -22.388612 -0.31003937,
  47.927738 -22.761483 0.31003937,47.778387 -22.537963 0.31003937,
  47.927738 -22.761483 -0.31003937,47.927738 -22.761483 -0.31003937,
  47.778387 -22.537963 0.31003937,47.778387 -22.537963 -0.31003937,
  47.980183 -23.025143 0.31003937,47.927738 -22.761483 0.31003937,
  47.980183 -23.025143 -0.31003937,47.980183 -23.025143 -0.31003937,
  47.927738 -22.761483 0.31003937,47.927738 -22.761483 -0.31003937] }
 coordIndex [
  0,1,2,-1,3,4,5,-1,6,7,8,-1,9,10,11,-1,12,13,14,-1,15,16,17,-1,18,19,20,-1,21,22,23,-1,
  24,25,26,-1,27,28,29,-1,30,31,32,-1,33,34,35,-1,36,37,38,-1,39,40,41,-1,42,43,44,-1,45,46,47,-1,
  48,49,50,-1,51,52,53,-1,54,55,56,-1,57,58,59,-1,60,61,62,-1,63,64,65,-1,66,67,68,-1,69,70,71,-1,
  72,73,74,-1,75,76,77,-1,78,79,80,-1,81,82,83,-1,84,85,86,-1,87,88,89,-1,90,91,92,-1,93,94,95,-1,
  96,97,98,-1,99,100,101,-1,102,103,104,-1,105,106,107,-1,108,109,110,-1,111,112,113,-1,114,115,116,-1,117,118,119,-1,
  120,121,122,-1,123,124,125,-1,126,127,128,-1,129,130,131,-1,132,133,134,-1,135,136,137,-1,138,139,140,-1,141,142,143,-1,
  144,145,146,-1,147,148,149,-1,150,151,152,-1,153,154,155,-1,156,157,158,-1,159,160,161,-1,162,163,164,-1,165,166,167,-1,
  168,169,170,-1,171,172,173,-1,174,175,176,-1,177,178,179,-1,180,181,182,-1,183,184,185,-1,186,187,188,-1,189,190,191,-1,
  192,193,194,-1,195,196,197,-1,198,199,200,-1,201,202,203,-1,204,205,206,-1,207,208,209,-1,210,211,212,-1,213,214,215,-1,
  216,217,218,-1,219,220,221,-1,222,223,224,-1,225,226,227,-1,228,229,230,-1,231,232,233,-1,234,235,236,-1,237,238,239,-1,
  240,241,242,-1,243,244,245,-1,246,247,248,-1,249,250,251,-1,252,253,254,-1,255,256,257,-1,258,259,260,-1,261,262,263,-1,
  264,265,266,-1,267,268,269,-1,270,271,272,-1,273,274,275,-1,276,277,278,-1,279,280,281,-1,282,283,284,-1,285,286,287,-1,
  288,289,290,-1,291,292,293,-1,294,295,296,-1,297,298,299,-1,300,301,302,-1,303,304,305,-1,306,307,308,-1,309,310,311,-1,
  312,313,314,-1,315,316,317,-1,318,319,320,-1,321,322,323,-1,324,325,326,-1,327,328,329,-1,330,331,332,-1,333,334,335,-1,
  336,337,338,-1,339,340,341,-1,342,343,344,-1,345,346,347,-1,348,349,350,-1,351,352,353,-1,354,355,356,-1,357,358,359,-1,
  360,361,362,-1,363,364,365,-1,366,367,368,-1,369,370,371,-1,372,373,374,-1,375,376,377,-1,378,379,380,-1,381,382,383,-1,
  384,385,386,-1,387,388,389,-1,390,391,392,-1,393,394,395,-1,396,397,398,-1,399,400,401,-1,402,403,404,-1,405,406,407,-1,
  408,409,410,-1,411,412,413,-1,414,415,416,-1,417,418,419,-1,420,421,422,-1,423,424,425,-1,426,427,428,-1,429,430,431,-1,
  432,433,434,-1,435,436,437,-1,438,439,440,-1,441,442,443,-1,444,445,446,-1,447,448,449,-1,450,451,452,-1,453,454,455,-1,
  456,457,458,-1,459,460,461,-1,462,463,464,-1,465,466,467,-1,468,469,470,-1,471,472,473,-1,474,475,476,-1,477,478,479,-1,
  480,481,482,-1,483,484,485,-1,486,487,488,-1,489,490,491,-1,492,493,494,-1,495,496,497,-1,498,499,500,-1,501,502,503,-1,
  504,505,506,-1,507,508,509,-1,510,511,512,-1,513,514,515,-1,516,517,518,-1,519,520,521,-1,522,523,524,-1,525,526,527,-1,
  528,529,530,-1,531,532,533,-1,534,535,536,-1,537,538,539,-1,540,541,542,-1,543,544,545,-1,546,547,548,-1,549,550,551,-1,
  552,553,554,-1,555,556,557,-1,558,559,560,-1,561,562,563,-1,564,565,566,-1,567,568,569,-1,570,571,572,-1,573,574,575,-1,
  576,577,578,-1,579,580,581,-1,582,583,584,-1,585,586,587,-1,588,589,590,-1,591,592,593,-1,594,595,596,-1,597,598,599,-1,
  600,601,602,-1,603,604,605,-1,606,607,608,-1,609,610,611,-1,612,613,614,-1,615,616,617,-1,618,619,620,-1,621,622,623,-1,
  624,625,626,-1,627,628,629,-1,630,631,632,-1,633,634,635,-1,636,637,638,-1,639,640,641,-1,642,643,644,-1,645,646,647,-1,
  648,649,650,-1,651,652,653,-1,654,655,656,-1,657,658,659,-1,660,661,662,-1,663,664,665,-1,666,667,668,-1,669,670,671,-1,
  672,673,674,-1,675,676,677,-1,678,679,680,-1,681,682,683,-1,684,685,686,-1,687,688,689,-1,690,691,692,-1,693,694,695,-1,
  696,697,698,-1,699,700,701,-1,702,703,704,-1,705,706,707,-1,708,709,710,-1,711,712,713,-1,714,715,716,-1,717,718,719,-1,
  720,721,722,-1,723,724,725,-1,726,727,728,-1,729,730,731,-1,732,733,734,-1,735,736,737,-1,738,739,740,-1,741,742,743,-1]
  normalPerVertex TRUE
  normal DEF NORM_2 Normal { vector [
  1 0 0,1 0 0,
  1 0 0,1 0 0,
  1 0 0,1 0 0,
  0.99720381 -0.074729878 0,0.99720381 -0.074729878 0,
  0.99720381 -0.074729878 0,0.99720381 -0.074729878 0,
  0.99720381 -0.074729878 0,0.99720381 -0.074729878 0,
  0.9749276 -0.22252228 0,0.9749276 -0.22252228 0,
  0.9749276 -0.22252228 0,0.9749276 -0.22252228 0,
  0.9749276 -0.22252228 0,0.9749276 -0.22252228 0,
  0.93087491 -0.36533806 0,0.93087491 -0.36533806 0,
  0.93087491 -0.36533806 0,0.93087491 -0.36533806 0,
  0.93087491 -0.36533806 0,0.93087491 -0.36533806 0,
  0.86602431 -0.50000189 0,0.86602431 -0.50000189 0,
  0.86602431 -0.50000189 0,0.86602431 -0.50000189 0,
  0.86602431 -0.50000189 0,0.86602431 -0.50000189 0,
  0.78183135 -0.62348997 0,0.78183135 -0.62348997 0,
  0.78183135 -0.62348997 0,0.78183135 -0.62348997 0,
  0.78183135 -0.62348997 0,0.78183135 -0.62348997 0,
  0.68017242 -0.73305216 0,0.68017242 -0.73305216 0,
  0.68017242 -0.73305216 0,0.68017242 -0.73305216 0,
  0.68017242 -0.73305216 0,0.68017242 -0.73305216 0,
  0.56331939 -0.82623923 0,0.56331939 -0.82623923 0,
  0.56331939 -0.82623923 0,0.56331939 -0.82623923 0,
  0.56331939 -0.82623923 0,0.56331939 -0.82623923 0,
  0.43388528 -0.90096813 0,0.43388528 -0.90096813 0,
  0.43388528 -0.90096813 0,0.43388528 -0.90096813 0,
  0.43388528 -0.90096813 0,0.43388528 -0.90096813 0,
  0.29475609 -0.95557252 0,0.29475609 -0.95557252 0,
  0.29475609 -0.95557252 0,0.29475609 -0.95557252 0,
  0.29475609 -0.95557252 0,0.29475609 -0.95557252 0,
  0.149043 -0.98883072 0,0.149043 -0.98883072 0,
  0.149043 -0.98883072 0,0.149043 -0.98883072 0,
  0.149043 -0.98883072 0,0.149043 -0.98883072 0,
  0 -1 0,0 -1 0,
  0 -1 0,0 -1 0,
  0 -1 0,0 -1 0,
  -0.149043 -0.98883072 0,-0.149043 -0.98883072 0,
  -0.149043 -0.98883072 0,-0.149043 -0.98883072 0,
  -0.149043 -0.98883072 0,-0.149043 -0.98883072 0,
  -0.29475609 -0.95557252 0,-0.29475609 -0.95557252 0,
  -0.29475609 -0.95557252 0,-0.29475609 -0.95557252 0,
  -0.29475609 -0.95557252 0,-0.29475609 -0.95557252 0,
  -0.43388528 -0.90096813 0,-0.43388528 -0.90096813 0,
  -0.43388528 -0.90096813 0,-0.43388528 -0.90096813 0,
  -0.43388528 -0.90096813 0,-0.43388528 -0.90096813 0,
  -0.56331939 -0.82623923 0,-0.56331939 -0.82623923 0,
  -0.56331939 -0.82623923 0,-0.56331939 -0.82623923 0,
  -0.56331939 -0.82623923 0,-0.56331939 -0.82623923 0,
  -0.68017242 -0.73305216 0,-0.68017242 -0.73305216 0,
  -0.68017242 -0.73305216 0,-0.68017242 -0.73305216 0,
  -0.68017242 -0.73305216 0,-0.68017242 -0.73305216 0,
  -0.78183135 -0.62348997 0,-0.78183135 -0.62348997 0,
  -0.78183135 -0.62348997 0,-0.78183135 -0.62348997 0,
  -0.78183135 -0.62348997 0,-0.78183135 -0.62348997 0,
  -0.86602431 -0.50000189 0,-0.86602431 -0.50000189 0,
  -0.86602431 -0.50000189 0,-0.86602431 -0.50000189 0,
  -0.86602431 -0.50000189 0,-0.86602431 -0.50000189 0,
  -0.93087491 -0.36533806 0,-0.93087491 -0.36533806 0,
  -0.93087491 -0.36533806 0,-0.93087491 -0.36533806 0,
  -0.93087491 -0.36533806 0,-0.93087491 -0.36533806 0,
  -0.9749276 -0.22252228 0,-0.9749276 -0.22252228 0,
  -0.9749276 -0.22252228 0,-0.9749276 -0.22252228 0,
  -0.9749276 -0.22252228 0,-0.9749276 -0.22252228 0,
  -0.99720381 -0.074729878 0,-0.99720381 -0.074729878 0,
  -0.99720381 -0.074729878 0,-0.99720381 -0.074729878 0,
  -0.99720381 -0.074729878 0,-0.99720381 -0.074729878 0,
  -1 0 0,-1 0 0,
  -1 0 0,-1 0 0,
  -1 0 0,-1 0 0,
  -0.99720381 0.074729878 0,-0.99720381 0.074729878 0,
  -0.99720381 0.074729878 0,-0.99720381 0.074729878 0,
  -0.99720381 0.074729878 0,-0.99720381 0.074729878 0,
  -0.9749276 0.22252228 0,-0.9749276 0.22252228 0,
  -0.9749276 0.22252228 0,-0.9749276 0.22252228 0,
  -0.9749276 0.22252228 0,-0.9749276 0.22252228 0,
  -0.93087491 0.36533806 0,-0.93087491 0.36533806 0,
  -0.93087491 0.36533806 0,-0.93087491 0.36533806 0,
  -0.93087491 0.36533806 0,-0.93087491 0.36533806 0,
  -0.86602431 0.50000189 0,-0.86602431 0.50000189 0,
  -0.86602431 0.50000189 0,-0.86602431 0.50000189 0,
  -0.86602431 0.50000189 0,-0.86602431 0.50000189 0,
  -0.78183135 0.62348997 0,-0.78183135 0.62348997 0,
  -0.78183135 0.62348997 0,-0.78183135 0.62348997 0,
  -0.78183135 0.62348997 0,-0.78183135 0.62348997 0,
  -0.68017242 0.73305216 0,-0.68017242 0.73305216 0,
  -0.68017242 0.73305216 0,-0.68017242 0.73305216 0,
  -0.68017242 0.73305216 0,-0.68017242 0.73305216 0,
  -0.56331939 0.82623923 0,-0.56331939 0.82623923 0,
  -0.56331939 0.82623923 0,-0.56331939 0.82623923 0,
  -0.56331939 0.82623923 0,-0.56331939 0.82623923 0,
  -0.43388528 0.90096813 0,-0.43388528 0.90096813 0,
  -0.43388528 0.90096813 0,-0.43388528 0.90096813 0,
  -0.43388528 0.90096813 0,-0.43388528 0.90096813 0,
  -0.29475609 0.95557252 0,-0.29475609 0.95557252 0,
  -0.29475609 0.95557252 0,-0.29475609 0.95557252 0,
  -0.29475609 0.95557252 0,-0.29475609 0.95557252 0,
  -0.149043 0.98883072 0,-0.149043 0.98883072 0,
  -0.149043 0.98883072 0,-0.149043 0.98883072 0,
  -0.149043 0.98883072 0,-0.149043 0.98883072 0,
  0 1 0,0 1 0,
  0 1 0,0 1 0,
  0 1 0,0 1 0,
  0.149043 0.98883072 0,0.149043 0.98883072 0,
  0.149043 0.98883072 0,0.149043 0.98883072 0,
  0.149043 0.98883072 0,0.149043 0.98883072 0,
  0.29475609 0.95557252 0,0.29475609 0.95557252 0,
  0.29475609 0.95557252 0,0.29475609 0.95557252 0,
  0.29475609 0.95557252 0,0.29475609 0.95557252 0,
  0.43388528 0.90096813 0,0.43388528 0.90096813 0,
  0.43388528 0.90096813 0,0.43388528 0.90096813 0,
  0.43388528 0.90096813 0,0.43388528 0.90096813 0,
  0.56331939 0.82623923 0,0.56331939 0.82623923 0,
  0.56331939 0.82623923 0,0.56331939 0.82623923 0,
  0.56331939 0.82623923 0,0.56331939 0.82623923 0,
  0.68017242 0.73305216 0,0.68017242 0.73305216 0,
  0.68017242 0.73305216 0,0.68017242 0.73305216 0,
  0.68017242 0.73305216 0,0.68017242 0.73305216 0,
  0.78183135 0.62348997 0,0.78183135 0.62348997 0,
  0.78183135 0.62348997 0,0.78183135 0.62348997 0,
  0.78183135 0.62348997 0,0.78183135 0.62348997 0,
  0.86602431 0.50000189 0,0.86602431 0.50000189 0,
  0.86602431 0.50000189 0,0.86602431 0.50000189 0,
  0.86602431 0.50000189 0,0.86602431 0.50000189 0,
  0.93087491 0.36533806 0,0.93087491 0.36533806 0,
  0.93087491 0.36533806 0,0.93087491 0.36533806 0,
  0.93087491 0.36533806 0,0.93087491 0.36533806 0,
  0.9749276 0.22252228 0,0.9749276 0.22252228 0,
  0.9749276 0.22252228 0,0.9749276 0.22252228 0,
  0.9749276 0.22252228 0,0.9749276 0.22252228 0,
  0.99720381 0.074729878 0,0.99720381 0.074729878 0,
  0.99720381 0.074729878 0,0.99720381 0.074729878 0,
  0.99720381 0.074729878 0,0.99720381 0.074729878 0,
  -0.21256582 0.97714675 0,-0.21256582 0.97714675 0,
  -0.21256582 0.97714675 0,-0.21256582 0.97714675 0,
  -0.21256582 0.97714675 0,-0.21256582 0.97714675 0,
  -0.34946421 0.93694971 0,-0.34946421 0.93694971 0,
  -0.34946421 0.93694971 0,-0.34946421 0.93694971 0,
  -0.34946421 0.93694971 0,-0.34946421 0.93694971 0,
  -0.47924861 0.87767919 0,-0.47924861 0.87767919 0,
  -0.47924861 0.87767919 0,-0.47924861 0.87767919 0,
  -0.47924861 0.87767919 0,-0.47924861 0.87767919 0,
  -0.59927925 0.80054005 0,-0.59927925 0.80054005 0,
  -0.59927925 0.80054005 0,-0.59927925 0.80054005 0,
  -0.59927925 0.80054005 0,-0.59927925 0.80054005 0,
  -0.70710678 0.70710678 0,-0.70710678 0.70710678 0,
  -0.70710678 0.70710678 0,-0.70710678 0.70710678 0,
  -0.70710678 0.70710678 0,-0.70710678 0.70710678 0,
  -0.80054005 0.59927925 0,-0.80054005 0.59927925 0,
  -0.80054005 0.59927925 0,-0.80054005 0.59927925 0,
  -0.80054005 0.59927925 0,-0.80054005 0.59927925 0,
  -0.87767919 0.47924861 0,-0.87767919 0.47924861 0,
  -0.87767919 0.47924861 0,-0.87767919 0.47924861 0,
  -0.87767919 0.47924861 0,-0.87767919 0.47924861 0,
  -0.93694971 0.34946421 0,-0.93694971 0.34946421 0,
  -0.93694971 0.34946421 0,-0.93694971 0.34946421 0,
  -0.93694971 0.34946421 0,-0.93694971 0.34946421 0,
  -0.97714675 0.21256582 0,-0.97714675 0.21256582 0,
  -0.97714675 0.21256582 0,-0.97714675 0.21256582 0,
  -0.97714675 0.21256582 0,-0.97714675 0.21256582 0,
  -0.99745215 0.071338697 0,-0.99745215 0.071338697 0,
  -0.99745215 0.071338697 0,-0.99745215 0.071338697 0,
  -0.99745215 0.071338697 0,-0.99745215 0.071338697 0,
  -1 0 0,-1 0 0,
  -1 0 0,-1 0 0,
  -1 0 0,-1 0 0,
  -0.99745215 -0.071338697 0,-0.99745215 -0.071338697 0,
  -0.99745215 -0.071338697 0,-0.99745215 -0.071338697 0,
  -0.99745215 -0.071338697 0,-0.99745215 -0.071338697 0,
  -0.97714675 -0.21256582 0,-0.97714675 -0.21256582 0,
  -0.97714675 -0.21256582 0,-0.97714675 -0.21256582 0,
  -0.97714675 -0.21256582 0,-0.97714675 -0.21256582 0,
  -0.93694971 -0.34946421 0,-0.93694971 -0.34946421 0,
  -0.93694971 -0.34946421 0,-0.93694971 -0.34946421 0,
  -0.93694971 -0.34946421 0,-0.93694971 -0.34946421 0,
  -0.87767919 -0.47924861 0,-0.87767919 -0.47924861 0,
  -0.87767919 -0.47924861 0,-0.87767919 -0.47924861 0,
  -0.87767919 -0.47924861 0,-0.87767919 -0.47924861 0,
  -0.80054005 -0.59927925 0,-0.80054005 -0.59927925 0,
  -0.80054005 -0.59927925 0,-0.80054005 -0.59927925 0,
  -0.80054005 -0.59927925 0,-0.80054005 -0.59927925 0,
  -0.70710678 -0.70710678 0,-0.70710678 -0.70710678 0,
  -0.70710678 -0.70710678 0,-0.70710678 -0.70710678 0,
  -0.70710678 -0.70710678 0,-0.70710678 -0.70710678 0,
  -0.59927925 -0.80054005 0,-0.59927925 -0.80054005 0,
  -0.59927925 -0.80054005 0,-0.59927925 -0.80054005 0,
  -0.59927925 -0.80054005 0,-0.59927925 -0.80054005 0,
  -0.47924861 -0.87767919 0,-0.47924861 -0.87767919 0,
  -0.47924861 -0.87767919 0,-0.47924861 -0.87767919 0,
  -0.47924861 -0.87767919 0,-0.47924861 -0.87767919 0,
  -0.34946421 -0.93694971 0,-0.34946421 -0.93694971 0,
  -0.34946421 -0.93694971 0,-0.34946421 -0.93694971 0,
  -0.34946421 -0.93694971 0,-0.34946421 -0.93694971 0,
  -0.21256582 -0.97714675 0,-0.21256582 -0.97714675 0,
  -0.21256582 -0.97714675 0,-0.21256582 -0.97714675 0,
  -0.21256582 -0.97714675 0,-0.21256582 -0.97714675 0,
  -0.071338697 -0.99745215 0,-0.071338697 -0.99745215 0,
  -0.071338697 -0.99745215 0,-0.071338697 -0.99745215 0,
  -0.071338697 -0.99745215 0,-0.071338697 -0.99745215 0,
  0 -1 0,0 -1 0,
  0 -1 0,0 -1 0,
  0 -1 0,0 -1 0,
  0.071338697 -0.99745215 0,0.071338697 -0.99745215 0,
  0.071338697 -0.99745215 0,0.071338697 -0.99745215 0,
  0.071338697 -0.99745215 0,0.071338697 -0.99745215 0,
  0.21256582 -0.97714675 0,0.21256582 -0.97714675 0,
  0.21256582 -0.97714675 0,0.21256582 -0.97714675 0,
  0.21256582 -0.97714675 0,0.21256582 -0.97714675 0,
  0.34946421 -0.93694971 0,0.34946421 -0.93694971 0,
  0.34946421 -0.93694971 0,0.34946421 -0.93694971 0,
  0.34946421 -0.93694971 0,0.34946421 -0.93694971 0,
  0.47924861 -0.87767919 0,0.47924861 -0.87767919 0,
  0.47924861 -0.87767919 0,0.47924861 -0.87767919 0,
  0.47924861 -0.87767919 0,0.47924861 -0.87767919 0,
  0.59927925 -0.80054005 0,0.59927925 -0.80054005 0,
  0.59927925 -0.80054005 0,0.59927925 -0.80054005 0,
  0.59927925 -0.80054005 0,0.59927925 -0.80054005 0,
  0.70710678 -0.70710678 0,0.70710678 -0.70710678 0,
  0.70710678 -0.70710678 0,0.70710678 -0.70710678 0,
  0.70710678 -0.70710678 0,0.70710678 -0.70710678 0,
  0.80054005 -0.59927925 0,0.80054005 -0.59927925 0,
  0.80054005 -0.59927925 0,0.80054005 -0.59927925 0,
  0.80054005 -0.59927925 0,0.80054005 -0.59927925 0,
  0.87767919 -0.47924861 0,0.87767919 -0.47924861 0,
  0.87767919 -0.47924861 0,0.87767919 -0.47924861 0,
  0.87767919 -0.47924861 0,0.87767919 -0.47924861 0,
  0.93694971 -0.34946421 0,0.93694971 -0.34946421 0,
  0.93694971 -0.34946421 0,0.93694971 -0.34946421 0,
  0.93694971 -0.34946421 0,0.93694971 -0.34946421 0,
  0.97714675 -0.21256582 0,0.97714675 -0.21256582 0,
  0.97714675 -0.21256582 0,0.97714675 -0.21256582 0,
  0.97714675 -0.21256582 0,0.97714675 -0.21256582 0,
  0.99745215 -0.071338697 0,0.99745215 -0.071338697 0,
  0.99745215 -0.071338697 0,0.99745215 -0.071338697 0,
  0.99745215 -0.071338697 0,0.99745215 -0.071338697 0,
  1 0 0,1 0 0,
  1 0 0,1 0 0,
  1 0 0,1 0 0,
  0.99745215 0.071338697 0,0.99745215 0.071338697 0,
  0.99745215 0.071338697 0,0.99745215 0.071338697 0,
  0.99745215 0.071338697 0,0.99745215 0.071338697 0,
  0.97714675 0.21256582 0,0.97714675 0.21256582 0,
  0.97714675 0.21256582 0,0.97714675 0.21256582 0,
  0.97714675 0.21256582 0,0.97714675 0.21256582 0,
  0.93694971 0.34946421 0,0.93694971 0.34946421 0,
  0.93694971 0.34946421 0,0.93694971 0.34946421 0,
  0.93694971 0.34946421 0,0.93694971 0.34946421 0,
  0.87767919 0.47924861 0,0.87767919 0.47924861 0,
  0.87767919 0.47924861 0,0.87767919 0.47924861 0,
  0.87767919 0.47924861 0,0.87767919 0.47924861 0,
  0.80054005 0.59927925 0,0.80054005 0.59927925 0,
  0.80054005 0.59927925 0,0.80054005 0.59927925 0,
  0.80054005 0.59927925 0,0.80054005 0.59927925 0,
  0.70710678 0.70710678 0,0.70710678 0.70710678 0,
  0.70710678 0.70710678 0,0.70710678 0.70710678 0,
  0.70710678 0.70710678 0,0.70710678 0.70710678 0,
  0.59927925 0.80054005 0,0.59927925 0.80054005 0,
  0.59927925 0.80054005 0,0.59927925 0.80054005 0,
  0.59927925 0.80054005 0,0.59927925 0.80054005 0,
  0.47924861 0.87767919 0,0.47924861 0.87767919 0,
  0.47924861 0.87767919 0,0.47924861 0.87767919 0,
  0.47924861 0.87767919 0,0.47924861 0.87767919 0,
  0.34946421 0.93694971 0,0.34946421 0.93694971 0,
  0.34946421 0.93694971 0,0.34946421 0.93694971 0,
  0.34946421 0.93694971 0,0.34946421 0.93694971 0,
  0.21256582 0.97714675 0,0.21256582 0.97714675 0,
  0.21256582 0.97714675 0,0.21256582 0.97714675 0,
  0.21256582 0.97714675 0,0.21256582 0.97714675 0,
  0.071338697 0.99745215 0,0.071338697 0.99745215 0,
  0.071338697 0.99745215 0,0.071338697 0.99745215 0,
  0.071338697 0.99745215 0,0.071338697 0.99745215 0,
  0 1 0,0 1 0,
  0 1 0,0 1 0,
  0 1 0,0 1 0,
  -0.071338697 0.99745215 0,-0.071338697 0.99745215 0,
  -0.071338697 0.99745215 0,-0.071338697 0.99745215 0,
  -0.071338697 0.99745215 0,-0.071338697 0.99745215 0,
  0.98078528 -0.19509032 0,0.98078528 -0.19509032 0,
  0.98078528 -0.19509032 0,0.98078528 -0.19509032 0,
  0.98078528 -0.19509032 0,0.98078528 -0.19509032 0,
  0.83146961 -0.55557023 0,0.83146961 -0.55557023 0,
  0.83146961 -0.55557023 0,0.83146961 -0.55557023 0,
  0.83146961 -0.55557023 0,0.83146961 -0.55557023 0,
  0.55557023 -0.83146961 0,0.55557023 -0.83146961 0,
  0.55557023 -0.83146961 0,0.55557023 -0.83146961 0,
  0.55557023 -0.83146961 0,0.55557023 -0.83146961 0,
  0.19509032 -0.98078528 0,0.19509032 -0.98078528 0,
  0.19509032 -0.98078528 0,0.19509032 -0.98078528 0,
  0.19509032 -0.98078528 0,0.19509032 -0.98078528 0,
  -0.19509032 -0.98078528 0,-0.19509032 -0.98078528 0,
  -0.19509032 -0.98078528 0,-0.19509032 -0.98078528 0,
  -0.19509032 -0.98078528 0,-0.19509032 -0.98078528 0,
  -0.55557023 -0.83146961 0,-0.55557023 -0.83146961 0,
  -0.55557023 -0.83146961 0,-0.55557023 -0.83146961 0,
  -0.55557023 -0.83146961 0,-0.55557023 -0.83146961 0,
  -0.83146961 -0.55557023 0,-0.83146961 -0.55557023 0,
  -0.83146961 -0.55557023 0,-0.83146961 -0.55557023 0,
  -0.83146961 -0.55557023 0,-0.83146961 -0.55557023 0,
  -0.98078528 -0.19509032 0,-0.98078528 -0.19509032 0,
  -0.98078528 -0.19509032 0,-0.98078528 -0.19509032 0,
  -0.98078528 -0.19509032 0,-0.98078528 -0.19509032 0,
  -0.98078528 0.19509032 0,-0.98078528 0.19509032 0,
  -0.98078528 0.19509032 0,-0.98078528 0.19509032 0,
  -0.98078528 0.19509032 0,-0.98078528 0.19509032 0,
  -0.83146961 0.55557023 0,-0.83146961 0.55557023 0,
  -0.83146961 0.55557023 0,-0.83146961 0.55557023 0,
  -0.83146961 0.55557023 0,-0.83146961 0.55557023 0,
  -0.55557023 0.83146961 0,-0.55557023 0.83146961 0,
  -0.55557023 0.83146961 0,-0.55557023 0.83146961 0,
  -0.55557023 0.83146961 0,-0.55557023 0.83146961 0,
  -0.19509032 0.98078528 0,-0.19509032 0.98078528 0,
  -0.19509032 0.98078528 0,-0.19509032 0.98078528 0,
  -0.19509032 0.98078528 0,-0.19509032 0.98078528 0,
  0.19509032 0.98078528 0,0.19509032 0.98078528 0,
  0.19509032 0.98078528 0,0.19509032 0.98078528 0,
  0.19509032 0.98078528 0,0.19509032 0.98078528 0,
  0.55557023 0.83146961 0,0.55557023 0.83146961 0,
  0.55557023 0.83146961 0,0.55557023 0.83146961 0,
  0.55557023 0.83146961 0,0.55557023 0.83146961 0,
  0.83146961 0.55557023 0,0.83146961 0.55557023 0,
  0.83146961 0.55557023 0,0.83146961 0.55557023 0,
  0.83146961 0.55557023 0,0.83146961 0.55557023 0,
  0.98078528 0.19509032 0,0.98078528 0.19509032 0,
  0.98078528 0.19509032 0,0.98078528 0.19509032 0,
  0.98078528 0.19509032 0,0.98078528 0.19509032 0,
  -0.98078528 0.19509032 0,-0.98078528 0.19509032 0,
  -0.98078528 0.19509032 0,-0.98078528 0.19509032 0,
  -0.98078528 0.19509032 0,-0.98078528 0.19509032 0,
  -0.83146961 0.55557023 0,-0.83146961 0.55557023 0,
  -0.83146961 0.55557023 0,-0.83146961 0.55557023 0,
  -0.83146961 0.55557023 0,-0.83146961 0.55557023 0,
  -0.55557023 0.83146961 0,-0.55557023 0.83146961 0,
  -0.55557023 0.83146961 0,-0.55557023 0.83146961 0,
  -0.55557023 0.83146961 0,-0.55557023 0.83146961 0,
  -0.19509032 0.98078528 0,-0.19509032 0.98078528 0,
  -0.19509032 0.98078528 0,-0.19509032 0.98078528 0,
  -0.19509032 0.98078528 0,-0.19509032 0.98078528 0,
  0.19509032 0.98078528 0,0.19509032 0.98078528 0,
  0.19509032 0.98078528 0,0.19509032 0.98078528 0,
  0.19509032 0.98078528 0,0.19509032 0.98078528 0,
  0.55557023 0.83146961 0,0.55557023 0.83146961 0,
  0.55557023 0.83146961 0,0.55557023 0.83146961 0,
  0.55557023 0.83146961 0,0.55557023 0.83146961 0,
  0.83146961 0.55557023 0,0.83146961 0.55557023 0,
  0.83146961 0.55557023 0,0.83146961 0.55557023 0,
  0.83146961 0.55557023 0,0.83146961 0.55557023 0,
  0.98078528 0.19509032 0,0.98078528 0.19509032 0,
  0.98078528 0.19509032 0,0.98078528 0.19509032 0,
  0.98078528 0.19509032 0,0.98078528 0.19509032 0,
  0.98078528 -0.19509032 0,0.98078528 -0.19509032 0,
  0.98078528 -0.19509032 0,0.98078528 -0.19509032 0,
  0.98078528 -0.19509032 0,0.98078528 -0.19509032 0,
  0.83146961 -0.55557023 0,0.83146961 -0.55557023 0,
  0.83146961 -0.55557023 0,0.83146961 -0.55557023 0,
  0.83146961 -0.55557023 0,0.83146961 -0.55557023 0,
  0.55557023 -0.83146961 0,0.55557023 -0.83146961 0,
  0.55557023 -0.83146961 0,0.55557023 -0.83146961 0,
  0.55557023 -0.83146961 0,0.55557023 -0.83146961 0,
  0.19509032 -0.98078528 0,0.19509032 -0.98078528 0,
  0.19509032 -0.98078528 0,0.19509032 -0.98078528 0,
  0.19509032 -0.98078528 0,0.19509032 -0.98078528 0,
  -0.19509032 -0.98078528 0,-0.19509032 -0.98078528 0,
  -0.19509032 -0.98078528 0,-0.19509032 -0.98078528 0,
  -0.19509032 -0.98078528 0,-0.19509032 -0.98078528 0,
  -0.55557023 -0.83146961 0,-0.55557023 -0.83146961 0,
  -0.55557023 -0.83146961 0,-0.55557023 -0.83146961 0,
  -0.55557023 -0.83146961 0,-0.55557023 -0.83146961 0,
  -0.83146961 -0.55557023 0,-0.83146961 -0.55557023 0,
  -0.83146961 -0.55557023 0,-0.83146961 -0.55557023 0,
  -0.83146961 -0.55557023 0,-0.83146961 -0.55557023 0,
  -0.98078528 -0.19509032 0,-0.98078528 -0.19509032 0,
  -0.98078528 -0.19509032 0,-0.98078528 -0.19509032 0,
  -0.98078528 -0.19509032 0,-0.98078528 -0.19509032 0] }
}
}
] }
DEF TXFM_3 Transform {
  center 0 0 0
  rotation 0 0 1 0
  scale 1 1 1
  scaleOrientation 0 0 1 0
  translation 0 0 0
 children [
DEF SHAPE_3 Shape {
 appearance DEF APP_2 Appearance {
  material Material {
   ambientIntensity 1
   diffuseColor 0.079999998 0.2 0.14
   emissiveColor 0 0 0
   shininess 0.30000001
   specularColor 0.35600001 0.44 0.398
   transparency 0.17
} }
 geometry DEF FACE_3 IndexedFaceSet {
  coord DEF COORD_3 Coordinate { point [
  48.103594 -45.631043 0.31988189,48.208856 -45.591782 0.31988189,
  48.307459 -45.537941 0.31988189,48.397396 -45.470615 0.31988189,
  48.476836 -45.391175 0.31988189,48.544162 -45.301238 0.31988189,
  48.598004 -45.202635 0.31988189,48.637264 -45.097373 0.31988189,
  48.661145 -44.987596 0.31988189,48.669159 -44.875537 0.31988189,
  48.669159 -22.434592 0.31988189,48.661145 -22.322533 0.31988189,
  48.637264 -22.212755 0.31988189,48.598004 -22.107493 0.31988189,
  48.544162 -22.00889 0.31988189,48.476836 -21.918954 0.31988189,
  48.397396 -21.839513 0.31988189,48.307459 -21.772187 0.31988189,
  48.208856 -21.718346 0.31988189,48.103594 -21.679085 0.31988189,
  47.993817 -21.655205 0.31988189,47.881758 -21.64719 0.31988189,
  46.700656 -21.64719 0.31988189,46.588596 -21.655205 0.31988189,
  46.478819 -21.679085 0.31988189,46.373557 -21.718346 0.31988189,
  46.274954 -21.772187 0.31988189,46.185017 -21.839513 0.31988189,
  46.105577 -21.918954 0.31988189,46.038251 -22.00889 0.31988189,
  45.98441 -22.107493 0.31988189,45.945149 -22.212755 0.31988189,
  45.921269 -22.322533 0.31988189,45.913254 -22.434592 0.31988189,
  45.913254 -23.025143 0.31988189,45.913254 -42.218056 0.31988189,
  45.913254 -44.284985 0.31988189,45.913254 -44.875537 0.31988189,
  45.921269 -44.987596 0.31988189,45.945149 -45.097373 0.31988189,
  45.98441 -45.202635 0.31988189,46.038251 -45.301238 0.31988189,
  46.105577 -45.391175 0.31988189,46.185017 -45.470615 0.31988189,
  46.274954 -45.537941 0.31988189,46.373557 -45.591782 0.31988189,
  46.478819 -45.631043 0.31988189,46.588596 -45.654924 0.31988189,
  46.700656 -45.662938 0.31988189,47.881758 -45.662938 0.31988189,
  47.993817 -45.654924 0.31988189,46.590071 -23.130822 0.31988189,
  46.582152 -23.025143 0.31988189,46.590071 -22.919464 0.31988189,
  46.613653 -22.816145 0.31988189,46.65237 -22.717495 0.31988189,
  46.705358 -22.625718 0.31988189,46.771433 -22.542863 0.31988189,
  46.849118 -22.470781 0.31988189,46.936679 -22.411083 0.31988189,
  47.03216 -22.365102 0.31988189,47.133427 -22.333865 0.31988189,
  47.238219 -22.31807 0.31988189,47.344194 -22.31807 0.31988189,
  47.448986 -22.333865 0.31988189,47.550254 -22.365102 0.31988189,
  47.645734 -22.411083 0.31988189,47.733295 -22.470781 0.31988189,
  47.810981 -22.542863 0.31988189,47.877056 -22.625718 0.31988189,
  47.930043 -22.717495 0.31988189,47.968761 -22.816145 0.31988189,
  47.992342 -22.919464 0.31988189,48.000262 -23.025143 0.31988189,
  47.992342 -23.130822 0.31988189,47.968761 -23.234141 0.31988189,
  47.930043 -23.332791 0.31988189,47.877056 -23.424568 0.31988189,
  47.810981 -23.507423 0.31988189,47.733295 -23.579504 0.31988189,
  47.645734 -23.639203 0.31988189,47.550254 -23.685184 0.31988189,
  47.448986 -23.71642 0.31988189,47.344194 -23.732215 0.31988189,
  47.238219 -23.732215 0.31988189,47.133427 -23.71642 0.31988189,
  47.03216 -23.685184 0.31988189,46.936679 -23.639203 0.31988189,
  46.849118 -23.579504 0.31988189,46.771433 -23.507423 0.31988189,
  46.705358 -23.424568 0.31988189,46.65237 -23.332791 0.31988189,
  46.613653 -23.234141 0.31988189,47.992342 -44.179306 0.31988189,
  48.000262 -44.284985 0.31988189,47.992342 -44.390665 0.31988189,
  47.968761 -44.493983 0.31988189,47.930043 -44.592633 0.31988189,
  47.877056 -44.68441 0.31988189,47.810981 -44.767265 0.31988189,
  47.733295 -44.839347 0.31988189,47.645734 -44.899045 0.31988189,
  47.550254 -44.945026 0.31988189,47.448986 -44.976263 0.31988189,
  47.344194 -44.992058 0.31988189,47.238219 -44.992058 0.31988189,
  47.133427 -44.976263 0.31988189,47.03216 -44.945026 0.31988189,
  46.936679 -44.899045 0.31988189,46.849118 -44.839347 0.31988189,
  46.771433 -44.767265 0.31988189,46.705358 -44.68441 0.31988189,
  46.65237 -44.592633 0.31988189,46.613653 -44.493983 0.31988189,
  46.590071 -44.390665 0.31988189,46.582152 -44.284985 0.31988189,
  46.590071 -44.179306 0.31988189,46.613653 -44.075988 0.31988189,
  46.65237 -43.977338 0.31988189,46.705358 -43.885561 0.31988189,
  46.771433 -43.802706 0.31988189,46.849118 -43.730624 0.31988189,
  46.936679 -43.670926 0.31988189,47.03216 -43.624944 0.31988189,
  47.133427 -43.593708 0.31988189,47.238219 -43.577913 0.31988189,
  47.344194 -43.577913 0.31988189,47.448986 -43.593708 0.31988189,
  47.550254 -43.624944 0.31988189,47.645734 -43.670926 0.31988189,
  47.733295 -43.730624 0.31988189,47.810981 -43.802706 0.31988189,
  47.877056 -43.885561 0.31988189,47.930043 -43.977338 0.31988189,
  47.968761 -44.075988 0.31988189,47.980183 -25.092072 0.31988189,
  47.980183 -42.218056 0.31988189,47.972488 -42.320743 0.31988189,
  47.949574 -42.421136 0.31988189,47.911953 -42.516992 0.31988189,
  47.860466 -42.60617 0.31988189,47.796262 -42.686679 0.31988189,
  47.720776 -42.75672 0.31988189,47.635695 -42.814727 0.31988189,
  47.542918 -42.859406 0.31988189,47.444519 -42.889759 0.31988189,
  47.342694 -42.905106 0.31988189,47.239719 -42.905106 0.31988189,
  47.137895 -42.889759 0.31988189,47.039495 -42.859406 0.31988189,
  46.946719 -42.814727 0.31988189,46.861637 -42.75672 0.31988189,
  46.786151 -42.686679 0.31988189,46.721948 -42.60617 0.31988189,
  46.67046 -42.516992 0.31988189,46.63284 -42.421136 0.31988189,
  46.609926 -42.320743 0.31988189,46.60223 -42.218056 0.31988189,
  46.60223 -25.092072 0.31988189,46.609926 -24.989385 0.31988189,
  46.63284 -24.888993 0.31988189,46.67046 -24.793136 0.31988189,
  46.721948 -24.703958 0.31988189,46.786151 -24.623449 0.31988189,
  46.861637 -24.553409 0.31988189,46.946719 -24.495401 0.31988189,
  47.039495 -24.450722 0.31988189,47.137895 -24.42037 0.31988189,
  47.239719 -24.405022 0.31988189,47.342694 -24.405022 0.31988189,
  47.444519 -24.42037 0.31988189,47.542918 -24.450722 0.31988189,
  47.635695 -24.495401 0.31988189,47.720776 -24.553409 0.31988189,
  47.796262 -24.623449 0.31988189,47.860466 -24.703958 0.31988189,
  47.911953 -24.793136 0.31988189,47.949574 -24.888993 0.31988189,
  47.972488 -24.989385 0.31988189] }
 coordIndex [
  135,93,74,-1,74,93,94,-1,74,94,73,-1,73,94,0,-1,73,0,19,-1,19,0,1,-1,19,1,18,-1,18,1,2,-1,
  18,2,17,-1,17,2,3,-1,17,3,16,-1,16,3,4,-1,16,4,15,-1,15,4,5,-1,15,5,14,-1,14,5,6,-1,
  14,6,13,-1,13,6,7,-1,13,7,12,-1,12,7,8,-1,12,8,11,-1,11,8,9,-1,11,9,10,-1,168,169,83,-1,
  83,169,170,-1,83,170,82,-1,82,170,171,-1,82,171,81,-1,81,171,172,-1,81,172,80,-1,80,172,173,-1,80,173,79,-1,
  79,173,174,-1,79,174,78,-1,78,174,175,-1,78,175,77,-1,77,175,176,-1,77,176,76,-1,76,176,177,-1,76,177,75,-1,
  75,177,178,-1,75,178,74,-1,74,178,135,-1,158,159,92,-1,92,159,160,-1,92,160,91,-1,91,160,161,-1,91,161,90,-1,
  90,161,162,-1,90,162,89,-1,89,162,163,-1,89,163,88,-1,88,163,164,-1,88,164,87,-1,87,164,165,-1,87,165,86,-1,
  86,165,166,-1,86,166,85,-1,85,166,167,-1,85,167,84,-1,84,167,168,-1,84,168,83,-1,33,38,32,-1,32,38,39,-1,
  32,39,31,-1,31,39,40,-1,31,40,30,-1,30,40,41,-1,30,41,29,-1,29,41,42,-1,29,42,28,-1,28,42,43,-1,
  28,43,27,-1,27,43,44,-1,27,44,26,-1,26,44,45,-1,26,45,25,-1,25,45,46,-1,25,46,24,-1,24,46,115,-1,
  24,115,52,-1,52,115,116,-1,52,116,51,-1,51,116,157,-1,51,157,158,-1,20,21,70,-1,20,70,71,-1,20,71,72,-1,
  20,72,73,-1,20,73,19,-1,21,22,58,-1,21,58,59,-1,21,59,60,-1,21,60,61,-1,21,61,62,-1,21,62,63,-1,
  21,63,64,-1,21,64,65,-1,21,65,66,-1,21,66,67,-1,21,67,68,-1,21,68,69,-1,21,69,70,-1,22,23,53,-1,
  22,53,54,-1,22,54,55,-1,22,55,56,-1,22,56,57,-1,22,57,58,-1,23,24,52,-1,23,52,53,-1,50,0,94,-1,
  50,94,95,-1,50,95,96,-1,50,96,97,-1,50,97,49,-1,49,97,98,-1,49,98,99,-1,49,99,100,-1,49,100,101,-1,
  49,101,102,-1,49,102,103,-1,49,103,104,-1,49,104,105,-1,49,105,106,-1,49,106,107,-1,49,107,108,-1,49,108,109,-1,
  49,109,48,-1,48,109,110,-1,48,110,111,-1,48,111,112,-1,48,112,113,-1,48,113,114,-1,48,114,47,-1,115,46,47,-1,
  115,47,114,-1,38,33,34,-1,38,34,35,-1,38,35,36,-1,38,36,37,-1,135,136,93,-1,93,136,137,-1,93,137,134,-1,
  134,137,138,-1,134,138,133,-1,133,138,139,-1,133,139,132,-1,132,139,140,-1,132,140,131,-1,131,140,141,-1,131,141,130,-1,
  130,141,142,-1,130,142,129,-1,129,142,143,-1,129,143,128,-1,128,143,144,-1,128,144,127,-1,127,144,145,-1,127,145,126,-1,
  126,145,146,-1,126,146,147,-1,126,147,125,-1,125,147,148,-1,125,148,124,-1,124,148,149,-1,124,149,123,-1,123,149,150,-1,
  123,150,122,-1,122,150,151,-1,122,151,121,-1,121,151,152,-1,121,152,120,-1,120,152,153,-1,120,153,119,-1,119,153,154,-1,
  119,154,118,-1,118,154,155,-1,118,155,117,-1,117,155,156,-1,117,156,157,-1,157,116,117,-1,51,158,92,-1]
  normalPerVertex TRUE
  normal DEF NORM_3 Normal { vector [
  0 0 1,0 0 1,
  0 0 1,0 0 1,
  0 0 1,0 0 1,
  0 0 1,0 0 1,
  0 0 1,0 0 1,
  0 0 1,0 0 1,
  0 0 1,0 0 1,
  0 0 1,0 0 1,
  0 0 1,0 0 1,
  0 0 1,0 0 1,
  0 0 1,0 0 1,
  0 0 1,0 0 1,
  0 0 1,0 0 1,
  0 0 1,0 0 1,
  0 0 1,0 0 1,
  0 0 1,0 0 1,
  0 0 1,0 0 1,
  0 0 1,0 0 1,
  0 0 1,0 0 1,
  0 0 1,0 0 1,
  0 0 1,0 0 1,
  0 0 1,0 0 1,
  0 0 1,0 0 1,
  0 0 1,0 0 1,
  0 0 1,0 0 1,
  0 0 1,0 0 1,
  0 0 1,0 0 1,
  0 0 1,0 0 1,
  0 0 1,0 0 1,
  0 0 1,0 0 1,
  0 0 1,0 0 1,
  0 0 1,0 0 1,
  0 0 1,0 0 1,
  0 0 1,0 0 1,
  0 0 1,0 0 1,
  0 0 1,0 0 1,
  0 0 1,0 0 1,
  0 0 1,0 0 1,
  0 0 1,0 0 1,
  0 0 1,0 0 1,
  0 0 1,0 0 1,
  0 0 1,0 0 1,
  0 0 1,0 0 1,
  0 0 1,0 0 1,
  0 0 1,0 0 1,
  0 0 1,0 0 1,
  0 0 1,0 0 1,
  0 0 1,0 0 1,
  0 0 1,0 0 1,
  0 0 1,0 0 1,
  0 0 1,0 0 1,
  0 0 1,0 0 1,
  0 0 1,0 0 1,
  0 0 1,0 0 1,
  0 0 1,0 0 1,
  0 0 1,0 0 1,
  0 0 1,0 0 1,
  0 0 1,0 0 1,
  0 0 1,0 0 1,
  0 0 1,0 0 1,
  0 0 1,0 0 1,
  0 0 1,0 0 1,
  0 0 1,0 0 1,
  0 0 1,0 0 1,
  0 0 1,0 0 1,
  0 0 1,0 0 1,
  0 0 1,0 0 1,
  0 0 1,0 0 1,
  0 0 1,0 0 1,
  0 0 1,0 0 1,
  0 0 1,0 0 1,
  0 0 1,0 0 1,
  0 0 1,0 0 1,
  0 0 1,0 0 1,
  0 0 1,0 0 1,
  0 0 1,0 0 1,
  0 0 1,0 0 1,
  0 0 1,0 0 1,
  0 0 1,0 0 1,
  0 0 1,0 0 1,
  0 0 1,0 0 1,
  0 0 1,0 0 1,
  0 0 1,0 0 1,
  0 0 1,0 0 1,
  0 0 1,0 0 1,
  0 0 1,0 0 1,
  0 0 1,0 0 1,
  0 0 1,0 0 1,
  0 0 1,0 0 1,
  0 0 1] }
}
}
] }
DEF TXFM_4 Transform {
  center 0 0 0
  rotation 0 0 1 0
  scale 1 1 1
  scaleOrientation 0 0 1 0
  translation 0 0 0
 children [
DEF SHAPE_4 Shape {
 appearance DEF APP_3 Appearance {
  material Material {
   ambientIntensity 1
   diffuseColor 0.079999998 0.2 0.14
   emissiveColor 0 0 0
   shininess 0.30000001
   specularColor 0.35600001 0.44 0.398
   transparency 0.17
} }
 geometry DEF FACE_4 IndexedFaceSet {
  coord DEF COORD_4 Coordinate { point [
  48.103594 -45.631043 -0.31988189,48.208856 -45.591782 -0.31988189,
  48.307459 -45.537941 -0.31988189,48.397396 -45.470615 -0.31988189,
  48.476836 -45.391175 -0.31988189,48.544162 -45.301238 -0.31988189,
  48.598004 -45.202635 -0.31988189,48.637264 -45.097373 -0.31988189,
  48.661145 -44.987596 -0.31988189,48.669159 -44.875537 -0.31988189,
  48.669159 -22.434592 -0.31988189,48.661145 -22.322533 -0.31988189,
  48.637264 -22.212755 -0.31988189,48.598004 -22.107493 -0.31988189,
  48.544162 -22.00889 -0.31988189,48.476836 -21.918954 -0.31988189,
  48.397396 -21.839513 -0.31988189,48.307459 -21.772187 -0.31988189,
  48.208856 -21.718346 -0.31988189,48.103594 -21.679085 -0.31988189,
  47.993817 -21.655205 -0.31988189,47.881758 -21.64719 -0.31988189,
  46.700656 -21.64719 -0.31988189,46.588596 -21.655205 -0.31988189,
  46.478819 -21.679085 -0.31988189,46.373557 -21.718346 -0.31988189,
  46.274954 -21.772187 -0.31988189,46.185017 -21.839513 -0.31988189,
  46.105577 -21.918954 -0.31988189,46.038251 -22.00889 -0.31988189,
  45.98441 -22.107493 -0.31988189,45.945149 -22.212755 -0.31988189,
  45.921269 -22.322533 -0.31988189,45.913254 -22.434592 -0.31988189,
  45.913254 -23.025143 -0.31988189,45.913254 -42.218056 -0.31988189,
  45.913254 -44.284985 -0.31988189,45.913254 -44.875537 -0.31988189,
  45.921269 -44.987596 -0.31988189,45.945149 -45.097373 -0.31988189,
  45.98441 -45.202635 -0.31988189,46.038251 -45.301238 -0.31988189,
  46.105577 -45.391175 -0.31988189,46.185017 -45.470615 -0.31988189,
  46.274954 -45.537941 -0.31988189,46.373557 -45.591782 -0.31988189,
  46.478819 -45.631043 -0.31988189,46.588596 -45.654924 -0.31988189,
  46.700656 -45.662938 -0.31988189,47.881758 -45.662938 -0.31988189,
  47.993817 -45.654924 -0.31988189,46.590071 -23.130822 -0.31988189,
  46.582152 -23.025143 -0.31988189,46.590071 -22.919464 -0.31988189,
  46.613653 -22.816145 -0.31988189,46.65237 -22.717495 -0.31988189,
  46.705358 -22.625718 -0.31988189,46.771433 -22.542863 -0.31988189,
  46.849118 -22.470781 -0.31988189,46.936679 -22.411083 -0.31988189,
  47.03216 -22.365102 -0.31988189,47.133427 -22.333865 -0.31988189,
  47.238219 -22.31807 -0.31988189,47.344194 -22.31807 -0.31988189,
  47.448986 -22.333865 -0.31988189,47.550254 -22.365102 -0.31988189,
  47.645734 -22.411083 -0.31988189,47.733295 -22.470781 -0.31988189,
  47.810981 -22.542863 -0.31988189,47.877056 -22.625718 -0.31988189,
  47.930043 -22.717495 -0.31988189,47.968761 -22.816145 -0.31988189,
  47.992342 -22.919464 -0.31988189,48.000262 -23.025143 -0.31988189,
  47.992342 -23.130822 -0.31988189,47.968761 -23.234141 -0.31988189,
  47.930043 -23.332791 -0.31988189,47.877056 -23.424568 -0.31988189,
  47.810981 -23.507423 -0.31988189,47.733295 -23.579504 -0.31988189,
  47.645734 -23.639203 -0.31988189,47.550254 -23.685184 -0.31988189,
  47.448986 -23.71642 -0.31988189,47.344194 -23.732215 -0.31988189,
  47.238219 -23.732215 -0.31988189,47.133427 -23.71642 -0.31988189,
  47.03216 -23.685184 -0.31988189,46.936679 -23.639203 -0.31988189,
  46.849118 -23.579504 -0.31988189,46.771433 -23.507423 -0.31988189,
  46.705358 -23.424568 -0.31988189,46.65237 -23.332791 -0.31988189,
  46.613653 -23.234141 -0.31988189,47.992342 -44.179306 -0.31988189,
  48.000262 -44.284985 -0.31988189,47.992342 -44.390665 -0.31988189,
  47.968761 -44.493983 -0.31988189,47.930043 -44.592633 -0.31988189,
  47.877056 -44.68441 -0.31988189,47.810981 -44.767265 -0.31988189,
  47.733295 -44.839347 -0.31988189,47.645734 -44.899045 -0.31988189,
  47.550254 -44.945026 -0.31988189,47.448986 -44.976263 -0.31988189,
  47.344194 -44.992058 -0.31988189,47.238219 -44.992058 -0.31988189,
  47.133427 -44.976263 -0.31988189,47.03216 -44.945026 -0.31988189,
  46.936679 -44.899045 -0.31988189,46.849118 -44.839347 -0.31988189,
  46.771433 -44.767265 -0.31988189,46.705358 -44.68441 -0.31988189,
  46.65237 -44.592633 -0.31988189,46.613653 -44.493983 -0.31988189,
  46.590071 -44.390665 -0.31988189,46.582152 -44.284985 -0.31988189,
  46.590071 -44.179306 -0.31988189,46.613653 -44.075988 -0.31988189,
  46.65237 -43.977338 -0.31988189,46.705358 -43.885561 -0.31988189,
  46.771433 -43.802706 -0.31988189,46.849118 -43.730624 -0.31988189,
  46.936679 -43.670926 -0.31988189,47.03216 -43.624944 -0.31988189,
  47.133427 -43.593708 -0.31988189,47.238219 -43.577913 -0.31988189,
  47.344194 -43.577913 -0.31988189,47.448986 -43.593708 -0.31988189,
  47.550254 -43.624944 -0.31988189,47.645734 -43.670926 -0.31988189,
  47.733295 -43.730624 -0.31988189,47.810981 -43.802706 -0.31988189,
  47.877056 -43.885561 -0.31988189,47.930043 -43.977338 -0.31988189,
  47.968761 -44.075988 -0.31988189,47.980183 -25.092072 -0.31988189,
  47.980183 -42.218056 -0.31988189,47.972488 -42.320743 -0.31988189,
  47.949574 -42.421136 -0.31988189,47.911953 -42.516992 -0.31988189,
  47.860466 -42.60617 -0.31988189,47.796262 -42.686679 -0.31988189,
  47.720776 -42.75672 -0.31988189,47.635695 -42.814727 -0.31988189,
  47.542918 -42.859406 -0.31988189,47.444519 -42.889759 -0.31988189,
  47.342694 -42.905106 -0.31988189,47.239719 -42.905106 -0.31988189,
  47.137895 -42.889759 -0.31988189,47.039495 -42.859406 -0.31988189,
  46.946719 -42.814727 -0.31988189,46.861637 -42.75672 -0.31988189,
  46.786151 -42.686679 -0.31988189,46.721948 -42.60617 -0.31988189,
  46.67046 -42.516992 -0.31988189,46.63284 -42.421136 -0.31988189,
  46.609926 -42.320743 -0.31988189,46.60223 -42.218056 -0.31988189,
  46.60223 -25.092072 -0.31988189,46.609926 -24.989385 -0.31988189,
  46.63284 -24.888993 -0.31988189,46.67046 -24.793136 -0.31988189,
  46.721948 -24.703958 -0.31988189,46.786151 -24.623449 -0.31988189,
  46.861637 -24.553409 -0.31988189,46.946719 -24.495401 -0.31988189,
  47.039495 -24.450722 -0.31988189,47.137895 -24.42037 -0.31988189,
  47.239719 -24.405022 -0.31988189,47.342694 -24.405022 -0.31988189,
  47.444519 -24.42037 -0.31988189,47.542918 -24.450722 -0.31988189,
  47.635695 -24.495401 -0.31988189,47.720776 -24.553409 -0.31988189,
  47.796262 -24.623449 -0.31988189,47.860466 -24.703958 -0.31988189,
  47.911953 -24.793136 -0.31988189,47.949574 -24.888993 -0.31988189,
  47.972488 -24.989385 -0.31988189] }
 coordIndex [
  93,135,74,-1,93,74,94,-1,94,74,73,-1,94,73,0,-1,0,73,19,-1,0,19,1,-1,1,19,18,-1,1,18,2,-1,
  2,18,17,-1,2,17,3,-1,3,17,16,-1,3,16,4,-1,4,16,15,-1,4,15,5,-1,5,15,14,-1,5,14,6,-1,
  6,14,13,-1,6,13,7,-1,7,13,12,-1,7,12,8,-1,8,12,11,-1,8,11,9,-1,9,11,10,-1,169,168,83,-1,
  169,83,170,-1,170,83,82,-1,170,82,171,-1,171,82,81,-1,171,81,172,-1,172,81,80,-1,172,80,173,-1,173,80,79,-1,
  173,79,174,-1,174,79,78,-1,174,78,175,-1,175,78,77,-1,175,77,176,-1,176,77,76,-1,176,76,177,-1,177,76,75,-1,
  177,75,178,-1,178,75,74,-1,178,74,135,-1,159,158,92,-1,159,92,160,-1,160,92,91,-1,160,91,161,-1,161,91,90,-1,
  161,90,162,-1,162,90,89,-1,162,89,163,-1,163,89,88,-1,163,88,164,-1,164,88,87,-1,164,87,165,-1,165,87,86,-1,
  165,86,166,-1,166,86,85,-1,166,85,167,-1,167,85,84,-1,167,84,168,-1,168,84,83,-1,38,33,32,-1,38,32,39,-1,
  39,32,31,-1,39,31,40,-1,40,31,30,-1,40,30,41,-1,41,30,29,-1,41,29,42,-1,42,29,28,-1,42,28,43,-1,
  43,28,27,-1,43,27,44,-1,44,27,26,-1,44,26,45,-1,45,26,25,-1,45,25,46,-1,46,25,24,-1,46,24,115,-1,
  115,24,52,-1,115,52,116,-1,116,52,51,-1,116,51,157,-1,157,51,158,-1,21,20,70,-1,70,20,71,-1,71,20,72,-1,
  72,20,73,-1,73,20,19,-1,22,21,58,-1,58,21,59,-1,59,21,60,-1,60,21,61,-1,61,21,62,-1,62,21,63,-1,
  63,21,64,-1,64,21,65,-1,65,21,66,-1,66,21,67,-1,67,21,68,-1,68,21,69,-1,69,21,70,-1,23,22,53,-1,
  53,22,54,-1,54,22,55,-1,55,22,56,-1,56,22,57,-1,57,22,58,-1,24,23,52,-1,52,23,53,-1,0,50,94,-1,
  94,50,95,-1,95,50,96,-1,96,50,97,-1,97,50,49,-1,97,49,98,-1,98,49,99,-1,99,49,100,-1,100,49,101,-1,
  101,49,102,-1,102,49,103,-1,103,49,104,-1,104,49,105,-1,105,49,106,-1,106,49,107,-1,107,49,108,-1,108,49,109,-1,
  109,49,48,-1,109,48,110,-1,110,48,111,-1,111,48,112,-1,112,48,113,-1,113,48,114,-1,114,48,47,-1,46,115,47,-1,
  47,115,114,-1,33,38,34,-1,34,38,35,-1,35,38,36,-1,36,38,37,-1,136,135,93,-1,136,93,137,-1,137,93,134,-1,
  137,134,138,-1,138,134,133,-1,138,133,139,-1,139,133,132,-1,139,132,140,-1,140,132,131,-1,140,131,141,-1,141,131,130,-1,
  141,130,142,-1,142,130,129,-1,142,129,143,-1,143,129,128,-1,143,128,144,-1,144,128,127,-1,144,127,145,-1,145,127,126,-1,
  145,126,146,-1,146,126,147,-1,147,126,125,-1,147,125,148,-1,148,125,124,-1,148,124,149,-1,149,124,123,-1,149,123,150,-1,
  150,123,122,-1,150,122,151,-1,151,122,121,-1,151,121,152,-1,152,121,120,-1,152,120,153,-1,153,120,119,-1,153,119,154,-1,
  154,119,118,-1,154,118,155,-1,155,118,117,-1,155,117,156,-1,156,117,157,-1,116,157,117,-1,158,51,92,-1]
  normalPerVertex TRUE
  normal DEF NORM_4 Normal { vector [
  0 0 -1,0 0 -1,
  0 0 -1,0 0 -1,
  0 0 -1,0 0 -1,
  0 0 -1,0 0 -1,
  0 0 -1,0 0 -1,
  0 0 -1,0 0 -1,
  0 0 -1,0 0 -1,
  0 0 -1,0 0 -1,
  0 0 -1,0 0 -1,
  0 0 -1,0 0 -1,
  0 0 -1,0 0 -1,
  0 0 -1,0 0 -1,
  0 0 -1,0 0 -1,
  0 0 -1,0 0 -1,
  0 0 -1,0 0 -1,
  0 0 -1,0 0 -1,
  0 0 -1,0 0 -1,
  0 0 -1,0 0 -1,
  0 0 -1,0 0 -1,
  0 0 -1,0 0 -1,
  0 0 -1,0 0 -1,
  0 0 -1,0 0 -1,
  0 0 -1,0 0 -1,
  0 0 -1,0 0 -1,
  0 0 -1,0 0 -1,
  0 0 -1,0 0 -1,
  0 0 -1,0 0 -1,
  0 0 -1,0 0 -1,
  0 0 -1,0 0 -1,
  0 0 -1,0 0 -1,
  0 0 -1,0 0 -1,
  0 0 -1,0 0 -1,
  0 0 -1,0 0 -1,
  0 0 -1,0 0 -1,
  0 0 -1,0 0 -1,
  0 0 -1,0 0 -1,
  0 0 -1,0 0 -1,
  0 0 -1,0 0 -1,
  0 0 -1,0 0 -1,
  0 0 -1,0 0 -1,
  0 0 -1,0 0 -1,
  0 0 -1,0 0 -1,
  0 0 -1,0 0 -1,
  0 0 -1,0 0 -1,
  0 0 -1,0 0 -1,
  0 0 -1,0 0 -1,
  0 0 -1,0 0 -1,
  0 0 -1,0 0 -1,
  0 0 -1,0 0 -1,
  0 0 -1,0 0 -1,
  0 0 -1,0 0 -1,
  0 0 -1,0 0 -1,
  0 0 -1,0 0 -1,
  0 0 -1,0 0 -1,
  0 0 -1,0 0 -1,
  0 0 -1,0 0 -1,
  0 0 -1,0 0 -1,
  0 0 -1,0 0 -1,
  0 0 -1,0 0 -1,
  0 0 -1,0 0 -1,
  0 0 -1,0 0 -1,
  0 0 -1,0 0 -1,
  0 0 -1,0 0 -1,
  0 0 -1,0 0 -1,
  0 0 -1,0 0 -1,
  0 0 -1,0 0 -1,
  0 0 -1,0 0 -1,
  0 0 -1,0 0 -1,
  0 0 -1,0 0 -1,
  0 0 -1,0 0 -1,
  0 0 -1,0 0 -1,
  0 0 -1,0 0 -1,
  0 0 -1,0 0 -1,
  0 0 -1,0 0 -1,
  0 0 -1,0 0 -1,
  0 0 -1,0 0 -1,
  0 0 -1,0 0 -1,
  0 0 -1,0 0 -1,
  0 0 -1,0 0 -1,
  0 0 -1,0 0 -1,
  0 0 -1,0 0 -1,
  0 0 -1,0 0 -1,
  0 0 -1,0 0 -1,
  0 0 -1,0 0 -1,
  0 0 -1,0 0 -1,
  0 0 -1,0 0 -1,
  0 0 -1,0 0 -1,
  0 0 -1,0 0 -1,
  0 0 -1,0 0 -1,
  0 0 -1] }
}
}
] }
] }
