%TF.GenerationSoftware,KiCad,Pcbnew,7.0.6-7.0.6~ubuntu22.04.1*%
%TF.CreationDate,2023-08-04T13:29:33+01:00*%
%TF.ProjectId,working,776f726b-696e-4672-9e6b-696361645f70,V2.1.1*%
%TF.SameCoordinates,PX123f7a54PY5db66f6*%
%TF.FileFunction,Other,User*%
%FSLAX46Y46*%
G04 Gerber Fmt 4.6, Leading zero omitted, Abs format (unit mm)*
G04 Created by KiCad (PCBNEW 7.0.6-7.0.6~ubuntu22.04.1) date 2023-08-04 13:29:33*
%MOMM*%
%LPD*%
G01*
G04 APERTURE LIST*
%ADD10C,0.050000*%
%ADD11C,0.100000*%
G04 APERTURE END LIST*
D10*
%TO.C,R41*%
X304279972Y-107779645D02*
X304279972Y-105919645D01*
X305219972Y-105919645D02*
X305219972Y-107779645D01*
X304279972Y-105919645D02*
X305219972Y-105919645D01*
X305219972Y-107779645D02*
X304279972Y-107779645D01*
%TO.C,D52*%
X295049972Y-138264822D02*
X295049972Y-133464822D01*
X297449972Y-133464822D02*
X297449972Y-138264822D01*
X295049972Y-138264822D02*
X297449972Y-138264822D01*
X295049972Y-133464822D02*
X297449972Y-133464822D01*
%TO.C,MH1*%
X109399972Y-126764822D02*
G75*
G03*
X109399972Y-126764822I-2750000J0D01*
G01*
%TO.C,R14*%
X182899972Y-130464821D02*
X182899972Y-128604821D01*
X182899972Y-128604821D02*
X183839972Y-128604821D01*
X183839972Y-130464821D02*
X182899972Y-130464821D01*
X183839972Y-128604821D02*
X183839972Y-130464821D01*
%TO.C,R34*%
X216819972Y-141734822D02*
X218679972Y-141734822D01*
X218679972Y-142674822D02*
X216819972Y-142674822D01*
X216819972Y-142674822D02*
X216819972Y-141734822D01*
X218679972Y-141734822D02*
X218679972Y-142674822D01*
%TO.C,R43*%
X298679972Y-111334822D02*
X299619972Y-111334822D01*
X298679972Y-113194822D02*
X298679972Y-111334822D01*
X299619972Y-111334822D02*
X299619972Y-113194822D01*
X299619972Y-113194822D02*
X298679972Y-113194822D01*
%TO.C,Y1*%
X275649972Y-135244822D02*
X275649972Y-138644822D01*
X275649972Y-138644822D02*
X279849972Y-138644822D01*
X279849972Y-135244822D02*
X275649972Y-135244822D01*
X279849972Y-138644822D02*
X279849972Y-135244822D01*
%TO.C,C33*%
X95009972Y-144924822D02*
X95009972Y-146744822D01*
X95009972Y-146744822D02*
X94089972Y-146744822D01*
X94089972Y-144924822D02*
X95009972Y-144924822D01*
X94089972Y-146744822D02*
X94089972Y-144924822D01*
%TO.C,D35*%
X143449972Y-100664822D02*
X145849972Y-100664822D01*
X143449972Y-95864822D02*
X145849972Y-95864822D01*
X143449972Y-100664822D02*
X143449972Y-95864822D01*
X145849972Y-95864822D02*
X145849972Y-100664822D01*
%TO.C,C39*%
X216839972Y-144094822D02*
X216839972Y-143174822D01*
X216839972Y-143174822D02*
X218659972Y-143174822D01*
X218659972Y-144094822D02*
X216839972Y-144094822D01*
X218659972Y-143174822D02*
X218659972Y-144094822D01*
%TO.C,R5*%
X179919972Y-128064821D02*
X178979972Y-128064821D01*
X178979972Y-126204821D02*
X179919972Y-126204821D01*
X178979972Y-128064821D02*
X178979972Y-126204821D01*
X179919972Y-126204821D02*
X179919972Y-128064821D01*
%TO.C,C28*%
X175289972Y-106784822D02*
X176209972Y-106784822D01*
X175289972Y-108604822D02*
X175289972Y-106784822D01*
X176209972Y-106784822D02*
X176209972Y-108604822D01*
X176209972Y-108604822D02*
X175289972Y-108604822D01*
%TO.C,C3*%
X273779948Y-131134822D02*
X274699948Y-131134822D01*
X274699948Y-131134822D02*
X274699948Y-132954822D01*
X273779948Y-132954822D02*
X273779948Y-131134822D01*
X274699948Y-132954822D02*
X273779948Y-132954822D01*
%TO.C,D47*%
X143449972Y-119664822D02*
X145849972Y-119664822D01*
X143449972Y-119664822D02*
X143449972Y-114864822D01*
X143449972Y-114864822D02*
X145849972Y-114864822D01*
X145849972Y-114864822D02*
X145849972Y-119664822D01*
%TO.C,R47*%
X223262472Y-105024822D02*
X223262472Y-101664822D01*
X225162472Y-101664822D02*
X225162472Y-105024822D01*
X225162472Y-105024822D02*
X223262472Y-105024822D01*
X223262472Y-101664822D02*
X225162472Y-101664822D01*
%TO.C,R38*%
X283419972Y-144874822D02*
X283419972Y-146734822D01*
X282479972Y-144874822D02*
X283419972Y-144874822D01*
X283419972Y-146734822D02*
X282479972Y-146734822D01*
X282479972Y-146734822D02*
X282479972Y-144874822D01*
%TO.C,C44*%
X303089972Y-146744822D02*
X303089972Y-144924822D01*
X304009972Y-144924822D02*
X304009972Y-146744822D01*
X304009972Y-146744822D02*
X303089972Y-146744822D01*
X303089972Y-144924822D02*
X304009972Y-144924822D01*
%TO.C,FB1*%
X268099972Y-105614822D02*
X266399972Y-105614822D01*
X268099972Y-102114822D02*
X268099972Y-105614822D01*
X266399972Y-102114822D02*
X268099972Y-102114822D01*
X266399972Y-105614822D02*
X266399972Y-102114822D01*
%TO.C,R89*%
X302629972Y-159427322D02*
X302629972Y-161327322D01*
X302629972Y-161327322D02*
X299269972Y-161327322D01*
X299269972Y-161327322D02*
X299269972Y-159427322D01*
X299269972Y-159427322D02*
X302629972Y-159427322D01*
D11*
%TO.C,D25*%
X285749972Y-144764822D02*
X285749972Y-146764822D01*
X288549972Y-144764822D02*
X285749972Y-144764822D01*
X285749972Y-146764822D02*
X288549972Y-146764822D01*
X288549972Y-146764822D02*
X288549972Y-144764822D01*
D10*
%TO.C,R66*%
X299469972Y-120607662D02*
X302829972Y-120607662D01*
X302829972Y-120607662D02*
X302829972Y-122507662D01*
X302829972Y-122507662D02*
X299469972Y-122507662D01*
X299469972Y-122507662D02*
X299469972Y-120607662D01*
%TO.C,R26*%
X119679972Y-108654821D02*
X119679972Y-106794821D01*
X120619972Y-106794821D02*
X120619972Y-108654821D01*
X119679972Y-106794821D02*
X120619972Y-106794821D01*
X120619972Y-108654821D02*
X119679972Y-108654821D01*
%TO.C,C8*%
X279659972Y-139084822D02*
X279659972Y-140004822D01*
X279659972Y-140004822D02*
X277839972Y-140004822D01*
X277839972Y-139084822D02*
X279659972Y-139084822D01*
X277839972Y-140004822D02*
X277839972Y-139084822D01*
%TO.C,D48*%
X126849972Y-114864822D02*
X126849972Y-119664822D01*
X124449972Y-114864822D02*
X126849972Y-114864822D01*
X124449972Y-119664822D02*
X126849972Y-119664822D01*
X124449972Y-119664822D02*
X124449972Y-114864822D01*
D11*
%TO.C,D18*%
X152749972Y-144764822D02*
X152749972Y-146764822D01*
X155549972Y-146764822D02*
X155549972Y-144764822D01*
X155549972Y-144764822D02*
X152749972Y-144764822D01*
X152749972Y-146764822D02*
X155549972Y-146764822D01*
D10*
%TO.C,R16*%
X311804972Y-108544822D02*
X310864972Y-108544822D01*
X311804972Y-106684822D02*
X311804972Y-108544822D01*
X310864972Y-108544822D02*
X310864972Y-106684822D01*
X310864972Y-106684822D02*
X311804972Y-106684822D01*
%TO.C,C12*%
X285010000Y-123604822D02*
X285010000Y-124524822D01*
X283190000Y-124524822D02*
X283190000Y-123604822D01*
X283190000Y-123604822D02*
X285010000Y-123604822D01*
X285010000Y-124524822D02*
X283190000Y-124524822D01*
%TO.C,R12*%
X118299972Y-128194822D02*
X118299972Y-124834822D01*
X118299972Y-124834822D02*
X120199972Y-124834822D01*
X120199972Y-128194822D02*
X118299972Y-128194822D01*
X120199972Y-124834822D02*
X120199972Y-128194822D01*
%TO.C,D32*%
X200449972Y-95864822D02*
X202849972Y-95864822D01*
X200449972Y-100664822D02*
X202849972Y-100664822D01*
X202849972Y-95864822D02*
X202849972Y-100664822D01*
X200449972Y-100664822D02*
X200449972Y-95864822D01*
%TO.C,R62*%
X166262472Y-120334822D02*
X168162472Y-120334822D01*
X168162472Y-120334822D02*
X168162472Y-123694822D01*
X166262472Y-123694822D02*
X166262472Y-120334822D01*
X168162472Y-123694822D02*
X166262472Y-123694822D01*
%TO.C,R60*%
X206162472Y-120334822D02*
X206162472Y-123694822D01*
X204262472Y-120334822D02*
X206162472Y-120334822D01*
X204262472Y-123694822D02*
X204262472Y-120334822D01*
X206162472Y-123694822D02*
X204262472Y-123694822D01*
%TO.C,D60*%
X144449972Y-133864822D02*
X144449972Y-138664822D01*
X142049972Y-138664822D02*
X142049972Y-133864822D01*
X142049972Y-138664822D02*
X144449972Y-138664822D01*
X142049972Y-133864822D02*
X144449972Y-133864822D01*
%TO.C,R54*%
X312229972Y-102014822D02*
X308869972Y-102014822D01*
X312229972Y-100114822D02*
X312229972Y-102014822D01*
X308869972Y-100114822D02*
X312229972Y-100114822D01*
X308869972Y-102014822D02*
X308869972Y-100114822D01*
%TO.C,R39*%
X301479972Y-144874822D02*
X302419972Y-144874822D01*
X302419972Y-146734822D02*
X301479972Y-146734822D01*
X302419972Y-144874822D02*
X302419972Y-146734822D01*
X301479972Y-146734822D02*
X301479972Y-144874822D01*
%TO.C,R22*%
X196619972Y-106794821D02*
X196619972Y-108654821D01*
X195679972Y-108654821D02*
X195679972Y-106794821D01*
X196619972Y-108654821D02*
X195679972Y-108654821D01*
X195679972Y-106794821D02*
X196619972Y-106794821D01*
D11*
%TO.C,D12*%
X133749972Y-106764822D02*
X133749972Y-108764822D01*
X133749972Y-108764822D02*
X136549972Y-108764822D01*
X136549972Y-106764822D02*
X133749972Y-106764822D01*
X136549972Y-108764822D02*
X136549972Y-106764822D01*
D10*
%TO.C,R20*%
X233679972Y-108654821D02*
X233679972Y-106794821D01*
X234619972Y-106794821D02*
X234619972Y-108654821D01*
X233679972Y-106794821D02*
X234619972Y-106794821D01*
X234619972Y-108654821D02*
X233679972Y-108654821D01*
%TO.C,C16*%
X115669972Y-124852322D02*
X117629972Y-124852322D01*
X117629972Y-124852322D02*
X117629972Y-128252322D01*
X117629972Y-128252322D02*
X115669972Y-128252322D01*
X115669972Y-128252322D02*
X115669972Y-124852322D01*
%TO.C,R87*%
X129479972Y-160385822D02*
X129479972Y-158525822D01*
X130419972Y-158525822D02*
X130419972Y-160385822D01*
X129479972Y-158525822D02*
X130419972Y-158525822D01*
X130419972Y-160385822D02*
X129479972Y-160385822D01*
%TO.C,D40*%
X281549972Y-111064822D02*
X281549972Y-115864822D01*
X279149972Y-115864822D02*
X281549972Y-115864822D01*
X279149972Y-115864822D02*
X279149972Y-111064822D01*
X279149972Y-111064822D02*
X281549972Y-111064822D01*
%TO.C,U1*%
X273449972Y-129964822D02*
X281449972Y-129964822D01*
X281449972Y-129964822D02*
X281449972Y-121964822D01*
X281449972Y-121964822D02*
X273449972Y-121964822D01*
X273449972Y-121964822D02*
X273449972Y-129964822D01*
%TO.C,D39*%
X312949972Y-110357662D02*
X312949972Y-112757662D01*
X308149972Y-110357662D02*
X308149972Y-112757662D01*
X308149972Y-110357662D02*
X312949972Y-110357662D01*
X312949972Y-112757662D02*
X308149972Y-112757662D01*
%TO.C,R50*%
X166262472Y-105024822D02*
X166262472Y-101664822D01*
X166262472Y-101664822D02*
X168162472Y-101664822D01*
X168162472Y-101664822D02*
X168162472Y-105024822D01*
X168162472Y-105024822D02*
X166262472Y-105024822D01*
%TO.C,R51*%
X148399972Y-105024822D02*
X148399972Y-101664822D01*
X150299972Y-101664822D02*
X150299972Y-105024822D01*
X148399972Y-101664822D02*
X150299972Y-101664822D01*
X150299972Y-105024822D02*
X148399972Y-105024822D01*
%TO.C,R19*%
X253619972Y-108654821D02*
X252679972Y-108654821D01*
X252679972Y-106794821D02*
X253619972Y-106794821D01*
X252679972Y-108654821D02*
X252679972Y-106794821D01*
X253619972Y-106794821D02*
X253619972Y-108654821D01*
D11*
%TO.C,D13*%
X117549972Y-106764822D02*
X114749972Y-106764822D01*
X114749972Y-108764822D02*
X117549972Y-108764822D01*
X114749972Y-106764822D02*
X114749972Y-108764822D01*
X117549972Y-108764822D02*
X117549972Y-106764822D01*
D10*
%TO.C,R29*%
X112419972Y-144874822D02*
X112419972Y-146734822D01*
X111479972Y-146734822D02*
X111479972Y-144874822D01*
X111479972Y-144874822D02*
X112419972Y-144874822D01*
X112419972Y-146734822D02*
X111479972Y-146734822D01*
%TO.C,C9*%
X283059972Y-139404822D02*
X283059972Y-140324822D01*
X283059972Y-140324822D02*
X281239972Y-140324822D01*
X281239972Y-140324822D02*
X281239972Y-139404822D01*
X281239972Y-139404822D02*
X283059972Y-139404822D01*
%TO.C,C34*%
X113089972Y-146744822D02*
X113089972Y-144924822D01*
X114009972Y-144924822D02*
X114009972Y-146744822D01*
X114009972Y-146744822D02*
X113089972Y-146744822D01*
X113089972Y-144924822D02*
X114009972Y-144924822D01*
%TO.C,C19*%
X295839952Y-117404822D02*
X297659952Y-117404822D01*
X297659952Y-117404822D02*
X297659952Y-118324822D01*
X297659952Y-118324822D02*
X295839952Y-118324822D01*
X295839952Y-118324822D02*
X295839952Y-117404822D01*
%TO.C,R23*%
X177619972Y-106794821D02*
X177619972Y-108654821D01*
X177619972Y-108654821D02*
X176679972Y-108654821D01*
X176679972Y-108654821D02*
X176679972Y-106794821D01*
X176679972Y-106794821D02*
X177619972Y-106794821D01*
%TO.C,R28*%
X93419972Y-146734822D02*
X92479972Y-146734822D01*
X92479972Y-144874822D02*
X93419972Y-144874822D01*
X93419972Y-144874822D02*
X93419972Y-146734822D01*
X92479972Y-146734822D02*
X92479972Y-144874822D01*
D11*
%TO.C,D6*%
X247749972Y-108764822D02*
X250549972Y-108764822D01*
X250549972Y-106764822D02*
X247749972Y-106764822D01*
X250549972Y-108764822D02*
X250549972Y-106764822D01*
X247749972Y-106764822D02*
X247749972Y-108764822D01*
%TO.C,D23*%
X250549972Y-146764822D02*
X250549972Y-144764822D01*
X247749972Y-144764822D02*
X247749972Y-146764822D01*
X247749972Y-146764822D02*
X250549972Y-146764822D01*
X250549972Y-144764822D02*
X247749972Y-144764822D01*
D10*
%TO.C,R70*%
X252923393Y-139934822D02*
X253863393Y-139934822D01*
X253863393Y-141794822D02*
X252923393Y-141794822D01*
X252923393Y-141794822D02*
X252923393Y-139934822D01*
X253863393Y-139934822D02*
X253863393Y-141794822D01*
%TO.C,R2*%
X263992472Y-125434822D02*
X262132472Y-125434822D01*
X262132472Y-124494822D02*
X263992472Y-124494822D01*
X263992472Y-124494822D02*
X263992472Y-125434822D01*
X262132472Y-125434822D02*
X262132472Y-124494822D01*
%TO.C,C25*%
X232289972Y-106784822D02*
X233209972Y-106784822D01*
X232289972Y-108604822D02*
X232289972Y-106784822D01*
X233209972Y-108604822D02*
X232289972Y-108604822D01*
X233209972Y-106784822D02*
X233209972Y-108604822D01*
D11*
%TO.C,D8*%
X212549972Y-108764822D02*
X212549972Y-106764822D01*
X209749972Y-106764822D02*
X209749972Y-108764822D01*
X212549972Y-106764822D02*
X209749972Y-106764822D01*
X209749972Y-108764822D02*
X212549972Y-108764822D01*
D10*
%TO.C,MH6*%
X261399972Y-145764822D02*
G75*
G03*
X261399972Y-145764822I-2750000J0D01*
G01*
%TO.C,C15*%
X166709972Y-125554822D02*
X166709972Y-127374822D01*
X165789972Y-125554822D02*
X166709972Y-125554822D01*
X166709972Y-127374822D02*
X165789972Y-127374822D01*
X165789972Y-127374822D02*
X165789972Y-125554822D01*
%TO.C,R10*%
X182239972Y-130464821D02*
X181299972Y-130464821D01*
X181299972Y-128604821D02*
X182239972Y-128604821D01*
X182239972Y-128604821D02*
X182239972Y-130464821D01*
X181299972Y-130464821D02*
X181299972Y-128604821D01*
%TO.C,R74*%
X169499972Y-142544822D02*
X167599972Y-142544822D01*
X167599972Y-139184822D02*
X169499972Y-139184822D01*
X167599972Y-142544822D02*
X167599972Y-139184822D01*
X169499972Y-139184822D02*
X169499972Y-142544822D01*
%TO.C,D55*%
X219449972Y-138664822D02*
X221849972Y-138664822D01*
X221849972Y-133864822D02*
X221849972Y-138664822D01*
X219449972Y-133864822D02*
X221849972Y-133864822D01*
X219449972Y-138664822D02*
X219449972Y-133864822D01*
%TO.C,R24*%
X158619972Y-108654821D02*
X157679972Y-108654821D01*
X157679972Y-106794821D02*
X158619972Y-106794821D01*
X157679972Y-108654821D02*
X157679972Y-106794821D01*
X158619972Y-106794821D02*
X158619972Y-108654821D01*
%TO.C,R82*%
X225119972Y-160934822D02*
X225119972Y-159994822D01*
X226979972Y-159994822D02*
X226979972Y-160934822D01*
X225119972Y-159994822D02*
X226979972Y-159994822D01*
X226979972Y-160934822D02*
X225119972Y-160934822D01*
%TO.C,R85*%
X179379972Y-159394822D02*
X179379972Y-160334822D01*
X179379972Y-160334822D02*
X177519972Y-160334822D01*
X177519972Y-159394822D02*
X179379972Y-159394822D01*
X177519972Y-160334822D02*
X177519972Y-159394822D01*
%TO.C,R86*%
X148279972Y-158525822D02*
X149219972Y-158525822D01*
X148279972Y-160385822D02*
X148279972Y-158525822D01*
X149219972Y-160385822D02*
X148279972Y-160385822D01*
X149219972Y-158525822D02*
X149219972Y-160385822D01*
D11*
%TO.C,D14*%
X98549972Y-108064822D02*
X95749972Y-108064822D01*
X95749972Y-110064822D02*
X98549972Y-110064822D01*
X95749972Y-108064822D02*
X95749972Y-110064822D01*
X98549972Y-110064822D02*
X98549972Y-108064822D01*
%TO.C,D26*%
X304749972Y-144764822D02*
X304749972Y-146764822D01*
X304749972Y-146764822D02*
X307549972Y-146764822D01*
X307549972Y-146764822D02*
X307549972Y-144764822D01*
X307549972Y-144764822D02*
X304749972Y-144764822D01*
D10*
%TO.C,R48*%
X206162472Y-101664822D02*
X206162472Y-105024822D01*
X206162472Y-105024822D02*
X204262472Y-105024822D01*
X204262472Y-105024822D02*
X204262472Y-101664822D01*
X204262472Y-101664822D02*
X206162472Y-101664822D01*
%TO.C,D2*%
X99749972Y-129464822D02*
X102149972Y-129464822D01*
X99749972Y-124664822D02*
X102149972Y-124664822D01*
X99749972Y-129464822D02*
X99749972Y-124664822D01*
X102149972Y-124664822D02*
X102149972Y-129464822D01*
%TO.C,R67*%
X252719972Y-121994822D02*
X254579972Y-121994822D01*
X252719972Y-122934822D02*
X252719972Y-121994822D01*
X254579972Y-122934822D02*
X252719972Y-122934822D01*
X254579972Y-121994822D02*
X254579972Y-122934822D01*
%TO.C,R69*%
X287579972Y-143194822D02*
X287579972Y-144134822D01*
X285719972Y-143194822D02*
X287579972Y-143194822D01*
X285719972Y-144134822D02*
X285719972Y-143194822D01*
X287579972Y-144134822D02*
X285719972Y-144134822D01*
D11*
%TO.C,D20*%
X200674972Y-144764822D02*
X197874972Y-144764822D01*
X200674972Y-146764822D02*
X200674972Y-144764822D01*
X197874972Y-146764822D02*
X200674972Y-146764822D01*
X197874972Y-144764822D02*
X197874972Y-146764822D01*
%TO.C,X1*%
X274601972Y-161369924D02*
X280697972Y-161369924D01*
X280697972Y-147653924D02*
X274601972Y-147653924D01*
X280697972Y-147653924D02*
X280697972Y-161369924D01*
X274601972Y-161369924D02*
X274601972Y-147653924D01*
D10*
%TO.C,D50*%
X106449972Y-114864822D02*
X106449972Y-119664822D01*
X104049972Y-119664822D02*
X106449972Y-119664822D01*
X104049972Y-119664822D02*
X104049972Y-114864822D01*
X104049972Y-114864822D02*
X106449972Y-114864822D01*
%TO.C,R76*%
X129599972Y-139184822D02*
X131499972Y-139184822D01*
X129599972Y-142544822D02*
X129599972Y-139184822D01*
X131499972Y-142544822D02*
X129599972Y-142544822D01*
X131499972Y-139184822D02*
X131499972Y-142544822D01*
%TO.C,C36*%
X152009972Y-146744822D02*
X151089972Y-146744822D01*
X152009972Y-144924822D02*
X152009972Y-146744822D01*
X151089972Y-146744822D02*
X151089972Y-144924822D01*
X151089972Y-144924822D02*
X152009972Y-144924822D01*
%TO.C,C18*%
X111139972Y-123254822D02*
X112959972Y-123254822D01*
X112959972Y-124174822D02*
X111139972Y-124174822D01*
X112959972Y-123254822D02*
X112959972Y-124174822D01*
X111139972Y-124174822D02*
X111139972Y-123254822D01*
%TO.C,R18*%
X271879972Y-106794822D02*
X272819972Y-106794822D01*
X272819972Y-108654822D02*
X271879972Y-108654822D01*
X272819972Y-106794822D02*
X272819972Y-108654822D01*
X271879972Y-108654822D02*
X271879972Y-106794822D01*
%TO.C,D43*%
X221849972Y-114864822D02*
X221849972Y-119664822D01*
X219449972Y-119664822D02*
X221849972Y-119664822D01*
X219449972Y-114864822D02*
X221849972Y-114864822D01*
X219449972Y-119664822D02*
X219449972Y-114864822D01*
D11*
%TO.C,D4*%
X285749972Y-108764822D02*
X288549972Y-108764822D01*
X288549972Y-106764822D02*
X285749972Y-106764822D01*
X285749972Y-106764822D02*
X285749972Y-108764822D01*
X288549972Y-108764822D02*
X288549972Y-106764822D01*
D10*
%TO.C,D49*%
X106862472Y-114864822D02*
X109262472Y-114864822D01*
X106862472Y-119664822D02*
X109262472Y-119664822D01*
X109262472Y-114864822D02*
X109262472Y-119664822D01*
X106862472Y-119664822D02*
X106862472Y-114864822D01*
%TO.C,Q3*%
X299849972Y-101544822D02*
X299849972Y-105384822D01*
X303249972Y-105384822D02*
X303249972Y-101544822D01*
X303249972Y-101544822D02*
X299849972Y-101544822D01*
X299849972Y-105384822D02*
X303249972Y-105384822D01*
%TO.C,R65*%
X120399972Y-123744822D02*
X120399972Y-120384822D01*
X120399972Y-120384822D02*
X122299972Y-120384822D01*
X122299972Y-123744822D02*
X120399972Y-123744822D01*
X122299972Y-120384822D02*
X122299972Y-123744822D01*
%TO.C,D31*%
X219449972Y-100664822D02*
X219449972Y-95864822D01*
X219449972Y-100664822D02*
X221849972Y-100664822D01*
X219449972Y-95864822D02*
X221849972Y-95864822D01*
X221849972Y-95864822D02*
X221849972Y-100664822D01*
%TO.C,D44*%
X200449972Y-114864822D02*
X202849972Y-114864822D01*
X200449972Y-119664822D02*
X202849972Y-119664822D01*
X202849972Y-114864822D02*
X202849972Y-119664822D01*
X200449972Y-119664822D02*
X200449972Y-114864822D01*
%TO.C,R53*%
X111162472Y-101664822D02*
X111162472Y-105024822D01*
X109262472Y-105024822D02*
X109262472Y-101664822D01*
X109262472Y-101664822D02*
X111162472Y-101664822D01*
X111162472Y-105024822D02*
X109262472Y-105024822D01*
%TO.C,R33*%
X199679972Y-141534822D02*
X199679972Y-142474822D01*
X197819972Y-142474822D02*
X197819972Y-141534822D01*
X197819972Y-141534822D02*
X199679972Y-141534822D01*
X199679972Y-142474822D02*
X197819972Y-142474822D01*
%TO.C,D69*%
X198749972Y-156864822D02*
X198749972Y-161664822D01*
X196349972Y-161664822D02*
X198749972Y-161664822D01*
X196349972Y-161664822D02*
X196349972Y-156864822D01*
X196349972Y-156864822D02*
X198749972Y-156864822D01*
%TO.C,R35*%
X235819972Y-142474822D02*
X235819972Y-141534822D01*
X237679972Y-141534822D02*
X237679972Y-142474822D01*
X235819972Y-141534822D02*
X237679972Y-141534822D01*
X237679972Y-142474822D02*
X235819972Y-142474822D01*
%TO.C,R32*%
X177079972Y-149837322D02*
X175219972Y-149837322D01*
X177079972Y-148897322D02*
X177079972Y-149837322D01*
X175219972Y-149837322D02*
X175219972Y-148897322D01*
X175219972Y-148897322D02*
X177079972Y-148897322D01*
D11*
%TO.C,D22*%
X238674972Y-144764822D02*
X235874972Y-144764822D01*
X235874972Y-144764822D02*
X235874972Y-146764822D01*
X238674972Y-146764822D02*
X238674972Y-144764822D01*
X235874972Y-146764822D02*
X238674972Y-146764822D01*
D10*
%TO.C,R79*%
X243619972Y-139482322D02*
X245479972Y-139482322D01*
X245479972Y-140422322D02*
X243619972Y-140422322D01*
X245479972Y-139482322D02*
X245479972Y-140422322D01*
X243619972Y-140422322D02*
X243619972Y-139482322D01*
%TO.C,D63*%
X299262472Y-152864822D02*
X299262472Y-157664822D01*
X296862472Y-152864822D02*
X299262472Y-152864822D01*
X296862472Y-157664822D02*
X299262472Y-157664822D01*
X296862472Y-157664822D02*
X296862472Y-152864822D01*
%TO.C,R15*%
X275079972Y-102334822D02*
X276019972Y-102334822D01*
X276019972Y-104194822D02*
X275079972Y-104194822D01*
X276019972Y-102334822D02*
X276019972Y-104194822D01*
X275079972Y-104194822D02*
X275079972Y-102334822D01*
D11*
%TO.C,D7*%
X231549972Y-108764822D02*
X231549972Y-106764822D01*
X228749972Y-106764822D02*
X228749972Y-108764822D01*
X231549972Y-106764822D02*
X228749972Y-106764822D01*
X228749972Y-108764822D02*
X231549972Y-108764822D01*
D10*
%TO.C,R57*%
X287619972Y-125334822D02*
X287619972Y-124394822D01*
X287619972Y-124394822D02*
X289479972Y-124394822D01*
X289479972Y-125334822D02*
X287619972Y-125334822D01*
X289479972Y-124394822D02*
X289479972Y-125334822D01*
%TO.C,R88*%
X111637472Y-161744822D02*
X109737472Y-161744822D01*
X111637472Y-158384822D02*
X111637472Y-161744822D01*
X109737472Y-158384822D02*
X111637472Y-158384822D01*
X109737472Y-161744822D02*
X109737472Y-158384822D01*
D11*
%TO.C,D9*%
X190749972Y-108764822D02*
X193549972Y-108764822D01*
X193549972Y-108764822D02*
X193549972Y-106764822D01*
X190749972Y-106764822D02*
X190749972Y-108764822D01*
X193549972Y-106764822D02*
X190749972Y-106764822D01*
D10*
%TO.C,C22*%
X290209972Y-108574822D02*
X289289972Y-108574822D01*
X289289972Y-108574822D02*
X289289972Y-106754822D01*
X289289972Y-106754822D02*
X290209972Y-106754822D01*
X290209972Y-106754822D02*
X290209972Y-108574822D01*
%TO.C,R9*%
X167379972Y-125534823D02*
X168319972Y-125534823D01*
X168319972Y-127394823D02*
X167379972Y-127394823D01*
X167379972Y-127394823D02*
X167379972Y-125534823D01*
X168319972Y-125534823D02*
X168319972Y-127394823D01*
%TO.C,R36*%
X245419972Y-144874822D02*
X245419972Y-146734822D01*
X244479972Y-146734822D02*
X244479972Y-144874822D01*
X245419972Y-146734822D02*
X244479972Y-146734822D01*
X244479972Y-144874822D02*
X245419972Y-144874822D01*
%TO.C,FB2*%
X264999972Y-103714822D02*
X264999972Y-107214822D01*
X263299972Y-107214822D02*
X263299972Y-103714822D01*
X264999972Y-107214822D02*
X263299972Y-107214822D01*
X263299972Y-103714822D02*
X264999972Y-103714822D01*
%TO.C,C43*%
X285009972Y-144924822D02*
X285009972Y-146744822D01*
X285009972Y-146744822D02*
X284089972Y-146744822D01*
X284089972Y-146744822D02*
X284089972Y-144924822D01*
X284089972Y-144924822D02*
X285009972Y-144924822D01*
%TO.C,D45*%
X181449972Y-119664822D02*
X181449972Y-114864822D01*
X181449972Y-114864822D02*
X183849972Y-114864822D01*
X181449972Y-119664822D02*
X183849972Y-119664822D01*
X183849972Y-114864822D02*
X183849972Y-119664822D01*
%TO.C,MH4*%
X299399972Y-126764822D02*
G75*
G03*
X299399972Y-126764822I-2750000J0D01*
G01*
%TO.C,D61*%
X106862472Y-138664822D02*
X109262472Y-138664822D01*
X106862472Y-138664822D02*
X106862472Y-133864822D01*
X106862472Y-133864822D02*
X109262472Y-133864822D01*
X109262472Y-133864822D02*
X109262472Y-138664822D01*
%TO.C,D30*%
X236849972Y-100664822D02*
X239249972Y-100664822D01*
X239249972Y-95864822D02*
X239249972Y-100664822D01*
X236849972Y-100664822D02*
X236849972Y-95864822D01*
X236849972Y-95864822D02*
X239249972Y-95864822D01*
%TO.C,D67*%
X237274972Y-157664822D02*
X237274972Y-152864822D01*
X239674972Y-152864822D02*
X239674972Y-157664822D01*
X237274972Y-157664822D02*
X239674972Y-157664822D01*
X237274972Y-152864822D02*
X239674972Y-152864822D01*
%TO.C,D53*%
X256269972Y-138664822D02*
X258669972Y-138664822D01*
X256269972Y-138664822D02*
X256269972Y-133864822D01*
X258669972Y-133864822D02*
X258669972Y-138664822D01*
X256269972Y-133864822D02*
X258669972Y-133864822D01*
%TO.C,D62*%
X104049972Y-133864822D02*
X106449972Y-133864822D01*
X106449972Y-133864822D02*
X106449972Y-138664822D01*
X104049972Y-138664822D02*
X104049972Y-133864822D01*
X104049972Y-138664822D02*
X106449972Y-138664822D01*
%TO.C,D73*%
X106862472Y-157664822D02*
X106862472Y-152864822D01*
X106862472Y-152864822D02*
X109262472Y-152864822D01*
X106862472Y-157664822D02*
X109262472Y-157664822D01*
X109262472Y-152864822D02*
X109262472Y-157664822D01*
%TO.C,R73*%
X188818072Y-142544822D02*
X186918072Y-142544822D01*
X188818072Y-139184822D02*
X188818072Y-142544822D01*
X186918072Y-142544822D02*
X186918072Y-139184822D01*
X186918072Y-139184822D02*
X188818072Y-139184822D01*
%TO.C,C14*%
X176189972Y-126224821D02*
X177109972Y-126224821D01*
X176189972Y-128044821D02*
X176189972Y-126224821D01*
X177109972Y-128044821D02*
X176189972Y-128044821D01*
X177109972Y-126224821D02*
X177109972Y-128044821D01*
%TO.C,D56*%
X202849972Y-133864822D02*
X202849972Y-138664822D01*
X200449972Y-138664822D02*
X202849972Y-138664822D01*
X200449972Y-133864822D02*
X202849972Y-133864822D01*
X200449972Y-138664822D02*
X200449972Y-133864822D01*
%TO.C,D37*%
X107949972Y-92264822D02*
X110349972Y-92264822D01*
X107949972Y-97064822D02*
X110349972Y-97064822D01*
X110349972Y-92264822D02*
X110349972Y-97064822D01*
X107949972Y-97064822D02*
X107949972Y-92264822D01*
%TO.C,C20*%
X295209952Y-115494822D02*
X294289952Y-115494822D01*
X295209952Y-113674822D02*
X295209952Y-115494822D01*
X294289952Y-113674822D02*
X295209952Y-113674822D01*
X294289952Y-115494822D02*
X294289952Y-113674822D01*
%TO.C,R72*%
X207499972Y-142544822D02*
X205599972Y-142544822D01*
X207499972Y-139184822D02*
X207499972Y-142544822D01*
X205599972Y-139184822D02*
X207499972Y-139184822D01*
X205599972Y-142544822D02*
X205599972Y-139184822D01*
%TO.C,R1*%
X262132472Y-126444822D02*
X263992472Y-126444822D01*
X262132472Y-127384822D02*
X262132472Y-126444822D01*
X263992472Y-126444822D02*
X263992472Y-127384822D01*
X263992472Y-127384822D02*
X262132472Y-127384822D01*
%TO.C,R46*%
X260769972Y-91914822D02*
X264129972Y-91914822D01*
X260769972Y-93814822D02*
X260769972Y-91914822D01*
X264129972Y-93814822D02*
X260769972Y-93814822D01*
X264129972Y-91914822D02*
X264129972Y-93814822D01*
%TO.C,C2*%
X272489972Y-138879822D02*
X273409972Y-138879822D01*
X273409972Y-140699822D02*
X272489972Y-140699822D01*
X273409972Y-138879822D02*
X273409972Y-140699822D01*
X272489972Y-140699822D02*
X272489972Y-138879822D01*
%TO.C,R91*%
X252499972Y-160944822D02*
X252499972Y-157584822D01*
X252499972Y-157584822D02*
X254399972Y-157584822D01*
X254399972Y-160944822D02*
X252499972Y-160944822D01*
X254399972Y-157584822D02*
X254399972Y-160944822D01*
%TO.C,D42*%
X240849972Y-114864822D02*
X240849972Y-119664822D01*
X238449972Y-119664822D02*
X238449972Y-114864822D01*
X238449972Y-114864822D02*
X240849972Y-114864822D01*
X238449972Y-119664822D02*
X240849972Y-119664822D01*
D11*
%TO.C,D19*%
X178112472Y-146764822D02*
X178112472Y-144764822D01*
X175312472Y-146764822D02*
X178112472Y-146764822D01*
X175312472Y-144764822D02*
X175312472Y-146764822D01*
X178112472Y-144764822D02*
X175312472Y-144764822D01*
D10*
%TO.C,MH2*%
X261399972Y-107764822D02*
G75*
G03*
X261399972Y-107764822I-2750000J0D01*
G01*
%TO.C,R75*%
X148599972Y-139184822D02*
X150499972Y-139184822D01*
X150499972Y-139184822D02*
X150499972Y-142544822D01*
X148599972Y-142544822D02*
X148599972Y-139184822D01*
X150499972Y-142544822D02*
X148599972Y-142544822D01*
%TO.C,D1*%
X185649972Y-125934821D02*
X185649972Y-128334821D01*
X180849972Y-125934821D02*
X180849972Y-128334821D01*
X180849972Y-125934821D02*
X185649972Y-125934821D01*
X185649972Y-128334821D02*
X180849972Y-128334821D01*
%TO.C,R40*%
X295219952Y-115854822D02*
X295219952Y-117714822D01*
X294279952Y-117714822D02*
X294279952Y-115854822D01*
X295219952Y-117714822D02*
X294279952Y-117714822D01*
X294279952Y-115854822D02*
X295219952Y-115854822D01*
%TO.C,D70*%
X162449972Y-152864822D02*
X164849972Y-152864822D01*
X164849972Y-152864822D02*
X164849972Y-157664822D01*
X162449972Y-157664822D02*
X164849972Y-157664822D01*
X162449972Y-157664822D02*
X162449972Y-152864822D01*
%TO.C,R31*%
X150419972Y-144874822D02*
X150419972Y-146734822D01*
X150419972Y-146734822D02*
X149479972Y-146734822D01*
X149479972Y-144874822D02*
X150419972Y-144874822D01*
X149479972Y-146734822D02*
X149479972Y-144874822D01*
%TO.C,Q2*%
X180689972Y-128634822D02*
X176849972Y-128634822D01*
X180689972Y-132034822D02*
X180689972Y-128634822D01*
X176849972Y-132034822D02*
X180689972Y-132034822D01*
X176849972Y-128634822D02*
X176849972Y-132034822D01*
%TO.C,R52*%
X130162472Y-105024822D02*
X128262472Y-105024822D01*
X130162472Y-101664822D02*
X130162472Y-105024822D01*
X128262472Y-101664822D02*
X130162472Y-101664822D01*
X128262472Y-105024822D02*
X128262472Y-101664822D01*
%TO.C,U5*%
X295649952Y-116814822D02*
X297849952Y-116814822D01*
X297849952Y-114114822D02*
X295649952Y-114114822D01*
X297849952Y-114114822D02*
X297849952Y-116814822D01*
X295649952Y-116814822D02*
X295649952Y-114114822D01*
%TO.C,R21*%
X214679972Y-106794821D02*
X215619972Y-106794821D01*
X215619972Y-108654821D02*
X214679972Y-108654821D01*
X214679972Y-108654821D02*
X214679972Y-106794821D01*
X215619972Y-106794821D02*
X215619972Y-108654821D01*
%TO.C,R7*%
X174799972Y-128064821D02*
X174799972Y-126204821D01*
X175739972Y-128064821D02*
X174799972Y-128064821D01*
X175739972Y-126204821D02*
X175739972Y-128064821D01*
X174799972Y-126204821D02*
X175739972Y-126204821D01*
%TO.C,U3*%
X236819972Y-124064822D02*
X244279972Y-124064822D01*
X236819972Y-124064822D02*
X236819972Y-129464822D01*
X244279972Y-124064822D02*
X244279972Y-129464822D01*
X236819972Y-129464822D02*
X244279972Y-129464822D01*
%TO.C,C13*%
X245189972Y-124154822D02*
X246109972Y-124154822D01*
X246109972Y-125974822D02*
X245189972Y-125974822D01*
X246109972Y-124154822D02*
X246109972Y-125974822D01*
X245189972Y-125974822D02*
X245189972Y-124154822D01*
%TO.C,C6*%
X261119972Y-138424822D02*
X259019972Y-138424822D01*
X259019972Y-138424822D02*
X259019972Y-133464822D01*
X261119972Y-133464822D02*
X261119972Y-138424822D01*
X259019972Y-133464822D02*
X261119972Y-133464822D01*
%TO.C,R61*%
X185262472Y-123694822D02*
X185262472Y-120334822D01*
X187162472Y-120334822D02*
X187162472Y-123694822D01*
X185262472Y-120334822D02*
X187162472Y-120334822D01*
X187162472Y-123694822D02*
X185262472Y-123694822D01*
%TO.C,D64*%
X289149972Y-152464822D02*
X286749972Y-152464822D01*
X286749972Y-152464822D02*
X286749972Y-147664822D01*
X289149972Y-147664822D02*
X286749972Y-147664822D01*
X289149972Y-147664822D02*
X289149972Y-152464822D01*
%TO.C,R84*%
X187779972Y-160934822D02*
X185919972Y-160934822D01*
X187779972Y-159994822D02*
X187779972Y-160934822D01*
X185919972Y-160934822D02*
X185919972Y-159994822D01*
X185919972Y-159994822D02*
X187779972Y-159994822D01*
%TO.C,R77*%
X123037472Y-138147322D02*
X123037472Y-141507322D01*
X123037472Y-141507322D02*
X121137472Y-141507322D01*
X121137472Y-141507322D02*
X121137472Y-138147322D01*
X121137472Y-138147322D02*
X123037472Y-138147322D01*
%TO.C,R37*%
X271589972Y-146474822D02*
X271589972Y-144614822D01*
X272529972Y-144614822D02*
X272529972Y-146474822D01*
X272529972Y-146474822D02*
X271589972Y-146474822D01*
X271589972Y-144614822D02*
X272529972Y-144614822D01*
%TO.C,D58*%
X162449972Y-138664822D02*
X162449972Y-133864822D01*
X164849972Y-133864822D02*
X164849972Y-138664822D01*
X162449972Y-138664822D02*
X164849972Y-138664822D01*
X162449972Y-133864822D02*
X164849972Y-133864822D01*
%TO.C,Q1*%
X168929972Y-124564822D02*
X168929972Y-127964822D01*
X172769972Y-127964822D02*
X172769972Y-124564822D01*
X168929972Y-127964822D02*
X172769972Y-127964822D01*
X172769972Y-124564822D02*
X168929972Y-124564822D01*
%TO.C,C11*%
X282352472Y-122324822D02*
X282352472Y-121404822D01*
X284172472Y-121404822D02*
X284172472Y-122324822D01*
X284172472Y-122324822D02*
X282352472Y-122324822D01*
X282352472Y-121404822D02*
X284172472Y-121404822D01*
%TO.C,R13*%
X95869972Y-127114823D02*
X99229972Y-127114823D01*
X95869972Y-129014823D02*
X95869972Y-127114823D01*
X99229972Y-129014823D02*
X95869972Y-129014823D01*
X99229972Y-127114823D02*
X99229972Y-129014823D01*
%TO.C,C24*%
X252209972Y-108604822D02*
X251289972Y-108604822D01*
X251289972Y-108604822D02*
X251289972Y-106784822D01*
X251289972Y-106784822D02*
X252209972Y-106784822D01*
X252209972Y-106784822D02*
X252209972Y-108604822D01*
D11*
%TO.C,D17*%
X133749972Y-146764822D02*
X136549972Y-146764822D01*
X133749972Y-144764822D02*
X133749972Y-146764822D01*
X136549972Y-144764822D02*
X133749972Y-144764822D01*
X136549972Y-146764822D02*
X136549972Y-144764822D01*
D10*
%TO.C,D41*%
X257449972Y-113864822D02*
X259849972Y-113864822D01*
X257449972Y-118664822D02*
X257449972Y-113864822D01*
X257449972Y-118664822D02*
X259849972Y-118664822D01*
X259849972Y-113864822D02*
X259849972Y-118664822D01*
%TO.C,R55*%
X255399972Y-105744822D02*
X253499972Y-105744822D01*
X255399972Y-102384822D02*
X255399972Y-105744822D01*
X253499972Y-102384822D02*
X255399972Y-102384822D01*
X253499972Y-105744822D02*
X253499972Y-102384822D01*
%TO.C,MH3*%
X147399972Y-107764822D02*
G75*
G03*
X147399972Y-107764822I-2750000J0D01*
G01*
%TO.C,D68*%
X215349972Y-161664822D02*
X217749972Y-161664822D01*
X215349972Y-161664822D02*
X215349972Y-156864822D01*
X215349972Y-156864822D02*
X217749972Y-156864822D01*
X217749972Y-156864822D02*
X217749972Y-161664822D01*
%TO.C,R8*%
X174199972Y-126204821D02*
X174199972Y-128064821D01*
X173259972Y-126204821D02*
X174199972Y-126204821D01*
X174199972Y-128064821D02*
X173259972Y-128064821D01*
X173259972Y-128064821D02*
X173259972Y-126204821D01*
D11*
%TO.C,X2*%
X300091972Y-123616822D02*
X300091972Y-129712822D01*
X300091972Y-123616822D02*
X313807972Y-123616822D01*
X313807972Y-129712822D02*
X300091972Y-129712822D01*
X313807972Y-129712822D02*
X313807972Y-123616822D01*
D10*
%TO.C,C7*%
X277839972Y-133884822D02*
X279659972Y-133884822D01*
X279659972Y-133884822D02*
X279659972Y-134804822D01*
X279659972Y-134804822D02*
X277839972Y-134804822D01*
X277839972Y-134804822D02*
X277839972Y-133884822D01*
%TO.C,C37*%
X175239972Y-148494822D02*
X175239972Y-147574822D01*
X177059972Y-147574822D02*
X177059972Y-148494822D01*
X177059972Y-148494822D02*
X175239972Y-148494822D01*
X175239972Y-147574822D02*
X177059972Y-147574822D01*
%TO.C,R4*%
X274979973Y-117744824D02*
X274979973Y-115884824D01*
X275919973Y-117744824D02*
X274979973Y-117744824D01*
X274979973Y-115884824D02*
X275919973Y-115884824D01*
X275919973Y-115884824D02*
X275919973Y-117744824D01*
%TO.C,R80*%
X100599972Y-139984822D02*
X102499972Y-139984822D01*
X100599972Y-143344822D02*
X100599972Y-139984822D01*
X102499972Y-139984822D02*
X102499972Y-143344822D01*
X102499972Y-143344822D02*
X100599972Y-143344822D01*
%TO.C,D28*%
X296549972Y-95944822D02*
X296549972Y-100744822D01*
X294149972Y-100744822D02*
X294149972Y-95944822D01*
X294149972Y-100744822D02*
X296549972Y-100744822D01*
X294149972Y-95944822D02*
X296549972Y-95944822D01*
%TO.C,C38*%
X197839972Y-144094822D02*
X197839972Y-143174822D01*
X199659972Y-143174822D02*
X199659972Y-144094822D01*
X197839972Y-143174822D02*
X199659972Y-143174822D01*
X199659972Y-144094822D02*
X197839972Y-144094822D01*
%TO.C,C30*%
X137289972Y-106784822D02*
X138209972Y-106784822D01*
X138209972Y-108604822D02*
X137289972Y-108604822D01*
X137289972Y-108604822D02*
X137289972Y-106784822D01*
X138209972Y-106784822D02*
X138209972Y-108604822D01*
%TO.C,D72*%
X124449972Y-156477322D02*
X126849972Y-156477322D01*
X124449972Y-151677322D02*
X126849972Y-151677322D01*
X126849972Y-151677322D02*
X126849972Y-156477322D01*
X124449972Y-156477322D02*
X124449972Y-151677322D01*
D11*
%TO.C,D16*%
X117549972Y-144764822D02*
X114749972Y-144764822D01*
X114749972Y-144764822D02*
X114749972Y-146764822D01*
X114749972Y-146764822D02*
X117549972Y-146764822D01*
X117549972Y-146764822D02*
X117549972Y-144764822D01*
D10*
%TO.C,U4*%
X114949972Y-124714822D02*
X111149972Y-124714822D01*
X111149972Y-128314822D02*
X114949972Y-128314822D01*
X114949972Y-128314822D02*
X114949972Y-124714822D01*
X111149972Y-124714822D02*
X111149972Y-128314822D01*
%TO.C,SW2*%
X255899972Y-104007662D02*
X261599972Y-104007662D01*
X261599972Y-95507662D02*
X255899972Y-95507662D01*
X255899972Y-95507662D02*
X255899972Y-104007662D01*
X261599972Y-104007662D02*
X261599972Y-95507662D01*
%TO.C,R63*%
X149162472Y-123694822D02*
X147262472Y-123694822D01*
X149162472Y-120334822D02*
X149162472Y-123694822D01*
X147262472Y-123694822D02*
X147262472Y-120334822D01*
X147262472Y-120334822D02*
X149162472Y-120334822D01*
%TO.C,C23*%
X270289972Y-108604822D02*
X270289972Y-106784822D01*
X270289972Y-106784822D02*
X271209972Y-106784822D01*
X271209972Y-106784822D02*
X271209972Y-108604822D01*
X271209972Y-108604822D02*
X270289972Y-108604822D01*
%TO.C,D29*%
X240049972Y-100664822D02*
X242449972Y-100664822D01*
X240049972Y-100664822D02*
X240049972Y-95864822D01*
X240049972Y-95864822D02*
X242449972Y-95864822D01*
X242449972Y-95864822D02*
X242449972Y-100664822D01*
%TO.C,C29*%
X156289972Y-108604822D02*
X156289972Y-106784822D01*
X157209972Y-108604822D02*
X156289972Y-108604822D01*
X157209972Y-106784822D02*
X157209972Y-108604822D01*
X156289972Y-106784822D02*
X157209972Y-106784822D01*
%TO.C,R11*%
X280079972Y-103134822D02*
X281019972Y-103134822D01*
X281019972Y-104994822D02*
X280079972Y-104994822D01*
X281019972Y-103134822D02*
X281019972Y-104994822D01*
X280079972Y-104994822D02*
X280079972Y-103134822D01*
%TO.C,D36*%
X124449972Y-100664822D02*
X126849972Y-100664822D01*
X124449972Y-100664822D02*
X124449972Y-95864822D01*
X126849972Y-95864822D02*
X126849972Y-100664822D01*
X124449972Y-95864822D02*
X126849972Y-95864822D01*
%TO.C,MH5*%
X147399972Y-145764822D02*
G75*
G03*
X147399972Y-145764822I-2750000J0D01*
G01*
D11*
%TO.C,D10*%
X174514972Y-106764822D02*
X171714972Y-106764822D01*
X174514972Y-108764822D02*
X174514972Y-106764822D01*
X171714972Y-106764822D02*
X171714972Y-108764822D01*
X171714972Y-108764822D02*
X174514972Y-108764822D01*
D10*
%TO.C,R25*%
X138679972Y-106794821D02*
X139619972Y-106794821D01*
X139619972Y-108654821D02*
X138679972Y-108654821D01*
X138679972Y-108654821D02*
X138679972Y-106794821D01*
X139619972Y-106794821D02*
X139619972Y-108654821D01*
%TO.C,D34*%
X164849972Y-95864822D02*
X164849972Y-100664822D01*
X162449972Y-100664822D02*
X164849972Y-100664822D01*
X162449972Y-100664822D02*
X162449972Y-95864822D01*
X162449972Y-95864822D02*
X164849972Y-95864822D01*
%TO.C,R44*%
X301019972Y-113194822D02*
X300079972Y-113194822D01*
X301019972Y-111334822D02*
X301019972Y-113194822D01*
X300079972Y-113194822D02*
X300079972Y-111334822D01*
X300079972Y-111334822D02*
X301019972Y-111334822D01*
%TO.C,D74*%
X104049972Y-157664822D02*
X106449972Y-157664822D01*
X106449972Y-152864822D02*
X106449972Y-157664822D01*
X104049972Y-152864822D02*
X106449972Y-152864822D01*
X104049972Y-157664822D02*
X104049972Y-152864822D01*
%TO.C,C5*%
X271089972Y-138949822D02*
X271089972Y-137129822D01*
X272009972Y-137129822D02*
X272009972Y-138949822D01*
X271089972Y-137129822D02*
X272009972Y-137129822D01*
X272009972Y-138949822D02*
X271089972Y-138949822D01*
%TO.C,C31*%
X118289972Y-108604822D02*
X118289972Y-106784822D01*
X118289972Y-106784822D02*
X119209972Y-106784822D01*
X119209972Y-108604822D02*
X118289972Y-108604822D01*
X119209972Y-106784822D02*
X119209972Y-108604822D01*
%TO.C,Q4*%
X303811972Y-109569645D02*
X303811972Y-105729645D01*
X300411972Y-109569645D02*
X303811972Y-109569645D01*
X300411972Y-105729645D02*
X300411972Y-109569645D01*
X303811972Y-105729645D02*
X300411972Y-105729645D01*
%TO.C,C41*%
X246089972Y-146744822D02*
X246089972Y-144924822D01*
X247009972Y-146744822D02*
X246089972Y-146744822D01*
X246089972Y-144924822D02*
X247009972Y-144924822D01*
X247009972Y-144924822D02*
X247009972Y-146744822D01*
%TO.C,D27*%
X296749972Y-100744822D02*
X299149972Y-100744822D01*
X296749972Y-95944822D02*
X299149972Y-95944822D01*
X299149972Y-95944822D02*
X299149972Y-100744822D01*
X296749972Y-100744822D02*
X296749972Y-95944822D01*
%TO.C,R45*%
X291999972Y-91464822D02*
X293899972Y-91464822D01*
X293899972Y-91464822D02*
X293899972Y-94824822D01*
X293899972Y-94824822D02*
X291999972Y-94824822D01*
X291999972Y-94824822D02*
X291999972Y-91464822D01*
%TO.C,R83*%
X204919972Y-159994822D02*
X206779972Y-159994822D01*
X206779972Y-159994822D02*
X206779972Y-160934822D01*
X204919972Y-160934822D02*
X204919972Y-159994822D01*
X206779972Y-160934822D02*
X204919972Y-160934822D01*
%TO.C,C26*%
X213289972Y-106784822D02*
X214209972Y-106784822D01*
X214209972Y-106784822D02*
X214209972Y-108604822D01*
X213289972Y-108604822D02*
X213289972Y-106784822D01*
X214209972Y-108604822D02*
X213289972Y-108604822D01*
%TO.C,D66*%
X242474972Y-152864822D02*
X242474972Y-157664822D01*
X240074972Y-157664822D02*
X242474972Y-157664822D01*
X240074972Y-152864822D02*
X242474972Y-152864822D01*
X240074972Y-157664822D02*
X240074972Y-152864822D01*
D11*
%TO.C,D5*%
X269549972Y-106764822D02*
X266749972Y-106764822D01*
X266749972Y-108764822D02*
X269549972Y-108764822D01*
X266749972Y-106764822D02*
X266749972Y-108764822D01*
X269549972Y-108764822D02*
X269549972Y-106764822D01*
D10*
%TO.C,R64*%
X130162472Y-123694822D02*
X128262472Y-123694822D01*
X130162472Y-120334822D02*
X130162472Y-123694822D01*
X128262472Y-120334822D02*
X130162472Y-120334822D01*
X128262472Y-123694822D02*
X128262472Y-120334822D01*
%TO.C,U2*%
X275849974Y-105844821D02*
X275849974Y-109644821D01*
X275849974Y-109644821D02*
X279449974Y-109644821D01*
X279449974Y-109644821D02*
X279449974Y-105844821D01*
X279449974Y-105844821D02*
X275849974Y-105844821D01*
%TO.C,D46*%
X162449972Y-119664822D02*
X162449972Y-114864822D01*
X162449972Y-119664822D02*
X164849972Y-119664822D01*
X164849972Y-114864822D02*
X164849972Y-119664822D01*
X162449972Y-114864822D02*
X164849972Y-114864822D01*
%TO.C,D38*%
X105149972Y-97064822D02*
X107549972Y-97064822D01*
X107549972Y-92264822D02*
X107549972Y-97064822D01*
X105149972Y-92264822D02*
X107549972Y-92264822D01*
X105149972Y-97064822D02*
X105149972Y-92264822D01*
D11*
%TO.C,D11*%
X152749972Y-108764822D02*
X155549972Y-108764822D01*
X155549972Y-108764822D02*
X155549972Y-106764822D01*
X152749972Y-106764822D02*
X152749972Y-108764822D01*
X155549972Y-106764822D02*
X152749972Y-106764822D01*
D10*
%TO.C,R59*%
X225892472Y-122964822D02*
X222532472Y-122964822D01*
X225892472Y-121064822D02*
X225892472Y-122964822D01*
X222532472Y-122964822D02*
X222532472Y-121064822D01*
X222532472Y-121064822D02*
X225892472Y-121064822D01*
D11*
%TO.C,D15*%
X98549972Y-146764822D02*
X98549972Y-144764822D01*
X95749972Y-146764822D02*
X98549972Y-146764822D01*
X95749972Y-144764822D02*
X95749972Y-146764822D01*
X98549972Y-144764822D02*
X95749972Y-144764822D01*
D10*
%TO.C,R68*%
X92162472Y-123694822D02*
X90262472Y-123694822D01*
X90262472Y-123694822D02*
X90262472Y-120334822D01*
X90262472Y-120334822D02*
X92162472Y-120334822D01*
X92162472Y-120334822D02*
X92162472Y-123694822D01*
%TO.C,D51*%
X299949972Y-133464822D02*
X299949972Y-138264822D01*
X297549972Y-138264822D02*
X297549972Y-133464822D01*
X297549972Y-133464822D02*
X299949972Y-133464822D01*
X297549972Y-138264822D02*
X299949972Y-138264822D01*
%TO.C,C27*%
X195209972Y-106784822D02*
X195209972Y-108604822D01*
X194289972Y-106784822D02*
X195209972Y-106784822D01*
X195209972Y-108604822D02*
X194289972Y-108604822D01*
X194289972Y-108604822D02*
X194289972Y-106784822D01*
%TO.C,R6*%
X178519972Y-126204820D02*
X178519972Y-128064820D01*
X178519972Y-128064820D02*
X177579972Y-128064820D01*
X177579972Y-128064820D02*
X177579972Y-126204820D01*
X177579972Y-126204820D02*
X178519972Y-126204820D01*
%TO.C,C10*%
X281239972Y-138924822D02*
X281239972Y-138004822D01*
X283059972Y-138004822D02*
X283059972Y-138924822D01*
X283059972Y-138924822D02*
X281239972Y-138924822D01*
X281239972Y-138004822D02*
X283059972Y-138004822D01*
%TO.C,D57*%
X181449972Y-133864822D02*
X183849972Y-133864822D01*
X181449972Y-138664822D02*
X183849972Y-138664822D01*
X183849972Y-133864822D02*
X183849972Y-138664822D01*
X181449972Y-138664822D02*
X181449972Y-133864822D01*
%TO.C,C4*%
X273939972Y-120874822D02*
X273019972Y-120874822D01*
X273019972Y-119054822D02*
X273939972Y-119054822D01*
X273019972Y-120874822D02*
X273019972Y-119054822D01*
X273939972Y-119054822D02*
X273939972Y-120874822D01*
%TO.C,R81*%
X294229972Y-161327322D02*
X290869972Y-161327322D01*
X290869972Y-159427322D02*
X294229972Y-159427322D01*
X294229972Y-159427322D02*
X294229972Y-161327322D01*
X290869972Y-161327322D02*
X290869972Y-159427322D01*
%TO.C,C1*%
X269739972Y-130424822D02*
X269739972Y-129504822D01*
X271559972Y-130424822D02*
X269739972Y-130424822D01*
X271559972Y-129504822D02*
X271559972Y-130424822D01*
X269739972Y-129504822D02*
X271559972Y-129504822D01*
%TO.C,C35*%
X133009972Y-144924822D02*
X133009972Y-146744822D01*
X133009972Y-146744822D02*
X132089972Y-146744822D01*
X132089972Y-146744822D02*
X132089972Y-144924822D01*
X132089972Y-144924822D02*
X133009972Y-144924822D01*
%TO.C,D59*%
X144849972Y-138664822D02*
X147249972Y-138664822D01*
X144849972Y-133864822D02*
X147249972Y-133864822D01*
X144849972Y-138664822D02*
X144849972Y-133864822D01*
X147249972Y-133864822D02*
X147249972Y-138664822D01*
D11*
%TO.C,D21*%
X216874972Y-146764822D02*
X219674972Y-146764822D01*
X219674972Y-144764822D02*
X216874972Y-144764822D01*
X216874972Y-144764822D02*
X216874972Y-146764822D01*
X219674972Y-146764822D02*
X219674972Y-144764822D01*
D10*
%TO.C,R17*%
X290879972Y-108594822D02*
X290879972Y-106734822D01*
X291819972Y-106734822D02*
X291819972Y-108594822D01*
X290879972Y-106734822D02*
X291819972Y-106734822D01*
X291819972Y-108594822D02*
X290879972Y-108594822D01*
%TO.C,R49*%
X187162472Y-101664822D02*
X187162472Y-105024822D01*
X185262472Y-101664822D02*
X187162472Y-101664822D01*
X185262472Y-105024822D02*
X185262472Y-101664822D01*
X187162472Y-105024822D02*
X185262472Y-105024822D01*
%TO.C,R58*%
X265239921Y-121590091D02*
X264575241Y-122254771D01*
X263924703Y-120274873D02*
X265239921Y-121590091D01*
X263260023Y-120939553D02*
X263924703Y-120274873D01*
X264575241Y-122254771D02*
X263260023Y-120939553D01*
%TO.C,C21*%
X310194972Y-106704822D02*
X310194972Y-108524822D01*
X309274972Y-106704822D02*
X310194972Y-106704822D01*
X310194972Y-108524822D02*
X309274972Y-108524822D01*
X309274972Y-108524822D02*
X309274972Y-106704822D01*
%TO.C,R30*%
X130479972Y-146734822D02*
X130479972Y-144874822D01*
X130479972Y-144874822D02*
X131419972Y-144874822D01*
X131419972Y-144874822D02*
X131419972Y-146734822D01*
X131419972Y-146734822D02*
X130479972Y-146734822D01*
%TO.C,D54*%
X238449972Y-133864822D02*
X240849972Y-133864822D01*
X238449972Y-138664822D02*
X238449972Y-133864822D01*
X240849972Y-133864822D02*
X240849972Y-138664822D01*
X238449972Y-138664822D02*
X240849972Y-138664822D01*
%TO.C,D71*%
X143449972Y-152864822D02*
X145849972Y-152864822D01*
X143449972Y-157664822D02*
X145849972Y-157664822D01*
X145849972Y-152864822D02*
X145849972Y-157664822D01*
X143449972Y-157664822D02*
X143449972Y-152864822D01*
%TO.C,R42*%
X299509972Y-103394822D02*
X298569972Y-103394822D01*
X299509972Y-101534822D02*
X299509972Y-103394822D01*
X298569972Y-103394822D02*
X298569972Y-101534822D01*
X298569972Y-101534822D02*
X299509972Y-101534822D01*
%TO.C,C42*%
X268459972Y-143374822D02*
X268459972Y-144294822D01*
X266639972Y-144294822D02*
X266639972Y-143374822D01*
X266639972Y-143374822D02*
X268459972Y-143374822D01*
X268459972Y-144294822D02*
X266639972Y-144294822D01*
%TO.C,R92*%
X103324972Y-158384822D02*
X103324972Y-161744822D01*
X103324972Y-161744822D02*
X101424972Y-161744822D01*
X101424972Y-161744822D02*
X101424972Y-158384822D01*
X101424972Y-158384822D02*
X103324972Y-158384822D01*
D11*
%TO.C,D3*%
X305649972Y-108764822D02*
X308449972Y-108764822D01*
X308449972Y-106764822D02*
X305649972Y-106764822D01*
X308449972Y-108764822D02*
X308449972Y-106764822D01*
X305649972Y-106764822D02*
X305649972Y-108764822D01*
D10*
%TO.C,D33*%
X181449972Y-95864822D02*
X183849972Y-95864822D01*
X183849972Y-95864822D02*
X183849972Y-100664822D01*
X181449972Y-100664822D02*
X183849972Y-100664822D01*
X181449972Y-100664822D02*
X181449972Y-95864822D01*
%TO.C,D65*%
X271662472Y-157064822D02*
X274062472Y-157064822D01*
X274062472Y-157064822D02*
X274062472Y-161864822D01*
X271662472Y-161864822D02*
X274062472Y-161864822D01*
X271662472Y-161864822D02*
X271662472Y-157064822D01*
%TO.C,R3*%
X283299972Y-158384822D02*
X283299972Y-161744822D01*
X281399972Y-158384822D02*
X283299972Y-158384822D01*
X283299972Y-161744822D02*
X281399972Y-161744822D01*
X281399972Y-161744822D02*
X281399972Y-158384822D01*
%TO.C,F1*%
X123169973Y-129282322D02*
X120929973Y-129282322D01*
X123169973Y-124722322D02*
X123169973Y-129282322D01*
X120929973Y-124722322D02*
X123169973Y-124722322D01*
X120929973Y-129282322D02*
X120929973Y-124722322D01*
%TO.C,C40*%
X237659972Y-143174822D02*
X237659972Y-144094822D01*
X237659972Y-144094822D02*
X235839972Y-144094822D01*
X235839972Y-143174822D02*
X237659972Y-143174822D01*
X235839972Y-144094822D02*
X235839972Y-143174822D01*
%TO.C,C17*%
X95849972Y-126644822D02*
X95849972Y-124684822D01*
X99249972Y-126644822D02*
X95849972Y-126644822D01*
X99249972Y-124684822D02*
X99249972Y-126644822D01*
X95849972Y-124684822D02*
X99249972Y-124684822D01*
%TO.C,C32*%
X99289972Y-109904822D02*
X99289972Y-108084822D01*
X100209972Y-108084822D02*
X100209972Y-109904822D01*
X100209972Y-109904822D02*
X99289972Y-109904822D01*
X99289972Y-108084822D02*
X100209972Y-108084822D01*
%TO.C,R56*%
X100999972Y-105944822D02*
X100999972Y-102584822D01*
X102899972Y-105944822D02*
X100999972Y-105944822D01*
X100999972Y-102584822D02*
X102899972Y-102584822D01*
X102899972Y-102584822D02*
X102899972Y-105944822D01*
%TO.C,R71*%
X226499972Y-139184822D02*
X226499972Y-142544822D01*
X224599972Y-142544822D02*
X224599972Y-139184822D01*
X224599972Y-139184822D02*
X226499972Y-139184822D01*
X226499972Y-142544822D02*
X224599972Y-142544822D01*
%TO.C,R78*%
X312599972Y-139384822D02*
X312599972Y-142744822D01*
X310699972Y-142744822D02*
X310699972Y-139384822D01*
X310699972Y-139384822D02*
X312599972Y-139384822D01*
X312599972Y-142744822D02*
X310699972Y-142744822D01*
%TO.C,R27*%
X100679972Y-108094821D02*
X101619972Y-108094821D01*
X101619972Y-108094821D02*
X101619972Y-109954821D01*
X101619972Y-109954821D02*
X100679972Y-109954821D01*
X100679972Y-109954821D02*
X100679972Y-108094821D01*
%TO.C,R90*%
X261799972Y-162057322D02*
X261799972Y-158697322D01*
X261799972Y-158697322D02*
X263699972Y-158697322D01*
X263699972Y-158697322D02*
X263699972Y-162057322D01*
X263699972Y-162057322D02*
X261799972Y-162057322D01*
D11*
%TO.C,D24*%
X269549972Y-144764822D02*
X266749972Y-144764822D01*
X266749972Y-146764822D02*
X269549972Y-146764822D01*
X269549972Y-146764822D02*
X269549972Y-144764822D01*
X266749972Y-144764822D02*
X266749972Y-146764822D01*
%TD*%
M02*
