M48
; DRILL file {KiCad 7.0.6-7.0.6~ubuntu22.04.1} date Thu 03 Aug 2023 23:52:24 BST
; FORMAT={-:-/ absolute / metric / decimal}
; #@! TF.CreationDate,2023-08-03T23:52:24+01:00
; #@! TF.GenerationSoftware,Kicad,Pcbnew,7.0.6-7.0.6~ubuntu22.04.1
; #@! TF.FileFunction,MixedPlating,1,2
FMAT,2
METRIC
; #@! TA.AperFunction,Plated,PTH,ViaDrill
T1C0.400
; #@! TA.AperFunction,Plated,PTH,ComponentDrill
T2C1.000
%
G90
G05
T1
X110.5Y-71.5
X110.5Y-74.5
X110.5Y-77.5
X110.5Y-81.0
X110.5Y-84.5
X112.22Y-85.03
X113.0Y-91.0
X114.59Y-73.66
X115.38Y-84.81
X115.45Y-67.21
X118.5Y-91.0
X118.61Y-84.87
X121.5Y-76.0
X123.5Y-91.0
X123.698Y-79.248
X124.0Y-73.0
X124.07Y-70.93
X124.12Y-60.97
X126.5Y-91.0
X127.508Y-79.248
X128.0Y-85.5
X128.0Y-87.5
X128.0Y-89.5
T2
X111.74Y-88.7
X111.8Y-61.8
X111.8Y-64.34
X111.8Y-66.88
X111.8Y-69.42
X114.28Y-88.7
X116.82Y-88.7
X119.36Y-88.7
X127.04Y-61.8
X127.04Y-64.34
X127.04Y-66.88
X127.04Y-69.42
T0
M30
