%TF.GenerationSoftware,KiCad,Pcbnew,7.0.6-7.0.6~ubuntu22.04.1*%
%TF.CreationDate,2023-08-07T15:18:59+01:00*%
%TF.ProjectId,working,776f726b-696e-4672-9e6b-696361645f70,rev?*%
%TF.SameCoordinates,Original*%
%TF.FileFunction,Copper,L2,Bot*%
%TF.FilePolarity,Positive*%
%FSLAX46Y46*%
G04 Gerber Fmt 4.6, Leading zero omitted, Abs format (unit mm)*
G04 Created by KiCad (PCBNEW 7.0.6-7.0.6~ubuntu22.04.1) date 2023-08-07 15:18:59*
%MOMM*%
%LPD*%
G01*
G04 APERTURE LIST*
G04 Aperture macros list*
%AMOutline5P*
0 Free polygon, 5 corners , with rotation*
0 The origin of the aperture is its center*
0 number of corners: always 5*
0 $1 to $10 corner X, Y*
0 $11 Rotation angle, in degrees counterclockwise*
0 create outline with 5 corners*
4,1,5,$1,$2,$3,$4,$5,$6,$7,$8,$9,$10,$1,$2,$11*%
%AMOutline6P*
0 Free polygon, 6 corners , with rotation*
0 The origin of the aperture is its center*
0 number of corners: always 6*
0 $1 to $12 corner X, Y*
0 $13 Rotation angle, in degrees counterclockwise*
0 create outline with 6 corners*
4,1,6,$1,$2,$3,$4,$5,$6,$7,$8,$9,$10,$11,$12,$1,$2,$13*%
%AMOutline7P*
0 Free polygon, 7 corners , with rotation*
0 The origin of the aperture is its center*
0 number of corners: always 7*
0 $1 to $14 corner X, Y*
0 $15 Rotation angle, in degrees counterclockwise*
0 create outline with 7 corners*
4,1,7,$1,$2,$3,$4,$5,$6,$7,$8,$9,$10,$11,$12,$13,$14,$1,$2,$15*%
%AMOutline8P*
0 Free polygon, 8 corners , with rotation*
0 The origin of the aperture is its center*
0 number of corners: always 8*
0 $1 to $16 corner X, Y*
0 $17 Rotation angle, in degrees counterclockwise*
0 create outline with 8 corners*
4,1,8,$1,$2,$3,$4,$5,$6,$7,$8,$9,$10,$11,$12,$13,$14,$15,$16,$1,$2,$17*%
G04 Aperture macros list end*
%ADD10C,0.337820*%
%TA.AperFunction,NonConductor*%
%ADD11C,0.337820*%
%TD*%
%TA.AperFunction,ComponentPad*%
%ADD12Outline8P,-0.939800X0.389278X-0.389278X0.939800X0.389278X0.939800X0.939800X0.389278X0.939800X-0.389278X0.389278X-0.939800X-0.389278X-0.939800X-0.939800X-0.389278X90.000000*%
%TD*%
%TA.AperFunction,ComponentPad*%
%ADD13R,1.879600X1.879600*%
%TD*%
%TA.AperFunction,ComponentPad*%
%ADD14C,1.879600*%
%TD*%
%TA.AperFunction,ComponentPad*%
%ADD15C,1.930400*%
%TD*%
%TA.AperFunction,ViaPad*%
%ADD16C,1.016000*%
%TD*%
%TA.AperFunction,Conductor*%
%ADD17C,0.254000*%
%TD*%
G04 APERTURE END LIST*
D10*
D11*
X162962097Y-108901230D02*
X162962097Y-109175550D01*
X162962097Y-109175550D02*
X162893517Y-109312710D01*
X162893517Y-109312710D02*
X162824937Y-109381290D01*
X162824937Y-109381290D02*
X162619197Y-109518450D01*
X162619197Y-109518450D02*
X162344877Y-109587030D01*
X162344877Y-109587030D02*
X161796237Y-109587030D01*
X161796237Y-109587030D02*
X161659077Y-109518450D01*
X161659077Y-109518450D02*
X161590497Y-109449870D01*
X161590497Y-109449870D02*
X161521917Y-109312710D01*
X161521917Y-109312710D02*
X161521917Y-109038390D01*
X161521917Y-109038390D02*
X161590497Y-108901230D01*
X161590497Y-108901230D02*
X161659077Y-108832650D01*
X161659077Y-108832650D02*
X161796237Y-108764070D01*
X161796237Y-108764070D02*
X162139137Y-108764070D01*
X162139137Y-108764070D02*
X162276297Y-108832650D01*
X162276297Y-108832650D02*
X162344877Y-108901230D01*
X162344877Y-108901230D02*
X162413457Y-109038390D01*
X162413457Y-109038390D02*
X162413457Y-109312710D01*
X162413457Y-109312710D02*
X162344877Y-109449870D01*
X162344877Y-109449870D02*
X162276297Y-109518450D01*
X162276297Y-109518450D02*
X162139137Y-109587030D01*
X162070557Y-108146850D02*
X162070557Y-107049570D01*
X161521917Y-105609390D02*
X161521917Y-106432350D01*
X161521917Y-106020870D02*
X162962097Y-106020870D01*
X162962097Y-106020870D02*
X162756357Y-106158030D01*
X162756357Y-106158030D02*
X162619197Y-106295190D01*
X162619197Y-106295190D02*
X162550617Y-106432350D01*
X162070557Y-104992170D02*
X162070557Y-103894890D01*
X161521917Y-102454710D02*
X161521917Y-103277670D01*
X161521917Y-102866190D02*
X162962097Y-102866190D01*
X162962097Y-102866190D02*
X162756357Y-103003350D01*
X162756357Y-103003350D02*
X162619197Y-103140510D01*
X162619197Y-103140510D02*
X162550617Y-103277670D01*
X161521917Y-101083110D02*
X161521917Y-101906070D01*
X161521917Y-101494590D02*
X162962097Y-101494590D01*
X162962097Y-101494590D02*
X162756357Y-101631750D01*
X162756357Y-101631750D02*
X162619197Y-101768910D01*
X162619197Y-101768910D02*
X162550617Y-101906070D01*
D12*
%TO.P,J1,1*%
%TO.N,MISO*%
X137071100Y-105003600D03*
%TO.P,J1,2*%
%TO.N,3.3V*%
X134531100Y-105003600D03*
%TO.P,J1,3*%
%TO.N,SCK*%
X137071100Y-102463600D03*
%TO.P,J1,4*%
%TO.N,MOSI*%
X134531100Y-102463600D03*
%TO.P,J1,5*%
%TO.N,RST*%
X137071100Y-99923600D03*
%TO.P,J1,6*%
%TO.N,GND*%
X134531100Y-99923600D03*
%TD*%
D13*
%TO.P,JP2,1*%
%TO.N,3.3V*%
X152311100Y-94843600D03*
D14*
%TO.P,JP2,2*%
%TO.N,GND*%
X149771100Y-94843600D03*
%TO.P,JP2,3*%
%TO.N,PC0*%
X147231100Y-94843600D03*
%TO.P,JP2,4*%
%TO.N,PC1*%
X144691100Y-94843600D03*
%TO.P,JP2,5*%
%TO.N,PC2*%
X142151100Y-94843600D03*
%TO.P,JP2,6*%
%TO.N,PC3*%
X139611100Y-94843600D03*
%TO.P,JP2,7*%
%TO.N,SDA*%
X137071100Y-94843600D03*
%TO.P,JP2,8*%
%TO.N,SCL*%
X134531100Y-94843600D03*
%TD*%
D15*
%TO.P,U1,1*%
%TO.N,SCL*%
X159931100Y-105003600D03*
%TO.P,U1,2*%
%TO.N,SDA*%
X157391100Y-102463600D03*
%TO.P,U1,3*%
%TO.N,3.3V*%
X154851100Y-105003600D03*
%TO.P,U1,4*%
%TO.N,GND*%
X157391100Y-107543600D03*
%TD*%
D14*
%TO.P,JP1,1*%
%TO.N,DTR*%
X134531100Y-115163600D03*
%TO.P,JP1,2*%
%TO.N,RX*%
X137071100Y-115163600D03*
%TO.P,JP1,3*%
%TO.N,TX*%
X139611100Y-115163600D03*
%TO.P,JP1,4*%
%TO.N,VCC*%
X142151100Y-115163600D03*
%TO.P,JP1,5*%
%TO.N,GND*%
X144691100Y-115163600D03*
%TO.P,JP1,6*%
X147231100Y-115163600D03*
%TD*%
D16*
%TO.N,3.3V*%
X147866100Y-104368600D03*
%TO.N,SCL*%
X138341100Y-97891600D03*
%TO.N,GND*%
X143294100Y-108178600D03*
X144056100Y-99923600D03*
X140754100Y-110845600D03*
X135166100Y-109829600D03*
%TO.N,RX*%
X139738100Y-106527600D03*
%TO.N,TX*%
X143294100Y-103860600D03*
%TO.N,MISO*%
X153835100Y-99796600D03*
%TO.N,SCK*%
X151041100Y-98399600D03*
%TO.N,MOSI*%
X151930100Y-101066600D03*
%TD*%
D17*
%TO.N,3.3V*%
X146342100Y-102844600D02*
X147866100Y-104368600D01*
X141897100Y-102844600D02*
X146342100Y-102844600D01*
X134531100Y-105003600D02*
X135801100Y-106273600D01*
X135801100Y-106273600D02*
X138468100Y-106273600D01*
X138468100Y-106273600D02*
X141897100Y-102844600D01*
%TO.N,SDA*%
X157391100Y-99669600D02*
X157391100Y-102463600D01*
X138595100Y-96367600D02*
X154089100Y-96367600D01*
X137071100Y-94843600D02*
X138595100Y-96367600D01*
X154089100Y-96367600D02*
X157391100Y-99669600D01*
%TO.N,SCL*%
X138341100Y-96875600D02*
X138341100Y-97891600D01*
X155867100Y-99034600D02*
X155867100Y-103479600D01*
X155867100Y-103479600D02*
X157391100Y-105003600D01*
X134531100Y-94843600D02*
X136563100Y-96875600D01*
X153708100Y-96875600D02*
X155867100Y-99034600D01*
X136563100Y-96875600D02*
X138341100Y-96875600D01*
X138341100Y-96875600D02*
X153708100Y-96875600D01*
X157391100Y-105003600D02*
X159931100Y-105003600D01*
%TO.N,RX*%
X137071100Y-109194600D02*
X139738100Y-106527600D01*
X137071100Y-115163600D02*
X137071100Y-109194600D01*
%TO.N,TX*%
X139611100Y-115163600D02*
X139611100Y-108813600D01*
X139611100Y-108813600D02*
X143294100Y-105130600D01*
X143294100Y-105130600D02*
X143294100Y-103860600D01*
%TO.N,MISO*%
X152692100Y-102209600D02*
X153835100Y-101066600D01*
X141135100Y-102209600D02*
X152692100Y-102209600D01*
X153835100Y-101066600D02*
X153835100Y-99796600D01*
X138341100Y-105003600D02*
X141135100Y-102209600D01*
X137071100Y-105003600D02*
X138341100Y-105003600D01*
%TO.N,SCK*%
X137071100Y-102463600D02*
X141135100Y-98399600D01*
X141135100Y-98399600D02*
X151041100Y-98399600D01*
%TO.N,MOSI*%
X138341100Y-103733600D02*
X141008100Y-101066600D01*
X134531100Y-102463600D02*
X135801100Y-103733600D01*
X135801100Y-103733600D02*
X138341100Y-103733600D01*
X141008100Y-101066600D02*
X151930100Y-101066600D01*
%TD*%
%TA.AperFunction,Conductor*%
%TO.N,GND*%
G36*
X144303231Y-115499690D02*
G01*
X144413630Y-115595352D01*
X144455284Y-115614374D01*
X143924463Y-116145196D01*
X143991882Y-116192403D01*
X144017584Y-116232747D01*
X144007231Y-116279448D01*
X143966887Y-116305150D01*
X143956034Y-116306100D01*
X142888431Y-116306100D01*
X142844237Y-116287794D01*
X142825931Y-116243600D01*
X142844237Y-116199406D01*
X142852583Y-116192403D01*
X142954493Y-116121044D01*
X143108544Y-115966993D01*
X143108545Y-115966992D01*
X143233507Y-115788528D01*
X143325580Y-115591076D01*
X143325703Y-115590619D01*
X143350067Y-115499690D01*
X143361402Y-115457385D01*
X143390522Y-115419436D01*
X143437948Y-115413192D01*
X143475898Y-115442312D01*
X143482142Y-115457385D01*
X143517843Y-115590622D01*
X143517848Y-115590635D01*
X143609820Y-115787872D01*
X143609822Y-115787874D01*
X143709502Y-115930234D01*
X143709502Y-115930235D01*
X144239388Y-115400349D01*
X144303231Y-115499690D01*
G37*
%TD.AperFunction*%
%TA.AperFunction,Conductor*%
G36*
X146843231Y-115499690D02*
G01*
X146953630Y-115595352D01*
X146995284Y-115614374D01*
X146464463Y-116145196D01*
X146531882Y-116192403D01*
X146557584Y-116232747D01*
X146547231Y-116279448D01*
X146506887Y-116305150D01*
X146496034Y-116306100D01*
X145426165Y-116306100D01*
X145381971Y-116287794D01*
X145363665Y-116243600D01*
X145381971Y-116199406D01*
X145390317Y-116192403D01*
X145457734Y-116145196D01*
X145457735Y-116145196D01*
X144926914Y-115614375D01*
X144968570Y-115595352D01*
X145078969Y-115499690D01*
X145142810Y-115400349D01*
X145672696Y-115930235D01*
X145672696Y-115930234D01*
X145772377Y-115787874D01*
X145772379Y-115787872D01*
X145864351Y-115590635D01*
X145864357Y-115590619D01*
X145900730Y-115454876D01*
X145929850Y-115416925D01*
X145977276Y-115410682D01*
X146015227Y-115439802D01*
X146021470Y-115454876D01*
X146057842Y-115590619D01*
X146057848Y-115590635D01*
X146149820Y-115787872D01*
X146149822Y-115787874D01*
X146249502Y-115930234D01*
X146249502Y-115930235D01*
X146779388Y-115400348D01*
X146843231Y-115499690D01*
G37*
%TD.AperFunction*%
%TA.AperFunction,Conductor*%
G36*
X163595128Y-93719406D02*
G01*
X163613434Y-93763600D01*
X163613434Y-93763655D01*
X163606410Y-101791840D01*
X163593776Y-116232747D01*
X163593766Y-116243655D01*
X163575421Y-116287833D01*
X163531266Y-116306100D01*
X147966165Y-116306100D01*
X147921971Y-116287794D01*
X147903665Y-116243600D01*
X147921971Y-116199406D01*
X147930317Y-116192403D01*
X147997734Y-116145196D01*
X147997735Y-116145196D01*
X147466914Y-115614375D01*
X147508570Y-115595352D01*
X147618969Y-115499690D01*
X147682810Y-115400349D01*
X148212696Y-115930235D01*
X148212696Y-115930234D01*
X148312377Y-115787874D01*
X148312379Y-115787872D01*
X148404351Y-115590635D01*
X148404357Y-115590619D01*
X148460680Y-115380421D01*
X148460683Y-115380405D01*
X148479651Y-115163602D01*
X148479651Y-115163597D01*
X148460683Y-114946794D01*
X148460680Y-114946778D01*
X148404355Y-114736573D01*
X148404354Y-114736571D01*
X148312378Y-114539328D01*
X148212694Y-114396965D01*
X147682810Y-114926848D01*
X147618969Y-114827510D01*
X147508570Y-114731848D01*
X147466913Y-114712823D01*
X147997735Y-114182002D01*
X147855374Y-114082322D01*
X147855372Y-114082320D01*
X147658135Y-113990348D01*
X147658119Y-113990342D01*
X147447921Y-113934019D01*
X147447905Y-113934016D01*
X147231102Y-113915049D01*
X147231098Y-113915049D01*
X147014294Y-113934016D01*
X147014278Y-113934019D01*
X146804073Y-113990344D01*
X146804071Y-113990345D01*
X146606825Y-114082322D01*
X146464465Y-114182003D01*
X146464464Y-114182003D01*
X146995285Y-114712824D01*
X146953630Y-114731848D01*
X146843231Y-114827510D01*
X146779389Y-114926850D01*
X146249503Y-114396964D01*
X146249503Y-114396965D01*
X146149822Y-114539325D01*
X146057845Y-114736571D01*
X146021470Y-114872324D01*
X145992350Y-114910274D01*
X145944923Y-114916517D01*
X145906973Y-114887397D01*
X145900730Y-114872324D01*
X145864354Y-114736571D01*
X145772378Y-114539328D01*
X145672694Y-114396965D01*
X145142810Y-114926848D01*
X145078969Y-114827510D01*
X144968570Y-114731848D01*
X144926913Y-114712823D01*
X145457735Y-114182002D01*
X145315374Y-114082322D01*
X145315372Y-114082320D01*
X145118135Y-113990348D01*
X145118119Y-113990342D01*
X144907921Y-113934019D01*
X144907905Y-113934016D01*
X144691102Y-113915049D01*
X144691098Y-113915049D01*
X144474294Y-113934016D01*
X144474278Y-113934019D01*
X144264073Y-113990344D01*
X144264071Y-113990345D01*
X144066825Y-114082322D01*
X143924465Y-114182003D01*
X143924464Y-114182003D01*
X144455285Y-114712824D01*
X144413630Y-114731848D01*
X144303231Y-114827510D01*
X144239389Y-114926849D01*
X143709503Y-114396964D01*
X143709503Y-114396965D01*
X143609822Y-114539325D01*
X143517845Y-114736571D01*
X143482142Y-114869814D01*
X143453022Y-114907764D01*
X143405595Y-114914007D01*
X143367645Y-114884887D01*
X143361402Y-114869813D01*
X143325583Y-114736134D01*
X143325581Y-114736131D01*
X143325580Y-114736124D01*
X143233813Y-114539328D01*
X143233509Y-114538675D01*
X143233507Y-114538673D01*
X143233507Y-114538672D01*
X143108545Y-114360208D01*
X143108544Y-114360206D01*
X142954493Y-114206155D01*
X142777640Y-114082322D01*
X142776028Y-114081193D01*
X142776026Y-114081192D01*
X142776024Y-114081190D01*
X142578581Y-113989122D01*
X142578565Y-113989116D01*
X142368147Y-113932734D01*
X142368131Y-113932731D01*
X142151102Y-113913744D01*
X142151098Y-113913744D01*
X141934068Y-113932731D01*
X141934052Y-113932734D01*
X141723634Y-113989116D01*
X141723618Y-113989122D01*
X141526175Y-114081190D01*
X141526173Y-114081192D01*
X141347706Y-114206155D01*
X141193655Y-114360206D01*
X141068692Y-114538673D01*
X141068690Y-114538675D01*
X140976622Y-114736118D01*
X140976616Y-114736134D01*
X140941470Y-114867302D01*
X140912350Y-114905253D01*
X140864924Y-114911496D01*
X140826973Y-114882376D01*
X140820730Y-114867302D01*
X140785583Y-114736134D01*
X140785581Y-114736131D01*
X140785580Y-114736124D01*
X140693813Y-114539328D01*
X140693509Y-114538675D01*
X140693507Y-114538673D01*
X140693507Y-114538672D01*
X140568545Y-114360208D01*
X140568544Y-114360206D01*
X140414493Y-114206155D01*
X140237640Y-114082322D01*
X140236028Y-114081193D01*
X140236026Y-114081192D01*
X140236028Y-114081192D01*
X140079486Y-114008196D01*
X140047169Y-113972928D01*
X140043400Y-113951552D01*
X140043400Y-109018552D01*
X140061705Y-108974359D01*
X141492462Y-107543602D01*
X156117052Y-107543602D01*
X156136407Y-107764832D01*
X156136410Y-107764848D01*
X156193884Y-107979346D01*
X156193885Y-107979348D01*
X156287740Y-108180620D01*
X156391267Y-108328471D01*
X156909705Y-107810032D01*
X156937542Y-107863756D01*
X157040738Y-107974252D01*
X157124481Y-108025177D01*
X156606227Y-108543431D01*
X156754079Y-108646959D01*
X156955351Y-108740814D01*
X156955353Y-108740815D01*
X157169851Y-108798289D01*
X157169867Y-108798292D01*
X157391098Y-108817648D01*
X157391102Y-108817648D01*
X157612332Y-108798292D01*
X157612348Y-108798289D01*
X157826846Y-108740815D01*
X157826848Y-108740814D01*
X158028123Y-108646958D01*
X158175972Y-108543431D01*
X157659292Y-108026751D01*
X157679558Y-108017949D01*
X157796839Y-107922534D01*
X157874695Y-107812235D01*
X158390931Y-108328471D01*
X158494458Y-108180623D01*
X158588314Y-107979348D01*
X158588315Y-107979346D01*
X158645789Y-107764848D01*
X158645792Y-107764832D01*
X158665148Y-107543602D01*
X158665148Y-107543597D01*
X158645792Y-107322367D01*
X158645789Y-107322351D01*
X158588315Y-107107853D01*
X158588314Y-107107851D01*
X158494459Y-106906579D01*
X158390931Y-106758727D01*
X157872493Y-107277164D01*
X157844658Y-107223444D01*
X157741462Y-107112948D01*
X157657716Y-107062021D01*
X158175972Y-106543767D01*
X158028120Y-106440240D01*
X157826848Y-106346385D01*
X157826846Y-106346384D01*
X157612348Y-106288910D01*
X157612332Y-106288907D01*
X157391102Y-106269552D01*
X157391098Y-106269552D01*
X157169867Y-106288907D01*
X157169851Y-106288910D01*
X156955353Y-106346384D01*
X156955351Y-106346385D01*
X156754076Y-106440241D01*
X156606227Y-106543766D01*
X156606226Y-106543766D01*
X157122908Y-107060448D01*
X157102642Y-107069251D01*
X156985361Y-107164666D01*
X156907504Y-107274964D01*
X156391266Y-106758726D01*
X156391266Y-106758727D01*
X156287741Y-106906576D01*
X156193885Y-107107851D01*
X156193884Y-107107853D01*
X156136410Y-107322351D01*
X156136407Y-107322367D01*
X156117052Y-107543597D01*
X156117052Y-107543602D01*
X141492462Y-107543602D01*
X143581392Y-105454671D01*
X143583978Y-105452361D01*
X143614578Y-105427960D01*
X143622563Y-105416249D01*
X143646732Y-105380798D01*
X143647452Y-105379823D01*
X143680620Y-105334881D01*
X143680623Y-105334871D01*
X143687984Y-105320292D01*
X143687988Y-105320287D01*
X143704810Y-105265751D01*
X143723662Y-105211877D01*
X143723662Y-105211859D01*
X143726396Y-105195769D01*
X143726400Y-105195759D01*
X143726400Y-105138691D01*
X143728534Y-105081651D01*
X143728532Y-105081643D01*
X143728529Y-105081630D01*
X143726400Y-105065457D01*
X143726400Y-104584035D01*
X143744706Y-104539841D01*
X143755649Y-104531114D01*
X143792227Y-104508131D01*
X143804393Y-104500487D01*
X143933987Y-104370893D01*
X144031494Y-104215710D01*
X144092026Y-104042721D01*
X144112546Y-103860600D01*
X144092026Y-103678479D01*
X144031494Y-103505490D01*
X144031491Y-103505486D01*
X144031491Y-103505484D01*
X144031490Y-103505483D01*
X143948028Y-103372652D01*
X143940015Y-103325492D01*
X143967696Y-103286480D01*
X144000948Y-103276900D01*
X146137147Y-103276900D01*
X146181341Y-103295206D01*
X146614848Y-103728713D01*
X147047340Y-104161204D01*
X147065646Y-104205398D01*
X147065253Y-104212395D01*
X147047654Y-104368598D01*
X147047654Y-104368600D01*
X147049531Y-104385261D01*
X147068173Y-104550719D01*
X147128708Y-104723715D01*
X147128709Y-104723716D01*
X147226211Y-104878891D01*
X147355808Y-105008488D01*
X147510983Y-105105990D01*
X147510984Y-105105991D01*
X147510986Y-105105991D01*
X147510990Y-105105994D01*
X147683979Y-105166526D01*
X147866100Y-105187046D01*
X148048221Y-105166526D01*
X148221210Y-105105994D01*
X148376393Y-105008487D01*
X148505987Y-104878893D01*
X148603494Y-104723710D01*
X148664026Y-104550721D01*
X148684546Y-104368600D01*
X148664026Y-104186479D01*
X148603494Y-104013490D01*
X148603491Y-104013486D01*
X148603491Y-104013484D01*
X148603490Y-104013483D01*
X148505988Y-103858308D01*
X148376391Y-103728711D01*
X148221216Y-103631209D01*
X148221215Y-103631208D01*
X148221210Y-103631206D01*
X148113471Y-103593506D01*
X148048219Y-103570673D01*
X147866100Y-103550154D01*
X147866099Y-103550154D01*
X147709895Y-103567753D01*
X147663930Y-103554510D01*
X147658704Y-103549840D01*
X146857459Y-102748594D01*
X146839153Y-102704400D01*
X146857459Y-102660206D01*
X146901653Y-102641900D01*
X152666068Y-102641900D01*
X152669570Y-102642097D01*
X152679578Y-102643224D01*
X152708447Y-102646477D01*
X152764527Y-102635866D01*
X152820962Y-102627360D01*
X152820970Y-102627355D01*
X152836482Y-102622251D01*
X152836492Y-102622250D01*
X152836494Y-102622249D01*
X152886953Y-102595581D01*
X152907673Y-102585601D01*
X152938374Y-102570818D01*
X152938381Y-102570811D01*
X152951704Y-102561359D01*
X152951708Y-102561357D01*
X152971890Y-102541174D01*
X152992072Y-102520993D01*
X153007098Y-102507049D01*
X153033903Y-102482179D01*
X153033909Y-102482168D01*
X153043840Y-102469223D01*
X154122392Y-101390671D01*
X154124977Y-101388362D01*
X154155578Y-101363960D01*
X154187728Y-101316803D01*
X154221620Y-101270882D01*
X154221623Y-101270871D01*
X154228980Y-101256298D01*
X154228988Y-101256287D01*
X154245807Y-101201759D01*
X154264662Y-101147878D01*
X154264662Y-101147858D01*
X154267396Y-101131769D01*
X154267400Y-101131759D01*
X154267400Y-101074692D01*
X154269534Y-101017651D01*
X154269532Y-101017643D01*
X154269529Y-101017630D01*
X154267400Y-101001457D01*
X154267400Y-100520035D01*
X154285706Y-100475841D01*
X154296649Y-100467114D01*
X154345393Y-100436487D01*
X154474987Y-100306893D01*
X154572494Y-100151710D01*
X154633026Y-99978721D01*
X154653546Y-99796600D01*
X154633026Y-99614479D01*
X154572494Y-99441490D01*
X154572491Y-99441486D01*
X154572491Y-99441484D01*
X154572490Y-99441483D01*
X154474988Y-99286308D01*
X154345391Y-99156711D01*
X154190216Y-99059209D01*
X154190215Y-99059208D01*
X154190210Y-99059206D01*
X154111533Y-99031675D01*
X154017219Y-98998673D01*
X153835100Y-98978154D01*
X153652980Y-98998673D01*
X153479984Y-99059208D01*
X153479983Y-99059209D01*
X153324808Y-99156711D01*
X153195211Y-99286308D01*
X153097709Y-99441483D01*
X153097708Y-99441484D01*
X153037173Y-99614480D01*
X153016654Y-99796599D01*
X153037173Y-99978719D01*
X153097708Y-100151715D01*
X153097709Y-100151716D01*
X153195211Y-100306891D01*
X153195213Y-100306893D01*
X153324807Y-100436487D01*
X153348218Y-100451197D01*
X153373551Y-100467114D01*
X153401233Y-100506127D01*
X153402800Y-100520035D01*
X153402800Y-100861647D01*
X153384494Y-100905841D01*
X152719688Y-101570646D01*
X152675494Y-101588952D01*
X152631300Y-101570646D01*
X152612994Y-101526452D01*
X152622574Y-101493200D01*
X152667490Y-101421716D01*
X152667491Y-101421715D01*
X152667491Y-101421714D01*
X152667494Y-101421710D01*
X152728026Y-101248721D01*
X152748546Y-101066600D01*
X152728026Y-100884479D01*
X152667494Y-100711490D01*
X152667491Y-100711486D01*
X152667491Y-100711484D01*
X152667490Y-100711483D01*
X152569988Y-100556308D01*
X152440391Y-100426711D01*
X152285216Y-100329209D01*
X152285215Y-100329208D01*
X152285210Y-100329206D01*
X152206533Y-100301675D01*
X152112219Y-100268673D01*
X151930100Y-100248154D01*
X151747980Y-100268673D01*
X151574984Y-100329208D01*
X151574983Y-100329209D01*
X151419808Y-100426711D01*
X151290211Y-100556308D01*
X151259584Y-100605052D01*
X151220572Y-100632733D01*
X151206664Y-100634300D01*
X141034141Y-100634300D01*
X141030639Y-100634103D01*
X141006077Y-100631335D01*
X140991753Y-100629722D01*
X140991752Y-100629722D01*
X140991751Y-100629722D01*
X140935657Y-100640336D01*
X140879236Y-100648840D01*
X140879235Y-100648840D01*
X140879208Y-100648854D01*
X140863738Y-100653944D01*
X140863710Y-100653949D01*
X140863708Y-100653949D01*
X140863708Y-100653950D01*
X140813246Y-100680619D01*
X140791721Y-100690985D01*
X140761825Y-100705382D01*
X140761823Y-100705384D01*
X140761805Y-100705401D01*
X140748517Y-100714829D01*
X140748494Y-100714841D01*
X140748492Y-100714842D01*
X140708127Y-100755206D01*
X140666295Y-100794022D01*
X140666293Y-100794024D01*
X140666280Y-100794049D01*
X140656358Y-100806975D01*
X138373248Y-103090086D01*
X138329054Y-103108392D01*
X138284860Y-103090086D01*
X138266554Y-103045892D01*
X138271312Y-103021974D01*
X138279083Y-103003212D01*
X138314800Y-102916985D01*
X138316200Y-102903565D01*
X138316201Y-102023639D01*
X138314800Y-102010215D01*
X138278366Y-101922258D01*
X138278366Y-101874425D01*
X138291912Y-101854151D01*
X141295858Y-98850206D01*
X141340053Y-98831900D01*
X150317664Y-98831900D01*
X150361858Y-98850206D01*
X150370584Y-98861148D01*
X150401211Y-98909891D01*
X150530808Y-99039488D01*
X150685983Y-99136990D01*
X150685984Y-99136991D01*
X150685986Y-99136991D01*
X150685990Y-99136994D01*
X150858979Y-99197526D01*
X151041100Y-99218046D01*
X151223221Y-99197526D01*
X151396210Y-99136994D01*
X151551393Y-99039487D01*
X151680987Y-98909893D01*
X151778494Y-98754710D01*
X151839026Y-98581721D01*
X151859546Y-98399600D01*
X151839026Y-98217479D01*
X151778494Y-98044490D01*
X151778491Y-98044486D01*
X151778491Y-98044484D01*
X151778490Y-98044483D01*
X151680988Y-97889308D01*
X151551391Y-97759711D01*
X151396216Y-97662209D01*
X151396215Y-97662208D01*
X151396210Y-97662206D01*
X151317533Y-97634675D01*
X151223219Y-97601673D01*
X151041100Y-97581154D01*
X150858980Y-97601673D01*
X150685984Y-97662208D01*
X150685983Y-97662209D01*
X150530808Y-97759711D01*
X150401211Y-97889308D01*
X150370584Y-97938052D01*
X150331572Y-97965733D01*
X150317664Y-97967300D01*
X141161132Y-97967300D01*
X141157630Y-97967103D01*
X141118753Y-97962723D01*
X141062672Y-97973333D01*
X141006239Y-97981839D01*
X141006236Y-97981840D01*
X141006219Y-97981849D01*
X140990726Y-97986946D01*
X140990713Y-97986948D01*
X140990703Y-97986951D01*
X140959340Y-98003527D01*
X140940246Y-98013619D01*
X140905539Y-98030333D01*
X140888825Y-98038382D01*
X140888823Y-98038384D01*
X140888805Y-98038401D01*
X140875517Y-98047829D01*
X140875494Y-98047841D01*
X140875492Y-98047842D01*
X140835127Y-98088206D01*
X140793295Y-98127022D01*
X140793293Y-98127024D01*
X140793280Y-98127049D01*
X140783358Y-98139975D01*
X138373249Y-100550084D01*
X138329055Y-100568390D01*
X138284861Y-100550084D01*
X138266555Y-100505890D01*
X138271313Y-100481972D01*
X138290153Y-100436487D01*
X138314800Y-100376985D01*
X138316200Y-100363565D01*
X138316201Y-99483639D01*
X138314800Y-99470215D01*
X138302902Y-99441490D01*
X138271123Y-99364769D01*
X138271121Y-99364767D01*
X138271120Y-99364763D01*
X138262617Y-99354279D01*
X137640417Y-98732078D01*
X137631302Y-98724687D01*
X137629936Y-98723579D01*
X137527611Y-98681195D01*
X137524485Y-98679900D01*
X137524484Y-98679899D01*
X137524482Y-98679899D01*
X137513427Y-98678746D01*
X137511065Y-98678500D01*
X137511063Y-98678499D01*
X137511054Y-98678499D01*
X136631136Y-98678499D01*
X136617719Y-98679899D01*
X136617707Y-98679902D01*
X136512269Y-98723576D01*
X136512262Y-98723581D01*
X136501781Y-98732081D01*
X136501771Y-98732090D01*
X135879581Y-99354279D01*
X135879576Y-99354285D01*
X135871078Y-99364765D01*
X135858138Y-99396005D01*
X135824313Y-99429829D01*
X135776477Y-99429828D01*
X135742653Y-99396004D01*
X135730011Y-99365485D01*
X135730010Y-99365483D01*
X135721557Y-99355060D01*
X135721548Y-99355050D01*
X135518079Y-99151581D01*
X134982810Y-99686848D01*
X134918969Y-99587510D01*
X134808570Y-99491848D01*
X134766913Y-99472824D01*
X135303118Y-98936620D01*
X135303118Y-98936619D01*
X135099654Y-98733154D01*
X135099645Y-98733146D01*
X135089215Y-98724687D01*
X134984209Y-98681193D01*
X134984212Y-98681193D01*
X134970848Y-98679800D01*
X134091349Y-98679800D01*
X134091327Y-98679801D01*
X134077990Y-98681193D01*
X134077983Y-98681195D01*
X133972990Y-98724684D01*
X133972983Y-98724689D01*
X133962560Y-98733142D01*
X133962550Y-98733151D01*
X133759081Y-98936620D01*
X133759080Y-98936620D01*
X134295285Y-99472824D01*
X134253630Y-99491848D01*
X134143231Y-99587510D01*
X134079389Y-99686850D01*
X133544120Y-99151581D01*
X133495293Y-99200408D01*
X133451099Y-99218713D01*
X133406904Y-99200407D01*
X133388599Y-99156213D01*
X133388599Y-98628990D01*
X133388599Y-95580927D01*
X133406905Y-95536736D01*
X133451099Y-95518430D01*
X133495293Y-95536736D01*
X133502296Y-95545081D01*
X133573657Y-95646995D01*
X133727706Y-95801044D01*
X133792633Y-95846506D01*
X133906172Y-95926007D01*
X133906173Y-95926007D01*
X133906175Y-95926009D01*
X134008476Y-95973712D01*
X134103624Y-96018080D01*
X134103631Y-96018081D01*
X134103634Y-96018083D01*
X134314052Y-96074465D01*
X134314058Y-96074466D01*
X134314065Y-96074468D01*
X134444286Y-96085860D01*
X134531098Y-96093456D01*
X134531100Y-96093456D01*
X134531102Y-96093456D01*
X134603444Y-96087126D01*
X134748135Y-96074468D01*
X134748144Y-96074465D01*
X134748147Y-96074465D01*
X134803216Y-96059708D01*
X134958576Y-96018080D01*
X135011417Y-95993438D01*
X135059205Y-95991352D01*
X135082024Y-96005889D01*
X136239006Y-97162871D01*
X136241342Y-97165484D01*
X136265740Y-97196078D01*
X136265743Y-97196080D01*
X136312896Y-97228228D01*
X136358816Y-97262119D01*
X136358821Y-97262122D01*
X136358836Y-97262127D01*
X136373396Y-97269476D01*
X136373413Y-97269488D01*
X136427940Y-97286307D01*
X136481822Y-97305162D01*
X136481838Y-97305162D01*
X136497928Y-97307896D01*
X136497941Y-97307900D01*
X136555007Y-97307900D01*
X136557313Y-97307986D01*
X136612049Y-97310034D01*
X136612064Y-97310029D01*
X136628242Y-97307900D01*
X137634252Y-97307900D01*
X137678446Y-97326206D01*
X137696752Y-97370400D01*
X137687172Y-97403652D01*
X137603709Y-97536483D01*
X137603708Y-97536484D01*
X137543173Y-97709480D01*
X137522654Y-97891600D01*
X137543173Y-98073719D01*
X137603708Y-98246715D01*
X137603709Y-98246716D01*
X137701211Y-98401891D01*
X137830808Y-98531488D01*
X137985983Y-98628990D01*
X137985984Y-98628991D01*
X137985986Y-98628991D01*
X137985990Y-98628994D01*
X138158979Y-98689526D01*
X138341100Y-98710046D01*
X138523221Y-98689526D01*
X138696210Y-98628994D01*
X138851393Y-98531487D01*
X138980987Y-98401893D01*
X139078494Y-98246710D01*
X139139026Y-98073721D01*
X139159546Y-97891600D01*
X139139026Y-97709479D01*
X139078494Y-97536490D01*
X139078491Y-97536486D01*
X139078491Y-97536484D01*
X139078490Y-97536483D01*
X138995028Y-97403652D01*
X138987015Y-97356492D01*
X139014696Y-97317480D01*
X139047948Y-97307900D01*
X153503147Y-97307900D01*
X153547341Y-97326206D01*
X155416494Y-99195358D01*
X155434800Y-99239552D01*
X155434800Y-103453567D01*
X155434603Y-103457069D01*
X155430223Y-103495947D01*
X155436856Y-103531006D01*
X155440833Y-103552027D01*
X155449339Y-103608462D01*
X155449347Y-103608477D01*
X155454446Y-103623974D01*
X155454448Y-103623986D01*
X155454451Y-103623996D01*
X155481119Y-103674452D01*
X155481119Y-103674453D01*
X155505882Y-103725874D01*
X155505883Y-103725875D01*
X155505884Y-103725877D01*
X155505896Y-103725890D01*
X155515332Y-103739188D01*
X155515343Y-103739208D01*
X155536035Y-103759900D01*
X155555707Y-103779572D01*
X155596802Y-103823862D01*
X155613443Y-103868709D01*
X155593498Y-103912188D01*
X155548651Y-103928829D01*
X155515139Y-103917571D01*
X155507451Y-103912188D01*
X155488777Y-103899112D01*
X155488774Y-103899111D01*
X155488772Y-103899109D01*
X155287294Y-103805159D01*
X155287292Y-103805158D01*
X155072575Y-103747624D01*
X155072559Y-103747621D01*
X154851102Y-103728247D01*
X154851098Y-103728247D01*
X154629640Y-103747621D01*
X154629624Y-103747624D01*
X154414907Y-103805158D01*
X154414905Y-103805159D01*
X154213424Y-103899111D01*
X154031317Y-104026623D01*
X153874123Y-104183817D01*
X153746611Y-104365924D01*
X153652659Y-104567405D01*
X153652658Y-104567407D01*
X153595124Y-104782124D01*
X153595121Y-104782140D01*
X153575747Y-105003597D01*
X153575747Y-105003602D01*
X153595121Y-105225059D01*
X153595124Y-105225075D01*
X153652658Y-105439792D01*
X153652659Y-105439794D01*
X153746611Y-105641276D01*
X153874123Y-105823382D01*
X154031317Y-105980576D01*
X154083775Y-106017307D01*
X154213423Y-106108088D01*
X154213422Y-106108088D01*
X154314163Y-106155064D01*
X154414904Y-106202040D01*
X154414906Y-106202040D01*
X154414907Y-106202041D01*
X154629624Y-106259575D01*
X154629630Y-106259576D01*
X154629637Y-106259578D01*
X154762514Y-106271202D01*
X154851098Y-106278953D01*
X154851100Y-106278953D01*
X154851102Y-106278953D01*
X154924920Y-106272494D01*
X155072563Y-106259578D01*
X155072572Y-106259575D01*
X155072575Y-106259575D01*
X155287292Y-106202041D01*
X155287291Y-106202041D01*
X155287296Y-106202040D01*
X155488777Y-106108088D01*
X155670881Y-105980577D01*
X155828077Y-105823381D01*
X155955588Y-105641277D01*
X156049540Y-105439796D01*
X156089445Y-105290871D01*
X156107075Y-105225075D01*
X156107075Y-105225072D01*
X156107078Y-105225063D01*
X156121041Y-105065457D01*
X156126453Y-105003602D01*
X156126453Y-105003597D01*
X156107078Y-104782140D01*
X156107078Y-104782137D01*
X156091422Y-104723710D01*
X156049541Y-104567407D01*
X156049540Y-104567405D01*
X156041760Y-104550721D01*
X155955588Y-104365924D01*
X155929807Y-104329104D01*
X155919454Y-104282402D01*
X155945156Y-104242059D01*
X155991858Y-104231706D01*
X156025196Y-104249061D01*
X156339771Y-104563635D01*
X157067007Y-105290871D01*
X157069341Y-105293483D01*
X157093740Y-105324078D01*
X157140906Y-105356235D01*
X157186818Y-105390120D01*
X157186834Y-105390125D01*
X157201401Y-105397480D01*
X157201411Y-105397487D01*
X157201412Y-105397487D01*
X157201413Y-105397488D01*
X157255954Y-105414310D01*
X157255954Y-105414311D01*
X157309815Y-105433159D01*
X157309816Y-105433159D01*
X157309822Y-105433161D01*
X157309837Y-105433161D01*
X157325922Y-105435894D01*
X157325941Y-105435900D01*
X157325943Y-105435900D01*
X157383034Y-105435900D01*
X157440048Y-105438033D01*
X157440056Y-105438030D01*
X157440065Y-105438029D01*
X157456238Y-105435900D01*
X158691027Y-105435900D01*
X158735221Y-105454206D01*
X158747671Y-105471987D01*
X158826609Y-105641273D01*
X158826611Y-105641275D01*
X158826612Y-105641277D01*
X158873001Y-105707527D01*
X158954123Y-105823382D01*
X159111317Y-105980576D01*
X159163775Y-106017307D01*
X159293423Y-106108088D01*
X159293422Y-106108088D01*
X159394163Y-106155064D01*
X159494904Y-106202040D01*
X159494906Y-106202040D01*
X159494907Y-106202041D01*
X159709624Y-106259575D01*
X159709630Y-106259576D01*
X159709637Y-106259578D01*
X159842514Y-106271202D01*
X159931098Y-106278953D01*
X159931100Y-106278953D01*
X159931102Y-106278953D01*
X160004921Y-106272494D01*
X160152563Y-106259578D01*
X160152572Y-106259575D01*
X160152575Y-106259575D01*
X160367292Y-106202041D01*
X160367291Y-106202041D01*
X160367296Y-106202040D01*
X160568777Y-106108088D01*
X160750881Y-105980577D01*
X160908077Y-105823381D01*
X160928988Y-105793516D01*
X160969333Y-105767814D01*
X161016034Y-105778167D01*
X161041736Y-105818511D01*
X161042686Y-105829364D01*
X161042686Y-110066294D01*
X163441339Y-110066294D01*
X163441339Y-100605113D01*
X161042686Y-100605113D01*
X161042686Y-104177835D01*
X161024380Y-104222029D01*
X160980186Y-104240335D01*
X160935992Y-104222029D01*
X160928989Y-104213684D01*
X160909940Y-104186480D01*
X160908077Y-104183819D01*
X160908075Y-104183817D01*
X160908074Y-104183815D01*
X160750882Y-104026623D01*
X160587451Y-103912188D01*
X160568777Y-103899112D01*
X160568775Y-103899111D01*
X160568777Y-103899111D01*
X160367294Y-103805159D01*
X160367292Y-103805158D01*
X160152575Y-103747624D01*
X160152559Y-103747621D01*
X159931102Y-103728247D01*
X159931098Y-103728247D01*
X159709640Y-103747621D01*
X159709624Y-103747624D01*
X159494907Y-103805158D01*
X159494905Y-103805159D01*
X159293424Y-103899111D01*
X159111317Y-104026623D01*
X158954123Y-104183817D01*
X158826611Y-104365924D01*
X158789847Y-104444766D01*
X158747670Y-104535214D01*
X158712403Y-104567531D01*
X158691027Y-104571300D01*
X157596052Y-104571300D01*
X157551858Y-104552994D01*
X156997904Y-103999040D01*
X156636563Y-103637698D01*
X156618258Y-103593506D01*
X156636564Y-103549312D01*
X156680758Y-103531006D01*
X156716606Y-103542309D01*
X156733942Y-103554447D01*
X156753423Y-103568088D01*
X156753422Y-103568088D01*
X156854163Y-103615064D01*
X156954904Y-103662040D01*
X156954906Y-103662040D01*
X156954907Y-103662041D01*
X157169624Y-103719575D01*
X157169630Y-103719576D01*
X157169637Y-103719578D01*
X157302514Y-103731202D01*
X157391098Y-103738953D01*
X157391100Y-103738953D01*
X157391102Y-103738953D01*
X157464920Y-103732494D01*
X157612563Y-103719578D01*
X157612572Y-103719575D01*
X157612575Y-103719575D01*
X157821392Y-103663622D01*
X157827296Y-103662040D01*
X158028777Y-103568088D01*
X158210881Y-103440577D01*
X158368077Y-103283381D01*
X158495588Y-103101277D01*
X158589540Y-102899796D01*
X158647078Y-102685063D01*
X158665452Y-102475040D01*
X158666453Y-102463602D01*
X158666453Y-102463597D01*
X158647078Y-102242140D01*
X158647078Y-102242137D01*
X158589540Y-102027404D01*
X158495588Y-101825924D01*
X158430659Y-101733195D01*
X158368076Y-101643817D01*
X158210882Y-101486623D01*
X158035703Y-101363962D01*
X158028777Y-101359112D01*
X158028775Y-101359111D01*
X158028777Y-101359111D01*
X157859486Y-101280170D01*
X157827169Y-101244902D01*
X157823400Y-101223526D01*
X157823400Y-99695631D01*
X157823597Y-99692129D01*
X157824627Y-99682981D01*
X157827977Y-99653253D01*
X157817366Y-99597172D01*
X157808860Y-99540738D01*
X157808854Y-99540726D01*
X157803751Y-99525217D01*
X157803750Y-99525208D01*
X157803748Y-99525204D01*
X157803747Y-99525201D01*
X157777081Y-99474746D01*
X157756093Y-99431165D01*
X157752318Y-99423326D01*
X157752303Y-99423310D01*
X157742863Y-99410003D01*
X157742858Y-99409994D01*
X157742857Y-99409992D01*
X157702492Y-99369627D01*
X157663679Y-99327797D01*
X157663677Y-99327796D01*
X157663675Y-99327794D01*
X157663659Y-99327785D01*
X157650721Y-99317856D01*
X154413192Y-96080327D01*
X154410855Y-96077712D01*
X154386461Y-96047123D01*
X154386459Y-96047121D01*
X154339303Y-96014970D01*
X154293386Y-95981083D01*
X154293382Y-95981080D01*
X154293355Y-95981070D01*
X154278809Y-95973727D01*
X154278787Y-95973712D01*
X154278785Y-95973711D01*
X154278783Y-95973710D01*
X154224259Y-95956892D01*
X154224259Y-95956891D01*
X154170378Y-95938038D01*
X154170376Y-95938037D01*
X154170374Y-95938037D01*
X154170344Y-95938036D01*
X154154283Y-95935307D01*
X154154263Y-95935301D01*
X154154261Y-95935300D01*
X154154259Y-95935300D01*
X154154257Y-95935300D01*
X154097193Y-95935300D01*
X154040153Y-95933166D01*
X154040149Y-95933166D01*
X154040140Y-95933168D01*
X154040135Y-95933170D01*
X154023958Y-95935300D01*
X153613033Y-95935300D01*
X153568839Y-95916994D01*
X153550533Y-95872800D01*
X153552727Y-95856385D01*
X153553235Y-95854515D01*
X153553238Y-95854509D01*
X153556200Y-95828979D01*
X153556199Y-93858222D01*
X153553238Y-93832691D01*
X153533877Y-93788844D01*
X153532773Y-93741022D01*
X153565808Y-93706425D01*
X153591053Y-93701100D01*
X163550934Y-93701100D01*
X163595128Y-93719406D01*
G37*
%TD.AperFunction*%
%TA.AperFunction,Conductor*%
G36*
X133495293Y-105728632D02*
G01*
X133747237Y-105980576D01*
X133961783Y-106195122D01*
X133972263Y-106203620D01*
X134077715Y-106247300D01*
X134091135Y-106248700D01*
X134971061Y-106248701D01*
X134984485Y-106247300D01*
X135072438Y-106210868D01*
X135120274Y-106210867D01*
X135140551Y-106224416D01*
X135477006Y-106560871D01*
X135479342Y-106563484D01*
X135503740Y-106594078D01*
X135503743Y-106594080D01*
X135550896Y-106626228D01*
X135596816Y-106660119D01*
X135596821Y-106660122D01*
X135596836Y-106660127D01*
X135611396Y-106667476D01*
X135611413Y-106667488D01*
X135664300Y-106683801D01*
X135665940Y-106684307D01*
X135675870Y-106687782D01*
X135719822Y-106703162D01*
X135719838Y-106703162D01*
X135735928Y-106705896D01*
X135735941Y-106705900D01*
X135793007Y-106705900D01*
X135795313Y-106705986D01*
X135850049Y-106708034D01*
X135850064Y-106708029D01*
X135866242Y-106705900D01*
X138442068Y-106705900D01*
X138445570Y-106706097D01*
X138455578Y-106707224D01*
X138484447Y-106710477D01*
X138540527Y-106699866D01*
X138596962Y-106691360D01*
X138596970Y-106691355D01*
X138612482Y-106686251D01*
X138612492Y-106686250D01*
X138617126Y-106683801D01*
X138662953Y-106659581D01*
X138683673Y-106649601D01*
X138714374Y-106634818D01*
X138714381Y-106634811D01*
X138727704Y-106625359D01*
X138727708Y-106625357D01*
X138747890Y-106605174D01*
X138768072Y-106584993D01*
X138781376Y-106572647D01*
X138809903Y-106546179D01*
X138809906Y-106546173D01*
X138812825Y-106542515D01*
X138814592Y-106543924D01*
X138846445Y-106519465D01*
X138893874Y-106525692D01*
X138923008Y-106563632D01*
X138924750Y-106572832D01*
X138937253Y-106683801D01*
X138924010Y-106729767D01*
X138919340Y-106734993D01*
X136783827Y-108870507D01*
X136781212Y-108872843D01*
X136750623Y-108897238D01*
X136718470Y-108944396D01*
X136684580Y-108990317D01*
X136684579Y-108990319D01*
X136684572Y-108990340D01*
X136677229Y-109004886D01*
X136677213Y-109004909D01*
X136677212Y-109004909D01*
X136660392Y-109059440D01*
X136641537Y-109113325D01*
X136641536Y-109113355D01*
X136638808Y-109129411D01*
X136638801Y-109129433D01*
X136638800Y-109129440D01*
X136638800Y-109186506D01*
X136636666Y-109243546D01*
X136636666Y-109243550D01*
X136636670Y-109243563D01*
X136638800Y-109259742D01*
X136638800Y-113951552D01*
X136620494Y-113995746D01*
X136602714Y-114008196D01*
X136446172Y-114081192D01*
X136267706Y-114206155D01*
X136113655Y-114360206D01*
X135988692Y-114538673D01*
X135988690Y-114538675D01*
X135896622Y-114736118D01*
X135896616Y-114736134D01*
X135861470Y-114867302D01*
X135832350Y-114905253D01*
X135784924Y-114911496D01*
X135746973Y-114882376D01*
X135740730Y-114867302D01*
X135705583Y-114736134D01*
X135705581Y-114736131D01*
X135705580Y-114736124D01*
X135613813Y-114539328D01*
X135613509Y-114538675D01*
X135613507Y-114538673D01*
X135613507Y-114538672D01*
X135488545Y-114360208D01*
X135488544Y-114360206D01*
X135334493Y-114206155D01*
X135157640Y-114082322D01*
X135156028Y-114081193D01*
X135156026Y-114081192D01*
X135156024Y-114081190D01*
X134958581Y-113989122D01*
X134958565Y-113989116D01*
X134748147Y-113932734D01*
X134748131Y-113932731D01*
X134531102Y-113913744D01*
X134531098Y-113913744D01*
X134314068Y-113932731D01*
X134314052Y-113932734D01*
X134103634Y-113989116D01*
X134103618Y-113989122D01*
X133906175Y-114081190D01*
X133906173Y-114081192D01*
X133727706Y-114206155D01*
X133573657Y-114360204D01*
X133502296Y-114462118D01*
X133461952Y-114487820D01*
X133415250Y-114477466D01*
X133389548Y-114437122D01*
X133388600Y-114426280D01*
X133388600Y-105772823D01*
X133406905Y-105728632D01*
X133451099Y-105710326D01*
X133495293Y-105728632D01*
G37*
%TD.AperFunction*%
%TA.AperFunction,Conductor*%
G36*
X135518079Y-100695618D02*
G01*
X135721545Y-100492154D01*
X135721553Y-100492145D01*
X135730012Y-100481715D01*
X135742653Y-100451197D01*
X135776477Y-100417371D01*
X135824312Y-100417370D01*
X135858138Y-100451194D01*
X135871077Y-100482432D01*
X135871078Y-100482434D01*
X135871080Y-100482437D01*
X135879583Y-100492921D01*
X136501783Y-101115122D01*
X136512263Y-101123620D01*
X136512264Y-101123620D01*
X136512265Y-101123621D01*
X136512266Y-101123622D01*
X136541806Y-101135858D01*
X136575630Y-101169682D01*
X136575630Y-101217518D01*
X136541807Y-101251342D01*
X136512267Y-101263578D01*
X136512265Y-101263579D01*
X136512263Y-101263580D01*
X136512261Y-101263581D01*
X136512262Y-101263581D01*
X136501781Y-101272081D01*
X136501771Y-101272090D01*
X135879581Y-101894279D01*
X135879576Y-101894285D01*
X135871078Y-101904765D01*
X135858841Y-101934307D01*
X135825015Y-101968131D01*
X135777180Y-101968130D01*
X135743357Y-101934306D01*
X135731120Y-101904763D01*
X135722617Y-101894279D01*
X135100417Y-101272078D01*
X135089937Y-101263580D01*
X135089935Y-101263579D01*
X135089934Y-101263578D01*
X135089932Y-101263577D01*
X135058695Y-101250638D01*
X135024870Y-101216813D01*
X135024871Y-101168978D01*
X135058696Y-101135153D01*
X135089212Y-101122512D01*
X135089216Y-101122510D01*
X135099639Y-101114057D01*
X135099648Y-101114048D01*
X135303118Y-100910579D01*
X135303118Y-100910578D01*
X134766915Y-100374375D01*
X134808570Y-100355352D01*
X134918969Y-100259690D01*
X134982810Y-100160349D01*
X135518079Y-100695618D01*
G37*
%TD.AperFunction*%
%TA.AperFunction,Conductor*%
G36*
X134143231Y-100259690D02*
G01*
X134253630Y-100355352D01*
X134295284Y-100374374D01*
X133759080Y-100910579D01*
X133962545Y-101114045D01*
X133962554Y-101114053D01*
X133972983Y-101122512D01*
X134003503Y-101135153D01*
X134037328Y-101168977D01*
X134037329Y-101216813D01*
X134003505Y-101250638D01*
X133972268Y-101263577D01*
X133972264Y-101263579D01*
X133972263Y-101263580D01*
X133972260Y-101263581D01*
X133972262Y-101263581D01*
X133961781Y-101272081D01*
X133961771Y-101272090D01*
X133495293Y-101738567D01*
X133451099Y-101756873D01*
X133406905Y-101738567D01*
X133388599Y-101694373D01*
X133388599Y-100690985D01*
X133406905Y-100646791D01*
X133451099Y-100628485D01*
X133495293Y-100646791D01*
X133544120Y-100695618D01*
X134079388Y-100160348D01*
X134143231Y-100259690D01*
G37*
%TD.AperFunction*%
%TA.AperFunction,Conductor*%
G36*
X149383231Y-95179690D02*
G01*
X149493630Y-95275352D01*
X149535284Y-95294374D01*
X149004463Y-95825196D01*
X149004916Y-95830368D01*
X149025034Y-95861946D01*
X149014681Y-95908648D01*
X148974338Y-95934350D01*
X148963484Y-95935300D01*
X148040981Y-95935300D01*
X147996787Y-95916994D01*
X147978481Y-95872800D01*
X147996787Y-95828606D01*
X148005133Y-95821603D01*
X148034493Y-95801044D01*
X148188544Y-95646993D01*
X148206379Y-95621522D01*
X148313507Y-95468528D01*
X148405580Y-95271076D01*
X148441402Y-95137385D01*
X148470522Y-95099436D01*
X148517948Y-95093192D01*
X148555898Y-95122312D01*
X148562142Y-95137385D01*
X148597843Y-95270622D01*
X148597848Y-95270635D01*
X148689820Y-95467872D01*
X148689822Y-95467874D01*
X148789502Y-95610234D01*
X148789502Y-95610235D01*
X149319388Y-95080348D01*
X149383231Y-95179690D01*
G37*
%TD.AperFunction*%
%TA.AperFunction,Conductor*%
G36*
X150752696Y-95610235D02*
G01*
X150752696Y-95610234D01*
X150852377Y-95467874D01*
X150852379Y-95467872D01*
X150944348Y-95270640D01*
X150944766Y-95269494D01*
X150945005Y-95269232D01*
X150945507Y-95268157D01*
X150945845Y-95268315D01*
X150977078Y-95234222D01*
X151024868Y-95232128D01*
X151060140Y-95264440D01*
X151066000Y-95290862D01*
X151066000Y-95828978D01*
X151068963Y-95854515D01*
X151069475Y-95856398D01*
X151069321Y-95857601D01*
X151069504Y-95859179D01*
X151069113Y-95859224D01*
X151063409Y-95903847D01*
X151025568Y-95933109D01*
X151009166Y-95935300D01*
X150578715Y-95935300D01*
X150534521Y-95916994D01*
X150516215Y-95872800D01*
X150534521Y-95828606D01*
X150537667Y-95825965D01*
X150537735Y-95825196D01*
X150006914Y-95294375D01*
X150048570Y-95275352D01*
X150158969Y-95179690D01*
X150222810Y-95080349D01*
X150752696Y-95610235D01*
G37*
%TD.AperFunction*%
%TA.AperFunction,Conductor*%
G36*
X149080229Y-93719406D02*
G01*
X149098535Y-93763600D01*
X149080229Y-93807794D01*
X149071883Y-93814797D01*
X149004465Y-93862003D01*
X149004464Y-93862003D01*
X149535285Y-94392824D01*
X149493630Y-94411848D01*
X149383231Y-94507510D01*
X149319389Y-94606850D01*
X148789503Y-94076964D01*
X148789503Y-94076965D01*
X148689822Y-94219325D01*
X148597845Y-94416571D01*
X148562142Y-94549814D01*
X148533022Y-94587764D01*
X148485595Y-94594007D01*
X148447645Y-94564887D01*
X148441402Y-94549813D01*
X148405583Y-94416134D01*
X148405581Y-94416131D01*
X148405580Y-94416124D01*
X148313813Y-94219328D01*
X148313509Y-94218675D01*
X148313507Y-94218673D01*
X148313507Y-94218672D01*
X148188545Y-94040208D01*
X148188544Y-94040206D01*
X148034493Y-93886155D01*
X147932583Y-93814797D01*
X147906881Y-93774453D01*
X147917234Y-93727752D01*
X147957578Y-93702050D01*
X147968431Y-93701100D01*
X149036035Y-93701100D01*
X149080229Y-93719406D01*
G37*
%TD.AperFunction*%
%TA.AperFunction,Conductor*%
G36*
X151075341Y-93719406D02*
G01*
X151093647Y-93763600D01*
X151088322Y-93788844D01*
X151068963Y-93832690D01*
X151068962Y-93832692D01*
X151066000Y-93858221D01*
X151066000Y-94396335D01*
X151047694Y-94440529D01*
X151003500Y-94458835D01*
X150959306Y-94440529D01*
X150945592Y-94419003D01*
X150945507Y-94419043D01*
X150945205Y-94418396D01*
X150944770Y-94417713D01*
X150944354Y-94416571D01*
X150852378Y-94219328D01*
X150752694Y-94076965D01*
X150222810Y-94606848D01*
X150158969Y-94507510D01*
X150048570Y-94411848D01*
X150006913Y-94392823D01*
X150537735Y-93862002D01*
X150470318Y-93814797D01*
X150444616Y-93774453D01*
X150454969Y-93727752D01*
X150495313Y-93702050D01*
X150506166Y-93701100D01*
X151031147Y-93701100D01*
X151075341Y-93719406D01*
G37*
%TD.AperFunction*%
%TD*%
M02*
