M48
; DRILL file {KiCad 7.0.6-7.0.6~ubuntu22.04.1} date Fri 04 Aug 2023 14:24:36 BST
; FORMAT={-:-/ absolute / metric / decimal}
; #@! TF.CreationDate,2023-08-04T14:24:36+01:00
; #@! TF.GenerationSoftware,Kicad,Pcbnew,7.0.6-7.0.6~ubuntu22.04.1
; #@! TF.FileFunction,MixedPlating,1,2
FMAT,2
METRIC
; #@! TA.AperFunction,Plated,PTH,ComponentDrill
T1C0.400
; #@! TA.AperFunction,Plated,PTH,ViaDrill
T2C0.500
; #@! TA.AperFunction,Plated,PTH,ViaDrill
T3C0.600
; #@! TA.AperFunction,Plated,PTH,ComponentDrill
T4C0.813
; #@! TA.AperFunction,Plated,PTH,ComponentDrill
T5C1.000
; #@! TA.AperFunction,Plated,PTH,ComponentDrill
T6C2.500
%
G90
G05
T1
X142.04Y-105.397
X142.04Y-106.897
X144.04Y-105.397
X144.04Y-106.897
T2
X139.103Y-107.671
X140.627Y-105.131
X140.627Y-107.29
X141.008Y-106.147
X141.262Y-110.973
X142.278Y-112.116
X142.786Y-100.686
X143.675Y-99.797
X145.072Y-106.274
X145.453Y-107.29
X145.58Y-105.131
X151.549Y-108.179
X153.708Y-112.751
X154.47Y-99.162
X154.724Y-103.861
X155.232Y-108.052
X157.264Y-103.734
T3
X151.168Y-104.115
T4
X146.342Y-110.719
X156.502Y-110.719
T5
X142.383Y-96.749
X144.691Y-114.529
X145.883Y-96.749
X147.231Y-114.529
X149.771Y-114.529
X151.019Y-96.749
X152.311Y-114.529
X154.519Y-96.749
T6
X140.881Y-114.529
X156.121Y-114.529
T0
M30
