%TF.GenerationSoftware,KiCad,Pcbnew,7.0.6-7.0.6~ubuntu22.04.1*%
%TF.CreationDate,2023-08-05T22:41:19+01:00*%
%TF.ProjectId,working,776f726b-696e-4672-9e6b-696361645f70,rev?*%
%TF.SameCoordinates,Original*%
%TF.FileFunction,Copper,L2,Bot*%
%TF.FilePolarity,Positive*%
%FSLAX46Y46*%
G04 Gerber Fmt 4.6, Leading zero omitted, Abs format (unit mm)*
G04 Created by KiCad (PCBNEW 7.0.6-7.0.6~ubuntu22.04.1) date 2023-08-05 22:41:19*
%MOMM*%
%LPD*%
G01*
G04 APERTURE LIST*
%TA.AperFunction,ComponentPad*%
%ADD10C,3.200000*%
%TD*%
%TA.AperFunction,ComponentPad*%
%ADD11C,1.930400*%
%TD*%
%TA.AperFunction,ViaPad*%
%ADD12C,1.206400*%
%TD*%
%TA.AperFunction,ViaPad*%
%ADD13C,0.800100*%
%TD*%
%TA.AperFunction,ViaPad*%
%ADD14C,0.806400*%
%TD*%
%TA.AperFunction,Conductor*%
%ADD15C,0.406400*%
%TD*%
%TA.AperFunction,Conductor*%
%ADD16C,0.254000*%
%TD*%
G04 APERTURE END LIST*
D10*
%TO.P,U$2,P$1*%
%TO.N,N/C*%
X142151100Y-99288600D03*
%TD*%
%TO.P,U$3,P$1*%
%TO.N,N/C*%
X154851100Y-99288600D03*
%TD*%
D11*
%TO.P,JP1,1*%
%TO.N,VIN*%
X143421100Y-111480600D03*
%TO.P,JP1,2*%
%TO.N,GND*%
X145961100Y-111480600D03*
%TO.P,JP1,3*%
%TO.N,SCL*%
X148501100Y-111480600D03*
%TO.P,JP1,4*%
%TO.N,SDA*%
X151041100Y-111480600D03*
%TO.P,JP1,5*%
%TO.N,IN/TRIG*%
X153581100Y-111480600D03*
%TD*%
D12*
%TO.N,OUT+*%
X151041100Y-98780600D03*
%TO.N,OUT-*%
X145961100Y-98780600D03*
D13*
%TO.N,VIN*%
X152057100Y-107924600D03*
%TO.N,GND*%
X148501100Y-104622600D03*
D14*
%TO.N,IN/TRIG*%
X148501100Y-105638600D03*
%TD*%
D15*
%TO.N,VIN*%
X143421100Y-110210600D02*
X145199100Y-108432600D01*
X145199100Y-108432600D02*
X151295100Y-108432600D01*
X143421100Y-111480600D02*
X143421100Y-110210600D01*
X151295100Y-108432600D02*
X152057100Y-107924600D01*
D16*
%TO.N,IN/TRIG*%
X148501100Y-105638600D02*
X152565100Y-105638600D01*
X152565100Y-105638600D02*
X153581100Y-106654600D01*
X153581100Y-106654600D02*
X153581100Y-111480600D01*
%TD*%
%TA.AperFunction,Conductor*%
%TO.N,GND*%
G36*
X157347294Y-102735906D02*
G01*
X157365600Y-102780100D01*
X157365600Y-110717654D01*
X157365543Y-110719541D01*
X157347380Y-111019802D01*
X157346925Y-111023547D01*
X157343021Y-111044853D01*
X157292874Y-111318496D01*
X157291970Y-111322163D01*
X157202761Y-111608444D01*
X157201422Y-111611976D01*
X157078354Y-111885423D01*
X157076598Y-111888767D01*
X156921472Y-112145379D01*
X156919327Y-112148487D01*
X156734394Y-112384535D01*
X156731890Y-112387362D01*
X156519862Y-112599390D01*
X156517035Y-112601894D01*
X156280987Y-112786827D01*
X156277879Y-112788972D01*
X156021267Y-112944098D01*
X156017923Y-112945854D01*
X155744476Y-113068922D01*
X155740944Y-113070261D01*
X155581358Y-113119990D01*
X155553184Y-113128770D01*
X155534592Y-113131600D01*
X141467608Y-113131600D01*
X141449015Y-113128770D01*
X141410949Y-113116908D01*
X141261255Y-113070261D01*
X141257723Y-113068922D01*
X140984276Y-112945854D01*
X140980932Y-112944098D01*
X140820935Y-112847377D01*
X140724316Y-112788969D01*
X140721217Y-112786831D01*
X140545927Y-112649499D01*
X140485164Y-112601894D01*
X140482345Y-112599397D01*
X140270301Y-112387353D01*
X140267805Y-112384535D01*
X140082866Y-112148478D01*
X140080732Y-112145386D01*
X139925601Y-111888767D01*
X139923848Y-111885430D01*
X139800776Y-111611975D01*
X139799438Y-111608444D01*
X139759602Y-111480604D01*
X142247192Y-111480604D01*
X142267178Y-111696297D01*
X142267180Y-111696309D01*
X142320988Y-111885423D01*
X142326463Y-111904664D01*
X142423023Y-112098583D01*
X142523687Y-112231883D01*
X142549051Y-112265471D01*
X142553572Y-112271457D01*
X142662155Y-112370444D01*
X142713657Y-112417395D01*
X142713658Y-112417396D01*
X142713662Y-112417399D01*
X142897844Y-112531439D01*
X143099845Y-112609695D01*
X143312785Y-112649500D01*
X143312788Y-112649500D01*
X143529412Y-112649500D01*
X143529415Y-112649500D01*
X143742355Y-112609695D01*
X143944356Y-112531439D01*
X144128538Y-112417399D01*
X144288628Y-112271457D01*
X144419177Y-112098583D01*
X144515737Y-111904664D01*
X144575020Y-111696305D01*
X144578301Y-111660897D01*
X144578331Y-111660577D01*
X144600636Y-111618260D01*
X144646330Y-111604110D01*
X144688647Y-111626415D01*
X144702826Y-111660895D01*
X144706407Y-111701833D01*
X144706410Y-111701848D01*
X144763884Y-111916346D01*
X144763885Y-111916348D01*
X144857740Y-112117620D01*
X144961267Y-112265471D01*
X145515177Y-111711560D01*
X145579339Y-111811398D01*
X145688000Y-111905552D01*
X145731322Y-111925336D01*
X145176227Y-112480431D01*
X145324079Y-112583959D01*
X145525351Y-112677814D01*
X145525353Y-112677815D01*
X145739851Y-112735289D01*
X145739867Y-112735292D01*
X145961098Y-112754648D01*
X145961102Y-112754648D01*
X146182332Y-112735292D01*
X146182348Y-112735289D01*
X146396846Y-112677815D01*
X146396848Y-112677814D01*
X146598123Y-112583958D01*
X146745971Y-112480431D01*
X146190877Y-111925337D01*
X146234200Y-111905552D01*
X146342861Y-111811398D01*
X146407021Y-111711561D01*
X146960931Y-112265471D01*
X147064458Y-112117623D01*
X147158314Y-111916348D01*
X147158315Y-111916346D01*
X147215789Y-111701848D01*
X147215792Y-111701831D01*
X147219373Y-111660897D01*
X147241460Y-111618466D01*
X147287081Y-111604081D01*
X147329512Y-111626168D01*
X147343868Y-111660575D01*
X147347178Y-111696298D01*
X147347180Y-111696309D01*
X147400988Y-111885423D01*
X147406463Y-111904664D01*
X147503023Y-112098583D01*
X147603687Y-112231883D01*
X147629051Y-112265471D01*
X147633572Y-112271457D01*
X147742155Y-112370444D01*
X147793657Y-112417395D01*
X147793658Y-112417396D01*
X147793662Y-112417399D01*
X147977844Y-112531439D01*
X148179845Y-112609695D01*
X148392785Y-112649500D01*
X148392788Y-112649500D01*
X148609412Y-112649500D01*
X148609415Y-112649500D01*
X148822355Y-112609695D01*
X149024356Y-112531439D01*
X149208538Y-112417399D01*
X149368628Y-112271457D01*
X149499177Y-112098583D01*
X149595737Y-111904664D01*
X149655020Y-111696305D01*
X149658331Y-111660575D01*
X149675008Y-111480604D01*
X149867192Y-111480604D01*
X149887178Y-111696297D01*
X149887180Y-111696309D01*
X149940988Y-111885423D01*
X149946463Y-111904664D01*
X150043023Y-112098583D01*
X150143687Y-112231883D01*
X150169051Y-112265471D01*
X150173572Y-112271457D01*
X150282155Y-112370444D01*
X150333657Y-112417395D01*
X150333658Y-112417396D01*
X150333662Y-112417399D01*
X150517844Y-112531439D01*
X150719845Y-112609695D01*
X150932785Y-112649500D01*
X150932788Y-112649500D01*
X151149412Y-112649500D01*
X151149415Y-112649500D01*
X151362355Y-112609695D01*
X151564356Y-112531439D01*
X151748538Y-112417399D01*
X151908628Y-112271457D01*
X152039177Y-112098583D01*
X152135737Y-111904664D01*
X152195020Y-111696305D01*
X152198331Y-111660575D01*
X152215008Y-111480604D01*
X152215008Y-111480595D01*
X152195021Y-111264902D01*
X152195019Y-111264890D01*
X152162049Y-111149014D01*
X152135737Y-111056536D01*
X152039177Y-110862617D01*
X151908628Y-110689743D01*
X151808198Y-110598188D01*
X151748542Y-110543804D01*
X151748539Y-110543802D01*
X151748538Y-110543801D01*
X151564356Y-110429761D01*
X151362355Y-110351505D01*
X151362353Y-110351504D01*
X151362349Y-110351503D01*
X151149419Y-110311700D01*
X151149415Y-110311700D01*
X150932785Y-110311700D01*
X150932780Y-110311700D01*
X150719850Y-110351503D01*
X150517843Y-110429761D01*
X150333657Y-110543804D01*
X150173570Y-110689745D01*
X150173568Y-110689747D01*
X150043023Y-110862617D01*
X149946463Y-111056535D01*
X149887180Y-111264890D01*
X149887178Y-111264902D01*
X149867192Y-111480595D01*
X149867192Y-111480604D01*
X149675008Y-111480604D01*
X149675008Y-111480595D01*
X149655021Y-111264902D01*
X149655019Y-111264890D01*
X149622049Y-111149014D01*
X149595737Y-111056536D01*
X149499177Y-110862617D01*
X149368628Y-110689743D01*
X149268198Y-110598188D01*
X149208542Y-110543804D01*
X149208539Y-110543802D01*
X149208538Y-110543801D01*
X149024356Y-110429761D01*
X148822355Y-110351505D01*
X148822353Y-110351504D01*
X148822349Y-110351503D01*
X148609419Y-110311700D01*
X148609415Y-110311700D01*
X148392785Y-110311700D01*
X148392780Y-110311700D01*
X148179850Y-110351503D01*
X147977843Y-110429761D01*
X147793657Y-110543804D01*
X147633570Y-110689745D01*
X147633568Y-110689747D01*
X147503023Y-110862617D01*
X147406463Y-111056535D01*
X147347180Y-111264890D01*
X147347178Y-111264901D01*
X147343868Y-111300624D01*
X147321562Y-111342940D01*
X147275867Y-111357089D01*
X147233551Y-111334783D01*
X147219373Y-111300302D01*
X147215792Y-111259368D01*
X147215789Y-111259351D01*
X147158315Y-111044853D01*
X147158314Y-111044851D01*
X147064459Y-110843579D01*
X146960931Y-110695727D01*
X146407021Y-111249637D01*
X146342861Y-111149802D01*
X146234200Y-111055648D01*
X146190875Y-111035862D01*
X146745972Y-110480767D01*
X146598120Y-110377240D01*
X146396848Y-110283385D01*
X146396846Y-110283384D01*
X146182348Y-110225910D01*
X146182332Y-110225907D01*
X145961102Y-110206552D01*
X145961098Y-110206552D01*
X145739867Y-110225907D01*
X145739851Y-110225910D01*
X145525353Y-110283384D01*
X145525351Y-110283385D01*
X145324076Y-110377241D01*
X145176227Y-110480766D01*
X145176226Y-110480766D01*
X145731322Y-111035862D01*
X145688000Y-111055648D01*
X145579339Y-111149802D01*
X145515178Y-111249638D01*
X144961266Y-110695726D01*
X144961266Y-110695727D01*
X144857741Y-110843576D01*
X144763885Y-111044851D01*
X144763884Y-111044853D01*
X144706410Y-111259351D01*
X144706407Y-111259366D01*
X144702826Y-111300304D01*
X144680738Y-111342734D01*
X144635116Y-111357118D01*
X144592686Y-111335030D01*
X144578331Y-111300622D01*
X144575021Y-111264903D01*
X144575019Y-111264890D01*
X144542049Y-111149014D01*
X144515737Y-111056536D01*
X144419177Y-110862617D01*
X144288628Y-110689743D01*
X144188198Y-110598188D01*
X144128542Y-110543804D01*
X144128539Y-110543802D01*
X144128538Y-110543801D01*
X143944356Y-110429761D01*
X143944355Y-110429760D01*
X143944351Y-110429758D01*
X143944352Y-110429758D01*
X143913445Y-110417785D01*
X143878848Y-110384751D01*
X143877744Y-110336928D01*
X143891827Y-110315314D01*
X145349336Y-108857806D01*
X145393531Y-108839500D01*
X151248623Y-108839500D01*
X151260879Y-108840713D01*
X151278495Y-108844237D01*
X151317068Y-108839712D01*
X151320704Y-108839500D01*
X151327122Y-108839500D01*
X151327124Y-108839500D01*
X151350661Y-108835772D01*
X151406512Y-108829221D01*
X151406513Y-108829220D01*
X151408021Y-108828796D01*
X151420921Y-108824891D01*
X151422400Y-108824409D01*
X151422406Y-108824409D01*
X151472515Y-108798876D01*
X151494162Y-108788925D01*
X151499515Y-108785355D01*
X151502639Y-108783527D01*
X151537251Y-108765892D01*
X151549955Y-108753186D01*
X151559470Y-108745385D01*
X151887336Y-108526808D01*
X151930159Y-108516847D01*
X152038325Y-108531088D01*
X152057099Y-108533560D01*
X152057100Y-108533560D01*
X152057102Y-108533560D01*
X152214703Y-108512811D01*
X152214703Y-108512810D01*
X152214710Y-108512810D01*
X152361580Y-108451975D01*
X152487700Y-108355200D01*
X152584475Y-108229080D01*
X152645310Y-108082210D01*
X152666060Y-107924600D01*
X152656143Y-107849277D01*
X152645311Y-107766996D01*
X152645310Y-107766994D01*
X152645310Y-107766990D01*
X152584475Y-107620120D01*
X152561957Y-107590774D01*
X152487700Y-107493999D01*
X152361580Y-107397225D01*
X152361580Y-107397224D01*
X152214710Y-107336390D01*
X152214708Y-107336389D01*
X152214703Y-107336388D01*
X152057103Y-107315640D01*
X152057097Y-107315640D01*
X151899496Y-107336388D01*
X151899490Y-107336390D01*
X151752619Y-107397225D01*
X151626499Y-107493999D01*
X151529725Y-107620119D01*
X151468888Y-107766994D01*
X151463828Y-107805432D01*
X151439910Y-107846859D01*
X151436532Y-107849277D01*
X151187645Y-108015203D01*
X151152976Y-108025700D01*
X145134654Y-108025700D01*
X145108491Y-108034199D01*
X145098960Y-108036487D01*
X145071794Y-108040790D01*
X145071792Y-108040791D01*
X145047288Y-108053276D01*
X145038230Y-108057029D01*
X145012067Y-108065530D01*
X144989812Y-108081699D01*
X144981453Y-108086821D01*
X144956949Y-108099307D01*
X144956948Y-108099307D01*
X144915719Y-108140533D01*
X144915716Y-108140539D01*
X143170158Y-109886098D01*
X143087807Y-109968449D01*
X143075320Y-109992954D01*
X143070199Y-110001310D01*
X143054031Y-110023565D01*
X143045529Y-110049730D01*
X143041776Y-110058788D01*
X143029291Y-110083292D01*
X143029290Y-110083294D01*
X143024987Y-110110460D01*
X143022699Y-110119991D01*
X143014200Y-110146153D01*
X143014200Y-110341870D01*
X142995894Y-110386064D01*
X142974278Y-110400149D01*
X142897848Y-110429758D01*
X142713657Y-110543804D01*
X142553570Y-110689745D01*
X142553568Y-110689747D01*
X142423023Y-110862617D01*
X142326463Y-111056535D01*
X142267180Y-111264890D01*
X142267178Y-111264902D01*
X142247192Y-111480595D01*
X142247192Y-111480604D01*
X139759602Y-111480604D01*
X139737199Y-111408711D01*
X139710228Y-111322160D01*
X139709327Y-111318505D01*
X139655271Y-111023531D01*
X139654820Y-111019816D01*
X139636657Y-110719541D01*
X139636600Y-110717654D01*
X139636600Y-105638601D01*
X147888963Y-105638601D01*
X147909819Y-105797026D01*
X147909820Y-105797032D01*
X147909821Y-105797033D01*
X147970974Y-105944669D01*
X148068254Y-106071446D01*
X148195031Y-106168726D01*
X148342667Y-106229879D01*
X148342671Y-106229879D01*
X148342673Y-106229880D01*
X148501098Y-106250737D01*
X148501100Y-106250737D01*
X148501102Y-106250737D01*
X148659526Y-106229880D01*
X148659526Y-106229879D01*
X148659533Y-106229879D01*
X148807169Y-106168726D01*
X148933946Y-106071446D01*
X148993562Y-105993752D01*
X149034989Y-105969835D01*
X149043147Y-105969300D01*
X152402232Y-105969300D01*
X152446426Y-105987606D01*
X153232093Y-106773273D01*
X153250399Y-106817467D01*
X153250399Y-110312350D01*
X153232093Y-110356544D01*
X153210477Y-110370629D01*
X153057848Y-110429758D01*
X152873657Y-110543804D01*
X152713570Y-110689745D01*
X152713568Y-110689747D01*
X152583023Y-110862617D01*
X152486463Y-111056535D01*
X152427180Y-111264890D01*
X152427178Y-111264902D01*
X152407192Y-111480595D01*
X152407192Y-111480604D01*
X152427178Y-111696297D01*
X152427180Y-111696309D01*
X152480988Y-111885423D01*
X152486463Y-111904664D01*
X152583023Y-112098583D01*
X152683687Y-112231883D01*
X152709051Y-112265471D01*
X152713572Y-112271457D01*
X152822155Y-112370444D01*
X152873657Y-112417395D01*
X152873658Y-112417396D01*
X152873662Y-112417399D01*
X153057844Y-112531439D01*
X153259845Y-112609695D01*
X153472785Y-112649500D01*
X153472788Y-112649500D01*
X153689412Y-112649500D01*
X153689415Y-112649500D01*
X153902355Y-112609695D01*
X154104356Y-112531439D01*
X154288538Y-112417399D01*
X154448628Y-112271457D01*
X154579177Y-112098583D01*
X154675737Y-111904664D01*
X154735020Y-111696305D01*
X154738331Y-111660575D01*
X154755008Y-111480604D01*
X154755008Y-111480595D01*
X154735021Y-111264902D01*
X154735019Y-111264890D01*
X154702049Y-111149014D01*
X154675737Y-111056536D01*
X154579177Y-110862617D01*
X154448628Y-110689743D01*
X154348198Y-110598188D01*
X154288542Y-110543804D01*
X154288539Y-110543802D01*
X154288538Y-110543801D01*
X154104356Y-110429761D01*
X154104355Y-110429760D01*
X154104351Y-110429758D01*
X154104352Y-110429758D01*
X153951722Y-110370629D01*
X153917125Y-110337595D01*
X153911800Y-110312350D01*
X153911800Y-106670405D01*
X153911919Y-106667680D01*
X153915624Y-106625333D01*
X153904620Y-106584269D01*
X153904034Y-106581629D01*
X153896651Y-106539749D01*
X153893378Y-106534081D01*
X153887133Y-106519002D01*
X153885440Y-106512685D01*
X153885441Y-106512685D01*
X153861052Y-106477855D01*
X153859587Y-106475554D01*
X153838339Y-106438751D01*
X153805763Y-106411416D01*
X153803753Y-106409573D01*
X152810120Y-105415940D01*
X152808277Y-105413929D01*
X152780949Y-105381361D01*
X152744132Y-105360104D01*
X152741841Y-105358645D01*
X152707016Y-105334260D01*
X152707015Y-105334259D01*
X152707014Y-105334259D01*
X152700692Y-105332565D01*
X152685618Y-105326321D01*
X152679950Y-105323048D01*
X152638074Y-105315665D01*
X152635419Y-105315075D01*
X152621632Y-105311381D01*
X152594366Y-105304075D01*
X152557317Y-105307317D01*
X152552015Y-105307781D01*
X152549294Y-105307900D01*
X149043147Y-105307900D01*
X148998953Y-105289594D01*
X148993562Y-105283448D01*
X148933944Y-105205752D01*
X148895502Y-105176255D01*
X148807169Y-105108474D01*
X148807165Y-105108472D01*
X148659536Y-105047322D01*
X148659526Y-105047319D01*
X148501102Y-105026463D01*
X148501098Y-105026463D01*
X148342673Y-105047319D01*
X148342663Y-105047322D01*
X148195034Y-105108472D01*
X148195031Y-105108474D01*
X148068253Y-105205753D01*
X147970974Y-105332531D01*
X147970972Y-105332534D01*
X147909822Y-105480163D01*
X147909819Y-105480173D01*
X147888963Y-105638598D01*
X147888963Y-105638601D01*
X139636600Y-105638601D01*
X139636600Y-102780100D01*
X139654906Y-102735906D01*
X139699100Y-102717600D01*
X157303100Y-102717600D01*
X157347294Y-102735906D01*
G37*
%TD.AperFunction*%
%TD*%
M02*
