%TF.GenerationSoftware,KiCad,Pcbnew,7.0.6-7.0.6~ubuntu22.04.1*%
%TF.CreationDate,2023-08-06T00:28:44+01:00*%
%TF.ProjectId,working,776f726b-696e-4672-9e6b-696361645f70,rev?*%
%TF.SameCoordinates,Original*%
%TF.FileFunction,AssemblyDrawing,Top*%
%FSLAX46Y46*%
G04 Gerber Fmt 4.6, Leading zero omitted, Abs format (unit mm)*
G04 Created by KiCad (PCBNEW 7.0.6-7.0.6~ubuntu22.04.1) date 2023-08-06 00:28:44*
%MOMM*%
%LPD*%
G01*
G04 APERTURE LIST*
%ADD10C,0.150000*%
G04 APERTURE END LIST*
D10*
X92104760Y-77554819D02*
X91771427Y-77078628D01*
X91533332Y-77554819D02*
X91533332Y-76554819D01*
X91533332Y-76554819D02*
X91914284Y-76554819D01*
X91914284Y-76554819D02*
X92009522Y-76602438D01*
X92009522Y-76602438D02*
X92057141Y-76650057D01*
X92057141Y-76650057D02*
X92104760Y-76745295D01*
X92104760Y-76745295D02*
X92104760Y-76888152D01*
X92104760Y-76888152D02*
X92057141Y-76983390D01*
X92057141Y-76983390D02*
X92009522Y-77031009D01*
X92009522Y-77031009D02*
X91914284Y-77078628D01*
X91914284Y-77078628D02*
X91533332Y-77078628D01*
X92819046Y-76554819D02*
X92819046Y-77269104D01*
X92819046Y-77269104D02*
X92771427Y-77411961D01*
X92771427Y-77411961D02*
X92676189Y-77507200D01*
X92676189Y-77507200D02*
X92533332Y-77554819D01*
X92533332Y-77554819D02*
X92438094Y-77554819D01*
X93723808Y-76888152D02*
X93723808Y-77554819D01*
X93485713Y-76507200D02*
X93247618Y-77221485D01*
X93247618Y-77221485D02*
X93866665Y-77221485D01*
X94723808Y-76554819D02*
X94247618Y-76554819D01*
X94247618Y-76554819D02*
X94199999Y-77031009D01*
X94199999Y-77031009D02*
X94247618Y-76983390D01*
X94247618Y-76983390D02*
X94342856Y-76935771D01*
X94342856Y-76935771D02*
X94580951Y-76935771D01*
X94580951Y-76935771D02*
X94676189Y-76983390D01*
X94676189Y-76983390D02*
X94723808Y-77031009D01*
X94723808Y-77031009D02*
X94771427Y-77126247D01*
X94771427Y-77126247D02*
X94771427Y-77364342D01*
X94771427Y-77364342D02*
X94723808Y-77459580D01*
X94723808Y-77459580D02*
X94676189Y-77507200D01*
X94676189Y-77507200D02*
X94580951Y-77554819D01*
X94580951Y-77554819D02*
X94342856Y-77554819D01*
X94342856Y-77554819D02*
X94247618Y-77507200D01*
X94247618Y-77507200D02*
X94199999Y-77459580D01*
X94961904Y-77650057D02*
X95723808Y-77650057D01*
X95961904Y-77554819D02*
X95961904Y-76554819D01*
X95961904Y-76554819D02*
X96295237Y-77269104D01*
X96295237Y-77269104D02*
X96628570Y-76554819D01*
X96628570Y-76554819D02*
X96628570Y-77554819D01*
X97247618Y-77554819D02*
X97152380Y-77507200D01*
X97152380Y-77507200D02*
X97104761Y-77459580D01*
X97104761Y-77459580D02*
X97057142Y-77364342D01*
X97057142Y-77364342D02*
X97057142Y-77078628D01*
X97057142Y-77078628D02*
X97104761Y-76983390D01*
X97104761Y-76983390D02*
X97152380Y-76935771D01*
X97152380Y-76935771D02*
X97247618Y-76888152D01*
X97247618Y-76888152D02*
X97390475Y-76888152D01*
X97390475Y-76888152D02*
X97485713Y-76935771D01*
X97485713Y-76935771D02*
X97533332Y-76983390D01*
X97533332Y-76983390D02*
X97580951Y-77078628D01*
X97580951Y-77078628D02*
X97580951Y-77364342D01*
X97580951Y-77364342D02*
X97533332Y-77459580D01*
X97533332Y-77459580D02*
X97485713Y-77507200D01*
X97485713Y-77507200D02*
X97390475Y-77554819D01*
X97390475Y-77554819D02*
X97247618Y-77554819D01*
X98152380Y-77554819D02*
X98057142Y-77507200D01*
X98057142Y-77507200D02*
X98009523Y-77411961D01*
X98009523Y-77411961D02*
X98009523Y-76554819D01*
X98914285Y-77507200D02*
X98819047Y-77554819D01*
X98819047Y-77554819D02*
X98628571Y-77554819D01*
X98628571Y-77554819D02*
X98533333Y-77507200D01*
X98533333Y-77507200D02*
X98485714Y-77411961D01*
X98485714Y-77411961D02*
X98485714Y-77031009D01*
X98485714Y-77031009D02*
X98533333Y-76935771D01*
X98533333Y-76935771D02*
X98628571Y-76888152D01*
X98628571Y-76888152D02*
X98819047Y-76888152D01*
X98819047Y-76888152D02*
X98914285Y-76935771D01*
X98914285Y-76935771D02*
X98961904Y-77031009D01*
X98961904Y-77031009D02*
X98961904Y-77126247D01*
X98961904Y-77126247D02*
X98485714Y-77221485D01*
X99295238Y-77554819D02*
X99819047Y-76888152D01*
X99295238Y-76888152D02*
X99819047Y-77554819D01*
X99961905Y-77650057D02*
X100723809Y-77650057D01*
X101390476Y-76888152D02*
X101390476Y-77554819D01*
X101152381Y-76507200D02*
X100914286Y-77221485D01*
X100914286Y-77221485D02*
X101533333Y-77221485D01*
X101866667Y-76650057D02*
X101914286Y-76602438D01*
X101914286Y-76602438D02*
X102009524Y-76554819D01*
X102009524Y-76554819D02*
X102247619Y-76554819D01*
X102247619Y-76554819D02*
X102342857Y-76602438D01*
X102342857Y-76602438D02*
X102390476Y-76650057D01*
X102390476Y-76650057D02*
X102438095Y-76745295D01*
X102438095Y-76745295D02*
X102438095Y-76840533D01*
X102438095Y-76840533D02*
X102390476Y-76983390D01*
X102390476Y-76983390D02*
X101819048Y-77554819D01*
X101819048Y-77554819D02*
X102438095Y-77554819D01*
X103009524Y-76983390D02*
X102914286Y-76935771D01*
X102914286Y-76935771D02*
X102866667Y-76888152D01*
X102866667Y-76888152D02*
X102819048Y-76792914D01*
X102819048Y-76792914D02*
X102819048Y-76745295D01*
X102819048Y-76745295D02*
X102866667Y-76650057D01*
X102866667Y-76650057D02*
X102914286Y-76602438D01*
X102914286Y-76602438D02*
X103009524Y-76554819D01*
X103009524Y-76554819D02*
X103200000Y-76554819D01*
X103200000Y-76554819D02*
X103295238Y-76602438D01*
X103295238Y-76602438D02*
X103342857Y-76650057D01*
X103342857Y-76650057D02*
X103390476Y-76745295D01*
X103390476Y-76745295D02*
X103390476Y-76792914D01*
X103390476Y-76792914D02*
X103342857Y-76888152D01*
X103342857Y-76888152D02*
X103295238Y-76935771D01*
X103295238Y-76935771D02*
X103200000Y-76983390D01*
X103200000Y-76983390D02*
X103009524Y-76983390D01*
X103009524Y-76983390D02*
X102914286Y-77031009D01*
X102914286Y-77031009D02*
X102866667Y-77078628D01*
X102866667Y-77078628D02*
X102819048Y-77173866D01*
X102819048Y-77173866D02*
X102819048Y-77364342D01*
X102819048Y-77364342D02*
X102866667Y-77459580D01*
X102866667Y-77459580D02*
X102914286Y-77507200D01*
X102914286Y-77507200D02*
X103009524Y-77554819D01*
X103009524Y-77554819D02*
X103200000Y-77554819D01*
X103200000Y-77554819D02*
X103295238Y-77507200D01*
X103295238Y-77507200D02*
X103342857Y-77459580D01*
X103342857Y-77459580D02*
X103390476Y-77364342D01*
X103390476Y-77364342D02*
X103390476Y-77173866D01*
X103390476Y-77173866D02*
X103342857Y-77078628D01*
X103342857Y-77078628D02*
X103295238Y-77031009D01*
X103295238Y-77031009D02*
X103200000Y-76983390D01*
X103723810Y-76554819D02*
X104390476Y-76554819D01*
X104390476Y-76554819D02*
X103961905Y-77554819D01*
X104914286Y-76983390D02*
X104819048Y-76935771D01*
X104819048Y-76935771D02*
X104771429Y-76888152D01*
X104771429Y-76888152D02*
X104723810Y-76792914D01*
X104723810Y-76792914D02*
X104723810Y-76745295D01*
X104723810Y-76745295D02*
X104771429Y-76650057D01*
X104771429Y-76650057D02*
X104819048Y-76602438D01*
X104819048Y-76602438D02*
X104914286Y-76554819D01*
X104914286Y-76554819D02*
X105104762Y-76554819D01*
X105104762Y-76554819D02*
X105200000Y-76602438D01*
X105200000Y-76602438D02*
X105247619Y-76650057D01*
X105247619Y-76650057D02*
X105295238Y-76745295D01*
X105295238Y-76745295D02*
X105295238Y-76792914D01*
X105295238Y-76792914D02*
X105247619Y-76888152D01*
X105247619Y-76888152D02*
X105200000Y-76935771D01*
X105200000Y-76935771D02*
X105104762Y-76983390D01*
X105104762Y-76983390D02*
X104914286Y-76983390D01*
X104914286Y-76983390D02*
X104819048Y-77031009D01*
X104819048Y-77031009D02*
X104771429Y-77078628D01*
X104771429Y-77078628D02*
X104723810Y-77173866D01*
X104723810Y-77173866D02*
X104723810Y-77364342D01*
X104723810Y-77364342D02*
X104771429Y-77459580D01*
X104771429Y-77459580D02*
X104819048Y-77507200D01*
X104819048Y-77507200D02*
X104914286Y-77554819D01*
X104914286Y-77554819D02*
X105104762Y-77554819D01*
X105104762Y-77554819D02*
X105200000Y-77507200D01*
X105200000Y-77507200D02*
X105247619Y-77459580D01*
X105247619Y-77459580D02*
X105295238Y-77364342D01*
X105295238Y-77364342D02*
X105295238Y-77173866D01*
X105295238Y-77173866D02*
X105247619Y-77078628D01*
X105247619Y-77078628D02*
X105200000Y-77031009D01*
X105200000Y-77031009D02*
X105104762Y-76983390D01*
X105723810Y-77173866D02*
X106485715Y-77173866D01*
X107104762Y-76983390D02*
X107009524Y-76935771D01*
X107009524Y-76935771D02*
X106961905Y-76888152D01*
X106961905Y-76888152D02*
X106914286Y-76792914D01*
X106914286Y-76792914D02*
X106914286Y-76745295D01*
X106914286Y-76745295D02*
X106961905Y-76650057D01*
X106961905Y-76650057D02*
X107009524Y-76602438D01*
X107009524Y-76602438D02*
X107104762Y-76554819D01*
X107104762Y-76554819D02*
X107295238Y-76554819D01*
X107295238Y-76554819D02*
X107390476Y-76602438D01*
X107390476Y-76602438D02*
X107438095Y-76650057D01*
X107438095Y-76650057D02*
X107485714Y-76745295D01*
X107485714Y-76745295D02*
X107485714Y-76792914D01*
X107485714Y-76792914D02*
X107438095Y-76888152D01*
X107438095Y-76888152D02*
X107390476Y-76935771D01*
X107390476Y-76935771D02*
X107295238Y-76983390D01*
X107295238Y-76983390D02*
X107104762Y-76983390D01*
X107104762Y-76983390D02*
X107009524Y-77031009D01*
X107009524Y-77031009D02*
X106961905Y-77078628D01*
X106961905Y-77078628D02*
X106914286Y-77173866D01*
X106914286Y-77173866D02*
X106914286Y-77364342D01*
X106914286Y-77364342D02*
X106961905Y-77459580D01*
X106961905Y-77459580D02*
X107009524Y-77507200D01*
X107009524Y-77507200D02*
X107104762Y-77554819D01*
X107104762Y-77554819D02*
X107295238Y-77554819D01*
X107295238Y-77554819D02*
X107390476Y-77507200D01*
X107390476Y-77507200D02*
X107438095Y-77459580D01*
X107438095Y-77459580D02*
X107485714Y-77364342D01*
X107485714Y-77364342D02*
X107485714Y-77173866D01*
X107485714Y-77173866D02*
X107438095Y-77078628D01*
X107438095Y-77078628D02*
X107390476Y-77031009D01*
X107390476Y-77031009D02*
X107295238Y-76983390D01*
X108390476Y-76554819D02*
X107914286Y-76554819D01*
X107914286Y-76554819D02*
X107866667Y-77031009D01*
X107866667Y-77031009D02*
X107914286Y-76983390D01*
X107914286Y-76983390D02*
X108009524Y-76935771D01*
X108009524Y-76935771D02*
X108247619Y-76935771D01*
X108247619Y-76935771D02*
X108342857Y-76983390D01*
X108342857Y-76983390D02*
X108390476Y-77031009D01*
X108390476Y-77031009D02*
X108438095Y-77126247D01*
X108438095Y-77126247D02*
X108438095Y-77364342D01*
X108438095Y-77364342D02*
X108390476Y-77459580D01*
X108390476Y-77459580D02*
X108342857Y-77507200D01*
X108342857Y-77507200D02*
X108247619Y-77554819D01*
X108247619Y-77554819D02*
X108009524Y-77554819D01*
X108009524Y-77554819D02*
X107914286Y-77507200D01*
X107914286Y-77507200D02*
X107866667Y-77459580D01*
X109057143Y-76554819D02*
X109152381Y-76554819D01*
X109152381Y-76554819D02*
X109247619Y-76602438D01*
X109247619Y-76602438D02*
X109295238Y-76650057D01*
X109295238Y-76650057D02*
X109342857Y-76745295D01*
X109342857Y-76745295D02*
X109390476Y-76935771D01*
X109390476Y-76935771D02*
X109390476Y-77173866D01*
X109390476Y-77173866D02*
X109342857Y-77364342D01*
X109342857Y-77364342D02*
X109295238Y-77459580D01*
X109295238Y-77459580D02*
X109247619Y-77507200D01*
X109247619Y-77507200D02*
X109152381Y-77554819D01*
X109152381Y-77554819D02*
X109057143Y-77554819D01*
X109057143Y-77554819D02*
X108961905Y-77507200D01*
X108961905Y-77507200D02*
X108914286Y-77459580D01*
X108914286Y-77459580D02*
X108866667Y-77364342D01*
X108866667Y-77364342D02*
X108819048Y-77173866D01*
X108819048Y-77173866D02*
X108819048Y-76935771D01*
X108819048Y-76935771D02*
X108866667Y-76745295D01*
X108866667Y-76745295D02*
X108914286Y-76650057D01*
X108914286Y-76650057D02*
X108961905Y-76602438D01*
X108961905Y-76602438D02*
X109057143Y-76554819D01*
X110247619Y-76554819D02*
X110057143Y-76554819D01*
X110057143Y-76554819D02*
X109961905Y-76602438D01*
X109961905Y-76602438D02*
X109914286Y-76650057D01*
X109914286Y-76650057D02*
X109819048Y-76792914D01*
X109819048Y-76792914D02*
X109771429Y-76983390D01*
X109771429Y-76983390D02*
X109771429Y-77364342D01*
X109771429Y-77364342D02*
X109819048Y-77459580D01*
X109819048Y-77459580D02*
X109866667Y-77507200D01*
X109866667Y-77507200D02*
X109961905Y-77554819D01*
X109961905Y-77554819D02*
X110152381Y-77554819D01*
X110152381Y-77554819D02*
X110247619Y-77507200D01*
X110247619Y-77507200D02*
X110295238Y-77459580D01*
X110295238Y-77459580D02*
X110342857Y-77364342D01*
X110342857Y-77364342D02*
X110342857Y-77126247D01*
X110342857Y-77126247D02*
X110295238Y-77031009D01*
X110295238Y-77031009D02*
X110247619Y-76983390D01*
X110247619Y-76983390D02*
X110152381Y-76935771D01*
X110152381Y-76935771D02*
X109961905Y-76935771D01*
X109961905Y-76935771D02*
X109866667Y-76983390D01*
X109866667Y-76983390D02*
X109819048Y-77031009D01*
X109819048Y-77031009D02*
X109771429Y-77126247D01*
X110533334Y-77650057D02*
X111295238Y-77650057D01*
X111533334Y-77554819D02*
X111533334Y-76554819D01*
X111533334Y-76554819D02*
X111866667Y-77269104D01*
X111866667Y-77269104D02*
X112200000Y-76554819D01*
X112200000Y-76554819D02*
X112200000Y-77554819D01*
X112819048Y-77554819D02*
X112723810Y-77507200D01*
X112723810Y-77507200D02*
X112676191Y-77459580D01*
X112676191Y-77459580D02*
X112628572Y-77364342D01*
X112628572Y-77364342D02*
X112628572Y-77078628D01*
X112628572Y-77078628D02*
X112676191Y-76983390D01*
X112676191Y-76983390D02*
X112723810Y-76935771D01*
X112723810Y-76935771D02*
X112819048Y-76888152D01*
X112819048Y-76888152D02*
X112961905Y-76888152D01*
X112961905Y-76888152D02*
X113057143Y-76935771D01*
X113057143Y-76935771D02*
X113104762Y-76983390D01*
X113104762Y-76983390D02*
X113152381Y-77078628D01*
X113152381Y-77078628D02*
X113152381Y-77364342D01*
X113152381Y-77364342D02*
X113104762Y-77459580D01*
X113104762Y-77459580D02*
X113057143Y-77507200D01*
X113057143Y-77507200D02*
X112961905Y-77554819D01*
X112961905Y-77554819D02*
X112819048Y-77554819D01*
X114009524Y-76888152D02*
X114009524Y-77554819D01*
X113580953Y-76888152D02*
X113580953Y-77411961D01*
X113580953Y-77411961D02*
X113628572Y-77507200D01*
X113628572Y-77507200D02*
X113723810Y-77554819D01*
X113723810Y-77554819D02*
X113866667Y-77554819D01*
X113866667Y-77554819D02*
X113961905Y-77507200D01*
X113961905Y-77507200D02*
X114009524Y-77459580D01*
X114485715Y-76888152D02*
X114485715Y-77554819D01*
X114485715Y-76983390D02*
X114533334Y-76935771D01*
X114533334Y-76935771D02*
X114628572Y-76888152D01*
X114628572Y-76888152D02*
X114771429Y-76888152D01*
X114771429Y-76888152D02*
X114866667Y-76935771D01*
X114866667Y-76935771D02*
X114914286Y-77031009D01*
X114914286Y-77031009D02*
X114914286Y-77554819D01*
X115247620Y-76888152D02*
X115628572Y-76888152D01*
X115390477Y-76554819D02*
X115390477Y-77411961D01*
X115390477Y-77411961D02*
X115438096Y-77507200D01*
X115438096Y-77507200D02*
X115533334Y-77554819D01*
X115533334Y-77554819D02*
X115628572Y-77554819D01*
X115961906Y-77554819D02*
X115961906Y-76888152D01*
X115961906Y-76554819D02*
X115914287Y-76602438D01*
X115914287Y-76602438D02*
X115961906Y-76650057D01*
X115961906Y-76650057D02*
X116009525Y-76602438D01*
X116009525Y-76602438D02*
X115961906Y-76554819D01*
X115961906Y-76554819D02*
X115961906Y-76650057D01*
X116438096Y-76888152D02*
X116438096Y-77554819D01*
X116438096Y-76983390D02*
X116485715Y-76935771D01*
X116485715Y-76935771D02*
X116580953Y-76888152D01*
X116580953Y-76888152D02*
X116723810Y-76888152D01*
X116723810Y-76888152D02*
X116819048Y-76935771D01*
X116819048Y-76935771D02*
X116866667Y-77031009D01*
X116866667Y-77031009D02*
X116866667Y-77554819D01*
X117771429Y-76888152D02*
X117771429Y-77697676D01*
X117771429Y-77697676D02*
X117723810Y-77792914D01*
X117723810Y-77792914D02*
X117676191Y-77840533D01*
X117676191Y-77840533D02*
X117580953Y-77888152D01*
X117580953Y-77888152D02*
X117438096Y-77888152D01*
X117438096Y-77888152D02*
X117342858Y-77840533D01*
X117771429Y-77507200D02*
X117676191Y-77554819D01*
X117676191Y-77554819D02*
X117485715Y-77554819D01*
X117485715Y-77554819D02*
X117390477Y-77507200D01*
X117390477Y-77507200D02*
X117342858Y-77459580D01*
X117342858Y-77459580D02*
X117295239Y-77364342D01*
X117295239Y-77364342D02*
X117295239Y-77078628D01*
X117295239Y-77078628D02*
X117342858Y-76983390D01*
X117342858Y-76983390D02*
X117390477Y-76935771D01*
X117390477Y-76935771D02*
X117485715Y-76888152D01*
X117485715Y-76888152D02*
X117676191Y-76888152D01*
X117676191Y-76888152D02*
X117771429Y-76935771D01*
X118009525Y-77650057D02*
X118771429Y-77650057D01*
X119009525Y-77554819D02*
X119009525Y-76554819D01*
X119009525Y-77031009D02*
X119580953Y-77031009D01*
X119580953Y-77554819D02*
X119580953Y-76554819D01*
X120200001Y-77554819D02*
X120104763Y-77507200D01*
X120104763Y-77507200D02*
X120057144Y-77459580D01*
X120057144Y-77459580D02*
X120009525Y-77364342D01*
X120009525Y-77364342D02*
X120009525Y-77078628D01*
X120009525Y-77078628D02*
X120057144Y-76983390D01*
X120057144Y-76983390D02*
X120104763Y-76935771D01*
X120104763Y-76935771D02*
X120200001Y-76888152D01*
X120200001Y-76888152D02*
X120342858Y-76888152D01*
X120342858Y-76888152D02*
X120438096Y-76935771D01*
X120438096Y-76935771D02*
X120485715Y-76983390D01*
X120485715Y-76983390D02*
X120533334Y-77078628D01*
X120533334Y-77078628D02*
X120533334Y-77364342D01*
X120533334Y-77364342D02*
X120485715Y-77459580D01*
X120485715Y-77459580D02*
X120438096Y-77507200D01*
X120438096Y-77507200D02*
X120342858Y-77554819D01*
X120342858Y-77554819D02*
X120200001Y-77554819D01*
X121104763Y-77554819D02*
X121009525Y-77507200D01*
X121009525Y-77507200D02*
X120961906Y-77411961D01*
X120961906Y-77411961D02*
X120961906Y-76554819D01*
X121866668Y-77507200D02*
X121771430Y-77554819D01*
X121771430Y-77554819D02*
X121580954Y-77554819D01*
X121580954Y-77554819D02*
X121485716Y-77507200D01*
X121485716Y-77507200D02*
X121438097Y-77411961D01*
X121438097Y-77411961D02*
X121438097Y-77031009D01*
X121438097Y-77031009D02*
X121485716Y-76935771D01*
X121485716Y-76935771D02*
X121580954Y-76888152D01*
X121580954Y-76888152D02*
X121771430Y-76888152D01*
X121771430Y-76888152D02*
X121866668Y-76935771D01*
X121866668Y-76935771D02*
X121914287Y-77031009D01*
X121914287Y-77031009D02*
X121914287Y-77126247D01*
X121914287Y-77126247D02*
X121438097Y-77221485D01*
X110604760Y-77554819D02*
X110271427Y-77078628D01*
X110033332Y-77554819D02*
X110033332Y-76554819D01*
X110033332Y-76554819D02*
X110414284Y-76554819D01*
X110414284Y-76554819D02*
X110509522Y-76602438D01*
X110509522Y-76602438D02*
X110557141Y-76650057D01*
X110557141Y-76650057D02*
X110604760Y-76745295D01*
X110604760Y-76745295D02*
X110604760Y-76888152D01*
X110604760Y-76888152D02*
X110557141Y-76983390D01*
X110557141Y-76983390D02*
X110509522Y-77031009D01*
X110509522Y-77031009D02*
X110414284Y-77078628D01*
X110414284Y-77078628D02*
X110033332Y-77078628D01*
X111319046Y-76554819D02*
X111319046Y-77269104D01*
X111319046Y-77269104D02*
X111271427Y-77411961D01*
X111271427Y-77411961D02*
X111176189Y-77507200D01*
X111176189Y-77507200D02*
X111033332Y-77554819D01*
X111033332Y-77554819D02*
X110938094Y-77554819D01*
X112223808Y-76888152D02*
X112223808Y-77554819D01*
X111985713Y-76507200D02*
X111747618Y-77221485D01*
X111747618Y-77221485D02*
X112366665Y-77221485D01*
X113223808Y-76554819D02*
X112747618Y-76554819D01*
X112747618Y-76554819D02*
X112699999Y-77031009D01*
X112699999Y-77031009D02*
X112747618Y-76983390D01*
X112747618Y-76983390D02*
X112842856Y-76935771D01*
X112842856Y-76935771D02*
X113080951Y-76935771D01*
X113080951Y-76935771D02*
X113176189Y-76983390D01*
X113176189Y-76983390D02*
X113223808Y-77031009D01*
X113223808Y-77031009D02*
X113271427Y-77126247D01*
X113271427Y-77126247D02*
X113271427Y-77364342D01*
X113271427Y-77364342D02*
X113223808Y-77459580D01*
X113223808Y-77459580D02*
X113176189Y-77507200D01*
X113176189Y-77507200D02*
X113080951Y-77554819D01*
X113080951Y-77554819D02*
X112842856Y-77554819D01*
X112842856Y-77554819D02*
X112747618Y-77507200D01*
X112747618Y-77507200D02*
X112699999Y-77459580D01*
X113461904Y-77650057D02*
X114223808Y-77650057D01*
X114461904Y-77554819D02*
X114461904Y-76554819D01*
X114461904Y-76554819D02*
X114795237Y-77269104D01*
X114795237Y-77269104D02*
X115128570Y-76554819D01*
X115128570Y-76554819D02*
X115128570Y-77554819D01*
X115747618Y-77554819D02*
X115652380Y-77507200D01*
X115652380Y-77507200D02*
X115604761Y-77459580D01*
X115604761Y-77459580D02*
X115557142Y-77364342D01*
X115557142Y-77364342D02*
X115557142Y-77078628D01*
X115557142Y-77078628D02*
X115604761Y-76983390D01*
X115604761Y-76983390D02*
X115652380Y-76935771D01*
X115652380Y-76935771D02*
X115747618Y-76888152D01*
X115747618Y-76888152D02*
X115890475Y-76888152D01*
X115890475Y-76888152D02*
X115985713Y-76935771D01*
X115985713Y-76935771D02*
X116033332Y-76983390D01*
X116033332Y-76983390D02*
X116080951Y-77078628D01*
X116080951Y-77078628D02*
X116080951Y-77364342D01*
X116080951Y-77364342D02*
X116033332Y-77459580D01*
X116033332Y-77459580D02*
X115985713Y-77507200D01*
X115985713Y-77507200D02*
X115890475Y-77554819D01*
X115890475Y-77554819D02*
X115747618Y-77554819D01*
X116652380Y-77554819D02*
X116557142Y-77507200D01*
X116557142Y-77507200D02*
X116509523Y-77411961D01*
X116509523Y-77411961D02*
X116509523Y-76554819D01*
X117414285Y-77507200D02*
X117319047Y-77554819D01*
X117319047Y-77554819D02*
X117128571Y-77554819D01*
X117128571Y-77554819D02*
X117033333Y-77507200D01*
X117033333Y-77507200D02*
X116985714Y-77411961D01*
X116985714Y-77411961D02*
X116985714Y-77031009D01*
X116985714Y-77031009D02*
X117033333Y-76935771D01*
X117033333Y-76935771D02*
X117128571Y-76888152D01*
X117128571Y-76888152D02*
X117319047Y-76888152D01*
X117319047Y-76888152D02*
X117414285Y-76935771D01*
X117414285Y-76935771D02*
X117461904Y-77031009D01*
X117461904Y-77031009D02*
X117461904Y-77126247D01*
X117461904Y-77126247D02*
X116985714Y-77221485D01*
X117795238Y-77554819D02*
X118319047Y-76888152D01*
X117795238Y-76888152D02*
X118319047Y-77554819D01*
X118461905Y-77650057D02*
X119223809Y-77650057D01*
X119890476Y-76888152D02*
X119890476Y-77554819D01*
X119652381Y-76507200D02*
X119414286Y-77221485D01*
X119414286Y-77221485D02*
X120033333Y-77221485D01*
X120366667Y-76650057D02*
X120414286Y-76602438D01*
X120414286Y-76602438D02*
X120509524Y-76554819D01*
X120509524Y-76554819D02*
X120747619Y-76554819D01*
X120747619Y-76554819D02*
X120842857Y-76602438D01*
X120842857Y-76602438D02*
X120890476Y-76650057D01*
X120890476Y-76650057D02*
X120938095Y-76745295D01*
X120938095Y-76745295D02*
X120938095Y-76840533D01*
X120938095Y-76840533D02*
X120890476Y-76983390D01*
X120890476Y-76983390D02*
X120319048Y-77554819D01*
X120319048Y-77554819D02*
X120938095Y-77554819D01*
X121509524Y-76983390D02*
X121414286Y-76935771D01*
X121414286Y-76935771D02*
X121366667Y-76888152D01*
X121366667Y-76888152D02*
X121319048Y-76792914D01*
X121319048Y-76792914D02*
X121319048Y-76745295D01*
X121319048Y-76745295D02*
X121366667Y-76650057D01*
X121366667Y-76650057D02*
X121414286Y-76602438D01*
X121414286Y-76602438D02*
X121509524Y-76554819D01*
X121509524Y-76554819D02*
X121700000Y-76554819D01*
X121700000Y-76554819D02*
X121795238Y-76602438D01*
X121795238Y-76602438D02*
X121842857Y-76650057D01*
X121842857Y-76650057D02*
X121890476Y-76745295D01*
X121890476Y-76745295D02*
X121890476Y-76792914D01*
X121890476Y-76792914D02*
X121842857Y-76888152D01*
X121842857Y-76888152D02*
X121795238Y-76935771D01*
X121795238Y-76935771D02*
X121700000Y-76983390D01*
X121700000Y-76983390D02*
X121509524Y-76983390D01*
X121509524Y-76983390D02*
X121414286Y-77031009D01*
X121414286Y-77031009D02*
X121366667Y-77078628D01*
X121366667Y-77078628D02*
X121319048Y-77173866D01*
X121319048Y-77173866D02*
X121319048Y-77364342D01*
X121319048Y-77364342D02*
X121366667Y-77459580D01*
X121366667Y-77459580D02*
X121414286Y-77507200D01*
X121414286Y-77507200D02*
X121509524Y-77554819D01*
X121509524Y-77554819D02*
X121700000Y-77554819D01*
X121700000Y-77554819D02*
X121795238Y-77507200D01*
X121795238Y-77507200D02*
X121842857Y-77459580D01*
X121842857Y-77459580D02*
X121890476Y-77364342D01*
X121890476Y-77364342D02*
X121890476Y-77173866D01*
X121890476Y-77173866D02*
X121842857Y-77078628D01*
X121842857Y-77078628D02*
X121795238Y-77031009D01*
X121795238Y-77031009D02*
X121700000Y-76983390D01*
X122223810Y-76554819D02*
X122890476Y-76554819D01*
X122890476Y-76554819D02*
X122461905Y-77554819D01*
X123414286Y-76983390D02*
X123319048Y-76935771D01*
X123319048Y-76935771D02*
X123271429Y-76888152D01*
X123271429Y-76888152D02*
X123223810Y-76792914D01*
X123223810Y-76792914D02*
X123223810Y-76745295D01*
X123223810Y-76745295D02*
X123271429Y-76650057D01*
X123271429Y-76650057D02*
X123319048Y-76602438D01*
X123319048Y-76602438D02*
X123414286Y-76554819D01*
X123414286Y-76554819D02*
X123604762Y-76554819D01*
X123604762Y-76554819D02*
X123700000Y-76602438D01*
X123700000Y-76602438D02*
X123747619Y-76650057D01*
X123747619Y-76650057D02*
X123795238Y-76745295D01*
X123795238Y-76745295D02*
X123795238Y-76792914D01*
X123795238Y-76792914D02*
X123747619Y-76888152D01*
X123747619Y-76888152D02*
X123700000Y-76935771D01*
X123700000Y-76935771D02*
X123604762Y-76983390D01*
X123604762Y-76983390D02*
X123414286Y-76983390D01*
X123414286Y-76983390D02*
X123319048Y-77031009D01*
X123319048Y-77031009D02*
X123271429Y-77078628D01*
X123271429Y-77078628D02*
X123223810Y-77173866D01*
X123223810Y-77173866D02*
X123223810Y-77364342D01*
X123223810Y-77364342D02*
X123271429Y-77459580D01*
X123271429Y-77459580D02*
X123319048Y-77507200D01*
X123319048Y-77507200D02*
X123414286Y-77554819D01*
X123414286Y-77554819D02*
X123604762Y-77554819D01*
X123604762Y-77554819D02*
X123700000Y-77507200D01*
X123700000Y-77507200D02*
X123747619Y-77459580D01*
X123747619Y-77459580D02*
X123795238Y-77364342D01*
X123795238Y-77364342D02*
X123795238Y-77173866D01*
X123795238Y-77173866D02*
X123747619Y-77078628D01*
X123747619Y-77078628D02*
X123700000Y-77031009D01*
X123700000Y-77031009D02*
X123604762Y-76983390D01*
X124223810Y-77173866D02*
X124985715Y-77173866D01*
X125604762Y-76983390D02*
X125509524Y-76935771D01*
X125509524Y-76935771D02*
X125461905Y-76888152D01*
X125461905Y-76888152D02*
X125414286Y-76792914D01*
X125414286Y-76792914D02*
X125414286Y-76745295D01*
X125414286Y-76745295D02*
X125461905Y-76650057D01*
X125461905Y-76650057D02*
X125509524Y-76602438D01*
X125509524Y-76602438D02*
X125604762Y-76554819D01*
X125604762Y-76554819D02*
X125795238Y-76554819D01*
X125795238Y-76554819D02*
X125890476Y-76602438D01*
X125890476Y-76602438D02*
X125938095Y-76650057D01*
X125938095Y-76650057D02*
X125985714Y-76745295D01*
X125985714Y-76745295D02*
X125985714Y-76792914D01*
X125985714Y-76792914D02*
X125938095Y-76888152D01*
X125938095Y-76888152D02*
X125890476Y-76935771D01*
X125890476Y-76935771D02*
X125795238Y-76983390D01*
X125795238Y-76983390D02*
X125604762Y-76983390D01*
X125604762Y-76983390D02*
X125509524Y-77031009D01*
X125509524Y-77031009D02*
X125461905Y-77078628D01*
X125461905Y-77078628D02*
X125414286Y-77173866D01*
X125414286Y-77173866D02*
X125414286Y-77364342D01*
X125414286Y-77364342D02*
X125461905Y-77459580D01*
X125461905Y-77459580D02*
X125509524Y-77507200D01*
X125509524Y-77507200D02*
X125604762Y-77554819D01*
X125604762Y-77554819D02*
X125795238Y-77554819D01*
X125795238Y-77554819D02*
X125890476Y-77507200D01*
X125890476Y-77507200D02*
X125938095Y-77459580D01*
X125938095Y-77459580D02*
X125985714Y-77364342D01*
X125985714Y-77364342D02*
X125985714Y-77173866D01*
X125985714Y-77173866D02*
X125938095Y-77078628D01*
X125938095Y-77078628D02*
X125890476Y-77031009D01*
X125890476Y-77031009D02*
X125795238Y-76983390D01*
X126890476Y-76554819D02*
X126414286Y-76554819D01*
X126414286Y-76554819D02*
X126366667Y-77031009D01*
X126366667Y-77031009D02*
X126414286Y-76983390D01*
X126414286Y-76983390D02*
X126509524Y-76935771D01*
X126509524Y-76935771D02*
X126747619Y-76935771D01*
X126747619Y-76935771D02*
X126842857Y-76983390D01*
X126842857Y-76983390D02*
X126890476Y-77031009D01*
X126890476Y-77031009D02*
X126938095Y-77126247D01*
X126938095Y-77126247D02*
X126938095Y-77364342D01*
X126938095Y-77364342D02*
X126890476Y-77459580D01*
X126890476Y-77459580D02*
X126842857Y-77507200D01*
X126842857Y-77507200D02*
X126747619Y-77554819D01*
X126747619Y-77554819D02*
X126509524Y-77554819D01*
X126509524Y-77554819D02*
X126414286Y-77507200D01*
X126414286Y-77507200D02*
X126366667Y-77459580D01*
X127557143Y-76554819D02*
X127652381Y-76554819D01*
X127652381Y-76554819D02*
X127747619Y-76602438D01*
X127747619Y-76602438D02*
X127795238Y-76650057D01*
X127795238Y-76650057D02*
X127842857Y-76745295D01*
X127842857Y-76745295D02*
X127890476Y-76935771D01*
X127890476Y-76935771D02*
X127890476Y-77173866D01*
X127890476Y-77173866D02*
X127842857Y-77364342D01*
X127842857Y-77364342D02*
X127795238Y-77459580D01*
X127795238Y-77459580D02*
X127747619Y-77507200D01*
X127747619Y-77507200D02*
X127652381Y-77554819D01*
X127652381Y-77554819D02*
X127557143Y-77554819D01*
X127557143Y-77554819D02*
X127461905Y-77507200D01*
X127461905Y-77507200D02*
X127414286Y-77459580D01*
X127414286Y-77459580D02*
X127366667Y-77364342D01*
X127366667Y-77364342D02*
X127319048Y-77173866D01*
X127319048Y-77173866D02*
X127319048Y-76935771D01*
X127319048Y-76935771D02*
X127366667Y-76745295D01*
X127366667Y-76745295D02*
X127414286Y-76650057D01*
X127414286Y-76650057D02*
X127461905Y-76602438D01*
X127461905Y-76602438D02*
X127557143Y-76554819D01*
X128747619Y-76554819D02*
X128557143Y-76554819D01*
X128557143Y-76554819D02*
X128461905Y-76602438D01*
X128461905Y-76602438D02*
X128414286Y-76650057D01*
X128414286Y-76650057D02*
X128319048Y-76792914D01*
X128319048Y-76792914D02*
X128271429Y-76983390D01*
X128271429Y-76983390D02*
X128271429Y-77364342D01*
X128271429Y-77364342D02*
X128319048Y-77459580D01*
X128319048Y-77459580D02*
X128366667Y-77507200D01*
X128366667Y-77507200D02*
X128461905Y-77554819D01*
X128461905Y-77554819D02*
X128652381Y-77554819D01*
X128652381Y-77554819D02*
X128747619Y-77507200D01*
X128747619Y-77507200D02*
X128795238Y-77459580D01*
X128795238Y-77459580D02*
X128842857Y-77364342D01*
X128842857Y-77364342D02*
X128842857Y-77126247D01*
X128842857Y-77126247D02*
X128795238Y-77031009D01*
X128795238Y-77031009D02*
X128747619Y-76983390D01*
X128747619Y-76983390D02*
X128652381Y-76935771D01*
X128652381Y-76935771D02*
X128461905Y-76935771D01*
X128461905Y-76935771D02*
X128366667Y-76983390D01*
X128366667Y-76983390D02*
X128319048Y-77031009D01*
X128319048Y-77031009D02*
X128271429Y-77126247D01*
X129033334Y-77650057D02*
X129795238Y-77650057D01*
X130033334Y-77554819D02*
X130033334Y-76554819D01*
X130033334Y-76554819D02*
X130366667Y-77269104D01*
X130366667Y-77269104D02*
X130700000Y-76554819D01*
X130700000Y-76554819D02*
X130700000Y-77554819D01*
X131319048Y-77554819D02*
X131223810Y-77507200D01*
X131223810Y-77507200D02*
X131176191Y-77459580D01*
X131176191Y-77459580D02*
X131128572Y-77364342D01*
X131128572Y-77364342D02*
X131128572Y-77078628D01*
X131128572Y-77078628D02*
X131176191Y-76983390D01*
X131176191Y-76983390D02*
X131223810Y-76935771D01*
X131223810Y-76935771D02*
X131319048Y-76888152D01*
X131319048Y-76888152D02*
X131461905Y-76888152D01*
X131461905Y-76888152D02*
X131557143Y-76935771D01*
X131557143Y-76935771D02*
X131604762Y-76983390D01*
X131604762Y-76983390D02*
X131652381Y-77078628D01*
X131652381Y-77078628D02*
X131652381Y-77364342D01*
X131652381Y-77364342D02*
X131604762Y-77459580D01*
X131604762Y-77459580D02*
X131557143Y-77507200D01*
X131557143Y-77507200D02*
X131461905Y-77554819D01*
X131461905Y-77554819D02*
X131319048Y-77554819D01*
X132509524Y-76888152D02*
X132509524Y-77554819D01*
X132080953Y-76888152D02*
X132080953Y-77411961D01*
X132080953Y-77411961D02*
X132128572Y-77507200D01*
X132128572Y-77507200D02*
X132223810Y-77554819D01*
X132223810Y-77554819D02*
X132366667Y-77554819D01*
X132366667Y-77554819D02*
X132461905Y-77507200D01*
X132461905Y-77507200D02*
X132509524Y-77459580D01*
X132985715Y-76888152D02*
X132985715Y-77554819D01*
X132985715Y-76983390D02*
X133033334Y-76935771D01*
X133033334Y-76935771D02*
X133128572Y-76888152D01*
X133128572Y-76888152D02*
X133271429Y-76888152D01*
X133271429Y-76888152D02*
X133366667Y-76935771D01*
X133366667Y-76935771D02*
X133414286Y-77031009D01*
X133414286Y-77031009D02*
X133414286Y-77554819D01*
X133747620Y-76888152D02*
X134128572Y-76888152D01*
X133890477Y-76554819D02*
X133890477Y-77411961D01*
X133890477Y-77411961D02*
X133938096Y-77507200D01*
X133938096Y-77507200D02*
X134033334Y-77554819D01*
X134033334Y-77554819D02*
X134128572Y-77554819D01*
X134461906Y-77554819D02*
X134461906Y-76888152D01*
X134461906Y-76554819D02*
X134414287Y-76602438D01*
X134414287Y-76602438D02*
X134461906Y-76650057D01*
X134461906Y-76650057D02*
X134509525Y-76602438D01*
X134509525Y-76602438D02*
X134461906Y-76554819D01*
X134461906Y-76554819D02*
X134461906Y-76650057D01*
X134938096Y-76888152D02*
X134938096Y-77554819D01*
X134938096Y-76983390D02*
X134985715Y-76935771D01*
X134985715Y-76935771D02*
X135080953Y-76888152D01*
X135080953Y-76888152D02*
X135223810Y-76888152D01*
X135223810Y-76888152D02*
X135319048Y-76935771D01*
X135319048Y-76935771D02*
X135366667Y-77031009D01*
X135366667Y-77031009D02*
X135366667Y-77554819D01*
X136271429Y-76888152D02*
X136271429Y-77697676D01*
X136271429Y-77697676D02*
X136223810Y-77792914D01*
X136223810Y-77792914D02*
X136176191Y-77840533D01*
X136176191Y-77840533D02*
X136080953Y-77888152D01*
X136080953Y-77888152D02*
X135938096Y-77888152D01*
X135938096Y-77888152D02*
X135842858Y-77840533D01*
X136271429Y-77507200D02*
X136176191Y-77554819D01*
X136176191Y-77554819D02*
X135985715Y-77554819D01*
X135985715Y-77554819D02*
X135890477Y-77507200D01*
X135890477Y-77507200D02*
X135842858Y-77459580D01*
X135842858Y-77459580D02*
X135795239Y-77364342D01*
X135795239Y-77364342D02*
X135795239Y-77078628D01*
X135795239Y-77078628D02*
X135842858Y-76983390D01*
X135842858Y-76983390D02*
X135890477Y-76935771D01*
X135890477Y-76935771D02*
X135985715Y-76888152D01*
X135985715Y-76888152D02*
X136176191Y-76888152D01*
X136176191Y-76888152D02*
X136271429Y-76935771D01*
X136509525Y-77650057D02*
X137271429Y-77650057D01*
X137509525Y-77554819D02*
X137509525Y-76554819D01*
X137509525Y-77031009D02*
X138080953Y-77031009D01*
X138080953Y-77554819D02*
X138080953Y-76554819D01*
X138700001Y-77554819D02*
X138604763Y-77507200D01*
X138604763Y-77507200D02*
X138557144Y-77459580D01*
X138557144Y-77459580D02*
X138509525Y-77364342D01*
X138509525Y-77364342D02*
X138509525Y-77078628D01*
X138509525Y-77078628D02*
X138557144Y-76983390D01*
X138557144Y-76983390D02*
X138604763Y-76935771D01*
X138604763Y-76935771D02*
X138700001Y-76888152D01*
X138700001Y-76888152D02*
X138842858Y-76888152D01*
X138842858Y-76888152D02*
X138938096Y-76935771D01*
X138938096Y-76935771D02*
X138985715Y-76983390D01*
X138985715Y-76983390D02*
X139033334Y-77078628D01*
X139033334Y-77078628D02*
X139033334Y-77364342D01*
X139033334Y-77364342D02*
X138985715Y-77459580D01*
X138985715Y-77459580D02*
X138938096Y-77507200D01*
X138938096Y-77507200D02*
X138842858Y-77554819D01*
X138842858Y-77554819D02*
X138700001Y-77554819D01*
X139604763Y-77554819D02*
X139509525Y-77507200D01*
X139509525Y-77507200D02*
X139461906Y-77411961D01*
X139461906Y-77411961D02*
X139461906Y-76554819D01*
X140366668Y-77507200D02*
X140271430Y-77554819D01*
X140271430Y-77554819D02*
X140080954Y-77554819D01*
X140080954Y-77554819D02*
X139985716Y-77507200D01*
X139985716Y-77507200D02*
X139938097Y-77411961D01*
X139938097Y-77411961D02*
X139938097Y-77031009D01*
X139938097Y-77031009D02*
X139985716Y-76935771D01*
X139985716Y-76935771D02*
X140080954Y-76888152D01*
X140080954Y-76888152D02*
X140271430Y-76888152D01*
X140271430Y-76888152D02*
X140366668Y-76935771D01*
X140366668Y-76935771D02*
X140414287Y-77031009D01*
X140414287Y-77031009D02*
X140414287Y-77126247D01*
X140414287Y-77126247D02*
X139938097Y-77221485D01*
X110604760Y-58454819D02*
X110271427Y-57978628D01*
X110033332Y-58454819D02*
X110033332Y-57454819D01*
X110033332Y-57454819D02*
X110414284Y-57454819D01*
X110414284Y-57454819D02*
X110509522Y-57502438D01*
X110509522Y-57502438D02*
X110557141Y-57550057D01*
X110557141Y-57550057D02*
X110604760Y-57645295D01*
X110604760Y-57645295D02*
X110604760Y-57788152D01*
X110604760Y-57788152D02*
X110557141Y-57883390D01*
X110557141Y-57883390D02*
X110509522Y-57931009D01*
X110509522Y-57931009D02*
X110414284Y-57978628D01*
X110414284Y-57978628D02*
X110033332Y-57978628D01*
X111319046Y-57454819D02*
X111319046Y-58169104D01*
X111319046Y-58169104D02*
X111271427Y-58311961D01*
X111271427Y-58311961D02*
X111176189Y-58407200D01*
X111176189Y-58407200D02*
X111033332Y-58454819D01*
X111033332Y-58454819D02*
X110938094Y-58454819D01*
X112223808Y-57788152D02*
X112223808Y-58454819D01*
X111985713Y-57407200D02*
X111747618Y-58121485D01*
X111747618Y-58121485D02*
X112366665Y-58121485D01*
X113223808Y-57454819D02*
X112747618Y-57454819D01*
X112747618Y-57454819D02*
X112699999Y-57931009D01*
X112699999Y-57931009D02*
X112747618Y-57883390D01*
X112747618Y-57883390D02*
X112842856Y-57835771D01*
X112842856Y-57835771D02*
X113080951Y-57835771D01*
X113080951Y-57835771D02*
X113176189Y-57883390D01*
X113176189Y-57883390D02*
X113223808Y-57931009D01*
X113223808Y-57931009D02*
X113271427Y-58026247D01*
X113271427Y-58026247D02*
X113271427Y-58264342D01*
X113271427Y-58264342D02*
X113223808Y-58359580D01*
X113223808Y-58359580D02*
X113176189Y-58407200D01*
X113176189Y-58407200D02*
X113080951Y-58454819D01*
X113080951Y-58454819D02*
X112842856Y-58454819D01*
X112842856Y-58454819D02*
X112747618Y-58407200D01*
X112747618Y-58407200D02*
X112699999Y-58359580D01*
X113461904Y-58550057D02*
X114223808Y-58550057D01*
X114461904Y-58454819D02*
X114461904Y-57454819D01*
X114461904Y-57454819D02*
X114795237Y-58169104D01*
X114795237Y-58169104D02*
X115128570Y-57454819D01*
X115128570Y-57454819D02*
X115128570Y-58454819D01*
X115747618Y-58454819D02*
X115652380Y-58407200D01*
X115652380Y-58407200D02*
X115604761Y-58359580D01*
X115604761Y-58359580D02*
X115557142Y-58264342D01*
X115557142Y-58264342D02*
X115557142Y-57978628D01*
X115557142Y-57978628D02*
X115604761Y-57883390D01*
X115604761Y-57883390D02*
X115652380Y-57835771D01*
X115652380Y-57835771D02*
X115747618Y-57788152D01*
X115747618Y-57788152D02*
X115890475Y-57788152D01*
X115890475Y-57788152D02*
X115985713Y-57835771D01*
X115985713Y-57835771D02*
X116033332Y-57883390D01*
X116033332Y-57883390D02*
X116080951Y-57978628D01*
X116080951Y-57978628D02*
X116080951Y-58264342D01*
X116080951Y-58264342D02*
X116033332Y-58359580D01*
X116033332Y-58359580D02*
X115985713Y-58407200D01*
X115985713Y-58407200D02*
X115890475Y-58454819D01*
X115890475Y-58454819D02*
X115747618Y-58454819D01*
X116652380Y-58454819D02*
X116557142Y-58407200D01*
X116557142Y-58407200D02*
X116509523Y-58311961D01*
X116509523Y-58311961D02*
X116509523Y-57454819D01*
X117414285Y-58407200D02*
X117319047Y-58454819D01*
X117319047Y-58454819D02*
X117128571Y-58454819D01*
X117128571Y-58454819D02*
X117033333Y-58407200D01*
X117033333Y-58407200D02*
X116985714Y-58311961D01*
X116985714Y-58311961D02*
X116985714Y-57931009D01*
X116985714Y-57931009D02*
X117033333Y-57835771D01*
X117033333Y-57835771D02*
X117128571Y-57788152D01*
X117128571Y-57788152D02*
X117319047Y-57788152D01*
X117319047Y-57788152D02*
X117414285Y-57835771D01*
X117414285Y-57835771D02*
X117461904Y-57931009D01*
X117461904Y-57931009D02*
X117461904Y-58026247D01*
X117461904Y-58026247D02*
X116985714Y-58121485D01*
X117795238Y-58454819D02*
X118319047Y-57788152D01*
X117795238Y-57788152D02*
X118319047Y-58454819D01*
X118461905Y-58550057D02*
X119223809Y-58550057D01*
X119890476Y-57788152D02*
X119890476Y-58454819D01*
X119652381Y-57407200D02*
X119414286Y-58121485D01*
X119414286Y-58121485D02*
X120033333Y-58121485D01*
X120366667Y-57550057D02*
X120414286Y-57502438D01*
X120414286Y-57502438D02*
X120509524Y-57454819D01*
X120509524Y-57454819D02*
X120747619Y-57454819D01*
X120747619Y-57454819D02*
X120842857Y-57502438D01*
X120842857Y-57502438D02*
X120890476Y-57550057D01*
X120890476Y-57550057D02*
X120938095Y-57645295D01*
X120938095Y-57645295D02*
X120938095Y-57740533D01*
X120938095Y-57740533D02*
X120890476Y-57883390D01*
X120890476Y-57883390D02*
X120319048Y-58454819D01*
X120319048Y-58454819D02*
X120938095Y-58454819D01*
X121509524Y-57883390D02*
X121414286Y-57835771D01*
X121414286Y-57835771D02*
X121366667Y-57788152D01*
X121366667Y-57788152D02*
X121319048Y-57692914D01*
X121319048Y-57692914D02*
X121319048Y-57645295D01*
X121319048Y-57645295D02*
X121366667Y-57550057D01*
X121366667Y-57550057D02*
X121414286Y-57502438D01*
X121414286Y-57502438D02*
X121509524Y-57454819D01*
X121509524Y-57454819D02*
X121700000Y-57454819D01*
X121700000Y-57454819D02*
X121795238Y-57502438D01*
X121795238Y-57502438D02*
X121842857Y-57550057D01*
X121842857Y-57550057D02*
X121890476Y-57645295D01*
X121890476Y-57645295D02*
X121890476Y-57692914D01*
X121890476Y-57692914D02*
X121842857Y-57788152D01*
X121842857Y-57788152D02*
X121795238Y-57835771D01*
X121795238Y-57835771D02*
X121700000Y-57883390D01*
X121700000Y-57883390D02*
X121509524Y-57883390D01*
X121509524Y-57883390D02*
X121414286Y-57931009D01*
X121414286Y-57931009D02*
X121366667Y-57978628D01*
X121366667Y-57978628D02*
X121319048Y-58073866D01*
X121319048Y-58073866D02*
X121319048Y-58264342D01*
X121319048Y-58264342D02*
X121366667Y-58359580D01*
X121366667Y-58359580D02*
X121414286Y-58407200D01*
X121414286Y-58407200D02*
X121509524Y-58454819D01*
X121509524Y-58454819D02*
X121700000Y-58454819D01*
X121700000Y-58454819D02*
X121795238Y-58407200D01*
X121795238Y-58407200D02*
X121842857Y-58359580D01*
X121842857Y-58359580D02*
X121890476Y-58264342D01*
X121890476Y-58264342D02*
X121890476Y-58073866D01*
X121890476Y-58073866D02*
X121842857Y-57978628D01*
X121842857Y-57978628D02*
X121795238Y-57931009D01*
X121795238Y-57931009D02*
X121700000Y-57883390D01*
X122223810Y-57454819D02*
X122890476Y-57454819D01*
X122890476Y-57454819D02*
X122461905Y-58454819D01*
X123414286Y-57883390D02*
X123319048Y-57835771D01*
X123319048Y-57835771D02*
X123271429Y-57788152D01*
X123271429Y-57788152D02*
X123223810Y-57692914D01*
X123223810Y-57692914D02*
X123223810Y-57645295D01*
X123223810Y-57645295D02*
X123271429Y-57550057D01*
X123271429Y-57550057D02*
X123319048Y-57502438D01*
X123319048Y-57502438D02*
X123414286Y-57454819D01*
X123414286Y-57454819D02*
X123604762Y-57454819D01*
X123604762Y-57454819D02*
X123700000Y-57502438D01*
X123700000Y-57502438D02*
X123747619Y-57550057D01*
X123747619Y-57550057D02*
X123795238Y-57645295D01*
X123795238Y-57645295D02*
X123795238Y-57692914D01*
X123795238Y-57692914D02*
X123747619Y-57788152D01*
X123747619Y-57788152D02*
X123700000Y-57835771D01*
X123700000Y-57835771D02*
X123604762Y-57883390D01*
X123604762Y-57883390D02*
X123414286Y-57883390D01*
X123414286Y-57883390D02*
X123319048Y-57931009D01*
X123319048Y-57931009D02*
X123271429Y-57978628D01*
X123271429Y-57978628D02*
X123223810Y-58073866D01*
X123223810Y-58073866D02*
X123223810Y-58264342D01*
X123223810Y-58264342D02*
X123271429Y-58359580D01*
X123271429Y-58359580D02*
X123319048Y-58407200D01*
X123319048Y-58407200D02*
X123414286Y-58454819D01*
X123414286Y-58454819D02*
X123604762Y-58454819D01*
X123604762Y-58454819D02*
X123700000Y-58407200D01*
X123700000Y-58407200D02*
X123747619Y-58359580D01*
X123747619Y-58359580D02*
X123795238Y-58264342D01*
X123795238Y-58264342D02*
X123795238Y-58073866D01*
X123795238Y-58073866D02*
X123747619Y-57978628D01*
X123747619Y-57978628D02*
X123700000Y-57931009D01*
X123700000Y-57931009D02*
X123604762Y-57883390D01*
X124223810Y-58073866D02*
X124985715Y-58073866D01*
X125604762Y-57883390D02*
X125509524Y-57835771D01*
X125509524Y-57835771D02*
X125461905Y-57788152D01*
X125461905Y-57788152D02*
X125414286Y-57692914D01*
X125414286Y-57692914D02*
X125414286Y-57645295D01*
X125414286Y-57645295D02*
X125461905Y-57550057D01*
X125461905Y-57550057D02*
X125509524Y-57502438D01*
X125509524Y-57502438D02*
X125604762Y-57454819D01*
X125604762Y-57454819D02*
X125795238Y-57454819D01*
X125795238Y-57454819D02*
X125890476Y-57502438D01*
X125890476Y-57502438D02*
X125938095Y-57550057D01*
X125938095Y-57550057D02*
X125985714Y-57645295D01*
X125985714Y-57645295D02*
X125985714Y-57692914D01*
X125985714Y-57692914D02*
X125938095Y-57788152D01*
X125938095Y-57788152D02*
X125890476Y-57835771D01*
X125890476Y-57835771D02*
X125795238Y-57883390D01*
X125795238Y-57883390D02*
X125604762Y-57883390D01*
X125604762Y-57883390D02*
X125509524Y-57931009D01*
X125509524Y-57931009D02*
X125461905Y-57978628D01*
X125461905Y-57978628D02*
X125414286Y-58073866D01*
X125414286Y-58073866D02*
X125414286Y-58264342D01*
X125414286Y-58264342D02*
X125461905Y-58359580D01*
X125461905Y-58359580D02*
X125509524Y-58407200D01*
X125509524Y-58407200D02*
X125604762Y-58454819D01*
X125604762Y-58454819D02*
X125795238Y-58454819D01*
X125795238Y-58454819D02*
X125890476Y-58407200D01*
X125890476Y-58407200D02*
X125938095Y-58359580D01*
X125938095Y-58359580D02*
X125985714Y-58264342D01*
X125985714Y-58264342D02*
X125985714Y-58073866D01*
X125985714Y-58073866D02*
X125938095Y-57978628D01*
X125938095Y-57978628D02*
X125890476Y-57931009D01*
X125890476Y-57931009D02*
X125795238Y-57883390D01*
X126890476Y-57454819D02*
X126414286Y-57454819D01*
X126414286Y-57454819D02*
X126366667Y-57931009D01*
X126366667Y-57931009D02*
X126414286Y-57883390D01*
X126414286Y-57883390D02*
X126509524Y-57835771D01*
X126509524Y-57835771D02*
X126747619Y-57835771D01*
X126747619Y-57835771D02*
X126842857Y-57883390D01*
X126842857Y-57883390D02*
X126890476Y-57931009D01*
X126890476Y-57931009D02*
X126938095Y-58026247D01*
X126938095Y-58026247D02*
X126938095Y-58264342D01*
X126938095Y-58264342D02*
X126890476Y-58359580D01*
X126890476Y-58359580D02*
X126842857Y-58407200D01*
X126842857Y-58407200D02*
X126747619Y-58454819D01*
X126747619Y-58454819D02*
X126509524Y-58454819D01*
X126509524Y-58454819D02*
X126414286Y-58407200D01*
X126414286Y-58407200D02*
X126366667Y-58359580D01*
X127557143Y-57454819D02*
X127652381Y-57454819D01*
X127652381Y-57454819D02*
X127747619Y-57502438D01*
X127747619Y-57502438D02*
X127795238Y-57550057D01*
X127795238Y-57550057D02*
X127842857Y-57645295D01*
X127842857Y-57645295D02*
X127890476Y-57835771D01*
X127890476Y-57835771D02*
X127890476Y-58073866D01*
X127890476Y-58073866D02*
X127842857Y-58264342D01*
X127842857Y-58264342D02*
X127795238Y-58359580D01*
X127795238Y-58359580D02*
X127747619Y-58407200D01*
X127747619Y-58407200D02*
X127652381Y-58454819D01*
X127652381Y-58454819D02*
X127557143Y-58454819D01*
X127557143Y-58454819D02*
X127461905Y-58407200D01*
X127461905Y-58407200D02*
X127414286Y-58359580D01*
X127414286Y-58359580D02*
X127366667Y-58264342D01*
X127366667Y-58264342D02*
X127319048Y-58073866D01*
X127319048Y-58073866D02*
X127319048Y-57835771D01*
X127319048Y-57835771D02*
X127366667Y-57645295D01*
X127366667Y-57645295D02*
X127414286Y-57550057D01*
X127414286Y-57550057D02*
X127461905Y-57502438D01*
X127461905Y-57502438D02*
X127557143Y-57454819D01*
X128747619Y-57454819D02*
X128557143Y-57454819D01*
X128557143Y-57454819D02*
X128461905Y-57502438D01*
X128461905Y-57502438D02*
X128414286Y-57550057D01*
X128414286Y-57550057D02*
X128319048Y-57692914D01*
X128319048Y-57692914D02*
X128271429Y-57883390D01*
X128271429Y-57883390D02*
X128271429Y-58264342D01*
X128271429Y-58264342D02*
X128319048Y-58359580D01*
X128319048Y-58359580D02*
X128366667Y-58407200D01*
X128366667Y-58407200D02*
X128461905Y-58454819D01*
X128461905Y-58454819D02*
X128652381Y-58454819D01*
X128652381Y-58454819D02*
X128747619Y-58407200D01*
X128747619Y-58407200D02*
X128795238Y-58359580D01*
X128795238Y-58359580D02*
X128842857Y-58264342D01*
X128842857Y-58264342D02*
X128842857Y-58026247D01*
X128842857Y-58026247D02*
X128795238Y-57931009D01*
X128795238Y-57931009D02*
X128747619Y-57883390D01*
X128747619Y-57883390D02*
X128652381Y-57835771D01*
X128652381Y-57835771D02*
X128461905Y-57835771D01*
X128461905Y-57835771D02*
X128366667Y-57883390D01*
X128366667Y-57883390D02*
X128319048Y-57931009D01*
X128319048Y-57931009D02*
X128271429Y-58026247D01*
X129033334Y-58550057D02*
X129795238Y-58550057D01*
X130033334Y-58454819D02*
X130033334Y-57454819D01*
X130033334Y-57454819D02*
X130366667Y-58169104D01*
X130366667Y-58169104D02*
X130700000Y-57454819D01*
X130700000Y-57454819D02*
X130700000Y-58454819D01*
X131319048Y-58454819D02*
X131223810Y-58407200D01*
X131223810Y-58407200D02*
X131176191Y-58359580D01*
X131176191Y-58359580D02*
X131128572Y-58264342D01*
X131128572Y-58264342D02*
X131128572Y-57978628D01*
X131128572Y-57978628D02*
X131176191Y-57883390D01*
X131176191Y-57883390D02*
X131223810Y-57835771D01*
X131223810Y-57835771D02*
X131319048Y-57788152D01*
X131319048Y-57788152D02*
X131461905Y-57788152D01*
X131461905Y-57788152D02*
X131557143Y-57835771D01*
X131557143Y-57835771D02*
X131604762Y-57883390D01*
X131604762Y-57883390D02*
X131652381Y-57978628D01*
X131652381Y-57978628D02*
X131652381Y-58264342D01*
X131652381Y-58264342D02*
X131604762Y-58359580D01*
X131604762Y-58359580D02*
X131557143Y-58407200D01*
X131557143Y-58407200D02*
X131461905Y-58454819D01*
X131461905Y-58454819D02*
X131319048Y-58454819D01*
X132509524Y-57788152D02*
X132509524Y-58454819D01*
X132080953Y-57788152D02*
X132080953Y-58311961D01*
X132080953Y-58311961D02*
X132128572Y-58407200D01*
X132128572Y-58407200D02*
X132223810Y-58454819D01*
X132223810Y-58454819D02*
X132366667Y-58454819D01*
X132366667Y-58454819D02*
X132461905Y-58407200D01*
X132461905Y-58407200D02*
X132509524Y-58359580D01*
X132985715Y-57788152D02*
X132985715Y-58454819D01*
X132985715Y-57883390D02*
X133033334Y-57835771D01*
X133033334Y-57835771D02*
X133128572Y-57788152D01*
X133128572Y-57788152D02*
X133271429Y-57788152D01*
X133271429Y-57788152D02*
X133366667Y-57835771D01*
X133366667Y-57835771D02*
X133414286Y-57931009D01*
X133414286Y-57931009D02*
X133414286Y-58454819D01*
X133747620Y-57788152D02*
X134128572Y-57788152D01*
X133890477Y-57454819D02*
X133890477Y-58311961D01*
X133890477Y-58311961D02*
X133938096Y-58407200D01*
X133938096Y-58407200D02*
X134033334Y-58454819D01*
X134033334Y-58454819D02*
X134128572Y-58454819D01*
X134461906Y-58454819D02*
X134461906Y-57788152D01*
X134461906Y-57454819D02*
X134414287Y-57502438D01*
X134414287Y-57502438D02*
X134461906Y-57550057D01*
X134461906Y-57550057D02*
X134509525Y-57502438D01*
X134509525Y-57502438D02*
X134461906Y-57454819D01*
X134461906Y-57454819D02*
X134461906Y-57550057D01*
X134938096Y-57788152D02*
X134938096Y-58454819D01*
X134938096Y-57883390D02*
X134985715Y-57835771D01*
X134985715Y-57835771D02*
X135080953Y-57788152D01*
X135080953Y-57788152D02*
X135223810Y-57788152D01*
X135223810Y-57788152D02*
X135319048Y-57835771D01*
X135319048Y-57835771D02*
X135366667Y-57931009D01*
X135366667Y-57931009D02*
X135366667Y-58454819D01*
X136271429Y-57788152D02*
X136271429Y-58597676D01*
X136271429Y-58597676D02*
X136223810Y-58692914D01*
X136223810Y-58692914D02*
X136176191Y-58740533D01*
X136176191Y-58740533D02*
X136080953Y-58788152D01*
X136080953Y-58788152D02*
X135938096Y-58788152D01*
X135938096Y-58788152D02*
X135842858Y-58740533D01*
X136271429Y-58407200D02*
X136176191Y-58454819D01*
X136176191Y-58454819D02*
X135985715Y-58454819D01*
X135985715Y-58454819D02*
X135890477Y-58407200D01*
X135890477Y-58407200D02*
X135842858Y-58359580D01*
X135842858Y-58359580D02*
X135795239Y-58264342D01*
X135795239Y-58264342D02*
X135795239Y-57978628D01*
X135795239Y-57978628D02*
X135842858Y-57883390D01*
X135842858Y-57883390D02*
X135890477Y-57835771D01*
X135890477Y-57835771D02*
X135985715Y-57788152D01*
X135985715Y-57788152D02*
X136176191Y-57788152D01*
X136176191Y-57788152D02*
X136271429Y-57835771D01*
X136509525Y-58550057D02*
X137271429Y-58550057D01*
X137509525Y-58454819D02*
X137509525Y-57454819D01*
X137509525Y-57931009D02*
X138080953Y-57931009D01*
X138080953Y-58454819D02*
X138080953Y-57454819D01*
X138700001Y-58454819D02*
X138604763Y-58407200D01*
X138604763Y-58407200D02*
X138557144Y-58359580D01*
X138557144Y-58359580D02*
X138509525Y-58264342D01*
X138509525Y-58264342D02*
X138509525Y-57978628D01*
X138509525Y-57978628D02*
X138557144Y-57883390D01*
X138557144Y-57883390D02*
X138604763Y-57835771D01*
X138604763Y-57835771D02*
X138700001Y-57788152D01*
X138700001Y-57788152D02*
X138842858Y-57788152D01*
X138842858Y-57788152D02*
X138938096Y-57835771D01*
X138938096Y-57835771D02*
X138985715Y-57883390D01*
X138985715Y-57883390D02*
X139033334Y-57978628D01*
X139033334Y-57978628D02*
X139033334Y-58264342D01*
X139033334Y-58264342D02*
X138985715Y-58359580D01*
X138985715Y-58359580D02*
X138938096Y-58407200D01*
X138938096Y-58407200D02*
X138842858Y-58454819D01*
X138842858Y-58454819D02*
X138700001Y-58454819D01*
X139604763Y-58454819D02*
X139509525Y-58407200D01*
X139509525Y-58407200D02*
X139461906Y-58311961D01*
X139461906Y-58311961D02*
X139461906Y-57454819D01*
X140366668Y-58407200D02*
X140271430Y-58454819D01*
X140271430Y-58454819D02*
X140080954Y-58454819D01*
X140080954Y-58454819D02*
X139985716Y-58407200D01*
X139985716Y-58407200D02*
X139938097Y-58311961D01*
X139938097Y-58311961D02*
X139938097Y-57931009D01*
X139938097Y-57931009D02*
X139985716Y-57835771D01*
X139985716Y-57835771D02*
X140080954Y-57788152D01*
X140080954Y-57788152D02*
X140271430Y-57788152D01*
X140271430Y-57788152D02*
X140366668Y-57835771D01*
X140366668Y-57835771D02*
X140414287Y-57931009D01*
X140414287Y-57931009D02*
X140414287Y-58026247D01*
X140414287Y-58026247D02*
X139938097Y-58121485D01*
X110604760Y-96554819D02*
X110271427Y-96078628D01*
X110033332Y-96554819D02*
X110033332Y-95554819D01*
X110033332Y-95554819D02*
X110414284Y-95554819D01*
X110414284Y-95554819D02*
X110509522Y-95602438D01*
X110509522Y-95602438D02*
X110557141Y-95650057D01*
X110557141Y-95650057D02*
X110604760Y-95745295D01*
X110604760Y-95745295D02*
X110604760Y-95888152D01*
X110604760Y-95888152D02*
X110557141Y-95983390D01*
X110557141Y-95983390D02*
X110509522Y-96031009D01*
X110509522Y-96031009D02*
X110414284Y-96078628D01*
X110414284Y-96078628D02*
X110033332Y-96078628D01*
X111319046Y-95554819D02*
X111319046Y-96269104D01*
X111319046Y-96269104D02*
X111271427Y-96411961D01*
X111271427Y-96411961D02*
X111176189Y-96507200D01*
X111176189Y-96507200D02*
X111033332Y-96554819D01*
X111033332Y-96554819D02*
X110938094Y-96554819D01*
X112223808Y-95888152D02*
X112223808Y-96554819D01*
X111985713Y-95507200D02*
X111747618Y-96221485D01*
X111747618Y-96221485D02*
X112366665Y-96221485D01*
X113223808Y-95554819D02*
X112747618Y-95554819D01*
X112747618Y-95554819D02*
X112699999Y-96031009D01*
X112699999Y-96031009D02*
X112747618Y-95983390D01*
X112747618Y-95983390D02*
X112842856Y-95935771D01*
X112842856Y-95935771D02*
X113080951Y-95935771D01*
X113080951Y-95935771D02*
X113176189Y-95983390D01*
X113176189Y-95983390D02*
X113223808Y-96031009D01*
X113223808Y-96031009D02*
X113271427Y-96126247D01*
X113271427Y-96126247D02*
X113271427Y-96364342D01*
X113271427Y-96364342D02*
X113223808Y-96459580D01*
X113223808Y-96459580D02*
X113176189Y-96507200D01*
X113176189Y-96507200D02*
X113080951Y-96554819D01*
X113080951Y-96554819D02*
X112842856Y-96554819D01*
X112842856Y-96554819D02*
X112747618Y-96507200D01*
X112747618Y-96507200D02*
X112699999Y-96459580D01*
X113461904Y-96650057D02*
X114223808Y-96650057D01*
X114461904Y-96554819D02*
X114461904Y-95554819D01*
X114461904Y-95554819D02*
X114795237Y-96269104D01*
X114795237Y-96269104D02*
X115128570Y-95554819D01*
X115128570Y-95554819D02*
X115128570Y-96554819D01*
X115747618Y-96554819D02*
X115652380Y-96507200D01*
X115652380Y-96507200D02*
X115604761Y-96459580D01*
X115604761Y-96459580D02*
X115557142Y-96364342D01*
X115557142Y-96364342D02*
X115557142Y-96078628D01*
X115557142Y-96078628D02*
X115604761Y-95983390D01*
X115604761Y-95983390D02*
X115652380Y-95935771D01*
X115652380Y-95935771D02*
X115747618Y-95888152D01*
X115747618Y-95888152D02*
X115890475Y-95888152D01*
X115890475Y-95888152D02*
X115985713Y-95935771D01*
X115985713Y-95935771D02*
X116033332Y-95983390D01*
X116033332Y-95983390D02*
X116080951Y-96078628D01*
X116080951Y-96078628D02*
X116080951Y-96364342D01*
X116080951Y-96364342D02*
X116033332Y-96459580D01*
X116033332Y-96459580D02*
X115985713Y-96507200D01*
X115985713Y-96507200D02*
X115890475Y-96554819D01*
X115890475Y-96554819D02*
X115747618Y-96554819D01*
X116652380Y-96554819D02*
X116557142Y-96507200D01*
X116557142Y-96507200D02*
X116509523Y-96411961D01*
X116509523Y-96411961D02*
X116509523Y-95554819D01*
X117414285Y-96507200D02*
X117319047Y-96554819D01*
X117319047Y-96554819D02*
X117128571Y-96554819D01*
X117128571Y-96554819D02*
X117033333Y-96507200D01*
X117033333Y-96507200D02*
X116985714Y-96411961D01*
X116985714Y-96411961D02*
X116985714Y-96031009D01*
X116985714Y-96031009D02*
X117033333Y-95935771D01*
X117033333Y-95935771D02*
X117128571Y-95888152D01*
X117128571Y-95888152D02*
X117319047Y-95888152D01*
X117319047Y-95888152D02*
X117414285Y-95935771D01*
X117414285Y-95935771D02*
X117461904Y-96031009D01*
X117461904Y-96031009D02*
X117461904Y-96126247D01*
X117461904Y-96126247D02*
X116985714Y-96221485D01*
X117795238Y-96554819D02*
X118319047Y-95888152D01*
X117795238Y-95888152D02*
X118319047Y-96554819D01*
X118461905Y-96650057D02*
X119223809Y-96650057D01*
X119890476Y-95888152D02*
X119890476Y-96554819D01*
X119652381Y-95507200D02*
X119414286Y-96221485D01*
X119414286Y-96221485D02*
X120033333Y-96221485D01*
X120366667Y-95650057D02*
X120414286Y-95602438D01*
X120414286Y-95602438D02*
X120509524Y-95554819D01*
X120509524Y-95554819D02*
X120747619Y-95554819D01*
X120747619Y-95554819D02*
X120842857Y-95602438D01*
X120842857Y-95602438D02*
X120890476Y-95650057D01*
X120890476Y-95650057D02*
X120938095Y-95745295D01*
X120938095Y-95745295D02*
X120938095Y-95840533D01*
X120938095Y-95840533D02*
X120890476Y-95983390D01*
X120890476Y-95983390D02*
X120319048Y-96554819D01*
X120319048Y-96554819D02*
X120938095Y-96554819D01*
X121509524Y-95983390D02*
X121414286Y-95935771D01*
X121414286Y-95935771D02*
X121366667Y-95888152D01*
X121366667Y-95888152D02*
X121319048Y-95792914D01*
X121319048Y-95792914D02*
X121319048Y-95745295D01*
X121319048Y-95745295D02*
X121366667Y-95650057D01*
X121366667Y-95650057D02*
X121414286Y-95602438D01*
X121414286Y-95602438D02*
X121509524Y-95554819D01*
X121509524Y-95554819D02*
X121700000Y-95554819D01*
X121700000Y-95554819D02*
X121795238Y-95602438D01*
X121795238Y-95602438D02*
X121842857Y-95650057D01*
X121842857Y-95650057D02*
X121890476Y-95745295D01*
X121890476Y-95745295D02*
X121890476Y-95792914D01*
X121890476Y-95792914D02*
X121842857Y-95888152D01*
X121842857Y-95888152D02*
X121795238Y-95935771D01*
X121795238Y-95935771D02*
X121700000Y-95983390D01*
X121700000Y-95983390D02*
X121509524Y-95983390D01*
X121509524Y-95983390D02*
X121414286Y-96031009D01*
X121414286Y-96031009D02*
X121366667Y-96078628D01*
X121366667Y-96078628D02*
X121319048Y-96173866D01*
X121319048Y-96173866D02*
X121319048Y-96364342D01*
X121319048Y-96364342D02*
X121366667Y-96459580D01*
X121366667Y-96459580D02*
X121414286Y-96507200D01*
X121414286Y-96507200D02*
X121509524Y-96554819D01*
X121509524Y-96554819D02*
X121700000Y-96554819D01*
X121700000Y-96554819D02*
X121795238Y-96507200D01*
X121795238Y-96507200D02*
X121842857Y-96459580D01*
X121842857Y-96459580D02*
X121890476Y-96364342D01*
X121890476Y-96364342D02*
X121890476Y-96173866D01*
X121890476Y-96173866D02*
X121842857Y-96078628D01*
X121842857Y-96078628D02*
X121795238Y-96031009D01*
X121795238Y-96031009D02*
X121700000Y-95983390D01*
X122223810Y-95554819D02*
X122890476Y-95554819D01*
X122890476Y-95554819D02*
X122461905Y-96554819D01*
X123414286Y-95983390D02*
X123319048Y-95935771D01*
X123319048Y-95935771D02*
X123271429Y-95888152D01*
X123271429Y-95888152D02*
X123223810Y-95792914D01*
X123223810Y-95792914D02*
X123223810Y-95745295D01*
X123223810Y-95745295D02*
X123271429Y-95650057D01*
X123271429Y-95650057D02*
X123319048Y-95602438D01*
X123319048Y-95602438D02*
X123414286Y-95554819D01*
X123414286Y-95554819D02*
X123604762Y-95554819D01*
X123604762Y-95554819D02*
X123700000Y-95602438D01*
X123700000Y-95602438D02*
X123747619Y-95650057D01*
X123747619Y-95650057D02*
X123795238Y-95745295D01*
X123795238Y-95745295D02*
X123795238Y-95792914D01*
X123795238Y-95792914D02*
X123747619Y-95888152D01*
X123747619Y-95888152D02*
X123700000Y-95935771D01*
X123700000Y-95935771D02*
X123604762Y-95983390D01*
X123604762Y-95983390D02*
X123414286Y-95983390D01*
X123414286Y-95983390D02*
X123319048Y-96031009D01*
X123319048Y-96031009D02*
X123271429Y-96078628D01*
X123271429Y-96078628D02*
X123223810Y-96173866D01*
X123223810Y-96173866D02*
X123223810Y-96364342D01*
X123223810Y-96364342D02*
X123271429Y-96459580D01*
X123271429Y-96459580D02*
X123319048Y-96507200D01*
X123319048Y-96507200D02*
X123414286Y-96554819D01*
X123414286Y-96554819D02*
X123604762Y-96554819D01*
X123604762Y-96554819D02*
X123700000Y-96507200D01*
X123700000Y-96507200D02*
X123747619Y-96459580D01*
X123747619Y-96459580D02*
X123795238Y-96364342D01*
X123795238Y-96364342D02*
X123795238Y-96173866D01*
X123795238Y-96173866D02*
X123747619Y-96078628D01*
X123747619Y-96078628D02*
X123700000Y-96031009D01*
X123700000Y-96031009D02*
X123604762Y-95983390D01*
X124223810Y-96173866D02*
X124985715Y-96173866D01*
X125604762Y-95983390D02*
X125509524Y-95935771D01*
X125509524Y-95935771D02*
X125461905Y-95888152D01*
X125461905Y-95888152D02*
X125414286Y-95792914D01*
X125414286Y-95792914D02*
X125414286Y-95745295D01*
X125414286Y-95745295D02*
X125461905Y-95650057D01*
X125461905Y-95650057D02*
X125509524Y-95602438D01*
X125509524Y-95602438D02*
X125604762Y-95554819D01*
X125604762Y-95554819D02*
X125795238Y-95554819D01*
X125795238Y-95554819D02*
X125890476Y-95602438D01*
X125890476Y-95602438D02*
X125938095Y-95650057D01*
X125938095Y-95650057D02*
X125985714Y-95745295D01*
X125985714Y-95745295D02*
X125985714Y-95792914D01*
X125985714Y-95792914D02*
X125938095Y-95888152D01*
X125938095Y-95888152D02*
X125890476Y-95935771D01*
X125890476Y-95935771D02*
X125795238Y-95983390D01*
X125795238Y-95983390D02*
X125604762Y-95983390D01*
X125604762Y-95983390D02*
X125509524Y-96031009D01*
X125509524Y-96031009D02*
X125461905Y-96078628D01*
X125461905Y-96078628D02*
X125414286Y-96173866D01*
X125414286Y-96173866D02*
X125414286Y-96364342D01*
X125414286Y-96364342D02*
X125461905Y-96459580D01*
X125461905Y-96459580D02*
X125509524Y-96507200D01*
X125509524Y-96507200D02*
X125604762Y-96554819D01*
X125604762Y-96554819D02*
X125795238Y-96554819D01*
X125795238Y-96554819D02*
X125890476Y-96507200D01*
X125890476Y-96507200D02*
X125938095Y-96459580D01*
X125938095Y-96459580D02*
X125985714Y-96364342D01*
X125985714Y-96364342D02*
X125985714Y-96173866D01*
X125985714Y-96173866D02*
X125938095Y-96078628D01*
X125938095Y-96078628D02*
X125890476Y-96031009D01*
X125890476Y-96031009D02*
X125795238Y-95983390D01*
X126890476Y-95554819D02*
X126414286Y-95554819D01*
X126414286Y-95554819D02*
X126366667Y-96031009D01*
X126366667Y-96031009D02*
X126414286Y-95983390D01*
X126414286Y-95983390D02*
X126509524Y-95935771D01*
X126509524Y-95935771D02*
X126747619Y-95935771D01*
X126747619Y-95935771D02*
X126842857Y-95983390D01*
X126842857Y-95983390D02*
X126890476Y-96031009D01*
X126890476Y-96031009D02*
X126938095Y-96126247D01*
X126938095Y-96126247D02*
X126938095Y-96364342D01*
X126938095Y-96364342D02*
X126890476Y-96459580D01*
X126890476Y-96459580D02*
X126842857Y-96507200D01*
X126842857Y-96507200D02*
X126747619Y-96554819D01*
X126747619Y-96554819D02*
X126509524Y-96554819D01*
X126509524Y-96554819D02*
X126414286Y-96507200D01*
X126414286Y-96507200D02*
X126366667Y-96459580D01*
X127557143Y-95554819D02*
X127652381Y-95554819D01*
X127652381Y-95554819D02*
X127747619Y-95602438D01*
X127747619Y-95602438D02*
X127795238Y-95650057D01*
X127795238Y-95650057D02*
X127842857Y-95745295D01*
X127842857Y-95745295D02*
X127890476Y-95935771D01*
X127890476Y-95935771D02*
X127890476Y-96173866D01*
X127890476Y-96173866D02*
X127842857Y-96364342D01*
X127842857Y-96364342D02*
X127795238Y-96459580D01*
X127795238Y-96459580D02*
X127747619Y-96507200D01*
X127747619Y-96507200D02*
X127652381Y-96554819D01*
X127652381Y-96554819D02*
X127557143Y-96554819D01*
X127557143Y-96554819D02*
X127461905Y-96507200D01*
X127461905Y-96507200D02*
X127414286Y-96459580D01*
X127414286Y-96459580D02*
X127366667Y-96364342D01*
X127366667Y-96364342D02*
X127319048Y-96173866D01*
X127319048Y-96173866D02*
X127319048Y-95935771D01*
X127319048Y-95935771D02*
X127366667Y-95745295D01*
X127366667Y-95745295D02*
X127414286Y-95650057D01*
X127414286Y-95650057D02*
X127461905Y-95602438D01*
X127461905Y-95602438D02*
X127557143Y-95554819D01*
X128747619Y-95554819D02*
X128557143Y-95554819D01*
X128557143Y-95554819D02*
X128461905Y-95602438D01*
X128461905Y-95602438D02*
X128414286Y-95650057D01*
X128414286Y-95650057D02*
X128319048Y-95792914D01*
X128319048Y-95792914D02*
X128271429Y-95983390D01*
X128271429Y-95983390D02*
X128271429Y-96364342D01*
X128271429Y-96364342D02*
X128319048Y-96459580D01*
X128319048Y-96459580D02*
X128366667Y-96507200D01*
X128366667Y-96507200D02*
X128461905Y-96554819D01*
X128461905Y-96554819D02*
X128652381Y-96554819D01*
X128652381Y-96554819D02*
X128747619Y-96507200D01*
X128747619Y-96507200D02*
X128795238Y-96459580D01*
X128795238Y-96459580D02*
X128842857Y-96364342D01*
X128842857Y-96364342D02*
X128842857Y-96126247D01*
X128842857Y-96126247D02*
X128795238Y-96031009D01*
X128795238Y-96031009D02*
X128747619Y-95983390D01*
X128747619Y-95983390D02*
X128652381Y-95935771D01*
X128652381Y-95935771D02*
X128461905Y-95935771D01*
X128461905Y-95935771D02*
X128366667Y-95983390D01*
X128366667Y-95983390D02*
X128319048Y-96031009D01*
X128319048Y-96031009D02*
X128271429Y-96126247D01*
X129033334Y-96650057D02*
X129795238Y-96650057D01*
X130033334Y-96554819D02*
X130033334Y-95554819D01*
X130033334Y-95554819D02*
X130366667Y-96269104D01*
X130366667Y-96269104D02*
X130700000Y-95554819D01*
X130700000Y-95554819D02*
X130700000Y-96554819D01*
X131319048Y-96554819D02*
X131223810Y-96507200D01*
X131223810Y-96507200D02*
X131176191Y-96459580D01*
X131176191Y-96459580D02*
X131128572Y-96364342D01*
X131128572Y-96364342D02*
X131128572Y-96078628D01*
X131128572Y-96078628D02*
X131176191Y-95983390D01*
X131176191Y-95983390D02*
X131223810Y-95935771D01*
X131223810Y-95935771D02*
X131319048Y-95888152D01*
X131319048Y-95888152D02*
X131461905Y-95888152D01*
X131461905Y-95888152D02*
X131557143Y-95935771D01*
X131557143Y-95935771D02*
X131604762Y-95983390D01*
X131604762Y-95983390D02*
X131652381Y-96078628D01*
X131652381Y-96078628D02*
X131652381Y-96364342D01*
X131652381Y-96364342D02*
X131604762Y-96459580D01*
X131604762Y-96459580D02*
X131557143Y-96507200D01*
X131557143Y-96507200D02*
X131461905Y-96554819D01*
X131461905Y-96554819D02*
X131319048Y-96554819D01*
X132509524Y-95888152D02*
X132509524Y-96554819D01*
X132080953Y-95888152D02*
X132080953Y-96411961D01*
X132080953Y-96411961D02*
X132128572Y-96507200D01*
X132128572Y-96507200D02*
X132223810Y-96554819D01*
X132223810Y-96554819D02*
X132366667Y-96554819D01*
X132366667Y-96554819D02*
X132461905Y-96507200D01*
X132461905Y-96507200D02*
X132509524Y-96459580D01*
X132985715Y-95888152D02*
X132985715Y-96554819D01*
X132985715Y-95983390D02*
X133033334Y-95935771D01*
X133033334Y-95935771D02*
X133128572Y-95888152D01*
X133128572Y-95888152D02*
X133271429Y-95888152D01*
X133271429Y-95888152D02*
X133366667Y-95935771D01*
X133366667Y-95935771D02*
X133414286Y-96031009D01*
X133414286Y-96031009D02*
X133414286Y-96554819D01*
X133747620Y-95888152D02*
X134128572Y-95888152D01*
X133890477Y-95554819D02*
X133890477Y-96411961D01*
X133890477Y-96411961D02*
X133938096Y-96507200D01*
X133938096Y-96507200D02*
X134033334Y-96554819D01*
X134033334Y-96554819D02*
X134128572Y-96554819D01*
X134461906Y-96554819D02*
X134461906Y-95888152D01*
X134461906Y-95554819D02*
X134414287Y-95602438D01*
X134414287Y-95602438D02*
X134461906Y-95650057D01*
X134461906Y-95650057D02*
X134509525Y-95602438D01*
X134509525Y-95602438D02*
X134461906Y-95554819D01*
X134461906Y-95554819D02*
X134461906Y-95650057D01*
X134938096Y-95888152D02*
X134938096Y-96554819D01*
X134938096Y-95983390D02*
X134985715Y-95935771D01*
X134985715Y-95935771D02*
X135080953Y-95888152D01*
X135080953Y-95888152D02*
X135223810Y-95888152D01*
X135223810Y-95888152D02*
X135319048Y-95935771D01*
X135319048Y-95935771D02*
X135366667Y-96031009D01*
X135366667Y-96031009D02*
X135366667Y-96554819D01*
X136271429Y-95888152D02*
X136271429Y-96697676D01*
X136271429Y-96697676D02*
X136223810Y-96792914D01*
X136223810Y-96792914D02*
X136176191Y-96840533D01*
X136176191Y-96840533D02*
X136080953Y-96888152D01*
X136080953Y-96888152D02*
X135938096Y-96888152D01*
X135938096Y-96888152D02*
X135842858Y-96840533D01*
X136271429Y-96507200D02*
X136176191Y-96554819D01*
X136176191Y-96554819D02*
X135985715Y-96554819D01*
X135985715Y-96554819D02*
X135890477Y-96507200D01*
X135890477Y-96507200D02*
X135842858Y-96459580D01*
X135842858Y-96459580D02*
X135795239Y-96364342D01*
X135795239Y-96364342D02*
X135795239Y-96078628D01*
X135795239Y-96078628D02*
X135842858Y-95983390D01*
X135842858Y-95983390D02*
X135890477Y-95935771D01*
X135890477Y-95935771D02*
X135985715Y-95888152D01*
X135985715Y-95888152D02*
X136176191Y-95888152D01*
X136176191Y-95888152D02*
X136271429Y-95935771D01*
X136509525Y-96650057D02*
X137271429Y-96650057D01*
X137509525Y-96554819D02*
X137509525Y-95554819D01*
X137509525Y-96031009D02*
X138080953Y-96031009D01*
X138080953Y-96554819D02*
X138080953Y-95554819D01*
X138700001Y-96554819D02*
X138604763Y-96507200D01*
X138604763Y-96507200D02*
X138557144Y-96459580D01*
X138557144Y-96459580D02*
X138509525Y-96364342D01*
X138509525Y-96364342D02*
X138509525Y-96078628D01*
X138509525Y-96078628D02*
X138557144Y-95983390D01*
X138557144Y-95983390D02*
X138604763Y-95935771D01*
X138604763Y-95935771D02*
X138700001Y-95888152D01*
X138700001Y-95888152D02*
X138842858Y-95888152D01*
X138842858Y-95888152D02*
X138938096Y-95935771D01*
X138938096Y-95935771D02*
X138985715Y-95983390D01*
X138985715Y-95983390D02*
X139033334Y-96078628D01*
X139033334Y-96078628D02*
X139033334Y-96364342D01*
X139033334Y-96364342D02*
X138985715Y-96459580D01*
X138985715Y-96459580D02*
X138938096Y-96507200D01*
X138938096Y-96507200D02*
X138842858Y-96554819D01*
X138842858Y-96554819D02*
X138700001Y-96554819D01*
X139604763Y-96554819D02*
X139509525Y-96507200D01*
X139509525Y-96507200D02*
X139461906Y-96411961D01*
X139461906Y-96411961D02*
X139461906Y-95554819D01*
X140366668Y-96507200D02*
X140271430Y-96554819D01*
X140271430Y-96554819D02*
X140080954Y-96554819D01*
X140080954Y-96554819D02*
X139985716Y-96507200D01*
X139985716Y-96507200D02*
X139938097Y-96411961D01*
X139938097Y-96411961D02*
X139938097Y-96031009D01*
X139938097Y-96031009D02*
X139985716Y-95935771D01*
X139985716Y-95935771D02*
X140080954Y-95888152D01*
X140080954Y-95888152D02*
X140271430Y-95888152D01*
X140271430Y-95888152D02*
X140366668Y-95935771D01*
X140366668Y-95935771D02*
X140414287Y-96031009D01*
X140414287Y-96031009D02*
X140414287Y-96126247D01*
X140414287Y-96126247D02*
X139938097Y-96221485D01*
X92104760Y-58454819D02*
X91771427Y-57978628D01*
X91533332Y-58454819D02*
X91533332Y-57454819D01*
X91533332Y-57454819D02*
X91914284Y-57454819D01*
X91914284Y-57454819D02*
X92009522Y-57502438D01*
X92009522Y-57502438D02*
X92057141Y-57550057D01*
X92057141Y-57550057D02*
X92104760Y-57645295D01*
X92104760Y-57645295D02*
X92104760Y-57788152D01*
X92104760Y-57788152D02*
X92057141Y-57883390D01*
X92057141Y-57883390D02*
X92009522Y-57931009D01*
X92009522Y-57931009D02*
X91914284Y-57978628D01*
X91914284Y-57978628D02*
X91533332Y-57978628D01*
X92819046Y-57454819D02*
X92819046Y-58169104D01*
X92819046Y-58169104D02*
X92771427Y-58311961D01*
X92771427Y-58311961D02*
X92676189Y-58407200D01*
X92676189Y-58407200D02*
X92533332Y-58454819D01*
X92533332Y-58454819D02*
X92438094Y-58454819D01*
X93723808Y-57788152D02*
X93723808Y-58454819D01*
X93485713Y-57407200D02*
X93247618Y-58121485D01*
X93247618Y-58121485D02*
X93866665Y-58121485D01*
X94723808Y-57454819D02*
X94247618Y-57454819D01*
X94247618Y-57454819D02*
X94199999Y-57931009D01*
X94199999Y-57931009D02*
X94247618Y-57883390D01*
X94247618Y-57883390D02*
X94342856Y-57835771D01*
X94342856Y-57835771D02*
X94580951Y-57835771D01*
X94580951Y-57835771D02*
X94676189Y-57883390D01*
X94676189Y-57883390D02*
X94723808Y-57931009D01*
X94723808Y-57931009D02*
X94771427Y-58026247D01*
X94771427Y-58026247D02*
X94771427Y-58264342D01*
X94771427Y-58264342D02*
X94723808Y-58359580D01*
X94723808Y-58359580D02*
X94676189Y-58407200D01*
X94676189Y-58407200D02*
X94580951Y-58454819D01*
X94580951Y-58454819D02*
X94342856Y-58454819D01*
X94342856Y-58454819D02*
X94247618Y-58407200D01*
X94247618Y-58407200D02*
X94199999Y-58359580D01*
X94961904Y-58550057D02*
X95723808Y-58550057D01*
X95961904Y-58454819D02*
X95961904Y-57454819D01*
X95961904Y-57454819D02*
X96295237Y-58169104D01*
X96295237Y-58169104D02*
X96628570Y-57454819D01*
X96628570Y-57454819D02*
X96628570Y-58454819D01*
X97247618Y-58454819D02*
X97152380Y-58407200D01*
X97152380Y-58407200D02*
X97104761Y-58359580D01*
X97104761Y-58359580D02*
X97057142Y-58264342D01*
X97057142Y-58264342D02*
X97057142Y-57978628D01*
X97057142Y-57978628D02*
X97104761Y-57883390D01*
X97104761Y-57883390D02*
X97152380Y-57835771D01*
X97152380Y-57835771D02*
X97247618Y-57788152D01*
X97247618Y-57788152D02*
X97390475Y-57788152D01*
X97390475Y-57788152D02*
X97485713Y-57835771D01*
X97485713Y-57835771D02*
X97533332Y-57883390D01*
X97533332Y-57883390D02*
X97580951Y-57978628D01*
X97580951Y-57978628D02*
X97580951Y-58264342D01*
X97580951Y-58264342D02*
X97533332Y-58359580D01*
X97533332Y-58359580D02*
X97485713Y-58407200D01*
X97485713Y-58407200D02*
X97390475Y-58454819D01*
X97390475Y-58454819D02*
X97247618Y-58454819D01*
X98152380Y-58454819D02*
X98057142Y-58407200D01*
X98057142Y-58407200D02*
X98009523Y-58311961D01*
X98009523Y-58311961D02*
X98009523Y-57454819D01*
X98914285Y-58407200D02*
X98819047Y-58454819D01*
X98819047Y-58454819D02*
X98628571Y-58454819D01*
X98628571Y-58454819D02*
X98533333Y-58407200D01*
X98533333Y-58407200D02*
X98485714Y-58311961D01*
X98485714Y-58311961D02*
X98485714Y-57931009D01*
X98485714Y-57931009D02*
X98533333Y-57835771D01*
X98533333Y-57835771D02*
X98628571Y-57788152D01*
X98628571Y-57788152D02*
X98819047Y-57788152D01*
X98819047Y-57788152D02*
X98914285Y-57835771D01*
X98914285Y-57835771D02*
X98961904Y-57931009D01*
X98961904Y-57931009D02*
X98961904Y-58026247D01*
X98961904Y-58026247D02*
X98485714Y-58121485D01*
X99295238Y-58454819D02*
X99819047Y-57788152D01*
X99295238Y-57788152D02*
X99819047Y-58454819D01*
X99961905Y-58550057D02*
X100723809Y-58550057D01*
X101390476Y-57788152D02*
X101390476Y-58454819D01*
X101152381Y-57407200D02*
X100914286Y-58121485D01*
X100914286Y-58121485D02*
X101533333Y-58121485D01*
X101866667Y-57550057D02*
X101914286Y-57502438D01*
X101914286Y-57502438D02*
X102009524Y-57454819D01*
X102009524Y-57454819D02*
X102247619Y-57454819D01*
X102247619Y-57454819D02*
X102342857Y-57502438D01*
X102342857Y-57502438D02*
X102390476Y-57550057D01*
X102390476Y-57550057D02*
X102438095Y-57645295D01*
X102438095Y-57645295D02*
X102438095Y-57740533D01*
X102438095Y-57740533D02*
X102390476Y-57883390D01*
X102390476Y-57883390D02*
X101819048Y-58454819D01*
X101819048Y-58454819D02*
X102438095Y-58454819D01*
X103009524Y-57883390D02*
X102914286Y-57835771D01*
X102914286Y-57835771D02*
X102866667Y-57788152D01*
X102866667Y-57788152D02*
X102819048Y-57692914D01*
X102819048Y-57692914D02*
X102819048Y-57645295D01*
X102819048Y-57645295D02*
X102866667Y-57550057D01*
X102866667Y-57550057D02*
X102914286Y-57502438D01*
X102914286Y-57502438D02*
X103009524Y-57454819D01*
X103009524Y-57454819D02*
X103200000Y-57454819D01*
X103200000Y-57454819D02*
X103295238Y-57502438D01*
X103295238Y-57502438D02*
X103342857Y-57550057D01*
X103342857Y-57550057D02*
X103390476Y-57645295D01*
X103390476Y-57645295D02*
X103390476Y-57692914D01*
X103390476Y-57692914D02*
X103342857Y-57788152D01*
X103342857Y-57788152D02*
X103295238Y-57835771D01*
X103295238Y-57835771D02*
X103200000Y-57883390D01*
X103200000Y-57883390D02*
X103009524Y-57883390D01*
X103009524Y-57883390D02*
X102914286Y-57931009D01*
X102914286Y-57931009D02*
X102866667Y-57978628D01*
X102866667Y-57978628D02*
X102819048Y-58073866D01*
X102819048Y-58073866D02*
X102819048Y-58264342D01*
X102819048Y-58264342D02*
X102866667Y-58359580D01*
X102866667Y-58359580D02*
X102914286Y-58407200D01*
X102914286Y-58407200D02*
X103009524Y-58454819D01*
X103009524Y-58454819D02*
X103200000Y-58454819D01*
X103200000Y-58454819D02*
X103295238Y-58407200D01*
X103295238Y-58407200D02*
X103342857Y-58359580D01*
X103342857Y-58359580D02*
X103390476Y-58264342D01*
X103390476Y-58264342D02*
X103390476Y-58073866D01*
X103390476Y-58073866D02*
X103342857Y-57978628D01*
X103342857Y-57978628D02*
X103295238Y-57931009D01*
X103295238Y-57931009D02*
X103200000Y-57883390D01*
X103723810Y-57454819D02*
X104390476Y-57454819D01*
X104390476Y-57454819D02*
X103961905Y-58454819D01*
X104914286Y-57883390D02*
X104819048Y-57835771D01*
X104819048Y-57835771D02*
X104771429Y-57788152D01*
X104771429Y-57788152D02*
X104723810Y-57692914D01*
X104723810Y-57692914D02*
X104723810Y-57645295D01*
X104723810Y-57645295D02*
X104771429Y-57550057D01*
X104771429Y-57550057D02*
X104819048Y-57502438D01*
X104819048Y-57502438D02*
X104914286Y-57454819D01*
X104914286Y-57454819D02*
X105104762Y-57454819D01*
X105104762Y-57454819D02*
X105200000Y-57502438D01*
X105200000Y-57502438D02*
X105247619Y-57550057D01*
X105247619Y-57550057D02*
X105295238Y-57645295D01*
X105295238Y-57645295D02*
X105295238Y-57692914D01*
X105295238Y-57692914D02*
X105247619Y-57788152D01*
X105247619Y-57788152D02*
X105200000Y-57835771D01*
X105200000Y-57835771D02*
X105104762Y-57883390D01*
X105104762Y-57883390D02*
X104914286Y-57883390D01*
X104914286Y-57883390D02*
X104819048Y-57931009D01*
X104819048Y-57931009D02*
X104771429Y-57978628D01*
X104771429Y-57978628D02*
X104723810Y-58073866D01*
X104723810Y-58073866D02*
X104723810Y-58264342D01*
X104723810Y-58264342D02*
X104771429Y-58359580D01*
X104771429Y-58359580D02*
X104819048Y-58407200D01*
X104819048Y-58407200D02*
X104914286Y-58454819D01*
X104914286Y-58454819D02*
X105104762Y-58454819D01*
X105104762Y-58454819D02*
X105200000Y-58407200D01*
X105200000Y-58407200D02*
X105247619Y-58359580D01*
X105247619Y-58359580D02*
X105295238Y-58264342D01*
X105295238Y-58264342D02*
X105295238Y-58073866D01*
X105295238Y-58073866D02*
X105247619Y-57978628D01*
X105247619Y-57978628D02*
X105200000Y-57931009D01*
X105200000Y-57931009D02*
X105104762Y-57883390D01*
X105723810Y-58073866D02*
X106485715Y-58073866D01*
X107104762Y-57883390D02*
X107009524Y-57835771D01*
X107009524Y-57835771D02*
X106961905Y-57788152D01*
X106961905Y-57788152D02*
X106914286Y-57692914D01*
X106914286Y-57692914D02*
X106914286Y-57645295D01*
X106914286Y-57645295D02*
X106961905Y-57550057D01*
X106961905Y-57550057D02*
X107009524Y-57502438D01*
X107009524Y-57502438D02*
X107104762Y-57454819D01*
X107104762Y-57454819D02*
X107295238Y-57454819D01*
X107295238Y-57454819D02*
X107390476Y-57502438D01*
X107390476Y-57502438D02*
X107438095Y-57550057D01*
X107438095Y-57550057D02*
X107485714Y-57645295D01*
X107485714Y-57645295D02*
X107485714Y-57692914D01*
X107485714Y-57692914D02*
X107438095Y-57788152D01*
X107438095Y-57788152D02*
X107390476Y-57835771D01*
X107390476Y-57835771D02*
X107295238Y-57883390D01*
X107295238Y-57883390D02*
X107104762Y-57883390D01*
X107104762Y-57883390D02*
X107009524Y-57931009D01*
X107009524Y-57931009D02*
X106961905Y-57978628D01*
X106961905Y-57978628D02*
X106914286Y-58073866D01*
X106914286Y-58073866D02*
X106914286Y-58264342D01*
X106914286Y-58264342D02*
X106961905Y-58359580D01*
X106961905Y-58359580D02*
X107009524Y-58407200D01*
X107009524Y-58407200D02*
X107104762Y-58454819D01*
X107104762Y-58454819D02*
X107295238Y-58454819D01*
X107295238Y-58454819D02*
X107390476Y-58407200D01*
X107390476Y-58407200D02*
X107438095Y-58359580D01*
X107438095Y-58359580D02*
X107485714Y-58264342D01*
X107485714Y-58264342D02*
X107485714Y-58073866D01*
X107485714Y-58073866D02*
X107438095Y-57978628D01*
X107438095Y-57978628D02*
X107390476Y-57931009D01*
X107390476Y-57931009D02*
X107295238Y-57883390D01*
X108390476Y-57454819D02*
X107914286Y-57454819D01*
X107914286Y-57454819D02*
X107866667Y-57931009D01*
X107866667Y-57931009D02*
X107914286Y-57883390D01*
X107914286Y-57883390D02*
X108009524Y-57835771D01*
X108009524Y-57835771D02*
X108247619Y-57835771D01*
X108247619Y-57835771D02*
X108342857Y-57883390D01*
X108342857Y-57883390D02*
X108390476Y-57931009D01*
X108390476Y-57931009D02*
X108438095Y-58026247D01*
X108438095Y-58026247D02*
X108438095Y-58264342D01*
X108438095Y-58264342D02*
X108390476Y-58359580D01*
X108390476Y-58359580D02*
X108342857Y-58407200D01*
X108342857Y-58407200D02*
X108247619Y-58454819D01*
X108247619Y-58454819D02*
X108009524Y-58454819D01*
X108009524Y-58454819D02*
X107914286Y-58407200D01*
X107914286Y-58407200D02*
X107866667Y-58359580D01*
X109057143Y-57454819D02*
X109152381Y-57454819D01*
X109152381Y-57454819D02*
X109247619Y-57502438D01*
X109247619Y-57502438D02*
X109295238Y-57550057D01*
X109295238Y-57550057D02*
X109342857Y-57645295D01*
X109342857Y-57645295D02*
X109390476Y-57835771D01*
X109390476Y-57835771D02*
X109390476Y-58073866D01*
X109390476Y-58073866D02*
X109342857Y-58264342D01*
X109342857Y-58264342D02*
X109295238Y-58359580D01*
X109295238Y-58359580D02*
X109247619Y-58407200D01*
X109247619Y-58407200D02*
X109152381Y-58454819D01*
X109152381Y-58454819D02*
X109057143Y-58454819D01*
X109057143Y-58454819D02*
X108961905Y-58407200D01*
X108961905Y-58407200D02*
X108914286Y-58359580D01*
X108914286Y-58359580D02*
X108866667Y-58264342D01*
X108866667Y-58264342D02*
X108819048Y-58073866D01*
X108819048Y-58073866D02*
X108819048Y-57835771D01*
X108819048Y-57835771D02*
X108866667Y-57645295D01*
X108866667Y-57645295D02*
X108914286Y-57550057D01*
X108914286Y-57550057D02*
X108961905Y-57502438D01*
X108961905Y-57502438D02*
X109057143Y-57454819D01*
X110247619Y-57454819D02*
X110057143Y-57454819D01*
X110057143Y-57454819D02*
X109961905Y-57502438D01*
X109961905Y-57502438D02*
X109914286Y-57550057D01*
X109914286Y-57550057D02*
X109819048Y-57692914D01*
X109819048Y-57692914D02*
X109771429Y-57883390D01*
X109771429Y-57883390D02*
X109771429Y-58264342D01*
X109771429Y-58264342D02*
X109819048Y-58359580D01*
X109819048Y-58359580D02*
X109866667Y-58407200D01*
X109866667Y-58407200D02*
X109961905Y-58454819D01*
X109961905Y-58454819D02*
X110152381Y-58454819D01*
X110152381Y-58454819D02*
X110247619Y-58407200D01*
X110247619Y-58407200D02*
X110295238Y-58359580D01*
X110295238Y-58359580D02*
X110342857Y-58264342D01*
X110342857Y-58264342D02*
X110342857Y-58026247D01*
X110342857Y-58026247D02*
X110295238Y-57931009D01*
X110295238Y-57931009D02*
X110247619Y-57883390D01*
X110247619Y-57883390D02*
X110152381Y-57835771D01*
X110152381Y-57835771D02*
X109961905Y-57835771D01*
X109961905Y-57835771D02*
X109866667Y-57883390D01*
X109866667Y-57883390D02*
X109819048Y-57931009D01*
X109819048Y-57931009D02*
X109771429Y-58026247D01*
X110533334Y-58550057D02*
X111295238Y-58550057D01*
X111533334Y-58454819D02*
X111533334Y-57454819D01*
X111533334Y-57454819D02*
X111866667Y-58169104D01*
X111866667Y-58169104D02*
X112200000Y-57454819D01*
X112200000Y-57454819D02*
X112200000Y-58454819D01*
X112819048Y-58454819D02*
X112723810Y-58407200D01*
X112723810Y-58407200D02*
X112676191Y-58359580D01*
X112676191Y-58359580D02*
X112628572Y-58264342D01*
X112628572Y-58264342D02*
X112628572Y-57978628D01*
X112628572Y-57978628D02*
X112676191Y-57883390D01*
X112676191Y-57883390D02*
X112723810Y-57835771D01*
X112723810Y-57835771D02*
X112819048Y-57788152D01*
X112819048Y-57788152D02*
X112961905Y-57788152D01*
X112961905Y-57788152D02*
X113057143Y-57835771D01*
X113057143Y-57835771D02*
X113104762Y-57883390D01*
X113104762Y-57883390D02*
X113152381Y-57978628D01*
X113152381Y-57978628D02*
X113152381Y-58264342D01*
X113152381Y-58264342D02*
X113104762Y-58359580D01*
X113104762Y-58359580D02*
X113057143Y-58407200D01*
X113057143Y-58407200D02*
X112961905Y-58454819D01*
X112961905Y-58454819D02*
X112819048Y-58454819D01*
X114009524Y-57788152D02*
X114009524Y-58454819D01*
X113580953Y-57788152D02*
X113580953Y-58311961D01*
X113580953Y-58311961D02*
X113628572Y-58407200D01*
X113628572Y-58407200D02*
X113723810Y-58454819D01*
X113723810Y-58454819D02*
X113866667Y-58454819D01*
X113866667Y-58454819D02*
X113961905Y-58407200D01*
X113961905Y-58407200D02*
X114009524Y-58359580D01*
X114485715Y-57788152D02*
X114485715Y-58454819D01*
X114485715Y-57883390D02*
X114533334Y-57835771D01*
X114533334Y-57835771D02*
X114628572Y-57788152D01*
X114628572Y-57788152D02*
X114771429Y-57788152D01*
X114771429Y-57788152D02*
X114866667Y-57835771D01*
X114866667Y-57835771D02*
X114914286Y-57931009D01*
X114914286Y-57931009D02*
X114914286Y-58454819D01*
X115247620Y-57788152D02*
X115628572Y-57788152D01*
X115390477Y-57454819D02*
X115390477Y-58311961D01*
X115390477Y-58311961D02*
X115438096Y-58407200D01*
X115438096Y-58407200D02*
X115533334Y-58454819D01*
X115533334Y-58454819D02*
X115628572Y-58454819D01*
X115961906Y-58454819D02*
X115961906Y-57788152D01*
X115961906Y-57454819D02*
X115914287Y-57502438D01*
X115914287Y-57502438D02*
X115961906Y-57550057D01*
X115961906Y-57550057D02*
X116009525Y-57502438D01*
X116009525Y-57502438D02*
X115961906Y-57454819D01*
X115961906Y-57454819D02*
X115961906Y-57550057D01*
X116438096Y-57788152D02*
X116438096Y-58454819D01*
X116438096Y-57883390D02*
X116485715Y-57835771D01*
X116485715Y-57835771D02*
X116580953Y-57788152D01*
X116580953Y-57788152D02*
X116723810Y-57788152D01*
X116723810Y-57788152D02*
X116819048Y-57835771D01*
X116819048Y-57835771D02*
X116866667Y-57931009D01*
X116866667Y-57931009D02*
X116866667Y-58454819D01*
X117771429Y-57788152D02*
X117771429Y-58597676D01*
X117771429Y-58597676D02*
X117723810Y-58692914D01*
X117723810Y-58692914D02*
X117676191Y-58740533D01*
X117676191Y-58740533D02*
X117580953Y-58788152D01*
X117580953Y-58788152D02*
X117438096Y-58788152D01*
X117438096Y-58788152D02*
X117342858Y-58740533D01*
X117771429Y-58407200D02*
X117676191Y-58454819D01*
X117676191Y-58454819D02*
X117485715Y-58454819D01*
X117485715Y-58454819D02*
X117390477Y-58407200D01*
X117390477Y-58407200D02*
X117342858Y-58359580D01*
X117342858Y-58359580D02*
X117295239Y-58264342D01*
X117295239Y-58264342D02*
X117295239Y-57978628D01*
X117295239Y-57978628D02*
X117342858Y-57883390D01*
X117342858Y-57883390D02*
X117390477Y-57835771D01*
X117390477Y-57835771D02*
X117485715Y-57788152D01*
X117485715Y-57788152D02*
X117676191Y-57788152D01*
X117676191Y-57788152D02*
X117771429Y-57835771D01*
X118009525Y-58550057D02*
X118771429Y-58550057D01*
X119009525Y-58454819D02*
X119009525Y-57454819D01*
X119009525Y-57931009D02*
X119580953Y-57931009D01*
X119580953Y-58454819D02*
X119580953Y-57454819D01*
X120200001Y-58454819D02*
X120104763Y-58407200D01*
X120104763Y-58407200D02*
X120057144Y-58359580D01*
X120057144Y-58359580D02*
X120009525Y-58264342D01*
X120009525Y-58264342D02*
X120009525Y-57978628D01*
X120009525Y-57978628D02*
X120057144Y-57883390D01*
X120057144Y-57883390D02*
X120104763Y-57835771D01*
X120104763Y-57835771D02*
X120200001Y-57788152D01*
X120200001Y-57788152D02*
X120342858Y-57788152D01*
X120342858Y-57788152D02*
X120438096Y-57835771D01*
X120438096Y-57835771D02*
X120485715Y-57883390D01*
X120485715Y-57883390D02*
X120533334Y-57978628D01*
X120533334Y-57978628D02*
X120533334Y-58264342D01*
X120533334Y-58264342D02*
X120485715Y-58359580D01*
X120485715Y-58359580D02*
X120438096Y-58407200D01*
X120438096Y-58407200D02*
X120342858Y-58454819D01*
X120342858Y-58454819D02*
X120200001Y-58454819D01*
X121104763Y-58454819D02*
X121009525Y-58407200D01*
X121009525Y-58407200D02*
X120961906Y-58311961D01*
X120961906Y-58311961D02*
X120961906Y-57454819D01*
X121866668Y-58407200D02*
X121771430Y-58454819D01*
X121771430Y-58454819D02*
X121580954Y-58454819D01*
X121580954Y-58454819D02*
X121485716Y-58407200D01*
X121485716Y-58407200D02*
X121438097Y-58311961D01*
X121438097Y-58311961D02*
X121438097Y-57931009D01*
X121438097Y-57931009D02*
X121485716Y-57835771D01*
X121485716Y-57835771D02*
X121580954Y-57788152D01*
X121580954Y-57788152D02*
X121771430Y-57788152D01*
X121771430Y-57788152D02*
X121866668Y-57835771D01*
X121866668Y-57835771D02*
X121914287Y-57931009D01*
X121914287Y-57931009D02*
X121914287Y-58026247D01*
X121914287Y-58026247D02*
X121438097Y-58121485D01*
X96514285Y-146604819D02*
X96514285Y-145604819D01*
X96514285Y-145604819D02*
X96847618Y-146319104D01*
X96847618Y-146319104D02*
X97180951Y-145604819D01*
X97180951Y-145604819D02*
X97180951Y-146604819D01*
X97799999Y-146604819D02*
X97704761Y-146557200D01*
X97704761Y-146557200D02*
X97657142Y-146509580D01*
X97657142Y-146509580D02*
X97609523Y-146414342D01*
X97609523Y-146414342D02*
X97609523Y-146128628D01*
X97609523Y-146128628D02*
X97657142Y-146033390D01*
X97657142Y-146033390D02*
X97704761Y-145985771D01*
X97704761Y-145985771D02*
X97799999Y-145938152D01*
X97799999Y-145938152D02*
X97942856Y-145938152D01*
X97942856Y-145938152D02*
X98038094Y-145985771D01*
X98038094Y-145985771D02*
X98085713Y-146033390D01*
X98085713Y-146033390D02*
X98133332Y-146128628D01*
X98133332Y-146128628D02*
X98133332Y-146414342D01*
X98133332Y-146414342D02*
X98085713Y-146509580D01*
X98085713Y-146509580D02*
X98038094Y-146557200D01*
X98038094Y-146557200D02*
X97942856Y-146604819D01*
X97942856Y-146604819D02*
X97799999Y-146604819D01*
X98990475Y-145938152D02*
X98990475Y-146604819D01*
X98561904Y-145938152D02*
X98561904Y-146461961D01*
X98561904Y-146461961D02*
X98609523Y-146557200D01*
X98609523Y-146557200D02*
X98704761Y-146604819D01*
X98704761Y-146604819D02*
X98847618Y-146604819D01*
X98847618Y-146604819D02*
X98942856Y-146557200D01*
X98942856Y-146557200D02*
X98990475Y-146509580D01*
X99466666Y-145938152D02*
X99466666Y-146604819D01*
X99466666Y-146033390D02*
X99514285Y-145985771D01*
X99514285Y-145985771D02*
X99609523Y-145938152D01*
X99609523Y-145938152D02*
X99752380Y-145938152D01*
X99752380Y-145938152D02*
X99847618Y-145985771D01*
X99847618Y-145985771D02*
X99895237Y-146081009D01*
X99895237Y-146081009D02*
X99895237Y-146604819D01*
X100228571Y-145938152D02*
X100609523Y-145938152D01*
X100371428Y-145604819D02*
X100371428Y-146461961D01*
X100371428Y-146461961D02*
X100419047Y-146557200D01*
X100419047Y-146557200D02*
X100514285Y-146604819D01*
X100514285Y-146604819D02*
X100609523Y-146604819D01*
X100942857Y-146604819D02*
X100942857Y-145938152D01*
X100942857Y-145604819D02*
X100895238Y-145652438D01*
X100895238Y-145652438D02*
X100942857Y-145700057D01*
X100942857Y-145700057D02*
X100990476Y-145652438D01*
X100990476Y-145652438D02*
X100942857Y-145604819D01*
X100942857Y-145604819D02*
X100942857Y-145700057D01*
X101419047Y-145938152D02*
X101419047Y-146604819D01*
X101419047Y-146033390D02*
X101466666Y-145985771D01*
X101466666Y-145985771D02*
X101561904Y-145938152D01*
X101561904Y-145938152D02*
X101704761Y-145938152D01*
X101704761Y-145938152D02*
X101799999Y-145985771D01*
X101799999Y-145985771D02*
X101847618Y-146081009D01*
X101847618Y-146081009D02*
X101847618Y-146604819D01*
X102752380Y-145938152D02*
X102752380Y-146747676D01*
X102752380Y-146747676D02*
X102704761Y-146842914D01*
X102704761Y-146842914D02*
X102657142Y-146890533D01*
X102657142Y-146890533D02*
X102561904Y-146938152D01*
X102561904Y-146938152D02*
X102419047Y-146938152D01*
X102419047Y-146938152D02*
X102323809Y-146890533D01*
X102752380Y-146557200D02*
X102657142Y-146604819D01*
X102657142Y-146604819D02*
X102466666Y-146604819D01*
X102466666Y-146604819D02*
X102371428Y-146557200D01*
X102371428Y-146557200D02*
X102323809Y-146509580D01*
X102323809Y-146509580D02*
X102276190Y-146414342D01*
X102276190Y-146414342D02*
X102276190Y-146128628D01*
X102276190Y-146128628D02*
X102323809Y-146033390D01*
X102323809Y-146033390D02*
X102371428Y-145985771D01*
X102371428Y-145985771D02*
X102466666Y-145938152D01*
X102466666Y-145938152D02*
X102657142Y-145938152D01*
X102657142Y-145938152D02*
X102752380Y-145985771D01*
X103228571Y-146604819D02*
X103228571Y-145604819D01*
X103228571Y-146081009D02*
X103799999Y-146081009D01*
X103799999Y-146604819D02*
X103799999Y-145604819D01*
X104419047Y-146604819D02*
X104323809Y-146557200D01*
X104323809Y-146557200D02*
X104276190Y-146509580D01*
X104276190Y-146509580D02*
X104228571Y-146414342D01*
X104228571Y-146414342D02*
X104228571Y-146128628D01*
X104228571Y-146128628D02*
X104276190Y-146033390D01*
X104276190Y-146033390D02*
X104323809Y-145985771D01*
X104323809Y-145985771D02*
X104419047Y-145938152D01*
X104419047Y-145938152D02*
X104561904Y-145938152D01*
X104561904Y-145938152D02*
X104657142Y-145985771D01*
X104657142Y-145985771D02*
X104704761Y-146033390D01*
X104704761Y-146033390D02*
X104752380Y-146128628D01*
X104752380Y-146128628D02*
X104752380Y-146414342D01*
X104752380Y-146414342D02*
X104704761Y-146509580D01*
X104704761Y-146509580D02*
X104657142Y-146557200D01*
X104657142Y-146557200D02*
X104561904Y-146604819D01*
X104561904Y-146604819D02*
X104419047Y-146604819D01*
X105323809Y-146604819D02*
X105228571Y-146557200D01*
X105228571Y-146557200D02*
X105180952Y-146461961D01*
X105180952Y-146461961D02*
X105180952Y-145604819D01*
X106085714Y-146557200D02*
X105990476Y-146604819D01*
X105990476Y-146604819D02*
X105800000Y-146604819D01*
X105800000Y-146604819D02*
X105704762Y-146557200D01*
X105704762Y-146557200D02*
X105657143Y-146461961D01*
X105657143Y-146461961D02*
X105657143Y-146081009D01*
X105657143Y-146081009D02*
X105704762Y-145985771D01*
X105704762Y-145985771D02*
X105800000Y-145938152D01*
X105800000Y-145938152D02*
X105990476Y-145938152D01*
X105990476Y-145938152D02*
X106085714Y-145985771D01*
X106085714Y-145985771D02*
X106133333Y-146081009D01*
X106133333Y-146081009D02*
X106133333Y-146176247D01*
X106133333Y-146176247D02*
X105657143Y-146271485D01*
X100538095Y-142854819D02*
X100538095Y-141854819D01*
X100538095Y-142331009D02*
X101109523Y-142331009D01*
X101109523Y-142854819D02*
X101109523Y-141854819D01*
X101490476Y-141854819D02*
X102109523Y-141854819D01*
X102109523Y-141854819D02*
X101776190Y-142235771D01*
X101776190Y-142235771D02*
X101919047Y-142235771D01*
X101919047Y-142235771D02*
X102014285Y-142283390D01*
X102014285Y-142283390D02*
X102061904Y-142331009D01*
X102061904Y-142331009D02*
X102109523Y-142426247D01*
X102109523Y-142426247D02*
X102109523Y-142664342D01*
X102109523Y-142664342D02*
X102061904Y-142759580D01*
X102061904Y-142759580D02*
X102014285Y-142807200D01*
X102014285Y-142807200D02*
X101919047Y-142854819D01*
X101919047Y-142854819D02*
X101633333Y-142854819D01*
X101633333Y-142854819D02*
X101538095Y-142807200D01*
X101538095Y-142807200D02*
X101490476Y-142759580D01*
X125914285Y-146604819D02*
X125914285Y-145604819D01*
X125914285Y-145604819D02*
X126247618Y-146319104D01*
X126247618Y-146319104D02*
X126580951Y-145604819D01*
X126580951Y-145604819D02*
X126580951Y-146604819D01*
X127199999Y-146604819D02*
X127104761Y-146557200D01*
X127104761Y-146557200D02*
X127057142Y-146509580D01*
X127057142Y-146509580D02*
X127009523Y-146414342D01*
X127009523Y-146414342D02*
X127009523Y-146128628D01*
X127009523Y-146128628D02*
X127057142Y-146033390D01*
X127057142Y-146033390D02*
X127104761Y-145985771D01*
X127104761Y-145985771D02*
X127199999Y-145938152D01*
X127199999Y-145938152D02*
X127342856Y-145938152D01*
X127342856Y-145938152D02*
X127438094Y-145985771D01*
X127438094Y-145985771D02*
X127485713Y-146033390D01*
X127485713Y-146033390D02*
X127533332Y-146128628D01*
X127533332Y-146128628D02*
X127533332Y-146414342D01*
X127533332Y-146414342D02*
X127485713Y-146509580D01*
X127485713Y-146509580D02*
X127438094Y-146557200D01*
X127438094Y-146557200D02*
X127342856Y-146604819D01*
X127342856Y-146604819D02*
X127199999Y-146604819D01*
X128390475Y-145938152D02*
X128390475Y-146604819D01*
X127961904Y-145938152D02*
X127961904Y-146461961D01*
X127961904Y-146461961D02*
X128009523Y-146557200D01*
X128009523Y-146557200D02*
X128104761Y-146604819D01*
X128104761Y-146604819D02*
X128247618Y-146604819D01*
X128247618Y-146604819D02*
X128342856Y-146557200D01*
X128342856Y-146557200D02*
X128390475Y-146509580D01*
X128866666Y-145938152D02*
X128866666Y-146604819D01*
X128866666Y-146033390D02*
X128914285Y-145985771D01*
X128914285Y-145985771D02*
X129009523Y-145938152D01*
X129009523Y-145938152D02*
X129152380Y-145938152D01*
X129152380Y-145938152D02*
X129247618Y-145985771D01*
X129247618Y-145985771D02*
X129295237Y-146081009D01*
X129295237Y-146081009D02*
X129295237Y-146604819D01*
X129628571Y-145938152D02*
X130009523Y-145938152D01*
X129771428Y-145604819D02*
X129771428Y-146461961D01*
X129771428Y-146461961D02*
X129819047Y-146557200D01*
X129819047Y-146557200D02*
X129914285Y-146604819D01*
X129914285Y-146604819D02*
X130009523Y-146604819D01*
X130342857Y-146604819D02*
X130342857Y-145938152D01*
X130342857Y-145604819D02*
X130295238Y-145652438D01*
X130295238Y-145652438D02*
X130342857Y-145700057D01*
X130342857Y-145700057D02*
X130390476Y-145652438D01*
X130390476Y-145652438D02*
X130342857Y-145604819D01*
X130342857Y-145604819D02*
X130342857Y-145700057D01*
X130819047Y-145938152D02*
X130819047Y-146604819D01*
X130819047Y-146033390D02*
X130866666Y-145985771D01*
X130866666Y-145985771D02*
X130961904Y-145938152D01*
X130961904Y-145938152D02*
X131104761Y-145938152D01*
X131104761Y-145938152D02*
X131199999Y-145985771D01*
X131199999Y-145985771D02*
X131247618Y-146081009D01*
X131247618Y-146081009D02*
X131247618Y-146604819D01*
X132152380Y-145938152D02*
X132152380Y-146747676D01*
X132152380Y-146747676D02*
X132104761Y-146842914D01*
X132104761Y-146842914D02*
X132057142Y-146890533D01*
X132057142Y-146890533D02*
X131961904Y-146938152D01*
X131961904Y-146938152D02*
X131819047Y-146938152D01*
X131819047Y-146938152D02*
X131723809Y-146890533D01*
X132152380Y-146557200D02*
X132057142Y-146604819D01*
X132057142Y-146604819D02*
X131866666Y-146604819D01*
X131866666Y-146604819D02*
X131771428Y-146557200D01*
X131771428Y-146557200D02*
X131723809Y-146509580D01*
X131723809Y-146509580D02*
X131676190Y-146414342D01*
X131676190Y-146414342D02*
X131676190Y-146128628D01*
X131676190Y-146128628D02*
X131723809Y-146033390D01*
X131723809Y-146033390D02*
X131771428Y-145985771D01*
X131771428Y-145985771D02*
X131866666Y-145938152D01*
X131866666Y-145938152D02*
X132057142Y-145938152D01*
X132057142Y-145938152D02*
X132152380Y-145985771D01*
X132628571Y-146604819D02*
X132628571Y-145604819D01*
X132628571Y-146081009D02*
X133199999Y-146081009D01*
X133199999Y-146604819D02*
X133199999Y-145604819D01*
X133819047Y-146604819D02*
X133723809Y-146557200D01*
X133723809Y-146557200D02*
X133676190Y-146509580D01*
X133676190Y-146509580D02*
X133628571Y-146414342D01*
X133628571Y-146414342D02*
X133628571Y-146128628D01*
X133628571Y-146128628D02*
X133676190Y-146033390D01*
X133676190Y-146033390D02*
X133723809Y-145985771D01*
X133723809Y-145985771D02*
X133819047Y-145938152D01*
X133819047Y-145938152D02*
X133961904Y-145938152D01*
X133961904Y-145938152D02*
X134057142Y-145985771D01*
X134057142Y-145985771D02*
X134104761Y-146033390D01*
X134104761Y-146033390D02*
X134152380Y-146128628D01*
X134152380Y-146128628D02*
X134152380Y-146414342D01*
X134152380Y-146414342D02*
X134104761Y-146509580D01*
X134104761Y-146509580D02*
X134057142Y-146557200D01*
X134057142Y-146557200D02*
X133961904Y-146604819D01*
X133961904Y-146604819D02*
X133819047Y-146604819D01*
X134723809Y-146604819D02*
X134628571Y-146557200D01*
X134628571Y-146557200D02*
X134580952Y-146461961D01*
X134580952Y-146461961D02*
X134580952Y-145604819D01*
X135485714Y-146557200D02*
X135390476Y-146604819D01*
X135390476Y-146604819D02*
X135200000Y-146604819D01*
X135200000Y-146604819D02*
X135104762Y-146557200D01*
X135104762Y-146557200D02*
X135057143Y-146461961D01*
X135057143Y-146461961D02*
X135057143Y-146081009D01*
X135057143Y-146081009D02*
X135104762Y-145985771D01*
X135104762Y-145985771D02*
X135200000Y-145938152D01*
X135200000Y-145938152D02*
X135390476Y-145938152D01*
X135390476Y-145938152D02*
X135485714Y-145985771D01*
X135485714Y-145985771D02*
X135533333Y-146081009D01*
X135533333Y-146081009D02*
X135533333Y-146176247D01*
X135533333Y-146176247D02*
X135057143Y-146271485D01*
X129938095Y-142854819D02*
X129938095Y-141854819D01*
X129938095Y-142331009D02*
X130509523Y-142331009D01*
X130509523Y-142854819D02*
X130509523Y-141854819D01*
X130890476Y-141854819D02*
X131509523Y-141854819D01*
X131509523Y-141854819D02*
X131176190Y-142235771D01*
X131176190Y-142235771D02*
X131319047Y-142235771D01*
X131319047Y-142235771D02*
X131414285Y-142283390D01*
X131414285Y-142283390D02*
X131461904Y-142331009D01*
X131461904Y-142331009D02*
X131509523Y-142426247D01*
X131509523Y-142426247D02*
X131509523Y-142664342D01*
X131509523Y-142664342D02*
X131461904Y-142759580D01*
X131461904Y-142759580D02*
X131414285Y-142807200D01*
X131414285Y-142807200D02*
X131319047Y-142854819D01*
X131319047Y-142854819D02*
X131033333Y-142854819D01*
X131033333Y-142854819D02*
X130938095Y-142807200D01*
X130938095Y-142807200D02*
X130890476Y-142759580D01*
X92104760Y-96554819D02*
X91771427Y-96078628D01*
X91533332Y-96554819D02*
X91533332Y-95554819D01*
X91533332Y-95554819D02*
X91914284Y-95554819D01*
X91914284Y-95554819D02*
X92009522Y-95602438D01*
X92009522Y-95602438D02*
X92057141Y-95650057D01*
X92057141Y-95650057D02*
X92104760Y-95745295D01*
X92104760Y-95745295D02*
X92104760Y-95888152D01*
X92104760Y-95888152D02*
X92057141Y-95983390D01*
X92057141Y-95983390D02*
X92009522Y-96031009D01*
X92009522Y-96031009D02*
X91914284Y-96078628D01*
X91914284Y-96078628D02*
X91533332Y-96078628D01*
X92819046Y-95554819D02*
X92819046Y-96269104D01*
X92819046Y-96269104D02*
X92771427Y-96411961D01*
X92771427Y-96411961D02*
X92676189Y-96507200D01*
X92676189Y-96507200D02*
X92533332Y-96554819D01*
X92533332Y-96554819D02*
X92438094Y-96554819D01*
X93723808Y-95888152D02*
X93723808Y-96554819D01*
X93485713Y-95507200D02*
X93247618Y-96221485D01*
X93247618Y-96221485D02*
X93866665Y-96221485D01*
X94723808Y-95554819D02*
X94247618Y-95554819D01*
X94247618Y-95554819D02*
X94199999Y-96031009D01*
X94199999Y-96031009D02*
X94247618Y-95983390D01*
X94247618Y-95983390D02*
X94342856Y-95935771D01*
X94342856Y-95935771D02*
X94580951Y-95935771D01*
X94580951Y-95935771D02*
X94676189Y-95983390D01*
X94676189Y-95983390D02*
X94723808Y-96031009D01*
X94723808Y-96031009D02*
X94771427Y-96126247D01*
X94771427Y-96126247D02*
X94771427Y-96364342D01*
X94771427Y-96364342D02*
X94723808Y-96459580D01*
X94723808Y-96459580D02*
X94676189Y-96507200D01*
X94676189Y-96507200D02*
X94580951Y-96554819D01*
X94580951Y-96554819D02*
X94342856Y-96554819D01*
X94342856Y-96554819D02*
X94247618Y-96507200D01*
X94247618Y-96507200D02*
X94199999Y-96459580D01*
X94961904Y-96650057D02*
X95723808Y-96650057D01*
X95961904Y-96554819D02*
X95961904Y-95554819D01*
X95961904Y-95554819D02*
X96295237Y-96269104D01*
X96295237Y-96269104D02*
X96628570Y-95554819D01*
X96628570Y-95554819D02*
X96628570Y-96554819D01*
X97247618Y-96554819D02*
X97152380Y-96507200D01*
X97152380Y-96507200D02*
X97104761Y-96459580D01*
X97104761Y-96459580D02*
X97057142Y-96364342D01*
X97057142Y-96364342D02*
X97057142Y-96078628D01*
X97057142Y-96078628D02*
X97104761Y-95983390D01*
X97104761Y-95983390D02*
X97152380Y-95935771D01*
X97152380Y-95935771D02*
X97247618Y-95888152D01*
X97247618Y-95888152D02*
X97390475Y-95888152D01*
X97390475Y-95888152D02*
X97485713Y-95935771D01*
X97485713Y-95935771D02*
X97533332Y-95983390D01*
X97533332Y-95983390D02*
X97580951Y-96078628D01*
X97580951Y-96078628D02*
X97580951Y-96364342D01*
X97580951Y-96364342D02*
X97533332Y-96459580D01*
X97533332Y-96459580D02*
X97485713Y-96507200D01*
X97485713Y-96507200D02*
X97390475Y-96554819D01*
X97390475Y-96554819D02*
X97247618Y-96554819D01*
X98152380Y-96554819D02*
X98057142Y-96507200D01*
X98057142Y-96507200D02*
X98009523Y-96411961D01*
X98009523Y-96411961D02*
X98009523Y-95554819D01*
X98914285Y-96507200D02*
X98819047Y-96554819D01*
X98819047Y-96554819D02*
X98628571Y-96554819D01*
X98628571Y-96554819D02*
X98533333Y-96507200D01*
X98533333Y-96507200D02*
X98485714Y-96411961D01*
X98485714Y-96411961D02*
X98485714Y-96031009D01*
X98485714Y-96031009D02*
X98533333Y-95935771D01*
X98533333Y-95935771D02*
X98628571Y-95888152D01*
X98628571Y-95888152D02*
X98819047Y-95888152D01*
X98819047Y-95888152D02*
X98914285Y-95935771D01*
X98914285Y-95935771D02*
X98961904Y-96031009D01*
X98961904Y-96031009D02*
X98961904Y-96126247D01*
X98961904Y-96126247D02*
X98485714Y-96221485D01*
X99295238Y-96554819D02*
X99819047Y-95888152D01*
X99295238Y-95888152D02*
X99819047Y-96554819D01*
X99961905Y-96650057D02*
X100723809Y-96650057D01*
X101390476Y-95888152D02*
X101390476Y-96554819D01*
X101152381Y-95507200D02*
X100914286Y-96221485D01*
X100914286Y-96221485D02*
X101533333Y-96221485D01*
X101866667Y-95650057D02*
X101914286Y-95602438D01*
X101914286Y-95602438D02*
X102009524Y-95554819D01*
X102009524Y-95554819D02*
X102247619Y-95554819D01*
X102247619Y-95554819D02*
X102342857Y-95602438D01*
X102342857Y-95602438D02*
X102390476Y-95650057D01*
X102390476Y-95650057D02*
X102438095Y-95745295D01*
X102438095Y-95745295D02*
X102438095Y-95840533D01*
X102438095Y-95840533D02*
X102390476Y-95983390D01*
X102390476Y-95983390D02*
X101819048Y-96554819D01*
X101819048Y-96554819D02*
X102438095Y-96554819D01*
X103009524Y-95983390D02*
X102914286Y-95935771D01*
X102914286Y-95935771D02*
X102866667Y-95888152D01*
X102866667Y-95888152D02*
X102819048Y-95792914D01*
X102819048Y-95792914D02*
X102819048Y-95745295D01*
X102819048Y-95745295D02*
X102866667Y-95650057D01*
X102866667Y-95650057D02*
X102914286Y-95602438D01*
X102914286Y-95602438D02*
X103009524Y-95554819D01*
X103009524Y-95554819D02*
X103200000Y-95554819D01*
X103200000Y-95554819D02*
X103295238Y-95602438D01*
X103295238Y-95602438D02*
X103342857Y-95650057D01*
X103342857Y-95650057D02*
X103390476Y-95745295D01*
X103390476Y-95745295D02*
X103390476Y-95792914D01*
X103390476Y-95792914D02*
X103342857Y-95888152D01*
X103342857Y-95888152D02*
X103295238Y-95935771D01*
X103295238Y-95935771D02*
X103200000Y-95983390D01*
X103200000Y-95983390D02*
X103009524Y-95983390D01*
X103009524Y-95983390D02*
X102914286Y-96031009D01*
X102914286Y-96031009D02*
X102866667Y-96078628D01*
X102866667Y-96078628D02*
X102819048Y-96173866D01*
X102819048Y-96173866D02*
X102819048Y-96364342D01*
X102819048Y-96364342D02*
X102866667Y-96459580D01*
X102866667Y-96459580D02*
X102914286Y-96507200D01*
X102914286Y-96507200D02*
X103009524Y-96554819D01*
X103009524Y-96554819D02*
X103200000Y-96554819D01*
X103200000Y-96554819D02*
X103295238Y-96507200D01*
X103295238Y-96507200D02*
X103342857Y-96459580D01*
X103342857Y-96459580D02*
X103390476Y-96364342D01*
X103390476Y-96364342D02*
X103390476Y-96173866D01*
X103390476Y-96173866D02*
X103342857Y-96078628D01*
X103342857Y-96078628D02*
X103295238Y-96031009D01*
X103295238Y-96031009D02*
X103200000Y-95983390D01*
X103723810Y-95554819D02*
X104390476Y-95554819D01*
X104390476Y-95554819D02*
X103961905Y-96554819D01*
X104914286Y-95983390D02*
X104819048Y-95935771D01*
X104819048Y-95935771D02*
X104771429Y-95888152D01*
X104771429Y-95888152D02*
X104723810Y-95792914D01*
X104723810Y-95792914D02*
X104723810Y-95745295D01*
X104723810Y-95745295D02*
X104771429Y-95650057D01*
X104771429Y-95650057D02*
X104819048Y-95602438D01*
X104819048Y-95602438D02*
X104914286Y-95554819D01*
X104914286Y-95554819D02*
X105104762Y-95554819D01*
X105104762Y-95554819D02*
X105200000Y-95602438D01*
X105200000Y-95602438D02*
X105247619Y-95650057D01*
X105247619Y-95650057D02*
X105295238Y-95745295D01*
X105295238Y-95745295D02*
X105295238Y-95792914D01*
X105295238Y-95792914D02*
X105247619Y-95888152D01*
X105247619Y-95888152D02*
X105200000Y-95935771D01*
X105200000Y-95935771D02*
X105104762Y-95983390D01*
X105104762Y-95983390D02*
X104914286Y-95983390D01*
X104914286Y-95983390D02*
X104819048Y-96031009D01*
X104819048Y-96031009D02*
X104771429Y-96078628D01*
X104771429Y-96078628D02*
X104723810Y-96173866D01*
X104723810Y-96173866D02*
X104723810Y-96364342D01*
X104723810Y-96364342D02*
X104771429Y-96459580D01*
X104771429Y-96459580D02*
X104819048Y-96507200D01*
X104819048Y-96507200D02*
X104914286Y-96554819D01*
X104914286Y-96554819D02*
X105104762Y-96554819D01*
X105104762Y-96554819D02*
X105200000Y-96507200D01*
X105200000Y-96507200D02*
X105247619Y-96459580D01*
X105247619Y-96459580D02*
X105295238Y-96364342D01*
X105295238Y-96364342D02*
X105295238Y-96173866D01*
X105295238Y-96173866D02*
X105247619Y-96078628D01*
X105247619Y-96078628D02*
X105200000Y-96031009D01*
X105200000Y-96031009D02*
X105104762Y-95983390D01*
X105723810Y-96173866D02*
X106485715Y-96173866D01*
X107104762Y-95983390D02*
X107009524Y-95935771D01*
X107009524Y-95935771D02*
X106961905Y-95888152D01*
X106961905Y-95888152D02*
X106914286Y-95792914D01*
X106914286Y-95792914D02*
X106914286Y-95745295D01*
X106914286Y-95745295D02*
X106961905Y-95650057D01*
X106961905Y-95650057D02*
X107009524Y-95602438D01*
X107009524Y-95602438D02*
X107104762Y-95554819D01*
X107104762Y-95554819D02*
X107295238Y-95554819D01*
X107295238Y-95554819D02*
X107390476Y-95602438D01*
X107390476Y-95602438D02*
X107438095Y-95650057D01*
X107438095Y-95650057D02*
X107485714Y-95745295D01*
X107485714Y-95745295D02*
X107485714Y-95792914D01*
X107485714Y-95792914D02*
X107438095Y-95888152D01*
X107438095Y-95888152D02*
X107390476Y-95935771D01*
X107390476Y-95935771D02*
X107295238Y-95983390D01*
X107295238Y-95983390D02*
X107104762Y-95983390D01*
X107104762Y-95983390D02*
X107009524Y-96031009D01*
X107009524Y-96031009D02*
X106961905Y-96078628D01*
X106961905Y-96078628D02*
X106914286Y-96173866D01*
X106914286Y-96173866D02*
X106914286Y-96364342D01*
X106914286Y-96364342D02*
X106961905Y-96459580D01*
X106961905Y-96459580D02*
X107009524Y-96507200D01*
X107009524Y-96507200D02*
X107104762Y-96554819D01*
X107104762Y-96554819D02*
X107295238Y-96554819D01*
X107295238Y-96554819D02*
X107390476Y-96507200D01*
X107390476Y-96507200D02*
X107438095Y-96459580D01*
X107438095Y-96459580D02*
X107485714Y-96364342D01*
X107485714Y-96364342D02*
X107485714Y-96173866D01*
X107485714Y-96173866D02*
X107438095Y-96078628D01*
X107438095Y-96078628D02*
X107390476Y-96031009D01*
X107390476Y-96031009D02*
X107295238Y-95983390D01*
X108390476Y-95554819D02*
X107914286Y-95554819D01*
X107914286Y-95554819D02*
X107866667Y-96031009D01*
X107866667Y-96031009D02*
X107914286Y-95983390D01*
X107914286Y-95983390D02*
X108009524Y-95935771D01*
X108009524Y-95935771D02*
X108247619Y-95935771D01*
X108247619Y-95935771D02*
X108342857Y-95983390D01*
X108342857Y-95983390D02*
X108390476Y-96031009D01*
X108390476Y-96031009D02*
X108438095Y-96126247D01*
X108438095Y-96126247D02*
X108438095Y-96364342D01*
X108438095Y-96364342D02*
X108390476Y-96459580D01*
X108390476Y-96459580D02*
X108342857Y-96507200D01*
X108342857Y-96507200D02*
X108247619Y-96554819D01*
X108247619Y-96554819D02*
X108009524Y-96554819D01*
X108009524Y-96554819D02*
X107914286Y-96507200D01*
X107914286Y-96507200D02*
X107866667Y-96459580D01*
X109057143Y-95554819D02*
X109152381Y-95554819D01*
X109152381Y-95554819D02*
X109247619Y-95602438D01*
X109247619Y-95602438D02*
X109295238Y-95650057D01*
X109295238Y-95650057D02*
X109342857Y-95745295D01*
X109342857Y-95745295D02*
X109390476Y-95935771D01*
X109390476Y-95935771D02*
X109390476Y-96173866D01*
X109390476Y-96173866D02*
X109342857Y-96364342D01*
X109342857Y-96364342D02*
X109295238Y-96459580D01*
X109295238Y-96459580D02*
X109247619Y-96507200D01*
X109247619Y-96507200D02*
X109152381Y-96554819D01*
X109152381Y-96554819D02*
X109057143Y-96554819D01*
X109057143Y-96554819D02*
X108961905Y-96507200D01*
X108961905Y-96507200D02*
X108914286Y-96459580D01*
X108914286Y-96459580D02*
X108866667Y-96364342D01*
X108866667Y-96364342D02*
X108819048Y-96173866D01*
X108819048Y-96173866D02*
X108819048Y-95935771D01*
X108819048Y-95935771D02*
X108866667Y-95745295D01*
X108866667Y-95745295D02*
X108914286Y-95650057D01*
X108914286Y-95650057D02*
X108961905Y-95602438D01*
X108961905Y-95602438D02*
X109057143Y-95554819D01*
X110247619Y-95554819D02*
X110057143Y-95554819D01*
X110057143Y-95554819D02*
X109961905Y-95602438D01*
X109961905Y-95602438D02*
X109914286Y-95650057D01*
X109914286Y-95650057D02*
X109819048Y-95792914D01*
X109819048Y-95792914D02*
X109771429Y-95983390D01*
X109771429Y-95983390D02*
X109771429Y-96364342D01*
X109771429Y-96364342D02*
X109819048Y-96459580D01*
X109819048Y-96459580D02*
X109866667Y-96507200D01*
X109866667Y-96507200D02*
X109961905Y-96554819D01*
X109961905Y-96554819D02*
X110152381Y-96554819D01*
X110152381Y-96554819D02*
X110247619Y-96507200D01*
X110247619Y-96507200D02*
X110295238Y-96459580D01*
X110295238Y-96459580D02*
X110342857Y-96364342D01*
X110342857Y-96364342D02*
X110342857Y-96126247D01*
X110342857Y-96126247D02*
X110295238Y-96031009D01*
X110295238Y-96031009D02*
X110247619Y-95983390D01*
X110247619Y-95983390D02*
X110152381Y-95935771D01*
X110152381Y-95935771D02*
X109961905Y-95935771D01*
X109961905Y-95935771D02*
X109866667Y-95983390D01*
X109866667Y-95983390D02*
X109819048Y-96031009D01*
X109819048Y-96031009D02*
X109771429Y-96126247D01*
X110533334Y-96650057D02*
X111295238Y-96650057D01*
X111533334Y-96554819D02*
X111533334Y-95554819D01*
X111533334Y-95554819D02*
X111866667Y-96269104D01*
X111866667Y-96269104D02*
X112200000Y-95554819D01*
X112200000Y-95554819D02*
X112200000Y-96554819D01*
X112819048Y-96554819D02*
X112723810Y-96507200D01*
X112723810Y-96507200D02*
X112676191Y-96459580D01*
X112676191Y-96459580D02*
X112628572Y-96364342D01*
X112628572Y-96364342D02*
X112628572Y-96078628D01*
X112628572Y-96078628D02*
X112676191Y-95983390D01*
X112676191Y-95983390D02*
X112723810Y-95935771D01*
X112723810Y-95935771D02*
X112819048Y-95888152D01*
X112819048Y-95888152D02*
X112961905Y-95888152D01*
X112961905Y-95888152D02*
X113057143Y-95935771D01*
X113057143Y-95935771D02*
X113104762Y-95983390D01*
X113104762Y-95983390D02*
X113152381Y-96078628D01*
X113152381Y-96078628D02*
X113152381Y-96364342D01*
X113152381Y-96364342D02*
X113104762Y-96459580D01*
X113104762Y-96459580D02*
X113057143Y-96507200D01*
X113057143Y-96507200D02*
X112961905Y-96554819D01*
X112961905Y-96554819D02*
X112819048Y-96554819D01*
X114009524Y-95888152D02*
X114009524Y-96554819D01*
X113580953Y-95888152D02*
X113580953Y-96411961D01*
X113580953Y-96411961D02*
X113628572Y-96507200D01*
X113628572Y-96507200D02*
X113723810Y-96554819D01*
X113723810Y-96554819D02*
X113866667Y-96554819D01*
X113866667Y-96554819D02*
X113961905Y-96507200D01*
X113961905Y-96507200D02*
X114009524Y-96459580D01*
X114485715Y-95888152D02*
X114485715Y-96554819D01*
X114485715Y-95983390D02*
X114533334Y-95935771D01*
X114533334Y-95935771D02*
X114628572Y-95888152D01*
X114628572Y-95888152D02*
X114771429Y-95888152D01*
X114771429Y-95888152D02*
X114866667Y-95935771D01*
X114866667Y-95935771D02*
X114914286Y-96031009D01*
X114914286Y-96031009D02*
X114914286Y-96554819D01*
X115247620Y-95888152D02*
X115628572Y-95888152D01*
X115390477Y-95554819D02*
X115390477Y-96411961D01*
X115390477Y-96411961D02*
X115438096Y-96507200D01*
X115438096Y-96507200D02*
X115533334Y-96554819D01*
X115533334Y-96554819D02*
X115628572Y-96554819D01*
X115961906Y-96554819D02*
X115961906Y-95888152D01*
X115961906Y-95554819D02*
X115914287Y-95602438D01*
X115914287Y-95602438D02*
X115961906Y-95650057D01*
X115961906Y-95650057D02*
X116009525Y-95602438D01*
X116009525Y-95602438D02*
X115961906Y-95554819D01*
X115961906Y-95554819D02*
X115961906Y-95650057D01*
X116438096Y-95888152D02*
X116438096Y-96554819D01*
X116438096Y-95983390D02*
X116485715Y-95935771D01*
X116485715Y-95935771D02*
X116580953Y-95888152D01*
X116580953Y-95888152D02*
X116723810Y-95888152D01*
X116723810Y-95888152D02*
X116819048Y-95935771D01*
X116819048Y-95935771D02*
X116866667Y-96031009D01*
X116866667Y-96031009D02*
X116866667Y-96554819D01*
X117771429Y-95888152D02*
X117771429Y-96697676D01*
X117771429Y-96697676D02*
X117723810Y-96792914D01*
X117723810Y-96792914D02*
X117676191Y-96840533D01*
X117676191Y-96840533D02*
X117580953Y-96888152D01*
X117580953Y-96888152D02*
X117438096Y-96888152D01*
X117438096Y-96888152D02*
X117342858Y-96840533D01*
X117771429Y-96507200D02*
X117676191Y-96554819D01*
X117676191Y-96554819D02*
X117485715Y-96554819D01*
X117485715Y-96554819D02*
X117390477Y-96507200D01*
X117390477Y-96507200D02*
X117342858Y-96459580D01*
X117342858Y-96459580D02*
X117295239Y-96364342D01*
X117295239Y-96364342D02*
X117295239Y-96078628D01*
X117295239Y-96078628D02*
X117342858Y-95983390D01*
X117342858Y-95983390D02*
X117390477Y-95935771D01*
X117390477Y-95935771D02*
X117485715Y-95888152D01*
X117485715Y-95888152D02*
X117676191Y-95888152D01*
X117676191Y-95888152D02*
X117771429Y-95935771D01*
X118009525Y-96650057D02*
X118771429Y-96650057D01*
X119009525Y-96554819D02*
X119009525Y-95554819D01*
X119009525Y-96031009D02*
X119580953Y-96031009D01*
X119580953Y-96554819D02*
X119580953Y-95554819D01*
X120200001Y-96554819D02*
X120104763Y-96507200D01*
X120104763Y-96507200D02*
X120057144Y-96459580D01*
X120057144Y-96459580D02*
X120009525Y-96364342D01*
X120009525Y-96364342D02*
X120009525Y-96078628D01*
X120009525Y-96078628D02*
X120057144Y-95983390D01*
X120057144Y-95983390D02*
X120104763Y-95935771D01*
X120104763Y-95935771D02*
X120200001Y-95888152D01*
X120200001Y-95888152D02*
X120342858Y-95888152D01*
X120342858Y-95888152D02*
X120438096Y-95935771D01*
X120438096Y-95935771D02*
X120485715Y-95983390D01*
X120485715Y-95983390D02*
X120533334Y-96078628D01*
X120533334Y-96078628D02*
X120533334Y-96364342D01*
X120533334Y-96364342D02*
X120485715Y-96459580D01*
X120485715Y-96459580D02*
X120438096Y-96507200D01*
X120438096Y-96507200D02*
X120342858Y-96554819D01*
X120342858Y-96554819D02*
X120200001Y-96554819D01*
X121104763Y-96554819D02*
X121009525Y-96507200D01*
X121009525Y-96507200D02*
X120961906Y-96411961D01*
X120961906Y-96411961D02*
X120961906Y-95554819D01*
X121866668Y-96507200D02*
X121771430Y-96554819D01*
X121771430Y-96554819D02*
X121580954Y-96554819D01*
X121580954Y-96554819D02*
X121485716Y-96507200D01*
X121485716Y-96507200D02*
X121438097Y-96411961D01*
X121438097Y-96411961D02*
X121438097Y-96031009D01*
X121438097Y-96031009D02*
X121485716Y-95935771D01*
X121485716Y-95935771D02*
X121580954Y-95888152D01*
X121580954Y-95888152D02*
X121771430Y-95888152D01*
X121771430Y-95888152D02*
X121866668Y-95935771D01*
X121866668Y-95935771D02*
X121914287Y-96031009D01*
X121914287Y-96031009D02*
X121914287Y-96126247D01*
X121914287Y-96126247D02*
X121438097Y-96221485D01*
X124214285Y-58604819D02*
X124214285Y-57604819D01*
X124214285Y-57604819D02*
X124547618Y-58319104D01*
X124547618Y-58319104D02*
X124880951Y-57604819D01*
X124880951Y-57604819D02*
X124880951Y-58604819D01*
X125499999Y-58604819D02*
X125404761Y-58557200D01*
X125404761Y-58557200D02*
X125357142Y-58509580D01*
X125357142Y-58509580D02*
X125309523Y-58414342D01*
X125309523Y-58414342D02*
X125309523Y-58128628D01*
X125309523Y-58128628D02*
X125357142Y-58033390D01*
X125357142Y-58033390D02*
X125404761Y-57985771D01*
X125404761Y-57985771D02*
X125499999Y-57938152D01*
X125499999Y-57938152D02*
X125642856Y-57938152D01*
X125642856Y-57938152D02*
X125738094Y-57985771D01*
X125738094Y-57985771D02*
X125785713Y-58033390D01*
X125785713Y-58033390D02*
X125833332Y-58128628D01*
X125833332Y-58128628D02*
X125833332Y-58414342D01*
X125833332Y-58414342D02*
X125785713Y-58509580D01*
X125785713Y-58509580D02*
X125738094Y-58557200D01*
X125738094Y-58557200D02*
X125642856Y-58604819D01*
X125642856Y-58604819D02*
X125499999Y-58604819D01*
X126690475Y-57938152D02*
X126690475Y-58604819D01*
X126261904Y-57938152D02*
X126261904Y-58461961D01*
X126261904Y-58461961D02*
X126309523Y-58557200D01*
X126309523Y-58557200D02*
X126404761Y-58604819D01*
X126404761Y-58604819D02*
X126547618Y-58604819D01*
X126547618Y-58604819D02*
X126642856Y-58557200D01*
X126642856Y-58557200D02*
X126690475Y-58509580D01*
X127166666Y-57938152D02*
X127166666Y-58604819D01*
X127166666Y-58033390D02*
X127214285Y-57985771D01*
X127214285Y-57985771D02*
X127309523Y-57938152D01*
X127309523Y-57938152D02*
X127452380Y-57938152D01*
X127452380Y-57938152D02*
X127547618Y-57985771D01*
X127547618Y-57985771D02*
X127595237Y-58081009D01*
X127595237Y-58081009D02*
X127595237Y-58604819D01*
X127928571Y-57938152D02*
X128309523Y-57938152D01*
X128071428Y-57604819D02*
X128071428Y-58461961D01*
X128071428Y-58461961D02*
X128119047Y-58557200D01*
X128119047Y-58557200D02*
X128214285Y-58604819D01*
X128214285Y-58604819D02*
X128309523Y-58604819D01*
X128642857Y-58604819D02*
X128642857Y-57938152D01*
X128642857Y-57604819D02*
X128595238Y-57652438D01*
X128595238Y-57652438D02*
X128642857Y-57700057D01*
X128642857Y-57700057D02*
X128690476Y-57652438D01*
X128690476Y-57652438D02*
X128642857Y-57604819D01*
X128642857Y-57604819D02*
X128642857Y-57700057D01*
X129119047Y-57938152D02*
X129119047Y-58604819D01*
X129119047Y-58033390D02*
X129166666Y-57985771D01*
X129166666Y-57985771D02*
X129261904Y-57938152D01*
X129261904Y-57938152D02*
X129404761Y-57938152D01*
X129404761Y-57938152D02*
X129499999Y-57985771D01*
X129499999Y-57985771D02*
X129547618Y-58081009D01*
X129547618Y-58081009D02*
X129547618Y-58604819D01*
X130452380Y-57938152D02*
X130452380Y-58747676D01*
X130452380Y-58747676D02*
X130404761Y-58842914D01*
X130404761Y-58842914D02*
X130357142Y-58890533D01*
X130357142Y-58890533D02*
X130261904Y-58938152D01*
X130261904Y-58938152D02*
X130119047Y-58938152D01*
X130119047Y-58938152D02*
X130023809Y-58890533D01*
X130452380Y-58557200D02*
X130357142Y-58604819D01*
X130357142Y-58604819D02*
X130166666Y-58604819D01*
X130166666Y-58604819D02*
X130071428Y-58557200D01*
X130071428Y-58557200D02*
X130023809Y-58509580D01*
X130023809Y-58509580D02*
X129976190Y-58414342D01*
X129976190Y-58414342D02*
X129976190Y-58128628D01*
X129976190Y-58128628D02*
X130023809Y-58033390D01*
X130023809Y-58033390D02*
X130071428Y-57985771D01*
X130071428Y-57985771D02*
X130166666Y-57938152D01*
X130166666Y-57938152D02*
X130357142Y-57938152D01*
X130357142Y-57938152D02*
X130452380Y-57985771D01*
X130928571Y-58604819D02*
X130928571Y-57604819D01*
X130928571Y-58081009D02*
X131499999Y-58081009D01*
X131499999Y-58604819D02*
X131499999Y-57604819D01*
X132119047Y-58604819D02*
X132023809Y-58557200D01*
X132023809Y-58557200D02*
X131976190Y-58509580D01*
X131976190Y-58509580D02*
X131928571Y-58414342D01*
X131928571Y-58414342D02*
X131928571Y-58128628D01*
X131928571Y-58128628D02*
X131976190Y-58033390D01*
X131976190Y-58033390D02*
X132023809Y-57985771D01*
X132023809Y-57985771D02*
X132119047Y-57938152D01*
X132119047Y-57938152D02*
X132261904Y-57938152D01*
X132261904Y-57938152D02*
X132357142Y-57985771D01*
X132357142Y-57985771D02*
X132404761Y-58033390D01*
X132404761Y-58033390D02*
X132452380Y-58128628D01*
X132452380Y-58128628D02*
X132452380Y-58414342D01*
X132452380Y-58414342D02*
X132404761Y-58509580D01*
X132404761Y-58509580D02*
X132357142Y-58557200D01*
X132357142Y-58557200D02*
X132261904Y-58604819D01*
X132261904Y-58604819D02*
X132119047Y-58604819D01*
X133023809Y-58604819D02*
X132928571Y-58557200D01*
X132928571Y-58557200D02*
X132880952Y-58461961D01*
X132880952Y-58461961D02*
X132880952Y-57604819D01*
X133785714Y-58557200D02*
X133690476Y-58604819D01*
X133690476Y-58604819D02*
X133500000Y-58604819D01*
X133500000Y-58604819D02*
X133404762Y-58557200D01*
X133404762Y-58557200D02*
X133357143Y-58461961D01*
X133357143Y-58461961D02*
X133357143Y-58081009D01*
X133357143Y-58081009D02*
X133404762Y-57985771D01*
X133404762Y-57985771D02*
X133500000Y-57938152D01*
X133500000Y-57938152D02*
X133690476Y-57938152D01*
X133690476Y-57938152D02*
X133785714Y-57985771D01*
X133785714Y-57985771D02*
X133833333Y-58081009D01*
X133833333Y-58081009D02*
X133833333Y-58176247D01*
X133833333Y-58176247D02*
X133357143Y-58271485D01*
X128238095Y-54854819D02*
X128238095Y-53854819D01*
X128238095Y-54331009D02*
X128809523Y-54331009D01*
X128809523Y-54854819D02*
X128809523Y-53854819D01*
X129238095Y-53950057D02*
X129285714Y-53902438D01*
X129285714Y-53902438D02*
X129380952Y-53854819D01*
X129380952Y-53854819D02*
X129619047Y-53854819D01*
X129619047Y-53854819D02*
X129714285Y-53902438D01*
X129714285Y-53902438D02*
X129761904Y-53950057D01*
X129761904Y-53950057D02*
X129809523Y-54045295D01*
X129809523Y-54045295D02*
X129809523Y-54140533D01*
X129809523Y-54140533D02*
X129761904Y-54283390D01*
X129761904Y-54283390D02*
X129190476Y-54854819D01*
X129190476Y-54854819D02*
X129809523Y-54854819D01*
X98214285Y-58204819D02*
X98214285Y-57204819D01*
X98214285Y-57204819D02*
X98547618Y-57919104D01*
X98547618Y-57919104D02*
X98880951Y-57204819D01*
X98880951Y-57204819D02*
X98880951Y-58204819D01*
X99499999Y-58204819D02*
X99404761Y-58157200D01*
X99404761Y-58157200D02*
X99357142Y-58109580D01*
X99357142Y-58109580D02*
X99309523Y-58014342D01*
X99309523Y-58014342D02*
X99309523Y-57728628D01*
X99309523Y-57728628D02*
X99357142Y-57633390D01*
X99357142Y-57633390D02*
X99404761Y-57585771D01*
X99404761Y-57585771D02*
X99499999Y-57538152D01*
X99499999Y-57538152D02*
X99642856Y-57538152D01*
X99642856Y-57538152D02*
X99738094Y-57585771D01*
X99738094Y-57585771D02*
X99785713Y-57633390D01*
X99785713Y-57633390D02*
X99833332Y-57728628D01*
X99833332Y-57728628D02*
X99833332Y-58014342D01*
X99833332Y-58014342D02*
X99785713Y-58109580D01*
X99785713Y-58109580D02*
X99738094Y-58157200D01*
X99738094Y-58157200D02*
X99642856Y-58204819D01*
X99642856Y-58204819D02*
X99499999Y-58204819D01*
X100690475Y-57538152D02*
X100690475Y-58204819D01*
X100261904Y-57538152D02*
X100261904Y-58061961D01*
X100261904Y-58061961D02*
X100309523Y-58157200D01*
X100309523Y-58157200D02*
X100404761Y-58204819D01*
X100404761Y-58204819D02*
X100547618Y-58204819D01*
X100547618Y-58204819D02*
X100642856Y-58157200D01*
X100642856Y-58157200D02*
X100690475Y-58109580D01*
X101166666Y-57538152D02*
X101166666Y-58204819D01*
X101166666Y-57633390D02*
X101214285Y-57585771D01*
X101214285Y-57585771D02*
X101309523Y-57538152D01*
X101309523Y-57538152D02*
X101452380Y-57538152D01*
X101452380Y-57538152D02*
X101547618Y-57585771D01*
X101547618Y-57585771D02*
X101595237Y-57681009D01*
X101595237Y-57681009D02*
X101595237Y-58204819D01*
X101928571Y-57538152D02*
X102309523Y-57538152D01*
X102071428Y-57204819D02*
X102071428Y-58061961D01*
X102071428Y-58061961D02*
X102119047Y-58157200D01*
X102119047Y-58157200D02*
X102214285Y-58204819D01*
X102214285Y-58204819D02*
X102309523Y-58204819D01*
X102642857Y-58204819D02*
X102642857Y-57538152D01*
X102642857Y-57204819D02*
X102595238Y-57252438D01*
X102595238Y-57252438D02*
X102642857Y-57300057D01*
X102642857Y-57300057D02*
X102690476Y-57252438D01*
X102690476Y-57252438D02*
X102642857Y-57204819D01*
X102642857Y-57204819D02*
X102642857Y-57300057D01*
X103119047Y-57538152D02*
X103119047Y-58204819D01*
X103119047Y-57633390D02*
X103166666Y-57585771D01*
X103166666Y-57585771D02*
X103261904Y-57538152D01*
X103261904Y-57538152D02*
X103404761Y-57538152D01*
X103404761Y-57538152D02*
X103499999Y-57585771D01*
X103499999Y-57585771D02*
X103547618Y-57681009D01*
X103547618Y-57681009D02*
X103547618Y-58204819D01*
X104452380Y-57538152D02*
X104452380Y-58347676D01*
X104452380Y-58347676D02*
X104404761Y-58442914D01*
X104404761Y-58442914D02*
X104357142Y-58490533D01*
X104357142Y-58490533D02*
X104261904Y-58538152D01*
X104261904Y-58538152D02*
X104119047Y-58538152D01*
X104119047Y-58538152D02*
X104023809Y-58490533D01*
X104452380Y-58157200D02*
X104357142Y-58204819D01*
X104357142Y-58204819D02*
X104166666Y-58204819D01*
X104166666Y-58204819D02*
X104071428Y-58157200D01*
X104071428Y-58157200D02*
X104023809Y-58109580D01*
X104023809Y-58109580D02*
X103976190Y-58014342D01*
X103976190Y-58014342D02*
X103976190Y-57728628D01*
X103976190Y-57728628D02*
X104023809Y-57633390D01*
X104023809Y-57633390D02*
X104071428Y-57585771D01*
X104071428Y-57585771D02*
X104166666Y-57538152D01*
X104166666Y-57538152D02*
X104357142Y-57538152D01*
X104357142Y-57538152D02*
X104452380Y-57585771D01*
X104928571Y-58204819D02*
X104928571Y-57204819D01*
X104928571Y-57681009D02*
X105499999Y-57681009D01*
X105499999Y-58204819D02*
X105499999Y-57204819D01*
X106119047Y-58204819D02*
X106023809Y-58157200D01*
X106023809Y-58157200D02*
X105976190Y-58109580D01*
X105976190Y-58109580D02*
X105928571Y-58014342D01*
X105928571Y-58014342D02*
X105928571Y-57728628D01*
X105928571Y-57728628D02*
X105976190Y-57633390D01*
X105976190Y-57633390D02*
X106023809Y-57585771D01*
X106023809Y-57585771D02*
X106119047Y-57538152D01*
X106119047Y-57538152D02*
X106261904Y-57538152D01*
X106261904Y-57538152D02*
X106357142Y-57585771D01*
X106357142Y-57585771D02*
X106404761Y-57633390D01*
X106404761Y-57633390D02*
X106452380Y-57728628D01*
X106452380Y-57728628D02*
X106452380Y-58014342D01*
X106452380Y-58014342D02*
X106404761Y-58109580D01*
X106404761Y-58109580D02*
X106357142Y-58157200D01*
X106357142Y-58157200D02*
X106261904Y-58204819D01*
X106261904Y-58204819D02*
X106119047Y-58204819D01*
X107023809Y-58204819D02*
X106928571Y-58157200D01*
X106928571Y-58157200D02*
X106880952Y-58061961D01*
X106880952Y-58061961D02*
X106880952Y-57204819D01*
X107785714Y-58157200D02*
X107690476Y-58204819D01*
X107690476Y-58204819D02*
X107500000Y-58204819D01*
X107500000Y-58204819D02*
X107404762Y-58157200D01*
X107404762Y-58157200D02*
X107357143Y-58061961D01*
X107357143Y-58061961D02*
X107357143Y-57681009D01*
X107357143Y-57681009D02*
X107404762Y-57585771D01*
X107404762Y-57585771D02*
X107500000Y-57538152D01*
X107500000Y-57538152D02*
X107690476Y-57538152D01*
X107690476Y-57538152D02*
X107785714Y-57585771D01*
X107785714Y-57585771D02*
X107833333Y-57681009D01*
X107833333Y-57681009D02*
X107833333Y-57776247D01*
X107833333Y-57776247D02*
X107357143Y-57871485D01*
X102238095Y-54454819D02*
X102238095Y-53454819D01*
X102238095Y-53931009D02*
X102809523Y-53931009D01*
X102809523Y-54454819D02*
X102809523Y-53454819D01*
X103809523Y-54454819D02*
X103238095Y-54454819D01*
X103523809Y-54454819D02*
X103523809Y-53454819D01*
X103523809Y-53454819D02*
X103428571Y-53597676D01*
X103428571Y-53597676D02*
X103333333Y-53692914D01*
X103333333Y-53692914D02*
X103238095Y-53740533D01*
M02*
