%TF.GenerationSoftware,KiCad,Pcbnew,7.0.6-7.0.6~ubuntu22.04.1*%
%TF.CreationDate,2023-08-06T16:22:46+01:00*%
%TF.ProjectId,working,776f726b-696e-4672-9e6b-696361645f70,rev?*%
%TF.SameCoordinates,Original*%
%TF.FileFunction,Paste,Bot*%
%TF.FilePolarity,Positive*%
%FSLAX46Y46*%
G04 Gerber Fmt 4.6, Leading zero omitted, Abs format (unit mm)*
G04 Created by KiCad (PCBNEW 7.0.6-7.0.6~ubuntu22.04.1) date 2023-08-06 16:22:46*
%MOMM*%
%LPD*%
G01*
G04 APERTURE LIST*
G04 Aperture macros list*
%AMRoundRect*
0 Rectangle with rounded corners*
0 $1 Rounding radius*
0 $2 $3 $4 $5 $6 $7 $8 $9 X,Y pos of 4 corners*
0 Add a 4 corners polygon primitive as box body*
4,1,4,$2,$3,$4,$5,$6,$7,$8,$9,$2,$3,0*
0 Add four circle primitives for the rounded corners*
1,1,$1+$1,$2,$3*
1,1,$1+$1,$4,$5*
1,1,$1+$1,$6,$7*
1,1,$1+$1,$8,$9*
0 Add four rect primitives between the rounded corners*
20,1,$1+$1,$2,$3,$4,$5,0*
20,1,$1+$1,$4,$5,$6,$7,0*
20,1,$1+$1,$6,$7,$8,$9,0*
20,1,$1+$1,$8,$9,$2,$3,0*%
G04 Aperture macros list end*
%ADD10RoundRect,0.050800X0.149200X0.349200X-0.149200X0.349200X-0.149200X-0.349200X0.149200X-0.349200X0*%
G04 APERTURE END LIST*
%TO.C,IN9*%
G36*
X169140100Y-126902100D02*
G01*
X168890100Y-126902100D01*
X168890100Y-126252100D01*
X169140100Y-126252100D01*
X169140100Y-126902100D01*
G37*
G36*
X168640100Y-126902100D02*
G01*
X168390100Y-126902100D01*
X168390100Y-126252100D01*
X168640100Y-126252100D01*
X168640100Y-126902100D01*
G37*
G36*
X168140100Y-126902100D02*
G01*
X167890100Y-126902100D01*
X167890100Y-126252100D01*
X168140100Y-126252100D01*
X168140100Y-126902100D01*
G37*
G36*
X167640100Y-126902100D02*
G01*
X167390100Y-126902100D01*
X167390100Y-126252100D01*
X167640100Y-126252100D01*
X167640100Y-126902100D01*
G37*
G36*
X167140100Y-126902100D02*
G01*
X166890100Y-126902100D01*
X166890100Y-126252100D01*
X167140100Y-126252100D01*
X167140100Y-126902100D01*
G37*
G36*
X166640100Y-126902100D02*
G01*
X166390100Y-126902100D01*
X166390100Y-126252100D01*
X166640100Y-126252100D01*
X166640100Y-126902100D01*
G37*
G36*
X166140100Y-126902100D02*
G01*
X165890100Y-126902100D01*
X165890100Y-126252100D01*
X166140100Y-126252100D01*
X166140100Y-126902100D01*
G37*
G36*
X165640100Y-126902100D02*
G01*
X165390100Y-126902100D01*
X165390100Y-126252100D01*
X165640100Y-126252100D01*
X165640100Y-126902100D01*
G37*
G36*
X165140100Y-126902100D02*
G01*
X164890100Y-126902100D01*
X164890100Y-126252100D01*
X165140100Y-126252100D01*
X165140100Y-126902100D01*
G37*
G36*
X164640100Y-126902100D02*
G01*
X164390100Y-126902100D01*
X164390100Y-126252100D01*
X164640100Y-126252100D01*
X164640100Y-126902100D01*
G37*
G36*
X164140100Y-126902100D02*
G01*
X163890100Y-126902100D01*
X163890100Y-126252100D01*
X164140100Y-126252100D01*
X164140100Y-126902100D01*
G37*
G36*
X163640100Y-126902100D02*
G01*
X163390100Y-126902100D01*
X163390100Y-126252100D01*
X163640100Y-126252100D01*
X163640100Y-126902100D01*
G37*
G36*
X163140100Y-126902100D02*
G01*
X162890100Y-126902100D01*
X162890100Y-126252100D01*
X163140100Y-126252100D01*
X163140100Y-126902100D01*
G37*
G36*
X162640100Y-126902100D02*
G01*
X162390100Y-126902100D01*
X162390100Y-126252100D01*
X162640100Y-126252100D01*
X162640100Y-126902100D01*
G37*
G36*
X162140100Y-126902100D02*
G01*
X161890100Y-126902100D01*
X161890100Y-126252100D01*
X162140100Y-126252100D01*
X162140100Y-126902100D01*
G37*
G36*
X161640100Y-126902100D02*
G01*
X161390100Y-126902100D01*
X161390100Y-126252100D01*
X161640100Y-126252100D01*
X161640100Y-126902100D01*
G37*
%TO.C,IN14*%
G36*
X225020100Y-126902100D02*
G01*
X224770100Y-126902100D01*
X224770100Y-126252100D01*
X225020100Y-126252100D01*
X225020100Y-126902100D01*
G37*
G36*
X224520100Y-126902100D02*
G01*
X224270100Y-126902100D01*
X224270100Y-126252100D01*
X224520100Y-126252100D01*
X224520100Y-126902100D01*
G37*
G36*
X224020100Y-126902100D02*
G01*
X223770100Y-126902100D01*
X223770100Y-126252100D01*
X224020100Y-126252100D01*
X224020100Y-126902100D01*
G37*
G36*
X223520100Y-126902100D02*
G01*
X223270100Y-126902100D01*
X223270100Y-126252100D01*
X223520100Y-126252100D01*
X223520100Y-126902100D01*
G37*
G36*
X223020100Y-126902100D02*
G01*
X222770100Y-126902100D01*
X222770100Y-126252100D01*
X223020100Y-126252100D01*
X223020100Y-126902100D01*
G37*
G36*
X222520100Y-126902100D02*
G01*
X222270100Y-126902100D01*
X222270100Y-126252100D01*
X222520100Y-126252100D01*
X222520100Y-126902100D01*
G37*
G36*
X222020100Y-126902100D02*
G01*
X221770100Y-126902100D01*
X221770100Y-126252100D01*
X222020100Y-126252100D01*
X222020100Y-126902100D01*
G37*
G36*
X221520100Y-126902100D02*
G01*
X221270100Y-126902100D01*
X221270100Y-126252100D01*
X221520100Y-126252100D01*
X221520100Y-126902100D01*
G37*
G36*
X221020100Y-126902100D02*
G01*
X220770100Y-126902100D01*
X220770100Y-126252100D01*
X221020100Y-126252100D01*
X221020100Y-126902100D01*
G37*
G36*
X220520100Y-126902100D02*
G01*
X220270100Y-126902100D01*
X220270100Y-126252100D01*
X220520100Y-126252100D01*
X220520100Y-126902100D01*
G37*
G36*
X220020100Y-126902100D02*
G01*
X219770100Y-126902100D01*
X219770100Y-126252100D01*
X220020100Y-126252100D01*
X220020100Y-126902100D01*
G37*
G36*
X219520100Y-126902100D02*
G01*
X219270100Y-126902100D01*
X219270100Y-126252100D01*
X219520100Y-126252100D01*
X219520100Y-126902100D01*
G37*
G36*
X219020100Y-126902100D02*
G01*
X218770100Y-126902100D01*
X218770100Y-126252100D01*
X219020100Y-126252100D01*
X219020100Y-126902100D01*
G37*
G36*
X218520100Y-126902100D02*
G01*
X218270100Y-126902100D01*
X218270100Y-126252100D01*
X218520100Y-126252100D01*
X218520100Y-126902100D01*
G37*
G36*
X218020100Y-126902100D02*
G01*
X217770100Y-126902100D01*
X217770100Y-126252100D01*
X218020100Y-126252100D01*
X218020100Y-126902100D01*
G37*
G36*
X217520100Y-126902100D02*
G01*
X217270100Y-126902100D01*
X217270100Y-126252100D01*
X217520100Y-126252100D01*
X217520100Y-126902100D01*
G37*
%TO.C,IN30*%
G36*
X225020100Y-85754100D02*
G01*
X224770100Y-85754100D01*
X224770100Y-85104100D01*
X225020100Y-85104100D01*
X225020100Y-85754100D01*
G37*
G36*
X224520100Y-85754100D02*
G01*
X224270100Y-85754100D01*
X224270100Y-85104100D01*
X224520100Y-85104100D01*
X224520100Y-85754100D01*
G37*
G36*
X224020100Y-85754100D02*
G01*
X223770100Y-85754100D01*
X223770100Y-85104100D01*
X224020100Y-85104100D01*
X224020100Y-85754100D01*
G37*
G36*
X223520100Y-85754100D02*
G01*
X223270100Y-85754100D01*
X223270100Y-85104100D01*
X223520100Y-85104100D01*
X223520100Y-85754100D01*
G37*
G36*
X223020100Y-85754100D02*
G01*
X222770100Y-85754100D01*
X222770100Y-85104100D01*
X223020100Y-85104100D01*
X223020100Y-85754100D01*
G37*
G36*
X222520100Y-85754100D02*
G01*
X222270100Y-85754100D01*
X222270100Y-85104100D01*
X222520100Y-85104100D01*
X222520100Y-85754100D01*
G37*
G36*
X222020100Y-85754100D02*
G01*
X221770100Y-85754100D01*
X221770100Y-85104100D01*
X222020100Y-85104100D01*
X222020100Y-85754100D01*
G37*
G36*
X221520100Y-85754100D02*
G01*
X221270100Y-85754100D01*
X221270100Y-85104100D01*
X221520100Y-85104100D01*
X221520100Y-85754100D01*
G37*
G36*
X221020100Y-85754100D02*
G01*
X220770100Y-85754100D01*
X220770100Y-85104100D01*
X221020100Y-85104100D01*
X221020100Y-85754100D01*
G37*
G36*
X220520100Y-85754100D02*
G01*
X220270100Y-85754100D01*
X220270100Y-85104100D01*
X220520100Y-85104100D01*
X220520100Y-85754100D01*
G37*
G36*
X220020100Y-85754100D02*
G01*
X219770100Y-85754100D01*
X219770100Y-85104100D01*
X220020100Y-85104100D01*
X220020100Y-85754100D01*
G37*
G36*
X219520100Y-85754100D02*
G01*
X219270100Y-85754100D01*
X219270100Y-85104100D01*
X219520100Y-85104100D01*
X219520100Y-85754100D01*
G37*
G36*
X219020100Y-85754100D02*
G01*
X218770100Y-85754100D01*
X218770100Y-85104100D01*
X219020100Y-85104100D01*
X219020100Y-85754100D01*
G37*
G36*
X218520100Y-85754100D02*
G01*
X218270100Y-85754100D01*
X218270100Y-85104100D01*
X218520100Y-85104100D01*
X218520100Y-85754100D01*
G37*
G36*
X218020100Y-85754100D02*
G01*
X217770100Y-85754100D01*
X217770100Y-85104100D01*
X218020100Y-85104100D01*
X218020100Y-85754100D01*
G37*
G36*
X217520100Y-85754100D02*
G01*
X217270100Y-85754100D01*
X217270100Y-85104100D01*
X217520100Y-85104100D01*
X217520100Y-85754100D01*
G37*
%TO.C,IN13*%
G36*
X213844100Y-126902100D02*
G01*
X213594100Y-126902100D01*
X213594100Y-126252100D01*
X213844100Y-126252100D01*
X213844100Y-126902100D01*
G37*
G36*
X213344100Y-126902100D02*
G01*
X213094100Y-126902100D01*
X213094100Y-126252100D01*
X213344100Y-126252100D01*
X213344100Y-126902100D01*
G37*
G36*
X212844100Y-126902100D02*
G01*
X212594100Y-126902100D01*
X212594100Y-126252100D01*
X212844100Y-126252100D01*
X212844100Y-126902100D01*
G37*
G36*
X212344100Y-126902100D02*
G01*
X212094100Y-126902100D01*
X212094100Y-126252100D01*
X212344100Y-126252100D01*
X212344100Y-126902100D01*
G37*
G36*
X211844100Y-126902100D02*
G01*
X211594100Y-126902100D01*
X211594100Y-126252100D01*
X211844100Y-126252100D01*
X211844100Y-126902100D01*
G37*
G36*
X211344100Y-126902100D02*
G01*
X211094100Y-126902100D01*
X211094100Y-126252100D01*
X211344100Y-126252100D01*
X211344100Y-126902100D01*
G37*
G36*
X210844100Y-126902100D02*
G01*
X210594100Y-126902100D01*
X210594100Y-126252100D01*
X210844100Y-126252100D01*
X210844100Y-126902100D01*
G37*
G36*
X210344100Y-126902100D02*
G01*
X210094100Y-126902100D01*
X210094100Y-126252100D01*
X210344100Y-126252100D01*
X210344100Y-126902100D01*
G37*
G36*
X209844100Y-126902100D02*
G01*
X209594100Y-126902100D01*
X209594100Y-126252100D01*
X209844100Y-126252100D01*
X209844100Y-126902100D01*
G37*
G36*
X209344100Y-126902100D02*
G01*
X209094100Y-126902100D01*
X209094100Y-126252100D01*
X209344100Y-126252100D01*
X209344100Y-126902100D01*
G37*
G36*
X208844100Y-126902100D02*
G01*
X208594100Y-126902100D01*
X208594100Y-126252100D01*
X208844100Y-126252100D01*
X208844100Y-126902100D01*
G37*
G36*
X208344100Y-126902100D02*
G01*
X208094100Y-126902100D01*
X208094100Y-126252100D01*
X208344100Y-126252100D01*
X208344100Y-126902100D01*
G37*
G36*
X207844100Y-126902100D02*
G01*
X207594100Y-126902100D01*
X207594100Y-126252100D01*
X207844100Y-126252100D01*
X207844100Y-126902100D01*
G37*
G36*
X207344100Y-126902100D02*
G01*
X207094100Y-126902100D01*
X207094100Y-126252100D01*
X207344100Y-126252100D01*
X207344100Y-126902100D01*
G37*
G36*
X206844100Y-126902100D02*
G01*
X206594100Y-126902100D01*
X206594100Y-126252100D01*
X206844100Y-126252100D01*
X206844100Y-126902100D01*
G37*
G36*
X206344100Y-126902100D02*
G01*
X206094100Y-126902100D01*
X206094100Y-126252100D01*
X206344100Y-126252100D01*
X206344100Y-126902100D01*
G37*
%TO.C,IN19*%
G36*
X102084100Y-85754100D02*
G01*
X101834100Y-85754100D01*
X101834100Y-85104100D01*
X102084100Y-85104100D01*
X102084100Y-85754100D01*
G37*
G36*
X101584100Y-85754100D02*
G01*
X101334100Y-85754100D01*
X101334100Y-85104100D01*
X101584100Y-85104100D01*
X101584100Y-85754100D01*
G37*
G36*
X101084100Y-85754100D02*
G01*
X100834100Y-85754100D01*
X100834100Y-85104100D01*
X101084100Y-85104100D01*
X101084100Y-85754100D01*
G37*
G36*
X100584100Y-85754100D02*
G01*
X100334100Y-85754100D01*
X100334100Y-85104100D01*
X100584100Y-85104100D01*
X100584100Y-85754100D01*
G37*
G36*
X100084100Y-85754100D02*
G01*
X99834100Y-85754100D01*
X99834100Y-85104100D01*
X100084100Y-85104100D01*
X100084100Y-85754100D01*
G37*
G36*
X99584100Y-85754100D02*
G01*
X99334100Y-85754100D01*
X99334100Y-85104100D01*
X99584100Y-85104100D01*
X99584100Y-85754100D01*
G37*
G36*
X99084100Y-85754100D02*
G01*
X98834100Y-85754100D01*
X98834100Y-85104100D01*
X99084100Y-85104100D01*
X99084100Y-85754100D01*
G37*
G36*
X98584100Y-85754100D02*
G01*
X98334100Y-85754100D01*
X98334100Y-85104100D01*
X98584100Y-85104100D01*
X98584100Y-85754100D01*
G37*
G36*
X98084100Y-85754100D02*
G01*
X97834100Y-85754100D01*
X97834100Y-85104100D01*
X98084100Y-85104100D01*
X98084100Y-85754100D01*
G37*
G36*
X97584100Y-85754100D02*
G01*
X97334100Y-85754100D01*
X97334100Y-85104100D01*
X97584100Y-85104100D01*
X97584100Y-85754100D01*
G37*
G36*
X97084100Y-85754100D02*
G01*
X96834100Y-85754100D01*
X96834100Y-85104100D01*
X97084100Y-85104100D01*
X97084100Y-85754100D01*
G37*
G36*
X96584100Y-85754100D02*
G01*
X96334100Y-85754100D01*
X96334100Y-85104100D01*
X96584100Y-85104100D01*
X96584100Y-85754100D01*
G37*
G36*
X96084100Y-85754100D02*
G01*
X95834100Y-85754100D01*
X95834100Y-85104100D01*
X96084100Y-85104100D01*
X96084100Y-85754100D01*
G37*
G36*
X95584100Y-85754100D02*
G01*
X95334100Y-85754100D01*
X95334100Y-85104100D01*
X95584100Y-85104100D01*
X95584100Y-85754100D01*
G37*
G36*
X95084100Y-85754100D02*
G01*
X94834100Y-85754100D01*
X94834100Y-85104100D01*
X95084100Y-85104100D01*
X95084100Y-85754100D01*
G37*
G36*
X94584100Y-85754100D02*
G01*
X94334100Y-85754100D01*
X94334100Y-85104100D01*
X94584100Y-85104100D01*
X94584100Y-85754100D01*
G37*
%TO.C,IN8*%
G36*
X157964100Y-126902100D02*
G01*
X157714100Y-126902100D01*
X157714100Y-126252100D01*
X157964100Y-126252100D01*
X157964100Y-126902100D01*
G37*
G36*
X157464100Y-126902100D02*
G01*
X157214100Y-126902100D01*
X157214100Y-126252100D01*
X157464100Y-126252100D01*
X157464100Y-126902100D01*
G37*
G36*
X156964100Y-126902100D02*
G01*
X156714100Y-126902100D01*
X156714100Y-126252100D01*
X156964100Y-126252100D01*
X156964100Y-126902100D01*
G37*
G36*
X156464100Y-126902100D02*
G01*
X156214100Y-126902100D01*
X156214100Y-126252100D01*
X156464100Y-126252100D01*
X156464100Y-126902100D01*
G37*
G36*
X155964100Y-126902100D02*
G01*
X155714100Y-126902100D01*
X155714100Y-126252100D01*
X155964100Y-126252100D01*
X155964100Y-126902100D01*
G37*
G36*
X155464100Y-126902100D02*
G01*
X155214100Y-126902100D01*
X155214100Y-126252100D01*
X155464100Y-126252100D01*
X155464100Y-126902100D01*
G37*
G36*
X154964100Y-126902100D02*
G01*
X154714100Y-126902100D01*
X154714100Y-126252100D01*
X154964100Y-126252100D01*
X154964100Y-126902100D01*
G37*
G36*
X154464100Y-126902100D02*
G01*
X154214100Y-126902100D01*
X154214100Y-126252100D01*
X154464100Y-126252100D01*
X154464100Y-126902100D01*
G37*
G36*
X153964100Y-126902100D02*
G01*
X153714100Y-126902100D01*
X153714100Y-126252100D01*
X153964100Y-126252100D01*
X153964100Y-126902100D01*
G37*
G36*
X153464100Y-126902100D02*
G01*
X153214100Y-126902100D01*
X153214100Y-126252100D01*
X153464100Y-126252100D01*
X153464100Y-126902100D01*
G37*
G36*
X152964100Y-126902100D02*
G01*
X152714100Y-126902100D01*
X152714100Y-126252100D01*
X152964100Y-126252100D01*
X152964100Y-126902100D01*
G37*
G36*
X152464100Y-126902100D02*
G01*
X152214100Y-126902100D01*
X152214100Y-126252100D01*
X152464100Y-126252100D01*
X152464100Y-126902100D01*
G37*
G36*
X151964100Y-126902100D02*
G01*
X151714100Y-126902100D01*
X151714100Y-126252100D01*
X151964100Y-126252100D01*
X151964100Y-126902100D01*
G37*
G36*
X151464100Y-126902100D02*
G01*
X151214100Y-126902100D01*
X151214100Y-126252100D01*
X151464100Y-126252100D01*
X151464100Y-126902100D01*
G37*
G36*
X150964100Y-126902100D02*
G01*
X150714100Y-126902100D01*
X150714100Y-126252100D01*
X150964100Y-126252100D01*
X150964100Y-126902100D01*
G37*
G36*
X150464100Y-126902100D02*
G01*
X150214100Y-126902100D01*
X150214100Y-126252100D01*
X150464100Y-126252100D01*
X150464100Y-126902100D01*
G37*
%TO.C,IN39*%
G36*
X146788100Y-44606100D02*
G01*
X146538100Y-44606100D01*
X146538100Y-43956100D01*
X146788100Y-43956100D01*
X146788100Y-44606100D01*
G37*
G36*
X146288100Y-44606100D02*
G01*
X146038100Y-44606100D01*
X146038100Y-43956100D01*
X146288100Y-43956100D01*
X146288100Y-44606100D01*
G37*
G36*
X145788100Y-44606100D02*
G01*
X145538100Y-44606100D01*
X145538100Y-43956100D01*
X145788100Y-43956100D01*
X145788100Y-44606100D01*
G37*
G36*
X145288100Y-44606100D02*
G01*
X145038100Y-44606100D01*
X145038100Y-43956100D01*
X145288100Y-43956100D01*
X145288100Y-44606100D01*
G37*
G36*
X144788100Y-44606100D02*
G01*
X144538100Y-44606100D01*
X144538100Y-43956100D01*
X144788100Y-43956100D01*
X144788100Y-44606100D01*
G37*
G36*
X144288100Y-44606100D02*
G01*
X144038100Y-44606100D01*
X144038100Y-43956100D01*
X144288100Y-43956100D01*
X144288100Y-44606100D01*
G37*
G36*
X143788100Y-44606100D02*
G01*
X143538100Y-44606100D01*
X143538100Y-43956100D01*
X143788100Y-43956100D01*
X143788100Y-44606100D01*
G37*
G36*
X143288100Y-44606100D02*
G01*
X143038100Y-44606100D01*
X143038100Y-43956100D01*
X143288100Y-43956100D01*
X143288100Y-44606100D01*
G37*
G36*
X142788100Y-44606100D02*
G01*
X142538100Y-44606100D01*
X142538100Y-43956100D01*
X142788100Y-43956100D01*
X142788100Y-44606100D01*
G37*
G36*
X142288100Y-44606100D02*
G01*
X142038100Y-44606100D01*
X142038100Y-43956100D01*
X142288100Y-43956100D01*
X142288100Y-44606100D01*
G37*
G36*
X141788100Y-44606100D02*
G01*
X141538100Y-44606100D01*
X141538100Y-43956100D01*
X141788100Y-43956100D01*
X141788100Y-44606100D01*
G37*
G36*
X141288100Y-44606100D02*
G01*
X141038100Y-44606100D01*
X141038100Y-43956100D01*
X141288100Y-43956100D01*
X141288100Y-44606100D01*
G37*
G36*
X140788100Y-44606100D02*
G01*
X140538100Y-44606100D01*
X140538100Y-43956100D01*
X140788100Y-43956100D01*
X140788100Y-44606100D01*
G37*
G36*
X140288100Y-44606100D02*
G01*
X140038100Y-44606100D01*
X140038100Y-43956100D01*
X140288100Y-43956100D01*
X140288100Y-44606100D01*
G37*
G36*
X139788100Y-44606100D02*
G01*
X139538100Y-44606100D01*
X139538100Y-43956100D01*
X139788100Y-43956100D01*
X139788100Y-44606100D01*
G37*
G36*
X139288100Y-44606100D02*
G01*
X139038100Y-44606100D01*
X139038100Y-43956100D01*
X139288100Y-43956100D01*
X139288100Y-44606100D01*
G37*
%TO.C,IN28*%
G36*
X202668100Y-85754100D02*
G01*
X202418100Y-85754100D01*
X202418100Y-85104100D01*
X202668100Y-85104100D01*
X202668100Y-85754100D01*
G37*
G36*
X202168100Y-85754100D02*
G01*
X201918100Y-85754100D01*
X201918100Y-85104100D01*
X202168100Y-85104100D01*
X202168100Y-85754100D01*
G37*
G36*
X201668100Y-85754100D02*
G01*
X201418100Y-85754100D01*
X201418100Y-85104100D01*
X201668100Y-85104100D01*
X201668100Y-85754100D01*
G37*
G36*
X201168100Y-85754100D02*
G01*
X200918100Y-85754100D01*
X200918100Y-85104100D01*
X201168100Y-85104100D01*
X201168100Y-85754100D01*
G37*
G36*
X200668100Y-85754100D02*
G01*
X200418100Y-85754100D01*
X200418100Y-85104100D01*
X200668100Y-85104100D01*
X200668100Y-85754100D01*
G37*
G36*
X200168100Y-85754100D02*
G01*
X199918100Y-85754100D01*
X199918100Y-85104100D01*
X200168100Y-85104100D01*
X200168100Y-85754100D01*
G37*
G36*
X199668100Y-85754100D02*
G01*
X199418100Y-85754100D01*
X199418100Y-85104100D01*
X199668100Y-85104100D01*
X199668100Y-85754100D01*
G37*
G36*
X199168100Y-85754100D02*
G01*
X198918100Y-85754100D01*
X198918100Y-85104100D01*
X199168100Y-85104100D01*
X199168100Y-85754100D01*
G37*
G36*
X198668100Y-85754100D02*
G01*
X198418100Y-85754100D01*
X198418100Y-85104100D01*
X198668100Y-85104100D01*
X198668100Y-85754100D01*
G37*
G36*
X198168100Y-85754100D02*
G01*
X197918100Y-85754100D01*
X197918100Y-85104100D01*
X198168100Y-85104100D01*
X198168100Y-85754100D01*
G37*
G36*
X197668100Y-85754100D02*
G01*
X197418100Y-85754100D01*
X197418100Y-85104100D01*
X197668100Y-85104100D01*
X197668100Y-85754100D01*
G37*
G36*
X197168100Y-85754100D02*
G01*
X196918100Y-85754100D01*
X196918100Y-85104100D01*
X197168100Y-85104100D01*
X197168100Y-85754100D01*
G37*
G36*
X196668100Y-85754100D02*
G01*
X196418100Y-85754100D01*
X196418100Y-85104100D01*
X196668100Y-85104100D01*
X196668100Y-85754100D01*
G37*
G36*
X196168100Y-85754100D02*
G01*
X195918100Y-85754100D01*
X195918100Y-85104100D01*
X196168100Y-85104100D01*
X196168100Y-85754100D01*
G37*
G36*
X195668100Y-85754100D02*
G01*
X195418100Y-85754100D01*
X195418100Y-85104100D01*
X195668100Y-85104100D01*
X195668100Y-85754100D01*
G37*
G36*
X195168100Y-85754100D02*
G01*
X194918100Y-85754100D01*
X194918100Y-85104100D01*
X195168100Y-85104100D01*
X195168100Y-85754100D01*
G37*
%TO.C,IN22*%
G36*
X135612100Y-85754100D02*
G01*
X135362100Y-85754100D01*
X135362100Y-85104100D01*
X135612100Y-85104100D01*
X135612100Y-85754100D01*
G37*
G36*
X135112100Y-85754100D02*
G01*
X134862100Y-85754100D01*
X134862100Y-85104100D01*
X135112100Y-85104100D01*
X135112100Y-85754100D01*
G37*
G36*
X134612100Y-85754100D02*
G01*
X134362100Y-85754100D01*
X134362100Y-85104100D01*
X134612100Y-85104100D01*
X134612100Y-85754100D01*
G37*
G36*
X134112100Y-85754100D02*
G01*
X133862100Y-85754100D01*
X133862100Y-85104100D01*
X134112100Y-85104100D01*
X134112100Y-85754100D01*
G37*
G36*
X133612100Y-85754100D02*
G01*
X133362100Y-85754100D01*
X133362100Y-85104100D01*
X133612100Y-85104100D01*
X133612100Y-85754100D01*
G37*
G36*
X133112100Y-85754100D02*
G01*
X132862100Y-85754100D01*
X132862100Y-85104100D01*
X133112100Y-85104100D01*
X133112100Y-85754100D01*
G37*
G36*
X132612100Y-85754100D02*
G01*
X132362100Y-85754100D01*
X132362100Y-85104100D01*
X132612100Y-85104100D01*
X132612100Y-85754100D01*
G37*
G36*
X132112100Y-85754100D02*
G01*
X131862100Y-85754100D01*
X131862100Y-85104100D01*
X132112100Y-85104100D01*
X132112100Y-85754100D01*
G37*
G36*
X131612100Y-85754100D02*
G01*
X131362100Y-85754100D01*
X131362100Y-85104100D01*
X131612100Y-85104100D01*
X131612100Y-85754100D01*
G37*
G36*
X131112100Y-85754100D02*
G01*
X130862100Y-85754100D01*
X130862100Y-85104100D01*
X131112100Y-85104100D01*
X131112100Y-85754100D01*
G37*
G36*
X130612100Y-85754100D02*
G01*
X130362100Y-85754100D01*
X130362100Y-85104100D01*
X130612100Y-85104100D01*
X130612100Y-85754100D01*
G37*
G36*
X130112100Y-85754100D02*
G01*
X129862100Y-85754100D01*
X129862100Y-85104100D01*
X130112100Y-85104100D01*
X130112100Y-85754100D01*
G37*
G36*
X129612100Y-85754100D02*
G01*
X129362100Y-85754100D01*
X129362100Y-85104100D01*
X129612100Y-85104100D01*
X129612100Y-85754100D01*
G37*
G36*
X129112100Y-85754100D02*
G01*
X128862100Y-85754100D01*
X128862100Y-85104100D01*
X129112100Y-85104100D01*
X129112100Y-85754100D01*
G37*
G36*
X128612100Y-85754100D02*
G01*
X128362100Y-85754100D01*
X128362100Y-85104100D01*
X128612100Y-85104100D01*
X128612100Y-85754100D01*
G37*
G36*
X128112100Y-85754100D02*
G01*
X127862100Y-85754100D01*
X127862100Y-85104100D01*
X128112100Y-85104100D01*
X128112100Y-85754100D01*
G37*
%TO.C,IN43*%
G36*
X191492100Y-44606100D02*
G01*
X191242100Y-44606100D01*
X191242100Y-43956100D01*
X191492100Y-43956100D01*
X191492100Y-44606100D01*
G37*
G36*
X190992100Y-44606100D02*
G01*
X190742100Y-44606100D01*
X190742100Y-43956100D01*
X190992100Y-43956100D01*
X190992100Y-44606100D01*
G37*
G36*
X190492100Y-44606100D02*
G01*
X190242100Y-44606100D01*
X190242100Y-43956100D01*
X190492100Y-43956100D01*
X190492100Y-44606100D01*
G37*
G36*
X189992100Y-44606100D02*
G01*
X189742100Y-44606100D01*
X189742100Y-43956100D01*
X189992100Y-43956100D01*
X189992100Y-44606100D01*
G37*
G36*
X189492100Y-44606100D02*
G01*
X189242100Y-44606100D01*
X189242100Y-43956100D01*
X189492100Y-43956100D01*
X189492100Y-44606100D01*
G37*
G36*
X188992100Y-44606100D02*
G01*
X188742100Y-44606100D01*
X188742100Y-43956100D01*
X188992100Y-43956100D01*
X188992100Y-44606100D01*
G37*
G36*
X188492100Y-44606100D02*
G01*
X188242100Y-44606100D01*
X188242100Y-43956100D01*
X188492100Y-43956100D01*
X188492100Y-44606100D01*
G37*
G36*
X187992100Y-44606100D02*
G01*
X187742100Y-44606100D01*
X187742100Y-43956100D01*
X187992100Y-43956100D01*
X187992100Y-44606100D01*
G37*
G36*
X187492100Y-44606100D02*
G01*
X187242100Y-44606100D01*
X187242100Y-43956100D01*
X187492100Y-43956100D01*
X187492100Y-44606100D01*
G37*
G36*
X186992100Y-44606100D02*
G01*
X186742100Y-44606100D01*
X186742100Y-43956100D01*
X186992100Y-43956100D01*
X186992100Y-44606100D01*
G37*
G36*
X186492100Y-44606100D02*
G01*
X186242100Y-44606100D01*
X186242100Y-43956100D01*
X186492100Y-43956100D01*
X186492100Y-44606100D01*
G37*
G36*
X185992100Y-44606100D02*
G01*
X185742100Y-44606100D01*
X185742100Y-43956100D01*
X185992100Y-43956100D01*
X185992100Y-44606100D01*
G37*
G36*
X185492100Y-44606100D02*
G01*
X185242100Y-44606100D01*
X185242100Y-43956100D01*
X185492100Y-43956100D01*
X185492100Y-44606100D01*
G37*
G36*
X184992100Y-44606100D02*
G01*
X184742100Y-44606100D01*
X184742100Y-43956100D01*
X184992100Y-43956100D01*
X184992100Y-44606100D01*
G37*
G36*
X184492100Y-44606100D02*
G01*
X184242100Y-44606100D01*
X184242100Y-43956100D01*
X184492100Y-43956100D01*
X184492100Y-44606100D01*
G37*
G36*
X183992100Y-44606100D02*
G01*
X183742100Y-44606100D01*
X183742100Y-43956100D01*
X183992100Y-43956100D01*
X183992100Y-44606100D01*
G37*
%TO.C,IN37*%
G36*
X124436100Y-44606100D02*
G01*
X124186100Y-44606100D01*
X124186100Y-43956100D01*
X124436100Y-43956100D01*
X124436100Y-44606100D01*
G37*
G36*
X123936100Y-44606100D02*
G01*
X123686100Y-44606100D01*
X123686100Y-43956100D01*
X123936100Y-43956100D01*
X123936100Y-44606100D01*
G37*
G36*
X123436100Y-44606100D02*
G01*
X123186100Y-44606100D01*
X123186100Y-43956100D01*
X123436100Y-43956100D01*
X123436100Y-44606100D01*
G37*
G36*
X122936100Y-44606100D02*
G01*
X122686100Y-44606100D01*
X122686100Y-43956100D01*
X122936100Y-43956100D01*
X122936100Y-44606100D01*
G37*
G36*
X122436100Y-44606100D02*
G01*
X122186100Y-44606100D01*
X122186100Y-43956100D01*
X122436100Y-43956100D01*
X122436100Y-44606100D01*
G37*
G36*
X121936100Y-44606100D02*
G01*
X121686100Y-44606100D01*
X121686100Y-43956100D01*
X121936100Y-43956100D01*
X121936100Y-44606100D01*
G37*
G36*
X121436100Y-44606100D02*
G01*
X121186100Y-44606100D01*
X121186100Y-43956100D01*
X121436100Y-43956100D01*
X121436100Y-44606100D01*
G37*
G36*
X120936100Y-44606100D02*
G01*
X120686100Y-44606100D01*
X120686100Y-43956100D01*
X120936100Y-43956100D01*
X120936100Y-44606100D01*
G37*
G36*
X120436100Y-44606100D02*
G01*
X120186100Y-44606100D01*
X120186100Y-43956100D01*
X120436100Y-43956100D01*
X120436100Y-44606100D01*
G37*
G36*
X119936100Y-44606100D02*
G01*
X119686100Y-44606100D01*
X119686100Y-43956100D01*
X119936100Y-43956100D01*
X119936100Y-44606100D01*
G37*
G36*
X119436100Y-44606100D02*
G01*
X119186100Y-44606100D01*
X119186100Y-43956100D01*
X119436100Y-43956100D01*
X119436100Y-44606100D01*
G37*
G36*
X118936100Y-44606100D02*
G01*
X118686100Y-44606100D01*
X118686100Y-43956100D01*
X118936100Y-43956100D01*
X118936100Y-44606100D01*
G37*
G36*
X118436100Y-44606100D02*
G01*
X118186100Y-44606100D01*
X118186100Y-43956100D01*
X118436100Y-43956100D01*
X118436100Y-44606100D01*
G37*
G36*
X117936100Y-44606100D02*
G01*
X117686100Y-44606100D01*
X117686100Y-43956100D01*
X117936100Y-43956100D01*
X117936100Y-44606100D01*
G37*
G36*
X117436100Y-44606100D02*
G01*
X117186100Y-44606100D01*
X117186100Y-43956100D01*
X117436100Y-43956100D01*
X117436100Y-44606100D01*
G37*
G36*
X116936100Y-44606100D02*
G01*
X116686100Y-44606100D01*
X116686100Y-43956100D01*
X116936100Y-43956100D01*
X116936100Y-44606100D01*
G37*
%TO.C,IN10*%
G36*
X180316100Y-126902100D02*
G01*
X180066100Y-126902100D01*
X180066100Y-126252100D01*
X180316100Y-126252100D01*
X180316100Y-126902100D01*
G37*
G36*
X179816100Y-126902100D02*
G01*
X179566100Y-126902100D01*
X179566100Y-126252100D01*
X179816100Y-126252100D01*
X179816100Y-126902100D01*
G37*
G36*
X179316100Y-126902100D02*
G01*
X179066100Y-126902100D01*
X179066100Y-126252100D01*
X179316100Y-126252100D01*
X179316100Y-126902100D01*
G37*
G36*
X178816100Y-126902100D02*
G01*
X178566100Y-126902100D01*
X178566100Y-126252100D01*
X178816100Y-126252100D01*
X178816100Y-126902100D01*
G37*
G36*
X178316100Y-126902100D02*
G01*
X178066100Y-126902100D01*
X178066100Y-126252100D01*
X178316100Y-126252100D01*
X178316100Y-126902100D01*
G37*
G36*
X177816100Y-126902100D02*
G01*
X177566100Y-126902100D01*
X177566100Y-126252100D01*
X177816100Y-126252100D01*
X177816100Y-126902100D01*
G37*
G36*
X177316100Y-126902100D02*
G01*
X177066100Y-126902100D01*
X177066100Y-126252100D01*
X177316100Y-126252100D01*
X177316100Y-126902100D01*
G37*
G36*
X176816100Y-126902100D02*
G01*
X176566100Y-126902100D01*
X176566100Y-126252100D01*
X176816100Y-126252100D01*
X176816100Y-126902100D01*
G37*
G36*
X176316100Y-126902100D02*
G01*
X176066100Y-126902100D01*
X176066100Y-126252100D01*
X176316100Y-126252100D01*
X176316100Y-126902100D01*
G37*
G36*
X175816100Y-126902100D02*
G01*
X175566100Y-126902100D01*
X175566100Y-126252100D01*
X175816100Y-126252100D01*
X175816100Y-126902100D01*
G37*
G36*
X175316100Y-126902100D02*
G01*
X175066100Y-126902100D01*
X175066100Y-126252100D01*
X175316100Y-126252100D01*
X175316100Y-126902100D01*
G37*
G36*
X174816100Y-126902100D02*
G01*
X174566100Y-126902100D01*
X174566100Y-126252100D01*
X174816100Y-126252100D01*
X174816100Y-126902100D01*
G37*
G36*
X174316100Y-126902100D02*
G01*
X174066100Y-126902100D01*
X174066100Y-126252100D01*
X174316100Y-126252100D01*
X174316100Y-126902100D01*
G37*
G36*
X173816100Y-126902100D02*
G01*
X173566100Y-126902100D01*
X173566100Y-126252100D01*
X173816100Y-126252100D01*
X173816100Y-126902100D01*
G37*
G36*
X173316100Y-126902100D02*
G01*
X173066100Y-126902100D01*
X173066100Y-126252100D01*
X173316100Y-126252100D01*
X173316100Y-126902100D01*
G37*
G36*
X172816100Y-126902100D02*
G01*
X172566100Y-126902100D01*
X172566100Y-126252100D01*
X172816100Y-126252100D01*
X172816100Y-126902100D01*
G37*
%TO.C,IN38*%
G36*
X135612100Y-44606100D02*
G01*
X135362100Y-44606100D01*
X135362100Y-43956100D01*
X135612100Y-43956100D01*
X135612100Y-44606100D01*
G37*
G36*
X135112100Y-44606100D02*
G01*
X134862100Y-44606100D01*
X134862100Y-43956100D01*
X135112100Y-43956100D01*
X135112100Y-44606100D01*
G37*
G36*
X134612100Y-44606100D02*
G01*
X134362100Y-44606100D01*
X134362100Y-43956100D01*
X134612100Y-43956100D01*
X134612100Y-44606100D01*
G37*
G36*
X134112100Y-44606100D02*
G01*
X133862100Y-44606100D01*
X133862100Y-43956100D01*
X134112100Y-43956100D01*
X134112100Y-44606100D01*
G37*
G36*
X133612100Y-44606100D02*
G01*
X133362100Y-44606100D01*
X133362100Y-43956100D01*
X133612100Y-43956100D01*
X133612100Y-44606100D01*
G37*
G36*
X133112100Y-44606100D02*
G01*
X132862100Y-44606100D01*
X132862100Y-43956100D01*
X133112100Y-43956100D01*
X133112100Y-44606100D01*
G37*
G36*
X132612100Y-44606100D02*
G01*
X132362100Y-44606100D01*
X132362100Y-43956100D01*
X132612100Y-43956100D01*
X132612100Y-44606100D01*
G37*
G36*
X132112100Y-44606100D02*
G01*
X131862100Y-44606100D01*
X131862100Y-43956100D01*
X132112100Y-43956100D01*
X132112100Y-44606100D01*
G37*
G36*
X131612100Y-44606100D02*
G01*
X131362100Y-44606100D01*
X131362100Y-43956100D01*
X131612100Y-43956100D01*
X131612100Y-44606100D01*
G37*
G36*
X131112100Y-44606100D02*
G01*
X130862100Y-44606100D01*
X130862100Y-43956100D01*
X131112100Y-43956100D01*
X131112100Y-44606100D01*
G37*
G36*
X130612100Y-44606100D02*
G01*
X130362100Y-44606100D01*
X130362100Y-43956100D01*
X130612100Y-43956100D01*
X130612100Y-44606100D01*
G37*
G36*
X130112100Y-44606100D02*
G01*
X129862100Y-44606100D01*
X129862100Y-43956100D01*
X130112100Y-43956100D01*
X130112100Y-44606100D01*
G37*
G36*
X129612100Y-44606100D02*
G01*
X129362100Y-44606100D01*
X129362100Y-43956100D01*
X129612100Y-43956100D01*
X129612100Y-44606100D01*
G37*
G36*
X129112100Y-44606100D02*
G01*
X128862100Y-44606100D01*
X128862100Y-43956100D01*
X129112100Y-43956100D01*
X129112100Y-44606100D01*
G37*
G36*
X128612100Y-44606100D02*
G01*
X128362100Y-44606100D01*
X128362100Y-43956100D01*
X128612100Y-43956100D01*
X128612100Y-44606100D01*
G37*
G36*
X128112100Y-44606100D02*
G01*
X127862100Y-44606100D01*
X127862100Y-43956100D01*
X128112100Y-43956100D01*
X128112100Y-44606100D01*
G37*
%TO.C,IN40*%
G36*
X157964100Y-44606100D02*
G01*
X157714100Y-44606100D01*
X157714100Y-43956100D01*
X157964100Y-43956100D01*
X157964100Y-44606100D01*
G37*
G36*
X157464100Y-44606100D02*
G01*
X157214100Y-44606100D01*
X157214100Y-43956100D01*
X157464100Y-43956100D01*
X157464100Y-44606100D01*
G37*
G36*
X156964100Y-44606100D02*
G01*
X156714100Y-44606100D01*
X156714100Y-43956100D01*
X156964100Y-43956100D01*
X156964100Y-44606100D01*
G37*
G36*
X156464100Y-44606100D02*
G01*
X156214100Y-44606100D01*
X156214100Y-43956100D01*
X156464100Y-43956100D01*
X156464100Y-44606100D01*
G37*
G36*
X155964100Y-44606100D02*
G01*
X155714100Y-44606100D01*
X155714100Y-43956100D01*
X155964100Y-43956100D01*
X155964100Y-44606100D01*
G37*
G36*
X155464100Y-44606100D02*
G01*
X155214100Y-44606100D01*
X155214100Y-43956100D01*
X155464100Y-43956100D01*
X155464100Y-44606100D01*
G37*
G36*
X154964100Y-44606100D02*
G01*
X154714100Y-44606100D01*
X154714100Y-43956100D01*
X154964100Y-43956100D01*
X154964100Y-44606100D01*
G37*
G36*
X154464100Y-44606100D02*
G01*
X154214100Y-44606100D01*
X154214100Y-43956100D01*
X154464100Y-43956100D01*
X154464100Y-44606100D01*
G37*
G36*
X153964100Y-44606100D02*
G01*
X153714100Y-44606100D01*
X153714100Y-43956100D01*
X153964100Y-43956100D01*
X153964100Y-44606100D01*
G37*
G36*
X153464100Y-44606100D02*
G01*
X153214100Y-44606100D01*
X153214100Y-43956100D01*
X153464100Y-43956100D01*
X153464100Y-44606100D01*
G37*
G36*
X152964100Y-44606100D02*
G01*
X152714100Y-44606100D01*
X152714100Y-43956100D01*
X152964100Y-43956100D01*
X152964100Y-44606100D01*
G37*
G36*
X152464100Y-44606100D02*
G01*
X152214100Y-44606100D01*
X152214100Y-43956100D01*
X152464100Y-43956100D01*
X152464100Y-44606100D01*
G37*
G36*
X151964100Y-44606100D02*
G01*
X151714100Y-44606100D01*
X151714100Y-43956100D01*
X151964100Y-43956100D01*
X151964100Y-44606100D01*
G37*
G36*
X151464100Y-44606100D02*
G01*
X151214100Y-44606100D01*
X151214100Y-43956100D01*
X151464100Y-43956100D01*
X151464100Y-44606100D01*
G37*
G36*
X150964100Y-44606100D02*
G01*
X150714100Y-44606100D01*
X150714100Y-43956100D01*
X150964100Y-43956100D01*
X150964100Y-44606100D01*
G37*
G36*
X150464100Y-44606100D02*
G01*
X150214100Y-44606100D01*
X150214100Y-43956100D01*
X150464100Y-43956100D01*
X150464100Y-44606100D01*
G37*
%TO.C,IN1*%
G36*
X79732100Y-126902100D02*
G01*
X79482100Y-126902100D01*
X79482100Y-126252100D01*
X79732100Y-126252100D01*
X79732100Y-126902100D01*
G37*
G36*
X79232100Y-126902100D02*
G01*
X78982100Y-126902100D01*
X78982100Y-126252100D01*
X79232100Y-126252100D01*
X79232100Y-126902100D01*
G37*
G36*
X78732100Y-126902100D02*
G01*
X78482100Y-126902100D01*
X78482100Y-126252100D01*
X78732100Y-126252100D01*
X78732100Y-126902100D01*
G37*
G36*
X78232100Y-126902100D02*
G01*
X77982100Y-126902100D01*
X77982100Y-126252100D01*
X78232100Y-126252100D01*
X78232100Y-126902100D01*
G37*
G36*
X77732100Y-126902100D02*
G01*
X77482100Y-126902100D01*
X77482100Y-126252100D01*
X77732100Y-126252100D01*
X77732100Y-126902100D01*
G37*
G36*
X77232100Y-126902100D02*
G01*
X76982100Y-126902100D01*
X76982100Y-126252100D01*
X77232100Y-126252100D01*
X77232100Y-126902100D01*
G37*
G36*
X76732100Y-126902100D02*
G01*
X76482100Y-126902100D01*
X76482100Y-126252100D01*
X76732100Y-126252100D01*
X76732100Y-126902100D01*
G37*
G36*
X76232100Y-126902100D02*
G01*
X75982100Y-126902100D01*
X75982100Y-126252100D01*
X76232100Y-126252100D01*
X76232100Y-126902100D01*
G37*
G36*
X75732100Y-126902100D02*
G01*
X75482100Y-126902100D01*
X75482100Y-126252100D01*
X75732100Y-126252100D01*
X75732100Y-126902100D01*
G37*
G36*
X75232100Y-126902100D02*
G01*
X74982100Y-126902100D01*
X74982100Y-126252100D01*
X75232100Y-126252100D01*
X75232100Y-126902100D01*
G37*
G36*
X74732100Y-126902100D02*
G01*
X74482100Y-126902100D01*
X74482100Y-126252100D01*
X74732100Y-126252100D01*
X74732100Y-126902100D01*
G37*
G36*
X74232100Y-126902100D02*
G01*
X73982100Y-126902100D01*
X73982100Y-126252100D01*
X74232100Y-126252100D01*
X74232100Y-126902100D01*
G37*
G36*
X73732100Y-126902100D02*
G01*
X73482100Y-126902100D01*
X73482100Y-126252100D01*
X73732100Y-126252100D01*
X73732100Y-126902100D01*
G37*
G36*
X73232100Y-126902100D02*
G01*
X72982100Y-126902100D01*
X72982100Y-126252100D01*
X73232100Y-126252100D01*
X73232100Y-126902100D01*
G37*
G36*
X72732100Y-126902100D02*
G01*
X72482100Y-126902100D01*
X72482100Y-126252100D01*
X72732100Y-126252100D01*
X72732100Y-126902100D01*
G37*
G36*
X72232100Y-126902100D02*
G01*
X71982100Y-126902100D01*
X71982100Y-126252100D01*
X72232100Y-126252100D01*
X72232100Y-126902100D01*
G37*
%TO.C,IN11*%
G36*
X191492100Y-126902100D02*
G01*
X191242100Y-126902100D01*
X191242100Y-126252100D01*
X191492100Y-126252100D01*
X191492100Y-126902100D01*
G37*
G36*
X190992100Y-126902100D02*
G01*
X190742100Y-126902100D01*
X190742100Y-126252100D01*
X190992100Y-126252100D01*
X190992100Y-126902100D01*
G37*
G36*
X190492100Y-126902100D02*
G01*
X190242100Y-126902100D01*
X190242100Y-126252100D01*
X190492100Y-126252100D01*
X190492100Y-126902100D01*
G37*
G36*
X189992100Y-126902100D02*
G01*
X189742100Y-126902100D01*
X189742100Y-126252100D01*
X189992100Y-126252100D01*
X189992100Y-126902100D01*
G37*
G36*
X189492100Y-126902100D02*
G01*
X189242100Y-126902100D01*
X189242100Y-126252100D01*
X189492100Y-126252100D01*
X189492100Y-126902100D01*
G37*
G36*
X188992100Y-126902100D02*
G01*
X188742100Y-126902100D01*
X188742100Y-126252100D01*
X188992100Y-126252100D01*
X188992100Y-126902100D01*
G37*
G36*
X188492100Y-126902100D02*
G01*
X188242100Y-126902100D01*
X188242100Y-126252100D01*
X188492100Y-126252100D01*
X188492100Y-126902100D01*
G37*
G36*
X187992100Y-126902100D02*
G01*
X187742100Y-126902100D01*
X187742100Y-126252100D01*
X187992100Y-126252100D01*
X187992100Y-126902100D01*
G37*
G36*
X187492100Y-126902100D02*
G01*
X187242100Y-126902100D01*
X187242100Y-126252100D01*
X187492100Y-126252100D01*
X187492100Y-126902100D01*
G37*
G36*
X186992100Y-126902100D02*
G01*
X186742100Y-126902100D01*
X186742100Y-126252100D01*
X186992100Y-126252100D01*
X186992100Y-126902100D01*
G37*
G36*
X186492100Y-126902100D02*
G01*
X186242100Y-126902100D01*
X186242100Y-126252100D01*
X186492100Y-126252100D01*
X186492100Y-126902100D01*
G37*
G36*
X185992100Y-126902100D02*
G01*
X185742100Y-126902100D01*
X185742100Y-126252100D01*
X185992100Y-126252100D01*
X185992100Y-126902100D01*
G37*
G36*
X185492100Y-126902100D02*
G01*
X185242100Y-126902100D01*
X185242100Y-126252100D01*
X185492100Y-126252100D01*
X185492100Y-126902100D01*
G37*
G36*
X184992100Y-126902100D02*
G01*
X184742100Y-126902100D01*
X184742100Y-126252100D01*
X184992100Y-126252100D01*
X184992100Y-126902100D01*
G37*
G36*
X184492100Y-126902100D02*
G01*
X184242100Y-126902100D01*
X184242100Y-126252100D01*
X184492100Y-126252100D01*
X184492100Y-126902100D01*
G37*
G36*
X183992100Y-126902100D02*
G01*
X183742100Y-126902100D01*
X183742100Y-126252100D01*
X183992100Y-126252100D01*
X183992100Y-126902100D01*
G37*
%TO.C,IN45*%
G36*
X213844100Y-44606100D02*
G01*
X213594100Y-44606100D01*
X213594100Y-43956100D01*
X213844100Y-43956100D01*
X213844100Y-44606100D01*
G37*
G36*
X213344100Y-44606100D02*
G01*
X213094100Y-44606100D01*
X213094100Y-43956100D01*
X213344100Y-43956100D01*
X213344100Y-44606100D01*
G37*
G36*
X212844100Y-44606100D02*
G01*
X212594100Y-44606100D01*
X212594100Y-43956100D01*
X212844100Y-43956100D01*
X212844100Y-44606100D01*
G37*
G36*
X212344100Y-44606100D02*
G01*
X212094100Y-44606100D01*
X212094100Y-43956100D01*
X212344100Y-43956100D01*
X212344100Y-44606100D01*
G37*
G36*
X211844100Y-44606100D02*
G01*
X211594100Y-44606100D01*
X211594100Y-43956100D01*
X211844100Y-43956100D01*
X211844100Y-44606100D01*
G37*
G36*
X211344100Y-44606100D02*
G01*
X211094100Y-44606100D01*
X211094100Y-43956100D01*
X211344100Y-43956100D01*
X211344100Y-44606100D01*
G37*
G36*
X210844100Y-44606100D02*
G01*
X210594100Y-44606100D01*
X210594100Y-43956100D01*
X210844100Y-43956100D01*
X210844100Y-44606100D01*
G37*
G36*
X210344100Y-44606100D02*
G01*
X210094100Y-44606100D01*
X210094100Y-43956100D01*
X210344100Y-43956100D01*
X210344100Y-44606100D01*
G37*
G36*
X209844100Y-44606100D02*
G01*
X209594100Y-44606100D01*
X209594100Y-43956100D01*
X209844100Y-43956100D01*
X209844100Y-44606100D01*
G37*
G36*
X209344100Y-44606100D02*
G01*
X209094100Y-44606100D01*
X209094100Y-43956100D01*
X209344100Y-43956100D01*
X209344100Y-44606100D01*
G37*
G36*
X208844100Y-44606100D02*
G01*
X208594100Y-44606100D01*
X208594100Y-43956100D01*
X208844100Y-43956100D01*
X208844100Y-44606100D01*
G37*
G36*
X208344100Y-44606100D02*
G01*
X208094100Y-44606100D01*
X208094100Y-43956100D01*
X208344100Y-43956100D01*
X208344100Y-44606100D01*
G37*
G36*
X207844100Y-44606100D02*
G01*
X207594100Y-44606100D01*
X207594100Y-43956100D01*
X207844100Y-43956100D01*
X207844100Y-44606100D01*
G37*
G36*
X207344100Y-44606100D02*
G01*
X207094100Y-44606100D01*
X207094100Y-43956100D01*
X207344100Y-43956100D01*
X207344100Y-44606100D01*
G37*
G36*
X206844100Y-44606100D02*
G01*
X206594100Y-44606100D01*
X206594100Y-43956100D01*
X206844100Y-43956100D01*
X206844100Y-44606100D01*
G37*
G36*
X206344100Y-44606100D02*
G01*
X206094100Y-44606100D01*
X206094100Y-43956100D01*
X206344100Y-43956100D01*
X206344100Y-44606100D01*
G37*
%TO.C,IN46*%
G36*
X225020100Y-44606100D02*
G01*
X224770100Y-44606100D01*
X224770100Y-43956100D01*
X225020100Y-43956100D01*
X225020100Y-44606100D01*
G37*
G36*
X224520100Y-44606100D02*
G01*
X224270100Y-44606100D01*
X224270100Y-43956100D01*
X224520100Y-43956100D01*
X224520100Y-44606100D01*
G37*
G36*
X224020100Y-44606100D02*
G01*
X223770100Y-44606100D01*
X223770100Y-43956100D01*
X224020100Y-43956100D01*
X224020100Y-44606100D01*
G37*
G36*
X223520100Y-44606100D02*
G01*
X223270100Y-44606100D01*
X223270100Y-43956100D01*
X223520100Y-43956100D01*
X223520100Y-44606100D01*
G37*
G36*
X223020100Y-44606100D02*
G01*
X222770100Y-44606100D01*
X222770100Y-43956100D01*
X223020100Y-43956100D01*
X223020100Y-44606100D01*
G37*
G36*
X222520100Y-44606100D02*
G01*
X222270100Y-44606100D01*
X222270100Y-43956100D01*
X222520100Y-43956100D01*
X222520100Y-44606100D01*
G37*
G36*
X222020100Y-44606100D02*
G01*
X221770100Y-44606100D01*
X221770100Y-43956100D01*
X222020100Y-43956100D01*
X222020100Y-44606100D01*
G37*
G36*
X221520100Y-44606100D02*
G01*
X221270100Y-44606100D01*
X221270100Y-43956100D01*
X221520100Y-43956100D01*
X221520100Y-44606100D01*
G37*
G36*
X221020100Y-44606100D02*
G01*
X220770100Y-44606100D01*
X220770100Y-43956100D01*
X221020100Y-43956100D01*
X221020100Y-44606100D01*
G37*
G36*
X220520100Y-44606100D02*
G01*
X220270100Y-44606100D01*
X220270100Y-43956100D01*
X220520100Y-43956100D01*
X220520100Y-44606100D01*
G37*
G36*
X220020100Y-44606100D02*
G01*
X219770100Y-44606100D01*
X219770100Y-43956100D01*
X220020100Y-43956100D01*
X220020100Y-44606100D01*
G37*
G36*
X219520100Y-44606100D02*
G01*
X219270100Y-44606100D01*
X219270100Y-43956100D01*
X219520100Y-43956100D01*
X219520100Y-44606100D01*
G37*
G36*
X219020100Y-44606100D02*
G01*
X218770100Y-44606100D01*
X218770100Y-43956100D01*
X219020100Y-43956100D01*
X219020100Y-44606100D01*
G37*
G36*
X218520100Y-44606100D02*
G01*
X218270100Y-44606100D01*
X218270100Y-43956100D01*
X218520100Y-43956100D01*
X218520100Y-44606100D01*
G37*
G36*
X218020100Y-44606100D02*
G01*
X217770100Y-44606100D01*
X217770100Y-43956100D01*
X218020100Y-43956100D01*
X218020100Y-44606100D01*
G37*
G36*
X217520100Y-44606100D02*
G01*
X217270100Y-44606100D01*
X217270100Y-43956100D01*
X217520100Y-43956100D01*
X217520100Y-44606100D01*
G37*
%TO.C,IN33*%
G36*
X79732100Y-44606100D02*
G01*
X79482100Y-44606100D01*
X79482100Y-43956100D01*
X79732100Y-43956100D01*
X79732100Y-44606100D01*
G37*
G36*
X79232100Y-44606100D02*
G01*
X78982100Y-44606100D01*
X78982100Y-43956100D01*
X79232100Y-43956100D01*
X79232100Y-44606100D01*
G37*
G36*
X78732100Y-44606100D02*
G01*
X78482100Y-44606100D01*
X78482100Y-43956100D01*
X78732100Y-43956100D01*
X78732100Y-44606100D01*
G37*
G36*
X78232100Y-44606100D02*
G01*
X77982100Y-44606100D01*
X77982100Y-43956100D01*
X78232100Y-43956100D01*
X78232100Y-44606100D01*
G37*
G36*
X77732100Y-44606100D02*
G01*
X77482100Y-44606100D01*
X77482100Y-43956100D01*
X77732100Y-43956100D01*
X77732100Y-44606100D01*
G37*
G36*
X77232100Y-44606100D02*
G01*
X76982100Y-44606100D01*
X76982100Y-43956100D01*
X77232100Y-43956100D01*
X77232100Y-44606100D01*
G37*
G36*
X76732100Y-44606100D02*
G01*
X76482100Y-44606100D01*
X76482100Y-43956100D01*
X76732100Y-43956100D01*
X76732100Y-44606100D01*
G37*
G36*
X76232100Y-44606100D02*
G01*
X75982100Y-44606100D01*
X75982100Y-43956100D01*
X76232100Y-43956100D01*
X76232100Y-44606100D01*
G37*
G36*
X75732100Y-44606100D02*
G01*
X75482100Y-44606100D01*
X75482100Y-43956100D01*
X75732100Y-43956100D01*
X75732100Y-44606100D01*
G37*
G36*
X75232100Y-44606100D02*
G01*
X74982100Y-44606100D01*
X74982100Y-43956100D01*
X75232100Y-43956100D01*
X75232100Y-44606100D01*
G37*
G36*
X74732100Y-44606100D02*
G01*
X74482100Y-44606100D01*
X74482100Y-43956100D01*
X74732100Y-43956100D01*
X74732100Y-44606100D01*
G37*
G36*
X74232100Y-44606100D02*
G01*
X73982100Y-44606100D01*
X73982100Y-43956100D01*
X74232100Y-43956100D01*
X74232100Y-44606100D01*
G37*
G36*
X73732100Y-44606100D02*
G01*
X73482100Y-44606100D01*
X73482100Y-43956100D01*
X73732100Y-43956100D01*
X73732100Y-44606100D01*
G37*
G36*
X73232100Y-44606100D02*
G01*
X72982100Y-44606100D01*
X72982100Y-43956100D01*
X73232100Y-43956100D01*
X73232100Y-44606100D01*
G37*
G36*
X72732100Y-44606100D02*
G01*
X72482100Y-44606100D01*
X72482100Y-43956100D01*
X72732100Y-43956100D01*
X72732100Y-44606100D01*
G37*
G36*
X72232100Y-44606100D02*
G01*
X71982100Y-44606100D01*
X71982100Y-43956100D01*
X72232100Y-43956100D01*
X72232100Y-44606100D01*
G37*
%TO.C,IN25*%
G36*
X169140100Y-85754100D02*
G01*
X168890100Y-85754100D01*
X168890100Y-85104100D01*
X169140100Y-85104100D01*
X169140100Y-85754100D01*
G37*
G36*
X168640100Y-85754100D02*
G01*
X168390100Y-85754100D01*
X168390100Y-85104100D01*
X168640100Y-85104100D01*
X168640100Y-85754100D01*
G37*
G36*
X168140100Y-85754100D02*
G01*
X167890100Y-85754100D01*
X167890100Y-85104100D01*
X168140100Y-85104100D01*
X168140100Y-85754100D01*
G37*
G36*
X167640100Y-85754100D02*
G01*
X167390100Y-85754100D01*
X167390100Y-85104100D01*
X167640100Y-85104100D01*
X167640100Y-85754100D01*
G37*
G36*
X167140100Y-85754100D02*
G01*
X166890100Y-85754100D01*
X166890100Y-85104100D01*
X167140100Y-85104100D01*
X167140100Y-85754100D01*
G37*
G36*
X166640100Y-85754100D02*
G01*
X166390100Y-85754100D01*
X166390100Y-85104100D01*
X166640100Y-85104100D01*
X166640100Y-85754100D01*
G37*
G36*
X166140100Y-85754100D02*
G01*
X165890100Y-85754100D01*
X165890100Y-85104100D01*
X166140100Y-85104100D01*
X166140100Y-85754100D01*
G37*
G36*
X165640100Y-85754100D02*
G01*
X165390100Y-85754100D01*
X165390100Y-85104100D01*
X165640100Y-85104100D01*
X165640100Y-85754100D01*
G37*
G36*
X165140100Y-85754100D02*
G01*
X164890100Y-85754100D01*
X164890100Y-85104100D01*
X165140100Y-85104100D01*
X165140100Y-85754100D01*
G37*
G36*
X164640100Y-85754100D02*
G01*
X164390100Y-85754100D01*
X164390100Y-85104100D01*
X164640100Y-85104100D01*
X164640100Y-85754100D01*
G37*
G36*
X164140100Y-85754100D02*
G01*
X163890100Y-85754100D01*
X163890100Y-85104100D01*
X164140100Y-85104100D01*
X164140100Y-85754100D01*
G37*
G36*
X163640100Y-85754100D02*
G01*
X163390100Y-85754100D01*
X163390100Y-85104100D01*
X163640100Y-85104100D01*
X163640100Y-85754100D01*
G37*
G36*
X163140100Y-85754100D02*
G01*
X162890100Y-85754100D01*
X162890100Y-85104100D01*
X163140100Y-85104100D01*
X163140100Y-85754100D01*
G37*
G36*
X162640100Y-85754100D02*
G01*
X162390100Y-85754100D01*
X162390100Y-85104100D01*
X162640100Y-85104100D01*
X162640100Y-85754100D01*
G37*
G36*
X162140100Y-85754100D02*
G01*
X161890100Y-85754100D01*
X161890100Y-85104100D01*
X162140100Y-85104100D01*
X162140100Y-85754100D01*
G37*
G36*
X161640100Y-85754100D02*
G01*
X161390100Y-85754100D01*
X161390100Y-85104100D01*
X161640100Y-85104100D01*
X161640100Y-85754100D01*
G37*
%TO.C,IN44*%
G36*
X202668100Y-44606100D02*
G01*
X202418100Y-44606100D01*
X202418100Y-43956100D01*
X202668100Y-43956100D01*
X202668100Y-44606100D01*
G37*
G36*
X202168100Y-44606100D02*
G01*
X201918100Y-44606100D01*
X201918100Y-43956100D01*
X202168100Y-43956100D01*
X202168100Y-44606100D01*
G37*
G36*
X201668100Y-44606100D02*
G01*
X201418100Y-44606100D01*
X201418100Y-43956100D01*
X201668100Y-43956100D01*
X201668100Y-44606100D01*
G37*
G36*
X201168100Y-44606100D02*
G01*
X200918100Y-44606100D01*
X200918100Y-43956100D01*
X201168100Y-43956100D01*
X201168100Y-44606100D01*
G37*
G36*
X200668100Y-44606100D02*
G01*
X200418100Y-44606100D01*
X200418100Y-43956100D01*
X200668100Y-43956100D01*
X200668100Y-44606100D01*
G37*
G36*
X200168100Y-44606100D02*
G01*
X199918100Y-44606100D01*
X199918100Y-43956100D01*
X200168100Y-43956100D01*
X200168100Y-44606100D01*
G37*
G36*
X199668100Y-44606100D02*
G01*
X199418100Y-44606100D01*
X199418100Y-43956100D01*
X199668100Y-43956100D01*
X199668100Y-44606100D01*
G37*
G36*
X199168100Y-44606100D02*
G01*
X198918100Y-44606100D01*
X198918100Y-43956100D01*
X199168100Y-43956100D01*
X199168100Y-44606100D01*
G37*
G36*
X198668100Y-44606100D02*
G01*
X198418100Y-44606100D01*
X198418100Y-43956100D01*
X198668100Y-43956100D01*
X198668100Y-44606100D01*
G37*
G36*
X198168100Y-44606100D02*
G01*
X197918100Y-44606100D01*
X197918100Y-43956100D01*
X198168100Y-43956100D01*
X198168100Y-44606100D01*
G37*
G36*
X197668100Y-44606100D02*
G01*
X197418100Y-44606100D01*
X197418100Y-43956100D01*
X197668100Y-43956100D01*
X197668100Y-44606100D01*
G37*
G36*
X197168100Y-44606100D02*
G01*
X196918100Y-44606100D01*
X196918100Y-43956100D01*
X197168100Y-43956100D01*
X197168100Y-44606100D01*
G37*
G36*
X196668100Y-44606100D02*
G01*
X196418100Y-44606100D01*
X196418100Y-43956100D01*
X196668100Y-43956100D01*
X196668100Y-44606100D01*
G37*
G36*
X196168100Y-44606100D02*
G01*
X195918100Y-44606100D01*
X195918100Y-43956100D01*
X196168100Y-43956100D01*
X196168100Y-44606100D01*
G37*
G36*
X195668100Y-44606100D02*
G01*
X195418100Y-44606100D01*
X195418100Y-43956100D01*
X195668100Y-43956100D01*
X195668100Y-44606100D01*
G37*
G36*
X195168100Y-44606100D02*
G01*
X194918100Y-44606100D01*
X194918100Y-43956100D01*
X195168100Y-43956100D01*
X195168100Y-44606100D01*
G37*
%TO.C,IN12*%
G36*
X202668100Y-126902100D02*
G01*
X202418100Y-126902100D01*
X202418100Y-126252100D01*
X202668100Y-126252100D01*
X202668100Y-126902100D01*
G37*
G36*
X202168100Y-126902100D02*
G01*
X201918100Y-126902100D01*
X201918100Y-126252100D01*
X202168100Y-126252100D01*
X202168100Y-126902100D01*
G37*
G36*
X201668100Y-126902100D02*
G01*
X201418100Y-126902100D01*
X201418100Y-126252100D01*
X201668100Y-126252100D01*
X201668100Y-126902100D01*
G37*
G36*
X201168100Y-126902100D02*
G01*
X200918100Y-126902100D01*
X200918100Y-126252100D01*
X201168100Y-126252100D01*
X201168100Y-126902100D01*
G37*
G36*
X200668100Y-126902100D02*
G01*
X200418100Y-126902100D01*
X200418100Y-126252100D01*
X200668100Y-126252100D01*
X200668100Y-126902100D01*
G37*
G36*
X200168100Y-126902100D02*
G01*
X199918100Y-126902100D01*
X199918100Y-126252100D01*
X200168100Y-126252100D01*
X200168100Y-126902100D01*
G37*
G36*
X199668100Y-126902100D02*
G01*
X199418100Y-126902100D01*
X199418100Y-126252100D01*
X199668100Y-126252100D01*
X199668100Y-126902100D01*
G37*
G36*
X199168100Y-126902100D02*
G01*
X198918100Y-126902100D01*
X198918100Y-126252100D01*
X199168100Y-126252100D01*
X199168100Y-126902100D01*
G37*
G36*
X198668100Y-126902100D02*
G01*
X198418100Y-126902100D01*
X198418100Y-126252100D01*
X198668100Y-126252100D01*
X198668100Y-126902100D01*
G37*
G36*
X198168100Y-126902100D02*
G01*
X197918100Y-126902100D01*
X197918100Y-126252100D01*
X198168100Y-126252100D01*
X198168100Y-126902100D01*
G37*
G36*
X197668100Y-126902100D02*
G01*
X197418100Y-126902100D01*
X197418100Y-126252100D01*
X197668100Y-126252100D01*
X197668100Y-126902100D01*
G37*
G36*
X197168100Y-126902100D02*
G01*
X196918100Y-126902100D01*
X196918100Y-126252100D01*
X197168100Y-126252100D01*
X197168100Y-126902100D01*
G37*
G36*
X196668100Y-126902100D02*
G01*
X196418100Y-126902100D01*
X196418100Y-126252100D01*
X196668100Y-126252100D01*
X196668100Y-126902100D01*
G37*
G36*
X196168100Y-126902100D02*
G01*
X195918100Y-126902100D01*
X195918100Y-126252100D01*
X196168100Y-126252100D01*
X196168100Y-126902100D01*
G37*
G36*
X195668100Y-126902100D02*
G01*
X195418100Y-126902100D01*
X195418100Y-126252100D01*
X195668100Y-126252100D01*
X195668100Y-126902100D01*
G37*
G36*
X195168100Y-126902100D02*
G01*
X194918100Y-126902100D01*
X194918100Y-126252100D01*
X195168100Y-126252100D01*
X195168100Y-126902100D01*
G37*
%TO.C,IN20*%
G36*
X113260100Y-85754100D02*
G01*
X113010100Y-85754100D01*
X113010100Y-85104100D01*
X113260100Y-85104100D01*
X113260100Y-85754100D01*
G37*
G36*
X112760100Y-85754100D02*
G01*
X112510100Y-85754100D01*
X112510100Y-85104100D01*
X112760100Y-85104100D01*
X112760100Y-85754100D01*
G37*
G36*
X112260100Y-85754100D02*
G01*
X112010100Y-85754100D01*
X112010100Y-85104100D01*
X112260100Y-85104100D01*
X112260100Y-85754100D01*
G37*
G36*
X111760100Y-85754100D02*
G01*
X111510100Y-85754100D01*
X111510100Y-85104100D01*
X111760100Y-85104100D01*
X111760100Y-85754100D01*
G37*
G36*
X111260100Y-85754100D02*
G01*
X111010100Y-85754100D01*
X111010100Y-85104100D01*
X111260100Y-85104100D01*
X111260100Y-85754100D01*
G37*
G36*
X110760100Y-85754100D02*
G01*
X110510100Y-85754100D01*
X110510100Y-85104100D01*
X110760100Y-85104100D01*
X110760100Y-85754100D01*
G37*
G36*
X110260100Y-85754100D02*
G01*
X110010100Y-85754100D01*
X110010100Y-85104100D01*
X110260100Y-85104100D01*
X110260100Y-85754100D01*
G37*
G36*
X109760100Y-85754100D02*
G01*
X109510100Y-85754100D01*
X109510100Y-85104100D01*
X109760100Y-85104100D01*
X109760100Y-85754100D01*
G37*
G36*
X109260100Y-85754100D02*
G01*
X109010100Y-85754100D01*
X109010100Y-85104100D01*
X109260100Y-85104100D01*
X109260100Y-85754100D01*
G37*
G36*
X108760100Y-85754100D02*
G01*
X108510100Y-85754100D01*
X108510100Y-85104100D01*
X108760100Y-85104100D01*
X108760100Y-85754100D01*
G37*
G36*
X108260100Y-85754100D02*
G01*
X108010100Y-85754100D01*
X108010100Y-85104100D01*
X108260100Y-85104100D01*
X108260100Y-85754100D01*
G37*
G36*
X107760100Y-85754100D02*
G01*
X107510100Y-85754100D01*
X107510100Y-85104100D01*
X107760100Y-85104100D01*
X107760100Y-85754100D01*
G37*
G36*
X107260100Y-85754100D02*
G01*
X107010100Y-85754100D01*
X107010100Y-85104100D01*
X107260100Y-85104100D01*
X107260100Y-85754100D01*
G37*
G36*
X106760100Y-85754100D02*
G01*
X106510100Y-85754100D01*
X106510100Y-85104100D01*
X106760100Y-85104100D01*
X106760100Y-85754100D01*
G37*
G36*
X106260100Y-85754100D02*
G01*
X106010100Y-85754100D01*
X106010100Y-85104100D01*
X106260100Y-85104100D01*
X106260100Y-85754100D01*
G37*
G36*
X105760100Y-85754100D02*
G01*
X105510100Y-85754100D01*
X105510100Y-85104100D01*
X105760100Y-85104100D01*
X105760100Y-85754100D01*
G37*
%TO.C,IN21*%
G36*
X124436100Y-85754100D02*
G01*
X124186100Y-85754100D01*
X124186100Y-85104100D01*
X124436100Y-85104100D01*
X124436100Y-85754100D01*
G37*
G36*
X123936100Y-85754100D02*
G01*
X123686100Y-85754100D01*
X123686100Y-85104100D01*
X123936100Y-85104100D01*
X123936100Y-85754100D01*
G37*
G36*
X123436100Y-85754100D02*
G01*
X123186100Y-85754100D01*
X123186100Y-85104100D01*
X123436100Y-85104100D01*
X123436100Y-85754100D01*
G37*
G36*
X122936100Y-85754100D02*
G01*
X122686100Y-85754100D01*
X122686100Y-85104100D01*
X122936100Y-85104100D01*
X122936100Y-85754100D01*
G37*
G36*
X122436100Y-85754100D02*
G01*
X122186100Y-85754100D01*
X122186100Y-85104100D01*
X122436100Y-85104100D01*
X122436100Y-85754100D01*
G37*
G36*
X121936100Y-85754100D02*
G01*
X121686100Y-85754100D01*
X121686100Y-85104100D01*
X121936100Y-85104100D01*
X121936100Y-85754100D01*
G37*
G36*
X121436100Y-85754100D02*
G01*
X121186100Y-85754100D01*
X121186100Y-85104100D01*
X121436100Y-85104100D01*
X121436100Y-85754100D01*
G37*
G36*
X120936100Y-85754100D02*
G01*
X120686100Y-85754100D01*
X120686100Y-85104100D01*
X120936100Y-85104100D01*
X120936100Y-85754100D01*
G37*
G36*
X120436100Y-85754100D02*
G01*
X120186100Y-85754100D01*
X120186100Y-85104100D01*
X120436100Y-85104100D01*
X120436100Y-85754100D01*
G37*
G36*
X119936100Y-85754100D02*
G01*
X119686100Y-85754100D01*
X119686100Y-85104100D01*
X119936100Y-85104100D01*
X119936100Y-85754100D01*
G37*
G36*
X119436100Y-85754100D02*
G01*
X119186100Y-85754100D01*
X119186100Y-85104100D01*
X119436100Y-85104100D01*
X119436100Y-85754100D01*
G37*
G36*
X118936100Y-85754100D02*
G01*
X118686100Y-85754100D01*
X118686100Y-85104100D01*
X118936100Y-85104100D01*
X118936100Y-85754100D01*
G37*
G36*
X118436100Y-85754100D02*
G01*
X118186100Y-85754100D01*
X118186100Y-85104100D01*
X118436100Y-85104100D01*
X118436100Y-85754100D01*
G37*
G36*
X117936100Y-85754100D02*
G01*
X117686100Y-85754100D01*
X117686100Y-85104100D01*
X117936100Y-85104100D01*
X117936100Y-85754100D01*
G37*
G36*
X117436100Y-85754100D02*
G01*
X117186100Y-85754100D01*
X117186100Y-85104100D01*
X117436100Y-85104100D01*
X117436100Y-85754100D01*
G37*
G36*
X116936100Y-85754100D02*
G01*
X116686100Y-85754100D01*
X116686100Y-85104100D01*
X116936100Y-85104100D01*
X116936100Y-85754100D01*
G37*
%TO.C,IN24*%
G36*
X157964100Y-85754100D02*
G01*
X157714100Y-85754100D01*
X157714100Y-85104100D01*
X157964100Y-85104100D01*
X157964100Y-85754100D01*
G37*
G36*
X157464100Y-85754100D02*
G01*
X157214100Y-85754100D01*
X157214100Y-85104100D01*
X157464100Y-85104100D01*
X157464100Y-85754100D01*
G37*
G36*
X156964100Y-85754100D02*
G01*
X156714100Y-85754100D01*
X156714100Y-85104100D01*
X156964100Y-85104100D01*
X156964100Y-85754100D01*
G37*
G36*
X156464100Y-85754100D02*
G01*
X156214100Y-85754100D01*
X156214100Y-85104100D01*
X156464100Y-85104100D01*
X156464100Y-85754100D01*
G37*
G36*
X155964100Y-85754100D02*
G01*
X155714100Y-85754100D01*
X155714100Y-85104100D01*
X155964100Y-85104100D01*
X155964100Y-85754100D01*
G37*
G36*
X155464100Y-85754100D02*
G01*
X155214100Y-85754100D01*
X155214100Y-85104100D01*
X155464100Y-85104100D01*
X155464100Y-85754100D01*
G37*
G36*
X154964100Y-85754100D02*
G01*
X154714100Y-85754100D01*
X154714100Y-85104100D01*
X154964100Y-85104100D01*
X154964100Y-85754100D01*
G37*
G36*
X154464100Y-85754100D02*
G01*
X154214100Y-85754100D01*
X154214100Y-85104100D01*
X154464100Y-85104100D01*
X154464100Y-85754100D01*
G37*
G36*
X153964100Y-85754100D02*
G01*
X153714100Y-85754100D01*
X153714100Y-85104100D01*
X153964100Y-85104100D01*
X153964100Y-85754100D01*
G37*
G36*
X153464100Y-85754100D02*
G01*
X153214100Y-85754100D01*
X153214100Y-85104100D01*
X153464100Y-85104100D01*
X153464100Y-85754100D01*
G37*
G36*
X152964100Y-85754100D02*
G01*
X152714100Y-85754100D01*
X152714100Y-85104100D01*
X152964100Y-85104100D01*
X152964100Y-85754100D01*
G37*
G36*
X152464100Y-85754100D02*
G01*
X152214100Y-85754100D01*
X152214100Y-85104100D01*
X152464100Y-85104100D01*
X152464100Y-85754100D01*
G37*
G36*
X151964100Y-85754100D02*
G01*
X151714100Y-85754100D01*
X151714100Y-85104100D01*
X151964100Y-85104100D01*
X151964100Y-85754100D01*
G37*
G36*
X151464100Y-85754100D02*
G01*
X151214100Y-85754100D01*
X151214100Y-85104100D01*
X151464100Y-85104100D01*
X151464100Y-85754100D01*
G37*
G36*
X150964100Y-85754100D02*
G01*
X150714100Y-85754100D01*
X150714100Y-85104100D01*
X150964100Y-85104100D01*
X150964100Y-85754100D01*
G37*
G36*
X150464100Y-85754100D02*
G01*
X150214100Y-85754100D01*
X150214100Y-85104100D01*
X150464100Y-85104100D01*
X150464100Y-85754100D01*
G37*
%TO.C,IN31*%
G36*
X236196100Y-85754100D02*
G01*
X235946100Y-85754100D01*
X235946100Y-85104100D01*
X236196100Y-85104100D01*
X236196100Y-85754100D01*
G37*
G36*
X235696100Y-85754100D02*
G01*
X235446100Y-85754100D01*
X235446100Y-85104100D01*
X235696100Y-85104100D01*
X235696100Y-85754100D01*
G37*
G36*
X235196100Y-85754100D02*
G01*
X234946100Y-85754100D01*
X234946100Y-85104100D01*
X235196100Y-85104100D01*
X235196100Y-85754100D01*
G37*
G36*
X234696100Y-85754100D02*
G01*
X234446100Y-85754100D01*
X234446100Y-85104100D01*
X234696100Y-85104100D01*
X234696100Y-85754100D01*
G37*
G36*
X234196100Y-85754100D02*
G01*
X233946100Y-85754100D01*
X233946100Y-85104100D01*
X234196100Y-85104100D01*
X234196100Y-85754100D01*
G37*
G36*
X233696100Y-85754100D02*
G01*
X233446100Y-85754100D01*
X233446100Y-85104100D01*
X233696100Y-85104100D01*
X233696100Y-85754100D01*
G37*
G36*
X233196100Y-85754100D02*
G01*
X232946100Y-85754100D01*
X232946100Y-85104100D01*
X233196100Y-85104100D01*
X233196100Y-85754100D01*
G37*
G36*
X232696100Y-85754100D02*
G01*
X232446100Y-85754100D01*
X232446100Y-85104100D01*
X232696100Y-85104100D01*
X232696100Y-85754100D01*
G37*
G36*
X232196100Y-85754100D02*
G01*
X231946100Y-85754100D01*
X231946100Y-85104100D01*
X232196100Y-85104100D01*
X232196100Y-85754100D01*
G37*
G36*
X231696100Y-85754100D02*
G01*
X231446100Y-85754100D01*
X231446100Y-85104100D01*
X231696100Y-85104100D01*
X231696100Y-85754100D01*
G37*
G36*
X231196100Y-85754100D02*
G01*
X230946100Y-85754100D01*
X230946100Y-85104100D01*
X231196100Y-85104100D01*
X231196100Y-85754100D01*
G37*
G36*
X230696100Y-85754100D02*
G01*
X230446100Y-85754100D01*
X230446100Y-85104100D01*
X230696100Y-85104100D01*
X230696100Y-85754100D01*
G37*
G36*
X230196100Y-85754100D02*
G01*
X229946100Y-85754100D01*
X229946100Y-85104100D01*
X230196100Y-85104100D01*
X230196100Y-85754100D01*
G37*
G36*
X229696100Y-85754100D02*
G01*
X229446100Y-85754100D01*
X229446100Y-85104100D01*
X229696100Y-85104100D01*
X229696100Y-85754100D01*
G37*
G36*
X229196100Y-85754100D02*
G01*
X228946100Y-85754100D01*
X228946100Y-85104100D01*
X229196100Y-85104100D01*
X229196100Y-85754100D01*
G37*
G36*
X228696100Y-85754100D02*
G01*
X228446100Y-85754100D01*
X228446100Y-85104100D01*
X228696100Y-85104100D01*
X228696100Y-85754100D01*
G37*
%TO.C,IN15*%
G36*
X236196100Y-126902100D02*
G01*
X235946100Y-126902100D01*
X235946100Y-126252100D01*
X236196100Y-126252100D01*
X236196100Y-126902100D01*
G37*
G36*
X235696100Y-126902100D02*
G01*
X235446100Y-126902100D01*
X235446100Y-126252100D01*
X235696100Y-126252100D01*
X235696100Y-126902100D01*
G37*
G36*
X235196100Y-126902100D02*
G01*
X234946100Y-126902100D01*
X234946100Y-126252100D01*
X235196100Y-126252100D01*
X235196100Y-126902100D01*
G37*
G36*
X234696100Y-126902100D02*
G01*
X234446100Y-126902100D01*
X234446100Y-126252100D01*
X234696100Y-126252100D01*
X234696100Y-126902100D01*
G37*
G36*
X234196100Y-126902100D02*
G01*
X233946100Y-126902100D01*
X233946100Y-126252100D01*
X234196100Y-126252100D01*
X234196100Y-126902100D01*
G37*
G36*
X233696100Y-126902100D02*
G01*
X233446100Y-126902100D01*
X233446100Y-126252100D01*
X233696100Y-126252100D01*
X233696100Y-126902100D01*
G37*
G36*
X233196100Y-126902100D02*
G01*
X232946100Y-126902100D01*
X232946100Y-126252100D01*
X233196100Y-126252100D01*
X233196100Y-126902100D01*
G37*
G36*
X232696100Y-126902100D02*
G01*
X232446100Y-126902100D01*
X232446100Y-126252100D01*
X232696100Y-126252100D01*
X232696100Y-126902100D01*
G37*
G36*
X232196100Y-126902100D02*
G01*
X231946100Y-126902100D01*
X231946100Y-126252100D01*
X232196100Y-126252100D01*
X232196100Y-126902100D01*
G37*
G36*
X231696100Y-126902100D02*
G01*
X231446100Y-126902100D01*
X231446100Y-126252100D01*
X231696100Y-126252100D01*
X231696100Y-126902100D01*
G37*
G36*
X231196100Y-126902100D02*
G01*
X230946100Y-126902100D01*
X230946100Y-126252100D01*
X231196100Y-126252100D01*
X231196100Y-126902100D01*
G37*
G36*
X230696100Y-126902100D02*
G01*
X230446100Y-126902100D01*
X230446100Y-126252100D01*
X230696100Y-126252100D01*
X230696100Y-126902100D01*
G37*
G36*
X230196100Y-126902100D02*
G01*
X229946100Y-126902100D01*
X229946100Y-126252100D01*
X230196100Y-126252100D01*
X230196100Y-126902100D01*
G37*
G36*
X229696100Y-126902100D02*
G01*
X229446100Y-126902100D01*
X229446100Y-126252100D01*
X229696100Y-126252100D01*
X229696100Y-126902100D01*
G37*
G36*
X229196100Y-126902100D02*
G01*
X228946100Y-126902100D01*
X228946100Y-126252100D01*
X229196100Y-126252100D01*
X229196100Y-126902100D01*
G37*
G36*
X228696100Y-126902100D02*
G01*
X228446100Y-126902100D01*
X228446100Y-126252100D01*
X228696100Y-126252100D01*
X228696100Y-126902100D01*
G37*
%TO.C,IN18*%
G36*
X90908100Y-85754100D02*
G01*
X90658100Y-85754100D01*
X90658100Y-85104100D01*
X90908100Y-85104100D01*
X90908100Y-85754100D01*
G37*
G36*
X90408100Y-85754100D02*
G01*
X90158100Y-85754100D01*
X90158100Y-85104100D01*
X90408100Y-85104100D01*
X90408100Y-85754100D01*
G37*
G36*
X89908100Y-85754100D02*
G01*
X89658100Y-85754100D01*
X89658100Y-85104100D01*
X89908100Y-85104100D01*
X89908100Y-85754100D01*
G37*
G36*
X89408100Y-85754100D02*
G01*
X89158100Y-85754100D01*
X89158100Y-85104100D01*
X89408100Y-85104100D01*
X89408100Y-85754100D01*
G37*
G36*
X88908100Y-85754100D02*
G01*
X88658100Y-85754100D01*
X88658100Y-85104100D01*
X88908100Y-85104100D01*
X88908100Y-85754100D01*
G37*
G36*
X88408100Y-85754100D02*
G01*
X88158100Y-85754100D01*
X88158100Y-85104100D01*
X88408100Y-85104100D01*
X88408100Y-85754100D01*
G37*
G36*
X87908100Y-85754100D02*
G01*
X87658100Y-85754100D01*
X87658100Y-85104100D01*
X87908100Y-85104100D01*
X87908100Y-85754100D01*
G37*
G36*
X87408100Y-85754100D02*
G01*
X87158100Y-85754100D01*
X87158100Y-85104100D01*
X87408100Y-85104100D01*
X87408100Y-85754100D01*
G37*
G36*
X86908100Y-85754100D02*
G01*
X86658100Y-85754100D01*
X86658100Y-85104100D01*
X86908100Y-85104100D01*
X86908100Y-85754100D01*
G37*
G36*
X86408100Y-85754100D02*
G01*
X86158100Y-85754100D01*
X86158100Y-85104100D01*
X86408100Y-85104100D01*
X86408100Y-85754100D01*
G37*
G36*
X85908100Y-85754100D02*
G01*
X85658100Y-85754100D01*
X85658100Y-85104100D01*
X85908100Y-85104100D01*
X85908100Y-85754100D01*
G37*
G36*
X85408100Y-85754100D02*
G01*
X85158100Y-85754100D01*
X85158100Y-85104100D01*
X85408100Y-85104100D01*
X85408100Y-85754100D01*
G37*
G36*
X84908100Y-85754100D02*
G01*
X84658100Y-85754100D01*
X84658100Y-85104100D01*
X84908100Y-85104100D01*
X84908100Y-85754100D01*
G37*
G36*
X84408100Y-85754100D02*
G01*
X84158100Y-85754100D01*
X84158100Y-85104100D01*
X84408100Y-85104100D01*
X84408100Y-85754100D01*
G37*
G36*
X83908100Y-85754100D02*
G01*
X83658100Y-85754100D01*
X83658100Y-85104100D01*
X83908100Y-85104100D01*
X83908100Y-85754100D01*
G37*
G36*
X83408100Y-85754100D02*
G01*
X83158100Y-85754100D01*
X83158100Y-85104100D01*
X83408100Y-85104100D01*
X83408100Y-85754100D01*
G37*
%TO.C,IN7*%
G36*
X146788100Y-126902100D02*
G01*
X146538100Y-126902100D01*
X146538100Y-126252100D01*
X146788100Y-126252100D01*
X146788100Y-126902100D01*
G37*
G36*
X146288100Y-126902100D02*
G01*
X146038100Y-126902100D01*
X146038100Y-126252100D01*
X146288100Y-126252100D01*
X146288100Y-126902100D01*
G37*
G36*
X145788100Y-126902100D02*
G01*
X145538100Y-126902100D01*
X145538100Y-126252100D01*
X145788100Y-126252100D01*
X145788100Y-126902100D01*
G37*
G36*
X145288100Y-126902100D02*
G01*
X145038100Y-126902100D01*
X145038100Y-126252100D01*
X145288100Y-126252100D01*
X145288100Y-126902100D01*
G37*
G36*
X144788100Y-126902100D02*
G01*
X144538100Y-126902100D01*
X144538100Y-126252100D01*
X144788100Y-126252100D01*
X144788100Y-126902100D01*
G37*
G36*
X144288100Y-126902100D02*
G01*
X144038100Y-126902100D01*
X144038100Y-126252100D01*
X144288100Y-126252100D01*
X144288100Y-126902100D01*
G37*
G36*
X143788100Y-126902100D02*
G01*
X143538100Y-126902100D01*
X143538100Y-126252100D01*
X143788100Y-126252100D01*
X143788100Y-126902100D01*
G37*
G36*
X143288100Y-126902100D02*
G01*
X143038100Y-126902100D01*
X143038100Y-126252100D01*
X143288100Y-126252100D01*
X143288100Y-126902100D01*
G37*
G36*
X142788100Y-126902100D02*
G01*
X142538100Y-126902100D01*
X142538100Y-126252100D01*
X142788100Y-126252100D01*
X142788100Y-126902100D01*
G37*
G36*
X142288100Y-126902100D02*
G01*
X142038100Y-126902100D01*
X142038100Y-126252100D01*
X142288100Y-126252100D01*
X142288100Y-126902100D01*
G37*
G36*
X141788100Y-126902100D02*
G01*
X141538100Y-126902100D01*
X141538100Y-126252100D01*
X141788100Y-126252100D01*
X141788100Y-126902100D01*
G37*
G36*
X141288100Y-126902100D02*
G01*
X141038100Y-126902100D01*
X141038100Y-126252100D01*
X141288100Y-126252100D01*
X141288100Y-126902100D01*
G37*
G36*
X140788100Y-126902100D02*
G01*
X140538100Y-126902100D01*
X140538100Y-126252100D01*
X140788100Y-126252100D01*
X140788100Y-126902100D01*
G37*
G36*
X140288100Y-126902100D02*
G01*
X140038100Y-126902100D01*
X140038100Y-126252100D01*
X140288100Y-126252100D01*
X140288100Y-126902100D01*
G37*
G36*
X139788100Y-126902100D02*
G01*
X139538100Y-126902100D01*
X139538100Y-126252100D01*
X139788100Y-126252100D01*
X139788100Y-126902100D01*
G37*
G36*
X139288100Y-126902100D02*
G01*
X139038100Y-126902100D01*
X139038100Y-126252100D01*
X139288100Y-126252100D01*
X139288100Y-126902100D01*
G37*
%TO.C,IN32*%
G36*
X68556100Y-44606100D02*
G01*
X68306100Y-44606100D01*
X68306100Y-43956100D01*
X68556100Y-43956100D01*
X68556100Y-44606100D01*
G37*
G36*
X68056100Y-44606100D02*
G01*
X67806100Y-44606100D01*
X67806100Y-43956100D01*
X68056100Y-43956100D01*
X68056100Y-44606100D01*
G37*
G36*
X67556100Y-44606100D02*
G01*
X67306100Y-44606100D01*
X67306100Y-43956100D01*
X67556100Y-43956100D01*
X67556100Y-44606100D01*
G37*
G36*
X67056100Y-44606100D02*
G01*
X66806100Y-44606100D01*
X66806100Y-43956100D01*
X67056100Y-43956100D01*
X67056100Y-44606100D01*
G37*
G36*
X66556100Y-44606100D02*
G01*
X66306100Y-44606100D01*
X66306100Y-43956100D01*
X66556100Y-43956100D01*
X66556100Y-44606100D01*
G37*
G36*
X66056100Y-44606100D02*
G01*
X65806100Y-44606100D01*
X65806100Y-43956100D01*
X66056100Y-43956100D01*
X66056100Y-44606100D01*
G37*
G36*
X65556100Y-44606100D02*
G01*
X65306100Y-44606100D01*
X65306100Y-43956100D01*
X65556100Y-43956100D01*
X65556100Y-44606100D01*
G37*
G36*
X65056100Y-44606100D02*
G01*
X64806100Y-44606100D01*
X64806100Y-43956100D01*
X65056100Y-43956100D01*
X65056100Y-44606100D01*
G37*
G36*
X64556100Y-44606100D02*
G01*
X64306100Y-44606100D01*
X64306100Y-43956100D01*
X64556100Y-43956100D01*
X64556100Y-44606100D01*
G37*
G36*
X64056100Y-44606100D02*
G01*
X63806100Y-44606100D01*
X63806100Y-43956100D01*
X64056100Y-43956100D01*
X64056100Y-44606100D01*
G37*
G36*
X63556100Y-44606100D02*
G01*
X63306100Y-44606100D01*
X63306100Y-43956100D01*
X63556100Y-43956100D01*
X63556100Y-44606100D01*
G37*
G36*
X63056100Y-44606100D02*
G01*
X62806100Y-44606100D01*
X62806100Y-43956100D01*
X63056100Y-43956100D01*
X63056100Y-44606100D01*
G37*
G36*
X62556100Y-44606100D02*
G01*
X62306100Y-44606100D01*
X62306100Y-43956100D01*
X62556100Y-43956100D01*
X62556100Y-44606100D01*
G37*
G36*
X62056100Y-44606100D02*
G01*
X61806100Y-44606100D01*
X61806100Y-43956100D01*
X62056100Y-43956100D01*
X62056100Y-44606100D01*
G37*
G36*
X61556100Y-44606100D02*
G01*
X61306100Y-44606100D01*
X61306100Y-43956100D01*
X61556100Y-43956100D01*
X61556100Y-44606100D01*
G37*
G36*
X61056100Y-44606100D02*
G01*
X60806100Y-44606100D01*
X60806100Y-43956100D01*
X61056100Y-43956100D01*
X61056100Y-44606100D01*
G37*
%TO.C,IN2*%
G36*
X90908100Y-126902100D02*
G01*
X90658100Y-126902100D01*
X90658100Y-126252100D01*
X90908100Y-126252100D01*
X90908100Y-126902100D01*
G37*
G36*
X90408100Y-126902100D02*
G01*
X90158100Y-126902100D01*
X90158100Y-126252100D01*
X90408100Y-126252100D01*
X90408100Y-126902100D01*
G37*
G36*
X89908100Y-126902100D02*
G01*
X89658100Y-126902100D01*
X89658100Y-126252100D01*
X89908100Y-126252100D01*
X89908100Y-126902100D01*
G37*
G36*
X89408100Y-126902100D02*
G01*
X89158100Y-126902100D01*
X89158100Y-126252100D01*
X89408100Y-126252100D01*
X89408100Y-126902100D01*
G37*
G36*
X88908100Y-126902100D02*
G01*
X88658100Y-126902100D01*
X88658100Y-126252100D01*
X88908100Y-126252100D01*
X88908100Y-126902100D01*
G37*
G36*
X88408100Y-126902100D02*
G01*
X88158100Y-126902100D01*
X88158100Y-126252100D01*
X88408100Y-126252100D01*
X88408100Y-126902100D01*
G37*
G36*
X87908100Y-126902100D02*
G01*
X87658100Y-126902100D01*
X87658100Y-126252100D01*
X87908100Y-126252100D01*
X87908100Y-126902100D01*
G37*
G36*
X87408100Y-126902100D02*
G01*
X87158100Y-126902100D01*
X87158100Y-126252100D01*
X87408100Y-126252100D01*
X87408100Y-126902100D01*
G37*
G36*
X86908100Y-126902100D02*
G01*
X86658100Y-126902100D01*
X86658100Y-126252100D01*
X86908100Y-126252100D01*
X86908100Y-126902100D01*
G37*
G36*
X86408100Y-126902100D02*
G01*
X86158100Y-126902100D01*
X86158100Y-126252100D01*
X86408100Y-126252100D01*
X86408100Y-126902100D01*
G37*
G36*
X85908100Y-126902100D02*
G01*
X85658100Y-126902100D01*
X85658100Y-126252100D01*
X85908100Y-126252100D01*
X85908100Y-126902100D01*
G37*
G36*
X85408100Y-126902100D02*
G01*
X85158100Y-126902100D01*
X85158100Y-126252100D01*
X85408100Y-126252100D01*
X85408100Y-126902100D01*
G37*
G36*
X84908100Y-126902100D02*
G01*
X84658100Y-126902100D01*
X84658100Y-126252100D01*
X84908100Y-126252100D01*
X84908100Y-126902100D01*
G37*
G36*
X84408100Y-126902100D02*
G01*
X84158100Y-126902100D01*
X84158100Y-126252100D01*
X84408100Y-126252100D01*
X84408100Y-126902100D01*
G37*
G36*
X83908100Y-126902100D02*
G01*
X83658100Y-126902100D01*
X83658100Y-126252100D01*
X83908100Y-126252100D01*
X83908100Y-126902100D01*
G37*
G36*
X83408100Y-126902100D02*
G01*
X83158100Y-126902100D01*
X83158100Y-126252100D01*
X83408100Y-126252100D01*
X83408100Y-126902100D01*
G37*
%TO.C,IN5*%
G36*
X124436100Y-126902100D02*
G01*
X124186100Y-126902100D01*
X124186100Y-126252100D01*
X124436100Y-126252100D01*
X124436100Y-126902100D01*
G37*
G36*
X123936100Y-126902100D02*
G01*
X123686100Y-126902100D01*
X123686100Y-126252100D01*
X123936100Y-126252100D01*
X123936100Y-126902100D01*
G37*
G36*
X123436100Y-126902100D02*
G01*
X123186100Y-126902100D01*
X123186100Y-126252100D01*
X123436100Y-126252100D01*
X123436100Y-126902100D01*
G37*
G36*
X122936100Y-126902100D02*
G01*
X122686100Y-126902100D01*
X122686100Y-126252100D01*
X122936100Y-126252100D01*
X122936100Y-126902100D01*
G37*
G36*
X122436100Y-126902100D02*
G01*
X122186100Y-126902100D01*
X122186100Y-126252100D01*
X122436100Y-126252100D01*
X122436100Y-126902100D01*
G37*
G36*
X121936100Y-126902100D02*
G01*
X121686100Y-126902100D01*
X121686100Y-126252100D01*
X121936100Y-126252100D01*
X121936100Y-126902100D01*
G37*
G36*
X121436100Y-126902100D02*
G01*
X121186100Y-126902100D01*
X121186100Y-126252100D01*
X121436100Y-126252100D01*
X121436100Y-126902100D01*
G37*
G36*
X120936100Y-126902100D02*
G01*
X120686100Y-126902100D01*
X120686100Y-126252100D01*
X120936100Y-126252100D01*
X120936100Y-126902100D01*
G37*
G36*
X120436100Y-126902100D02*
G01*
X120186100Y-126902100D01*
X120186100Y-126252100D01*
X120436100Y-126252100D01*
X120436100Y-126902100D01*
G37*
G36*
X119936100Y-126902100D02*
G01*
X119686100Y-126902100D01*
X119686100Y-126252100D01*
X119936100Y-126252100D01*
X119936100Y-126902100D01*
G37*
G36*
X119436100Y-126902100D02*
G01*
X119186100Y-126902100D01*
X119186100Y-126252100D01*
X119436100Y-126252100D01*
X119436100Y-126902100D01*
G37*
G36*
X118936100Y-126902100D02*
G01*
X118686100Y-126902100D01*
X118686100Y-126252100D01*
X118936100Y-126252100D01*
X118936100Y-126902100D01*
G37*
G36*
X118436100Y-126902100D02*
G01*
X118186100Y-126902100D01*
X118186100Y-126252100D01*
X118436100Y-126252100D01*
X118436100Y-126902100D01*
G37*
G36*
X117936100Y-126902100D02*
G01*
X117686100Y-126902100D01*
X117686100Y-126252100D01*
X117936100Y-126252100D01*
X117936100Y-126902100D01*
G37*
G36*
X117436100Y-126902100D02*
G01*
X117186100Y-126902100D01*
X117186100Y-126252100D01*
X117436100Y-126252100D01*
X117436100Y-126902100D01*
G37*
G36*
X116936100Y-126902100D02*
G01*
X116686100Y-126902100D01*
X116686100Y-126252100D01*
X116936100Y-126252100D01*
X116936100Y-126902100D01*
G37*
%TO.C,IN36*%
G36*
X113260100Y-44606100D02*
G01*
X113010100Y-44606100D01*
X113010100Y-43956100D01*
X113260100Y-43956100D01*
X113260100Y-44606100D01*
G37*
G36*
X112760100Y-44606100D02*
G01*
X112510100Y-44606100D01*
X112510100Y-43956100D01*
X112760100Y-43956100D01*
X112760100Y-44606100D01*
G37*
G36*
X112260100Y-44606100D02*
G01*
X112010100Y-44606100D01*
X112010100Y-43956100D01*
X112260100Y-43956100D01*
X112260100Y-44606100D01*
G37*
G36*
X111760100Y-44606100D02*
G01*
X111510100Y-44606100D01*
X111510100Y-43956100D01*
X111760100Y-43956100D01*
X111760100Y-44606100D01*
G37*
G36*
X111260100Y-44606100D02*
G01*
X111010100Y-44606100D01*
X111010100Y-43956100D01*
X111260100Y-43956100D01*
X111260100Y-44606100D01*
G37*
G36*
X110760100Y-44606100D02*
G01*
X110510100Y-44606100D01*
X110510100Y-43956100D01*
X110760100Y-43956100D01*
X110760100Y-44606100D01*
G37*
G36*
X110260100Y-44606100D02*
G01*
X110010100Y-44606100D01*
X110010100Y-43956100D01*
X110260100Y-43956100D01*
X110260100Y-44606100D01*
G37*
G36*
X109760100Y-44606100D02*
G01*
X109510100Y-44606100D01*
X109510100Y-43956100D01*
X109760100Y-43956100D01*
X109760100Y-44606100D01*
G37*
G36*
X109260100Y-44606100D02*
G01*
X109010100Y-44606100D01*
X109010100Y-43956100D01*
X109260100Y-43956100D01*
X109260100Y-44606100D01*
G37*
G36*
X108760100Y-44606100D02*
G01*
X108510100Y-44606100D01*
X108510100Y-43956100D01*
X108760100Y-43956100D01*
X108760100Y-44606100D01*
G37*
G36*
X108260100Y-44606100D02*
G01*
X108010100Y-44606100D01*
X108010100Y-43956100D01*
X108260100Y-43956100D01*
X108260100Y-44606100D01*
G37*
G36*
X107760100Y-44606100D02*
G01*
X107510100Y-44606100D01*
X107510100Y-43956100D01*
X107760100Y-43956100D01*
X107760100Y-44606100D01*
G37*
G36*
X107260100Y-44606100D02*
G01*
X107010100Y-44606100D01*
X107010100Y-43956100D01*
X107260100Y-43956100D01*
X107260100Y-44606100D01*
G37*
G36*
X106760100Y-44606100D02*
G01*
X106510100Y-44606100D01*
X106510100Y-43956100D01*
X106760100Y-43956100D01*
X106760100Y-44606100D01*
G37*
G36*
X106260100Y-44606100D02*
G01*
X106010100Y-44606100D01*
X106010100Y-43956100D01*
X106260100Y-43956100D01*
X106260100Y-44606100D01*
G37*
G36*
X105760100Y-44606100D02*
G01*
X105510100Y-44606100D01*
X105510100Y-43956100D01*
X105760100Y-43956100D01*
X105760100Y-44606100D01*
G37*
%TO.C,IN3*%
G36*
X102084100Y-126902100D02*
G01*
X101834100Y-126902100D01*
X101834100Y-126252100D01*
X102084100Y-126252100D01*
X102084100Y-126902100D01*
G37*
G36*
X101584100Y-126902100D02*
G01*
X101334100Y-126902100D01*
X101334100Y-126252100D01*
X101584100Y-126252100D01*
X101584100Y-126902100D01*
G37*
G36*
X101084100Y-126902100D02*
G01*
X100834100Y-126902100D01*
X100834100Y-126252100D01*
X101084100Y-126252100D01*
X101084100Y-126902100D01*
G37*
G36*
X100584100Y-126902100D02*
G01*
X100334100Y-126902100D01*
X100334100Y-126252100D01*
X100584100Y-126252100D01*
X100584100Y-126902100D01*
G37*
G36*
X100084100Y-126902100D02*
G01*
X99834100Y-126902100D01*
X99834100Y-126252100D01*
X100084100Y-126252100D01*
X100084100Y-126902100D01*
G37*
G36*
X99584100Y-126902100D02*
G01*
X99334100Y-126902100D01*
X99334100Y-126252100D01*
X99584100Y-126252100D01*
X99584100Y-126902100D01*
G37*
G36*
X99084100Y-126902100D02*
G01*
X98834100Y-126902100D01*
X98834100Y-126252100D01*
X99084100Y-126252100D01*
X99084100Y-126902100D01*
G37*
G36*
X98584100Y-126902100D02*
G01*
X98334100Y-126902100D01*
X98334100Y-126252100D01*
X98584100Y-126252100D01*
X98584100Y-126902100D01*
G37*
G36*
X98084100Y-126902100D02*
G01*
X97834100Y-126902100D01*
X97834100Y-126252100D01*
X98084100Y-126252100D01*
X98084100Y-126902100D01*
G37*
G36*
X97584100Y-126902100D02*
G01*
X97334100Y-126902100D01*
X97334100Y-126252100D01*
X97584100Y-126252100D01*
X97584100Y-126902100D01*
G37*
G36*
X97084100Y-126902100D02*
G01*
X96834100Y-126902100D01*
X96834100Y-126252100D01*
X97084100Y-126252100D01*
X97084100Y-126902100D01*
G37*
G36*
X96584100Y-126902100D02*
G01*
X96334100Y-126902100D01*
X96334100Y-126252100D01*
X96584100Y-126252100D01*
X96584100Y-126902100D01*
G37*
G36*
X96084100Y-126902100D02*
G01*
X95834100Y-126902100D01*
X95834100Y-126252100D01*
X96084100Y-126252100D01*
X96084100Y-126902100D01*
G37*
G36*
X95584100Y-126902100D02*
G01*
X95334100Y-126902100D01*
X95334100Y-126252100D01*
X95584100Y-126252100D01*
X95584100Y-126902100D01*
G37*
G36*
X95084100Y-126902100D02*
G01*
X94834100Y-126902100D01*
X94834100Y-126252100D01*
X95084100Y-126252100D01*
X95084100Y-126902100D01*
G37*
G36*
X94584100Y-126902100D02*
G01*
X94334100Y-126902100D01*
X94334100Y-126252100D01*
X94584100Y-126252100D01*
X94584100Y-126902100D01*
G37*
%TO.C,IN16*%
G36*
X68556100Y-85754100D02*
G01*
X68306100Y-85754100D01*
X68306100Y-85104100D01*
X68556100Y-85104100D01*
X68556100Y-85754100D01*
G37*
G36*
X68056100Y-85754100D02*
G01*
X67806100Y-85754100D01*
X67806100Y-85104100D01*
X68056100Y-85104100D01*
X68056100Y-85754100D01*
G37*
G36*
X67556100Y-85754100D02*
G01*
X67306100Y-85754100D01*
X67306100Y-85104100D01*
X67556100Y-85104100D01*
X67556100Y-85754100D01*
G37*
G36*
X67056100Y-85754100D02*
G01*
X66806100Y-85754100D01*
X66806100Y-85104100D01*
X67056100Y-85104100D01*
X67056100Y-85754100D01*
G37*
G36*
X66556100Y-85754100D02*
G01*
X66306100Y-85754100D01*
X66306100Y-85104100D01*
X66556100Y-85104100D01*
X66556100Y-85754100D01*
G37*
G36*
X66056100Y-85754100D02*
G01*
X65806100Y-85754100D01*
X65806100Y-85104100D01*
X66056100Y-85104100D01*
X66056100Y-85754100D01*
G37*
G36*
X65556100Y-85754100D02*
G01*
X65306100Y-85754100D01*
X65306100Y-85104100D01*
X65556100Y-85104100D01*
X65556100Y-85754100D01*
G37*
G36*
X65056100Y-85754100D02*
G01*
X64806100Y-85754100D01*
X64806100Y-85104100D01*
X65056100Y-85104100D01*
X65056100Y-85754100D01*
G37*
G36*
X64556100Y-85754100D02*
G01*
X64306100Y-85754100D01*
X64306100Y-85104100D01*
X64556100Y-85104100D01*
X64556100Y-85754100D01*
G37*
G36*
X64056100Y-85754100D02*
G01*
X63806100Y-85754100D01*
X63806100Y-85104100D01*
X64056100Y-85104100D01*
X64056100Y-85754100D01*
G37*
G36*
X63556100Y-85754100D02*
G01*
X63306100Y-85754100D01*
X63306100Y-85104100D01*
X63556100Y-85104100D01*
X63556100Y-85754100D01*
G37*
G36*
X63056100Y-85754100D02*
G01*
X62806100Y-85754100D01*
X62806100Y-85104100D01*
X63056100Y-85104100D01*
X63056100Y-85754100D01*
G37*
G36*
X62556100Y-85754100D02*
G01*
X62306100Y-85754100D01*
X62306100Y-85104100D01*
X62556100Y-85104100D01*
X62556100Y-85754100D01*
G37*
G36*
X62056100Y-85754100D02*
G01*
X61806100Y-85754100D01*
X61806100Y-85104100D01*
X62056100Y-85104100D01*
X62056100Y-85754100D01*
G37*
G36*
X61556100Y-85754100D02*
G01*
X61306100Y-85754100D01*
X61306100Y-85104100D01*
X61556100Y-85104100D01*
X61556100Y-85754100D01*
G37*
G36*
X61056100Y-85754100D02*
G01*
X60806100Y-85754100D01*
X60806100Y-85104100D01*
X61056100Y-85104100D01*
X61056100Y-85754100D01*
G37*
%TO.C,IN34*%
G36*
X90908100Y-44606100D02*
G01*
X90658100Y-44606100D01*
X90658100Y-43956100D01*
X90908100Y-43956100D01*
X90908100Y-44606100D01*
G37*
G36*
X90408100Y-44606100D02*
G01*
X90158100Y-44606100D01*
X90158100Y-43956100D01*
X90408100Y-43956100D01*
X90408100Y-44606100D01*
G37*
G36*
X89908100Y-44606100D02*
G01*
X89658100Y-44606100D01*
X89658100Y-43956100D01*
X89908100Y-43956100D01*
X89908100Y-44606100D01*
G37*
G36*
X89408100Y-44606100D02*
G01*
X89158100Y-44606100D01*
X89158100Y-43956100D01*
X89408100Y-43956100D01*
X89408100Y-44606100D01*
G37*
G36*
X88908100Y-44606100D02*
G01*
X88658100Y-44606100D01*
X88658100Y-43956100D01*
X88908100Y-43956100D01*
X88908100Y-44606100D01*
G37*
G36*
X88408100Y-44606100D02*
G01*
X88158100Y-44606100D01*
X88158100Y-43956100D01*
X88408100Y-43956100D01*
X88408100Y-44606100D01*
G37*
G36*
X87908100Y-44606100D02*
G01*
X87658100Y-44606100D01*
X87658100Y-43956100D01*
X87908100Y-43956100D01*
X87908100Y-44606100D01*
G37*
G36*
X87408100Y-44606100D02*
G01*
X87158100Y-44606100D01*
X87158100Y-43956100D01*
X87408100Y-43956100D01*
X87408100Y-44606100D01*
G37*
G36*
X86908100Y-44606100D02*
G01*
X86658100Y-44606100D01*
X86658100Y-43956100D01*
X86908100Y-43956100D01*
X86908100Y-44606100D01*
G37*
G36*
X86408100Y-44606100D02*
G01*
X86158100Y-44606100D01*
X86158100Y-43956100D01*
X86408100Y-43956100D01*
X86408100Y-44606100D01*
G37*
G36*
X85908100Y-44606100D02*
G01*
X85658100Y-44606100D01*
X85658100Y-43956100D01*
X85908100Y-43956100D01*
X85908100Y-44606100D01*
G37*
G36*
X85408100Y-44606100D02*
G01*
X85158100Y-44606100D01*
X85158100Y-43956100D01*
X85408100Y-43956100D01*
X85408100Y-44606100D01*
G37*
G36*
X84908100Y-44606100D02*
G01*
X84658100Y-44606100D01*
X84658100Y-43956100D01*
X84908100Y-43956100D01*
X84908100Y-44606100D01*
G37*
G36*
X84408100Y-44606100D02*
G01*
X84158100Y-44606100D01*
X84158100Y-43956100D01*
X84408100Y-43956100D01*
X84408100Y-44606100D01*
G37*
G36*
X83908100Y-44606100D02*
G01*
X83658100Y-44606100D01*
X83658100Y-43956100D01*
X83908100Y-43956100D01*
X83908100Y-44606100D01*
G37*
G36*
X83408100Y-44606100D02*
G01*
X83158100Y-44606100D01*
X83158100Y-43956100D01*
X83408100Y-43956100D01*
X83408100Y-44606100D01*
G37*
%TO.C,IN29*%
G36*
X213844100Y-85754100D02*
G01*
X213594100Y-85754100D01*
X213594100Y-85104100D01*
X213844100Y-85104100D01*
X213844100Y-85754100D01*
G37*
G36*
X213344100Y-85754100D02*
G01*
X213094100Y-85754100D01*
X213094100Y-85104100D01*
X213344100Y-85104100D01*
X213344100Y-85754100D01*
G37*
G36*
X212844100Y-85754100D02*
G01*
X212594100Y-85754100D01*
X212594100Y-85104100D01*
X212844100Y-85104100D01*
X212844100Y-85754100D01*
G37*
G36*
X212344100Y-85754100D02*
G01*
X212094100Y-85754100D01*
X212094100Y-85104100D01*
X212344100Y-85104100D01*
X212344100Y-85754100D01*
G37*
G36*
X211844100Y-85754100D02*
G01*
X211594100Y-85754100D01*
X211594100Y-85104100D01*
X211844100Y-85104100D01*
X211844100Y-85754100D01*
G37*
G36*
X211344100Y-85754100D02*
G01*
X211094100Y-85754100D01*
X211094100Y-85104100D01*
X211344100Y-85104100D01*
X211344100Y-85754100D01*
G37*
G36*
X210844100Y-85754100D02*
G01*
X210594100Y-85754100D01*
X210594100Y-85104100D01*
X210844100Y-85104100D01*
X210844100Y-85754100D01*
G37*
G36*
X210344100Y-85754100D02*
G01*
X210094100Y-85754100D01*
X210094100Y-85104100D01*
X210344100Y-85104100D01*
X210344100Y-85754100D01*
G37*
G36*
X209844100Y-85754100D02*
G01*
X209594100Y-85754100D01*
X209594100Y-85104100D01*
X209844100Y-85104100D01*
X209844100Y-85754100D01*
G37*
G36*
X209344100Y-85754100D02*
G01*
X209094100Y-85754100D01*
X209094100Y-85104100D01*
X209344100Y-85104100D01*
X209344100Y-85754100D01*
G37*
G36*
X208844100Y-85754100D02*
G01*
X208594100Y-85754100D01*
X208594100Y-85104100D01*
X208844100Y-85104100D01*
X208844100Y-85754100D01*
G37*
G36*
X208344100Y-85754100D02*
G01*
X208094100Y-85754100D01*
X208094100Y-85104100D01*
X208344100Y-85104100D01*
X208344100Y-85754100D01*
G37*
G36*
X207844100Y-85754100D02*
G01*
X207594100Y-85754100D01*
X207594100Y-85104100D01*
X207844100Y-85104100D01*
X207844100Y-85754100D01*
G37*
G36*
X207344100Y-85754100D02*
G01*
X207094100Y-85754100D01*
X207094100Y-85104100D01*
X207344100Y-85104100D01*
X207344100Y-85754100D01*
G37*
G36*
X206844100Y-85754100D02*
G01*
X206594100Y-85754100D01*
X206594100Y-85104100D01*
X206844100Y-85104100D01*
X206844100Y-85754100D01*
G37*
G36*
X206344100Y-85754100D02*
G01*
X206094100Y-85754100D01*
X206094100Y-85104100D01*
X206344100Y-85104100D01*
X206344100Y-85754100D01*
G37*
%TO.C,IN23*%
G36*
X146788100Y-85754100D02*
G01*
X146538100Y-85754100D01*
X146538100Y-85104100D01*
X146788100Y-85104100D01*
X146788100Y-85754100D01*
G37*
G36*
X146288100Y-85754100D02*
G01*
X146038100Y-85754100D01*
X146038100Y-85104100D01*
X146288100Y-85104100D01*
X146288100Y-85754100D01*
G37*
G36*
X145788100Y-85754100D02*
G01*
X145538100Y-85754100D01*
X145538100Y-85104100D01*
X145788100Y-85104100D01*
X145788100Y-85754100D01*
G37*
G36*
X145288100Y-85754100D02*
G01*
X145038100Y-85754100D01*
X145038100Y-85104100D01*
X145288100Y-85104100D01*
X145288100Y-85754100D01*
G37*
G36*
X144788100Y-85754100D02*
G01*
X144538100Y-85754100D01*
X144538100Y-85104100D01*
X144788100Y-85104100D01*
X144788100Y-85754100D01*
G37*
G36*
X144288100Y-85754100D02*
G01*
X144038100Y-85754100D01*
X144038100Y-85104100D01*
X144288100Y-85104100D01*
X144288100Y-85754100D01*
G37*
G36*
X143788100Y-85754100D02*
G01*
X143538100Y-85754100D01*
X143538100Y-85104100D01*
X143788100Y-85104100D01*
X143788100Y-85754100D01*
G37*
G36*
X143288100Y-85754100D02*
G01*
X143038100Y-85754100D01*
X143038100Y-85104100D01*
X143288100Y-85104100D01*
X143288100Y-85754100D01*
G37*
G36*
X142788100Y-85754100D02*
G01*
X142538100Y-85754100D01*
X142538100Y-85104100D01*
X142788100Y-85104100D01*
X142788100Y-85754100D01*
G37*
G36*
X142288100Y-85754100D02*
G01*
X142038100Y-85754100D01*
X142038100Y-85104100D01*
X142288100Y-85104100D01*
X142288100Y-85754100D01*
G37*
G36*
X141788100Y-85754100D02*
G01*
X141538100Y-85754100D01*
X141538100Y-85104100D01*
X141788100Y-85104100D01*
X141788100Y-85754100D01*
G37*
G36*
X141288100Y-85754100D02*
G01*
X141038100Y-85754100D01*
X141038100Y-85104100D01*
X141288100Y-85104100D01*
X141288100Y-85754100D01*
G37*
G36*
X140788100Y-85754100D02*
G01*
X140538100Y-85754100D01*
X140538100Y-85104100D01*
X140788100Y-85104100D01*
X140788100Y-85754100D01*
G37*
G36*
X140288100Y-85754100D02*
G01*
X140038100Y-85754100D01*
X140038100Y-85104100D01*
X140288100Y-85104100D01*
X140288100Y-85754100D01*
G37*
G36*
X139788100Y-85754100D02*
G01*
X139538100Y-85754100D01*
X139538100Y-85104100D01*
X139788100Y-85104100D01*
X139788100Y-85754100D01*
G37*
G36*
X139288100Y-85754100D02*
G01*
X139038100Y-85754100D01*
X139038100Y-85104100D01*
X139288100Y-85104100D01*
X139288100Y-85754100D01*
G37*
%TO.C,IN6*%
G36*
X135612100Y-126902100D02*
G01*
X135362100Y-126902100D01*
X135362100Y-126252100D01*
X135612100Y-126252100D01*
X135612100Y-126902100D01*
G37*
G36*
X135112100Y-126902100D02*
G01*
X134862100Y-126902100D01*
X134862100Y-126252100D01*
X135112100Y-126252100D01*
X135112100Y-126902100D01*
G37*
G36*
X134612100Y-126902100D02*
G01*
X134362100Y-126902100D01*
X134362100Y-126252100D01*
X134612100Y-126252100D01*
X134612100Y-126902100D01*
G37*
G36*
X134112100Y-126902100D02*
G01*
X133862100Y-126902100D01*
X133862100Y-126252100D01*
X134112100Y-126252100D01*
X134112100Y-126902100D01*
G37*
G36*
X133612100Y-126902100D02*
G01*
X133362100Y-126902100D01*
X133362100Y-126252100D01*
X133612100Y-126252100D01*
X133612100Y-126902100D01*
G37*
G36*
X133112100Y-126902100D02*
G01*
X132862100Y-126902100D01*
X132862100Y-126252100D01*
X133112100Y-126252100D01*
X133112100Y-126902100D01*
G37*
G36*
X132612100Y-126902100D02*
G01*
X132362100Y-126902100D01*
X132362100Y-126252100D01*
X132612100Y-126252100D01*
X132612100Y-126902100D01*
G37*
G36*
X132112100Y-126902100D02*
G01*
X131862100Y-126902100D01*
X131862100Y-126252100D01*
X132112100Y-126252100D01*
X132112100Y-126902100D01*
G37*
G36*
X131612100Y-126902100D02*
G01*
X131362100Y-126902100D01*
X131362100Y-126252100D01*
X131612100Y-126252100D01*
X131612100Y-126902100D01*
G37*
G36*
X131112100Y-126902100D02*
G01*
X130862100Y-126902100D01*
X130862100Y-126252100D01*
X131112100Y-126252100D01*
X131112100Y-126902100D01*
G37*
G36*
X130612100Y-126902100D02*
G01*
X130362100Y-126902100D01*
X130362100Y-126252100D01*
X130612100Y-126252100D01*
X130612100Y-126902100D01*
G37*
G36*
X130112100Y-126902100D02*
G01*
X129862100Y-126902100D01*
X129862100Y-126252100D01*
X130112100Y-126252100D01*
X130112100Y-126902100D01*
G37*
G36*
X129612100Y-126902100D02*
G01*
X129362100Y-126902100D01*
X129362100Y-126252100D01*
X129612100Y-126252100D01*
X129612100Y-126902100D01*
G37*
G36*
X129112100Y-126902100D02*
G01*
X128862100Y-126902100D01*
X128862100Y-126252100D01*
X129112100Y-126252100D01*
X129112100Y-126902100D01*
G37*
G36*
X128612100Y-126902100D02*
G01*
X128362100Y-126902100D01*
X128362100Y-126252100D01*
X128612100Y-126252100D01*
X128612100Y-126902100D01*
G37*
G36*
X128112100Y-126902100D02*
G01*
X127862100Y-126902100D01*
X127862100Y-126252100D01*
X128112100Y-126252100D01*
X128112100Y-126902100D01*
G37*
%TO.C,IN26*%
G36*
X180316100Y-85754100D02*
G01*
X180066100Y-85754100D01*
X180066100Y-85104100D01*
X180316100Y-85104100D01*
X180316100Y-85754100D01*
G37*
G36*
X179816100Y-85754100D02*
G01*
X179566100Y-85754100D01*
X179566100Y-85104100D01*
X179816100Y-85104100D01*
X179816100Y-85754100D01*
G37*
G36*
X179316100Y-85754100D02*
G01*
X179066100Y-85754100D01*
X179066100Y-85104100D01*
X179316100Y-85104100D01*
X179316100Y-85754100D01*
G37*
G36*
X178816100Y-85754100D02*
G01*
X178566100Y-85754100D01*
X178566100Y-85104100D01*
X178816100Y-85104100D01*
X178816100Y-85754100D01*
G37*
G36*
X178316100Y-85754100D02*
G01*
X178066100Y-85754100D01*
X178066100Y-85104100D01*
X178316100Y-85104100D01*
X178316100Y-85754100D01*
G37*
G36*
X177816100Y-85754100D02*
G01*
X177566100Y-85754100D01*
X177566100Y-85104100D01*
X177816100Y-85104100D01*
X177816100Y-85754100D01*
G37*
G36*
X177316100Y-85754100D02*
G01*
X177066100Y-85754100D01*
X177066100Y-85104100D01*
X177316100Y-85104100D01*
X177316100Y-85754100D01*
G37*
G36*
X176816100Y-85754100D02*
G01*
X176566100Y-85754100D01*
X176566100Y-85104100D01*
X176816100Y-85104100D01*
X176816100Y-85754100D01*
G37*
G36*
X176316100Y-85754100D02*
G01*
X176066100Y-85754100D01*
X176066100Y-85104100D01*
X176316100Y-85104100D01*
X176316100Y-85754100D01*
G37*
G36*
X175816100Y-85754100D02*
G01*
X175566100Y-85754100D01*
X175566100Y-85104100D01*
X175816100Y-85104100D01*
X175816100Y-85754100D01*
G37*
G36*
X175316100Y-85754100D02*
G01*
X175066100Y-85754100D01*
X175066100Y-85104100D01*
X175316100Y-85104100D01*
X175316100Y-85754100D01*
G37*
G36*
X174816100Y-85754100D02*
G01*
X174566100Y-85754100D01*
X174566100Y-85104100D01*
X174816100Y-85104100D01*
X174816100Y-85754100D01*
G37*
G36*
X174316100Y-85754100D02*
G01*
X174066100Y-85754100D01*
X174066100Y-85104100D01*
X174316100Y-85104100D01*
X174316100Y-85754100D01*
G37*
G36*
X173816100Y-85754100D02*
G01*
X173566100Y-85754100D01*
X173566100Y-85104100D01*
X173816100Y-85104100D01*
X173816100Y-85754100D01*
G37*
G36*
X173316100Y-85754100D02*
G01*
X173066100Y-85754100D01*
X173066100Y-85104100D01*
X173316100Y-85104100D01*
X173316100Y-85754100D01*
G37*
G36*
X172816100Y-85754100D02*
G01*
X172566100Y-85754100D01*
X172566100Y-85104100D01*
X172816100Y-85104100D01*
X172816100Y-85754100D01*
G37*
%TO.C,IN35*%
G36*
X102084100Y-44606100D02*
G01*
X101834100Y-44606100D01*
X101834100Y-43956100D01*
X102084100Y-43956100D01*
X102084100Y-44606100D01*
G37*
G36*
X101584100Y-44606100D02*
G01*
X101334100Y-44606100D01*
X101334100Y-43956100D01*
X101584100Y-43956100D01*
X101584100Y-44606100D01*
G37*
G36*
X101084100Y-44606100D02*
G01*
X100834100Y-44606100D01*
X100834100Y-43956100D01*
X101084100Y-43956100D01*
X101084100Y-44606100D01*
G37*
G36*
X100584100Y-44606100D02*
G01*
X100334100Y-44606100D01*
X100334100Y-43956100D01*
X100584100Y-43956100D01*
X100584100Y-44606100D01*
G37*
G36*
X100084100Y-44606100D02*
G01*
X99834100Y-44606100D01*
X99834100Y-43956100D01*
X100084100Y-43956100D01*
X100084100Y-44606100D01*
G37*
G36*
X99584100Y-44606100D02*
G01*
X99334100Y-44606100D01*
X99334100Y-43956100D01*
X99584100Y-43956100D01*
X99584100Y-44606100D01*
G37*
G36*
X99084100Y-44606100D02*
G01*
X98834100Y-44606100D01*
X98834100Y-43956100D01*
X99084100Y-43956100D01*
X99084100Y-44606100D01*
G37*
G36*
X98584100Y-44606100D02*
G01*
X98334100Y-44606100D01*
X98334100Y-43956100D01*
X98584100Y-43956100D01*
X98584100Y-44606100D01*
G37*
G36*
X98084100Y-44606100D02*
G01*
X97834100Y-44606100D01*
X97834100Y-43956100D01*
X98084100Y-43956100D01*
X98084100Y-44606100D01*
G37*
G36*
X97584100Y-44606100D02*
G01*
X97334100Y-44606100D01*
X97334100Y-43956100D01*
X97584100Y-43956100D01*
X97584100Y-44606100D01*
G37*
G36*
X97084100Y-44606100D02*
G01*
X96834100Y-44606100D01*
X96834100Y-43956100D01*
X97084100Y-43956100D01*
X97084100Y-44606100D01*
G37*
G36*
X96584100Y-44606100D02*
G01*
X96334100Y-44606100D01*
X96334100Y-43956100D01*
X96584100Y-43956100D01*
X96584100Y-44606100D01*
G37*
G36*
X96084100Y-44606100D02*
G01*
X95834100Y-44606100D01*
X95834100Y-43956100D01*
X96084100Y-43956100D01*
X96084100Y-44606100D01*
G37*
G36*
X95584100Y-44606100D02*
G01*
X95334100Y-44606100D01*
X95334100Y-43956100D01*
X95584100Y-43956100D01*
X95584100Y-44606100D01*
G37*
G36*
X95084100Y-44606100D02*
G01*
X94834100Y-44606100D01*
X94834100Y-43956100D01*
X95084100Y-43956100D01*
X95084100Y-44606100D01*
G37*
G36*
X94584100Y-44606100D02*
G01*
X94334100Y-44606100D01*
X94334100Y-43956100D01*
X94584100Y-43956100D01*
X94584100Y-44606100D01*
G37*
%TO.C,IN4*%
G36*
X113260100Y-126902100D02*
G01*
X113010100Y-126902100D01*
X113010100Y-126252100D01*
X113260100Y-126252100D01*
X113260100Y-126902100D01*
G37*
G36*
X112760100Y-126902100D02*
G01*
X112510100Y-126902100D01*
X112510100Y-126252100D01*
X112760100Y-126252100D01*
X112760100Y-126902100D01*
G37*
G36*
X112260100Y-126902100D02*
G01*
X112010100Y-126902100D01*
X112010100Y-126252100D01*
X112260100Y-126252100D01*
X112260100Y-126902100D01*
G37*
G36*
X111760100Y-126902100D02*
G01*
X111510100Y-126902100D01*
X111510100Y-126252100D01*
X111760100Y-126252100D01*
X111760100Y-126902100D01*
G37*
G36*
X111260100Y-126902100D02*
G01*
X111010100Y-126902100D01*
X111010100Y-126252100D01*
X111260100Y-126252100D01*
X111260100Y-126902100D01*
G37*
G36*
X110760100Y-126902100D02*
G01*
X110510100Y-126902100D01*
X110510100Y-126252100D01*
X110760100Y-126252100D01*
X110760100Y-126902100D01*
G37*
G36*
X110260100Y-126902100D02*
G01*
X110010100Y-126902100D01*
X110010100Y-126252100D01*
X110260100Y-126252100D01*
X110260100Y-126902100D01*
G37*
G36*
X109760100Y-126902100D02*
G01*
X109510100Y-126902100D01*
X109510100Y-126252100D01*
X109760100Y-126252100D01*
X109760100Y-126902100D01*
G37*
G36*
X109260100Y-126902100D02*
G01*
X109010100Y-126902100D01*
X109010100Y-126252100D01*
X109260100Y-126252100D01*
X109260100Y-126902100D01*
G37*
G36*
X108760100Y-126902100D02*
G01*
X108510100Y-126902100D01*
X108510100Y-126252100D01*
X108760100Y-126252100D01*
X108760100Y-126902100D01*
G37*
G36*
X108260100Y-126902100D02*
G01*
X108010100Y-126902100D01*
X108010100Y-126252100D01*
X108260100Y-126252100D01*
X108260100Y-126902100D01*
G37*
G36*
X107760100Y-126902100D02*
G01*
X107510100Y-126902100D01*
X107510100Y-126252100D01*
X107760100Y-126252100D01*
X107760100Y-126902100D01*
G37*
G36*
X107260100Y-126902100D02*
G01*
X107010100Y-126902100D01*
X107010100Y-126252100D01*
X107260100Y-126252100D01*
X107260100Y-126902100D01*
G37*
G36*
X106760100Y-126902100D02*
G01*
X106510100Y-126902100D01*
X106510100Y-126252100D01*
X106760100Y-126252100D01*
X106760100Y-126902100D01*
G37*
G36*
X106260100Y-126902100D02*
G01*
X106010100Y-126902100D01*
X106010100Y-126252100D01*
X106260100Y-126252100D01*
X106260100Y-126902100D01*
G37*
G36*
X105760100Y-126902100D02*
G01*
X105510100Y-126902100D01*
X105510100Y-126252100D01*
X105760100Y-126252100D01*
X105760100Y-126902100D01*
G37*
%TO.C,IN17*%
G36*
X79732100Y-85754100D02*
G01*
X79482100Y-85754100D01*
X79482100Y-85104100D01*
X79732100Y-85104100D01*
X79732100Y-85754100D01*
G37*
G36*
X79232100Y-85754100D02*
G01*
X78982100Y-85754100D01*
X78982100Y-85104100D01*
X79232100Y-85104100D01*
X79232100Y-85754100D01*
G37*
G36*
X78732100Y-85754100D02*
G01*
X78482100Y-85754100D01*
X78482100Y-85104100D01*
X78732100Y-85104100D01*
X78732100Y-85754100D01*
G37*
G36*
X78232100Y-85754100D02*
G01*
X77982100Y-85754100D01*
X77982100Y-85104100D01*
X78232100Y-85104100D01*
X78232100Y-85754100D01*
G37*
G36*
X77732100Y-85754100D02*
G01*
X77482100Y-85754100D01*
X77482100Y-85104100D01*
X77732100Y-85104100D01*
X77732100Y-85754100D01*
G37*
G36*
X77232100Y-85754100D02*
G01*
X76982100Y-85754100D01*
X76982100Y-85104100D01*
X77232100Y-85104100D01*
X77232100Y-85754100D01*
G37*
G36*
X76732100Y-85754100D02*
G01*
X76482100Y-85754100D01*
X76482100Y-85104100D01*
X76732100Y-85104100D01*
X76732100Y-85754100D01*
G37*
G36*
X76232100Y-85754100D02*
G01*
X75982100Y-85754100D01*
X75982100Y-85104100D01*
X76232100Y-85104100D01*
X76232100Y-85754100D01*
G37*
G36*
X75732100Y-85754100D02*
G01*
X75482100Y-85754100D01*
X75482100Y-85104100D01*
X75732100Y-85104100D01*
X75732100Y-85754100D01*
G37*
G36*
X75232100Y-85754100D02*
G01*
X74982100Y-85754100D01*
X74982100Y-85104100D01*
X75232100Y-85104100D01*
X75232100Y-85754100D01*
G37*
G36*
X74732100Y-85754100D02*
G01*
X74482100Y-85754100D01*
X74482100Y-85104100D01*
X74732100Y-85104100D01*
X74732100Y-85754100D01*
G37*
G36*
X74232100Y-85754100D02*
G01*
X73982100Y-85754100D01*
X73982100Y-85104100D01*
X74232100Y-85104100D01*
X74232100Y-85754100D01*
G37*
G36*
X73732100Y-85754100D02*
G01*
X73482100Y-85754100D01*
X73482100Y-85104100D01*
X73732100Y-85104100D01*
X73732100Y-85754100D01*
G37*
G36*
X73232100Y-85754100D02*
G01*
X72982100Y-85754100D01*
X72982100Y-85104100D01*
X73232100Y-85104100D01*
X73232100Y-85754100D01*
G37*
G36*
X72732100Y-85754100D02*
G01*
X72482100Y-85754100D01*
X72482100Y-85104100D01*
X72732100Y-85104100D01*
X72732100Y-85754100D01*
G37*
G36*
X72232100Y-85754100D02*
G01*
X71982100Y-85754100D01*
X71982100Y-85104100D01*
X72232100Y-85104100D01*
X72232100Y-85754100D01*
G37*
%TO.C,IN42*%
G36*
X180316100Y-44606100D02*
G01*
X180066100Y-44606100D01*
X180066100Y-43956100D01*
X180316100Y-43956100D01*
X180316100Y-44606100D01*
G37*
G36*
X179816100Y-44606100D02*
G01*
X179566100Y-44606100D01*
X179566100Y-43956100D01*
X179816100Y-43956100D01*
X179816100Y-44606100D01*
G37*
G36*
X179316100Y-44606100D02*
G01*
X179066100Y-44606100D01*
X179066100Y-43956100D01*
X179316100Y-43956100D01*
X179316100Y-44606100D01*
G37*
G36*
X178816100Y-44606100D02*
G01*
X178566100Y-44606100D01*
X178566100Y-43956100D01*
X178816100Y-43956100D01*
X178816100Y-44606100D01*
G37*
G36*
X178316100Y-44606100D02*
G01*
X178066100Y-44606100D01*
X178066100Y-43956100D01*
X178316100Y-43956100D01*
X178316100Y-44606100D01*
G37*
G36*
X177816100Y-44606100D02*
G01*
X177566100Y-44606100D01*
X177566100Y-43956100D01*
X177816100Y-43956100D01*
X177816100Y-44606100D01*
G37*
G36*
X177316100Y-44606100D02*
G01*
X177066100Y-44606100D01*
X177066100Y-43956100D01*
X177316100Y-43956100D01*
X177316100Y-44606100D01*
G37*
G36*
X176816100Y-44606100D02*
G01*
X176566100Y-44606100D01*
X176566100Y-43956100D01*
X176816100Y-43956100D01*
X176816100Y-44606100D01*
G37*
G36*
X176316100Y-44606100D02*
G01*
X176066100Y-44606100D01*
X176066100Y-43956100D01*
X176316100Y-43956100D01*
X176316100Y-44606100D01*
G37*
G36*
X175816100Y-44606100D02*
G01*
X175566100Y-44606100D01*
X175566100Y-43956100D01*
X175816100Y-43956100D01*
X175816100Y-44606100D01*
G37*
G36*
X175316100Y-44606100D02*
G01*
X175066100Y-44606100D01*
X175066100Y-43956100D01*
X175316100Y-43956100D01*
X175316100Y-44606100D01*
G37*
G36*
X174816100Y-44606100D02*
G01*
X174566100Y-44606100D01*
X174566100Y-43956100D01*
X174816100Y-43956100D01*
X174816100Y-44606100D01*
G37*
G36*
X174316100Y-44606100D02*
G01*
X174066100Y-44606100D01*
X174066100Y-43956100D01*
X174316100Y-43956100D01*
X174316100Y-44606100D01*
G37*
G36*
X173816100Y-44606100D02*
G01*
X173566100Y-44606100D01*
X173566100Y-43956100D01*
X173816100Y-43956100D01*
X173816100Y-44606100D01*
G37*
G36*
X173316100Y-44606100D02*
G01*
X173066100Y-44606100D01*
X173066100Y-43956100D01*
X173316100Y-43956100D01*
X173316100Y-44606100D01*
G37*
G36*
X172816100Y-44606100D02*
G01*
X172566100Y-44606100D01*
X172566100Y-43956100D01*
X172816100Y-43956100D01*
X172816100Y-44606100D01*
G37*
%TO.C,IN41*%
G36*
X169140100Y-44606100D02*
G01*
X168890100Y-44606100D01*
X168890100Y-43956100D01*
X169140100Y-43956100D01*
X169140100Y-44606100D01*
G37*
G36*
X168640100Y-44606100D02*
G01*
X168390100Y-44606100D01*
X168390100Y-43956100D01*
X168640100Y-43956100D01*
X168640100Y-44606100D01*
G37*
G36*
X168140100Y-44606100D02*
G01*
X167890100Y-44606100D01*
X167890100Y-43956100D01*
X168140100Y-43956100D01*
X168140100Y-44606100D01*
G37*
G36*
X167640100Y-44606100D02*
G01*
X167390100Y-44606100D01*
X167390100Y-43956100D01*
X167640100Y-43956100D01*
X167640100Y-44606100D01*
G37*
G36*
X167140100Y-44606100D02*
G01*
X166890100Y-44606100D01*
X166890100Y-43956100D01*
X167140100Y-43956100D01*
X167140100Y-44606100D01*
G37*
G36*
X166640100Y-44606100D02*
G01*
X166390100Y-44606100D01*
X166390100Y-43956100D01*
X166640100Y-43956100D01*
X166640100Y-44606100D01*
G37*
G36*
X166140100Y-44606100D02*
G01*
X165890100Y-44606100D01*
X165890100Y-43956100D01*
X166140100Y-43956100D01*
X166140100Y-44606100D01*
G37*
G36*
X165640100Y-44606100D02*
G01*
X165390100Y-44606100D01*
X165390100Y-43956100D01*
X165640100Y-43956100D01*
X165640100Y-44606100D01*
G37*
G36*
X165140100Y-44606100D02*
G01*
X164890100Y-44606100D01*
X164890100Y-43956100D01*
X165140100Y-43956100D01*
X165140100Y-44606100D01*
G37*
G36*
X164640100Y-44606100D02*
G01*
X164390100Y-44606100D01*
X164390100Y-43956100D01*
X164640100Y-43956100D01*
X164640100Y-44606100D01*
G37*
G36*
X164140100Y-44606100D02*
G01*
X163890100Y-44606100D01*
X163890100Y-43956100D01*
X164140100Y-43956100D01*
X164140100Y-44606100D01*
G37*
G36*
X163640100Y-44606100D02*
G01*
X163390100Y-44606100D01*
X163390100Y-43956100D01*
X163640100Y-43956100D01*
X163640100Y-44606100D01*
G37*
G36*
X163140100Y-44606100D02*
G01*
X162890100Y-44606100D01*
X162890100Y-43956100D01*
X163140100Y-43956100D01*
X163140100Y-44606100D01*
G37*
G36*
X162640100Y-44606100D02*
G01*
X162390100Y-44606100D01*
X162390100Y-43956100D01*
X162640100Y-43956100D01*
X162640100Y-44606100D01*
G37*
G36*
X162140100Y-44606100D02*
G01*
X161890100Y-44606100D01*
X161890100Y-43956100D01*
X162140100Y-43956100D01*
X162140100Y-44606100D01*
G37*
G36*
X161640100Y-44606100D02*
G01*
X161390100Y-44606100D01*
X161390100Y-43956100D01*
X161640100Y-43956100D01*
X161640100Y-44606100D01*
G37*
%TO.C,IN47*%
G36*
X236196100Y-44606100D02*
G01*
X235946100Y-44606100D01*
X235946100Y-43956100D01*
X236196100Y-43956100D01*
X236196100Y-44606100D01*
G37*
G36*
X235696100Y-44606100D02*
G01*
X235446100Y-44606100D01*
X235446100Y-43956100D01*
X235696100Y-43956100D01*
X235696100Y-44606100D01*
G37*
G36*
X235196100Y-44606100D02*
G01*
X234946100Y-44606100D01*
X234946100Y-43956100D01*
X235196100Y-43956100D01*
X235196100Y-44606100D01*
G37*
G36*
X234696100Y-44606100D02*
G01*
X234446100Y-44606100D01*
X234446100Y-43956100D01*
X234696100Y-43956100D01*
X234696100Y-44606100D01*
G37*
G36*
X234196100Y-44606100D02*
G01*
X233946100Y-44606100D01*
X233946100Y-43956100D01*
X234196100Y-43956100D01*
X234196100Y-44606100D01*
G37*
G36*
X233696100Y-44606100D02*
G01*
X233446100Y-44606100D01*
X233446100Y-43956100D01*
X233696100Y-43956100D01*
X233696100Y-44606100D01*
G37*
G36*
X233196100Y-44606100D02*
G01*
X232946100Y-44606100D01*
X232946100Y-43956100D01*
X233196100Y-43956100D01*
X233196100Y-44606100D01*
G37*
G36*
X232696100Y-44606100D02*
G01*
X232446100Y-44606100D01*
X232446100Y-43956100D01*
X232696100Y-43956100D01*
X232696100Y-44606100D01*
G37*
G36*
X232196100Y-44606100D02*
G01*
X231946100Y-44606100D01*
X231946100Y-43956100D01*
X232196100Y-43956100D01*
X232196100Y-44606100D01*
G37*
G36*
X231696100Y-44606100D02*
G01*
X231446100Y-44606100D01*
X231446100Y-43956100D01*
X231696100Y-43956100D01*
X231696100Y-44606100D01*
G37*
G36*
X231196100Y-44606100D02*
G01*
X230946100Y-44606100D01*
X230946100Y-43956100D01*
X231196100Y-43956100D01*
X231196100Y-44606100D01*
G37*
G36*
X230696100Y-44606100D02*
G01*
X230446100Y-44606100D01*
X230446100Y-43956100D01*
X230696100Y-43956100D01*
X230696100Y-44606100D01*
G37*
G36*
X230196100Y-44606100D02*
G01*
X229946100Y-44606100D01*
X229946100Y-43956100D01*
X230196100Y-43956100D01*
X230196100Y-44606100D01*
G37*
G36*
X229696100Y-44606100D02*
G01*
X229446100Y-44606100D01*
X229446100Y-43956100D01*
X229696100Y-43956100D01*
X229696100Y-44606100D01*
G37*
G36*
X229196100Y-44606100D02*
G01*
X228946100Y-44606100D01*
X228946100Y-43956100D01*
X229196100Y-43956100D01*
X229196100Y-44606100D01*
G37*
G36*
X228696100Y-44606100D02*
G01*
X228446100Y-44606100D01*
X228446100Y-43956100D01*
X228696100Y-43956100D01*
X228696100Y-44606100D01*
G37*
%TO.C,IN27*%
G36*
X191492100Y-85754100D02*
G01*
X191242100Y-85754100D01*
X191242100Y-85104100D01*
X191492100Y-85104100D01*
X191492100Y-85754100D01*
G37*
G36*
X190992100Y-85754100D02*
G01*
X190742100Y-85754100D01*
X190742100Y-85104100D01*
X190992100Y-85104100D01*
X190992100Y-85754100D01*
G37*
G36*
X190492100Y-85754100D02*
G01*
X190242100Y-85754100D01*
X190242100Y-85104100D01*
X190492100Y-85104100D01*
X190492100Y-85754100D01*
G37*
G36*
X189992100Y-85754100D02*
G01*
X189742100Y-85754100D01*
X189742100Y-85104100D01*
X189992100Y-85104100D01*
X189992100Y-85754100D01*
G37*
G36*
X189492100Y-85754100D02*
G01*
X189242100Y-85754100D01*
X189242100Y-85104100D01*
X189492100Y-85104100D01*
X189492100Y-85754100D01*
G37*
G36*
X188992100Y-85754100D02*
G01*
X188742100Y-85754100D01*
X188742100Y-85104100D01*
X188992100Y-85104100D01*
X188992100Y-85754100D01*
G37*
G36*
X188492100Y-85754100D02*
G01*
X188242100Y-85754100D01*
X188242100Y-85104100D01*
X188492100Y-85104100D01*
X188492100Y-85754100D01*
G37*
G36*
X187992100Y-85754100D02*
G01*
X187742100Y-85754100D01*
X187742100Y-85104100D01*
X187992100Y-85104100D01*
X187992100Y-85754100D01*
G37*
G36*
X187492100Y-85754100D02*
G01*
X187242100Y-85754100D01*
X187242100Y-85104100D01*
X187492100Y-85104100D01*
X187492100Y-85754100D01*
G37*
G36*
X186992100Y-85754100D02*
G01*
X186742100Y-85754100D01*
X186742100Y-85104100D01*
X186992100Y-85104100D01*
X186992100Y-85754100D01*
G37*
G36*
X186492100Y-85754100D02*
G01*
X186242100Y-85754100D01*
X186242100Y-85104100D01*
X186492100Y-85104100D01*
X186492100Y-85754100D01*
G37*
G36*
X185992100Y-85754100D02*
G01*
X185742100Y-85754100D01*
X185742100Y-85104100D01*
X185992100Y-85104100D01*
X185992100Y-85754100D01*
G37*
G36*
X185492100Y-85754100D02*
G01*
X185242100Y-85754100D01*
X185242100Y-85104100D01*
X185492100Y-85104100D01*
X185492100Y-85754100D01*
G37*
G36*
X184992100Y-85754100D02*
G01*
X184742100Y-85754100D01*
X184742100Y-85104100D01*
X184992100Y-85104100D01*
X184992100Y-85754100D01*
G37*
G36*
X184492100Y-85754100D02*
G01*
X184242100Y-85754100D01*
X184242100Y-85104100D01*
X184492100Y-85104100D01*
X184492100Y-85754100D01*
G37*
G36*
X183992100Y-85754100D02*
G01*
X183742100Y-85754100D01*
X183742100Y-85104100D01*
X183992100Y-85104100D01*
X183992100Y-85754100D01*
G37*
%TO.C,IN0*%
G36*
X68556100Y-126902100D02*
G01*
X68306100Y-126902100D01*
X68306100Y-126252100D01*
X68556100Y-126252100D01*
X68556100Y-126902100D01*
G37*
G36*
X68056100Y-126902100D02*
G01*
X67806100Y-126902100D01*
X67806100Y-126252100D01*
X68056100Y-126252100D01*
X68056100Y-126902100D01*
G37*
G36*
X67556100Y-126902100D02*
G01*
X67306100Y-126902100D01*
X67306100Y-126252100D01*
X67556100Y-126252100D01*
X67556100Y-126902100D01*
G37*
G36*
X67056100Y-126902100D02*
G01*
X66806100Y-126902100D01*
X66806100Y-126252100D01*
X67056100Y-126252100D01*
X67056100Y-126902100D01*
G37*
G36*
X66556100Y-126902100D02*
G01*
X66306100Y-126902100D01*
X66306100Y-126252100D01*
X66556100Y-126252100D01*
X66556100Y-126902100D01*
G37*
G36*
X66056100Y-126902100D02*
G01*
X65806100Y-126902100D01*
X65806100Y-126252100D01*
X66056100Y-126252100D01*
X66056100Y-126902100D01*
G37*
G36*
X65556100Y-126902100D02*
G01*
X65306100Y-126902100D01*
X65306100Y-126252100D01*
X65556100Y-126252100D01*
X65556100Y-126902100D01*
G37*
G36*
X65056100Y-126902100D02*
G01*
X64806100Y-126902100D01*
X64806100Y-126252100D01*
X65056100Y-126252100D01*
X65056100Y-126902100D01*
G37*
G36*
X64556100Y-126902100D02*
G01*
X64306100Y-126902100D01*
X64306100Y-126252100D01*
X64556100Y-126252100D01*
X64556100Y-126902100D01*
G37*
G36*
X64056100Y-126902100D02*
G01*
X63806100Y-126902100D01*
X63806100Y-126252100D01*
X64056100Y-126252100D01*
X64056100Y-126902100D01*
G37*
G36*
X63556100Y-126902100D02*
G01*
X63306100Y-126902100D01*
X63306100Y-126252100D01*
X63556100Y-126252100D01*
X63556100Y-126902100D01*
G37*
G36*
X63056100Y-126902100D02*
G01*
X62806100Y-126902100D01*
X62806100Y-126252100D01*
X63056100Y-126252100D01*
X63056100Y-126902100D01*
G37*
G36*
X62556100Y-126902100D02*
G01*
X62306100Y-126902100D01*
X62306100Y-126252100D01*
X62556100Y-126252100D01*
X62556100Y-126902100D01*
G37*
G36*
X62056100Y-126902100D02*
G01*
X61806100Y-126902100D01*
X61806100Y-126252100D01*
X62056100Y-126252100D01*
X62056100Y-126902100D01*
G37*
G36*
X61556100Y-126902100D02*
G01*
X61306100Y-126902100D01*
X61306100Y-126252100D01*
X61556100Y-126252100D01*
X61556100Y-126902100D01*
G37*
G36*
X61056100Y-126902100D02*
G01*
X60806100Y-126902100D01*
X60806100Y-126252100D01*
X61056100Y-126252100D01*
X61056100Y-126902100D01*
G37*
%TD*%
D10*
%TO.C,IN9*%
X170015100Y-129077100D03*
X160515100Y-129077100D03*
%TD*%
%TO.C,IN14*%
X225895100Y-129077100D03*
X216395100Y-129077100D03*
%TD*%
%TO.C,IN30*%
X225895100Y-87929100D03*
X216395100Y-87929100D03*
%TD*%
%TO.C,IN13*%
X214719100Y-129077100D03*
X205219100Y-129077100D03*
%TD*%
%TO.C,IN19*%
X102959100Y-87929100D03*
X93459100Y-87929100D03*
%TD*%
%TO.C,IN8*%
X158839100Y-129077100D03*
X149339100Y-129077100D03*
%TD*%
%TO.C,IN39*%
X147663100Y-46781100D03*
X138163100Y-46781100D03*
%TD*%
%TO.C,IN28*%
X203543100Y-87929100D03*
X194043100Y-87929100D03*
%TD*%
%TO.C,IN22*%
X136487100Y-87929100D03*
X126987100Y-87929100D03*
%TD*%
%TO.C,IN43*%
X192367100Y-46781100D03*
X182867100Y-46781100D03*
%TD*%
%TO.C,IN37*%
X125311100Y-46781100D03*
X115811100Y-46781100D03*
%TD*%
%TO.C,IN10*%
X181191100Y-129077100D03*
X171691100Y-129077100D03*
%TD*%
%TO.C,IN38*%
X136487100Y-46781100D03*
X126987100Y-46781100D03*
%TD*%
%TO.C,IN40*%
X158839100Y-46781100D03*
X149339100Y-46781100D03*
%TD*%
%TO.C,IN1*%
X80607100Y-129077100D03*
X71107100Y-129077100D03*
%TD*%
%TO.C,IN11*%
X192367100Y-129077100D03*
X182867100Y-129077100D03*
%TD*%
%TO.C,IN45*%
X214719100Y-46781100D03*
X205219100Y-46781100D03*
%TD*%
%TO.C,IN46*%
X225895100Y-46781100D03*
X216395100Y-46781100D03*
%TD*%
%TO.C,IN33*%
X80607100Y-46781100D03*
X71107100Y-46781100D03*
%TD*%
%TO.C,IN25*%
X170015100Y-87929100D03*
X160515100Y-87929100D03*
%TD*%
%TO.C,IN44*%
X203543100Y-46781100D03*
X194043100Y-46781100D03*
%TD*%
%TO.C,IN12*%
X203543100Y-129077100D03*
X194043100Y-129077100D03*
%TD*%
%TO.C,IN20*%
X114135100Y-87929100D03*
X104635100Y-87929100D03*
%TD*%
%TO.C,IN21*%
X125311100Y-87929100D03*
X115811100Y-87929100D03*
%TD*%
%TO.C,IN24*%
X158839100Y-87929100D03*
X149339100Y-87929100D03*
%TD*%
%TO.C,IN31*%
X237071100Y-87929100D03*
X227571100Y-87929100D03*
%TD*%
%TO.C,IN15*%
X237071100Y-129077100D03*
X227571100Y-129077100D03*
%TD*%
%TO.C,IN18*%
X91783100Y-87929100D03*
X82283100Y-87929100D03*
%TD*%
%TO.C,IN7*%
X147663100Y-129077100D03*
X138163100Y-129077100D03*
%TD*%
%TO.C,IN32*%
X69431100Y-46781100D03*
X59931100Y-46781100D03*
%TD*%
%TO.C,IN2*%
X91783100Y-129077100D03*
X82283100Y-129077100D03*
%TD*%
%TO.C,IN5*%
X125311100Y-129077100D03*
X115811100Y-129077100D03*
%TD*%
%TO.C,IN36*%
X114135100Y-46781100D03*
X104635100Y-46781100D03*
%TD*%
%TO.C,IN3*%
X102959100Y-129077100D03*
X93459100Y-129077100D03*
%TD*%
%TO.C,IN16*%
X69431100Y-87929100D03*
X59931100Y-87929100D03*
%TD*%
%TO.C,IN34*%
X91783100Y-46781100D03*
X82283100Y-46781100D03*
%TD*%
%TO.C,IN29*%
X214719100Y-87929100D03*
X205219100Y-87929100D03*
%TD*%
%TO.C,IN23*%
X147663100Y-87929100D03*
X138163100Y-87929100D03*
%TD*%
%TO.C,IN6*%
X136487100Y-129077100D03*
X126987100Y-129077100D03*
%TD*%
%TO.C,IN26*%
X181191100Y-87929100D03*
X171691100Y-87929100D03*
%TD*%
%TO.C,IN35*%
X102959100Y-46781100D03*
X93459100Y-46781100D03*
%TD*%
%TO.C,IN4*%
X114135100Y-129077100D03*
X104635100Y-129077100D03*
%TD*%
%TO.C,IN17*%
X80607100Y-87929100D03*
X71107100Y-87929100D03*
%TD*%
%TO.C,IN42*%
X181191100Y-46781100D03*
X171691100Y-46781100D03*
%TD*%
%TO.C,IN41*%
X170015100Y-46781100D03*
X160515100Y-46781100D03*
%TD*%
%TO.C,IN47*%
X237071100Y-46781100D03*
X227571100Y-46781100D03*
%TD*%
%TO.C,IN27*%
X192367100Y-87929100D03*
X182867100Y-87929100D03*
%TD*%
%TO.C,IN0*%
X69431100Y-129077100D03*
X59931100Y-129077100D03*
%TD*%
M02*
