%TF.GenerationSoftware,KiCad,Pcbnew,7.0.6-7.0.6~ubuntu22.04.1*%
%TF.CreationDate,2023-08-07T08:58:51+01:00*%
%TF.ProjectId,working,776f726b-696e-4672-9e6b-696361645f70,rev?*%
%TF.SameCoordinates,Original*%
%TF.FileFunction,Soldermask,Top*%
%TF.FilePolarity,Negative*%
%FSLAX46Y46*%
G04 Gerber Fmt 4.6, Leading zero omitted, Abs format (unit mm)*
G04 Created by KiCad (PCBNEW 7.0.6-7.0.6~ubuntu22.04.1) date 2023-08-07 08:58:51*
%MOMM*%
%LPD*%
G01*
G04 APERTURE LIST*
G04 Aperture macros list*
%AMRoundRect*
0 Rectangle with rounded corners*
0 $1 Rounding radius*
0 $2 $3 $4 $5 $6 $7 $8 $9 X,Y pos of 4 corners*
0 Add a 4 corners polygon primitive as box body*
4,1,4,$2,$3,$4,$5,$6,$7,$8,$9,$2,$3,0*
0 Add four circle primitives for the rounded corners*
1,1,$1+$1,$2,$3*
1,1,$1+$1,$4,$5*
1,1,$1+$1,$6,$7*
1,1,$1+$1,$8,$9*
0 Add four rect primitives between the rounded corners*
20,1,$1+$1,$2,$3,$4,$5,0*
20,1,$1+$1,$4,$5,$6,$7,0*
20,1,$1+$1,$6,$7,$8,$9,0*
20,1,$1+$1,$8,$9,$2,$3,0*%
G04 Aperture macros list end*
%ADD10C,1.270000*%
%ADD11C,0.939800*%
%ADD12RoundRect,0.419100X0.000000X0.000000X0.000000X0.000000X0.000000X0.000000X0.000000X0.000000X0*%
%ADD13RoundRect,0.101600X1.500000X0.700000X-1.500000X0.700000X-1.500000X-0.700000X1.500000X-0.700000X0*%
%ADD14RoundRect,0.101600X-0.495300X2.070100X-0.495300X-2.070100X0.495300X-2.070100X0.495300X2.070100X0*%
%ADD15RoundRect,0.601600X0.000000X0.000000X0.000000X0.000000X0.000000X0.000000X0.000000X0.000000X0*%
%ADD16C,1.400000*%
%ADD17RoundRect,0.101600X1.500000X0.500000X-1.500000X0.500000X-1.500000X-0.500000X1.500000X-0.500000X0*%
%ADD18C,3.302000*%
%ADD19RoundRect,0.851600X0.000000X0.000000X0.000000X0.000000X0.000000X0.000000X0.000000X0.000000X0*%
%ADD20RoundRect,0.601600X0.000000X0.000000X0.000000X0.000000X0.000000X0.000000X0.000000X0.000000X0*%
G04 APERTURE END LIST*
D10*
%TO.C,E$1*%
X14024600Y-167614600D02*
G75*
G03*
X14024600Y-167614600I-905500J0D01*
G01*
%TO.C,JP7*%
D11*
X141605000Y-172694600D02*
G75*
G03*
X141605000Y-172694600I-469900J0D01*
G01*
X141605000Y-170154600D02*
G75*
G03*
X141605000Y-170154600I-469900J0D01*
G01*
X141605000Y-167614600D02*
G75*
G03*
X141605000Y-167614600I-469900J0D01*
G01*
X141605000Y-165074600D02*
G75*
G03*
X141605000Y-165074600I-469900J0D01*
G01*
X141605000Y-162534600D02*
G75*
G03*
X141605000Y-162534600I-469900J0D01*
G01*
X141605000Y-159994600D02*
G75*
G03*
X141605000Y-159994600I-469900J0D01*
G01*
X141605000Y-157454600D02*
G75*
G03*
X141605000Y-157454600I-469900J0D01*
G01*
X141605000Y-154914600D02*
G75*
G03*
X141605000Y-154914600I-469900J0D01*
G01*
X141605000Y-152374600D02*
G75*
G03*
X141605000Y-152374600I-469900J0D01*
G01*
X141605000Y-149834600D02*
G75*
G03*
X141605000Y-149834600I-469900J0D01*
G01*
X141605000Y-147294600D02*
G75*
G03*
X141605000Y-147294600I-469900J0D01*
G01*
X141605000Y-144754600D02*
G75*
G03*
X141605000Y-144754600I-469900J0D01*
G01*
X141605000Y-142214600D02*
G75*
G03*
X141605000Y-142214600I-469900J0D01*
G01*
X141605000Y-139674600D02*
G75*
G03*
X141605000Y-139674600I-469900J0D01*
G01*
X141605000Y-137134600D02*
G75*
G03*
X141605000Y-137134600I-469900J0D01*
G01*
X141605000Y-134594600D02*
G75*
G03*
X141605000Y-134594600I-469900J0D01*
G01*
X141605000Y-132054600D02*
G75*
G03*
X141605000Y-132054600I-469900J0D01*
G01*
%TO.C,JP23*%
X230505000Y-99796600D02*
G75*
G03*
X230505000Y-99796600I-469900J0D01*
G01*
X230505000Y-97256600D02*
G75*
G03*
X230505000Y-97256600I-469900J0D01*
G01*
X230505000Y-94716600D02*
G75*
G03*
X230505000Y-94716600I-469900J0D01*
G01*
X230505000Y-92176600D02*
G75*
G03*
X230505000Y-92176600I-469900J0D01*
G01*
X230505000Y-89636600D02*
G75*
G03*
X230505000Y-89636600I-469900J0D01*
G01*
X230505000Y-87096600D02*
G75*
G03*
X230505000Y-87096600I-469900J0D01*
G01*
X230505000Y-84556600D02*
G75*
G03*
X230505000Y-84556600I-469900J0D01*
G01*
X230505000Y-82016600D02*
G75*
G03*
X230505000Y-82016600I-469900J0D01*
G01*
X230505000Y-79476600D02*
G75*
G03*
X230505000Y-79476600I-469900J0D01*
G01*
X230505000Y-76936600D02*
G75*
G03*
X230505000Y-76936600I-469900J0D01*
G01*
X230505000Y-74396600D02*
G75*
G03*
X230505000Y-74396600I-469900J0D01*
G01*
X230505000Y-71856600D02*
G75*
G03*
X230505000Y-71856600I-469900J0D01*
G01*
X230505000Y-69316600D02*
G75*
G03*
X230505000Y-69316600I-469900J0D01*
G01*
X230505000Y-66776600D02*
G75*
G03*
X230505000Y-66776600I-469900J0D01*
G01*
X230505000Y-64236600D02*
G75*
G03*
X230505000Y-64236600I-469900J0D01*
G01*
X230505000Y-61696600D02*
G75*
G03*
X230505000Y-61696600I-469900J0D01*
G01*
X230505000Y-59156600D02*
G75*
G03*
X230505000Y-59156600I-469900J0D01*
G01*
%TO.C,JP3*%
X52705000Y-172694600D02*
G75*
G03*
X52705000Y-172694600I-469900J0D01*
G01*
X52705000Y-170154600D02*
G75*
G03*
X52705000Y-170154600I-469900J0D01*
G01*
X52705000Y-167614600D02*
G75*
G03*
X52705000Y-167614600I-469900J0D01*
G01*
X52705000Y-165074600D02*
G75*
G03*
X52705000Y-165074600I-469900J0D01*
G01*
X52705000Y-162534600D02*
G75*
G03*
X52705000Y-162534600I-469900J0D01*
G01*
X52705000Y-159994600D02*
G75*
G03*
X52705000Y-159994600I-469900J0D01*
G01*
X52705000Y-157454600D02*
G75*
G03*
X52705000Y-157454600I-469900J0D01*
G01*
X52705000Y-154914600D02*
G75*
G03*
X52705000Y-154914600I-469900J0D01*
G01*
X52705000Y-152374600D02*
G75*
G03*
X52705000Y-152374600I-469900J0D01*
G01*
X52705000Y-149834600D02*
G75*
G03*
X52705000Y-149834600I-469900J0D01*
G01*
X52705000Y-147294600D02*
G75*
G03*
X52705000Y-147294600I-469900J0D01*
G01*
X52705000Y-144754600D02*
G75*
G03*
X52705000Y-144754600I-469900J0D01*
G01*
X52705000Y-142214600D02*
G75*
G03*
X52705000Y-142214600I-469900J0D01*
G01*
X52705000Y-139674600D02*
G75*
G03*
X52705000Y-139674600I-469900J0D01*
G01*
X52705000Y-137134600D02*
G75*
G03*
X52705000Y-137134600I-469900J0D01*
G01*
X52705000Y-134594600D02*
G75*
G03*
X52705000Y-134594600I-469900J0D01*
G01*
X52705000Y-132054600D02*
G75*
G03*
X52705000Y-132054600I-469900J0D01*
G01*
%TO.C,JP20*%
X149225000Y-99796600D02*
G75*
G03*
X149225000Y-99796600I-469900J0D01*
G01*
X149225000Y-97256600D02*
G75*
G03*
X149225000Y-97256600I-469900J0D01*
G01*
X149225000Y-94716600D02*
G75*
G03*
X149225000Y-94716600I-469900J0D01*
G01*
X149225000Y-92176600D02*
G75*
G03*
X149225000Y-92176600I-469900J0D01*
G01*
X149225000Y-89636600D02*
G75*
G03*
X149225000Y-89636600I-469900J0D01*
G01*
X149225000Y-87096600D02*
G75*
G03*
X149225000Y-87096600I-469900J0D01*
G01*
X149225000Y-84556600D02*
G75*
G03*
X149225000Y-84556600I-469900J0D01*
G01*
X149225000Y-82016600D02*
G75*
G03*
X149225000Y-82016600I-469900J0D01*
G01*
X149225000Y-79476600D02*
G75*
G03*
X149225000Y-79476600I-469900J0D01*
G01*
X149225000Y-76936600D02*
G75*
G03*
X149225000Y-76936600I-469900J0D01*
G01*
X149225000Y-74396600D02*
G75*
G03*
X149225000Y-74396600I-469900J0D01*
G01*
X149225000Y-71856600D02*
G75*
G03*
X149225000Y-71856600I-469900J0D01*
G01*
X149225000Y-69316600D02*
G75*
G03*
X149225000Y-69316600I-469900J0D01*
G01*
X149225000Y-66776600D02*
G75*
G03*
X149225000Y-66776600I-469900J0D01*
G01*
X149225000Y-64236600D02*
G75*
G03*
X149225000Y-64236600I-469900J0D01*
G01*
X149225000Y-61696600D02*
G75*
G03*
X149225000Y-61696600I-469900J0D01*
G01*
X149225000Y-59156600D02*
G75*
G03*
X149225000Y-59156600I-469900J0D01*
G01*
%TO.C,JP11*%
X230505000Y-172694600D02*
G75*
G03*
X230505000Y-172694600I-469900J0D01*
G01*
X230505000Y-170154600D02*
G75*
G03*
X230505000Y-170154600I-469900J0D01*
G01*
X230505000Y-167614600D02*
G75*
G03*
X230505000Y-167614600I-469900J0D01*
G01*
X230505000Y-165074600D02*
G75*
G03*
X230505000Y-165074600I-469900J0D01*
G01*
X230505000Y-162534600D02*
G75*
G03*
X230505000Y-162534600I-469900J0D01*
G01*
X230505000Y-159994600D02*
G75*
G03*
X230505000Y-159994600I-469900J0D01*
G01*
X230505000Y-157454600D02*
G75*
G03*
X230505000Y-157454600I-469900J0D01*
G01*
X230505000Y-154914600D02*
G75*
G03*
X230505000Y-154914600I-469900J0D01*
G01*
X230505000Y-152374600D02*
G75*
G03*
X230505000Y-152374600I-469900J0D01*
G01*
X230505000Y-149834600D02*
G75*
G03*
X230505000Y-149834600I-469900J0D01*
G01*
X230505000Y-147294600D02*
G75*
G03*
X230505000Y-147294600I-469900J0D01*
G01*
X230505000Y-144754600D02*
G75*
G03*
X230505000Y-144754600I-469900J0D01*
G01*
X230505000Y-142214600D02*
G75*
G03*
X230505000Y-142214600I-469900J0D01*
G01*
X230505000Y-139674600D02*
G75*
G03*
X230505000Y-139674600I-469900J0D01*
G01*
X230505000Y-137134600D02*
G75*
G03*
X230505000Y-137134600I-469900J0D01*
G01*
X230505000Y-134594600D02*
G75*
G03*
X230505000Y-134594600I-469900J0D01*
G01*
X230505000Y-132054600D02*
G75*
G03*
X230505000Y-132054600I-469900J0D01*
G01*
%TO.C,JP4*%
X60325000Y-172694600D02*
G75*
G03*
X60325000Y-172694600I-469900J0D01*
G01*
X60325000Y-170154600D02*
G75*
G03*
X60325000Y-170154600I-469900J0D01*
G01*
X60325000Y-167614600D02*
G75*
G03*
X60325000Y-167614600I-469900J0D01*
G01*
X60325000Y-165074600D02*
G75*
G03*
X60325000Y-165074600I-469900J0D01*
G01*
X60325000Y-162534600D02*
G75*
G03*
X60325000Y-162534600I-469900J0D01*
G01*
X60325000Y-159994600D02*
G75*
G03*
X60325000Y-159994600I-469900J0D01*
G01*
X60325000Y-157454600D02*
G75*
G03*
X60325000Y-157454600I-469900J0D01*
G01*
X60325000Y-154914600D02*
G75*
G03*
X60325000Y-154914600I-469900J0D01*
G01*
X60325000Y-152374600D02*
G75*
G03*
X60325000Y-152374600I-469900J0D01*
G01*
X60325000Y-149834600D02*
G75*
G03*
X60325000Y-149834600I-469900J0D01*
G01*
X60325000Y-147294600D02*
G75*
G03*
X60325000Y-147294600I-469900J0D01*
G01*
X60325000Y-144754600D02*
G75*
G03*
X60325000Y-144754600I-469900J0D01*
G01*
X60325000Y-142214600D02*
G75*
G03*
X60325000Y-142214600I-469900J0D01*
G01*
X60325000Y-139674600D02*
G75*
G03*
X60325000Y-139674600I-469900J0D01*
G01*
X60325000Y-137134600D02*
G75*
G03*
X60325000Y-137134600I-469900J0D01*
G01*
X60325000Y-134594600D02*
G75*
G03*
X60325000Y-134594600I-469900J0D01*
G01*
X60325000Y-132054600D02*
G75*
G03*
X60325000Y-132054600I-469900J0D01*
G01*
%TO.C,JP15*%
X52705000Y-99796600D02*
G75*
G03*
X52705000Y-99796600I-469900J0D01*
G01*
X52705000Y-97256600D02*
G75*
G03*
X52705000Y-97256600I-469900J0D01*
G01*
X52705000Y-94716600D02*
G75*
G03*
X52705000Y-94716600I-469900J0D01*
G01*
X52705000Y-92176600D02*
G75*
G03*
X52705000Y-92176600I-469900J0D01*
G01*
X52705000Y-89636600D02*
G75*
G03*
X52705000Y-89636600I-469900J0D01*
G01*
X52705000Y-87096600D02*
G75*
G03*
X52705000Y-87096600I-469900J0D01*
G01*
X52705000Y-84556600D02*
G75*
G03*
X52705000Y-84556600I-469900J0D01*
G01*
X52705000Y-82016600D02*
G75*
G03*
X52705000Y-82016600I-469900J0D01*
G01*
X52705000Y-79476600D02*
G75*
G03*
X52705000Y-79476600I-469900J0D01*
G01*
X52705000Y-76936600D02*
G75*
G03*
X52705000Y-76936600I-469900J0D01*
G01*
X52705000Y-74396600D02*
G75*
G03*
X52705000Y-74396600I-469900J0D01*
G01*
X52705000Y-71856600D02*
G75*
G03*
X52705000Y-71856600I-469900J0D01*
G01*
X52705000Y-69316600D02*
G75*
G03*
X52705000Y-69316600I-469900J0D01*
G01*
X52705000Y-66776600D02*
G75*
G03*
X52705000Y-66776600I-469900J0D01*
G01*
X52705000Y-64236600D02*
G75*
G03*
X52705000Y-64236600I-469900J0D01*
G01*
X52705000Y-61696600D02*
G75*
G03*
X52705000Y-61696600I-469900J0D01*
G01*
X52705000Y-59156600D02*
G75*
G03*
X52705000Y-59156600I-469900J0D01*
G01*
%TO.C,JP8*%
X149225000Y-172694600D02*
G75*
G03*
X149225000Y-172694600I-469900J0D01*
G01*
X149225000Y-170154600D02*
G75*
G03*
X149225000Y-170154600I-469900J0D01*
G01*
X149225000Y-167614600D02*
G75*
G03*
X149225000Y-167614600I-469900J0D01*
G01*
X149225000Y-165074600D02*
G75*
G03*
X149225000Y-165074600I-469900J0D01*
G01*
X149225000Y-162534600D02*
G75*
G03*
X149225000Y-162534600I-469900J0D01*
G01*
X149225000Y-159994600D02*
G75*
G03*
X149225000Y-159994600I-469900J0D01*
G01*
X149225000Y-157454600D02*
G75*
G03*
X149225000Y-157454600I-469900J0D01*
G01*
X149225000Y-154914600D02*
G75*
G03*
X149225000Y-154914600I-469900J0D01*
G01*
X149225000Y-152374600D02*
G75*
G03*
X149225000Y-152374600I-469900J0D01*
G01*
X149225000Y-149834600D02*
G75*
G03*
X149225000Y-149834600I-469900J0D01*
G01*
X149225000Y-147294600D02*
G75*
G03*
X149225000Y-147294600I-469900J0D01*
G01*
X149225000Y-144754600D02*
G75*
G03*
X149225000Y-144754600I-469900J0D01*
G01*
X149225000Y-142214600D02*
G75*
G03*
X149225000Y-142214600I-469900J0D01*
G01*
X149225000Y-139674600D02*
G75*
G03*
X149225000Y-139674600I-469900J0D01*
G01*
X149225000Y-137134600D02*
G75*
G03*
X149225000Y-137134600I-469900J0D01*
G01*
X149225000Y-134594600D02*
G75*
G03*
X149225000Y-134594600I-469900J0D01*
G01*
X149225000Y-132054600D02*
G75*
G03*
X149225000Y-132054600I-469900J0D01*
G01*
%TO.C,JP12*%
X238125000Y-172694600D02*
G75*
G03*
X238125000Y-172694600I-469900J0D01*
G01*
X238125000Y-170154600D02*
G75*
G03*
X238125000Y-170154600I-469900J0D01*
G01*
X238125000Y-167614600D02*
G75*
G03*
X238125000Y-167614600I-469900J0D01*
G01*
X238125000Y-165074600D02*
G75*
G03*
X238125000Y-165074600I-469900J0D01*
G01*
X238125000Y-162534600D02*
G75*
G03*
X238125000Y-162534600I-469900J0D01*
G01*
X238125000Y-159994600D02*
G75*
G03*
X238125000Y-159994600I-469900J0D01*
G01*
X238125000Y-157454600D02*
G75*
G03*
X238125000Y-157454600I-469900J0D01*
G01*
X238125000Y-154914600D02*
G75*
G03*
X238125000Y-154914600I-469900J0D01*
G01*
X238125000Y-152374600D02*
G75*
G03*
X238125000Y-152374600I-469900J0D01*
G01*
X238125000Y-149834600D02*
G75*
G03*
X238125000Y-149834600I-469900J0D01*
G01*
X238125000Y-147294600D02*
G75*
G03*
X238125000Y-147294600I-469900J0D01*
G01*
X238125000Y-144754600D02*
G75*
G03*
X238125000Y-144754600I-469900J0D01*
G01*
X238125000Y-142214600D02*
G75*
G03*
X238125000Y-142214600I-469900J0D01*
G01*
X238125000Y-139674600D02*
G75*
G03*
X238125000Y-139674600I-469900J0D01*
G01*
X238125000Y-137134600D02*
G75*
G03*
X238125000Y-137134600I-469900J0D01*
G01*
X238125000Y-134594600D02*
G75*
G03*
X238125000Y-134594600I-469900J0D01*
G01*
X238125000Y-132054600D02*
G75*
G03*
X238125000Y-132054600I-469900J0D01*
G01*
%TO.C,JP19*%
X141605000Y-99796600D02*
G75*
G03*
X141605000Y-99796600I-469900J0D01*
G01*
X141605000Y-97256600D02*
G75*
G03*
X141605000Y-97256600I-469900J0D01*
G01*
X141605000Y-94716600D02*
G75*
G03*
X141605000Y-94716600I-469900J0D01*
G01*
X141605000Y-92176600D02*
G75*
G03*
X141605000Y-92176600I-469900J0D01*
G01*
X141605000Y-89636600D02*
G75*
G03*
X141605000Y-89636600I-469900J0D01*
G01*
X141605000Y-87096600D02*
G75*
G03*
X141605000Y-87096600I-469900J0D01*
G01*
X141605000Y-84556600D02*
G75*
G03*
X141605000Y-84556600I-469900J0D01*
G01*
X141605000Y-82016600D02*
G75*
G03*
X141605000Y-82016600I-469900J0D01*
G01*
X141605000Y-79476600D02*
G75*
G03*
X141605000Y-79476600I-469900J0D01*
G01*
X141605000Y-76936600D02*
G75*
G03*
X141605000Y-76936600I-469900J0D01*
G01*
X141605000Y-74396600D02*
G75*
G03*
X141605000Y-74396600I-469900J0D01*
G01*
X141605000Y-71856600D02*
G75*
G03*
X141605000Y-71856600I-469900J0D01*
G01*
X141605000Y-69316600D02*
G75*
G03*
X141605000Y-69316600I-469900J0D01*
G01*
X141605000Y-66776600D02*
G75*
G03*
X141605000Y-66776600I-469900J0D01*
G01*
X141605000Y-64236600D02*
G75*
G03*
X141605000Y-64236600I-469900J0D01*
G01*
X141605000Y-61696600D02*
G75*
G03*
X141605000Y-61696600I-469900J0D01*
G01*
X141605000Y-59156600D02*
G75*
G03*
X141605000Y-59156600I-469900J0D01*
G01*
%TO.C,JP16*%
X60325000Y-99796600D02*
G75*
G03*
X60325000Y-99796600I-469900J0D01*
G01*
X60325000Y-97256600D02*
G75*
G03*
X60325000Y-97256600I-469900J0D01*
G01*
X60325000Y-94716600D02*
G75*
G03*
X60325000Y-94716600I-469900J0D01*
G01*
X60325000Y-92176600D02*
G75*
G03*
X60325000Y-92176600I-469900J0D01*
G01*
X60325000Y-89636600D02*
G75*
G03*
X60325000Y-89636600I-469900J0D01*
G01*
X60325000Y-87096600D02*
G75*
G03*
X60325000Y-87096600I-469900J0D01*
G01*
X60325000Y-84556600D02*
G75*
G03*
X60325000Y-84556600I-469900J0D01*
G01*
X60325000Y-82016600D02*
G75*
G03*
X60325000Y-82016600I-469900J0D01*
G01*
X60325000Y-79476600D02*
G75*
G03*
X60325000Y-79476600I-469900J0D01*
G01*
X60325000Y-76936600D02*
G75*
G03*
X60325000Y-76936600I-469900J0D01*
G01*
X60325000Y-74396600D02*
G75*
G03*
X60325000Y-74396600I-469900J0D01*
G01*
X60325000Y-71856600D02*
G75*
G03*
X60325000Y-71856600I-469900J0D01*
G01*
X60325000Y-69316600D02*
G75*
G03*
X60325000Y-69316600I-469900J0D01*
G01*
X60325000Y-66776600D02*
G75*
G03*
X60325000Y-66776600I-469900J0D01*
G01*
X60325000Y-64236600D02*
G75*
G03*
X60325000Y-64236600I-469900J0D01*
G01*
X60325000Y-61696600D02*
G75*
G03*
X60325000Y-61696600I-469900J0D01*
G01*
X60325000Y-59156600D02*
G75*
G03*
X60325000Y-59156600I-469900J0D01*
G01*
%TO.C,JP24*%
X238125000Y-99796600D02*
G75*
G03*
X238125000Y-99796600I-469900J0D01*
G01*
X238125000Y-97256600D02*
G75*
G03*
X238125000Y-97256600I-469900J0D01*
G01*
X238125000Y-94716600D02*
G75*
G03*
X238125000Y-94716600I-469900J0D01*
G01*
X238125000Y-92176600D02*
G75*
G03*
X238125000Y-92176600I-469900J0D01*
G01*
X238125000Y-89636600D02*
G75*
G03*
X238125000Y-89636600I-469900J0D01*
G01*
X238125000Y-87096600D02*
G75*
G03*
X238125000Y-87096600I-469900J0D01*
G01*
X238125000Y-84556600D02*
G75*
G03*
X238125000Y-84556600I-469900J0D01*
G01*
X238125000Y-82016600D02*
G75*
G03*
X238125000Y-82016600I-469900J0D01*
G01*
X238125000Y-79476600D02*
G75*
G03*
X238125000Y-79476600I-469900J0D01*
G01*
X238125000Y-76936600D02*
G75*
G03*
X238125000Y-76936600I-469900J0D01*
G01*
X238125000Y-74396600D02*
G75*
G03*
X238125000Y-74396600I-469900J0D01*
G01*
X238125000Y-71856600D02*
G75*
G03*
X238125000Y-71856600I-469900J0D01*
G01*
X238125000Y-69316600D02*
G75*
G03*
X238125000Y-69316600I-469900J0D01*
G01*
X238125000Y-66776600D02*
G75*
G03*
X238125000Y-66776600I-469900J0D01*
G01*
X238125000Y-64236600D02*
G75*
G03*
X238125000Y-64236600I-469900J0D01*
G01*
X238125000Y-61696600D02*
G75*
G03*
X238125000Y-61696600I-469900J0D01*
G01*
X238125000Y-59156600D02*
G75*
G03*
X238125000Y-59156600I-469900J0D01*
G01*
%TD*%
D12*
%TO.C,FID11*%
X268135100Y-36550600D03*
%TD*%
D13*
%TO.C,C3V1*%
X108255100Y-115036600D03*
X113055100Y-115036600D03*
%TD*%
D14*
%TO.C,JP18*%
X169075100Y-38823900D03*
X169075100Y-45961300D03*
X166535100Y-38823900D03*
X166535100Y-45961300D03*
X163995100Y-38823900D03*
X163995100Y-45961300D03*
X161455100Y-38823900D03*
X161455100Y-45961300D03*
X158915100Y-38823900D03*
X158915100Y-45961300D03*
X156375100Y-38823900D03*
X156375100Y-45961300D03*
X153835100Y-38823900D03*
X153835100Y-45961300D03*
X151295100Y-38823900D03*
X151295100Y-45961300D03*
X148755100Y-38823900D03*
X148755100Y-45961300D03*
X146215100Y-38823900D03*
X146215100Y-45961300D03*
X143675100Y-38823900D03*
X143675100Y-45961300D03*
X141135100Y-38823900D03*
X141135100Y-45961300D03*
X138595100Y-38823900D03*
X138595100Y-45961300D03*
X136055100Y-38823900D03*
X136055100Y-45961300D03*
X133515100Y-38823900D03*
X133515100Y-45961300D03*
X130975100Y-38823900D03*
X130975100Y-45961300D03*
X128435100Y-38823900D03*
X128435100Y-45961300D03*
X125895100Y-38823900D03*
X125895100Y-45961300D03*
X123355100Y-38823900D03*
X123355100Y-45961300D03*
X120815100Y-38823900D03*
X120815100Y-45961300D03*
%TD*%
D15*
%TO.C,E$5*%
X283248100Y-47472600D03*
%TD*%
D14*
%TO.C,JP22*%
X257975100Y-38823900D03*
X257975100Y-45961300D03*
X255435100Y-38823900D03*
X255435100Y-45961300D03*
X252895100Y-38823900D03*
X252895100Y-45961300D03*
X250355100Y-38823900D03*
X250355100Y-45961300D03*
X247815100Y-38823900D03*
X247815100Y-45961300D03*
X245275100Y-38823900D03*
X245275100Y-45961300D03*
X242735100Y-38823900D03*
X242735100Y-45961300D03*
X240195100Y-38823900D03*
X240195100Y-45961300D03*
X237655100Y-38823900D03*
X237655100Y-45961300D03*
X235115100Y-38823900D03*
X235115100Y-45961300D03*
X232575100Y-38823900D03*
X232575100Y-45961300D03*
X230035100Y-38823900D03*
X230035100Y-45961300D03*
X227495100Y-38823900D03*
X227495100Y-45961300D03*
X224955100Y-38823900D03*
X224955100Y-45961300D03*
X222415100Y-38823900D03*
X222415100Y-45961300D03*
X219875100Y-38823900D03*
X219875100Y-45961300D03*
X217335100Y-38823900D03*
X217335100Y-45961300D03*
X214795100Y-38823900D03*
X214795100Y-45961300D03*
X212255100Y-38823900D03*
X212255100Y-45961300D03*
X209715100Y-38823900D03*
X209715100Y-45961300D03*
%TD*%
D16*
%TO.C,JP17*%
X184823100Y-51060600D03*
X184823100Y-40900600D03*
D17*
X179823100Y-52330600D03*
X179823100Y-49790600D03*
X179823100Y-47250600D03*
X179823100Y-44710600D03*
X179823100Y-42170600D03*
X179823100Y-39630600D03*
%TD*%
D18*
%TO.C,STANDOFF6*%
X260515100Y-124688600D03*
%TD*%
D13*
%TO.C,C5V4*%
X108255100Y-51282600D03*
X113055100Y-51282600D03*
%TD*%
D18*
%TO.C,STANDOFF7*%
X29375100Y-51790600D03*
%TD*%
%TO.C,STANDOFF1*%
X29375100Y-124688600D03*
%TD*%
%TO.C,STANDOFF9*%
X118275100Y-51790600D03*
%TD*%
D14*
%TO.C,JP6*%
X169075100Y-111721900D03*
X169075100Y-118859300D03*
X166535100Y-111721900D03*
X166535100Y-118859300D03*
X163995100Y-111721900D03*
X163995100Y-118859300D03*
X161455100Y-111721900D03*
X161455100Y-118859300D03*
X158915100Y-111721900D03*
X158915100Y-118859300D03*
X156375100Y-111721900D03*
X156375100Y-118859300D03*
X153835100Y-111721900D03*
X153835100Y-118859300D03*
X151295100Y-111721900D03*
X151295100Y-118859300D03*
X148755100Y-111721900D03*
X148755100Y-118859300D03*
X146215100Y-111721900D03*
X146215100Y-118859300D03*
X143675100Y-111721900D03*
X143675100Y-118859300D03*
X141135100Y-111721900D03*
X141135100Y-118859300D03*
X138595100Y-111721900D03*
X138595100Y-118859300D03*
X136055100Y-111721900D03*
X136055100Y-118859300D03*
X133515100Y-111721900D03*
X133515100Y-118859300D03*
X130975100Y-111721900D03*
X130975100Y-118859300D03*
X128435100Y-111721900D03*
X128435100Y-118859300D03*
X125895100Y-111721900D03*
X125895100Y-118859300D03*
X123355100Y-111721900D03*
X123355100Y-118859300D03*
X120815100Y-111721900D03*
X120815100Y-118859300D03*
%TD*%
D18*
%TO.C,STANDOFF12*%
X260515100Y-51790600D03*
%TD*%
D14*
%TO.C,JP14*%
X80175100Y-38823900D03*
X80175100Y-45961300D03*
X77635100Y-38823900D03*
X77635100Y-45961300D03*
X75095100Y-38823900D03*
X75095100Y-45961300D03*
X72555100Y-38823900D03*
X72555100Y-45961300D03*
X70015100Y-38823900D03*
X70015100Y-45961300D03*
X67475100Y-38823900D03*
X67475100Y-45961300D03*
X64935100Y-38823900D03*
X64935100Y-45961300D03*
X62395100Y-38823900D03*
X62395100Y-45961300D03*
X59855100Y-38823900D03*
X59855100Y-45961300D03*
X57315100Y-38823900D03*
X57315100Y-45961300D03*
X54775100Y-38823900D03*
X54775100Y-45961300D03*
X52235100Y-38823900D03*
X52235100Y-45961300D03*
X49695100Y-38823900D03*
X49695100Y-45961300D03*
X47155100Y-38823900D03*
X47155100Y-45961300D03*
X44615100Y-38823900D03*
X44615100Y-45961300D03*
X42075100Y-38823900D03*
X42075100Y-45961300D03*
X39535100Y-38823900D03*
X39535100Y-45961300D03*
X36995100Y-38823900D03*
X36995100Y-45961300D03*
X34455100Y-38823900D03*
X34455100Y-45961300D03*
X31915100Y-38823900D03*
X31915100Y-45961300D03*
%TD*%
D13*
%TO.C,C5V3*%
X19355100Y-51282600D03*
X24155100Y-51282600D03*
%TD*%
D19*
%TO.C,E$1*%
X13119100Y-167614600D03*
%TD*%
D12*
%TO.C,FID4*%
X106845100Y-128498600D03*
%TD*%
%TO.C,FID2*%
X17945100Y-128498600D03*
%TD*%
%TO.C,FID9*%
X179235100Y-36550600D03*
%TD*%
D13*
%TO.C,C5V1*%
X108255100Y-124180600D03*
X113055100Y-124180600D03*
%TD*%
D16*
%TO.C,JP9*%
X273723100Y-123958600D03*
X273723100Y-113798600D03*
D17*
X268723100Y-125228600D03*
X268723100Y-122688600D03*
X268723100Y-120148600D03*
X268723100Y-117608600D03*
X268723100Y-115068600D03*
X268723100Y-112528600D03*
%TD*%
D12*
%TO.C,FID10*%
X106845100Y-55600600D03*
%TD*%
%TO.C,FID12*%
X195745100Y-55600600D03*
%TD*%
D18*
%TO.C,STANDOFF4*%
X171615100Y-124688600D03*
%TD*%
D14*
%TO.C,JP10*%
X257975100Y-111721900D03*
X257975100Y-118859300D03*
X255435100Y-111721900D03*
X255435100Y-118859300D03*
X252895100Y-111721900D03*
X252895100Y-118859300D03*
X250355100Y-111721900D03*
X250355100Y-118859300D03*
X247815100Y-111721900D03*
X247815100Y-118859300D03*
X245275100Y-111721900D03*
X245275100Y-118859300D03*
X242735100Y-111721900D03*
X242735100Y-118859300D03*
X240195100Y-111721900D03*
X240195100Y-118859300D03*
X237655100Y-111721900D03*
X237655100Y-118859300D03*
X235115100Y-111721900D03*
X235115100Y-118859300D03*
X232575100Y-111721900D03*
X232575100Y-118859300D03*
X230035100Y-111721900D03*
X230035100Y-118859300D03*
X227495100Y-111721900D03*
X227495100Y-118859300D03*
X224955100Y-111721900D03*
X224955100Y-118859300D03*
X222415100Y-111721900D03*
X222415100Y-118859300D03*
X219875100Y-111721900D03*
X219875100Y-118859300D03*
X217335100Y-111721900D03*
X217335100Y-118859300D03*
X214795100Y-111721900D03*
X214795100Y-118859300D03*
X212255100Y-111721900D03*
X212255100Y-118859300D03*
X209715100Y-111721900D03*
X209715100Y-118859300D03*
%TD*%
D13*
%TO.C,C3V5*%
X197155100Y-42138600D03*
X201955100Y-42138600D03*
%TD*%
%TO.C,C5V5*%
X197155100Y-51282600D03*
X201955100Y-51282600D03*
%TD*%
%TO.C,C3V3*%
X19355100Y-42138600D03*
X24155100Y-42138600D03*
%TD*%
D12*
%TO.C,FID6*%
X195745100Y-128498600D03*
%TD*%
%TO.C,FID5*%
X268135100Y-109448600D03*
%TD*%
D14*
%TO.C,JP2*%
X80175100Y-111721900D03*
X80175100Y-118859300D03*
X77635100Y-111721900D03*
X77635100Y-118859300D03*
X75095100Y-111721900D03*
X75095100Y-118859300D03*
X72555100Y-111721900D03*
X72555100Y-118859300D03*
X70015100Y-111721900D03*
X70015100Y-118859300D03*
X67475100Y-111721900D03*
X67475100Y-118859300D03*
X64935100Y-111721900D03*
X64935100Y-118859300D03*
X62395100Y-111721900D03*
X62395100Y-118859300D03*
X59855100Y-111721900D03*
X59855100Y-118859300D03*
X57315100Y-111721900D03*
X57315100Y-118859300D03*
X54775100Y-111721900D03*
X54775100Y-118859300D03*
X52235100Y-111721900D03*
X52235100Y-118859300D03*
X49695100Y-111721900D03*
X49695100Y-118859300D03*
X47155100Y-111721900D03*
X47155100Y-118859300D03*
X44615100Y-111721900D03*
X44615100Y-118859300D03*
X42075100Y-111721900D03*
X42075100Y-118859300D03*
X39535100Y-111721900D03*
X39535100Y-118859300D03*
X36995100Y-111721900D03*
X36995100Y-118859300D03*
X34455100Y-111721900D03*
X34455100Y-118859300D03*
X31915100Y-111721900D03*
X31915100Y-118859300D03*
%TD*%
D12*
%TO.C,FID8*%
X17945100Y-55600600D03*
%TD*%
D13*
%TO.C,C5V2*%
X197155100Y-124180600D03*
X201955100Y-124180600D03*
%TD*%
D16*
%TO.C,JP21*%
X273723100Y-51060600D03*
X273723100Y-40900600D03*
D17*
X268723100Y-52330600D03*
X268723100Y-49790600D03*
X268723100Y-47250600D03*
X268723100Y-44710600D03*
X268723100Y-42170600D03*
X268723100Y-39630600D03*
%TD*%
D16*
%TO.C,JP1*%
X95923100Y-123958600D03*
X95923100Y-113798600D03*
D17*
X90923100Y-125228600D03*
X90923100Y-122688600D03*
X90923100Y-120148600D03*
X90923100Y-117608600D03*
X90923100Y-115068600D03*
X90923100Y-112528600D03*
%TD*%
D18*
%TO.C,STANDOFF8*%
X82715100Y-51790600D03*
%TD*%
D12*
%TO.C,FID1*%
X90335100Y-109448600D03*
%TD*%
D18*
%TO.C,STANDOFF10*%
X171615100Y-51790600D03*
%TD*%
D20*
%TO.C,E$6*%
X282994100Y-166852600D03*
%TD*%
D13*
%TO.C,C5V0*%
X19355100Y-124180600D03*
X24155100Y-124180600D03*
%TD*%
D18*
%TO.C,STANDOFF5*%
X207175100Y-124688600D03*
%TD*%
D16*
%TO.C,JP5*%
X184823100Y-123958600D03*
X184823100Y-113798600D03*
D17*
X179823100Y-125228600D03*
X179823100Y-122688600D03*
X179823100Y-120148600D03*
X179823100Y-117608600D03*
X179823100Y-115068600D03*
X179823100Y-112528600D03*
%TD*%
D12*
%TO.C,FID7*%
X90335100Y-36550600D03*
%TD*%
D18*
%TO.C,STANDOFF11*%
X207175100Y-51790600D03*
%TD*%
%TO.C,STANDOFF3*%
X118275100Y-124688600D03*
%TD*%
D12*
%TO.C,FID3*%
X179235100Y-109448600D03*
%TD*%
D13*
%TO.C,C3V4*%
X108255100Y-42138600D03*
X113055100Y-42138600D03*
%TD*%
D16*
%TO.C,JP13*%
X95923100Y-51060600D03*
X95923100Y-40900600D03*
D17*
X90923100Y-52330600D03*
X90923100Y-49790600D03*
X90923100Y-47250600D03*
X90923100Y-44710600D03*
X90923100Y-42170600D03*
X90923100Y-39630600D03*
%TD*%
D13*
%TO.C,C3V0*%
X19355100Y-115036600D03*
X24155100Y-115036600D03*
%TD*%
D18*
%TO.C,STANDOFF2*%
X82715100Y-124688600D03*
%TD*%
D13*
%TO.C,C3V2*%
X197155100Y-115036600D03*
X201955100Y-115036600D03*
%TD*%
M02*
