%TF.GenerationSoftware,KiCad,Pcbnew,7.0.6-7.0.6~ubuntu22.04.1*%
%TF.CreationDate,2023-08-05T17:28:33+01:00*%
%TF.ProjectId,working,776f726b-696e-4672-9e6b-696361645f70,rev?*%
%TF.SameCoordinates,Original*%
%TF.FileFunction,Copper,L1,Top*%
%TF.FilePolarity,Positive*%
%FSLAX46Y46*%
G04 Gerber Fmt 4.6, Leading zero omitted, Abs format (unit mm)*
G04 Created by KiCad (PCBNEW 7.0.6-7.0.6~ubuntu22.04.1) date 2023-08-05 17:28:33*
%MOMM*%
%LPD*%
G01*
G04 APERTURE LIST*
G04 Aperture macros list*
%AMRoundRect*
0 Rectangle with rounded corners*
0 $1 Rounding radius*
0 $2 $3 $4 $5 $6 $7 $8 $9 X,Y pos of 4 corners*
0 Add a 4 corners polygon primitive as box body*
4,1,4,$2,$3,$4,$5,$6,$7,$8,$9,$2,$3,0*
0 Add four circle primitives for the rounded corners*
1,1,$1+$1,$2,$3*
1,1,$1+$1,$4,$5*
1,1,$1+$1,$6,$7*
1,1,$1+$1,$8,$9*
0 Add four rect primitives between the rounded corners*
20,1,$1+$1,$2,$3,$4,$5,0*
20,1,$1+$1,$4,$5,$6,$7,0*
20,1,$1+$1,$6,$7,$8,$9,0*
20,1,$1+$1,$8,$9,$2,$3,0*%
G04 Aperture macros list end*
%TA.AperFunction,SMDPad,CuDef*%
%ADD10RoundRect,0.500000X0.000000X0.000000X0.000000X0.000000X0.000000X0.000000X0.000000X0.000000X0*%
%TD*%
%TA.AperFunction,SMDPad,CuDef*%
%ADD11R,1.500000X1.300000*%
%TD*%
%TA.AperFunction,ComponentPad*%
%ADD12O,3.016000X1.508000*%
%TD*%
%TA.AperFunction,SMDPad,CuDef*%
%ADD13R,1.300000X1.500000*%
%TD*%
%TA.AperFunction,ComponentPad*%
%ADD14C,3.200000*%
%TD*%
%TA.AperFunction,SMDPad,CuDef*%
%ADD15R,1.400000X2.600000*%
%TD*%
%TA.AperFunction,ComponentPad*%
%ADD16O,1.508000X3.016000*%
%TD*%
%TA.AperFunction,ComponentPad*%
%ADD17R,1.676400X1.676400*%
%TD*%
%TA.AperFunction,ComponentPad*%
%ADD18C,1.676400*%
%TD*%
%TA.AperFunction,SMDPad,CuDef*%
%ADD19R,2.200000X0.600000*%
%TD*%
%TA.AperFunction,SMDPad,CuDef*%
%ADD20R,0.600000X2.200000*%
%TD*%
%TA.AperFunction,ViaPad*%
%ADD21C,0.906400*%
%TD*%
%TA.AperFunction,Conductor*%
%ADD22C,0.406400*%
%TD*%
%TA.AperFunction,Conductor*%
%ADD23C,0.812800*%
%TD*%
%TA.AperFunction,Conductor*%
%ADD24C,0.711200*%
%TD*%
%TA.AperFunction,Conductor*%
%ADD25C,0.609600*%
%TD*%
G04 APERTURE END LIST*
D10*
%TO.P,FID1,1*%
%TO.N,N/C*%
X139801600Y-123037600D03*
%TD*%
D11*
%TO.P,R2,1*%
%TO.N,2/3*%
X143103600Y-94528600D03*
%TO.P,R2,2*%
%TO.N,1/3*%
X143103600Y-96428600D03*
%TD*%
D12*
%TO.P,BUTTON_CREDIT0,1*%
%TO.N,CREDIT*%
X144373600Y-117703600D03*
%TO.P,BUTTON_CREDIT0,2*%
%TO.N,GND*%
X144373600Y-120243600D03*
%TD*%
D13*
%TO.P,R3,1*%
%TO.N,1/3*%
X143037600Y-98145600D03*
%TO.P,R3,2*%
%TO.N,GND*%
X141137600Y-98145600D03*
%TD*%
D10*
%TO.P,FID3,1*%
%TO.N,N/C*%
X139039600Y-86461600D03*
%TD*%
D14*
%TO.P,U$3,P$1*%
%TO.N,N/C*%
X135483600Y-87223600D03*
%TD*%
D11*
%TO.P,R4,1*%
%TO.N,1/2*%
X140563600Y-91983600D03*
%TO.P,R4,2*%
%TO.N,+5V*%
X140563600Y-90083600D03*
%TD*%
%TO.P,C2,1*%
%TO.N,+5V*%
X147421600Y-87665600D03*
%TO.P,C2,2*%
%TO.N,GND*%
X147421600Y-85765600D03*
%TD*%
D15*
%TO.P,C1,+*%
%TO.N,N$5*%
X137388600Y-110573600D03*
%TO.P,C1,-*%
%TO.N,N$3*%
X137388600Y-114673600D03*
%TD*%
D11*
%TO.P,R5,1*%
%TO.N,GND*%
X140563600Y-96428600D03*
%TO.P,R5,2*%
%TO.N,1/2*%
X140563600Y-94528600D03*
%TD*%
D16*
%TO.P,SPEAKER0,1*%
%TO.N,N$3*%
X135991600Y-118338600D03*
%TO.P,SPEAKER0,2*%
%TO.N,GND*%
X138531600Y-118338600D03*
%TD*%
D10*
%TO.P,FID2,1*%
%TO.N,N/C*%
X154025600Y-123037600D03*
%TD*%
D17*
%TO.P,JP1,1*%
%TO.N,N/C*%
X158343600Y-89763600D03*
D18*
%TO.P,JP1,2*%
%TO.N,+5V*%
X160883600Y-89763600D03*
%TO.P,JP1,3*%
%TO.N,LEFT*%
X158343600Y-92303600D03*
%TO.P,JP1,4*%
%TO.N,+5V*%
X160883600Y-92303600D03*
%TO.P,JP1,5*%
%TO.N,RIGHT*%
X158343600Y-94843600D03*
%TO.P,JP1,6*%
%TO.N,GND*%
X160883600Y-94843600D03*
%TO.P,JP1,7*%
%TO.N,DOWN*%
X158343600Y-97383600D03*
%TO.P,JP1,8*%
%TO.N,N/C*%
X160883600Y-97383600D03*
%TO.P,JP1,9*%
%TO.N,GND*%
X158343600Y-99923600D03*
%TO.P,JP1,10*%
%TO.N,N/C*%
X160883600Y-99923600D03*
%TO.P,JP1,11*%
%TO.N,UP*%
X158343600Y-102463600D03*
%TO.P,JP1,12*%
%TO.N,START*%
X160883600Y-102463600D03*
%TO.P,JP1,13*%
%TO.N,A*%
X158343600Y-105003600D03*
%TO.P,JP1,14*%
%TO.N,GND*%
X160883600Y-105003600D03*
%TO.P,JP1,15*%
%TO.N,B*%
X158343600Y-107543600D03*
%TO.P,JP1,16*%
%TO.N,CREDIT*%
X160883600Y-107543600D03*
%TO.P,JP1,17*%
%TO.N,N/C*%
X158343600Y-110083600D03*
%TO.P,JP1,18*%
X160883600Y-110083600D03*
%TO.P,JP1,19*%
X158343600Y-112623600D03*
%TO.P,JP1,20*%
%TO.N,GND*%
X160883600Y-112623600D03*
%TO.P,JP1,21*%
%TO.N,N/C*%
X158343600Y-115163600D03*
%TO.P,JP1,22*%
X160883600Y-115163600D03*
%TO.P,JP1,23*%
X158343600Y-117703600D03*
%TO.P,JP1,24*%
X160883600Y-117703600D03*
%TO.P,JP1,25*%
%TO.N,GND*%
X158343600Y-120243600D03*
%TO.P,JP1,26*%
%TO.N,N/C*%
X160883600Y-120243600D03*
%TD*%
D19*
%TO.P,IC1,1*%
%TO.N,RIGHT*%
X153323600Y-97383600D03*
%TO.P,IC1,2*%
%TO.N,LEFT*%
X153323600Y-96113600D03*
%TO.P,IC1,3*%
%TO.N,+5V*%
X153323600Y-94843600D03*
%TO.P,IC1,4*%
%TO.N,1/3*%
X153323600Y-93573600D03*
%TO.P,IC1,5*%
%TO.N,XOUT*%
X153323600Y-92303600D03*
%TO.P,IC1,6*%
X153323600Y-91033600D03*
%TO.P,IC1,7*%
%TO.N,2/3*%
X153323600Y-89763600D03*
%TO.P,IC1,8*%
%TO.N,1/3*%
X148123600Y-89763600D03*
%TO.P,IC1,9*%
%TO.N,YOUT*%
X148123600Y-91033600D03*
%TO.P,IC1,10*%
X148123600Y-92303600D03*
%TO.P,IC1,11*%
%TO.N,2/3*%
X148123600Y-93573600D03*
%TO.P,IC1,12*%
%TO.N,GND*%
X148123600Y-94843600D03*
%TO.P,IC1,13*%
%TO.N,UP*%
X148123600Y-96113600D03*
%TO.P,IC1,14*%
%TO.N,DOWN*%
X148123600Y-97383600D03*
%TD*%
D12*
%TO.P,AUDIO0,1*%
%TO.N,GND*%
X139420600Y-106273600D03*
%TO.P,AUDIO0,2*%
%TO.N,1/2*%
X139420600Y-103733600D03*
%TO.P,AUDIO0,3*%
X139420600Y-101193600D03*
%TD*%
D20*
%TO.P,IC2,1*%
%TO.N,N$5*%
X134848600Y-96808600D03*
%TO.P,IC2,2*%
X136118600Y-96808600D03*
%TO.P,IC2,3*%
%TO.N,1/2*%
X137388600Y-96808600D03*
%TO.P,IC2,4*%
%TO.N,GND*%
X138658600Y-96808600D03*
%TO.P,IC2,5*%
%TO.N,1/2*%
X138658600Y-91608600D03*
%TO.P,IC2,6*%
%TO.N,N$5*%
X137388600Y-91608600D03*
%TO.P,IC2,7*%
X136118600Y-91608600D03*
%TO.P,IC2,8*%
%TO.N,+5V*%
X134848600Y-91608600D03*
%TD*%
D12*
%TO.P,BUTTON_B0,1*%
%TO.N,B*%
X151993600Y-108178600D03*
%TO.P,BUTTON_B0,2*%
%TO.N,GND*%
X151993600Y-110718600D03*
%TD*%
D11*
%TO.P,C3,1*%
%TO.N,+5V*%
X145389600Y-87665600D03*
%TO.P,C3,2*%
%TO.N,GND*%
X145389600Y-85765600D03*
%TD*%
D14*
%TO.P,U$2,P$1*%
%TO.N,N/C*%
X135483600Y-122783600D03*
%TD*%
D12*
%TO.P,BUTTON_A0,1*%
%TO.N,A*%
X144373600Y-108178600D03*
%TO.P,BUTTON_A0,2*%
%TO.N,GND*%
X144373600Y-110718600D03*
%TD*%
D16*
%TO.P,JOYSTICK0,1*%
%TO.N,GND*%
X143103600Y-102463600D03*
%TO.P,JOYSTICK0,2*%
%TO.N,N/C*%
X145643600Y-102463600D03*
%TO.P,JOYSTICK0,3*%
%TO.N,YOUT*%
X148183600Y-102463600D03*
%TO.P,JOYSTICK0,4*%
%TO.N,XOUT*%
X150723600Y-102463600D03*
%TO.P,JOYSTICK0,5*%
%TO.N,+5V*%
X153263600Y-102463600D03*
%TD*%
D11*
%TO.P,R1,1*%
%TO.N,+5V*%
X143103600Y-90083600D03*
%TO.P,R1,2*%
%TO.N,2/3*%
X143103600Y-91983600D03*
%TD*%
D12*
%TO.P,BUTTON_START0,1*%
%TO.N,START*%
X151993600Y-117703600D03*
%TO.P,BUTTON_START0,2*%
%TO.N,GND*%
X151993600Y-120243600D03*
%TD*%
D21*
%TO.N,1/3*%
X145008600Y-94843600D03*
X145643600Y-91033600D03*
%TO.N,DOWN*%
X150088600Y-98653600D03*
%TO.N,UP*%
X149453600Y-99923600D03*
%TO.N,YOUT*%
X146278600Y-92303600D03*
%TD*%
D22*
%TO.N,GND*%
X138658600Y-96808600D02*
X140563600Y-96808600D01*
X140563600Y-96808600D02*
X140563600Y-96428600D01*
X162788600Y-101193600D02*
X162788600Y-105003600D01*
X159613600Y-101193600D02*
X162788600Y-101193600D01*
X162788600Y-105003600D02*
X160883600Y-105003600D01*
X158343600Y-99923600D02*
X159613600Y-101193600D01*
%TO.N,2/3*%
X148123600Y-93573600D02*
X149453600Y-93573600D01*
X143103600Y-93573600D02*
X143103600Y-94528600D01*
X149453600Y-93573600D02*
X150723600Y-92303600D01*
X150723600Y-91033600D02*
X151993600Y-89763600D01*
X150723600Y-92303600D02*
X150723600Y-91033600D01*
X151993600Y-89763600D02*
X153323600Y-89763600D01*
X148123600Y-93573600D02*
X143103600Y-93573600D01*
X143103600Y-91983600D02*
X143103600Y-93573600D01*
%TO.N,1/3*%
X143037600Y-98145600D02*
X143103600Y-96113600D01*
X145008600Y-95224600D02*
X144119600Y-96113600D01*
X145008600Y-94843600D02*
X145008600Y-95224600D01*
X143103600Y-96113600D02*
X143103600Y-96428600D01*
X154533600Y-88493600D02*
X155168600Y-89128600D01*
X146913600Y-89763600D02*
X145643600Y-91033600D01*
X154533600Y-93573600D02*
X153323600Y-93573600D01*
X155168600Y-89128600D02*
X155168600Y-92938600D01*
X155168600Y-92938600D02*
X154533600Y-93573600D01*
X149453600Y-88493600D02*
X154533600Y-88493600D01*
X148123600Y-89763600D02*
X146913600Y-89763600D01*
X148123600Y-89763600D02*
X149453600Y-88493600D01*
X144119600Y-96113600D02*
X143103600Y-96113600D01*
D23*
%TO.N,+5V*%
X159613600Y-87223600D02*
X156438600Y-87223600D01*
X148945600Y-87223600D02*
X148437600Y-87731600D01*
X147487600Y-87731600D02*
X147421600Y-87665600D01*
D22*
X140243600Y-89763600D02*
X140563600Y-90083600D01*
D23*
X147421600Y-87665600D02*
X145389600Y-87665600D01*
X160883600Y-92303600D02*
X160883600Y-89763600D01*
X160883600Y-89763600D02*
X160883600Y-88493600D01*
X148437600Y-87731600D02*
X147487600Y-87731600D01*
D22*
X157073600Y-96113600D02*
X159613600Y-96113600D01*
D23*
X160883600Y-88493600D02*
X159613600Y-87223600D01*
X143103600Y-90083600D02*
X143103600Y-88493600D01*
D22*
X134848600Y-91608600D02*
X134848600Y-90144600D01*
X159613600Y-93573600D02*
X160883600Y-92303600D01*
D23*
X140563600Y-90083600D02*
X140563600Y-88493600D01*
D22*
X153323600Y-94843600D02*
X154533600Y-94843600D01*
D23*
X143103600Y-88493600D02*
X140563600Y-88493600D01*
X145389600Y-87665600D02*
X143545600Y-87665600D01*
D22*
X134848600Y-90144600D02*
X135229600Y-89763600D01*
X153263600Y-99923600D02*
X157073600Y-96113600D01*
X135229600Y-89763600D02*
X140243600Y-89763600D01*
X153263600Y-102463600D02*
X153263600Y-99923600D01*
X159613600Y-96113600D02*
X159613600Y-93573600D01*
D23*
X143545600Y-87665600D02*
X143103600Y-88493600D01*
D22*
X154533600Y-94843600D02*
X156438600Y-92938600D01*
X156438600Y-92938600D02*
X156438600Y-87223600D01*
D23*
X156438600Y-87223600D02*
X148945600Y-87223600D01*
D22*
%TO.N,1/2*%
X140563600Y-93573600D02*
X140563600Y-94528600D01*
X137388600Y-94843600D02*
X137388600Y-96808600D01*
X137388600Y-99923600D02*
X137388600Y-96808600D01*
X139420600Y-101193600D02*
X137388600Y-99923600D01*
X140563600Y-91983600D02*
X140563600Y-93573600D01*
X138658600Y-93573600D02*
X137388600Y-94843600D01*
X140563600Y-93573600D02*
X138658600Y-93573600D01*
X138658600Y-93573600D02*
X138658600Y-91608600D01*
X139420600Y-103733600D02*
X139420600Y-101193600D01*
D24*
%TO.N,N$3*%
X137388600Y-114673600D02*
X135991600Y-118338600D01*
D25*
%TO.N,N$5*%
X136118600Y-96808600D02*
X136118600Y-91608600D01*
D24*
X136118600Y-96808600D02*
X136118600Y-109448600D01*
D25*
X134848600Y-96808600D02*
X136118600Y-96808600D01*
X136118600Y-91608600D02*
X137388600Y-91608600D01*
D24*
X136118600Y-109448600D02*
X137388600Y-110573600D01*
D22*
%TO.N,LEFT*%
X154533600Y-96113600D02*
X158343600Y-92303600D01*
X153323600Y-96113600D02*
X154533600Y-96113600D01*
%TO.N,RIGHT*%
X154533600Y-97383600D02*
X157073600Y-94843600D01*
X157073600Y-94843600D02*
X158343600Y-94843600D01*
X153323600Y-97383600D02*
X154533600Y-97383600D01*
%TO.N,DOWN*%
X149453600Y-98653600D02*
X150088600Y-98653600D01*
X148123600Y-97383600D02*
X149453600Y-98653600D01*
%TO.N,UP*%
X147548600Y-99923600D02*
X149453600Y-99923600D01*
X148123600Y-96113600D02*
X146913600Y-96113600D01*
X146913600Y-96113600D02*
X146278600Y-96748600D01*
X146278600Y-96748600D02*
X146278600Y-98653600D01*
X146278600Y-98653600D02*
X147548600Y-99923600D01*
%TO.N,A*%
X144373600Y-108178600D02*
X147548600Y-105003600D01*
X147548600Y-105003600D02*
X158343600Y-105003600D01*
%TO.N,B*%
X151993600Y-108178600D02*
X152628600Y-107543600D01*
X152628600Y-107543600D02*
X158343600Y-107543600D01*
%TO.N,CREDIT*%
X157073600Y-108813600D02*
X155803600Y-110083600D01*
X155803600Y-111353600D02*
X153263600Y-113893600D01*
X159613600Y-108813600D02*
X157073600Y-108813600D01*
X155803600Y-110083600D02*
X155803600Y-111353600D01*
X148183600Y-113893600D02*
X144373600Y-117703600D01*
X153263600Y-113893600D02*
X148183600Y-113893600D01*
X160883600Y-107543600D02*
X159613600Y-108813600D01*
%TO.N,XOUT*%
X153323600Y-92303600D02*
X151993600Y-92303600D01*
X151358600Y-101828600D02*
X150723600Y-102463600D01*
X151358600Y-92938600D02*
X151358600Y-101828600D01*
X153323600Y-91033600D02*
X153323600Y-92303600D01*
X151993600Y-92303600D02*
X151358600Y-92938600D01*
%TO.N,YOUT*%
X148123600Y-92303600D02*
X146278600Y-92303600D01*
X148123600Y-91033600D02*
X148123600Y-92303600D01*
%TD*%
%TA.AperFunction,Conductor*%
%TO.N,GND*%
G36*
X144232224Y-84728313D02*
G01*
X144268769Y-84778613D01*
X144268769Y-84840787D01*
X144254036Y-84869438D01*
X144231531Y-84899930D01*
X144186092Y-85029791D01*
X144183200Y-85060636D01*
X144183200Y-86470563D01*
X144186092Y-86501408D01*
X144231531Y-86631270D01*
X144276324Y-86691961D01*
X144295979Y-86750947D01*
X144277209Y-86810220D01*
X144227184Y-86847141D01*
X144195382Y-86852300D01*
X143615982Y-86852300D01*
X143600578Y-86851114D01*
X143579581Y-86847860D01*
X143518639Y-86852174D01*
X143515086Y-86852300D01*
X143499922Y-86852300D01*
X143475403Y-86855062D01*
X143471316Y-86855523D01*
X143452678Y-86856842D01*
X143396764Y-86860800D01*
X143389260Y-86863081D01*
X143371274Y-86866795D01*
X143363480Y-86867673D01*
X143363479Y-86867673D01*
X143292943Y-86892355D01*
X143221417Y-86914094D01*
X143214595Y-86917995D01*
X143197896Y-86925614D01*
X143190488Y-86928206D01*
X143127204Y-86967970D01*
X143062321Y-87005073D01*
X143062314Y-87005079D01*
X143056538Y-87010393D01*
X143041960Y-87021531D01*
X143035308Y-87025710D01*
X142982448Y-87078571D01*
X142927452Y-87129178D01*
X142923001Y-87135648D01*
X142911264Y-87149753D01*
X142905717Y-87155300D01*
X142905713Y-87155306D01*
X142880727Y-87195069D01*
X142865949Y-87218590D01*
X142863553Y-87222074D01*
X142849634Y-87242309D01*
X142849629Y-87242318D01*
X142842496Y-87255678D01*
X142840716Y-87258746D01*
X142808211Y-87310480D01*
X142808207Y-87310487D01*
X142801187Y-87330547D01*
X142794981Y-87344689D01*
X142644241Y-87627074D01*
X142599446Y-87670191D01*
X142555494Y-87680300D01*
X140612095Y-87680300D01*
X140606459Y-87679983D01*
X140599838Y-87679237D01*
X140563603Y-87675154D01*
X140563597Y-87675154D01*
X140517928Y-87680300D01*
X140381480Y-87695673D01*
X140208491Y-87756205D01*
X140053308Y-87853712D01*
X140053305Y-87853714D01*
X139923714Y-87983305D01*
X139923712Y-87983308D01*
X139826205Y-88138491D01*
X139765673Y-88311480D01*
X139745154Y-88493595D01*
X139745154Y-88493602D01*
X139749983Y-88536458D01*
X139750300Y-88542095D01*
X139750300Y-88947904D01*
X139731087Y-89007035D01*
X139691959Y-89035472D01*
X139693348Y-89038197D01*
X139571450Y-89100306D01*
X139547722Y-89124035D01*
X139492324Y-89152261D01*
X139476587Y-89153500D01*
X136538539Y-89153500D01*
X136479408Y-89134287D01*
X136442863Y-89083987D01*
X136442863Y-89021813D01*
X136479408Y-88971513D01*
X136488239Y-88965778D01*
X136584562Y-88910165D01*
X136610933Y-88894940D01*
X136832567Y-88721780D01*
X137027946Y-88519460D01*
X137193265Y-88291917D01*
X137325308Y-88043581D01*
X137325948Y-88041824D01*
X137372794Y-87913114D01*
X137421504Y-87779285D01*
X137479980Y-87504173D01*
X137499600Y-87223600D01*
X137479980Y-86943027D01*
X137421504Y-86667915D01*
X137402686Y-86616214D01*
X137325309Y-86403620D01*
X137325306Y-86403615D01*
X137322391Y-86398132D01*
X138132700Y-86398132D01*
X138132701Y-86525067D01*
X138138932Y-86604254D01*
X138188272Y-86788394D01*
X138274817Y-86958247D01*
X138274821Y-86958254D01*
X138394793Y-87106407D01*
X138542946Y-87226379D01*
X138542948Y-87226380D01*
X138542952Y-87226382D01*
X138712805Y-87312927D01*
X138778564Y-87330547D01*
X138896948Y-87362268D01*
X138968735Y-87367917D01*
X138976132Y-87368500D01*
X138976132Y-87368499D01*
X138976133Y-87368500D01*
X139039616Y-87368499D01*
X139103067Y-87368499D01*
X139109830Y-87367966D01*
X139182252Y-87362268D01*
X139366394Y-87312927D01*
X139536254Y-87226379D01*
X139684407Y-87106407D01*
X139804379Y-86958254D01*
X139890927Y-86788394D01*
X139940268Y-86604252D01*
X139946500Y-86525067D01*
X139946499Y-86398134D01*
X139940268Y-86318948D01*
X139894637Y-86148652D01*
X139890927Y-86134805D01*
X139804382Y-85964952D01*
X139804380Y-85964948D01*
X139804379Y-85964946D01*
X139684407Y-85816793D01*
X139536254Y-85696821D01*
X139536252Y-85696820D01*
X139536251Y-85696819D01*
X139536247Y-85696817D01*
X139366394Y-85610272D01*
X139182254Y-85560932D01*
X139103068Y-85554700D01*
X139103067Y-85554700D01*
X139039616Y-85554700D01*
X138976133Y-85554701D01*
X138896945Y-85560932D01*
X138712805Y-85610272D01*
X138542952Y-85696817D01*
X138542948Y-85696819D01*
X138394793Y-85816793D01*
X138274819Y-85964948D01*
X138274817Y-85964952D01*
X138188272Y-86134805D01*
X138138932Y-86318945D01*
X138132700Y-86398132D01*
X137322391Y-86398132D01*
X137238458Y-86240279D01*
X137193265Y-86155283D01*
X137027946Y-85927740D01*
X137027945Y-85927739D01*
X137027943Y-85927736D01*
X136832569Y-85725422D01*
X136832568Y-85725421D01*
X136832567Y-85725420D01*
X136610933Y-85552260D01*
X136610932Y-85552259D01*
X136610929Y-85552257D01*
X136367361Y-85411633D01*
X136367355Y-85411630D01*
X136106581Y-85306271D01*
X136106576Y-85306269D01*
X135833676Y-85238227D01*
X135553959Y-85208828D01*
X135553957Y-85208828D01*
X135441522Y-85212754D01*
X135272868Y-85218644D01*
X134995887Y-85267483D01*
X134995877Y-85267486D01*
X134920634Y-85291934D01*
X134916745Y-85293075D01*
X134914196Y-85294025D01*
X134728398Y-85354394D01*
X134728387Y-85354399D01*
X134652765Y-85391282D01*
X134648332Y-85393186D01*
X134647803Y-85393383D01*
X134647768Y-85393399D01*
X134643273Y-85395853D01*
X134641223Y-85396912D01*
X134475600Y-85477692D01*
X134475596Y-85477694D01*
X134401901Y-85527402D01*
X134397891Y-85529842D01*
X134395816Y-85530975D01*
X134395813Y-85530977D01*
X134389635Y-85535602D01*
X134387623Y-85537032D01*
X134242431Y-85634966D01*
X134242422Y-85634973D01*
X134172764Y-85697692D01*
X134169256Y-85700576D01*
X134166006Y-85703009D01*
X134165992Y-85703021D01*
X134159197Y-85709816D01*
X134157291Y-85711624D01*
X134033410Y-85823170D01*
X134033398Y-85823182D01*
X133969971Y-85898772D01*
X133967012Y-85902001D01*
X133963019Y-85905995D01*
X133963002Y-85906014D01*
X133956459Y-85914753D01*
X133954730Y-85916934D01*
X133852622Y-86038624D01*
X133852617Y-86038631D01*
X133797628Y-86126633D01*
X133795241Y-86130118D01*
X133790976Y-86135816D01*
X133790973Y-86135821D01*
X133785357Y-86146106D01*
X133783868Y-86148652D01*
X133703579Y-86277142D01*
X133703573Y-86277154D01*
X133659242Y-86376724D01*
X133657440Y-86380368D01*
X133653397Y-86387772D01*
X133653393Y-86387781D01*
X133649157Y-86399137D01*
X133647982Y-86402013D01*
X133589180Y-86534085D01*
X133589179Y-86534086D01*
X133557644Y-86644058D01*
X133556423Y-86647767D01*
X133553077Y-86656740D01*
X133553073Y-86656753D01*
X133550494Y-86668611D01*
X133549695Y-86671784D01*
X133511654Y-86804449D01*
X133511653Y-86804452D01*
X133494956Y-86923254D01*
X133494297Y-86926944D01*
X133492054Y-86937254D01*
X133491206Y-86949100D01*
X133490845Y-86952507D01*
X133472511Y-87082967D01*
X133472511Y-87208697D01*
X133472383Y-87212286D01*
X133471574Y-87223599D01*
X133472383Y-87234911D01*
X133472511Y-87238500D01*
X133472511Y-87364230D01*
X133490845Y-87494691D01*
X133491206Y-87498099D01*
X133492053Y-87509930D01*
X133492055Y-87509946D01*
X133494297Y-87520251D01*
X133494957Y-87523943D01*
X133511653Y-87642746D01*
X133511654Y-87642750D01*
X133549692Y-87775404D01*
X133550490Y-87778574D01*
X133553076Y-87790458D01*
X133556423Y-87799430D01*
X133557647Y-87803145D01*
X133589178Y-87913110D01*
X133589180Y-87913114D01*
X133647982Y-88045186D01*
X133649157Y-88048062D01*
X133653393Y-88059417D01*
X133653401Y-88059435D01*
X133657434Y-88066821D01*
X133659237Y-88070467D01*
X133703575Y-88170050D01*
X133703577Y-88170054D01*
X133703578Y-88170055D01*
X133712551Y-88184414D01*
X133783869Y-88298547D01*
X133785360Y-88301098D01*
X133790974Y-88311380D01*
X133790975Y-88311382D01*
X133795228Y-88317062D01*
X133797621Y-88320555D01*
X133852623Y-88408577D01*
X133885642Y-88447927D01*
X133954730Y-88530263D01*
X133956453Y-88532437D01*
X133963013Y-88541198D01*
X133967011Y-88545196D01*
X133969973Y-88548429D01*
X133989830Y-88572093D01*
X134033402Y-88624021D01*
X134033414Y-88624034D01*
X134157291Y-88735574D01*
X134159202Y-88737387D01*
X134166003Y-88744188D01*
X134169259Y-88746625D01*
X134172763Y-88749505D01*
X134242426Y-88812230D01*
X134242432Y-88812234D01*
X134242437Y-88812238D01*
X134339881Y-88877964D01*
X134365052Y-88894942D01*
X134387622Y-88910165D01*
X134389617Y-88911582D01*
X134395817Y-88916224D01*
X134397889Y-88917355D01*
X134401888Y-88919788D01*
X134475600Y-88969507D01*
X134475603Y-88969508D01*
X134475604Y-88969509D01*
X134641237Y-89050294D01*
X134643291Y-89051355D01*
X134647774Y-89053803D01*
X134648284Y-89053993D01*
X134652755Y-89055912D01*
X134654371Y-89056700D01*
X134728393Y-89092803D01*
X134728398Y-89092804D01*
X134728399Y-89092805D01*
X134805630Y-89117899D01*
X134855930Y-89154443D01*
X134875143Y-89213575D01*
X134855930Y-89272706D01*
X134845669Y-89284719D01*
X134837737Y-89292649D01*
X134825747Y-89302889D01*
X134808637Y-89315321D01*
X134779357Y-89350713D01*
X134776167Y-89354219D01*
X134472668Y-89657718D01*
X134461456Y-89666701D01*
X134461490Y-89666742D01*
X134456615Y-89670774D01*
X134410429Y-89719958D01*
X134390051Y-89740336D01*
X134385613Y-89746057D01*
X134382538Y-89749657D01*
X134351095Y-89783143D01*
X134340911Y-89801667D01*
X134332246Y-89814857D01*
X134319291Y-89831557D01*
X134319286Y-89831567D01*
X134301045Y-89873716D01*
X134298961Y-89877970D01*
X134276834Y-89918223D01*
X134276832Y-89918226D01*
X134271575Y-89938701D01*
X134266466Y-89953626D01*
X134258067Y-89973036D01*
X134250882Y-90018396D01*
X134249921Y-90023037D01*
X134238500Y-90067523D01*
X134238500Y-90088660D01*
X134237262Y-90104396D01*
X134233954Y-90125279D01*
X134233954Y-90125285D01*
X134238276Y-90171017D01*
X134238499Y-90175750D01*
X134238500Y-90201837D01*
X134219290Y-90260969D01*
X134219286Y-90260973D01*
X134215308Y-90266447D01*
X134156791Y-90381293D01*
X134156790Y-90381296D01*
X134141700Y-90476569D01*
X134141700Y-92740630D01*
X134156790Y-92835903D01*
X134156791Y-92835906D01*
X134213599Y-92947398D01*
X134215308Y-92950751D01*
X134306449Y-93041892D01*
X134421294Y-93100409D01*
X134462871Y-93106994D01*
X134516569Y-93115499D01*
X134516574Y-93115500D01*
X134516576Y-93115500D01*
X135180626Y-93115500D01*
X135180630Y-93115499D01*
X135283726Y-93099171D01*
X135283957Y-93100635D01*
X135337380Y-93100632D01*
X135387683Y-93137173D01*
X135406900Y-93196303D01*
X135406900Y-95220889D01*
X135387687Y-95280020D01*
X135337387Y-95316565D01*
X135283957Y-95316566D01*
X135283726Y-95318029D01*
X135180630Y-95301700D01*
X135180624Y-95301700D01*
X134516576Y-95301700D01*
X134516569Y-95301700D01*
X134421296Y-95316790D01*
X134421293Y-95316791D01*
X134306449Y-95375307D01*
X134215307Y-95466449D01*
X134156791Y-95581293D01*
X134156790Y-95581296D01*
X134141700Y-95676569D01*
X134141699Y-95676574D01*
X134141699Y-96690496D01*
X134138777Y-96714567D01*
X134136900Y-96722183D01*
X134136900Y-96895018D01*
X134138776Y-96902631D01*
X134141699Y-96926704D01*
X134141699Y-97940625D01*
X134141700Y-97940630D01*
X134156790Y-98035903D01*
X134156791Y-98035906D01*
X134201814Y-98124269D01*
X134215308Y-98150751D01*
X134306449Y-98241892D01*
X134421294Y-98300409D01*
X134492231Y-98311644D01*
X134516569Y-98315499D01*
X134516574Y-98315500D01*
X134516576Y-98315500D01*
X135180626Y-98315500D01*
X135180630Y-98315499D01*
X135239763Y-98306134D01*
X135301171Y-98315860D01*
X135345135Y-98359824D01*
X135356100Y-98405495D01*
X135356100Y-109414045D01*
X135355918Y-109418316D01*
X135351287Y-109472685D01*
X135351287Y-109472693D01*
X135362643Y-109548996D01*
X135371601Y-109625640D01*
X135372272Y-109627483D01*
X135377236Y-109647054D01*
X135377524Y-109648988D01*
X135377525Y-109648993D01*
X135406174Y-109720628D01*
X135432565Y-109793137D01*
X135433630Y-109794756D01*
X135442990Y-109812687D01*
X135443712Y-109814492D01*
X135443712Y-109814493D01*
X135488126Y-109877614D01*
X135530514Y-109942061D01*
X135531927Y-109943394D01*
X135545166Y-109958678D01*
X135546287Y-109960271D01*
X135604049Y-110011438D01*
X135660162Y-110064379D01*
X135660163Y-110064380D01*
X135660167Y-110064383D01*
X135661845Y-110065352D01*
X135678254Y-110077170D01*
X136247806Y-110581695D01*
X136279329Y-110635285D01*
X136281700Y-110656998D01*
X136281700Y-111905630D01*
X136296790Y-112000903D01*
X136296791Y-112000906D01*
X136355308Y-112115751D01*
X136446449Y-112206892D01*
X136561294Y-112265409D01*
X136632231Y-112276644D01*
X136656569Y-112280499D01*
X136656574Y-112280500D01*
X136656576Y-112280500D01*
X138120626Y-112280500D01*
X138120630Y-112280499D01*
X138215906Y-112265409D01*
X138330751Y-112206892D01*
X138421892Y-112115751D01*
X138480409Y-112000906D01*
X138495500Y-111905624D01*
X138495500Y-109241576D01*
X138480409Y-109146294D01*
X138421892Y-109031449D01*
X138330751Y-108940308D01*
X138330751Y-108940307D01*
X138330750Y-108940307D01*
X138215906Y-108881791D01*
X138215903Y-108881790D01*
X138120630Y-108866700D01*
X138120624Y-108866700D01*
X136981700Y-108866700D01*
X136922569Y-108847487D01*
X136886024Y-108797187D01*
X136881100Y-108766100D01*
X136881100Y-100509355D01*
X136900313Y-100450224D01*
X136950613Y-100413679D01*
X137012787Y-100413679D01*
X137045827Y-100431843D01*
X137059094Y-100442819D01*
X137080543Y-100452912D01*
X137093299Y-100458915D01*
X137098546Y-100461776D01*
X137115053Y-100472093D01*
X137516360Y-100722909D01*
X137556320Y-100770541D01*
X137560651Y-100832565D01*
X137556849Y-100844558D01*
X137545233Y-100874540D01*
X137505700Y-101086025D01*
X137505700Y-101301174D01*
X137545233Y-101512656D01*
X137600738Y-101655932D01*
X137622953Y-101713274D01*
X137736213Y-101896195D01*
X137736214Y-101896196D01*
X137736216Y-101896199D01*
X137855305Y-102026834D01*
X137881156Y-102055191D01*
X138052847Y-102184845D01*
X138245438Y-102280744D01*
X138452371Y-102339622D01*
X138612932Y-102354500D01*
X138709900Y-102354500D01*
X138769031Y-102373713D01*
X138805576Y-102424013D01*
X138810500Y-102455100D01*
X138810500Y-102472100D01*
X138791287Y-102531231D01*
X138740987Y-102567776D01*
X138709900Y-102572700D01*
X138612932Y-102572700D01*
X138553423Y-102578214D01*
X138452375Y-102587577D01*
X138452374Y-102587577D01*
X138245436Y-102646456D01*
X138245434Y-102646457D01*
X138052847Y-102742354D01*
X138052847Y-102742355D01*
X137881153Y-102872011D01*
X137736216Y-103031000D01*
X137736213Y-103031005D01*
X137622953Y-103213925D01*
X137622951Y-103213929D01*
X137545233Y-103414543D01*
X137505700Y-103626025D01*
X137505700Y-103841174D01*
X137545233Y-104052656D01*
X137614653Y-104231851D01*
X137622953Y-104253274D01*
X137736213Y-104436195D01*
X137736214Y-104436196D01*
X137736216Y-104436199D01*
X137881153Y-104595188D01*
X137881156Y-104595191D01*
X138052847Y-104724845D01*
X138245438Y-104820744D01*
X138452371Y-104879622D01*
X138473644Y-104881593D01*
X138530751Y-104906179D01*
X138562500Y-104959635D01*
X138558940Y-105016053D01*
X138539472Y-105069748D01*
X139264801Y-105795077D01*
X139147500Y-105848648D01*
X139038839Y-105942802D01*
X138961107Y-106063756D01*
X138944520Y-106120244D01*
X138050926Y-105226650D01*
X138050925Y-105226650D01*
X138043279Y-105230332D01*
X137867014Y-105358395D01*
X137716444Y-105515880D01*
X137716443Y-105515880D01*
X137596420Y-105697708D01*
X137510790Y-105898052D01*
X137462307Y-106110467D01*
X137452532Y-106328125D01*
X137481778Y-106544028D01*
X137481779Y-106544031D01*
X137549105Y-106751240D01*
X137652348Y-106943099D01*
X137652351Y-106943103D01*
X137788192Y-107113441D01*
X137952271Y-107256794D01*
X138053938Y-107317536D01*
X138944520Y-106426953D01*
X138961107Y-106483444D01*
X139038839Y-106604398D01*
X139147500Y-106698552D01*
X139264801Y-106752122D01*
X138536723Y-107480200D01*
X138557660Y-107483999D01*
X138557662Y-107484000D01*
X140228950Y-107484000D01*
X140301725Y-107477450D01*
X139576398Y-106752122D01*
X139693700Y-106698552D01*
X139802361Y-106604398D01*
X139880093Y-106483444D01*
X139896679Y-106426955D01*
X140790272Y-107320548D01*
X140797922Y-107316865D01*
X140797928Y-107316861D01*
X140974185Y-107188804D01*
X141124755Y-107031319D01*
X141124756Y-107031319D01*
X141244779Y-106849491D01*
X141330409Y-106649147D01*
X141378892Y-106436732D01*
X141388667Y-106219074D01*
X141359421Y-106003171D01*
X141359420Y-106003168D01*
X141292094Y-105795959D01*
X141188851Y-105604100D01*
X141188848Y-105604096D01*
X141053007Y-105433758D01*
X140888928Y-105290405D01*
X140787260Y-105229662D01*
X139896679Y-106120243D01*
X139880093Y-106063756D01*
X139802361Y-105942802D01*
X139693700Y-105848648D01*
X139576396Y-105795077D01*
X140304475Y-105066999D01*
X140287034Y-105011201D01*
X140287731Y-104949031D01*
X140324837Y-104899144D01*
X140373772Y-104881017D01*
X140388829Y-104879622D01*
X140595762Y-104820744D01*
X140788353Y-104724845D01*
X140960044Y-104595191D01*
X141104987Y-104436195D01*
X141218247Y-104253274D01*
X141295967Y-104052656D01*
X141335500Y-103841173D01*
X141335500Y-103626027D01*
X141333460Y-103615116D01*
X141320541Y-103546004D01*
X141295967Y-103414544D01*
X141240726Y-103271950D01*
X141893200Y-103271950D01*
X141899749Y-103344725D01*
X142627520Y-102616954D01*
X142644107Y-102673444D01*
X142721839Y-102794398D01*
X142830500Y-102888552D01*
X142947801Y-102942122D01*
X142056649Y-103833273D01*
X142060332Y-103840919D01*
X142060335Y-103840924D01*
X142188395Y-104017185D01*
X142345880Y-104167755D01*
X142345880Y-104167756D01*
X142527708Y-104287779D01*
X142728052Y-104373409D01*
X142940467Y-104421892D01*
X143158125Y-104431667D01*
X143374028Y-104402421D01*
X143374031Y-104402420D01*
X143581240Y-104335094D01*
X143773099Y-104231851D01*
X143773103Y-104231848D01*
X143943441Y-104096007D01*
X144086791Y-103931931D01*
X144086792Y-103931929D01*
X144147536Y-103830260D01*
X143259398Y-102942122D01*
X143376700Y-102888552D01*
X143485361Y-102794398D01*
X143563093Y-102673444D01*
X143579679Y-102616955D01*
X144310199Y-103347475D01*
X144365999Y-103330035D01*
X144428170Y-103330733D01*
X144478057Y-103367840D01*
X144496182Y-103416769D01*
X144497577Y-103431825D01*
X144556456Y-103638763D01*
X144556457Y-103638765D01*
X144652354Y-103831352D01*
X144659771Y-103841174D01*
X144728307Y-103931931D01*
X144782011Y-104003046D01*
X144941000Y-104147983D01*
X144941001Y-104147984D01*
X144941005Y-104147987D01*
X145123926Y-104261247D01*
X145324544Y-104338967D01*
X145469411Y-104366047D01*
X145536025Y-104378500D01*
X145536027Y-104378500D01*
X145751174Y-104378500D01*
X145784480Y-104372273D01*
X145962656Y-104338967D01*
X146163274Y-104261247D01*
X146346195Y-104147987D01*
X146505191Y-104003044D01*
X146634845Y-103831353D01*
X146730744Y-103638762D01*
X146789622Y-103431829D01*
X146804500Y-103271268D01*
X146804500Y-101655932D01*
X146789622Y-101495371D01*
X146730744Y-101288438D01*
X146634845Y-101095847D01*
X146505191Y-100924156D01*
X146489678Y-100910014D01*
X146346199Y-100779216D01*
X146346196Y-100779214D01*
X146346195Y-100779213D01*
X146163274Y-100665953D01*
X146163270Y-100665951D01*
X145962656Y-100588233D01*
X145751175Y-100548700D01*
X145751173Y-100548700D01*
X145536027Y-100548700D01*
X145536025Y-100548700D01*
X145324543Y-100588233D01*
X145123929Y-100665951D01*
X145123925Y-100665953D01*
X144941005Y-100779213D01*
X144941000Y-100779216D01*
X144782011Y-100924153D01*
X144652355Y-101095847D01*
X144652354Y-101095847D01*
X144556457Y-101288434D01*
X144556456Y-101288436D01*
X144497577Y-101495374D01*
X144495606Y-101516648D01*
X144471018Y-101573754D01*
X144417560Y-101605501D01*
X144361147Y-101601940D01*
X144307451Y-101582472D01*
X143579679Y-102310243D01*
X143563093Y-102253756D01*
X143485361Y-102132802D01*
X143376700Y-102038648D01*
X143259396Y-101985077D01*
X144150548Y-101093926D01*
X144150549Y-101093924D01*
X144146868Y-101086282D01*
X144146865Y-101086277D01*
X144018804Y-100910014D01*
X143861319Y-100759444D01*
X143861319Y-100759443D01*
X143679491Y-100639420D01*
X143479147Y-100553790D01*
X143266732Y-100505307D01*
X143049074Y-100495532D01*
X142833171Y-100524778D01*
X142833168Y-100524779D01*
X142625959Y-100592105D01*
X142434100Y-100695348D01*
X142434096Y-100695351D01*
X142263758Y-100831192D01*
X142120405Y-100995271D01*
X142059663Y-101096938D01*
X142059663Y-101096939D01*
X142947801Y-101985077D01*
X142830500Y-102038648D01*
X142721839Y-102132802D01*
X142644107Y-102253756D01*
X142627520Y-102310244D01*
X141896998Y-101579723D01*
X141893200Y-101600659D01*
X141893200Y-103271950D01*
X141240726Y-103271950D01*
X141218247Y-103213926D01*
X141104987Y-103031005D01*
X141104984Y-103031001D01*
X141104983Y-103031000D01*
X140960046Y-102872011D01*
X140960045Y-102872010D01*
X140960044Y-102872009D01*
X140788353Y-102742355D01*
X140788352Y-102742354D01*
X140595765Y-102646457D01*
X140595763Y-102646456D01*
X140512500Y-102622765D01*
X140388829Y-102587578D01*
X140388826Y-102587577D01*
X140388824Y-102587577D01*
X140293853Y-102578777D01*
X140228268Y-102572700D01*
X140228264Y-102572700D01*
X140131300Y-102572700D01*
X140072169Y-102553487D01*
X140035624Y-102503187D01*
X140030700Y-102472100D01*
X140030700Y-102455100D01*
X140049913Y-102395969D01*
X140100213Y-102359424D01*
X140131300Y-102354500D01*
X140228264Y-102354500D01*
X140228268Y-102354500D01*
X140388829Y-102339622D01*
X140595762Y-102280744D01*
X140788353Y-102184845D01*
X140960044Y-102055191D01*
X141104987Y-101896195D01*
X141218247Y-101713274D01*
X141295967Y-101512656D01*
X141335500Y-101301173D01*
X141335500Y-101086027D01*
X141328584Y-101049032D01*
X141305241Y-100924156D01*
X141295967Y-100874544D01*
X141218247Y-100673926D01*
X141104987Y-100491005D01*
X141104984Y-100491001D01*
X141104983Y-100491000D01*
X140960046Y-100332011D01*
X140960045Y-100332010D01*
X140960044Y-100332009D01*
X140788353Y-100202355D01*
X140788352Y-100202354D01*
X140595765Y-100106457D01*
X140595763Y-100106456D01*
X140512500Y-100082765D01*
X140388829Y-100047578D01*
X140388826Y-100047577D01*
X140388824Y-100047577D01*
X140293853Y-100038777D01*
X140228268Y-100032700D01*
X140228264Y-100032700D01*
X138743147Y-100032700D01*
X138689829Y-100017409D01*
X138539736Y-99923601D01*
X138203985Y-99713756D01*
X138045982Y-99615004D01*
X138006022Y-99567372D01*
X137998700Y-99529695D01*
X137998700Y-98407395D01*
X138017913Y-98348264D01*
X138068213Y-98311719D01*
X138130387Y-98311719D01*
X138138049Y-98314960D01*
X138272792Y-98362107D01*
X138272791Y-98362107D01*
X138303637Y-98365000D01*
X139013563Y-98365000D01*
X139044408Y-98362107D01*
X139174269Y-98316668D01*
X139284968Y-98234968D01*
X139366668Y-98124269D01*
X139412107Y-97994408D01*
X139415000Y-97963563D01*
X139415000Y-97887724D01*
X138407011Y-96879735D01*
X138378785Y-96824337D01*
X138388511Y-96762929D01*
X138407011Y-96737465D01*
X138587465Y-96557011D01*
X138642863Y-96528785D01*
X138704271Y-96538511D01*
X138729735Y-96557011D01*
X139421100Y-97248375D01*
X140240876Y-96428600D01*
X139516411Y-95704135D01*
X139488185Y-95648737D01*
X139497911Y-95587329D01*
X139541875Y-95543365D01*
X139603283Y-95533639D01*
X139633217Y-95543364D01*
X139667033Y-95560595D01*
X139686294Y-95570409D01*
X139781569Y-95585499D01*
X139781574Y-95585500D01*
X140001554Y-95585500D01*
X140060685Y-95604713D01*
X140072689Y-95614965D01*
X140563600Y-96105876D01*
X141054511Y-95614965D01*
X141109909Y-95586739D01*
X141125646Y-95585500D01*
X141345626Y-95585500D01*
X141345630Y-95585499D01*
X141346293Y-95585394D01*
X141440906Y-95570409D01*
X141493981Y-95543365D01*
X141555387Y-95533639D01*
X141610785Y-95561865D01*
X141639012Y-95617262D01*
X141629287Y-95678671D01*
X141610786Y-95704136D01*
X140563600Y-96751324D01*
X139779924Y-97535000D01*
X139930600Y-97535000D01*
X139989731Y-97554213D01*
X140026276Y-97604513D01*
X140031200Y-97635600D01*
X140031200Y-98929275D01*
X141066465Y-97894011D01*
X141121863Y-97865785D01*
X141183271Y-97875511D01*
X141208735Y-97894011D01*
X141951235Y-98636511D01*
X141979461Y-98691909D01*
X141980700Y-98707646D01*
X141980700Y-98927630D01*
X141995790Y-99022903D01*
X141995792Y-99022909D01*
X142022833Y-99075981D01*
X142032559Y-99137390D01*
X142004333Y-99192787D01*
X141948935Y-99221014D01*
X141887526Y-99211287D01*
X141862063Y-99192787D01*
X141137600Y-98468323D01*
X140294395Y-99311527D01*
X140294394Y-99311527D01*
X140401793Y-99349107D01*
X140432637Y-99352000D01*
X141842563Y-99352000D01*
X141873407Y-99349107D01*
X141980803Y-99311527D01*
X141986488Y-99286622D01*
X142018376Y-99233248D01*
X142075547Y-99208811D01*
X142136163Y-99222645D01*
X142143701Y-99227622D01*
X142145449Y-99228892D01*
X142260294Y-99287409D01*
X142331231Y-99298644D01*
X142355569Y-99302499D01*
X142355574Y-99302500D01*
X142355576Y-99302500D01*
X143719626Y-99302500D01*
X143719630Y-99302499D01*
X143814906Y-99287409D01*
X143929751Y-99228892D01*
X144020892Y-99137751D01*
X144079409Y-99022906D01*
X144094500Y-98927624D01*
X144094500Y-97454812D01*
X144113713Y-97395681D01*
X144123966Y-97383677D01*
X144186891Y-97320752D01*
X144186892Y-97320751D01*
X144245409Y-97205906D01*
X144260500Y-97110624D01*
X144260500Y-96783522D01*
X144279713Y-96724391D01*
X144330013Y-96687846D01*
X144333011Y-96686923D01*
X144363825Y-96677972D01*
X144382026Y-96667207D01*
X144396186Y-96660270D01*
X144415854Y-96652484D01*
X144453032Y-96625472D01*
X144456971Y-96622884D01*
X144496506Y-96599505D01*
X144511452Y-96584557D01*
X144523450Y-96574310D01*
X144540562Y-96561879D01*
X144569845Y-96526479D01*
X144573021Y-96522988D01*
X145384528Y-95711482D01*
X145395739Y-95702502D01*
X145395705Y-95702461D01*
X145400578Y-95698428D01*
X145400583Y-95698426D01*
X145446770Y-95649241D01*
X145467147Y-95628865D01*
X145471594Y-95623129D01*
X145474644Y-95619557D01*
X145506104Y-95586058D01*
X145516286Y-95567534D01*
X145524956Y-95554336D01*
X145537913Y-95537634D01*
X145537913Y-95537632D01*
X145541137Y-95532183D01*
X145542592Y-95533043D01*
X145569939Y-95498906D01*
X145577563Y-95493367D01*
X145587290Y-95486300D01*
X145708269Y-95351939D01*
X145798669Y-95195361D01*
X145854539Y-95023410D01*
X145873438Y-94843600D01*
X145854539Y-94663790D01*
X145854538Y-94663786D01*
X145798670Y-94491841D01*
X145798668Y-94491838D01*
X145796819Y-94488636D01*
X145729879Y-94372690D01*
X145707888Y-94334600D01*
X145694961Y-94273784D01*
X145720250Y-94216985D01*
X145774095Y-94185898D01*
X145795010Y-94183700D01*
X146524805Y-94183700D01*
X146583936Y-94202913D01*
X146620481Y-94253213D01*
X146620481Y-94315387D01*
X146617239Y-94323049D01*
X146570092Y-94457791D01*
X146567200Y-94488636D01*
X146567200Y-95198563D01*
X146570092Y-95229408D01*
X146615531Y-95359269D01*
X146661380Y-95421392D01*
X146681034Y-95480378D01*
X146662264Y-95539651D01*
X146622417Y-95570803D01*
X146622892Y-95571667D01*
X146617572Y-95574591D01*
X146617485Y-95574660D01*
X146617352Y-95574712D01*
X146617344Y-95574716D01*
X146580194Y-95601706D01*
X146576235Y-95604307D01*
X146536695Y-95627693D01*
X146536689Y-95627697D01*
X146521740Y-95642645D01*
X146509747Y-95652889D01*
X146492637Y-95665321D01*
X146463357Y-95700713D01*
X146460167Y-95704219D01*
X145902668Y-96261718D01*
X145891456Y-96270701D01*
X145891490Y-96270742D01*
X145886615Y-96274774D01*
X145840429Y-96323958D01*
X145820051Y-96344336D01*
X145815613Y-96350057D01*
X145812538Y-96353657D01*
X145781095Y-96387143D01*
X145770911Y-96405667D01*
X145762246Y-96418857D01*
X145749291Y-96435557D01*
X145749286Y-96435567D01*
X145731045Y-96477716D01*
X145728961Y-96481970D01*
X145706834Y-96522223D01*
X145706832Y-96522226D01*
X145701575Y-96542701D01*
X145696466Y-96557626D01*
X145688067Y-96577036D01*
X145680882Y-96622396D01*
X145679921Y-96627037D01*
X145668500Y-96671523D01*
X145668500Y-96692660D01*
X145667262Y-96708396D01*
X145663954Y-96729279D01*
X145663954Y-96729283D01*
X145668277Y-96775017D01*
X145668500Y-96779752D01*
X145668500Y-98575141D01*
X145666923Y-98589421D01*
X145666977Y-98589427D01*
X145666380Y-98595733D01*
X145668500Y-98663167D01*
X145668500Y-98691990D01*
X145669408Y-98699172D01*
X145669779Y-98703892D01*
X145669967Y-98709861D01*
X145671221Y-98749790D01*
X145671222Y-98749800D01*
X145677119Y-98770095D01*
X145680320Y-98785552D01*
X145682969Y-98806524D01*
X145682970Y-98806529D01*
X145682971Y-98806532D01*
X145699878Y-98849235D01*
X145701411Y-98853711D01*
X145703572Y-98861148D01*
X145714228Y-98897825D01*
X145723016Y-98912685D01*
X145724989Y-98916022D01*
X145731930Y-98930191D01*
X145739715Y-98949853D01*
X145766716Y-98987018D01*
X145769318Y-98990979D01*
X145792693Y-99030504D01*
X145807639Y-99045450D01*
X145817892Y-99057455D01*
X145830319Y-99074560D01*
X145830320Y-99074561D01*
X145830321Y-99074562D01*
X145865718Y-99103845D01*
X145869220Y-99107031D01*
X147061716Y-100299528D01*
X147070701Y-100310742D01*
X147070742Y-100310709D01*
X147074776Y-100315586D01*
X147123957Y-100361770D01*
X147144332Y-100382144D01*
X147144335Y-100382147D01*
X147150064Y-100386591D01*
X147153653Y-100389656D01*
X147187142Y-100421104D01*
X147205668Y-100431288D01*
X147218862Y-100439955D01*
X147235566Y-100452912D01*
X147235567Y-100452912D01*
X147235568Y-100452913D01*
X147277713Y-100471150D01*
X147281971Y-100473237D01*
X147314244Y-100490979D01*
X147322222Y-100495365D01*
X147332527Y-100498010D01*
X147342696Y-100500622D01*
X147357631Y-100505735D01*
X147377035Y-100514132D01*
X147422420Y-100521320D01*
X147427027Y-100522274D01*
X147471526Y-100533700D01*
X147492666Y-100533700D01*
X147508405Y-100534939D01*
X147533316Y-100538885D01*
X147588713Y-100567112D01*
X147616939Y-100622511D01*
X147607211Y-100683919D01*
X147570536Y-100723777D01*
X147512935Y-100759443D01*
X147481005Y-100779213D01*
X147481000Y-100779216D01*
X147322011Y-100924153D01*
X147192355Y-101095847D01*
X147192354Y-101095847D01*
X147096457Y-101288434D01*
X147096456Y-101288436D01*
X147037577Y-101495374D01*
X147037577Y-101495375D01*
X147035976Y-101512656D01*
X147022700Y-101655932D01*
X147022700Y-103271268D01*
X147028146Y-103330035D01*
X147037577Y-103431824D01*
X147037577Y-103431825D01*
X147096456Y-103638763D01*
X147096457Y-103638765D01*
X147192354Y-103831352D01*
X147199771Y-103841174D01*
X147268307Y-103931931D01*
X147322011Y-104003046D01*
X147481000Y-104147983D01*
X147481001Y-104147984D01*
X147481005Y-104147987D01*
X147565345Y-104200208D01*
X147576909Y-104207368D01*
X147617069Y-104254832D01*
X147621661Y-104316837D01*
X147588930Y-104369698D01*
X147531379Y-104393225D01*
X147523950Y-104393500D01*
X147510214Y-104393500D01*
X147503025Y-104394408D01*
X147498304Y-104394779D01*
X147487318Y-104395124D01*
X147452405Y-104396221D01*
X147452401Y-104396221D01*
X147452401Y-104396222D01*
X147448186Y-104397446D01*
X147432094Y-104402121D01*
X147416645Y-104405320D01*
X147395667Y-104407971D01*
X147395665Y-104407971D01*
X147352959Y-104424880D01*
X147348474Y-104426415D01*
X147304378Y-104439226D01*
X147304375Y-104439227D01*
X147304374Y-104439228D01*
X147288004Y-104448908D01*
X147286177Y-104449989D01*
X147272010Y-104456928D01*
X147252352Y-104464712D01*
X147252348Y-104464714D01*
X147215179Y-104491718D01*
X147211218Y-104494320D01*
X147171697Y-104517693D01*
X147171693Y-104517696D01*
X147156746Y-104532642D01*
X147144750Y-104542887D01*
X147127637Y-104555321D01*
X147098354Y-104590717D01*
X147095164Y-104594222D01*
X144701153Y-106988235D01*
X144645755Y-107016461D01*
X144630018Y-107017700D01*
X143565932Y-107017700D01*
X143506423Y-107023214D01*
X143405375Y-107032577D01*
X143405374Y-107032577D01*
X143198436Y-107091456D01*
X143198434Y-107091457D01*
X143005847Y-107187354D01*
X143005847Y-107187355D01*
X142834153Y-107317011D01*
X142689216Y-107476000D01*
X142689213Y-107476005D01*
X142575953Y-107658925D01*
X142575951Y-107658929D01*
X142498233Y-107859543D01*
X142458700Y-108071025D01*
X142458700Y-108286174D01*
X142498233Y-108497656D01*
X142547956Y-108626007D01*
X142575953Y-108698274D01*
X142689213Y-108881195D01*
X142689214Y-108881196D01*
X142689216Y-108881199D01*
X142834153Y-109040188D01*
X142834156Y-109040191D01*
X143005847Y-109169845D01*
X143198438Y-109265744D01*
X143405371Y-109324622D01*
X143426644Y-109326593D01*
X143483751Y-109351179D01*
X143515500Y-109404635D01*
X143511940Y-109461053D01*
X143492472Y-109514748D01*
X144217801Y-110240077D01*
X144100500Y-110293648D01*
X143991839Y-110387802D01*
X143914107Y-110508756D01*
X143897520Y-110565244D01*
X143003926Y-109671650D01*
X143003925Y-109671650D01*
X142996279Y-109675332D01*
X142820014Y-109803395D01*
X142669444Y-109960880D01*
X142669443Y-109960880D01*
X142549420Y-110142708D01*
X142463790Y-110343052D01*
X142415307Y-110555467D01*
X142405532Y-110773125D01*
X142434778Y-110989028D01*
X142434779Y-110989031D01*
X142502105Y-111196240D01*
X142605348Y-111388099D01*
X142605351Y-111388103D01*
X142741192Y-111558441D01*
X142905271Y-111701794D01*
X143006938Y-111762536D01*
X143897520Y-110871953D01*
X143914107Y-110928444D01*
X143991839Y-111049398D01*
X144100500Y-111143552D01*
X144217801Y-111197122D01*
X143489723Y-111925200D01*
X143510660Y-111928999D01*
X143510662Y-111929000D01*
X145181950Y-111929000D01*
X145254725Y-111922450D01*
X144529398Y-111197122D01*
X144646700Y-111143552D01*
X144755361Y-111049398D01*
X144833093Y-110928444D01*
X144849679Y-110871955D01*
X145743272Y-111765548D01*
X145750922Y-111761865D01*
X145750928Y-111761861D01*
X145927185Y-111633804D01*
X146077755Y-111476319D01*
X146077756Y-111476319D01*
X146197779Y-111294491D01*
X146283409Y-111094147D01*
X146331892Y-110881732D01*
X146341667Y-110664074D01*
X146312421Y-110448171D01*
X146312420Y-110448168D01*
X146245094Y-110240959D01*
X146141851Y-110049100D01*
X146141848Y-110049096D01*
X146006007Y-109878758D01*
X145841928Y-109735405D01*
X145740260Y-109674662D01*
X144849679Y-110565243D01*
X144833093Y-110508756D01*
X144755361Y-110387802D01*
X144646700Y-110293648D01*
X144529396Y-110240077D01*
X145257475Y-109511999D01*
X145240034Y-109456201D01*
X145240731Y-109394031D01*
X145277837Y-109344144D01*
X145326772Y-109326017D01*
X145341829Y-109324622D01*
X145548762Y-109265744D01*
X145741353Y-109169845D01*
X145913044Y-109040191D01*
X146057987Y-108881195D01*
X146171247Y-108698274D01*
X146248967Y-108497656D01*
X146288500Y-108286173D01*
X146288500Y-108071027D01*
X146248967Y-107859544D01*
X146171247Y-107658926D01*
X146057987Y-107476005D01*
X146057984Y-107476002D01*
X146055538Y-107472051D01*
X146057128Y-107471066D01*
X146039247Y-107419310D01*
X146057364Y-107359833D01*
X146068689Y-107346321D01*
X147771846Y-105643165D01*
X147827245Y-105614939D01*
X147842982Y-105613700D01*
X157198442Y-105613700D01*
X157257573Y-105632913D01*
X157280845Y-105656593D01*
X157386155Y-105806992D01*
X157540208Y-105961045D01*
X157718672Y-106086007D01*
X157916124Y-106178080D01*
X157916128Y-106178081D01*
X157918833Y-106179066D01*
X157919712Y-106179752D01*
X157920105Y-106179936D01*
X157920062Y-106180026D01*
X157967828Y-106217343D01*
X157984967Y-106277108D01*
X157963703Y-106335534D01*
X157920086Y-106367223D01*
X157920105Y-106367264D01*
X157919896Y-106367361D01*
X157918833Y-106368134D01*
X157916128Y-106369118D01*
X157817398Y-106415156D01*
X157718679Y-106461190D01*
X157718668Y-106461195D01*
X157540205Y-106586157D01*
X157386157Y-106740205D01*
X157386154Y-106740208D01*
X157386155Y-106740208D01*
X157280846Y-106890603D01*
X157231194Y-106928019D01*
X157198442Y-106933500D01*
X152707063Y-106933500D01*
X152692780Y-106931923D01*
X152692776Y-106931976D01*
X152686468Y-106931379D01*
X152619014Y-106933500D01*
X152590214Y-106933500D01*
X152583026Y-106934407D01*
X152578310Y-106934778D01*
X152532401Y-106936222D01*
X152512093Y-106942121D01*
X152496646Y-106945320D01*
X152475667Y-106947971D01*
X152475665Y-106947971D01*
X152432966Y-106964877D01*
X152428482Y-106966412D01*
X152384371Y-106979227D01*
X152366168Y-106989992D01*
X152352000Y-106996933D01*
X152332347Y-107004715D01*
X152331365Y-107005255D01*
X152330279Y-107005533D01*
X152326463Y-107007045D01*
X152326272Y-107006562D01*
X152282898Y-107017700D01*
X151185932Y-107017700D01*
X151126423Y-107023214D01*
X151025375Y-107032577D01*
X151025374Y-107032577D01*
X150818436Y-107091456D01*
X150818434Y-107091457D01*
X150625847Y-107187354D01*
X150625847Y-107187355D01*
X150454153Y-107317011D01*
X150309216Y-107476000D01*
X150309213Y-107476005D01*
X150195953Y-107658925D01*
X150195951Y-107658929D01*
X150118233Y-107859543D01*
X150078700Y-108071025D01*
X150078700Y-108286174D01*
X150118233Y-108497656D01*
X150167956Y-108626007D01*
X150195953Y-108698274D01*
X150309213Y-108881195D01*
X150309214Y-108881196D01*
X150309216Y-108881199D01*
X150454153Y-109040188D01*
X150454156Y-109040191D01*
X150625847Y-109169845D01*
X150818438Y-109265744D01*
X151025371Y-109324622D01*
X151046644Y-109326593D01*
X151103751Y-109351179D01*
X151135500Y-109404635D01*
X151131940Y-109461053D01*
X151112472Y-109514748D01*
X151837801Y-110240077D01*
X151720500Y-110293648D01*
X151611839Y-110387802D01*
X151534107Y-110508756D01*
X151517520Y-110565244D01*
X150623926Y-109671650D01*
X150623925Y-109671650D01*
X150616279Y-109675332D01*
X150440014Y-109803395D01*
X150289444Y-109960880D01*
X150289443Y-109960880D01*
X150169420Y-110142708D01*
X150083790Y-110343052D01*
X150035307Y-110555467D01*
X150025532Y-110773125D01*
X150054778Y-110989028D01*
X150054779Y-110989031D01*
X150122105Y-111196240D01*
X150225348Y-111388099D01*
X150225351Y-111388103D01*
X150361192Y-111558441D01*
X150525271Y-111701794D01*
X150626938Y-111762536D01*
X151517520Y-110871953D01*
X151534107Y-110928444D01*
X151611839Y-111049398D01*
X151720500Y-111143552D01*
X151837801Y-111197122D01*
X151109723Y-111925200D01*
X151130660Y-111928999D01*
X151130662Y-111929000D01*
X152801950Y-111929000D01*
X152874725Y-111922450D01*
X152149398Y-111197122D01*
X152266700Y-111143552D01*
X152375361Y-111049398D01*
X152453093Y-110928444D01*
X152469679Y-110871955D01*
X153363272Y-111765548D01*
X153370922Y-111761865D01*
X153370928Y-111761861D01*
X153547185Y-111633804D01*
X153697755Y-111476319D01*
X153697756Y-111476319D01*
X153817779Y-111294491D01*
X153903409Y-111094147D01*
X153951892Y-110881732D01*
X153961667Y-110664074D01*
X153932421Y-110448171D01*
X153932420Y-110448168D01*
X153865094Y-110240959D01*
X153761851Y-110049100D01*
X153761848Y-110049096D01*
X153626007Y-109878758D01*
X153461928Y-109735405D01*
X153360260Y-109674662D01*
X153360259Y-109674662D01*
X152469678Y-110565242D01*
X152453093Y-110508756D01*
X152375361Y-110387802D01*
X152266700Y-110293648D01*
X152149396Y-110240077D01*
X152877475Y-109511999D01*
X152860034Y-109456201D01*
X152860731Y-109394031D01*
X152897837Y-109344144D01*
X152946772Y-109326017D01*
X152961829Y-109324622D01*
X153168762Y-109265744D01*
X153361353Y-109169845D01*
X153533044Y-109040191D01*
X153677987Y-108881195D01*
X153791247Y-108698274D01*
X153868967Y-108497656D01*
X153908500Y-108286173D01*
X153908500Y-108254299D01*
X153927713Y-108195169D01*
X153978013Y-108158624D01*
X154009100Y-108153700D01*
X156627820Y-108153700D01*
X156686951Y-108172913D01*
X156723496Y-108223213D01*
X156723496Y-108285387D01*
X156698949Y-108325441D01*
X156696695Y-108327694D01*
X156696694Y-108327695D01*
X156691866Y-108332522D01*
X156681744Y-108342643D01*
X156669751Y-108352886D01*
X156652637Y-108365320D01*
X156623353Y-108400718D01*
X156620163Y-108404224D01*
X155427668Y-109596718D01*
X155416456Y-109605701D01*
X155416490Y-109605742D01*
X155411615Y-109609774D01*
X155365429Y-109658958D01*
X155345051Y-109679336D01*
X155340613Y-109685057D01*
X155337538Y-109688657D01*
X155306095Y-109722143D01*
X155295911Y-109740667D01*
X155287246Y-109753857D01*
X155274291Y-109770557D01*
X155274286Y-109770567D01*
X155256045Y-109812716D01*
X155253961Y-109816970D01*
X155231834Y-109857223D01*
X155231832Y-109857226D01*
X155226575Y-109877701D01*
X155221466Y-109892626D01*
X155213067Y-109912036D01*
X155205882Y-109957396D01*
X155204921Y-109962037D01*
X155193500Y-110006523D01*
X155193500Y-110027660D01*
X155192262Y-110043396D01*
X155188954Y-110064279D01*
X155188954Y-110064283D01*
X155188954Y-110064284D01*
X155190172Y-110077173D01*
X155193277Y-110110017D01*
X155193500Y-110114752D01*
X155193500Y-111059217D01*
X155174287Y-111118348D01*
X155164035Y-111130352D01*
X153040353Y-113254035D01*
X152984955Y-113282261D01*
X152969218Y-113283500D01*
X148262063Y-113283500D01*
X148247780Y-113281923D01*
X148247776Y-113281976D01*
X148241468Y-113281379D01*
X148174014Y-113283500D01*
X148145214Y-113283500D01*
X148138026Y-113284407D01*
X148133310Y-113284778D01*
X148087401Y-113286222D01*
X148067093Y-113292121D01*
X148051646Y-113295320D01*
X148030667Y-113297971D01*
X148030665Y-113297971D01*
X147987966Y-113314877D01*
X147983482Y-113316412D01*
X147939371Y-113329227D01*
X147921168Y-113339992D01*
X147907000Y-113346933D01*
X147887349Y-113354714D01*
X147887344Y-113354716D01*
X147850194Y-113381706D01*
X147846235Y-113384307D01*
X147806695Y-113407693D01*
X147806689Y-113407697D01*
X147791740Y-113422645D01*
X147779747Y-113432889D01*
X147762637Y-113445321D01*
X147733357Y-113480713D01*
X147730167Y-113484219D01*
X144701153Y-116513235D01*
X144645755Y-116541461D01*
X144630018Y-116542700D01*
X143565932Y-116542700D01*
X143506423Y-116548214D01*
X143405375Y-116557577D01*
X143405374Y-116557577D01*
X143198436Y-116616456D01*
X143198434Y-116616457D01*
X143005847Y-116712354D01*
X143005847Y-116712355D01*
X142834153Y-116842011D01*
X142689216Y-117001000D01*
X142689213Y-117001005D01*
X142575953Y-117183925D01*
X142575951Y-117183929D01*
X142498233Y-117384543D01*
X142458700Y-117596025D01*
X142458700Y-117811174D01*
X142498233Y-118022656D01*
X142538774Y-118127306D01*
X142575953Y-118223274D01*
X142689213Y-118406195D01*
X142689214Y-118406196D01*
X142689216Y-118406199D01*
X142818889Y-118548444D01*
X142834156Y-118565191D01*
X143005847Y-118694845D01*
X143198438Y-118790744D01*
X143405371Y-118849622D01*
X143426644Y-118851593D01*
X143483751Y-118876179D01*
X143515500Y-118929635D01*
X143511940Y-118986053D01*
X143492472Y-119039748D01*
X144217801Y-119765077D01*
X144100500Y-119818648D01*
X143991839Y-119912802D01*
X143914107Y-120033756D01*
X143897520Y-120090244D01*
X143003926Y-119196650D01*
X143003925Y-119196650D01*
X142996279Y-119200332D01*
X142820014Y-119328395D01*
X142669444Y-119485880D01*
X142669443Y-119485880D01*
X142549420Y-119667708D01*
X142463790Y-119868052D01*
X142415307Y-120080467D01*
X142405532Y-120298125D01*
X142434778Y-120514028D01*
X142434779Y-120514031D01*
X142502105Y-120721240D01*
X142605348Y-120913099D01*
X142605351Y-120913103D01*
X142741192Y-121083441D01*
X142905271Y-121226794D01*
X143006938Y-121287536D01*
X143897520Y-120396953D01*
X143914107Y-120453444D01*
X143991839Y-120574398D01*
X144100500Y-120668552D01*
X144217801Y-120722122D01*
X143489723Y-121450200D01*
X143510660Y-121453999D01*
X143510662Y-121454000D01*
X145181950Y-121454000D01*
X145254725Y-121447450D01*
X144529398Y-120722122D01*
X144646700Y-120668552D01*
X144755361Y-120574398D01*
X144833093Y-120453444D01*
X144849679Y-120396954D01*
X145743272Y-121290548D01*
X145750922Y-121286865D01*
X145750928Y-121286861D01*
X145927185Y-121158804D01*
X146077755Y-121001319D01*
X146077756Y-121001319D01*
X146197779Y-120819491D01*
X146283409Y-120619147D01*
X146331892Y-120406732D01*
X146336770Y-120298125D01*
X150025532Y-120298125D01*
X150054778Y-120514028D01*
X150054779Y-120514031D01*
X150122105Y-120721240D01*
X150225348Y-120913099D01*
X150225351Y-120913103D01*
X150361192Y-121083441D01*
X150525271Y-121226794D01*
X150626938Y-121287536D01*
X151517520Y-120396953D01*
X151534107Y-120453444D01*
X151611839Y-120574398D01*
X151720500Y-120668552D01*
X151837801Y-120722122D01*
X151109723Y-121450200D01*
X151130660Y-121453999D01*
X151130662Y-121454000D01*
X152801950Y-121454000D01*
X152874725Y-121447450D01*
X152149398Y-120722122D01*
X152266700Y-120668552D01*
X152375361Y-120574398D01*
X152453093Y-120453444D01*
X152469679Y-120396955D01*
X153363272Y-121290548D01*
X153370922Y-121286865D01*
X153370928Y-121286861D01*
X153547185Y-121158804D01*
X153697755Y-121001319D01*
X153697756Y-121001319D01*
X153817779Y-120819491D01*
X153903409Y-120619147D01*
X153951892Y-120406732D01*
X153961667Y-120189074D01*
X153932421Y-119973171D01*
X153932420Y-119973168D01*
X153865094Y-119765959D01*
X153761851Y-119574100D01*
X153761848Y-119574096D01*
X153626007Y-119403758D01*
X153461928Y-119260405D01*
X153360260Y-119199662D01*
X153360260Y-119199663D01*
X152469679Y-120090243D01*
X152453093Y-120033756D01*
X152375361Y-119912802D01*
X152266700Y-119818648D01*
X152149396Y-119765077D01*
X152877475Y-119036999D01*
X152860034Y-118981201D01*
X152860731Y-118919031D01*
X152897837Y-118869144D01*
X152946772Y-118851017D01*
X152961829Y-118849622D01*
X153168762Y-118790744D01*
X153361353Y-118694845D01*
X153533044Y-118565191D01*
X153677987Y-118406195D01*
X153791247Y-118223274D01*
X153868967Y-118022656D01*
X153908500Y-117811173D01*
X153908500Y-117596027D01*
X153868967Y-117384544D01*
X153791247Y-117183926D01*
X153677987Y-117001005D01*
X153677984Y-117001001D01*
X153677983Y-117001000D01*
X153533046Y-116842011D01*
X153533045Y-116842010D01*
X153533044Y-116842009D01*
X153361353Y-116712355D01*
X153361352Y-116712354D01*
X153168765Y-116616457D01*
X153168763Y-116616456D01*
X153085500Y-116592765D01*
X152961829Y-116557578D01*
X152961826Y-116557577D01*
X152961824Y-116557577D01*
X152866853Y-116548777D01*
X152801268Y-116542700D01*
X151185932Y-116542700D01*
X151126423Y-116548214D01*
X151025375Y-116557577D01*
X151025374Y-116557577D01*
X150818436Y-116616456D01*
X150818434Y-116616457D01*
X150625847Y-116712354D01*
X150625847Y-116712355D01*
X150454153Y-116842011D01*
X150309216Y-117001000D01*
X150309213Y-117001005D01*
X150195953Y-117183925D01*
X150195951Y-117183929D01*
X150118233Y-117384543D01*
X150078700Y-117596025D01*
X150078700Y-117811174D01*
X150118233Y-118022656D01*
X150158774Y-118127306D01*
X150195953Y-118223274D01*
X150309213Y-118406195D01*
X150309214Y-118406196D01*
X150309216Y-118406199D01*
X150438889Y-118548444D01*
X150454156Y-118565191D01*
X150625847Y-118694845D01*
X150818438Y-118790744D01*
X151025371Y-118849622D01*
X151046644Y-118851593D01*
X151103751Y-118876179D01*
X151135500Y-118929635D01*
X151131940Y-118986053D01*
X151112472Y-119039748D01*
X151837801Y-119765077D01*
X151720500Y-119818648D01*
X151611839Y-119912802D01*
X151534107Y-120033756D01*
X151517520Y-120090244D01*
X150623926Y-119196650D01*
X150623925Y-119196650D01*
X150616279Y-119200332D01*
X150440014Y-119328395D01*
X150289444Y-119485880D01*
X150289443Y-119485880D01*
X150169420Y-119667708D01*
X150083790Y-119868052D01*
X150035307Y-120080467D01*
X150025532Y-120298125D01*
X146336770Y-120298125D01*
X146341667Y-120189074D01*
X146312421Y-119973171D01*
X146312420Y-119973168D01*
X146245094Y-119765959D01*
X146141851Y-119574100D01*
X146141848Y-119574096D01*
X146006007Y-119403758D01*
X145841928Y-119260405D01*
X145740260Y-119199662D01*
X144849679Y-120090243D01*
X144833093Y-120033756D01*
X144755361Y-119912802D01*
X144646700Y-119818648D01*
X144529396Y-119765077D01*
X145257475Y-119036999D01*
X145240034Y-118981201D01*
X145240731Y-118919031D01*
X145277837Y-118869144D01*
X145326772Y-118851017D01*
X145341829Y-118849622D01*
X145548762Y-118790744D01*
X145741353Y-118694845D01*
X145913044Y-118565191D01*
X146057987Y-118406195D01*
X146171247Y-118223274D01*
X146248967Y-118022656D01*
X146288500Y-117811173D01*
X146288500Y-117596027D01*
X146248967Y-117384544D01*
X146171247Y-117183926D01*
X146057987Y-117001005D01*
X146057984Y-117001002D01*
X146055538Y-116997051D01*
X146057128Y-116996066D01*
X146039247Y-116944310D01*
X146057364Y-116884833D01*
X146068689Y-116871321D01*
X148406846Y-114533165D01*
X148462245Y-114504939D01*
X148477982Y-114503700D01*
X153185142Y-114503700D01*
X153199420Y-114505276D01*
X153199426Y-114505223D01*
X153205725Y-114505818D01*
X153205728Y-114505819D01*
X153205731Y-114505818D01*
X153205732Y-114505819D01*
X153273168Y-114503700D01*
X153301977Y-114503700D01*
X153301983Y-114503700D01*
X153309180Y-114502789D01*
X153313878Y-114502419D01*
X153359799Y-114500978D01*
X153380100Y-114495079D01*
X153395546Y-114491879D01*
X153416532Y-114489229D01*
X153459253Y-114472313D01*
X153463698Y-114470790D01*
X153507825Y-114457972D01*
X153526026Y-114447207D01*
X153540186Y-114440270D01*
X153559854Y-114432484D01*
X153597032Y-114405472D01*
X153600971Y-114402884D01*
X153640506Y-114379505D01*
X153655452Y-114364557D01*
X153667450Y-114354310D01*
X153684562Y-114341879D01*
X153713850Y-114306473D01*
X153717027Y-114302982D01*
X156179525Y-111840484D01*
X156190736Y-111831504D01*
X156190703Y-111831464D01*
X156195578Y-111827430D01*
X156195579Y-111827427D01*
X156195583Y-111827426D01*
X156241786Y-111778224D01*
X156262146Y-111757865D01*
X156266583Y-111752142D01*
X156269655Y-111748545D01*
X156301104Y-111715058D01*
X156311295Y-111696519D01*
X156319960Y-111683331D01*
X156332908Y-111666639D01*
X156332907Y-111666639D01*
X156332912Y-111666634D01*
X156351161Y-111624460D01*
X156353222Y-111620253D01*
X156375365Y-111579978D01*
X156380622Y-111559496D01*
X156385733Y-111544568D01*
X156394131Y-111525166D01*
X156401316Y-111479796D01*
X156402274Y-111475169D01*
X156413700Y-111430674D01*
X156413700Y-111409533D01*
X156414939Y-111393792D01*
X156415841Y-111388103D01*
X156418246Y-111372916D01*
X156413923Y-111327182D01*
X156413700Y-111322446D01*
X156413700Y-110377980D01*
X156432913Y-110318849D01*
X156443159Y-110306851D01*
X156939275Y-109810734D01*
X156994671Y-109782510D01*
X157056079Y-109792236D01*
X157100043Y-109836199D01*
X157110625Y-109890638D01*
X157093744Y-110083597D01*
X157093744Y-110083601D01*
X157112732Y-110300632D01*
X157112733Y-110300640D01*
X157138252Y-110395875D01*
X157169120Y-110511076D01*
X157261193Y-110708528D01*
X157386155Y-110886992D01*
X157540208Y-111041045D01*
X157718672Y-111166007D01*
X157916124Y-111258080D01*
X157916128Y-111258081D01*
X157918833Y-111259066D01*
X157919712Y-111259752D01*
X157920105Y-111259936D01*
X157920062Y-111260026D01*
X157967828Y-111297343D01*
X157984967Y-111357108D01*
X157963703Y-111415534D01*
X157920086Y-111447223D01*
X157920105Y-111447264D01*
X157919896Y-111447361D01*
X157918833Y-111448134D01*
X157916128Y-111449118D01*
X157718668Y-111541195D01*
X157540205Y-111666157D01*
X157386157Y-111820205D01*
X157261195Y-111998668D01*
X157169120Y-112196124D01*
X157112733Y-112406559D01*
X157112732Y-112406563D01*
X157112732Y-112406565D01*
X157093744Y-112623600D01*
X157112732Y-112840635D01*
X157169120Y-113051076D01*
X157261193Y-113248528D01*
X157386155Y-113426992D01*
X157540208Y-113581045D01*
X157718672Y-113706007D01*
X157916124Y-113798080D01*
X157916128Y-113798081D01*
X157918833Y-113799066D01*
X157919712Y-113799752D01*
X157920105Y-113799936D01*
X157920062Y-113800026D01*
X157967828Y-113837343D01*
X157984967Y-113897108D01*
X157963703Y-113955534D01*
X157920086Y-113987223D01*
X157920105Y-113987264D01*
X157919896Y-113987361D01*
X157918833Y-113988134D01*
X157916128Y-113989118D01*
X157817398Y-114035156D01*
X157718679Y-114081190D01*
X157718668Y-114081195D01*
X157540205Y-114206157D01*
X157386157Y-114360205D01*
X157261195Y-114538668D01*
X157169120Y-114736124D01*
X157112733Y-114946559D01*
X157112732Y-114946563D01*
X157112732Y-114946565D01*
X157093744Y-115163600D01*
X157112732Y-115380635D01*
X157169120Y-115591076D01*
X157261193Y-115788528D01*
X157386155Y-115966992D01*
X157540208Y-116121045D01*
X157718672Y-116246007D01*
X157916124Y-116338080D01*
X157916128Y-116338081D01*
X157918833Y-116339066D01*
X157919712Y-116339752D01*
X157920105Y-116339936D01*
X157920062Y-116340026D01*
X157967828Y-116377343D01*
X157984967Y-116437108D01*
X157963703Y-116495534D01*
X157920086Y-116527223D01*
X157920105Y-116527264D01*
X157919896Y-116527361D01*
X157918833Y-116528134D01*
X157916128Y-116529118D01*
X157855095Y-116557578D01*
X157728829Y-116616457D01*
X157718668Y-116621195D01*
X157540205Y-116746157D01*
X157386157Y-116900205D01*
X157261195Y-117078668D01*
X157261193Y-117078671D01*
X157261193Y-117078672D01*
X157212111Y-117183929D01*
X157169120Y-117276124D01*
X157112733Y-117486559D01*
X157112732Y-117486563D01*
X157112732Y-117486565D01*
X157093744Y-117703600D01*
X157103155Y-117811174D01*
X157112732Y-117920632D01*
X157112733Y-117920640D01*
X157138252Y-118015876D01*
X157169120Y-118131076D01*
X157261193Y-118328528D01*
X157386155Y-118506992D01*
X157540208Y-118661045D01*
X157718672Y-118786007D01*
X157728831Y-118790744D01*
X157866878Y-118855117D01*
X157912349Y-118897519D01*
X157924212Y-118958551D01*
X157897936Y-119014900D01*
X157866878Y-119037465D01*
X157693835Y-119118157D01*
X157693831Y-119118159D01*
X157603871Y-119181148D01*
X158187800Y-119765077D01*
X158070500Y-119818648D01*
X157961839Y-119912802D01*
X157884107Y-120033756D01*
X157867520Y-120090243D01*
X157281148Y-119503871D01*
X157218159Y-119593831D01*
X157218157Y-119593835D01*
X157122428Y-119799125D01*
X157063799Y-120017927D01*
X157063798Y-120017938D01*
X157044055Y-120243598D01*
X157044055Y-120243601D01*
X157063798Y-120469261D01*
X157063799Y-120469272D01*
X157122428Y-120688074D01*
X157218158Y-120893367D01*
X157218163Y-120893375D01*
X157281148Y-120983327D01*
X157867520Y-120396955D01*
X157884107Y-120453444D01*
X157961839Y-120574398D01*
X158070500Y-120668552D01*
X158187800Y-120722121D01*
X157603871Y-121306050D01*
X157693824Y-121369036D01*
X157693832Y-121369041D01*
X157899125Y-121464771D01*
X158117927Y-121523400D01*
X158117938Y-121523401D01*
X158343598Y-121543145D01*
X158343602Y-121543145D01*
X158569261Y-121523401D01*
X158569272Y-121523400D01*
X158788074Y-121464771D01*
X158993367Y-121369041D01*
X158993383Y-121369032D01*
X159083328Y-121306051D01*
X158499399Y-120722122D01*
X158616700Y-120668552D01*
X158725361Y-120574398D01*
X158803093Y-120453444D01*
X158819679Y-120396956D01*
X159406051Y-120983328D01*
X159469032Y-120893383D01*
X159469038Y-120893372D01*
X159549733Y-120720322D01*
X159592136Y-120674850D01*
X159653168Y-120662987D01*
X159709517Y-120689263D01*
X159732082Y-120720321D01*
X159801190Y-120868522D01*
X159801193Y-120868528D01*
X159926155Y-121046992D01*
X160080208Y-121201045D01*
X160258672Y-121326007D01*
X160456124Y-121418080D01*
X160666565Y-121474468D01*
X160855467Y-121490994D01*
X160883598Y-121493456D01*
X160883600Y-121493456D01*
X160883602Y-121493456D01*
X160910020Y-121491144D01*
X161100635Y-121474468D01*
X161311076Y-121418080D01*
X161508528Y-121326007D01*
X161686992Y-121201045D01*
X161841045Y-121046992D01*
X161966007Y-120868528D01*
X162058080Y-120671076D01*
X162114468Y-120460635D01*
X162133456Y-120243600D01*
X162114468Y-120026565D01*
X162058080Y-119816124D01*
X161966007Y-119618672D01*
X161841045Y-119440208D01*
X161686992Y-119286155D01*
X161508528Y-119161193D01*
X161311076Y-119069120D01*
X161311072Y-119069118D01*
X161308371Y-119068136D01*
X161307491Y-119067448D01*
X161307095Y-119067264D01*
X161307137Y-119067172D01*
X161259374Y-119029861D01*
X161242232Y-118970096D01*
X161263493Y-118911670D01*
X161307114Y-118879977D01*
X161307095Y-118879936D01*
X161307306Y-118879837D01*
X161308371Y-118879064D01*
X161311061Y-118878083D01*
X161311076Y-118878080D01*
X161508528Y-118786007D01*
X161686992Y-118661045D01*
X161841045Y-118506992D01*
X161966007Y-118328528D01*
X162058080Y-118131076D01*
X162114468Y-117920635D01*
X162133456Y-117703600D01*
X162114468Y-117486565D01*
X162058080Y-117276124D01*
X161966007Y-117078672D01*
X161841045Y-116900208D01*
X161686992Y-116746155D01*
X161508528Y-116621193D01*
X161311076Y-116529120D01*
X161311072Y-116529118D01*
X161308371Y-116528136D01*
X161307491Y-116527448D01*
X161307095Y-116527264D01*
X161307137Y-116527172D01*
X161259374Y-116489861D01*
X161242232Y-116430096D01*
X161263493Y-116371670D01*
X161307114Y-116339977D01*
X161307095Y-116339936D01*
X161307306Y-116339837D01*
X161308371Y-116339064D01*
X161311061Y-116338083D01*
X161311076Y-116338080D01*
X161508528Y-116246007D01*
X161686992Y-116121045D01*
X161841045Y-115966992D01*
X161966007Y-115788528D01*
X162058080Y-115591076D01*
X162114468Y-115380635D01*
X162133456Y-115163600D01*
X162114468Y-114946565D01*
X162058080Y-114736124D01*
X161966007Y-114538672D01*
X161841045Y-114360208D01*
X161686992Y-114206155D01*
X161508528Y-114081193D01*
X161508522Y-114081190D01*
X161360321Y-114012082D01*
X161314850Y-113969679D01*
X161302987Y-113908647D01*
X161329263Y-113852299D01*
X161360322Y-113829733D01*
X161533372Y-113749038D01*
X161533383Y-113749032D01*
X161623328Y-113686051D01*
X161039399Y-113102122D01*
X161156700Y-113048552D01*
X161265361Y-112954398D01*
X161343093Y-112833444D01*
X161359679Y-112776956D01*
X161946051Y-113363328D01*
X162009032Y-113273383D01*
X162009041Y-113273367D01*
X162104771Y-113068074D01*
X162163400Y-112849272D01*
X162163401Y-112849261D01*
X162183145Y-112623601D01*
X162183145Y-112623598D01*
X162163401Y-112397938D01*
X162163400Y-112397927D01*
X162104771Y-112179125D01*
X162009041Y-111973833D01*
X162009033Y-111973819D01*
X161946050Y-111883870D01*
X161359678Y-112470242D01*
X161343093Y-112413756D01*
X161265361Y-112292802D01*
X161156700Y-112198648D01*
X161039397Y-112145077D01*
X161623327Y-111561148D01*
X161533375Y-111498163D01*
X161533367Y-111498158D01*
X161360321Y-111417465D01*
X161314850Y-111375063D01*
X161302987Y-111314031D01*
X161329263Y-111257682D01*
X161360320Y-111235116D01*
X161508528Y-111166007D01*
X161686992Y-111041045D01*
X161841045Y-110886992D01*
X161966007Y-110708528D01*
X162058080Y-110511076D01*
X162114468Y-110300635D01*
X162133456Y-110083600D01*
X162114468Y-109866565D01*
X162058080Y-109656124D01*
X161966007Y-109458672D01*
X161841045Y-109280208D01*
X161686992Y-109126155D01*
X161508528Y-109001193D01*
X161311076Y-108909120D01*
X161311072Y-108909118D01*
X161308371Y-108908136D01*
X161307491Y-108907448D01*
X161307095Y-108907264D01*
X161307137Y-108907172D01*
X161259374Y-108869861D01*
X161242232Y-108810096D01*
X161263493Y-108751670D01*
X161307114Y-108719977D01*
X161307095Y-108719936D01*
X161307306Y-108719837D01*
X161308371Y-108719064D01*
X161311061Y-108718083D01*
X161311076Y-108718080D01*
X161508528Y-108626007D01*
X161686992Y-108501045D01*
X161841045Y-108346992D01*
X161966007Y-108168528D01*
X162058080Y-107971076D01*
X162114468Y-107760635D01*
X162133456Y-107543600D01*
X162114468Y-107326565D01*
X162058080Y-107116124D01*
X161966007Y-106918672D01*
X161841045Y-106740208D01*
X161686992Y-106586155D01*
X161508528Y-106461193D01*
X161508522Y-106461190D01*
X161360321Y-106392082D01*
X161314850Y-106349679D01*
X161302987Y-106288647D01*
X161329263Y-106232299D01*
X161360322Y-106209733D01*
X161533372Y-106129038D01*
X161533383Y-106129032D01*
X161623328Y-106066051D01*
X161039399Y-105482122D01*
X161156700Y-105428552D01*
X161265361Y-105334398D01*
X161343093Y-105213444D01*
X161359679Y-105156956D01*
X161946051Y-105743328D01*
X162009032Y-105653383D01*
X162009041Y-105653367D01*
X162104771Y-105448074D01*
X162163400Y-105229272D01*
X162163401Y-105229261D01*
X162183145Y-105003601D01*
X162183145Y-105003598D01*
X162163401Y-104777938D01*
X162163400Y-104777927D01*
X162104771Y-104559125D01*
X162009041Y-104353833D01*
X162009033Y-104353819D01*
X161946050Y-104263870D01*
X161359678Y-104850242D01*
X161343093Y-104793756D01*
X161265361Y-104672802D01*
X161156700Y-104578648D01*
X161039397Y-104525077D01*
X161623327Y-103941148D01*
X161533375Y-103878163D01*
X161533367Y-103878158D01*
X161360321Y-103797465D01*
X161314850Y-103755063D01*
X161302987Y-103694031D01*
X161329263Y-103637682D01*
X161360320Y-103615116D01*
X161508528Y-103546007D01*
X161686992Y-103421045D01*
X161841045Y-103266992D01*
X161966007Y-103088528D01*
X162058080Y-102891076D01*
X162114468Y-102680635D01*
X162133456Y-102463600D01*
X162114468Y-102246565D01*
X162058080Y-102036124D01*
X161966007Y-101838672D01*
X161841045Y-101660208D01*
X161686992Y-101506155D01*
X161508528Y-101381193D01*
X161311076Y-101289120D01*
X161311072Y-101289118D01*
X161308371Y-101288136D01*
X161307491Y-101287448D01*
X161307095Y-101287264D01*
X161307137Y-101287172D01*
X161259374Y-101249861D01*
X161242232Y-101190096D01*
X161263493Y-101131670D01*
X161307114Y-101099977D01*
X161307095Y-101099936D01*
X161307306Y-101099837D01*
X161308371Y-101099064D01*
X161311061Y-101098083D01*
X161311076Y-101098080D01*
X161508528Y-101006007D01*
X161686992Y-100881045D01*
X161841045Y-100726992D01*
X161966007Y-100548528D01*
X162058080Y-100351076D01*
X162114468Y-100140635D01*
X162133456Y-99923600D01*
X162114468Y-99706565D01*
X162058080Y-99496124D01*
X161966007Y-99298672D01*
X161841045Y-99120208D01*
X161686992Y-98966155D01*
X161508528Y-98841193D01*
X161311076Y-98749120D01*
X161311072Y-98749118D01*
X161308371Y-98748136D01*
X161307491Y-98747448D01*
X161307095Y-98747264D01*
X161307137Y-98747172D01*
X161259374Y-98709861D01*
X161242232Y-98650096D01*
X161263493Y-98591670D01*
X161307114Y-98559977D01*
X161307095Y-98559936D01*
X161307306Y-98559837D01*
X161308371Y-98559064D01*
X161311061Y-98558083D01*
X161311076Y-98558080D01*
X161508528Y-98466007D01*
X161686992Y-98341045D01*
X161841045Y-98186992D01*
X161966007Y-98008528D01*
X162058080Y-97811076D01*
X162114468Y-97600635D01*
X162133456Y-97383600D01*
X162114468Y-97166565D01*
X162058080Y-96956124D01*
X161966007Y-96758672D01*
X161841045Y-96580208D01*
X161686992Y-96426155D01*
X161508528Y-96301193D01*
X161508522Y-96301190D01*
X161360321Y-96232082D01*
X161314850Y-96189679D01*
X161302987Y-96128647D01*
X161329263Y-96072299D01*
X161360322Y-96049733D01*
X161533372Y-95969038D01*
X161533383Y-95969032D01*
X161623328Y-95906051D01*
X161039399Y-95322122D01*
X161156700Y-95268552D01*
X161265361Y-95174398D01*
X161343093Y-95053444D01*
X161359679Y-94996955D01*
X161946051Y-95583328D01*
X162009032Y-95493383D01*
X162009041Y-95493367D01*
X162104771Y-95288074D01*
X162163400Y-95069272D01*
X162163401Y-95069261D01*
X162183145Y-94843601D01*
X162183145Y-94843598D01*
X162163401Y-94617938D01*
X162163400Y-94617927D01*
X162104771Y-94399125D01*
X162009041Y-94193833D01*
X162009033Y-94193819D01*
X161946050Y-94103870D01*
X161359678Y-94690242D01*
X161343093Y-94633756D01*
X161265361Y-94512802D01*
X161156700Y-94418648D01*
X161039398Y-94365077D01*
X161623327Y-93781148D01*
X161533375Y-93718163D01*
X161533367Y-93718158D01*
X161360321Y-93637465D01*
X161314850Y-93595063D01*
X161302987Y-93534031D01*
X161329263Y-93477682D01*
X161360320Y-93455116D01*
X161508528Y-93386007D01*
X161686992Y-93261045D01*
X161841045Y-93106992D01*
X161966007Y-92928528D01*
X162058080Y-92731076D01*
X162114468Y-92520635D01*
X162133456Y-92303600D01*
X162114468Y-92086565D01*
X162058080Y-91876124D01*
X161966007Y-91678672D01*
X161841045Y-91500208D01*
X161790225Y-91449388D01*
X161726365Y-91385527D01*
X161698138Y-91330129D01*
X161696900Y-91314392D01*
X161696900Y-90752807D01*
X161716113Y-90693676D01*
X161726365Y-90681672D01*
X161778702Y-90629335D01*
X161841045Y-90566992D01*
X161966007Y-90388528D01*
X162058080Y-90191076D01*
X162114468Y-89980635D01*
X162133456Y-89763600D01*
X162114468Y-89546565D01*
X162058080Y-89336124D01*
X161966007Y-89138672D01*
X161841045Y-88960208D01*
X161791002Y-88910165D01*
X161726365Y-88845527D01*
X161698138Y-88790129D01*
X161696900Y-88774392D01*
X161696900Y-88401966D01*
X161696900Y-88401963D01*
X161687297Y-88359893D01*
X161686357Y-88354360D01*
X161681526Y-88311479D01*
X161667271Y-88270744D01*
X161665715Y-88265339D01*
X161656117Y-88223286D01*
X161656117Y-88223284D01*
X161637399Y-88184414D01*
X161635242Y-88179208D01*
X161620994Y-88138490D01*
X161598042Y-88101962D01*
X161595313Y-88097023D01*
X161586330Y-88078369D01*
X161576598Y-88058160D01*
X161549700Y-88024431D01*
X161546442Y-88019840D01*
X161523487Y-87983307D01*
X161408043Y-87867863D01*
X161408041Y-87867860D01*
X160778680Y-87238500D01*
X160156395Y-86616215D01*
X160123893Y-86583713D01*
X160123891Y-86583711D01*
X160087367Y-86560762D01*
X160082771Y-86557501D01*
X160049040Y-86530602D01*
X160049039Y-86530601D01*
X160010167Y-86511881D01*
X160005236Y-86509156D01*
X159984073Y-86495859D01*
X159968714Y-86486208D01*
X159968712Y-86486207D01*
X159968710Y-86486206D01*
X159939421Y-86475956D01*
X159927992Y-86471957D01*
X159922780Y-86469798D01*
X159883910Y-86451080D01*
X159841860Y-86441482D01*
X159836438Y-86439920D01*
X159804608Y-86428783D01*
X159795721Y-86425674D01*
X159795719Y-86425673D01*
X159795717Y-86425673D01*
X159795715Y-86425672D01*
X159752856Y-86420843D01*
X159747292Y-86419898D01*
X159705242Y-86410301D01*
X159705240Y-86410300D01*
X159705237Y-86410300D01*
X159659272Y-86410300D01*
X156484272Y-86410300D01*
X149037236Y-86410300D01*
X148853963Y-86410300D01*
X148853962Y-86410300D01*
X148811906Y-86419898D01*
X148806343Y-86420843D01*
X148763486Y-86425672D01*
X148763473Y-86425675D01*
X148761820Y-86426254D01*
X148760843Y-86426275D01*
X148757973Y-86426931D01*
X148757838Y-86426343D01*
X148699661Y-86427645D01*
X148648556Y-86392234D01*
X148628025Y-86333548D01*
X148628000Y-86331297D01*
X148628000Y-85060636D01*
X148625107Y-85029791D01*
X148579668Y-84899930D01*
X148557164Y-84869438D01*
X148537510Y-84810452D01*
X148556280Y-84751179D01*
X148606305Y-84714259D01*
X148638107Y-84709100D01*
X161510315Y-84709100D01*
X161517088Y-84709100D01*
X161520116Y-84709191D01*
X161818659Y-84727250D01*
X161824678Y-84727981D01*
X162117370Y-84781619D01*
X162123256Y-84783069D01*
X162407358Y-84871599D01*
X162413019Y-84873746D01*
X162684377Y-84995875D01*
X162689751Y-84998696D01*
X162944392Y-85152631D01*
X162949395Y-85156085D01*
X163183626Y-85339593D01*
X163188176Y-85343625D01*
X163398574Y-85554023D01*
X163402606Y-85558573D01*
X163586114Y-85792804D01*
X163589568Y-85797807D01*
X163743503Y-86052448D01*
X163746327Y-86057828D01*
X163790188Y-86155283D01*
X163868448Y-86329168D01*
X163870603Y-86334850D01*
X163898904Y-86425672D01*
X163959127Y-86618934D01*
X163960582Y-86624838D01*
X164014217Y-86917518D01*
X164014950Y-86923553D01*
X164027388Y-87129178D01*
X164033008Y-87222074D01*
X164033100Y-87225112D01*
X164033100Y-122782087D01*
X164033008Y-122785125D01*
X164014950Y-123083646D01*
X164014217Y-123089681D01*
X163960582Y-123382361D01*
X163959127Y-123388265D01*
X163870604Y-123672346D01*
X163868448Y-123678031D01*
X163746329Y-123949368D01*
X163743503Y-123954751D01*
X163589568Y-124209392D01*
X163586114Y-124214395D01*
X163402606Y-124448626D01*
X163398574Y-124453176D01*
X163188176Y-124663574D01*
X163183626Y-124667606D01*
X162949395Y-124851114D01*
X162944392Y-124854568D01*
X162689751Y-125008503D01*
X162684368Y-125011329D01*
X162413031Y-125133448D01*
X162407346Y-125135604D01*
X162123265Y-125224127D01*
X162117361Y-125225582D01*
X161824681Y-125279217D01*
X161818646Y-125279950D01*
X161761812Y-125283387D01*
X161520115Y-125298008D01*
X161517088Y-125298100D01*
X135485112Y-125298100D01*
X135482084Y-125298008D01*
X135183553Y-125279950D01*
X135177518Y-125279217D01*
X134884838Y-125225582D01*
X134878934Y-125224127D01*
X134594853Y-125135604D01*
X134589171Y-125133449D01*
X134317828Y-125011327D01*
X134312448Y-125008503D01*
X134057807Y-124854568D01*
X134052804Y-124851114D01*
X133818573Y-124667606D01*
X133814023Y-124663574D01*
X133603625Y-124453176D01*
X133599593Y-124448626D01*
X133416085Y-124214395D01*
X133412631Y-124209392D01*
X133258696Y-123954751D01*
X133255875Y-123949377D01*
X133133746Y-123678019D01*
X133131599Y-123672358D01*
X133043069Y-123388256D01*
X133041619Y-123382370D01*
X132987981Y-123089676D01*
X132987250Y-123083661D01*
X132969189Y-122785084D01*
X132969144Y-122783599D01*
X133471574Y-122783599D01*
X133472383Y-122794911D01*
X133472511Y-122798500D01*
X133472511Y-122924230D01*
X133490845Y-123054691D01*
X133491206Y-123058099D01*
X133492053Y-123069930D01*
X133492055Y-123069946D01*
X133494297Y-123080251D01*
X133494957Y-123083943D01*
X133511653Y-123202746D01*
X133511654Y-123202750D01*
X133549692Y-123335404D01*
X133550490Y-123338574D01*
X133553076Y-123350458D01*
X133556423Y-123359430D01*
X133557647Y-123363145D01*
X133589178Y-123473110D01*
X133589180Y-123473114D01*
X133647982Y-123605186D01*
X133649157Y-123608062D01*
X133653393Y-123619417D01*
X133653401Y-123619435D01*
X133657434Y-123626821D01*
X133659237Y-123630467D01*
X133703575Y-123730050D01*
X133783869Y-123858547D01*
X133785360Y-123861098D01*
X133790974Y-123871380D01*
X133790975Y-123871382D01*
X133795228Y-123877062D01*
X133797621Y-123880555D01*
X133852623Y-123968577D01*
X133901257Y-124026536D01*
X133954730Y-124090263D01*
X133956453Y-124092437D01*
X133963013Y-124101198D01*
X133967011Y-124105196D01*
X133969977Y-124108433D01*
X134033402Y-124184021D01*
X134033414Y-124184034D01*
X134157291Y-124295574D01*
X134159202Y-124297387D01*
X134166003Y-124304188D01*
X134169259Y-124306625D01*
X134172763Y-124309505D01*
X134242426Y-124372230D01*
X134242432Y-124372234D01*
X134242437Y-124372238D01*
X134339881Y-124437964D01*
X134365052Y-124454942D01*
X134387622Y-124470165D01*
X134389617Y-124471582D01*
X134395817Y-124476224D01*
X134397889Y-124477355D01*
X134401888Y-124479788D01*
X134475600Y-124529507D01*
X134475603Y-124529508D01*
X134475604Y-124529509D01*
X134641237Y-124610294D01*
X134643291Y-124611355D01*
X134647774Y-124613803D01*
X134648284Y-124613993D01*
X134652755Y-124615912D01*
X134681162Y-124629767D01*
X134728393Y-124652803D01*
X134914200Y-124713175D01*
X134916747Y-124714125D01*
X134916753Y-124714126D01*
X134920609Y-124715256D01*
X134995885Y-124739716D01*
X135272871Y-124788556D01*
X135553957Y-124798372D01*
X135818160Y-124770602D01*
X135833676Y-124768972D01*
X135951015Y-124739716D01*
X136106578Y-124700930D01*
X136367356Y-124595569D01*
X136610933Y-124454940D01*
X136832567Y-124281780D01*
X137027946Y-124079460D01*
X137193265Y-123851917D01*
X137325308Y-123603581D01*
X137421504Y-123339285D01*
X137479980Y-123064173D01*
X137486276Y-122974132D01*
X138894700Y-122974132D01*
X138894701Y-123101067D01*
X138900932Y-123180254D01*
X138950272Y-123364394D01*
X139036817Y-123534247D01*
X139036821Y-123534254D01*
X139156793Y-123682407D01*
X139304946Y-123802379D01*
X139304948Y-123802380D01*
X139304952Y-123802382D01*
X139474805Y-123888927D01*
X139581119Y-123917413D01*
X139658948Y-123938268D01*
X139730735Y-123943917D01*
X139738132Y-123944500D01*
X139738132Y-123944499D01*
X139738133Y-123944500D01*
X139801600Y-123944499D01*
X139865067Y-123944499D01*
X139871830Y-123943966D01*
X139944252Y-123938268D01*
X140128394Y-123888927D01*
X140298254Y-123802379D01*
X140446407Y-123682407D01*
X140566379Y-123534254D01*
X140652927Y-123364394D01*
X140702268Y-123180252D01*
X140708500Y-123101067D01*
X140708499Y-122974134D01*
X140708499Y-122974132D01*
X153118700Y-122974132D01*
X153118701Y-123101067D01*
X153124932Y-123180254D01*
X153174272Y-123364394D01*
X153260817Y-123534247D01*
X153260821Y-123534254D01*
X153380793Y-123682407D01*
X153528946Y-123802379D01*
X153528948Y-123802380D01*
X153528952Y-123802382D01*
X153698805Y-123888927D01*
X153805119Y-123917413D01*
X153882948Y-123938268D01*
X153954735Y-123943917D01*
X153962132Y-123944500D01*
X153962132Y-123944499D01*
X153962133Y-123944500D01*
X154025600Y-123944499D01*
X154089067Y-123944499D01*
X154095830Y-123943966D01*
X154168252Y-123938268D01*
X154352394Y-123888927D01*
X154522254Y-123802379D01*
X154670407Y-123682407D01*
X154790379Y-123534254D01*
X154876927Y-123364394D01*
X154926268Y-123180252D01*
X154932500Y-123101067D01*
X154932499Y-122974134D01*
X154926268Y-122894948D01*
X154876927Y-122710806D01*
X154876927Y-122710805D01*
X154790382Y-122540952D01*
X154790380Y-122540948D01*
X154790379Y-122540946D01*
X154670407Y-122392793D01*
X154522254Y-122272821D01*
X154522252Y-122272820D01*
X154522251Y-122272819D01*
X154522247Y-122272817D01*
X154352394Y-122186272D01*
X154168254Y-122136932D01*
X154089068Y-122130700D01*
X154089067Y-122130700D01*
X154025600Y-122130700D01*
X153962133Y-122130701D01*
X153882945Y-122136932D01*
X153698805Y-122186272D01*
X153528952Y-122272817D01*
X153528948Y-122272819D01*
X153380793Y-122392793D01*
X153260819Y-122540948D01*
X153260817Y-122540952D01*
X153174272Y-122710805D01*
X153124932Y-122894945D01*
X153118700Y-122974132D01*
X140708499Y-122974132D01*
X140702268Y-122894948D01*
X140652927Y-122710806D01*
X140652927Y-122710805D01*
X140566382Y-122540952D01*
X140566380Y-122540948D01*
X140566379Y-122540946D01*
X140446407Y-122392793D01*
X140298254Y-122272821D01*
X140298252Y-122272820D01*
X140298251Y-122272819D01*
X140298247Y-122272817D01*
X140128394Y-122186272D01*
X139944254Y-122136932D01*
X139865068Y-122130700D01*
X139865067Y-122130700D01*
X139801600Y-122130700D01*
X139738133Y-122130701D01*
X139658945Y-122136932D01*
X139474805Y-122186272D01*
X139304952Y-122272817D01*
X139304948Y-122272819D01*
X139156793Y-122392793D01*
X139036819Y-122540948D01*
X139036817Y-122540952D01*
X138950272Y-122710805D01*
X138900932Y-122894945D01*
X138894700Y-122974132D01*
X137486276Y-122974132D01*
X137499600Y-122783600D01*
X137479980Y-122503027D01*
X137421504Y-122227915D01*
X137372794Y-122094085D01*
X137325309Y-121963620D01*
X137325306Y-121963615D01*
X137258059Y-121837142D01*
X137193265Y-121715283D01*
X137027946Y-121487740D01*
X137027945Y-121487739D01*
X137027943Y-121487736D01*
X136832569Y-121285422D01*
X136832568Y-121285421D01*
X136832567Y-121285420D01*
X136610933Y-121112260D01*
X136610932Y-121112259D01*
X136610929Y-121112257D01*
X136367361Y-120971633D01*
X136367355Y-120971630D01*
X136106581Y-120866271D01*
X136106576Y-120866269D01*
X135833676Y-120798227D01*
X135553959Y-120768828D01*
X135553957Y-120768828D01*
X135441522Y-120772754D01*
X135272868Y-120778644D01*
X134995887Y-120827483D01*
X134995877Y-120827486D01*
X134920634Y-120851934D01*
X134916745Y-120853075D01*
X134914196Y-120854025D01*
X134728398Y-120914394D01*
X134728387Y-120914399D01*
X134652765Y-120951282D01*
X134648332Y-120953186D01*
X134647803Y-120953383D01*
X134647768Y-120953399D01*
X134643273Y-120955853D01*
X134641223Y-120956912D01*
X134475600Y-121037692D01*
X134475596Y-121037694D01*
X134401901Y-121087402D01*
X134397891Y-121089842D01*
X134395816Y-121090975D01*
X134395813Y-121090977D01*
X134389635Y-121095602D01*
X134387623Y-121097032D01*
X134242431Y-121194966D01*
X134242422Y-121194973D01*
X134172764Y-121257692D01*
X134169256Y-121260576D01*
X134166006Y-121263009D01*
X134165992Y-121263021D01*
X134159197Y-121269816D01*
X134157291Y-121271624D01*
X134033410Y-121383170D01*
X134033398Y-121383182D01*
X133969971Y-121458772D01*
X133967012Y-121462001D01*
X133963019Y-121465995D01*
X133963002Y-121466014D01*
X133956459Y-121474753D01*
X133954730Y-121476934D01*
X133852622Y-121598624D01*
X133852617Y-121598631D01*
X133797628Y-121686633D01*
X133795241Y-121690118D01*
X133790976Y-121695816D01*
X133790973Y-121695821D01*
X133785357Y-121706106D01*
X133783868Y-121708652D01*
X133703579Y-121837142D01*
X133703573Y-121837154D01*
X133659242Y-121936724D01*
X133657440Y-121940368D01*
X133653397Y-121947772D01*
X133653393Y-121947781D01*
X133649157Y-121959137D01*
X133647982Y-121962013D01*
X133589180Y-122094085D01*
X133589179Y-122094086D01*
X133557644Y-122204058D01*
X133556423Y-122207767D01*
X133553077Y-122216740D01*
X133553073Y-122216753D01*
X133550494Y-122228611D01*
X133549695Y-122231784D01*
X133511654Y-122364449D01*
X133511653Y-122364452D01*
X133494956Y-122483254D01*
X133494297Y-122486944D01*
X133492054Y-122497254D01*
X133491206Y-122509100D01*
X133490845Y-122512507D01*
X133472511Y-122642967D01*
X133472511Y-122768697D01*
X133472383Y-122772286D01*
X133471574Y-122783599D01*
X132969144Y-122783599D01*
X132969100Y-122782118D01*
X132969100Y-122775315D01*
X132969099Y-122775315D01*
X132969099Y-119146268D01*
X134830700Y-119146268D01*
X134833932Y-119181148D01*
X134845577Y-119306824D01*
X134845577Y-119306825D01*
X134904456Y-119513763D01*
X134904457Y-119513765D01*
X135000354Y-119706352D01*
X135028482Y-119743600D01*
X135122463Y-119868052D01*
X135130011Y-119878046D01*
X135289000Y-120022983D01*
X135289001Y-120022984D01*
X135289005Y-120022987D01*
X135471926Y-120136247D01*
X135672544Y-120213967D01*
X135817411Y-120241047D01*
X135884025Y-120253500D01*
X135884027Y-120253500D01*
X136099174Y-120253500D01*
X136132480Y-120247273D01*
X136310656Y-120213967D01*
X136511274Y-120136247D01*
X136694195Y-120022987D01*
X136853191Y-119878044D01*
X136982845Y-119706353D01*
X137078744Y-119513762D01*
X137137622Y-119306829D01*
X137139593Y-119285554D01*
X137164178Y-119228448D01*
X137217635Y-119196698D01*
X137274054Y-119200258D01*
X137327749Y-119219725D01*
X138055520Y-118491954D01*
X138072107Y-118548444D01*
X138149839Y-118669398D01*
X138258500Y-118763552D01*
X138375801Y-118817122D01*
X137484649Y-119708273D01*
X137488332Y-119715919D01*
X137488335Y-119715924D01*
X137616395Y-119892185D01*
X137773880Y-120042755D01*
X137773880Y-120042756D01*
X137955708Y-120162779D01*
X138156052Y-120248409D01*
X138368467Y-120296892D01*
X138586125Y-120306667D01*
X138802028Y-120277421D01*
X138802031Y-120277420D01*
X139009240Y-120210094D01*
X139201099Y-120106851D01*
X139201103Y-120106848D01*
X139371441Y-119971007D01*
X139514791Y-119806931D01*
X139514792Y-119806929D01*
X139575536Y-119705260D01*
X139575536Y-119705259D01*
X138687398Y-118817122D01*
X138804700Y-118763552D01*
X138913361Y-118669398D01*
X138991093Y-118548444D01*
X139007679Y-118491955D01*
X139738199Y-119222475D01*
X139738200Y-119222475D01*
X139741999Y-119201539D01*
X139742000Y-119201539D01*
X139742000Y-117530249D01*
X139735450Y-117457473D01*
X139007679Y-118185243D01*
X138991093Y-118128756D01*
X138913361Y-118007802D01*
X138804700Y-117913648D01*
X138687398Y-117860077D01*
X139578548Y-116968926D01*
X139578549Y-116968924D01*
X139574868Y-116961282D01*
X139574865Y-116961277D01*
X139446804Y-116785014D01*
X139289319Y-116634444D01*
X139289319Y-116634443D01*
X139107491Y-116514420D01*
X138907147Y-116428790D01*
X138694732Y-116380307D01*
X138501492Y-116371629D01*
X138443282Y-116349782D01*
X138409030Y-116297893D01*
X138411820Y-116235782D01*
X138418695Y-116223007D01*
X138418298Y-116222805D01*
X138429759Y-116200310D01*
X138480409Y-116100906D01*
X138495500Y-116005624D01*
X138495500Y-113341576D01*
X138480409Y-113246294D01*
X138421892Y-113131449D01*
X138330751Y-113040308D01*
X138330751Y-113040307D01*
X138330750Y-113040307D01*
X138215906Y-112981791D01*
X138215903Y-112981790D01*
X138120630Y-112966700D01*
X138120624Y-112966700D01*
X136656576Y-112966700D01*
X136656569Y-112966700D01*
X136561296Y-112981790D01*
X136561293Y-112981791D01*
X136446449Y-113040307D01*
X136355307Y-113131449D01*
X136296791Y-113246293D01*
X136296790Y-113246296D01*
X136281700Y-113341569D01*
X136281700Y-115418206D01*
X136275103Y-115454037D01*
X135927226Y-116366685D01*
X135888212Y-116415095D01*
X135851709Y-116429741D01*
X135672542Y-116463233D01*
X135471929Y-116540951D01*
X135471925Y-116540953D01*
X135289005Y-116654213D01*
X135289000Y-116654216D01*
X135130011Y-116799153D01*
X135000355Y-116970847D01*
X135000354Y-116970847D01*
X134904457Y-117163434D01*
X134904456Y-117163436D01*
X134845577Y-117370374D01*
X134845577Y-117370375D01*
X134837940Y-117452796D01*
X134830700Y-117530932D01*
X134830700Y-119146268D01*
X132969099Y-119146268D01*
X132969099Y-87225077D01*
X132969189Y-87222116D01*
X132987250Y-86923536D01*
X132987982Y-86917518D01*
X133041620Y-86624825D01*
X133043068Y-86618947D01*
X133131601Y-86334836D01*
X133133744Y-86329186D01*
X133255878Y-86057815D01*
X133258696Y-86052448D01*
X133412636Y-85797799D01*
X133416085Y-85792804D01*
X133473179Y-85719929D01*
X133599598Y-85558566D01*
X133603625Y-85554023D01*
X133814023Y-85343625D01*
X133818566Y-85339598D01*
X134052803Y-85156085D01*
X134057799Y-85152636D01*
X134312452Y-84998693D01*
X134317815Y-84995878D01*
X134589186Y-84873744D01*
X134594836Y-84871601D01*
X134878947Y-84783068D01*
X134884825Y-84781620D01*
X135177523Y-84727981D01*
X135183538Y-84727250D01*
X135482083Y-84709191D01*
X135485112Y-84709100D01*
X135491885Y-84709100D01*
X144173093Y-84709100D01*
X144232224Y-84728313D01*
G37*
%TD.AperFunction*%
%TA.AperFunction,Conductor*%
G36*
X159675530Y-118083493D02*
G01*
X159707222Y-118127114D01*
X159707264Y-118127095D01*
X159707362Y-118127306D01*
X159708136Y-118128371D01*
X159709118Y-118131072D01*
X159709120Y-118131076D01*
X159801193Y-118328528D01*
X159926155Y-118506992D01*
X160080208Y-118661045D01*
X160258672Y-118786007D01*
X160456124Y-118878080D01*
X160456128Y-118878081D01*
X160458833Y-118879066D01*
X160459712Y-118879752D01*
X160460105Y-118879936D01*
X160460062Y-118880026D01*
X160507828Y-118917343D01*
X160524967Y-118977108D01*
X160503703Y-119035534D01*
X160460086Y-119067223D01*
X160460105Y-119067264D01*
X160459896Y-119067361D01*
X160458833Y-119068134D01*
X160456128Y-119069118D01*
X160258668Y-119161195D01*
X160080205Y-119286157D01*
X159926157Y-119440205D01*
X159801195Y-119618669D01*
X159801190Y-119618677D01*
X159732082Y-119766878D01*
X159689679Y-119812349D01*
X159628647Y-119824212D01*
X159572298Y-119797936D01*
X159549734Y-119766878D01*
X159469041Y-119593833D01*
X159469033Y-119593819D01*
X159406050Y-119503870D01*
X158819678Y-120090242D01*
X158803093Y-120033756D01*
X158725361Y-119912802D01*
X158616700Y-119818648D01*
X158499397Y-119765077D01*
X159083327Y-119181148D01*
X158993375Y-119118163D01*
X158993367Y-119118158D01*
X158820321Y-119037465D01*
X158774850Y-118995063D01*
X158762987Y-118934031D01*
X158789263Y-118877682D01*
X158820320Y-118855116D01*
X158968528Y-118786007D01*
X159146992Y-118661045D01*
X159301045Y-118506992D01*
X159426007Y-118328528D01*
X159518080Y-118131076D01*
X159518083Y-118131061D01*
X159519064Y-118128371D01*
X159519751Y-118127491D01*
X159519936Y-118127095D01*
X159520027Y-118127137D01*
X159557339Y-118079374D01*
X159617104Y-118062232D01*
X159675530Y-118083493D01*
G37*
%TD.AperFunction*%
%TA.AperFunction,Conductor*%
G36*
X160424107Y-112833444D02*
G01*
X160501839Y-112954398D01*
X160610500Y-113048552D01*
X160727800Y-113102121D01*
X160143871Y-113686050D01*
X160233824Y-113749036D01*
X160233827Y-113749038D01*
X160406877Y-113829733D01*
X160452349Y-113872136D01*
X160464212Y-113933168D01*
X160437936Y-113989517D01*
X160406878Y-114012082D01*
X160258677Y-114081190D01*
X160258669Y-114081195D01*
X160080205Y-114206157D01*
X159926157Y-114360205D01*
X159801195Y-114538668D01*
X159709118Y-114736128D01*
X159708134Y-114738833D01*
X159707447Y-114739712D01*
X159707264Y-114740105D01*
X159707173Y-114740062D01*
X159669857Y-114787828D01*
X159610092Y-114804967D01*
X159551666Y-114783703D01*
X159519976Y-114740086D01*
X159519936Y-114740105D01*
X159519838Y-114739896D01*
X159519066Y-114738833D01*
X159518081Y-114736128D01*
X159518080Y-114736124D01*
X159426007Y-114538672D01*
X159301045Y-114360208D01*
X159146992Y-114206155D01*
X158968528Y-114081193D01*
X158771076Y-113989120D01*
X158771072Y-113989118D01*
X158768371Y-113988136D01*
X158767491Y-113987448D01*
X158767095Y-113987264D01*
X158767137Y-113987172D01*
X158719374Y-113949861D01*
X158702232Y-113890096D01*
X158723493Y-113831670D01*
X158767114Y-113799977D01*
X158767095Y-113799936D01*
X158767306Y-113799837D01*
X158768371Y-113799064D01*
X158771061Y-113798083D01*
X158771076Y-113798080D01*
X158968528Y-113706007D01*
X159146992Y-113581045D01*
X159301045Y-113426992D01*
X159426007Y-113248528D01*
X159495116Y-113100321D01*
X159537519Y-113054850D01*
X159598551Y-113042987D01*
X159654900Y-113069263D01*
X159677465Y-113100321D01*
X159758158Y-113273367D01*
X159758163Y-113273375D01*
X159821148Y-113363327D01*
X160407520Y-112776954D01*
X160424107Y-112833444D01*
G37*
%TD.AperFunction*%
%TA.AperFunction,Conductor*%
G36*
X159675530Y-110463493D02*
G01*
X159707222Y-110507114D01*
X159707264Y-110507095D01*
X159707362Y-110507306D01*
X159708136Y-110508371D01*
X159709118Y-110511072D01*
X159709120Y-110511076D01*
X159801193Y-110708528D01*
X159926155Y-110886992D01*
X160080208Y-111041045D01*
X160258672Y-111166007D01*
X160306669Y-111188388D01*
X160406878Y-111235117D01*
X160452349Y-111277519D01*
X160464212Y-111338551D01*
X160437936Y-111394900D01*
X160406878Y-111417465D01*
X160233835Y-111498157D01*
X160233831Y-111498159D01*
X160143871Y-111561148D01*
X160727800Y-112145077D01*
X160610500Y-112198648D01*
X160501839Y-112292802D01*
X160424107Y-112413756D01*
X160407520Y-112470243D01*
X159821148Y-111883871D01*
X159758159Y-111973831D01*
X159758157Y-111973835D01*
X159677465Y-112146878D01*
X159635062Y-112192349D01*
X159574030Y-112204212D01*
X159517681Y-112177936D01*
X159495117Y-112146878D01*
X159448388Y-112046669D01*
X159426007Y-111998672D01*
X159301045Y-111820208D01*
X159146992Y-111666155D01*
X158968528Y-111541193D01*
X158771076Y-111449120D01*
X158771072Y-111449118D01*
X158768371Y-111448136D01*
X158767491Y-111447448D01*
X158767095Y-111447264D01*
X158767137Y-111447172D01*
X158719374Y-111409861D01*
X158702232Y-111350096D01*
X158723493Y-111291670D01*
X158767114Y-111259977D01*
X158767095Y-111259936D01*
X158767306Y-111259837D01*
X158768371Y-111259064D01*
X158771061Y-111258083D01*
X158771076Y-111258080D01*
X158968528Y-111166007D01*
X159146992Y-111041045D01*
X159301045Y-110886992D01*
X159426007Y-110708528D01*
X159518080Y-110511076D01*
X159518083Y-110511061D01*
X159519064Y-110508371D01*
X159519751Y-110507491D01*
X159519936Y-110507095D01*
X159520027Y-110507137D01*
X159557339Y-110459374D01*
X159617104Y-110442232D01*
X159675530Y-110463493D01*
G37*
%TD.AperFunction*%
%TA.AperFunction,Conductor*%
G36*
X160424107Y-105213444D02*
G01*
X160501839Y-105334398D01*
X160610500Y-105428552D01*
X160727800Y-105482121D01*
X160143871Y-106066050D01*
X160233824Y-106129036D01*
X160233827Y-106129038D01*
X160406877Y-106209733D01*
X160452349Y-106252136D01*
X160464212Y-106313168D01*
X160437936Y-106369517D01*
X160406878Y-106392082D01*
X160258677Y-106461190D01*
X160258669Y-106461195D01*
X160080205Y-106586157D01*
X159926157Y-106740205D01*
X159801195Y-106918668D01*
X159801193Y-106918671D01*
X159801193Y-106918672D01*
X159795268Y-106931379D01*
X159709118Y-107116128D01*
X159708134Y-107118833D01*
X159707447Y-107119712D01*
X159707264Y-107120105D01*
X159707173Y-107120062D01*
X159669857Y-107167828D01*
X159610092Y-107184967D01*
X159551666Y-107163703D01*
X159519976Y-107120086D01*
X159519936Y-107120105D01*
X159519838Y-107119896D01*
X159519066Y-107118833D01*
X159518081Y-107116128D01*
X159518080Y-107116124D01*
X159426007Y-106918672D01*
X159301045Y-106740208D01*
X159146992Y-106586155D01*
X158968528Y-106461193D01*
X158771076Y-106369120D01*
X158771072Y-106369118D01*
X158768371Y-106368136D01*
X158767491Y-106367448D01*
X158767095Y-106367264D01*
X158767137Y-106367172D01*
X158719374Y-106329861D01*
X158702232Y-106270096D01*
X158723493Y-106211670D01*
X158767114Y-106179977D01*
X158767095Y-106179936D01*
X158767306Y-106179837D01*
X158768371Y-106179064D01*
X158771061Y-106178083D01*
X158771076Y-106178080D01*
X158968528Y-106086007D01*
X159146992Y-105961045D01*
X159301045Y-105806992D01*
X159426007Y-105628528D01*
X159495116Y-105480321D01*
X159537519Y-105434850D01*
X159598551Y-105422987D01*
X159654900Y-105449263D01*
X159677465Y-105480321D01*
X159758158Y-105653367D01*
X159758163Y-105653375D01*
X159821148Y-105743327D01*
X160407520Y-105156954D01*
X160424107Y-105213444D01*
G37*
%TD.AperFunction*%
%TA.AperFunction,Conductor*%
G36*
X159675530Y-102843493D02*
G01*
X159707222Y-102887114D01*
X159707264Y-102887095D01*
X159707362Y-102887306D01*
X159708136Y-102888371D01*
X159709118Y-102891072D01*
X159709120Y-102891076D01*
X159801193Y-103088528D01*
X159926155Y-103266992D01*
X160080208Y-103421045D01*
X160258672Y-103546007D01*
X160306669Y-103568388D01*
X160406878Y-103615117D01*
X160452349Y-103657519D01*
X160464212Y-103718551D01*
X160437936Y-103774900D01*
X160406878Y-103797465D01*
X160233835Y-103878157D01*
X160233831Y-103878159D01*
X160143871Y-103941148D01*
X160727800Y-104525077D01*
X160610500Y-104578648D01*
X160501839Y-104672802D01*
X160424107Y-104793756D01*
X160407520Y-104850243D01*
X159821148Y-104263871D01*
X159758159Y-104353831D01*
X159758157Y-104353835D01*
X159677465Y-104526878D01*
X159635062Y-104572349D01*
X159574030Y-104584212D01*
X159517681Y-104557936D01*
X159495117Y-104526878D01*
X159436941Y-104402121D01*
X159426007Y-104378672D01*
X159301045Y-104200208D01*
X159146992Y-104046155D01*
X158968528Y-103921193D01*
X158771076Y-103829120D01*
X158771072Y-103829118D01*
X158768371Y-103828136D01*
X158767491Y-103827448D01*
X158767095Y-103827264D01*
X158767137Y-103827172D01*
X158719374Y-103789861D01*
X158702232Y-103730096D01*
X158723493Y-103671670D01*
X158767114Y-103639977D01*
X158767095Y-103639936D01*
X158767306Y-103639837D01*
X158768371Y-103639064D01*
X158771061Y-103638083D01*
X158771076Y-103638080D01*
X158968528Y-103546007D01*
X159146992Y-103421045D01*
X159301045Y-103266992D01*
X159426007Y-103088528D01*
X159518080Y-102891076D01*
X159518083Y-102891061D01*
X159519064Y-102888371D01*
X159519751Y-102887491D01*
X159519936Y-102887095D01*
X159520027Y-102887137D01*
X159557339Y-102839374D01*
X159617104Y-102822232D01*
X159675530Y-102843493D01*
G37*
%TD.AperFunction*%
%TA.AperFunction,Conductor*%
G36*
X157056079Y-97092237D02*
G01*
X157100043Y-97136201D01*
X157110625Y-97190640D01*
X157099242Y-97320752D01*
X157093744Y-97383600D01*
X157112732Y-97600635D01*
X157169120Y-97811076D01*
X157261193Y-98008528D01*
X157261194Y-98008530D01*
X157261195Y-98008531D01*
X157279153Y-98034177D01*
X157386155Y-98186992D01*
X157540208Y-98341045D01*
X157718672Y-98466007D01*
X157723639Y-98468323D01*
X157866878Y-98535117D01*
X157912349Y-98577519D01*
X157924212Y-98638551D01*
X157897936Y-98694900D01*
X157866878Y-98717465D01*
X157693835Y-98798157D01*
X157693831Y-98798159D01*
X157603871Y-98861148D01*
X158187800Y-99445077D01*
X158070500Y-99498648D01*
X157961839Y-99592802D01*
X157884107Y-99713756D01*
X157867520Y-99770243D01*
X157281148Y-99183871D01*
X157218159Y-99273831D01*
X157218157Y-99273835D01*
X157122428Y-99479125D01*
X157063799Y-99697927D01*
X157063798Y-99697938D01*
X157044055Y-99923598D01*
X157044055Y-99923601D01*
X157063798Y-100149261D01*
X157063799Y-100149272D01*
X157122428Y-100368074D01*
X157218158Y-100573367D01*
X157218163Y-100573375D01*
X157281148Y-100663327D01*
X157867520Y-100076955D01*
X157884107Y-100133444D01*
X157961839Y-100254398D01*
X158070500Y-100348552D01*
X158187800Y-100402121D01*
X157603871Y-100986050D01*
X157693824Y-101049036D01*
X157693827Y-101049038D01*
X157866877Y-101129733D01*
X157912349Y-101172136D01*
X157924212Y-101233168D01*
X157897936Y-101289517D01*
X157866878Y-101312082D01*
X157718677Y-101381190D01*
X157718669Y-101381195D01*
X157540205Y-101506157D01*
X157386157Y-101660205D01*
X157261195Y-101838668D01*
X157261193Y-101838671D01*
X157261193Y-101838672D01*
X157243499Y-101876618D01*
X157169120Y-102036124D01*
X157112733Y-102246559D01*
X157112732Y-102246567D01*
X157094488Y-102455100D01*
X157093744Y-102463600D01*
X157112732Y-102680635D01*
X157169120Y-102891076D01*
X157261193Y-103088528D01*
X157386155Y-103266992D01*
X157540208Y-103421045D01*
X157718672Y-103546007D01*
X157916124Y-103638080D01*
X157916128Y-103638081D01*
X157918833Y-103639066D01*
X157919712Y-103639752D01*
X157920105Y-103639936D01*
X157920062Y-103640026D01*
X157967828Y-103677343D01*
X157984967Y-103737108D01*
X157963703Y-103795534D01*
X157920086Y-103827223D01*
X157920105Y-103827264D01*
X157919896Y-103827361D01*
X157918833Y-103828134D01*
X157916128Y-103829118D01*
X157718668Y-103921195D01*
X157540205Y-104046157D01*
X157386157Y-104200205D01*
X157378239Y-104211513D01*
X157280846Y-104350603D01*
X157231194Y-104388019D01*
X157198442Y-104393500D01*
X153923250Y-104393500D01*
X153864119Y-104374287D01*
X153827574Y-104323987D01*
X153827574Y-104261813D01*
X153864119Y-104211513D01*
X153870291Y-104207368D01*
X153881855Y-104200208D01*
X153966195Y-104147987D01*
X154125191Y-104003044D01*
X154254845Y-103831353D01*
X154350744Y-103638762D01*
X154409622Y-103431829D01*
X154424500Y-103271268D01*
X154424500Y-101655932D01*
X154409622Y-101495371D01*
X154350744Y-101288438D01*
X154254845Y-101095847D01*
X154125191Y-100924156D01*
X154109678Y-100910014D01*
X153966200Y-100779217D01*
X153966192Y-100779211D01*
X153921340Y-100751439D01*
X153881180Y-100703975D01*
X153873700Y-100665908D01*
X153873700Y-100217981D01*
X153892913Y-100158850D01*
X153903165Y-100146846D01*
X155416555Y-98633456D01*
X156939275Y-97110735D01*
X156994671Y-97082511D01*
X157056079Y-97092237D01*
G37*
%TD.AperFunction*%
%TA.AperFunction,Conductor*%
G36*
X159406051Y-100663328D02*
G01*
X159469032Y-100573383D01*
X159469038Y-100573372D01*
X159549733Y-100400322D01*
X159592136Y-100354850D01*
X159653168Y-100342987D01*
X159709517Y-100369263D01*
X159732082Y-100400321D01*
X159794856Y-100534939D01*
X159801193Y-100548528D01*
X159926155Y-100726992D01*
X160080208Y-100881045D01*
X160258672Y-101006007D01*
X160456124Y-101098080D01*
X160456128Y-101098081D01*
X160458833Y-101099066D01*
X160459712Y-101099752D01*
X160460105Y-101099936D01*
X160460062Y-101100026D01*
X160507828Y-101137343D01*
X160524967Y-101197108D01*
X160503703Y-101255534D01*
X160460086Y-101287223D01*
X160460105Y-101287264D01*
X160459896Y-101287361D01*
X160458833Y-101288134D01*
X160456128Y-101289118D01*
X160379228Y-101324977D01*
X160258679Y-101381190D01*
X160258668Y-101381195D01*
X160080205Y-101506157D01*
X159926157Y-101660205D01*
X159801195Y-101838668D01*
X159801193Y-101838671D01*
X159801193Y-101838672D01*
X159783499Y-101876618D01*
X159709118Y-102036128D01*
X159708134Y-102038833D01*
X159707447Y-102039712D01*
X159707264Y-102040105D01*
X159707173Y-102040062D01*
X159669857Y-102087828D01*
X159610092Y-102104967D01*
X159551666Y-102083703D01*
X159519976Y-102040086D01*
X159519936Y-102040105D01*
X159519838Y-102039896D01*
X159519066Y-102038833D01*
X159518081Y-102036128D01*
X159518080Y-102036124D01*
X159426007Y-101838672D01*
X159301045Y-101660208D01*
X159146992Y-101506155D01*
X158968528Y-101381193D01*
X158968033Y-101380962D01*
X158820321Y-101312082D01*
X158774850Y-101269679D01*
X158762987Y-101208647D01*
X158789263Y-101152299D01*
X158820322Y-101129733D01*
X158993372Y-101049038D01*
X158993383Y-101049032D01*
X159083328Y-100986051D01*
X158499399Y-100402122D01*
X158616700Y-100348552D01*
X158725361Y-100254398D01*
X158803093Y-100133444D01*
X158819679Y-100076956D01*
X159406051Y-100663328D01*
G37*
%TD.AperFunction*%
%TA.AperFunction,Conductor*%
G36*
X159675530Y-97763493D02*
G01*
X159707222Y-97807114D01*
X159707264Y-97807095D01*
X159707362Y-97807306D01*
X159708136Y-97808371D01*
X159709118Y-97811072D01*
X159709120Y-97811076D01*
X159801193Y-98008528D01*
X159801194Y-98008530D01*
X159801195Y-98008531D01*
X159819152Y-98034177D01*
X159926155Y-98186992D01*
X160080208Y-98341045D01*
X160258672Y-98466007D01*
X160456124Y-98558080D01*
X160456128Y-98558081D01*
X160458833Y-98559066D01*
X160459712Y-98559752D01*
X160460105Y-98559936D01*
X160460062Y-98560026D01*
X160507828Y-98597343D01*
X160524967Y-98657108D01*
X160503703Y-98715534D01*
X160460086Y-98747223D01*
X160460105Y-98747264D01*
X160459896Y-98747361D01*
X160458833Y-98748134D01*
X160456128Y-98749118D01*
X160258668Y-98841195D01*
X160080205Y-98966157D01*
X159926157Y-99120205D01*
X159801195Y-99298669D01*
X159801190Y-99298677D01*
X159732082Y-99446878D01*
X159689679Y-99492349D01*
X159628647Y-99504212D01*
X159572298Y-99477936D01*
X159549734Y-99446878D01*
X159469041Y-99273833D01*
X159469033Y-99273819D01*
X159406050Y-99183870D01*
X158819678Y-99770242D01*
X158803093Y-99713756D01*
X158725361Y-99592802D01*
X158616700Y-99498648D01*
X158499397Y-99445077D01*
X159083327Y-98861148D01*
X158993375Y-98798163D01*
X158993367Y-98798158D01*
X158820321Y-98717465D01*
X158774850Y-98675063D01*
X158762987Y-98614031D01*
X158789263Y-98557682D01*
X158820320Y-98535116D01*
X158968528Y-98466007D01*
X159146992Y-98341045D01*
X159301045Y-98186992D01*
X159426007Y-98008528D01*
X159518080Y-97811076D01*
X159518083Y-97811061D01*
X159519064Y-97808371D01*
X159519751Y-97807491D01*
X159519936Y-97807095D01*
X159520027Y-97807137D01*
X159557339Y-97759374D01*
X159617104Y-97742232D01*
X159675530Y-97763493D01*
G37*
%TD.AperFunction*%
%TA.AperFunction,Conductor*%
G36*
X146705285Y-84728313D02*
G01*
X146717289Y-84738565D01*
X147673189Y-85694465D01*
X147701415Y-85749863D01*
X147691689Y-85811271D01*
X147673189Y-85836735D01*
X147492735Y-86017188D01*
X147437337Y-86045414D01*
X147375928Y-86035688D01*
X147350465Y-86017188D01*
X146405600Y-85072323D01*
X145460734Y-86017188D01*
X145405336Y-86045414D01*
X145343928Y-86035688D01*
X145318464Y-86017188D01*
X145138011Y-85836735D01*
X145109785Y-85781337D01*
X145119511Y-85719929D01*
X145138011Y-85694465D01*
X146093911Y-84738565D01*
X146149309Y-84710339D01*
X146165046Y-84709100D01*
X146646154Y-84709100D01*
X146705285Y-84728313D01*
G37*
%TD.AperFunction*%
%TD*%
M02*
