%TF.GenerationSoftware,KiCad,Pcbnew,7.0.6-7.0.6~ubuntu22.04.1*%
%TF.CreationDate,2023-08-04T15:27:57+01:00*%
%TF.ProjectId,working,776f726b-696e-4672-9e6b-696361645f70,rev?*%
%TF.SameCoordinates,Original*%
%TF.FileFunction,Soldermask,Top*%
%TF.FilePolarity,Negative*%
%FSLAX46Y46*%
G04 Gerber Fmt 4.6, Leading zero omitted, Abs format (unit mm)*
G04 Created by KiCad (PCBNEW 7.0.6-7.0.6~ubuntu22.04.1) date 2023-08-04 15:27:57*
%MOMM*%
%LPD*%
G01*
G04 APERTURE LIST*
G04 Aperture macros list*
%AMRoundRect*
0 Rectangle with rounded corners*
0 $1 Rounding radius*
0 $2 $3 $4 $5 $6 $7 $8 $9 X,Y pos of 4 corners*
0 Add a 4 corners polygon primitive as box body*
4,1,4,$2,$3,$4,$5,$6,$7,$8,$9,$2,$3,0*
0 Add four circle primitives for the rounded corners*
1,1,$1+$1,$2,$3*
1,1,$1+$1,$4,$5*
1,1,$1+$1,$6,$7*
1,1,$1+$1,$8,$9*
0 Add four rect primitives between the rounded corners*
20,1,$1+$1,$2,$3,$4,$5,0*
20,1,$1+$1,$4,$5,$6,$7,0*
20,1,$1+$1,$6,$7,$8,$9,0*
20,1,$1+$1,$8,$9,$2,$3,0*%
G04 Aperture macros list end*
%ADD10C,0.500000*%
%ADD11RoundRect,0.101600X-0.194615X0.862917X-0.844615X-0.262917X0.194615X-0.862917X0.844615X0.262917X0*%
%ADD12C,1.981200*%
%ADD13C,2.200000*%
%ADD14RoundRect,0.601600X0.000000X0.000000X0.000000X0.000000X0.000000X0.000000X0.000000X0.000000X0*%
%ADD15RoundRect,0.101600X0.194615X-0.862917X0.844615X0.262917X-0.194615X0.862917X-0.844615X-0.262917X0*%
%ADD16RoundRect,0.101600X0.708013X-0.226314X0.158013X0.726314X-0.708013X0.226314X-0.158013X-0.726314X0*%
%ADD17RoundRect,0.101600X0.500000X-0.550000X0.500000X0.550000X-0.500000X0.550000X-0.500000X-0.550000X0*%
%ADD18RoundRect,0.101600X0.650000X0.600000X-0.650000X0.600000X-0.650000X-0.600000X0.650000X-0.600000X0*%
%ADD19RoundRect,0.101600X-0.035355X-0.742462X0.742462X0.035355X0.035355X0.742462X-0.742462X-0.035355X0*%
%ADD20RoundRect,0.101600X0.844615X-0.262917X0.194615X0.862917X-0.844615X0.262917X-0.194615X-0.862917X0*%
%ADD21RoundRect,0.101600X-0.650000X-0.600000X0.650000X-0.600000X0.650000X0.600000X-0.650000X0.600000X0*%
%ADD22RoundRect,0.101600X-0.708013X0.226314X-0.158013X-0.726314X0.708013X-0.226314X0.158013X0.726314X0*%
%ADD23RoundRect,0.101600X-0.844615X0.262917X-0.194615X-0.862917X0.844615X-0.262917X0.194615X0.862917X0*%
%ADD24RoundRect,0.101600X-0.158013X0.726314X-0.708013X-0.226314X0.158013X-0.726314X0.708013X0.226314X0*%
G04 APERTURE END LIST*
D10*
%TO.C,FID2*%
X148536100Y-112518600D02*
G75*
G03*
X147786100Y-113268600I0J-750000D01*
G01*
X149286100Y-113268600D02*
G75*
G03*
X148536100Y-112518600I-750000J0D01*
G01*
X147786100Y-113268600D02*
G75*
G03*
X148536100Y-114018600I750000J0D01*
G01*
X148536100Y-114018600D02*
G75*
G03*
X149286100Y-113268600I0J750000D01*
G01*
%TO.C,FID1*%
X148511100Y-96308600D02*
G75*
G03*
X147761100Y-97058600I0J-750000D01*
G01*
X149261100Y-97058600D02*
G75*
G03*
X148511100Y-96308600I-750000J0D01*
G01*
X147761100Y-97058600D02*
G75*
G03*
X148511100Y-97808600I750000J0D01*
G01*
X148511100Y-97808600D02*
G75*
G03*
X149261100Y-97058600I0J750000D01*
G01*
%TD*%
D11*
%TO.C,LED7*%
X144205042Y-99793440D03*
X141347158Y-98143440D03*
X138997158Y-102213760D03*
X141855042Y-103863760D03*
%TD*%
D12*
%TO.C,DOUT0*%
X146197707Y-100999388D03*
%TD*%
D13*
%TO.C,@HOLE1*%
X139001100Y-105003600D03*
%TD*%
D12*
%TO.C,DIN0*%
X146460375Y-108966440D03*
%TD*%
D14*
%TO.C,FID2*%
X148536100Y-113268600D03*
%TD*%
D15*
%TO.C,LED4*%
X152797158Y-110213760D03*
X155655042Y-111863760D03*
X158005042Y-107793440D03*
X155147158Y-106143440D03*
%TD*%
D13*
%TO.C,@HOLE0*%
X158001100Y-105003600D03*
%TD*%
D16*
%TO.C,C1*%
X144326100Y-97639722D03*
X143476100Y-96167478D03*
%TD*%
D12*
%TO.C,GND0*%
X152708237Y-105111259D03*
%TD*%
%TO.C,VDD0*%
X150544165Y-109144800D03*
%TD*%
D17*
%TO.C,R1*%
X144245929Y-105672666D03*
X144245929Y-103972666D03*
%TD*%
D18*
%TO.C,LED2*%
X150851100Y-98653600D03*
X150851100Y-95353600D03*
X146151100Y-95353600D03*
X146151100Y-98653600D03*
%TD*%
D19*
%TO.C,C2*%
X152874405Y-97430295D03*
X154076487Y-96228213D03*
%TD*%
D20*
%TO.C,LED3*%
X155147158Y-103863760D03*
X158005042Y-102213760D03*
X155655042Y-98143440D03*
X152797158Y-99793440D03*
%TD*%
D21*
%TO.C,LED5*%
X146151100Y-111553600D03*
X146151100Y-114853600D03*
X150851100Y-114853600D03*
X150851100Y-111553600D03*
%TD*%
D22*
%TO.C,C10*%
X152770093Y-112299081D03*
X153620093Y-113771325D03*
%TD*%
D23*
%TO.C,LED6*%
X141855042Y-106143440D03*
X138997158Y-107793440D03*
X141347158Y-111863760D03*
X144205042Y-110213760D03*
%TD*%
D24*
%TO.C,C6*%
X144206860Y-112361446D03*
X143356860Y-113833690D03*
%TD*%
D14*
%TO.C,FID1*%
X148511100Y-97058600D03*
%TD*%
D18*
%TO.C,LED1*%
X150851100Y-106653600D03*
X150851100Y-103353600D03*
X146151100Y-103353600D03*
X146151100Y-106653600D03*
%TD*%
D12*
%TO.C,GND_2*%
X150801100Y-100803600D03*
%TD*%
M02*
