%TF.GenerationSoftware,KiCad,Pcbnew,7.0.6-7.0.6~ubuntu22.04.1*%
%TF.CreationDate,2023-08-07T06:30:53+01:00*%
%TF.ProjectId,working,776f726b-696e-4672-9e6b-696361645f70,rev?*%
%TF.SameCoordinates,Original*%
%TF.FileFunction,Soldermask,Top*%
%TF.FilePolarity,Negative*%
%FSLAX46Y46*%
G04 Gerber Fmt 4.6, Leading zero omitted, Abs format (unit mm)*
G04 Created by KiCad (PCBNEW 7.0.6-7.0.6~ubuntu22.04.1) date 2023-08-07 06:30:53*
%MOMM*%
%LPD*%
G01*
G04 APERTURE LIST*
G04 Aperture macros list*
%AMRoundRect*
0 Rectangle with rounded corners*
0 $1 Rounding radius*
0 $2 $3 $4 $5 $6 $7 $8 $9 X,Y pos of 4 corners*
0 Add a 4 corners polygon primitive as box body*
4,1,4,$2,$3,$4,$5,$6,$7,$8,$9,$2,$3,0*
0 Add four circle primitives for the rounded corners*
1,1,$1+$1,$2,$3*
1,1,$1+$1,$4,$5*
1,1,$1+$1,$6,$7*
1,1,$1+$1,$8,$9*
0 Add four rect primitives between the rounded corners*
20,1,$1+$1,$2,$3,$4,$5,0*
20,1,$1+$1,$4,$5,$6,$7,0*
20,1,$1+$1,$6,$7,$8,$9,0*
20,1,$1+$1,$8,$9,$2,$3,0*%
G04 Aperture macros list end*
%ADD10C,1.270000*%
%ADD11RoundRect,0.601600X0.000000X0.000000X0.000000X0.000000X0.000000X0.000000X0.000000X0.000000X0*%
%ADD12C,2.082800*%
%ADD13RoundRect,0.101600X-0.550000X-0.500000X0.550000X-0.500000X0.550000X0.500000X-0.550000X0.500000X0*%
%ADD14C,2.616200*%
%ADD15C,3.302000*%
%ADD16RoundRect,0.101600X-0.500000X0.550000X-0.500000X-0.550000X0.500000X-0.550000X0.500000X0.550000X0*%
%ADD17RoundRect,0.101600X0.550000X0.500000X-0.550000X0.500000X-0.550000X-0.500000X0.550000X-0.500000X0*%
%ADD18C,3.251200*%
%ADD19RoundRect,0.101600X0.250000X0.175000X-0.250000X0.175000X-0.250000X-0.175000X0.250000X-0.175000X0*%
%ADD20RoundRect,0.601600X0.000000X0.000000X0.000000X0.000000X0.000000X0.000000X0.000000X0.000000X0*%
%ADD21RoundRect,0.101600X0.939800X0.939800X-0.939800X0.939800X-0.939800X-0.939800X0.939800X-0.939800X0*%
%ADD22RoundRect,0.101600X0.200000X-0.350000X0.200000X0.350000X-0.200000X0.350000X-0.200000X-0.350000X0*%
%ADD23RoundRect,0.101600X-0.200000X0.350000X-0.200000X-0.350000X0.200000X-0.350000X0.200000X0.350000X0*%
%ADD24RoundRect,0.101600X-0.675000X0.275000X-0.675000X-0.275000X0.675000X-0.275000X0.675000X0.275000X0*%
%ADD25RoundRect,0.851600X0.000000X0.000000X0.000000X0.000000X0.000000X0.000000X0.000000X0.000000X0*%
%ADD26RoundRect,0.101600X0.500000X-0.550000X0.500000X0.550000X-0.500000X0.550000X-0.500000X-0.550000X0*%
%ADD27RoundRect,0.101600X-0.300000X0.550000X-0.300000X-0.550000X0.300000X-0.550000X0.300000X0.550000X0*%
%ADD28RoundRect,0.101600X-0.350000X0.550000X-0.350000X-0.550000X0.350000X-0.550000X0.350000X0.550000X0*%
%ADD29RoundRect,0.601600X0.000000X0.000000X0.000000X0.000000X0.000000X0.000000X0.000000X0.000000X0*%
G04 APERTURE END LIST*
%TO.C,U33*%
G36*
X300627100Y-131307600D02*
G01*
X298416745Y-131307600D01*
X298127100Y-131017955D01*
X298127100Y-130007600D01*
X300627100Y-130007600D01*
X300627100Y-131307600D01*
G37*
D10*
%TO.C,E$1*%
X300028600Y-158343600D02*
G75*
G03*
X300028600Y-158343600I-905500J0D01*
G01*
%TO.C,U13*%
G36*
X110127100Y-79999600D02*
G01*
X107916745Y-79999600D01*
X107627100Y-79709955D01*
X107627100Y-78699600D01*
X110127100Y-78699600D01*
X110127100Y-79999600D01*
G37*
%TO.C,U25*%
G36*
X237127100Y-131307600D02*
G01*
X234916745Y-131307600D01*
X234627100Y-131017955D01*
X234627100Y-130007600D01*
X237127100Y-130007600D01*
X237127100Y-131307600D01*
G37*
%TO.C,U2*%
G36*
X46627100Y-131307600D02*
G01*
X44416745Y-131307600D01*
X44127100Y-131017955D01*
X44127100Y-130007600D01*
X46627100Y-130007600D01*
X46627100Y-131307600D01*
G37*
%TO.C,U17*%
G36*
X173627100Y-131307600D02*
G01*
X171416745Y-131307600D01*
X171127100Y-131017955D01*
X171127100Y-130007600D01*
X173627100Y-130007600D01*
X173627100Y-131307600D01*
G37*
%TO.C,U29*%
G36*
X237127100Y-79999600D02*
G01*
X234916745Y-79999600D01*
X234627100Y-79709955D01*
X234627100Y-78699600D01*
X237127100Y-78699600D01*
X237127100Y-79999600D01*
G37*
%TO.C,U37*%
G36*
X300627100Y-79999600D02*
G01*
X298416745Y-79999600D01*
X298127100Y-79709955D01*
X298127100Y-78699600D01*
X300627100Y-78699600D01*
X300627100Y-79999600D01*
G37*
%TO.C,U9*%
G36*
X110127100Y-131307600D02*
G01*
X107916745Y-131307600D01*
X107627100Y-131017955D01*
X107627100Y-130007600D01*
X110127100Y-130007600D01*
X110127100Y-131307600D01*
G37*
%TO.C,U21*%
G36*
X173627100Y-79999600D02*
G01*
X171416745Y-79999600D01*
X171127100Y-79709955D01*
X171127100Y-78699600D01*
X173627100Y-78699600D01*
X173627100Y-79999600D01*
G37*
%TO.C,U5*%
G36*
X46627100Y-79999600D02*
G01*
X44416745Y-79999600D01*
X44127100Y-79709955D01*
X44127100Y-78699600D01*
X46627100Y-78699600D01*
X46627100Y-79999600D01*
G37*
%TD*%
D11*
%TO.C,FD21*%
X127927100Y-56489600D03*
%TD*%
D12*
%TO.C,J22*%
X27597100Y-103479600D03*
X27597100Y-100939600D03*
X27597100Y-98399600D03*
X27597100Y-95859600D03*
X27597100Y-93319600D03*
X27597100Y-90779600D03*
X27597100Y-88239600D03*
X27597100Y-85699600D03*
X27597100Y-83159600D03*
X27597100Y-80619600D03*
X27597100Y-78079600D03*
X27597100Y-75539600D03*
X27597100Y-72999600D03*
X27597100Y-70459600D03*
X27597100Y-67919600D03*
X27597100Y-65379600D03*
X27597100Y-62839600D03*
X27597100Y-60299600D03*
X27597100Y-57759600D03*
X27597100Y-55219600D03*
%TD*%
%TO.C,J8*%
X45377100Y-154787600D03*
X42837100Y-154787600D03*
X40297100Y-154787600D03*
X37757100Y-154787600D03*
%TD*%
%TO.C,J33*%
X88557100Y-154787600D03*
X88557100Y-152247600D03*
X88557100Y-149707600D03*
X88557100Y-147167600D03*
X88557100Y-144627600D03*
X88557100Y-142087600D03*
X88557100Y-139547600D03*
X88557100Y-137007600D03*
X88557100Y-134467600D03*
X88557100Y-131927600D03*
X88557100Y-129387600D03*
X88557100Y-126847600D03*
X88557100Y-124307600D03*
X88557100Y-121767600D03*
X88557100Y-119227600D03*
X88557100Y-116687600D03*
X88557100Y-114147600D03*
X88557100Y-111607600D03*
X88557100Y-109067600D03*
X88557100Y-106527600D03*
%TD*%
D13*
%TO.C,C23*%
X68530100Y-82143600D03*
X70230100Y-82143600D03*
%TD*%
D14*
%TO.C,J17*%
X-1866900Y-75849600D03*
X-1866900Y-79349600D03*
X-1866900Y-82849600D03*
%TD*%
D11*
%TO.C,FD37*%
X254927100Y-56489600D03*
%TD*%
D13*
%TO.C,C19*%
X108027100Y-97383600D03*
X109727100Y-97383600D03*
%TD*%
%TO.C,R56*%
X134189100Y-126212600D03*
X135889100Y-126212600D03*
%TD*%
D15*
%TO.C,H31*%
X187617100Y-56489600D03*
%TD*%
D16*
%TO.C,R27*%
X112052100Y-145047600D03*
X112052100Y-146747600D03*
%TD*%
D17*
%TO.C,C56*%
X300227100Y-66903600D03*
X298527100Y-66903600D03*
%TD*%
D15*
%TO.C,H37*%
X251117100Y-102209600D03*
%TD*%
D13*
%TO.C,R74*%
X229947100Y-117449600D03*
X231647100Y-117449600D03*
%TD*%
D18*
%TO.C,J75*%
X190157100Y-112877600D03*
X190157100Y-123037600D03*
D12*
X199047100Y-114782600D03*
X196507100Y-116052600D03*
X199047100Y-117322600D03*
X196507100Y-118592600D03*
X199047100Y-119862600D03*
X196507100Y-121132600D03*
%TD*%
D11*
%TO.C,FD34*%
X305727100Y-149707600D03*
%TD*%
D17*
%TO.C,C32*%
X173227100Y-66903600D03*
X171527100Y-66903600D03*
%TD*%
D12*
%TO.C,J6*%
X45377100Y-103479600D03*
X42837100Y-103479600D03*
X40297100Y-103479600D03*
X37757100Y-103479600D03*
%TD*%
D13*
%TO.C,R32*%
X70689100Y-126212600D03*
X72389100Y-126212600D03*
%TD*%
D12*
%TO.C,J80*%
X213017100Y-154787600D03*
X213017100Y-152247600D03*
X213017100Y-149707600D03*
X213017100Y-147167600D03*
X213017100Y-144627600D03*
X213017100Y-142087600D03*
X213017100Y-139547600D03*
X213017100Y-137007600D03*
X213017100Y-134467600D03*
X213017100Y-131927600D03*
X213017100Y-129387600D03*
X213017100Y-126847600D03*
X213017100Y-124307600D03*
X213017100Y-121767600D03*
X213017100Y-119227600D03*
X213017100Y-116687600D03*
X213017100Y-114147600D03*
X213017100Y-111607600D03*
X213017100Y-109067600D03*
X213017100Y-106527600D03*
%TD*%
D17*
%TO.C,C14*%
X109727100Y-118211600D03*
X108027100Y-118211600D03*
%TD*%
D16*
%TO.C,R106*%
X301917100Y-133617600D03*
X301917100Y-135317600D03*
%TD*%
D19*
%TO.C,U38*%
X298352100Y-63814600D03*
X298352100Y-63164600D03*
X298352100Y-62514600D03*
X298352100Y-61864600D03*
X300402100Y-61864600D03*
X300402100Y-62514600D03*
X300402100Y-63164600D03*
X300402100Y-63814600D03*
%TD*%
D13*
%TO.C,R49*%
X166447100Y-110972600D03*
X168147100Y-110972600D03*
%TD*%
D20*
%TO.C,E$7*%
X294297100Y-52298600D03*
%TD*%
D16*
%TO.C,R113*%
X299377100Y-82563600D03*
X299377100Y-84263600D03*
%TD*%
D18*
%TO.C,J15*%
X-342900Y-61569600D03*
X-342900Y-71729600D03*
D12*
X8547100Y-63474600D03*
X6007100Y-64744600D03*
X8547100Y-66014600D03*
X6007100Y-67284600D03*
X8547100Y-68554600D03*
X6007100Y-69824600D03*
%TD*%
D13*
%TO.C,R117*%
X260427100Y-76809600D03*
X262127100Y-76809600D03*
%TD*%
D12*
%TO.C,J67*%
X146977100Y-103479600D03*
X146977100Y-100939600D03*
X146977100Y-98399600D03*
X146977100Y-95859600D03*
X146977100Y-93319600D03*
X146977100Y-90779600D03*
X146977100Y-88239600D03*
X146977100Y-85699600D03*
X146977100Y-83159600D03*
X146977100Y-80619600D03*
X146977100Y-78079600D03*
X146977100Y-75539600D03*
X146977100Y-72999600D03*
X146977100Y-70459600D03*
X146977100Y-67919600D03*
X146977100Y-65379600D03*
X146977100Y-62839600D03*
X146977100Y-60299600D03*
X146977100Y-57759600D03*
X146977100Y-55219600D03*
%TD*%
D15*
%TO.C,H34*%
X304457100Y-153517600D03*
%TD*%
D12*
%TO.C,J4*%
X17437100Y-154787600D03*
X17437100Y-152247600D03*
X17437100Y-149707600D03*
X17437100Y-147167600D03*
X17437100Y-144627600D03*
X17437100Y-142087600D03*
X17437100Y-139547600D03*
X17437100Y-137007600D03*
X17437100Y-134467600D03*
X17437100Y-131927600D03*
X17437100Y-129387600D03*
X17437100Y-126847600D03*
X17437100Y-124307600D03*
X17437100Y-121767600D03*
X17437100Y-119227600D03*
X17437100Y-116687600D03*
X17437100Y-114147600D03*
X17437100Y-111607600D03*
X17437100Y-109067600D03*
X17437100Y-106527600D03*
%TD*%
%TO.C,R36*%
X115227100Y-129387600D03*
X115227100Y-131927600D03*
%TD*%
D16*
%TO.C,R101*%
X299377100Y-133871600D03*
X299377100Y-135571600D03*
%TD*%
D21*
%TO.C,B3*%
X75857100Y-154787600D03*
D12*
X75857100Y-152247600D03*
X75857100Y-149707600D03*
X75857100Y-147167600D03*
X75857100Y-144627600D03*
X75857100Y-142087600D03*
X75857100Y-139547600D03*
X75857100Y-137007600D03*
X75857100Y-134467600D03*
X75857100Y-131927600D03*
X75857100Y-129387600D03*
X75857100Y-126847600D03*
X75857100Y-124307600D03*
X75857100Y-121767600D03*
X75857100Y-119227600D03*
X75857100Y-116687600D03*
X75857100Y-114147600D03*
X75857100Y-111607600D03*
X75857100Y-109067600D03*
X75857100Y-106527600D03*
X98717100Y-106527600D03*
X98717100Y-109067600D03*
X98717100Y-111607600D03*
X98717100Y-114147600D03*
X98717100Y-116687600D03*
X98717100Y-119227600D03*
X98717100Y-121767600D03*
X98717100Y-124307600D03*
X98717100Y-126847600D03*
X98717100Y-129387600D03*
X98717100Y-131927600D03*
X98717100Y-134467600D03*
X98717100Y-137007600D03*
X98717100Y-139547600D03*
X98717100Y-142087600D03*
X98717100Y-144627600D03*
X98717100Y-147167600D03*
X98717100Y-149707600D03*
X98717100Y-152247600D03*
D21*
X98717100Y-154787600D03*
%TD*%
D16*
%TO.C,R111*%
X302552100Y-93739600D03*
X302552100Y-95439600D03*
%TD*%
D12*
%TO.C,J118*%
X281597100Y-103479600D03*
X281597100Y-100939600D03*
X281597100Y-98399600D03*
X281597100Y-95859600D03*
X281597100Y-93319600D03*
X281597100Y-90779600D03*
X281597100Y-88239600D03*
X281597100Y-85699600D03*
X281597100Y-83159600D03*
X281597100Y-80619600D03*
X281597100Y-78079600D03*
X281597100Y-75539600D03*
X281597100Y-72999600D03*
X281597100Y-70459600D03*
X281597100Y-67919600D03*
X281597100Y-65379600D03*
X281597100Y-62839600D03*
X281597100Y-60299600D03*
X281597100Y-57759600D03*
X281597100Y-55219600D03*
%TD*%
%TO.C,J5*%
X-4152900Y-133197600D03*
X-4152900Y-130657600D03*
X-4152900Y-128117600D03*
%TD*%
%TO.C,J36*%
X68237100Y-154787600D03*
X70777100Y-154787600D03*
X73317100Y-154787600D03*
%TD*%
D11*
%TO.C,FD17*%
X127927100Y-107797600D03*
%TD*%
D18*
%TO.C,J87*%
X190157100Y-61569600D03*
X190157100Y-71729600D03*
D12*
X199047100Y-63474600D03*
X196507100Y-64744600D03*
X199047100Y-66014600D03*
X196507100Y-67284600D03*
X199047100Y-68554600D03*
X196507100Y-69824600D03*
%TD*%
%TO.C,J119*%
X284137100Y-103479600D03*
X284137100Y-100939600D03*
X284137100Y-98399600D03*
X284137100Y-95859600D03*
X284137100Y-93319600D03*
X284137100Y-90779600D03*
X284137100Y-88239600D03*
X284137100Y-85699600D03*
X284137100Y-83159600D03*
X284137100Y-80619600D03*
X284137100Y-78079600D03*
X284137100Y-75539600D03*
X284137100Y-72999600D03*
X284137100Y-70459600D03*
X284137100Y-67919600D03*
X284137100Y-65379600D03*
X284137100Y-62839600D03*
X284137100Y-60299600D03*
X284137100Y-57759600D03*
X284137100Y-55219600D03*
%TD*%
D17*
%TO.C,C1*%
X46227100Y-118211600D03*
X44527100Y-118211600D03*
%TD*%
D15*
%TO.C,H38*%
X304457100Y-102209600D03*
%TD*%
D16*
%TO.C,C48*%
X195364100Y-74689600D03*
X195364100Y-76389600D03*
%TD*%
D22*
%TO.C,U33*%
X298177100Y-131757600D03*
X298777100Y-131757600D03*
X299377100Y-131757600D03*
X299977100Y-131757600D03*
X300577100Y-131757600D03*
D23*
X300577100Y-129557600D03*
X299977100Y-129557600D03*
X299377100Y-129557600D03*
X298777100Y-129557600D03*
X298177100Y-129557600D03*
%TD*%
D15*
%TO.C,H16*%
X113957100Y-56489600D03*
%TD*%
D12*
%TO.C,J54*%
X144437100Y-154787600D03*
X144437100Y-152247600D03*
X144437100Y-149707600D03*
X144437100Y-147167600D03*
X144437100Y-144627600D03*
X144437100Y-142087600D03*
X144437100Y-139547600D03*
X144437100Y-137007600D03*
X144437100Y-134467600D03*
X144437100Y-131927600D03*
X144437100Y-129387600D03*
X144437100Y-126847600D03*
X144437100Y-124307600D03*
X144437100Y-121767600D03*
X144437100Y-119227600D03*
X144437100Y-116687600D03*
X144437100Y-114147600D03*
X144437100Y-111607600D03*
X144437100Y-109067600D03*
X144437100Y-106527600D03*
%TD*%
D13*
%TO.C,R97*%
X293447100Y-110972600D03*
X295147100Y-110972600D03*
%TD*%
D24*
%TO.C,U31*%
X196402000Y-78399600D03*
X196402000Y-79349600D03*
X196402000Y-80299600D03*
X199152200Y-80299600D03*
X199152200Y-79349600D03*
X199152200Y-78399600D03*
%TD*%
D16*
%TO.C,R41*%
X108877100Y-82563600D03*
X108877100Y-84263600D03*
%TD*%
D25*
%TO.C,E$1*%
X299123100Y-158343600D03*
%TD*%
D11*
%TO.C,FD29*%
X191427100Y-56489600D03*
%TD*%
D12*
%TO.C,J78*%
X207937100Y-154787600D03*
X207937100Y-152247600D03*
X207937100Y-149707600D03*
X207937100Y-147167600D03*
X207937100Y-144627600D03*
X207937100Y-142087600D03*
X207937100Y-139547600D03*
X207937100Y-137007600D03*
X207937100Y-134467600D03*
X207937100Y-131927600D03*
X207937100Y-129387600D03*
X207937100Y-126847600D03*
X207937100Y-124307600D03*
X207937100Y-121767600D03*
X207937100Y-119227600D03*
X207937100Y-116687600D03*
X207937100Y-114147600D03*
X207937100Y-111607600D03*
X207937100Y-109067600D03*
X207937100Y-106527600D03*
%TD*%
D15*
%TO.C,H32*%
X240957100Y-56489600D03*
%TD*%
D13*
%TO.C,C13*%
X108027100Y-148691600D03*
X109727100Y-148691600D03*
%TD*%
D15*
%TO.C,H10*%
X113957100Y-153517600D03*
%TD*%
D17*
%TO.C,C9*%
X46227100Y-65379600D03*
X44527100Y-65379600D03*
%TD*%
D16*
%TO.C,R77*%
X235877100Y-133871600D03*
X235877100Y-135571600D03*
%TD*%
D13*
%TO.C,C53*%
X259030100Y-133451600D03*
X260730100Y-133451600D03*
%TD*%
D12*
%TO.C,J90*%
X207937100Y-103479600D03*
X207937100Y-100939600D03*
X207937100Y-98399600D03*
X207937100Y-95859600D03*
X207937100Y-93319600D03*
X207937100Y-90779600D03*
X207937100Y-88239600D03*
X207937100Y-85699600D03*
X207937100Y-83159600D03*
X207937100Y-80619600D03*
X207937100Y-78079600D03*
X207937100Y-75539600D03*
X207937100Y-72999600D03*
X207937100Y-70459600D03*
X207937100Y-67919600D03*
X207937100Y-65379600D03*
X207937100Y-62839600D03*
X207937100Y-60299600D03*
X207937100Y-57759600D03*
X207937100Y-55219600D03*
%TD*%
D15*
%TO.C,H8*%
X50457100Y-56489600D03*
%TD*%
D11*
%TO.C,FD26*%
X242227100Y-149707600D03*
%TD*%
D19*
%TO.C,U26*%
X234852100Y-115122600D03*
X234852100Y-114472600D03*
X234852100Y-113822600D03*
X234852100Y-113172600D03*
X236902100Y-113172600D03*
X236902100Y-113822600D03*
X236902100Y-114472600D03*
X236902100Y-115122600D03*
%TD*%
D11*
%TO.C,FD6*%
X51727100Y-98399600D03*
%TD*%
D12*
%TO.C,R120*%
X305727100Y-78079600D03*
X305727100Y-80619600D03*
%TD*%
D13*
%TO.C,R2*%
X7189100Y-126212600D03*
X8889100Y-126212600D03*
%TD*%
D12*
%TO.C,J112*%
X249847100Y-81889600D03*
X249847100Y-79349600D03*
X249847100Y-76809600D03*
%TD*%
D16*
%TO.C,R17*%
X45377100Y-82563600D03*
X45377100Y-84263600D03*
%TD*%
D12*
%TO.C,J25*%
X108877100Y-154787600D03*
X106337100Y-154787600D03*
X103797100Y-154787600D03*
X101257100Y-154787600D03*
%TD*%
D26*
%TO.C,R119*%
X303441100Y-84009600D03*
X303441100Y-82309600D03*
%TD*%
D12*
%TO.C,J34*%
X91097100Y-154787600D03*
X91097100Y-152247600D03*
X91097100Y-149707600D03*
X91097100Y-147167600D03*
X91097100Y-144627600D03*
X91097100Y-142087600D03*
X91097100Y-139547600D03*
X91097100Y-137007600D03*
X91097100Y-134467600D03*
X91097100Y-131927600D03*
X91097100Y-129387600D03*
X91097100Y-126847600D03*
X91097100Y-124307600D03*
X91097100Y-121767600D03*
X91097100Y-119227600D03*
X91097100Y-116687600D03*
X91097100Y-114147600D03*
X91097100Y-111607600D03*
X91097100Y-109067600D03*
X91097100Y-106527600D03*
%TD*%
D13*
%TO.C,R19*%
X6427100Y-83794600D03*
X8127100Y-83794600D03*
%TD*%
%TO.C,C6*%
X44527100Y-148691600D03*
X46227100Y-148691600D03*
%TD*%
%TO.C,R37*%
X102947100Y-59664600D03*
X104647100Y-59664600D03*
%TD*%
D16*
%TO.C,C54*%
X258864100Y-125997600D03*
X258864100Y-127697600D03*
%TD*%
D13*
%TO.C,C55*%
X298527100Y-97383600D03*
X300227100Y-97383600D03*
%TD*%
D17*
%TO.C,C20*%
X109727100Y-66903600D03*
X108027100Y-66903600D03*
%TD*%
D26*
%TO.C,R59*%
X176441100Y-135317600D03*
X176441100Y-133617600D03*
%TD*%
D27*
%TO.C,U8*%
X46250100Y-94419600D03*
X46250100Y-92219600D03*
D28*
X45250100Y-92219600D03*
D27*
X44250100Y-92219600D03*
X44250100Y-94419600D03*
D28*
X45250100Y-94419600D03*
%TD*%
D15*
%TO.C,H9*%
X60617100Y-153517600D03*
%TD*%
D16*
%TO.C,R94*%
X238417100Y-82309600D03*
X238417100Y-84009600D03*
%TD*%
D21*
%TO.C,B2*%
X12357100Y-103479600D03*
D12*
X12357100Y-100939600D03*
X12357100Y-98399600D03*
X12357100Y-95859600D03*
X12357100Y-93319600D03*
X12357100Y-90779600D03*
X12357100Y-88239600D03*
X12357100Y-85699600D03*
X12357100Y-83159600D03*
X12357100Y-80619600D03*
X12357100Y-78079600D03*
X12357100Y-75539600D03*
X12357100Y-72999600D03*
X12357100Y-70459600D03*
X12357100Y-67919600D03*
X12357100Y-65379600D03*
X12357100Y-62839600D03*
X12357100Y-60299600D03*
X12357100Y-57759600D03*
X12357100Y-55219600D03*
X35217100Y-55219600D03*
X35217100Y-57759600D03*
X35217100Y-60299600D03*
X35217100Y-62839600D03*
X35217100Y-65379600D03*
X35217100Y-67919600D03*
X35217100Y-70459600D03*
X35217100Y-72999600D03*
X35217100Y-75539600D03*
X35217100Y-78079600D03*
X35217100Y-80619600D03*
X35217100Y-83159600D03*
X35217100Y-85699600D03*
X35217100Y-88239600D03*
X35217100Y-90779600D03*
X35217100Y-93319600D03*
X35217100Y-95859600D03*
X35217100Y-98399600D03*
X35217100Y-100939600D03*
D21*
X35217100Y-103479600D03*
%TD*%
D12*
%TO.C,R24*%
X51727100Y-78079600D03*
X51727100Y-80619600D03*
%TD*%
D11*
%TO.C,FD14*%
X115227100Y-98399600D03*
%TD*%
D12*
%TO.C,J95*%
X220637100Y-103479600D03*
X220637100Y-100939600D03*
X220637100Y-98399600D03*
X220637100Y-95859600D03*
X220637100Y-93319600D03*
X220637100Y-90779600D03*
X220637100Y-88239600D03*
X220637100Y-85699600D03*
X220637100Y-83159600D03*
X220637100Y-80619600D03*
X220637100Y-78079600D03*
X220637100Y-75539600D03*
X220637100Y-72999600D03*
X220637100Y-70459600D03*
X220637100Y-67919600D03*
X220637100Y-65379600D03*
X220637100Y-62839600D03*
X220637100Y-60299600D03*
X220637100Y-57759600D03*
X220637100Y-55219600D03*
%TD*%
D15*
%TO.C,H21*%
X124117100Y-102209600D03*
%TD*%
D11*
%TO.C,FD38*%
X305727100Y-98399600D03*
%TD*%
D18*
%TO.C,J1*%
X-342900Y-112877600D03*
X-342900Y-123037600D03*
D12*
X8547100Y-114782600D03*
X6007100Y-116052600D03*
X8547100Y-117322600D03*
X6007100Y-118592600D03*
X8547100Y-119862600D03*
X6007100Y-121132600D03*
%TD*%
D13*
%TO.C,R79*%
X196927100Y-135102600D03*
X198627100Y-135102600D03*
%TD*%
D27*
%TO.C,U36*%
X300250100Y-145727600D03*
X300250100Y-143527600D03*
D28*
X299250100Y-143527600D03*
D27*
X298250100Y-143527600D03*
X298250100Y-145727600D03*
D28*
X299250100Y-145727600D03*
%TD*%
D12*
%TO.C,J104*%
X276517100Y-154787600D03*
X276517100Y-152247600D03*
X276517100Y-149707600D03*
X276517100Y-147167600D03*
X276517100Y-144627600D03*
X276517100Y-142087600D03*
X276517100Y-139547600D03*
X276517100Y-137007600D03*
X276517100Y-134467600D03*
X276517100Y-131927600D03*
X276517100Y-129387600D03*
X276517100Y-126847600D03*
X276517100Y-124307600D03*
X276517100Y-121767600D03*
X276517100Y-119227600D03*
X276517100Y-116687600D03*
X276517100Y-114147600D03*
X276517100Y-111607600D03*
X276517100Y-109067600D03*
X276517100Y-106527600D03*
%TD*%
D15*
%TO.C,H12*%
X113957100Y-107797600D03*
%TD*%
D18*
%TO.C,J99*%
X253657100Y-112877600D03*
X253657100Y-123037600D03*
D12*
X262547100Y-114782600D03*
X260007100Y-116052600D03*
X262547100Y-117322600D03*
X260007100Y-118592600D03*
X262547100Y-119862600D03*
X260007100Y-121132600D03*
%TD*%
D15*
%TO.C,H3*%
X-2882900Y-153517600D03*
%TD*%
D13*
%TO.C,C52*%
X301067100Y-127482600D03*
X302767100Y-127482600D03*
%TD*%
%TO.C,R5*%
X39447100Y-59664600D03*
X41147100Y-59664600D03*
%TD*%
D19*
%TO.C,U10*%
X107852100Y-115122600D03*
X107852100Y-114472600D03*
X107852100Y-113822600D03*
X107852100Y-113172600D03*
X109902100Y-113172600D03*
X109902100Y-113822600D03*
X109902100Y-114472600D03*
X109902100Y-115122600D03*
%TD*%
%TO.C,U14*%
X107852100Y-63814600D03*
X107852100Y-63164600D03*
X107852100Y-62514600D03*
X107852100Y-61864600D03*
X109902100Y-61864600D03*
X109902100Y-62514600D03*
X109902100Y-63164600D03*
X109902100Y-63814600D03*
%TD*%
D14*
%TO.C,J41*%
X61633100Y-75849600D03*
X61633100Y-79349600D03*
X61633100Y-82849600D03*
%TD*%
D12*
%TO.C,J102*%
X271437100Y-154787600D03*
X271437100Y-152247600D03*
X271437100Y-149707600D03*
X271437100Y-147167600D03*
X271437100Y-144627600D03*
X271437100Y-142087600D03*
X271437100Y-139547600D03*
X271437100Y-137007600D03*
X271437100Y-134467600D03*
X271437100Y-131927600D03*
X271437100Y-129387600D03*
X271437100Y-126847600D03*
X271437100Y-124307600D03*
X271437100Y-121767600D03*
X271437100Y-119227600D03*
X271437100Y-116687600D03*
X271437100Y-114147600D03*
X271437100Y-111607600D03*
X271437100Y-109067600D03*
X271437100Y-106527600D03*
%TD*%
D21*
%TO.C,B9*%
X266357100Y-154787600D03*
D12*
X266357100Y-152247600D03*
X266357100Y-149707600D03*
X266357100Y-147167600D03*
X266357100Y-144627600D03*
X266357100Y-142087600D03*
X266357100Y-139547600D03*
X266357100Y-137007600D03*
X266357100Y-134467600D03*
X266357100Y-131927600D03*
X266357100Y-129387600D03*
X266357100Y-126847600D03*
X266357100Y-124307600D03*
X266357100Y-121767600D03*
X266357100Y-119227600D03*
X266357100Y-116687600D03*
X266357100Y-114147600D03*
X266357100Y-111607600D03*
X266357100Y-109067600D03*
X266357100Y-106527600D03*
X289217100Y-106527600D03*
X289217100Y-109067600D03*
X289217100Y-111607600D03*
X289217100Y-114147600D03*
X289217100Y-116687600D03*
X289217100Y-119227600D03*
X289217100Y-121767600D03*
X289217100Y-124307600D03*
X289217100Y-126847600D03*
X289217100Y-129387600D03*
X289217100Y-131927600D03*
X289217100Y-134467600D03*
X289217100Y-137007600D03*
X289217100Y-139547600D03*
X289217100Y-142087600D03*
X289217100Y-144627600D03*
X289217100Y-147167600D03*
X289217100Y-149707600D03*
X289217100Y-152247600D03*
D21*
X289217100Y-154787600D03*
%TD*%
D12*
%TO.C,J28*%
X59347100Y-133197600D03*
X59347100Y-130657600D03*
X59347100Y-128117600D03*
%TD*%
%TO.C,J19*%
X19977100Y-103479600D03*
X19977100Y-100939600D03*
X19977100Y-98399600D03*
X19977100Y-95859600D03*
X19977100Y-93319600D03*
X19977100Y-90779600D03*
X19977100Y-88239600D03*
X19977100Y-85699600D03*
X19977100Y-83159600D03*
X19977100Y-80619600D03*
X19977100Y-78079600D03*
X19977100Y-75539600D03*
X19977100Y-72999600D03*
X19977100Y-70459600D03*
X19977100Y-67919600D03*
X19977100Y-65379600D03*
X19977100Y-62839600D03*
X19977100Y-60299600D03*
X19977100Y-57759600D03*
X19977100Y-55219600D03*
%TD*%
D16*
%TO.C,C60*%
X258864100Y-74689600D03*
X258864100Y-76389600D03*
%TD*%
D12*
%TO.C,R72*%
X178727100Y-78079600D03*
X178727100Y-80619600D03*
%TD*%
D24*
%TO.C,U15*%
X69402000Y-78399600D03*
X69402000Y-79349600D03*
X69402000Y-80299600D03*
X72152200Y-80299600D03*
X72152200Y-79349600D03*
X72152200Y-78399600D03*
%TD*%
D21*
%TO.C,B10*%
X266357100Y-103479600D03*
D12*
X266357100Y-100939600D03*
X266357100Y-98399600D03*
X266357100Y-95859600D03*
X266357100Y-93319600D03*
X266357100Y-90779600D03*
X266357100Y-88239600D03*
X266357100Y-85699600D03*
X266357100Y-83159600D03*
X266357100Y-80619600D03*
X266357100Y-78079600D03*
X266357100Y-75539600D03*
X266357100Y-72999600D03*
X266357100Y-70459600D03*
X266357100Y-67919600D03*
X266357100Y-65379600D03*
X266357100Y-62839600D03*
X266357100Y-60299600D03*
X266357100Y-57759600D03*
X266357100Y-55219600D03*
X289217100Y-55219600D03*
X289217100Y-57759600D03*
X289217100Y-60299600D03*
X289217100Y-62839600D03*
X289217100Y-65379600D03*
X289217100Y-67919600D03*
X289217100Y-70459600D03*
X289217100Y-72999600D03*
X289217100Y-75539600D03*
X289217100Y-78079600D03*
X289217100Y-80619600D03*
X289217100Y-83159600D03*
X289217100Y-85699600D03*
X289217100Y-88239600D03*
X289217100Y-90779600D03*
X289217100Y-93319600D03*
X289217100Y-95859600D03*
X289217100Y-98399600D03*
X289217100Y-100939600D03*
D21*
X289217100Y-103479600D03*
%TD*%
D13*
%TO.C,C25*%
X171527100Y-148691600D03*
X173227100Y-148691600D03*
%TD*%
D11*
%TO.C,FD9*%
X64427100Y-107797600D03*
%TD*%
D13*
%TO.C,R98*%
X293447100Y-117449600D03*
X295147100Y-117449600D03*
%TD*%
D16*
%TO.C,R90*%
X234353100Y-82563600D03*
X234353100Y-84263600D03*
%TD*%
D11*
%TO.C,FD25*%
X191427100Y-107797600D03*
%TD*%
D12*
%TO.C,J47*%
X93637100Y-103479600D03*
X93637100Y-100939600D03*
X93637100Y-98399600D03*
X93637100Y-95859600D03*
X93637100Y-93319600D03*
X93637100Y-90779600D03*
X93637100Y-88239600D03*
X93637100Y-85699600D03*
X93637100Y-83159600D03*
X93637100Y-80619600D03*
X93637100Y-78079600D03*
X93637100Y-75539600D03*
X93637100Y-72999600D03*
X93637100Y-70459600D03*
X93637100Y-67919600D03*
X93637100Y-65379600D03*
X93637100Y-62839600D03*
X93637100Y-60299600D03*
X93637100Y-57759600D03*
X93637100Y-55219600D03*
%TD*%
D14*
%TO.C,J53*%
X125133100Y-127157600D03*
X125133100Y-130657600D03*
X125133100Y-134157600D03*
%TD*%
D11*
%TO.C,FD18*%
X178727100Y-149707600D03*
%TD*%
D13*
%TO.C,R104*%
X261189100Y-126212600D03*
X262889100Y-126212600D03*
%TD*%
D17*
%TO.C,C57*%
X300227100Y-65379600D03*
X298527100Y-65379600D03*
%TD*%
D15*
%TO.C,H20*%
X177457100Y-107797600D03*
%TD*%
D12*
%TO.C,J42*%
X80937100Y-103479600D03*
X80937100Y-100939600D03*
X80937100Y-98399600D03*
X80937100Y-95859600D03*
X80937100Y-93319600D03*
X80937100Y-90779600D03*
X80937100Y-88239600D03*
X80937100Y-85699600D03*
X80937100Y-83159600D03*
X80937100Y-80619600D03*
X80937100Y-78079600D03*
X80937100Y-75539600D03*
X80937100Y-72999600D03*
X80937100Y-70459600D03*
X80937100Y-67919600D03*
X80937100Y-65379600D03*
X80937100Y-62839600D03*
X80937100Y-60299600D03*
X80937100Y-57759600D03*
X80937100Y-55219600D03*
%TD*%
D19*
%TO.C,U1*%
X44352100Y-115122600D03*
X44352100Y-114472600D03*
X44352100Y-113822600D03*
X44352100Y-113172600D03*
X46402100Y-113172600D03*
X46402100Y-113822600D03*
X46402100Y-114472600D03*
X46402100Y-115122600D03*
%TD*%
D22*
%TO.C,U13*%
X107677100Y-80449600D03*
X108277100Y-80449600D03*
X108877100Y-80449600D03*
X109477100Y-80449600D03*
X110077100Y-80449600D03*
D23*
X110077100Y-78249600D03*
X109477100Y-78249600D03*
X108877100Y-78249600D03*
X108277100Y-78249600D03*
X107677100Y-78249600D03*
%TD*%
D22*
%TO.C,U25*%
X234677100Y-131757600D03*
X235277100Y-131757600D03*
X235877100Y-131757600D03*
X236477100Y-131757600D03*
X237077100Y-131757600D03*
D23*
X237077100Y-129557600D03*
X236477100Y-129557600D03*
X235877100Y-129557600D03*
X235277100Y-129557600D03*
X234677100Y-129557600D03*
%TD*%
D19*
%TO.C,U18*%
X171352100Y-115122600D03*
X171352100Y-114472600D03*
X171352100Y-113822600D03*
X171352100Y-113172600D03*
X173402100Y-113172600D03*
X173402100Y-113822600D03*
X173402100Y-114472600D03*
X173402100Y-115122600D03*
%TD*%
D12*
%TO.C,J68*%
X149517100Y-103479600D03*
X149517100Y-100939600D03*
X149517100Y-98399600D03*
X149517100Y-95859600D03*
X149517100Y-93319600D03*
X149517100Y-90779600D03*
X149517100Y-88239600D03*
X149517100Y-85699600D03*
X149517100Y-83159600D03*
X149517100Y-80619600D03*
X149517100Y-78079600D03*
X149517100Y-75539600D03*
X149517100Y-72999600D03*
X149517100Y-70459600D03*
X149517100Y-67919600D03*
X149517100Y-65379600D03*
X149517100Y-62839600D03*
X149517100Y-60299600D03*
X149517100Y-57759600D03*
X149517100Y-55219600D03*
%TD*%
D27*
%TO.C,U28*%
X236750100Y-145727600D03*
X236750100Y-143527600D03*
D28*
X235750100Y-143527600D03*
D27*
X234750100Y-143527600D03*
X234750100Y-145727600D03*
D28*
X235750100Y-145727600D03*
%TD*%
D13*
%TO.C,R38*%
X102947100Y-66141600D03*
X104647100Y-66141600D03*
%TD*%
D12*
%TO.C,J12*%
X27597100Y-154787600D03*
X27597100Y-152247600D03*
X27597100Y-149707600D03*
X27597100Y-147167600D03*
X27597100Y-144627600D03*
X27597100Y-142087600D03*
X27597100Y-139547600D03*
X27597100Y-137007600D03*
X27597100Y-134467600D03*
X27597100Y-131927600D03*
X27597100Y-129387600D03*
X27597100Y-126847600D03*
X27597100Y-124307600D03*
X27597100Y-121767600D03*
X27597100Y-119227600D03*
X27597100Y-116687600D03*
X27597100Y-114147600D03*
X27597100Y-111607600D03*
X27597100Y-109067600D03*
X27597100Y-106527600D03*
%TD*%
D15*
%TO.C,H35*%
X251117100Y-107797600D03*
%TD*%
D13*
%TO.C,R45*%
X69927100Y-76809600D03*
X71627100Y-76809600D03*
%TD*%
D12*
%TO.C,J35*%
X93637100Y-154787600D03*
X93637100Y-152247600D03*
X93637100Y-149707600D03*
X93637100Y-147167600D03*
X93637100Y-144627600D03*
X93637100Y-142087600D03*
X93637100Y-139547600D03*
X93637100Y-137007600D03*
X93637100Y-134467600D03*
X93637100Y-131927600D03*
X93637100Y-129387600D03*
X93637100Y-126847600D03*
X93637100Y-124307600D03*
X93637100Y-121767600D03*
X93637100Y-119227600D03*
X93637100Y-116687600D03*
X93637100Y-114147600D03*
X93637100Y-111607600D03*
X93637100Y-109067600D03*
X93637100Y-106527600D03*
%TD*%
D19*
%TO.C,U22*%
X171352100Y-63814600D03*
X171352100Y-63164600D03*
X171352100Y-62514600D03*
X171352100Y-61864600D03*
X173402100Y-61864600D03*
X173402100Y-62514600D03*
X173402100Y-63164600D03*
X173402100Y-63814600D03*
%TD*%
D12*
%TO.C,J58*%
X154597100Y-154787600D03*
X154597100Y-152247600D03*
X154597100Y-149707600D03*
X154597100Y-147167600D03*
X154597100Y-144627600D03*
X154597100Y-142087600D03*
X154597100Y-139547600D03*
X154597100Y-137007600D03*
X154597100Y-134467600D03*
X154597100Y-131927600D03*
X154597100Y-129387600D03*
X154597100Y-126847600D03*
X154597100Y-124307600D03*
X154597100Y-121767600D03*
X154597100Y-119227600D03*
X154597100Y-116687600D03*
X154597100Y-114147600D03*
X154597100Y-111607600D03*
X154597100Y-109067600D03*
X154597100Y-106527600D03*
%TD*%
%TO.C,J82*%
X218097100Y-154787600D03*
X218097100Y-152247600D03*
X218097100Y-149707600D03*
X218097100Y-147167600D03*
X218097100Y-144627600D03*
X218097100Y-142087600D03*
X218097100Y-139547600D03*
X218097100Y-137007600D03*
X218097100Y-134467600D03*
X218097100Y-131927600D03*
X218097100Y-129387600D03*
X218097100Y-126847600D03*
X218097100Y-124307600D03*
X218097100Y-121767600D03*
X218097100Y-119227600D03*
X218097100Y-116687600D03*
X218097100Y-114147600D03*
X218097100Y-111607600D03*
X218097100Y-109067600D03*
X218097100Y-106527600D03*
%TD*%
D13*
%TO.C,R91*%
X196927100Y-83794600D03*
X198627100Y-83794600D03*
%TD*%
D17*
%TO.C,C27*%
X173227100Y-116687600D03*
X171527100Y-116687600D03*
%TD*%
D18*
%TO.C,J86*%
X190157100Y-86969600D03*
X190157100Y-97129600D03*
D12*
X199047100Y-88874600D03*
X196507100Y-90144600D03*
X199047100Y-91414600D03*
X196507100Y-92684600D03*
X199047100Y-93954600D03*
X196507100Y-95224600D03*
%TD*%
D21*
%TO.C,B6*%
X139357100Y-103479600D03*
D12*
X139357100Y-100939600D03*
X139357100Y-98399600D03*
X139357100Y-95859600D03*
X139357100Y-93319600D03*
X139357100Y-90779600D03*
X139357100Y-88239600D03*
X139357100Y-85699600D03*
X139357100Y-83159600D03*
X139357100Y-80619600D03*
X139357100Y-78079600D03*
X139357100Y-75539600D03*
X139357100Y-72999600D03*
X139357100Y-70459600D03*
X139357100Y-67919600D03*
X139357100Y-65379600D03*
X139357100Y-62839600D03*
X139357100Y-60299600D03*
X139357100Y-57759600D03*
X139357100Y-55219600D03*
X162217100Y-55219600D03*
X162217100Y-57759600D03*
X162217100Y-60299600D03*
X162217100Y-62839600D03*
X162217100Y-65379600D03*
X162217100Y-67919600D03*
X162217100Y-70459600D03*
X162217100Y-72999600D03*
X162217100Y-75539600D03*
X162217100Y-78079600D03*
X162217100Y-80619600D03*
X162217100Y-83159600D03*
X162217100Y-85699600D03*
X162217100Y-88239600D03*
X162217100Y-90779600D03*
X162217100Y-93319600D03*
X162217100Y-95859600D03*
X162217100Y-98399600D03*
X162217100Y-100939600D03*
D21*
X162217100Y-103479600D03*
%TD*%
D13*
%TO.C,C17*%
X68530100Y-133451600D03*
X70230100Y-133451600D03*
%TD*%
D16*
%TO.C,R63*%
X175552100Y-93739600D03*
X175552100Y-95439600D03*
%TD*%
D15*
%TO.C,H14*%
X113957100Y-102209600D03*
%TD*%
D12*
%TO.C,J70*%
X154597100Y-103479600D03*
X154597100Y-100939600D03*
X154597100Y-98399600D03*
X154597100Y-95859600D03*
X154597100Y-93319600D03*
X154597100Y-90779600D03*
X154597100Y-88239600D03*
X154597100Y-85699600D03*
X154597100Y-83159600D03*
X154597100Y-80619600D03*
X154597100Y-78079600D03*
X154597100Y-75539600D03*
X154597100Y-72999600D03*
X154597100Y-70459600D03*
X154597100Y-67919600D03*
X154597100Y-65379600D03*
X154597100Y-62839600D03*
X154597100Y-60299600D03*
X154597100Y-57759600D03*
X154597100Y-55219600D03*
%TD*%
D15*
%TO.C,H29*%
X187617100Y-102209600D03*
%TD*%
D17*
%TO.C,R100*%
X300227100Y-111607600D03*
X298527100Y-111607600D03*
%TD*%
D13*
%TO.C,R25*%
X102947100Y-110972600D03*
X104647100Y-110972600D03*
%TD*%
D16*
%TO.C,R99*%
X302552100Y-145047600D03*
X302552100Y-146747600D03*
%TD*%
%TO.C,R58*%
X174917100Y-133617600D03*
X174917100Y-135317600D03*
%TD*%
D21*
%TO.C,B5*%
X139357100Y-154787600D03*
D12*
X139357100Y-152247600D03*
X139357100Y-149707600D03*
X139357100Y-147167600D03*
X139357100Y-144627600D03*
X139357100Y-142087600D03*
X139357100Y-139547600D03*
X139357100Y-137007600D03*
X139357100Y-134467600D03*
X139357100Y-131927600D03*
X139357100Y-129387600D03*
X139357100Y-126847600D03*
X139357100Y-124307600D03*
X139357100Y-121767600D03*
X139357100Y-119227600D03*
X139357100Y-116687600D03*
X139357100Y-114147600D03*
X139357100Y-111607600D03*
X139357100Y-109067600D03*
X139357100Y-106527600D03*
X162217100Y-106527600D03*
X162217100Y-109067600D03*
X162217100Y-111607600D03*
X162217100Y-114147600D03*
X162217100Y-116687600D03*
X162217100Y-119227600D03*
X162217100Y-121767600D03*
X162217100Y-124307600D03*
X162217100Y-126847600D03*
X162217100Y-129387600D03*
X162217100Y-131927600D03*
X162217100Y-134467600D03*
X162217100Y-137007600D03*
X162217100Y-139547600D03*
X162217100Y-142087600D03*
X162217100Y-144627600D03*
X162217100Y-147167600D03*
X162217100Y-149707600D03*
X162217100Y-152247600D03*
D21*
X162217100Y-154787600D03*
%TD*%
D22*
%TO.C,U2*%
X44177100Y-131757600D03*
X44777100Y-131757600D03*
X45377100Y-131757600D03*
X45977100Y-131757600D03*
X46577100Y-131757600D03*
D23*
X46577100Y-129557600D03*
X45977100Y-129557600D03*
X45377100Y-129557600D03*
X44777100Y-129557600D03*
X44177100Y-129557600D03*
%TD*%
D14*
%TO.C,J89*%
X188633100Y-75849600D03*
X188633100Y-79349600D03*
X188633100Y-82849600D03*
%TD*%
D12*
%TO.C,J44*%
X86017100Y-103479600D03*
X86017100Y-100939600D03*
X86017100Y-98399600D03*
X86017100Y-95859600D03*
X86017100Y-93319600D03*
X86017100Y-90779600D03*
X86017100Y-88239600D03*
X86017100Y-85699600D03*
X86017100Y-83159600D03*
X86017100Y-80619600D03*
X86017100Y-78079600D03*
X86017100Y-75539600D03*
X86017100Y-72999600D03*
X86017100Y-70459600D03*
X86017100Y-67919600D03*
X86017100Y-65379600D03*
X86017100Y-62839600D03*
X86017100Y-60299600D03*
X86017100Y-57759600D03*
X86017100Y-55219600D03*
%TD*%
D17*
%TO.C,R28*%
X109727100Y-111607600D03*
X108027100Y-111607600D03*
%TD*%
D26*
%TO.C,R47*%
X112941100Y-84009600D03*
X112941100Y-82309600D03*
%TD*%
D12*
%TO.C,J10*%
X22517100Y-154787600D03*
X22517100Y-152247600D03*
X22517100Y-149707600D03*
X22517100Y-147167600D03*
X22517100Y-144627600D03*
X22517100Y-142087600D03*
X22517100Y-139547600D03*
X22517100Y-137007600D03*
X22517100Y-134467600D03*
X22517100Y-131927600D03*
X22517100Y-129387600D03*
X22517100Y-126847600D03*
X22517100Y-124307600D03*
X22517100Y-121767600D03*
X22517100Y-119227600D03*
X22517100Y-116687600D03*
X22517100Y-114147600D03*
X22517100Y-111607600D03*
X22517100Y-109067600D03*
X22517100Y-106527600D03*
%TD*%
D16*
%TO.C,C42*%
X195364100Y-125997600D03*
X195364100Y-127697600D03*
%TD*%
D15*
%TO.C,H13*%
X60617100Y-102209600D03*
%TD*%
D13*
%TO.C,C59*%
X259030100Y-82143600D03*
X260730100Y-82143600D03*
%TD*%
D17*
%TO.C,C33*%
X173227100Y-65379600D03*
X171527100Y-65379600D03*
%TD*%
D12*
%TO.C,J71*%
X157137100Y-103479600D03*
X157137100Y-100939600D03*
X157137100Y-98399600D03*
X157137100Y-95859600D03*
X157137100Y-93319600D03*
X157137100Y-90779600D03*
X157137100Y-88239600D03*
X157137100Y-85699600D03*
X157137100Y-83159600D03*
X157137100Y-80619600D03*
X157137100Y-78079600D03*
X157137100Y-75539600D03*
X157137100Y-72999600D03*
X157137100Y-70459600D03*
X157137100Y-67919600D03*
X157137100Y-65379600D03*
X157137100Y-62839600D03*
X157137100Y-60299600D03*
X157137100Y-57759600D03*
X157137100Y-55219600D03*
%TD*%
D17*
%TO.C,C44*%
X236727100Y-66903600D03*
X235027100Y-66903600D03*
%TD*%
D18*
%TO.C,J74*%
X190157100Y-138277600D03*
X190157100Y-148437600D03*
D12*
X199047100Y-140182600D03*
X196507100Y-141452600D03*
X199047100Y-142722600D03*
X196507100Y-143992600D03*
X199047100Y-145262600D03*
X196507100Y-146532600D03*
%TD*%
D18*
%TO.C,J111*%
X253657100Y-61569600D03*
X253657100Y-71729600D03*
D12*
X262547100Y-63474600D03*
X260007100Y-64744600D03*
X262547100Y-66014600D03*
X260007100Y-67284600D03*
X262547100Y-68554600D03*
X260007100Y-69824600D03*
%TD*%
D24*
%TO.C,U19*%
X132902000Y-129707600D03*
X132902000Y-130657600D03*
X132902000Y-131607600D03*
X135652200Y-131607600D03*
X135652200Y-130657600D03*
X135652200Y-129707600D03*
%TD*%
D27*
%TO.C,U16*%
X109750100Y-94419600D03*
X109750100Y-92219600D03*
D28*
X108750100Y-92219600D03*
D27*
X107750100Y-92219600D03*
X107750100Y-94419600D03*
D28*
X108750100Y-94419600D03*
%TD*%
D15*
%TO.C,H4*%
X50457100Y-153517600D03*
%TD*%
D16*
%TO.C,C12*%
X4864100Y-74689600D03*
X4864100Y-76389600D03*
%TD*%
D13*
%TO.C,R62*%
X166447100Y-66141600D03*
X168147100Y-66141600D03*
%TD*%
D17*
%TO.C,R52*%
X173227100Y-111607600D03*
X171527100Y-111607600D03*
%TD*%
D16*
%TO.C,C30*%
X131864100Y-125997600D03*
X131864100Y-127697600D03*
%TD*%
D21*
%TO.C,B7*%
X202857100Y-154787600D03*
D12*
X202857100Y-152247600D03*
X202857100Y-149707600D03*
X202857100Y-147167600D03*
X202857100Y-144627600D03*
X202857100Y-142087600D03*
X202857100Y-139547600D03*
X202857100Y-137007600D03*
X202857100Y-134467600D03*
X202857100Y-131927600D03*
X202857100Y-129387600D03*
X202857100Y-126847600D03*
X202857100Y-124307600D03*
X202857100Y-121767600D03*
X202857100Y-119227600D03*
X202857100Y-116687600D03*
X202857100Y-114147600D03*
X202857100Y-111607600D03*
X202857100Y-109067600D03*
X202857100Y-106527600D03*
X225717100Y-106527600D03*
X225717100Y-109067600D03*
X225717100Y-111607600D03*
X225717100Y-114147600D03*
X225717100Y-116687600D03*
X225717100Y-119227600D03*
X225717100Y-121767600D03*
X225717100Y-124307600D03*
X225717100Y-126847600D03*
X225717100Y-129387600D03*
X225717100Y-131927600D03*
X225717100Y-134467600D03*
X225717100Y-137007600D03*
X225717100Y-139547600D03*
X225717100Y-142087600D03*
X225717100Y-144627600D03*
X225717100Y-147167600D03*
X225717100Y-149707600D03*
X225717100Y-152247600D03*
D21*
X225717100Y-154787600D03*
%TD*%
D26*
%TO.C,R95*%
X239941100Y-84009600D03*
X239941100Y-82309600D03*
%TD*%
D18*
%TO.C,J50*%
X126657100Y-138277600D03*
X126657100Y-148437600D03*
D12*
X135547100Y-140182600D03*
X133007100Y-141452600D03*
X135547100Y-142722600D03*
X133007100Y-143992600D03*
X135547100Y-145262600D03*
X133007100Y-146532600D03*
%TD*%
D16*
%TO.C,R53*%
X172377100Y-133871600D03*
X172377100Y-135571600D03*
%TD*%
D13*
%TO.C,R44*%
X70689100Y-74904600D03*
X72389100Y-74904600D03*
%TD*%
D18*
%TO.C,J27*%
X63157100Y-112877600D03*
X63157100Y-123037600D03*
D12*
X72047100Y-114782600D03*
X69507100Y-116052600D03*
X72047100Y-117322600D03*
X69507100Y-118592600D03*
X72047100Y-119862600D03*
X69507100Y-121132600D03*
%TD*%
D16*
%TO.C,C18*%
X68364100Y-125997600D03*
X68364100Y-127697600D03*
%TD*%
D15*
%TO.C,H36*%
X304457100Y-107797600D03*
%TD*%
D13*
%TO.C,R57*%
X133427100Y-128117600D03*
X135127100Y-128117600D03*
%TD*%
D12*
%TO.C,J88*%
X186347100Y-81889600D03*
X186347100Y-79349600D03*
X186347100Y-76809600D03*
%TD*%
D16*
%TO.C,R34*%
X111417100Y-133617600D03*
X111417100Y-135317600D03*
%TD*%
D18*
%TO.C,J51*%
X126657100Y-112877600D03*
X126657100Y-123037600D03*
D12*
X135547100Y-114782600D03*
X133007100Y-116052600D03*
X135547100Y-117322600D03*
X133007100Y-118592600D03*
X135547100Y-119862600D03*
X133007100Y-121132600D03*
%TD*%
D17*
%TO.C,C45*%
X236727100Y-65379600D03*
X235027100Y-65379600D03*
%TD*%
D12*
%TO.C,R96*%
X242227100Y-78079600D03*
X242227100Y-80619600D03*
%TD*%
D13*
%TO.C,C11*%
X5030100Y-82143600D03*
X6730100Y-82143600D03*
%TD*%
%TO.C,R50*%
X166447100Y-117449600D03*
X168147100Y-117449600D03*
%TD*%
D12*
%TO.C,J16*%
X-4152900Y-81889600D03*
X-4152900Y-79349600D03*
X-4152900Y-76809600D03*
%TD*%
D11*
%TO.C,FD22*%
X178727100Y-98399600D03*
%TD*%
D13*
%TO.C,C34*%
X174067100Y-76174600D03*
X175767100Y-76174600D03*
%TD*%
%TO.C,R69*%
X133427100Y-76809600D03*
X135127100Y-76809600D03*
%TD*%
D12*
%TO.C,J76*%
X186347100Y-133197600D03*
X186347100Y-130657600D03*
X186347100Y-128117600D03*
%TD*%
%TO.C,J46*%
X91097100Y-103479600D03*
X91097100Y-100939600D03*
X91097100Y-98399600D03*
X91097100Y-95859600D03*
X91097100Y-93319600D03*
X91097100Y-90779600D03*
X91097100Y-88239600D03*
X91097100Y-85699600D03*
X91097100Y-83159600D03*
X91097100Y-80619600D03*
X91097100Y-78079600D03*
X91097100Y-75539600D03*
X91097100Y-72999600D03*
X91097100Y-70459600D03*
X91097100Y-67919600D03*
X91097100Y-65379600D03*
X91097100Y-62839600D03*
X91097100Y-60299600D03*
X91097100Y-57759600D03*
X91097100Y-55219600D03*
%TD*%
%TO.C,J24*%
X4737100Y-103479600D03*
X7277100Y-103479600D03*
X9817100Y-103479600D03*
%TD*%
%TO.C,J43*%
X83477100Y-103479600D03*
X83477100Y-100939600D03*
X83477100Y-98399600D03*
X83477100Y-95859600D03*
X83477100Y-93319600D03*
X83477100Y-90779600D03*
X83477100Y-88239600D03*
X83477100Y-85699600D03*
X83477100Y-83159600D03*
X83477100Y-80619600D03*
X83477100Y-78079600D03*
X83477100Y-75539600D03*
X83477100Y-72999600D03*
X83477100Y-70459600D03*
X83477100Y-67919600D03*
X83477100Y-65379600D03*
X83477100Y-62839600D03*
X83477100Y-60299600D03*
X83477100Y-57759600D03*
X83477100Y-55219600D03*
%TD*%
D16*
%TO.C,R114*%
X297853100Y-82563600D03*
X297853100Y-84263600D03*
%TD*%
D18*
%TO.C,J2*%
X-342900Y-138277600D03*
X-342900Y-148437600D03*
D12*
X8547100Y-140182600D03*
X6007100Y-141452600D03*
X8547100Y-142722600D03*
X6007100Y-143992600D03*
X8547100Y-145262600D03*
X6007100Y-146532600D03*
%TD*%
D15*
%TO.C,H11*%
X60617100Y-107797600D03*
%TD*%
D16*
%TO.C,R39*%
X112052100Y-93739600D03*
X112052100Y-95439600D03*
%TD*%
D22*
%TO.C,U17*%
X171177100Y-131757600D03*
X171777100Y-131757600D03*
X172377100Y-131757600D03*
X172977100Y-131757600D03*
X173577100Y-131757600D03*
D23*
X173577100Y-129557600D03*
X172977100Y-129557600D03*
X172377100Y-129557600D03*
X171777100Y-129557600D03*
X171177100Y-129557600D03*
%TD*%
D12*
%TO.C,J92*%
X213017100Y-103479600D03*
X213017100Y-100939600D03*
X213017100Y-98399600D03*
X213017100Y-95859600D03*
X213017100Y-93319600D03*
X213017100Y-90779600D03*
X213017100Y-88239600D03*
X213017100Y-85699600D03*
X213017100Y-83159600D03*
X213017100Y-80619600D03*
X213017100Y-78079600D03*
X213017100Y-75539600D03*
X213017100Y-72999600D03*
X213017100Y-70459600D03*
X213017100Y-67919600D03*
X213017100Y-65379600D03*
X213017100Y-62839600D03*
X213017100Y-60299600D03*
X213017100Y-57759600D03*
X213017100Y-55219600D03*
%TD*%
%TO.C,J83*%
X220637100Y-154787600D03*
X220637100Y-152247600D03*
X220637100Y-149707600D03*
X220637100Y-147167600D03*
X220637100Y-144627600D03*
X220637100Y-142087600D03*
X220637100Y-139547600D03*
X220637100Y-137007600D03*
X220637100Y-134467600D03*
X220637100Y-131927600D03*
X220637100Y-129387600D03*
X220637100Y-126847600D03*
X220637100Y-124307600D03*
X220637100Y-121767600D03*
X220637100Y-119227600D03*
X220637100Y-116687600D03*
X220637100Y-114147600D03*
X220637100Y-111607600D03*
X220637100Y-109067600D03*
X220637100Y-106527600D03*
%TD*%
D29*
%TO.C,E$8*%
X8547100Y-52298600D03*
%TD*%
D16*
%TO.C,R70*%
X174917100Y-82309600D03*
X174917100Y-84009600D03*
%TD*%
D24*
%TO.C,U23*%
X132902000Y-78399600D03*
X132902000Y-79349600D03*
X132902000Y-80299600D03*
X135652200Y-80299600D03*
X135652200Y-79349600D03*
X135652200Y-78399600D03*
%TD*%
D27*
%TO.C,U24*%
X173250100Y-94419600D03*
X173250100Y-92219600D03*
D28*
X172250100Y-92219600D03*
D27*
X171250100Y-92219600D03*
X171250100Y-94419600D03*
D28*
X172250100Y-94419600D03*
%TD*%
D12*
%TO.C,J64*%
X122847100Y-81889600D03*
X122847100Y-79349600D03*
X122847100Y-76809600D03*
%TD*%
D18*
%TO.C,J98*%
X253657100Y-138277600D03*
X253657100Y-148437600D03*
D12*
X262547100Y-140182600D03*
X260007100Y-141452600D03*
X262547100Y-142722600D03*
X260007100Y-143992600D03*
X262547100Y-145262600D03*
X260007100Y-146532600D03*
%TD*%
D26*
%TO.C,R8*%
X49441100Y-135317600D03*
X49441100Y-133617600D03*
%TD*%
D13*
%TO.C,R105*%
X260427100Y-128117600D03*
X262127100Y-128117600D03*
%TD*%
D16*
%TO.C,R75*%
X239052100Y-145047600D03*
X239052100Y-146747600D03*
%TD*%
D24*
%TO.C,U27*%
X196402000Y-129707600D03*
X196402000Y-130657600D03*
X196402000Y-131607600D03*
X199152200Y-131607600D03*
X199152200Y-130657600D03*
X199152200Y-129707600D03*
%TD*%
D12*
%TO.C,J20*%
X22517100Y-103479600D03*
X22517100Y-100939600D03*
X22517100Y-98399600D03*
X22517100Y-95859600D03*
X22517100Y-93319600D03*
X22517100Y-90779600D03*
X22517100Y-88239600D03*
X22517100Y-85699600D03*
X22517100Y-83159600D03*
X22517100Y-80619600D03*
X22517100Y-78079600D03*
X22517100Y-75539600D03*
X22517100Y-72999600D03*
X22517100Y-70459600D03*
X22517100Y-67919600D03*
X22517100Y-65379600D03*
X22517100Y-62839600D03*
X22517100Y-60299600D03*
X22517100Y-57759600D03*
X22517100Y-55219600D03*
%TD*%
D13*
%TO.C,C28*%
X174067100Y-127482600D03*
X175767100Y-127482600D03*
%TD*%
D17*
%TO.C,R64*%
X173227100Y-60299600D03*
X171527100Y-60299600D03*
%TD*%
D15*
%TO.C,H18*%
X177457100Y-153517600D03*
%TD*%
D26*
%TO.C,R107*%
X303441100Y-135317600D03*
X303441100Y-133617600D03*
%TD*%
D13*
%TO.C,R20*%
X7189100Y-74904600D03*
X8889100Y-74904600D03*
%TD*%
%TO.C,R68*%
X134189100Y-74904600D03*
X135889100Y-74904600D03*
%TD*%
D12*
%TO.C,J66*%
X144437100Y-103479600D03*
X144437100Y-100939600D03*
X144437100Y-98399600D03*
X144437100Y-95859600D03*
X144437100Y-93319600D03*
X144437100Y-90779600D03*
X144437100Y-88239600D03*
X144437100Y-85699600D03*
X144437100Y-83159600D03*
X144437100Y-80619600D03*
X144437100Y-78079600D03*
X144437100Y-75539600D03*
X144437100Y-72999600D03*
X144437100Y-70459600D03*
X144437100Y-67919600D03*
X144437100Y-65379600D03*
X144437100Y-62839600D03*
X144437100Y-60299600D03*
X144437100Y-57759600D03*
X144437100Y-55219600D03*
%TD*%
D11*
%TO.C,FD10*%
X115227100Y-149707600D03*
%TD*%
D26*
%TO.C,R71*%
X176441100Y-84009600D03*
X176441100Y-82309600D03*
%TD*%
D12*
%TO.C,J49*%
X172377100Y-154787600D03*
X169837100Y-154787600D03*
X167297100Y-154787600D03*
X164757100Y-154787600D03*
%TD*%
D14*
%TO.C,J101*%
X252133100Y-127157600D03*
X252133100Y-130657600D03*
X252133100Y-134157600D03*
%TD*%
D12*
%TO.C,J100*%
X249847100Y-133197600D03*
X249847100Y-130657600D03*
X249847100Y-128117600D03*
%TD*%
D16*
%TO.C,R1*%
X45377100Y-133871600D03*
X45377100Y-135571600D03*
%TD*%
D13*
%TO.C,R86*%
X229947100Y-66141600D03*
X231647100Y-66141600D03*
%TD*%
D18*
%TO.C,J38*%
X63157100Y-86969600D03*
X63157100Y-97129600D03*
D12*
X72047100Y-88874600D03*
X69507100Y-90144600D03*
X72047100Y-91414600D03*
X69507100Y-92684600D03*
X72047100Y-93954600D03*
X69507100Y-95224600D03*
%TD*%
D17*
%TO.C,C50*%
X300227100Y-118211600D03*
X298527100Y-118211600D03*
%TD*%
%TO.C,R88*%
X236727100Y-60299600D03*
X235027100Y-60299600D03*
%TD*%
D18*
%TO.C,J26*%
X63157100Y-138277600D03*
X63157100Y-148437600D03*
D12*
X72047100Y-140182600D03*
X69507100Y-141452600D03*
X72047100Y-142722600D03*
X69507100Y-143992600D03*
X72047100Y-145262600D03*
X69507100Y-146532600D03*
%TD*%
D15*
%TO.C,H40*%
X304457100Y-56489600D03*
%TD*%
D16*
%TO.C,R118*%
X301917100Y-82309600D03*
X301917100Y-84009600D03*
%TD*%
D12*
%TO.C,J97*%
X299377100Y-154787600D03*
X296837100Y-154787600D03*
X294297100Y-154787600D03*
X291757100Y-154787600D03*
%TD*%
D13*
%TO.C,C16*%
X110567100Y-127482600D03*
X112267100Y-127482600D03*
%TD*%
D26*
%TO.C,R23*%
X49441100Y-84009600D03*
X49441100Y-82309600D03*
%TD*%
D15*
%TO.C,H26*%
X240957100Y-153517600D03*
%TD*%
D22*
%TO.C,U29*%
X234677100Y-80449600D03*
X235277100Y-80449600D03*
X235877100Y-80449600D03*
X236477100Y-80449600D03*
X237077100Y-80449600D03*
D23*
X237077100Y-78249600D03*
X236477100Y-78249600D03*
X235877100Y-78249600D03*
X235277100Y-78249600D03*
X234677100Y-78249600D03*
%TD*%
D13*
%TO.C,R13*%
X39447100Y-110972600D03*
X41147100Y-110972600D03*
%TD*%
D15*
%TO.C,H30*%
X240957100Y-102209600D03*
%TD*%
D12*
%TO.C,J73*%
X235877100Y-154787600D03*
X233337100Y-154787600D03*
X230797100Y-154787600D03*
X228257100Y-154787600D03*
%TD*%
D16*
%TO.C,R30*%
X107353100Y-133871600D03*
X107353100Y-135571600D03*
%TD*%
D12*
%TO.C,J106*%
X281597100Y-154787600D03*
X281597100Y-152247600D03*
X281597100Y-149707600D03*
X281597100Y-147167600D03*
X281597100Y-144627600D03*
X281597100Y-142087600D03*
X281597100Y-139547600D03*
X281597100Y-137007600D03*
X281597100Y-134467600D03*
X281597100Y-131927600D03*
X281597100Y-129387600D03*
X281597100Y-126847600D03*
X281597100Y-124307600D03*
X281597100Y-121767600D03*
X281597100Y-119227600D03*
X281597100Y-116687600D03*
X281597100Y-114147600D03*
X281597100Y-111607600D03*
X281597100Y-109067600D03*
X281597100Y-106527600D03*
%TD*%
D27*
%TO.C,U40*%
X300250100Y-94419600D03*
X300250100Y-92219600D03*
D28*
X299250100Y-92219600D03*
D27*
X298250100Y-92219600D03*
X298250100Y-94419600D03*
D28*
X299250100Y-94419600D03*
%TD*%
D13*
%TO.C,C47*%
X195530100Y-82143600D03*
X197230100Y-82143600D03*
%TD*%
D12*
%TO.C,J48*%
X68237100Y-103479600D03*
X70777100Y-103479600D03*
X73317100Y-103479600D03*
%TD*%
%TO.C,J55*%
X146977100Y-154787600D03*
X146977100Y-152247600D03*
X146977100Y-149707600D03*
X146977100Y-147167600D03*
X146977100Y-144627600D03*
X146977100Y-142087600D03*
X146977100Y-139547600D03*
X146977100Y-137007600D03*
X146977100Y-134467600D03*
X146977100Y-131927600D03*
X146977100Y-129387600D03*
X146977100Y-126847600D03*
X146977100Y-124307600D03*
X146977100Y-121767600D03*
X146977100Y-119227600D03*
X146977100Y-116687600D03*
X146977100Y-114147600D03*
X146977100Y-111607600D03*
X146977100Y-109067600D03*
X146977100Y-106527600D03*
%TD*%
D18*
%TO.C,J62*%
X126657100Y-86969600D03*
X126657100Y-97129600D03*
D12*
X135547100Y-88874600D03*
X133007100Y-90144600D03*
X135547100Y-91414600D03*
X133007100Y-92684600D03*
X135547100Y-93954600D03*
X133007100Y-95224600D03*
%TD*%
%TO.C,J94*%
X218097100Y-103479600D03*
X218097100Y-100939600D03*
X218097100Y-98399600D03*
X218097100Y-95859600D03*
X218097100Y-93319600D03*
X218097100Y-90779600D03*
X218097100Y-88239600D03*
X218097100Y-85699600D03*
X218097100Y-83159600D03*
X218097100Y-80619600D03*
X218097100Y-78079600D03*
X218097100Y-75539600D03*
X218097100Y-72999600D03*
X218097100Y-70459600D03*
X218097100Y-67919600D03*
X218097100Y-65379600D03*
X218097100Y-62839600D03*
X218097100Y-60299600D03*
X218097100Y-57759600D03*
X218097100Y-55219600D03*
%TD*%
D17*
%TO.C,R16*%
X46227100Y-60299600D03*
X44527100Y-60299600D03*
%TD*%
D19*
%TO.C,U30*%
X234852100Y-63814600D03*
X234852100Y-63164600D03*
X234852100Y-62514600D03*
X234852100Y-61864600D03*
X236902100Y-61864600D03*
X236902100Y-62514600D03*
X236902100Y-63164600D03*
X236902100Y-63814600D03*
%TD*%
D15*
%TO.C,H25*%
X187617100Y-153517600D03*
%TD*%
D16*
%TO.C,C36*%
X131864100Y-74689600D03*
X131864100Y-76389600D03*
%TD*%
D12*
%TO.C,J120*%
X258737100Y-103479600D03*
X261277100Y-103479600D03*
X263817100Y-103479600D03*
%TD*%
D27*
%TO.C,U3*%
X46250100Y-145727600D03*
X46250100Y-143527600D03*
D28*
X45250100Y-143527600D03*
D27*
X44250100Y-143527600D03*
X44250100Y-145727600D03*
D28*
X45250100Y-145727600D03*
%TD*%
D16*
%TO.C,R18*%
X43853100Y-82563600D03*
X43853100Y-84263600D03*
%TD*%
D12*
%TO.C,J114*%
X271437100Y-103479600D03*
X271437100Y-100939600D03*
X271437100Y-98399600D03*
X271437100Y-95859600D03*
X271437100Y-93319600D03*
X271437100Y-90779600D03*
X271437100Y-88239600D03*
X271437100Y-85699600D03*
X271437100Y-83159600D03*
X271437100Y-80619600D03*
X271437100Y-78079600D03*
X271437100Y-75539600D03*
X271437100Y-72999600D03*
X271437100Y-70459600D03*
X271437100Y-67919600D03*
X271437100Y-65379600D03*
X271437100Y-62839600D03*
X271437100Y-60299600D03*
X271437100Y-57759600D03*
X271437100Y-55219600D03*
%TD*%
D18*
%TO.C,J39*%
X63157100Y-61569600D03*
X63157100Y-71729600D03*
D12*
X72047100Y-63474600D03*
X69507100Y-64744600D03*
X72047100Y-66014600D03*
X69507100Y-67284600D03*
X72047100Y-68554600D03*
X69507100Y-69824600D03*
%TD*%
D13*
%TO.C,R33*%
X69927100Y-128117600D03*
X71627100Y-128117600D03*
%TD*%
%TO.C,R73*%
X229947100Y-110972600D03*
X231647100Y-110972600D03*
%TD*%
%TO.C,R11*%
X39447100Y-66141600D03*
X41147100Y-66141600D03*
%TD*%
D16*
%TO.C,R51*%
X175552100Y-145047600D03*
X175552100Y-146747600D03*
%TD*%
D15*
%TO.C,H17*%
X124117100Y-153517600D03*
%TD*%
D16*
%TO.C,R82*%
X238417100Y-133617600D03*
X238417100Y-135317600D03*
%TD*%
D12*
%TO.C,J59*%
X157137100Y-154787600D03*
X157137100Y-152247600D03*
X157137100Y-149707600D03*
X157137100Y-147167600D03*
X157137100Y-144627600D03*
X157137100Y-142087600D03*
X157137100Y-139547600D03*
X157137100Y-137007600D03*
X157137100Y-134467600D03*
X157137100Y-131927600D03*
X157137100Y-129387600D03*
X157137100Y-126847600D03*
X157137100Y-124307600D03*
X157137100Y-121767600D03*
X157137100Y-119227600D03*
X157137100Y-116687600D03*
X157137100Y-114147600D03*
X157137100Y-111607600D03*
X157137100Y-109067600D03*
X157137100Y-106527600D03*
%TD*%
%TO.C,R60*%
X178727100Y-129387600D03*
X178727100Y-131927600D03*
%TD*%
D13*
%TO.C,R43*%
X69927100Y-83794600D03*
X71627100Y-83794600D03*
%TD*%
D14*
%TO.C,J113*%
X252133100Y-75849600D03*
X252133100Y-79349600D03*
X252133100Y-82849600D03*
%TD*%
D15*
%TO.C,H5*%
X-2882900Y-102209600D03*
%TD*%
D13*
%TO.C,C22*%
X110567100Y-76174600D03*
X112267100Y-76174600D03*
%TD*%
D12*
%TO.C,J61*%
X172377100Y-103479600D03*
X169837100Y-103479600D03*
X167297100Y-103479600D03*
X164757100Y-103479600D03*
%TD*%
%TO.C,J93*%
X215557100Y-103479600D03*
X215557100Y-100939600D03*
X215557100Y-98399600D03*
X215557100Y-95859600D03*
X215557100Y-93319600D03*
X215557100Y-90779600D03*
X215557100Y-88239600D03*
X215557100Y-85699600D03*
X215557100Y-83159600D03*
X215557100Y-80619600D03*
X215557100Y-78079600D03*
X215557100Y-75539600D03*
X215557100Y-72999600D03*
X215557100Y-70459600D03*
X215557100Y-67919600D03*
X215557100Y-65379600D03*
X215557100Y-62839600D03*
X215557100Y-60299600D03*
X215557100Y-57759600D03*
X215557100Y-55219600D03*
%TD*%
D11*
%TO.C,FD5*%
X927100Y-56489600D03*
%TD*%
D13*
%TO.C,C37*%
X235027100Y-148691600D03*
X236727100Y-148691600D03*
%TD*%
D12*
%TO.C,J13*%
X30137100Y-154787600D03*
X30137100Y-152247600D03*
X30137100Y-149707600D03*
X30137100Y-147167600D03*
X30137100Y-144627600D03*
X30137100Y-142087600D03*
X30137100Y-139547600D03*
X30137100Y-137007600D03*
X30137100Y-134467600D03*
X30137100Y-131927600D03*
X30137100Y-129387600D03*
X30137100Y-126847600D03*
X30137100Y-124307600D03*
X30137100Y-121767600D03*
X30137100Y-119227600D03*
X30137100Y-116687600D03*
X30137100Y-114147600D03*
X30137100Y-111607600D03*
X30137100Y-109067600D03*
X30137100Y-106527600D03*
%TD*%
D14*
%TO.C,J29*%
X61633100Y-127157600D03*
X61633100Y-130657600D03*
X61633100Y-134157600D03*
%TD*%
D22*
%TO.C,U37*%
X298177100Y-80449600D03*
X298777100Y-80449600D03*
X299377100Y-80449600D03*
X299977100Y-80449600D03*
X300577100Y-80449600D03*
D23*
X300577100Y-78249600D03*
X299977100Y-78249600D03*
X299377100Y-78249600D03*
X298777100Y-78249600D03*
X298177100Y-78249600D03*
%TD*%
D15*
%TO.C,H1*%
X50457100Y-107797600D03*
%TD*%
D17*
%TO.C,R40*%
X109727100Y-60299600D03*
X108027100Y-60299600D03*
%TD*%
%TO.C,C21*%
X109727100Y-65379600D03*
X108027100Y-65379600D03*
%TD*%
D12*
%TO.C,R84*%
X242227100Y-129387600D03*
X242227100Y-131927600D03*
%TD*%
D11*
%TO.C,FD13*%
X64427100Y-56489600D03*
%TD*%
D13*
%TO.C,C46*%
X237567100Y-76174600D03*
X239267100Y-76174600D03*
%TD*%
D16*
%TO.C,R66*%
X170853100Y-82563600D03*
X170853100Y-84263600D03*
%TD*%
D17*
%TO.C,C51*%
X300227100Y-116687600D03*
X298527100Y-116687600D03*
%TD*%
D11*
%TO.C,FD30*%
X242227100Y-98399600D03*
%TD*%
D16*
%TO.C,R29*%
X108877100Y-133871600D03*
X108877100Y-135571600D03*
%TD*%
D15*
%TO.C,H6*%
X50457100Y-102209600D03*
%TD*%
D12*
%TO.C,J18*%
X17437100Y-103479600D03*
X17437100Y-100939600D03*
X17437100Y-98399600D03*
X17437100Y-95859600D03*
X17437100Y-93319600D03*
X17437100Y-90779600D03*
X17437100Y-88239600D03*
X17437100Y-85699600D03*
X17437100Y-83159600D03*
X17437100Y-80619600D03*
X17437100Y-78079600D03*
X17437100Y-75539600D03*
X17437100Y-72999600D03*
X17437100Y-70459600D03*
X17437100Y-67919600D03*
X17437100Y-65379600D03*
X17437100Y-62839600D03*
X17437100Y-60299600D03*
X17437100Y-57759600D03*
X17437100Y-55219600D03*
%TD*%
%TO.C,J23*%
X30137100Y-103479600D03*
X30137100Y-100939600D03*
X30137100Y-98399600D03*
X30137100Y-95859600D03*
X30137100Y-93319600D03*
X30137100Y-90779600D03*
X30137100Y-88239600D03*
X30137100Y-85699600D03*
X30137100Y-83159600D03*
X30137100Y-80619600D03*
X30137100Y-78079600D03*
X30137100Y-75539600D03*
X30137100Y-72999600D03*
X30137100Y-70459600D03*
X30137100Y-67919600D03*
X30137100Y-65379600D03*
X30137100Y-62839600D03*
X30137100Y-60299600D03*
X30137100Y-57759600D03*
X30137100Y-55219600D03*
%TD*%
D16*
%TO.C,R22*%
X47917100Y-82309600D03*
X47917100Y-84009600D03*
%TD*%
D24*
%TO.C,U39*%
X259902000Y-78399600D03*
X259902000Y-79349600D03*
X259902000Y-80299600D03*
X262652200Y-80299600D03*
X262652200Y-79349600D03*
X262652200Y-78399600D03*
%TD*%
D16*
%TO.C,R65*%
X172377100Y-82563600D03*
X172377100Y-84263600D03*
%TD*%
D17*
%TO.C,C8*%
X46227100Y-66903600D03*
X44527100Y-66903600D03*
%TD*%
D13*
%TO.C,C35*%
X132030100Y-82143600D03*
X133730100Y-82143600D03*
%TD*%
D16*
%TO.C,R78*%
X234353100Y-133871600D03*
X234353100Y-135571600D03*
%TD*%
D11*
%TO.C,FD2*%
X51727100Y-149707600D03*
%TD*%
D13*
%TO.C,R3*%
X6427100Y-128117600D03*
X8127100Y-128117600D03*
%TD*%
D12*
%TO.C,J31*%
X83477100Y-154787600D03*
X83477100Y-152247600D03*
X83477100Y-149707600D03*
X83477100Y-147167600D03*
X83477100Y-144627600D03*
X83477100Y-142087600D03*
X83477100Y-139547600D03*
X83477100Y-137007600D03*
X83477100Y-134467600D03*
X83477100Y-131927600D03*
X83477100Y-129387600D03*
X83477100Y-126847600D03*
X83477100Y-124307600D03*
X83477100Y-121767600D03*
X83477100Y-119227600D03*
X83477100Y-116687600D03*
X83477100Y-114147600D03*
X83477100Y-111607600D03*
X83477100Y-109067600D03*
X83477100Y-106527600D03*
%TD*%
D24*
%TO.C,U4*%
X5902000Y-129707600D03*
X5902000Y-130657600D03*
X5902000Y-131607600D03*
X8652200Y-131607600D03*
X8652200Y-130657600D03*
X8652200Y-129707600D03*
%TD*%
D26*
%TO.C,R83*%
X239941100Y-135317600D03*
X239941100Y-133617600D03*
%TD*%
D14*
%TO.C,J7*%
X-1866900Y-127157600D03*
X-1866900Y-130657600D03*
X-1866900Y-134157600D03*
%TD*%
D24*
%TO.C,U7*%
X5902000Y-78399600D03*
X5902000Y-79349600D03*
X5902000Y-80299600D03*
X8652200Y-80299600D03*
X8652200Y-79349600D03*
X8652200Y-78399600D03*
%TD*%
D12*
%TO.C,J60*%
X131737100Y-154787600D03*
X134277100Y-154787600D03*
X136817100Y-154787600D03*
%TD*%
D16*
%TO.C,R42*%
X107353100Y-82563600D03*
X107353100Y-84263600D03*
%TD*%
D15*
%TO.C,H39*%
X251117100Y-56489600D03*
%TD*%
D13*
%TO.C,R109*%
X293447100Y-59664600D03*
X295147100Y-59664600D03*
%TD*%
%TO.C,C43*%
X235027100Y-97383600D03*
X236727100Y-97383600D03*
%TD*%
D22*
%TO.C,U9*%
X107677100Y-131757600D03*
X108277100Y-131757600D03*
X108877100Y-131757600D03*
X109477100Y-131757600D03*
X110077100Y-131757600D03*
D23*
X110077100Y-129557600D03*
X109477100Y-129557600D03*
X108877100Y-129557600D03*
X108277100Y-129557600D03*
X107677100Y-129557600D03*
%TD*%
D16*
%TO.C,R15*%
X48552100Y-93739600D03*
X48552100Y-95439600D03*
%TD*%
D12*
%TO.C,J56*%
X149517100Y-154787600D03*
X149517100Y-152247600D03*
X149517100Y-149707600D03*
X149517100Y-147167600D03*
X149517100Y-144627600D03*
X149517100Y-142087600D03*
X149517100Y-139547600D03*
X149517100Y-137007600D03*
X149517100Y-134467600D03*
X149517100Y-131927600D03*
X149517100Y-129387600D03*
X149517100Y-126847600D03*
X149517100Y-124307600D03*
X149517100Y-121767600D03*
X149517100Y-119227600D03*
X149517100Y-116687600D03*
X149517100Y-114147600D03*
X149517100Y-111607600D03*
X149517100Y-109067600D03*
X149517100Y-106527600D03*
%TD*%
%TO.C,J107*%
X284137100Y-154787600D03*
X284137100Y-152247600D03*
X284137100Y-149707600D03*
X284137100Y-147167600D03*
X284137100Y-144627600D03*
X284137100Y-142087600D03*
X284137100Y-139547600D03*
X284137100Y-137007600D03*
X284137100Y-134467600D03*
X284137100Y-131927600D03*
X284137100Y-129387600D03*
X284137100Y-126847600D03*
X284137100Y-124307600D03*
X284137100Y-121767600D03*
X284137100Y-119227600D03*
X284137100Y-116687600D03*
X284137100Y-114147600D03*
X284137100Y-111607600D03*
X284137100Y-109067600D03*
X284137100Y-106527600D03*
%TD*%
D17*
%TO.C,C39*%
X236727100Y-116687600D03*
X235027100Y-116687600D03*
%TD*%
D13*
%TO.C,R115*%
X260427100Y-83794600D03*
X262127100Y-83794600D03*
%TD*%
D15*
%TO.C,H15*%
X60617100Y-56489600D03*
%TD*%
D19*
%TO.C,U6*%
X44352100Y-63814600D03*
X44352100Y-63164600D03*
X44352100Y-62514600D03*
X44352100Y-61864600D03*
X46402100Y-61864600D03*
X46402100Y-62514600D03*
X46402100Y-63164600D03*
X46402100Y-63814600D03*
%TD*%
D16*
%TO.C,R46*%
X111417100Y-82309600D03*
X111417100Y-84009600D03*
%TD*%
D21*
%TO.C,B8*%
X202857100Y-103479600D03*
D12*
X202857100Y-100939600D03*
X202857100Y-98399600D03*
X202857100Y-95859600D03*
X202857100Y-93319600D03*
X202857100Y-90779600D03*
X202857100Y-88239600D03*
X202857100Y-85699600D03*
X202857100Y-83159600D03*
X202857100Y-80619600D03*
X202857100Y-78079600D03*
X202857100Y-75539600D03*
X202857100Y-72999600D03*
X202857100Y-70459600D03*
X202857100Y-67919600D03*
X202857100Y-65379600D03*
X202857100Y-62839600D03*
X202857100Y-60299600D03*
X202857100Y-57759600D03*
X202857100Y-55219600D03*
X225717100Y-55219600D03*
X225717100Y-57759600D03*
X225717100Y-60299600D03*
X225717100Y-62839600D03*
X225717100Y-65379600D03*
X225717100Y-67919600D03*
X225717100Y-70459600D03*
X225717100Y-72999600D03*
X225717100Y-75539600D03*
X225717100Y-78079600D03*
X225717100Y-80619600D03*
X225717100Y-83159600D03*
X225717100Y-85699600D03*
X225717100Y-88239600D03*
X225717100Y-90779600D03*
X225717100Y-93319600D03*
X225717100Y-95859600D03*
X225717100Y-98399600D03*
X225717100Y-100939600D03*
D21*
X225717100Y-103479600D03*
%TD*%
D12*
%TO.C,R12*%
X51727100Y-129387600D03*
X51727100Y-131927600D03*
%TD*%
D21*
%TO.C,B1*%
X12357100Y-154787600D03*
D12*
X12357100Y-152247600D03*
X12357100Y-149707600D03*
X12357100Y-147167600D03*
X12357100Y-144627600D03*
X12357100Y-142087600D03*
X12357100Y-139547600D03*
X12357100Y-137007600D03*
X12357100Y-134467600D03*
X12357100Y-131927600D03*
X12357100Y-129387600D03*
X12357100Y-126847600D03*
X12357100Y-124307600D03*
X12357100Y-121767600D03*
X12357100Y-119227600D03*
X12357100Y-116687600D03*
X12357100Y-114147600D03*
X12357100Y-111607600D03*
X12357100Y-109067600D03*
X12357100Y-106527600D03*
X35217100Y-106527600D03*
X35217100Y-109067600D03*
X35217100Y-111607600D03*
X35217100Y-114147600D03*
X35217100Y-116687600D03*
X35217100Y-119227600D03*
X35217100Y-121767600D03*
X35217100Y-124307600D03*
X35217100Y-126847600D03*
X35217100Y-129387600D03*
X35217100Y-131927600D03*
X35217100Y-134467600D03*
X35217100Y-137007600D03*
X35217100Y-139547600D03*
X35217100Y-142087600D03*
X35217100Y-144627600D03*
X35217100Y-147167600D03*
X35217100Y-149707600D03*
X35217100Y-152247600D03*
D21*
X35217100Y-154787600D03*
%TD*%
D24*
%TO.C,U11*%
X69402000Y-129707600D03*
X69402000Y-130657600D03*
X69402000Y-131607600D03*
X72152200Y-131607600D03*
X72152200Y-130657600D03*
X72152200Y-129707600D03*
%TD*%
D27*
%TO.C,U32*%
X236750100Y-94419600D03*
X236750100Y-92219600D03*
D28*
X235750100Y-92219600D03*
D27*
X234750100Y-92219600D03*
X234750100Y-94419600D03*
D28*
X235750100Y-94419600D03*
%TD*%
D15*
%TO.C,H33*%
X251117100Y-153517600D03*
%TD*%
D12*
%TO.C,J40*%
X59347100Y-81889600D03*
X59347100Y-79349600D03*
X59347100Y-76809600D03*
%TD*%
D13*
%TO.C,R21*%
X6427100Y-76809600D03*
X8127100Y-76809600D03*
%TD*%
D18*
%TO.C,J14*%
X-342900Y-86969600D03*
X-342900Y-97129600D03*
D12*
X8547100Y-88874600D03*
X6007100Y-90144600D03*
X8547100Y-91414600D03*
X6007100Y-92684600D03*
X8547100Y-93954600D03*
X6007100Y-95224600D03*
%TD*%
D14*
%TO.C,J65*%
X125133100Y-75849600D03*
X125133100Y-79349600D03*
X125133100Y-82849600D03*
%TD*%
D24*
%TO.C,U35*%
X259902000Y-129707600D03*
X259902000Y-130657600D03*
X259902000Y-131607600D03*
X262652200Y-131607600D03*
X262652200Y-130657600D03*
X262652200Y-129707600D03*
%TD*%
D27*
%TO.C,U20*%
X173250100Y-145727600D03*
X173250100Y-143527600D03*
D28*
X172250100Y-143527600D03*
D27*
X171250100Y-143527600D03*
X171250100Y-145727600D03*
D28*
X172250100Y-145727600D03*
%TD*%
D27*
%TO.C,U12*%
X109750100Y-145727600D03*
X109750100Y-143527600D03*
D28*
X108750100Y-143527600D03*
D27*
X107750100Y-143527600D03*
X107750100Y-145727600D03*
D28*
X108750100Y-145727600D03*
%TD*%
D17*
%TO.C,C38*%
X236727100Y-118211600D03*
X235027100Y-118211600D03*
%TD*%
D16*
%TO.C,R87*%
X239052100Y-93739600D03*
X239052100Y-95439600D03*
%TD*%
D12*
%TO.C,J21*%
X25057100Y-103479600D03*
X25057100Y-100939600D03*
X25057100Y-98399600D03*
X25057100Y-95859600D03*
X25057100Y-93319600D03*
X25057100Y-90779600D03*
X25057100Y-88239600D03*
X25057100Y-85699600D03*
X25057100Y-83159600D03*
X25057100Y-80619600D03*
X25057100Y-78079600D03*
X25057100Y-75539600D03*
X25057100Y-72999600D03*
X25057100Y-70459600D03*
X25057100Y-67919600D03*
X25057100Y-65379600D03*
X25057100Y-62839600D03*
X25057100Y-60299600D03*
X25057100Y-57759600D03*
X25057100Y-55219600D03*
%TD*%
%TO.C,J91*%
X210477100Y-103479600D03*
X210477100Y-100939600D03*
X210477100Y-98399600D03*
X210477100Y-95859600D03*
X210477100Y-93319600D03*
X210477100Y-90779600D03*
X210477100Y-88239600D03*
X210477100Y-85699600D03*
X210477100Y-83159600D03*
X210477100Y-80619600D03*
X210477100Y-78079600D03*
X210477100Y-75539600D03*
X210477100Y-72999600D03*
X210477100Y-70459600D03*
X210477100Y-67919600D03*
X210477100Y-65379600D03*
X210477100Y-62839600D03*
X210477100Y-60299600D03*
X210477100Y-57759600D03*
X210477100Y-55219600D03*
%TD*%
D15*
%TO.C,H22*%
X177457100Y-102209600D03*
%TD*%
D12*
%TO.C,J11*%
X25057100Y-154787600D03*
X25057100Y-152247600D03*
X25057100Y-149707600D03*
X25057100Y-147167600D03*
X25057100Y-144627600D03*
X25057100Y-142087600D03*
X25057100Y-139547600D03*
X25057100Y-137007600D03*
X25057100Y-134467600D03*
X25057100Y-131927600D03*
X25057100Y-129387600D03*
X25057100Y-126847600D03*
X25057100Y-124307600D03*
X25057100Y-121767600D03*
X25057100Y-119227600D03*
X25057100Y-116687600D03*
X25057100Y-114147600D03*
X25057100Y-111607600D03*
X25057100Y-109067600D03*
X25057100Y-106527600D03*
%TD*%
D13*
%TO.C,R67*%
X133427100Y-83794600D03*
X135127100Y-83794600D03*
%TD*%
%TO.C,C49*%
X298527100Y-148691600D03*
X300227100Y-148691600D03*
%TD*%
D15*
%TO.C,H27*%
X187617100Y-107797600D03*
%TD*%
D12*
%TO.C,J117*%
X279057100Y-103479600D03*
X279057100Y-100939600D03*
X279057100Y-98399600D03*
X279057100Y-95859600D03*
X279057100Y-93319600D03*
X279057100Y-90779600D03*
X279057100Y-88239600D03*
X279057100Y-85699600D03*
X279057100Y-83159600D03*
X279057100Y-80619600D03*
X279057100Y-78079600D03*
X279057100Y-75539600D03*
X279057100Y-72999600D03*
X279057100Y-70459600D03*
X279057100Y-67919600D03*
X279057100Y-65379600D03*
X279057100Y-62839600D03*
X279057100Y-60299600D03*
X279057100Y-57759600D03*
X279057100Y-55219600D03*
%TD*%
D13*
%TO.C,R31*%
X69927100Y-135102600D03*
X71627100Y-135102600D03*
%TD*%
D16*
%TO.C,R10*%
X47917100Y-133617600D03*
X47917100Y-135317600D03*
%TD*%
D13*
%TO.C,C31*%
X171527100Y-97383600D03*
X173227100Y-97383600D03*
%TD*%
%TO.C,C40*%
X237567100Y-127482600D03*
X239267100Y-127482600D03*
%TD*%
D22*
%TO.C,U21*%
X171177100Y-80449600D03*
X171777100Y-80449600D03*
X172377100Y-80449600D03*
X172977100Y-80449600D03*
X173577100Y-80449600D03*
D23*
X173577100Y-78249600D03*
X172977100Y-78249600D03*
X172377100Y-78249600D03*
X171777100Y-78249600D03*
X171177100Y-78249600D03*
%TD*%
D12*
%TO.C,J96*%
X195237100Y-103479600D03*
X197777100Y-103479600D03*
X200317100Y-103479600D03*
%TD*%
D11*
%TO.C,FD33*%
X254927100Y-107797600D03*
%TD*%
D13*
%TO.C,C41*%
X195530100Y-133451600D03*
X197230100Y-133451600D03*
%TD*%
%TO.C,R14*%
X39447100Y-117449600D03*
X41147100Y-117449600D03*
%TD*%
D16*
%TO.C,R54*%
X170853100Y-133871600D03*
X170853100Y-135571600D03*
%TD*%
D12*
%TO.C,J37*%
X108877100Y-103479600D03*
X106337100Y-103479600D03*
X103797100Y-103479600D03*
X101257100Y-103479600D03*
%TD*%
D21*
%TO.C,B4*%
X75857100Y-103479600D03*
D12*
X75857100Y-100939600D03*
X75857100Y-98399600D03*
X75857100Y-95859600D03*
X75857100Y-93319600D03*
X75857100Y-90779600D03*
X75857100Y-88239600D03*
X75857100Y-85699600D03*
X75857100Y-83159600D03*
X75857100Y-80619600D03*
X75857100Y-78079600D03*
X75857100Y-75539600D03*
X75857100Y-72999600D03*
X75857100Y-70459600D03*
X75857100Y-67919600D03*
X75857100Y-65379600D03*
X75857100Y-62839600D03*
X75857100Y-60299600D03*
X75857100Y-57759600D03*
X75857100Y-55219600D03*
X98717100Y-55219600D03*
X98717100Y-57759600D03*
X98717100Y-60299600D03*
X98717100Y-62839600D03*
X98717100Y-65379600D03*
X98717100Y-67919600D03*
X98717100Y-70459600D03*
X98717100Y-72999600D03*
X98717100Y-75539600D03*
X98717100Y-78079600D03*
X98717100Y-80619600D03*
X98717100Y-83159600D03*
X98717100Y-85699600D03*
X98717100Y-88239600D03*
X98717100Y-90779600D03*
X98717100Y-93319600D03*
X98717100Y-95859600D03*
X98717100Y-98399600D03*
X98717100Y-100939600D03*
D21*
X98717100Y-103479600D03*
%TD*%
D13*
%TO.C,R26*%
X102947100Y-117449600D03*
X104647100Y-117449600D03*
%TD*%
D12*
%TO.C,J105*%
X279057100Y-154787600D03*
X279057100Y-152247600D03*
X279057100Y-149707600D03*
X279057100Y-147167600D03*
X279057100Y-144627600D03*
X279057100Y-142087600D03*
X279057100Y-139547600D03*
X279057100Y-137007600D03*
X279057100Y-134467600D03*
X279057100Y-131927600D03*
X279057100Y-129387600D03*
X279057100Y-126847600D03*
X279057100Y-124307600D03*
X279057100Y-121767600D03*
X279057100Y-119227600D03*
X279057100Y-116687600D03*
X279057100Y-114147600D03*
X279057100Y-111607600D03*
X279057100Y-109067600D03*
X279057100Y-106527600D03*
%TD*%
D17*
%TO.C,R112*%
X300227100Y-60299600D03*
X298527100Y-60299600D03*
%TD*%
%TO.C,R76*%
X236727100Y-111607600D03*
X235027100Y-111607600D03*
%TD*%
D22*
%TO.C,U5*%
X44177100Y-80449600D03*
X44777100Y-80449600D03*
X45377100Y-80449600D03*
X45977100Y-80449600D03*
X46577100Y-80449600D03*
D23*
X46577100Y-78249600D03*
X45977100Y-78249600D03*
X45377100Y-78249600D03*
X44777100Y-78249600D03*
X44177100Y-78249600D03*
%TD*%
D15*
%TO.C,H24*%
X177457100Y-56489600D03*
%TD*%
D13*
%TO.C,R55*%
X133427100Y-135102600D03*
X135127100Y-135102600D03*
%TD*%
D17*
%TO.C,R4*%
X46227100Y-111607600D03*
X44527100Y-111607600D03*
%TD*%
D13*
%TO.C,R93*%
X196927100Y-76809600D03*
X198627100Y-76809600D03*
%TD*%
D12*
%TO.C,J79*%
X210477100Y-154787600D03*
X210477100Y-152247600D03*
X210477100Y-149707600D03*
X210477100Y-147167600D03*
X210477100Y-144627600D03*
X210477100Y-142087600D03*
X210477100Y-139547600D03*
X210477100Y-137007600D03*
X210477100Y-134467600D03*
X210477100Y-131927600D03*
X210477100Y-129387600D03*
X210477100Y-126847600D03*
X210477100Y-124307600D03*
X210477100Y-121767600D03*
X210477100Y-119227600D03*
X210477100Y-116687600D03*
X210477100Y-114147600D03*
X210477100Y-111607600D03*
X210477100Y-109067600D03*
X210477100Y-106527600D03*
%TD*%
%TO.C,J84*%
X195237100Y-154787600D03*
X197777100Y-154787600D03*
X200317100Y-154787600D03*
%TD*%
D13*
%TO.C,R92*%
X197689100Y-74904600D03*
X199389100Y-74904600D03*
%TD*%
D12*
%TO.C,J108*%
X258737100Y-154787600D03*
X261277100Y-154787600D03*
X263817100Y-154787600D03*
%TD*%
D13*
%TO.C,C58*%
X301067100Y-76174600D03*
X302767100Y-76174600D03*
%TD*%
%TO.C,C29*%
X132030100Y-133451600D03*
X133730100Y-133451600D03*
%TD*%
D16*
%TO.C,C24*%
X68364100Y-74689600D03*
X68364100Y-76389600D03*
%TD*%
D12*
%TO.C,J52*%
X122847100Y-133197600D03*
X122847100Y-130657600D03*
X122847100Y-128117600D03*
%TD*%
D13*
%TO.C,R81*%
X196927100Y-128117600D03*
X198627100Y-128117600D03*
%TD*%
D12*
%TO.C,R108*%
X305727100Y-129387600D03*
X305727100Y-131927600D03*
%TD*%
%TO.C,R48*%
X115227100Y-78079600D03*
X115227100Y-80619600D03*
%TD*%
D16*
%TO.C,R89*%
X235877100Y-82563600D03*
X235877100Y-84263600D03*
%TD*%
D13*
%TO.C,R103*%
X260427100Y-135102600D03*
X262127100Y-135102600D03*
%TD*%
D18*
%TO.C,J63*%
X126657100Y-61569600D03*
X126657100Y-71729600D03*
D12*
X135547100Y-63474600D03*
X133007100Y-64744600D03*
X135547100Y-66014600D03*
X133007100Y-67284600D03*
X135547100Y-68554600D03*
X133007100Y-69824600D03*
%TD*%
D15*
%TO.C,H7*%
X-2882900Y-56489600D03*
%TD*%
D12*
%TO.C,J81*%
X215557100Y-154787600D03*
X215557100Y-152247600D03*
X215557100Y-149707600D03*
X215557100Y-147167600D03*
X215557100Y-144627600D03*
X215557100Y-142087600D03*
X215557100Y-139547600D03*
X215557100Y-137007600D03*
X215557100Y-134467600D03*
X215557100Y-131927600D03*
X215557100Y-129387600D03*
X215557100Y-126847600D03*
X215557100Y-124307600D03*
X215557100Y-121767600D03*
X215557100Y-119227600D03*
X215557100Y-116687600D03*
X215557100Y-114147600D03*
X215557100Y-111607600D03*
X215557100Y-109067600D03*
X215557100Y-106527600D03*
%TD*%
D17*
%TO.C,C26*%
X173227100Y-118211600D03*
X171527100Y-118211600D03*
%TD*%
%TO.C,C4*%
X46227100Y-116687600D03*
X44527100Y-116687600D03*
%TD*%
D13*
%TO.C,R80*%
X197689100Y-126212600D03*
X199389100Y-126212600D03*
%TD*%
D12*
%TO.C,J72*%
X131737100Y-103479600D03*
X134277100Y-103479600D03*
X136817100Y-103479600D03*
%TD*%
D16*
%TO.C,R6*%
X43853100Y-133871600D03*
X43853100Y-135571600D03*
%TD*%
D12*
%TO.C,J69*%
X152057100Y-103479600D03*
X152057100Y-100939600D03*
X152057100Y-98399600D03*
X152057100Y-95859600D03*
X152057100Y-93319600D03*
X152057100Y-90779600D03*
X152057100Y-88239600D03*
X152057100Y-85699600D03*
X152057100Y-83159600D03*
X152057100Y-80619600D03*
X152057100Y-78079600D03*
X152057100Y-75539600D03*
X152057100Y-72999600D03*
X152057100Y-70459600D03*
X152057100Y-67919600D03*
X152057100Y-65379600D03*
X152057100Y-62839600D03*
X152057100Y-60299600D03*
X152057100Y-57759600D03*
X152057100Y-55219600D03*
%TD*%
%TO.C,J57*%
X152057100Y-154787600D03*
X152057100Y-152247600D03*
X152057100Y-149707600D03*
X152057100Y-147167600D03*
X152057100Y-144627600D03*
X152057100Y-142087600D03*
X152057100Y-139547600D03*
X152057100Y-137007600D03*
X152057100Y-134467600D03*
X152057100Y-131927600D03*
X152057100Y-129387600D03*
X152057100Y-126847600D03*
X152057100Y-124307600D03*
X152057100Y-121767600D03*
X152057100Y-119227600D03*
X152057100Y-116687600D03*
X152057100Y-114147600D03*
X152057100Y-111607600D03*
X152057100Y-109067600D03*
X152057100Y-106527600D03*
%TD*%
D13*
%TO.C,C3*%
X5030100Y-133451600D03*
X6730100Y-133451600D03*
%TD*%
D26*
%TO.C,R35*%
X112941100Y-135317600D03*
X112941100Y-133617600D03*
%TD*%
D12*
%TO.C,J103*%
X273977100Y-154787600D03*
X273977100Y-152247600D03*
X273977100Y-149707600D03*
X273977100Y-147167600D03*
X273977100Y-144627600D03*
X273977100Y-142087600D03*
X273977100Y-139547600D03*
X273977100Y-137007600D03*
X273977100Y-134467600D03*
X273977100Y-131927600D03*
X273977100Y-129387600D03*
X273977100Y-126847600D03*
X273977100Y-124307600D03*
X273977100Y-121767600D03*
X273977100Y-119227600D03*
X273977100Y-116687600D03*
X273977100Y-114147600D03*
X273977100Y-111607600D03*
X273977100Y-109067600D03*
X273977100Y-106527600D03*
%TD*%
%TO.C,J115*%
X273977100Y-103479600D03*
X273977100Y-100939600D03*
X273977100Y-98399600D03*
X273977100Y-95859600D03*
X273977100Y-93319600D03*
X273977100Y-90779600D03*
X273977100Y-88239600D03*
X273977100Y-85699600D03*
X273977100Y-83159600D03*
X273977100Y-80619600D03*
X273977100Y-78079600D03*
X273977100Y-75539600D03*
X273977100Y-72999600D03*
X273977100Y-70459600D03*
X273977100Y-67919600D03*
X273977100Y-65379600D03*
X273977100Y-62839600D03*
X273977100Y-60299600D03*
X273977100Y-57759600D03*
X273977100Y-55219600D03*
%TD*%
%TO.C,J45*%
X88557100Y-103479600D03*
X88557100Y-100939600D03*
X88557100Y-98399600D03*
X88557100Y-95859600D03*
X88557100Y-93319600D03*
X88557100Y-90779600D03*
X88557100Y-88239600D03*
X88557100Y-85699600D03*
X88557100Y-83159600D03*
X88557100Y-80619600D03*
X88557100Y-78079600D03*
X88557100Y-75539600D03*
X88557100Y-72999600D03*
X88557100Y-70459600D03*
X88557100Y-67919600D03*
X88557100Y-65379600D03*
X88557100Y-62839600D03*
X88557100Y-60299600D03*
X88557100Y-57759600D03*
X88557100Y-55219600D03*
%TD*%
%TO.C,J9*%
X19977100Y-154787600D03*
X19977100Y-152247600D03*
X19977100Y-149707600D03*
X19977100Y-147167600D03*
X19977100Y-144627600D03*
X19977100Y-142087600D03*
X19977100Y-139547600D03*
X19977100Y-137007600D03*
X19977100Y-134467600D03*
X19977100Y-131927600D03*
X19977100Y-129387600D03*
X19977100Y-126847600D03*
X19977100Y-124307600D03*
X19977100Y-121767600D03*
X19977100Y-119227600D03*
X19977100Y-116687600D03*
X19977100Y-114147600D03*
X19977100Y-111607600D03*
X19977100Y-109067600D03*
X19977100Y-106527600D03*
%TD*%
%TO.C,J116*%
X276517100Y-103479600D03*
X276517100Y-100939600D03*
X276517100Y-98399600D03*
X276517100Y-95859600D03*
X276517100Y-93319600D03*
X276517100Y-90779600D03*
X276517100Y-88239600D03*
X276517100Y-85699600D03*
X276517100Y-83159600D03*
X276517100Y-80619600D03*
X276517100Y-78079600D03*
X276517100Y-75539600D03*
X276517100Y-72999600D03*
X276517100Y-70459600D03*
X276517100Y-67919600D03*
X276517100Y-65379600D03*
X276517100Y-62839600D03*
X276517100Y-60299600D03*
X276517100Y-57759600D03*
X276517100Y-55219600D03*
%TD*%
D13*
%TO.C,R85*%
X229947100Y-59664600D03*
X231647100Y-59664600D03*
%TD*%
%TO.C,R110*%
X293447100Y-66141600D03*
X295147100Y-66141600D03*
%TD*%
%TO.C,C10*%
X47067100Y-76174600D03*
X48767100Y-76174600D03*
%TD*%
D12*
%TO.C,J32*%
X86017100Y-154787600D03*
X86017100Y-152247600D03*
X86017100Y-149707600D03*
X86017100Y-147167600D03*
X86017100Y-144627600D03*
X86017100Y-142087600D03*
X86017100Y-139547600D03*
X86017100Y-137007600D03*
X86017100Y-134467600D03*
X86017100Y-131927600D03*
X86017100Y-129387600D03*
X86017100Y-126847600D03*
X86017100Y-124307600D03*
X86017100Y-121767600D03*
X86017100Y-119227600D03*
X86017100Y-116687600D03*
X86017100Y-114147600D03*
X86017100Y-111607600D03*
X86017100Y-109067600D03*
X86017100Y-106527600D03*
%TD*%
D19*
%TO.C,U34*%
X298352100Y-115122600D03*
X298352100Y-114472600D03*
X298352100Y-113822600D03*
X298352100Y-113172600D03*
X300402100Y-113172600D03*
X300402100Y-113822600D03*
X300402100Y-114472600D03*
X300402100Y-115122600D03*
%TD*%
D13*
%TO.C,C7*%
X44527100Y-97383600D03*
X46227100Y-97383600D03*
%TD*%
D17*
%TO.C,C15*%
X109727100Y-116687600D03*
X108027100Y-116687600D03*
%TD*%
D12*
%TO.C,J85*%
X235877100Y-103479600D03*
X233337100Y-103479600D03*
X230797100Y-103479600D03*
X228257100Y-103479600D03*
%TD*%
D15*
%TO.C,H19*%
X124117100Y-107797600D03*
%TD*%
D13*
%TO.C,R116*%
X261189100Y-74904600D03*
X262889100Y-74904600D03*
%TD*%
D12*
%TO.C,J109*%
X299377100Y-103479600D03*
X296837100Y-103479600D03*
X294297100Y-103479600D03*
X291757100Y-103479600D03*
%TD*%
D18*
%TO.C,J110*%
X253657100Y-86969600D03*
X253657100Y-97129600D03*
D12*
X262547100Y-88874600D03*
X260007100Y-90144600D03*
X262547100Y-91414600D03*
X260007100Y-92684600D03*
X262547100Y-93954600D03*
X260007100Y-95224600D03*
%TD*%
D11*
%TO.C,FD1*%
X927100Y-107797600D03*
%TD*%
D12*
%TO.C,J30*%
X80937100Y-154787600D03*
X80937100Y-152247600D03*
X80937100Y-149707600D03*
X80937100Y-147167600D03*
X80937100Y-144627600D03*
X80937100Y-142087600D03*
X80937100Y-139547600D03*
X80937100Y-137007600D03*
X80937100Y-134467600D03*
X80937100Y-131927600D03*
X80937100Y-129387600D03*
X80937100Y-126847600D03*
X80937100Y-124307600D03*
X80937100Y-121767600D03*
X80937100Y-119227600D03*
X80937100Y-116687600D03*
X80937100Y-114147600D03*
X80937100Y-111607600D03*
X80937100Y-109067600D03*
X80937100Y-106527600D03*
%TD*%
D15*
%TO.C,H28*%
X240957100Y-107797600D03*
%TD*%
D13*
%TO.C,C2*%
X47067100Y-127482600D03*
X48767100Y-127482600D03*
%TD*%
D16*
%TO.C,R7*%
X48552100Y-145047600D03*
X48552100Y-146747600D03*
%TD*%
D15*
%TO.C,H23*%
X124117100Y-56489600D03*
%TD*%
D12*
%TO.C,J3*%
X4737100Y-154787600D03*
X7277100Y-154787600D03*
X9817100Y-154787600D03*
%TD*%
D13*
%TO.C,R9*%
X6427100Y-135102600D03*
X8127100Y-135102600D03*
%TD*%
D16*
%TO.C,C5*%
X4864100Y-125997600D03*
X4864100Y-127697600D03*
%TD*%
D15*
%TO.C,H2*%
X-2882900Y-107797600D03*
%TD*%
D16*
%TO.C,R102*%
X297853100Y-133871600D03*
X297853100Y-135571600D03*
%TD*%
D14*
%TO.C,J77*%
X188633100Y-127157600D03*
X188633100Y-130657600D03*
X188633100Y-134157600D03*
%TD*%
D13*
%TO.C,R61*%
X166447100Y-59664600D03*
X168147100Y-59664600D03*
%TD*%
M02*
