%TF.GenerationSoftware,KiCad,Pcbnew,7.0.6-7.0.6~ubuntu22.04.1*%
%TF.CreationDate,2023-08-03T18:36:11+01:00*%
%TF.ProjectId,working,776f726b-696e-4672-9e6b-696361645f70,1.0*%
%TF.SameCoordinates,Original*%
%TF.FileFunction,AssemblyDrawing,Top*%
%FSLAX46Y46*%
G04 Gerber Fmt 4.6, Leading zero omitted, Abs format (unit mm)*
G04 Created by KiCad (PCBNEW 7.0.6-7.0.6~ubuntu22.04.1) date 2023-08-03 18:36:11*
%MOMM*%
%LPD*%
G01*
G04 APERTURE LIST*
%ADD10C,0.150000*%
%ADD11C,0.080000*%
%ADD12C,0.075000*%
%ADD13C,0.120000*%
%ADD14C,0.165100*%
%ADD15C,0.100000*%
G04 APERTURE END LIST*
D10*
X145538152Y-103792857D02*
X146204819Y-103792857D01*
X145157200Y-104030952D02*
X145871485Y-104269047D01*
X145871485Y-104269047D02*
X145871485Y-103650000D01*
X145204819Y-103364285D02*
X145204819Y-102697619D01*
X145204819Y-102697619D02*
X146204819Y-103126190D01*
X145204819Y-102126190D02*
X145204819Y-102030952D01*
X145204819Y-102030952D02*
X145252438Y-101935714D01*
X145252438Y-101935714D02*
X145300057Y-101888095D01*
X145300057Y-101888095D02*
X145395295Y-101840476D01*
X145395295Y-101840476D02*
X145585771Y-101792857D01*
X145585771Y-101792857D02*
X145823866Y-101792857D01*
X145823866Y-101792857D02*
X146014342Y-101840476D01*
X146014342Y-101840476D02*
X146109580Y-101888095D01*
X146109580Y-101888095D02*
X146157200Y-101935714D01*
X146157200Y-101935714D02*
X146204819Y-102030952D01*
X146204819Y-102030952D02*
X146204819Y-102126190D01*
X146204819Y-102126190D02*
X146157200Y-102221428D01*
X146157200Y-102221428D02*
X146109580Y-102269047D01*
X146109580Y-102269047D02*
X146014342Y-102316666D01*
X146014342Y-102316666D02*
X145823866Y-102364285D01*
X145823866Y-102364285D02*
X145585771Y-102364285D01*
X145585771Y-102364285D02*
X145395295Y-102316666D01*
X145395295Y-102316666D02*
X145300057Y-102269047D01*
X145300057Y-102269047D02*
X145252438Y-102221428D01*
X145252438Y-102221428D02*
X145204819Y-102126190D01*
X145538152Y-100935714D02*
X146204819Y-100935714D01*
X145538152Y-101364285D02*
X146061961Y-101364285D01*
X146061961Y-101364285D02*
X146157200Y-101316666D01*
X146157200Y-101316666D02*
X146204819Y-101221428D01*
X146204819Y-101221428D02*
X146204819Y-101078571D01*
X146204819Y-101078571D02*
X146157200Y-100983333D01*
X146157200Y-100983333D02*
X146109580Y-100935714D01*
X145681009Y-100126190D02*
X145681009Y-100459523D01*
X146204819Y-100459523D02*
X145204819Y-100459523D01*
X145204819Y-100459523D02*
X145204819Y-99983333D01*
X141759580Y-102316666D02*
X141807200Y-102364285D01*
X141807200Y-102364285D02*
X141854819Y-102507142D01*
X141854819Y-102507142D02*
X141854819Y-102602380D01*
X141854819Y-102602380D02*
X141807200Y-102745237D01*
X141807200Y-102745237D02*
X141711961Y-102840475D01*
X141711961Y-102840475D02*
X141616723Y-102888094D01*
X141616723Y-102888094D02*
X141426247Y-102935713D01*
X141426247Y-102935713D02*
X141283390Y-102935713D01*
X141283390Y-102935713D02*
X141092914Y-102888094D01*
X141092914Y-102888094D02*
X140997676Y-102840475D01*
X140997676Y-102840475D02*
X140902438Y-102745237D01*
X140902438Y-102745237D02*
X140854819Y-102602380D01*
X140854819Y-102602380D02*
X140854819Y-102507142D01*
X140854819Y-102507142D02*
X140902438Y-102364285D01*
X140902438Y-102364285D02*
X140950057Y-102316666D01*
X140950057Y-101935713D02*
X140902438Y-101888094D01*
X140902438Y-101888094D02*
X140854819Y-101792856D01*
X140854819Y-101792856D02*
X140854819Y-101554761D01*
X140854819Y-101554761D02*
X140902438Y-101459523D01*
X140902438Y-101459523D02*
X140950057Y-101411904D01*
X140950057Y-101411904D02*
X141045295Y-101364285D01*
X141045295Y-101364285D02*
X141140533Y-101364285D01*
X141140533Y-101364285D02*
X141283390Y-101411904D01*
X141283390Y-101411904D02*
X141854819Y-101983332D01*
X141854819Y-101983332D02*
X141854819Y-101364285D01*
X152532143Y-101754819D02*
X152627381Y-101754819D01*
X152627381Y-101754819D02*
X152722619Y-101802438D01*
X152722619Y-101802438D02*
X152770238Y-101850057D01*
X152770238Y-101850057D02*
X152817857Y-101945295D01*
X152817857Y-101945295D02*
X152865476Y-102135771D01*
X152865476Y-102135771D02*
X152865476Y-102373866D01*
X152865476Y-102373866D02*
X152817857Y-102564342D01*
X152817857Y-102564342D02*
X152770238Y-102659580D01*
X152770238Y-102659580D02*
X152722619Y-102707200D01*
X152722619Y-102707200D02*
X152627381Y-102754819D01*
X152627381Y-102754819D02*
X152532143Y-102754819D01*
X152532143Y-102754819D02*
X152436905Y-102707200D01*
X152436905Y-102707200D02*
X152389286Y-102659580D01*
X152389286Y-102659580D02*
X152341667Y-102564342D01*
X152341667Y-102564342D02*
X152294048Y-102373866D01*
X152294048Y-102373866D02*
X152294048Y-102135771D01*
X152294048Y-102135771D02*
X152341667Y-101945295D01*
X152341667Y-101945295D02*
X152389286Y-101850057D01*
X152389286Y-101850057D02*
X152436905Y-101802438D01*
X152436905Y-101802438D02*
X152532143Y-101754819D01*
X153294048Y-102659580D02*
X153341667Y-102707200D01*
X153341667Y-102707200D02*
X153294048Y-102754819D01*
X153294048Y-102754819D02*
X153246429Y-102707200D01*
X153246429Y-102707200D02*
X153294048Y-102659580D01*
X153294048Y-102659580D02*
X153294048Y-102754819D01*
X154294047Y-102754819D02*
X153722619Y-102754819D01*
X154008333Y-102754819D02*
X154008333Y-101754819D01*
X154008333Y-101754819D02*
X153913095Y-101897676D01*
X153913095Y-101897676D02*
X153817857Y-101992914D01*
X153817857Y-101992914D02*
X153722619Y-102040533D01*
X155151190Y-102088152D02*
X155151190Y-102754819D01*
X154722619Y-102088152D02*
X154722619Y-102611961D01*
X154722619Y-102611961D02*
X154770238Y-102707200D01*
X154770238Y-102707200D02*
X154865476Y-102754819D01*
X154865476Y-102754819D02*
X155008333Y-102754819D01*
X155008333Y-102754819D02*
X155103571Y-102707200D01*
X155103571Y-102707200D02*
X155151190Y-102659580D01*
X155960714Y-102231009D02*
X155627381Y-102231009D01*
X155627381Y-102754819D02*
X155627381Y-101754819D01*
X155627381Y-101754819D02*
X156103571Y-101754819D01*
D11*
X154091666Y-100829530D02*
X154067857Y-100853340D01*
X154067857Y-100853340D02*
X153996428Y-100877149D01*
X153996428Y-100877149D02*
X153948809Y-100877149D01*
X153948809Y-100877149D02*
X153877381Y-100853340D01*
X153877381Y-100853340D02*
X153829762Y-100805720D01*
X153829762Y-100805720D02*
X153805952Y-100758101D01*
X153805952Y-100758101D02*
X153782143Y-100662863D01*
X153782143Y-100662863D02*
X153782143Y-100591435D01*
X153782143Y-100591435D02*
X153805952Y-100496197D01*
X153805952Y-100496197D02*
X153829762Y-100448578D01*
X153829762Y-100448578D02*
X153877381Y-100400959D01*
X153877381Y-100400959D02*
X153948809Y-100377149D01*
X153948809Y-100377149D02*
X153996428Y-100377149D01*
X153996428Y-100377149D02*
X154067857Y-100400959D01*
X154067857Y-100400959D02*
X154091666Y-100424768D01*
X154544047Y-100377149D02*
X154305952Y-100377149D01*
X154305952Y-100377149D02*
X154282143Y-100615244D01*
X154282143Y-100615244D02*
X154305952Y-100591435D01*
X154305952Y-100591435D02*
X154353571Y-100567625D01*
X154353571Y-100567625D02*
X154472619Y-100567625D01*
X154472619Y-100567625D02*
X154520238Y-100591435D01*
X154520238Y-100591435D02*
X154544047Y-100615244D01*
X154544047Y-100615244D02*
X154567857Y-100662863D01*
X154567857Y-100662863D02*
X154567857Y-100781911D01*
X154567857Y-100781911D02*
X154544047Y-100829530D01*
X154544047Y-100829530D02*
X154520238Y-100853340D01*
X154520238Y-100853340D02*
X154472619Y-100877149D01*
X154472619Y-100877149D02*
X154353571Y-100877149D01*
X154353571Y-100877149D02*
X154305952Y-100853340D01*
X154305952Y-100853340D02*
X154282143Y-100829530D01*
D10*
X126421571Y-108814819D02*
X125850143Y-108814819D01*
X126135857Y-108814819D02*
X126135857Y-107814819D01*
X126135857Y-107814819D02*
X126040619Y-107957676D01*
X126040619Y-107957676D02*
X125945381Y-108052914D01*
X125945381Y-108052914D02*
X125850143Y-108100533D01*
X127040619Y-107814819D02*
X127135857Y-107814819D01*
X127135857Y-107814819D02*
X127231095Y-107862438D01*
X127231095Y-107862438D02*
X127278714Y-107910057D01*
X127278714Y-107910057D02*
X127326333Y-108005295D01*
X127326333Y-108005295D02*
X127373952Y-108195771D01*
X127373952Y-108195771D02*
X127373952Y-108433866D01*
X127373952Y-108433866D02*
X127326333Y-108624342D01*
X127326333Y-108624342D02*
X127278714Y-108719580D01*
X127278714Y-108719580D02*
X127231095Y-108767200D01*
X127231095Y-108767200D02*
X127135857Y-108814819D01*
X127135857Y-108814819D02*
X127040619Y-108814819D01*
X127040619Y-108814819D02*
X126945381Y-108767200D01*
X126945381Y-108767200D02*
X126897762Y-108719580D01*
X126897762Y-108719580D02*
X126850143Y-108624342D01*
X126850143Y-108624342D02*
X126802524Y-108433866D01*
X126802524Y-108433866D02*
X126802524Y-108195771D01*
X126802524Y-108195771D02*
X126850143Y-108005295D01*
X126850143Y-108005295D02*
X126897762Y-107910057D01*
X126897762Y-107910057D02*
X126945381Y-107862438D01*
X126945381Y-107862438D02*
X127040619Y-107814819D01*
X128231095Y-108148152D02*
X128231095Y-108814819D01*
X127802524Y-108148152D02*
X127802524Y-108671961D01*
X127802524Y-108671961D02*
X127850143Y-108767200D01*
X127850143Y-108767200D02*
X127945381Y-108814819D01*
X127945381Y-108814819D02*
X128088238Y-108814819D01*
X128088238Y-108814819D02*
X128183476Y-108767200D01*
X128183476Y-108767200D02*
X128231095Y-108719580D01*
X129040619Y-108291009D02*
X128707286Y-108291009D01*
X128707286Y-108814819D02*
X128707286Y-107814819D01*
X128707286Y-107814819D02*
X129183476Y-107814819D01*
D11*
X127409666Y-110189530D02*
X127385857Y-110213340D01*
X127385857Y-110213340D02*
X127314428Y-110237149D01*
X127314428Y-110237149D02*
X127266809Y-110237149D01*
X127266809Y-110237149D02*
X127195381Y-110213340D01*
X127195381Y-110213340D02*
X127147762Y-110165720D01*
X127147762Y-110165720D02*
X127123952Y-110118101D01*
X127123952Y-110118101D02*
X127100143Y-110022863D01*
X127100143Y-110022863D02*
X127100143Y-109951435D01*
X127100143Y-109951435D02*
X127123952Y-109856197D01*
X127123952Y-109856197D02*
X127147762Y-109808578D01*
X127147762Y-109808578D02*
X127195381Y-109760959D01*
X127195381Y-109760959D02*
X127266809Y-109737149D01*
X127266809Y-109737149D02*
X127314428Y-109737149D01*
X127314428Y-109737149D02*
X127385857Y-109760959D01*
X127385857Y-109760959D02*
X127409666Y-109784768D01*
X127838238Y-109737149D02*
X127743000Y-109737149D01*
X127743000Y-109737149D02*
X127695381Y-109760959D01*
X127695381Y-109760959D02*
X127671571Y-109784768D01*
X127671571Y-109784768D02*
X127623952Y-109856197D01*
X127623952Y-109856197D02*
X127600143Y-109951435D01*
X127600143Y-109951435D02*
X127600143Y-110141911D01*
X127600143Y-110141911D02*
X127623952Y-110189530D01*
X127623952Y-110189530D02*
X127647762Y-110213340D01*
X127647762Y-110213340D02*
X127695381Y-110237149D01*
X127695381Y-110237149D02*
X127790619Y-110237149D01*
X127790619Y-110237149D02*
X127838238Y-110213340D01*
X127838238Y-110213340D02*
X127862047Y-110189530D01*
X127862047Y-110189530D02*
X127885857Y-110141911D01*
X127885857Y-110141911D02*
X127885857Y-110022863D01*
X127885857Y-110022863D02*
X127862047Y-109975244D01*
X127862047Y-109975244D02*
X127838238Y-109951435D01*
X127838238Y-109951435D02*
X127790619Y-109927625D01*
X127790619Y-109927625D02*
X127695381Y-109927625D01*
X127695381Y-109927625D02*
X127647762Y-109951435D01*
X127647762Y-109951435D02*
X127623952Y-109975244D01*
X127623952Y-109975244D02*
X127600143Y-110022863D01*
D10*
X128140819Y-101449428D02*
X128140819Y-102020856D01*
X128140819Y-101735142D02*
X127140819Y-101735142D01*
X127140819Y-101735142D02*
X127283676Y-101830380D01*
X127283676Y-101830380D02*
X127378914Y-101925618D01*
X127378914Y-101925618D02*
X127426533Y-102020856D01*
X127140819Y-100830380D02*
X127140819Y-100735142D01*
X127140819Y-100735142D02*
X127188438Y-100639904D01*
X127188438Y-100639904D02*
X127236057Y-100592285D01*
X127236057Y-100592285D02*
X127331295Y-100544666D01*
X127331295Y-100544666D02*
X127521771Y-100497047D01*
X127521771Y-100497047D02*
X127759866Y-100497047D01*
X127759866Y-100497047D02*
X127950342Y-100544666D01*
X127950342Y-100544666D02*
X128045580Y-100592285D01*
X128045580Y-100592285D02*
X128093200Y-100639904D01*
X128093200Y-100639904D02*
X128140819Y-100735142D01*
X128140819Y-100735142D02*
X128140819Y-100830380D01*
X128140819Y-100830380D02*
X128093200Y-100925618D01*
X128093200Y-100925618D02*
X128045580Y-100973237D01*
X128045580Y-100973237D02*
X127950342Y-101020856D01*
X127950342Y-101020856D02*
X127759866Y-101068475D01*
X127759866Y-101068475D02*
X127521771Y-101068475D01*
X127521771Y-101068475D02*
X127331295Y-101020856D01*
X127331295Y-101020856D02*
X127236057Y-100973237D01*
X127236057Y-100973237D02*
X127188438Y-100925618D01*
X127188438Y-100925618D02*
X127140819Y-100830380D01*
X127474152Y-99639904D02*
X128140819Y-99639904D01*
X127474152Y-100068475D02*
X127997961Y-100068475D01*
X127997961Y-100068475D02*
X128093200Y-100020856D01*
X128093200Y-100020856D02*
X128140819Y-99925618D01*
X128140819Y-99925618D02*
X128140819Y-99782761D01*
X128140819Y-99782761D02*
X128093200Y-99687523D01*
X128093200Y-99687523D02*
X128045580Y-99639904D01*
X127617009Y-98830380D02*
X127617009Y-99163713D01*
X128140819Y-99163713D02*
X127140819Y-99163713D01*
X127140819Y-99163713D02*
X127140819Y-98687523D01*
D11*
X129515530Y-100461333D02*
X129539340Y-100485142D01*
X129539340Y-100485142D02*
X129563149Y-100556571D01*
X129563149Y-100556571D02*
X129563149Y-100604190D01*
X129563149Y-100604190D02*
X129539340Y-100675618D01*
X129539340Y-100675618D02*
X129491720Y-100723237D01*
X129491720Y-100723237D02*
X129444101Y-100747047D01*
X129444101Y-100747047D02*
X129348863Y-100770856D01*
X129348863Y-100770856D02*
X129277435Y-100770856D01*
X129277435Y-100770856D02*
X129182197Y-100747047D01*
X129182197Y-100747047D02*
X129134578Y-100723237D01*
X129134578Y-100723237D02*
X129086959Y-100675618D01*
X129086959Y-100675618D02*
X129063149Y-100604190D01*
X129063149Y-100604190D02*
X129063149Y-100556571D01*
X129063149Y-100556571D02*
X129086959Y-100485142D01*
X129086959Y-100485142D02*
X129110768Y-100461333D01*
X129063149Y-100294666D02*
X129063149Y-99961333D01*
X129063149Y-99961333D02*
X129563149Y-100175618D01*
D10*
X121754762Y-123431009D02*
X121421429Y-123431009D01*
X121421429Y-123954819D02*
X121421429Y-122954819D01*
X121421429Y-122954819D02*
X121897619Y-122954819D01*
X122278572Y-123954819D02*
X122278572Y-122954819D01*
X122278572Y-122954819D02*
X122611905Y-123669104D01*
X122611905Y-123669104D02*
X122945238Y-122954819D01*
X122945238Y-122954819D02*
X122945238Y-123954819D01*
X123850000Y-123288152D02*
X123850000Y-123954819D01*
X123611905Y-122907200D02*
X123373810Y-123621485D01*
X123373810Y-123621485D02*
X123992857Y-123621485D01*
X124564286Y-122954819D02*
X124659524Y-122954819D01*
X124659524Y-122954819D02*
X124754762Y-123002438D01*
X124754762Y-123002438D02*
X124802381Y-123050057D01*
X124802381Y-123050057D02*
X124850000Y-123145295D01*
X124850000Y-123145295D02*
X124897619Y-123335771D01*
X124897619Y-123335771D02*
X124897619Y-123573866D01*
X124897619Y-123573866D02*
X124850000Y-123764342D01*
X124850000Y-123764342D02*
X124802381Y-123859580D01*
X124802381Y-123859580D02*
X124754762Y-123907200D01*
X124754762Y-123907200D02*
X124659524Y-123954819D01*
X124659524Y-123954819D02*
X124564286Y-123954819D01*
X124564286Y-123954819D02*
X124469048Y-123907200D01*
X124469048Y-123907200D02*
X124421429Y-123859580D01*
X124421429Y-123859580D02*
X124373810Y-123764342D01*
X124373810Y-123764342D02*
X124326191Y-123573866D01*
X124326191Y-123573866D02*
X124326191Y-123335771D01*
X124326191Y-123335771D02*
X124373810Y-123145295D01*
X124373810Y-123145295D02*
X124421429Y-123050057D01*
X124421429Y-123050057D02*
X124469048Y-123002438D01*
X124469048Y-123002438D02*
X124564286Y-122954819D01*
X125516667Y-122954819D02*
X125611905Y-122954819D01*
X125611905Y-122954819D02*
X125707143Y-123002438D01*
X125707143Y-123002438D02*
X125754762Y-123050057D01*
X125754762Y-123050057D02*
X125802381Y-123145295D01*
X125802381Y-123145295D02*
X125850000Y-123335771D01*
X125850000Y-123335771D02*
X125850000Y-123573866D01*
X125850000Y-123573866D02*
X125802381Y-123764342D01*
X125802381Y-123764342D02*
X125754762Y-123859580D01*
X125754762Y-123859580D02*
X125707143Y-123907200D01*
X125707143Y-123907200D02*
X125611905Y-123954819D01*
X125611905Y-123954819D02*
X125516667Y-123954819D01*
X125516667Y-123954819D02*
X125421429Y-123907200D01*
X125421429Y-123907200D02*
X125373810Y-123859580D01*
X125373810Y-123859580D02*
X125326191Y-123764342D01*
X125326191Y-123764342D02*
X125278572Y-123573866D01*
X125278572Y-123573866D02*
X125278572Y-123335771D01*
X125278572Y-123335771D02*
X125326191Y-123145295D01*
X125326191Y-123145295D02*
X125373810Y-123050057D01*
X125373810Y-123050057D02*
X125421429Y-123002438D01*
X125421429Y-123002438D02*
X125516667Y-122954819D01*
X126183334Y-122954819D02*
X126850000Y-122954819D01*
X126850000Y-122954819D02*
X126421429Y-123954819D01*
X127135715Y-122954819D02*
X127373810Y-123954819D01*
X127373810Y-123954819D02*
X127564286Y-123240533D01*
X127564286Y-123240533D02*
X127754762Y-123954819D01*
X127754762Y-123954819D02*
X127992858Y-122954819D01*
X128373810Y-123573866D02*
X129135715Y-123573866D01*
X129516667Y-122954819D02*
X129754762Y-123954819D01*
X129754762Y-123954819D02*
X129945238Y-123240533D01*
X129945238Y-123240533D02*
X130135714Y-123954819D01*
X130135714Y-123954819D02*
X130373810Y-122954819D01*
X137804762Y-123531009D02*
X137471429Y-123531009D01*
X137471429Y-124054819D02*
X137471429Y-123054819D01*
X137471429Y-123054819D02*
X137947619Y-123054819D01*
X138328572Y-124054819D02*
X138328572Y-123054819D01*
X138328572Y-123054819D02*
X138661905Y-123769104D01*
X138661905Y-123769104D02*
X138995238Y-123054819D01*
X138995238Y-123054819D02*
X138995238Y-124054819D01*
X139900000Y-123388152D02*
X139900000Y-124054819D01*
X139661905Y-123007200D02*
X139423810Y-123721485D01*
X139423810Y-123721485D02*
X140042857Y-123721485D01*
X140614286Y-123054819D02*
X140709524Y-123054819D01*
X140709524Y-123054819D02*
X140804762Y-123102438D01*
X140804762Y-123102438D02*
X140852381Y-123150057D01*
X140852381Y-123150057D02*
X140900000Y-123245295D01*
X140900000Y-123245295D02*
X140947619Y-123435771D01*
X140947619Y-123435771D02*
X140947619Y-123673866D01*
X140947619Y-123673866D02*
X140900000Y-123864342D01*
X140900000Y-123864342D02*
X140852381Y-123959580D01*
X140852381Y-123959580D02*
X140804762Y-124007200D01*
X140804762Y-124007200D02*
X140709524Y-124054819D01*
X140709524Y-124054819D02*
X140614286Y-124054819D01*
X140614286Y-124054819D02*
X140519048Y-124007200D01*
X140519048Y-124007200D02*
X140471429Y-123959580D01*
X140471429Y-123959580D02*
X140423810Y-123864342D01*
X140423810Y-123864342D02*
X140376191Y-123673866D01*
X140376191Y-123673866D02*
X140376191Y-123435771D01*
X140376191Y-123435771D02*
X140423810Y-123245295D01*
X140423810Y-123245295D02*
X140471429Y-123150057D01*
X140471429Y-123150057D02*
X140519048Y-123102438D01*
X140519048Y-123102438D02*
X140614286Y-123054819D01*
X141566667Y-123054819D02*
X141661905Y-123054819D01*
X141661905Y-123054819D02*
X141757143Y-123102438D01*
X141757143Y-123102438D02*
X141804762Y-123150057D01*
X141804762Y-123150057D02*
X141852381Y-123245295D01*
X141852381Y-123245295D02*
X141900000Y-123435771D01*
X141900000Y-123435771D02*
X141900000Y-123673866D01*
X141900000Y-123673866D02*
X141852381Y-123864342D01*
X141852381Y-123864342D02*
X141804762Y-123959580D01*
X141804762Y-123959580D02*
X141757143Y-124007200D01*
X141757143Y-124007200D02*
X141661905Y-124054819D01*
X141661905Y-124054819D02*
X141566667Y-124054819D01*
X141566667Y-124054819D02*
X141471429Y-124007200D01*
X141471429Y-124007200D02*
X141423810Y-123959580D01*
X141423810Y-123959580D02*
X141376191Y-123864342D01*
X141376191Y-123864342D02*
X141328572Y-123673866D01*
X141328572Y-123673866D02*
X141328572Y-123435771D01*
X141328572Y-123435771D02*
X141376191Y-123245295D01*
X141376191Y-123245295D02*
X141423810Y-123150057D01*
X141423810Y-123150057D02*
X141471429Y-123102438D01*
X141471429Y-123102438D02*
X141566667Y-123054819D01*
X142233334Y-123054819D02*
X142900000Y-123054819D01*
X142900000Y-123054819D02*
X142471429Y-124054819D01*
X143185715Y-123054819D02*
X143423810Y-124054819D01*
X143423810Y-124054819D02*
X143614286Y-123340533D01*
X143614286Y-123340533D02*
X143804762Y-124054819D01*
X143804762Y-124054819D02*
X144042858Y-123054819D01*
X144423810Y-123673866D02*
X145185715Y-123673866D01*
X145566667Y-123054819D02*
X145804762Y-124054819D01*
X145804762Y-124054819D02*
X145995238Y-123340533D01*
X145995238Y-123340533D02*
X146185714Y-124054819D01*
X146185714Y-124054819D02*
X146423810Y-123054819D01*
X153854762Y-123531009D02*
X153521429Y-123531009D01*
X153521429Y-124054819D02*
X153521429Y-123054819D01*
X153521429Y-123054819D02*
X153997619Y-123054819D01*
X154378572Y-124054819D02*
X154378572Y-123054819D01*
X154378572Y-123054819D02*
X154711905Y-123769104D01*
X154711905Y-123769104D02*
X155045238Y-123054819D01*
X155045238Y-123054819D02*
X155045238Y-124054819D01*
X155950000Y-123388152D02*
X155950000Y-124054819D01*
X155711905Y-123007200D02*
X155473810Y-123721485D01*
X155473810Y-123721485D02*
X156092857Y-123721485D01*
X156664286Y-123054819D02*
X156759524Y-123054819D01*
X156759524Y-123054819D02*
X156854762Y-123102438D01*
X156854762Y-123102438D02*
X156902381Y-123150057D01*
X156902381Y-123150057D02*
X156950000Y-123245295D01*
X156950000Y-123245295D02*
X156997619Y-123435771D01*
X156997619Y-123435771D02*
X156997619Y-123673866D01*
X156997619Y-123673866D02*
X156950000Y-123864342D01*
X156950000Y-123864342D02*
X156902381Y-123959580D01*
X156902381Y-123959580D02*
X156854762Y-124007200D01*
X156854762Y-124007200D02*
X156759524Y-124054819D01*
X156759524Y-124054819D02*
X156664286Y-124054819D01*
X156664286Y-124054819D02*
X156569048Y-124007200D01*
X156569048Y-124007200D02*
X156521429Y-123959580D01*
X156521429Y-123959580D02*
X156473810Y-123864342D01*
X156473810Y-123864342D02*
X156426191Y-123673866D01*
X156426191Y-123673866D02*
X156426191Y-123435771D01*
X156426191Y-123435771D02*
X156473810Y-123245295D01*
X156473810Y-123245295D02*
X156521429Y-123150057D01*
X156521429Y-123150057D02*
X156569048Y-123102438D01*
X156569048Y-123102438D02*
X156664286Y-123054819D01*
X157616667Y-123054819D02*
X157711905Y-123054819D01*
X157711905Y-123054819D02*
X157807143Y-123102438D01*
X157807143Y-123102438D02*
X157854762Y-123150057D01*
X157854762Y-123150057D02*
X157902381Y-123245295D01*
X157902381Y-123245295D02*
X157950000Y-123435771D01*
X157950000Y-123435771D02*
X157950000Y-123673866D01*
X157950000Y-123673866D02*
X157902381Y-123864342D01*
X157902381Y-123864342D02*
X157854762Y-123959580D01*
X157854762Y-123959580D02*
X157807143Y-124007200D01*
X157807143Y-124007200D02*
X157711905Y-124054819D01*
X157711905Y-124054819D02*
X157616667Y-124054819D01*
X157616667Y-124054819D02*
X157521429Y-124007200D01*
X157521429Y-124007200D02*
X157473810Y-123959580D01*
X157473810Y-123959580D02*
X157426191Y-123864342D01*
X157426191Y-123864342D02*
X157378572Y-123673866D01*
X157378572Y-123673866D02*
X157378572Y-123435771D01*
X157378572Y-123435771D02*
X157426191Y-123245295D01*
X157426191Y-123245295D02*
X157473810Y-123150057D01*
X157473810Y-123150057D02*
X157521429Y-123102438D01*
X157521429Y-123102438D02*
X157616667Y-123054819D01*
X158283334Y-123054819D02*
X158950000Y-123054819D01*
X158950000Y-123054819D02*
X158521429Y-124054819D01*
X159235715Y-123054819D02*
X159473810Y-124054819D01*
X159473810Y-124054819D02*
X159664286Y-123340533D01*
X159664286Y-123340533D02*
X159854762Y-124054819D01*
X159854762Y-124054819D02*
X160092858Y-123054819D01*
X160473810Y-123673866D02*
X161235715Y-123673866D01*
X161616667Y-123054819D02*
X161854762Y-124054819D01*
X161854762Y-124054819D02*
X162045238Y-123340533D01*
X162045238Y-123340533D02*
X162235714Y-124054819D01*
X162235714Y-124054819D02*
X162473810Y-123054819D01*
X164306009Y-94595237D02*
X164306009Y-94928570D01*
X164829819Y-94928570D02*
X163829819Y-94928570D01*
X163829819Y-94928570D02*
X163829819Y-94452380D01*
X164829819Y-94071427D02*
X163829819Y-94071427D01*
X163829819Y-94071427D02*
X164544104Y-93738094D01*
X164544104Y-93738094D02*
X163829819Y-93404761D01*
X163829819Y-93404761D02*
X164829819Y-93404761D01*
X164163152Y-92499999D02*
X164829819Y-92499999D01*
X163782200Y-92738094D02*
X164496485Y-92976189D01*
X164496485Y-92976189D02*
X164496485Y-92357142D01*
X163829819Y-91785713D02*
X163829819Y-91690475D01*
X163829819Y-91690475D02*
X163877438Y-91595237D01*
X163877438Y-91595237D02*
X163925057Y-91547618D01*
X163925057Y-91547618D02*
X164020295Y-91499999D01*
X164020295Y-91499999D02*
X164210771Y-91452380D01*
X164210771Y-91452380D02*
X164448866Y-91452380D01*
X164448866Y-91452380D02*
X164639342Y-91499999D01*
X164639342Y-91499999D02*
X164734580Y-91547618D01*
X164734580Y-91547618D02*
X164782200Y-91595237D01*
X164782200Y-91595237D02*
X164829819Y-91690475D01*
X164829819Y-91690475D02*
X164829819Y-91785713D01*
X164829819Y-91785713D02*
X164782200Y-91880951D01*
X164782200Y-91880951D02*
X164734580Y-91928570D01*
X164734580Y-91928570D02*
X164639342Y-91976189D01*
X164639342Y-91976189D02*
X164448866Y-92023808D01*
X164448866Y-92023808D02*
X164210771Y-92023808D01*
X164210771Y-92023808D02*
X164020295Y-91976189D01*
X164020295Y-91976189D02*
X163925057Y-91928570D01*
X163925057Y-91928570D02*
X163877438Y-91880951D01*
X163877438Y-91880951D02*
X163829819Y-91785713D01*
X163829819Y-90833332D02*
X163829819Y-90738094D01*
X163829819Y-90738094D02*
X163877438Y-90642856D01*
X163877438Y-90642856D02*
X163925057Y-90595237D01*
X163925057Y-90595237D02*
X164020295Y-90547618D01*
X164020295Y-90547618D02*
X164210771Y-90499999D01*
X164210771Y-90499999D02*
X164448866Y-90499999D01*
X164448866Y-90499999D02*
X164639342Y-90547618D01*
X164639342Y-90547618D02*
X164734580Y-90595237D01*
X164734580Y-90595237D02*
X164782200Y-90642856D01*
X164782200Y-90642856D02*
X164829819Y-90738094D01*
X164829819Y-90738094D02*
X164829819Y-90833332D01*
X164829819Y-90833332D02*
X164782200Y-90928570D01*
X164782200Y-90928570D02*
X164734580Y-90976189D01*
X164734580Y-90976189D02*
X164639342Y-91023808D01*
X164639342Y-91023808D02*
X164448866Y-91071427D01*
X164448866Y-91071427D02*
X164210771Y-91071427D01*
X164210771Y-91071427D02*
X164020295Y-91023808D01*
X164020295Y-91023808D02*
X163925057Y-90976189D01*
X163925057Y-90976189D02*
X163877438Y-90928570D01*
X163877438Y-90928570D02*
X163829819Y-90833332D01*
X163829819Y-90166665D02*
X163829819Y-89499999D01*
X163829819Y-89499999D02*
X164829819Y-89928570D01*
X163829819Y-89214284D02*
X164829819Y-88976189D01*
X164829819Y-88976189D02*
X164115533Y-88785713D01*
X164115533Y-88785713D02*
X164829819Y-88595237D01*
X164829819Y-88595237D02*
X163829819Y-88357142D01*
X164448866Y-87976189D02*
X164448866Y-87214285D01*
X163829819Y-86833332D02*
X164829819Y-86595237D01*
X164829819Y-86595237D02*
X164115533Y-86404761D01*
X164115533Y-86404761D02*
X164829819Y-86214285D01*
X164829819Y-86214285D02*
X163829819Y-85976190D01*
X160729819Y-91238094D02*
X159729819Y-91238094D01*
X159729819Y-91238094D02*
X159729819Y-90999999D01*
X159729819Y-90999999D02*
X159777438Y-90857142D01*
X159777438Y-90857142D02*
X159872676Y-90761904D01*
X159872676Y-90761904D02*
X159967914Y-90714285D01*
X159967914Y-90714285D02*
X160158390Y-90666666D01*
X160158390Y-90666666D02*
X160301247Y-90666666D01*
X160301247Y-90666666D02*
X160491723Y-90714285D01*
X160491723Y-90714285D02*
X160586961Y-90761904D01*
X160586961Y-90761904D02*
X160682200Y-90857142D01*
X160682200Y-90857142D02*
X160729819Y-90999999D01*
X160729819Y-90999999D02*
X160729819Y-91238094D01*
X160063152Y-89809523D02*
X160729819Y-89809523D01*
X159682200Y-90047618D02*
X160396485Y-90285713D01*
X160396485Y-90285713D02*
X160396485Y-89666666D01*
X134374819Y-103683904D02*
X133374819Y-103683904D01*
X133374819Y-103683904D02*
X134089104Y-103350571D01*
X134089104Y-103350571D02*
X133374819Y-103017238D01*
X133374819Y-103017238D02*
X134374819Y-103017238D01*
X133851009Y-102207714D02*
X133898628Y-102064857D01*
X133898628Y-102064857D02*
X133946247Y-102017238D01*
X133946247Y-102017238D02*
X134041485Y-101969619D01*
X134041485Y-101969619D02*
X134184342Y-101969619D01*
X134184342Y-101969619D02*
X134279580Y-102017238D01*
X134279580Y-102017238D02*
X134327200Y-102064857D01*
X134327200Y-102064857D02*
X134374819Y-102160095D01*
X134374819Y-102160095D02*
X134374819Y-102541047D01*
X134374819Y-102541047D02*
X133374819Y-102541047D01*
X133374819Y-102541047D02*
X133374819Y-102207714D01*
X133374819Y-102207714D02*
X133422438Y-102112476D01*
X133422438Y-102112476D02*
X133470057Y-102064857D01*
X133470057Y-102064857D02*
X133565295Y-102017238D01*
X133565295Y-102017238D02*
X133660533Y-102017238D01*
X133660533Y-102017238D02*
X133755771Y-102064857D01*
X133755771Y-102064857D02*
X133803390Y-102112476D01*
X133803390Y-102112476D02*
X133851009Y-102207714D01*
X133851009Y-102207714D02*
X133851009Y-102541047D01*
X134374819Y-100969619D02*
X133898628Y-101302952D01*
X134374819Y-101541047D02*
X133374819Y-101541047D01*
X133374819Y-101541047D02*
X133374819Y-101160095D01*
X133374819Y-101160095D02*
X133422438Y-101064857D01*
X133422438Y-101064857D02*
X133470057Y-101017238D01*
X133470057Y-101017238D02*
X133565295Y-100969619D01*
X133565295Y-100969619D02*
X133708152Y-100969619D01*
X133708152Y-100969619D02*
X133803390Y-101017238D01*
X133803390Y-101017238D02*
X133851009Y-101064857D01*
X133851009Y-101064857D02*
X133898628Y-101160095D01*
X133898628Y-101160095D02*
X133898628Y-101541047D01*
X134374819Y-100017238D02*
X134374819Y-100588666D01*
X134374819Y-100302952D02*
X133374819Y-100302952D01*
X133374819Y-100302952D02*
X133517676Y-100398190D01*
X133517676Y-100398190D02*
X133612914Y-100493428D01*
X133612914Y-100493428D02*
X133660533Y-100588666D01*
X133470057Y-99636285D02*
X133422438Y-99588666D01*
X133422438Y-99588666D02*
X133374819Y-99493428D01*
X133374819Y-99493428D02*
X133374819Y-99255333D01*
X133374819Y-99255333D02*
X133422438Y-99160095D01*
X133422438Y-99160095D02*
X133470057Y-99112476D01*
X133470057Y-99112476D02*
X133565295Y-99064857D01*
X133565295Y-99064857D02*
X133660533Y-99064857D01*
X133660533Y-99064857D02*
X133803390Y-99112476D01*
X133803390Y-99112476D02*
X134374819Y-99683904D01*
X134374819Y-99683904D02*
X134374819Y-99064857D01*
X133374819Y-98445809D02*
X133374819Y-98350571D01*
X133374819Y-98350571D02*
X133422438Y-98255333D01*
X133422438Y-98255333D02*
X133470057Y-98207714D01*
X133470057Y-98207714D02*
X133565295Y-98160095D01*
X133565295Y-98160095D02*
X133755771Y-98112476D01*
X133755771Y-98112476D02*
X133993866Y-98112476D01*
X133993866Y-98112476D02*
X134184342Y-98160095D01*
X134184342Y-98160095D02*
X134279580Y-98207714D01*
X134279580Y-98207714D02*
X134327200Y-98255333D01*
X134327200Y-98255333D02*
X134374819Y-98350571D01*
X134374819Y-98350571D02*
X134374819Y-98445809D01*
X134374819Y-98445809D02*
X134327200Y-98541047D01*
X134327200Y-98541047D02*
X134279580Y-98588666D01*
X134279580Y-98588666D02*
X134184342Y-98636285D01*
X134184342Y-98636285D02*
X133993866Y-98683904D01*
X133993866Y-98683904D02*
X133755771Y-98683904D01*
X133755771Y-98683904D02*
X133565295Y-98636285D01*
X133565295Y-98636285D02*
X133470057Y-98588666D01*
X133470057Y-98588666D02*
X133422438Y-98541047D01*
X133422438Y-98541047D02*
X133374819Y-98445809D01*
X130274819Y-101660094D02*
X129274819Y-101660094D01*
X129274819Y-101660094D02*
X129274819Y-101421999D01*
X129274819Y-101421999D02*
X129322438Y-101279142D01*
X129322438Y-101279142D02*
X129417676Y-101183904D01*
X129417676Y-101183904D02*
X129512914Y-101136285D01*
X129512914Y-101136285D02*
X129703390Y-101088666D01*
X129703390Y-101088666D02*
X129846247Y-101088666D01*
X129846247Y-101088666D02*
X130036723Y-101136285D01*
X130036723Y-101136285D02*
X130131961Y-101183904D01*
X130131961Y-101183904D02*
X130227200Y-101279142D01*
X130227200Y-101279142D02*
X130274819Y-101421999D01*
X130274819Y-101421999D02*
X130274819Y-101660094D01*
X129274819Y-100183904D02*
X129274819Y-100660094D01*
X129274819Y-100660094D02*
X129751009Y-100707713D01*
X129751009Y-100707713D02*
X129703390Y-100660094D01*
X129703390Y-100660094D02*
X129655771Y-100564856D01*
X129655771Y-100564856D02*
X129655771Y-100326761D01*
X129655771Y-100326761D02*
X129703390Y-100231523D01*
X129703390Y-100231523D02*
X129751009Y-100183904D01*
X129751009Y-100183904D02*
X129846247Y-100136285D01*
X129846247Y-100136285D02*
X130084342Y-100136285D01*
X130084342Y-100136285D02*
X130179580Y-100183904D01*
X130179580Y-100183904D02*
X130227200Y-100231523D01*
X130227200Y-100231523D02*
X130274819Y-100326761D01*
X130274819Y-100326761D02*
X130274819Y-100564856D01*
X130274819Y-100564856D02*
X130227200Y-100660094D01*
X130227200Y-100660094D02*
X130179580Y-100707713D01*
D11*
X134485149Y-136017047D02*
X133985149Y-136017047D01*
X133985149Y-136017047D02*
X133985149Y-135897999D01*
X133985149Y-135897999D02*
X134008959Y-135826571D01*
X134008959Y-135826571D02*
X134056578Y-135778952D01*
X134056578Y-135778952D02*
X134104197Y-135755142D01*
X134104197Y-135755142D02*
X134199435Y-135731333D01*
X134199435Y-135731333D02*
X134270863Y-135731333D01*
X134270863Y-135731333D02*
X134366101Y-135755142D01*
X134366101Y-135755142D02*
X134413720Y-135778952D01*
X134413720Y-135778952D02*
X134461340Y-135826571D01*
X134461340Y-135826571D02*
X134485149Y-135897999D01*
X134485149Y-135897999D02*
X134485149Y-136017047D01*
X133985149Y-135302761D02*
X133985149Y-135397999D01*
X133985149Y-135397999D02*
X134008959Y-135445618D01*
X134008959Y-135445618D02*
X134032768Y-135469428D01*
X134032768Y-135469428D02*
X134104197Y-135517047D01*
X134104197Y-135517047D02*
X134199435Y-135540856D01*
X134199435Y-135540856D02*
X134389911Y-135540856D01*
X134389911Y-135540856D02*
X134437530Y-135517047D01*
X134437530Y-135517047D02*
X134461340Y-135493237D01*
X134461340Y-135493237D02*
X134485149Y-135445618D01*
X134485149Y-135445618D02*
X134485149Y-135350380D01*
X134485149Y-135350380D02*
X134461340Y-135302761D01*
X134461340Y-135302761D02*
X134437530Y-135278952D01*
X134437530Y-135278952D02*
X134389911Y-135255142D01*
X134389911Y-135255142D02*
X134270863Y-135255142D01*
X134270863Y-135255142D02*
X134223244Y-135278952D01*
X134223244Y-135278952D02*
X134199435Y-135302761D01*
X134199435Y-135302761D02*
X134175625Y-135350380D01*
X134175625Y-135350380D02*
X134175625Y-135445618D01*
X134175625Y-135445618D02*
X134199435Y-135493237D01*
X134199435Y-135493237D02*
X134223244Y-135517047D01*
X134223244Y-135517047D02*
X134270863Y-135540856D01*
X150384149Y-136525047D02*
X149884149Y-136525047D01*
X149884149Y-136525047D02*
X149884149Y-136405999D01*
X149884149Y-136405999D02*
X149907959Y-136334571D01*
X149907959Y-136334571D02*
X149955578Y-136286952D01*
X149955578Y-136286952D02*
X150003197Y-136263142D01*
X150003197Y-136263142D02*
X150098435Y-136239333D01*
X150098435Y-136239333D02*
X150169863Y-136239333D01*
X150169863Y-136239333D02*
X150265101Y-136263142D01*
X150265101Y-136263142D02*
X150312720Y-136286952D01*
X150312720Y-136286952D02*
X150360340Y-136334571D01*
X150360340Y-136334571D02*
X150384149Y-136405999D01*
X150384149Y-136405999D02*
X150384149Y-136525047D01*
X149884149Y-136072666D02*
X149884149Y-135739333D01*
X149884149Y-135739333D02*
X150384149Y-135953618D01*
D10*
X140315238Y-76514819D02*
X140315238Y-75514819D01*
X140791428Y-76514819D02*
X140791428Y-75514819D01*
X140791428Y-75514819D02*
X141362856Y-76514819D01*
X141362856Y-76514819D02*
X141362856Y-75514819D01*
X141839047Y-76514819D02*
X141839047Y-75514819D01*
X141839047Y-75514819D02*
X142219999Y-75514819D01*
X142219999Y-75514819D02*
X142315237Y-75562438D01*
X142315237Y-75562438D02*
X142362856Y-75610057D01*
X142362856Y-75610057D02*
X142410475Y-75705295D01*
X142410475Y-75705295D02*
X142410475Y-75848152D01*
X142410475Y-75848152D02*
X142362856Y-75943390D01*
X142362856Y-75943390D02*
X142315237Y-75991009D01*
X142315237Y-75991009D02*
X142219999Y-76038628D01*
X142219999Y-76038628D02*
X141839047Y-76038628D01*
X142839047Y-75514819D02*
X142839047Y-76324342D01*
X142839047Y-76324342D02*
X142886666Y-76419580D01*
X142886666Y-76419580D02*
X142934285Y-76467200D01*
X142934285Y-76467200D02*
X143029523Y-76514819D01*
X143029523Y-76514819D02*
X143219999Y-76514819D01*
X143219999Y-76514819D02*
X143315237Y-76467200D01*
X143315237Y-76467200D02*
X143362856Y-76419580D01*
X143362856Y-76419580D02*
X143410475Y-76324342D01*
X143410475Y-76324342D02*
X143410475Y-75514819D01*
X143743809Y-75514819D02*
X144315237Y-75514819D01*
X144029523Y-76514819D02*
X144029523Y-75514819D01*
X144600952Y-76467200D02*
X144743809Y-76514819D01*
X144743809Y-76514819D02*
X144981904Y-76514819D01*
X144981904Y-76514819D02*
X145077142Y-76467200D01*
X145077142Y-76467200D02*
X145124761Y-76419580D01*
X145124761Y-76419580D02*
X145172380Y-76324342D01*
X145172380Y-76324342D02*
X145172380Y-76229104D01*
X145172380Y-76229104D02*
X145124761Y-76133866D01*
X145124761Y-76133866D02*
X145077142Y-76086247D01*
X145077142Y-76086247D02*
X144981904Y-76038628D01*
X144981904Y-76038628D02*
X144791428Y-75991009D01*
X144791428Y-75991009D02*
X144696190Y-75943390D01*
X144696190Y-75943390D02*
X144648571Y-75895771D01*
X144648571Y-75895771D02*
X144600952Y-75800533D01*
X144600952Y-75800533D02*
X144600952Y-75705295D01*
X144600952Y-75705295D02*
X144648571Y-75610057D01*
X144648571Y-75610057D02*
X144696190Y-75562438D01*
X144696190Y-75562438D02*
X144791428Y-75514819D01*
X144791428Y-75514819D02*
X145029523Y-75514819D01*
X145029523Y-75514819D02*
X145172380Y-75562438D01*
X142386666Y-73054819D02*
X142386666Y-73769104D01*
X142386666Y-73769104D02*
X142339047Y-73911961D01*
X142339047Y-73911961D02*
X142243809Y-74007200D01*
X142243809Y-74007200D02*
X142100952Y-74054819D01*
X142100952Y-74054819D02*
X142005714Y-74054819D01*
X142815238Y-73150057D02*
X142862857Y-73102438D01*
X142862857Y-73102438D02*
X142958095Y-73054819D01*
X142958095Y-73054819D02*
X143196190Y-73054819D01*
X143196190Y-73054819D02*
X143291428Y-73102438D01*
X143291428Y-73102438D02*
X143339047Y-73150057D01*
X143339047Y-73150057D02*
X143386666Y-73245295D01*
X143386666Y-73245295D02*
X143386666Y-73340533D01*
X143386666Y-73340533D02*
X143339047Y-73483390D01*
X143339047Y-73483390D02*
X142767619Y-74054819D01*
X142767619Y-74054819D02*
X143386666Y-74054819D01*
X139644047Y-151089819D02*
X139834523Y-151089819D01*
X139834523Y-151089819D02*
X139929761Y-151137438D01*
X139929761Y-151137438D02*
X140024999Y-151232676D01*
X140024999Y-151232676D02*
X140072618Y-151423152D01*
X140072618Y-151423152D02*
X140072618Y-151756485D01*
X140072618Y-151756485D02*
X140024999Y-151946961D01*
X140024999Y-151946961D02*
X139929761Y-152042200D01*
X139929761Y-152042200D02*
X139834523Y-152089819D01*
X139834523Y-152089819D02*
X139644047Y-152089819D01*
X139644047Y-152089819D02*
X139548809Y-152042200D01*
X139548809Y-152042200D02*
X139453571Y-151946961D01*
X139453571Y-151946961D02*
X139405952Y-151756485D01*
X139405952Y-151756485D02*
X139405952Y-151423152D01*
X139405952Y-151423152D02*
X139453571Y-151232676D01*
X139453571Y-151232676D02*
X139548809Y-151137438D01*
X139548809Y-151137438D02*
X139644047Y-151089819D01*
X140501190Y-151089819D02*
X140501190Y-151899342D01*
X140501190Y-151899342D02*
X140548809Y-151994580D01*
X140548809Y-151994580D02*
X140596428Y-152042200D01*
X140596428Y-152042200D02*
X140691666Y-152089819D01*
X140691666Y-152089819D02*
X140882142Y-152089819D01*
X140882142Y-152089819D02*
X140977380Y-152042200D01*
X140977380Y-152042200D02*
X141024999Y-151994580D01*
X141024999Y-151994580D02*
X141072618Y-151899342D01*
X141072618Y-151899342D02*
X141072618Y-151089819D01*
X141405952Y-151089819D02*
X141977380Y-151089819D01*
X141691666Y-152089819D02*
X141691666Y-151089819D01*
X142310714Y-152089819D02*
X142310714Y-151089819D01*
X142310714Y-151089819D02*
X142691666Y-151089819D01*
X142691666Y-151089819D02*
X142786904Y-151137438D01*
X142786904Y-151137438D02*
X142834523Y-151185057D01*
X142834523Y-151185057D02*
X142882142Y-151280295D01*
X142882142Y-151280295D02*
X142882142Y-151423152D01*
X142882142Y-151423152D02*
X142834523Y-151518390D01*
X142834523Y-151518390D02*
X142786904Y-151566009D01*
X142786904Y-151566009D02*
X142691666Y-151613628D01*
X142691666Y-151613628D02*
X142310714Y-151613628D01*
X143310714Y-151089819D02*
X143310714Y-151899342D01*
X143310714Y-151899342D02*
X143358333Y-151994580D01*
X143358333Y-151994580D02*
X143405952Y-152042200D01*
X143405952Y-152042200D02*
X143501190Y-152089819D01*
X143501190Y-152089819D02*
X143691666Y-152089819D01*
X143691666Y-152089819D02*
X143786904Y-152042200D01*
X143786904Y-152042200D02*
X143834523Y-151994580D01*
X143834523Y-151994580D02*
X143882142Y-151899342D01*
X143882142Y-151899342D02*
X143882142Y-151089819D01*
X144215476Y-151089819D02*
X144786904Y-151089819D01*
X144501190Y-152089819D02*
X144501190Y-151089819D01*
X145072619Y-152042200D02*
X145215476Y-152089819D01*
X145215476Y-152089819D02*
X145453571Y-152089819D01*
X145453571Y-152089819D02*
X145548809Y-152042200D01*
X145548809Y-152042200D02*
X145596428Y-151994580D01*
X145596428Y-151994580D02*
X145644047Y-151899342D01*
X145644047Y-151899342D02*
X145644047Y-151804104D01*
X145644047Y-151804104D02*
X145596428Y-151708866D01*
X145596428Y-151708866D02*
X145548809Y-151661247D01*
X145548809Y-151661247D02*
X145453571Y-151613628D01*
X145453571Y-151613628D02*
X145263095Y-151566009D01*
X145263095Y-151566009D02*
X145167857Y-151518390D01*
X145167857Y-151518390D02*
X145120238Y-151470771D01*
X145120238Y-151470771D02*
X145072619Y-151375533D01*
X145072619Y-151375533D02*
X145072619Y-151280295D01*
X145072619Y-151280295D02*
X145120238Y-151185057D01*
X145120238Y-151185057D02*
X145167857Y-151137438D01*
X145167857Y-151137438D02*
X145263095Y-151089819D01*
X145263095Y-151089819D02*
X145501190Y-151089819D01*
X145501190Y-151089819D02*
X145644047Y-151137438D01*
X142191666Y-148629819D02*
X142191666Y-149344104D01*
X142191666Y-149344104D02*
X142144047Y-149486961D01*
X142144047Y-149486961D02*
X142048809Y-149582200D01*
X142048809Y-149582200D02*
X141905952Y-149629819D01*
X141905952Y-149629819D02*
X141810714Y-149629819D01*
X142572619Y-148629819D02*
X143191666Y-148629819D01*
X143191666Y-148629819D02*
X142858333Y-149010771D01*
X142858333Y-149010771D02*
X143001190Y-149010771D01*
X143001190Y-149010771D02*
X143096428Y-149058390D01*
X143096428Y-149058390D02*
X143144047Y-149106009D01*
X143144047Y-149106009D02*
X143191666Y-149201247D01*
X143191666Y-149201247D02*
X143191666Y-149439342D01*
X143191666Y-149439342D02*
X143144047Y-149534580D01*
X143144047Y-149534580D02*
X143096428Y-149582200D01*
X143096428Y-149582200D02*
X143001190Y-149629819D01*
X143001190Y-149629819D02*
X142715476Y-149629819D01*
X142715476Y-149629819D02*
X142620238Y-149582200D01*
X142620238Y-149582200D02*
X142572619Y-149534580D01*
X128223200Y-107552190D02*
X128270819Y-107409333D01*
X128270819Y-107409333D02*
X128270819Y-107171238D01*
X128270819Y-107171238D02*
X128223200Y-107076000D01*
X128223200Y-107076000D02*
X128175580Y-107028381D01*
X128175580Y-107028381D02*
X128080342Y-106980762D01*
X128080342Y-106980762D02*
X127985104Y-106980762D01*
X127985104Y-106980762D02*
X127889866Y-107028381D01*
X127889866Y-107028381D02*
X127842247Y-107076000D01*
X127842247Y-107076000D02*
X127794628Y-107171238D01*
X127794628Y-107171238D02*
X127747009Y-107361714D01*
X127747009Y-107361714D02*
X127699390Y-107456952D01*
X127699390Y-107456952D02*
X127651771Y-107504571D01*
X127651771Y-107504571D02*
X127556533Y-107552190D01*
X127556533Y-107552190D02*
X127461295Y-107552190D01*
X127461295Y-107552190D02*
X127366057Y-107504571D01*
X127366057Y-107504571D02*
X127318438Y-107456952D01*
X127318438Y-107456952D02*
X127270819Y-107361714D01*
X127270819Y-107361714D02*
X127270819Y-107123619D01*
X127270819Y-107123619D02*
X127318438Y-106980762D01*
X128223200Y-106171238D02*
X128270819Y-106266476D01*
X128270819Y-106266476D02*
X128270819Y-106456952D01*
X128270819Y-106456952D02*
X128223200Y-106552190D01*
X128223200Y-106552190D02*
X128127961Y-106599809D01*
X128127961Y-106599809D02*
X127747009Y-106599809D01*
X127747009Y-106599809D02*
X127651771Y-106552190D01*
X127651771Y-106552190D02*
X127604152Y-106456952D01*
X127604152Y-106456952D02*
X127604152Y-106266476D01*
X127604152Y-106266476D02*
X127651771Y-106171238D01*
X127651771Y-106171238D02*
X127747009Y-106123619D01*
X127747009Y-106123619D02*
X127842247Y-106123619D01*
X127842247Y-106123619D02*
X127937485Y-106599809D01*
X128270819Y-105695047D02*
X127604152Y-105695047D01*
X127794628Y-105695047D02*
X127699390Y-105647428D01*
X127699390Y-105647428D02*
X127651771Y-105599809D01*
X127651771Y-105599809D02*
X127604152Y-105504571D01*
X127604152Y-105504571D02*
X127604152Y-105409333D01*
X128270819Y-105075999D02*
X127604152Y-105075999D01*
X127270819Y-105075999D02*
X127318438Y-105123618D01*
X127318438Y-105123618D02*
X127366057Y-105075999D01*
X127366057Y-105075999D02*
X127318438Y-105028380D01*
X127318438Y-105028380D02*
X127270819Y-105075999D01*
X127270819Y-105075999D02*
X127366057Y-105075999D01*
X128270819Y-104171238D02*
X127747009Y-104171238D01*
X127747009Y-104171238D02*
X127651771Y-104218857D01*
X127651771Y-104218857D02*
X127604152Y-104314095D01*
X127604152Y-104314095D02*
X127604152Y-104504571D01*
X127604152Y-104504571D02*
X127651771Y-104599809D01*
X128223200Y-104171238D02*
X128270819Y-104266476D01*
X128270819Y-104266476D02*
X128270819Y-104504571D01*
X128270819Y-104504571D02*
X128223200Y-104599809D01*
X128223200Y-104599809D02*
X128127961Y-104647428D01*
X128127961Y-104647428D02*
X128032723Y-104647428D01*
X128032723Y-104647428D02*
X127937485Y-104599809D01*
X127937485Y-104599809D02*
X127889866Y-104504571D01*
X127889866Y-104504571D02*
X127889866Y-104266476D01*
X127889866Y-104266476D02*
X127842247Y-104171238D01*
X128270819Y-103552190D02*
X128223200Y-103647428D01*
X128223200Y-103647428D02*
X128127961Y-103695047D01*
X128127961Y-103695047D02*
X127270819Y-103695047D01*
X132352666Y-105030819D02*
X132352666Y-105745104D01*
X132352666Y-105745104D02*
X132305047Y-105887961D01*
X132305047Y-105887961D02*
X132209809Y-105983200D01*
X132209809Y-105983200D02*
X132066952Y-106030819D01*
X132066952Y-106030819D02*
X131971714Y-106030819D01*
X133305047Y-105030819D02*
X132828857Y-105030819D01*
X132828857Y-105030819D02*
X132781238Y-105507009D01*
X132781238Y-105507009D02*
X132828857Y-105459390D01*
X132828857Y-105459390D02*
X132924095Y-105411771D01*
X132924095Y-105411771D02*
X133162190Y-105411771D01*
X133162190Y-105411771D02*
X133257428Y-105459390D01*
X133257428Y-105459390D02*
X133305047Y-105507009D01*
X133305047Y-105507009D02*
X133352666Y-105602247D01*
X133352666Y-105602247D02*
X133352666Y-105840342D01*
X133352666Y-105840342D02*
X133305047Y-105935580D01*
X133305047Y-105935580D02*
X133257428Y-105983200D01*
X133257428Y-105983200D02*
X133162190Y-106030819D01*
X133162190Y-106030819D02*
X132924095Y-106030819D01*
X132924095Y-106030819D02*
X132828857Y-105983200D01*
X132828857Y-105983200D02*
X132781238Y-105935580D01*
X134058952Y-104989104D02*
X134535142Y-104989104D01*
X133963714Y-105274819D02*
X134297047Y-104274819D01*
X134297047Y-104274819D02*
X134630380Y-105274819D01*
X134963714Y-105274819D02*
X134963714Y-104274819D01*
X134963714Y-104274819D02*
X135201809Y-104274819D01*
X135201809Y-104274819D02*
X135344666Y-104322438D01*
X135344666Y-104322438D02*
X135439904Y-104417676D01*
X135439904Y-104417676D02*
X135487523Y-104512914D01*
X135487523Y-104512914D02*
X135535142Y-104703390D01*
X135535142Y-104703390D02*
X135535142Y-104846247D01*
X135535142Y-104846247D02*
X135487523Y-105036723D01*
X135487523Y-105036723D02*
X135439904Y-105131961D01*
X135439904Y-105131961D02*
X135344666Y-105227200D01*
X135344666Y-105227200D02*
X135201809Y-105274819D01*
X135201809Y-105274819D02*
X134963714Y-105274819D01*
X136249428Y-104274819D02*
X136249428Y-104989104D01*
X136249428Y-104989104D02*
X136201809Y-105131961D01*
X136201809Y-105131961D02*
X136106571Y-105227200D01*
X136106571Y-105227200D02*
X135963714Y-105274819D01*
X135963714Y-105274819D02*
X135868476Y-105274819D01*
X134632819Y-102053333D02*
X135347104Y-102053333D01*
X135347104Y-102053333D02*
X135489961Y-102100952D01*
X135489961Y-102100952D02*
X135585200Y-102196190D01*
X135585200Y-102196190D02*
X135632819Y-102339047D01*
X135632819Y-102339047D02*
X135632819Y-102434285D01*
X135632819Y-101577142D02*
X134632819Y-101577142D01*
X134632819Y-101577142D02*
X134632819Y-101196190D01*
X134632819Y-101196190D02*
X134680438Y-101100952D01*
X134680438Y-101100952D02*
X134728057Y-101053333D01*
X134728057Y-101053333D02*
X134823295Y-101005714D01*
X134823295Y-101005714D02*
X134966152Y-101005714D01*
X134966152Y-101005714D02*
X135061390Y-101053333D01*
X135061390Y-101053333D02*
X135109009Y-101100952D01*
X135109009Y-101100952D02*
X135156628Y-101196190D01*
X135156628Y-101196190D02*
X135156628Y-101577142D01*
X135632819Y-100053333D02*
X135632819Y-100624761D01*
X135632819Y-100339047D02*
X134632819Y-100339047D01*
X134632819Y-100339047D02*
X134775676Y-100434285D01*
X134775676Y-100434285D02*
X134870914Y-100529523D01*
X134870914Y-100529523D02*
X134918533Y-100624761D01*
X139034952Y-126774819D02*
X139034952Y-125774819D01*
X139034952Y-125774819D02*
X139368285Y-126489104D01*
X139368285Y-126489104D02*
X139701618Y-125774819D01*
X139701618Y-125774819D02*
X139701618Y-126774819D01*
X140177809Y-126774819D02*
X140177809Y-125774819D01*
X140177809Y-125774819D02*
X140511142Y-126489104D01*
X140511142Y-126489104D02*
X140844475Y-125774819D01*
X140844475Y-125774819D02*
X140844475Y-126774819D01*
X141653999Y-126251009D02*
X141796856Y-126298628D01*
X141796856Y-126298628D02*
X141844475Y-126346247D01*
X141844475Y-126346247D02*
X141892094Y-126441485D01*
X141892094Y-126441485D02*
X141892094Y-126584342D01*
X141892094Y-126584342D02*
X141844475Y-126679580D01*
X141844475Y-126679580D02*
X141796856Y-126727200D01*
X141796856Y-126727200D02*
X141701618Y-126774819D01*
X141701618Y-126774819D02*
X141320666Y-126774819D01*
X141320666Y-126774819D02*
X141320666Y-125774819D01*
X141320666Y-125774819D02*
X141653999Y-125774819D01*
X141653999Y-125774819D02*
X141749237Y-125822438D01*
X141749237Y-125822438D02*
X141796856Y-125870057D01*
X141796856Y-125870057D02*
X141844475Y-125965295D01*
X141844475Y-125965295D02*
X141844475Y-126060533D01*
X141844475Y-126060533D02*
X141796856Y-126155771D01*
X141796856Y-126155771D02*
X141749237Y-126203390D01*
X141749237Y-126203390D02*
X141653999Y-126251009D01*
X141653999Y-126251009D02*
X141320666Y-126251009D01*
X142177809Y-125774819D02*
X142749237Y-125774819D01*
X142463523Y-126774819D02*
X142463523Y-125774819D01*
X143034952Y-125870057D02*
X143082571Y-125822438D01*
X143082571Y-125822438D02*
X143177809Y-125774819D01*
X143177809Y-125774819D02*
X143415904Y-125774819D01*
X143415904Y-125774819D02*
X143511142Y-125822438D01*
X143511142Y-125822438D02*
X143558761Y-125870057D01*
X143558761Y-125870057D02*
X143606380Y-125965295D01*
X143606380Y-125965295D02*
X143606380Y-126060533D01*
X143606380Y-126060533D02*
X143558761Y-126203390D01*
X143558761Y-126203390D02*
X142987333Y-126774819D01*
X142987333Y-126774819D02*
X143606380Y-126774819D01*
X143987333Y-125870057D02*
X144034952Y-125822438D01*
X144034952Y-125822438D02*
X144130190Y-125774819D01*
X144130190Y-125774819D02*
X144368285Y-125774819D01*
X144368285Y-125774819D02*
X144463523Y-125822438D01*
X144463523Y-125822438D02*
X144511142Y-125870057D01*
X144511142Y-125870057D02*
X144558761Y-125965295D01*
X144558761Y-125965295D02*
X144558761Y-126060533D01*
X144558761Y-126060533D02*
X144511142Y-126203390D01*
X144511142Y-126203390D02*
X143939714Y-126774819D01*
X143939714Y-126774819D02*
X144558761Y-126774819D01*
X144939714Y-125870057D02*
X144987333Y-125822438D01*
X144987333Y-125822438D02*
X145082571Y-125774819D01*
X145082571Y-125774819D02*
X145320666Y-125774819D01*
X145320666Y-125774819D02*
X145415904Y-125822438D01*
X145415904Y-125822438D02*
X145463523Y-125870057D01*
X145463523Y-125870057D02*
X145511142Y-125965295D01*
X145511142Y-125965295D02*
X145511142Y-126060533D01*
X145511142Y-126060533D02*
X145463523Y-126203390D01*
X145463523Y-126203390D02*
X144892095Y-126774819D01*
X144892095Y-126774819D02*
X145511142Y-126774819D01*
X145892095Y-125870057D02*
X145939714Y-125822438D01*
X145939714Y-125822438D02*
X146034952Y-125774819D01*
X146034952Y-125774819D02*
X146273047Y-125774819D01*
X146273047Y-125774819D02*
X146368285Y-125822438D01*
X146368285Y-125822438D02*
X146415904Y-125870057D01*
X146415904Y-125870057D02*
X146463523Y-125965295D01*
X146463523Y-125965295D02*
X146463523Y-126060533D01*
X146463523Y-126060533D02*
X146415904Y-126203390D01*
X146415904Y-126203390D02*
X145844476Y-126774819D01*
X145844476Y-126774819D02*
X146463523Y-126774819D01*
X146844476Y-126489104D02*
X147320666Y-126489104D01*
X146749238Y-126774819D02*
X147082571Y-125774819D01*
X147082571Y-125774819D02*
X147415904Y-126774819D01*
D12*
X143429028Y-123867619D02*
X143405219Y-123915238D01*
X143405219Y-123915238D02*
X143357600Y-123962857D01*
X143357600Y-123962857D02*
X143286171Y-124034285D01*
X143286171Y-124034285D02*
X143262361Y-124081904D01*
X143262361Y-124081904D02*
X143262361Y-124129523D01*
X143381409Y-124105714D02*
X143357600Y-124153333D01*
X143357600Y-124153333D02*
X143309980Y-124200952D01*
X143309980Y-124200952D02*
X143214742Y-124224761D01*
X143214742Y-124224761D02*
X143048076Y-124224761D01*
X143048076Y-124224761D02*
X142952838Y-124200952D01*
X142952838Y-124200952D02*
X142905219Y-124153333D01*
X142905219Y-124153333D02*
X142881409Y-124105714D01*
X142881409Y-124105714D02*
X142881409Y-124010476D01*
X142881409Y-124010476D02*
X142905219Y-123962857D01*
X142905219Y-123962857D02*
X142952838Y-123915238D01*
X142952838Y-123915238D02*
X143048076Y-123891428D01*
X143048076Y-123891428D02*
X143214742Y-123891428D01*
X143214742Y-123891428D02*
X143309980Y-123915238D01*
X143309980Y-123915238D02*
X143357600Y-123962857D01*
X143357600Y-123962857D02*
X143381409Y-124010476D01*
X143381409Y-124010476D02*
X143381409Y-124105714D01*
X142929028Y-123700951D02*
X142905219Y-123677142D01*
X142905219Y-123677142D02*
X142881409Y-123629523D01*
X142881409Y-123629523D02*
X142881409Y-123510475D01*
X142881409Y-123510475D02*
X142905219Y-123462856D01*
X142905219Y-123462856D02*
X142929028Y-123439047D01*
X142929028Y-123439047D02*
X142976647Y-123415237D01*
X142976647Y-123415237D02*
X143024266Y-123415237D01*
X143024266Y-123415237D02*
X143095695Y-123439047D01*
X143095695Y-123439047D02*
X143381409Y-123724761D01*
X143381409Y-123724761D02*
X143381409Y-123415237D01*
D10*
X150004819Y-87275476D02*
X150004819Y-87846904D01*
X150004819Y-87561190D02*
X149004819Y-87561190D01*
X149004819Y-87561190D02*
X149147676Y-87656428D01*
X149147676Y-87656428D02*
X149242914Y-87751666D01*
X149242914Y-87751666D02*
X149290533Y-87846904D01*
X149004819Y-86656428D02*
X149004819Y-86561190D01*
X149004819Y-86561190D02*
X149052438Y-86465952D01*
X149052438Y-86465952D02*
X149100057Y-86418333D01*
X149100057Y-86418333D02*
X149195295Y-86370714D01*
X149195295Y-86370714D02*
X149385771Y-86323095D01*
X149385771Y-86323095D02*
X149623866Y-86323095D01*
X149623866Y-86323095D02*
X149814342Y-86370714D01*
X149814342Y-86370714D02*
X149909580Y-86418333D01*
X149909580Y-86418333D02*
X149957200Y-86465952D01*
X149957200Y-86465952D02*
X150004819Y-86561190D01*
X150004819Y-86561190D02*
X150004819Y-86656428D01*
X150004819Y-86656428D02*
X149957200Y-86751666D01*
X149957200Y-86751666D02*
X149909580Y-86799285D01*
X149909580Y-86799285D02*
X149814342Y-86846904D01*
X149814342Y-86846904D02*
X149623866Y-86894523D01*
X149623866Y-86894523D02*
X149385771Y-86894523D01*
X149385771Y-86894523D02*
X149195295Y-86846904D01*
X149195295Y-86846904D02*
X149100057Y-86799285D01*
X149100057Y-86799285D02*
X149052438Y-86751666D01*
X149052438Y-86751666D02*
X149004819Y-86656428D01*
X150004819Y-85894523D02*
X149004819Y-85894523D01*
X150004819Y-85323095D02*
X149433390Y-85751666D01*
X149004819Y-85323095D02*
X149576247Y-85894523D01*
D11*
X148127149Y-86668333D02*
X147889054Y-86834999D01*
X148127149Y-86954047D02*
X147627149Y-86954047D01*
X147627149Y-86954047D02*
X147627149Y-86763571D01*
X147627149Y-86763571D02*
X147650959Y-86715952D01*
X147650959Y-86715952D02*
X147674768Y-86692142D01*
X147674768Y-86692142D02*
X147722387Y-86668333D01*
X147722387Y-86668333D02*
X147793816Y-86668333D01*
X147793816Y-86668333D02*
X147841435Y-86692142D01*
X147841435Y-86692142D02*
X147865244Y-86715952D01*
X147865244Y-86715952D02*
X147889054Y-86763571D01*
X147889054Y-86763571D02*
X147889054Y-86954047D01*
X148127149Y-86192142D02*
X148127149Y-86477856D01*
X148127149Y-86334999D02*
X147627149Y-86334999D01*
X147627149Y-86334999D02*
X147698578Y-86382618D01*
X147698578Y-86382618D02*
X147746197Y-86430237D01*
X147746197Y-86430237D02*
X147770006Y-86477856D01*
D10*
X122642819Y-123804285D02*
X122642819Y-124375713D01*
X122642819Y-124089999D02*
X121642819Y-124089999D01*
X121642819Y-124089999D02*
X121785676Y-124185237D01*
X121785676Y-124185237D02*
X121880914Y-124280475D01*
X121880914Y-124280475D02*
X121928533Y-124375713D01*
X122642819Y-123375713D02*
X121642819Y-123375713D01*
X122642819Y-122804285D02*
X122071390Y-123232856D01*
X121642819Y-122804285D02*
X122214247Y-123375713D01*
D11*
X124065149Y-123673333D02*
X123827054Y-123839999D01*
X124065149Y-123959047D02*
X123565149Y-123959047D01*
X123565149Y-123959047D02*
X123565149Y-123768571D01*
X123565149Y-123768571D02*
X123588959Y-123720952D01*
X123588959Y-123720952D02*
X123612768Y-123697142D01*
X123612768Y-123697142D02*
X123660387Y-123673333D01*
X123660387Y-123673333D02*
X123731816Y-123673333D01*
X123731816Y-123673333D02*
X123779435Y-123697142D01*
X123779435Y-123697142D02*
X123803244Y-123720952D01*
X123803244Y-123720952D02*
X123827054Y-123768571D01*
X123827054Y-123768571D02*
X123827054Y-123959047D01*
X123612768Y-123482856D02*
X123588959Y-123459047D01*
X123588959Y-123459047D02*
X123565149Y-123411428D01*
X123565149Y-123411428D02*
X123565149Y-123292380D01*
X123565149Y-123292380D02*
X123588959Y-123244761D01*
X123588959Y-123244761D02*
X123612768Y-123220952D01*
X123612768Y-123220952D02*
X123660387Y-123197142D01*
X123660387Y-123197142D02*
X123708006Y-123197142D01*
X123708006Y-123197142D02*
X123779435Y-123220952D01*
X123779435Y-123220952D02*
X124065149Y-123506666D01*
X124065149Y-123506666D02*
X124065149Y-123197142D01*
D10*
X155954819Y-82810713D02*
X155954819Y-82191666D01*
X155954819Y-82191666D02*
X156335771Y-82524999D01*
X156335771Y-82524999D02*
X156335771Y-82382142D01*
X156335771Y-82382142D02*
X156383390Y-82286904D01*
X156383390Y-82286904D02*
X156431009Y-82239285D01*
X156431009Y-82239285D02*
X156526247Y-82191666D01*
X156526247Y-82191666D02*
X156764342Y-82191666D01*
X156764342Y-82191666D02*
X156859580Y-82239285D01*
X156859580Y-82239285D02*
X156907200Y-82286904D01*
X156907200Y-82286904D02*
X156954819Y-82382142D01*
X156954819Y-82382142D02*
X156954819Y-82667856D01*
X156954819Y-82667856D02*
X156907200Y-82763094D01*
X156907200Y-82763094D02*
X156859580Y-82810713D01*
X155954819Y-81858332D02*
X155954819Y-81239285D01*
X155954819Y-81239285D02*
X156335771Y-81572618D01*
X156335771Y-81572618D02*
X156335771Y-81429761D01*
X156335771Y-81429761D02*
X156383390Y-81334523D01*
X156383390Y-81334523D02*
X156431009Y-81286904D01*
X156431009Y-81286904D02*
X156526247Y-81239285D01*
X156526247Y-81239285D02*
X156764342Y-81239285D01*
X156764342Y-81239285D02*
X156859580Y-81286904D01*
X156859580Y-81286904D02*
X156907200Y-81334523D01*
X156907200Y-81334523D02*
X156954819Y-81429761D01*
X156954819Y-81429761D02*
X156954819Y-81715475D01*
X156954819Y-81715475D02*
X156907200Y-81810713D01*
X156907200Y-81810713D02*
X156859580Y-81858332D01*
X155954819Y-80620237D02*
X155954819Y-80524999D01*
X155954819Y-80524999D02*
X156002438Y-80429761D01*
X156002438Y-80429761D02*
X156050057Y-80382142D01*
X156050057Y-80382142D02*
X156145295Y-80334523D01*
X156145295Y-80334523D02*
X156335771Y-80286904D01*
X156335771Y-80286904D02*
X156573866Y-80286904D01*
X156573866Y-80286904D02*
X156764342Y-80334523D01*
X156764342Y-80334523D02*
X156859580Y-80382142D01*
X156859580Y-80382142D02*
X156907200Y-80429761D01*
X156907200Y-80429761D02*
X156954819Y-80524999D01*
X156954819Y-80524999D02*
X156954819Y-80620237D01*
X156954819Y-80620237D02*
X156907200Y-80715475D01*
X156907200Y-80715475D02*
X156859580Y-80763094D01*
X156859580Y-80763094D02*
X156764342Y-80810713D01*
X156764342Y-80810713D02*
X156573866Y-80858332D01*
X156573866Y-80858332D02*
X156335771Y-80858332D01*
X156335771Y-80858332D02*
X156145295Y-80810713D01*
X156145295Y-80810713D02*
X156050057Y-80763094D01*
X156050057Y-80763094D02*
X156002438Y-80715475D01*
X156002438Y-80715475D02*
X155954819Y-80620237D01*
X156954819Y-79286904D02*
X156478628Y-79620237D01*
X156954819Y-79858332D02*
X155954819Y-79858332D01*
X155954819Y-79858332D02*
X155954819Y-79477380D01*
X155954819Y-79477380D02*
X156002438Y-79382142D01*
X156002438Y-79382142D02*
X156050057Y-79334523D01*
X156050057Y-79334523D02*
X156145295Y-79286904D01*
X156145295Y-79286904D02*
X156288152Y-79286904D01*
X156288152Y-79286904D02*
X156383390Y-79334523D01*
X156383390Y-79334523D02*
X156431009Y-79382142D01*
X156431009Y-79382142D02*
X156478628Y-79477380D01*
X156478628Y-79477380D02*
X156478628Y-79858332D01*
D11*
X158377149Y-81108333D02*
X158139054Y-81274999D01*
X158377149Y-81394047D02*
X157877149Y-81394047D01*
X157877149Y-81394047D02*
X157877149Y-81203571D01*
X157877149Y-81203571D02*
X157900959Y-81155952D01*
X157900959Y-81155952D02*
X157924768Y-81132142D01*
X157924768Y-81132142D02*
X157972387Y-81108333D01*
X157972387Y-81108333D02*
X158043816Y-81108333D01*
X158043816Y-81108333D02*
X158091435Y-81132142D01*
X158091435Y-81132142D02*
X158115244Y-81155952D01*
X158115244Y-81155952D02*
X158139054Y-81203571D01*
X158139054Y-81203571D02*
X158139054Y-81394047D01*
X157877149Y-80941666D02*
X157877149Y-80632142D01*
X157877149Y-80632142D02*
X158067625Y-80798809D01*
X158067625Y-80798809D02*
X158067625Y-80727380D01*
X158067625Y-80727380D02*
X158091435Y-80679761D01*
X158091435Y-80679761D02*
X158115244Y-80655952D01*
X158115244Y-80655952D02*
X158162863Y-80632142D01*
X158162863Y-80632142D02*
X158281911Y-80632142D01*
X158281911Y-80632142D02*
X158329530Y-80655952D01*
X158329530Y-80655952D02*
X158353340Y-80679761D01*
X158353340Y-80679761D02*
X158377149Y-80727380D01*
X158377149Y-80727380D02*
X158377149Y-80870237D01*
X158377149Y-80870237D02*
X158353340Y-80917856D01*
X158353340Y-80917856D02*
X158329530Y-80941666D01*
D10*
X160244819Y-87285476D02*
X160244819Y-87856904D01*
X160244819Y-87571190D02*
X159244819Y-87571190D01*
X159244819Y-87571190D02*
X159387676Y-87666428D01*
X159387676Y-87666428D02*
X159482914Y-87761666D01*
X159482914Y-87761666D02*
X159530533Y-87856904D01*
X159244819Y-86666428D02*
X159244819Y-86571190D01*
X159244819Y-86571190D02*
X159292438Y-86475952D01*
X159292438Y-86475952D02*
X159340057Y-86428333D01*
X159340057Y-86428333D02*
X159435295Y-86380714D01*
X159435295Y-86380714D02*
X159625771Y-86333095D01*
X159625771Y-86333095D02*
X159863866Y-86333095D01*
X159863866Y-86333095D02*
X160054342Y-86380714D01*
X160054342Y-86380714D02*
X160149580Y-86428333D01*
X160149580Y-86428333D02*
X160197200Y-86475952D01*
X160197200Y-86475952D02*
X160244819Y-86571190D01*
X160244819Y-86571190D02*
X160244819Y-86666428D01*
X160244819Y-86666428D02*
X160197200Y-86761666D01*
X160197200Y-86761666D02*
X160149580Y-86809285D01*
X160149580Y-86809285D02*
X160054342Y-86856904D01*
X160054342Y-86856904D02*
X159863866Y-86904523D01*
X159863866Y-86904523D02*
X159625771Y-86904523D01*
X159625771Y-86904523D02*
X159435295Y-86856904D01*
X159435295Y-86856904D02*
X159340057Y-86809285D01*
X159340057Y-86809285D02*
X159292438Y-86761666D01*
X159292438Y-86761666D02*
X159244819Y-86666428D01*
X160244819Y-85904523D02*
X159244819Y-85904523D01*
X160244819Y-85333095D02*
X159673390Y-85761666D01*
X159244819Y-85333095D02*
X159816247Y-85904523D01*
D11*
X158367149Y-86678333D02*
X158129054Y-86844999D01*
X158367149Y-86964047D02*
X157867149Y-86964047D01*
X157867149Y-86964047D02*
X157867149Y-86773571D01*
X157867149Y-86773571D02*
X157890959Y-86725952D01*
X157890959Y-86725952D02*
X157914768Y-86702142D01*
X157914768Y-86702142D02*
X157962387Y-86678333D01*
X157962387Y-86678333D02*
X158033816Y-86678333D01*
X158033816Y-86678333D02*
X158081435Y-86702142D01*
X158081435Y-86702142D02*
X158105244Y-86725952D01*
X158105244Y-86725952D02*
X158129054Y-86773571D01*
X158129054Y-86773571D02*
X158129054Y-86964047D01*
X158033816Y-86249761D02*
X158367149Y-86249761D01*
X157843340Y-86368809D02*
X158200482Y-86487856D01*
X158200482Y-86487856D02*
X158200482Y-86178333D01*
D10*
X138924819Y-124054285D02*
X138924819Y-124625713D01*
X138924819Y-124339999D02*
X137924819Y-124339999D01*
X137924819Y-124339999D02*
X138067676Y-124435237D01*
X138067676Y-124435237D02*
X138162914Y-124530475D01*
X138162914Y-124530475D02*
X138210533Y-124625713D01*
X138924819Y-123625713D02*
X137924819Y-123625713D01*
X138924819Y-123054285D02*
X138353390Y-123482856D01*
X137924819Y-123054285D02*
X138496247Y-123625713D01*
D11*
X140347149Y-123923333D02*
X140109054Y-124089999D01*
X140347149Y-124209047D02*
X139847149Y-124209047D01*
X139847149Y-124209047D02*
X139847149Y-124018571D01*
X139847149Y-124018571D02*
X139870959Y-123970952D01*
X139870959Y-123970952D02*
X139894768Y-123947142D01*
X139894768Y-123947142D02*
X139942387Y-123923333D01*
X139942387Y-123923333D02*
X140013816Y-123923333D01*
X140013816Y-123923333D02*
X140061435Y-123947142D01*
X140061435Y-123947142D02*
X140085244Y-123970952D01*
X140085244Y-123970952D02*
X140109054Y-124018571D01*
X140109054Y-124018571D02*
X140109054Y-124209047D01*
X139847149Y-123470952D02*
X139847149Y-123709047D01*
X139847149Y-123709047D02*
X140085244Y-123732856D01*
X140085244Y-123732856D02*
X140061435Y-123709047D01*
X140061435Y-123709047D02*
X140037625Y-123661428D01*
X140037625Y-123661428D02*
X140037625Y-123542380D01*
X140037625Y-123542380D02*
X140061435Y-123494761D01*
X140061435Y-123494761D02*
X140085244Y-123470952D01*
X140085244Y-123470952D02*
X140132863Y-123447142D01*
X140132863Y-123447142D02*
X140251911Y-123447142D01*
X140251911Y-123447142D02*
X140299530Y-123470952D01*
X140299530Y-123470952D02*
X140323340Y-123494761D01*
X140323340Y-123494761D02*
X140347149Y-123542380D01*
X140347149Y-123542380D02*
X140347149Y-123661428D01*
X140347149Y-123661428D02*
X140323340Y-123709047D01*
X140323340Y-123709047D02*
X140299530Y-123732856D01*
D10*
X145754819Y-82810713D02*
X145754819Y-82191666D01*
X145754819Y-82191666D02*
X146135771Y-82524999D01*
X146135771Y-82524999D02*
X146135771Y-82382142D01*
X146135771Y-82382142D02*
X146183390Y-82286904D01*
X146183390Y-82286904D02*
X146231009Y-82239285D01*
X146231009Y-82239285D02*
X146326247Y-82191666D01*
X146326247Y-82191666D02*
X146564342Y-82191666D01*
X146564342Y-82191666D02*
X146659580Y-82239285D01*
X146659580Y-82239285D02*
X146707200Y-82286904D01*
X146707200Y-82286904D02*
X146754819Y-82382142D01*
X146754819Y-82382142D02*
X146754819Y-82667856D01*
X146754819Y-82667856D02*
X146707200Y-82763094D01*
X146707200Y-82763094D02*
X146659580Y-82810713D01*
X145754819Y-81858332D02*
X145754819Y-81239285D01*
X145754819Y-81239285D02*
X146135771Y-81572618D01*
X146135771Y-81572618D02*
X146135771Y-81429761D01*
X146135771Y-81429761D02*
X146183390Y-81334523D01*
X146183390Y-81334523D02*
X146231009Y-81286904D01*
X146231009Y-81286904D02*
X146326247Y-81239285D01*
X146326247Y-81239285D02*
X146564342Y-81239285D01*
X146564342Y-81239285D02*
X146659580Y-81286904D01*
X146659580Y-81286904D02*
X146707200Y-81334523D01*
X146707200Y-81334523D02*
X146754819Y-81429761D01*
X146754819Y-81429761D02*
X146754819Y-81715475D01*
X146754819Y-81715475D02*
X146707200Y-81810713D01*
X146707200Y-81810713D02*
X146659580Y-81858332D01*
X145754819Y-80620237D02*
X145754819Y-80524999D01*
X145754819Y-80524999D02*
X145802438Y-80429761D01*
X145802438Y-80429761D02*
X145850057Y-80382142D01*
X145850057Y-80382142D02*
X145945295Y-80334523D01*
X145945295Y-80334523D02*
X146135771Y-80286904D01*
X146135771Y-80286904D02*
X146373866Y-80286904D01*
X146373866Y-80286904D02*
X146564342Y-80334523D01*
X146564342Y-80334523D02*
X146659580Y-80382142D01*
X146659580Y-80382142D02*
X146707200Y-80429761D01*
X146707200Y-80429761D02*
X146754819Y-80524999D01*
X146754819Y-80524999D02*
X146754819Y-80620237D01*
X146754819Y-80620237D02*
X146707200Y-80715475D01*
X146707200Y-80715475D02*
X146659580Y-80763094D01*
X146659580Y-80763094D02*
X146564342Y-80810713D01*
X146564342Y-80810713D02*
X146373866Y-80858332D01*
X146373866Y-80858332D02*
X146135771Y-80858332D01*
X146135771Y-80858332D02*
X145945295Y-80810713D01*
X145945295Y-80810713D02*
X145850057Y-80763094D01*
X145850057Y-80763094D02*
X145802438Y-80715475D01*
X145802438Y-80715475D02*
X145754819Y-80620237D01*
X146754819Y-79286904D02*
X146278628Y-79620237D01*
X146754819Y-79858332D02*
X145754819Y-79858332D01*
X145754819Y-79858332D02*
X145754819Y-79477380D01*
X145754819Y-79477380D02*
X145802438Y-79382142D01*
X145802438Y-79382142D02*
X145850057Y-79334523D01*
X145850057Y-79334523D02*
X145945295Y-79286904D01*
X145945295Y-79286904D02*
X146088152Y-79286904D01*
X146088152Y-79286904D02*
X146183390Y-79334523D01*
X146183390Y-79334523D02*
X146231009Y-79382142D01*
X146231009Y-79382142D02*
X146278628Y-79477380D01*
X146278628Y-79477380D02*
X146278628Y-79858332D01*
D11*
X148177149Y-81108333D02*
X147939054Y-81274999D01*
X148177149Y-81394047D02*
X147677149Y-81394047D01*
X147677149Y-81394047D02*
X147677149Y-81203571D01*
X147677149Y-81203571D02*
X147700959Y-81155952D01*
X147700959Y-81155952D02*
X147724768Y-81132142D01*
X147724768Y-81132142D02*
X147772387Y-81108333D01*
X147772387Y-81108333D02*
X147843816Y-81108333D01*
X147843816Y-81108333D02*
X147891435Y-81132142D01*
X147891435Y-81132142D02*
X147915244Y-81155952D01*
X147915244Y-81155952D02*
X147939054Y-81203571D01*
X147939054Y-81203571D02*
X147939054Y-81394047D01*
X147677149Y-80679761D02*
X147677149Y-80774999D01*
X147677149Y-80774999D02*
X147700959Y-80822618D01*
X147700959Y-80822618D02*
X147724768Y-80846428D01*
X147724768Y-80846428D02*
X147796197Y-80894047D01*
X147796197Y-80894047D02*
X147891435Y-80917856D01*
X147891435Y-80917856D02*
X148081911Y-80917856D01*
X148081911Y-80917856D02*
X148129530Y-80894047D01*
X148129530Y-80894047D02*
X148153340Y-80870237D01*
X148153340Y-80870237D02*
X148177149Y-80822618D01*
X148177149Y-80822618D02*
X148177149Y-80727380D01*
X148177149Y-80727380D02*
X148153340Y-80679761D01*
X148153340Y-80679761D02*
X148129530Y-80655952D01*
X148129530Y-80655952D02*
X148081911Y-80632142D01*
X148081911Y-80632142D02*
X147962863Y-80632142D01*
X147962863Y-80632142D02*
X147915244Y-80655952D01*
X147915244Y-80655952D02*
X147891435Y-80679761D01*
X147891435Y-80679761D02*
X147867625Y-80727380D01*
X147867625Y-80727380D02*
X147867625Y-80822618D01*
X147867625Y-80822618D02*
X147891435Y-80870237D01*
X147891435Y-80870237D02*
X147915244Y-80894047D01*
X147915244Y-80894047D02*
X147962863Y-80917856D01*
D10*
X140044819Y-87295476D02*
X140044819Y-87866904D01*
X140044819Y-87581190D02*
X139044819Y-87581190D01*
X139044819Y-87581190D02*
X139187676Y-87676428D01*
X139187676Y-87676428D02*
X139282914Y-87771666D01*
X139282914Y-87771666D02*
X139330533Y-87866904D01*
X139044819Y-86676428D02*
X139044819Y-86581190D01*
X139044819Y-86581190D02*
X139092438Y-86485952D01*
X139092438Y-86485952D02*
X139140057Y-86438333D01*
X139140057Y-86438333D02*
X139235295Y-86390714D01*
X139235295Y-86390714D02*
X139425771Y-86343095D01*
X139425771Y-86343095D02*
X139663866Y-86343095D01*
X139663866Y-86343095D02*
X139854342Y-86390714D01*
X139854342Y-86390714D02*
X139949580Y-86438333D01*
X139949580Y-86438333D02*
X139997200Y-86485952D01*
X139997200Y-86485952D02*
X140044819Y-86581190D01*
X140044819Y-86581190D02*
X140044819Y-86676428D01*
X140044819Y-86676428D02*
X139997200Y-86771666D01*
X139997200Y-86771666D02*
X139949580Y-86819285D01*
X139949580Y-86819285D02*
X139854342Y-86866904D01*
X139854342Y-86866904D02*
X139663866Y-86914523D01*
X139663866Y-86914523D02*
X139425771Y-86914523D01*
X139425771Y-86914523D02*
X139235295Y-86866904D01*
X139235295Y-86866904D02*
X139140057Y-86819285D01*
X139140057Y-86819285D02*
X139092438Y-86771666D01*
X139092438Y-86771666D02*
X139044819Y-86676428D01*
X140044819Y-85914523D02*
X139044819Y-85914523D01*
X140044819Y-85343095D02*
X139473390Y-85771666D01*
X139044819Y-85343095D02*
X139616247Y-85914523D01*
D11*
X138167149Y-86688333D02*
X137929054Y-86854999D01*
X138167149Y-86974047D02*
X137667149Y-86974047D01*
X137667149Y-86974047D02*
X137667149Y-86783571D01*
X137667149Y-86783571D02*
X137690959Y-86735952D01*
X137690959Y-86735952D02*
X137714768Y-86712142D01*
X137714768Y-86712142D02*
X137762387Y-86688333D01*
X137762387Y-86688333D02*
X137833816Y-86688333D01*
X137833816Y-86688333D02*
X137881435Y-86712142D01*
X137881435Y-86712142D02*
X137905244Y-86735952D01*
X137905244Y-86735952D02*
X137929054Y-86783571D01*
X137929054Y-86783571D02*
X137929054Y-86974047D01*
X137667149Y-86521666D02*
X137667149Y-86188333D01*
X137667149Y-86188333D02*
X138167149Y-86402618D01*
D10*
X135854819Y-82810713D02*
X135854819Y-82191666D01*
X135854819Y-82191666D02*
X136235771Y-82524999D01*
X136235771Y-82524999D02*
X136235771Y-82382142D01*
X136235771Y-82382142D02*
X136283390Y-82286904D01*
X136283390Y-82286904D02*
X136331009Y-82239285D01*
X136331009Y-82239285D02*
X136426247Y-82191666D01*
X136426247Y-82191666D02*
X136664342Y-82191666D01*
X136664342Y-82191666D02*
X136759580Y-82239285D01*
X136759580Y-82239285D02*
X136807200Y-82286904D01*
X136807200Y-82286904D02*
X136854819Y-82382142D01*
X136854819Y-82382142D02*
X136854819Y-82667856D01*
X136854819Y-82667856D02*
X136807200Y-82763094D01*
X136807200Y-82763094D02*
X136759580Y-82810713D01*
X135854819Y-81858332D02*
X135854819Y-81239285D01*
X135854819Y-81239285D02*
X136235771Y-81572618D01*
X136235771Y-81572618D02*
X136235771Y-81429761D01*
X136235771Y-81429761D02*
X136283390Y-81334523D01*
X136283390Y-81334523D02*
X136331009Y-81286904D01*
X136331009Y-81286904D02*
X136426247Y-81239285D01*
X136426247Y-81239285D02*
X136664342Y-81239285D01*
X136664342Y-81239285D02*
X136759580Y-81286904D01*
X136759580Y-81286904D02*
X136807200Y-81334523D01*
X136807200Y-81334523D02*
X136854819Y-81429761D01*
X136854819Y-81429761D02*
X136854819Y-81715475D01*
X136854819Y-81715475D02*
X136807200Y-81810713D01*
X136807200Y-81810713D02*
X136759580Y-81858332D01*
X135854819Y-80620237D02*
X135854819Y-80524999D01*
X135854819Y-80524999D02*
X135902438Y-80429761D01*
X135902438Y-80429761D02*
X135950057Y-80382142D01*
X135950057Y-80382142D02*
X136045295Y-80334523D01*
X136045295Y-80334523D02*
X136235771Y-80286904D01*
X136235771Y-80286904D02*
X136473866Y-80286904D01*
X136473866Y-80286904D02*
X136664342Y-80334523D01*
X136664342Y-80334523D02*
X136759580Y-80382142D01*
X136759580Y-80382142D02*
X136807200Y-80429761D01*
X136807200Y-80429761D02*
X136854819Y-80524999D01*
X136854819Y-80524999D02*
X136854819Y-80620237D01*
X136854819Y-80620237D02*
X136807200Y-80715475D01*
X136807200Y-80715475D02*
X136759580Y-80763094D01*
X136759580Y-80763094D02*
X136664342Y-80810713D01*
X136664342Y-80810713D02*
X136473866Y-80858332D01*
X136473866Y-80858332D02*
X136235771Y-80858332D01*
X136235771Y-80858332D02*
X136045295Y-80810713D01*
X136045295Y-80810713D02*
X135950057Y-80763094D01*
X135950057Y-80763094D02*
X135902438Y-80715475D01*
X135902438Y-80715475D02*
X135854819Y-80620237D01*
X136854819Y-79286904D02*
X136378628Y-79620237D01*
X136854819Y-79858332D02*
X135854819Y-79858332D01*
X135854819Y-79858332D02*
X135854819Y-79477380D01*
X135854819Y-79477380D02*
X135902438Y-79382142D01*
X135902438Y-79382142D02*
X135950057Y-79334523D01*
X135950057Y-79334523D02*
X136045295Y-79286904D01*
X136045295Y-79286904D02*
X136188152Y-79286904D01*
X136188152Y-79286904D02*
X136283390Y-79334523D01*
X136283390Y-79334523D02*
X136331009Y-79382142D01*
X136331009Y-79382142D02*
X136378628Y-79477380D01*
X136378628Y-79477380D02*
X136378628Y-79858332D01*
D11*
X138277149Y-81108333D02*
X138039054Y-81274999D01*
X138277149Y-81394047D02*
X137777149Y-81394047D01*
X137777149Y-81394047D02*
X137777149Y-81203571D01*
X137777149Y-81203571D02*
X137800959Y-81155952D01*
X137800959Y-81155952D02*
X137824768Y-81132142D01*
X137824768Y-81132142D02*
X137872387Y-81108333D01*
X137872387Y-81108333D02*
X137943816Y-81108333D01*
X137943816Y-81108333D02*
X137991435Y-81132142D01*
X137991435Y-81132142D02*
X138015244Y-81155952D01*
X138015244Y-81155952D02*
X138039054Y-81203571D01*
X138039054Y-81203571D02*
X138039054Y-81394047D01*
X137991435Y-80822618D02*
X137967625Y-80870237D01*
X137967625Y-80870237D02*
X137943816Y-80894047D01*
X137943816Y-80894047D02*
X137896197Y-80917856D01*
X137896197Y-80917856D02*
X137872387Y-80917856D01*
X137872387Y-80917856D02*
X137824768Y-80894047D01*
X137824768Y-80894047D02*
X137800959Y-80870237D01*
X137800959Y-80870237D02*
X137777149Y-80822618D01*
X137777149Y-80822618D02*
X137777149Y-80727380D01*
X137777149Y-80727380D02*
X137800959Y-80679761D01*
X137800959Y-80679761D02*
X137824768Y-80655952D01*
X137824768Y-80655952D02*
X137872387Y-80632142D01*
X137872387Y-80632142D02*
X137896197Y-80632142D01*
X137896197Y-80632142D02*
X137943816Y-80655952D01*
X137943816Y-80655952D02*
X137967625Y-80679761D01*
X137967625Y-80679761D02*
X137991435Y-80727380D01*
X137991435Y-80727380D02*
X137991435Y-80822618D01*
X137991435Y-80822618D02*
X138015244Y-80870237D01*
X138015244Y-80870237D02*
X138039054Y-80894047D01*
X138039054Y-80894047D02*
X138086673Y-80917856D01*
X138086673Y-80917856D02*
X138181911Y-80917856D01*
X138181911Y-80917856D02*
X138229530Y-80894047D01*
X138229530Y-80894047D02*
X138253340Y-80870237D01*
X138253340Y-80870237D02*
X138277149Y-80822618D01*
X138277149Y-80822618D02*
X138277149Y-80727380D01*
X138277149Y-80727380D02*
X138253340Y-80679761D01*
X138253340Y-80679761D02*
X138229530Y-80655952D01*
X138229530Y-80655952D02*
X138181911Y-80632142D01*
X138181911Y-80632142D02*
X138086673Y-80632142D01*
X138086673Y-80632142D02*
X138039054Y-80655952D01*
X138039054Y-80655952D02*
X138015244Y-80679761D01*
X138015244Y-80679761D02*
X137991435Y-80727380D01*
D10*
X133072819Y-132644666D02*
X133072819Y-133216094D01*
X133072819Y-132930380D02*
X132072819Y-132930380D01*
X132072819Y-132930380D02*
X132215676Y-133025618D01*
X132215676Y-133025618D02*
X132310914Y-133120856D01*
X132310914Y-133120856D02*
X132358533Y-133216094D01*
X132168057Y-132263713D02*
X132120438Y-132216094D01*
X132120438Y-132216094D02*
X132072819Y-132120856D01*
X132072819Y-132120856D02*
X132072819Y-131882761D01*
X132072819Y-131882761D02*
X132120438Y-131787523D01*
X132120438Y-131787523D02*
X132168057Y-131739904D01*
X132168057Y-131739904D02*
X132263295Y-131692285D01*
X132263295Y-131692285D02*
X132358533Y-131692285D01*
X132358533Y-131692285D02*
X132501390Y-131739904D01*
X132501390Y-131739904D02*
X133072819Y-132311332D01*
X133072819Y-132311332D02*
X133072819Y-131692285D01*
X132072819Y-131073237D02*
X132072819Y-130977999D01*
X132072819Y-130977999D02*
X132120438Y-130882761D01*
X132120438Y-130882761D02*
X132168057Y-130835142D01*
X132168057Y-130835142D02*
X132263295Y-130787523D01*
X132263295Y-130787523D02*
X132453771Y-130739904D01*
X132453771Y-130739904D02*
X132691866Y-130739904D01*
X132691866Y-130739904D02*
X132882342Y-130787523D01*
X132882342Y-130787523D02*
X132977580Y-130835142D01*
X132977580Y-130835142D02*
X133025200Y-130882761D01*
X133025200Y-130882761D02*
X133072819Y-130977999D01*
X133072819Y-130977999D02*
X133072819Y-131073237D01*
X133072819Y-131073237D02*
X133025200Y-131168475D01*
X133025200Y-131168475D02*
X132977580Y-131216094D01*
X132977580Y-131216094D02*
X132882342Y-131263713D01*
X132882342Y-131263713D02*
X132691866Y-131311332D01*
X132691866Y-131311332D02*
X132453771Y-131311332D01*
X132453771Y-131311332D02*
X132263295Y-131263713D01*
X132263295Y-131263713D02*
X132168057Y-131216094D01*
X132168057Y-131216094D02*
X132120438Y-131168475D01*
X132120438Y-131168475D02*
X132072819Y-131073237D01*
X133072819Y-129739904D02*
X132596628Y-130073237D01*
X133072819Y-130311332D02*
X132072819Y-130311332D01*
X132072819Y-130311332D02*
X132072819Y-129930380D01*
X132072819Y-129930380D02*
X132120438Y-129835142D01*
X132120438Y-129835142D02*
X132168057Y-129787523D01*
X132168057Y-129787523D02*
X132263295Y-129739904D01*
X132263295Y-129739904D02*
X132406152Y-129739904D01*
X132406152Y-129739904D02*
X132501390Y-129787523D01*
X132501390Y-129787523D02*
X132549009Y-129835142D01*
X132549009Y-129835142D02*
X132596628Y-129930380D01*
X132596628Y-129930380D02*
X132596628Y-130311332D01*
D11*
X134495149Y-131561333D02*
X134257054Y-131727999D01*
X134495149Y-131847047D02*
X133995149Y-131847047D01*
X133995149Y-131847047D02*
X133995149Y-131656571D01*
X133995149Y-131656571D02*
X134018959Y-131608952D01*
X134018959Y-131608952D02*
X134042768Y-131585142D01*
X134042768Y-131585142D02*
X134090387Y-131561333D01*
X134090387Y-131561333D02*
X134161816Y-131561333D01*
X134161816Y-131561333D02*
X134209435Y-131585142D01*
X134209435Y-131585142D02*
X134233244Y-131608952D01*
X134233244Y-131608952D02*
X134257054Y-131656571D01*
X134257054Y-131656571D02*
X134257054Y-131847047D01*
X134495149Y-131323237D02*
X134495149Y-131227999D01*
X134495149Y-131227999D02*
X134471340Y-131180380D01*
X134471340Y-131180380D02*
X134447530Y-131156571D01*
X134447530Y-131156571D02*
X134376101Y-131108952D01*
X134376101Y-131108952D02*
X134280863Y-131085142D01*
X134280863Y-131085142D02*
X134090387Y-131085142D01*
X134090387Y-131085142D02*
X134042768Y-131108952D01*
X134042768Y-131108952D02*
X134018959Y-131132761D01*
X134018959Y-131132761D02*
X133995149Y-131180380D01*
X133995149Y-131180380D02*
X133995149Y-131275618D01*
X133995149Y-131275618D02*
X134018959Y-131323237D01*
X134018959Y-131323237D02*
X134042768Y-131347047D01*
X134042768Y-131347047D02*
X134090387Y-131370856D01*
X134090387Y-131370856D02*
X134209435Y-131370856D01*
X134209435Y-131370856D02*
X134257054Y-131347047D01*
X134257054Y-131347047D02*
X134280863Y-131323237D01*
X134280863Y-131323237D02*
X134304673Y-131275618D01*
X134304673Y-131275618D02*
X134304673Y-131180380D01*
X134304673Y-131180380D02*
X134280863Y-131132761D01*
X134280863Y-131132761D02*
X134257054Y-131108952D01*
X134257054Y-131108952D02*
X134209435Y-131085142D01*
D10*
X155146819Y-124013285D02*
X155146819Y-124584713D01*
X155146819Y-124298999D02*
X154146819Y-124298999D01*
X154146819Y-124298999D02*
X154289676Y-124394237D01*
X154289676Y-124394237D02*
X154384914Y-124489475D01*
X154384914Y-124489475D02*
X154432533Y-124584713D01*
X155146819Y-123584713D02*
X154146819Y-123584713D01*
X155146819Y-123013285D02*
X154575390Y-123441856D01*
X154146819Y-123013285D02*
X154718247Y-123584713D01*
D11*
X156569149Y-124120428D02*
X156331054Y-124287094D01*
X156569149Y-124406142D02*
X156069149Y-124406142D01*
X156069149Y-124406142D02*
X156069149Y-124215666D01*
X156069149Y-124215666D02*
X156092959Y-124168047D01*
X156092959Y-124168047D02*
X156116768Y-124144237D01*
X156116768Y-124144237D02*
X156164387Y-124120428D01*
X156164387Y-124120428D02*
X156235816Y-124120428D01*
X156235816Y-124120428D02*
X156283435Y-124144237D01*
X156283435Y-124144237D02*
X156307244Y-124168047D01*
X156307244Y-124168047D02*
X156331054Y-124215666D01*
X156331054Y-124215666D02*
X156331054Y-124406142D01*
X156569149Y-123644237D02*
X156569149Y-123929951D01*
X156569149Y-123787094D02*
X156069149Y-123787094D01*
X156069149Y-123787094D02*
X156140578Y-123834713D01*
X156140578Y-123834713D02*
X156188197Y-123882332D01*
X156188197Y-123882332D02*
X156212006Y-123929951D01*
X156069149Y-123334714D02*
X156069149Y-123287095D01*
X156069149Y-123287095D02*
X156092959Y-123239476D01*
X156092959Y-123239476D02*
X156116768Y-123215666D01*
X156116768Y-123215666D02*
X156164387Y-123191857D01*
X156164387Y-123191857D02*
X156259625Y-123168047D01*
X156259625Y-123168047D02*
X156378673Y-123168047D01*
X156378673Y-123168047D02*
X156473911Y-123191857D01*
X156473911Y-123191857D02*
X156521530Y-123215666D01*
X156521530Y-123215666D02*
X156545340Y-123239476D01*
X156545340Y-123239476D02*
X156569149Y-123287095D01*
X156569149Y-123287095D02*
X156569149Y-123334714D01*
X156569149Y-123334714D02*
X156545340Y-123382333D01*
X156545340Y-123382333D02*
X156521530Y-123406142D01*
X156521530Y-123406142D02*
X156473911Y-123429952D01*
X156473911Y-123429952D02*
X156378673Y-123453761D01*
X156378673Y-123453761D02*
X156259625Y-123453761D01*
X156259625Y-123453761D02*
X156164387Y-123429952D01*
X156164387Y-123429952D02*
X156116768Y-123406142D01*
X156116768Y-123406142D02*
X156092959Y-123382333D01*
X156092959Y-123382333D02*
X156069149Y-123334714D01*
D10*
X148886819Y-132872666D02*
X148886819Y-133444094D01*
X148886819Y-133158380D02*
X147886819Y-133158380D01*
X147886819Y-133158380D02*
X148029676Y-133253618D01*
X148029676Y-133253618D02*
X148124914Y-133348856D01*
X148124914Y-133348856D02*
X148172533Y-133444094D01*
X147982057Y-132491713D02*
X147934438Y-132444094D01*
X147934438Y-132444094D02*
X147886819Y-132348856D01*
X147886819Y-132348856D02*
X147886819Y-132110761D01*
X147886819Y-132110761D02*
X147934438Y-132015523D01*
X147934438Y-132015523D02*
X147982057Y-131967904D01*
X147982057Y-131967904D02*
X148077295Y-131920285D01*
X148077295Y-131920285D02*
X148172533Y-131920285D01*
X148172533Y-131920285D02*
X148315390Y-131967904D01*
X148315390Y-131967904D02*
X148886819Y-132539332D01*
X148886819Y-132539332D02*
X148886819Y-131920285D01*
X147886819Y-131301237D02*
X147886819Y-131205999D01*
X147886819Y-131205999D02*
X147934438Y-131110761D01*
X147934438Y-131110761D02*
X147982057Y-131063142D01*
X147982057Y-131063142D02*
X148077295Y-131015523D01*
X148077295Y-131015523D02*
X148267771Y-130967904D01*
X148267771Y-130967904D02*
X148505866Y-130967904D01*
X148505866Y-130967904D02*
X148696342Y-131015523D01*
X148696342Y-131015523D02*
X148791580Y-131063142D01*
X148791580Y-131063142D02*
X148839200Y-131110761D01*
X148839200Y-131110761D02*
X148886819Y-131205999D01*
X148886819Y-131205999D02*
X148886819Y-131301237D01*
X148886819Y-131301237D02*
X148839200Y-131396475D01*
X148839200Y-131396475D02*
X148791580Y-131444094D01*
X148791580Y-131444094D02*
X148696342Y-131491713D01*
X148696342Y-131491713D02*
X148505866Y-131539332D01*
X148505866Y-131539332D02*
X148267771Y-131539332D01*
X148267771Y-131539332D02*
X148077295Y-131491713D01*
X148077295Y-131491713D02*
X147982057Y-131444094D01*
X147982057Y-131444094D02*
X147934438Y-131396475D01*
X147934438Y-131396475D02*
X147886819Y-131301237D01*
X148886819Y-129967904D02*
X148410628Y-130301237D01*
X148886819Y-130539332D02*
X147886819Y-130539332D01*
X147886819Y-130539332D02*
X147886819Y-130158380D01*
X147886819Y-130158380D02*
X147934438Y-130063142D01*
X147934438Y-130063142D02*
X147982057Y-130015523D01*
X147982057Y-130015523D02*
X148077295Y-129967904D01*
X148077295Y-129967904D02*
X148220152Y-129967904D01*
X148220152Y-129967904D02*
X148315390Y-130015523D01*
X148315390Y-130015523D02*
X148363009Y-130063142D01*
X148363009Y-130063142D02*
X148410628Y-130158380D01*
X148410628Y-130158380D02*
X148410628Y-130539332D01*
D11*
X150309149Y-132027428D02*
X150071054Y-132194094D01*
X150309149Y-132313142D02*
X149809149Y-132313142D01*
X149809149Y-132313142D02*
X149809149Y-132122666D01*
X149809149Y-132122666D02*
X149832959Y-132075047D01*
X149832959Y-132075047D02*
X149856768Y-132051237D01*
X149856768Y-132051237D02*
X149904387Y-132027428D01*
X149904387Y-132027428D02*
X149975816Y-132027428D01*
X149975816Y-132027428D02*
X150023435Y-132051237D01*
X150023435Y-132051237D02*
X150047244Y-132075047D01*
X150047244Y-132075047D02*
X150071054Y-132122666D01*
X150071054Y-132122666D02*
X150071054Y-132313142D01*
X150309149Y-131551237D02*
X150309149Y-131836951D01*
X150309149Y-131694094D02*
X149809149Y-131694094D01*
X149809149Y-131694094D02*
X149880578Y-131741713D01*
X149880578Y-131741713D02*
X149928197Y-131789332D01*
X149928197Y-131789332D02*
X149952006Y-131836951D01*
X150309149Y-131075047D02*
X150309149Y-131360761D01*
X150309149Y-131217904D02*
X149809149Y-131217904D01*
X149809149Y-131217904D02*
X149880578Y-131265523D01*
X149880578Y-131265523D02*
X149928197Y-131313142D01*
X149928197Y-131313142D02*
X149952006Y-131360761D01*
D10*
X149552380Y-129404819D02*
X149219047Y-128928628D01*
X148980952Y-129404819D02*
X148980952Y-128404819D01*
X148980952Y-128404819D02*
X149361904Y-128404819D01*
X149361904Y-128404819D02*
X149457142Y-128452438D01*
X149457142Y-128452438D02*
X149504761Y-128500057D01*
X149504761Y-128500057D02*
X149552380Y-128595295D01*
X149552380Y-128595295D02*
X149552380Y-128738152D01*
X149552380Y-128738152D02*
X149504761Y-128833390D01*
X149504761Y-128833390D02*
X149457142Y-128881009D01*
X149457142Y-128881009D02*
X149361904Y-128928628D01*
X149361904Y-128928628D02*
X148980952Y-128928628D01*
X149933333Y-129357200D02*
X150076190Y-129404819D01*
X150076190Y-129404819D02*
X150314285Y-129404819D01*
X150314285Y-129404819D02*
X150409523Y-129357200D01*
X150409523Y-129357200D02*
X150457142Y-129309580D01*
X150457142Y-129309580D02*
X150504761Y-129214342D01*
X150504761Y-129214342D02*
X150504761Y-129119104D01*
X150504761Y-129119104D02*
X150457142Y-129023866D01*
X150457142Y-129023866D02*
X150409523Y-128976247D01*
X150409523Y-128976247D02*
X150314285Y-128928628D01*
X150314285Y-128928628D02*
X150123809Y-128881009D01*
X150123809Y-128881009D02*
X150028571Y-128833390D01*
X150028571Y-128833390D02*
X149980952Y-128785771D01*
X149980952Y-128785771D02*
X149933333Y-128690533D01*
X149933333Y-128690533D02*
X149933333Y-128595295D01*
X149933333Y-128595295D02*
X149980952Y-128500057D01*
X149980952Y-128500057D02*
X150028571Y-128452438D01*
X150028571Y-128452438D02*
X150123809Y-128404819D01*
X150123809Y-128404819D02*
X150361904Y-128404819D01*
X150361904Y-128404819D02*
X150504761Y-128452438D01*
X150790476Y-128404819D02*
X151361904Y-128404819D01*
X151076190Y-129404819D02*
X151076190Y-128404819D01*
X148766667Y-121857200D02*
X148909524Y-121904819D01*
X148909524Y-121904819D02*
X149147619Y-121904819D01*
X149147619Y-121904819D02*
X149242857Y-121857200D01*
X149242857Y-121857200D02*
X149290476Y-121809580D01*
X149290476Y-121809580D02*
X149338095Y-121714342D01*
X149338095Y-121714342D02*
X149338095Y-121619104D01*
X149338095Y-121619104D02*
X149290476Y-121523866D01*
X149290476Y-121523866D02*
X149242857Y-121476247D01*
X149242857Y-121476247D02*
X149147619Y-121428628D01*
X149147619Y-121428628D02*
X148957143Y-121381009D01*
X148957143Y-121381009D02*
X148861905Y-121333390D01*
X148861905Y-121333390D02*
X148814286Y-121285771D01*
X148814286Y-121285771D02*
X148766667Y-121190533D01*
X148766667Y-121190533D02*
X148766667Y-121095295D01*
X148766667Y-121095295D02*
X148814286Y-121000057D01*
X148814286Y-121000057D02*
X148861905Y-120952438D01*
X148861905Y-120952438D02*
X148957143Y-120904819D01*
X148957143Y-120904819D02*
X149195238Y-120904819D01*
X149195238Y-120904819D02*
X149338095Y-120952438D01*
X149671429Y-120904819D02*
X149909524Y-121904819D01*
X149909524Y-121904819D02*
X150100000Y-121190533D01*
X150100000Y-121190533D02*
X150290476Y-121904819D01*
X150290476Y-121904819D02*
X150528572Y-120904819D01*
X151433333Y-121904819D02*
X150861905Y-121904819D01*
X151147619Y-121904819D02*
X151147619Y-120904819D01*
X151147619Y-120904819D02*
X151052381Y-121047676D01*
X151052381Y-121047676D02*
X150957143Y-121142914D01*
X150957143Y-121142914D02*
X150861905Y-121190533D01*
X142719104Y-118749999D02*
X142719104Y-118273809D01*
X143004819Y-118845237D02*
X142004819Y-118511904D01*
X142004819Y-118511904D02*
X143004819Y-118178571D01*
X142004819Y-117988094D02*
X142004819Y-117416666D01*
X143004819Y-117702380D02*
X142004819Y-117702380D01*
X142957200Y-117130951D02*
X143004819Y-116988094D01*
X143004819Y-116988094D02*
X143004819Y-116749999D01*
X143004819Y-116749999D02*
X142957200Y-116654761D01*
X142957200Y-116654761D02*
X142909580Y-116607142D01*
X142909580Y-116607142D02*
X142814342Y-116559523D01*
X142814342Y-116559523D02*
X142719104Y-116559523D01*
X142719104Y-116559523D02*
X142623866Y-116607142D01*
X142623866Y-116607142D02*
X142576247Y-116654761D01*
X142576247Y-116654761D02*
X142528628Y-116749999D01*
X142528628Y-116749999D02*
X142481009Y-116940475D01*
X142481009Y-116940475D02*
X142433390Y-117035713D01*
X142433390Y-117035713D02*
X142385771Y-117083332D01*
X142385771Y-117083332D02*
X142290533Y-117130951D01*
X142290533Y-117130951D02*
X142195295Y-117130951D01*
X142195295Y-117130951D02*
X142100057Y-117083332D01*
X142100057Y-117083332D02*
X142052438Y-117035713D01*
X142052438Y-117035713D02*
X142004819Y-116940475D01*
X142004819Y-116940475D02*
X142004819Y-116702380D01*
X142004819Y-116702380D02*
X142052438Y-116559523D01*
X142719104Y-116178570D02*
X142719104Y-115702380D01*
X143004819Y-116273808D02*
X142004819Y-115940475D01*
X142004819Y-115940475D02*
X143004819Y-115607142D01*
X143004819Y-115273808D02*
X142004819Y-115273808D01*
X142004819Y-115273808D02*
X142719104Y-114940475D01*
X142719104Y-114940475D02*
X142004819Y-114607142D01*
X142004819Y-114607142D02*
X143004819Y-114607142D01*
X143004819Y-114130951D02*
X142004819Y-114130951D01*
X142004819Y-114130951D02*
X142004819Y-113892856D01*
X142004819Y-113892856D02*
X142052438Y-113749999D01*
X142052438Y-113749999D02*
X142147676Y-113654761D01*
X142147676Y-113654761D02*
X142242914Y-113607142D01*
X142242914Y-113607142D02*
X142433390Y-113559523D01*
X142433390Y-113559523D02*
X142576247Y-113559523D01*
X142576247Y-113559523D02*
X142766723Y-113607142D01*
X142766723Y-113607142D02*
X142861961Y-113654761D01*
X142861961Y-113654761D02*
X142957200Y-113749999D01*
X142957200Y-113749999D02*
X143004819Y-113892856D01*
X143004819Y-113892856D02*
X143004819Y-114130951D01*
X142100057Y-113178570D02*
X142052438Y-113130951D01*
X142052438Y-113130951D02*
X142004819Y-113035713D01*
X142004819Y-113035713D02*
X142004819Y-112797618D01*
X142004819Y-112797618D02*
X142052438Y-112702380D01*
X142052438Y-112702380D02*
X142100057Y-112654761D01*
X142100057Y-112654761D02*
X142195295Y-112607142D01*
X142195295Y-112607142D02*
X142290533Y-112607142D01*
X142290533Y-112607142D02*
X142433390Y-112654761D01*
X142433390Y-112654761D02*
X143004819Y-113226189D01*
X143004819Y-113226189D02*
X143004819Y-112607142D01*
X143004819Y-111654761D02*
X143004819Y-112226189D01*
X143004819Y-111940475D02*
X142004819Y-111940475D01*
X142004819Y-111940475D02*
X142147676Y-112035713D01*
X142147676Y-112035713D02*
X142242914Y-112130951D01*
X142242914Y-112130951D02*
X142290533Y-112226189D01*
X142481009Y-111226189D02*
X142481009Y-110892856D01*
X143004819Y-110749999D02*
X143004819Y-111226189D01*
X143004819Y-111226189D02*
X142004819Y-111226189D01*
X142004819Y-111226189D02*
X142004819Y-110749999D01*
X135954819Y-115511904D02*
X136764342Y-115511904D01*
X136764342Y-115511904D02*
X136859580Y-115464285D01*
X136859580Y-115464285D02*
X136907200Y-115416666D01*
X136907200Y-115416666D02*
X136954819Y-115321428D01*
X136954819Y-115321428D02*
X136954819Y-115130952D01*
X136954819Y-115130952D02*
X136907200Y-115035714D01*
X136907200Y-115035714D02*
X136859580Y-114988095D01*
X136859580Y-114988095D02*
X136764342Y-114940476D01*
X136764342Y-114940476D02*
X135954819Y-114940476D01*
X136954819Y-113940476D02*
X136954819Y-114511904D01*
X136954819Y-114226190D02*
X135954819Y-114226190D01*
X135954819Y-114226190D02*
X136097676Y-114321428D01*
X136097676Y-114321428D02*
X136192914Y-114416666D01*
X136192914Y-114416666D02*
X136240533Y-114511904D01*
X150984819Y-86357619D02*
X150984819Y-86833809D01*
X150984819Y-86833809D02*
X149984819Y-86833809D01*
X149984819Y-86167142D02*
X149984819Y-85595714D01*
X150984819Y-85881428D02*
X149984819Y-85881428D01*
X149984819Y-85405237D02*
X150984819Y-85071904D01*
X150984819Y-85071904D02*
X149984819Y-84738571D01*
X150603866Y-84405237D02*
X150603866Y-83643333D01*
X150413390Y-83024285D02*
X150365771Y-83119523D01*
X150365771Y-83119523D02*
X150318152Y-83167142D01*
X150318152Y-83167142D02*
X150222914Y-83214761D01*
X150222914Y-83214761D02*
X150175295Y-83214761D01*
X150175295Y-83214761D02*
X150080057Y-83167142D01*
X150080057Y-83167142D02*
X150032438Y-83119523D01*
X150032438Y-83119523D02*
X149984819Y-83024285D01*
X149984819Y-83024285D02*
X149984819Y-82833809D01*
X149984819Y-82833809D02*
X150032438Y-82738571D01*
X150032438Y-82738571D02*
X150080057Y-82690952D01*
X150080057Y-82690952D02*
X150175295Y-82643333D01*
X150175295Y-82643333D02*
X150222914Y-82643333D01*
X150222914Y-82643333D02*
X150318152Y-82690952D01*
X150318152Y-82690952D02*
X150365771Y-82738571D01*
X150365771Y-82738571D02*
X150413390Y-82833809D01*
X150413390Y-82833809D02*
X150413390Y-83024285D01*
X150413390Y-83024285D02*
X150461009Y-83119523D01*
X150461009Y-83119523D02*
X150508628Y-83167142D01*
X150508628Y-83167142D02*
X150603866Y-83214761D01*
X150603866Y-83214761D02*
X150794342Y-83214761D01*
X150794342Y-83214761D02*
X150889580Y-83167142D01*
X150889580Y-83167142D02*
X150937200Y-83119523D01*
X150937200Y-83119523D02*
X150984819Y-83024285D01*
X150984819Y-83024285D02*
X150984819Y-82833809D01*
X150984819Y-82833809D02*
X150937200Y-82738571D01*
X150937200Y-82738571D02*
X150889580Y-82690952D01*
X150889580Y-82690952D02*
X150794342Y-82643333D01*
X150794342Y-82643333D02*
X150603866Y-82643333D01*
X150603866Y-82643333D02*
X150508628Y-82690952D01*
X150508628Y-82690952D02*
X150461009Y-82738571D01*
X150461009Y-82738571D02*
X150413390Y-82833809D01*
X150984819Y-81690952D02*
X150984819Y-82262380D01*
X150984819Y-81976666D02*
X149984819Y-81976666D01*
X149984819Y-81976666D02*
X150127676Y-82071904D01*
X150127676Y-82071904D02*
X150222914Y-82167142D01*
X150222914Y-82167142D02*
X150270533Y-82262380D01*
X149984819Y-81357618D02*
X149984819Y-80690952D01*
X149984819Y-80690952D02*
X150984819Y-81119523D01*
X153584819Y-84571904D02*
X154394342Y-84571904D01*
X154394342Y-84571904D02*
X154489580Y-84524285D01*
X154489580Y-84524285D02*
X154537200Y-84476666D01*
X154537200Y-84476666D02*
X154584819Y-84381428D01*
X154584819Y-84381428D02*
X154584819Y-84190952D01*
X154584819Y-84190952D02*
X154537200Y-84095714D01*
X154537200Y-84095714D02*
X154489580Y-84048095D01*
X154489580Y-84048095D02*
X154394342Y-84000476D01*
X154394342Y-84000476D02*
X153584819Y-84000476D01*
X153584819Y-83619523D02*
X153584819Y-83000476D01*
X153584819Y-83000476D02*
X153965771Y-83333809D01*
X153965771Y-83333809D02*
X153965771Y-83190952D01*
X153965771Y-83190952D02*
X154013390Y-83095714D01*
X154013390Y-83095714D02*
X154061009Y-83048095D01*
X154061009Y-83048095D02*
X154156247Y-83000476D01*
X154156247Y-83000476D02*
X154394342Y-83000476D01*
X154394342Y-83000476D02*
X154489580Y-83048095D01*
X154489580Y-83048095D02*
X154537200Y-83095714D01*
X154537200Y-83095714D02*
X154584819Y-83190952D01*
X154584819Y-83190952D02*
X154584819Y-83476666D01*
X154584819Y-83476666D02*
X154537200Y-83571904D01*
X154537200Y-83571904D02*
X154489580Y-83619523D01*
X140784819Y-86357619D02*
X140784819Y-86833809D01*
X140784819Y-86833809D02*
X139784819Y-86833809D01*
X139784819Y-86167142D02*
X139784819Y-85595714D01*
X140784819Y-85881428D02*
X139784819Y-85881428D01*
X139784819Y-85405237D02*
X140784819Y-85071904D01*
X140784819Y-85071904D02*
X139784819Y-84738571D01*
X140403866Y-84405237D02*
X140403866Y-83643333D01*
X140213390Y-83024285D02*
X140165771Y-83119523D01*
X140165771Y-83119523D02*
X140118152Y-83167142D01*
X140118152Y-83167142D02*
X140022914Y-83214761D01*
X140022914Y-83214761D02*
X139975295Y-83214761D01*
X139975295Y-83214761D02*
X139880057Y-83167142D01*
X139880057Y-83167142D02*
X139832438Y-83119523D01*
X139832438Y-83119523D02*
X139784819Y-83024285D01*
X139784819Y-83024285D02*
X139784819Y-82833809D01*
X139784819Y-82833809D02*
X139832438Y-82738571D01*
X139832438Y-82738571D02*
X139880057Y-82690952D01*
X139880057Y-82690952D02*
X139975295Y-82643333D01*
X139975295Y-82643333D02*
X140022914Y-82643333D01*
X140022914Y-82643333D02*
X140118152Y-82690952D01*
X140118152Y-82690952D02*
X140165771Y-82738571D01*
X140165771Y-82738571D02*
X140213390Y-82833809D01*
X140213390Y-82833809D02*
X140213390Y-83024285D01*
X140213390Y-83024285D02*
X140261009Y-83119523D01*
X140261009Y-83119523D02*
X140308628Y-83167142D01*
X140308628Y-83167142D02*
X140403866Y-83214761D01*
X140403866Y-83214761D02*
X140594342Y-83214761D01*
X140594342Y-83214761D02*
X140689580Y-83167142D01*
X140689580Y-83167142D02*
X140737200Y-83119523D01*
X140737200Y-83119523D02*
X140784819Y-83024285D01*
X140784819Y-83024285D02*
X140784819Y-82833809D01*
X140784819Y-82833809D02*
X140737200Y-82738571D01*
X140737200Y-82738571D02*
X140689580Y-82690952D01*
X140689580Y-82690952D02*
X140594342Y-82643333D01*
X140594342Y-82643333D02*
X140403866Y-82643333D01*
X140403866Y-82643333D02*
X140308628Y-82690952D01*
X140308628Y-82690952D02*
X140261009Y-82738571D01*
X140261009Y-82738571D02*
X140213390Y-82833809D01*
X140784819Y-81690952D02*
X140784819Y-82262380D01*
X140784819Y-81976666D02*
X139784819Y-81976666D01*
X139784819Y-81976666D02*
X139927676Y-82071904D01*
X139927676Y-82071904D02*
X140022914Y-82167142D01*
X140022914Y-82167142D02*
X140070533Y-82262380D01*
X139784819Y-81357618D02*
X139784819Y-80690952D01*
X139784819Y-80690952D02*
X140784819Y-81119523D01*
X143384819Y-84571904D02*
X144194342Y-84571904D01*
X144194342Y-84571904D02*
X144289580Y-84524285D01*
X144289580Y-84524285D02*
X144337200Y-84476666D01*
X144337200Y-84476666D02*
X144384819Y-84381428D01*
X144384819Y-84381428D02*
X144384819Y-84190952D01*
X144384819Y-84190952D02*
X144337200Y-84095714D01*
X144337200Y-84095714D02*
X144289580Y-84048095D01*
X144289580Y-84048095D02*
X144194342Y-84000476D01*
X144194342Y-84000476D02*
X143384819Y-84000476D01*
X143718152Y-83095714D02*
X144384819Y-83095714D01*
X143337200Y-83333809D02*
X144051485Y-83571904D01*
X144051485Y-83571904D02*
X144051485Y-82952857D01*
X130784819Y-86357619D02*
X130784819Y-86833809D01*
X130784819Y-86833809D02*
X129784819Y-86833809D01*
X129784819Y-86167142D02*
X129784819Y-85595714D01*
X130784819Y-85881428D02*
X129784819Y-85881428D01*
X129784819Y-85405237D02*
X130784819Y-85071904D01*
X130784819Y-85071904D02*
X129784819Y-84738571D01*
X130403866Y-84405237D02*
X130403866Y-83643333D01*
X130213390Y-83024285D02*
X130165771Y-83119523D01*
X130165771Y-83119523D02*
X130118152Y-83167142D01*
X130118152Y-83167142D02*
X130022914Y-83214761D01*
X130022914Y-83214761D02*
X129975295Y-83214761D01*
X129975295Y-83214761D02*
X129880057Y-83167142D01*
X129880057Y-83167142D02*
X129832438Y-83119523D01*
X129832438Y-83119523D02*
X129784819Y-83024285D01*
X129784819Y-83024285D02*
X129784819Y-82833809D01*
X129784819Y-82833809D02*
X129832438Y-82738571D01*
X129832438Y-82738571D02*
X129880057Y-82690952D01*
X129880057Y-82690952D02*
X129975295Y-82643333D01*
X129975295Y-82643333D02*
X130022914Y-82643333D01*
X130022914Y-82643333D02*
X130118152Y-82690952D01*
X130118152Y-82690952D02*
X130165771Y-82738571D01*
X130165771Y-82738571D02*
X130213390Y-82833809D01*
X130213390Y-82833809D02*
X130213390Y-83024285D01*
X130213390Y-83024285D02*
X130261009Y-83119523D01*
X130261009Y-83119523D02*
X130308628Y-83167142D01*
X130308628Y-83167142D02*
X130403866Y-83214761D01*
X130403866Y-83214761D02*
X130594342Y-83214761D01*
X130594342Y-83214761D02*
X130689580Y-83167142D01*
X130689580Y-83167142D02*
X130737200Y-83119523D01*
X130737200Y-83119523D02*
X130784819Y-83024285D01*
X130784819Y-83024285D02*
X130784819Y-82833809D01*
X130784819Y-82833809D02*
X130737200Y-82738571D01*
X130737200Y-82738571D02*
X130689580Y-82690952D01*
X130689580Y-82690952D02*
X130594342Y-82643333D01*
X130594342Y-82643333D02*
X130403866Y-82643333D01*
X130403866Y-82643333D02*
X130308628Y-82690952D01*
X130308628Y-82690952D02*
X130261009Y-82738571D01*
X130261009Y-82738571D02*
X130213390Y-82833809D01*
X130784819Y-81690952D02*
X130784819Y-82262380D01*
X130784819Y-81976666D02*
X129784819Y-81976666D01*
X129784819Y-81976666D02*
X129927676Y-82071904D01*
X129927676Y-82071904D02*
X130022914Y-82167142D01*
X130022914Y-82167142D02*
X130070533Y-82262380D01*
X129784819Y-81357618D02*
X129784819Y-80690952D01*
X129784819Y-80690952D02*
X130784819Y-81119523D01*
X133384819Y-84571904D02*
X134194342Y-84571904D01*
X134194342Y-84571904D02*
X134289580Y-84524285D01*
X134289580Y-84524285D02*
X134337200Y-84476666D01*
X134337200Y-84476666D02*
X134384819Y-84381428D01*
X134384819Y-84381428D02*
X134384819Y-84190952D01*
X134384819Y-84190952D02*
X134337200Y-84095714D01*
X134337200Y-84095714D02*
X134289580Y-84048095D01*
X134289580Y-84048095D02*
X134194342Y-84000476D01*
X134194342Y-84000476D02*
X133384819Y-84000476D01*
X133384819Y-83048095D02*
X133384819Y-83524285D01*
X133384819Y-83524285D02*
X133861009Y-83571904D01*
X133861009Y-83571904D02*
X133813390Y-83524285D01*
X133813390Y-83524285D02*
X133765771Y-83429047D01*
X133765771Y-83429047D02*
X133765771Y-83190952D01*
X133765771Y-83190952D02*
X133813390Y-83095714D01*
X133813390Y-83095714D02*
X133861009Y-83048095D01*
X133861009Y-83048095D02*
X133956247Y-83000476D01*
X133956247Y-83000476D02*
X134194342Y-83000476D01*
X134194342Y-83000476D02*
X134289580Y-83048095D01*
X134289580Y-83048095D02*
X134337200Y-83095714D01*
X134337200Y-83095714D02*
X134384819Y-83190952D01*
X134384819Y-83190952D02*
X134384819Y-83429047D01*
X134384819Y-83429047D02*
X134337200Y-83524285D01*
X134337200Y-83524285D02*
X134289580Y-83571904D01*
X149593333Y-96416319D02*
X149117143Y-96416319D01*
X149117143Y-96416319D02*
X149117143Y-95416319D01*
X149926667Y-96416319D02*
X149926667Y-95416319D01*
X149926667Y-95416319D02*
X150260000Y-96130604D01*
X150260000Y-96130604D02*
X150593333Y-95416319D01*
X150593333Y-95416319D02*
X150593333Y-96416319D01*
X151021905Y-95511557D02*
X151069524Y-95463938D01*
X151069524Y-95463938D02*
X151164762Y-95416319D01*
X151164762Y-95416319D02*
X151402857Y-95416319D01*
X151402857Y-95416319D02*
X151498095Y-95463938D01*
X151498095Y-95463938D02*
X151545714Y-95511557D01*
X151545714Y-95511557D02*
X151593333Y-95606795D01*
X151593333Y-95606795D02*
X151593333Y-95702033D01*
X151593333Y-95702033D02*
X151545714Y-95844890D01*
X151545714Y-95844890D02*
X150974286Y-96416319D01*
X150974286Y-96416319D02*
X151593333Y-96416319D01*
X152498095Y-95416319D02*
X152021905Y-95416319D01*
X152021905Y-95416319D02*
X151974286Y-95892509D01*
X151974286Y-95892509D02*
X152021905Y-95844890D01*
X152021905Y-95844890D02*
X152117143Y-95797271D01*
X152117143Y-95797271D02*
X152355238Y-95797271D01*
X152355238Y-95797271D02*
X152450476Y-95844890D01*
X152450476Y-95844890D02*
X152498095Y-95892509D01*
X152498095Y-95892509D02*
X152545714Y-95987747D01*
X152545714Y-95987747D02*
X152545714Y-96225842D01*
X152545714Y-96225842D02*
X152498095Y-96321080D01*
X152498095Y-96321080D02*
X152450476Y-96368700D01*
X152450476Y-96368700D02*
X152355238Y-96416319D01*
X152355238Y-96416319D02*
X152117143Y-96416319D01*
X152117143Y-96416319D02*
X152021905Y-96368700D01*
X152021905Y-96368700D02*
X151974286Y-96321080D01*
X153021905Y-96416319D02*
X153212381Y-96416319D01*
X153212381Y-96416319D02*
X153307619Y-96368700D01*
X153307619Y-96368700D02*
X153355238Y-96321080D01*
X153355238Y-96321080D02*
X153450476Y-96178223D01*
X153450476Y-96178223D02*
X153498095Y-95987747D01*
X153498095Y-95987747D02*
X153498095Y-95606795D01*
X153498095Y-95606795D02*
X153450476Y-95511557D01*
X153450476Y-95511557D02*
X153402857Y-95463938D01*
X153402857Y-95463938D02*
X153307619Y-95416319D01*
X153307619Y-95416319D02*
X153117143Y-95416319D01*
X153117143Y-95416319D02*
X153021905Y-95463938D01*
X153021905Y-95463938D02*
X152974286Y-95511557D01*
X152974286Y-95511557D02*
X152926667Y-95606795D01*
X152926667Y-95606795D02*
X152926667Y-95844890D01*
X152926667Y-95844890D02*
X152974286Y-95940128D01*
X152974286Y-95940128D02*
X153021905Y-95987747D01*
X153021905Y-95987747D02*
X153117143Y-96035366D01*
X153117143Y-96035366D02*
X153307619Y-96035366D01*
X153307619Y-96035366D02*
X153402857Y-95987747D01*
X153402857Y-95987747D02*
X153450476Y-95940128D01*
X153450476Y-95940128D02*
X153498095Y-95844890D01*
X154355238Y-95416319D02*
X154164762Y-95416319D01*
X154164762Y-95416319D02*
X154069524Y-95463938D01*
X154069524Y-95463938D02*
X154021905Y-95511557D01*
X154021905Y-95511557D02*
X153926667Y-95654414D01*
X153926667Y-95654414D02*
X153879048Y-95844890D01*
X153879048Y-95844890D02*
X153879048Y-96225842D01*
X153879048Y-96225842D02*
X153926667Y-96321080D01*
X153926667Y-96321080D02*
X153974286Y-96368700D01*
X153974286Y-96368700D02*
X154069524Y-96416319D01*
X154069524Y-96416319D02*
X154260000Y-96416319D01*
X154260000Y-96416319D02*
X154355238Y-96368700D01*
X154355238Y-96368700D02*
X154402857Y-96321080D01*
X154402857Y-96321080D02*
X154450476Y-96225842D01*
X154450476Y-96225842D02*
X154450476Y-95987747D01*
X154450476Y-95987747D02*
X154402857Y-95892509D01*
X154402857Y-95892509D02*
X154355238Y-95844890D01*
X154355238Y-95844890D02*
X154260000Y-95797271D01*
X154260000Y-95797271D02*
X154069524Y-95797271D01*
X154069524Y-95797271D02*
X153974286Y-95844890D01*
X153974286Y-95844890D02*
X153926667Y-95892509D01*
X153926667Y-95892509D02*
X153879048Y-95987747D01*
X154640953Y-96511557D02*
X155402857Y-96511557D01*
X155640953Y-96416319D02*
X155640953Y-95416319D01*
X155640953Y-95416319D02*
X155879048Y-95416319D01*
X155879048Y-95416319D02*
X156021905Y-95463938D01*
X156021905Y-95463938D02*
X156117143Y-95559176D01*
X156117143Y-95559176D02*
X156164762Y-95654414D01*
X156164762Y-95654414D02*
X156212381Y-95844890D01*
X156212381Y-95844890D02*
X156212381Y-95987747D01*
X156212381Y-95987747D02*
X156164762Y-96178223D01*
X156164762Y-96178223D02*
X156117143Y-96273461D01*
X156117143Y-96273461D02*
X156021905Y-96368700D01*
X156021905Y-96368700D02*
X155879048Y-96416319D01*
X155879048Y-96416319D02*
X155640953Y-96416319D01*
X157212381Y-96321080D02*
X157164762Y-96368700D01*
X157164762Y-96368700D02*
X157021905Y-96416319D01*
X157021905Y-96416319D02*
X156926667Y-96416319D01*
X156926667Y-96416319D02*
X156783810Y-96368700D01*
X156783810Y-96368700D02*
X156688572Y-96273461D01*
X156688572Y-96273461D02*
X156640953Y-96178223D01*
X156640953Y-96178223D02*
X156593334Y-95987747D01*
X156593334Y-95987747D02*
X156593334Y-95844890D01*
X156593334Y-95844890D02*
X156640953Y-95654414D01*
X156640953Y-95654414D02*
X156688572Y-95559176D01*
X156688572Y-95559176D02*
X156783810Y-95463938D01*
X156783810Y-95463938D02*
X156926667Y-95416319D01*
X156926667Y-95416319D02*
X157021905Y-95416319D01*
X157021905Y-95416319D02*
X157164762Y-95463938D01*
X157164762Y-95463938D02*
X157212381Y-95511557D01*
X157640953Y-96035366D02*
X158402858Y-96035366D01*
X158879048Y-96416319D02*
X158879048Y-95416319D01*
X158879048Y-95416319D02*
X159117143Y-95416319D01*
X159117143Y-95416319D02*
X159260000Y-95463938D01*
X159260000Y-95463938D02*
X159355238Y-95559176D01*
X159355238Y-95559176D02*
X159402857Y-95654414D01*
X159402857Y-95654414D02*
X159450476Y-95844890D01*
X159450476Y-95844890D02*
X159450476Y-95987747D01*
X159450476Y-95987747D02*
X159402857Y-96178223D01*
X159402857Y-96178223D02*
X159355238Y-96273461D01*
X159355238Y-96273461D02*
X159260000Y-96368700D01*
X159260000Y-96368700D02*
X159117143Y-96416319D01*
X159117143Y-96416319D02*
X158879048Y-96416319D01*
X160450476Y-96321080D02*
X160402857Y-96368700D01*
X160402857Y-96368700D02*
X160260000Y-96416319D01*
X160260000Y-96416319D02*
X160164762Y-96416319D01*
X160164762Y-96416319D02*
X160021905Y-96368700D01*
X160021905Y-96368700D02*
X159926667Y-96273461D01*
X159926667Y-96273461D02*
X159879048Y-96178223D01*
X159879048Y-96178223D02*
X159831429Y-95987747D01*
X159831429Y-95987747D02*
X159831429Y-95844890D01*
X159831429Y-95844890D02*
X159879048Y-95654414D01*
X159879048Y-95654414D02*
X159926667Y-95559176D01*
X159926667Y-95559176D02*
X160021905Y-95463938D01*
X160021905Y-95463938D02*
X160164762Y-95416319D01*
X160164762Y-95416319D02*
X160260000Y-95416319D01*
X160260000Y-95416319D02*
X160402857Y-95463938D01*
X160402857Y-95463938D02*
X160450476Y-95511557D01*
X129151104Y-110443332D02*
X129151104Y-109967142D01*
X129436819Y-110538570D02*
X128436819Y-110205237D01*
X128436819Y-110205237D02*
X129436819Y-109871904D01*
X129436819Y-109538570D02*
X128436819Y-109538570D01*
X128436819Y-109538570D02*
X128436819Y-109157618D01*
X128436819Y-109157618D02*
X128484438Y-109062380D01*
X128484438Y-109062380D02*
X128532057Y-109014761D01*
X128532057Y-109014761D02*
X128627295Y-108967142D01*
X128627295Y-108967142D02*
X128770152Y-108967142D01*
X128770152Y-108967142D02*
X128865390Y-109014761D01*
X128865390Y-109014761D02*
X128913009Y-109062380D01*
X128913009Y-109062380D02*
X128960628Y-109157618D01*
X128960628Y-109157618D02*
X128960628Y-109538570D01*
X128532057Y-108586189D02*
X128484438Y-108538570D01*
X128484438Y-108538570D02*
X128436819Y-108443332D01*
X128436819Y-108443332D02*
X128436819Y-108205237D01*
X128436819Y-108205237D02*
X128484438Y-108109999D01*
X128484438Y-108109999D02*
X128532057Y-108062380D01*
X128532057Y-108062380D02*
X128627295Y-108014761D01*
X128627295Y-108014761D02*
X128722533Y-108014761D01*
X128722533Y-108014761D02*
X128865390Y-108062380D01*
X128865390Y-108062380D02*
X129436819Y-108633808D01*
X129436819Y-108633808D02*
X129436819Y-108014761D01*
X129436819Y-107062380D02*
X129436819Y-107633808D01*
X129436819Y-107348094D02*
X128436819Y-107348094D01*
X128436819Y-107348094D02*
X128579676Y-107443332D01*
X128579676Y-107443332D02*
X128674914Y-107538570D01*
X128674914Y-107538570D02*
X128722533Y-107633808D01*
X129436819Y-106109999D02*
X129436819Y-106681427D01*
X129436819Y-106395713D02*
X128436819Y-106395713D01*
X128436819Y-106395713D02*
X128579676Y-106490951D01*
X128579676Y-106490951D02*
X128674914Y-106586189D01*
X128674914Y-106586189D02*
X128722533Y-106681427D01*
X128770152Y-105252856D02*
X129436819Y-105252856D01*
X128389200Y-105490951D02*
X129103485Y-105729046D01*
X129103485Y-105729046D02*
X129103485Y-105109999D01*
X129436819Y-104729046D02*
X128436819Y-104729046D01*
X128913009Y-104729046D02*
X128913009Y-104157618D01*
X129436819Y-104157618D02*
X128436819Y-104157618D01*
X129055866Y-103681427D02*
X129055866Y-102919523D01*
X128436819Y-102538570D02*
X128436819Y-101919523D01*
X128436819Y-101919523D02*
X128817771Y-102252856D01*
X128817771Y-102252856D02*
X128817771Y-102109999D01*
X128817771Y-102109999D02*
X128865390Y-102014761D01*
X128865390Y-102014761D02*
X128913009Y-101967142D01*
X128913009Y-101967142D02*
X129008247Y-101919523D01*
X129008247Y-101919523D02*
X129246342Y-101919523D01*
X129246342Y-101919523D02*
X129341580Y-101967142D01*
X129341580Y-101967142D02*
X129389200Y-102014761D01*
X129389200Y-102014761D02*
X129436819Y-102109999D01*
X129436819Y-102109999D02*
X129436819Y-102395713D01*
X129436819Y-102395713D02*
X129389200Y-102490951D01*
X129389200Y-102490951D02*
X129341580Y-102538570D01*
X129341580Y-101490951D02*
X129389200Y-101443332D01*
X129389200Y-101443332D02*
X129436819Y-101490951D01*
X129436819Y-101490951D02*
X129389200Y-101538570D01*
X129389200Y-101538570D02*
X129341580Y-101490951D01*
X129341580Y-101490951D02*
X129436819Y-101490951D01*
X128436819Y-101109999D02*
X128436819Y-100490952D01*
X128436819Y-100490952D02*
X128817771Y-100824285D01*
X128817771Y-100824285D02*
X128817771Y-100681428D01*
X128817771Y-100681428D02*
X128865390Y-100586190D01*
X128865390Y-100586190D02*
X128913009Y-100538571D01*
X128913009Y-100538571D02*
X129008247Y-100490952D01*
X129008247Y-100490952D02*
X129246342Y-100490952D01*
X129246342Y-100490952D02*
X129341580Y-100538571D01*
X129341580Y-100538571D02*
X129389200Y-100586190D01*
X129389200Y-100586190D02*
X129436819Y-100681428D01*
X129436819Y-100681428D02*
X129436819Y-100967142D01*
X129436819Y-100967142D02*
X129389200Y-101062380D01*
X129389200Y-101062380D02*
X129341580Y-101109999D01*
X128436819Y-100205237D02*
X128436819Y-99633809D01*
X129436819Y-99919523D02*
X128436819Y-99919523D01*
X129436819Y-98729047D02*
X128960628Y-99062380D01*
X129436819Y-99300475D02*
X128436819Y-99300475D01*
X128436819Y-99300475D02*
X128436819Y-98919523D01*
X128436819Y-98919523D02*
X128484438Y-98824285D01*
X128484438Y-98824285D02*
X128532057Y-98776666D01*
X128532057Y-98776666D02*
X128627295Y-98729047D01*
X128627295Y-98729047D02*
X128770152Y-98729047D01*
X128770152Y-98729047D02*
X128865390Y-98776666D01*
X128865390Y-98776666D02*
X128913009Y-98824285D01*
X128913009Y-98824285D02*
X128960628Y-98919523D01*
X128960628Y-98919523D02*
X128960628Y-99300475D01*
X128484438Y-97776666D02*
X128436819Y-97871904D01*
X128436819Y-97871904D02*
X128436819Y-98014761D01*
X128436819Y-98014761D02*
X128484438Y-98157618D01*
X128484438Y-98157618D02*
X128579676Y-98252856D01*
X128579676Y-98252856D02*
X128674914Y-98300475D01*
X128674914Y-98300475D02*
X128865390Y-98348094D01*
X128865390Y-98348094D02*
X129008247Y-98348094D01*
X129008247Y-98348094D02*
X129198723Y-98300475D01*
X129198723Y-98300475D02*
X129293961Y-98252856D01*
X129293961Y-98252856D02*
X129389200Y-98157618D01*
X129389200Y-98157618D02*
X129436819Y-98014761D01*
X129436819Y-98014761D02*
X129436819Y-97919523D01*
X129436819Y-97919523D02*
X129389200Y-97776666D01*
X129389200Y-97776666D02*
X129341580Y-97729047D01*
X129341580Y-97729047D02*
X129008247Y-97729047D01*
X129008247Y-97729047D02*
X129008247Y-97919523D01*
X129436819Y-96776666D02*
X129436819Y-97348094D01*
X129436819Y-97062380D02*
X128436819Y-97062380D01*
X128436819Y-97062380D02*
X128579676Y-97157618D01*
X128579676Y-97157618D02*
X128674914Y-97252856D01*
X128674914Y-97252856D02*
X128722533Y-97348094D01*
D13*
X123872476Y-103173855D02*
X123872476Y-103821474D01*
X123872476Y-103821474D02*
X123910571Y-103897664D01*
X123910571Y-103897664D02*
X123948666Y-103935760D01*
X123948666Y-103935760D02*
X124024857Y-103973855D01*
X124024857Y-103973855D02*
X124177238Y-103973855D01*
X124177238Y-103973855D02*
X124253428Y-103935760D01*
X124253428Y-103935760D02*
X124291523Y-103897664D01*
X124291523Y-103897664D02*
X124329619Y-103821474D01*
X124329619Y-103821474D02*
X124329619Y-103173855D01*
X124634380Y-103173855D02*
X125167714Y-103173855D01*
X125167714Y-103173855D02*
X124824856Y-103973855D01*
D10*
X123095238Y-139954819D02*
X123095238Y-140764342D01*
X123095238Y-140764342D02*
X123142857Y-140859580D01*
X123142857Y-140859580D02*
X123190476Y-140907200D01*
X123190476Y-140907200D02*
X123285714Y-140954819D01*
X123285714Y-140954819D02*
X123476190Y-140954819D01*
X123476190Y-140954819D02*
X123571428Y-140907200D01*
X123571428Y-140907200D02*
X123619047Y-140859580D01*
X123619047Y-140859580D02*
X123666666Y-140764342D01*
X123666666Y-140764342D02*
X123666666Y-139954819D01*
X124142857Y-140954819D02*
X124142857Y-139954819D01*
X124142857Y-139954819D02*
X124380952Y-139954819D01*
X124380952Y-139954819D02*
X124523809Y-140002438D01*
X124523809Y-140002438D02*
X124619047Y-140097676D01*
X124619047Y-140097676D02*
X124666666Y-140192914D01*
X124666666Y-140192914D02*
X124714285Y-140383390D01*
X124714285Y-140383390D02*
X124714285Y-140526247D01*
X124714285Y-140526247D02*
X124666666Y-140716723D01*
X124666666Y-140716723D02*
X124619047Y-140811961D01*
X124619047Y-140811961D02*
X124523809Y-140907200D01*
X124523809Y-140907200D02*
X124380952Y-140954819D01*
X124380952Y-140954819D02*
X124142857Y-140954819D01*
X125095238Y-140050057D02*
X125142857Y-140002438D01*
X125142857Y-140002438D02*
X125238095Y-139954819D01*
X125238095Y-139954819D02*
X125476190Y-139954819D01*
X125476190Y-139954819D02*
X125571428Y-140002438D01*
X125571428Y-140002438D02*
X125619047Y-140050057D01*
X125619047Y-140050057D02*
X125666666Y-140145295D01*
X125666666Y-140145295D02*
X125666666Y-140240533D01*
X125666666Y-140240533D02*
X125619047Y-140383390D01*
X125619047Y-140383390D02*
X125047619Y-140954819D01*
X125047619Y-140954819D02*
X125666666Y-140954819D01*
X126095238Y-140573866D02*
X126857143Y-140573866D01*
X127238095Y-139954819D02*
X127857142Y-139954819D01*
X127857142Y-139954819D02*
X127523809Y-140335771D01*
X127523809Y-140335771D02*
X127666666Y-140335771D01*
X127666666Y-140335771D02*
X127761904Y-140383390D01*
X127761904Y-140383390D02*
X127809523Y-140431009D01*
X127809523Y-140431009D02*
X127857142Y-140526247D01*
X127857142Y-140526247D02*
X127857142Y-140764342D01*
X127857142Y-140764342D02*
X127809523Y-140859580D01*
X127809523Y-140859580D02*
X127761904Y-140907200D01*
X127761904Y-140907200D02*
X127666666Y-140954819D01*
X127666666Y-140954819D02*
X127380952Y-140954819D01*
X127380952Y-140954819D02*
X127285714Y-140907200D01*
X127285714Y-140907200D02*
X127238095Y-140859580D01*
X128285714Y-140954819D02*
X128285714Y-139954819D01*
X128285714Y-139954819D02*
X128857142Y-140954819D01*
X128857142Y-140954819D02*
X128857142Y-139954819D01*
X129333333Y-139954819D02*
X129333333Y-140764342D01*
X129333333Y-140764342D02*
X129380952Y-140859580D01*
X129380952Y-140859580D02*
X129428571Y-140907200D01*
X129428571Y-140907200D02*
X129523809Y-140954819D01*
X129523809Y-140954819D02*
X129714285Y-140954819D01*
X129714285Y-140954819D02*
X129809523Y-140907200D01*
X129809523Y-140907200D02*
X129857142Y-140859580D01*
X129857142Y-140859580D02*
X129904761Y-140764342D01*
X129904761Y-140764342D02*
X129904761Y-139954819D01*
X139095238Y-139954819D02*
X139095238Y-140764342D01*
X139095238Y-140764342D02*
X139142857Y-140859580D01*
X139142857Y-140859580D02*
X139190476Y-140907200D01*
X139190476Y-140907200D02*
X139285714Y-140954819D01*
X139285714Y-140954819D02*
X139476190Y-140954819D01*
X139476190Y-140954819D02*
X139571428Y-140907200D01*
X139571428Y-140907200D02*
X139619047Y-140859580D01*
X139619047Y-140859580D02*
X139666666Y-140764342D01*
X139666666Y-140764342D02*
X139666666Y-139954819D01*
X140142857Y-140954819D02*
X140142857Y-139954819D01*
X140142857Y-139954819D02*
X140380952Y-139954819D01*
X140380952Y-139954819D02*
X140523809Y-140002438D01*
X140523809Y-140002438D02*
X140619047Y-140097676D01*
X140619047Y-140097676D02*
X140666666Y-140192914D01*
X140666666Y-140192914D02*
X140714285Y-140383390D01*
X140714285Y-140383390D02*
X140714285Y-140526247D01*
X140714285Y-140526247D02*
X140666666Y-140716723D01*
X140666666Y-140716723D02*
X140619047Y-140811961D01*
X140619047Y-140811961D02*
X140523809Y-140907200D01*
X140523809Y-140907200D02*
X140380952Y-140954819D01*
X140380952Y-140954819D02*
X140142857Y-140954819D01*
X141095238Y-140050057D02*
X141142857Y-140002438D01*
X141142857Y-140002438D02*
X141238095Y-139954819D01*
X141238095Y-139954819D02*
X141476190Y-139954819D01*
X141476190Y-139954819D02*
X141571428Y-140002438D01*
X141571428Y-140002438D02*
X141619047Y-140050057D01*
X141619047Y-140050057D02*
X141666666Y-140145295D01*
X141666666Y-140145295D02*
X141666666Y-140240533D01*
X141666666Y-140240533D02*
X141619047Y-140383390D01*
X141619047Y-140383390D02*
X141047619Y-140954819D01*
X141047619Y-140954819D02*
X141666666Y-140954819D01*
X142095238Y-140573866D02*
X142857143Y-140573866D01*
X143238095Y-139954819D02*
X143857142Y-139954819D01*
X143857142Y-139954819D02*
X143523809Y-140335771D01*
X143523809Y-140335771D02*
X143666666Y-140335771D01*
X143666666Y-140335771D02*
X143761904Y-140383390D01*
X143761904Y-140383390D02*
X143809523Y-140431009D01*
X143809523Y-140431009D02*
X143857142Y-140526247D01*
X143857142Y-140526247D02*
X143857142Y-140764342D01*
X143857142Y-140764342D02*
X143809523Y-140859580D01*
X143809523Y-140859580D02*
X143761904Y-140907200D01*
X143761904Y-140907200D02*
X143666666Y-140954819D01*
X143666666Y-140954819D02*
X143380952Y-140954819D01*
X143380952Y-140954819D02*
X143285714Y-140907200D01*
X143285714Y-140907200D02*
X143238095Y-140859580D01*
X144285714Y-140954819D02*
X144285714Y-139954819D01*
X144285714Y-139954819D02*
X144857142Y-140954819D01*
X144857142Y-140954819D02*
X144857142Y-139954819D01*
X145333333Y-139954819D02*
X145333333Y-140764342D01*
X145333333Y-140764342D02*
X145380952Y-140859580D01*
X145380952Y-140859580D02*
X145428571Y-140907200D01*
X145428571Y-140907200D02*
X145523809Y-140954819D01*
X145523809Y-140954819D02*
X145714285Y-140954819D01*
X145714285Y-140954819D02*
X145809523Y-140907200D01*
X145809523Y-140907200D02*
X145857142Y-140859580D01*
X145857142Y-140859580D02*
X145904761Y-140764342D01*
X145904761Y-140764342D02*
X145904761Y-139954819D01*
X155095238Y-139954819D02*
X155095238Y-140764342D01*
X155095238Y-140764342D02*
X155142857Y-140859580D01*
X155142857Y-140859580D02*
X155190476Y-140907200D01*
X155190476Y-140907200D02*
X155285714Y-140954819D01*
X155285714Y-140954819D02*
X155476190Y-140954819D01*
X155476190Y-140954819D02*
X155571428Y-140907200D01*
X155571428Y-140907200D02*
X155619047Y-140859580D01*
X155619047Y-140859580D02*
X155666666Y-140764342D01*
X155666666Y-140764342D02*
X155666666Y-139954819D01*
X156142857Y-140954819D02*
X156142857Y-139954819D01*
X156142857Y-139954819D02*
X156380952Y-139954819D01*
X156380952Y-139954819D02*
X156523809Y-140002438D01*
X156523809Y-140002438D02*
X156619047Y-140097676D01*
X156619047Y-140097676D02*
X156666666Y-140192914D01*
X156666666Y-140192914D02*
X156714285Y-140383390D01*
X156714285Y-140383390D02*
X156714285Y-140526247D01*
X156714285Y-140526247D02*
X156666666Y-140716723D01*
X156666666Y-140716723D02*
X156619047Y-140811961D01*
X156619047Y-140811961D02*
X156523809Y-140907200D01*
X156523809Y-140907200D02*
X156380952Y-140954819D01*
X156380952Y-140954819D02*
X156142857Y-140954819D01*
X157095238Y-140050057D02*
X157142857Y-140002438D01*
X157142857Y-140002438D02*
X157238095Y-139954819D01*
X157238095Y-139954819D02*
X157476190Y-139954819D01*
X157476190Y-139954819D02*
X157571428Y-140002438D01*
X157571428Y-140002438D02*
X157619047Y-140050057D01*
X157619047Y-140050057D02*
X157666666Y-140145295D01*
X157666666Y-140145295D02*
X157666666Y-140240533D01*
X157666666Y-140240533D02*
X157619047Y-140383390D01*
X157619047Y-140383390D02*
X157047619Y-140954819D01*
X157047619Y-140954819D02*
X157666666Y-140954819D01*
X158095238Y-140573866D02*
X158857143Y-140573866D01*
X159238095Y-139954819D02*
X159857142Y-139954819D01*
X159857142Y-139954819D02*
X159523809Y-140335771D01*
X159523809Y-140335771D02*
X159666666Y-140335771D01*
X159666666Y-140335771D02*
X159761904Y-140383390D01*
X159761904Y-140383390D02*
X159809523Y-140431009D01*
X159809523Y-140431009D02*
X159857142Y-140526247D01*
X159857142Y-140526247D02*
X159857142Y-140764342D01*
X159857142Y-140764342D02*
X159809523Y-140859580D01*
X159809523Y-140859580D02*
X159761904Y-140907200D01*
X159761904Y-140907200D02*
X159666666Y-140954819D01*
X159666666Y-140954819D02*
X159380952Y-140954819D01*
X159380952Y-140954819D02*
X159285714Y-140907200D01*
X159285714Y-140907200D02*
X159238095Y-140859580D01*
X160285714Y-140954819D02*
X160285714Y-139954819D01*
X160285714Y-139954819D02*
X160857142Y-140954819D01*
X160857142Y-140954819D02*
X160857142Y-139954819D01*
X161333333Y-139954819D02*
X161333333Y-140764342D01*
X161333333Y-140764342D02*
X161380952Y-140859580D01*
X161380952Y-140859580D02*
X161428571Y-140907200D01*
X161428571Y-140907200D02*
X161523809Y-140954819D01*
X161523809Y-140954819D02*
X161714285Y-140954819D01*
X161714285Y-140954819D02*
X161809523Y-140907200D01*
X161809523Y-140907200D02*
X161857142Y-140859580D01*
X161857142Y-140859580D02*
X161904761Y-140764342D01*
X161904761Y-140764342D02*
X161904761Y-139954819D01*
D14*
X124561261Y-114690690D02*
X125423047Y-114690690D01*
X125423047Y-114690690D02*
X125595404Y-114748143D01*
X125595404Y-114748143D02*
X125710309Y-114863047D01*
X125710309Y-114863047D02*
X125767761Y-115035405D01*
X125767761Y-115035405D02*
X125767761Y-115150309D01*
X125767761Y-113484190D02*
X125767761Y-114173619D01*
X125767761Y-113828905D02*
X124561261Y-113828905D01*
X124561261Y-113828905D02*
X124733618Y-113943809D01*
X124733618Y-113943809D02*
X124848523Y-114058714D01*
X124848523Y-114058714D02*
X124905975Y-114173619D01*
X124561261Y-112737309D02*
X124561261Y-112622404D01*
X124561261Y-112622404D02*
X124618713Y-112507500D01*
X124618713Y-112507500D02*
X124676166Y-112450047D01*
X124676166Y-112450047D02*
X124791070Y-112392595D01*
X124791070Y-112392595D02*
X125020880Y-112335142D01*
X125020880Y-112335142D02*
X125308142Y-112335142D01*
X125308142Y-112335142D02*
X125537951Y-112392595D01*
X125537951Y-112392595D02*
X125652856Y-112450047D01*
X125652856Y-112450047D02*
X125710309Y-112507500D01*
X125710309Y-112507500D02*
X125767761Y-112622404D01*
X125767761Y-112622404D02*
X125767761Y-112737309D01*
X125767761Y-112737309D02*
X125710309Y-112852214D01*
X125710309Y-112852214D02*
X125652856Y-112909666D01*
X125652856Y-112909666D02*
X125537951Y-112967119D01*
X125537951Y-112967119D02*
X125308142Y-113024571D01*
X125308142Y-113024571D02*
X125020880Y-113024571D01*
X125020880Y-113024571D02*
X124791070Y-112967119D01*
X124791070Y-112967119D02*
X124676166Y-112909666D01*
X124676166Y-112909666D02*
X124618713Y-112852214D01*
X124618713Y-112852214D02*
X124561261Y-112737309D01*
X119171261Y-108148120D02*
X120147951Y-108148120D01*
X120147951Y-108148120D02*
X120262856Y-108090667D01*
X120262856Y-108090667D02*
X120320309Y-108033215D01*
X120320309Y-108033215D02*
X120377761Y-107918310D01*
X120377761Y-107918310D02*
X120377761Y-107688501D01*
X120377761Y-107688501D02*
X120320309Y-107573596D01*
X120320309Y-107573596D02*
X120262856Y-107516143D01*
X120262856Y-107516143D02*
X120147951Y-107458691D01*
X120147951Y-107458691D02*
X119171261Y-107458691D01*
X120320309Y-106941620D02*
X120377761Y-106769263D01*
X120377761Y-106769263D02*
X120377761Y-106482001D01*
X120377761Y-106482001D02*
X120320309Y-106367096D01*
X120320309Y-106367096D02*
X120262856Y-106309644D01*
X120262856Y-106309644D02*
X120147951Y-106252191D01*
X120147951Y-106252191D02*
X120033047Y-106252191D01*
X120033047Y-106252191D02*
X119918142Y-106309644D01*
X119918142Y-106309644D02*
X119860689Y-106367096D01*
X119860689Y-106367096D02*
X119803237Y-106482001D01*
X119803237Y-106482001D02*
X119745785Y-106711810D01*
X119745785Y-106711810D02*
X119688332Y-106826715D01*
X119688332Y-106826715D02*
X119630880Y-106884168D01*
X119630880Y-106884168D02*
X119515975Y-106941620D01*
X119515975Y-106941620D02*
X119401070Y-106941620D01*
X119401070Y-106941620D02*
X119286166Y-106884168D01*
X119286166Y-106884168D02*
X119228713Y-106826715D01*
X119228713Y-106826715D02*
X119171261Y-106711810D01*
X119171261Y-106711810D02*
X119171261Y-106424549D01*
X119171261Y-106424549D02*
X119228713Y-106252191D01*
X119745785Y-105332953D02*
X119803237Y-105160596D01*
X119803237Y-105160596D02*
X119860689Y-105103143D01*
X119860689Y-105103143D02*
X119975594Y-105045691D01*
X119975594Y-105045691D02*
X120147951Y-105045691D01*
X120147951Y-105045691D02*
X120262856Y-105103143D01*
X120262856Y-105103143D02*
X120320309Y-105160596D01*
X120320309Y-105160596D02*
X120377761Y-105275501D01*
X120377761Y-105275501D02*
X120377761Y-105735120D01*
X120377761Y-105735120D02*
X119171261Y-105735120D01*
X119171261Y-105735120D02*
X119171261Y-105332953D01*
X119171261Y-105332953D02*
X119228713Y-105218048D01*
X119228713Y-105218048D02*
X119286166Y-105160596D01*
X119286166Y-105160596D02*
X119401070Y-105103143D01*
X119401070Y-105103143D02*
X119515975Y-105103143D01*
X119515975Y-105103143D02*
X119630880Y-105160596D01*
X119630880Y-105160596D02*
X119688332Y-105218048D01*
X119688332Y-105218048D02*
X119745785Y-105332953D01*
X119745785Y-105332953D02*
X119745785Y-105735120D01*
X120492666Y-104815882D02*
X120492666Y-103896643D01*
X119745785Y-103207215D02*
X119803237Y-103034858D01*
X119803237Y-103034858D02*
X119860689Y-102977405D01*
X119860689Y-102977405D02*
X119975594Y-102919953D01*
X119975594Y-102919953D02*
X120147951Y-102919953D01*
X120147951Y-102919953D02*
X120262856Y-102977405D01*
X120262856Y-102977405D02*
X120320309Y-103034858D01*
X120320309Y-103034858D02*
X120377761Y-103149763D01*
X120377761Y-103149763D02*
X120377761Y-103609382D01*
X120377761Y-103609382D02*
X119171261Y-103609382D01*
X119171261Y-103609382D02*
X119171261Y-103207215D01*
X119171261Y-103207215D02*
X119228713Y-103092310D01*
X119228713Y-103092310D02*
X119286166Y-103034858D01*
X119286166Y-103034858D02*
X119401070Y-102977405D01*
X119401070Y-102977405D02*
X119515975Y-102977405D01*
X119515975Y-102977405D02*
X119630880Y-103034858D01*
X119630880Y-103034858D02*
X119688332Y-103092310D01*
X119688332Y-103092310D02*
X119745785Y-103207215D01*
X119745785Y-103207215D02*
X119745785Y-103609382D01*
D10*
X155296952Y-126760819D02*
X155296952Y-125760819D01*
X155296952Y-125760819D02*
X155630285Y-126475104D01*
X155630285Y-126475104D02*
X155963618Y-125760819D01*
X155963618Y-125760819D02*
X155963618Y-126760819D01*
X156439809Y-126760819D02*
X156439809Y-125760819D01*
X156439809Y-125760819D02*
X156773142Y-126475104D01*
X156773142Y-126475104D02*
X157106475Y-125760819D01*
X157106475Y-125760819D02*
X157106475Y-126760819D01*
X157915999Y-126237009D02*
X158058856Y-126284628D01*
X158058856Y-126284628D02*
X158106475Y-126332247D01*
X158106475Y-126332247D02*
X158154094Y-126427485D01*
X158154094Y-126427485D02*
X158154094Y-126570342D01*
X158154094Y-126570342D02*
X158106475Y-126665580D01*
X158106475Y-126665580D02*
X158058856Y-126713200D01*
X158058856Y-126713200D02*
X157963618Y-126760819D01*
X157963618Y-126760819D02*
X157582666Y-126760819D01*
X157582666Y-126760819D02*
X157582666Y-125760819D01*
X157582666Y-125760819D02*
X157915999Y-125760819D01*
X157915999Y-125760819D02*
X158011237Y-125808438D01*
X158011237Y-125808438D02*
X158058856Y-125856057D01*
X158058856Y-125856057D02*
X158106475Y-125951295D01*
X158106475Y-125951295D02*
X158106475Y-126046533D01*
X158106475Y-126046533D02*
X158058856Y-126141771D01*
X158058856Y-126141771D02*
X158011237Y-126189390D01*
X158011237Y-126189390D02*
X157915999Y-126237009D01*
X157915999Y-126237009D02*
X157582666Y-126237009D01*
X158439809Y-125760819D02*
X159011237Y-125760819D01*
X158725523Y-126760819D02*
X158725523Y-125760819D01*
X159296952Y-125856057D02*
X159344571Y-125808438D01*
X159344571Y-125808438D02*
X159439809Y-125760819D01*
X159439809Y-125760819D02*
X159677904Y-125760819D01*
X159677904Y-125760819D02*
X159773142Y-125808438D01*
X159773142Y-125808438D02*
X159820761Y-125856057D01*
X159820761Y-125856057D02*
X159868380Y-125951295D01*
X159868380Y-125951295D02*
X159868380Y-126046533D01*
X159868380Y-126046533D02*
X159820761Y-126189390D01*
X159820761Y-126189390D02*
X159249333Y-126760819D01*
X159249333Y-126760819D02*
X159868380Y-126760819D01*
X160249333Y-125856057D02*
X160296952Y-125808438D01*
X160296952Y-125808438D02*
X160392190Y-125760819D01*
X160392190Y-125760819D02*
X160630285Y-125760819D01*
X160630285Y-125760819D02*
X160725523Y-125808438D01*
X160725523Y-125808438D02*
X160773142Y-125856057D01*
X160773142Y-125856057D02*
X160820761Y-125951295D01*
X160820761Y-125951295D02*
X160820761Y-126046533D01*
X160820761Y-126046533D02*
X160773142Y-126189390D01*
X160773142Y-126189390D02*
X160201714Y-126760819D01*
X160201714Y-126760819D02*
X160820761Y-126760819D01*
X161201714Y-125856057D02*
X161249333Y-125808438D01*
X161249333Y-125808438D02*
X161344571Y-125760819D01*
X161344571Y-125760819D02*
X161582666Y-125760819D01*
X161582666Y-125760819D02*
X161677904Y-125808438D01*
X161677904Y-125808438D02*
X161725523Y-125856057D01*
X161725523Y-125856057D02*
X161773142Y-125951295D01*
X161773142Y-125951295D02*
X161773142Y-126046533D01*
X161773142Y-126046533D02*
X161725523Y-126189390D01*
X161725523Y-126189390D02*
X161154095Y-126760819D01*
X161154095Y-126760819D02*
X161773142Y-126760819D01*
X162154095Y-125856057D02*
X162201714Y-125808438D01*
X162201714Y-125808438D02*
X162296952Y-125760819D01*
X162296952Y-125760819D02*
X162535047Y-125760819D01*
X162535047Y-125760819D02*
X162630285Y-125808438D01*
X162630285Y-125808438D02*
X162677904Y-125856057D01*
X162677904Y-125856057D02*
X162725523Y-125951295D01*
X162725523Y-125951295D02*
X162725523Y-126046533D01*
X162725523Y-126046533D02*
X162677904Y-126189390D01*
X162677904Y-126189390D02*
X162106476Y-126760819D01*
X162106476Y-126760819D02*
X162725523Y-126760819D01*
X163106476Y-126475104D02*
X163582666Y-126475104D01*
X163011238Y-126760819D02*
X163344571Y-125760819D01*
X163344571Y-125760819D02*
X163677904Y-126760819D01*
D12*
X159691028Y-123853619D02*
X159667219Y-123901238D01*
X159667219Y-123901238D02*
X159619600Y-123948857D01*
X159619600Y-123948857D02*
X159548171Y-124020285D01*
X159548171Y-124020285D02*
X159524361Y-124067904D01*
X159524361Y-124067904D02*
X159524361Y-124115523D01*
X159643409Y-124091714D02*
X159619600Y-124139333D01*
X159619600Y-124139333D02*
X159571980Y-124186952D01*
X159571980Y-124186952D02*
X159476742Y-124210761D01*
X159476742Y-124210761D02*
X159310076Y-124210761D01*
X159310076Y-124210761D02*
X159214838Y-124186952D01*
X159214838Y-124186952D02*
X159167219Y-124139333D01*
X159167219Y-124139333D02*
X159143409Y-124091714D01*
X159143409Y-124091714D02*
X159143409Y-123996476D01*
X159143409Y-123996476D02*
X159167219Y-123948857D01*
X159167219Y-123948857D02*
X159214838Y-123901238D01*
X159214838Y-123901238D02*
X159310076Y-123877428D01*
X159310076Y-123877428D02*
X159476742Y-123877428D01*
X159476742Y-123877428D02*
X159571980Y-123901238D01*
X159571980Y-123901238D02*
X159619600Y-123948857D01*
X159619600Y-123948857D02*
X159643409Y-123996476D01*
X159643409Y-123996476D02*
X159643409Y-124091714D01*
X159143409Y-123710761D02*
X159143409Y-123401237D01*
X159143409Y-123401237D02*
X159333885Y-123567904D01*
X159333885Y-123567904D02*
X159333885Y-123496475D01*
X159333885Y-123496475D02*
X159357695Y-123448856D01*
X159357695Y-123448856D02*
X159381504Y-123425047D01*
X159381504Y-123425047D02*
X159429123Y-123401237D01*
X159429123Y-123401237D02*
X159548171Y-123401237D01*
X159548171Y-123401237D02*
X159595790Y-123425047D01*
X159595790Y-123425047D02*
X159619600Y-123448856D01*
X159619600Y-123448856D02*
X159643409Y-123496475D01*
X159643409Y-123496475D02*
X159643409Y-123639332D01*
X159643409Y-123639332D02*
X159619600Y-123686951D01*
X159619600Y-123686951D02*
X159595790Y-123710761D01*
D10*
X125804819Y-118895238D02*
X125804819Y-119466666D01*
X125804819Y-119180952D02*
X124804819Y-119180952D01*
X124804819Y-119180952D02*
X124947676Y-119276190D01*
X124947676Y-119276190D02*
X125042914Y-119371428D01*
X125042914Y-119371428D02*
X125090533Y-119466666D01*
X125138152Y-118038095D02*
X125804819Y-118038095D01*
X125138152Y-118466666D02*
X125661961Y-118466666D01*
X125661961Y-118466666D02*
X125757200Y-118419047D01*
X125757200Y-118419047D02*
X125804819Y-118323809D01*
X125804819Y-118323809D02*
X125804819Y-118180952D01*
X125804819Y-118180952D02*
X125757200Y-118085714D01*
X125757200Y-118085714D02*
X125709580Y-118038095D01*
X125281009Y-117228571D02*
X125281009Y-117561904D01*
X125804819Y-117561904D02*
X124804819Y-117561904D01*
X124804819Y-117561904D02*
X124804819Y-117085714D01*
D11*
X127179530Y-118383333D02*
X127203340Y-118407142D01*
X127203340Y-118407142D02*
X127227149Y-118478571D01*
X127227149Y-118478571D02*
X127227149Y-118526190D01*
X127227149Y-118526190D02*
X127203340Y-118597618D01*
X127203340Y-118597618D02*
X127155720Y-118645237D01*
X127155720Y-118645237D02*
X127108101Y-118669047D01*
X127108101Y-118669047D02*
X127012863Y-118692856D01*
X127012863Y-118692856D02*
X126941435Y-118692856D01*
X126941435Y-118692856D02*
X126846197Y-118669047D01*
X126846197Y-118669047D02*
X126798578Y-118645237D01*
X126798578Y-118645237D02*
X126750959Y-118597618D01*
X126750959Y-118597618D02*
X126727149Y-118526190D01*
X126727149Y-118526190D02*
X126727149Y-118478571D01*
X126727149Y-118478571D02*
X126750959Y-118407142D01*
X126750959Y-118407142D02*
X126774768Y-118383333D01*
X126727149Y-118216666D02*
X126727149Y-117907142D01*
X126727149Y-117907142D02*
X126917625Y-118073809D01*
X126917625Y-118073809D02*
X126917625Y-118002380D01*
X126917625Y-118002380D02*
X126941435Y-117954761D01*
X126941435Y-117954761D02*
X126965244Y-117930952D01*
X126965244Y-117930952D02*
X127012863Y-117907142D01*
X127012863Y-117907142D02*
X127131911Y-117907142D01*
X127131911Y-117907142D02*
X127179530Y-117930952D01*
X127179530Y-117930952D02*
X127203340Y-117954761D01*
X127203340Y-117954761D02*
X127227149Y-118002380D01*
X127227149Y-118002380D02*
X127227149Y-118145237D01*
X127227149Y-118145237D02*
X127203340Y-118192856D01*
X127203340Y-118192856D02*
X127179530Y-118216666D01*
D10*
X127154819Y-119967856D02*
X127154819Y-119872618D01*
X127154819Y-119872618D02*
X127202438Y-119777380D01*
X127202438Y-119777380D02*
X127250057Y-119729761D01*
X127250057Y-119729761D02*
X127345295Y-119682142D01*
X127345295Y-119682142D02*
X127535771Y-119634523D01*
X127535771Y-119634523D02*
X127773866Y-119634523D01*
X127773866Y-119634523D02*
X127964342Y-119682142D01*
X127964342Y-119682142D02*
X128059580Y-119729761D01*
X128059580Y-119729761D02*
X128107200Y-119777380D01*
X128107200Y-119777380D02*
X128154819Y-119872618D01*
X128154819Y-119872618D02*
X128154819Y-119967856D01*
X128154819Y-119967856D02*
X128107200Y-120063094D01*
X128107200Y-120063094D02*
X128059580Y-120110713D01*
X128059580Y-120110713D02*
X127964342Y-120158332D01*
X127964342Y-120158332D02*
X127773866Y-120205951D01*
X127773866Y-120205951D02*
X127535771Y-120205951D01*
X127535771Y-120205951D02*
X127345295Y-120158332D01*
X127345295Y-120158332D02*
X127250057Y-120110713D01*
X127250057Y-120110713D02*
X127202438Y-120063094D01*
X127202438Y-120063094D02*
X127154819Y-119967856D01*
X128059580Y-119205951D02*
X128107200Y-119158332D01*
X128107200Y-119158332D02*
X128154819Y-119205951D01*
X128154819Y-119205951D02*
X128107200Y-119253570D01*
X128107200Y-119253570D02*
X128059580Y-119205951D01*
X128059580Y-119205951D02*
X128154819Y-119205951D01*
X128154819Y-118205952D02*
X128154819Y-118777380D01*
X128154819Y-118491666D02*
X127154819Y-118491666D01*
X127154819Y-118491666D02*
X127297676Y-118586904D01*
X127297676Y-118586904D02*
X127392914Y-118682142D01*
X127392914Y-118682142D02*
X127440533Y-118777380D01*
X127488152Y-117348809D02*
X128154819Y-117348809D01*
X127488152Y-117777380D02*
X128011961Y-117777380D01*
X128011961Y-117777380D02*
X128107200Y-117729761D01*
X128107200Y-117729761D02*
X128154819Y-117634523D01*
X128154819Y-117634523D02*
X128154819Y-117491666D01*
X128154819Y-117491666D02*
X128107200Y-117396428D01*
X128107200Y-117396428D02*
X128059580Y-117348809D01*
X127631009Y-116539285D02*
X127631009Y-116872618D01*
X128154819Y-116872618D02*
X127154819Y-116872618D01*
X127154819Y-116872618D02*
X127154819Y-116396428D01*
D11*
X129529530Y-118408333D02*
X129553340Y-118432142D01*
X129553340Y-118432142D02*
X129577149Y-118503571D01*
X129577149Y-118503571D02*
X129577149Y-118551190D01*
X129577149Y-118551190D02*
X129553340Y-118622618D01*
X129553340Y-118622618D02*
X129505720Y-118670237D01*
X129505720Y-118670237D02*
X129458101Y-118694047D01*
X129458101Y-118694047D02*
X129362863Y-118717856D01*
X129362863Y-118717856D02*
X129291435Y-118717856D01*
X129291435Y-118717856D02*
X129196197Y-118694047D01*
X129196197Y-118694047D02*
X129148578Y-118670237D01*
X129148578Y-118670237D02*
X129100959Y-118622618D01*
X129100959Y-118622618D02*
X129077149Y-118551190D01*
X129077149Y-118551190D02*
X129077149Y-118503571D01*
X129077149Y-118503571D02*
X129100959Y-118432142D01*
X129100959Y-118432142D02*
X129124768Y-118408333D01*
X129243816Y-117979761D02*
X129577149Y-117979761D01*
X129053340Y-118098809D02*
X129410482Y-118217856D01*
X129410482Y-118217856D02*
X129410482Y-117908333D01*
D10*
X144354819Y-119692856D02*
X144354819Y-119597618D01*
X144354819Y-119597618D02*
X144402438Y-119502380D01*
X144402438Y-119502380D02*
X144450057Y-119454761D01*
X144450057Y-119454761D02*
X144545295Y-119407142D01*
X144545295Y-119407142D02*
X144735771Y-119359523D01*
X144735771Y-119359523D02*
X144973866Y-119359523D01*
X144973866Y-119359523D02*
X145164342Y-119407142D01*
X145164342Y-119407142D02*
X145259580Y-119454761D01*
X145259580Y-119454761D02*
X145307200Y-119502380D01*
X145307200Y-119502380D02*
X145354819Y-119597618D01*
X145354819Y-119597618D02*
X145354819Y-119692856D01*
X145354819Y-119692856D02*
X145307200Y-119788094D01*
X145307200Y-119788094D02*
X145259580Y-119835713D01*
X145259580Y-119835713D02*
X145164342Y-119883332D01*
X145164342Y-119883332D02*
X144973866Y-119930951D01*
X144973866Y-119930951D02*
X144735771Y-119930951D01*
X144735771Y-119930951D02*
X144545295Y-119883332D01*
X144545295Y-119883332D02*
X144450057Y-119835713D01*
X144450057Y-119835713D02*
X144402438Y-119788094D01*
X144402438Y-119788094D02*
X144354819Y-119692856D01*
X145259580Y-118930951D02*
X145307200Y-118883332D01*
X145307200Y-118883332D02*
X145354819Y-118930951D01*
X145354819Y-118930951D02*
X145307200Y-118978570D01*
X145307200Y-118978570D02*
X145259580Y-118930951D01*
X145259580Y-118930951D02*
X145354819Y-118930951D01*
X145354819Y-117930952D02*
X145354819Y-118502380D01*
X145354819Y-118216666D02*
X144354819Y-118216666D01*
X144354819Y-118216666D02*
X144497676Y-118311904D01*
X144497676Y-118311904D02*
X144592914Y-118407142D01*
X144592914Y-118407142D02*
X144640533Y-118502380D01*
X144688152Y-117073809D02*
X145354819Y-117073809D01*
X144688152Y-117502380D02*
X145211961Y-117502380D01*
X145211961Y-117502380D02*
X145307200Y-117454761D01*
X145307200Y-117454761D02*
X145354819Y-117359523D01*
X145354819Y-117359523D02*
X145354819Y-117216666D01*
X145354819Y-117216666D02*
X145307200Y-117121428D01*
X145307200Y-117121428D02*
X145259580Y-117073809D01*
X144831009Y-116264285D02*
X144831009Y-116597618D01*
X145354819Y-116597618D02*
X144354819Y-116597618D01*
X144354819Y-116597618D02*
X144354819Y-116121428D01*
D11*
X143429530Y-118133333D02*
X143453340Y-118157142D01*
X143453340Y-118157142D02*
X143477149Y-118228571D01*
X143477149Y-118228571D02*
X143477149Y-118276190D01*
X143477149Y-118276190D02*
X143453340Y-118347618D01*
X143453340Y-118347618D02*
X143405720Y-118395237D01*
X143405720Y-118395237D02*
X143358101Y-118419047D01*
X143358101Y-118419047D02*
X143262863Y-118442856D01*
X143262863Y-118442856D02*
X143191435Y-118442856D01*
X143191435Y-118442856D02*
X143096197Y-118419047D01*
X143096197Y-118419047D02*
X143048578Y-118395237D01*
X143048578Y-118395237D02*
X143000959Y-118347618D01*
X143000959Y-118347618D02*
X142977149Y-118276190D01*
X142977149Y-118276190D02*
X142977149Y-118228571D01*
X142977149Y-118228571D02*
X143000959Y-118157142D01*
X143000959Y-118157142D02*
X143024768Y-118133333D01*
X143477149Y-117657142D02*
X143477149Y-117942856D01*
X143477149Y-117799999D02*
X142977149Y-117799999D01*
X142977149Y-117799999D02*
X143048578Y-117847618D01*
X143048578Y-117847618D02*
X143096197Y-117895237D01*
X143096197Y-117895237D02*
X143120006Y-117942856D01*
D10*
X126270095Y-92334819D02*
X126270095Y-91334819D01*
X126270095Y-91334819D02*
X126603428Y-92049104D01*
X126603428Y-92049104D02*
X126936761Y-91334819D01*
X126936761Y-91334819D02*
X126936761Y-92334819D01*
X127746285Y-91811009D02*
X127889142Y-91858628D01*
X127889142Y-91858628D02*
X127936761Y-91906247D01*
X127936761Y-91906247D02*
X127984380Y-92001485D01*
X127984380Y-92001485D02*
X127984380Y-92144342D01*
X127984380Y-92144342D02*
X127936761Y-92239580D01*
X127936761Y-92239580D02*
X127889142Y-92287200D01*
X127889142Y-92287200D02*
X127793904Y-92334819D01*
X127793904Y-92334819D02*
X127412952Y-92334819D01*
X127412952Y-92334819D02*
X127412952Y-91334819D01*
X127412952Y-91334819D02*
X127746285Y-91334819D01*
X127746285Y-91334819D02*
X127841523Y-91382438D01*
X127841523Y-91382438D02*
X127889142Y-91430057D01*
X127889142Y-91430057D02*
X127936761Y-91525295D01*
X127936761Y-91525295D02*
X127936761Y-91620533D01*
X127936761Y-91620533D02*
X127889142Y-91715771D01*
X127889142Y-91715771D02*
X127841523Y-91763390D01*
X127841523Y-91763390D02*
X127746285Y-91811009D01*
X127746285Y-91811009D02*
X127412952Y-91811009D01*
X128984380Y-92334819D02*
X128651047Y-91858628D01*
X128412952Y-92334819D02*
X128412952Y-91334819D01*
X128412952Y-91334819D02*
X128793904Y-91334819D01*
X128793904Y-91334819D02*
X128889142Y-91382438D01*
X128889142Y-91382438D02*
X128936761Y-91430057D01*
X128936761Y-91430057D02*
X128984380Y-91525295D01*
X128984380Y-91525295D02*
X128984380Y-91668152D01*
X128984380Y-91668152D02*
X128936761Y-91763390D01*
X128936761Y-91763390D02*
X128889142Y-91811009D01*
X128889142Y-91811009D02*
X128793904Y-91858628D01*
X128793904Y-91858628D02*
X128412952Y-91858628D01*
X129936761Y-92334819D02*
X129365333Y-92334819D01*
X129651047Y-92334819D02*
X129651047Y-91334819D01*
X129651047Y-91334819D02*
X129555809Y-91477676D01*
X129555809Y-91477676D02*
X129460571Y-91572914D01*
X129460571Y-91572914D02*
X129365333Y-91620533D01*
X130317714Y-91430057D02*
X130365333Y-91382438D01*
X130365333Y-91382438D02*
X130460571Y-91334819D01*
X130460571Y-91334819D02*
X130698666Y-91334819D01*
X130698666Y-91334819D02*
X130793904Y-91382438D01*
X130793904Y-91382438D02*
X130841523Y-91430057D01*
X130841523Y-91430057D02*
X130889142Y-91525295D01*
X130889142Y-91525295D02*
X130889142Y-91620533D01*
X130889142Y-91620533D02*
X130841523Y-91763390D01*
X130841523Y-91763390D02*
X130270095Y-92334819D01*
X130270095Y-92334819D02*
X130889142Y-92334819D01*
X131508190Y-91334819D02*
X131603428Y-91334819D01*
X131603428Y-91334819D02*
X131698666Y-91382438D01*
X131698666Y-91382438D02*
X131746285Y-91430057D01*
X131746285Y-91430057D02*
X131793904Y-91525295D01*
X131793904Y-91525295D02*
X131841523Y-91715771D01*
X131841523Y-91715771D02*
X131841523Y-91953866D01*
X131841523Y-91953866D02*
X131793904Y-92144342D01*
X131793904Y-92144342D02*
X131746285Y-92239580D01*
X131746285Y-92239580D02*
X131698666Y-92287200D01*
X131698666Y-92287200D02*
X131603428Y-92334819D01*
X131603428Y-92334819D02*
X131508190Y-92334819D01*
X131508190Y-92334819D02*
X131412952Y-92287200D01*
X131412952Y-92287200D02*
X131365333Y-92239580D01*
X131365333Y-92239580D02*
X131317714Y-92144342D01*
X131317714Y-92144342D02*
X131270095Y-91953866D01*
X131270095Y-91953866D02*
X131270095Y-91715771D01*
X131270095Y-91715771D02*
X131317714Y-91525295D01*
X131317714Y-91525295D02*
X131365333Y-91430057D01*
X131365333Y-91430057D02*
X131412952Y-91382438D01*
X131412952Y-91382438D02*
X131508190Y-91334819D01*
X128293905Y-96434819D02*
X128293905Y-95434819D01*
X128293905Y-95434819D02*
X128532000Y-95434819D01*
X128532000Y-95434819D02*
X128674857Y-95482438D01*
X128674857Y-95482438D02*
X128770095Y-95577676D01*
X128770095Y-95577676D02*
X128817714Y-95672914D01*
X128817714Y-95672914D02*
X128865333Y-95863390D01*
X128865333Y-95863390D02*
X128865333Y-96006247D01*
X128865333Y-96006247D02*
X128817714Y-96196723D01*
X128817714Y-96196723D02*
X128770095Y-96291961D01*
X128770095Y-96291961D02*
X128674857Y-96387200D01*
X128674857Y-96387200D02*
X128532000Y-96434819D01*
X128532000Y-96434819D02*
X128293905Y-96434819D01*
X129436762Y-95863390D02*
X129341524Y-95815771D01*
X129341524Y-95815771D02*
X129293905Y-95768152D01*
X129293905Y-95768152D02*
X129246286Y-95672914D01*
X129246286Y-95672914D02*
X129246286Y-95625295D01*
X129246286Y-95625295D02*
X129293905Y-95530057D01*
X129293905Y-95530057D02*
X129341524Y-95482438D01*
X129341524Y-95482438D02*
X129436762Y-95434819D01*
X129436762Y-95434819D02*
X129627238Y-95434819D01*
X129627238Y-95434819D02*
X129722476Y-95482438D01*
X129722476Y-95482438D02*
X129770095Y-95530057D01*
X129770095Y-95530057D02*
X129817714Y-95625295D01*
X129817714Y-95625295D02*
X129817714Y-95672914D01*
X129817714Y-95672914D02*
X129770095Y-95768152D01*
X129770095Y-95768152D02*
X129722476Y-95815771D01*
X129722476Y-95815771D02*
X129627238Y-95863390D01*
X129627238Y-95863390D02*
X129436762Y-95863390D01*
X129436762Y-95863390D02*
X129341524Y-95911009D01*
X129341524Y-95911009D02*
X129293905Y-95958628D01*
X129293905Y-95958628D02*
X129246286Y-96053866D01*
X129246286Y-96053866D02*
X129246286Y-96244342D01*
X129246286Y-96244342D02*
X129293905Y-96339580D01*
X129293905Y-96339580D02*
X129341524Y-96387200D01*
X129341524Y-96387200D02*
X129436762Y-96434819D01*
X129436762Y-96434819D02*
X129627238Y-96434819D01*
X129627238Y-96434819D02*
X129722476Y-96387200D01*
X129722476Y-96387200D02*
X129770095Y-96339580D01*
X129770095Y-96339580D02*
X129817714Y-96244342D01*
X129817714Y-96244342D02*
X129817714Y-96053866D01*
X129817714Y-96053866D02*
X129770095Y-95958628D01*
X129770095Y-95958628D02*
X129722476Y-95911009D01*
X129722476Y-95911009D02*
X129627238Y-95863390D01*
X122950952Y-126452819D02*
X122950952Y-125452819D01*
X122950952Y-125452819D02*
X123284285Y-126167104D01*
X123284285Y-126167104D02*
X123617618Y-125452819D01*
X123617618Y-125452819D02*
X123617618Y-126452819D01*
X124093809Y-126452819D02*
X124093809Y-125452819D01*
X124093809Y-125452819D02*
X124427142Y-126167104D01*
X124427142Y-126167104D02*
X124760475Y-125452819D01*
X124760475Y-125452819D02*
X124760475Y-126452819D01*
X125569999Y-125929009D02*
X125712856Y-125976628D01*
X125712856Y-125976628D02*
X125760475Y-126024247D01*
X125760475Y-126024247D02*
X125808094Y-126119485D01*
X125808094Y-126119485D02*
X125808094Y-126262342D01*
X125808094Y-126262342D02*
X125760475Y-126357580D01*
X125760475Y-126357580D02*
X125712856Y-126405200D01*
X125712856Y-126405200D02*
X125617618Y-126452819D01*
X125617618Y-126452819D02*
X125236666Y-126452819D01*
X125236666Y-126452819D02*
X125236666Y-125452819D01*
X125236666Y-125452819D02*
X125569999Y-125452819D01*
X125569999Y-125452819D02*
X125665237Y-125500438D01*
X125665237Y-125500438D02*
X125712856Y-125548057D01*
X125712856Y-125548057D02*
X125760475Y-125643295D01*
X125760475Y-125643295D02*
X125760475Y-125738533D01*
X125760475Y-125738533D02*
X125712856Y-125833771D01*
X125712856Y-125833771D02*
X125665237Y-125881390D01*
X125665237Y-125881390D02*
X125569999Y-125929009D01*
X125569999Y-125929009D02*
X125236666Y-125929009D01*
X126093809Y-125452819D02*
X126665237Y-125452819D01*
X126379523Y-126452819D02*
X126379523Y-125452819D01*
X126950952Y-125548057D02*
X126998571Y-125500438D01*
X126998571Y-125500438D02*
X127093809Y-125452819D01*
X127093809Y-125452819D02*
X127331904Y-125452819D01*
X127331904Y-125452819D02*
X127427142Y-125500438D01*
X127427142Y-125500438D02*
X127474761Y-125548057D01*
X127474761Y-125548057D02*
X127522380Y-125643295D01*
X127522380Y-125643295D02*
X127522380Y-125738533D01*
X127522380Y-125738533D02*
X127474761Y-125881390D01*
X127474761Y-125881390D02*
X126903333Y-126452819D01*
X126903333Y-126452819D02*
X127522380Y-126452819D01*
X127903333Y-125548057D02*
X127950952Y-125500438D01*
X127950952Y-125500438D02*
X128046190Y-125452819D01*
X128046190Y-125452819D02*
X128284285Y-125452819D01*
X128284285Y-125452819D02*
X128379523Y-125500438D01*
X128379523Y-125500438D02*
X128427142Y-125548057D01*
X128427142Y-125548057D02*
X128474761Y-125643295D01*
X128474761Y-125643295D02*
X128474761Y-125738533D01*
X128474761Y-125738533D02*
X128427142Y-125881390D01*
X128427142Y-125881390D02*
X127855714Y-126452819D01*
X127855714Y-126452819D02*
X128474761Y-126452819D01*
X128855714Y-125548057D02*
X128903333Y-125500438D01*
X128903333Y-125500438D02*
X128998571Y-125452819D01*
X128998571Y-125452819D02*
X129236666Y-125452819D01*
X129236666Y-125452819D02*
X129331904Y-125500438D01*
X129331904Y-125500438D02*
X129379523Y-125548057D01*
X129379523Y-125548057D02*
X129427142Y-125643295D01*
X129427142Y-125643295D02*
X129427142Y-125738533D01*
X129427142Y-125738533D02*
X129379523Y-125881390D01*
X129379523Y-125881390D02*
X128808095Y-126452819D01*
X128808095Y-126452819D02*
X129427142Y-126452819D01*
X129808095Y-125548057D02*
X129855714Y-125500438D01*
X129855714Y-125500438D02*
X129950952Y-125452819D01*
X129950952Y-125452819D02*
X130189047Y-125452819D01*
X130189047Y-125452819D02*
X130284285Y-125500438D01*
X130284285Y-125500438D02*
X130331904Y-125548057D01*
X130331904Y-125548057D02*
X130379523Y-125643295D01*
X130379523Y-125643295D02*
X130379523Y-125738533D01*
X130379523Y-125738533D02*
X130331904Y-125881390D01*
X130331904Y-125881390D02*
X129760476Y-126452819D01*
X129760476Y-126452819D02*
X130379523Y-126452819D01*
X130760476Y-126167104D02*
X131236666Y-126167104D01*
X130665238Y-126452819D02*
X130998571Y-125452819D01*
X130998571Y-125452819D02*
X131331904Y-126452819D01*
D12*
X127345028Y-123545619D02*
X127321219Y-123593238D01*
X127321219Y-123593238D02*
X127273600Y-123640857D01*
X127273600Y-123640857D02*
X127202171Y-123712285D01*
X127202171Y-123712285D02*
X127178361Y-123759904D01*
X127178361Y-123759904D02*
X127178361Y-123807523D01*
X127297409Y-123783714D02*
X127273600Y-123831333D01*
X127273600Y-123831333D02*
X127225980Y-123878952D01*
X127225980Y-123878952D02*
X127130742Y-123902761D01*
X127130742Y-123902761D02*
X126964076Y-123902761D01*
X126964076Y-123902761D02*
X126868838Y-123878952D01*
X126868838Y-123878952D02*
X126821219Y-123831333D01*
X126821219Y-123831333D02*
X126797409Y-123783714D01*
X126797409Y-123783714D02*
X126797409Y-123688476D01*
X126797409Y-123688476D02*
X126821219Y-123640857D01*
X126821219Y-123640857D02*
X126868838Y-123593238D01*
X126868838Y-123593238D02*
X126964076Y-123569428D01*
X126964076Y-123569428D02*
X127130742Y-123569428D01*
X127130742Y-123569428D02*
X127225980Y-123593238D01*
X127225980Y-123593238D02*
X127273600Y-123640857D01*
X127273600Y-123640857D02*
X127297409Y-123688476D01*
X127297409Y-123688476D02*
X127297409Y-123783714D01*
X127297409Y-123093237D02*
X127297409Y-123378951D01*
X127297409Y-123236094D02*
X126797409Y-123236094D01*
X126797409Y-123236094D02*
X126868838Y-123283713D01*
X126868838Y-123283713D02*
X126916457Y-123331332D01*
X126916457Y-123331332D02*
X126940266Y-123378951D01*
D15*
%TO.C,C2*%
X139100000Y-105450000D02*
X138100000Y-104450000D01*
X139100000Y-105450000D02*
X143700000Y-105450000D01*
X138100000Y-104450000D02*
X138100000Y-98850000D01*
X143700000Y-105450000D02*
X144700000Y-104450000D01*
X144700000Y-104450000D02*
X144700000Y-98850000D01*
X138100000Y-98850000D02*
X144700000Y-98850000D01*
X144550000Y-102150000D02*
G75*
G03*
X144550000Y-102150000I-3150000J0D01*
G01*
%TO.C,C5*%
X155175000Y-100050000D02*
X155175000Y-101250000D01*
X153175000Y-100050000D02*
X155175000Y-100050000D01*
X153175000Y-101250000D02*
X153175000Y-100050000D01*
X155175000Y-101250000D02*
X153175000Y-101250000D01*
%TO.C,C6*%
X128493000Y-109410000D02*
X128493000Y-110610000D01*
X126493000Y-109410000D02*
X128493000Y-109410000D01*
X128493000Y-110610000D02*
X126493000Y-110610000D01*
X126493000Y-110610000D02*
X126493000Y-109410000D01*
%TO.C,C7*%
X129936000Y-99378000D02*
X129936000Y-101378000D01*
X129936000Y-101378000D02*
X128736000Y-101378000D01*
X128736000Y-99378000D02*
X129936000Y-99378000D01*
X128736000Y-101378000D02*
X128736000Y-99378000D01*
%TO.C,D4*%
X161375000Y-91900000D02*
X161375000Y-89100000D01*
X161375000Y-89100000D02*
X163175000Y-89100000D01*
X162275000Y-90850000D02*
X162825000Y-90850000D01*
X163175000Y-91900000D02*
X161375000Y-91900000D01*
X163175000Y-89100000D02*
X163175000Y-91900000D01*
X162275000Y-90850000D02*
X161875000Y-90250000D01*
X162275000Y-90850000D02*
X161725000Y-90850000D01*
X161875000Y-90250000D02*
X162675000Y-90250000D01*
X162275000Y-91250000D02*
X162275000Y-90850000D01*
X162275000Y-90250000D02*
X162275000Y-89750000D01*
X162675000Y-90250000D02*
X162275000Y-90850000D01*
%TO.C,D5*%
X131820000Y-101672000D02*
X131820000Y-101272000D01*
X132720000Y-102322000D02*
X130920000Y-102322000D01*
X131820000Y-101272000D02*
X132370000Y-101272000D01*
X132220000Y-100672000D02*
X131820000Y-101272000D01*
X131820000Y-101272000D02*
X131270000Y-101272000D01*
X131420000Y-100672000D02*
X132220000Y-100672000D01*
X130920000Y-99522000D02*
X132720000Y-99522000D01*
X130920000Y-102322000D02*
X130920000Y-99522000D01*
X131820000Y-100672000D02*
X131820000Y-100172000D01*
X131820000Y-101272000D02*
X131420000Y-100672000D01*
X132720000Y-99522000D02*
X132720000Y-102322000D01*
%TO.C,D6*%
X133658000Y-136348000D02*
X133958000Y-136648000D01*
X134858000Y-136648000D02*
X134858000Y-134648000D01*
X133958000Y-136648000D02*
X134858000Y-136648000D01*
X134858000Y-134648000D02*
X133658000Y-134648000D01*
X133658000Y-134648000D02*
X133658000Y-136348000D01*
%TO.C,D7*%
X149557000Y-136856000D02*
X149857000Y-137156000D01*
X150757000Y-137156000D02*
X150757000Y-135156000D01*
X150757000Y-135156000D02*
X149557000Y-135156000D01*
X149857000Y-137156000D02*
X150757000Y-137156000D01*
X149557000Y-135156000D02*
X149557000Y-136856000D01*
%TO.C,J2*%
X128618000Y-69445000D02*
X126526000Y-71538000D01*
X163995000Y-69262000D02*
X161903000Y-71355000D01*
X119860000Y-65200000D02*
X165580000Y-65200000D01*
X138595000Y-69262000D02*
X136503000Y-71355000D01*
X143858000Y-69445000D02*
X141766000Y-71538000D01*
X119860000Y-73000000D02*
X165580000Y-73000000D01*
X119860000Y-74500000D02*
X165580000Y-74500000D01*
X159098000Y-69445000D02*
X157006000Y-71538000D01*
X153835000Y-69262000D02*
X151743000Y-71355000D01*
X120360000Y-75000000D02*
X119860000Y-74500000D01*
X148938000Y-69445000D02*
X146846000Y-71538000D01*
X138778000Y-69445000D02*
X136686000Y-71538000D01*
X164178000Y-69445000D02*
X162086000Y-71538000D01*
X123355000Y-69262000D02*
X121262000Y-71355000D01*
X119860000Y-74500000D02*
X119860000Y-65200000D01*
X154018000Y-69445000D02*
X151926000Y-71538000D01*
X165580000Y-75000000D02*
X120360000Y-75000000D01*
X119860000Y-68100000D02*
X165580000Y-68100000D01*
X143675000Y-69262000D02*
X141583000Y-71355000D01*
X123538000Y-69445000D02*
X121445000Y-71538000D01*
X133698000Y-69445000D02*
X131606000Y-71538000D01*
X148755000Y-69262000D02*
X146663000Y-71355000D01*
X128435000Y-69262000D02*
X126343000Y-71355000D01*
X165580000Y-65200000D02*
X165580000Y-75000000D01*
X158915000Y-69262000D02*
X156823000Y-71355000D01*
X133515000Y-69262000D02*
X131423000Y-71355000D01*
X144220000Y-70400000D02*
G75*
G03*
X144220000Y-70400000I-1500000J0D01*
G01*
X159460000Y-70400000D02*
G75*
G03*
X159460000Y-70400000I-1500000J0D01*
G01*
X128980000Y-70400000D02*
G75*
G03*
X128980000Y-70400000I-1500000J0D01*
G01*
X164540000Y-70400000D02*
G75*
G03*
X164540000Y-70400000I-1500000J0D01*
G01*
X149300000Y-70400000D02*
G75*
G03*
X149300000Y-70400000I-1500000J0D01*
G01*
X154380000Y-70400000D02*
G75*
G03*
X154380000Y-70400000I-1500000J0D01*
G01*
X139140000Y-70400000D02*
G75*
G03*
X139140000Y-70400000I-1500000J0D01*
G01*
X134060000Y-70400000D02*
G75*
G03*
X134060000Y-70400000I-1500000J0D01*
G01*
X123900000Y-70400000D02*
G75*
G03*
X123900000Y-70400000I-1500000J0D01*
G01*
%TO.C,J3*%
X119665000Y-150075000D02*
X119665000Y-140775000D01*
X123343000Y-145020000D02*
X121250000Y-147113000D01*
X128240000Y-144837000D02*
X126148000Y-146930000D01*
X158903000Y-145020000D02*
X156811000Y-147113000D01*
X163983000Y-145020000D02*
X161891000Y-147113000D01*
X119665000Y-143675000D02*
X165385000Y-143675000D01*
X123160000Y-144837000D02*
X121067000Y-146930000D01*
X153640000Y-144837000D02*
X151548000Y-146930000D01*
X148743000Y-145020000D02*
X146651000Y-147113000D01*
X158720000Y-144837000D02*
X156628000Y-146930000D01*
X153823000Y-145020000D02*
X151731000Y-147113000D01*
X138583000Y-145020000D02*
X136491000Y-147113000D01*
X163800000Y-144837000D02*
X161708000Y-146930000D01*
X128423000Y-145020000D02*
X126331000Y-147113000D01*
X119665000Y-140775000D02*
X165385000Y-140775000D01*
X133503000Y-145020000D02*
X131411000Y-147113000D01*
X143480000Y-144837000D02*
X141388000Y-146930000D01*
X138400000Y-144837000D02*
X136308000Y-146930000D01*
X120165000Y-150575000D02*
X119665000Y-150075000D01*
X165385000Y-150575000D02*
X120165000Y-150575000D01*
X148560000Y-144837000D02*
X146468000Y-146930000D01*
X119665000Y-150075000D02*
X165385000Y-150075000D01*
X143663000Y-145020000D02*
X141571000Y-147113000D01*
X165385000Y-140775000D02*
X165385000Y-150575000D01*
X133320000Y-144837000D02*
X131228000Y-146930000D01*
X119665000Y-148575000D02*
X165385000Y-148575000D01*
X144025000Y-145975000D02*
G75*
G03*
X144025000Y-145975000I-1500000J0D01*
G01*
X128785000Y-145975000D02*
G75*
G03*
X128785000Y-145975000I-1500000J0D01*
G01*
X123705000Y-145975000D02*
G75*
G03*
X123705000Y-145975000I-1500000J0D01*
G01*
X133865000Y-145975000D02*
G75*
G03*
X133865000Y-145975000I-1500000J0D01*
G01*
X154185000Y-145975000D02*
G75*
G03*
X154185000Y-145975000I-1500000J0D01*
G01*
X159265000Y-145975000D02*
G75*
G03*
X159265000Y-145975000I-1500000J0D01*
G01*
X138945000Y-145975000D02*
G75*
G03*
X138945000Y-145975000I-1500000J0D01*
G01*
X149105000Y-145975000D02*
G75*
G03*
X149105000Y-145975000I-1500000J0D01*
G01*
X164345000Y-145975000D02*
G75*
G03*
X164345000Y-145975000I-1500000J0D01*
G01*
%TO.C,J5*%
X136496000Y-104941000D02*
X136496000Y-106846000D01*
X135861000Y-104306000D02*
X136496000Y-104941000D01*
X128876000Y-106846000D02*
X128876000Y-104306000D01*
X128876000Y-104306000D02*
X135861000Y-104306000D01*
X136496000Y-106846000D02*
X128876000Y-106846000D01*
%TO.C,JP1*%
X133908000Y-103760000D02*
X133908000Y-99315000D01*
X133908000Y-99315000D02*
X134543000Y-98680000D01*
X136448000Y-98680000D02*
X136448000Y-103760000D01*
X136448000Y-103760000D02*
X133908000Y-103760000D01*
X134543000Y-98680000D02*
X136448000Y-98680000D01*
%TO.C,Q2*%
X142454000Y-122870000D02*
X142454000Y-125320000D01*
X142454000Y-122870000D02*
X143004000Y-122300000D01*
X143004000Y-122300000D02*
X143854000Y-122300000D01*
X143854000Y-122300000D02*
X143854000Y-125340000D01*
X142454000Y-125340000D02*
X143854000Y-125340000D01*
%TO.C,R1*%
X148500000Y-85585000D02*
X148500000Y-87585000D01*
X147300000Y-87585000D02*
X147300000Y-85585000D01*
X147300000Y-85585000D02*
X148500000Y-85585000D01*
X148500000Y-87585000D02*
X147300000Y-87585000D01*
%TO.C,R2*%
X124438000Y-122590000D02*
X124438000Y-124590000D01*
X123238000Y-124590000D02*
X123238000Y-122590000D01*
X123238000Y-122590000D02*
X124438000Y-122590000D01*
X124438000Y-124590000D02*
X123238000Y-124590000D01*
%TO.C,R3*%
X157550000Y-82025000D02*
X157550000Y-80025000D01*
X158750000Y-82025000D02*
X157550000Y-82025000D01*
X158750000Y-80025000D02*
X158750000Y-82025000D01*
X157550000Y-80025000D02*
X158750000Y-80025000D01*
%TO.C,R4*%
X158740000Y-87595000D02*
X157540000Y-87595000D01*
X158740000Y-85595000D02*
X158740000Y-87595000D01*
X157540000Y-87595000D02*
X157540000Y-85595000D01*
X157540000Y-85595000D02*
X158740000Y-85595000D01*
%TO.C,R5*%
X139520000Y-122840000D02*
X140720000Y-122840000D01*
X139520000Y-124840000D02*
X139520000Y-122840000D01*
X140720000Y-122840000D02*
X140720000Y-124840000D01*
X140720000Y-124840000D02*
X139520000Y-124840000D01*
%TO.C,R6*%
X148550000Y-82025000D02*
X147350000Y-82025000D01*
X147350000Y-80025000D02*
X148550000Y-80025000D01*
X147350000Y-82025000D02*
X147350000Y-80025000D01*
X148550000Y-80025000D02*
X148550000Y-82025000D01*
%TO.C,R7*%
X138540000Y-87605000D02*
X137340000Y-87605000D01*
X137340000Y-85605000D02*
X138540000Y-85605000D01*
X138540000Y-85605000D02*
X138540000Y-87605000D01*
X137340000Y-87605000D02*
X137340000Y-85605000D01*
%TO.C,R8*%
X138650000Y-80025000D02*
X138650000Y-82025000D01*
X137450000Y-82025000D02*
X137450000Y-80025000D01*
X138650000Y-82025000D02*
X137450000Y-82025000D01*
X137450000Y-80025000D02*
X138650000Y-80025000D01*
%TO.C,R9*%
X134868000Y-130478000D02*
X134868000Y-132478000D01*
X134868000Y-132478000D02*
X133668000Y-132478000D01*
X133668000Y-132478000D02*
X133668000Y-130478000D01*
X133668000Y-130478000D02*
X134868000Y-130478000D01*
%TO.C,R10*%
X156942000Y-124799000D02*
X155742000Y-124799000D01*
X156942000Y-122799000D02*
X156942000Y-124799000D01*
X155742000Y-122799000D02*
X156942000Y-122799000D01*
X155742000Y-124799000D02*
X155742000Y-122799000D01*
%TO.C,R11*%
X149482000Y-130706000D02*
X150682000Y-130706000D01*
X150682000Y-130706000D02*
X150682000Y-132706000D01*
X150682000Y-132706000D02*
X149482000Y-132706000D01*
X149482000Y-132706000D02*
X149482000Y-130706000D01*
%TO.C,SW1*%
X147500000Y-126400000D02*
X148900000Y-127800000D01*
X149100000Y-127200000D02*
X148100000Y-126200000D01*
X147500000Y-124000000D02*
X147500000Y-126400000D01*
X148100000Y-126200000D02*
X148100000Y-124200000D01*
X151100000Y-127200000D02*
X149100000Y-127200000D01*
X146900000Y-126800000D02*
X147900000Y-126800000D01*
X153300000Y-123600000D02*
X152300000Y-123600000D01*
X148100000Y-124200000D02*
X149100000Y-123200000D01*
X148900000Y-122600000D02*
X147500000Y-124000000D01*
X151300000Y-127800000D02*
X152700000Y-126400000D01*
X153300000Y-126800000D02*
X152300000Y-126800000D01*
X146900000Y-123100000D02*
X146900000Y-123600000D01*
X146900000Y-127300000D02*
X146900000Y-126800000D01*
X149100000Y-123200000D02*
X151100000Y-123200000D01*
X152800000Y-123100000D02*
X152800000Y-123600000D01*
X148400000Y-127300000D02*
X146900000Y-127300000D01*
X152100000Y-124200000D02*
X152100000Y-126200000D01*
X146900000Y-123600000D02*
X147900000Y-123600000D01*
X152100000Y-126200000D02*
X151100000Y-127200000D01*
X152700000Y-124000000D02*
X151300000Y-122600000D01*
X153300000Y-127300000D02*
X153300000Y-126800000D01*
X147400000Y-127300000D02*
X147400000Y-126800000D01*
X147400000Y-123100000D02*
X147400000Y-123600000D01*
X148900000Y-127800000D02*
X151300000Y-127800000D01*
X152700000Y-126400000D02*
X152700000Y-124000000D01*
X151100000Y-123200000D02*
X152100000Y-124200000D01*
X148400000Y-123100000D02*
X146900000Y-123100000D01*
X152800000Y-127300000D02*
X152800000Y-126800000D01*
X151800000Y-127300000D02*
X153300000Y-127300000D01*
X153300000Y-123100000D02*
X153300000Y-123600000D01*
X151300000Y-122600000D02*
X148900000Y-122600000D01*
X151800000Y-123100000D02*
X153300000Y-123100000D01*
X151100000Y-125200000D02*
G75*
G03*
X151100000Y-125200000I-1000000J0D01*
G01*
D10*
%TO.C,U1*%
X134000000Y-118250000D02*
X133000000Y-117250000D01*
X133000000Y-117250000D02*
X133000000Y-111250000D01*
X140000000Y-118250000D02*
X134000000Y-118250000D01*
X140000000Y-111250000D02*
X140000000Y-118250000D01*
X133000000Y-111250000D02*
X140000000Y-111250000D01*
D15*
%TO.C,U3*%
X151530000Y-78730000D02*
X151530000Y-88890000D01*
X151590000Y-80635000D02*
X155670000Y-80635000D01*
X156730000Y-88890000D02*
X156730000Y-78730000D01*
X156730000Y-78730000D02*
X151530000Y-78730000D01*
X156670000Y-81635000D02*
X156670000Y-86985000D01*
X151530000Y-88890000D02*
X156730000Y-88890000D01*
X151590000Y-86985000D02*
X151590000Y-80635000D01*
X156670000Y-86985000D02*
X151590000Y-86985000D01*
X155670000Y-80635000D02*
X156670000Y-81635000D01*
%TO.C,U4*%
X146530000Y-78730000D02*
X141330000Y-78730000D01*
X141330000Y-88890000D02*
X146530000Y-88890000D01*
X141390000Y-80635000D02*
X145470000Y-80635000D01*
X146530000Y-88890000D02*
X146530000Y-78730000D01*
X146470000Y-81635000D02*
X146470000Y-86985000D01*
X141330000Y-78730000D02*
X141330000Y-88890000D01*
X141390000Y-86985000D02*
X141390000Y-80635000D01*
X146470000Y-86985000D02*
X141390000Y-86985000D01*
X145470000Y-80635000D02*
X146470000Y-81635000D01*
%TO.C,U5*%
X136470000Y-86985000D02*
X131390000Y-86985000D01*
X136470000Y-81635000D02*
X136470000Y-86985000D01*
X135470000Y-80635000D02*
X136470000Y-81635000D01*
X136530000Y-78730000D02*
X131330000Y-78730000D01*
X136530000Y-88890000D02*
X136530000Y-78730000D01*
X131390000Y-86985000D02*
X131390000Y-80635000D01*
X131330000Y-78730000D02*
X131330000Y-88890000D01*
X131390000Y-80635000D02*
X135470000Y-80635000D01*
X131330000Y-88890000D02*
X136530000Y-88890000D01*
%TO.C,U7*%
X122132000Y-105460000D02*
X127832000Y-105460000D01*
X127832000Y-105460000D02*
X127832000Y-101760000D01*
X122132000Y-105460000D02*
X121132000Y-104460000D01*
X121132000Y-101760000D02*
X127832000Y-101760000D01*
X121132000Y-104460000D02*
X121132000Y-101760000D01*
%TO.C,Q3*%
X158716000Y-125326000D02*
X160116000Y-125326000D01*
X160116000Y-122286000D02*
X160116000Y-125326000D01*
X158716000Y-122856000D02*
X159266000Y-122286000D01*
X158716000Y-122856000D02*
X158716000Y-125306000D01*
X159266000Y-122286000D02*
X160116000Y-122286000D01*
%TO.C,C3*%
X127600000Y-119300000D02*
X126400000Y-119300000D01*
X126400000Y-117300000D02*
X127600000Y-117300000D01*
X127600000Y-117300000D02*
X127600000Y-119300000D01*
X126400000Y-119300000D02*
X126400000Y-117300000D01*
%TO.C,C4*%
X128750000Y-119325000D02*
X128750000Y-117325000D01*
X128750000Y-117325000D02*
X129950000Y-117325000D01*
X129950000Y-119325000D02*
X128750000Y-119325000D01*
X129950000Y-117325000D02*
X129950000Y-119325000D01*
%TO.C,C1*%
X143850000Y-119050000D02*
X142650000Y-119050000D01*
X142650000Y-119050000D02*
X142650000Y-117050000D01*
X142650000Y-117050000D02*
X143850000Y-117050000D01*
X143850000Y-117050000D02*
X143850000Y-119050000D01*
%TO.C,D8*%
X127632000Y-93080000D02*
X130432000Y-93080000D01*
X129382000Y-93980000D02*
X129382000Y-94530000D01*
X128782000Y-93580000D02*
X129382000Y-93980000D01*
X128782000Y-93980000D02*
X128282000Y-93980000D01*
X130432000Y-93080000D02*
X130432000Y-94880000D01*
X129382000Y-93980000D02*
X128782000Y-94380000D01*
X130432000Y-94880000D02*
X127632000Y-94880000D01*
X128782000Y-94380000D02*
X128782000Y-93580000D01*
X127632000Y-94880000D02*
X127632000Y-93080000D01*
X129782000Y-93980000D02*
X129382000Y-93980000D01*
X129382000Y-93980000D02*
X129382000Y-93430000D01*
%TO.C,Q1*%
X127770000Y-121978000D02*
X127770000Y-125018000D01*
X126370000Y-125018000D02*
X127770000Y-125018000D01*
X126370000Y-122548000D02*
X126920000Y-121978000D01*
X126920000Y-121978000D02*
X127770000Y-121978000D01*
X126370000Y-122548000D02*
X126370000Y-124998000D01*
%TD*%
M02*
