%TF.GenerationSoftware,KiCad,Pcbnew,7.0.6-7.0.6~ubuntu22.04.1*%
%TF.CreationDate,2023-08-05T17:23:33+01:00*%
%TF.ProjectId,working,776f726b-696e-4672-9e6b-696361645f70,rev?*%
%TF.SameCoordinates,Original*%
%TF.FileFunction,AssemblyDrawing,Bot*%
%FSLAX46Y46*%
G04 Gerber Fmt 4.6, Leading zero omitted, Abs format (unit mm)*
G04 Created by KiCad (PCBNEW 7.0.6-7.0.6~ubuntu22.04.1) date 2023-08-05 17:23:33*
%MOMM*%
%LPD*%
G01*
G04 APERTURE LIST*
%ADD10C,0.036576*%
%ADD11C,0.001869*%
%ADD12C,0.203200*%
G04 APERTURE END LIST*
D10*
X150505819Y-93880961D02*
X150505819Y-94145121D01*
X150505819Y-94145121D02*
X150523430Y-94197953D01*
X150523430Y-94197953D02*
X150558651Y-94233175D01*
X150558651Y-94233175D02*
X150611483Y-94250785D01*
X150611483Y-94250785D02*
X150646705Y-94250785D01*
X150347323Y-94233175D02*
X150294491Y-94250785D01*
X150294491Y-94250785D02*
X150206438Y-94250785D01*
X150206438Y-94250785D02*
X150171216Y-94233175D01*
X150171216Y-94233175D02*
X150153606Y-94215564D01*
X150153606Y-94215564D02*
X150135995Y-94180343D01*
X150135995Y-94180343D02*
X150135995Y-94145121D01*
X150135995Y-94145121D02*
X150153606Y-94109900D01*
X150153606Y-94109900D02*
X150171216Y-94092289D01*
X150171216Y-94092289D02*
X150206438Y-94074679D01*
X150206438Y-94074679D02*
X150276880Y-94057068D01*
X150276880Y-94057068D02*
X150312102Y-94039457D01*
X150312102Y-94039457D02*
X150329712Y-94021847D01*
X150329712Y-94021847D02*
X150347323Y-93986625D01*
X150347323Y-93986625D02*
X150347323Y-93951404D01*
X150347323Y-93951404D02*
X150329712Y-93916183D01*
X150329712Y-93916183D02*
X150312102Y-93898572D01*
X150312102Y-93898572D02*
X150276880Y-93880961D01*
X150276880Y-93880961D02*
X150188827Y-93880961D01*
X150188827Y-93880961D02*
X150135995Y-93898572D01*
X150030331Y-93880961D02*
X149819003Y-93880961D01*
X149924667Y-94250785D02*
X149924667Y-93880961D01*
X149695728Y-94109900D02*
X149413958Y-94109900D01*
X149255462Y-93916183D02*
X149237851Y-93898572D01*
X149237851Y-93898572D02*
X149202630Y-93880961D01*
X149202630Y-93880961D02*
X149114577Y-93880961D01*
X149114577Y-93880961D02*
X149079355Y-93898572D01*
X149079355Y-93898572D02*
X149061745Y-93916183D01*
X149061745Y-93916183D02*
X149044134Y-93951404D01*
X149044134Y-93951404D02*
X149044134Y-93986625D01*
X149044134Y-93986625D02*
X149061745Y-94039457D01*
X149061745Y-94039457D02*
X149273073Y-94250785D01*
X149273073Y-94250785D02*
X149044134Y-94250785D01*
X148885638Y-94250785D02*
X148885638Y-93880961D01*
X148885638Y-93880961D02*
X148744753Y-93880961D01*
X148744753Y-93880961D02*
X148709532Y-93898572D01*
X148709532Y-93898572D02*
X148691921Y-93916183D01*
X148691921Y-93916183D02*
X148674310Y-93951404D01*
X148674310Y-93951404D02*
X148674310Y-94004236D01*
X148674310Y-94004236D02*
X148691921Y-94039457D01*
X148691921Y-94039457D02*
X148709532Y-94057068D01*
X148709532Y-94057068D02*
X148744753Y-94074679D01*
X148744753Y-94074679D02*
X148885638Y-94074679D01*
X148515814Y-94250785D02*
X148515814Y-93880961D01*
X148515814Y-94057068D02*
X148304486Y-94057068D01*
X148304486Y-94250785D02*
X148304486Y-93880961D01*
D11*
X145767129Y-104673357D02*
X145753683Y-104673357D01*
X145760406Y-104696888D02*
X145760406Y-104673357D01*
X145745840Y-104696888D02*
X145745840Y-104673357D01*
X145745840Y-104673357D02*
X145736876Y-104673357D01*
X145736876Y-104673357D02*
X145734635Y-104674478D01*
X145734635Y-104674478D02*
X145733514Y-104675598D01*
X145733514Y-104675598D02*
X145732394Y-104677839D01*
X145732394Y-104677839D02*
X145732394Y-104681201D01*
X145732394Y-104681201D02*
X145733514Y-104683442D01*
X145733514Y-104683442D02*
X145734635Y-104684562D01*
X145734635Y-104684562D02*
X145736876Y-104685683D01*
X145736876Y-104685683D02*
X145745840Y-104685683D01*
X145714465Y-104684562D02*
X145711104Y-104685683D01*
X145711104Y-104685683D02*
X145709983Y-104686803D01*
X145709983Y-104686803D02*
X145708863Y-104689044D01*
X145708863Y-104689044D02*
X145708863Y-104692406D01*
X145708863Y-104692406D02*
X145709983Y-104694647D01*
X145709983Y-104694647D02*
X145711104Y-104695768D01*
X145711104Y-104695768D02*
X145713345Y-104696888D01*
X145713345Y-104696888D02*
X145722309Y-104696888D01*
X145722309Y-104696888D02*
X145722309Y-104673357D01*
X145722309Y-104673357D02*
X145714465Y-104673357D01*
X145714465Y-104673357D02*
X145712224Y-104674478D01*
X145712224Y-104674478D02*
X145711104Y-104675598D01*
X145711104Y-104675598D02*
X145709983Y-104677839D01*
X145709983Y-104677839D02*
X145709983Y-104680080D01*
X145709983Y-104680080D02*
X145711104Y-104682321D01*
X145711104Y-104682321D02*
X145712224Y-104683442D01*
X145712224Y-104683442D02*
X145714465Y-104684562D01*
X145714465Y-104684562D02*
X145722309Y-104684562D01*
X145686452Y-104696888D02*
X145699898Y-104696888D01*
X145693175Y-104696888D02*
X145693175Y-104673357D01*
X145693175Y-104673357D02*
X145695416Y-104676719D01*
X145695416Y-104676719D02*
X145697657Y-104678960D01*
X145697657Y-104678960D02*
X145699898Y-104680080D01*
X145675247Y-104695768D02*
X145675247Y-104696888D01*
X145675247Y-104696888D02*
X145676368Y-104699129D01*
X145676368Y-104699129D02*
X145677488Y-104700250D01*
X145666283Y-104675598D02*
X145665163Y-104674478D01*
X145665163Y-104674478D02*
X145662922Y-104673357D01*
X145662922Y-104673357D02*
X145657319Y-104673357D01*
X145657319Y-104673357D02*
X145655078Y-104674478D01*
X145655078Y-104674478D02*
X145653958Y-104675598D01*
X145653958Y-104675598D02*
X145652837Y-104677839D01*
X145652837Y-104677839D02*
X145652837Y-104680080D01*
X145652837Y-104680080D02*
X145653958Y-104683442D01*
X145653958Y-104683442D02*
X145667404Y-104696888D01*
X145667404Y-104696888D02*
X145652837Y-104696888D01*
X145644994Y-104673357D02*
X145629307Y-104673357D01*
X145629307Y-104673357D02*
X145639391Y-104696888D01*
X145767129Y-102679457D02*
X145753683Y-102679457D01*
X145760406Y-102702988D02*
X145760406Y-102679457D01*
X145745840Y-102702988D02*
X145745840Y-102679457D01*
X145745840Y-102679457D02*
X145736876Y-102679457D01*
X145736876Y-102679457D02*
X145734635Y-102680578D01*
X145734635Y-102680578D02*
X145733514Y-102681698D01*
X145733514Y-102681698D02*
X145732394Y-102683939D01*
X145732394Y-102683939D02*
X145732394Y-102687301D01*
X145732394Y-102687301D02*
X145733514Y-102689542D01*
X145733514Y-102689542D02*
X145734635Y-102690662D01*
X145734635Y-102690662D02*
X145736876Y-102691783D01*
X145736876Y-102691783D02*
X145745840Y-102691783D01*
X145714465Y-102690662D02*
X145711104Y-102691783D01*
X145711104Y-102691783D02*
X145709983Y-102692903D01*
X145709983Y-102692903D02*
X145708863Y-102695144D01*
X145708863Y-102695144D02*
X145708863Y-102698506D01*
X145708863Y-102698506D02*
X145709983Y-102700747D01*
X145709983Y-102700747D02*
X145711104Y-102701868D01*
X145711104Y-102701868D02*
X145713345Y-102702988D01*
X145713345Y-102702988D02*
X145722309Y-102702988D01*
X145722309Y-102702988D02*
X145722309Y-102679457D01*
X145722309Y-102679457D02*
X145714465Y-102679457D01*
X145714465Y-102679457D02*
X145712224Y-102680578D01*
X145712224Y-102680578D02*
X145711104Y-102681698D01*
X145711104Y-102681698D02*
X145709983Y-102683939D01*
X145709983Y-102683939D02*
X145709983Y-102686180D01*
X145709983Y-102686180D02*
X145711104Y-102688421D01*
X145711104Y-102688421D02*
X145712224Y-102689542D01*
X145712224Y-102689542D02*
X145714465Y-102690662D01*
X145714465Y-102690662D02*
X145722309Y-102690662D01*
X145686452Y-102702988D02*
X145699898Y-102702988D01*
X145693175Y-102702988D02*
X145693175Y-102679457D01*
X145693175Y-102679457D02*
X145695416Y-102682819D01*
X145695416Y-102682819D02*
X145697657Y-102685060D01*
X145697657Y-102685060D02*
X145699898Y-102686180D01*
X145675247Y-102701868D02*
X145675247Y-102702988D01*
X145675247Y-102702988D02*
X145676368Y-102705229D01*
X145676368Y-102705229D02*
X145677488Y-102706350D01*
X145666283Y-102681698D02*
X145665163Y-102680578D01*
X145665163Y-102680578D02*
X145662922Y-102679457D01*
X145662922Y-102679457D02*
X145657319Y-102679457D01*
X145657319Y-102679457D02*
X145655078Y-102680578D01*
X145655078Y-102680578D02*
X145653958Y-102681698D01*
X145653958Y-102681698D02*
X145652837Y-102683939D01*
X145652837Y-102683939D02*
X145652837Y-102686180D01*
X145652837Y-102686180D02*
X145653958Y-102689542D01*
X145653958Y-102689542D02*
X145667404Y-102702988D01*
X145667404Y-102702988D02*
X145652837Y-102702988D01*
X145644994Y-102679457D02*
X145629307Y-102679457D01*
X145629307Y-102679457D02*
X145639391Y-102702988D01*
D12*
%TO.C,BAT0*%
X152501100Y-99851600D02*
X152501100Y-92351600D01*
X152501100Y-92351600D02*
X144501100Y-92351600D01*
X151701100Y-99851600D02*
X152501100Y-99851600D01*
X151701100Y-97351600D02*
X151701100Y-99851600D01*
X145301100Y-99851600D02*
X145301100Y-97351600D01*
X145301100Y-97351600D02*
X151701100Y-97351600D01*
X144501100Y-99851600D02*
X145301100Y-99851600D01*
X144501100Y-92351600D02*
X144501100Y-99851600D01*
%TD*%
M02*
