%TF.GenerationSoftware,KiCad,Pcbnew,7.0.6-7.0.6~ubuntu22.04.1*%
%TF.CreationDate,2023-08-07T06:05:11+01:00*%
%TF.ProjectId,working,776f726b-696e-4672-9e6b-696361645f70,rev?*%
%TF.SameCoordinates,Original*%
%TF.FileFunction,Other,User*%
%FSLAX46Y46*%
G04 Gerber Fmt 4.6, Leading zero omitted, Abs format (unit mm)*
G04 Created by KiCad (PCBNEW 7.0.6-7.0.6~ubuntu22.04.1) date 2023-08-07 06:05:11*
%MOMM*%
%LPD*%
G01*
G04 APERTURE LIST*
%ADD10C,0.050800*%
G04 APERTURE END LIST*
D10*
%TO.C,C1*%
X141363390Y-197446340D02*
X143430714Y-198198784D01*
X143430714Y-198198784D02*
X145072410Y-193688260D01*
X143005086Y-192935816D02*
X141363390Y-197446340D01*
X145072410Y-193688260D02*
X143005086Y-192935816D01*
%TO.C,C6*%
X195973390Y-88226340D02*
X198040714Y-88978784D01*
X198040714Y-88978784D02*
X199682410Y-84468260D01*
X197615086Y-83715816D02*
X195973390Y-88226340D01*
X199682410Y-84468260D02*
X197615086Y-83715816D01*
%TO.C,C3*%
X141363390Y-142836340D02*
X143430714Y-143588784D01*
X143430714Y-143588784D02*
X145072410Y-139078260D01*
X143005086Y-138325816D02*
X141363390Y-142836340D01*
X145072410Y-139078260D02*
X143005086Y-138325816D01*
%TO.C,C5*%
X141363390Y-88226340D02*
X143430714Y-88978784D01*
X143430714Y-88978784D02*
X145072410Y-84468260D01*
X143005086Y-83715816D02*
X141363390Y-88226340D01*
X145072410Y-84468260D02*
X143005086Y-83715816D01*
%TO.C,C2*%
X195973390Y-197446340D02*
X198040714Y-198198784D01*
X198040714Y-198198784D02*
X199682410Y-193688260D01*
X197615086Y-192935816D02*
X195973390Y-197446340D01*
X199682410Y-193688260D02*
X197615086Y-192935816D01*
%TO.C,C7*%
X141363390Y-33616340D02*
X143430714Y-34368784D01*
X143430714Y-34368784D02*
X145072410Y-29858260D01*
X143005086Y-29105816D02*
X141363390Y-33616340D01*
X145072410Y-29858260D02*
X143005086Y-29105816D01*
%TO.C,C4*%
X195973390Y-142836340D02*
X198040714Y-143588784D01*
X198040714Y-143588784D02*
X199682410Y-139078260D01*
X197615086Y-138325816D02*
X195973390Y-142836340D01*
X199682410Y-139078260D02*
X197615086Y-138325816D01*
%TO.C,C8*%
X195973390Y-33616340D02*
X198040714Y-34368784D01*
X198040714Y-34368784D02*
X199682410Y-29858260D01*
X197615086Y-29105816D02*
X195973390Y-33616340D01*
X199682410Y-29858260D02*
X197615086Y-29105816D01*
%TD*%
M02*
