%TF.GenerationSoftware,KiCad,Pcbnew,7.0.6-7.0.6~ubuntu22.04.1*%
%TF.CreationDate,2023-08-03T23:16:20+01:00*%
%TF.ProjectId,working,776f726b-696e-4672-9e6b-696361645f70,rev?*%
%TF.SameCoordinates,Original*%
%TF.FileFunction,Legend,Top*%
%TF.FilePolarity,Positive*%
%FSLAX46Y46*%
G04 Gerber Fmt 4.6, Leading zero omitted, Abs format (unit mm)*
G04 Created by KiCad (PCBNEW 7.0.6-7.0.6~ubuntu22.04.1) date 2023-08-03 23:16:20*
%MOMM*%
%LPD*%
G01*
G04 APERTURE LIST*
%ADD10C,0.305816*%
%ADD11C,0.203200*%
%ADD12C,0.119969*%
%ADD13C,0.304800*%
%ADD14C,0.200000*%
G04 APERTURE END LIST*
D10*
X145407669Y-108396766D02*
X145407669Y-106518182D01*
X145407669Y-106518182D02*
X146123320Y-106518182D01*
X146123320Y-106518182D02*
X146302233Y-106607638D01*
X146302233Y-106607638D02*
X146391690Y-106697095D01*
X146391690Y-106697095D02*
X146481146Y-106876007D01*
X146481146Y-106876007D02*
X146481146Y-107144377D01*
X146481146Y-107144377D02*
X146391690Y-107323289D01*
X146391690Y-107323289D02*
X146302233Y-107412746D01*
X146302233Y-107412746D02*
X146123320Y-107502202D01*
X146123320Y-107502202D02*
X145407669Y-107502202D01*
X147912448Y-107412746D02*
X148180817Y-107502202D01*
X148180817Y-107502202D02*
X148270274Y-107591658D01*
X148270274Y-107591658D02*
X148359730Y-107770571D01*
X148359730Y-107770571D02*
X148359730Y-108038940D01*
X148359730Y-108038940D02*
X148270274Y-108217853D01*
X148270274Y-108217853D02*
X148180817Y-108307310D01*
X148180817Y-108307310D02*
X148001904Y-108396766D01*
X148001904Y-108396766D02*
X147286253Y-108396766D01*
X147286253Y-108396766D02*
X147286253Y-106518182D01*
X147286253Y-106518182D02*
X147912448Y-106518182D01*
X147912448Y-106518182D02*
X148091361Y-106607638D01*
X148091361Y-106607638D02*
X148180817Y-106697095D01*
X148180817Y-106697095D02*
X148270274Y-106876007D01*
X148270274Y-106876007D02*
X148270274Y-107054920D01*
X148270274Y-107054920D02*
X148180817Y-107233833D01*
X148180817Y-107233833D02*
X148091361Y-107323289D01*
X148091361Y-107323289D02*
X147912448Y-107412746D01*
X147912448Y-107412746D02*
X147286253Y-107412746D01*
X149433207Y-107323289D02*
X149254294Y-107233833D01*
X149254294Y-107233833D02*
X149164837Y-107144377D01*
X149164837Y-107144377D02*
X149075381Y-106965464D01*
X149075381Y-106965464D02*
X149075381Y-106876007D01*
X149075381Y-106876007D02*
X149164837Y-106697095D01*
X149164837Y-106697095D02*
X149254294Y-106607638D01*
X149254294Y-106607638D02*
X149433207Y-106518182D01*
X149433207Y-106518182D02*
X149791032Y-106518182D01*
X149791032Y-106518182D02*
X149969945Y-106607638D01*
X149969945Y-106607638D02*
X150059401Y-106697095D01*
X150059401Y-106697095D02*
X150148858Y-106876007D01*
X150148858Y-106876007D02*
X150148858Y-106965464D01*
X150148858Y-106965464D02*
X150059401Y-107144377D01*
X150059401Y-107144377D02*
X149969945Y-107233833D01*
X149969945Y-107233833D02*
X149791032Y-107323289D01*
X149791032Y-107323289D02*
X149433207Y-107323289D01*
X149433207Y-107323289D02*
X149254294Y-107412746D01*
X149254294Y-107412746D02*
X149164837Y-107502202D01*
X149164837Y-107502202D02*
X149075381Y-107681115D01*
X149075381Y-107681115D02*
X149075381Y-108038940D01*
X149075381Y-108038940D02*
X149164837Y-108217853D01*
X149164837Y-108217853D02*
X149254294Y-108307310D01*
X149254294Y-108307310D02*
X149433207Y-108396766D01*
X149433207Y-108396766D02*
X149791032Y-108396766D01*
X149791032Y-108396766D02*
X149969945Y-108307310D01*
X149969945Y-108307310D02*
X150059401Y-108217853D01*
X150059401Y-108217853D02*
X150148858Y-108038940D01*
X150148858Y-108038940D02*
X150148858Y-107681115D01*
X150148858Y-107681115D02*
X150059401Y-107502202D01*
X150059401Y-107502202D02*
X149969945Y-107412746D01*
X149969945Y-107412746D02*
X149791032Y-107323289D01*
X151759073Y-106518182D02*
X151401247Y-106518182D01*
X151401247Y-106518182D02*
X151222335Y-106607638D01*
X151222335Y-106607638D02*
X151132878Y-106697095D01*
X151132878Y-106697095D02*
X150953965Y-106965464D01*
X150953965Y-106965464D02*
X150864509Y-107323289D01*
X150864509Y-107323289D02*
X150864509Y-108038940D01*
X150864509Y-108038940D02*
X150953965Y-108217853D01*
X150953965Y-108217853D02*
X151043422Y-108307310D01*
X151043422Y-108307310D02*
X151222335Y-108396766D01*
X151222335Y-108396766D02*
X151580160Y-108396766D01*
X151580160Y-108396766D02*
X151759073Y-108307310D01*
X151759073Y-108307310D02*
X151848529Y-108217853D01*
X151848529Y-108217853D02*
X151937986Y-108038940D01*
X151937986Y-108038940D02*
X151937986Y-107591658D01*
X151937986Y-107591658D02*
X151848529Y-107412746D01*
X151848529Y-107412746D02*
X151759073Y-107323289D01*
X151759073Y-107323289D02*
X151580160Y-107233833D01*
X151580160Y-107233833D02*
X151222335Y-107233833D01*
X151222335Y-107233833D02*
X151043422Y-107323289D01*
X151043422Y-107323289D02*
X150953965Y-107412746D01*
X150953965Y-107412746D02*
X150864509Y-107591658D01*
D11*
X148434003Y-110569857D02*
X148550117Y-110608561D01*
X148550117Y-110608561D02*
X148743641Y-110608561D01*
X148743641Y-110608561D02*
X148821050Y-110569857D01*
X148821050Y-110569857D02*
X148859755Y-110531152D01*
X148859755Y-110531152D02*
X148898460Y-110453742D01*
X148898460Y-110453742D02*
X148898460Y-110376333D01*
X148898460Y-110376333D02*
X148859755Y-110298923D01*
X148859755Y-110298923D02*
X148821050Y-110260218D01*
X148821050Y-110260218D02*
X148743641Y-110221514D01*
X148743641Y-110221514D02*
X148588822Y-110182809D01*
X148588822Y-110182809D02*
X148511412Y-110144104D01*
X148511412Y-110144104D02*
X148472707Y-110105399D01*
X148472707Y-110105399D02*
X148434003Y-110027990D01*
X148434003Y-110027990D02*
X148434003Y-109950580D01*
X148434003Y-109950580D02*
X148472707Y-109873171D01*
X148472707Y-109873171D02*
X148511412Y-109834466D01*
X148511412Y-109834466D02*
X148588822Y-109795761D01*
X148588822Y-109795761D02*
X148782345Y-109795761D01*
X148782345Y-109795761D02*
X148898460Y-109834466D01*
X148666231Y-109679647D02*
X148666231Y-110724676D01*
X149479031Y-110918199D02*
X149440326Y-110918199D01*
X149440326Y-110918199D02*
X149362917Y-110879495D01*
X149362917Y-110879495D02*
X149324212Y-110802085D01*
X149324212Y-110802085D02*
X149324212Y-110415037D01*
X149324212Y-110415037D02*
X149285507Y-110337628D01*
X149285507Y-110337628D02*
X149208098Y-110298923D01*
X149208098Y-110298923D02*
X149285507Y-110260218D01*
X149285507Y-110260218D02*
X149324212Y-110182809D01*
X149324212Y-110182809D02*
X149324212Y-109795761D01*
X149324212Y-109795761D02*
X149362917Y-109718352D01*
X149362917Y-109718352D02*
X149440326Y-109679647D01*
X149440326Y-109679647D02*
X149479031Y-109679647D01*
X150253126Y-110608561D02*
X149982193Y-110221514D01*
X149788669Y-110608561D02*
X149788669Y-109795761D01*
X149788669Y-109795761D02*
X150098307Y-109795761D01*
X150098307Y-109795761D02*
X150175717Y-109834466D01*
X150175717Y-109834466D02*
X150214422Y-109873171D01*
X150214422Y-109873171D02*
X150253126Y-109950580D01*
X150253126Y-109950580D02*
X150253126Y-110066695D01*
X150253126Y-110066695D02*
X150214422Y-110144104D01*
X150214422Y-110144104D02*
X150175717Y-110182809D01*
X150175717Y-110182809D02*
X150098307Y-110221514D01*
X150098307Y-110221514D02*
X149788669Y-110221514D01*
X150601469Y-110182809D02*
X150872403Y-110182809D01*
X150988517Y-110608561D02*
X150601469Y-110608561D01*
X150601469Y-110608561D02*
X150601469Y-109795761D01*
X150601469Y-109795761D02*
X150988517Y-109795761D01*
X151220745Y-109795761D02*
X151491678Y-110608561D01*
X151491678Y-110608561D02*
X151762612Y-109795761D01*
X151956136Y-110918199D02*
X151994841Y-110918199D01*
X151994841Y-110918199D02*
X152072250Y-110879495D01*
X152072250Y-110879495D02*
X152110955Y-110802085D01*
X152110955Y-110802085D02*
X152110955Y-110415037D01*
X152110955Y-110415037D02*
X152149660Y-110337628D01*
X152149660Y-110337628D02*
X152227069Y-110298923D01*
X152227069Y-110298923D02*
X152149660Y-110260218D01*
X152149660Y-110260218D02*
X152110955Y-110182809D01*
X152110955Y-110182809D02*
X152110955Y-109795761D01*
X152110955Y-109795761D02*
X152072250Y-109718352D01*
X152072250Y-109718352D02*
X151994841Y-109679647D01*
X151994841Y-109679647D02*
X151956136Y-109679647D01*
D12*
X142516737Y-112956246D02*
X142516737Y-113451126D01*
X142516737Y-113451126D02*
X142483745Y-113550102D01*
X142483745Y-113550102D02*
X142417761Y-113616086D01*
X142417761Y-113616086D02*
X142318785Y-113649077D01*
X142318785Y-113649077D02*
X142252801Y-113649077D01*
X142846656Y-113649077D02*
X142846656Y-112956246D01*
X142846656Y-112956246D02*
X143110592Y-112956246D01*
X143110592Y-112956246D02*
X143176576Y-112989238D01*
X143176576Y-112989238D02*
X143209568Y-113022230D01*
X143209568Y-113022230D02*
X143242560Y-113088214D01*
X143242560Y-113088214D02*
X143242560Y-113187190D01*
X143242560Y-113187190D02*
X143209568Y-113253174D01*
X143209568Y-113253174D02*
X143176576Y-113286166D01*
X143176576Y-113286166D02*
X143110592Y-113319158D01*
X143110592Y-113319158D02*
X142846656Y-113319158D01*
X143902399Y-113649077D02*
X143506495Y-113649077D01*
X143704447Y-113649077D02*
X143704447Y-112956246D01*
X143704447Y-112956246D02*
X143638463Y-113055222D01*
X143638463Y-113055222D02*
X143572479Y-113121206D01*
X143572479Y-113121206D02*
X143506495Y-113154198D01*
X142516737Y-92636246D02*
X142516737Y-93131126D01*
X142516737Y-93131126D02*
X142483745Y-93230102D01*
X142483745Y-93230102D02*
X142417761Y-93296086D01*
X142417761Y-93296086D02*
X142318785Y-93329077D01*
X142318785Y-93329077D02*
X142252801Y-93329077D01*
X142846656Y-93329077D02*
X142846656Y-92636246D01*
X142846656Y-92636246D02*
X143110592Y-92636246D01*
X143110592Y-92636246D02*
X143176576Y-92669238D01*
X143176576Y-92669238D02*
X143209568Y-92702230D01*
X143209568Y-92702230D02*
X143242560Y-92768214D01*
X143242560Y-92768214D02*
X143242560Y-92867190D01*
X143242560Y-92867190D02*
X143209568Y-92933174D01*
X143209568Y-92933174D02*
X143176576Y-92966166D01*
X143176576Y-92966166D02*
X143110592Y-92999158D01*
X143110592Y-92999158D02*
X142846656Y-92999158D01*
X143506495Y-92702230D02*
X143539487Y-92669238D01*
X143539487Y-92669238D02*
X143605471Y-92636246D01*
X143605471Y-92636246D02*
X143770431Y-92636246D01*
X143770431Y-92636246D02*
X143836415Y-92669238D01*
X143836415Y-92669238D02*
X143869407Y-92702230D01*
X143869407Y-92702230D02*
X143902399Y-92768214D01*
X143902399Y-92768214D02*
X143902399Y-92834198D01*
X143902399Y-92834198D02*
X143869407Y-92933174D01*
X143869407Y-92933174D02*
X143473503Y-93329077D01*
X143473503Y-93329077D02*
X143902399Y-93329077D01*
D13*
%TO.C,U$1*%
X149399100Y-110210600D02*
G75*
G03*
X149399100Y-110210600I-898000J0D01*
G01*
D14*
%TO.C,SW1*%
X142301100Y-96503600D02*
X142801100Y-96503600D01*
X142301100Y-113503600D02*
X142301100Y-96503600D01*
X142801100Y-96503600D02*
X142801100Y-103103600D01*
X142801100Y-96503600D02*
X154301100Y-96503600D01*
X142801100Y-103103600D02*
X143801100Y-104103600D01*
X143801100Y-104103600D02*
X143801100Y-112503600D01*
X143801100Y-104103600D02*
X153301100Y-104103600D01*
X143801100Y-112503600D02*
X142401100Y-113403600D01*
X143801100Y-112503600D02*
X153301100Y-112503600D01*
X153301100Y-104103600D02*
X154301100Y-103103600D01*
X153301100Y-112503600D02*
X153301100Y-104103600D01*
X153301100Y-112503600D02*
X154601100Y-113403600D01*
X154301100Y-96503600D02*
X154701100Y-96503600D01*
X154301100Y-103103600D02*
X142801100Y-103103600D01*
X154301100Y-103103600D02*
X154301100Y-96503600D01*
X154701100Y-96503600D02*
X154701100Y-113503600D01*
X154701100Y-113503600D02*
X142301100Y-113503600D01*
X150620059Y-100403600D02*
G75*
G03*
X150620059Y-100403600I-2118959J0D01*
G01*
X150053515Y-100703600D02*
G75*
G03*
X150053515Y-100703600I-1552415J0D01*
G01*
%TD*%
M02*
