%TF.GenerationSoftware,KiCad,Pcbnew,7.0.6-7.0.6~ubuntu22.04.1*%
%TF.CreationDate,2023-08-04T10:19:20+01:00*%
%TF.ProjectId,working,776f726b-696e-4672-9e6b-696361645f70,rev?*%
%TF.SameCoordinates,Original*%
%TF.FileFunction,Paste,Top*%
%TF.FilePolarity,Positive*%
%FSLAX46Y46*%
G04 Gerber Fmt 4.6, Leading zero omitted, Abs format (unit mm)*
G04 Created by KiCad (PCBNEW 7.0.6-7.0.6~ubuntu22.04.1) date 2023-08-04 10:19:20*
%MOMM*%
%LPD*%
G01*
G04 APERTURE LIST*
%ADD10R,1.000000X1.075000*%
%ADD11R,1.500000X1.240000*%
%ADD12R,0.800000X0.350000*%
%ADD13R,0.350000X0.800000*%
%ADD14R,1.075000X1.000000*%
%ADD15R,1.550000X0.600000*%
%ADD16R,1.800000X1.200000*%
%ADD17R,0.900000X0.450000*%
%ADD18R,1.150000X0.575000*%
%ADD19R,1.150000X0.275000*%
%ADD20R,1.200000X0.550000*%
%ADD21R,0.800000X0.800000*%
G04 APERTURE END LIST*
%TO.C,IC1*%
G36*
X151469600Y-105114600D02*
G01*
X150669600Y-105114600D01*
X150669600Y-104314600D01*
X151469600Y-104314600D01*
X151469600Y-105114600D01*
G37*
G36*
X151469600Y-103914600D02*
G01*
X150669600Y-103914600D01*
X150669600Y-103114600D01*
X151469600Y-103114600D01*
X151469600Y-103914600D01*
G37*
G36*
X150269600Y-105114600D02*
G01*
X149469600Y-105114600D01*
X149469600Y-104314600D01*
X150269600Y-104314600D01*
X150269600Y-105114600D01*
G37*
G36*
X150269600Y-103914600D02*
G01*
X149469600Y-103914600D01*
X149469600Y-103114600D01*
X150269600Y-103114600D01*
X150269600Y-103914600D01*
G37*
%TO.C,X6*%
G36*
X142053980Y-100194910D02*
G01*
X142176500Y-100245659D01*
X142281710Y-100326390D01*
X142362441Y-100431600D01*
X142430500Y-100685600D01*
X142406880Y-100834732D01*
X142338332Y-100969265D01*
X142231565Y-101076032D01*
X141947900Y-101168200D01*
X140931900Y-101168200D01*
X140782768Y-101144580D01*
X140648235Y-101076032D01*
X140541468Y-100969265D01*
X140449300Y-100685600D01*
X140466610Y-100554120D01*
X140517359Y-100431600D01*
X140598090Y-100326390D01*
X140703300Y-100245659D01*
X140957300Y-100177600D01*
X141922500Y-100177600D01*
X142053980Y-100194910D01*
G37*
G36*
X137875680Y-100207610D02*
G01*
X137998200Y-100258359D01*
X138103410Y-100339090D01*
X138184141Y-100444300D01*
X138252200Y-100698300D01*
X138228580Y-100847432D01*
X138160032Y-100981965D01*
X138053265Y-101088732D01*
X137769600Y-101180900D01*
X136753600Y-101180900D01*
X136604468Y-101157280D01*
X136469935Y-101088732D01*
X136363168Y-100981965D01*
X136271000Y-100698300D01*
X136288310Y-100566820D01*
X136339059Y-100444300D01*
X136419790Y-100339090D01*
X136525000Y-100258359D01*
X136779000Y-100190300D01*
X137744200Y-100190300D01*
X137875680Y-100207610D01*
G37*
G36*
X142066680Y-108843610D02*
G01*
X142189200Y-108894359D01*
X142294410Y-108975090D01*
X142375141Y-109080300D01*
X142443200Y-109334300D01*
X142419580Y-109483432D01*
X142351032Y-109617965D01*
X142244265Y-109724732D01*
X141960600Y-109816900D01*
X140944600Y-109816900D01*
X140795468Y-109793280D01*
X140660935Y-109724732D01*
X140554168Y-109617965D01*
X140462000Y-109334300D01*
X140479310Y-109202820D01*
X140530059Y-109080300D01*
X140610790Y-108975090D01*
X140716000Y-108894359D01*
X140970000Y-108826300D01*
X141935200Y-108826300D01*
X142066680Y-108843610D01*
G37*
G36*
X137875680Y-108843610D02*
G01*
X137998200Y-108894359D01*
X138103410Y-108975090D01*
X138184141Y-109080300D01*
X138252200Y-109334300D01*
X138228580Y-109483432D01*
X138160032Y-109617965D01*
X138053265Y-109724732D01*
X137769600Y-109816900D01*
X136753600Y-109816900D01*
X136604468Y-109793280D01*
X136469935Y-109724732D01*
X136363168Y-109617965D01*
X136271000Y-109334300D01*
X136288310Y-109202820D01*
X136339059Y-109080300D01*
X136419790Y-108975090D01*
X136525000Y-108894359D01*
X136779000Y-108826300D01*
X137744200Y-108826300D01*
X137875680Y-108843610D01*
G37*
%TD*%
D10*
%TO.C,C6*%
X152946100Y-107328600D03*
X152946100Y-109028600D03*
%TD*%
D11*
%TO.C,C1*%
X143675100Y-107228600D03*
X143675100Y-109128600D03*
%TD*%
D12*
%TO.C,IC1*%
X152369600Y-105089600D03*
X152369600Y-104439600D03*
X152369600Y-103789600D03*
X152369600Y-103139600D03*
D13*
X151444600Y-102214600D03*
X150794600Y-102214600D03*
X150144600Y-102214600D03*
X149494600Y-102214600D03*
D12*
X148569600Y-103139600D03*
X148569600Y-103789600D03*
X148569600Y-104439600D03*
X148569600Y-105089600D03*
D13*
X149494600Y-106014600D03*
X150144600Y-106014600D03*
X150794600Y-106014600D03*
X151444600Y-106014600D03*
%TD*%
D14*
%TO.C,C2*%
X146811100Y-104749600D03*
X145111100Y-104749600D03*
%TD*%
D15*
%TO.C,CONN1*%
X156147100Y-106503600D03*
X156147100Y-105503600D03*
X156147100Y-104503600D03*
X156147100Y-103503600D03*
D16*
X160047100Y-107803600D03*
X160047100Y-102203600D03*
%TD*%
D17*
%TO.C,R1*%
X145668100Y-103255600D03*
X145668100Y-102355600D03*
X145668100Y-101555600D03*
X145668100Y-100655600D03*
X143968100Y-100655600D03*
X143968100Y-101555600D03*
X143968100Y-102355600D03*
X143968100Y-103255600D03*
%TD*%
D10*
%TO.C,R3*%
X154343100Y-107328600D03*
X154343100Y-109028600D03*
%TD*%
D18*
%TO.C,X6*%
X142013100Y-101803600D03*
X142013100Y-102603600D03*
D19*
X142013100Y-103753600D03*
X142013100Y-104753600D03*
X142013100Y-105253600D03*
X142013100Y-106253600D03*
D18*
X142013100Y-108203600D03*
X142013100Y-107403600D03*
D19*
X142013100Y-106753600D03*
X142013100Y-105753600D03*
X142013100Y-104253600D03*
X142013100Y-103253600D03*
%TD*%
D11*
%TO.C,C10*%
X149771100Y-107355600D03*
X149771100Y-109255600D03*
%TD*%
D20*
%TO.C,U2*%
X145423000Y-107228600D03*
X145423000Y-108178600D03*
X145423000Y-109128600D03*
X148023200Y-109128600D03*
X148023200Y-107228600D03*
%TD*%
D10*
%TO.C,C9*%
X151549100Y-107328600D03*
X151549100Y-109028600D03*
%TD*%
D21*
%TO.C,LED1*%
X155740100Y-109055600D03*
X155740100Y-107555600D03*
%TD*%
M02*
