#VRML V2.0 utf8
DEF TXFM_1 Transform {
  center 0 0 0
  rotation 0 0 1 0
  scale 0.00254 0.00254 0.00254
  scaleOrientation 0 0 1 0
  translation 0 0 0
 children [
DEF TXFM_2 Transform {
  center 0 0 0
  rotation 0 0 1 0
  scale 1 1 1
  scaleOrientation 0 0 1 0
  translation 65.427953 -40.211417 0.31496063
 children [
DEF TXFM_3 Transform {
  center 0 0 0
  rotation 0 0 1 0
  scale 1 1 1
  scaleOrientation 0 0 1 0
  translation 0 0 0
 children [
DEF TXFM_4 Transform {
  center 0 0 0
  rotation 0 0 1 0
  scale 1 1 1
  scaleOrientation 0 0 1 0
  translation 0 0 0
 children [
DEF SHAPE_1 Shape {
 appearance DEF APP_1 Appearance {
  material Material {
   ambientIntensity 0.271
   diffuseColor 0.824 0.81999999 0.78100002
   emissiveColor 0 0 0
   shininess 0.69999999
   specularColor 0.32800001 0.25799999 0.17200001
   transparency 0
} }
 geometry DEF FACE_1 IndexedFaceSet {
  coord DEF COORD_1 Coordinate { point [
  -0.39399998 -0.23599999 0.017999998,-0.39399998 -0.23599999 0.15899999,
  -0.39399998 0.23599999 0.017999998,-0.39399998 0.23599999 0.017999998,
  -0.39399998 -0.23599999 0.15899999,-0.39399998 0.23599999 0.15899999] }
 coordIndex [
  0,1,2,-1,3,4,5,-1]
  normalPerVertex TRUE
  normal DEF NORM_1 Normal { vector [
  -1 0 0,-1 0 0,
  -1 0 0,-1 0 0,
  -1 0 0,-1 0 0] }
}
}
] }
DEF TXFM_5 Transform {
  center 0 0 0
  rotation 0 0 1 0
  scale 1 1 1
  scaleOrientation 0 0 1 0
  translation 0 0 0
 children [
DEF SHAPE_2 Shape {
 appearance USE APP_1
 geometry DEF FACE_2 IndexedFaceSet {
  coord DEF COORD_2 Coordinate { point [
  -0.27599999 -0.23599999 0.163,-0.279 -0.23599999 0.17,
  -0.27599999 -0.23599999 0.15899999,-0.27700001 -0.23599999 0.16699999,
  -0.279 -0.23599999 0.17,-0.27599999 -0.23599999 0.163,
  -0.286 -0.23599999 0.175,-0.279 -0.23599999 0.17,
  -0.28199999 -0.23599999 0.17299999,-0.289 -0.23599999 0.17699999,
  -0.279 -0.23599999 0.17,-0.286 -0.23599999 0.175,
  -0.29300001 -0.23599999 0.17699999,-0.279 -0.23599999 0.17,
  -0.289 -0.23599999 0.17699999,-0.27599999 -0.23599999 0.15899999,
  -0.279 -0.23599999 0.17,-0.29300001 -0.23599999 0.17699999,
  -0.39300001 -0.23599999 0.014,-0.37599999 -0.23599999 0.017999998,
  -0.39399998 -0.23599999 0.017999998,-0.39199999 -0.23599999 0.0099999999,
  -0.37599999 -0.23599999 0.017999998,-0.39300001 -0.23599999 0.014,
  -0.38999997 -0.23599999 0.0070000001,-0.37599999 -0.23599999 0.017999998,
  -0.39199999 -0.23599999 0.0099999999,-0.38699998 -0.23599999 0.004,
  -0.37599999 -0.23599999 0.017999998,-0.38999997 -0.23599999 0.0070000001,
  -0.38399999 -0.23599999 0.002,-0.37599999 -0.23599999 0.017999998,
  -0.38699998 -0.23599999 0.004,-0.37999998 -0.23599999 0,
  -0.37599999 -0.23599999 0.017999998,-0.38399999 -0.23599999 0.002,
  -0.37599999 -0.23599999 0,-0.37599999 -0.23599999 0.017999998,
  -0.37999998 -0.23599999 0,-0.37599999 -0.23599999 0,
  -0.29300001 -0.23599999 0,-0.37599999 -0.23599999 0.017999998,
  -0.27599999 -0.23599999 0.014,-0.27599999 -0.23599999 0.017999998,
  -0.27700001 -0.23599999 0.0099999999,-0.27700001 -0.23599999 0.0099999999,
  -0.27599999 -0.23599999 0.017999998,-0.279 -0.23599999 0.0070000001,
  -0.279 -0.23599999 0.0070000001,-0.27599999 -0.23599999 0.017999998,
  -0.28199999 -0.23599999 0.004,-0.28199999 -0.23599999 0.004,
  -0.27599999 -0.23599999 0.017999998,-0.286 -0.23599999 0.002,
  -0.286 -0.23599999 0.002,-0.27599999 -0.23599999 0.017999998,
  -0.289 -0.23599999 0,-0.289 -0.23599999 0,
  -0.27599999 -0.23599999 0.017999998,-0.29300001 -0.23599999 0,
  -0.29300001 -0.23599999 0,-0.27599999 -0.23599999 0.017999998,
  -0.37599999 -0.23599999 0.017999998,-0.39399998 -0.23599999 0.017999998,
  -0.37599999 -0.23599999 0.15899999,-0.39399998 -0.23599999 0.15899999,
  -0.39399998 -0.23599999 0.15899999,-0.37599999 -0.23599999 0.15899999,
  -0.39300001 -0.23599999 0.163,-0.39300001 -0.23599999 0.163,
  -0.37599999 -0.23599999 0.15899999,-0.39199999 -0.23599999 0.16699999,
  -0.39199999 -0.23599999 0.16699999,-0.37599999 -0.23599999 0.15899999,
  -0.38999997 -0.23599999 0.17,-0.37599999 -0.23599999 0.017999998,
  -0.37599999 -0.23599999 0.15899999,-0.39399998 -0.23599999 0.017999998,
  -0.37599999 -0.23599999 0.15899999,-0.38699998 -0.23599999 0.17299999,
  -0.38999997 -0.23599999 0.17,-0.37599999 -0.23599999 0.15899999,
  -0.38399999 -0.23599999 0.175,-0.38699998 -0.23599999 0.17299999,
  -0.37599999 -0.23599999 0.15899999,-0.37999998 -0.23599999 0.17699999,
  -0.38399999 -0.23599999 0.175,-0.37599999 -0.23599999 0.15899999,
  -0.37599999 -0.23599999 0.17699999,-0.37999998 -0.23599999 0.17699999,
  -0.37599999 -0.23599999 0.15899999,-0.29300001 -0.23599999 0.17699999,
  -0.37599999 -0.23599999 0.17699999,-0.37599999 -0.23599999 0.15899999,
  -0.27599999 -0.23599999 0.15899999,-0.29300001 -0.23599999 0.17699999] }
 coordIndex [
  0,1,2,-1,3,4,5,-1,6,7,8,-1,9,10,11,-1,12,13,14,-1,15,16,17,-1,18,19,20,-1,21,22,23,-1,
  24,25,26,-1,27,28,29,-1,30,31,32,-1,33,34,35,-1,36,37,38,-1,39,40,41,-1,42,43,44,-1,45,46,47,-1,
  48,49,50,-1,51,52,53,-1,54,55,56,-1,57,58,59,-1,60,61,62,-1,63,64,65,-1,66,67,68,-1,69,70,71,-1,
  72,73,74,-1,75,76,77,-1,78,79,80,-1,81,82,83,-1,84,85,86,-1,87,88,89,-1,90,91,92,-1,93,94,95,-1]
  normalPerVertex TRUE
  normal DEF NORM_2 Normal { vector [
  0 -1 0,0 -1 0,
  0 -1 0,0 -1 0,
  0 -1 0,0 -1 0,
  0 -1 0,0 -1 0,
  0 -1 0,0 -1 0,
  0 -1 0,0 -1 0,
  0 -1 0,0 -1 0,
  0 -1 0,0 -1 0,
  0 -1 0,0 -1 0,
  0 -1 0,0 -1 0,
  0 -1 0,0 -1 0,
  0 -1 0,0 -1 0,
  0 -1 0,0 -1 0,
  0 -1 0,0 -1 0,
  0 -1 0,0 -1 0,
  0 -1 0,0 -1 0,
  0 -1 0,0 -1 0,
  0 -1 0,0 -1 0,
  0 -1 0,0 -1 0,
  0 -1 0,0 -1 0,
  0 -1 0,0 -1 0,
  0 -1 0,0 -1 0,
  0 -1 0,0 -1 0,
  0 -1 0,0 -1 0,
  0 -1 0,0 -1 0,
  0 -1 0,0 -1 0,
  0 -1 0,0 -1 0,
  0 -1 0,0 -1 0,
  0 -1 0,0 -1 0,
  0 -1 0,0 -1 0,
  0 -1 0,0 -1 0,
  0 -1 0,0 -1 0,
  0 -1 0,0 -1 0,
  0 -1 0,0 -1 0,
  0 -1 0,0 -1 0,
  0 -1 0,0 -1 0,
  0 -1 0,0 -1 0,
  0 -1 0,0 -1 0,
  0 -1 0,0 -1 0,
  0 -1 0,0 -1 0,
  0 -1 0,0 -1 0,
  0 -1 0,0 -1 0,
  0 -1 0,0 -1 0,
  0 -1 0,0 -1 0,
  0 -1 0,0 -1 0,
  0 -1 0,0 -1 0,
  0 -1 0,0 -1 0,
  0 -1 0,0 -1 0] }
}
}
] }
DEF TXFM_6 Transform {
  center 0 0 0
  rotation 0 0 1 0
  scale 1 1 1
  scaleOrientation 0 0 1 0
  translation 0 0 0
 children [
DEF SHAPE_3 Shape {
 appearance USE APP_1
 geometry DEF FACE_3 IndexedFaceSet {
  coord DEF COORD_3 Coordinate { point [
  -0.39399998 -0.23599999 0.017999998,-0.39300001 0.23599999 0.014,
  -0.39300001 -0.23599999 0.014,-0.39399998 0.23599999 0.017999998,
  -0.39300001 0.23599999 0.014,-0.39399998 -0.23599999 0.017999998,
  -0.39300001 -0.23599999 0.014,-0.39199999 0.23599999 0.0099999999,
  -0.39199999 -0.23599999 0.0099999999,-0.39300001 0.23599999 0.014,
  -0.39199999 0.23599999 0.0099999999,-0.39300001 -0.23599999 0.014,
  -0.39199999 -0.23599999 0.0099999999,-0.38999997 0.23599999 0.0070000001,
  -0.38999997 -0.23599999 0.0070000001,-0.39199999 0.23599999 0.0099999999,
  -0.38999997 0.23599999 0.0070000001,-0.39199999 -0.23599999 0.0099999999,
  -0.38999997 -0.23599999 0.0070000001,-0.38699998 0.23599999 0.004,
  -0.38699998 -0.23599999 0.004,-0.38999997 0.23599999 0.0070000001,
  -0.38699998 0.23599999 0.004,-0.38999997 -0.23599999 0.0070000001,
  -0.38699998 -0.23599999 0.004,-0.38399999 0.23599999 0.002,
  -0.38399999 -0.23599999 0.002,-0.38699998 0.23599999 0.004,
  -0.38399999 0.23599999 0.002,-0.38699998 -0.23599999 0.004,
  -0.38399999 -0.23599999 0.002,-0.37999998 0.23599999 0,
  -0.37999998 -0.23599999 0,-0.38399999 0.23599999 0.002,
  -0.37999998 0.23599999 0,-0.38399999 -0.23599999 0.002,
  -0.37999998 -0.23599999 0,-0.37599999 0.23599999 0,
  -0.37599999 -0.23599999 0,-0.37999998 0.23599999 0,
  -0.37599999 0.23599999 0,-0.37999998 -0.23599999 0] }
 coordIndex [
  0,1,2,-1,3,4,5,-1,6,7,8,-1,9,10,11,-1,12,13,14,-1,15,16,17,-1,18,19,20,-1,21,22,23,-1,
  24,25,26,-1,27,28,29,-1,30,31,32,-1,33,34,35,-1,36,37,38,-1,39,40,41,-1]
  normalPerVertex TRUE
  normal DEF NORM_3 Normal { vector [
  -0.97014399 0 -0.24252968,-0.97014269 0 -0.24253488,
  -0.9701425 0 -0.24253564,-0.97014398 0 -0.24252969,
  -0.97014269 0 -0.24253488,-0.97014399 0 -0.24252968,
  -0.9701425 0 -0.24253564,-0.88744937 0 -0.46090522,
  -0.9025986 0 -0.43048318,-0.97014269 0 -0.24253488,
  -0.88744937 0 -0.46090522,-0.9701425 0 -0.24253561,
  -0.9025986 0 -0.43048318,-0.76630631 0 -0.6424754,
  -0.75134404 0 -0.6599107,-0.88744937 0 -0.46090522,
  -0.76630631 0 -0.6424754,-0.90259859 0 -0.43048321,
  -0.75134404 0 -0.6599107,-0.62809472 0 -0.77813689,
  -0.61659713 0 -0.78727885,-0.76630634 0 -0.64247537,
  -0.62809472 0 -0.77813689,-0.75134404 0 -0.6599107,
  -0.61659713 0 -0.78727885,-0.5002249 0 -0.86589552,
  -0.47989639 0 -0.87732517,-0.62809472 0 -0.77813689,
  -0.5002249 0 -0.86589552,-0.61659713 0 -0.78727885,
  -0.47989639 0 -0.87732517,-0.21745535 0 -0.97607027,
  -0.16399291 0 -0.98646152,-0.5002249 0 -0.86589552,
  -0.21745535 0 -0.97607027,-0.47989644 0 -0.87732514,
  -0.16399291 0 -0.98646152,0 0 -1,
  0 0 -1,-0.21745535 0 -0.97607027,
  0 0 -1,-0.16399291 0 -0.98646152] }
}
}
] }
DEF TXFM_7 Transform {
  center 0 0 0
  rotation 0 0 1 0
  scale 1 1 1
  scaleOrientation 0 0 1 0
  translation 0 0 0
 children [
DEF SHAPE_4 Shape {
 appearance USE APP_1
 geometry DEF FACE_4 IndexedFaceSet {
  coord DEF COORD_4 Coordinate { point [
  -0.39300001 0.23599999 0.163,-0.39399998 -0.23599999 0.15899999,
  -0.39300001 -0.23599999 0.163,-0.39300001 0.23599999 0.163,
  -0.39399998 0.23599999 0.15899999,-0.39399998 -0.23599999 0.15899999,
  -0.39199999 0.23599999 0.16699999,-0.39300001 -0.23599999 0.163,
  -0.39199999 -0.23599999 0.16699999,-0.39199999 0.23599999 0.16699999,
  -0.39300001 0.23599999 0.163,-0.39300001 -0.23599999 0.163,
  -0.38999997 0.23599999 0.17,-0.39199999 -0.23599999 0.16699999,
  -0.38999997 -0.23599999 0.17,-0.38999997 0.23599999 0.17,
  -0.39199999 0.23599999 0.16699999,-0.39199999 -0.23599999 0.16699999,
  -0.38699998 0.23599999 0.17299999,-0.38999997 -0.23599999 0.17,
  -0.38699998 -0.23599999 0.17299999,-0.38699998 0.23599999 0.17299999,
  -0.38999997 0.23599999 0.17,-0.38999997 -0.23599999 0.17,
  -0.38399999 0.23599999 0.175,-0.38699998 -0.23599999 0.17299999,
  -0.38399999 -0.23599999 0.175,-0.38399999 0.23599999 0.175,
  -0.38699998 0.23599999 0.17299999,-0.38699998 -0.23599999 0.17299999,
  -0.37999998 0.23599999 0.17699999,-0.38399999 -0.23599999 0.175,
  -0.37999998 -0.23599999 0.17699999,-0.37999998 0.23599999 0.17699999,
  -0.38399999 0.23599999 0.175,-0.38399999 -0.23599999 0.175,
  -0.37599999 0.23599999 0.17699999,-0.37999998 -0.23599999 0.17699999,
  -0.37599999 -0.23599999 0.17699999,-0.37599999 0.23599999 0.17699999,
  -0.37999998 0.23599999 0.17699999,-0.37999998 -0.23599999 0.17699999] }
 coordIndex [
  0,1,2,-1,3,4,5,-1,6,7,8,-1,9,10,11,-1,12,13,14,-1,15,16,17,-1,18,19,20,-1,21,22,23,-1,
  24,25,26,-1,27,28,29,-1,30,31,32,-1,33,34,35,-1,36,37,38,-1,39,40,41,-1]
  normalPerVertex TRUE
  normal DEF NORM_4 Normal { vector [
  -0.97014262 0 0.24253516,-0.97014418 0 0.24252889,
  -0.97014262 0 0.24253516,-0.97014262 0 0.24253516,
  -0.97014418 0 0.24252892,-0.97014418 0 0.24252889,
  -0.90455117 0 0.42636509,-0.97014262 0 0.24253516,
  -0.90656726 0 0.42206138,-0.90455117 0 0.42636509,
  -0.97014262 0 0.24253516,-0.97014262 0 0.24253516,
  -0.75253325 0 0.65855425,-0.90656726 0 0.42206138,
  -0.75226762 0 0.65885766,-0.75253325 0 0.65855425,
  -0.90455117 0 0.42636509,-0.90656726 0 0.42206138,
  -0.61995139 0 0.78464022,-0.75226762 0 0.65885766,
  -0.61974263 0 0.78480512,-0.61995139 0 0.78464022,
  -0.75253325 0 0.65855425,-0.75226762 0 0.65885766,
  -0.49761514 0 0.86739793,-0.61974263 0 0.78480512,
  -0.49762691 0 0.86739118,-0.49761514 0 0.86739793,
  -0.61995139 0 0.78464022,-0.61974263 0 0.78480512,
  -0.18905154 0 0.98196717,-0.49762691 0 0.86739118,
  -0.18870276 0 0.98203425,-0.18905154 0 0.98196717,
  -0.49761514 0 0.86739793,-0.49762695 0 0.86739116,
  0 0 1,-0.18870276 0 0.98203425,
  0 0 1,0 0 1,
  -0.18905154 0 0.98196717,-0.18870276 0 0.98203425] }
}
}
] }
DEF TXFM_8 Transform {
  center 0 0 0
  rotation 0 0 1 0
  scale 1 1 1
  scaleOrientation 0 0 1 0
  translation 0 0 0
 children [
DEF SHAPE_5 Shape {
 appearance USE APP_1
 geometry DEF FACE_5 IndexedFaceSet {
  coord DEF COORD_5 Coordinate { point [
  -0.279 0.23599999 0.17,-0.27599999 0.23599999 0.163,
  -0.27599999 0.23599999 0.15899999,-0.279 0.23599999 0.17,
  -0.27700001 0.23599999 0.16699999,-0.27599999 0.23599999 0.163,
  -0.279 0.23599999 0.17,-0.286 0.23599999 0.175,
  -0.28199999 0.23599999 0.17299999,-0.279 0.23599999 0.17,
  -0.289 0.23599999 0.17699999,-0.286 0.23599999 0.175,
  -0.279 0.23599999 0.17,-0.29300001 0.23599999 0.17699999,
  -0.289 0.23599999 0.17699999,-0.279 0.23599999 0.17,
  -0.27599999 0.23599999 0.15899999,-0.29300001 0.23599999 0.17699999,
  -0.37599999 0.23599999 0.017999998,-0.39300001 0.23599999 0.014,
  -0.39399998 0.23599999 0.017999998,-0.37599999 0.23599999 0.017999998,
  -0.39199999 0.23599999 0.0099999999,-0.39300001 0.23599999 0.014,
  -0.37599999 0.23599999 0.017999998,-0.38999997 0.23599999 0.0070000001,
  -0.39199999 0.23599999 0.0099999999,-0.37599999 0.23599999 0.017999998,
  -0.38699998 0.23599999 0.004,-0.38999997 0.23599999 0.0070000001,
  -0.37599999 0.23599999 0.017999998,-0.38399999 0.23599999 0.002,
  -0.38699998 0.23599999 0.004,-0.37599999 0.23599999 0.017999998,
  -0.37999998 0.23599999 0,-0.38399999 0.23599999 0.002,
  -0.37599999 0.23599999 0.017999998,-0.37599999 0.23599999 0,
  -0.37999998 0.23599999 0,-0.29300001 0.23599999 0,
  -0.37599999 0.23599999 0,-0.37599999 0.23599999 0.017999998,
  -0.27599999 0.23599999 0.017999998,-0.27599999 0.23599999 0.014,
  -0.27700001 0.23599999 0.0099999999,-0.27599999 0.23599999 0.017999998,
  -0.27700001 0.23599999 0.0099999999,-0.279 0.23599999 0.0070000001,
  -0.27599999 0.23599999 0.017999998,-0.279 0.23599999 0.0070000001,
  -0.28199999 0.23599999 0.004,-0.27599999 0.23599999 0.017999998,
  -0.28199999 0.23599999 0.004,-0.286 0.23599999 0.002,
  -0.27599999 0.23599999 0.017999998,-0.286 0.23599999 0.002,
  -0.289 0.23599999 0,-0.27599999 0.23599999 0.017999998,
  -0.289 0.23599999 0,-0.29300001 0.23599999 0,
  -0.27599999 0.23599999 0.017999998,-0.29300001 0.23599999 0,
  -0.37599999 0.23599999 0.017999998,-0.37599999 0.23599999 0.15899999,
  -0.39399998 0.23599999 0.017999998,-0.39399998 0.23599999 0.15899999,
  -0.37599999 0.23599999 0.15899999,-0.39399998 0.23599999 0.15899999,
  -0.39300001 0.23599999 0.163,-0.37599999 0.23599999 0.15899999,
  -0.39300001 0.23599999 0.163,-0.39199999 0.23599999 0.16699999,
  -0.37599999 0.23599999 0.15899999,-0.39199999 0.23599999 0.16699999,
  -0.38999997 0.23599999 0.17,-0.37599999 0.23599999 0.15899999,
  -0.37599999 0.23599999 0.017999998,-0.39399998 0.23599999 0.017999998,
  -0.38699998 0.23599999 0.17299999,-0.37599999 0.23599999 0.15899999,
  -0.38999997 0.23599999 0.17,-0.38399999 0.23599999 0.175,
  -0.37599999 0.23599999 0.15899999,-0.38699998 0.23599999 0.17299999,
  -0.37999998 0.23599999 0.17699999,-0.37599999 0.23599999 0.15899999,
  -0.38399999 0.23599999 0.175,-0.37599999 0.23599999 0.17699999,
  -0.37599999 0.23599999 0.15899999,-0.37999998 0.23599999 0.17699999,
  -0.29300001 0.23599999 0.17699999,-0.37599999 0.23599999 0.15899999,
  -0.37599999 0.23599999 0.17699999,-0.27599999 0.23599999 0.15899999,
  -0.37599999 0.23599999 0.15899999,-0.29300001 0.23599999 0.17699999] }
 coordIndex [
  0,1,2,-1,3,4,5,-1,6,7,8,-1,9,10,11,-1,12,13,14,-1,15,16,17,-1,18,19,20,-1,21,22,23,-1,
  24,25,26,-1,27,28,29,-1,30,31,32,-1,33,34,35,-1,36,37,38,-1,39,40,41,-1,42,43,44,-1,45,46,47,-1,
  48,49,50,-1,51,52,53,-1,54,55,56,-1,57,58,59,-1,60,61,62,-1,63,64,65,-1,66,67,68,-1,69,70,71,-1,
  72,73,74,-1,75,76,77,-1,78,79,80,-1,81,82,83,-1,84,85,86,-1,87,88,89,-1,90,91,92,-1,93,94,95,-1]
  normalPerVertex TRUE
  normal DEF NORM_5 Normal { vector [
  0 1 0,0 1 0,
  0 1 0,0 1 0,
  0 1 0,0 1 0,
  0 1 0,0 1 0,
  0 1 0,0 1 0,
  0 1 0,0 1 0,
  0 1 0,0 1 0,
  0 1 0,0 1 0,
  0 1 0,0 1 0,
  0 1 0,0 1 0,
  0 1 0,0 1 0,
  0 1 0,0 1 0,
  0 1 0,0 1 0,
  0 1 0,0 1 0,
  0 1 0,0 1 0,
  0 1 0,0 1 0,
  0 1 0,0 1 0,
  0 1 0,0 1 0,
  0 1 0,0 1 0,
  0 1 0,0 1 0,
  0 1 0,0 1 0,
  0 1 0,0 1 0,
  0 1 0,0 1 0,
  0 1 0,0 1 0,
  0 1 0,0 1 0,
  0 1 0,0 1 0,
  0 1 0,0 1 0,
  0 1 0,0 1 0,
  0 1 0,0 1 0,
  0 1 0,0 1 0,
  0 1 0,0 1 0,
  0 1 0,0 1 0,
  0 1 0,0 1 0,
  0 1 0,0 1 0,
  0 1 0,0 1 0,
  0 1 0,0 1 0,
  0 1 0,0 1 0,
  0 1 0,0 1 0,
  0 1 0,0 1 0,
  0 1 0,0 1 0,
  0 1 0,0 1 0,
  0 1 0,0 1 0,
  0 1 0,0 1 0,
  0 1 0,0 1 0,
  0 1 0,0 1 0,
  0 1 0,0 1 0,
  0 1 0,0 1 0,
  0 1 0,0 1 0] }
}
}
] }
DEF TXFM_9 Transform {
  center 0 0 0
  rotation 0 0 1 0
  scale 1 1 1
  scaleOrientation 0 0 1 0
  translation 0 0 0
 children [
DEF SHAPE_6 Shape {
 appearance USE APP_1
 geometry DEF FACE_6 IndexedFaceSet {
  coord DEF COORD_6 Coordinate { point [
  -0.37599999 0.23599999 0,-0.29300001 0.23599999 0,
  -0.37599999 -0.23599999 0,-0.37599999 -0.23599999 0,
  -0.29300001 0.23599999 0,-0.29300001 -0.23599999 0] }
 coordIndex [
  0,1,2,-1,3,4,5,-1]
  normalPerVertex TRUE
  normal DEF NORM_6 Normal { vector [
  0 0 -1,0 0 -1,
  0 0 -1,0 0 -1,
  0 0 -1,0 0 -1] }
}
}
] }
DEF TXFM_10 Transform {
  center 0 0 0
  rotation 0 0 1 0
  scale 1 1 1
  scaleOrientation 0 0 1 0
  translation 0 0 0
 children [
DEF SHAPE_7 Shape {
 appearance USE APP_1
 geometry DEF FACE_7 IndexedFaceSet {
  coord DEF COORD_7 Coordinate { point [
  -0.27599999 0.23599999 0.014,-0.27599999 -0.23599999 0.017999998,
  -0.27599999 -0.23599999 0.014,-0.27599999 0.23599999 0.014,
  -0.27599999 0.23599999 0.017999998,-0.27599999 -0.23599999 0.017999998,
  -0.27700001 0.23599999 0.0099999999,-0.27599999 -0.23599999 0.014,
  -0.27700001 -0.23599999 0.0099999999,-0.27700001 0.23599999 0.0099999999,
  -0.27599999 0.23599999 0.014,-0.27599999 -0.23599999 0.014,
  -0.279 0.23599999 0.0070000001,-0.27700001 -0.23599999 0.0099999999,
  -0.279 -0.23599999 0.0070000001,-0.279 0.23599999 0.0070000001,
  -0.27700001 0.23599999 0.0099999999,-0.27700001 -0.23599999 0.0099999999,
  -0.28199999 0.23599999 0.004,-0.279 -0.23599999 0.0070000001,
  -0.28199999 -0.23599999 0.004,-0.28199999 0.23599999 0.004,
  -0.279 0.23599999 0.0070000001,-0.279 -0.23599999 0.0070000001,
  -0.286 0.23599999 0.002,-0.28199999 -0.23599999 0.004,
  -0.286 -0.23599999 0.002,-0.286 0.23599999 0.002,
  -0.28199999 0.23599999 0.004,-0.28199999 -0.23599999 0.004,
  -0.289 0.23599999 0,-0.286 -0.23599999 0.002,
  -0.289 -0.23599999 0,-0.289 0.23599999 0,
  -0.286 0.23599999 0.002,-0.286 -0.23599999 0.002,
  -0.29300001 0.23599999 0,-0.289 -0.23599999 0,
  -0.29300001 -0.23599999 0,-0.29300001 0.23599999 0,
  -0.289 0.23599999 0,-0.289 -0.23599999 0] }
 coordIndex [
  0,1,2,-1,3,4,5,-1,6,7,8,-1,9,10,11,-1,12,13,14,-1,15,16,17,-1,18,19,20,-1,21,22,23,-1,
  24,25,26,-1,27,28,29,-1,30,31,32,-1,33,34,35,-1,36,37,38,-1,39,40,41,-1]
  normalPerVertex TRUE
  normal DEF NORM_7 Normal { vector [
  0.98446301 0 -0.17559208,1 0 0,
  0.98322794 0 -0.18238097,0.98446301 0 -0.17559208,
  1 0 0,1 0 0,
  0.87840003 0 -0.47792614,0.98322794 0 -0.18238097,
  0.87925754 0 -0.47634669,0.87840003 0 -0.47792614,
  0.98446301 0 -0.17559208,0.98322794 0 -0.18238097,
  0.76449059 0 -0.64463489,0.87925754 0 -0.47634669,
  0.76453414 0 -0.64458324,0.76449059 0 -0.64463489,
  0.87840003 0 -0.47792614,0.87925754 0 -0.47634669,
  0.56716961 0 -0.82360101,0.76453414 0 -0.64458324,
  0.56730903 0 -0.82350499,0.56716961 0 -0.82360101,
  0.76449059 0 -0.64463489,0.76453414 0 -0.64458324,
  0.50045951 0 -0.86575994,0.56730903 0 -0.82350499,
  0.50042429 0 -0.8657803,0.50045951 0 -0.86575994,
  0.56716965 0 -0.82360099,0.56730899 0 -0.82350502,
  0.55470138 0 -0.83204951,0.50042429 0 -0.8657803,
  0.55470137 0 -0.83204951,0.55470138 0 -0.83204951,
  0.50045951 0 -0.86575994,0.50042432 0 -0.86578028,
  0 0 -1,0 0 -1,
  0 0 -1,0 0 -1,
  0 0 -1,0 0 -1] }
}
}
] }
DEF TXFM_11 Transform {
  center 0 0 0
  rotation 0 0 1 0
  scale 1 1 1
  scaleOrientation 0 0 1 0
  translation 0 0 0
 children [
DEF SHAPE_8 Shape {
 appearance DEF APP_2 Appearance {
  material Material {
   ambientIntensity 0.49399999
   diffuseColor 0.89499998 0.89099997 0.81300002
   emissiveColor 0 0 0
   shininess 0.25
   specularColor 0.046999998 0.055 0.109
   transparency 0
} }
 geometry DEF FACE_8 IndexedFaceSet {
  coord DEF COORD_8 Coordinate { point [
  -0.27599999 -0.23599999 0.017999998,-0.27599999 -0.23599999 0.15899999,
  -0.37599999 -0.23599999 0.017999998,-0.37599999 -0.23599999 0.017999998,
  -0.27599999 -0.23599999 0.15899999,-0.37599999 -0.23599999 0.15899999,
  0.27599999 -0.23599999 0.017999998,0.27599999 -0.23599999 0.15899999,
  -0.27599999 -0.23599999 0.017999998,-0.27599999 -0.23599999 0.017999998,
  0.27599999 -0.23599999 0.15899999,-0.27599999 -0.23599999 0.15899999,
  0.37599999 -0.23599999 0.017999998,0.37599999 -0.23599999 0.15899999,
  0.27599999 -0.23599999 0.017999998,0.27599999 -0.23599999 0.017999998,
  0.37599999 -0.23599999 0.15899999,0.27599999 -0.23599999 0.15899999] }
 coordIndex [
  0,1,2,-1,3,4,5,-1,6,7,8,-1,9,10,11,-1,12,13,14,-1,15,16,17,-1]
  normalPerVertex TRUE
  normal DEF NORM_8 Normal { vector [
  0 -1 0,0 -1 0,
  0 -1 0,0 -1 0,
  0 -1 0,0 -1 0,
  0 -1 0,0 -1 0,
  0 -1 0,0 -1 0,
  0 -1 0,0 -1 0,
  0 -1 0,0 -1 0,
  0 -1 0,0 -1 0,
  0 -1 0,0 -1 0] }
}
}
] }
DEF TXFM_12 Transform {
  center 0 0 0
  rotation 0 0 1 0
  scale 1 1 1
  scaleOrientation 0 0 1 0
  translation 0 0 0
 children [
DEF SHAPE_9 Shape {
 appearance USE APP_1
 geometry DEF FACE_9 IndexedFaceSet {
  coord DEF COORD_9 Coordinate { point [
  -0.29300001 0.23599999 0.17699999,-0.37599999 0.23599999 0.17699999,
  -0.37599999 -0.23599999 0.17699999,-0.29300001 0.23599999 0.17699999,
  -0.37599999 -0.23599999 0.17699999,-0.29300001 -0.23599999 0.17699999] }
 coordIndex [
  0,1,2,-1,3,4,5,-1]
  normalPerVertex TRUE
  normal DEF NORM_9 Normal { vector [
  0 0 1,0 0 1,
  0 0 1,0 0 1,
  0 0 1,0 0 1] }
}
}
] }
DEF TXFM_13 Transform {
  center 0 0 0
  rotation 0 0 1 0
  scale 1 1 1
  scaleOrientation 0 0 1 0
  translation 0 0 0
 children [
DEF SHAPE_10 Shape {
 appearance USE APP_1
 geometry DEF FACE_10 IndexedFaceSet {
  coord DEF COORD_10 Coordinate { point [
  -0.27599999 -0.23599999 0.15899999,-0.27599999 0.23599999 0.163,
  -0.27599999 -0.23599999 0.163,-0.27599999 0.23599999 0.15899999,
  -0.27599999 0.23599999 0.163,-0.27599999 -0.23599999 0.15899999,
  -0.27599999 -0.23599999 0.163,-0.27700001 0.23599999 0.16699999,
  -0.27700001 -0.23599999 0.16699999,-0.27599999 0.23599999 0.163,
  -0.27700001 0.23599999 0.16699999,-0.27599999 -0.23599999 0.163,
  -0.27700001 -0.23599999 0.16699999,-0.279 0.23599999 0.17,
  -0.279 -0.23599999 0.17,-0.27700001 0.23599999 0.16699999,
  -0.279 0.23599999 0.17,-0.27700001 -0.23599999 0.16699999,
  -0.279 -0.23599999 0.17,-0.28199999 0.23599999 0.17299999,
  -0.28199999 -0.23599999 0.17299999,-0.279 0.23599999 0.17,
  -0.28199999 0.23599999 0.17299999,-0.279 -0.23599999 0.17,
  -0.28199999 -0.23599999 0.17299999,-0.286 0.23599999 0.175,
  -0.286 -0.23599999 0.175,-0.28199999 0.23599999 0.17299999,
  -0.286 0.23599999 0.175,-0.28199999 -0.23599999 0.17299999,
  -0.286 -0.23599999 0.175,-0.289 0.23599999 0.17699999,
  -0.289 -0.23599999 0.17699999,-0.286 0.23599999 0.175,
  -0.289 0.23599999 0.17699999,-0.286 -0.23599999 0.175,
  -0.289 -0.23599999 0.17699999,-0.29300001 0.23599999 0.17699999,
  -0.29300001 -0.23599999 0.17699999,-0.289 0.23599999 0.17699999,
  -0.29300001 0.23599999 0.17699999,-0.289 -0.23599999 0.17699999] }
 coordIndex [
  0,1,2,-1,3,4,5,-1,6,7,8,-1,9,10,11,-1,12,13,14,-1,15,16,17,-1,18,19,20,-1,21,22,23,-1,
  24,25,26,-1,27,28,29,-1,30,31,32,-1,33,34,35,-1,36,37,38,-1,39,40,41,-1]
  normalPerVertex TRUE
  normal DEF NORM_10 Normal { vector [
  1 0 0,0.98970903 0 0.14309447,
  0.98830189 0 0.15251027,1 0 0,
  0.98970903 0 0.14309447,1 0 0,
  0.98830189 0 0.15251027,0.90515603 0 0.42507947,
  0.89832551 0 0.43933049,0.98970903 0 0.14309447,
  0.90515603 0 0.42507947,0.98830189 0 0.15251027,
  0.89832551 0 0.43933049,0.77059119 0 0.63732975,
  0.74941477 0 0.66210082,0.90515603 0 0.42507947,
  0.77059119 0 0.63732975,0.89832548 0 0.43933054,
  0.74941477 0 0.66210082,0.58185551 0 0.81329217,
  0.54014904 0 0.84156938,0.77059119 0 0.63732975,
  0.58185551 0 0.81329217,0.74941486 0 0.66210073,
  0.54014904 0 0.84156938,0.50245466 0 0.86460356,
  0.51331603 0 0.85819966,0.58185554 0 0.81329215,
  0.50245466 0 0.86460356,0.54014904 0 0.84156938,
  0.51331603 0 0.85819966,0.55470014 0 0.83205033,
  0.55470021 0 0.83205029,0.50245466 0 0.86460356,
  0.55470014 0 0.83205033,0.51331603 0 0.85819966,
  0 0 1,0 0 1,
  0 0 1,0 0 1,
  0 0 1,0 0 1] }
}
}
] }
DEF TXFM_14 Transform {
  center 0 0 0
  rotation 0 0 1 0
  scale 1 1 1
  scaleOrientation 0 0 1 0
  translation 0 0 0
 children [
DEF SHAPE_11 Shape {
 appearance USE APP_2
 geometry DEF FACE_11 IndexedFaceSet {
  coord DEF COORD_11 Coordinate { point [
  -0.27599999 0.23599999 0.15899999,-0.27599999 0.23599999 0.017999998,
  -0.37599999 0.23599999 0.017999998,-0.27599999 0.23599999 0.15899999,
  -0.37599999 0.23599999 0.017999998,-0.37599999 0.23599999 0.15899999,
  0.27599999 0.23599999 0.15899999,0.27599999 0.23599999 0.017999998,
  -0.27599999 0.23599999 0.017999998,0.27599999 0.23599999 0.15899999,
  -0.27599999 0.23599999 0.017999998,-0.27599999 0.23599999 0.15899999,
  0.37599999 0.23599999 0.15899999,0.37599999 0.23599999 0.017999998,
  0.27599999 0.23599999 0.017999998,0.37599999 0.23599999 0.15899999,
  0.27599999 0.23599999 0.017999998,0.27599999 0.23599999 0.15899999] }
 coordIndex [
  0,1,2,-1,3,4,5,-1,6,7,8,-1,9,10,11,-1,12,13,14,-1,15,16,17,-1]
  normalPerVertex TRUE
  normal DEF NORM_11 Normal { vector [
  0 1 0,0 1 0,
  0 1 0,0 1 0,
  0 1 0,0 1 0,
  0 1 0,0 1 0,
  0 1 0,0 1 0,
  0 1 0,0 1 0,
  0 1 0,0 1 0,
  0 1 0,0 1 0,
  0 1 0,0 1 0] }
}
}
] }
DEF TXFM_15 Transform {
  center 0 0 0
  rotation 0 0 1 0
  scale 1 1 1
  scaleOrientation 0 0 1 0
  translation 0 0 0
 children [
DEF SHAPE_12 Shape {
 appearance USE APP_2
 geometry DEF FACE_12 IndexedFaceSet {
  coord DEF COORD_12 Coordinate { point [
  -0.27599999 0.23599999 0.017999998,0.27599999 0.23599999 0.017999998,
  -0.27599999 -0.23599999 0.017999998,-0.27599999 -0.23599999 0.017999998,
  0.27599999 0.23599999 0.017999998,0.27599999 -0.23599999 0.017999998] }
 coordIndex [
  0,1,2,-1,3,4,5,-1]
  normalPerVertex TRUE
  normal DEF NORM_12 Normal { vector [
  0 0 -1,0 0 -1,
  0 0 -1,0 0 -1,
  0 0 -1,0 0 -1] }
}
}
] }
DEF TXFM_16 Transform {
  center 0 0 0
  rotation 0 0 1 0
  scale 1 1 1
  scaleOrientation 0 0 1 0
  translation 0 0 0
 children [
DEF SHAPE_13 Shape {
 appearance USE APP_1
 geometry DEF FACE_13 IndexedFaceSet {
  coord DEF COORD_13 Coordinate { point [
  0.27700001 -0.23599999 0.0099999999,0.27599999 -0.23599999 0.017999998,
  0.27599999 -0.23599999 0.014,0.279 -0.23599999 0.0070000001,
  0.27599999 -0.23599999 0.017999998,0.27700001 -0.23599999 0.0099999999,
  0.28199999 -0.23599999 0.004,0.27599999 -0.23599999 0.017999998,
  0.279 -0.23599999 0.0070000001,0.286 -0.23599999 0.002,
  0.27599999 -0.23599999 0.017999998,0.28199999 -0.23599999 0.004,
  0.289 -0.23599999 0,0.27599999 -0.23599999 0.017999998,
  0.286 -0.23599999 0.002,0.29300001 -0.23599999 0,
  0.27599999 -0.23599999 0.017999998,0.289 -0.23599999 0,
  0.37599999 -0.23599999 0,0.37599999 -0.23599999 0.017999998,
  0.29300001 -0.23599999 0,0.38699998 -0.23599999 0.004,
  0.37599999 -0.23599999 0.017999998,0.38399999 -0.23599999 0.002,
  0.38399999 -0.23599999 0.002,0.37599999 -0.23599999 0.017999998,
  0.37999998 -0.23599999 0,0.37999998 -0.23599999 0,
  0.37599999 -0.23599999 0.017999998,0.37599999 -0.23599999 0,
  0.29300001 -0.23599999 0,0.37599999 -0.23599999 0.017999998,
  0.27599999 -0.23599999 0.017999998,0.38699998 -0.23599999 0.004,
  0.38999997 -0.23599999 0.0070000001,0.37599999 -0.23599999 0.017999998,
  0.38999997 -0.23599999 0.0070000001,0.39199999 -0.23599999 0.0099999999,
  0.37599999 -0.23599999 0.017999998,0.39199999 -0.23599999 0.0099999999,
  0.39300001 -0.23599999 0.014,0.37599999 -0.23599999 0.017999998,
  0.39300001 -0.23599999 0.014,0.39399998 -0.23599999 0.017999998,
  0.37599999 -0.23599999 0.017999998,0.27599999 -0.23599999 0.15899999,
  0.29300001 -0.23599999 0.17699999,0.27599999 -0.23599999 0.163,
  0.27599999 -0.23599999 0.163,0.29300001 -0.23599999 0.17699999,
  0.27700001 -0.23599999 0.16699999,0.27700001 -0.23599999 0.16699999,
  0.29300001 -0.23599999 0.17699999,0.279 -0.23599999 0.17,
  0.279 -0.23599999 0.17,0.29300001 -0.23599999 0.17699999,
  0.28199999 -0.23599999 0.17299999,0.28199999 -0.23599999 0.17299999,
  0.29300001 -0.23599999 0.17699999,0.286 -0.23599999 0.175,
  0.286 -0.23599999 0.175,0.29300001 -0.23599999 0.17699999,
  0.289 -0.23599999 0.17699999,0.27599999 -0.23599999 0.15899999,
  0.37599999 -0.23599999 0.15899999,0.29300001 -0.23599999 0.17699999,
  0.37599999 -0.23599999 0.017999998,0.39399998 -0.23599999 0.15899999,
  0.37599999 -0.23599999 0.15899999,0.39399998 -0.23599999 0.017999998,
  0.39399998 -0.23599999 0.15899999,0.37599999 -0.23599999 0.017999998,
  0.37599999 -0.23599999 0.15899999,0.37599999 -0.23599999 0.17699999,
  0.29300001 -0.23599999 0.17699999,0.39399998 -0.23599999 0.15899999,
  0.39300001 -0.23599999 0.163,0.37599999 -0.23599999 0.15899999,
  0.37599999 -0.23599999 0.15899999,0.37999998 -0.23599999 0.17699999,
  0.37599999 -0.23599999 0.17699999,0.39300001 -0.23599999 0.163,
  0.39199999 -0.23599999 0.16699999,0.37599999 -0.23599999 0.15899999,
  0.37599999 -0.23599999 0.15899999,0.38399999 -0.23599999 0.175,
  0.37999998 -0.23599999 0.17699999,0.39199999 -0.23599999 0.16699999,
  0.38999997 -0.23599999 0.17,0.37599999 -0.23599999 0.15899999,
  0.38999997 -0.23599999 0.17,0.38699998 -0.23599999 0.17299999,
  0.37599999 -0.23599999 0.15899999,0.37599999 -0.23599999 0.15899999,
  0.38699998 -0.23599999 0.17299999,0.38399999 -0.23599999 0.175] }
 coordIndex [
  0,1,2,-1,3,4,5,-1,6,7,8,-1,9,10,11,-1,12,13,14,-1,15,16,17,-1,18,19,20,-1,21,22,23,-1,
  24,25,26,-1,27,28,29,-1,30,31,32,-1,33,34,35,-1,36,37,38,-1,39,40,41,-1,42,43,44,-1,45,46,47,-1,
  48,49,50,-1,51,52,53,-1,54,55,56,-1,57,58,59,-1,60,61,62,-1,63,64,65,-1,66,67,68,-1,69,70,71,-1,
  72,73,74,-1,75,76,77,-1,78,79,80,-1,81,82,83,-1,84,85,86,-1,87,88,89,-1,90,91,92,-1,93,94,95,-1]
  normalPerVertex TRUE
  normal DEF NORM_13 Normal { vector [
  0 -1 0,0 -1 0,
  0 -1 0,0 -1 0,
  0 -1 0,0 -1 0,
  0 -1 0,0 -1 0,
  0 -1 0,0 -1 0,
  0 -1 0,0 -1 0,
  0 -1 0,0 -1 0,
  0 -1 0,0 -1 0,
  0 -1 0,0 -1 0,
  0 -1 0,0 -1 0,
  0 -1 0,0 -1 0,
  0 -1 0,0 -1 0,
  0 -1 0,0 -1 0,
  0 -1 0,0 -1 0,
  0 -1 0,0 -1 0,
  0 -1 0,0 -1 0,
  0 -1 0,0 -1 0,
  0 -1 0,0 -1 0,
  0 -1 0,0 -1 0,
  0 -1 0,0 -1 0,
  0 -1 0,0 -1 0,
  0 -1 0,0 -1 0,
  0 -1 0,0 -1 0,
  0 -1 0,0 -1 0,
  0 -1 0,0 -1 0,
  0 -1 0,0 -1 0,
  0 -1 0,0 -1 0,
  0 -1 0,0 -1 0,
  0 -1 0,0 -1 0,
  0 -1 0,0 -1 0,
  0 -1 0,0 -1 0,
  0 -1 0,0 -1 0,
  0 -1 0,0 -1 0,
  0 -1 0,0 -1 0,
  0 -1 0,0 -1 0,
  0 -1 0,0 -1 0,
  0 -1 0,0 -1 0,
  0 -1 0,0 -1 0,
  0 -1 0,0 -1 0,
  0 -1 0,0 -1 0,
  0 -1 0,0 -1 0,
  0 -1 0,0 -1 0,
  0 -1 0,0 -1 0,
  0 -1 0,0 -1 0,
  0 -1 0,0 -1 0,
  0 -1 0,0 -1 0,
  0 -1 0,0 -1 0,
  0 -1 0,0 -1 0] }
}
}
] }
DEF TXFM_17 Transform {
  center 0 0 0
  rotation 0 0 1 0
  scale 1 1 1
  scaleOrientation 0 0 1 0
  translation 0 0 0
 children [
DEF SHAPE_14 Shape {
 appearance DEF APP_3 Appearance {
  material Material {
   ambientIntensity 0.63800001
   diffuseColor 0.082000002 0.086000003 0.093999997
   emissiveColor 0 0 0
   shininess 0.30000001
   specularColor 0.066 0.063000001 0.063000001
   transparency 0
} }
 geometry DEF FACE_14 IndexedFaceSet {
  coord DEF COORD_14 Coordinate { point [
  0.27599999 -0.23599999 0.15899999,0.27599999 -0.23599999 0.17699999,
  -0.27599999 -0.23599999 0.15899999,-0.27599999 -0.23599999 0.15899999,
  0.27599999 -0.23599999 0.17699999,-0.27599999 -0.23599999 0.17699999] }
 coordIndex [
  0,1,2,-1,3,4,5,-1]
  normalPerVertex TRUE
  normal DEF NORM_14 Normal { vector [
  0 -1 0,0 -1 0,
  0 -1 0,0 -1 0,
  0 -1 0,0 -1 0] }
}
}
] }
DEF TXFM_18 Transform {
  center 0 0 0
  rotation 0 0 1 0
  scale 1 1 1
  scaleOrientation 0 0 1 0
  translation 0 0 0
 children [
DEF SHAPE_15 Shape {
 appearance USE APP_3
 geometry DEF FACE_15 IndexedFaceSet {
  coord DEF COORD_15 Coordinate { point [
  -0.27599999 -0.23599999 0.15899999,-0.27599999 -0.23599999 0.17699999,
  -0.27599999 0.23599999 0.15899999,-0.27599999 0.23599999 0.15899999,
  -0.27599999 -0.23599999 0.17699999,-0.27599999 0.23599999 0.17699999] }
 coordIndex [
  0,1,2,-1,3,4,5,-1]
  normalPerVertex TRUE
  normal DEF NORM_15 Normal { vector [
  -1 0 0,-1 0 0,
  -1 0 0,-1 0 0,
  -1 0 0,-1 0 0] }
}
}
] }
DEF TXFM_19 Transform {
  center 0 0 0
  rotation 0 0 1 0
  scale 1 1 1
  scaleOrientation 0 0 1 0
  translation 0 0 0
 children [
DEF SHAPE_16 Shape {
 appearance USE APP_1
 geometry DEF FACE_16 IndexedFaceSet {
  coord DEF COORD_16 Coordinate { point [
  0.27599999 0.23599999 0.017999998,0.27700001 0.23599999 0.0099999999,
  0.27599999 0.23599999 0.014,0.27599999 0.23599999 0.017999998,
  0.279 0.23599999 0.0070000001,0.27700001 0.23599999 0.0099999999,
  0.27599999 0.23599999 0.017999998,0.28199999 0.23599999 0.004,
  0.279 0.23599999 0.0070000001,0.27599999 0.23599999 0.017999998,
  0.286 0.23599999 0.002,0.28199999 0.23599999 0.004,
  0.27599999 0.23599999 0.017999998,0.289 0.23599999 0,
  0.286 0.23599999 0.002,0.27599999 0.23599999 0.017999998,
  0.29300001 0.23599999 0,0.289 0.23599999 0,
  0.37599999 0.23599999 0.017999998,0.37599999 0.23599999 0,
  0.29300001 0.23599999 0,0.37599999 0.23599999 0.017999998,
  0.38699998 0.23599999 0.004,0.38399999 0.23599999 0.002,
  0.37599999 0.23599999 0.017999998,0.38399999 0.23599999 0.002,
  0.37999998 0.23599999 0,0.37599999 0.23599999 0.017999998,
  0.37999998 0.23599999 0,0.37599999 0.23599999 0,
  0.37599999 0.23599999 0.017999998,0.29300001 0.23599999 0,
  0.27599999 0.23599999 0.017999998,0.38999997 0.23599999 0.0070000001,
  0.38699998 0.23599999 0.004,0.37599999 0.23599999 0.017999998,
  0.39199999 0.23599999 0.0099999999,0.38999997 0.23599999 0.0070000001,
  0.37599999 0.23599999 0.017999998,0.39300001 0.23599999 0.014,
  0.39199999 0.23599999 0.0099999999,0.37599999 0.23599999 0.017999998,
  0.39399998 0.23599999 0.017999998,0.39300001 0.23599999 0.014,
  0.37599999 0.23599999 0.017999998,0.29300001 0.23599999 0.17699999,
  0.27599999 0.23599999 0.15899999,0.27599999 0.23599999 0.163,
  0.29300001 0.23599999 0.17699999,0.27599999 0.23599999 0.163,
  0.27700001 0.23599999 0.16699999,0.29300001 0.23599999 0.17699999,
  0.27700001 0.23599999 0.16699999,0.279 0.23599999 0.17,
  0.29300001 0.23599999 0.17699999,0.279 0.23599999 0.17,
  0.28199999 0.23599999 0.17299999,0.29300001 0.23599999 0.17699999,
  0.28199999 0.23599999 0.17299999,0.286 0.23599999 0.175,
  0.29300001 0.23599999 0.17699999,0.286 0.23599999 0.175,
  0.289 0.23599999 0.17699999,0.37599999 0.23599999 0.15899999,
  0.27599999 0.23599999 0.15899999,0.29300001 0.23599999 0.17699999,
  0.39399998 0.23599999 0.15899999,0.37599999 0.23599999 0.017999998,
  0.37599999 0.23599999 0.15899999,0.39399998 0.23599999 0.15899999,
  0.39399998 0.23599999 0.017999998,0.37599999 0.23599999 0.017999998,
  0.37599999 0.23599999 0.17699999,0.37599999 0.23599999 0.15899999,
  0.29300001 0.23599999 0.17699999,0.39300001 0.23599999 0.163,
  0.39399998 0.23599999 0.15899999,0.37599999 0.23599999 0.15899999,
  0.37999998 0.23599999 0.17699999,0.37599999 0.23599999 0.15899999,
  0.37599999 0.23599999 0.17699999,0.39199999 0.23599999 0.16699999,
  0.39300001 0.23599999 0.163,0.37599999 0.23599999 0.15899999,
  0.38399999 0.23599999 0.175,0.37599999 0.23599999 0.15899999,
  0.37999998 0.23599999 0.17699999,0.38999997 0.23599999 0.17,
  0.39199999 0.23599999 0.16699999,0.37599999 0.23599999 0.15899999,
  0.38699998 0.23599999 0.17299999,0.38999997 0.23599999 0.17,
  0.37599999 0.23599999 0.15899999,0.38699998 0.23599999 0.17299999,
  0.37599999 0.23599999 0.15899999,0.38399999 0.23599999 0.175] }
 coordIndex [
  0,1,2,-1,3,4,5,-1,6,7,8,-1,9,10,11,-1,12,13,14,-1,15,16,17,-1,18,19,20,-1,21,22,23,-1,
  24,25,26,-1,27,28,29,-1,30,31,32,-1,33,34,35,-1,36,37,38,-1,39,40,41,-1,42,43,44,-1,45,46,47,-1,
  48,49,50,-1,51,52,53,-1,54,55,56,-1,57,58,59,-1,60,61,62,-1,63,64,65,-1,66,67,68,-1,69,70,71,-1,
  72,73,74,-1,75,76,77,-1,78,79,80,-1,81,82,83,-1,84,85,86,-1,87,88,89,-1,90,91,92,-1,93,94,95,-1]
  normalPerVertex TRUE
  normal DEF NORM_16 Normal { vector [
  0 1 0,0 1 0,
  0 1 0,0 1 0,
  0 1 0,0 1 0,
  0 1 0,0 1 0,
  0 1 0,0 1 0,
  0 1 0,0 1 0,
  0 1 0,0 1 0,
  0 1 0,0 1 0,
  0 1 0,0 1 0,
  0 1 0,0 1 0,
  0 1 0,0 1 0,
  0 1 0,0 1 0,
  0 1 0,0 1 0,
  0 1 0,0 1 0,
  0 1 0,0 1 0,
  0 1 0,0 1 0,
  0 1 0,0 1 0,
  0 1 0,0 1 0,
  0 1 0,0 1 0,
  0 1 0,0 1 0,
  0 1 0,0 1 0,
  0 1 0,0 1 0,
  0 1 0,0 1 0,
  0 1 0,0 1 0,
  0 1 0,0 1 0,
  0 1 0,0 1 0,
  0 1 0,0 1 0,
  0 1 0,0 1 0,
  0 1 0,0 1 0,
  0 1 0,0 1 0,
  0 1 0,0 1 0,
  0 1 0,0 1 0,
  0 1 0,0 1 0,
  0 1 0,0 1 0,
  0 1 0,0 1 0,
  0 1 0,0 1 0,
  0 1 0,0 1 0,
  0 1 0,0 1 0,
  0 1 0,0 1 0,
  0 1 0,0 1 0,
  0 1 0,0 1 0,
  0 1 0,0 1 0,
  0 1 0,0 1 0,
  0 1 0,0 1 0,
  0 1 0,0 1 0,
  0 1 0,0 1 0,
  0 1 0,0 1 0,
  0 1 0,0 1 0] }
}
}
] }
DEF TXFM_20 Transform {
  center 0 0 0
  rotation 0 0 1 0
  scale 1 1 1
  scaleOrientation 0 0 1 0
  translation 0 0 0
 children [
DEF SHAPE_17 Shape {
 appearance USE APP_3
 geometry DEF FACE_17 IndexedFaceSet {
  coord DEF COORD_17 Coordinate { point [
  0.27599999 0.23599999 0.17699999,0.27599999 0.23599999 0.15899999,
  -0.27599999 0.23599999 0.15899999,0.27599999 0.23599999 0.17699999,
  -0.27599999 0.23599999 0.15899999,-0.27599999 0.23599999 0.17699999] }
 coordIndex [
  0,1,2,-1,3,4,5,-1]
  normalPerVertex TRUE
  normal DEF NORM_17 Normal { vector [
  0 1 0,0 1 0,
  0 1 0,0 1 0,
  0 1 0,0 1 0] }
}
}
] }
DEF TXFM_21 Transform {
  center 0 0 0
  rotation 0 0 1 0
  scale 1 1 1
  scaleOrientation 0 0 1 0
  translation 0 0 0
 children [
DEF SHAPE_18 Shape {
 appearance USE APP_1
 geometry DEF FACE_18 IndexedFaceSet {
  coord DEF COORD_18 Coordinate { point [
  0.27599999 -0.23599999 0.017999998,0.27599999 0.23599999 0.014,
  0.27599999 -0.23599999 0.014,0.27599999 0.23599999 0.017999998,
  0.27599999 0.23599999 0.014,0.27599999 -0.23599999 0.017999998,
  0.27599999 -0.23599999 0.014,0.27700001 0.23599999 0.0099999999,
  0.27700001 -0.23599999 0.0099999999,0.27599999 0.23599999 0.014,
  0.27700001 0.23599999 0.0099999999,0.27599999 -0.23599999 0.014,
  0.27700001 -0.23599999 0.0099999999,0.279 0.23599999 0.0070000001,
  0.279 -0.23599999 0.0070000001,0.27700001 0.23599999 0.0099999999,
  0.279 0.23599999 0.0070000001,0.27700001 -0.23599999 0.0099999999,
  0.279 -0.23599999 0.0070000001,0.28199999 0.23599999 0.004,
  0.28199999 -0.23599999 0.004,0.279 0.23599999 0.0070000001,
  0.28199999 0.23599999 0.004,0.279 -0.23599999 0.0070000001,
  0.28199999 -0.23599999 0.004,0.286 0.23599999 0.002,
  0.286 -0.23599999 0.002,0.28199999 0.23599999 0.004,
  0.286 0.23599999 0.002,0.28199999 -0.23599999 0.004,
  0.286 -0.23599999 0.002,0.289 0.23599999 0,
  0.289 -0.23599999 0,0.286 0.23599999 0.002,
  0.289 0.23599999 0,0.286 -0.23599999 0.002,
  0.289 -0.23599999 0,0.29300001 0.23599999 0,
  0.29300001 -0.23599999 0,0.289 0.23599999 0,
  0.29300001 0.23599999 0,0.289 -0.23599999 0] }
 coordIndex [
  0,1,2,-1,3,4,5,-1,6,7,8,-1,9,10,11,-1,12,13,14,-1,15,16,17,-1,18,19,20,-1,21,22,23,-1,
  24,25,26,-1,27,28,29,-1,30,31,32,-1,33,34,35,-1,36,37,38,-1,39,40,41,-1]
  normalPerVertex TRUE
  normal DEF NORM_18 Normal { vector [
  -1 0 0,-0.98057654 0 -0.19613684,
  -0.99118074 0 -0.13251697,-1 0 0,
  -0.98057654 0 -0.19613684,-1 0 0,
  -0.99118074 0 -0.13251697,-0.88070159 0 -0.47367152,
  -0.90738468 0 -0.42030113,-0.98057654 0 -0.19613684,
  -0.88070159 0 -0.47367152,-0.99118074 0 -0.13251697,
  -0.90738468 0 -0.42030113,-0.76446553 0 -0.6446646,
  -0.75521865 0 -0.65547295,-0.88070164 0 -0.47367143,
  -0.76446553 0 -0.6446646,-0.90738469 0 -0.42030111,
  -0.75521865 0 -0.65547295,-0.567203 0 -0.82357802,
  -0.54750234 0 -0.83680415,-0.76446553 0 -0.6446646,
  -0.567203 0 -0.82357802,-0.75521868 0 -0.65547292,
  -0.54750234 0 -0.83680415,-0.50051673 0 -0.86572686,
  -0.5094455 0 -0.86050292,-0.567203 0 -0.82357802,
  -0.50051673 0 -0.86572686,-0.54750234 0 -0.83680415,
  -0.5094455 0 -0.86050292,-0.55470132 0 -0.83204954,
  -0.55470137 0 -0.83204951,-0.50051673 0 -0.86572686,
  -0.55470132 0 -0.83204954,-0.5094455 0 -0.86050292,
  0 0 -1,0 0 -1,
  0 0 -1,0 0 -1,
  0 0 -1,0 0 -1] }
}
}
] }
DEF TXFM_22 Transform {
  center 0 0 0
  rotation 0 0 1 0
  scale 1 1 1
  scaleOrientation 0 0 1 0
  translation 0 0 0
 children [
DEF SHAPE_19 Shape {
 appearance USE APP_1
 geometry DEF FACE_19 IndexedFaceSet {
  coord DEF COORD_19 Coordinate { point [
  0.29300001 0.23599999 0,0.37599999 0.23599999 0,
  0.29300001 -0.23599999 0,0.29300001 -0.23599999 0,
  0.37599999 0.23599999 0,0.37599999 -0.23599999 0] }
 coordIndex [
  0,1,2,-1,3,4,5,-1]
  normalPerVertex TRUE
  normal DEF NORM_19 Normal { vector [
  0 0 -1,0 0 -1,
  0 0 -1,0 0 -1,
  0 0 -1,0 0 -1] }
}
}
] }
DEF TXFM_23 Transform {
  center 0 0 0
  rotation 0 0 1 0
  scale 1 1 1
  scaleOrientation 0 0 1 0
  translation 0 0 0
 children [
DEF SHAPE_20 Shape {
 appearance USE APP_1
 geometry DEF FACE_20 IndexedFaceSet {
  coord DEF COORD_20 Coordinate { point [
  0.39300001 0.23599999 0.014,0.39399998 -0.23599999 0.017999998,
  0.39300001 -0.23599999 0.014,0.39300001 0.23599999 0.014,
  0.39399998 0.23599999 0.017999998,0.39399998 -0.23599999 0.017999998,
  0.39199999 0.23599999 0.0099999999,0.39300001 -0.23599999 0.014,
  0.39199999 -0.23599999 0.0099999999,0.39199999 0.23599999 0.0099999999,
  0.39300001 0.23599999 0.014,0.39300001 -0.23599999 0.014,
  0.38999997 0.23599999 0.0070000001,0.39199999 -0.23599999 0.0099999999,
  0.38999997 -0.23599999 0.0070000001,0.38999997 0.23599999 0.0070000001,
  0.39199999 0.23599999 0.0099999999,0.39199999 -0.23599999 0.0099999999,
  0.38699998 0.23599999 0.004,0.38999997 -0.23599999 0.0070000001,
  0.38699998 -0.23599999 0.004,0.38699998 0.23599999 0.004,
  0.38999997 0.23599999 0.0070000001,0.38999997 -0.23599999 0.0070000001,
  0.38399999 0.23599999 0.002,0.38699998 -0.23599999 0.004,
  0.38399999 -0.23599999 0.002,0.38399999 0.23599999 0.002,
  0.38699998 0.23599999 0.004,0.38699998 -0.23599999 0.004,
  0.37999998 0.23599999 0,0.38399999 -0.23599999 0.002,
  0.37999998 -0.23599999 0,0.37999998 0.23599999 0,
  0.38399999 0.23599999 0.002,0.38399999 -0.23599999 0.002,
  0.37599999 0.23599999 0,0.37999998 -0.23599999 0,
  0.37599999 -0.23599999 0,0.37599999 0.23599999 0,
  0.37999998 0.23599999 0,0.37999998 -0.23599999 0] }
 coordIndex [
  0,1,2,-1,3,4,5,-1,6,7,8,-1,9,10,11,-1,12,13,14,-1,15,16,17,-1,18,19,20,-1,21,22,23,-1,
  24,25,26,-1,27,28,29,-1,30,31,32,-1,33,34,35,-1,36,37,38,-1,39,40,41,-1]
  normalPerVertex TRUE
  normal DEF NORM_20 Normal { vector [
  0.97014269 0 -0.24253487,0.97014399 0 -0.24252968,
  0.97014269 0 -0.24253487,0.97014269 0 -0.24253487,
  0.97014399 0 -0.24252968,0.97014399 0 -0.24252968,
  0.88879147 0 -0.45831181,0.97014269 0 -0.24253487,
  0.88841745 0 -0.45903642,0.88879147 0 -0.45831181,
  0.97014269 0 -0.24253487,0.97014269 0 -0.24253487,
  0.76649784 0 -0.64224688,0.88841745 0 -0.45903642,
  0.76648431 0 -0.64226303,0.76649784 0 -0.64224688,
  0.88879147 0 -0.45831181,0.88841745 0 -0.45903642,
  0.62854187 0 -0.77777575,0.76648431 0 -0.64226303,
  0.62846648 0 -0.77783667,0.62854187 0 -0.77777575,
  0.76649784 0 -0.64224688,0.76648433 0 -0.64226301,
  0.50027889 0 -0.86586433,0.62846648 0 -0.77783667,
  0.50030356 0 -0.86585007,0.50027889 0 -0.86586433,
  0.62854187 0 -0.77777575,0.62846648 0 -0.77783667,
  0.21856695 0 -0.97582196,0.50030356 0 -0.86585007,
  0.21842913 0 -0.97585282,0.21856695 0 -0.97582196,
  0.50027889 0 -0.86586433,0.50030356 0 -0.86585007,
  0 0 -1,0.21842913 0 -0.97585282,
  0 0 -1,0 0 -1,
  0.21856695 0 -0.97582196,0.21842913 0 -0.97585282] }
}
}
] }
DEF TXFM_24 Transform {
  center 0 0 0
  rotation 0 0 1 0
  scale 1 1 1
  scaleOrientation 0 0 1 0
  translation 0 0 0
 children [
DEF SHAPE_21 Shape {
 appearance USE APP_1
 geometry DEF FACE_21 IndexedFaceSet {
  coord DEF COORD_21 Coordinate { point [
  0.39399998 -0.23599999 0.15899999,0.39399998 -0.23599999 0.017999998,
  0.39399998 0.23599999 0.017999998,0.39399998 -0.23599999 0.15899999,
  0.39399998 0.23599999 0.017999998,0.39399998 0.23599999 0.15899999] }
 coordIndex [
  0,1,2,-1,3,4,5,-1]
  normalPerVertex TRUE
  normal DEF NORM_21 Normal { vector [
  1 0 0,1 0 0,
  1 0 0,1 0 0,
  1 0 0,1 0 0] }
}
}
] }
DEF TXFM_25 Transform {
  center 0 0 0
  rotation 0 0 1 0
  scale 1 1 1
  scaleOrientation 0 0 1 0
  translation 0 0 0
 children [
DEF SHAPE_22 Shape {
 appearance USE APP_1
 geometry DEF FACE_22 IndexedFaceSet {
  coord DEF COORD_22 Coordinate { point [
  0.39399998 -0.23599999 0.15899999,0.39300001 0.23599999 0.163,
  0.39300001 -0.23599999 0.163,0.39399998 0.23599999 0.15899999,
  0.39300001 0.23599999 0.163,0.39399998 -0.23599999 0.15899999,
  0.39300001 -0.23599999 0.163,0.39199999 0.23599999 0.16699999,
  0.39199999 -0.23599999 0.16699999,0.39300001 0.23599999 0.163,
  0.39199999 0.23599999 0.16699999,0.39300001 -0.23599999 0.163,
  0.39199999 -0.23599999 0.16699999,0.38999997 0.23599999 0.17,
  0.38999997 -0.23599999 0.17,0.39199999 0.23599999 0.16699999,
  0.38999997 0.23599999 0.17,0.39199999 -0.23599999 0.16699999,
  0.38999997 -0.23599999 0.17,0.38699998 0.23599999 0.17299999,
  0.38699998 -0.23599999 0.17299999,0.38999997 0.23599999 0.17,
  0.38699998 0.23599999 0.17299999,0.38999997 -0.23599999 0.17,
  0.38699998 -0.23599999 0.17299999,0.38399999 0.23599999 0.175,
  0.38399999 -0.23599999 0.175,0.38699998 0.23599999 0.17299999,
  0.38399999 0.23599999 0.175,0.38699998 -0.23599999 0.17299999,
  0.38399999 -0.23599999 0.175,0.37999998 0.23599999 0.17699999,
  0.37999998 -0.23599999 0.17699999,0.38399999 0.23599999 0.175,
  0.37999998 0.23599999 0.17699999,0.38399999 -0.23599999 0.175,
  0.37999998 -0.23599999 0.17699999,0.37599999 0.23599999 0.17699999,
  0.37599999 -0.23599999 0.17699999,0.37999998 0.23599999 0.17699999,
  0.37599999 0.23599999 0.17699999,0.37999998 -0.23599999 0.17699999] }
 coordIndex [
  0,1,2,-1,3,4,5,-1,6,7,8,-1,9,10,11,-1,12,13,14,-1,15,16,17,-1,18,19,20,-1,21,22,23,-1,
  24,25,26,-1,27,28,29,-1,30,31,32,-1,33,34,35,-1,36,37,38,-1,39,40,41,-1]
  normalPerVertex TRUE
  normal DEF NORM_22 Normal { vector [
  0.97014417 0 0.24252894,0.97014262 0 0.24253516,
  0.97014255 0 0.24253541,0.97014417 0 0.24252894,
  0.97014262 0 0.24253516,0.97014417 0 0.24252894,
  0.97014255 0 0.24253541,0.91035015 0 0.41383887,
  0.91289755 0 0.40818877,0.97014262 0 0.24253516,
  0.91035015 0 0.41383887,0.97014255 0 0.24253544,
  0.91289755 0 0.40818877,0.75157118 0 0.659652,
  0.75772629 0 0.6525725,0.91035015 0 0.41383887,
  0.75157118 0 0.659652,0.91289751 0 0.40818884,
  0.75772629 0 0.6525725,0.61909878 0 0.78531312,
  0.6223527 0 0.78273694,0.75157118 0 0.659652,
  0.61909878 0 0.78531312,0.75772627 0 0.65257253,
  0.6223527 0 0.78273694,0.49752336 0 0.86745058,
  0.48265537 0 0.87581037,0.61909878 0 0.78531312,
  0.49752336 0 0.86745058,0.62235267 0 0.78273697,
  0.48265537 0 0.87581037,0.18731491 0 0.98229992,
  0.16399239 0 0.9864616,0.49752336 0 0.86745058,
  0.18731491 0 0.98229992,0.48265537 0 0.87581037,
  0.16399239 0 0.9864616,0 0 1,
  0 0 1,0.18731491 0 0.98229992,
  0 0 1,0.16399239 0 0.9864616] }
}
}
] }
DEF TXFM_26 Transform {
  center 0 0 0
  rotation 0 0 1 0
  scale 1 1 1
  scaleOrientation 0 0 1 0
  translation 0 0 0
 children [
DEF SHAPE_23 Shape {
 appearance USE APP_1
 geometry DEF FACE_23 IndexedFaceSet {
  coord DEF COORD_23 Coordinate { point [
  0.37599999 0.23599999 0.17699999,0.29300001 0.23599999 0.17699999,
  0.29300001 -0.23599999 0.17699999,0.37599999 0.23599999 0.17699999,
  0.29300001 -0.23599999 0.17699999,0.37599999 -0.23599999 0.17699999] }
 coordIndex [
  0,1,2,-1,3,4,5,-1]
  normalPerVertex TRUE
  normal DEF NORM_23 Normal { vector [
  0 0 1,0 0 1,
  0 0 1,0 0 1,
  0 0 1,0 0 1] }
}
}
] }
DEF TXFM_27 Transform {
  center 0 0 0
  rotation 0 0 1 0
  scale 1 1 1
  scaleOrientation 0 0 1 0
  translation 0 0 0
 children [
DEF SHAPE_24 Shape {
 appearance USE APP_1
 geometry DEF FACE_24 IndexedFaceSet {
  coord DEF COORD_24 Coordinate { point [
  0.27599999 0.23599999 0.163,0.27599999 -0.23599999 0.15899999,
  0.27599999 -0.23599999 0.163,0.27599999 0.23599999 0.163,
  0.27599999 0.23599999 0.15899999,0.27599999 -0.23599999 0.15899999,
  0.27700001 0.23599999 0.16699999,0.27599999 -0.23599999 0.163,
  0.27700001 -0.23599999 0.16699999,0.27700001 0.23599999 0.16699999,
  0.27599999 0.23599999 0.163,0.27599999 -0.23599999 0.163,
  0.279 0.23599999 0.17,0.27700001 -0.23599999 0.16699999,
  0.279 -0.23599999 0.17,0.279 0.23599999 0.17,
  0.27700001 0.23599999 0.16699999,0.27700001 -0.23599999 0.16699999,
  0.28199999 0.23599999 0.17299999,0.279 -0.23599999 0.17,
  0.28199999 -0.23599999 0.17299999,0.28199999 0.23599999 0.17299999,
  0.279 0.23599999 0.17,0.279 -0.23599999 0.17,
  0.286 0.23599999 0.175,0.28199999 -0.23599999 0.17299999,
  0.286 -0.23599999 0.175,0.286 0.23599999 0.175,
  0.28199999 0.23599999 0.17299999,0.28199999 -0.23599999 0.17299999,
  0.289 0.23599999 0.17699999,0.286 -0.23599999 0.175,
  0.289 -0.23599999 0.17699999,0.289 0.23599999 0.17699999,
  0.286 0.23599999 0.175,0.286 -0.23599999 0.175,
  0.29300001 0.23599999 0.17699999,0.289 -0.23599999 0.17699999,
  0.29300001 -0.23599999 0.17699999,0.29300001 0.23599999 0.17699999,
  0.289 0.23599999 0.17699999,0.289 -0.23599999 0.17699999] }
 coordIndex [
  0,1,2,-1,3,4,5,-1,6,7,8,-1,9,10,11,-1,12,13,14,-1,15,16,17,-1,18,19,20,-1,21,22,23,-1,
  24,25,26,-1,27,28,29,-1,30,31,32,-1,33,34,35,-1,36,37,38,-1,39,40,41,-1]
  normalPerVertex TRUE
  normal DEF NORM_24 Normal { vector [
  -0.98966847 0 0.14337475,-1 0 0,
  -0.98969794 0 0.14317121,-0.98966847 0 0.14337475,
  -1 0 0,-1 0 0,
  -0.90503484 0 0.42533744,-0.98969794 0 0.14317121,
  -0.90514311 0 0.42510699,-0.90503484 0 0.42533744,
  -0.98966847 0 0.14337475,-0.98969794 0 0.14317121,
  -0.77079365 0 0.63708488,-0.90514311 0 0.42510699,
  -0.77077744 0 0.63710449,-0.77079365 0 0.63708488,
  -0.90503484 0 0.42533744,-0.90514312 0 0.42510696,
  -0.58225372 0 0.81300713,-0.77077744 0 0.63710449,
  -0.58224788 0 0.81301132,-0.58225372 0 0.81300713,
  -0.77079365 0 0.63708488,-0.77077744 0 0.63710449,
  -0.50240469 0 0.8646326,-0.58224788 0 0.81301132,
  -0.50236709 0 0.86465444,-0.50240469 0 0.8646326,
  -0.58225375 0 0.81300711,-0.58224789 0 0.81301131,
  -0.55470018 0 0.8320503,-0.50236709 0 0.86465444,
  -0.55470017 0 0.83205031,-0.55470018 0 0.8320503,
  -0.50240469 0 0.8646326,-0.50236709 0 0.86465444,
  0 0 1,0 0 1,
  0 0 1,0 0 1,
  0 0 1,0 0 1] }
}
}
] }
DEF TXFM_28 Transform {
  center 0 0 0
  rotation 0 0 1 0
  scale 1 1 1
  scaleOrientation 0 0 1 0
  translation 0 0 0
 children [
DEF SHAPE_25 Shape {
 appearance USE APP_3
 geometry DEF FACE_25 IndexedFaceSet {
  coord DEF COORD_25 Coordinate { point [
  0.27599999 -0.23599999 0.17699999,0.27599999 -0.23599999 0.15899999,
  0.27599999 0.23599999 0.15899999,0.27599999 -0.23599999 0.17699999,
  0.27599999 0.23599999 0.15899999,0.27599999 0.23599999 0.17699999] }
 coordIndex [
  0,1,2,-1,3,4,5,-1]
  normalPerVertex TRUE
  normal DEF NORM_25 Normal { vector [
  1 0 0,1 0 0,
  1 0 0,1 0 0,
  1 0 0,1 0 0] }
}
}
] }
DEF TXFM_29 Transform {
  center 0 0 0
  rotation 0 0 1 0
  scale 1 1 1
  scaleOrientation 0 0 1 0
  translation 0 0 0
 children [
DEF SHAPE_26 Shape {
 appearance USE APP_3
 geometry DEF FACE_26 IndexedFaceSet {
  coord DEF COORD_26 Coordinate { point [
  0.27599999 0.23599999 0.17699999,-0.27599999 0.23599999 0.17699999,
  -0.27599999 -0.23599999 0.17699999,0.27599999 0.23599999 0.17699999,
  -0.27599999 -0.23599999 0.17699999,0.27599999 -0.23599999 0.17699999] }
 coordIndex [
  0,1,2,-1,3,4,5,-1]
  normalPerVertex TRUE
  normal DEF NORM_26 Normal { vector [
  0 0 1,0 0 1,
  0 0 1,0 0 1,
  0 0 1,0 0 1] }
}
}
] }
] }
] }
DEF TXFM_30 Transform {
  center 0 0 0
  rotation 0 0 1 0
  scale 1 1 1
  scaleOrientation 0 0 1 0
  translation 65.427953 -39.05 0.31496063
 children [
USE TXFM_3
] }
DEF TXFM_31 Transform {
  center 0 0 0
  rotation 0 0 1 0
  scale 1 1 1
  scaleOrientation 0 0 1 0
  translation 63.55 -40.211417 0.31496063
 children [
USE TXFM_3
] }
DEF TXFM_32 Transform {
  center 0 0 0
  rotation 0 0 1 0
  scale 1 1 1
  scaleOrientation 0 0 1 0
  translation 63.55 -39.05 0.31496063
 children [
USE TXFM_3
] }
DEF TXFM_33 Transform {
  center 0 0 0
  rotation 0 0 1 0
  scale 1 1 1
  scaleOrientation 0 0 1 0
  translation 0 0 0
 children [
DEF SHAPE_27 Shape {
 appearance DEF APP_4 Appearance {
  material Material {
   ambientIntensity 1
   diffuseColor 0.43000001 0.44999999 0.30000001
   emissiveColor 0 0 0
   shininess 0.0099999998
   specularColor 0.48699999 0.505 0.37
   transparency 0.1
} }
 geometry DEF FACE_27 IndexedFaceSet {
  coord DEF COORD_27 Coordinate { point [
  66.170079 -38.066437 0.31003937,62.807874 -38.066437 0.31003937,
  62.807874 -41.19498 0.31003937,66.170079 -41.19498 0.31003937,
  66.170079 -38.066437 -0.31003937,62.807874 -38.066437 -0.31003937,
  62.807874 -41.19498 -0.31003937,66.170079 -41.19498 -0.31003937] }
 coordIndex [
  0,1,2,-1,0,2,3,-1,5,4,6,-1,6,4,7,-1]
  normalPerVertex TRUE
  normal DEF NORM_27 Normal { vector [
  0 0 1,0 0 1,
  0 0 1,0 0 1,
  0 0 -1,0 0 -1,
  0 0 -1,0 0 -1] }
}
}
DEF SHAPE_28 Shape {
 appearance USE APP_4
 geometry DEF FACE_28 IndexedFaceSet {
  coord DEF COORD_28 Coordinate { point [
  62.807874 -38.066437 0.31003937,66.170079 -38.066437 0.31003937,
  62.807874 -38.066437 -0.31003937,62.807874 -38.066437 -0.31003937,
  66.170079 -38.066437 0.31003937,66.170079 -38.066437 -0.31003937,
  62.807874 -41.19498 0.31003937,62.807874 -38.066437 0.31003937,
  62.807874 -41.19498 -0.31003937,62.807874 -41.19498 -0.31003937,
  62.807874 -38.066437 0.31003937,62.807874 -38.066437 -0.31003937,
  66.170079 -41.19498 0.31003937,62.807874 -41.19498 0.31003937,
  66.170079 -41.19498 -0.31003937,66.170079 -41.19498 -0.31003937,
  62.807874 -41.19498 0.31003937,62.807874 -41.19498 -0.31003937,
  66.170079 -38.066437 0.31003937,66.170079 -41.19498 0.31003937,
  66.170079 -38.066437 -0.31003937,66.170079 -38.066437 -0.31003937,
  66.170079 -41.19498 0.31003937,66.170079 -41.19498 -0.31003937] }
 coordIndex [
  0,1,2,-1,3,4,5,-1,6,7,8,-1,9,10,11,-1,12,13,14,-1,15,16,17,-1,18,19,20,-1,21,22,23,-1]
  normalPerVertex TRUE
  normal DEF NORM_28 Normal { vector [
  0 1 0,0 1 0,
  0 1 0,0 1 0,
  0 1 0,0 1 0,
  -1 0 0,-1 0 0,
  -1 0 0,-1 0 0,
  -1 0 0,-1 0 0,
  0 -1 0,0 -1 0,
  0 -1 0,0 -1 0,
  0 -1 0,0 -1 0,
  1 0 0,1 0 0,
  1 0 0,1 0 0,
  1 0 0,1 0 0] }
}
}
] }
DEF TXFM_34 Transform {
  center 0 0 0
  rotation 0 0 1 0
  scale 1 1 1
  scaleOrientation 0 0 1 0
  translation 0 0 0
 children [
DEF SHAPE_29 Shape {
 appearance DEF APP_5 Appearance {
  material Material {
   ambientIntensity 1
   diffuseColor 0.75 0.61000001 0.23
   emissiveColor 0 0 0
   shininess 0.89999998
   specularColor 0.89999998 0.84399998 0.69199997
   transparency 0
} }
 geometry DEF FACE_29 IndexedFaceSet {
  coord DEF COORD_29 Coordinate { point [
  63.424016 -39.935827 0.31496063,62.914173 -39.935827 0.31496063,
  62.914173 -40.487008 0.31496063,63.424016 -40.487008 0.31496063,
  64.185827 -39.935827 0.31496063,63.675984 -39.935827 0.31496063,
  63.675984 -40.487008 0.31496063,64.185827 -40.487008 0.31496063,
  65.301969 -39.935827 0.31496063,64.792126 -39.935827 0.31496063,
  64.792126 -40.487008 0.31496063,65.301969 -40.487008 0.31496063,
  66.06378 -39.935827 0.31496063,65.553937 -39.935827 0.31496063,
  65.553937 -40.487008 0.31496063,66.06378 -40.487008 0.31496063,
  63.424016 -38.774409 0.31496063,62.914173 -38.774409 0.31496063,
  62.914173 -39.325591 0.31496063,63.424016 -39.325591 0.31496063,
  64.185827 -38.774409 0.31496063,63.675984 -38.774409 0.31496063,
  63.675984 -39.325591 0.31496063,64.185827 -39.325591 0.31496063,
  65.301969 -38.774409 0.31496063,64.792126 -38.774409 0.31496063,
  64.792126 -39.325591 0.31496063,65.301969 -39.325591 0.31496063,
  66.06378 -38.774409 0.31496063,65.553937 -38.774409 0.31496063,
  65.553937 -39.325591 0.31496063,66.06378 -39.325591 0.31496063] }
 coordIndex [
  1,2,3,-1,1,3,0,-1,5,6,7,-1,5,7,4,-1,9,10,11,-1,9,11,8,-1,13,14,15,-1,13,15,12,-1,
  17,18,19,-1,17,19,16,-1,21,22,23,-1,21,23,20,-1,25,26,27,-1,25,27,24,-1,29,30,31,-1,29,31,28,-1]
  normalPerVertex TRUE
  normal DEF NORM_29 Normal { vector [
  0 0 1,0 0 1,
  0 0 1,0 0 1,
  0 0 1,0 0 1,
  0 0 1,0 0 1,
  0 0 1,0 0 1,
  0 0 1,0 0 1,
  0 0 1,0 0 1,
  0 0 1,0 0 1,
  0 0 1,0 0 1,
  0 0 1,0 0 1,
  0 0 1,0 0 1,
  0 0 1,0 0 1,
  0 0 1,0 0 1,
  0 0 1,0 0 1,
  0 0 1,0 0 1,
  0 0 1,0 0 1] }
}
}
] }
DEF TXFM_35 Transform {
  center 0 0 0
  rotation 0 0 1 0
  scale 1 1 1
  scaleOrientation 0 0 1 0
  translation 0 0 0
 children [
DEF SHAPE_30 Shape {
 appearance DEF APP_6 Appearance {
  material Material {
   ambientIntensity 1
   diffuseColor 0.5 0.5 0.5
   emissiveColor 0 0 0
   shininess 0.69999999
   specularColor 0.80000001 0.80000001 0.80000001
   transparency 0
} }
 geometry DEF FACE_30 IndexedFaceSet {
  coord DEF COORD_30 Coordinate { point [
  63.424016 -39.935827 0.31988189,62.914173 -39.935827 0.31988189,
  62.914173 -40.487008 0.31988189,63.424016 -40.487008 0.31988189,
  64.185827 -39.935827 0.31988189,63.675984 -39.935827 0.31988189,
  63.675984 -40.487008 0.31988189,64.185827 -40.487008 0.31988189,
  65.301969 -39.935827 0.31988189,64.792126 -39.935827 0.31988189,
  64.792126 -40.487008 0.31988189,65.301969 -40.487008 0.31988189,
  66.06378 -39.935827 0.31988189,65.553937 -39.935827 0.31988189,
  65.553937 -40.487008 0.31988189,66.06378 -40.487008 0.31988189,
  63.424016 -38.774409 0.31988189,62.914173 -38.774409 0.31988189,
  62.914173 -39.325591 0.31988189,63.424016 -39.325591 0.31988189,
  64.185827 -38.774409 0.31988189,63.675984 -38.774409 0.31988189,
  63.675984 -39.325591 0.31988189,64.185827 -39.325591 0.31988189,
  65.301969 -38.774409 0.31988189,64.792126 -38.774409 0.31988189,
  64.792126 -39.325591 0.31988189,65.301969 -39.325591 0.31988189,
  66.06378 -38.774409 0.31988189,65.553937 -38.774409 0.31988189,
  65.553937 -39.325591 0.31988189,66.06378 -39.325591 0.31988189] }
 coordIndex [
  1,2,3,-1,1,3,0,-1,5,6,7,-1,5,7,4,-1,9,10,11,-1,9,11,8,-1,13,14,15,-1,13,15,12,-1,
  17,18,19,-1,17,19,16,-1,21,22,23,-1,21,23,20,-1,25,26,27,-1,25,27,24,-1,29,30,31,-1,29,31,28,-1]
  normalPerVertex TRUE
  normal DEF NORM_30 Normal { vector [
  0 0 1,0 0 1,
  0 0 1,0 0 1,
  0 0 1,0 0 1,
  0 0 1,0 0 1,
  0 0 1,0 0 1,
  0 0 1,0 0 1,
  0 0 1,0 0 1,
  0 0 1,0 0 1,
  0 0 1,0 0 1,
  0 0 1,0 0 1,
  0 0 1,0 0 1,
  0 0 1,0 0 1,
  0 0 1,0 0 1,
  0 0 1,0 0 1,
  0 0 1,0 0 1,
  0 0 1,0 0 1] }
}
}
] }
DEF TXFM_36 Transform {
  center 0 0 0
  rotation 0 0 1 0
  scale 1 1 1
  scaleOrientation 0 0 1 0
  translation 0 0 0
 children [
DEF SHAPE_31 Shape {
 appearance DEF APP_7 Appearance {
  material Material {
   ambientIntensity 1
   diffuseColor 0.079999998 0.2 0.14
   emissiveColor 0 0 0
   shininess 0.30000001
   specularColor 0.35600001 0.44 0.398
   transparency 0.17
} }
 geometry DEF FACE_31 IndexedFaceSet {
  coord DEF COORD_31 Coordinate { point [
  63.444094 -38.774409 0.31988189,63.444094 -39.325591 0.31988189,
  63.442566 -39.333274 0.31988189,63.438213 -39.339788 0.31988189,
  63.4317 -39.344141 0.31988189,63.424016 -39.345669 0.31988189,
  62.914173 -39.345669 0.31988189,62.906489 -39.344141 0.31988189,
  62.899976 -39.339788 0.31988189,62.895623 -39.333274 0.31988189,
  62.894094 -39.325591 0.31988189,62.894094 -38.774409 0.31988189,
  62.895623 -38.766726 0.31988189,62.899976 -38.760212 0.31988189,
  62.906489 -38.755859 0.31988189,62.914173 -38.754331 0.31988189,
  63.424016 -38.754331 0.31988189,63.4317 -38.755859 0.31988189,
  63.438213 -38.760212 0.31988189,63.442566 -38.766726 0.31988189,
  64.205906 -38.774409 0.31988189,64.205906 -39.325591 0.31988189,
  64.204377 -39.333274 0.31988189,64.200024 -39.339788 0.31988189,
  64.193511 -39.344141 0.31988189,64.185827 -39.345669 0.31988189,
  63.675984 -39.345669 0.31988189,63.6683 -39.344141 0.31988189,
  63.661787 -39.339788 0.31988189,63.657434 -39.333274 0.31988189,
  63.655906 -39.325591 0.31988189,63.655906 -38.774409 0.31988189,
  63.657434 -38.766726 0.31988189,63.661787 -38.760212 0.31988189,
  63.6683 -38.755859 0.31988189,63.675984 -38.754331 0.31988189,
  64.185827 -38.754331 0.31988189,64.193511 -38.755859 0.31988189,
  64.200024 -38.760212 0.31988189,64.204377 -38.766726 0.31988189,
  65.322047 -38.774409 0.31988189,65.322047 -39.325591 0.31988189,
  65.320519 -39.333274 0.31988189,65.316166 -39.339788 0.31988189,
  65.309652 -39.344141 0.31988189,65.301969 -39.345669 0.31988189,
  64.792126 -39.345669 0.31988189,64.784442 -39.344141 0.31988189,
  64.777928 -39.339788 0.31988189,64.773576 -39.333274 0.31988189,
  64.772047 -39.325591 0.31988189,64.772047 -38.774409 0.31988189,
  64.773576 -38.766726 0.31988189,64.777928 -38.760212 0.31988189,
  64.784442 -38.755859 0.31988189,64.792126 -38.754331 0.31988189,
  65.301969 -38.754331 0.31988189,65.309652 -38.755859 0.31988189,
  65.316166 -38.760212 0.31988189,65.320519 -38.766726 0.31988189,
  66.170079 -41.19498 0.31988189,66.170079 -38.066437 0.31988189,
  62.807874 -38.066437 0.31988189,62.807874 -39.325591 0.31988189,
  62.807874 -40.487008 0.31988189,62.807874 -41.19498 0.31988189,
  66.083858 -38.774409 0.31988189,66.083858 -39.325591 0.31988189,
  66.08233 -39.333274 0.31988189,66.077977 -39.339788 0.31988189,
  66.071463 -39.344141 0.31988189,66.06378 -39.345669 0.31988189,
  65.553937 -39.345669 0.31988189,65.546253 -39.344141 0.31988189,
  65.539739 -39.339788 0.31988189,65.535387 -39.333274 0.31988189,
  65.533858 -39.325591 0.31988189,65.533858 -38.774409 0.31988189,
  65.535387 -38.766726 0.31988189,65.539739 -38.760212 0.31988189,
  65.546253 -38.755859 0.31988189,65.553937 -38.754331 0.31988189,
  66.06378 -38.754331 0.31988189,66.071463 -38.755859 0.31988189,
  66.077977 -38.760212 0.31988189,66.08233 -38.766726 0.31988189,
  65.533858 -39.935827 0.31988189,65.535387 -39.928143 0.31988189,
  65.539739 -39.921629 0.31988189,65.546253 -39.917276 0.31988189,
  65.553937 -39.915748 0.31988189,66.06378 -39.915748 0.31988189,
  66.071463 -39.917276 0.31988189,66.077977 -39.921629 0.31988189,
  66.08233 -39.928143 0.31988189,66.083858 -39.935827 0.31988189,
  66.083858 -40.487008 0.31988189,66.08233 -40.494692 0.31988189,
  66.077977 -40.501206 0.31988189,66.071463 -40.505558 0.31988189,
  66.06378 -40.507087 0.31988189,65.553937 -40.507087 0.31988189,
  65.546253 -40.505558 0.31988189,65.539739 -40.501206 0.31988189,
  65.535387 -40.494692 0.31988189,65.533858 -40.487008 0.31988189,
  64.772047 -39.935827 0.31988189,64.773576 -39.928143 0.31988189,
  64.777928 -39.921629 0.31988189,64.784442 -39.917276 0.31988189,
  64.792126 -39.915748 0.31988189,65.301969 -39.915748 0.31988189,
  65.309652 -39.917276 0.31988189,65.316166 -39.921629 0.31988189,
  65.320519 -39.928143 0.31988189,65.322047 -39.935827 0.31988189,
  65.322047 -40.487008 0.31988189,65.320519 -40.494692 0.31988189,
  65.316166 -40.501206 0.31988189,65.309652 -40.505558 0.31988189,
  65.301969 -40.507087 0.31988189,64.792126 -40.507087 0.31988189,
  64.784442 -40.505558 0.31988189,64.777928 -40.501206 0.31988189,
  64.773576 -40.494692 0.31988189,64.772047 -40.487008 0.31988189,
  63.655906 -39.935827 0.31988189,63.657434 -39.928143 0.31988189,
  63.661787 -39.921629 0.31988189,63.6683 -39.917276 0.31988189,
  63.675984 -39.915748 0.31988189,64.185827 -39.915748 0.31988189,
  64.193511 -39.917276 0.31988189,64.200024 -39.921629 0.31988189,
  64.204377 -39.928143 0.31988189,64.205906 -39.935827 0.31988189,
  64.205906 -40.487008 0.31988189,64.204377 -40.494692 0.31988189,
  64.200024 -40.501206 0.31988189,64.193511 -40.505558 0.31988189,
  64.185827 -40.507087 0.31988189,63.675984 -40.507087 0.31988189,
  63.6683 -40.505558 0.31988189,63.661787 -40.501206 0.31988189,
  63.657434 -40.494692 0.31988189,63.655906 -40.487008 0.31988189,
  62.894094 -39.935827 0.31988189,62.895623 -39.928143 0.31988189,
  62.899976 -39.921629 0.31988189,62.906489 -39.917276 0.31988189,
  62.914173 -39.915748 0.31988189,63.424016 -39.915748 0.31988189,
  63.4317 -39.917276 0.31988189,63.438213 -39.921629 0.31988189,
  63.442566 -39.928143 0.31988189,63.444094 -39.935827 0.31988189,
  63.444094 -40.487008 0.31988189,63.442566 -40.494692 0.31988189,
  63.438213 -40.501206 0.31988189,63.4317 -40.505558 0.31988189,
  63.424016 -40.507087 0.31988189,62.914173 -40.507087 0.31988189,
  62.906489 -40.505558 0.31988189,62.899976 -40.501206 0.31988189,
  62.895623 -40.494692 0.31988189,62.894094 -40.487008 0.31988189] }
 coordIndex [
  62,165,11,-1,11,165,146,-1,11,146,10,-1,10,146,147,-1,10,147,9,-1,9,147,148,-1,9,148,8,-1,8,148,149,-1,
  8,149,7,-1,7,149,150,-1,7,150,6,-1,6,150,151,-1,6,151,5,-1,5,151,152,-1,5,152,4,-1,4,152,153,-1,
  4,153,3,-1,3,153,154,-1,3,154,2,-1,2,154,155,-1,2,155,1,-1,1,155,145,-1,1,145,0,-1,0,145,31,-1,
  0,31,32,-1,31,126,30,-1,30,126,127,-1,30,127,29,-1,29,127,128,-1,29,128,28,-1,28,128,129,-1,28,129,27,-1,
  27,129,130,-1,27,130,26,-1,26,130,131,-1,26,131,25,-1,25,131,132,-1,25,132,24,-1,24,132,133,-1,24,133,23,-1,
  23,133,134,-1,23,134,22,-1,22,134,135,-1,22,135,21,-1,21,135,124,-1,21,124,20,-1,20,124,125,-1,20,125,51,-1,
  51,125,106,-1,51,106,50,-1,50,106,107,-1,50,107,49,-1,49,107,108,-1,49,108,48,-1,48,108,109,-1,48,109,47,-1,
  47,109,110,-1,47,110,46,-1,46,110,111,-1,46,111,45,-1,45,111,112,-1,45,112,44,-1,44,112,113,-1,44,113,43,-1,
  43,113,114,-1,43,114,42,-1,42,114,115,-1,42,115,41,-1,41,115,105,-1,41,105,40,-1,40,105,77,-1,40,77,78,-1,
  84,85,61,-1,61,85,66,-1,61,66,60,-1,60,66,67,-1,60,67,95,-1,95,67,68,-1,95,68,94,-1,94,68,69,-1,
  94,69,93,-1,93,69,70,-1,93,70,92,-1,92,70,71,-1,92,71,91,-1,91,71,72,-1,91,72,90,-1,90,72,73,-1,
  90,73,89,-1,89,73,74,-1,89,74,88,-1,88,74,75,-1,88,75,87,-1,87,75,76,-1,87,76,86,-1,86,76,77,-1,
  86,77,105,-1,61,62,14,-1,61,14,15,-1,61,15,16,-1,61,16,17,-1,61,17,18,-1,61,18,19,-1,61,19,0,-1,
  61,0,34,-1,61,34,35,-1,61,35,36,-1,61,36,37,-1,61,37,38,-1,61,38,39,-1,61,39,20,-1,61,20,54,-1,
  61,54,55,-1,61,55,56,-1,61,56,57,-1,61,57,58,-1,61,58,59,-1,61,59,40,-1,61,40,79,-1,61,79,80,-1,
  61,80,81,-1,61,81,82,-1,61,82,83,-1,61,83,84,-1,20,51,52,-1,20,52,53,-1,20,53,54,-1,33,34,0,-1,
  33,0,32,-1,62,11,12,-1,62,12,13,-1,62,13,14,-1,60,95,96,-1,60,96,97,-1,60,97,98,-1,60,98,99,-1,
  60,99,100,-1,60,100,101,-1,60,101,102,-1,60,102,103,-1,60,103,116,-1,60,116,117,-1,60,117,118,-1,60,118,119,-1,
  60,119,120,-1,60,120,121,-1,60,121,122,-1,60,122,136,-1,60,136,137,-1,60,137,138,-1,60,138,139,-1,60,139,140,-1,
  60,140,141,-1,60,141,142,-1,60,142,156,-1,60,156,157,-1,60,157,158,-1,60,158,159,-1,60,159,160,-1,60,160,161,-1,
  60,161,162,-1,60,162,64,-1,60,64,65,-1,104,105,115,-1,104,115,116,-1,104,116,103,-1,123,124,135,-1,123,135,136,-1,
  123,136,122,-1,142,143,156,-1,156,143,144,-1,156,144,155,-1,155,144,145,-1,163,164,64,-1,64,164,165,-1,64,165,63,-1,
  63,165,62,-1,64,162,163,-1,31,145,126,-1,79,40,78,-1]
  normalPerVertex TRUE
  normal DEF NORM_31 Normal { vector [
  0 0 1,0 0 1,
  0 0 1,0 0 1,
  0 0 1,0 0 1,
  0 0 1,0 0 1,
  0 0 1,0 0 1,
  0 0 1,0 0 1,
  0 0 1,0 0 1,
  0 0 1,0 0 1,
  0 0 1,0 0 1,
  0 0 1,0 0 1,
  0 0 1,0 0 1,
  0 0 1,0 0 1,
  0 0 1,0 0 1,
  0 0 1,0 0 1,
  0 0 1,0 0 1,
  0 0 1,0 0 1,
  0 0 1,0 0 1,
  0 0 1,0 0 1,
  0 0 1,0 0 1,
  0 0 1,0 0 1,
  0 0 1,0 0 1,
  0 0 1,0 0 1,
  0 0 1,0 0 1,
  0 0 1,0 0 1,
  0 0 1,0 0 1,
  0 0 1,0 0 1,
  0 0 1,0 0 1,
  0 0 1,0 0 1,
  0 0 1,0 0 1,
  0 0 1,0 0 1,
  0 0 1,0 0 1,
  0 0 1,0 0 1,
  0 0 1,0 0 1,
  0 0 1,0 0 1,
  0 0 1,0 0 1,
  0 0 1,0 0 1,
  0 0 1,0 0 1,
  0 0 1,0 0 1,
  0 0 1,0 0 1,
  0 0 1,0 0 1,
  0 0 1,0 0 1,
  0 0 1,0 0 1,
  0 0 1,0 0 1,
  0 0 1,0 0 1,
  0 0 1,0 0 1,
  0 0 1,0 0 1,
  0 0 1,0 0 1,
  0 0 1,0 0 1,
  0 0 1,0 0 1,
  0 0 1,0 0 1,
  0 0 1,0 0 1,
  0 0 1,0 0 1,
  0 0 1,0 0 1,
  0 0 1,0 0 1,
  0 0 1,0 0 1,
  0 0 1,0 0 1,
  0 0 1,0 0 1,
  0 0 1,0 0 1,
  0 0 1,0 0 1,
  0 0 1,0 0 1,
  0 0 1,0 0 1,
  0 0 1,0 0 1,
  0 0 1,0 0 1,
  0 0 1,0 0 1,
  0 0 1,0 0 1,
  0 0 1,0 0 1,
  0 0 1,0 0 1,
  0 0 1,0 0 1,
  0 0 1,0 0 1,
  0 0 1,0 0 1,
  0 0 1,0 0 1,
  0 0 1,0 0 1,
  0 0 1,0 0 1,
  0 0 1,0 0 1,
  0 0 1,0 0 1,
  0 0 1,0 0 1,
  0 0 1,0 0 1,
  0 0 1,0 0 1,
  0 0 1,0 0 1,
  0 0 1,0 0 1,
  0 0 1,0 0 1,
  0 0 1,0 0 1,
  0 0 1,0 0 1] }
}
}
] }
DEF TXFM_37 Transform {
  center 0 0 0
  rotation 0 0 1 0
  scale 1 1 1
  scaleOrientation 0 0 1 0
  translation 0 0 0
 children [
DEF SHAPE_32 Shape {
 appearance DEF APP_8 Appearance {
  material Material {
   ambientIntensity 1
   diffuseColor 0.079999998 0.2 0.14
   emissiveColor 0 0 0
   shininess 0.30000001
   specularColor 0.35600001 0.44 0.398
   transparency 0.17
} }
 geometry DEF FACE_32 IndexedFaceSet {
  coord DEF COORD_32 Coordinate { point [
  66.170079 -38.066437 -0.31988189,62.807874 -38.066437 -0.31988189,
  62.807874 -41.19498 -0.31988189,66.170079 -41.19498 -0.31988189] }
 coordIndex [
  1,0,2,-1,2,0,3,-1]
  normalPerVertex TRUE
  normal DEF NORM_32 Normal { vector [
  0 0 -1,0 0 -1,
  0 0 -1,0 0 -1] }
}
}
] }
DEF TXFM_38 Transform {
  center 0 0 0
  rotation 0 0 1 0
  scale 1 1 1
  scaleOrientation 0 0 1 0
  translation 0 0 0
 children [
DEF SHAPE_33 Shape {
 appearance DEF APP_9 Appearance {
  material Material {
   ambientIntensity 0.74468082
   diffuseColor 0.94 0.94 0.94
   emissiveColor 0 0 0
   shininess 0.02
   specularColor 0.94599998 0.94599998 0.94599998
   transparency 0
} }
 geometry DEF FACE_33 IndexedFaceSet {
  coord DEF COORD_33 Coordinate { point [
  63.722282 -39.330794 0.34448819,63.686407 -39.384604 0.34448819,
  63.654369 -39.416643 0.34448819,63.621159 -39.433248 0.34448819,
  63.607273 -39.447915 0.34448819,63.606062 -39.468077 0.34448819,
  63.618095 -39.4843 0.34448819,63.63774 -39.488993 0.34448819,
  63.64757 -39.486069 0.34448819,63.685065 -39.467321 0.34448819,
  63.685508 -39.466853 0.34448819,63.692739 -39.46179 0.34448819,
  63.717323 -39.437206 0.34448819,63.717323 -39.711346 0.34448819,
  63.634365 -39.711346 0.34448819,63.615385 -39.718254 0.34448819,
  63.605285 -39.735746 0.34448819,63.608793 -39.755637 0.34448819,
  63.624265 -39.76862 0.34448819,63.634365 -39.770401 0.34448819,
  63.859336 -39.770401 0.34448819,63.878316 -39.763493 0.34448819,
  63.888415 -39.746001 0.34448819,63.884908 -39.72611 0.34448819,
  63.869435 -39.713127 0.34448819,63.859336 -39.711346 0.34448819,
  63.776378 -39.711346 0.34448819,63.776378 -39.347173 0.34448819,
  63.775797 -39.345577 0.34448819,63.776199 -39.343928 0.34448819,
  63.7724 -39.336245 0.34448819,63.76947 -39.328193 0.34448819,
  63.767999 -39.327344 0.34448819,63.767247 -39.325822 0.34448819,
  63.759398 -39.322378 0.34448819,63.751978 -39.318094 0.34448819,
  63.750306 -39.318388 0.34448819,63.748751 -39.317706 0.34448819,
  63.740524 -39.320113 0.34448819,63.732087 -39.321601 0.34448819,
  63.730995 -39.322901 0.34448819,63.729366 -39.323378 0.34448819,
  65.338046 -39.561059 0.34448819,65.338489 -39.560591 0.34448819,
  65.34572 -39.555528 0.34448819,65.364467 -39.536781 0.34448819,
  65.364739 -39.536197 0.34448819,65.369998 -39.529107 0.34448819,
  65.388746 -39.491611 0.34448819,65.388948 -39.489858 0.34448819,
  65.390083 -39.488506 0.34448819,65.391863 -39.478406 0.34448819,
  65.391863 -39.422163 0.34448819,65.391259 -39.420504 0.34448819,
  65.39167 -39.418787 0.34448819,65.388746 -39.408958 0.34448819,
  65.369998 -39.371463 0.34448819,65.36953 -39.37102 0.34448819,
  65.364467 -39.363789 0.34448819,65.34572 -39.345041 0.34448819,
  65.345136 -39.344769 0.34448819,65.338046 -39.33951 0.34448819,
  65.30055 -39.320763 0.34448819,65.298797 -39.320561 0.34448819,
  65.297444 -39.319426 0.34448819,65.287345 -39.317645 0.34448819,
  65.137364 -39.317645 0.34448819,65.130156 -39.320269 0.34448819,
  65.1226 -39.321601 0.34448819,65.120887 -39.323642 0.34448819,
  65.118384 -39.324554 0.34448819,65.114548 -39.331196 0.34448819,
  65.109617 -39.337074 0.34448819,65.108941 -39.340909 0.34448819,
  65.108285 -39.342045 0.34448819,65.108513 -39.343337 0.34448819,
  65.107837 -39.347173 0.34448819,65.107837 -39.3767 0.34448819,
  65.107837 -39.740874 0.34448819,65.114745 -39.759854 0.34448819,
  65.132237 -39.769953 0.34448819,65.152128 -39.766445 0.34448819,
  65.165111 -39.750973 0.34448819,65.166892 -39.740874 0.34448819,
  65.166892 -39.582924 0.34448819,65.215729 -39.582924 0.34448819,
  65.338146 -39.757807 0.34448819,65.35469 -39.769394 0.34448819,
  65.374811 -39.767637 0.34448819,65.389095 -39.753356 0.34448819,
  65.390859 -39.733235 0.34448819,65.386526 -39.723941 0.34448819,
  65.287719 -39.582788 0.34448819,65.289004 -39.58232 0.34448819,
  65.290721 -39.582731 0.34448819,65.30055 -39.579807 0.34448819,
  65.332808 -39.429134 0.34448819,65.332808 -39.471436 0.34448819,
  65.31932 -39.498411 0.34448819,65.30735 -39.510381 0.34448819,
  65.280375 -39.523869 0.34448819,65.166892 -39.523869 0.34448819,
  65.166892 -39.3767 0.34448819,65.280375 -39.3767 0.34448819,
  65.307349 -39.390188 0.34448819,65.319321 -39.402159 0.34448819,
  65.737289 -39.317645 0.34448819,65.49357 -39.317645 0.34448819,
  65.47459 -39.324554 0.34448819,65.464491 -39.342045 0.34448819,
  65.467998 -39.361937 0.34448819,65.48347 -39.37492 0.34448819,
  65.49357 -39.3767 0.34448819,65.672217 -39.3767 0.34448819,
  65.583834 -39.47771 0.34448819,65.580957 -39.485131 0.34448819,
  65.576976 -39.492026 0.34448819,65.577385 -39.494346 0.34448819,
  65.576534 -39.496543 0.34448819,65.579101 -39.504078 0.34448819,
  65.580484 -39.511918 0.34448819,65.582288 -39.513431 0.34448819,
  65.583048 -39.515662 0.34448819,65.589858 -39.519784 0.34448819,
  65.595956 -39.524901 0.34448819,65.59928 -39.525487 0.34448819,
  65.600327 -39.52612 0.34448819,65.601682 -39.52591 0.34448819,
  65.606056 -39.526681 0.34448819,65.655328 -39.526681 0.34448819,
  65.682303 -39.540169 0.34448819,65.694274 -39.55214 0.34448819,
  65.707761 -39.579115 0.34448819,65.707761 -39.658912 0.34448819,
  65.694274 -39.685887 0.34448819,65.682302 -39.697859 0.34448819,
  65.655328 -39.711346 0.34448819,65.556783 -39.711346 0.34448819,
  65.529808 -39.697859 0.34448819,65.514449 -39.682499 0.34448819,
  65.496143 -39.673963 0.34448819,65.476633 -39.67919 0.34448819,
  65.465048 -39.695735 0.34448819,65.466808 -39.715856 0.34448819,
  65.47269 -39.724257 0.34448819,65.491438 -39.743005 0.34448819,
  65.492021 -39.743276 0.34448819,65.499112 -39.748536 0.34448819,
  65.536607 -39.767284 0.34448819,65.538361 -39.767485 0.34448819,
  65.539713 -39.76862 0.34448819,65.549813 -39.770401 0.34448819,
  65.662298 -39.770401 0.34448819,65.663957 -39.769797 0.34448819,
  65.665674 -39.770207 0.34448819,65.675504 -39.767284 0.34448819,
  65.712999 -39.748536 0.34448819,65.713441 -39.748069 0.34448819,
  65.720673 -39.743005 0.34448819,65.73942 -39.724257 0.34448819,
  65.739692 -39.723674 0.34448819,65.744952 -39.716583 0.34448819,
  65.763699 -39.679088 0.34448819,65.763901 -39.677334 0.34448819,
  65.765036 -39.675982 0.34448819,65.766817 -39.665883 0.34448819,
  65.766817 -39.572144 0.34448819,65.766213 -39.570485 0.34448819,
  65.766623 -39.568769 0.34448819,65.763699 -39.558939 0.34448819,
  65.744952 -39.521444 0.34448819,65.744483 -39.521001 0.34448819,
  65.73942 -39.51377 0.34448819,65.720673 -39.495022 0.34448819,
  65.720089 -39.49475 0.34448819,65.712999 -39.489491 0.34448819,
  65.675504 -39.470744 0.34448819,65.67375 -39.470542 0.34448819,
  65.672398 -39.469407 0.34448819,65.669947 -39.468975 0.34448819,
  65.759511 -39.366617 0.34448819,65.762387 -39.359195 0.34448819,
  65.766368 -39.3523 0.34448819,65.765959 -39.34998 0.34448819,
  65.76681 -39.347784 0.34448819,65.764243 -39.340248 0.34448819,
  65.762861 -39.332409 0.34448819,65.761056 -39.330895 0.34448819,
  65.760296 -39.328665 0.34448819,65.753486 -39.324543 0.34448819,
  65.747388 -39.319426 0.34448819,65.744064 -39.31884 0.34448819,
  65.743017 -39.318206 0.34448819,65.741662 -39.318416 0.34448819,
  63.460093 -39.561059 0.34448819,63.460536 -39.560591 0.34448819,
  63.467767 -39.555528 0.34448819,63.486515 -39.536781 0.34448819,
  63.486787 -39.536197 0.34448819,63.492046 -39.529107 0.34448819,
  63.510793 -39.491611 0.34448819,63.510995 -39.489858 0.34448819,
  63.51213 -39.488506 0.34448819,63.513911 -39.478406 0.34448819,
  63.513911 -39.422163 0.34448819,63.513307 -39.420504 0.34448819,
  63.513717 -39.418787 0.34448819,63.510793 -39.408958 0.34448819,
  63.492046 -39.371463 0.34448819,63.491577 -39.37102 0.34448819,
  63.486515 -39.363789 0.34448819,63.467767 -39.345041 0.34448819,
  63.467183 -39.344769 0.34448819,63.460093 -39.33951 0.34448819,
  63.422598 -39.320763 0.34448819,63.420844 -39.320561 0.34448819,
  63.419492 -39.319426 0.34448819,63.409393 -39.317645 0.34448819,
  63.259411 -39.317645 0.34448819,63.252203 -39.320269 0.34448819,
  63.244648 -39.321601 0.34448819,63.242935 -39.323642 0.34448819,
  63.240431 -39.324554 0.34448819,63.236596 -39.331196 0.34448819,
  63.231665 -39.337074 0.34448819,63.230988 -39.340909 0.34448819,
  63.230332 -39.342045 0.34448819,63.23056 -39.343337 0.34448819,
  63.229884 -39.347173 0.34448819,63.229884 -39.3767 0.34448819,
  63.229884 -39.740874 0.34448819,63.236792 -39.759854 0.34448819,
  63.254284 -39.769953 0.34448819,63.274175 -39.766445 0.34448819,
  63.287158 -39.750973 0.34448819,63.288939 -39.740874 0.34448819,
  63.288939 -39.582924 0.34448819,63.337776 -39.582924 0.34448819,
  63.460193 -39.757807 0.34448819,63.476737 -39.769394 0.34448819,
  63.496858 -39.767637 0.34448819,63.511143 -39.753356 0.34448819,
  63.512906 -39.733235 0.34448819,63.508573 -39.723941 0.34448819,
  63.409766 -39.582788 0.34448819,63.411051 -39.58232 0.34448819,
  63.412768 -39.582731 0.34448819,63.422598 -39.579807 0.34448819,
  63.454856 -39.429134 0.34448819,63.454856 -39.471436 0.34448819,
  63.441368 -39.49841 0.34448819,63.429397 -39.510381 0.34448819,
  63.402422 -39.523869 0.34448819,63.288939 -39.523869 0.34448819,
  63.288939 -39.3767 0.34448819,63.402422 -39.3767 0.34448819,
  63.429397 -39.390188 0.34448819,63.441368 -39.402159 0.34448819,
  63.467767 -38.221119 0.34448819,63.430272 -38.183624 0.34448819,
  63.428672 -38.182878 0.34448819,63.427748 -38.181374 0.34448819,
  63.41873 -38.176491 0.34448819,63.362487 -38.157743 0.34448819,
  63.361843 -38.157761 0.34448819,63.35315 -38.156228 0.34448819,
  63.259411 -38.156228 0.34448819,63.252203 -38.158851 0.34448819,
  63.244648 -38.160184 0.34448819,63.242935 -38.162225 0.34448819,
  63.240431 -38.163136 0.34448819,63.236596 -38.169779 0.34448819,
  63.231665 -38.175656 0.34448819,63.230988 -38.179492 0.34448819,
  63.230332 -38.180628 0.34448819,63.23056 -38.18192 0.34448819,
  63.229884 -38.185756 0.34448819,63.229884 -38.215283 0.34448819,
  63.229884 -38.579456 0.34448819,63.232507 -38.586664 0.34448819,
  63.23384 -38.59422 0.34448819,63.235881 -38.595933 0.34448819,
  63.236792 -38.598436 0.34448819,63.243435 -38.602272 0.34448819,
  63.249312 -38.607203 0.34448819,63.253148 -38.607879 0.34448819,
  63.254284 -38.608535 0.34448819,63.255576 -38.608307 0.34448819,
  63.259411 -38.608984 0.34448819,63.35315 -38.608984 0.34448819,
  63.353755 -38.608763 0.34448819,63.362487 -38.607469 0.34448819,
  63.41873 -38.588721 0.34448819,63.420113 -38.587623 0.34448819,
  63.421871 -38.58747 0.34448819,63.430272 -38.581588 0.34448819,
  63.467767 -38.544092 0.34448819,63.468039 -38.543508 0.34448819,
  63.473298 -38.536418 0.34448819,63.492046 -38.498923 0.34448819,
  63.492206 -38.497533 0.34448819,63.494281 -38.492879 0.34448819,
  63.513029 -38.417889 0.34448819,63.512887 -38.416531 0.34448819,
  63.513911 -38.410727 0.34448819,63.513911 -38.354484 0.34448819,
  63.513444 -38.353202 0.34448819,63.513029 -38.347323 0.34448819,
  63.494281 -38.272332 0.34448819,63.493498 -38.271173 0.34448819,
  63.492046 -38.266289 0.34448819,63.473298 -38.228793 0.34448819,
  63.472831 -38.228351 0.34448819,63.454856 -38.35812 0.34448819,
  63.454856 -38.407092 0.34448819,63.437775 -38.475412 0.34448819,
  63.42262 -38.505722 0.34448819,63.393442 -38.5349 0.34448819,
  63.348358 -38.549929 0.34448819,63.288939 -38.549929 0.34448819,
  63.288939 -38.215283 0.34448819,63.348358 -38.215283 0.34448819,
  63.393442 -38.230311 0.34448819,63.42262 -38.259489 0.34448819,
  63.437775 -38.289799 0.34448819,63.722282 -38.169376 0.34448819,
  63.686407 -38.223187 0.34448819,63.654369 -38.255226 0.34448819,
  63.621159 -38.271831 0.34448819,63.607273 -38.286498 0.34448819,
  63.606062 -38.30666 0.34448819,63.618095 -38.322882 0.34448819,
  63.63774 -38.327575 0.34448819,63.64757 -38.324652 0.34448819,
  63.685065 -38.305904 0.34448819,63.685508 -38.305435 0.34448819,
  63.692739 -38.300373 0.34448819,63.717323 -38.275789 0.34448819,
  63.717323 -38.549929 0.34448819,63.634365 -38.549929 0.34448819,
  63.615385 -38.556837 0.34448819,63.605285 -38.574329 0.34448819,
  63.608793 -38.59422 0.34448819,63.624265 -38.607203 0.34448819,
  63.634365 -38.608984 0.34448819,63.859336 -38.608984 0.34448819,
  63.878316 -38.602076 0.34448819,63.888415 -38.584584 0.34448819,
  63.884908 -38.564693 0.34448819,63.869435 -38.551709 0.34448819,
  63.859336 -38.549929 0.34448819,63.776378 -38.549929 0.34448819,
  63.776378 -38.185756 0.34448819,63.775797 -38.184159 0.34448819,
  63.776199 -38.18251 0.34448819,63.7724 -38.174828 0.34448819,
  63.76947 -38.166776 0.34448819,63.767999 -38.165927 0.34448819,
  63.767247 -38.164404 0.34448819,63.759398 -38.160961 0.34448819,
  63.751978 -38.156676 0.34448819,63.750306 -38.156971 0.34448819,
  63.748751 -38.156289 0.34448819,63.740524 -38.158696 0.34448819,
  63.732087 -38.160184 0.34448819,63.730995 -38.161484 0.34448819,
  63.729366 -38.161961 0.34448819,65.712999 -38.178093 0.34448819,
  65.675504 -38.159345 0.34448819,65.67375 -38.159143 0.34448819,
  65.672398 -38.158009 0.34448819,65.662298 -38.156228 0.34448819,
  65.56856 -38.156228 0.34448819,65.566901 -38.156831 0.34448819,
  65.565184 -38.156422 0.34448819,65.555355 -38.159345 0.34448819,
  65.51786 -38.178093 0.34448819,65.517417 -38.178561 0.34448819,
  65.510186 -38.183624 0.34448819,65.491438 -38.202372 0.34448819,
  65.482902 -38.220678 0.34448819,65.48813 -38.240187 0.34448819,
  65.504675 -38.251772 0.34448819,65.524796 -38.250012 0.34448819,
  65.533196 -38.24413 0.34448819,65.548556 -38.22877 0.34448819,
  65.575531 -38.215283 0.34448819,65.655328 -38.215283 0.34448819,
  65.682303 -38.22877 0.34448819,65.694274 -38.240742 0.34448819,
  65.707761 -38.267717 0.34448819,65.707761 -38.29345 0.34448819,
  65.692733 -38.338534 0.34448819,65.472691 -38.558577 0.34448819,
  65.468935 -38.56663 0.34448819,65.464491 -38.574329 0.34448819,
  65.464725 -38.575659 0.34448819,65.464155 -38.576883 0.34448819,
  65.466454 -38.585467 0.34448819,65.467998 -38.59422 0.34448819,
  65.469032 -38.595088 0.34448819,65.469382 -38.596393 0.34448819,
  65.476662 -38.60149 0.34448819,65.48347 -38.607203 0.34448819,
  65.485275 -38.607521 0.34448819,65.485928 -38.607978 0.34448819,
  65.487222 -38.607865 0.34448819,65.49357 -38.608984 0.34448819,
  65.737289 -38.608984 0.34448819,65.756269 -38.602076 0.34448819,
  65.766368 -38.584584 0.34448819,65.762861 -38.564693 0.34448819,
  65.747388 -38.551709 0.34448819,65.737289 -38.549929 0.34448819,
  65.564856 -38.549929 0.34448819,65.73942 -38.375363 0.34448819,
  65.740167 -38.373763 0.34448819,65.74167 -38.372839 0.34448819,
  65.746554 -38.363822 0.34448819,65.765301 -38.307579 0.34448819,
  65.765283 -38.306935 0.34448819,65.766817 -38.298241 0.34448819,
  65.766817 -38.260746 0.34448819,65.766213 -38.259087 0.34448819,
  65.766623 -38.25737 0.34448819,65.763699 -38.247541 0.34448819,
  65.744952 -38.210046 0.34448819,65.744483 -38.209602 0.34448819,
  65.73942 -38.202372 0.34448819,65.720673 -38.183624 0.34448819,
  65.720089 -38.183352 0.34448819,65.338046 -38.399642 0.34448819,
  65.338489 -38.399174 0.34448819,65.34572 -38.394111 0.34448819,
  65.364467 -38.375363 0.34448819,65.364739 -38.37478 0.34448819,
  65.369998 -38.367689 0.34448819,65.388746 -38.330194 0.34448819,
  65.388948 -38.328441 0.34448819,65.390083 -38.327088 0.34448819,
  65.391863 -38.316989 0.34448819,65.391863 -38.260746 0.34448819,
  65.391259 -38.259087 0.34448819,65.39167 -38.25737 0.34448819,
  65.388746 -38.247541 0.34448819,65.369998 -38.210046 0.34448819,
  65.36953 -38.209602 0.34448819,65.364467 -38.202372 0.34448819,
  65.34572 -38.183624 0.34448819,65.345136 -38.183352 0.34448819,
  65.338046 -38.178093 0.34448819,65.30055 -38.159345 0.34448819,
  65.298797 -38.159143 0.34448819,65.297444 -38.158009 0.34448819,
  65.287345 -38.156228 0.34448819,65.137364 -38.156228 0.34448819,
  65.130156 -38.158851 0.34448819,65.1226 -38.160184 0.34448819,
  65.120887 -38.162225 0.34448819,65.118384 -38.163136 0.34448819,
  65.114548 -38.169779 0.34448819,65.109617 -38.175656 0.34448819,
  65.108941 -38.179492 0.34448819,65.108285 -38.180628 0.34448819,
  65.108513 -38.18192 0.34448819,65.107837 -38.185756 0.34448819,
  65.107837 -38.215283 0.34448819,65.107837 -38.579456 0.34448819,
  65.114745 -38.598436 0.34448819,65.132237 -38.608535 0.34448819,
  65.152128 -38.605028 0.34448819,65.165111 -38.589556 0.34448819,
  65.166892 -38.579456 0.34448819,65.166892 -38.421507 0.34448819,
  65.215729 -38.421507 0.34448819,65.338146 -38.596389 0.34448819,
  65.35469 -38.607977 0.34448819,65.374811 -38.606219 0.34448819,
  65.389095 -38.591939 0.34448819,65.390859 -38.571818 0.34448819,
  65.386526 -38.562524 0.34448819,65.287719 -38.421371 0.34448819,
  65.289004 -38.420903 0.34448819,65.290721 -38.421313 0.34448819,
  65.30055 -38.41839 0.34448819,65.332808 -38.267717 0.34448819,
  65.332808 -38.310018 0.34448819,65.31932 -38.336993 0.34448819,
  65.30735 -38.348964 0.34448819,65.280375 -38.362452 0.34448819,
  65.166892 -38.362452 0.34448819,65.166892 -38.215283 0.34448819,
  65.280375 -38.215283 0.34448819,65.30735 -38.22877 0.34448819,
  65.319321 -38.240742 0.34448819] }
 coordIndex [
  30,31,26,-1,30,26,28,-1,30,28,29,-1,50,53,49,-1,49,53,55,-1,49,55,48,-1,48,55,56,-1,48,56,47,-1,
  47,56,57,-1,47,57,46,-1,46,57,58,-1,46,58,45,-1,45,58,59,-1,45,59,44,-1,44,59,60,-1,44,60,43,-1,
  43,60,61,-1,43,61,42,-1,42,61,96,-1,42,96,97,-1,61,62,104,-1,61,104,105,-1,61,105,96,-1,104,62,63,-1,
  104,63,64,-1,104,64,65,-1,104,65,103,-1,102,103,65,-1,102,65,66,-1,102,66,81,-1,102,81,82,-1,102,82,83,-1,
  102,83,84,-1,102,84,101,-1,80,81,66,-1,80,66,67,-1,80,67,68,-1,80,68,69,-1,80,69,70,-1,80,70,79,-1,
  79,70,71,-1,79,71,72,-1,79,72,73,-1,79,73,75,-1,79,75,76,-1,79,76,77,-1,79,77,78,-1,53,50,51,-1,
  53,51,52,-1,94,95,99,-1,99,95,42,-1,99,42,98,-1,98,42,97,-1,101,85,100,-1,100,85,92,-1,100,92,99,-1,
  99,92,93,-1,99,93,94,-1,91,92,86,-1,91,86,87,-1,91,87,88,-1,91,88,89,-1,91,89,90,-1,21,22,23,-1,
  21,23,24,-1,21,24,25,-1,21,25,20,-1,26,31,32,-1,26,32,33,-1,26,33,34,-1,26,34,35,-1,26,35,36,-1,
  26,36,37,-1,26,37,38,-1,26,38,39,-1,26,39,40,-1,26,40,41,-1,26,41,0,-1,26,0,12,-1,26,12,13,-1,
  26,13,20,-1,26,20,25,-1,14,15,18,-1,14,18,19,-1,14,19,20,-1,14,20,13,-1,15,16,17,-1,15,17,18,-1,
  9,10,1,-1,1,10,11,-1,1,11,0,-1,0,11,12,-1,2,3,7,-1,2,7,8,-1,2,8,9,-1,2,9,1,-1,
  6,7,3,-1,6,3,4,-1,6,4,5,-1,184,185,183,-1,183,185,186,-1,183,186,181,-1,181,186,187,-1,181,187,188,-1,
  180,181,188,-1,180,188,189,-1,180,189,190,-1,180,190,191,-1,180,191,192,-1,180,192,193,-1,180,193,106,-1,180,106,113,-1,
  180,113,179,-1,113,114,123,-1,113,123,124,-1,113,124,125,-1,113,125,126,-1,113,126,127,-1,113,127,128,-1,113,128,129,-1,
  113,129,179,-1,119,120,115,-1,115,120,121,-1,115,121,114,-1,114,121,122,-1,114,122,123,-1,117,118,119,-1,117,119,115,-1,
  117,115,116,-1,107,108,111,-1,107,111,112,-1,107,112,113,-1,107,113,106,-1,108,109,110,-1,108,110,111,-1,158,159,172,-1,
  172,159,160,-1,172,160,171,-1,171,160,161,-1,171,161,170,-1,170,161,162,-1,170,162,169,-1,169,162,163,-1,169,163,167,-1,
  167,163,164,-1,167,164,165,-1,172,173,158,-1,158,173,174,-1,158,174,157,-1,157,174,175,-1,157,175,156,-1,156,175,132,-1,
  156,132,133,-1,175,176,130,-1,175,130,131,-1,175,131,132,-1,130,176,177,-1,130,177,178,-1,130,178,179,-1,130,179,129,-1,
  154,155,135,-1,135,155,156,-1,135,156,134,-1,134,156,133,-1,135,136,152,-1,135,152,153,-1,135,153,154,-1,137,138,148,-1,
  137,148,149,-1,137,149,150,-1,137,150,151,-1,137,151,152,-1,137,152,136,-1,145,146,140,-1,140,146,147,-1,140,147,139,-1,
  139,147,148,-1,139,148,138,-1,141,142,143,-1,141,143,144,-1,141,144,145,-1,141,145,140,-1,202,205,201,-1,201,205,207,-1,
  201,207,200,-1,200,207,208,-1,200,208,199,-1,199,208,209,-1,199,209,198,-1,198,209,210,-1,198,210,197,-1,197,210,211,-1,
  197,211,196,-1,196,211,212,-1,196,212,195,-1,195,212,213,-1,195,213,194,-1,194,213,248,-1,194,248,249,-1,213,214,256,-1,
  213,256,257,-1,213,257,248,-1,256,214,215,-1,256,215,216,-1,256,216,217,-1,256,217,255,-1,254,255,217,-1,254,217,218,-1,
  254,218,233,-1,254,233,234,-1,254,234,235,-1,254,235,236,-1,254,236,253,-1,232,233,218,-1,232,218,219,-1,232,219,220,-1,
  232,220,221,-1,232,221,222,-1,232,222,231,-1,231,222,223,-1,231,223,224,-1,231,224,225,-1,231,225,227,-1,231,227,228,-1,
  231,228,229,-1,231,229,230,-1,205,202,203,-1,205,203,204,-1,246,247,251,-1,251,247,194,-1,251,194,250,-1,250,194,249,-1,
  253,237,252,-1,252,237,244,-1,252,244,251,-1,251,244,245,-1,251,245,246,-1,243,244,238,-1,243,238,239,-1,243,239,240,-1,
  243,240,241,-1,243,241,242,-1,301,302,308,-1,308,302,303,-1,308,303,307,-1,307,303,304,-1,307,304,306,-1,306,304,305,-1,
  296,297,312,-1,312,297,298,-1,312,298,311,-1,311,298,299,-1,311,299,310,-1,310,299,300,-1,310,300,309,-1,309,300,301,-1,
  309,301,308,-1,296,312,258,-1,296,258,313,-1,296,313,314,-1,296,314,315,-1,296,315,295,-1,316,317,292,-1,316,292,293,-1,
  316,293,294,-1,316,294,295,-1,316,295,315,-1,317,318,289,-1,317,289,290,-1,317,290,291,-1,317,291,292,-1,286,287,266,-1,
  266,287,288,-1,266,288,319,-1,319,288,289,-1,319,289,318,-1,286,266,285,-1,285,266,267,-1,285,267,284,-1,284,267,268,-1,
  284,268,283,-1,283,268,269,-1,283,269,270,-1,280,281,271,-1,271,281,282,-1,271,282,270,-1,270,282,283,-1,279,280,271,-1,
  279,271,272,-1,279,272,273,-1,279,273,275,-1,279,275,276,-1,279,276,277,-1,279,277,278,-1,324,313,258,-1,324,258,259,-1,
  324,259,260,-1,324,260,261,-1,324,261,323,-1,262,263,322,-1,262,322,323,-1,262,323,261,-1,320,321,265,-1,265,321,322,-1,
  265,322,264,-1,264,322,263,-1,320,265,266,-1,320,266,319,-1,355,356,351,-1,355,351,353,-1,355,353,354,-1,346,347,348,-1,
  346,348,349,-1,346,349,350,-1,346,350,345,-1,351,356,357,-1,351,357,358,-1,351,358,359,-1,351,359,360,-1,351,360,361,-1,
  351,361,362,-1,351,362,363,-1,351,363,364,-1,351,364,365,-1,351,365,366,-1,351,366,325,-1,351,325,337,-1,351,337,338,-1,
  351,338,345,-1,351,345,350,-1,339,340,343,-1,339,343,344,-1,339,344,345,-1,339,345,338,-1,340,341,342,-1,340,342,343,-1,
  334,335,326,-1,326,335,336,-1,326,336,325,-1,325,336,337,-1,327,328,332,-1,327,332,333,-1,327,333,334,-1,327,334,326,-1,
  331,332,328,-1,331,328,329,-1,331,329,330,-1,426,418,425,-1,425,418,420,-1,425,420,423,-1,423,420,421,-1,423,421,422,-1,
  427,428,416,-1,427,416,417,-1,427,417,418,-1,427,418,426,-1,415,416,428,-1,415,428,429,-1,415,429,430,-1,415,430,367,-1,
  415,367,390,-1,415,390,391,-1,415,391,392,-1,415,392,414,-1,411,412,409,-1,409,412,413,-1,409,413,408,-1,408,413,414,-1,
  408,414,407,-1,407,414,392,-1,407,392,406,-1,406,392,405,-1,392,393,402,-1,392,402,403,-1,392,403,404,-1,392,404,405,-1,
  398,399,394,-1,394,399,400,-1,394,400,393,-1,393,400,401,-1,393,401,402,-1,396,397,398,-1,396,398,394,-1,396,394,395,-1,
  367,368,388,-1,367,388,389,-1,367,389,390,-1,388,368,369,-1,388,369,370,-1,388,370,371,-1,388,371,387,-1,386,387,371,-1,
  386,371,372,-1,386,372,373,-1,386,373,374,-1,386,374,375,-1,386,375,385,-1,375,376,383,-1,375,383,384,-1,375,384,385,-1,
  380,381,379,-1,379,381,382,-1,379,382,378,-1,378,382,383,-1,378,383,377,-1,377,383,376,-1,439,442,438,-1,438,442,444,-1,
  438,444,437,-1,437,444,445,-1,437,445,436,-1,436,445,446,-1,436,446,435,-1,435,446,447,-1,435,447,434,-1,434,447,448,-1,
  434,448,433,-1,433,448,449,-1,433,449,432,-1,432,449,450,-1,432,450,431,-1,431,450,485,-1,431,485,486,-1,450,451,493,-1,
  450,493,494,-1,450,494,485,-1,493,451,452,-1,493,452,453,-1,493,453,454,-1,493,454,492,-1,491,492,454,-1,491,454,455,-1,
  491,455,470,-1,491,470,471,-1,491,471,472,-1,491,472,473,-1,491,473,490,-1,469,470,455,-1,469,455,456,-1,469,456,457,-1,
  469,457,458,-1,469,458,459,-1,469,459,468,-1,468,459,460,-1,468,460,461,-1,468,461,462,-1,468,462,464,-1,468,464,465,-1,
  468,465,466,-1,468,466,467,-1,442,439,440,-1,442,440,441,-1,483,484,488,-1,488,484,431,-1,488,431,487,-1,487,431,486,-1,
  490,474,489,-1,489,474,481,-1,489,481,488,-1,488,481,482,-1,488,482,483,-1,480,481,475,-1,480,475,476,-1,480,476,477,-1,
  480,477,478,-1,480,478,479,-1,462,463,464,-1,474,490,473,-1,481,474,475,-1,444,442,443,-1,411,409,410,-1,420,418,419,-1,
  425,423,424,-1,352,353,351,-1,273,274,275,-1,225,226,227,-1,237,253,236,-1,244,237,238,-1,207,205,206,-1,167,165,166,-1,
  169,167,168,-1,183,181,182,-1,73,74,75,-1,85,101,84,-1,92,85,86,-1,55,53,54,-1,27,28,26,-1]
  normalPerVertex TRUE
  normal DEF NORM_33 Normal { vector [
  0 0 1,0 0 1,
  0 0 1,0 0 1,
  0 0 1,0 0 1,
  0 0 1,0 0 1,
  0 0 1,0 0 1,
  0 0 1,0 0 1,
  0 0 1,0 0 1,
  0 0 1,0 0 1,
  0 0 1,0 0 1,
  0 0 1,0 0 1,
  0 0 1,0 0 1,
  0 0 1,0 0 1,
  0 0 1,0 0 1,
  0 0 1,0 0 1,
  0 0 1,0 0 1,
  0 0 1,0 0 1,
  0 0 1,0 0 1,
  0 0 1,0 0 1,
  0 0 1,0 0 1,
  0 0 1,0 0 1,
  0 0 1,0 0 1,
  0 0 1,0 0 1,
  0 0 1,0 0 1,
  0 0 1,0 0 1,
  0 0 1,0 0 1,
  0 0 1,0 0 1,
  0 0 1,0 0 1,
  0 0 1,0 0 1,
  0 0 1,0 0 1,
  0 0 1,0 0 1,
  0 0 1,0 0 1,
  0 0 1,0 0 1,
  0 0 1,0 0 1,
  0 0 1,0 0 1,
  0 0 1,0 0 1,
  0 0 1,0 0 1,
  0 0 1,0 0 1,
  0 0 1,0 0 1,
  0 0 1,0 0 1,
  0 0 1,0 0 1,
  0 0 1,0 0 1,
  0 0 1,0 0 1,
  0 0 1,0 0 1,
  0 0 1,0 0 1,
  0 0 1,0 0 1,
  0 0 1,0 0 1,
  0 0 1,0 0 1,
  0 0 1,0 0 1,
  0 0 1,0 0 1,
  0 0 1,0 0 1,
  0 0 1,0 0 1,
  0 0 1,0 0 1,
  0 0 1,0 0 1,
  0 0 1,0 0 1,
  0 0 1,0 0 1,
  0 0 1,0 0 1,
  0 0 1,0 0 1,
  0 0 1,0 0 1,
  0 0 1,0 0 1,
  0 0 1,0 0 1,
  0 0 1,0 0 1,
  0 0 1,0 0 1,
  0 0 1,0 0 1,
  0 0 1,0 0 1,
  0 0 1,0 0 1,
  0 0 1,0 0 1,
  0 0 1,0 0 1,
  0 0 1,0 0 1,
  0 0 1,0 0 1,
  0 0 1,0 0 1,
  0 0 1,0 0 1,
  0 0 1,0 0 1,
  0 0 1,0 0 1,
  0 0 1,0 0 1,
  0 0 1,0 0 1,
  0 0 1,0 0 1,
  0 0 1,0 0 1,
  0 0 1,0 0 1,
  0 0 1,0 0 1,
  0 0 1,0 0 1,
  0 0 1,0 0 1,
  0 0 1,0 0 1,
  0 0 1,0 0 1,
  0 0 1,0 0 1,
  0 0 1,0 0 1,
  0 0 1,0 0 1,
  0 0 1,0 0 1,
  0 0 1,0 0 1,
  0 0 1,0 0 1,
  0 0 1,0 0 1,
  0 0 1,0 0 1,
  0 0 1,0 0 1,
  0 0 1,0 0 1,
  0 0 1,0 0 1,
  0 0 1,0 0 1,
  0 0 1,0 0 1,
  0 0 1,0 0 1,
  0 0 1,0 0 1,
  0 0 1,0 0 1,
  0 0 1,0 0 1,
  0 0 1,0 0 1,
  0 0 1,0 0 1,
  0 0 1,0 0 1,
  0 0 1,0 0 1,
  0 0 1,0 0 1,
  0 0 1,0 0 1,
  0 0 1,0 0 1,
  0 0 1,0 0 1,
  0 0 1,0 0 1,
  0 0 1,0 0 1,
  0 0 1,0 0 1,
  0 0 1,0 0 1,
  0 0 1,0 0 1,
  0 0 1,0 0 1,
  0 0 1,0 0 1,
  0 0 1,0 0 1,
  0 0 1,0 0 1,
  0 0 1,0 0 1,
  0 0 1,0 0 1,
  0 0 1,0 0 1,
  0 0 1,0 0 1,
  0 0 1,0 0 1,
  0 0 1,0 0 1,
  0 0 1,0 0 1,
  0 0 1,0 0 1,
  0 0 1,0 0 1,
  0 0 1,0 0 1,
  0 0 1,0 0 1,
  0 0 1,0 0 1,
  0 0 1,0 0 1,
  0 0 1,0 0 1,
  0 0 1,0 0 1,
  0 0 1,0 0 1,
  0 0 1,0 0 1,
  0 0 1,0 0 1,
  0 0 1,0 0 1,
  0 0 1,0 0 1,
  0 0 1,0 0 1,
  0 0 1,0 0 1,
  0 0 1,0 0 1,
  0 0 1,0 0 1,
  0 0 1,0 0 1,
  0 0 1,0 0 1,
  0 0 1,0 0 1,
  0 0 1,0 0 1,
  0 0 1,0 0 1,
  0 0 1,0 0 1,
  0 0 1,0 0 1,
  0 0 1,0 0 1,
  0 0 1,0 0 1,
  0 0 1,0 0 1,
  0 0 1,0 0 1,
  0 0 1,0 0 1,
  0 0 1,0 0 1,
  0 0 1,0 0 1,
  0 0 1,0 0 1,
  0 0 1,0 0 1,
  0 0 1,0 0 1,
  0 0 1,0 0 1,
  0 0 1,0 0 1,
  0 0 1,0 0 1,
  0 0 1,0 0 1,
  0 0 1,0 0 1,
  0 0 1,0 0 1,
  0 0 1,0 0 1,
  0 0 1,0 0 1,
  0 0 1,0 0 1,
  0 0 1,0 0 1,
  0 0 1,0 0 1,
  0 0 1,0 0 1,
  0 0 1,0 0 1,
  0 0 1,0 0 1,
  0 0 1,0 0 1,
  0 0 1,0 0 1,
  0 0 1,0 0 1,
  0 0 1,0 0 1,
  0 0 1,0 0 1,
  0 0 1,0 0 1,
  0 0 1,0 0 1,
  0 0 1,0 0 1,
  0 0 1,0 0 1,
  0 0 1,0 0 1,
  0 0 1,0 0 1,
  0 0 1,0 0 1,
  0 0 1,0 0 1,
  0 0 1,0 0 1,
  0 0 1,0 0 1,
  0 0 1,0 0 1,
  0 0 1,0 0 1,
  0 0 1,0 0 1,
  0 0 1,0 0 1,
  0 0 1,0 0 1,
  0 0 1,0 0 1,
  0 0 1,0 0 1,
  0 0 1,0 0 1,
  0 0 1,0 0 1,
  0 0 1,0 0 1,
  0 0 1,0 0 1,
  0 0 1,0 0 1,
  0 0 1,0 0 1,
  0 0 1,0 0 1,
  0 0 1,0 0 1,
  0 0 1,0 0 1,
  0 0 1,0 0 1,
  0 0 1,0 0 1,
  0 0 1,0 0 1,
  0 0 1,0 0 1,
  0 0 1,0 0 1,
  0 0 1,0 0 1,
  0 0 1,0 0 1,
  0 0 1,0 0 1,
  0 0 1,0 0 1,
  0 0 1,0 0 1,
  0 0 1,0 0 1,
  0 0 1,0 0 1,
  0 0 1,0 0 1,
  0 0 1,0 0 1,
  0 0 1,0 0 1,
  0 0 1,0 0 1,
  0 0 1,0 0 1,
  0 0 1,0 0 1,
  0 0 1,0 0 1,
  0 0 1,0 0 1,
  0 0 1,0 0 1,
  0 0 1,0 0 1,
  0 0 1,0 0 1,
  0 0 1,0 0 1,
  0 0 1,0 0 1,
  0 0 1,0 0 1,
  0 0 1,0 0 1,
  0 0 1,0 0 1,
  0 0 1,0 0 1,
  0 0 1,0 0 1,
  0 0 1,0 0 1,
  0 0 1,0 0 1,
  0 0 1,0 0 1,
  0 0 1,0 0 1,
  0 0 1,0 0 1,
  0 0 1,0 0 1,
  0 0 1,0 0 1,
  0 0 1,0 0 1,
  0 0 1,0 0 1,
  0 0 1,0 0 1,
  0 0 1,0 0 1,
  0 0 1,0 0 1,
  0 0 1,0 0 1,
  0 0 1,0 0 1,
  0 0 1] }
}
}
] }
] }
