%TF.GenerationSoftware,KiCad,Pcbnew,7.0.6-7.0.6~ubuntu22.04.1*%
%TF.CreationDate,2023-08-07T00:38:43+01:00*%
%TF.ProjectId,working,776f726b-696e-4672-9e6b-696361645f70,rev?*%
%TF.SameCoordinates,Original*%
%TF.FileFunction,Other,User*%
%FSLAX46Y46*%
G04 Gerber Fmt 4.6, Leading zero omitted, Abs format (unit mm)*
G04 Created by KiCad (PCBNEW 7.0.6-7.0.6~ubuntu22.04.1) date 2023-08-07 00:38:43*
%MOMM*%
%LPD*%
G01*
G04 APERTURE LIST*
%ADD10C,0.050800*%
%ADD11C,0.127000*%
G04 APERTURE END LIST*
D10*
%TO.C,C18*%
X142880100Y-112420600D02*
X142880100Y-115366600D01*
X140914100Y-112420600D02*
X142880100Y-112420600D01*
X142880100Y-115366600D02*
X140914100Y-115366600D01*
X140914100Y-115366600D02*
X140914100Y-112420600D01*
%TO.C,C35*%
X234320100Y-71272600D02*
X234320100Y-74218600D01*
X232354100Y-71272600D02*
X234320100Y-71272600D01*
X234320100Y-74218600D02*
X232354100Y-74218600D01*
X232354100Y-74218600D02*
X232354100Y-71272600D01*
D11*
%TO.C,STANDOFF17*%
X203365100Y-128371600D02*
G75*
G03*
X203365100Y-128371600I-2794000J0D01*
G01*
D10*
%TO.C,C10*%
X216032100Y-153568600D02*
X216032100Y-156514600D01*
X214066100Y-153568600D02*
X216032100Y-153568600D01*
X216032100Y-156514600D02*
X214066100Y-156514600D01*
X214066100Y-156514600D02*
X214066100Y-153568600D01*
%TO.C,R29*%
X124592100Y-56032600D02*
X124592100Y-58978600D01*
X122626100Y-56032600D02*
X124592100Y-56032600D01*
X124592100Y-58978600D02*
X122626100Y-58978600D01*
X122626100Y-58978600D02*
X122626100Y-56032600D01*
%TO.C,R23*%
X234320100Y-97180600D02*
X234320100Y-100126600D01*
X232354100Y-97180600D02*
X234320100Y-97180600D01*
X234320100Y-100126600D02*
X232354100Y-100126600D01*
X232354100Y-100126600D02*
X232354100Y-97180600D01*
D11*
%TO.C,STANDOFF50*%
X57061100Y-81635600D02*
G75*
G03*
X57061100Y-81635600I-2794000J0D01*
G01*
%TO.C,STANDOFF66*%
X203365100Y-81635600D02*
G75*
G03*
X203365100Y-81635600I-2794000J0D01*
G01*
%TO.C,STANDOFF10*%
X130213100Y-163931600D02*
G75*
G03*
X130213100Y-163931600I-2794000J0D01*
G01*
%TO.C,STANDOFF14*%
X166789100Y-163931600D02*
G75*
G03*
X166789100Y-163931600I-2794000J0D01*
G01*
D10*
%TO.C,C34*%
X216032100Y-71272600D02*
X216032100Y-74218600D01*
X214066100Y-71272600D02*
X216032100Y-71272600D01*
X216032100Y-74218600D02*
X214066100Y-74218600D01*
X214066100Y-74218600D02*
X214066100Y-71272600D01*
D11*
%TO.C,STANDOFF42*%
X203365100Y-122783600D02*
G75*
G03*
X203365100Y-122783600I-2794000J0D01*
G01*
%TO.C,STANDOFF16*%
X185077100Y-163931600D02*
G75*
G03*
X185077100Y-163931600I-2794000J0D01*
G01*
D10*
%TO.C,R6*%
X142880100Y-138328600D02*
X142880100Y-141274600D01*
X140914100Y-138328600D02*
X142880100Y-138328600D01*
X142880100Y-141274600D02*
X140914100Y-141274600D01*
X140914100Y-141274600D02*
X140914100Y-138328600D01*
%TO.C,R9*%
X197744100Y-138328600D02*
X197744100Y-141274600D01*
X195778100Y-138328600D02*
X197744100Y-138328600D01*
X197744100Y-141274600D02*
X195778100Y-141274600D01*
X195778100Y-141274600D02*
X195778100Y-138328600D01*
%TO.C,C30*%
X142880100Y-71272600D02*
X142880100Y-74218600D01*
X140914100Y-71272600D02*
X142880100Y-71272600D01*
X142880100Y-74218600D02*
X140914100Y-74218600D01*
X140914100Y-74218600D02*
X140914100Y-71272600D01*
D11*
%TO.C,STANDOFF69*%
X239941100Y-46075600D02*
G75*
G03*
X239941100Y-46075600I-2794000J0D01*
G01*
D10*
%TO.C,C4*%
X106304100Y-153568600D02*
X106304100Y-156514600D01*
X104338100Y-153568600D02*
X106304100Y-153568600D01*
X106304100Y-156514600D02*
X104338100Y-156514600D01*
X104338100Y-156514600D02*
X104338100Y-153568600D01*
D11*
%TO.C,STANDOFF25*%
X57061100Y-87223600D02*
G75*
G03*
X57061100Y-87223600I-2794000J0D01*
G01*
D10*
%TO.C,R19*%
X161168100Y-97180600D02*
X161168100Y-100126600D01*
X159202100Y-97180600D02*
X161168100Y-97180600D01*
X161168100Y-100126600D02*
X159202100Y-100126600D01*
X159202100Y-100126600D02*
X159202100Y-97180600D01*
%TO.C,C14*%
X69728100Y-112420600D02*
X69728100Y-115366600D01*
X67762100Y-112420600D02*
X69728100Y-112420600D01*
X69728100Y-115366600D02*
X67762100Y-115366600D01*
X67762100Y-115366600D02*
X67762100Y-112420600D01*
D11*
%TO.C,STANDOFF51*%
X75349100Y-46075600D02*
G75*
G03*
X75349100Y-46075600I-2794000J0D01*
G01*
D10*
%TO.C,C29*%
X124592100Y-71272600D02*
X124592100Y-74218600D01*
X122626100Y-71272600D02*
X124592100Y-71272600D01*
X124592100Y-74218600D02*
X122626100Y-74218600D01*
X122626100Y-74218600D02*
X122626100Y-71272600D01*
%TO.C,C16*%
X106304100Y-112420600D02*
X106304100Y-115366600D01*
X104338100Y-112420600D02*
X106304100Y-112420600D01*
X106304100Y-115366600D02*
X104338100Y-115366600D01*
X104338100Y-115366600D02*
X104338100Y-112420600D01*
%TO.C,C13*%
X51440100Y-112420600D02*
X51440100Y-115366600D01*
X49474100Y-112420600D02*
X51440100Y-112420600D01*
X51440100Y-115366600D02*
X49474100Y-115366600D01*
X49474100Y-115366600D02*
X49474100Y-112420600D01*
D11*
%TO.C,STANDOFF4*%
X75349100Y-163931600D02*
G75*
G03*
X75349100Y-163931600I-2794000J0D01*
G01*
%TO.C,STANDOFF45*%
X239941100Y-87223600D02*
G75*
G03*
X239941100Y-87223600I-2794000J0D01*
G01*
D10*
%TO.C,C5*%
X124592100Y-153568600D02*
X124592100Y-156514600D01*
X122626100Y-153568600D02*
X124592100Y-153568600D01*
X124592100Y-156514600D02*
X122626100Y-156514600D01*
X122626100Y-156514600D02*
X122626100Y-153568600D01*
%TO.C,R31*%
X161168100Y-56032600D02*
X161168100Y-58978600D01*
X159202100Y-56032600D02*
X161168100Y-56032600D01*
X161168100Y-58978600D02*
X159202100Y-58978600D01*
X159202100Y-58978600D02*
X159202100Y-56032600D01*
D11*
%TO.C,STANDOFF24*%
X258229100Y-163931600D02*
G75*
G03*
X258229100Y-163931600I-2794000J0D01*
G01*
D10*
%TO.C,C1*%
X51440100Y-153568600D02*
X51440100Y-156514600D01*
X49474100Y-153568600D02*
X51440100Y-153568600D01*
X51440100Y-156514600D02*
X49474100Y-156514600D01*
X49474100Y-156514600D02*
X49474100Y-153568600D01*
D11*
%TO.C,STANDOFF43*%
X221653100Y-87223600D02*
G75*
G03*
X221653100Y-87223600I-2794000J0D01*
G01*
%TO.C,STANDOFF12*%
X148501100Y-163931600D02*
G75*
G03*
X148501100Y-163931600I-2794000J0D01*
G01*
D10*
%TO.C,R27*%
X88016100Y-56032600D02*
X88016100Y-58978600D01*
X86050100Y-56032600D02*
X88016100Y-56032600D01*
X88016100Y-58978600D02*
X86050100Y-58978600D01*
X86050100Y-58978600D02*
X86050100Y-56032600D01*
D11*
%TO.C,STANDOFF46*%
X239941100Y-122783600D02*
G75*
G03*
X239941100Y-122783600I-2794000J0D01*
G01*
%TO.C,STANDOFF13*%
X166789100Y-128371600D02*
G75*
G03*
X166789100Y-128371600I-2794000J0D01*
G01*
%TO.C,STANDOFF67*%
X221653100Y-46075600D02*
G75*
G03*
X221653100Y-46075600I-2794000J0D01*
G01*
%TO.C,STANDOFF68*%
X221653100Y-81635600D02*
G75*
G03*
X221653100Y-81635600I-2794000J0D01*
G01*
%TO.C,STANDOFF64*%
X185077100Y-81635600D02*
G75*
G03*
X185077100Y-81635600I-2794000J0D01*
G01*
D10*
%TO.C,C21*%
X197744100Y-112420600D02*
X197744100Y-115366600D01*
X195778100Y-112420600D02*
X197744100Y-112420600D01*
X197744100Y-115366600D02*
X195778100Y-115366600D01*
X195778100Y-115366600D02*
X195778100Y-112420600D01*
D11*
%TO.C,STANDOFF71*%
X258229100Y-46075600D02*
G75*
G03*
X258229100Y-46075600I-2794000J0D01*
G01*
%TO.C,STANDOFF2*%
X57061100Y-163931600D02*
G75*
G03*
X57061100Y-163931600I-2794000J0D01*
G01*
D10*
%TO.C,R7*%
X161168100Y-138328600D02*
X161168100Y-141274600D01*
X159202100Y-138328600D02*
X161168100Y-138328600D01*
X161168100Y-141274600D02*
X159202100Y-141274600D01*
X159202100Y-141274600D02*
X159202100Y-138328600D01*
%TO.C,R10*%
X216032100Y-138328600D02*
X216032100Y-141274600D01*
X214066100Y-138328600D02*
X216032100Y-138328600D01*
X216032100Y-141274600D02*
X214066100Y-141274600D01*
X214066100Y-141274600D02*
X214066100Y-138328600D01*
D11*
%TO.C,STANDOFF9*%
X130213100Y-128371600D02*
G75*
G03*
X130213100Y-128371600I-2794000J0D01*
G01*
D10*
%TO.C,R2*%
X69728100Y-138328600D02*
X69728100Y-141274600D01*
X67762100Y-138328600D02*
X69728100Y-138328600D01*
X69728100Y-141274600D02*
X67762100Y-141274600D01*
X67762100Y-141274600D02*
X67762100Y-138328600D01*
D11*
%TO.C,STANDOFF28*%
X75349100Y-122783600D02*
G75*
G03*
X75349100Y-122783600I-2794000J0D01*
G01*
D10*
%TO.C,R17*%
X124592100Y-97180600D02*
X124592100Y-100126600D01*
X122626100Y-97180600D02*
X124592100Y-97180600D01*
X124592100Y-100126600D02*
X122626100Y-100126600D01*
X122626100Y-100126600D02*
X122626100Y-97180600D01*
%TO.C,R11*%
X234320100Y-138328600D02*
X234320100Y-141274600D01*
X232354100Y-138328600D02*
X234320100Y-138328600D01*
X234320100Y-141274600D02*
X232354100Y-141274600D01*
X232354100Y-141274600D02*
X232354100Y-138328600D01*
D11*
%TO.C,STANDOFF15*%
X185077100Y-128371600D02*
G75*
G03*
X185077100Y-128371600I-2794000J0D01*
G01*
%TO.C,STANDOFF36*%
X148501100Y-122783600D02*
G75*
G03*
X148501100Y-122783600I-2794000J0D01*
G01*
D10*
%TO.C,R26*%
X69728100Y-56032600D02*
X69728100Y-58978600D01*
X67762100Y-56032600D02*
X69728100Y-56032600D01*
X69728100Y-58978600D02*
X67762100Y-58978600D01*
X67762100Y-58978600D02*
X67762100Y-56032600D01*
%TO.C,C20*%
X179456100Y-112420600D02*
X179456100Y-115366600D01*
X177490100Y-112420600D02*
X179456100Y-112420600D01*
X179456100Y-115366600D02*
X177490100Y-115366600D01*
X177490100Y-115366600D02*
X177490100Y-112420600D01*
D11*
%TO.C,STANDOFF11*%
X148501100Y-128371600D02*
G75*
G03*
X148501100Y-128371600I-2794000J0D01*
G01*
D10*
%TO.C,C12*%
X252608100Y-153568600D02*
X252608100Y-156514600D01*
X250642100Y-153568600D02*
X252608100Y-153568600D01*
X252608100Y-156514600D02*
X250642100Y-156514600D01*
X250642100Y-156514600D02*
X250642100Y-153568600D01*
D11*
%TO.C,STANDOFF59*%
X148501100Y-46075600D02*
G75*
G03*
X148501100Y-46075600I-2794000J0D01*
G01*
D10*
%TO.C,R24*%
X252608100Y-97180600D02*
X252608100Y-100126600D01*
X250642100Y-97180600D02*
X252608100Y-97180600D01*
X252608100Y-100126600D02*
X250642100Y-100126600D01*
X250642100Y-100126600D02*
X250642100Y-97180600D01*
D11*
%TO.C,STANDOFF29*%
X93637100Y-87223600D02*
G75*
G03*
X93637100Y-87223600I-2794000J0D01*
G01*
D10*
%TO.C,R12*%
X252608100Y-138328600D02*
X252608100Y-141274600D01*
X250642100Y-138328600D02*
X252608100Y-138328600D01*
X252608100Y-141274600D02*
X250642100Y-141274600D01*
X250642100Y-141274600D02*
X250642100Y-138328600D01*
D11*
%TO.C,STANDOFF62*%
X166789100Y-81635600D02*
G75*
G03*
X166789100Y-81635600I-2794000J0D01*
G01*
D10*
%TO.C,R15*%
X88016100Y-97180600D02*
X88016100Y-100126600D01*
X86050100Y-97180600D02*
X88016100Y-97180600D01*
X88016100Y-100126600D02*
X86050100Y-100126600D01*
X86050100Y-100126600D02*
X86050100Y-97180600D01*
D11*
%TO.C,STANDOFF20*%
X221653100Y-163931600D02*
G75*
G03*
X221653100Y-163931600I-2794000J0D01*
G01*
D10*
%TO.C,C22*%
X216032100Y-112420600D02*
X216032100Y-115366600D01*
X214066100Y-112420600D02*
X216032100Y-112420600D01*
X216032100Y-115366600D02*
X214066100Y-115366600D01*
X214066100Y-115366600D02*
X214066100Y-112420600D01*
%TO.C,R35*%
X234320100Y-56032600D02*
X234320100Y-58978600D01*
X232354100Y-56032600D02*
X234320100Y-56032600D01*
X234320100Y-58978600D02*
X232354100Y-58978600D01*
X232354100Y-58978600D02*
X232354100Y-56032600D01*
%TO.C,C9*%
X197744100Y-153568600D02*
X197744100Y-156514600D01*
X195778100Y-153568600D02*
X197744100Y-153568600D01*
X197744100Y-156514600D02*
X195778100Y-156514600D01*
X195778100Y-156514600D02*
X195778100Y-153568600D01*
D11*
%TO.C,STANDOFF3*%
X75349100Y-128371600D02*
G75*
G03*
X75349100Y-128371600I-2794000J0D01*
G01*
D10*
%TO.C,C15*%
X88016100Y-112420600D02*
X88016100Y-115366600D01*
X86050100Y-112420600D02*
X88016100Y-112420600D01*
X88016100Y-115366600D02*
X86050100Y-115366600D01*
X86050100Y-115366600D02*
X86050100Y-112420600D01*
D11*
%TO.C,STANDOFF35*%
X148501100Y-87223600D02*
G75*
G03*
X148501100Y-87223600I-2794000J0D01*
G01*
%TO.C,STANDOFF56*%
X111925100Y-81635600D02*
G75*
G03*
X111925100Y-81635600I-2794000J0D01*
G01*
D10*
%TO.C,R36*%
X252608100Y-56032600D02*
X252608100Y-58978600D01*
X250642100Y-56032600D02*
X252608100Y-56032600D01*
X252608100Y-58978600D02*
X250642100Y-58978600D01*
X250642100Y-58978600D02*
X250642100Y-56032600D01*
%TO.C,C24*%
X252608100Y-112420600D02*
X252608100Y-115366600D01*
X250642100Y-112420600D02*
X252608100Y-112420600D01*
X252608100Y-115366600D02*
X250642100Y-115366600D01*
X250642100Y-115366600D02*
X250642100Y-112420600D01*
%TO.C,C31*%
X161168100Y-71272600D02*
X161168100Y-74218600D01*
X159202100Y-71272600D02*
X161168100Y-71272600D01*
X161168100Y-74218600D02*
X159202100Y-74218600D01*
X159202100Y-74218600D02*
X159202100Y-71272600D01*
%TO.C,R33*%
X197744100Y-56032600D02*
X197744100Y-58978600D01*
X195778100Y-56032600D02*
X197744100Y-56032600D01*
X197744100Y-58978600D02*
X195778100Y-58978600D01*
X195778100Y-58978600D02*
X195778100Y-56032600D01*
D11*
%TO.C,STANDOFF6*%
X93637100Y-163931600D02*
G75*
G03*
X93637100Y-163931600I-2794000J0D01*
G01*
D10*
%TO.C,C11*%
X234320100Y-153568600D02*
X234320100Y-156514600D01*
X232354100Y-153568600D02*
X234320100Y-153568600D01*
X234320100Y-156514600D02*
X232354100Y-156514600D01*
X232354100Y-156514600D02*
X232354100Y-153568600D01*
%TO.C,C36*%
X252608100Y-71272600D02*
X252608100Y-74218600D01*
X250642100Y-71272600D02*
X252608100Y-71272600D01*
X252608100Y-74218600D02*
X250642100Y-74218600D01*
X250642100Y-74218600D02*
X250642100Y-71272600D01*
D11*
%TO.C,STANDOFF27*%
X75349100Y-87223600D02*
G75*
G03*
X75349100Y-87223600I-2794000J0D01*
G01*
%TO.C,STANDOFF57*%
X130213100Y-46075600D02*
G75*
G03*
X130213100Y-46075600I-2794000J0D01*
G01*
D10*
%TO.C,R22*%
X216032100Y-97180600D02*
X216032100Y-100126600D01*
X214066100Y-97180600D02*
X216032100Y-97180600D01*
X216032100Y-100126600D02*
X214066100Y-100126600D01*
X214066100Y-100126600D02*
X214066100Y-97180600D01*
D11*
%TO.C,STANDOFF63*%
X185077100Y-46075600D02*
G75*
G03*
X185077100Y-46075600I-2794000J0D01*
G01*
D10*
%TO.C,R25*%
X51440100Y-56032600D02*
X51440100Y-58978600D01*
X49474100Y-56032600D02*
X51440100Y-56032600D01*
X51440100Y-58978600D02*
X49474100Y-58978600D01*
X49474100Y-58978600D02*
X49474100Y-56032600D01*
D11*
%TO.C,STANDOFF72*%
X258229100Y-81635600D02*
G75*
G03*
X258229100Y-81635600I-2794000J0D01*
G01*
D10*
%TO.C,C28*%
X106304100Y-71272600D02*
X106304100Y-74218600D01*
X104338100Y-71272600D02*
X106304100Y-71272600D01*
X106304100Y-74218600D02*
X104338100Y-74218600D01*
X104338100Y-74218600D02*
X104338100Y-71272600D01*
D11*
%TO.C,STANDOFF26*%
X57061100Y-122783600D02*
G75*
G03*
X57061100Y-122783600I-2794000J0D01*
G01*
D10*
%TO.C,R16*%
X106304100Y-97180600D02*
X106304100Y-100126600D01*
X104338100Y-97180600D02*
X106304100Y-97180600D01*
X106304100Y-100126600D02*
X104338100Y-100126600D01*
X104338100Y-100126600D02*
X104338100Y-97180600D01*
%TO.C,C26*%
X69728100Y-71272600D02*
X69728100Y-74218600D01*
X67762100Y-71272600D02*
X69728100Y-71272600D01*
X69728100Y-74218600D02*
X67762100Y-74218600D01*
X67762100Y-74218600D02*
X67762100Y-71272600D01*
D11*
%TO.C,STANDOFF19*%
X221653100Y-128371600D02*
G75*
G03*
X221653100Y-128371600I-2794000J0D01*
G01*
%TO.C,STANDOFF30*%
X93637100Y-122783600D02*
G75*
G03*
X93637100Y-122783600I-2794000J0D01*
G01*
%TO.C,STANDOFF38*%
X166789100Y-122783600D02*
G75*
G03*
X166789100Y-122783600I-2794000J0D01*
G01*
D10*
%TO.C,C25*%
X51440100Y-71272600D02*
X51440100Y-74218600D01*
X49474100Y-71272600D02*
X51440100Y-71272600D01*
X51440100Y-74218600D02*
X49474100Y-74218600D01*
X49474100Y-74218600D02*
X49474100Y-71272600D01*
D11*
%TO.C,STANDOFF49*%
X57061100Y-46075600D02*
G75*
G03*
X57061100Y-46075600I-2794000J0D01*
G01*
%TO.C,STANDOFF21*%
X239941100Y-128371600D02*
G75*
G03*
X239941100Y-128371600I-2794000J0D01*
G01*
D10*
%TO.C,C8*%
X179456100Y-153568600D02*
X179456100Y-156514600D01*
X177490100Y-153568600D02*
X179456100Y-153568600D01*
X179456100Y-156514600D02*
X177490100Y-156514600D01*
X177490100Y-156514600D02*
X177490100Y-153568600D01*
%TO.C,C6*%
X142880100Y-153568600D02*
X142880100Y-156514600D01*
X140914100Y-153568600D02*
X142880100Y-153568600D01*
X142880100Y-156514600D02*
X140914100Y-156514600D01*
X140914100Y-156514600D02*
X140914100Y-153568600D01*
D11*
%TO.C,STANDOFF47*%
X258229100Y-87223600D02*
G75*
G03*
X258229100Y-87223600I-2794000J0D01*
G01*
D10*
%TO.C,R20*%
X179456100Y-97180600D02*
X179456100Y-100126600D01*
X177490100Y-97180600D02*
X179456100Y-97180600D01*
X179456100Y-100126600D02*
X177490100Y-100126600D01*
X177490100Y-100126600D02*
X177490100Y-97180600D01*
D11*
%TO.C,STANDOFF7*%
X111925100Y-128371600D02*
G75*
G03*
X111925100Y-128371600I-2794000J0D01*
G01*
D10*
%TO.C,R21*%
X197744100Y-97180600D02*
X197744100Y-100126600D01*
X195778100Y-97180600D02*
X197744100Y-97180600D01*
X197744100Y-100126600D02*
X195778100Y-100126600D01*
X195778100Y-100126600D02*
X195778100Y-97180600D01*
D11*
%TO.C,STANDOFF5*%
X93637100Y-128371600D02*
G75*
G03*
X93637100Y-128371600I-2794000J0D01*
G01*
%TO.C,STANDOFF41*%
X203365100Y-87223600D02*
G75*
G03*
X203365100Y-87223600I-2794000J0D01*
G01*
%TO.C,STANDOFF8*%
X111925100Y-163931600D02*
G75*
G03*
X111925100Y-163931600I-2794000J0D01*
G01*
%TO.C,STANDOFF34*%
X130213100Y-122783600D02*
G75*
G03*
X130213100Y-122783600I-2794000J0D01*
G01*
%TO.C,STANDOFF54*%
X93637100Y-81635600D02*
G75*
G03*
X93637100Y-81635600I-2794000J0D01*
G01*
%TO.C,STANDOFF48*%
X258229100Y-122783600D02*
G75*
G03*
X258229100Y-122783600I-2794000J0D01*
G01*
D10*
%TO.C,C2*%
X69728100Y-153568600D02*
X69728100Y-156514600D01*
X67762100Y-153568600D02*
X69728100Y-153568600D01*
X69728100Y-156514600D02*
X67762100Y-156514600D01*
X67762100Y-156514600D02*
X67762100Y-153568600D01*
D11*
%TO.C,STANDOFF52*%
X75349100Y-81635600D02*
G75*
G03*
X75349100Y-81635600I-2794000J0D01*
G01*
%TO.C,STANDOFF44*%
X221653100Y-122783600D02*
G75*
G03*
X221653100Y-122783600I-2794000J0D01*
G01*
D10*
%TO.C,R28*%
X106304100Y-56032600D02*
X106304100Y-58978600D01*
X104338100Y-56032600D02*
X106304100Y-56032600D01*
X106304100Y-58978600D02*
X104338100Y-58978600D01*
X104338100Y-58978600D02*
X104338100Y-56032600D01*
D11*
%TO.C,STANDOFF32*%
X111925100Y-122783600D02*
G75*
G03*
X111925100Y-122783600I-2794000J0D01*
G01*
D10*
%TO.C,C19*%
X161168100Y-112420600D02*
X161168100Y-115366600D01*
X159202100Y-112420600D02*
X161168100Y-112420600D01*
X161168100Y-115366600D02*
X159202100Y-115366600D01*
X159202100Y-115366600D02*
X159202100Y-112420600D01*
%TO.C,R32*%
X179456100Y-56032600D02*
X179456100Y-58978600D01*
X177490100Y-56032600D02*
X179456100Y-56032600D01*
X179456100Y-58978600D02*
X177490100Y-58978600D01*
X177490100Y-58978600D02*
X177490100Y-56032600D01*
D11*
%TO.C,STANDOFF1*%
X57061100Y-128371600D02*
G75*
G03*
X57061100Y-128371600I-2794000J0D01*
G01*
%TO.C,STANDOFF22*%
X239941100Y-163931600D02*
G75*
G03*
X239941100Y-163931600I-2794000J0D01*
G01*
%TO.C,STANDOFF55*%
X111925100Y-46075600D02*
G75*
G03*
X111925100Y-46075600I-2794000J0D01*
G01*
%TO.C,STANDOFF53*%
X93637100Y-46075600D02*
G75*
G03*
X93637100Y-46075600I-2794000J0D01*
G01*
%TO.C,STANDOFF31*%
X111925100Y-87223600D02*
G75*
G03*
X111925100Y-87223600I-2794000J0D01*
G01*
%TO.C,STANDOFF37*%
X166789100Y-87223600D02*
G75*
G03*
X166789100Y-87223600I-2794000J0D01*
G01*
D10*
%TO.C,R4*%
X106304100Y-138328600D02*
X106304100Y-141274600D01*
X104338100Y-138328600D02*
X106304100Y-138328600D01*
X106304100Y-141274600D02*
X104338100Y-141274600D01*
X104338100Y-141274600D02*
X104338100Y-138328600D01*
D11*
%TO.C,STANDOFF18*%
X203365100Y-163931600D02*
G75*
G03*
X203365100Y-163931600I-2794000J0D01*
G01*
D10*
%TO.C,C27*%
X88016100Y-71272600D02*
X88016100Y-74218600D01*
X86050100Y-71272600D02*
X88016100Y-71272600D01*
X88016100Y-74218600D02*
X86050100Y-74218600D01*
X86050100Y-74218600D02*
X86050100Y-71272600D01*
%TO.C,R5*%
X124592100Y-138328600D02*
X124592100Y-141274600D01*
X122626100Y-138328600D02*
X124592100Y-138328600D01*
X124592100Y-141274600D02*
X122626100Y-141274600D01*
X122626100Y-141274600D02*
X122626100Y-138328600D01*
%TO.C,C17*%
X124592100Y-112420600D02*
X124592100Y-115366600D01*
X122626100Y-112420600D02*
X124592100Y-112420600D01*
X124592100Y-115366600D02*
X122626100Y-115366600D01*
X122626100Y-115366600D02*
X122626100Y-112420600D01*
D11*
%TO.C,STANDOFF23*%
X258229100Y-128371600D02*
G75*
G03*
X258229100Y-128371600I-2794000J0D01*
G01*
%TO.C,STANDOFF58*%
X130213100Y-81635600D02*
G75*
G03*
X130213100Y-81635600I-2794000J0D01*
G01*
D10*
%TO.C,R3*%
X88016100Y-138328600D02*
X88016100Y-141274600D01*
X86050100Y-138328600D02*
X88016100Y-138328600D01*
X88016100Y-141274600D02*
X86050100Y-141274600D01*
X86050100Y-141274600D02*
X86050100Y-138328600D01*
%TO.C,C3*%
X88016100Y-153568600D02*
X88016100Y-156514600D01*
X86050100Y-153568600D02*
X88016100Y-153568600D01*
X88016100Y-156514600D02*
X86050100Y-156514600D01*
X86050100Y-156514600D02*
X86050100Y-153568600D01*
D11*
%TO.C,STANDOFF70*%
X239941100Y-81635600D02*
G75*
G03*
X239941100Y-81635600I-2794000J0D01*
G01*
D10*
%TO.C,C23*%
X234320100Y-112420600D02*
X234320100Y-115366600D01*
X232354100Y-112420600D02*
X234320100Y-112420600D01*
X234320100Y-115366600D02*
X232354100Y-115366600D01*
X232354100Y-115366600D02*
X232354100Y-112420600D01*
D11*
%TO.C,STANDOFF65*%
X203365100Y-46075600D02*
G75*
G03*
X203365100Y-46075600I-2794000J0D01*
G01*
D10*
%TO.C,R13*%
X51440100Y-97180600D02*
X51440100Y-100126600D01*
X49474100Y-97180600D02*
X51440100Y-97180600D01*
X51440100Y-100126600D02*
X49474100Y-100126600D01*
X49474100Y-100126600D02*
X49474100Y-97180600D01*
D11*
%TO.C,STANDOFF61*%
X166789100Y-46075600D02*
G75*
G03*
X166789100Y-46075600I-2794000J0D01*
G01*
D10*
%TO.C,R1*%
X51440100Y-138328600D02*
X51440100Y-141274600D01*
X49474100Y-138328600D02*
X51440100Y-138328600D01*
X51440100Y-141274600D02*
X49474100Y-141274600D01*
X49474100Y-141274600D02*
X49474100Y-138328600D01*
%TO.C,R30*%
X142880100Y-56032600D02*
X142880100Y-58978600D01*
X140914100Y-56032600D02*
X142880100Y-56032600D01*
X142880100Y-58978600D02*
X140914100Y-58978600D01*
X140914100Y-58978600D02*
X140914100Y-56032600D01*
%TO.C,C33*%
X197744100Y-71272600D02*
X197744100Y-74218600D01*
X195778100Y-71272600D02*
X197744100Y-71272600D01*
X197744100Y-74218600D02*
X195778100Y-74218600D01*
X195778100Y-74218600D02*
X195778100Y-71272600D01*
D11*
%TO.C,STANDOFF60*%
X148501100Y-81635600D02*
G75*
G03*
X148501100Y-81635600I-2794000J0D01*
G01*
%TO.C,STANDOFF40*%
X185077100Y-122783600D02*
G75*
G03*
X185077100Y-122783600I-2794000J0D01*
G01*
D10*
%TO.C,R14*%
X69728100Y-97180600D02*
X69728100Y-100126600D01*
X67762100Y-97180600D02*
X69728100Y-97180600D01*
X69728100Y-100126600D02*
X67762100Y-100126600D01*
X67762100Y-100126600D02*
X67762100Y-97180600D01*
D11*
%TO.C,STANDOFF39*%
X185077100Y-87223600D02*
G75*
G03*
X185077100Y-87223600I-2794000J0D01*
G01*
D10*
%TO.C,R18*%
X142880100Y-97180600D02*
X142880100Y-100126600D01*
X140914100Y-97180600D02*
X142880100Y-97180600D01*
X142880100Y-100126600D02*
X140914100Y-100126600D01*
X140914100Y-100126600D02*
X140914100Y-97180600D01*
%TO.C,R8*%
X179456100Y-138328600D02*
X179456100Y-141274600D01*
X177490100Y-138328600D02*
X179456100Y-138328600D01*
X179456100Y-141274600D02*
X177490100Y-141274600D01*
X177490100Y-141274600D02*
X177490100Y-138328600D01*
%TO.C,R34*%
X216032100Y-56032600D02*
X216032100Y-58978600D01*
X214066100Y-56032600D02*
X216032100Y-56032600D01*
X216032100Y-58978600D02*
X214066100Y-58978600D01*
X214066100Y-58978600D02*
X214066100Y-56032600D01*
D11*
%TO.C,STANDOFF33*%
X130213100Y-87223600D02*
G75*
G03*
X130213100Y-87223600I-2794000J0D01*
G01*
D10*
%TO.C,C32*%
X179456100Y-71272600D02*
X179456100Y-74218600D01*
X177490100Y-71272600D02*
X179456100Y-71272600D01*
X179456100Y-74218600D02*
X177490100Y-74218600D01*
X177490100Y-74218600D02*
X177490100Y-71272600D01*
%TO.C,C7*%
X161168100Y-153568600D02*
X161168100Y-156514600D01*
X159202100Y-153568600D02*
X161168100Y-153568600D01*
X161168100Y-156514600D02*
X159202100Y-156514600D01*
X159202100Y-156514600D02*
X159202100Y-153568600D01*
%TD*%
M02*
