%TF.GenerationSoftware,KiCad,Pcbnew,7.0.6-7.0.6~ubuntu22.04.1*%
%TF.CreationDate,2023-08-05T14:11:21+01:00*%
%TF.ProjectId,working,776f726b-696e-4672-9e6b-696361645f70,C1*%
%TF.SameCoordinates,Original*%
%TF.FileFunction,Legend,Top*%
%TF.FilePolarity,Positive*%
%FSLAX46Y46*%
G04 Gerber Fmt 4.6, Leading zero omitted, Abs format (unit mm)*
G04 Created by KiCad (PCBNEW 7.0.6-7.0.6~ubuntu22.04.1) date 2023-08-05 14:11:21*
%MOMM*%
%LPD*%
G01*
G04 APERTURE LIST*
%ADD10C,0.120000*%
%ADD11C,0.150000*%
%ADD12C,0.250000*%
%ADD13C,0.300000*%
%ADD14C,0.254000*%
%ADD15C,0.100000*%
%ADD16C,0.158750*%
%ADD17C,0.225000*%
%ADD18C,0.200000*%
%ADD19C,0.152400*%
%ADD20C,0.203200*%
%ADD21C,0.127000*%
%ADD22C,0.050000*%
%ADD23C,0.066040*%
%ADD24C,1.300000*%
G04 APERTURE END LIST*
D10*
X78060000Y-50320000D02*
X76580000Y-49520000D01*
X77210000Y-49500000D02*
X77140000Y-49490000D01*
X76840000Y-50060000D02*
X76620000Y-49540000D01*
X76620000Y-49540000D02*
X77210000Y-49500000D01*
D11*
X124205057Y-88335713D02*
X124157438Y-88288094D01*
X124157438Y-88288094D02*
X124109819Y-88192856D01*
X124109819Y-88192856D02*
X124109819Y-87954761D01*
X124109819Y-87954761D02*
X124157438Y-87859523D01*
X124157438Y-87859523D02*
X124205057Y-87811904D01*
X124205057Y-87811904D02*
X124300295Y-87764285D01*
X124300295Y-87764285D02*
X124395533Y-87764285D01*
X124395533Y-87764285D02*
X124538390Y-87811904D01*
X124538390Y-87811904D02*
X125109819Y-88383332D01*
X125109819Y-88383332D02*
X125109819Y-87764285D01*
X126719819Y-87764285D02*
X126719819Y-88335713D01*
X126719819Y-88049999D02*
X125719819Y-88049999D01*
X125719819Y-88049999D02*
X125862676Y-88145237D01*
X125862676Y-88145237D02*
X125957914Y-88240475D01*
X125957914Y-88240475D02*
X126005533Y-88335713D01*
D12*
X74908404Y-74663809D02*
X75960785Y-74663809D01*
X75960785Y-74663809D02*
X76084595Y-74601904D01*
X76084595Y-74601904D02*
X76146500Y-74539999D01*
X76146500Y-74539999D02*
X76208404Y-74416190D01*
X76208404Y-74416190D02*
X76208404Y-74168571D01*
X76208404Y-74168571D02*
X76146500Y-74044761D01*
X76146500Y-74044761D02*
X76084595Y-73982856D01*
X76084595Y-73982856D02*
X75960785Y-73920952D01*
X75960785Y-73920952D02*
X74908404Y-73920952D01*
X75527452Y-73301904D02*
X75527452Y-72868570D01*
X76208404Y-72682856D02*
X76208404Y-73301904D01*
X76208404Y-73301904D02*
X74908404Y-73301904D01*
X74908404Y-73301904D02*
X74908404Y-72682856D01*
X74908404Y-72249523D02*
X76208404Y-71382857D01*
X74908404Y-71382857D02*
X76208404Y-72249523D01*
X74908404Y-71073333D02*
X74908404Y-70330476D01*
X76208404Y-70701904D02*
X74908404Y-70701904D01*
D13*
X106706666Y-62545066D02*
X106973332Y-62545066D01*
X106973332Y-62545066D02*
X107106666Y-62611733D01*
X107106666Y-62611733D02*
X107239999Y-62745066D01*
X107239999Y-62745066D02*
X107306666Y-63011733D01*
X107306666Y-63011733D02*
X107306666Y-63478400D01*
X107306666Y-63478400D02*
X107239999Y-63745066D01*
X107239999Y-63745066D02*
X107106666Y-63878400D01*
X107106666Y-63878400D02*
X106973332Y-63945066D01*
X106973332Y-63945066D02*
X106706666Y-63945066D01*
X106706666Y-63945066D02*
X106573332Y-63878400D01*
X106573332Y-63878400D02*
X106439999Y-63745066D01*
X106439999Y-63745066D02*
X106373332Y-63478400D01*
X106373332Y-63478400D02*
X106373332Y-63011733D01*
X106373332Y-63011733D02*
X106439999Y-62745066D01*
X106439999Y-62745066D02*
X106573332Y-62611733D01*
X106573332Y-62611733D02*
X106706666Y-62545066D01*
X108573333Y-63945066D02*
X107906666Y-63945066D01*
X107906666Y-63945066D02*
X107906666Y-62545066D01*
X109039999Y-63945066D02*
X109039999Y-62545066D01*
X109706666Y-63945066D02*
X109706666Y-62545066D01*
X109706666Y-62545066D02*
X110173333Y-63545066D01*
X110173333Y-63545066D02*
X110639999Y-62545066D01*
X110639999Y-62545066D02*
X110639999Y-63945066D01*
X111306666Y-63211733D02*
X111773333Y-63211733D01*
X111973333Y-63945066D02*
X111306666Y-63945066D01*
X111306666Y-63945066D02*
X111306666Y-62545066D01*
X111306666Y-62545066D02*
X111973333Y-62545066D01*
X112440000Y-62545066D02*
X113373333Y-63945066D01*
X113373333Y-62545066D02*
X112440000Y-63945066D01*
X113906666Y-63945066D02*
X113906666Y-62545066D01*
X114573333Y-63945066D02*
X114573333Y-62545066D01*
X114573333Y-62545066D02*
X115373333Y-63945066D01*
X115373333Y-63945066D02*
X115373333Y-62545066D01*
X116306667Y-62545066D02*
X116573333Y-62545066D01*
X116573333Y-62545066D02*
X116706667Y-62611733D01*
X116706667Y-62611733D02*
X116840000Y-62745066D01*
X116840000Y-62745066D02*
X116906667Y-63011733D01*
X116906667Y-63011733D02*
X116906667Y-63478400D01*
X116906667Y-63478400D02*
X116840000Y-63745066D01*
X116840000Y-63745066D02*
X116706667Y-63878400D01*
X116706667Y-63878400D02*
X116573333Y-63945066D01*
X116573333Y-63945066D02*
X116306667Y-63945066D01*
X116306667Y-63945066D02*
X116173333Y-63878400D01*
X116173333Y-63878400D02*
X116040000Y-63745066D01*
X116040000Y-63745066D02*
X115973333Y-63478400D01*
X115973333Y-63478400D02*
X115973333Y-63011733D01*
X115973333Y-63011733D02*
X116040000Y-62745066D01*
X116040000Y-62745066D02*
X116173333Y-62611733D01*
X116173333Y-62611733D02*
X116306667Y-62545066D01*
X107306667Y-66132400D02*
X107506667Y-66199066D01*
X107506667Y-66199066D02*
X107840001Y-66199066D01*
X107840001Y-66199066D02*
X107973334Y-66132400D01*
X107973334Y-66132400D02*
X108040001Y-66065733D01*
X108040001Y-66065733D02*
X108106667Y-65932400D01*
X108106667Y-65932400D02*
X108106667Y-65799066D01*
X108106667Y-65799066D02*
X108040001Y-65665733D01*
X108040001Y-65665733D02*
X107973334Y-65599066D01*
X107973334Y-65599066D02*
X107840001Y-65532400D01*
X107840001Y-65532400D02*
X107573334Y-65465733D01*
X107573334Y-65465733D02*
X107440001Y-65399066D01*
X107440001Y-65399066D02*
X107373334Y-65332400D01*
X107373334Y-65332400D02*
X107306667Y-65199066D01*
X107306667Y-65199066D02*
X107306667Y-65065733D01*
X107306667Y-65065733D02*
X107373334Y-64932400D01*
X107373334Y-64932400D02*
X107440001Y-64865733D01*
X107440001Y-64865733D02*
X107573334Y-64799066D01*
X107573334Y-64799066D02*
X107906667Y-64799066D01*
X107906667Y-64799066D02*
X108106667Y-64865733D01*
X108506667Y-64799066D02*
X109306667Y-64799066D01*
X108906667Y-66199066D02*
X108906667Y-64799066D01*
X109773334Y-66199066D02*
X109773334Y-64799066D01*
X109773334Y-64799066D02*
X110240001Y-65799066D01*
X110240001Y-65799066D02*
X110706667Y-64799066D01*
X110706667Y-64799066D02*
X110706667Y-66199066D01*
X111240001Y-64799066D02*
X112106667Y-64799066D01*
X112106667Y-64799066D02*
X111640001Y-65332400D01*
X111640001Y-65332400D02*
X111840001Y-65332400D01*
X111840001Y-65332400D02*
X111973334Y-65399066D01*
X111973334Y-65399066D02*
X112040001Y-65465733D01*
X112040001Y-65465733D02*
X112106667Y-65599066D01*
X112106667Y-65599066D02*
X112106667Y-65932400D01*
X112106667Y-65932400D02*
X112040001Y-66065733D01*
X112040001Y-66065733D02*
X111973334Y-66132400D01*
X111973334Y-66132400D02*
X111840001Y-66199066D01*
X111840001Y-66199066D02*
X111440001Y-66199066D01*
X111440001Y-66199066D02*
X111306667Y-66132400D01*
X111306667Y-66132400D02*
X111240001Y-66065733D01*
X112640000Y-64932400D02*
X112706667Y-64865733D01*
X112706667Y-64865733D02*
X112840000Y-64799066D01*
X112840000Y-64799066D02*
X113173334Y-64799066D01*
X113173334Y-64799066D02*
X113306667Y-64865733D01*
X113306667Y-64865733D02*
X113373334Y-64932400D01*
X113373334Y-64932400D02*
X113440000Y-65065733D01*
X113440000Y-65065733D02*
X113440000Y-65199066D01*
X113440000Y-65199066D02*
X113373334Y-65399066D01*
X113373334Y-65399066D02*
X112573334Y-66199066D01*
X112573334Y-66199066D02*
X113440000Y-66199066D01*
X114506667Y-65465733D02*
X114040000Y-65465733D01*
X114040000Y-66199066D02*
X114040000Y-64799066D01*
X114040000Y-64799066D02*
X114706667Y-64799066D01*
X115106667Y-64799066D02*
X115973333Y-64799066D01*
X115973333Y-64799066D02*
X115506667Y-65332400D01*
X115506667Y-65332400D02*
X115706667Y-65332400D01*
X115706667Y-65332400D02*
X115840000Y-65399066D01*
X115840000Y-65399066D02*
X115906667Y-65465733D01*
X115906667Y-65465733D02*
X115973333Y-65599066D01*
X115973333Y-65599066D02*
X115973333Y-65932400D01*
X115973333Y-65932400D02*
X115906667Y-66065733D01*
X115906667Y-66065733D02*
X115840000Y-66132400D01*
X115840000Y-66132400D02*
X115706667Y-66199066D01*
X115706667Y-66199066D02*
X115306667Y-66199066D01*
X115306667Y-66199066D02*
X115173333Y-66132400D01*
X115173333Y-66132400D02*
X115106667Y-66065733D01*
D11*
X107931904Y-67954819D02*
X107598571Y-67478628D01*
X107360476Y-67954819D02*
X107360476Y-66954819D01*
X107360476Y-66954819D02*
X107741428Y-66954819D01*
X107741428Y-66954819D02*
X107836666Y-67002438D01*
X107836666Y-67002438D02*
X107884285Y-67050057D01*
X107884285Y-67050057D02*
X107931904Y-67145295D01*
X107931904Y-67145295D02*
X107931904Y-67288152D01*
X107931904Y-67288152D02*
X107884285Y-67383390D01*
X107884285Y-67383390D02*
X107836666Y-67431009D01*
X107836666Y-67431009D02*
X107741428Y-67478628D01*
X107741428Y-67478628D02*
X107360476Y-67478628D01*
X108741428Y-67907200D02*
X108646190Y-67954819D01*
X108646190Y-67954819D02*
X108455714Y-67954819D01*
X108455714Y-67954819D02*
X108360476Y-67907200D01*
X108360476Y-67907200D02*
X108312857Y-67811961D01*
X108312857Y-67811961D02*
X108312857Y-67431009D01*
X108312857Y-67431009D02*
X108360476Y-67335771D01*
X108360476Y-67335771D02*
X108455714Y-67288152D01*
X108455714Y-67288152D02*
X108646190Y-67288152D01*
X108646190Y-67288152D02*
X108741428Y-67335771D01*
X108741428Y-67335771D02*
X108789047Y-67431009D01*
X108789047Y-67431009D02*
X108789047Y-67526247D01*
X108789047Y-67526247D02*
X108312857Y-67621485D01*
X109122381Y-67288152D02*
X109360476Y-67954819D01*
X109360476Y-67954819D02*
X109598571Y-67288152D01*
X109979524Y-67859580D02*
X110027143Y-67907200D01*
X110027143Y-67907200D02*
X109979524Y-67954819D01*
X109979524Y-67954819D02*
X109931905Y-67907200D01*
X109931905Y-67907200D02*
X109979524Y-67859580D01*
X109979524Y-67859580D02*
X109979524Y-67954819D01*
X111027142Y-67859580D02*
X110979523Y-67907200D01*
X110979523Y-67907200D02*
X110836666Y-67954819D01*
X110836666Y-67954819D02*
X110741428Y-67954819D01*
X110741428Y-67954819D02*
X110598571Y-67907200D01*
X110598571Y-67907200D02*
X110503333Y-67811961D01*
X110503333Y-67811961D02*
X110455714Y-67716723D01*
X110455714Y-67716723D02*
X110408095Y-67526247D01*
X110408095Y-67526247D02*
X110408095Y-67383390D01*
X110408095Y-67383390D02*
X110455714Y-67192914D01*
X110455714Y-67192914D02*
X110503333Y-67097676D01*
X110503333Y-67097676D02*
X110598571Y-67002438D01*
X110598571Y-67002438D02*
X110741428Y-66954819D01*
X110741428Y-66954819D02*
X110836666Y-66954819D01*
X110836666Y-66954819D02*
X110979523Y-67002438D01*
X110979523Y-67002438D02*
X111027142Y-67050057D01*
X64619366Y-97629999D02*
X64652700Y-97529999D01*
X64652700Y-97529999D02*
X64686033Y-97496665D01*
X64686033Y-97496665D02*
X64752700Y-97463332D01*
X64752700Y-97463332D02*
X64852700Y-97463332D01*
X64852700Y-97463332D02*
X64919366Y-97496665D01*
X64919366Y-97496665D02*
X64952700Y-97529999D01*
X64952700Y-97529999D02*
X64986033Y-97596665D01*
X64986033Y-97596665D02*
X64986033Y-97863332D01*
X64986033Y-97863332D02*
X64286033Y-97863332D01*
X64286033Y-97863332D02*
X64286033Y-97629999D01*
X64286033Y-97629999D02*
X64319366Y-97563332D01*
X64319366Y-97563332D02*
X64352700Y-97529999D01*
X64352700Y-97529999D02*
X64419366Y-97496665D01*
X64419366Y-97496665D02*
X64486033Y-97496665D01*
X64486033Y-97496665D02*
X64552700Y-97529999D01*
X64552700Y-97529999D02*
X64586033Y-97563332D01*
X64586033Y-97563332D02*
X64619366Y-97629999D01*
X64619366Y-97629999D02*
X64619366Y-97863332D01*
X64786033Y-97196665D02*
X64786033Y-96863332D01*
X64986033Y-97263332D02*
X64286033Y-97029999D01*
X64286033Y-97029999D02*
X64986033Y-96796665D01*
X64286033Y-96663332D02*
X64286033Y-96263332D01*
X64986033Y-96463332D02*
X64286033Y-96463332D01*
X65052700Y-96196666D02*
X65052700Y-95663332D01*
X64919366Y-95096666D02*
X64952700Y-95129999D01*
X64952700Y-95129999D02*
X64986033Y-95229999D01*
X64986033Y-95229999D02*
X64986033Y-95296666D01*
X64986033Y-95296666D02*
X64952700Y-95396666D01*
X64952700Y-95396666D02*
X64886033Y-95463333D01*
X64886033Y-95463333D02*
X64819366Y-95496666D01*
X64819366Y-95496666D02*
X64686033Y-95529999D01*
X64686033Y-95529999D02*
X64586033Y-95529999D01*
X64586033Y-95529999D02*
X64452700Y-95496666D01*
X64452700Y-95496666D02*
X64386033Y-95463333D01*
X64386033Y-95463333D02*
X64319366Y-95396666D01*
X64319366Y-95396666D02*
X64286033Y-95296666D01*
X64286033Y-95296666D02*
X64286033Y-95229999D01*
X64286033Y-95229999D02*
X64319366Y-95129999D01*
X64319366Y-95129999D02*
X64352700Y-95096666D01*
X64286033Y-94663333D02*
X64286033Y-94529999D01*
X64286033Y-94529999D02*
X64319366Y-94463333D01*
X64319366Y-94463333D02*
X64386033Y-94396666D01*
X64386033Y-94396666D02*
X64519366Y-94363333D01*
X64519366Y-94363333D02*
X64752700Y-94363333D01*
X64752700Y-94363333D02*
X64886033Y-94396666D01*
X64886033Y-94396666D02*
X64952700Y-94463333D01*
X64952700Y-94463333D02*
X64986033Y-94529999D01*
X64986033Y-94529999D02*
X64986033Y-94663333D01*
X64986033Y-94663333D02*
X64952700Y-94729999D01*
X64952700Y-94729999D02*
X64886033Y-94796666D01*
X64886033Y-94796666D02*
X64752700Y-94829999D01*
X64752700Y-94829999D02*
X64519366Y-94829999D01*
X64519366Y-94829999D02*
X64386033Y-94796666D01*
X64386033Y-94796666D02*
X64319366Y-94729999D01*
X64319366Y-94729999D02*
X64286033Y-94663333D01*
X64986033Y-94063333D02*
X64286033Y-94063333D01*
X64286033Y-94063333D02*
X64986033Y-93663333D01*
X64986033Y-93663333D02*
X64286033Y-93663333D01*
X64986033Y-92963333D02*
X64986033Y-93363333D01*
X64986033Y-93163333D02*
X64286033Y-93163333D01*
X64286033Y-93163333D02*
X64386033Y-93230000D01*
X64386033Y-93230000D02*
X64452700Y-93296667D01*
X64452700Y-93296667D02*
X64486033Y-93363333D01*
D12*
X103585903Y-77493949D02*
X105202147Y-79110193D01*
X103585903Y-79110193D02*
X105202147Y-77493949D01*
D14*
X75448333Y-89073365D02*
X75387857Y-89133842D01*
X75387857Y-89133842D02*
X75206428Y-89194318D01*
X75206428Y-89194318D02*
X75085476Y-89194318D01*
X75085476Y-89194318D02*
X74904047Y-89133842D01*
X74904047Y-89133842D02*
X74783095Y-89012889D01*
X74783095Y-89012889D02*
X74722618Y-88891937D01*
X74722618Y-88891937D02*
X74662142Y-88650032D01*
X74662142Y-88650032D02*
X74662142Y-88468603D01*
X74662142Y-88468603D02*
X74722618Y-88226699D01*
X74722618Y-88226699D02*
X74783095Y-88105746D01*
X74783095Y-88105746D02*
X74904047Y-87984794D01*
X74904047Y-87984794D02*
X75085476Y-87924318D01*
X75085476Y-87924318D02*
X75206428Y-87924318D01*
X75206428Y-87924318D02*
X75387857Y-87984794D01*
X75387857Y-87984794D02*
X75448333Y-88045270D01*
X76657857Y-89194318D02*
X75932142Y-89194318D01*
X76294999Y-89194318D02*
X76294999Y-87924318D01*
X76294999Y-87924318D02*
X76174047Y-88105746D01*
X76174047Y-88105746D02*
X76053095Y-88226699D01*
X76053095Y-88226699D02*
X75932142Y-88287175D01*
X77870508Y-82023809D02*
X77870508Y-81056190D01*
X78354318Y-81539999D02*
X77386699Y-81539999D01*
D15*
X81073333Y-89071966D02*
X81040000Y-89105300D01*
X81040000Y-89105300D02*
X80940000Y-89138633D01*
X80940000Y-89138633D02*
X80873333Y-89138633D01*
X80873333Y-89138633D02*
X80773333Y-89105300D01*
X80773333Y-89105300D02*
X80706667Y-89038633D01*
X80706667Y-89038633D02*
X80673333Y-88971966D01*
X80673333Y-88971966D02*
X80640000Y-88838633D01*
X80640000Y-88838633D02*
X80640000Y-88738633D01*
X80640000Y-88738633D02*
X80673333Y-88605300D01*
X80673333Y-88605300D02*
X80706667Y-88538633D01*
X80706667Y-88538633D02*
X80773333Y-88471966D01*
X80773333Y-88471966D02*
X80873333Y-88438633D01*
X80873333Y-88438633D02*
X80940000Y-88438633D01*
X80940000Y-88438633D02*
X81040000Y-88471966D01*
X81040000Y-88471966D02*
X81073333Y-88505300D01*
X81306667Y-88438633D02*
X81773333Y-88438633D01*
X81773333Y-88438633D02*
X81473333Y-89138633D01*
D11*
X78143333Y-71979366D02*
X78110000Y-72012700D01*
X78110000Y-72012700D02*
X78010000Y-72046033D01*
X78010000Y-72046033D02*
X77943333Y-72046033D01*
X77943333Y-72046033D02*
X77843333Y-72012700D01*
X77843333Y-72012700D02*
X77776667Y-71946033D01*
X77776667Y-71946033D02*
X77743333Y-71879366D01*
X77743333Y-71879366D02*
X77710000Y-71746033D01*
X77710000Y-71746033D02*
X77710000Y-71646033D01*
X77710000Y-71646033D02*
X77743333Y-71512700D01*
X77743333Y-71512700D02*
X77776667Y-71446033D01*
X77776667Y-71446033D02*
X77843333Y-71379366D01*
X77843333Y-71379366D02*
X77943333Y-71346033D01*
X77943333Y-71346033D02*
X78010000Y-71346033D01*
X78010000Y-71346033D02*
X78110000Y-71379366D01*
X78110000Y-71379366D02*
X78143333Y-71412700D01*
X78543333Y-71646033D02*
X78476667Y-71612700D01*
X78476667Y-71612700D02*
X78443333Y-71579366D01*
X78443333Y-71579366D02*
X78410000Y-71512700D01*
X78410000Y-71512700D02*
X78410000Y-71479366D01*
X78410000Y-71479366D02*
X78443333Y-71412700D01*
X78443333Y-71412700D02*
X78476667Y-71379366D01*
X78476667Y-71379366D02*
X78543333Y-71346033D01*
X78543333Y-71346033D02*
X78676667Y-71346033D01*
X78676667Y-71346033D02*
X78743333Y-71379366D01*
X78743333Y-71379366D02*
X78776667Y-71412700D01*
X78776667Y-71412700D02*
X78810000Y-71479366D01*
X78810000Y-71479366D02*
X78810000Y-71512700D01*
X78810000Y-71512700D02*
X78776667Y-71579366D01*
X78776667Y-71579366D02*
X78743333Y-71612700D01*
X78743333Y-71612700D02*
X78676667Y-71646033D01*
X78676667Y-71646033D02*
X78543333Y-71646033D01*
X78543333Y-71646033D02*
X78476667Y-71679366D01*
X78476667Y-71679366D02*
X78443333Y-71712700D01*
X78443333Y-71712700D02*
X78410000Y-71779366D01*
X78410000Y-71779366D02*
X78410000Y-71912700D01*
X78410000Y-71912700D02*
X78443333Y-71979366D01*
X78443333Y-71979366D02*
X78476667Y-72012700D01*
X78476667Y-72012700D02*
X78543333Y-72046033D01*
X78543333Y-72046033D02*
X78676667Y-72046033D01*
X78676667Y-72046033D02*
X78743333Y-72012700D01*
X78743333Y-72012700D02*
X78776667Y-71979366D01*
X78776667Y-71979366D02*
X78810000Y-71912700D01*
X78810000Y-71912700D02*
X78810000Y-71779366D01*
X78810000Y-71779366D02*
X78776667Y-71712700D01*
X78776667Y-71712700D02*
X78743333Y-71679366D01*
X78743333Y-71679366D02*
X78676667Y-71646033D01*
D15*
X84729999Y-78451966D02*
X84696666Y-78485300D01*
X84696666Y-78485300D02*
X84596666Y-78518633D01*
X84596666Y-78518633D02*
X84529999Y-78518633D01*
X84529999Y-78518633D02*
X84429999Y-78485300D01*
X84429999Y-78485300D02*
X84363333Y-78418633D01*
X84363333Y-78418633D02*
X84329999Y-78351966D01*
X84329999Y-78351966D02*
X84296666Y-78218633D01*
X84296666Y-78218633D02*
X84296666Y-78118633D01*
X84296666Y-78118633D02*
X84329999Y-77985300D01*
X84329999Y-77985300D02*
X84363333Y-77918633D01*
X84363333Y-77918633D02*
X84429999Y-77851966D01*
X84429999Y-77851966D02*
X84529999Y-77818633D01*
X84529999Y-77818633D02*
X84596666Y-77818633D01*
X84596666Y-77818633D02*
X84696666Y-77851966D01*
X84696666Y-77851966D02*
X84729999Y-77885300D01*
X85396666Y-78518633D02*
X84996666Y-78518633D01*
X85196666Y-78518633D02*
X85196666Y-77818633D01*
X85196666Y-77818633D02*
X85129999Y-77918633D01*
X85129999Y-77918633D02*
X85063333Y-77985300D01*
X85063333Y-77985300D02*
X84996666Y-78018633D01*
X86063333Y-78518633D02*
X85663333Y-78518633D01*
X85863333Y-78518633D02*
X85863333Y-77818633D01*
X85863333Y-77818633D02*
X85796666Y-77918633D01*
X85796666Y-77918633D02*
X85730000Y-77985300D01*
X85730000Y-77985300D02*
X85663333Y-78018633D01*
D11*
X96319999Y-79799366D02*
X96286666Y-79832700D01*
X96286666Y-79832700D02*
X96186666Y-79866033D01*
X96186666Y-79866033D02*
X96119999Y-79866033D01*
X96119999Y-79866033D02*
X96019999Y-79832700D01*
X96019999Y-79832700D02*
X95953333Y-79766033D01*
X95953333Y-79766033D02*
X95919999Y-79699366D01*
X95919999Y-79699366D02*
X95886666Y-79566033D01*
X95886666Y-79566033D02*
X95886666Y-79466033D01*
X95886666Y-79466033D02*
X95919999Y-79332700D01*
X95919999Y-79332700D02*
X95953333Y-79266033D01*
X95953333Y-79266033D02*
X96019999Y-79199366D01*
X96019999Y-79199366D02*
X96119999Y-79166033D01*
X96119999Y-79166033D02*
X96186666Y-79166033D01*
X96186666Y-79166033D02*
X96286666Y-79199366D01*
X96286666Y-79199366D02*
X96319999Y-79232700D01*
X96586666Y-79232700D02*
X96619999Y-79199366D01*
X96619999Y-79199366D02*
X96686666Y-79166033D01*
X96686666Y-79166033D02*
X96853333Y-79166033D01*
X96853333Y-79166033D02*
X96919999Y-79199366D01*
X96919999Y-79199366D02*
X96953333Y-79232700D01*
X96953333Y-79232700D02*
X96986666Y-79299366D01*
X96986666Y-79299366D02*
X96986666Y-79366033D01*
X96986666Y-79366033D02*
X96953333Y-79466033D01*
X96953333Y-79466033D02*
X96553333Y-79866033D01*
X96553333Y-79866033D02*
X96986666Y-79866033D01*
X97653333Y-79866033D02*
X97253333Y-79866033D01*
X97453333Y-79866033D02*
X97453333Y-79166033D01*
X97453333Y-79166033D02*
X97386666Y-79266033D01*
X97386666Y-79266033D02*
X97320000Y-79332700D01*
X97320000Y-79332700D02*
X97253333Y-79366033D01*
X97479999Y-87539366D02*
X97446666Y-87572700D01*
X97446666Y-87572700D02*
X97346666Y-87606033D01*
X97346666Y-87606033D02*
X97279999Y-87606033D01*
X97279999Y-87606033D02*
X97179999Y-87572700D01*
X97179999Y-87572700D02*
X97113333Y-87506033D01*
X97113333Y-87506033D02*
X97079999Y-87439366D01*
X97079999Y-87439366D02*
X97046666Y-87306033D01*
X97046666Y-87306033D02*
X97046666Y-87206033D01*
X97046666Y-87206033D02*
X97079999Y-87072700D01*
X97079999Y-87072700D02*
X97113333Y-87006033D01*
X97113333Y-87006033D02*
X97179999Y-86939366D01*
X97179999Y-86939366D02*
X97279999Y-86906033D01*
X97279999Y-86906033D02*
X97346666Y-86906033D01*
X97346666Y-86906033D02*
X97446666Y-86939366D01*
X97446666Y-86939366D02*
X97479999Y-86972700D01*
X97746666Y-86972700D02*
X97779999Y-86939366D01*
X97779999Y-86939366D02*
X97846666Y-86906033D01*
X97846666Y-86906033D02*
X98013333Y-86906033D01*
X98013333Y-86906033D02*
X98079999Y-86939366D01*
X98079999Y-86939366D02*
X98113333Y-86972700D01*
X98113333Y-86972700D02*
X98146666Y-87039366D01*
X98146666Y-87039366D02*
X98146666Y-87106033D01*
X98146666Y-87106033D02*
X98113333Y-87206033D01*
X98113333Y-87206033D02*
X97713333Y-87606033D01*
X97713333Y-87606033D02*
X98146666Y-87606033D01*
X98380000Y-86906033D02*
X98813333Y-86906033D01*
X98813333Y-86906033D02*
X98580000Y-87172700D01*
X98580000Y-87172700D02*
X98680000Y-87172700D01*
X98680000Y-87172700D02*
X98746666Y-87206033D01*
X98746666Y-87206033D02*
X98780000Y-87239366D01*
X98780000Y-87239366D02*
X98813333Y-87306033D01*
X98813333Y-87306033D02*
X98813333Y-87472700D01*
X98813333Y-87472700D02*
X98780000Y-87539366D01*
X98780000Y-87539366D02*
X98746666Y-87572700D01*
X98746666Y-87572700D02*
X98680000Y-87606033D01*
X98680000Y-87606033D02*
X98480000Y-87606033D01*
X98480000Y-87606033D02*
X98413333Y-87572700D01*
X98413333Y-87572700D02*
X98380000Y-87539366D01*
X114889999Y-87796366D02*
X114856666Y-87829700D01*
X114856666Y-87829700D02*
X114756666Y-87863033D01*
X114756666Y-87863033D02*
X114689999Y-87863033D01*
X114689999Y-87863033D02*
X114589999Y-87829700D01*
X114589999Y-87829700D02*
X114523333Y-87763033D01*
X114523333Y-87763033D02*
X114489999Y-87696366D01*
X114489999Y-87696366D02*
X114456666Y-87563033D01*
X114456666Y-87563033D02*
X114456666Y-87463033D01*
X114456666Y-87463033D02*
X114489999Y-87329700D01*
X114489999Y-87329700D02*
X114523333Y-87263033D01*
X114523333Y-87263033D02*
X114589999Y-87196366D01*
X114589999Y-87196366D02*
X114689999Y-87163033D01*
X114689999Y-87163033D02*
X114756666Y-87163033D01*
X114756666Y-87163033D02*
X114856666Y-87196366D01*
X114856666Y-87196366D02*
X114889999Y-87229700D01*
X115156666Y-87229700D02*
X115189999Y-87196366D01*
X115189999Y-87196366D02*
X115256666Y-87163033D01*
X115256666Y-87163033D02*
X115423333Y-87163033D01*
X115423333Y-87163033D02*
X115489999Y-87196366D01*
X115489999Y-87196366D02*
X115523333Y-87229700D01*
X115523333Y-87229700D02*
X115556666Y-87296366D01*
X115556666Y-87296366D02*
X115556666Y-87363033D01*
X115556666Y-87363033D02*
X115523333Y-87463033D01*
X115523333Y-87463033D02*
X115123333Y-87863033D01*
X115123333Y-87863033D02*
X115556666Y-87863033D01*
X116156666Y-87396366D02*
X116156666Y-87863033D01*
X115990000Y-87129700D02*
X115823333Y-87629700D01*
X115823333Y-87629700D02*
X116256666Y-87629700D01*
X61519999Y-61419366D02*
X61486666Y-61452700D01*
X61486666Y-61452700D02*
X61386666Y-61486033D01*
X61386666Y-61486033D02*
X61319999Y-61486033D01*
X61319999Y-61486033D02*
X61219999Y-61452700D01*
X61219999Y-61452700D02*
X61153333Y-61386033D01*
X61153333Y-61386033D02*
X61119999Y-61319366D01*
X61119999Y-61319366D02*
X61086666Y-61186033D01*
X61086666Y-61186033D02*
X61086666Y-61086033D01*
X61086666Y-61086033D02*
X61119999Y-60952700D01*
X61119999Y-60952700D02*
X61153333Y-60886033D01*
X61153333Y-60886033D02*
X61219999Y-60819366D01*
X61219999Y-60819366D02*
X61319999Y-60786033D01*
X61319999Y-60786033D02*
X61386666Y-60786033D01*
X61386666Y-60786033D02*
X61486666Y-60819366D01*
X61486666Y-60819366D02*
X61519999Y-60852700D01*
X61786666Y-60852700D02*
X61819999Y-60819366D01*
X61819999Y-60819366D02*
X61886666Y-60786033D01*
X61886666Y-60786033D02*
X62053333Y-60786033D01*
X62053333Y-60786033D02*
X62119999Y-60819366D01*
X62119999Y-60819366D02*
X62153333Y-60852700D01*
X62153333Y-60852700D02*
X62186666Y-60919366D01*
X62186666Y-60919366D02*
X62186666Y-60986033D01*
X62186666Y-60986033D02*
X62153333Y-61086033D01*
X62153333Y-61086033D02*
X61753333Y-61486033D01*
X61753333Y-61486033D02*
X62186666Y-61486033D01*
X62820000Y-60786033D02*
X62486666Y-60786033D01*
X62486666Y-60786033D02*
X62453333Y-61119366D01*
X62453333Y-61119366D02*
X62486666Y-61086033D01*
X62486666Y-61086033D02*
X62553333Y-61052700D01*
X62553333Y-61052700D02*
X62720000Y-61052700D01*
X62720000Y-61052700D02*
X62786666Y-61086033D01*
X62786666Y-61086033D02*
X62820000Y-61119366D01*
X62820000Y-61119366D02*
X62853333Y-61186033D01*
X62853333Y-61186033D02*
X62853333Y-61352700D01*
X62853333Y-61352700D02*
X62820000Y-61419366D01*
X62820000Y-61419366D02*
X62786666Y-61452700D01*
X62786666Y-61452700D02*
X62720000Y-61486033D01*
X62720000Y-61486033D02*
X62553333Y-61486033D01*
X62553333Y-61486033D02*
X62486666Y-61452700D01*
X62486666Y-61452700D02*
X62453333Y-61419366D01*
D14*
X85587857Y-91773365D02*
X85527381Y-91833842D01*
X85527381Y-91833842D02*
X85345952Y-91894318D01*
X85345952Y-91894318D02*
X85225000Y-91894318D01*
X85225000Y-91894318D02*
X85043571Y-91833842D01*
X85043571Y-91833842D02*
X84922619Y-91712889D01*
X84922619Y-91712889D02*
X84862142Y-91591937D01*
X84862142Y-91591937D02*
X84801666Y-91350032D01*
X84801666Y-91350032D02*
X84801666Y-91168603D01*
X84801666Y-91168603D02*
X84862142Y-90926699D01*
X84862142Y-90926699D02*
X84922619Y-90805746D01*
X84922619Y-90805746D02*
X85043571Y-90684794D01*
X85043571Y-90684794D02*
X85225000Y-90624318D01*
X85225000Y-90624318D02*
X85345952Y-90624318D01*
X85345952Y-90624318D02*
X85527381Y-90684794D01*
X85527381Y-90684794D02*
X85587857Y-90745270D01*
X86374047Y-90624318D02*
X86615952Y-90624318D01*
X86615952Y-90624318D02*
X86736904Y-90684794D01*
X86736904Y-90684794D02*
X86857857Y-90805746D01*
X86857857Y-90805746D02*
X86918333Y-91047651D01*
X86918333Y-91047651D02*
X86918333Y-91470984D01*
X86918333Y-91470984D02*
X86857857Y-91712889D01*
X86857857Y-91712889D02*
X86736904Y-91833842D01*
X86736904Y-91833842D02*
X86615952Y-91894318D01*
X86615952Y-91894318D02*
X86374047Y-91894318D01*
X86374047Y-91894318D02*
X86253095Y-91833842D01*
X86253095Y-91833842D02*
X86132142Y-91712889D01*
X86132142Y-91712889D02*
X86071666Y-91470984D01*
X86071666Y-91470984D02*
X86071666Y-91047651D01*
X86071666Y-91047651D02*
X86132142Y-90805746D01*
X86132142Y-90805746D02*
X86253095Y-90684794D01*
X86253095Y-90684794D02*
X86374047Y-90624318D01*
X87462618Y-91894318D02*
X87462618Y-90624318D01*
X87462618Y-90624318D02*
X88188333Y-91894318D01*
X88188333Y-91894318D02*
X88188333Y-90624318D01*
X89458333Y-91894318D02*
X88732618Y-91894318D01*
X89095475Y-91894318D02*
X89095475Y-90624318D01*
X89095475Y-90624318D02*
X88974523Y-90805746D01*
X88974523Y-90805746D02*
X88853571Y-90926699D01*
X88853571Y-90926699D02*
X88732618Y-90987175D01*
D16*
X68111309Y-81645508D02*
X68111309Y-81010508D01*
X68111309Y-81010508D02*
X68262499Y-81010508D01*
X68262499Y-81010508D02*
X68353214Y-81040746D01*
X68353214Y-81040746D02*
X68413690Y-81101222D01*
X68413690Y-81101222D02*
X68443928Y-81161698D01*
X68443928Y-81161698D02*
X68474166Y-81282650D01*
X68474166Y-81282650D02*
X68474166Y-81373365D01*
X68474166Y-81373365D02*
X68443928Y-81494317D01*
X68443928Y-81494317D02*
X68413690Y-81554793D01*
X68413690Y-81554793D02*
X68353214Y-81615270D01*
X68353214Y-81615270D02*
X68262499Y-81645508D01*
X68262499Y-81645508D02*
X68111309Y-81645508D01*
X69078928Y-81645508D02*
X68716071Y-81645508D01*
X68897499Y-81645508D02*
X68897499Y-81010508D01*
X68897499Y-81010508D02*
X68837023Y-81101222D01*
X68837023Y-81101222D02*
X68776547Y-81161698D01*
X68776547Y-81161698D02*
X68716071Y-81191936D01*
X84981309Y-82505508D02*
X84981309Y-81870508D01*
X84981309Y-81870508D02*
X85132499Y-81870508D01*
X85132499Y-81870508D02*
X85223214Y-81900746D01*
X85223214Y-81900746D02*
X85283690Y-81961222D01*
X85283690Y-81961222D02*
X85313928Y-82021698D01*
X85313928Y-82021698D02*
X85344166Y-82142650D01*
X85344166Y-82142650D02*
X85344166Y-82233365D01*
X85344166Y-82233365D02*
X85313928Y-82354317D01*
X85313928Y-82354317D02*
X85283690Y-82414793D01*
X85283690Y-82414793D02*
X85223214Y-82475270D01*
X85223214Y-82475270D02*
X85132499Y-82505508D01*
X85132499Y-82505508D02*
X84981309Y-82505508D01*
X85555833Y-81870508D02*
X85948928Y-81870508D01*
X85948928Y-81870508D02*
X85737261Y-82112412D01*
X85737261Y-82112412D02*
X85827976Y-82112412D01*
X85827976Y-82112412D02*
X85888452Y-82142650D01*
X85888452Y-82142650D02*
X85918690Y-82172889D01*
X85918690Y-82172889D02*
X85948928Y-82233365D01*
X85948928Y-82233365D02*
X85948928Y-82384555D01*
X85948928Y-82384555D02*
X85918690Y-82445031D01*
X85918690Y-82445031D02*
X85888452Y-82475270D01*
X85888452Y-82475270D02*
X85827976Y-82505508D01*
X85827976Y-82505508D02*
X85646547Y-82505508D01*
X85646547Y-82505508D02*
X85586071Y-82475270D01*
X85586071Y-82475270D02*
X85555833Y-82445031D01*
X77125309Y-89523508D02*
X77125309Y-88888508D01*
X77125309Y-88888508D02*
X77276499Y-88888508D01*
X77276499Y-88888508D02*
X77367214Y-88918746D01*
X77367214Y-88918746D02*
X77427690Y-88979222D01*
X77427690Y-88979222D02*
X77457928Y-89039698D01*
X77457928Y-89039698D02*
X77488166Y-89160650D01*
X77488166Y-89160650D02*
X77488166Y-89251365D01*
X77488166Y-89251365D02*
X77457928Y-89372317D01*
X77457928Y-89372317D02*
X77427690Y-89432793D01*
X77427690Y-89432793D02*
X77367214Y-89493270D01*
X77367214Y-89493270D02*
X77276499Y-89523508D01*
X77276499Y-89523508D02*
X77125309Y-89523508D01*
X78032452Y-89100174D02*
X78032452Y-89523508D01*
X77881261Y-88858270D02*
X77730071Y-89311841D01*
X77730071Y-89311841D02*
X78123166Y-89311841D01*
X74501309Y-53455508D02*
X74501309Y-52820508D01*
X74501309Y-52820508D02*
X74652499Y-52820508D01*
X74652499Y-52820508D02*
X74743214Y-52850746D01*
X74743214Y-52850746D02*
X74803690Y-52911222D01*
X74803690Y-52911222D02*
X74833928Y-52971698D01*
X74833928Y-52971698D02*
X74864166Y-53092650D01*
X74864166Y-53092650D02*
X74864166Y-53183365D01*
X74864166Y-53183365D02*
X74833928Y-53304317D01*
X74833928Y-53304317D02*
X74803690Y-53364793D01*
X74803690Y-53364793D02*
X74743214Y-53425270D01*
X74743214Y-53425270D02*
X74652499Y-53455508D01*
X74652499Y-53455508D02*
X74501309Y-53455508D01*
X75438690Y-52820508D02*
X75136309Y-52820508D01*
X75136309Y-52820508D02*
X75106071Y-53122889D01*
X75106071Y-53122889D02*
X75136309Y-53092650D01*
X75136309Y-53092650D02*
X75196785Y-53062412D01*
X75196785Y-53062412D02*
X75347976Y-53062412D01*
X75347976Y-53062412D02*
X75408452Y-53092650D01*
X75408452Y-53092650D02*
X75438690Y-53122889D01*
X75438690Y-53122889D02*
X75468928Y-53183365D01*
X75468928Y-53183365D02*
X75468928Y-53334555D01*
X75468928Y-53334555D02*
X75438690Y-53395031D01*
X75438690Y-53395031D02*
X75408452Y-53425270D01*
X75408452Y-53425270D02*
X75347976Y-53455508D01*
X75347976Y-53455508D02*
X75196785Y-53455508D01*
X75196785Y-53455508D02*
X75136309Y-53425270D01*
X75136309Y-53425270D02*
X75106071Y-53395031D01*
D11*
X76563334Y-79679366D02*
X76330000Y-79679366D01*
X76330000Y-80046033D02*
X76330000Y-79346033D01*
X76330000Y-79346033D02*
X76663334Y-79346033D01*
X76930000Y-79679366D02*
X77163334Y-79679366D01*
X77263334Y-80046033D02*
X76930000Y-80046033D01*
X76930000Y-80046033D02*
X76930000Y-79346033D01*
X76930000Y-79346033D02*
X77263334Y-79346033D01*
X77463333Y-79346033D02*
X77863333Y-79346033D01*
X77663333Y-80046033D02*
X77663333Y-79346033D01*
X78063333Y-79412700D02*
X78096666Y-79379366D01*
X78096666Y-79379366D02*
X78163333Y-79346033D01*
X78163333Y-79346033D02*
X78330000Y-79346033D01*
X78330000Y-79346033D02*
X78396666Y-79379366D01*
X78396666Y-79379366D02*
X78430000Y-79412700D01*
X78430000Y-79412700D02*
X78463333Y-79479366D01*
X78463333Y-79479366D02*
X78463333Y-79546033D01*
X78463333Y-79546033D02*
X78430000Y-79646033D01*
X78430000Y-79646033D02*
X78030000Y-80046033D01*
X78030000Y-80046033D02*
X78463333Y-80046033D01*
D17*
X73843228Y-59330000D02*
X73843228Y-59630000D01*
X74314657Y-59630000D02*
X73414657Y-59630000D01*
X73414657Y-59630000D02*
X73414657Y-59201428D01*
X73843228Y-58858571D02*
X73843228Y-58558571D01*
X74314657Y-58429999D02*
X74314657Y-58858571D01*
X74314657Y-58858571D02*
X73414657Y-58858571D01*
X73414657Y-58858571D02*
X73414657Y-58429999D01*
X73414657Y-58172856D02*
X73414657Y-57658571D01*
X74314657Y-57915713D02*
X73414657Y-57915713D01*
X73414657Y-57444285D02*
X73414657Y-56887142D01*
X73414657Y-56887142D02*
X73757514Y-57187142D01*
X73757514Y-57187142D02*
X73757514Y-57058571D01*
X73757514Y-57058571D02*
X73800371Y-56972857D01*
X73800371Y-56972857D02*
X73843228Y-56929999D01*
X73843228Y-56929999D02*
X73928942Y-56887142D01*
X73928942Y-56887142D02*
X74143228Y-56887142D01*
X74143228Y-56887142D02*
X74228942Y-56929999D01*
X74228942Y-56929999D02*
X74271800Y-56972857D01*
X74271800Y-56972857D02*
X74314657Y-57058571D01*
X74314657Y-57058571D02*
X74314657Y-57315714D01*
X74314657Y-57315714D02*
X74271800Y-57401428D01*
X74271800Y-57401428D02*
X74228942Y-57444285D01*
D14*
X120164794Y-78854761D02*
X120104318Y-78975714D01*
X120104318Y-78975714D02*
X120104318Y-79157142D01*
X120104318Y-79157142D02*
X120164794Y-79338571D01*
X120164794Y-79338571D02*
X120285746Y-79459523D01*
X120285746Y-79459523D02*
X120406699Y-79520000D01*
X120406699Y-79520000D02*
X120648603Y-79580476D01*
X120648603Y-79580476D02*
X120830032Y-79580476D01*
X120830032Y-79580476D02*
X121071937Y-79520000D01*
X121071937Y-79520000D02*
X121192889Y-79459523D01*
X121192889Y-79459523D02*
X121313842Y-79338571D01*
X121313842Y-79338571D02*
X121374318Y-79157142D01*
X121374318Y-79157142D02*
X121374318Y-79036190D01*
X121374318Y-79036190D02*
X121313842Y-78854761D01*
X121313842Y-78854761D02*
X121253365Y-78794285D01*
X121253365Y-78794285D02*
X120830032Y-78794285D01*
X120830032Y-78794285D02*
X120830032Y-79036190D01*
X121374318Y-78250000D02*
X120104318Y-78250000D01*
X120104318Y-78250000D02*
X120104318Y-77766190D01*
X120104318Y-77766190D02*
X120164794Y-77645238D01*
X120164794Y-77645238D02*
X120225270Y-77584761D01*
X120225270Y-77584761D02*
X120346222Y-77524285D01*
X120346222Y-77524285D02*
X120527651Y-77524285D01*
X120527651Y-77524285D02*
X120648603Y-77584761D01*
X120648603Y-77584761D02*
X120709080Y-77645238D01*
X120709080Y-77645238D02*
X120769556Y-77766190D01*
X120769556Y-77766190D02*
X120769556Y-78250000D01*
X121374318Y-76980000D02*
X120104318Y-76980000D01*
X120104318Y-76133333D02*
X120104318Y-75891428D01*
X120104318Y-75891428D02*
X120164794Y-75770476D01*
X120164794Y-75770476D02*
X120285746Y-75649523D01*
X120285746Y-75649523D02*
X120527651Y-75589047D01*
X120527651Y-75589047D02*
X120950984Y-75589047D01*
X120950984Y-75589047D02*
X121192889Y-75649523D01*
X121192889Y-75649523D02*
X121313842Y-75770476D01*
X121313842Y-75770476D02*
X121374318Y-75891428D01*
X121374318Y-75891428D02*
X121374318Y-76133333D01*
X121374318Y-76133333D02*
X121313842Y-76254285D01*
X121313842Y-76254285D02*
X121192889Y-76375238D01*
X121192889Y-76375238D02*
X120950984Y-76435714D01*
X120950984Y-76435714D02*
X120527651Y-76435714D01*
X120527651Y-76435714D02*
X120285746Y-76375238D01*
X120285746Y-76375238D02*
X120164794Y-76254285D01*
X120164794Y-76254285D02*
X120104318Y-76133333D01*
X121374318Y-74379523D02*
X121374318Y-75105238D01*
X121374318Y-74742381D02*
X120104318Y-74742381D01*
X120104318Y-74742381D02*
X120285746Y-74863333D01*
X120285746Y-74863333D02*
X120406699Y-74984285D01*
X120406699Y-74984285D02*
X120467175Y-75105238D01*
D11*
X83733333Y-89554819D02*
X83257143Y-89554819D01*
X83257143Y-89554819D02*
X83257143Y-88554819D01*
X84590476Y-89554819D02*
X84019048Y-89554819D01*
X84304762Y-89554819D02*
X84304762Y-88554819D01*
X84304762Y-88554819D02*
X84209524Y-88697676D01*
X84209524Y-88697676D02*
X84114286Y-88792914D01*
X84114286Y-88792914D02*
X84019048Y-88840533D01*
D15*
X69824404Y-94209563D02*
X69522023Y-94209563D01*
X69522023Y-94209563D02*
X69522023Y-93574563D01*
X70036071Y-93876944D02*
X70247738Y-93876944D01*
X70338452Y-94209563D02*
X70036071Y-94209563D01*
X70036071Y-94209563D02*
X70036071Y-93574563D01*
X70036071Y-93574563D02*
X70338452Y-93574563D01*
X70610595Y-94209563D02*
X70610595Y-93574563D01*
X70610595Y-93574563D02*
X70761785Y-93574563D01*
X70761785Y-93574563D02*
X70852500Y-93604801D01*
X70852500Y-93604801D02*
X70912976Y-93665277D01*
X70912976Y-93665277D02*
X70943214Y-93725753D01*
X70943214Y-93725753D02*
X70973452Y-93846705D01*
X70973452Y-93846705D02*
X70973452Y-93937420D01*
X70973452Y-93937420D02*
X70943214Y-94058372D01*
X70943214Y-94058372D02*
X70912976Y-94118848D01*
X70912976Y-94118848D02*
X70852500Y-94179325D01*
X70852500Y-94179325D02*
X70761785Y-94209563D01*
X70761785Y-94209563D02*
X70610595Y-94209563D01*
X71578214Y-94209563D02*
X71215357Y-94209563D01*
X71396785Y-94209563D02*
X71396785Y-93574563D01*
X71396785Y-93574563D02*
X71336309Y-93665277D01*
X71336309Y-93665277D02*
X71275833Y-93725753D01*
X71275833Y-93725753D02*
X71215357Y-93755991D01*
D18*
X76364761Y-51469695D02*
X75983809Y-51469695D01*
X75983809Y-51469695D02*
X75983809Y-50669695D01*
X76631428Y-51050647D02*
X76898094Y-51050647D01*
X77012380Y-51469695D02*
X76631428Y-51469695D01*
X76631428Y-51469695D02*
X76631428Y-50669695D01*
X76631428Y-50669695D02*
X77012380Y-50669695D01*
X77355238Y-51469695D02*
X77355238Y-50669695D01*
X77355238Y-50669695D02*
X77545714Y-50669695D01*
X77545714Y-50669695D02*
X77660000Y-50707790D01*
X77660000Y-50707790D02*
X77736190Y-50783980D01*
X77736190Y-50783980D02*
X77774285Y-50860171D01*
X77774285Y-50860171D02*
X77812381Y-51012552D01*
X77812381Y-51012552D02*
X77812381Y-51126838D01*
X77812381Y-51126838D02*
X77774285Y-51279219D01*
X77774285Y-51279219D02*
X77736190Y-51355409D01*
X77736190Y-51355409D02*
X77660000Y-51431600D01*
X77660000Y-51431600D02*
X77545714Y-51469695D01*
X77545714Y-51469695D02*
X77355238Y-51469695D01*
X78117142Y-50745885D02*
X78155238Y-50707790D01*
X78155238Y-50707790D02*
X78231428Y-50669695D01*
X78231428Y-50669695D02*
X78421904Y-50669695D01*
X78421904Y-50669695D02*
X78498095Y-50707790D01*
X78498095Y-50707790D02*
X78536190Y-50745885D01*
X78536190Y-50745885D02*
X78574285Y-50822076D01*
X78574285Y-50822076D02*
X78574285Y-50898266D01*
X78574285Y-50898266D02*
X78536190Y-51012552D01*
X78536190Y-51012552D02*
X78079047Y-51469695D01*
X78079047Y-51469695D02*
X78574285Y-51469695D01*
X79464761Y-51449695D02*
X79083809Y-51449695D01*
X79083809Y-51449695D02*
X79083809Y-50649695D01*
X79731428Y-51030647D02*
X79998094Y-51030647D01*
X80112380Y-51449695D02*
X79731428Y-51449695D01*
X79731428Y-51449695D02*
X79731428Y-50649695D01*
X79731428Y-50649695D02*
X80112380Y-50649695D01*
X80455238Y-51449695D02*
X80455238Y-50649695D01*
X80455238Y-50649695D02*
X80645714Y-50649695D01*
X80645714Y-50649695D02*
X80760000Y-50687790D01*
X80760000Y-50687790D02*
X80836190Y-50763980D01*
X80836190Y-50763980D02*
X80874285Y-50840171D01*
X80874285Y-50840171D02*
X80912381Y-50992552D01*
X80912381Y-50992552D02*
X80912381Y-51106838D01*
X80912381Y-51106838D02*
X80874285Y-51259219D01*
X80874285Y-51259219D02*
X80836190Y-51335409D01*
X80836190Y-51335409D02*
X80760000Y-51411600D01*
X80760000Y-51411600D02*
X80645714Y-51449695D01*
X80645714Y-51449695D02*
X80455238Y-51449695D01*
X81179047Y-50649695D02*
X81674285Y-50649695D01*
X81674285Y-50649695D02*
X81407619Y-50954457D01*
X81407619Y-50954457D02*
X81521904Y-50954457D01*
X81521904Y-50954457D02*
X81598095Y-50992552D01*
X81598095Y-50992552D02*
X81636190Y-51030647D01*
X81636190Y-51030647D02*
X81674285Y-51106838D01*
X81674285Y-51106838D02*
X81674285Y-51297314D01*
X81674285Y-51297314D02*
X81636190Y-51373504D01*
X81636190Y-51373504D02*
X81598095Y-51411600D01*
X81598095Y-51411600D02*
X81521904Y-51449695D01*
X81521904Y-51449695D02*
X81293333Y-51449695D01*
X81293333Y-51449695D02*
X81217142Y-51411600D01*
X81217142Y-51411600D02*
X81179047Y-51373504D01*
D14*
X124698538Y-54664702D02*
X123428538Y-54664702D01*
X123428538Y-54664702D02*
X123428538Y-54362321D01*
X123428538Y-54362321D02*
X123489014Y-54180892D01*
X123489014Y-54180892D02*
X123609966Y-54059940D01*
X123609966Y-54059940D02*
X123730919Y-53999463D01*
X123730919Y-53999463D02*
X123972823Y-53938987D01*
X123972823Y-53938987D02*
X124154252Y-53938987D01*
X124154252Y-53938987D02*
X124396157Y-53999463D01*
X124396157Y-53999463D02*
X124517109Y-54059940D01*
X124517109Y-54059940D02*
X124638062Y-54180892D01*
X124638062Y-54180892D02*
X124698538Y-54362321D01*
X124698538Y-54362321D02*
X124698538Y-54664702D01*
X123428538Y-53152797D02*
X123428538Y-53031844D01*
X123428538Y-53031844D02*
X123489014Y-52910892D01*
X123489014Y-52910892D02*
X123549490Y-52850416D01*
X123549490Y-52850416D02*
X123670442Y-52789940D01*
X123670442Y-52789940D02*
X123912347Y-52729463D01*
X123912347Y-52729463D02*
X124214728Y-52729463D01*
X124214728Y-52729463D02*
X124456633Y-52789940D01*
X124456633Y-52789940D02*
X124577585Y-52850416D01*
X124577585Y-52850416D02*
X124638062Y-52910892D01*
X124638062Y-52910892D02*
X124698538Y-53031844D01*
X124698538Y-53031844D02*
X124698538Y-53152797D01*
X124698538Y-53152797D02*
X124638062Y-53273749D01*
X124638062Y-53273749D02*
X124577585Y-53334225D01*
X124577585Y-53334225D02*
X124456633Y-53394702D01*
X124456633Y-53394702D02*
X124214728Y-53455178D01*
X124214728Y-53455178D02*
X123912347Y-53455178D01*
X123912347Y-53455178D02*
X123670442Y-53394702D01*
X123670442Y-53394702D02*
X123549490Y-53334225D01*
X123549490Y-53334225D02*
X123489014Y-53273749D01*
X123489014Y-53273749D02*
X123428538Y-53152797D01*
D19*
X113365506Y-46451911D02*
X113365506Y-45689911D01*
X113365506Y-45689911D02*
X113546935Y-45689911D01*
X113546935Y-45689911D02*
X113655792Y-45726197D01*
X113655792Y-45726197D02*
X113728363Y-45798768D01*
X113728363Y-45798768D02*
X113764649Y-45871340D01*
X113764649Y-45871340D02*
X113800935Y-46016483D01*
X113800935Y-46016483D02*
X113800935Y-46125340D01*
X113800935Y-46125340D02*
X113764649Y-46270483D01*
X113764649Y-46270483D02*
X113728363Y-46343054D01*
X113728363Y-46343054D02*
X113655792Y-46415626D01*
X113655792Y-46415626D02*
X113546935Y-46451911D01*
X113546935Y-46451911D02*
X113365506Y-46451911D01*
X114127506Y-46451911D02*
X114127506Y-45689911D01*
X114889506Y-45726197D02*
X114816935Y-45689911D01*
X114816935Y-45689911D02*
X114708077Y-45689911D01*
X114708077Y-45689911D02*
X114599220Y-45726197D01*
X114599220Y-45726197D02*
X114526649Y-45798768D01*
X114526649Y-45798768D02*
X114490363Y-45871340D01*
X114490363Y-45871340D02*
X114454077Y-46016483D01*
X114454077Y-46016483D02*
X114454077Y-46125340D01*
X114454077Y-46125340D02*
X114490363Y-46270483D01*
X114490363Y-46270483D02*
X114526649Y-46343054D01*
X114526649Y-46343054D02*
X114599220Y-46415626D01*
X114599220Y-46415626D02*
X114708077Y-46451911D01*
X114708077Y-46451911D02*
X114780649Y-46451911D01*
X114780649Y-46451911D02*
X114889506Y-46415626D01*
X114889506Y-46415626D02*
X114925792Y-46379340D01*
X114925792Y-46379340D02*
X114925792Y-46125340D01*
X114925792Y-46125340D02*
X114780649Y-46125340D01*
X115252363Y-46451911D02*
X115252363Y-45689911D01*
X115506363Y-45689911D02*
X115941792Y-45689911D01*
X115724077Y-46451911D02*
X115724077Y-45689911D01*
X116159505Y-46234197D02*
X116522363Y-46234197D01*
X116086934Y-46451911D02*
X116340934Y-45689911D01*
X116340934Y-45689911D02*
X116594934Y-46451911D01*
X117211791Y-46451911D02*
X116848934Y-46451911D01*
X116848934Y-46451911D02*
X116848934Y-45689911D01*
D20*
X92198673Y-55215035D02*
X91182673Y-55215035D01*
X91182673Y-55215035D02*
X91182673Y-54973130D01*
X91182673Y-54973130D02*
X91231054Y-54827987D01*
X91231054Y-54827987D02*
X91327816Y-54731225D01*
X91327816Y-54731225D02*
X91424578Y-54682844D01*
X91424578Y-54682844D02*
X91618102Y-54634463D01*
X91618102Y-54634463D02*
X91763245Y-54634463D01*
X91763245Y-54634463D02*
X91956769Y-54682844D01*
X91956769Y-54682844D02*
X92053531Y-54731225D01*
X92053531Y-54731225D02*
X92150293Y-54827987D01*
X92150293Y-54827987D02*
X92198673Y-54973130D01*
X92198673Y-54973130D02*
X92198673Y-55215035D01*
X92198673Y-53666844D02*
X92198673Y-54247416D01*
X92198673Y-53957130D02*
X91182673Y-53957130D01*
X91182673Y-53957130D02*
X91327816Y-54053892D01*
X91327816Y-54053892D02*
X91424578Y-54150654D01*
X91424578Y-54150654D02*
X91472959Y-54247416D01*
X91279435Y-53279797D02*
X91231054Y-53231416D01*
X91231054Y-53231416D02*
X91182673Y-53134654D01*
X91182673Y-53134654D02*
X91182673Y-52892749D01*
X91182673Y-52892749D02*
X91231054Y-52795987D01*
X91231054Y-52795987D02*
X91279435Y-52747606D01*
X91279435Y-52747606D02*
X91376197Y-52699225D01*
X91376197Y-52699225D02*
X91472959Y-52699225D01*
X91472959Y-52699225D02*
X91618102Y-52747606D01*
X91618102Y-52747606D02*
X92198673Y-53328178D01*
X92198673Y-53328178D02*
X92198673Y-52699225D01*
X94738673Y-55215035D02*
X93722673Y-55215035D01*
X93722673Y-55215035D02*
X93722673Y-54973130D01*
X93722673Y-54973130D02*
X93771054Y-54827987D01*
X93771054Y-54827987D02*
X93867816Y-54731225D01*
X93867816Y-54731225D02*
X93964578Y-54682844D01*
X93964578Y-54682844D02*
X94158102Y-54634463D01*
X94158102Y-54634463D02*
X94303245Y-54634463D01*
X94303245Y-54634463D02*
X94496769Y-54682844D01*
X94496769Y-54682844D02*
X94593531Y-54731225D01*
X94593531Y-54731225D02*
X94690293Y-54827987D01*
X94690293Y-54827987D02*
X94738673Y-54973130D01*
X94738673Y-54973130D02*
X94738673Y-55215035D01*
X94738673Y-53666844D02*
X94738673Y-54247416D01*
X94738673Y-53957130D02*
X93722673Y-53957130D01*
X93722673Y-53957130D02*
X93867816Y-54053892D01*
X93867816Y-54053892D02*
X93964578Y-54150654D01*
X93964578Y-54150654D02*
X94012959Y-54247416D01*
X94738673Y-52699225D02*
X94738673Y-53279797D01*
X94738673Y-52989511D02*
X93722673Y-52989511D01*
X93722673Y-52989511D02*
X93867816Y-53086273D01*
X93867816Y-53086273D02*
X93964578Y-53183035D01*
X93964578Y-53183035D02*
X94012959Y-53279797D01*
X86151054Y-54755415D02*
X86102673Y-54852177D01*
X86102673Y-54852177D02*
X86102673Y-54997320D01*
X86102673Y-54997320D02*
X86151054Y-55142463D01*
X86151054Y-55142463D02*
X86247816Y-55239225D01*
X86247816Y-55239225D02*
X86344578Y-55287606D01*
X86344578Y-55287606D02*
X86538102Y-55335987D01*
X86538102Y-55335987D02*
X86683245Y-55335987D01*
X86683245Y-55335987D02*
X86876769Y-55287606D01*
X86876769Y-55287606D02*
X86973531Y-55239225D01*
X86973531Y-55239225D02*
X87070293Y-55142463D01*
X87070293Y-55142463D02*
X87118673Y-54997320D01*
X87118673Y-54997320D02*
X87118673Y-54900558D01*
X87118673Y-54900558D02*
X87070293Y-54755415D01*
X87070293Y-54755415D02*
X87021912Y-54707034D01*
X87021912Y-54707034D02*
X86683245Y-54707034D01*
X86683245Y-54707034D02*
X86683245Y-54900558D01*
X87118673Y-54271606D02*
X86102673Y-54271606D01*
X86102673Y-54271606D02*
X87118673Y-53691034D01*
X87118673Y-53691034D02*
X86102673Y-53691034D01*
X87118673Y-53207225D02*
X86102673Y-53207225D01*
X86102673Y-53207225D02*
X86102673Y-52965320D01*
X86102673Y-52965320D02*
X86151054Y-52820177D01*
X86151054Y-52820177D02*
X86247816Y-52723415D01*
X86247816Y-52723415D02*
X86344578Y-52675034D01*
X86344578Y-52675034D02*
X86538102Y-52626653D01*
X86538102Y-52626653D02*
X86683245Y-52626653D01*
X86683245Y-52626653D02*
X86876769Y-52675034D01*
X86876769Y-52675034D02*
X86973531Y-52723415D01*
X86973531Y-52723415D02*
X87070293Y-52820177D01*
X87070293Y-52820177D02*
X87118673Y-52965320D01*
X87118673Y-52965320D02*
X87118673Y-53207225D01*
D14*
X116715681Y-91464463D02*
X116715681Y-90859701D01*
X117078538Y-91585415D02*
X115808538Y-91162082D01*
X115808538Y-91162082D02*
X117078538Y-90738748D01*
X115929490Y-90375892D02*
X115869014Y-90315416D01*
X115869014Y-90315416D02*
X115808538Y-90194463D01*
X115808538Y-90194463D02*
X115808538Y-89892082D01*
X115808538Y-89892082D02*
X115869014Y-89771130D01*
X115869014Y-89771130D02*
X115929490Y-89710654D01*
X115929490Y-89710654D02*
X116050442Y-89650177D01*
X116050442Y-89650177D02*
X116171395Y-89650177D01*
X116171395Y-89650177D02*
X116352823Y-89710654D01*
X116352823Y-89710654D02*
X117078538Y-90436368D01*
X117078538Y-90436368D02*
X117078538Y-89650177D01*
X117078538Y-54664702D02*
X115808538Y-54664702D01*
X115808538Y-54664702D02*
X115808538Y-54362321D01*
X115808538Y-54362321D02*
X115869014Y-54180892D01*
X115869014Y-54180892D02*
X115989966Y-54059940D01*
X115989966Y-54059940D02*
X116110919Y-53999463D01*
X116110919Y-53999463D02*
X116352823Y-53938987D01*
X116352823Y-53938987D02*
X116534252Y-53938987D01*
X116534252Y-53938987D02*
X116776157Y-53999463D01*
X116776157Y-53999463D02*
X116897109Y-54059940D01*
X116897109Y-54059940D02*
X117018062Y-54180892D01*
X117018062Y-54180892D02*
X117078538Y-54362321D01*
X117078538Y-54362321D02*
X117078538Y-54664702D01*
X115808538Y-53515654D02*
X115808538Y-52729463D01*
X115808538Y-52729463D02*
X116292347Y-53152797D01*
X116292347Y-53152797D02*
X116292347Y-52971368D01*
X116292347Y-52971368D02*
X116352823Y-52850416D01*
X116352823Y-52850416D02*
X116413300Y-52789940D01*
X116413300Y-52789940D02*
X116534252Y-52729463D01*
X116534252Y-52729463D02*
X116836633Y-52729463D01*
X116836633Y-52729463D02*
X116957585Y-52789940D01*
X116957585Y-52789940D02*
X117018062Y-52850416D01*
X117018062Y-52850416D02*
X117078538Y-52971368D01*
X117078538Y-52971368D02*
X117078538Y-53334225D01*
X117078538Y-53334225D02*
X117018062Y-53455178D01*
X117018062Y-53455178D02*
X116957585Y-53515654D01*
X121795681Y-91464463D02*
X121795681Y-90859701D01*
X122158538Y-91585415D02*
X120888538Y-91162082D01*
X120888538Y-91162082D02*
X122158538Y-90738748D01*
X121311871Y-89771130D02*
X122158538Y-89771130D01*
X120828062Y-90073511D02*
X121735204Y-90375892D01*
X121735204Y-90375892D02*
X121735204Y-89589701D01*
D20*
X103296054Y-91331415D02*
X103247673Y-91428177D01*
X103247673Y-91428177D02*
X103247673Y-91573320D01*
X103247673Y-91573320D02*
X103296054Y-91718463D01*
X103296054Y-91718463D02*
X103392816Y-91815225D01*
X103392816Y-91815225D02*
X103489578Y-91863606D01*
X103489578Y-91863606D02*
X103683102Y-91911987D01*
X103683102Y-91911987D02*
X103828245Y-91911987D01*
X103828245Y-91911987D02*
X104021769Y-91863606D01*
X104021769Y-91863606D02*
X104118531Y-91815225D01*
X104118531Y-91815225D02*
X104215293Y-91718463D01*
X104215293Y-91718463D02*
X104263673Y-91573320D01*
X104263673Y-91573320D02*
X104263673Y-91476558D01*
X104263673Y-91476558D02*
X104215293Y-91331415D01*
X104215293Y-91331415D02*
X104166912Y-91283034D01*
X104166912Y-91283034D02*
X103828245Y-91283034D01*
X103828245Y-91283034D02*
X103828245Y-91476558D01*
X104263673Y-90847606D02*
X103247673Y-90847606D01*
X103247673Y-90847606D02*
X104263673Y-90267034D01*
X104263673Y-90267034D02*
X103247673Y-90267034D01*
X104263673Y-89783225D02*
X103247673Y-89783225D01*
X103247673Y-89783225D02*
X103247673Y-89541320D01*
X103247673Y-89541320D02*
X103296054Y-89396177D01*
X103296054Y-89396177D02*
X103392816Y-89299415D01*
X103392816Y-89299415D02*
X103489578Y-89251034D01*
X103489578Y-89251034D02*
X103683102Y-89202653D01*
X103683102Y-89202653D02*
X103828245Y-89202653D01*
X103828245Y-89202653D02*
X104021769Y-89251034D01*
X104021769Y-89251034D02*
X104118531Y-89299415D01*
X104118531Y-89299415D02*
X104215293Y-89396177D01*
X104215293Y-89396177D02*
X104263673Y-89541320D01*
X104263673Y-89541320D02*
X104263673Y-89783225D01*
X98167673Y-91476558D02*
X98167673Y-91960368D01*
X98167673Y-91960368D02*
X98651483Y-92008749D01*
X98651483Y-92008749D02*
X98603102Y-91960368D01*
X98603102Y-91960368D02*
X98554721Y-91863606D01*
X98554721Y-91863606D02*
X98554721Y-91621701D01*
X98554721Y-91621701D02*
X98603102Y-91524939D01*
X98603102Y-91524939D02*
X98651483Y-91476558D01*
X98651483Y-91476558D02*
X98748245Y-91428177D01*
X98748245Y-91428177D02*
X98990150Y-91428177D01*
X98990150Y-91428177D02*
X99086912Y-91476558D01*
X99086912Y-91476558D02*
X99135293Y-91524939D01*
X99135293Y-91524939D02*
X99183673Y-91621701D01*
X99183673Y-91621701D02*
X99183673Y-91863606D01*
X99183673Y-91863606D02*
X99135293Y-91960368D01*
X99135293Y-91960368D02*
X99086912Y-92008749D01*
X99086912Y-90992749D02*
X99135293Y-90944368D01*
X99135293Y-90944368D02*
X99183673Y-90992749D01*
X99183673Y-90992749D02*
X99135293Y-91041130D01*
X99135293Y-91041130D02*
X99086912Y-90992749D01*
X99086912Y-90992749D02*
X99183673Y-90992749D01*
X98167673Y-90315415D02*
X98167673Y-90218653D01*
X98167673Y-90218653D02*
X98216054Y-90121891D01*
X98216054Y-90121891D02*
X98264435Y-90073510D01*
X98264435Y-90073510D02*
X98361197Y-90025129D01*
X98361197Y-90025129D02*
X98554721Y-89976748D01*
X98554721Y-89976748D02*
X98796626Y-89976748D01*
X98796626Y-89976748D02*
X98990150Y-90025129D01*
X98990150Y-90025129D02*
X99086912Y-90073510D01*
X99086912Y-90073510D02*
X99135293Y-90121891D01*
X99135293Y-90121891D02*
X99183673Y-90218653D01*
X99183673Y-90218653D02*
X99183673Y-90315415D01*
X99183673Y-90315415D02*
X99135293Y-90412177D01*
X99135293Y-90412177D02*
X99086912Y-90460558D01*
X99086912Y-90460558D02*
X98990150Y-90508939D01*
X98990150Y-90508939D02*
X98796626Y-90557320D01*
X98796626Y-90557320D02*
X98554721Y-90557320D01*
X98554721Y-90557320D02*
X98361197Y-90508939D01*
X98361197Y-90508939D02*
X98264435Y-90460558D01*
X98264435Y-90460558D02*
X98216054Y-90412177D01*
X98216054Y-90412177D02*
X98167673Y-90315415D01*
X98167673Y-89686463D02*
X99183673Y-89347796D01*
X99183673Y-89347796D02*
X98167673Y-89009129D01*
D14*
X114175681Y-91464463D02*
X114175681Y-90859701D01*
X114538538Y-91585415D02*
X113268538Y-91162082D01*
X113268538Y-91162082D02*
X114538538Y-90738748D01*
X114538538Y-89650177D02*
X114538538Y-90375892D01*
X114538538Y-90013035D02*
X113268538Y-90013035D01*
X113268538Y-90013035D02*
X113449966Y-90133987D01*
X113449966Y-90133987D02*
X113570919Y-90254939D01*
X113570919Y-90254939D02*
X113631395Y-90375892D01*
X114538538Y-54664702D02*
X113268538Y-54664702D01*
X113268538Y-54664702D02*
X113268538Y-54362321D01*
X113268538Y-54362321D02*
X113329014Y-54180892D01*
X113329014Y-54180892D02*
X113449966Y-54059940D01*
X113449966Y-54059940D02*
X113570919Y-53999463D01*
X113570919Y-53999463D02*
X113812823Y-53938987D01*
X113812823Y-53938987D02*
X113994252Y-53938987D01*
X113994252Y-53938987D02*
X114236157Y-53999463D01*
X114236157Y-53999463D02*
X114357109Y-54059940D01*
X114357109Y-54059940D02*
X114478062Y-54180892D01*
X114478062Y-54180892D02*
X114538538Y-54362321D01*
X114538538Y-54362321D02*
X114538538Y-54664702D01*
X113691871Y-52850416D02*
X114538538Y-52850416D01*
X113208062Y-53152797D02*
X114115204Y-53455178D01*
X114115204Y-53455178D02*
X114115204Y-52668987D01*
X111998538Y-54664702D02*
X110728538Y-54664702D01*
X110728538Y-54664702D02*
X110728538Y-54362321D01*
X110728538Y-54362321D02*
X110789014Y-54180892D01*
X110789014Y-54180892D02*
X110909966Y-54059940D01*
X110909966Y-54059940D02*
X111030919Y-53999463D01*
X111030919Y-53999463D02*
X111272823Y-53938987D01*
X111272823Y-53938987D02*
X111454252Y-53938987D01*
X111454252Y-53938987D02*
X111696157Y-53999463D01*
X111696157Y-53999463D02*
X111817109Y-54059940D01*
X111817109Y-54059940D02*
X111938062Y-54180892D01*
X111938062Y-54180892D02*
X111998538Y-54362321D01*
X111998538Y-54362321D02*
X111998538Y-54664702D01*
X110728538Y-52789940D02*
X110728538Y-53394702D01*
X110728538Y-53394702D02*
X111333300Y-53455178D01*
X111333300Y-53455178D02*
X111272823Y-53394702D01*
X111272823Y-53394702D02*
X111212347Y-53273749D01*
X111212347Y-53273749D02*
X111212347Y-52971368D01*
X111212347Y-52971368D02*
X111272823Y-52850416D01*
X111272823Y-52850416D02*
X111333300Y-52789940D01*
X111333300Y-52789940D02*
X111454252Y-52729463D01*
X111454252Y-52729463D02*
X111756633Y-52729463D01*
X111756633Y-52729463D02*
X111877585Y-52789940D01*
X111877585Y-52789940D02*
X111938062Y-52850416D01*
X111938062Y-52850416D02*
X111998538Y-52971368D01*
X111998538Y-52971368D02*
X111998538Y-53273749D01*
X111998538Y-53273749D02*
X111938062Y-53394702D01*
X111938062Y-53394702D02*
X111877585Y-53455178D01*
X109458538Y-54664702D02*
X108188538Y-54664702D01*
X108188538Y-54664702D02*
X108188538Y-54362321D01*
X108188538Y-54362321D02*
X108249014Y-54180892D01*
X108249014Y-54180892D02*
X108369966Y-54059940D01*
X108369966Y-54059940D02*
X108490919Y-53999463D01*
X108490919Y-53999463D02*
X108732823Y-53938987D01*
X108732823Y-53938987D02*
X108914252Y-53938987D01*
X108914252Y-53938987D02*
X109156157Y-53999463D01*
X109156157Y-53999463D02*
X109277109Y-54059940D01*
X109277109Y-54059940D02*
X109398062Y-54180892D01*
X109398062Y-54180892D02*
X109458538Y-54362321D01*
X109458538Y-54362321D02*
X109458538Y-54664702D01*
X108188538Y-52850416D02*
X108188538Y-53092321D01*
X108188538Y-53092321D02*
X108249014Y-53213273D01*
X108249014Y-53213273D02*
X108309490Y-53273749D01*
X108309490Y-53273749D02*
X108490919Y-53394702D01*
X108490919Y-53394702D02*
X108732823Y-53455178D01*
X108732823Y-53455178D02*
X109216633Y-53455178D01*
X109216633Y-53455178D02*
X109337585Y-53394702D01*
X109337585Y-53394702D02*
X109398062Y-53334225D01*
X109398062Y-53334225D02*
X109458538Y-53213273D01*
X109458538Y-53213273D02*
X109458538Y-52971368D01*
X109458538Y-52971368D02*
X109398062Y-52850416D01*
X109398062Y-52850416D02*
X109337585Y-52789940D01*
X109337585Y-52789940D02*
X109216633Y-52729463D01*
X109216633Y-52729463D02*
X108914252Y-52729463D01*
X108914252Y-52729463D02*
X108793300Y-52789940D01*
X108793300Y-52789940D02*
X108732823Y-52850416D01*
X108732823Y-52850416D02*
X108672347Y-52971368D01*
X108672347Y-52971368D02*
X108672347Y-53213273D01*
X108672347Y-53213273D02*
X108732823Y-53334225D01*
X108732823Y-53334225D02*
X108793300Y-53394702D01*
X108793300Y-53394702D02*
X108914252Y-53455178D01*
D19*
X98234362Y-98521911D02*
X98234362Y-97759911D01*
X98234362Y-97759911D02*
X98524648Y-97759911D01*
X98524648Y-97759911D02*
X98597219Y-97796197D01*
X98597219Y-97796197D02*
X98633505Y-97832483D01*
X98633505Y-97832483D02*
X98669791Y-97905054D01*
X98669791Y-97905054D02*
X98669791Y-98013911D01*
X98669791Y-98013911D02*
X98633505Y-98086483D01*
X98633505Y-98086483D02*
X98597219Y-98122768D01*
X98597219Y-98122768D02*
X98524648Y-98159054D01*
X98524648Y-98159054D02*
X98234362Y-98159054D01*
X99141505Y-97759911D02*
X99286648Y-97759911D01*
X99286648Y-97759911D02*
X99359219Y-97796197D01*
X99359219Y-97796197D02*
X99431791Y-97868768D01*
X99431791Y-97868768D02*
X99468076Y-98013911D01*
X99468076Y-98013911D02*
X99468076Y-98267911D01*
X99468076Y-98267911D02*
X99431791Y-98413054D01*
X99431791Y-98413054D02*
X99359219Y-98485626D01*
X99359219Y-98485626D02*
X99286648Y-98521911D01*
X99286648Y-98521911D02*
X99141505Y-98521911D01*
X99141505Y-98521911D02*
X99068934Y-98485626D01*
X99068934Y-98485626D02*
X98996362Y-98413054D01*
X98996362Y-98413054D02*
X98960076Y-98267911D01*
X98960076Y-98267911D02*
X98960076Y-98013911D01*
X98960076Y-98013911D02*
X98996362Y-97868768D01*
X98996362Y-97868768D02*
X99068934Y-97796197D01*
X99068934Y-97796197D02*
X99141505Y-97759911D01*
X99722077Y-97759911D02*
X99903505Y-98521911D01*
X99903505Y-98521911D02*
X100048648Y-97977626D01*
X100048648Y-97977626D02*
X100193791Y-98521911D01*
X100193791Y-98521911D02*
X100375220Y-97759911D01*
X100665505Y-98122768D02*
X100919505Y-98122768D01*
X101028362Y-98521911D02*
X100665505Y-98521911D01*
X100665505Y-98521911D02*
X100665505Y-97759911D01*
X100665505Y-97759911D02*
X101028362Y-97759911D01*
X101790363Y-98521911D02*
X101536363Y-98159054D01*
X101354934Y-98521911D02*
X101354934Y-97759911D01*
X101354934Y-97759911D02*
X101645220Y-97759911D01*
X101645220Y-97759911D02*
X101717791Y-97796197D01*
X101717791Y-97796197D02*
X101754077Y-97832483D01*
X101754077Y-97832483D02*
X101790363Y-97905054D01*
X101790363Y-97905054D02*
X101790363Y-98013911D01*
X101790363Y-98013911D02*
X101754077Y-98086483D01*
X101754077Y-98086483D02*
X101717791Y-98122768D01*
X101717791Y-98122768D02*
X101645220Y-98159054D01*
X101645220Y-98159054D02*
X101354934Y-98159054D01*
X115651505Y-98304197D02*
X116014363Y-98304197D01*
X115578934Y-98521911D02*
X115832934Y-97759911D01*
X115832934Y-97759911D02*
X116086934Y-98521911D01*
X116340934Y-98521911D02*
X116340934Y-97759911D01*
X116340934Y-97759911D02*
X116776363Y-98521911D01*
X116776363Y-98521911D02*
X116776363Y-97759911D01*
X117102934Y-98304197D02*
X117465792Y-98304197D01*
X117030363Y-98521911D02*
X117284363Y-97759911D01*
X117284363Y-97759911D02*
X117538363Y-98521911D01*
X118155220Y-98521911D02*
X117792363Y-98521911D01*
X117792363Y-98521911D02*
X117792363Y-97759911D01*
X118554363Y-97759911D02*
X118699506Y-97759911D01*
X118699506Y-97759911D02*
X118772077Y-97796197D01*
X118772077Y-97796197D02*
X118844649Y-97868768D01*
X118844649Y-97868768D02*
X118880934Y-98013911D01*
X118880934Y-98013911D02*
X118880934Y-98267911D01*
X118880934Y-98267911D02*
X118844649Y-98413054D01*
X118844649Y-98413054D02*
X118772077Y-98485626D01*
X118772077Y-98485626D02*
X118699506Y-98521911D01*
X118699506Y-98521911D02*
X118554363Y-98521911D01*
X118554363Y-98521911D02*
X118481792Y-98485626D01*
X118481792Y-98485626D02*
X118409220Y-98413054D01*
X118409220Y-98413054D02*
X118372934Y-98267911D01*
X118372934Y-98267911D02*
X118372934Y-98013911D01*
X118372934Y-98013911D02*
X118409220Y-97868768D01*
X118409220Y-97868768D02*
X118481792Y-97796197D01*
X118481792Y-97796197D02*
X118554363Y-97759911D01*
X119606649Y-97796197D02*
X119534078Y-97759911D01*
X119534078Y-97759911D02*
X119425220Y-97759911D01*
X119425220Y-97759911D02*
X119316363Y-97796197D01*
X119316363Y-97796197D02*
X119243792Y-97868768D01*
X119243792Y-97868768D02*
X119207506Y-97941340D01*
X119207506Y-97941340D02*
X119171220Y-98086483D01*
X119171220Y-98086483D02*
X119171220Y-98195340D01*
X119171220Y-98195340D02*
X119207506Y-98340483D01*
X119207506Y-98340483D02*
X119243792Y-98413054D01*
X119243792Y-98413054D02*
X119316363Y-98485626D01*
X119316363Y-98485626D02*
X119425220Y-98521911D01*
X119425220Y-98521911D02*
X119497792Y-98521911D01*
X119497792Y-98521911D02*
X119606649Y-98485626D01*
X119606649Y-98485626D02*
X119642935Y-98449340D01*
X119642935Y-98449340D02*
X119642935Y-98195340D01*
X119642935Y-98195340D02*
X119497792Y-98195340D01*
D14*
X119618538Y-54664702D02*
X118348538Y-54664702D01*
X118348538Y-54664702D02*
X118348538Y-54362321D01*
X118348538Y-54362321D02*
X118409014Y-54180892D01*
X118409014Y-54180892D02*
X118529966Y-54059940D01*
X118529966Y-54059940D02*
X118650919Y-53999463D01*
X118650919Y-53999463D02*
X118892823Y-53938987D01*
X118892823Y-53938987D02*
X119074252Y-53938987D01*
X119074252Y-53938987D02*
X119316157Y-53999463D01*
X119316157Y-53999463D02*
X119437109Y-54059940D01*
X119437109Y-54059940D02*
X119558062Y-54180892D01*
X119558062Y-54180892D02*
X119618538Y-54362321D01*
X119618538Y-54362321D02*
X119618538Y-54664702D01*
X118469490Y-53455178D02*
X118409014Y-53394702D01*
X118409014Y-53394702D02*
X118348538Y-53273749D01*
X118348538Y-53273749D02*
X118348538Y-52971368D01*
X118348538Y-52971368D02*
X118409014Y-52850416D01*
X118409014Y-52850416D02*
X118469490Y-52789940D01*
X118469490Y-52789940D02*
X118590442Y-52729463D01*
X118590442Y-52729463D02*
X118711395Y-52729463D01*
X118711395Y-52729463D02*
X118892823Y-52789940D01*
X118892823Y-52789940D02*
X119618538Y-53515654D01*
X119618538Y-53515654D02*
X119618538Y-52729463D01*
X119255681Y-91464463D02*
X119255681Y-90859701D01*
X119618538Y-91585415D02*
X118348538Y-91162082D01*
X118348538Y-91162082D02*
X119618538Y-90738748D01*
X118348538Y-90436368D02*
X118348538Y-89650177D01*
X118348538Y-89650177D02*
X118832347Y-90073511D01*
X118832347Y-90073511D02*
X118832347Y-89892082D01*
X118832347Y-89892082D02*
X118892823Y-89771130D01*
X118892823Y-89771130D02*
X118953300Y-89710654D01*
X118953300Y-89710654D02*
X119074252Y-89650177D01*
X119074252Y-89650177D02*
X119376633Y-89650177D01*
X119376633Y-89650177D02*
X119497585Y-89710654D01*
X119497585Y-89710654D02*
X119558062Y-89771130D01*
X119558062Y-89771130D02*
X119618538Y-89892082D01*
X119618538Y-89892082D02*
X119618538Y-90254939D01*
X119618538Y-90254939D02*
X119558062Y-90375892D01*
X119558062Y-90375892D02*
X119497585Y-90436368D01*
X102473538Y-54664702D02*
X101203538Y-54664702D01*
X101203538Y-54664702D02*
X101203538Y-54362321D01*
X101203538Y-54362321D02*
X101264014Y-54180892D01*
X101264014Y-54180892D02*
X101384966Y-54059940D01*
X101384966Y-54059940D02*
X101505919Y-53999463D01*
X101505919Y-53999463D02*
X101747823Y-53938987D01*
X101747823Y-53938987D02*
X101929252Y-53938987D01*
X101929252Y-53938987D02*
X102171157Y-53999463D01*
X102171157Y-53999463D02*
X102292109Y-54059940D01*
X102292109Y-54059940D02*
X102413062Y-54180892D01*
X102413062Y-54180892D02*
X102473538Y-54362321D01*
X102473538Y-54362321D02*
X102473538Y-54664702D01*
X101747823Y-53213273D02*
X101687347Y-53334225D01*
X101687347Y-53334225D02*
X101626871Y-53394702D01*
X101626871Y-53394702D02*
X101505919Y-53455178D01*
X101505919Y-53455178D02*
X101445442Y-53455178D01*
X101445442Y-53455178D02*
X101324490Y-53394702D01*
X101324490Y-53394702D02*
X101264014Y-53334225D01*
X101264014Y-53334225D02*
X101203538Y-53213273D01*
X101203538Y-53213273D02*
X101203538Y-52971368D01*
X101203538Y-52971368D02*
X101264014Y-52850416D01*
X101264014Y-52850416D02*
X101324490Y-52789940D01*
X101324490Y-52789940D02*
X101445442Y-52729463D01*
X101445442Y-52729463D02*
X101505919Y-52729463D01*
X101505919Y-52729463D02*
X101626871Y-52789940D01*
X101626871Y-52789940D02*
X101687347Y-52850416D01*
X101687347Y-52850416D02*
X101747823Y-52971368D01*
X101747823Y-52971368D02*
X101747823Y-53213273D01*
X101747823Y-53213273D02*
X101808300Y-53334225D01*
X101808300Y-53334225D02*
X101868776Y-53394702D01*
X101868776Y-53394702D02*
X101989728Y-53455178D01*
X101989728Y-53455178D02*
X102231633Y-53455178D01*
X102231633Y-53455178D02*
X102352585Y-53394702D01*
X102352585Y-53394702D02*
X102413062Y-53334225D01*
X102413062Y-53334225D02*
X102473538Y-53213273D01*
X102473538Y-53213273D02*
X102473538Y-52971368D01*
X102473538Y-52971368D02*
X102413062Y-52850416D01*
X102413062Y-52850416D02*
X102352585Y-52789940D01*
X102352585Y-52789940D02*
X102231633Y-52729463D01*
X102231633Y-52729463D02*
X101989728Y-52729463D01*
X101989728Y-52729463D02*
X101868776Y-52789940D01*
X101868776Y-52789940D02*
X101808300Y-52850416D01*
X101808300Y-52850416D02*
X101747823Y-52971368D01*
D20*
X84578673Y-55215035D02*
X83562673Y-55215035D01*
X83562673Y-55215035D02*
X83562673Y-54973130D01*
X83562673Y-54973130D02*
X83611054Y-54827987D01*
X83611054Y-54827987D02*
X83707816Y-54731225D01*
X83707816Y-54731225D02*
X83804578Y-54682844D01*
X83804578Y-54682844D02*
X83998102Y-54634463D01*
X83998102Y-54634463D02*
X84143245Y-54634463D01*
X84143245Y-54634463D02*
X84336769Y-54682844D01*
X84336769Y-54682844D02*
X84433531Y-54731225D01*
X84433531Y-54731225D02*
X84530293Y-54827987D01*
X84530293Y-54827987D02*
X84578673Y-54973130D01*
X84578673Y-54973130D02*
X84578673Y-55215035D01*
X84578673Y-53666844D02*
X84578673Y-54247416D01*
X84578673Y-53957130D02*
X83562673Y-53957130D01*
X83562673Y-53957130D02*
X83707816Y-54053892D01*
X83707816Y-54053892D02*
X83804578Y-54150654D01*
X83804578Y-54150654D02*
X83852959Y-54247416D01*
X83901340Y-52795987D02*
X84578673Y-52795987D01*
X83514293Y-53037892D02*
X84240007Y-53279797D01*
X84240007Y-53279797D02*
X84240007Y-52650844D01*
D14*
X111635681Y-91464463D02*
X111635681Y-90859701D01*
X111998538Y-91585415D02*
X110728538Y-91162082D01*
X110728538Y-91162082D02*
X111998538Y-90738748D01*
X110728538Y-90073511D02*
X110728538Y-89952558D01*
X110728538Y-89952558D02*
X110789014Y-89831606D01*
X110789014Y-89831606D02*
X110849490Y-89771130D01*
X110849490Y-89771130D02*
X110970442Y-89710654D01*
X110970442Y-89710654D02*
X111212347Y-89650177D01*
X111212347Y-89650177D02*
X111514728Y-89650177D01*
X111514728Y-89650177D02*
X111756633Y-89710654D01*
X111756633Y-89710654D02*
X111877585Y-89771130D01*
X111877585Y-89771130D02*
X111938062Y-89831606D01*
X111938062Y-89831606D02*
X111998538Y-89952558D01*
X111998538Y-89952558D02*
X111998538Y-90073511D01*
X111998538Y-90073511D02*
X111938062Y-90194463D01*
X111938062Y-90194463D02*
X111877585Y-90254939D01*
X111877585Y-90254939D02*
X111756633Y-90315416D01*
X111756633Y-90315416D02*
X111514728Y-90375892D01*
X111514728Y-90375892D02*
X111212347Y-90375892D01*
X111212347Y-90375892D02*
X110970442Y-90315416D01*
X110970442Y-90315416D02*
X110849490Y-90254939D01*
X110849490Y-90254939D02*
X110789014Y-90194463D01*
X110789014Y-90194463D02*
X110728538Y-90073511D01*
D20*
X105914673Y-91670083D02*
X106930673Y-91331416D01*
X106930673Y-91331416D02*
X105914673Y-90992749D01*
X106930673Y-90654083D02*
X105914673Y-90654083D01*
X106930673Y-90170273D02*
X105914673Y-90170273D01*
X105914673Y-90170273D02*
X106930673Y-89589701D01*
X106930673Y-89589701D02*
X105914673Y-89589701D01*
D14*
X122158538Y-54664702D02*
X120888538Y-54664702D01*
X120888538Y-54664702D02*
X120888538Y-54362321D01*
X120888538Y-54362321D02*
X120949014Y-54180892D01*
X120949014Y-54180892D02*
X121069966Y-54059940D01*
X121069966Y-54059940D02*
X121190919Y-53999463D01*
X121190919Y-53999463D02*
X121432823Y-53938987D01*
X121432823Y-53938987D02*
X121614252Y-53938987D01*
X121614252Y-53938987D02*
X121856157Y-53999463D01*
X121856157Y-53999463D02*
X121977109Y-54059940D01*
X121977109Y-54059940D02*
X122098062Y-54180892D01*
X122098062Y-54180892D02*
X122158538Y-54362321D01*
X122158538Y-54362321D02*
X122158538Y-54664702D01*
X122158538Y-52729463D02*
X122158538Y-53455178D01*
X122158538Y-53092321D02*
X120888538Y-53092321D01*
X120888538Y-53092321D02*
X121069966Y-53213273D01*
X121069966Y-53213273D02*
X121190919Y-53334225D01*
X121190919Y-53334225D02*
X121251395Y-53455178D01*
X106918538Y-54664702D02*
X105648538Y-54664702D01*
X105648538Y-54664702D02*
X105648538Y-54362321D01*
X105648538Y-54362321D02*
X105709014Y-54180892D01*
X105709014Y-54180892D02*
X105829966Y-54059940D01*
X105829966Y-54059940D02*
X105950919Y-53999463D01*
X105950919Y-53999463D02*
X106192823Y-53938987D01*
X106192823Y-53938987D02*
X106374252Y-53938987D01*
X106374252Y-53938987D02*
X106616157Y-53999463D01*
X106616157Y-53999463D02*
X106737109Y-54059940D01*
X106737109Y-54059940D02*
X106858062Y-54180892D01*
X106858062Y-54180892D02*
X106918538Y-54362321D01*
X106918538Y-54362321D02*
X106918538Y-54664702D01*
X105648538Y-53515654D02*
X105648538Y-52668987D01*
X105648538Y-52668987D02*
X106918538Y-53213273D01*
D20*
X95627673Y-92057130D02*
X95627673Y-91428177D01*
X95627673Y-91428177D02*
X96014721Y-91766844D01*
X96014721Y-91766844D02*
X96014721Y-91621701D01*
X96014721Y-91621701D02*
X96063102Y-91524939D01*
X96063102Y-91524939D02*
X96111483Y-91476558D01*
X96111483Y-91476558D02*
X96208245Y-91428177D01*
X96208245Y-91428177D02*
X96450150Y-91428177D01*
X96450150Y-91428177D02*
X96546912Y-91476558D01*
X96546912Y-91476558D02*
X96595293Y-91524939D01*
X96595293Y-91524939D02*
X96643673Y-91621701D01*
X96643673Y-91621701D02*
X96643673Y-91911987D01*
X96643673Y-91911987D02*
X96595293Y-92008749D01*
X96595293Y-92008749D02*
X96546912Y-92057130D01*
X96546912Y-90992749D02*
X96595293Y-90944368D01*
X96595293Y-90944368D02*
X96643673Y-90992749D01*
X96643673Y-90992749D02*
X96595293Y-91041130D01*
X96595293Y-91041130D02*
X96546912Y-90992749D01*
X96546912Y-90992749D02*
X96643673Y-90992749D01*
X95627673Y-90605701D02*
X95627673Y-89976748D01*
X95627673Y-89976748D02*
X96014721Y-90315415D01*
X96014721Y-90315415D02*
X96014721Y-90170272D01*
X96014721Y-90170272D02*
X96063102Y-90073510D01*
X96063102Y-90073510D02*
X96111483Y-90025129D01*
X96111483Y-90025129D02*
X96208245Y-89976748D01*
X96208245Y-89976748D02*
X96450150Y-89976748D01*
X96450150Y-89976748D02*
X96546912Y-90025129D01*
X96546912Y-90025129D02*
X96595293Y-90073510D01*
X96595293Y-90073510D02*
X96643673Y-90170272D01*
X96643673Y-90170272D02*
X96643673Y-90460558D01*
X96643673Y-90460558D02*
X96595293Y-90557320D01*
X96595293Y-90557320D02*
X96546912Y-90605701D01*
X95627673Y-89686463D02*
X96643673Y-89347796D01*
X96643673Y-89347796D02*
X95627673Y-89009129D01*
X94103673Y-91367701D02*
X93619864Y-91706368D01*
X94103673Y-91948273D02*
X93087673Y-91948273D01*
X93087673Y-91948273D02*
X93087673Y-91561225D01*
X93087673Y-91561225D02*
X93136054Y-91464463D01*
X93136054Y-91464463D02*
X93184435Y-91416082D01*
X93184435Y-91416082D02*
X93281197Y-91367701D01*
X93281197Y-91367701D02*
X93426340Y-91367701D01*
X93426340Y-91367701D02*
X93523102Y-91416082D01*
X93523102Y-91416082D02*
X93571483Y-91464463D01*
X93571483Y-91464463D02*
X93619864Y-91561225D01*
X93619864Y-91561225D02*
X93619864Y-91948273D01*
X94055293Y-90980654D02*
X94103673Y-90835511D01*
X94103673Y-90835511D02*
X94103673Y-90593606D01*
X94103673Y-90593606D02*
X94055293Y-90496844D01*
X94055293Y-90496844D02*
X94006912Y-90448463D01*
X94006912Y-90448463D02*
X93910150Y-90400082D01*
X93910150Y-90400082D02*
X93813388Y-90400082D01*
X93813388Y-90400082D02*
X93716626Y-90448463D01*
X93716626Y-90448463D02*
X93668245Y-90496844D01*
X93668245Y-90496844D02*
X93619864Y-90593606D01*
X93619864Y-90593606D02*
X93571483Y-90787130D01*
X93571483Y-90787130D02*
X93523102Y-90883892D01*
X93523102Y-90883892D02*
X93474721Y-90932273D01*
X93474721Y-90932273D02*
X93377959Y-90980654D01*
X93377959Y-90980654D02*
X93281197Y-90980654D01*
X93281197Y-90980654D02*
X93184435Y-90932273D01*
X93184435Y-90932273D02*
X93136054Y-90883892D01*
X93136054Y-90883892D02*
X93087673Y-90787130D01*
X93087673Y-90787130D02*
X93087673Y-90545225D01*
X93087673Y-90545225D02*
X93136054Y-90400082D01*
X93087673Y-90109797D02*
X93087673Y-89529225D01*
X94103673Y-89819511D02*
X93087673Y-89819511D01*
D14*
X99933538Y-54664702D02*
X98663538Y-54664702D01*
X98663538Y-54664702D02*
X98663538Y-54362321D01*
X98663538Y-54362321D02*
X98724014Y-54180892D01*
X98724014Y-54180892D02*
X98844966Y-54059940D01*
X98844966Y-54059940D02*
X98965919Y-53999463D01*
X98965919Y-53999463D02*
X99207823Y-53938987D01*
X99207823Y-53938987D02*
X99389252Y-53938987D01*
X99389252Y-53938987D02*
X99631157Y-53999463D01*
X99631157Y-53999463D02*
X99752109Y-54059940D01*
X99752109Y-54059940D02*
X99873062Y-54180892D01*
X99873062Y-54180892D02*
X99933538Y-54362321D01*
X99933538Y-54362321D02*
X99933538Y-54664702D01*
X99933538Y-53334225D02*
X99933538Y-53092321D01*
X99933538Y-53092321D02*
X99873062Y-52971368D01*
X99873062Y-52971368D02*
X99812585Y-52910892D01*
X99812585Y-52910892D02*
X99631157Y-52789940D01*
X99631157Y-52789940D02*
X99389252Y-52729463D01*
X99389252Y-52729463D02*
X98905442Y-52729463D01*
X98905442Y-52729463D02*
X98784490Y-52789940D01*
X98784490Y-52789940D02*
X98724014Y-52850416D01*
X98724014Y-52850416D02*
X98663538Y-52971368D01*
X98663538Y-52971368D02*
X98663538Y-53213273D01*
X98663538Y-53213273D02*
X98724014Y-53334225D01*
X98724014Y-53334225D02*
X98784490Y-53394702D01*
X98784490Y-53394702D02*
X98905442Y-53455178D01*
X98905442Y-53455178D02*
X99207823Y-53455178D01*
X99207823Y-53455178D02*
X99328776Y-53394702D01*
X99328776Y-53394702D02*
X99389252Y-53334225D01*
X99389252Y-53334225D02*
X99449728Y-53213273D01*
X99449728Y-53213273D02*
X99449728Y-52971368D01*
X99449728Y-52971368D02*
X99389252Y-52850416D01*
X99389252Y-52850416D02*
X99328776Y-52789940D01*
X99328776Y-52789940D02*
X99207823Y-52729463D01*
D20*
X100756054Y-91331415D02*
X100707673Y-91428177D01*
X100707673Y-91428177D02*
X100707673Y-91573320D01*
X100707673Y-91573320D02*
X100756054Y-91718463D01*
X100756054Y-91718463D02*
X100852816Y-91815225D01*
X100852816Y-91815225D02*
X100949578Y-91863606D01*
X100949578Y-91863606D02*
X101143102Y-91911987D01*
X101143102Y-91911987D02*
X101288245Y-91911987D01*
X101288245Y-91911987D02*
X101481769Y-91863606D01*
X101481769Y-91863606D02*
X101578531Y-91815225D01*
X101578531Y-91815225D02*
X101675293Y-91718463D01*
X101675293Y-91718463D02*
X101723673Y-91573320D01*
X101723673Y-91573320D02*
X101723673Y-91476558D01*
X101723673Y-91476558D02*
X101675293Y-91331415D01*
X101675293Y-91331415D02*
X101626912Y-91283034D01*
X101626912Y-91283034D02*
X101288245Y-91283034D01*
X101288245Y-91283034D02*
X101288245Y-91476558D01*
X101723673Y-90847606D02*
X100707673Y-90847606D01*
X100707673Y-90847606D02*
X101723673Y-90267034D01*
X101723673Y-90267034D02*
X100707673Y-90267034D01*
X101723673Y-89783225D02*
X100707673Y-89783225D01*
X100707673Y-89783225D02*
X100707673Y-89541320D01*
X100707673Y-89541320D02*
X100756054Y-89396177D01*
X100756054Y-89396177D02*
X100852816Y-89299415D01*
X100852816Y-89299415D02*
X100949578Y-89251034D01*
X100949578Y-89251034D02*
X101143102Y-89202653D01*
X101143102Y-89202653D02*
X101288245Y-89202653D01*
X101288245Y-89202653D02*
X101481769Y-89251034D01*
X101481769Y-89251034D02*
X101578531Y-89299415D01*
X101578531Y-89299415D02*
X101675293Y-89396177D01*
X101675293Y-89396177D02*
X101723673Y-89541320D01*
X101723673Y-89541320D02*
X101723673Y-89783225D01*
D14*
X124335681Y-91464463D02*
X124335681Y-90859701D01*
X124698538Y-91585415D02*
X123428538Y-91162082D01*
X123428538Y-91162082D02*
X124698538Y-90738748D01*
X123428538Y-89710654D02*
X123428538Y-90315416D01*
X123428538Y-90315416D02*
X124033300Y-90375892D01*
X124033300Y-90375892D02*
X123972823Y-90315416D01*
X123972823Y-90315416D02*
X123912347Y-90194463D01*
X123912347Y-90194463D02*
X123912347Y-89892082D01*
X123912347Y-89892082D02*
X123972823Y-89771130D01*
X123972823Y-89771130D02*
X124033300Y-89710654D01*
X124033300Y-89710654D02*
X124154252Y-89650177D01*
X124154252Y-89650177D02*
X124456633Y-89650177D01*
X124456633Y-89650177D02*
X124577585Y-89710654D01*
X124577585Y-89710654D02*
X124638062Y-89771130D01*
X124638062Y-89771130D02*
X124698538Y-89892082D01*
X124698538Y-89892082D02*
X124698538Y-90194463D01*
X124698538Y-90194463D02*
X124638062Y-90315416D01*
X124638062Y-90315416D02*
X124577585Y-90375892D01*
D20*
X97278673Y-55215035D02*
X96262673Y-55215035D01*
X96262673Y-55215035D02*
X96262673Y-54973130D01*
X96262673Y-54973130D02*
X96311054Y-54827987D01*
X96311054Y-54827987D02*
X96407816Y-54731225D01*
X96407816Y-54731225D02*
X96504578Y-54682844D01*
X96504578Y-54682844D02*
X96698102Y-54634463D01*
X96698102Y-54634463D02*
X96843245Y-54634463D01*
X96843245Y-54634463D02*
X97036769Y-54682844D01*
X97036769Y-54682844D02*
X97133531Y-54731225D01*
X97133531Y-54731225D02*
X97230293Y-54827987D01*
X97230293Y-54827987D02*
X97278673Y-54973130D01*
X97278673Y-54973130D02*
X97278673Y-55215035D01*
X97278673Y-53666844D02*
X97278673Y-54247416D01*
X97278673Y-53957130D02*
X96262673Y-53957130D01*
X96262673Y-53957130D02*
X96407816Y-54053892D01*
X96407816Y-54053892D02*
X96504578Y-54150654D01*
X96504578Y-54150654D02*
X96552959Y-54247416D01*
X96262673Y-53037892D02*
X96262673Y-52941130D01*
X96262673Y-52941130D02*
X96311054Y-52844368D01*
X96311054Y-52844368D02*
X96359435Y-52795987D01*
X96359435Y-52795987D02*
X96456197Y-52747606D01*
X96456197Y-52747606D02*
X96649721Y-52699225D01*
X96649721Y-52699225D02*
X96891626Y-52699225D01*
X96891626Y-52699225D02*
X97085150Y-52747606D01*
X97085150Y-52747606D02*
X97181912Y-52795987D01*
X97181912Y-52795987D02*
X97230293Y-52844368D01*
X97230293Y-52844368D02*
X97278673Y-52941130D01*
X97278673Y-52941130D02*
X97278673Y-53037892D01*
X97278673Y-53037892D02*
X97230293Y-53134654D01*
X97230293Y-53134654D02*
X97181912Y-53183035D01*
X97181912Y-53183035D02*
X97085150Y-53231416D01*
X97085150Y-53231416D02*
X96891626Y-53279797D01*
X96891626Y-53279797D02*
X96649721Y-53279797D01*
X96649721Y-53279797D02*
X96456197Y-53231416D01*
X96456197Y-53231416D02*
X96359435Y-53183035D01*
X96359435Y-53183035D02*
X96311054Y-53134654D01*
X96311054Y-53134654D02*
X96262673Y-53037892D01*
X89658673Y-55215035D02*
X88642673Y-55215035D01*
X88642673Y-55215035D02*
X88642673Y-54973130D01*
X88642673Y-54973130D02*
X88691054Y-54827987D01*
X88691054Y-54827987D02*
X88787816Y-54731225D01*
X88787816Y-54731225D02*
X88884578Y-54682844D01*
X88884578Y-54682844D02*
X89078102Y-54634463D01*
X89078102Y-54634463D02*
X89223245Y-54634463D01*
X89223245Y-54634463D02*
X89416769Y-54682844D01*
X89416769Y-54682844D02*
X89513531Y-54731225D01*
X89513531Y-54731225D02*
X89610293Y-54827987D01*
X89610293Y-54827987D02*
X89658673Y-54973130D01*
X89658673Y-54973130D02*
X89658673Y-55215035D01*
X89658673Y-53666844D02*
X89658673Y-54247416D01*
X89658673Y-53957130D02*
X88642673Y-53957130D01*
X88642673Y-53957130D02*
X88787816Y-54053892D01*
X88787816Y-54053892D02*
X88884578Y-54150654D01*
X88884578Y-54150654D02*
X88932959Y-54247416D01*
X88642673Y-53328178D02*
X88642673Y-52699225D01*
X88642673Y-52699225D02*
X89029721Y-53037892D01*
X89029721Y-53037892D02*
X89029721Y-52892749D01*
X89029721Y-52892749D02*
X89078102Y-52795987D01*
X89078102Y-52795987D02*
X89126483Y-52747606D01*
X89126483Y-52747606D02*
X89223245Y-52699225D01*
X89223245Y-52699225D02*
X89465150Y-52699225D01*
X89465150Y-52699225D02*
X89561912Y-52747606D01*
X89561912Y-52747606D02*
X89610293Y-52795987D01*
X89610293Y-52795987D02*
X89658673Y-52892749D01*
X89658673Y-52892749D02*
X89658673Y-53183035D01*
X89658673Y-53183035D02*
X89610293Y-53279797D01*
X89610293Y-53279797D02*
X89561912Y-53328178D01*
D19*
X87965506Y-46451911D02*
X87965506Y-45689911D01*
X87965506Y-45689911D02*
X88146935Y-45689911D01*
X88146935Y-45689911D02*
X88255792Y-45726197D01*
X88255792Y-45726197D02*
X88328363Y-45798768D01*
X88328363Y-45798768D02*
X88364649Y-45871340D01*
X88364649Y-45871340D02*
X88400935Y-46016483D01*
X88400935Y-46016483D02*
X88400935Y-46125340D01*
X88400935Y-46125340D02*
X88364649Y-46270483D01*
X88364649Y-46270483D02*
X88328363Y-46343054D01*
X88328363Y-46343054D02*
X88255792Y-46415626D01*
X88255792Y-46415626D02*
X88146935Y-46451911D01*
X88146935Y-46451911D02*
X87965506Y-46451911D01*
X88727506Y-46451911D02*
X88727506Y-45689911D01*
X89489506Y-45726197D02*
X89416935Y-45689911D01*
X89416935Y-45689911D02*
X89308077Y-45689911D01*
X89308077Y-45689911D02*
X89199220Y-45726197D01*
X89199220Y-45726197D02*
X89126649Y-45798768D01*
X89126649Y-45798768D02*
X89090363Y-45871340D01*
X89090363Y-45871340D02*
X89054077Y-46016483D01*
X89054077Y-46016483D02*
X89054077Y-46125340D01*
X89054077Y-46125340D02*
X89090363Y-46270483D01*
X89090363Y-46270483D02*
X89126649Y-46343054D01*
X89126649Y-46343054D02*
X89199220Y-46415626D01*
X89199220Y-46415626D02*
X89308077Y-46451911D01*
X89308077Y-46451911D02*
X89380649Y-46451911D01*
X89380649Y-46451911D02*
X89489506Y-46415626D01*
X89489506Y-46415626D02*
X89525792Y-46379340D01*
X89525792Y-46379340D02*
X89525792Y-46125340D01*
X89525792Y-46125340D02*
X89380649Y-46125340D01*
X89852363Y-46451911D02*
X89852363Y-45689911D01*
X90106363Y-45689911D02*
X90541792Y-45689911D01*
X90324077Y-46451911D02*
X90324077Y-45689911D01*
X90759505Y-46234197D02*
X91122363Y-46234197D01*
X90686934Y-46451911D02*
X90940934Y-45689911D01*
X90940934Y-45689911D02*
X91194934Y-46451911D01*
X91811791Y-46451911D02*
X91448934Y-46451911D01*
X91448934Y-46451911D02*
X91448934Y-45689911D01*
D14*
X64004318Y-89988095D02*
X62734318Y-89988095D01*
X62734318Y-89988095D02*
X62734318Y-89504285D01*
X62734318Y-89504285D02*
X62794794Y-89383333D01*
X62794794Y-89383333D02*
X62855270Y-89322856D01*
X62855270Y-89322856D02*
X62976222Y-89262380D01*
X62976222Y-89262380D02*
X63157651Y-89262380D01*
X63157651Y-89262380D02*
X63278603Y-89322856D01*
X63278603Y-89322856D02*
X63339080Y-89383333D01*
X63339080Y-89383333D02*
X63399556Y-89504285D01*
X63399556Y-89504285D02*
X63399556Y-89988095D01*
X62734318Y-88839047D02*
X64004318Y-88536666D01*
X64004318Y-88536666D02*
X63097175Y-88294761D01*
X63097175Y-88294761D02*
X64004318Y-88052856D01*
X64004318Y-88052856D02*
X62734318Y-87750476D01*
X64004318Y-86540951D02*
X63399556Y-86964285D01*
X64004318Y-87266666D02*
X62734318Y-87266666D01*
X62734318Y-87266666D02*
X62734318Y-86782856D01*
X62734318Y-86782856D02*
X62794794Y-86661904D01*
X62794794Y-86661904D02*
X62855270Y-86601427D01*
X62855270Y-86601427D02*
X62976222Y-86540951D01*
X62976222Y-86540951D02*
X63157651Y-86540951D01*
X63157651Y-86540951D02*
X63278603Y-86601427D01*
X63278603Y-86601427D02*
X63339080Y-86661904D01*
X63339080Y-86661904D02*
X63399556Y-86782856D01*
X63399556Y-86782856D02*
X63399556Y-87266666D01*
X64004318Y-85331427D02*
X64004318Y-86057142D01*
X64004318Y-85694285D02*
X62734318Y-85694285D01*
X62734318Y-85694285D02*
X62915746Y-85815237D01*
X62915746Y-85815237D02*
X63036699Y-85936189D01*
X63036699Y-85936189D02*
X63097175Y-86057142D01*
D18*
X99484761Y-81527457D02*
X99389523Y-81479838D01*
X99389523Y-81479838D02*
X99294285Y-81384600D01*
X99294285Y-81384600D02*
X99151428Y-81241742D01*
X99151428Y-81241742D02*
X99056190Y-81194123D01*
X99056190Y-81194123D02*
X98960952Y-81194123D01*
X99008571Y-81432219D02*
X98913333Y-81384600D01*
X98913333Y-81384600D02*
X98818095Y-81289361D01*
X98818095Y-81289361D02*
X98770476Y-81098885D01*
X98770476Y-81098885D02*
X98770476Y-80765552D01*
X98770476Y-80765552D02*
X98818095Y-80575076D01*
X98818095Y-80575076D02*
X98913333Y-80479838D01*
X98913333Y-80479838D02*
X99008571Y-80432219D01*
X99008571Y-80432219D02*
X99199047Y-80432219D01*
X99199047Y-80432219D02*
X99294285Y-80479838D01*
X99294285Y-80479838D02*
X99389523Y-80575076D01*
X99389523Y-80575076D02*
X99437142Y-80765552D01*
X99437142Y-80765552D02*
X99437142Y-81098885D01*
X99437142Y-81098885D02*
X99389523Y-81289361D01*
X99389523Y-81289361D02*
X99294285Y-81384600D01*
X99294285Y-81384600D02*
X99199047Y-81432219D01*
X99199047Y-81432219D02*
X99008571Y-81432219D01*
X100389523Y-81432219D02*
X99818095Y-81432219D01*
X100103809Y-81432219D02*
X100103809Y-80432219D01*
X100103809Y-80432219D02*
X100008571Y-80575076D01*
X100008571Y-80575076D02*
X99913333Y-80670314D01*
X99913333Y-80670314D02*
X99818095Y-80717933D01*
D11*
X95436033Y-87406666D02*
X95102700Y-87639999D01*
X95436033Y-87806666D02*
X94736033Y-87806666D01*
X94736033Y-87806666D02*
X94736033Y-87539999D01*
X94736033Y-87539999D02*
X94769366Y-87473333D01*
X94769366Y-87473333D02*
X94802700Y-87439999D01*
X94802700Y-87439999D02*
X94869366Y-87406666D01*
X94869366Y-87406666D02*
X94969366Y-87406666D01*
X94969366Y-87406666D02*
X95036033Y-87439999D01*
X95036033Y-87439999D02*
X95069366Y-87473333D01*
X95069366Y-87473333D02*
X95102700Y-87539999D01*
X95102700Y-87539999D02*
X95102700Y-87806666D01*
X94736033Y-87173333D02*
X94736033Y-86706666D01*
X94736033Y-86706666D02*
X95436033Y-87006666D01*
X96466033Y-87466666D02*
X96132700Y-87699999D01*
X96466033Y-87866666D02*
X95766033Y-87866666D01*
X95766033Y-87866666D02*
X95766033Y-87599999D01*
X95766033Y-87599999D02*
X95799366Y-87533333D01*
X95799366Y-87533333D02*
X95832700Y-87499999D01*
X95832700Y-87499999D02*
X95899366Y-87466666D01*
X95899366Y-87466666D02*
X95999366Y-87466666D01*
X95999366Y-87466666D02*
X96066033Y-87499999D01*
X96066033Y-87499999D02*
X96099366Y-87533333D01*
X96099366Y-87533333D02*
X96132700Y-87599999D01*
X96132700Y-87599999D02*
X96132700Y-87866666D01*
X96066033Y-87066666D02*
X96032700Y-87133333D01*
X96032700Y-87133333D02*
X95999366Y-87166666D01*
X95999366Y-87166666D02*
X95932700Y-87199999D01*
X95932700Y-87199999D02*
X95899366Y-87199999D01*
X95899366Y-87199999D02*
X95832700Y-87166666D01*
X95832700Y-87166666D02*
X95799366Y-87133333D01*
X95799366Y-87133333D02*
X95766033Y-87066666D01*
X95766033Y-87066666D02*
X95766033Y-86933333D01*
X95766033Y-86933333D02*
X95799366Y-86866666D01*
X95799366Y-86866666D02*
X95832700Y-86833333D01*
X95832700Y-86833333D02*
X95899366Y-86799999D01*
X95899366Y-86799999D02*
X95932700Y-86799999D01*
X95932700Y-86799999D02*
X95999366Y-86833333D01*
X95999366Y-86833333D02*
X96032700Y-86866666D01*
X96032700Y-86866666D02*
X96066033Y-86933333D01*
X96066033Y-86933333D02*
X96066033Y-87066666D01*
X96066033Y-87066666D02*
X96099366Y-87133333D01*
X96099366Y-87133333D02*
X96132700Y-87166666D01*
X96132700Y-87166666D02*
X96199366Y-87199999D01*
X96199366Y-87199999D02*
X96332700Y-87199999D01*
X96332700Y-87199999D02*
X96399366Y-87166666D01*
X96399366Y-87166666D02*
X96432700Y-87133333D01*
X96432700Y-87133333D02*
X96466033Y-87066666D01*
X96466033Y-87066666D02*
X96466033Y-86933333D01*
X96466033Y-86933333D02*
X96432700Y-86866666D01*
X96432700Y-86866666D02*
X96399366Y-86833333D01*
X96399366Y-86833333D02*
X96332700Y-86799999D01*
X96332700Y-86799999D02*
X96199366Y-86799999D01*
X96199366Y-86799999D02*
X96132700Y-86833333D01*
X96132700Y-86833333D02*
X96099366Y-86866666D01*
X96099366Y-86866666D02*
X96066033Y-86933333D01*
X78233333Y-56156033D02*
X78000000Y-55822700D01*
X77833333Y-56156033D02*
X77833333Y-55456033D01*
X77833333Y-55456033D02*
X78100000Y-55456033D01*
X78100000Y-55456033D02*
X78166667Y-55489366D01*
X78166667Y-55489366D02*
X78200000Y-55522700D01*
X78200000Y-55522700D02*
X78233333Y-55589366D01*
X78233333Y-55589366D02*
X78233333Y-55689366D01*
X78233333Y-55689366D02*
X78200000Y-55756033D01*
X78200000Y-55756033D02*
X78166667Y-55789366D01*
X78166667Y-55789366D02*
X78100000Y-55822700D01*
X78100000Y-55822700D02*
X77833333Y-55822700D01*
X78566667Y-56156033D02*
X78700000Y-56156033D01*
X78700000Y-56156033D02*
X78766667Y-56122700D01*
X78766667Y-56122700D02*
X78800000Y-56089366D01*
X78800000Y-56089366D02*
X78866667Y-55989366D01*
X78866667Y-55989366D02*
X78900000Y-55856033D01*
X78900000Y-55856033D02*
X78900000Y-55589366D01*
X78900000Y-55589366D02*
X78866667Y-55522700D01*
X78866667Y-55522700D02*
X78833333Y-55489366D01*
X78833333Y-55489366D02*
X78766667Y-55456033D01*
X78766667Y-55456033D02*
X78633333Y-55456033D01*
X78633333Y-55456033D02*
X78566667Y-55489366D01*
X78566667Y-55489366D02*
X78533333Y-55522700D01*
X78533333Y-55522700D02*
X78500000Y-55589366D01*
X78500000Y-55589366D02*
X78500000Y-55756033D01*
X78500000Y-55756033D02*
X78533333Y-55822700D01*
X78533333Y-55822700D02*
X78566667Y-55856033D01*
X78566667Y-55856033D02*
X78633333Y-55889366D01*
X78633333Y-55889366D02*
X78766667Y-55889366D01*
X78766667Y-55889366D02*
X78833333Y-55856033D01*
X78833333Y-55856033D02*
X78866667Y-55822700D01*
X78866667Y-55822700D02*
X78900000Y-55756033D01*
X81899999Y-63856033D02*
X81666666Y-63522700D01*
X81499999Y-63856033D02*
X81499999Y-63156033D01*
X81499999Y-63156033D02*
X81766666Y-63156033D01*
X81766666Y-63156033D02*
X81833333Y-63189366D01*
X81833333Y-63189366D02*
X81866666Y-63222700D01*
X81866666Y-63222700D02*
X81899999Y-63289366D01*
X81899999Y-63289366D02*
X81899999Y-63389366D01*
X81899999Y-63389366D02*
X81866666Y-63456033D01*
X81866666Y-63456033D02*
X81833333Y-63489366D01*
X81833333Y-63489366D02*
X81766666Y-63522700D01*
X81766666Y-63522700D02*
X81499999Y-63522700D01*
X82566666Y-63856033D02*
X82166666Y-63856033D01*
X82366666Y-63856033D02*
X82366666Y-63156033D01*
X82366666Y-63156033D02*
X82299999Y-63256033D01*
X82299999Y-63256033D02*
X82233333Y-63322700D01*
X82233333Y-63322700D02*
X82166666Y-63356033D01*
X83000000Y-63156033D02*
X83066666Y-63156033D01*
X83066666Y-63156033D02*
X83133333Y-63189366D01*
X83133333Y-63189366D02*
X83166666Y-63222700D01*
X83166666Y-63222700D02*
X83200000Y-63289366D01*
X83200000Y-63289366D02*
X83233333Y-63422700D01*
X83233333Y-63422700D02*
X83233333Y-63589366D01*
X83233333Y-63589366D02*
X83200000Y-63722700D01*
X83200000Y-63722700D02*
X83166666Y-63789366D01*
X83166666Y-63789366D02*
X83133333Y-63822700D01*
X83133333Y-63822700D02*
X83066666Y-63856033D01*
X83066666Y-63856033D02*
X83000000Y-63856033D01*
X83000000Y-63856033D02*
X82933333Y-63822700D01*
X82933333Y-63822700D02*
X82900000Y-63789366D01*
X82900000Y-63789366D02*
X82866666Y-63722700D01*
X82866666Y-63722700D02*
X82833333Y-63589366D01*
X82833333Y-63589366D02*
X82833333Y-63422700D01*
X82833333Y-63422700D02*
X82866666Y-63289366D01*
X82866666Y-63289366D02*
X82900000Y-63222700D01*
X82900000Y-63222700D02*
X82933333Y-63189366D01*
X82933333Y-63189366D02*
X83000000Y-63156033D01*
X81919999Y-62766033D02*
X81686666Y-62432700D01*
X81519999Y-62766033D02*
X81519999Y-62066033D01*
X81519999Y-62066033D02*
X81786666Y-62066033D01*
X81786666Y-62066033D02*
X81853333Y-62099366D01*
X81853333Y-62099366D02*
X81886666Y-62132700D01*
X81886666Y-62132700D02*
X81919999Y-62199366D01*
X81919999Y-62199366D02*
X81919999Y-62299366D01*
X81919999Y-62299366D02*
X81886666Y-62366033D01*
X81886666Y-62366033D02*
X81853333Y-62399366D01*
X81853333Y-62399366D02*
X81786666Y-62432700D01*
X81786666Y-62432700D02*
X81519999Y-62432700D01*
X82586666Y-62766033D02*
X82186666Y-62766033D01*
X82386666Y-62766033D02*
X82386666Y-62066033D01*
X82386666Y-62066033D02*
X82319999Y-62166033D01*
X82319999Y-62166033D02*
X82253333Y-62232700D01*
X82253333Y-62232700D02*
X82186666Y-62266033D01*
X83253333Y-62766033D02*
X82853333Y-62766033D01*
X83053333Y-62766033D02*
X83053333Y-62066033D01*
X83053333Y-62066033D02*
X82986666Y-62166033D01*
X82986666Y-62166033D02*
X82920000Y-62232700D01*
X82920000Y-62232700D02*
X82853333Y-62266033D01*
X79949999Y-59516033D02*
X79716666Y-59182700D01*
X79549999Y-59516033D02*
X79549999Y-58816033D01*
X79549999Y-58816033D02*
X79816666Y-58816033D01*
X79816666Y-58816033D02*
X79883333Y-58849366D01*
X79883333Y-58849366D02*
X79916666Y-58882700D01*
X79916666Y-58882700D02*
X79949999Y-58949366D01*
X79949999Y-58949366D02*
X79949999Y-59049366D01*
X79949999Y-59049366D02*
X79916666Y-59116033D01*
X79916666Y-59116033D02*
X79883333Y-59149366D01*
X79883333Y-59149366D02*
X79816666Y-59182700D01*
X79816666Y-59182700D02*
X79549999Y-59182700D01*
X80616666Y-59516033D02*
X80216666Y-59516033D01*
X80416666Y-59516033D02*
X80416666Y-58816033D01*
X80416666Y-58816033D02*
X80349999Y-58916033D01*
X80349999Y-58916033D02*
X80283333Y-58982700D01*
X80283333Y-58982700D02*
X80216666Y-59016033D01*
X80883333Y-58882700D02*
X80916666Y-58849366D01*
X80916666Y-58849366D02*
X80983333Y-58816033D01*
X80983333Y-58816033D02*
X81150000Y-58816033D01*
X81150000Y-58816033D02*
X81216666Y-58849366D01*
X81216666Y-58849366D02*
X81250000Y-58882700D01*
X81250000Y-58882700D02*
X81283333Y-58949366D01*
X81283333Y-58949366D02*
X81283333Y-59016033D01*
X81283333Y-59016033D02*
X81250000Y-59116033D01*
X81250000Y-59116033D02*
X80850000Y-59516033D01*
X80850000Y-59516033D02*
X81283333Y-59516033D01*
X79116033Y-58750000D02*
X78782700Y-58983333D01*
X79116033Y-59150000D02*
X78416033Y-59150000D01*
X78416033Y-59150000D02*
X78416033Y-58883333D01*
X78416033Y-58883333D02*
X78449366Y-58816667D01*
X78449366Y-58816667D02*
X78482700Y-58783333D01*
X78482700Y-58783333D02*
X78549366Y-58750000D01*
X78549366Y-58750000D02*
X78649366Y-58750000D01*
X78649366Y-58750000D02*
X78716033Y-58783333D01*
X78716033Y-58783333D02*
X78749366Y-58816667D01*
X78749366Y-58816667D02*
X78782700Y-58883333D01*
X78782700Y-58883333D02*
X78782700Y-59150000D01*
X79116033Y-58083333D02*
X79116033Y-58483333D01*
X79116033Y-58283333D02*
X78416033Y-58283333D01*
X78416033Y-58283333D02*
X78516033Y-58350000D01*
X78516033Y-58350000D02*
X78582700Y-58416667D01*
X78582700Y-58416667D02*
X78616033Y-58483333D01*
X78416033Y-57850000D02*
X78416033Y-57416666D01*
X78416033Y-57416666D02*
X78682700Y-57650000D01*
X78682700Y-57650000D02*
X78682700Y-57550000D01*
X78682700Y-57550000D02*
X78716033Y-57483333D01*
X78716033Y-57483333D02*
X78749366Y-57450000D01*
X78749366Y-57450000D02*
X78816033Y-57416666D01*
X78816033Y-57416666D02*
X78982700Y-57416666D01*
X78982700Y-57416666D02*
X79049366Y-57450000D01*
X79049366Y-57450000D02*
X79082700Y-57483333D01*
X79082700Y-57483333D02*
X79116033Y-57550000D01*
X79116033Y-57550000D02*
X79116033Y-57750000D01*
X79116033Y-57750000D02*
X79082700Y-57816666D01*
X79082700Y-57816666D02*
X79049366Y-57850000D01*
X77939999Y-54906033D02*
X77706666Y-54572700D01*
X77539999Y-54906033D02*
X77539999Y-54206033D01*
X77539999Y-54206033D02*
X77806666Y-54206033D01*
X77806666Y-54206033D02*
X77873333Y-54239366D01*
X77873333Y-54239366D02*
X77906666Y-54272700D01*
X77906666Y-54272700D02*
X77939999Y-54339366D01*
X77939999Y-54339366D02*
X77939999Y-54439366D01*
X77939999Y-54439366D02*
X77906666Y-54506033D01*
X77906666Y-54506033D02*
X77873333Y-54539366D01*
X77873333Y-54539366D02*
X77806666Y-54572700D01*
X77806666Y-54572700D02*
X77539999Y-54572700D01*
X78606666Y-54906033D02*
X78206666Y-54906033D01*
X78406666Y-54906033D02*
X78406666Y-54206033D01*
X78406666Y-54206033D02*
X78339999Y-54306033D01*
X78339999Y-54306033D02*
X78273333Y-54372700D01*
X78273333Y-54372700D02*
X78206666Y-54406033D01*
X79206666Y-54439366D02*
X79206666Y-54906033D01*
X79040000Y-54172700D02*
X78873333Y-54672700D01*
X78873333Y-54672700D02*
X79306666Y-54672700D01*
X76359999Y-52506033D02*
X76126666Y-52172700D01*
X75959999Y-52506033D02*
X75959999Y-51806033D01*
X75959999Y-51806033D02*
X76226666Y-51806033D01*
X76226666Y-51806033D02*
X76293333Y-51839366D01*
X76293333Y-51839366D02*
X76326666Y-51872700D01*
X76326666Y-51872700D02*
X76359999Y-51939366D01*
X76359999Y-51939366D02*
X76359999Y-52039366D01*
X76359999Y-52039366D02*
X76326666Y-52106033D01*
X76326666Y-52106033D02*
X76293333Y-52139366D01*
X76293333Y-52139366D02*
X76226666Y-52172700D01*
X76226666Y-52172700D02*
X75959999Y-52172700D01*
X77026666Y-52506033D02*
X76626666Y-52506033D01*
X76826666Y-52506033D02*
X76826666Y-51806033D01*
X76826666Y-51806033D02*
X76759999Y-51906033D01*
X76759999Y-51906033D02*
X76693333Y-51972700D01*
X76693333Y-51972700D02*
X76626666Y-52006033D01*
X77660000Y-51806033D02*
X77326666Y-51806033D01*
X77326666Y-51806033D02*
X77293333Y-52139366D01*
X77293333Y-52139366D02*
X77326666Y-52106033D01*
X77326666Y-52106033D02*
X77393333Y-52072700D01*
X77393333Y-52072700D02*
X77560000Y-52072700D01*
X77560000Y-52072700D02*
X77626666Y-52106033D01*
X77626666Y-52106033D02*
X77660000Y-52139366D01*
X77660000Y-52139366D02*
X77693333Y-52206033D01*
X77693333Y-52206033D02*
X77693333Y-52372700D01*
X77693333Y-52372700D02*
X77660000Y-52439366D01*
X77660000Y-52439366D02*
X77626666Y-52472700D01*
X77626666Y-52472700D02*
X77560000Y-52506033D01*
X77560000Y-52506033D02*
X77393333Y-52506033D01*
X77393333Y-52506033D02*
X77326666Y-52472700D01*
X77326666Y-52472700D02*
X77293333Y-52439366D01*
X76897033Y-94303000D02*
X76563700Y-94536333D01*
X76897033Y-94703000D02*
X76197033Y-94703000D01*
X76197033Y-94703000D02*
X76197033Y-94436333D01*
X76197033Y-94436333D02*
X76230366Y-94369667D01*
X76230366Y-94369667D02*
X76263700Y-94336333D01*
X76263700Y-94336333D02*
X76330366Y-94303000D01*
X76330366Y-94303000D02*
X76430366Y-94303000D01*
X76430366Y-94303000D02*
X76497033Y-94336333D01*
X76497033Y-94336333D02*
X76530366Y-94369667D01*
X76530366Y-94369667D02*
X76563700Y-94436333D01*
X76563700Y-94436333D02*
X76563700Y-94703000D01*
X76897033Y-93636333D02*
X76897033Y-94036333D01*
X76897033Y-93836333D02*
X76197033Y-93836333D01*
X76197033Y-93836333D02*
X76297033Y-93903000D01*
X76297033Y-93903000D02*
X76363700Y-93969667D01*
X76363700Y-93969667D02*
X76397033Y-94036333D01*
X76197033Y-93403000D02*
X76197033Y-92936333D01*
X76197033Y-92936333D02*
X76897033Y-93236333D01*
X113966033Y-67760000D02*
X113632700Y-67993333D01*
X113966033Y-68160000D02*
X113266033Y-68160000D01*
X113266033Y-68160000D02*
X113266033Y-67893333D01*
X113266033Y-67893333D02*
X113299366Y-67826667D01*
X113299366Y-67826667D02*
X113332700Y-67793333D01*
X113332700Y-67793333D02*
X113399366Y-67760000D01*
X113399366Y-67760000D02*
X113499366Y-67760000D01*
X113499366Y-67760000D02*
X113566033Y-67793333D01*
X113566033Y-67793333D02*
X113599366Y-67826667D01*
X113599366Y-67826667D02*
X113632700Y-67893333D01*
X113632700Y-67893333D02*
X113632700Y-68160000D01*
X113966033Y-67093333D02*
X113966033Y-67493333D01*
X113966033Y-67293333D02*
X113266033Y-67293333D01*
X113266033Y-67293333D02*
X113366033Y-67360000D01*
X113366033Y-67360000D02*
X113432700Y-67426667D01*
X113432700Y-67426667D02*
X113466033Y-67493333D01*
X113966033Y-66760000D02*
X113966033Y-66626666D01*
X113966033Y-66626666D02*
X113932700Y-66560000D01*
X113932700Y-66560000D02*
X113899366Y-66526666D01*
X113899366Y-66526666D02*
X113799366Y-66460000D01*
X113799366Y-66460000D02*
X113666033Y-66426666D01*
X113666033Y-66426666D02*
X113399366Y-66426666D01*
X113399366Y-66426666D02*
X113332700Y-66460000D01*
X113332700Y-66460000D02*
X113299366Y-66493333D01*
X113299366Y-66493333D02*
X113266033Y-66560000D01*
X113266033Y-66560000D02*
X113266033Y-66693333D01*
X113266033Y-66693333D02*
X113299366Y-66760000D01*
X113299366Y-66760000D02*
X113332700Y-66793333D01*
X113332700Y-66793333D02*
X113399366Y-66826666D01*
X113399366Y-66826666D02*
X113566033Y-66826666D01*
X113566033Y-66826666D02*
X113632700Y-66793333D01*
X113632700Y-66793333D02*
X113666033Y-66760000D01*
X113666033Y-66760000D02*
X113699366Y-66693333D01*
X113699366Y-66693333D02*
X113699366Y-66560000D01*
X113699366Y-66560000D02*
X113666033Y-66493333D01*
X113666033Y-66493333D02*
X113632700Y-66460000D01*
X113632700Y-66460000D02*
X113566033Y-66426666D01*
D15*
X81169999Y-78938633D02*
X80936666Y-78605300D01*
X80769999Y-78938633D02*
X80769999Y-78238633D01*
X80769999Y-78238633D02*
X81036666Y-78238633D01*
X81036666Y-78238633D02*
X81103333Y-78271966D01*
X81103333Y-78271966D02*
X81136666Y-78305300D01*
X81136666Y-78305300D02*
X81169999Y-78371966D01*
X81169999Y-78371966D02*
X81169999Y-78471966D01*
X81169999Y-78471966D02*
X81136666Y-78538633D01*
X81136666Y-78538633D02*
X81103333Y-78571966D01*
X81103333Y-78571966D02*
X81036666Y-78605300D01*
X81036666Y-78605300D02*
X80769999Y-78605300D01*
X81436666Y-78305300D02*
X81469999Y-78271966D01*
X81469999Y-78271966D02*
X81536666Y-78238633D01*
X81536666Y-78238633D02*
X81703333Y-78238633D01*
X81703333Y-78238633D02*
X81769999Y-78271966D01*
X81769999Y-78271966D02*
X81803333Y-78305300D01*
X81803333Y-78305300D02*
X81836666Y-78371966D01*
X81836666Y-78371966D02*
X81836666Y-78438633D01*
X81836666Y-78438633D02*
X81803333Y-78538633D01*
X81803333Y-78538633D02*
X81403333Y-78938633D01*
X81403333Y-78938633D02*
X81836666Y-78938633D01*
X82270000Y-78238633D02*
X82336666Y-78238633D01*
X82336666Y-78238633D02*
X82403333Y-78271966D01*
X82403333Y-78271966D02*
X82436666Y-78305300D01*
X82436666Y-78305300D02*
X82470000Y-78371966D01*
X82470000Y-78371966D02*
X82503333Y-78505300D01*
X82503333Y-78505300D02*
X82503333Y-78671966D01*
X82503333Y-78671966D02*
X82470000Y-78805300D01*
X82470000Y-78805300D02*
X82436666Y-78871966D01*
X82436666Y-78871966D02*
X82403333Y-78905300D01*
X82403333Y-78905300D02*
X82336666Y-78938633D01*
X82336666Y-78938633D02*
X82270000Y-78938633D01*
X82270000Y-78938633D02*
X82203333Y-78905300D01*
X82203333Y-78905300D02*
X82170000Y-78871966D01*
X82170000Y-78871966D02*
X82136666Y-78805300D01*
X82136666Y-78805300D02*
X82103333Y-78671966D01*
X82103333Y-78671966D02*
X82103333Y-78505300D01*
X82103333Y-78505300D02*
X82136666Y-78371966D01*
X82136666Y-78371966D02*
X82170000Y-78305300D01*
X82170000Y-78305300D02*
X82203333Y-78271966D01*
X82203333Y-78271966D02*
X82270000Y-78238633D01*
X78568633Y-76460000D02*
X78235300Y-76693333D01*
X78568633Y-76860000D02*
X77868633Y-76860000D01*
X77868633Y-76860000D02*
X77868633Y-76593333D01*
X77868633Y-76593333D02*
X77901966Y-76526667D01*
X77901966Y-76526667D02*
X77935300Y-76493333D01*
X77935300Y-76493333D02*
X78001966Y-76460000D01*
X78001966Y-76460000D02*
X78101966Y-76460000D01*
X78101966Y-76460000D02*
X78168633Y-76493333D01*
X78168633Y-76493333D02*
X78201966Y-76526667D01*
X78201966Y-76526667D02*
X78235300Y-76593333D01*
X78235300Y-76593333D02*
X78235300Y-76860000D01*
X77935300Y-76193333D02*
X77901966Y-76160000D01*
X77901966Y-76160000D02*
X77868633Y-76093333D01*
X77868633Y-76093333D02*
X77868633Y-75926667D01*
X77868633Y-75926667D02*
X77901966Y-75860000D01*
X77901966Y-75860000D02*
X77935300Y-75826667D01*
X77935300Y-75826667D02*
X78001966Y-75793333D01*
X78001966Y-75793333D02*
X78068633Y-75793333D01*
X78068633Y-75793333D02*
X78168633Y-75826667D01*
X78168633Y-75826667D02*
X78568633Y-76226667D01*
X78568633Y-76226667D02*
X78568633Y-75793333D01*
X78568633Y-75126666D02*
X78568633Y-75526666D01*
X78568633Y-75326666D02*
X77868633Y-75326666D01*
X77868633Y-75326666D02*
X77968633Y-75393333D01*
X77968633Y-75393333D02*
X78035300Y-75460000D01*
X78035300Y-75460000D02*
X78068633Y-75526666D01*
D11*
X112199999Y-83206033D02*
X111966666Y-82872700D01*
X111799999Y-83206033D02*
X111799999Y-82506033D01*
X111799999Y-82506033D02*
X112066666Y-82506033D01*
X112066666Y-82506033D02*
X112133333Y-82539366D01*
X112133333Y-82539366D02*
X112166666Y-82572700D01*
X112166666Y-82572700D02*
X112199999Y-82639366D01*
X112199999Y-82639366D02*
X112199999Y-82739366D01*
X112199999Y-82739366D02*
X112166666Y-82806033D01*
X112166666Y-82806033D02*
X112133333Y-82839366D01*
X112133333Y-82839366D02*
X112066666Y-82872700D01*
X112066666Y-82872700D02*
X111799999Y-82872700D01*
X112466666Y-82572700D02*
X112499999Y-82539366D01*
X112499999Y-82539366D02*
X112566666Y-82506033D01*
X112566666Y-82506033D02*
X112733333Y-82506033D01*
X112733333Y-82506033D02*
X112799999Y-82539366D01*
X112799999Y-82539366D02*
X112833333Y-82572700D01*
X112833333Y-82572700D02*
X112866666Y-82639366D01*
X112866666Y-82639366D02*
X112866666Y-82706033D01*
X112866666Y-82706033D02*
X112833333Y-82806033D01*
X112833333Y-82806033D02*
X112433333Y-83206033D01*
X112433333Y-83206033D02*
X112866666Y-83206033D01*
X113500000Y-82506033D02*
X113166666Y-82506033D01*
X113166666Y-82506033D02*
X113133333Y-82839366D01*
X113133333Y-82839366D02*
X113166666Y-82806033D01*
X113166666Y-82806033D02*
X113233333Y-82772700D01*
X113233333Y-82772700D02*
X113400000Y-82772700D01*
X113400000Y-82772700D02*
X113466666Y-82806033D01*
X113466666Y-82806033D02*
X113500000Y-82839366D01*
X113500000Y-82839366D02*
X113533333Y-82906033D01*
X113533333Y-82906033D02*
X113533333Y-83072700D01*
X113533333Y-83072700D02*
X113500000Y-83139366D01*
X113500000Y-83139366D02*
X113466666Y-83172700D01*
X113466666Y-83172700D02*
X113400000Y-83206033D01*
X113400000Y-83206033D02*
X113233333Y-83206033D01*
X113233333Y-83206033D02*
X113166666Y-83172700D01*
X113166666Y-83172700D02*
X113133333Y-83139366D01*
X71659999Y-62006033D02*
X71426666Y-61672700D01*
X71259999Y-62006033D02*
X71259999Y-61306033D01*
X71259999Y-61306033D02*
X71526666Y-61306033D01*
X71526666Y-61306033D02*
X71593333Y-61339366D01*
X71593333Y-61339366D02*
X71626666Y-61372700D01*
X71626666Y-61372700D02*
X71659999Y-61439366D01*
X71659999Y-61439366D02*
X71659999Y-61539366D01*
X71659999Y-61539366D02*
X71626666Y-61606033D01*
X71626666Y-61606033D02*
X71593333Y-61639366D01*
X71593333Y-61639366D02*
X71526666Y-61672700D01*
X71526666Y-61672700D02*
X71259999Y-61672700D01*
X71926666Y-61372700D02*
X71959999Y-61339366D01*
X71959999Y-61339366D02*
X72026666Y-61306033D01*
X72026666Y-61306033D02*
X72193333Y-61306033D01*
X72193333Y-61306033D02*
X72259999Y-61339366D01*
X72259999Y-61339366D02*
X72293333Y-61372700D01*
X72293333Y-61372700D02*
X72326666Y-61439366D01*
X72326666Y-61439366D02*
X72326666Y-61506033D01*
X72326666Y-61506033D02*
X72293333Y-61606033D01*
X72293333Y-61606033D02*
X71893333Y-62006033D01*
X71893333Y-62006033D02*
X72326666Y-62006033D01*
X72926666Y-61306033D02*
X72793333Y-61306033D01*
X72793333Y-61306033D02*
X72726666Y-61339366D01*
X72726666Y-61339366D02*
X72693333Y-61372700D01*
X72693333Y-61372700D02*
X72626666Y-61472700D01*
X72626666Y-61472700D02*
X72593333Y-61606033D01*
X72593333Y-61606033D02*
X72593333Y-61872700D01*
X72593333Y-61872700D02*
X72626666Y-61939366D01*
X72626666Y-61939366D02*
X72660000Y-61972700D01*
X72660000Y-61972700D02*
X72726666Y-62006033D01*
X72726666Y-62006033D02*
X72860000Y-62006033D01*
X72860000Y-62006033D02*
X72926666Y-61972700D01*
X72926666Y-61972700D02*
X72960000Y-61939366D01*
X72960000Y-61939366D02*
X72993333Y-61872700D01*
X72993333Y-61872700D02*
X72993333Y-61706033D01*
X72993333Y-61706033D02*
X72960000Y-61639366D01*
X72960000Y-61639366D02*
X72926666Y-61606033D01*
X72926666Y-61606033D02*
X72860000Y-61572700D01*
X72860000Y-61572700D02*
X72726666Y-61572700D01*
X72726666Y-61572700D02*
X72660000Y-61606033D01*
X72660000Y-61606033D02*
X72626666Y-61639366D01*
X72626666Y-61639366D02*
X72593333Y-61706033D01*
X69479999Y-62046033D02*
X69246666Y-61712700D01*
X69079999Y-62046033D02*
X69079999Y-61346033D01*
X69079999Y-61346033D02*
X69346666Y-61346033D01*
X69346666Y-61346033D02*
X69413333Y-61379366D01*
X69413333Y-61379366D02*
X69446666Y-61412700D01*
X69446666Y-61412700D02*
X69479999Y-61479366D01*
X69479999Y-61479366D02*
X69479999Y-61579366D01*
X69479999Y-61579366D02*
X69446666Y-61646033D01*
X69446666Y-61646033D02*
X69413333Y-61679366D01*
X69413333Y-61679366D02*
X69346666Y-61712700D01*
X69346666Y-61712700D02*
X69079999Y-61712700D01*
X69746666Y-61412700D02*
X69779999Y-61379366D01*
X69779999Y-61379366D02*
X69846666Y-61346033D01*
X69846666Y-61346033D02*
X70013333Y-61346033D01*
X70013333Y-61346033D02*
X70079999Y-61379366D01*
X70079999Y-61379366D02*
X70113333Y-61412700D01*
X70113333Y-61412700D02*
X70146666Y-61479366D01*
X70146666Y-61479366D02*
X70146666Y-61546033D01*
X70146666Y-61546033D02*
X70113333Y-61646033D01*
X70113333Y-61646033D02*
X69713333Y-62046033D01*
X69713333Y-62046033D02*
X70146666Y-62046033D01*
X70380000Y-61346033D02*
X70846666Y-61346033D01*
X70846666Y-61346033D02*
X70546666Y-62046033D01*
X71629999Y-54956033D02*
X71396666Y-54622700D01*
X71229999Y-54956033D02*
X71229999Y-54256033D01*
X71229999Y-54256033D02*
X71496666Y-54256033D01*
X71496666Y-54256033D02*
X71563333Y-54289366D01*
X71563333Y-54289366D02*
X71596666Y-54322700D01*
X71596666Y-54322700D02*
X71629999Y-54389366D01*
X71629999Y-54389366D02*
X71629999Y-54489366D01*
X71629999Y-54489366D02*
X71596666Y-54556033D01*
X71596666Y-54556033D02*
X71563333Y-54589366D01*
X71563333Y-54589366D02*
X71496666Y-54622700D01*
X71496666Y-54622700D02*
X71229999Y-54622700D01*
X71896666Y-54322700D02*
X71929999Y-54289366D01*
X71929999Y-54289366D02*
X71996666Y-54256033D01*
X71996666Y-54256033D02*
X72163333Y-54256033D01*
X72163333Y-54256033D02*
X72229999Y-54289366D01*
X72229999Y-54289366D02*
X72263333Y-54322700D01*
X72263333Y-54322700D02*
X72296666Y-54389366D01*
X72296666Y-54389366D02*
X72296666Y-54456033D01*
X72296666Y-54456033D02*
X72263333Y-54556033D01*
X72263333Y-54556033D02*
X71863333Y-54956033D01*
X71863333Y-54956033D02*
X72296666Y-54956033D01*
X72696666Y-54556033D02*
X72630000Y-54522700D01*
X72630000Y-54522700D02*
X72596666Y-54489366D01*
X72596666Y-54489366D02*
X72563333Y-54422700D01*
X72563333Y-54422700D02*
X72563333Y-54389366D01*
X72563333Y-54389366D02*
X72596666Y-54322700D01*
X72596666Y-54322700D02*
X72630000Y-54289366D01*
X72630000Y-54289366D02*
X72696666Y-54256033D01*
X72696666Y-54256033D02*
X72830000Y-54256033D01*
X72830000Y-54256033D02*
X72896666Y-54289366D01*
X72896666Y-54289366D02*
X72930000Y-54322700D01*
X72930000Y-54322700D02*
X72963333Y-54389366D01*
X72963333Y-54389366D02*
X72963333Y-54422700D01*
X72963333Y-54422700D02*
X72930000Y-54489366D01*
X72930000Y-54489366D02*
X72896666Y-54522700D01*
X72896666Y-54522700D02*
X72830000Y-54556033D01*
X72830000Y-54556033D02*
X72696666Y-54556033D01*
X72696666Y-54556033D02*
X72630000Y-54589366D01*
X72630000Y-54589366D02*
X72596666Y-54622700D01*
X72596666Y-54622700D02*
X72563333Y-54689366D01*
X72563333Y-54689366D02*
X72563333Y-54822700D01*
X72563333Y-54822700D02*
X72596666Y-54889366D01*
X72596666Y-54889366D02*
X72630000Y-54922700D01*
X72630000Y-54922700D02*
X72696666Y-54956033D01*
X72696666Y-54956033D02*
X72830000Y-54956033D01*
X72830000Y-54956033D02*
X72896666Y-54922700D01*
X72896666Y-54922700D02*
X72930000Y-54889366D01*
X72930000Y-54889366D02*
X72963333Y-54822700D01*
X72963333Y-54822700D02*
X72963333Y-54689366D01*
X72963333Y-54689366D02*
X72930000Y-54622700D01*
X72930000Y-54622700D02*
X72896666Y-54589366D01*
X72896666Y-54589366D02*
X72830000Y-54556033D01*
X71619999Y-56066033D02*
X71386666Y-55732700D01*
X71219999Y-56066033D02*
X71219999Y-55366033D01*
X71219999Y-55366033D02*
X71486666Y-55366033D01*
X71486666Y-55366033D02*
X71553333Y-55399366D01*
X71553333Y-55399366D02*
X71586666Y-55432700D01*
X71586666Y-55432700D02*
X71619999Y-55499366D01*
X71619999Y-55499366D02*
X71619999Y-55599366D01*
X71619999Y-55599366D02*
X71586666Y-55666033D01*
X71586666Y-55666033D02*
X71553333Y-55699366D01*
X71553333Y-55699366D02*
X71486666Y-55732700D01*
X71486666Y-55732700D02*
X71219999Y-55732700D01*
X71886666Y-55432700D02*
X71919999Y-55399366D01*
X71919999Y-55399366D02*
X71986666Y-55366033D01*
X71986666Y-55366033D02*
X72153333Y-55366033D01*
X72153333Y-55366033D02*
X72219999Y-55399366D01*
X72219999Y-55399366D02*
X72253333Y-55432700D01*
X72253333Y-55432700D02*
X72286666Y-55499366D01*
X72286666Y-55499366D02*
X72286666Y-55566033D01*
X72286666Y-55566033D02*
X72253333Y-55666033D01*
X72253333Y-55666033D02*
X71853333Y-56066033D01*
X71853333Y-56066033D02*
X72286666Y-56066033D01*
X72620000Y-56066033D02*
X72753333Y-56066033D01*
X72753333Y-56066033D02*
X72820000Y-56032700D01*
X72820000Y-56032700D02*
X72853333Y-55999366D01*
X72853333Y-55999366D02*
X72920000Y-55899366D01*
X72920000Y-55899366D02*
X72953333Y-55766033D01*
X72953333Y-55766033D02*
X72953333Y-55499366D01*
X72953333Y-55499366D02*
X72920000Y-55432700D01*
X72920000Y-55432700D02*
X72886666Y-55399366D01*
X72886666Y-55399366D02*
X72820000Y-55366033D01*
X72820000Y-55366033D02*
X72686666Y-55366033D01*
X72686666Y-55366033D02*
X72620000Y-55399366D01*
X72620000Y-55399366D02*
X72586666Y-55432700D01*
X72586666Y-55432700D02*
X72553333Y-55499366D01*
X72553333Y-55499366D02*
X72553333Y-55666033D01*
X72553333Y-55666033D02*
X72586666Y-55732700D01*
X72586666Y-55732700D02*
X72620000Y-55766033D01*
X72620000Y-55766033D02*
X72686666Y-55799366D01*
X72686666Y-55799366D02*
X72820000Y-55799366D01*
X72820000Y-55799366D02*
X72886666Y-55766033D01*
X72886666Y-55766033D02*
X72920000Y-55732700D01*
X72920000Y-55732700D02*
X72953333Y-55666033D01*
X73809999Y-55006033D02*
X73576666Y-54672700D01*
X73409999Y-55006033D02*
X73409999Y-54306033D01*
X73409999Y-54306033D02*
X73676666Y-54306033D01*
X73676666Y-54306033D02*
X73743333Y-54339366D01*
X73743333Y-54339366D02*
X73776666Y-54372700D01*
X73776666Y-54372700D02*
X73809999Y-54439366D01*
X73809999Y-54439366D02*
X73809999Y-54539366D01*
X73809999Y-54539366D02*
X73776666Y-54606033D01*
X73776666Y-54606033D02*
X73743333Y-54639366D01*
X73743333Y-54639366D02*
X73676666Y-54672700D01*
X73676666Y-54672700D02*
X73409999Y-54672700D01*
X74043333Y-54306033D02*
X74476666Y-54306033D01*
X74476666Y-54306033D02*
X74243333Y-54572700D01*
X74243333Y-54572700D02*
X74343333Y-54572700D01*
X74343333Y-54572700D02*
X74409999Y-54606033D01*
X74409999Y-54606033D02*
X74443333Y-54639366D01*
X74443333Y-54639366D02*
X74476666Y-54706033D01*
X74476666Y-54706033D02*
X74476666Y-54872700D01*
X74476666Y-54872700D02*
X74443333Y-54939366D01*
X74443333Y-54939366D02*
X74409999Y-54972700D01*
X74409999Y-54972700D02*
X74343333Y-55006033D01*
X74343333Y-55006033D02*
X74143333Y-55006033D01*
X74143333Y-55006033D02*
X74076666Y-54972700D01*
X74076666Y-54972700D02*
X74043333Y-54939366D01*
X74910000Y-54306033D02*
X74976666Y-54306033D01*
X74976666Y-54306033D02*
X75043333Y-54339366D01*
X75043333Y-54339366D02*
X75076666Y-54372700D01*
X75076666Y-54372700D02*
X75110000Y-54439366D01*
X75110000Y-54439366D02*
X75143333Y-54572700D01*
X75143333Y-54572700D02*
X75143333Y-54739366D01*
X75143333Y-54739366D02*
X75110000Y-54872700D01*
X75110000Y-54872700D02*
X75076666Y-54939366D01*
X75076666Y-54939366D02*
X75043333Y-54972700D01*
X75043333Y-54972700D02*
X74976666Y-55006033D01*
X74976666Y-55006033D02*
X74910000Y-55006033D01*
X74910000Y-55006033D02*
X74843333Y-54972700D01*
X74843333Y-54972700D02*
X74810000Y-54939366D01*
X74810000Y-54939366D02*
X74776666Y-54872700D01*
X74776666Y-54872700D02*
X74743333Y-54739366D01*
X74743333Y-54739366D02*
X74743333Y-54572700D01*
X74743333Y-54572700D02*
X74776666Y-54439366D01*
X74776666Y-54439366D02*
X74810000Y-54372700D01*
X74810000Y-54372700D02*
X74843333Y-54339366D01*
X74843333Y-54339366D02*
X74910000Y-54306033D01*
X67919999Y-53676033D02*
X67686666Y-53342700D01*
X67519999Y-53676033D02*
X67519999Y-52976033D01*
X67519999Y-52976033D02*
X67786666Y-52976033D01*
X67786666Y-52976033D02*
X67853333Y-53009366D01*
X67853333Y-53009366D02*
X67886666Y-53042700D01*
X67886666Y-53042700D02*
X67919999Y-53109366D01*
X67919999Y-53109366D02*
X67919999Y-53209366D01*
X67919999Y-53209366D02*
X67886666Y-53276033D01*
X67886666Y-53276033D02*
X67853333Y-53309366D01*
X67853333Y-53309366D02*
X67786666Y-53342700D01*
X67786666Y-53342700D02*
X67519999Y-53342700D01*
X68153333Y-52976033D02*
X68586666Y-52976033D01*
X68586666Y-52976033D02*
X68353333Y-53242700D01*
X68353333Y-53242700D02*
X68453333Y-53242700D01*
X68453333Y-53242700D02*
X68519999Y-53276033D01*
X68519999Y-53276033D02*
X68553333Y-53309366D01*
X68553333Y-53309366D02*
X68586666Y-53376033D01*
X68586666Y-53376033D02*
X68586666Y-53542700D01*
X68586666Y-53542700D02*
X68553333Y-53609366D01*
X68553333Y-53609366D02*
X68519999Y-53642700D01*
X68519999Y-53642700D02*
X68453333Y-53676033D01*
X68453333Y-53676033D02*
X68253333Y-53676033D01*
X68253333Y-53676033D02*
X68186666Y-53642700D01*
X68186666Y-53642700D02*
X68153333Y-53609366D01*
X69253333Y-53676033D02*
X68853333Y-53676033D01*
X69053333Y-53676033D02*
X69053333Y-52976033D01*
X69053333Y-52976033D02*
X68986666Y-53076033D01*
X68986666Y-53076033D02*
X68920000Y-53142700D01*
X68920000Y-53142700D02*
X68853333Y-53176033D01*
X68639999Y-58446033D02*
X68406666Y-58112700D01*
X68239999Y-58446033D02*
X68239999Y-57746033D01*
X68239999Y-57746033D02*
X68506666Y-57746033D01*
X68506666Y-57746033D02*
X68573333Y-57779366D01*
X68573333Y-57779366D02*
X68606666Y-57812700D01*
X68606666Y-57812700D02*
X68639999Y-57879366D01*
X68639999Y-57879366D02*
X68639999Y-57979366D01*
X68639999Y-57979366D02*
X68606666Y-58046033D01*
X68606666Y-58046033D02*
X68573333Y-58079366D01*
X68573333Y-58079366D02*
X68506666Y-58112700D01*
X68506666Y-58112700D02*
X68239999Y-58112700D01*
X68873333Y-57746033D02*
X69306666Y-57746033D01*
X69306666Y-57746033D02*
X69073333Y-58012700D01*
X69073333Y-58012700D02*
X69173333Y-58012700D01*
X69173333Y-58012700D02*
X69239999Y-58046033D01*
X69239999Y-58046033D02*
X69273333Y-58079366D01*
X69273333Y-58079366D02*
X69306666Y-58146033D01*
X69306666Y-58146033D02*
X69306666Y-58312700D01*
X69306666Y-58312700D02*
X69273333Y-58379366D01*
X69273333Y-58379366D02*
X69239999Y-58412700D01*
X69239999Y-58412700D02*
X69173333Y-58446033D01*
X69173333Y-58446033D02*
X68973333Y-58446033D01*
X68973333Y-58446033D02*
X68906666Y-58412700D01*
X68906666Y-58412700D02*
X68873333Y-58379366D01*
X69573333Y-57812700D02*
X69606666Y-57779366D01*
X69606666Y-57779366D02*
X69673333Y-57746033D01*
X69673333Y-57746033D02*
X69840000Y-57746033D01*
X69840000Y-57746033D02*
X69906666Y-57779366D01*
X69906666Y-57779366D02*
X69940000Y-57812700D01*
X69940000Y-57812700D02*
X69973333Y-57879366D01*
X69973333Y-57879366D02*
X69973333Y-57946033D01*
X69973333Y-57946033D02*
X69940000Y-58046033D01*
X69940000Y-58046033D02*
X69540000Y-58446033D01*
X69540000Y-58446033D02*
X69973333Y-58446033D01*
X78379999Y-52486033D02*
X78146666Y-52152700D01*
X77979999Y-52486033D02*
X77979999Y-51786033D01*
X77979999Y-51786033D02*
X78246666Y-51786033D01*
X78246666Y-51786033D02*
X78313333Y-51819366D01*
X78313333Y-51819366D02*
X78346666Y-51852700D01*
X78346666Y-51852700D02*
X78379999Y-51919366D01*
X78379999Y-51919366D02*
X78379999Y-52019366D01*
X78379999Y-52019366D02*
X78346666Y-52086033D01*
X78346666Y-52086033D02*
X78313333Y-52119366D01*
X78313333Y-52119366D02*
X78246666Y-52152700D01*
X78246666Y-52152700D02*
X77979999Y-52152700D01*
X78613333Y-51786033D02*
X79046666Y-51786033D01*
X79046666Y-51786033D02*
X78813333Y-52052700D01*
X78813333Y-52052700D02*
X78913333Y-52052700D01*
X78913333Y-52052700D02*
X78979999Y-52086033D01*
X78979999Y-52086033D02*
X79013333Y-52119366D01*
X79013333Y-52119366D02*
X79046666Y-52186033D01*
X79046666Y-52186033D02*
X79046666Y-52352700D01*
X79046666Y-52352700D02*
X79013333Y-52419366D01*
X79013333Y-52419366D02*
X78979999Y-52452700D01*
X78979999Y-52452700D02*
X78913333Y-52486033D01*
X78913333Y-52486033D02*
X78713333Y-52486033D01*
X78713333Y-52486033D02*
X78646666Y-52452700D01*
X78646666Y-52452700D02*
X78613333Y-52419366D01*
X79280000Y-51786033D02*
X79713333Y-51786033D01*
X79713333Y-51786033D02*
X79480000Y-52052700D01*
X79480000Y-52052700D02*
X79580000Y-52052700D01*
X79580000Y-52052700D02*
X79646666Y-52086033D01*
X79646666Y-52086033D02*
X79680000Y-52119366D01*
X79680000Y-52119366D02*
X79713333Y-52186033D01*
X79713333Y-52186033D02*
X79713333Y-52352700D01*
X79713333Y-52352700D02*
X79680000Y-52419366D01*
X79680000Y-52419366D02*
X79646666Y-52452700D01*
X79646666Y-52452700D02*
X79580000Y-52486033D01*
X79580000Y-52486033D02*
X79380000Y-52486033D01*
X79380000Y-52486033D02*
X79313333Y-52452700D01*
X79313333Y-52452700D02*
X79280000Y-52419366D01*
X80389999Y-52456033D02*
X80156666Y-52122700D01*
X79989999Y-52456033D02*
X79989999Y-51756033D01*
X79989999Y-51756033D02*
X80256666Y-51756033D01*
X80256666Y-51756033D02*
X80323333Y-51789366D01*
X80323333Y-51789366D02*
X80356666Y-51822700D01*
X80356666Y-51822700D02*
X80389999Y-51889366D01*
X80389999Y-51889366D02*
X80389999Y-51989366D01*
X80389999Y-51989366D02*
X80356666Y-52056033D01*
X80356666Y-52056033D02*
X80323333Y-52089366D01*
X80323333Y-52089366D02*
X80256666Y-52122700D01*
X80256666Y-52122700D02*
X79989999Y-52122700D01*
X80623333Y-51756033D02*
X81056666Y-51756033D01*
X81056666Y-51756033D02*
X80823333Y-52022700D01*
X80823333Y-52022700D02*
X80923333Y-52022700D01*
X80923333Y-52022700D02*
X80989999Y-52056033D01*
X80989999Y-52056033D02*
X81023333Y-52089366D01*
X81023333Y-52089366D02*
X81056666Y-52156033D01*
X81056666Y-52156033D02*
X81056666Y-52322700D01*
X81056666Y-52322700D02*
X81023333Y-52389366D01*
X81023333Y-52389366D02*
X80989999Y-52422700D01*
X80989999Y-52422700D02*
X80923333Y-52456033D01*
X80923333Y-52456033D02*
X80723333Y-52456033D01*
X80723333Y-52456033D02*
X80656666Y-52422700D01*
X80656666Y-52422700D02*
X80623333Y-52389366D01*
X81656666Y-51989366D02*
X81656666Y-52456033D01*
X81490000Y-51722700D02*
X81323333Y-52222700D01*
X81323333Y-52222700D02*
X81756666Y-52222700D01*
D18*
X112520313Y-59105200D02*
X112634599Y-59143295D01*
X112634599Y-59143295D02*
X112825075Y-59143295D01*
X112825075Y-59143295D02*
X112901266Y-59105200D01*
X112901266Y-59105200D02*
X112939361Y-59067104D01*
X112939361Y-59067104D02*
X112977456Y-58990914D01*
X112977456Y-58990914D02*
X112977456Y-58914723D01*
X112977456Y-58914723D02*
X112939361Y-58838533D01*
X112939361Y-58838533D02*
X112901266Y-58800438D01*
X112901266Y-58800438D02*
X112825075Y-58762342D01*
X112825075Y-58762342D02*
X112672694Y-58724247D01*
X112672694Y-58724247D02*
X112596504Y-58686152D01*
X112596504Y-58686152D02*
X112558409Y-58648057D01*
X112558409Y-58648057D02*
X112520313Y-58571866D01*
X112520313Y-58571866D02*
X112520313Y-58495676D01*
X112520313Y-58495676D02*
X112558409Y-58419485D01*
X112558409Y-58419485D02*
X112596504Y-58381390D01*
X112596504Y-58381390D02*
X112672694Y-58343295D01*
X112672694Y-58343295D02*
X112863171Y-58343295D01*
X112863171Y-58343295D02*
X112977456Y-58381390D01*
X113548885Y-58343295D02*
X113548885Y-58914723D01*
X113548885Y-58914723D02*
X113510790Y-59029009D01*
X113510790Y-59029009D02*
X113434599Y-59105200D01*
X113434599Y-59105200D02*
X113320314Y-59143295D01*
X113320314Y-59143295D02*
X113244123Y-59143295D01*
X114310790Y-58343295D02*
X113929838Y-58343295D01*
X113929838Y-58343295D02*
X113891742Y-58724247D01*
X113891742Y-58724247D02*
X113929838Y-58686152D01*
X113929838Y-58686152D02*
X114006028Y-58648057D01*
X114006028Y-58648057D02*
X114196504Y-58648057D01*
X114196504Y-58648057D02*
X114272695Y-58686152D01*
X114272695Y-58686152D02*
X114310790Y-58724247D01*
X114310790Y-58724247D02*
X114348885Y-58800438D01*
X114348885Y-58800438D02*
X114348885Y-58990914D01*
X114348885Y-58990914D02*
X114310790Y-59067104D01*
X114310790Y-59067104D02*
X114272695Y-59105200D01*
X114272695Y-59105200D02*
X114196504Y-59143295D01*
X114196504Y-59143295D02*
X114006028Y-59143295D01*
X114006028Y-59143295D02*
X113929838Y-59105200D01*
X113929838Y-59105200D02*
X113891742Y-59067104D01*
D11*
X64656666Y-51072700D02*
X64756666Y-51106033D01*
X64756666Y-51106033D02*
X64923333Y-51106033D01*
X64923333Y-51106033D02*
X64989999Y-51072700D01*
X64989999Y-51072700D02*
X65023333Y-51039366D01*
X65023333Y-51039366D02*
X65056666Y-50972700D01*
X65056666Y-50972700D02*
X65056666Y-50906033D01*
X65056666Y-50906033D02*
X65023333Y-50839366D01*
X65023333Y-50839366D02*
X64989999Y-50806033D01*
X64989999Y-50806033D02*
X64923333Y-50772700D01*
X64923333Y-50772700D02*
X64789999Y-50739366D01*
X64789999Y-50739366D02*
X64723333Y-50706033D01*
X64723333Y-50706033D02*
X64689999Y-50672700D01*
X64689999Y-50672700D02*
X64656666Y-50606033D01*
X64656666Y-50606033D02*
X64656666Y-50539366D01*
X64656666Y-50539366D02*
X64689999Y-50472700D01*
X64689999Y-50472700D02*
X64723333Y-50439366D01*
X64723333Y-50439366D02*
X64789999Y-50406033D01*
X64789999Y-50406033D02*
X64956666Y-50406033D01*
X64956666Y-50406033D02*
X65056666Y-50439366D01*
X65290000Y-50406033D02*
X65456666Y-51106033D01*
X65456666Y-51106033D02*
X65590000Y-50606033D01*
X65590000Y-50606033D02*
X65723333Y-51106033D01*
X65723333Y-51106033D02*
X65890000Y-50406033D01*
X66523333Y-51106033D02*
X66123333Y-51106033D01*
X66323333Y-51106033D02*
X66323333Y-50406033D01*
X66323333Y-50406033D02*
X66256666Y-50506033D01*
X66256666Y-50506033D02*
X66190000Y-50572700D01*
X66190000Y-50572700D02*
X66123333Y-50606033D01*
D15*
X67138666Y-94519300D02*
X67238666Y-94552633D01*
X67238666Y-94552633D02*
X67405333Y-94552633D01*
X67405333Y-94552633D02*
X67471999Y-94519300D01*
X67471999Y-94519300D02*
X67505333Y-94485966D01*
X67505333Y-94485966D02*
X67538666Y-94419300D01*
X67538666Y-94419300D02*
X67538666Y-94352633D01*
X67538666Y-94352633D02*
X67505333Y-94285966D01*
X67505333Y-94285966D02*
X67471999Y-94252633D01*
X67471999Y-94252633D02*
X67405333Y-94219300D01*
X67405333Y-94219300D02*
X67271999Y-94185966D01*
X67271999Y-94185966D02*
X67205333Y-94152633D01*
X67205333Y-94152633D02*
X67171999Y-94119300D01*
X67171999Y-94119300D02*
X67138666Y-94052633D01*
X67138666Y-94052633D02*
X67138666Y-93985966D01*
X67138666Y-93985966D02*
X67171999Y-93919300D01*
X67171999Y-93919300D02*
X67205333Y-93885966D01*
X67205333Y-93885966D02*
X67271999Y-93852633D01*
X67271999Y-93852633D02*
X67438666Y-93852633D01*
X67438666Y-93852633D02*
X67538666Y-93885966D01*
X67772000Y-93852633D02*
X67938666Y-94552633D01*
X67938666Y-94552633D02*
X68072000Y-94052633D01*
X68072000Y-94052633D02*
X68205333Y-94552633D01*
X68205333Y-94552633D02*
X68372000Y-93852633D01*
X68605333Y-93919300D02*
X68638666Y-93885966D01*
X68638666Y-93885966D02*
X68705333Y-93852633D01*
X68705333Y-93852633D02*
X68872000Y-93852633D01*
X68872000Y-93852633D02*
X68938666Y-93885966D01*
X68938666Y-93885966D02*
X68972000Y-93919300D01*
X68972000Y-93919300D02*
X69005333Y-93985966D01*
X69005333Y-93985966D02*
X69005333Y-94052633D01*
X69005333Y-94052633D02*
X68972000Y-94152633D01*
X68972000Y-94152633D02*
X68572000Y-94552633D01*
X68572000Y-94552633D02*
X69005333Y-94552633D01*
D14*
X92475632Y-86575715D02*
X93366109Y-86575715D01*
X93366109Y-86575715D02*
X93470871Y-86523334D01*
X93470871Y-86523334D02*
X93523252Y-86470953D01*
X93523252Y-86470953D02*
X93575632Y-86366191D01*
X93575632Y-86366191D02*
X93575632Y-86156667D01*
X93575632Y-86156667D02*
X93523252Y-86051905D01*
X93523252Y-86051905D02*
X93470871Y-85999524D01*
X93470871Y-85999524D02*
X93366109Y-85947143D01*
X93366109Y-85947143D02*
X92475632Y-85947143D01*
X92475632Y-85528096D02*
X92475632Y-84847143D01*
X92475632Y-84847143D02*
X92894680Y-85213810D01*
X92894680Y-85213810D02*
X92894680Y-85056667D01*
X92894680Y-85056667D02*
X92947061Y-84951905D01*
X92947061Y-84951905D02*
X92999442Y-84899524D01*
X92999442Y-84899524D02*
X93104204Y-84847143D01*
X93104204Y-84847143D02*
X93366109Y-84847143D01*
X93366109Y-84847143D02*
X93470871Y-84899524D01*
X93470871Y-84899524D02*
X93523252Y-84951905D01*
X93523252Y-84951905D02*
X93575632Y-85056667D01*
X93575632Y-85056667D02*
X93575632Y-85370953D01*
X93575632Y-85370953D02*
X93523252Y-85475715D01*
X93523252Y-85475715D02*
X93470871Y-85528096D01*
D20*
X87598881Y-86412853D02*
X87744024Y-86461233D01*
X87744024Y-86461233D02*
X87985929Y-86461233D01*
X87985929Y-86461233D02*
X88082691Y-86412853D01*
X88082691Y-86412853D02*
X88131072Y-86364472D01*
X88131072Y-86364472D02*
X88179453Y-86267710D01*
X88179453Y-86267710D02*
X88179453Y-86170948D01*
X88179453Y-86170948D02*
X88131072Y-86074186D01*
X88131072Y-86074186D02*
X88082691Y-86025805D01*
X88082691Y-86025805D02*
X87985929Y-85977424D01*
X87985929Y-85977424D02*
X87792405Y-85929043D01*
X87792405Y-85929043D02*
X87695643Y-85880662D01*
X87695643Y-85880662D02*
X87647262Y-85832281D01*
X87647262Y-85832281D02*
X87598881Y-85735519D01*
X87598881Y-85735519D02*
X87598881Y-85638757D01*
X87598881Y-85638757D02*
X87647262Y-85541995D01*
X87647262Y-85541995D02*
X87695643Y-85493614D01*
X87695643Y-85493614D02*
X87792405Y-85445233D01*
X87792405Y-85445233D02*
X88034310Y-85445233D01*
X88034310Y-85445233D02*
X88179453Y-85493614D01*
X88808405Y-85445233D02*
X89001929Y-85445233D01*
X89001929Y-85445233D02*
X89098691Y-85493614D01*
X89098691Y-85493614D02*
X89195453Y-85590376D01*
X89195453Y-85590376D02*
X89243834Y-85783900D01*
X89243834Y-85783900D02*
X89243834Y-86122567D01*
X89243834Y-86122567D02*
X89195453Y-86316091D01*
X89195453Y-86316091D02*
X89098691Y-86412853D01*
X89098691Y-86412853D02*
X89001929Y-86461233D01*
X89001929Y-86461233D02*
X88808405Y-86461233D01*
X88808405Y-86461233D02*
X88711643Y-86412853D01*
X88711643Y-86412853D02*
X88614881Y-86316091D01*
X88614881Y-86316091D02*
X88566500Y-86122567D01*
X88566500Y-86122567D02*
X88566500Y-85783900D01*
X88566500Y-85783900D02*
X88614881Y-85590376D01*
X88614881Y-85590376D02*
X88711643Y-85493614D01*
X88711643Y-85493614D02*
X88808405Y-85445233D01*
X89679262Y-86074186D02*
X90453358Y-86074186D01*
X91082310Y-85880662D02*
X90985548Y-85832281D01*
X90985548Y-85832281D02*
X90937167Y-85783900D01*
X90937167Y-85783900D02*
X90888786Y-85687138D01*
X90888786Y-85687138D02*
X90888786Y-85638757D01*
X90888786Y-85638757D02*
X90937167Y-85541995D01*
X90937167Y-85541995D02*
X90985548Y-85493614D01*
X90985548Y-85493614D02*
X91082310Y-85445233D01*
X91082310Y-85445233D02*
X91275834Y-85445233D01*
X91275834Y-85445233D02*
X91372596Y-85493614D01*
X91372596Y-85493614D02*
X91420977Y-85541995D01*
X91420977Y-85541995D02*
X91469358Y-85638757D01*
X91469358Y-85638757D02*
X91469358Y-85687138D01*
X91469358Y-85687138D02*
X91420977Y-85783900D01*
X91420977Y-85783900D02*
X91372596Y-85832281D01*
X91372596Y-85832281D02*
X91275834Y-85880662D01*
X91275834Y-85880662D02*
X91082310Y-85880662D01*
X91082310Y-85880662D02*
X90985548Y-85929043D01*
X90985548Y-85929043D02*
X90937167Y-85977424D01*
X90937167Y-85977424D02*
X90888786Y-86074186D01*
X90888786Y-86074186D02*
X90888786Y-86267710D01*
X90888786Y-86267710D02*
X90937167Y-86364472D01*
X90937167Y-86364472D02*
X90985548Y-86412853D01*
X90985548Y-86412853D02*
X91082310Y-86461233D01*
X91082310Y-86461233D02*
X91275834Y-86461233D01*
X91275834Y-86461233D02*
X91372596Y-86412853D01*
X91372596Y-86412853D02*
X91420977Y-86364472D01*
X91420977Y-86364472D02*
X91469358Y-86267710D01*
X91469358Y-86267710D02*
X91469358Y-86074186D01*
X91469358Y-86074186D02*
X91420977Y-85977424D01*
X91420977Y-85977424D02*
X91372596Y-85929043D01*
X91372596Y-85929043D02*
X91275834Y-85880662D01*
D11*
X83798095Y-74384819D02*
X83798095Y-75194342D01*
X83798095Y-75194342D02*
X83845714Y-75289580D01*
X83845714Y-75289580D02*
X83893333Y-75337200D01*
X83893333Y-75337200D02*
X83988571Y-75384819D01*
X83988571Y-75384819D02*
X84179047Y-75384819D01*
X84179047Y-75384819D02*
X84274285Y-75337200D01*
X84274285Y-75337200D02*
X84321904Y-75289580D01*
X84321904Y-75289580D02*
X84369523Y-75194342D01*
X84369523Y-75194342D02*
X84369523Y-74384819D01*
X85274285Y-74718152D02*
X85274285Y-75384819D01*
X85036190Y-74337200D02*
X84798095Y-75051485D01*
X84798095Y-75051485D02*
X85417142Y-75051485D01*
D14*
X105692380Y-81764318D02*
X105692380Y-82792413D01*
X105692380Y-82792413D02*
X105752857Y-82913365D01*
X105752857Y-82913365D02*
X105813333Y-82973842D01*
X105813333Y-82973842D02*
X105934285Y-83034318D01*
X105934285Y-83034318D02*
X106176190Y-83034318D01*
X106176190Y-83034318D02*
X106297142Y-82973842D01*
X106297142Y-82973842D02*
X106357619Y-82913365D01*
X106357619Y-82913365D02*
X106418095Y-82792413D01*
X106418095Y-82792413D02*
X106418095Y-81764318D01*
X107627618Y-81764318D02*
X107022856Y-81764318D01*
X107022856Y-81764318D02*
X106962380Y-82369080D01*
X106962380Y-82369080D02*
X107022856Y-82308603D01*
X107022856Y-82308603D02*
X107143809Y-82248127D01*
X107143809Y-82248127D02*
X107446190Y-82248127D01*
X107446190Y-82248127D02*
X107567142Y-82308603D01*
X107567142Y-82308603D02*
X107627618Y-82369080D01*
X107627618Y-82369080D02*
X107688095Y-82490032D01*
X107688095Y-82490032D02*
X107688095Y-82792413D01*
X107688095Y-82792413D02*
X107627618Y-82913365D01*
X107627618Y-82913365D02*
X107567142Y-82973842D01*
X107567142Y-82973842D02*
X107446190Y-83034318D01*
X107446190Y-83034318D02*
X107143809Y-83034318D01*
X107143809Y-83034318D02*
X107022856Y-82973842D01*
X107022856Y-82973842D02*
X106962380Y-82913365D01*
D12*
X109017143Y-75840928D02*
X108302857Y-75840928D01*
X108302857Y-75840928D02*
X108302857Y-74340928D01*
X110517143Y-75983785D02*
X110374286Y-75912357D01*
X110374286Y-75912357D02*
X110231429Y-75769500D01*
X110231429Y-75769500D02*
X110017143Y-75555214D01*
X110017143Y-75555214D02*
X109874286Y-75483785D01*
X109874286Y-75483785D02*
X109731429Y-75483785D01*
X109802858Y-75840928D02*
X109660001Y-75769500D01*
X109660001Y-75769500D02*
X109517143Y-75626642D01*
X109517143Y-75626642D02*
X109445715Y-75340928D01*
X109445715Y-75340928D02*
X109445715Y-74840928D01*
X109445715Y-74840928D02*
X109517143Y-74555214D01*
X109517143Y-74555214D02*
X109660001Y-74412357D01*
X109660001Y-74412357D02*
X109802858Y-74340928D01*
X109802858Y-74340928D02*
X110088572Y-74340928D01*
X110088572Y-74340928D02*
X110231429Y-74412357D01*
X110231429Y-74412357D02*
X110374286Y-74555214D01*
X110374286Y-74555214D02*
X110445715Y-74840928D01*
X110445715Y-74840928D02*
X110445715Y-75340928D01*
X110445715Y-75340928D02*
X110374286Y-75626642D01*
X110374286Y-75626642D02*
X110231429Y-75769500D01*
X110231429Y-75769500D02*
X110088572Y-75840928D01*
X110088572Y-75840928D02*
X109802858Y-75840928D01*
X111588572Y-75055214D02*
X111088572Y-75055214D01*
X111088572Y-75840928D02*
X111088572Y-74340928D01*
X111088572Y-74340928D02*
X111802858Y-74340928D01*
X112374286Y-75840928D02*
X112374286Y-74340928D01*
X112374286Y-74340928D02*
X112945715Y-74340928D01*
X112945715Y-74340928D02*
X113088572Y-74412357D01*
X113088572Y-74412357D02*
X113160001Y-74483785D01*
X113160001Y-74483785D02*
X113231429Y-74626642D01*
X113231429Y-74626642D02*
X113231429Y-74840928D01*
X113231429Y-74840928D02*
X113160001Y-74983785D01*
X113160001Y-74983785D02*
X113088572Y-75055214D01*
X113088572Y-75055214D02*
X112945715Y-75126642D01*
X112945715Y-75126642D02*
X112374286Y-75126642D01*
X114517144Y-74340928D02*
X114231429Y-74340928D01*
X114231429Y-74340928D02*
X114088572Y-74412357D01*
X114088572Y-74412357D02*
X114017144Y-74483785D01*
X114017144Y-74483785D02*
X113874286Y-74698071D01*
X113874286Y-74698071D02*
X113802858Y-74983785D01*
X113802858Y-74983785D02*
X113802858Y-75555214D01*
X113802858Y-75555214D02*
X113874286Y-75698071D01*
X113874286Y-75698071D02*
X113945715Y-75769500D01*
X113945715Y-75769500D02*
X114088572Y-75840928D01*
X114088572Y-75840928D02*
X114374286Y-75840928D01*
X114374286Y-75840928D02*
X114517144Y-75769500D01*
X114517144Y-75769500D02*
X114588572Y-75698071D01*
X114588572Y-75698071D02*
X114660001Y-75555214D01*
X114660001Y-75555214D02*
X114660001Y-75198071D01*
X114660001Y-75198071D02*
X114588572Y-75055214D01*
X114588572Y-75055214D02*
X114517144Y-74983785D01*
X114517144Y-74983785D02*
X114374286Y-74912357D01*
X114374286Y-74912357D02*
X114088572Y-74912357D01*
X114088572Y-74912357D02*
X113945715Y-74983785D01*
X113945715Y-74983785D02*
X113874286Y-75055214D01*
X113874286Y-75055214D02*
X113802858Y-75198071D01*
X115945715Y-74840928D02*
X115945715Y-75840928D01*
X115588572Y-74269500D02*
X115231429Y-75340928D01*
X115231429Y-75340928D02*
X116160000Y-75340928D01*
D11*
X68142033Y-56916666D02*
X68708700Y-56916666D01*
X68708700Y-56916666D02*
X68775366Y-56883333D01*
X68775366Y-56883333D02*
X68808700Y-56849999D01*
X68808700Y-56849999D02*
X68842033Y-56783333D01*
X68842033Y-56783333D02*
X68842033Y-56649999D01*
X68842033Y-56649999D02*
X68808700Y-56583333D01*
X68808700Y-56583333D02*
X68775366Y-56549999D01*
X68775366Y-56549999D02*
X68708700Y-56516666D01*
X68708700Y-56516666D02*
X68142033Y-56516666D01*
X68808700Y-56216666D02*
X68842033Y-56116666D01*
X68842033Y-56116666D02*
X68842033Y-55950000D01*
X68842033Y-55950000D02*
X68808700Y-55883333D01*
X68808700Y-55883333D02*
X68775366Y-55850000D01*
X68775366Y-55850000D02*
X68708700Y-55816666D01*
X68708700Y-55816666D02*
X68642033Y-55816666D01*
X68642033Y-55816666D02*
X68575366Y-55850000D01*
X68575366Y-55850000D02*
X68542033Y-55883333D01*
X68542033Y-55883333D02*
X68508700Y-55950000D01*
X68508700Y-55950000D02*
X68475366Y-56083333D01*
X68475366Y-56083333D02*
X68442033Y-56150000D01*
X68442033Y-56150000D02*
X68408700Y-56183333D01*
X68408700Y-56183333D02*
X68342033Y-56216666D01*
X68342033Y-56216666D02*
X68275366Y-56216666D01*
X68275366Y-56216666D02*
X68208700Y-56183333D01*
X68208700Y-56183333D02*
X68175366Y-56150000D01*
X68175366Y-56150000D02*
X68142033Y-56083333D01*
X68142033Y-56083333D02*
X68142033Y-55916666D01*
X68142033Y-55916666D02*
X68175366Y-55816666D01*
X68475366Y-55283333D02*
X68508700Y-55183333D01*
X68508700Y-55183333D02*
X68542033Y-55149999D01*
X68542033Y-55149999D02*
X68608700Y-55116666D01*
X68608700Y-55116666D02*
X68708700Y-55116666D01*
X68708700Y-55116666D02*
X68775366Y-55149999D01*
X68775366Y-55149999D02*
X68808700Y-55183333D01*
X68808700Y-55183333D02*
X68842033Y-55249999D01*
X68842033Y-55249999D02*
X68842033Y-55516666D01*
X68842033Y-55516666D02*
X68142033Y-55516666D01*
X68142033Y-55516666D02*
X68142033Y-55283333D01*
X68142033Y-55283333D02*
X68175366Y-55216666D01*
X68175366Y-55216666D02*
X68208700Y-55183333D01*
X68208700Y-55183333D02*
X68275366Y-55149999D01*
X68275366Y-55149999D02*
X68342033Y-55149999D01*
X68342033Y-55149999D02*
X68408700Y-55183333D01*
X68408700Y-55183333D02*
X68442033Y-55216666D01*
X68442033Y-55216666D02*
X68475366Y-55283333D01*
X68475366Y-55283333D02*
X68475366Y-55516666D01*
X68842033Y-54449999D02*
X68842033Y-54849999D01*
X68842033Y-54649999D02*
X68142033Y-54649999D01*
X68142033Y-54649999D02*
X68242033Y-54716666D01*
X68242033Y-54716666D02*
X68308700Y-54783333D01*
X68308700Y-54783333D02*
X68342033Y-54849999D01*
D21*
X64252476Y-55178406D02*
X64252476Y-54670406D01*
X64252476Y-54670406D02*
X64373428Y-54670406D01*
X64373428Y-54670406D02*
X64446000Y-54694596D01*
X64446000Y-54694596D02*
X64494381Y-54742977D01*
X64494381Y-54742977D02*
X64518571Y-54791358D01*
X64518571Y-54791358D02*
X64542762Y-54888120D01*
X64542762Y-54888120D02*
X64542762Y-54960692D01*
X64542762Y-54960692D02*
X64518571Y-55057454D01*
X64518571Y-55057454D02*
X64494381Y-55105835D01*
X64494381Y-55105835D02*
X64446000Y-55154216D01*
X64446000Y-55154216D02*
X64373428Y-55178406D01*
X64373428Y-55178406D02*
X64252476Y-55178406D01*
X64760476Y-54984882D02*
X65147524Y-54984882D01*
X63268666Y-53920406D02*
X63438000Y-54428406D01*
X63438000Y-54428406D02*
X63607333Y-53920406D01*
X63946000Y-54162311D02*
X64018572Y-54186501D01*
X64018572Y-54186501D02*
X64042762Y-54210692D01*
X64042762Y-54210692D02*
X64066953Y-54259073D01*
X64066953Y-54259073D02*
X64066953Y-54331644D01*
X64066953Y-54331644D02*
X64042762Y-54380025D01*
X64042762Y-54380025D02*
X64018572Y-54404216D01*
X64018572Y-54404216D02*
X63970191Y-54428406D01*
X63970191Y-54428406D02*
X63776667Y-54428406D01*
X63776667Y-54428406D02*
X63776667Y-53920406D01*
X63776667Y-53920406D02*
X63946000Y-53920406D01*
X63946000Y-53920406D02*
X63994381Y-53944596D01*
X63994381Y-53944596D02*
X64018572Y-53968787D01*
X64018572Y-53968787D02*
X64042762Y-54017168D01*
X64042762Y-54017168D02*
X64042762Y-54065549D01*
X64042762Y-54065549D02*
X64018572Y-54113930D01*
X64018572Y-54113930D02*
X63994381Y-54138120D01*
X63994381Y-54138120D02*
X63946000Y-54162311D01*
X63946000Y-54162311D02*
X63776667Y-54162311D01*
X64284667Y-53920406D02*
X64284667Y-54331644D01*
X64284667Y-54331644D02*
X64308857Y-54380025D01*
X64308857Y-54380025D02*
X64333048Y-54404216D01*
X64333048Y-54404216D02*
X64381429Y-54428406D01*
X64381429Y-54428406D02*
X64478191Y-54428406D01*
X64478191Y-54428406D02*
X64526572Y-54404216D01*
X64526572Y-54404216D02*
X64550762Y-54380025D01*
X64550762Y-54380025D02*
X64574953Y-54331644D01*
X64574953Y-54331644D02*
X64574953Y-53920406D01*
X64792666Y-54404216D02*
X64865238Y-54428406D01*
X64865238Y-54428406D02*
X64986190Y-54428406D01*
X64986190Y-54428406D02*
X65034571Y-54404216D01*
X65034571Y-54404216D02*
X65058762Y-54380025D01*
X65058762Y-54380025D02*
X65082952Y-54331644D01*
X65082952Y-54331644D02*
X65082952Y-54283263D01*
X65082952Y-54283263D02*
X65058762Y-54234882D01*
X65058762Y-54234882D02*
X65034571Y-54210692D01*
X65034571Y-54210692D02*
X64986190Y-54186501D01*
X64986190Y-54186501D02*
X64889428Y-54162311D01*
X64889428Y-54162311D02*
X64841047Y-54138120D01*
X64841047Y-54138120D02*
X64816857Y-54113930D01*
X64816857Y-54113930D02*
X64792666Y-54065549D01*
X64792666Y-54065549D02*
X64792666Y-54017168D01*
X64792666Y-54017168D02*
X64816857Y-53968787D01*
X64816857Y-53968787D02*
X64841047Y-53944596D01*
X64841047Y-53944596D02*
X64889428Y-53920406D01*
X64889428Y-53920406D02*
X65010381Y-53920406D01*
X65010381Y-53920406D02*
X65082952Y-53944596D01*
X64252476Y-55928406D02*
X64252476Y-55420406D01*
X64252476Y-55420406D02*
X64373428Y-55420406D01*
X64373428Y-55420406D02*
X64446000Y-55444596D01*
X64446000Y-55444596D02*
X64494381Y-55492977D01*
X64494381Y-55492977D02*
X64518571Y-55541358D01*
X64518571Y-55541358D02*
X64542762Y-55638120D01*
X64542762Y-55638120D02*
X64542762Y-55710692D01*
X64542762Y-55710692D02*
X64518571Y-55807454D01*
X64518571Y-55807454D02*
X64494381Y-55855835D01*
X64494381Y-55855835D02*
X64446000Y-55904216D01*
X64446000Y-55904216D02*
X64373428Y-55928406D01*
X64373428Y-55928406D02*
X64252476Y-55928406D01*
X64760476Y-55734882D02*
X65147524Y-55734882D01*
X64954000Y-55928406D02*
X64954000Y-55541358D01*
X64212952Y-57044596D02*
X64164571Y-57020406D01*
X64164571Y-57020406D02*
X64092000Y-57020406D01*
X64092000Y-57020406D02*
X64019428Y-57044596D01*
X64019428Y-57044596D02*
X63971047Y-57092977D01*
X63971047Y-57092977D02*
X63946857Y-57141358D01*
X63946857Y-57141358D02*
X63922666Y-57238120D01*
X63922666Y-57238120D02*
X63922666Y-57310692D01*
X63922666Y-57310692D02*
X63946857Y-57407454D01*
X63946857Y-57407454D02*
X63971047Y-57455835D01*
X63971047Y-57455835D02*
X64019428Y-57504216D01*
X64019428Y-57504216D02*
X64092000Y-57528406D01*
X64092000Y-57528406D02*
X64140381Y-57528406D01*
X64140381Y-57528406D02*
X64212952Y-57504216D01*
X64212952Y-57504216D02*
X64237143Y-57480025D01*
X64237143Y-57480025D02*
X64237143Y-57310692D01*
X64237143Y-57310692D02*
X64140381Y-57310692D01*
X64454857Y-57528406D02*
X64454857Y-57020406D01*
X64454857Y-57020406D02*
X64745143Y-57528406D01*
X64745143Y-57528406D02*
X64745143Y-57020406D01*
X64987047Y-57528406D02*
X64987047Y-57020406D01*
X64987047Y-57020406D02*
X65107999Y-57020406D01*
X65107999Y-57020406D02*
X65180571Y-57044596D01*
X65180571Y-57044596D02*
X65228952Y-57092977D01*
X65228952Y-57092977D02*
X65253142Y-57141358D01*
X65253142Y-57141358D02*
X65277333Y-57238120D01*
X65277333Y-57238120D02*
X65277333Y-57310692D01*
X65277333Y-57310692D02*
X65253142Y-57407454D01*
X65253142Y-57407454D02*
X65228952Y-57455835D01*
X65228952Y-57455835D02*
X65180571Y-57504216D01*
X65180571Y-57504216D02*
X65107999Y-57528406D01*
X65107999Y-57528406D02*
X64987047Y-57528406D01*
X64696000Y-56678406D02*
X64696000Y-56170406D01*
X64937905Y-56678406D02*
X64937905Y-56170406D01*
X64937905Y-56170406D02*
X65058857Y-56170406D01*
X65058857Y-56170406D02*
X65131429Y-56194596D01*
X65131429Y-56194596D02*
X65179810Y-56242977D01*
X65179810Y-56242977D02*
X65204000Y-56291358D01*
X65204000Y-56291358D02*
X65228191Y-56388120D01*
X65228191Y-56388120D02*
X65228191Y-56460692D01*
X65228191Y-56460692D02*
X65204000Y-56557454D01*
X65204000Y-56557454D02*
X65179810Y-56605835D01*
X65179810Y-56605835D02*
X65131429Y-56654216D01*
X65131429Y-56654216D02*
X65058857Y-56678406D01*
X65058857Y-56678406D02*
X64937905Y-56678406D01*
D14*
X101797238Y-83117574D02*
X101700476Y-83069193D01*
X101700476Y-83069193D02*
X101603714Y-82972432D01*
X101603714Y-82972432D02*
X101458571Y-82827289D01*
X101458571Y-82827289D02*
X101361809Y-82778908D01*
X101361809Y-82778908D02*
X101265047Y-82778908D01*
X101313428Y-83020812D02*
X101216666Y-82972432D01*
X101216666Y-82972432D02*
X101119904Y-82875670D01*
X101119904Y-82875670D02*
X101071523Y-82682146D01*
X101071523Y-82682146D02*
X101071523Y-82343479D01*
X101071523Y-82343479D02*
X101119904Y-82149955D01*
X101119904Y-82149955D02*
X101216666Y-82053193D01*
X101216666Y-82053193D02*
X101313428Y-82004812D01*
X101313428Y-82004812D02*
X101506952Y-82004812D01*
X101506952Y-82004812D02*
X101603714Y-82053193D01*
X101603714Y-82053193D02*
X101700476Y-82149955D01*
X101700476Y-82149955D02*
X101748857Y-82343479D01*
X101748857Y-82343479D02*
X101748857Y-82682146D01*
X101748857Y-82682146D02*
X101700476Y-82875670D01*
X101700476Y-82875670D02*
X101603714Y-82972432D01*
X101603714Y-82972432D02*
X101506952Y-83020812D01*
X101506952Y-83020812D02*
X101313428Y-83020812D01*
X102135904Y-82101574D02*
X102184285Y-82053193D01*
X102184285Y-82053193D02*
X102281047Y-82004812D01*
X102281047Y-82004812D02*
X102522952Y-82004812D01*
X102522952Y-82004812D02*
X102619714Y-82053193D01*
X102619714Y-82053193D02*
X102668095Y-82101574D01*
X102668095Y-82101574D02*
X102716476Y-82198336D01*
X102716476Y-82198336D02*
X102716476Y-82295098D01*
X102716476Y-82295098D02*
X102668095Y-82440241D01*
X102668095Y-82440241D02*
X102087523Y-83020812D01*
X102087523Y-83020812D02*
X102716476Y-83020812D01*
D11*
X96179999Y-82579366D02*
X96146666Y-82612700D01*
X96146666Y-82612700D02*
X96046666Y-82646033D01*
X96046666Y-82646033D02*
X95979999Y-82646033D01*
X95979999Y-82646033D02*
X95879999Y-82612700D01*
X95879999Y-82612700D02*
X95813333Y-82546033D01*
X95813333Y-82546033D02*
X95779999Y-82479366D01*
X95779999Y-82479366D02*
X95746666Y-82346033D01*
X95746666Y-82346033D02*
X95746666Y-82246033D01*
X95746666Y-82246033D02*
X95779999Y-82112700D01*
X95779999Y-82112700D02*
X95813333Y-82046033D01*
X95813333Y-82046033D02*
X95879999Y-81979366D01*
X95879999Y-81979366D02*
X95979999Y-81946033D01*
X95979999Y-81946033D02*
X96046666Y-81946033D01*
X96046666Y-81946033D02*
X96146666Y-81979366D01*
X96146666Y-81979366D02*
X96179999Y-82012700D01*
X96446666Y-82012700D02*
X96479999Y-81979366D01*
X96479999Y-81979366D02*
X96546666Y-81946033D01*
X96546666Y-81946033D02*
X96713333Y-81946033D01*
X96713333Y-81946033D02*
X96779999Y-81979366D01*
X96779999Y-81979366D02*
X96813333Y-82012700D01*
X96813333Y-82012700D02*
X96846666Y-82079366D01*
X96846666Y-82079366D02*
X96846666Y-82146033D01*
X96846666Y-82146033D02*
X96813333Y-82246033D01*
X96813333Y-82246033D02*
X96413333Y-82646033D01*
X96413333Y-82646033D02*
X96846666Y-82646033D01*
X97113333Y-82012700D02*
X97146666Y-81979366D01*
X97146666Y-81979366D02*
X97213333Y-81946033D01*
X97213333Y-81946033D02*
X97380000Y-81946033D01*
X97380000Y-81946033D02*
X97446666Y-81979366D01*
X97446666Y-81979366D02*
X97480000Y-82012700D01*
X97480000Y-82012700D02*
X97513333Y-82079366D01*
X97513333Y-82079366D02*
X97513333Y-82146033D01*
X97513333Y-82146033D02*
X97480000Y-82246033D01*
X97480000Y-82246033D02*
X97080000Y-82646033D01*
X97080000Y-82646033D02*
X97513333Y-82646033D01*
X91989366Y-80486666D02*
X92022700Y-80519999D01*
X92022700Y-80519999D02*
X92056033Y-80619999D01*
X92056033Y-80619999D02*
X92056033Y-80686666D01*
X92056033Y-80686666D02*
X92022700Y-80786666D01*
X92022700Y-80786666D02*
X91956033Y-80853333D01*
X91956033Y-80853333D02*
X91889366Y-80886666D01*
X91889366Y-80886666D02*
X91756033Y-80919999D01*
X91756033Y-80919999D02*
X91656033Y-80919999D01*
X91656033Y-80919999D02*
X91522700Y-80886666D01*
X91522700Y-80886666D02*
X91456033Y-80853333D01*
X91456033Y-80853333D02*
X91389366Y-80786666D01*
X91389366Y-80786666D02*
X91356033Y-80686666D01*
X91356033Y-80686666D02*
X91356033Y-80619999D01*
X91356033Y-80619999D02*
X91389366Y-80519999D01*
X91389366Y-80519999D02*
X91422700Y-80486666D01*
X92056033Y-80153333D02*
X92056033Y-80019999D01*
X92056033Y-80019999D02*
X92022700Y-79953333D01*
X92022700Y-79953333D02*
X91989366Y-79919999D01*
X91989366Y-79919999D02*
X91889366Y-79853333D01*
X91889366Y-79853333D02*
X91756033Y-79819999D01*
X91756033Y-79819999D02*
X91489366Y-79819999D01*
X91489366Y-79819999D02*
X91422700Y-79853333D01*
X91422700Y-79853333D02*
X91389366Y-79886666D01*
X91389366Y-79886666D02*
X91356033Y-79953333D01*
X91356033Y-79953333D02*
X91356033Y-80086666D01*
X91356033Y-80086666D02*
X91389366Y-80153333D01*
X91389366Y-80153333D02*
X91422700Y-80186666D01*
X91422700Y-80186666D02*
X91489366Y-80219999D01*
X91489366Y-80219999D02*
X91656033Y-80219999D01*
X91656033Y-80219999D02*
X91722700Y-80186666D01*
X91722700Y-80186666D02*
X91756033Y-80153333D01*
X91756033Y-80153333D02*
X91789366Y-80086666D01*
X91789366Y-80086666D02*
X91789366Y-79953333D01*
X91789366Y-79953333D02*
X91756033Y-79886666D01*
X91756033Y-79886666D02*
X91722700Y-79853333D01*
X91722700Y-79853333D02*
X91656033Y-79819999D01*
D15*
X81873334Y-82091966D02*
X81640000Y-82091966D01*
X81640000Y-82458633D02*
X81640000Y-81758633D01*
X81640000Y-81758633D02*
X81973334Y-81758633D01*
X82240000Y-82091966D02*
X82473334Y-82091966D01*
X82573334Y-82458633D02*
X82240000Y-82458633D01*
X82240000Y-82458633D02*
X82240000Y-81758633D01*
X82240000Y-81758633D02*
X82573334Y-81758633D01*
X82773333Y-81758633D02*
X83173333Y-81758633D01*
X82973333Y-82458633D02*
X82973333Y-81758633D01*
X83773333Y-82458633D02*
X83373333Y-82458633D01*
X83573333Y-82458633D02*
X83573333Y-81758633D01*
X83573333Y-81758633D02*
X83506666Y-81858633D01*
X83506666Y-81858633D02*
X83440000Y-81925300D01*
X83440000Y-81925300D02*
X83373333Y-81958633D01*
D14*
%TO.C,BAT_CON1*%
X59745320Y-98614980D02*
X66062302Y-98614980D01*
X66062300Y-97606600D02*
X66062300Y-98609900D01*
X66054680Y-92534220D02*
X59745320Y-92534220D01*
X59745320Y-92534220D02*
X59745320Y-98614980D01*
X66062300Y-92539300D02*
X66062300Y-93593400D01*
D18*
%TO.C,BAT_HOLDER1*%
X105037492Y-75113020D02*
X102523020Y-77627492D01*
X104139466Y-74214995D02*
X105037492Y-75113020D01*
X102523020Y-77627492D02*
X101624995Y-76729466D01*
X106302722Y-67390000D02*
G75*
G03*
X106302722Y-67390000I-11502722J0D01*
G01*
D14*
%TO.C,C1*%
X80280000Y-85540000D02*
G75*
G03*
X80280000Y-85540000I-2500000J0D01*
G01*
%TO.C,C7*%
X78552000Y-87628000D02*
X79568000Y-87628000D01*
X78552000Y-89152000D02*
X79568000Y-89152000D01*
%TO.C,C8*%
X80062000Y-70938000D02*
X81078000Y-70938000D01*
X80062000Y-72462000D02*
X81078000Y-72462000D01*
%TO.C,C11*%
X85698000Y-76048000D02*
X84682000Y-76048000D01*
X85698000Y-77572000D02*
X84682000Y-77572000D01*
%TO.C,C21*%
X99380000Y-79924500D02*
X99634000Y-79924500D01*
X99380000Y-79035500D02*
X99634000Y-79035500D01*
X99380000Y-79035500D02*
X99126000Y-79035500D01*
X99380000Y-79924500D02*
X99126000Y-79924500D01*
%TO.C,C23*%
X97980000Y-85655500D02*
X98234000Y-85655500D01*
X97980000Y-86544500D02*
X98234000Y-86544500D01*
X97980000Y-85655500D02*
X97726000Y-85655500D01*
X97980000Y-86544500D02*
X97726000Y-86544500D01*
%TO.C,C24*%
X115340000Y-85705500D02*
X115086000Y-85705500D01*
X115340000Y-86594500D02*
X115086000Y-86594500D01*
X115340000Y-86594500D02*
X115594000Y-86594500D01*
X115340000Y-85705500D02*
X115594000Y-85705500D01*
%TO.C,C25*%
X63940000Y-61584500D02*
X63686000Y-61584500D01*
X63940000Y-60695500D02*
X64194000Y-60695500D01*
X63940000Y-60695500D02*
X63686000Y-60695500D01*
X63940000Y-61584500D02*
X64194000Y-61584500D01*
%TO.C,CON1*%
X81380000Y-95730000D02*
X81380000Y-96730000D01*
X81230000Y-96730000D02*
X81730000Y-96730000D01*
X81730000Y-89930000D02*
X92230000Y-89930000D01*
X81730000Y-97530000D02*
X81730000Y-89930000D01*
X92380000Y-91230000D02*
X92380000Y-91730000D01*
X81230000Y-95730000D02*
X81730000Y-95730000D01*
X92730000Y-91230000D02*
X92730000Y-91730000D01*
X92230000Y-97530000D02*
X81730000Y-97530000D01*
X92580000Y-91230000D02*
X92580000Y-91730000D01*
X81230000Y-95730000D02*
X81230000Y-96730000D01*
X92730000Y-91730000D02*
X92230000Y-91730000D01*
X92230000Y-97530000D02*
X92230000Y-89930000D01*
X92230000Y-91230000D02*
X92730000Y-91230000D01*
X81580000Y-95730000D02*
X81580000Y-96730000D01*
X90895210Y-95889000D02*
G75*
G03*
X90895210Y-95889000I-359210J0D01*
G01*
X83783210Y-95889000D02*
G75*
G03*
X83783210Y-95889000I-359210J0D01*
G01*
X87339210Y-95889000D02*
G75*
G03*
X87339210Y-95889000I-359210J0D01*
G01*
%TO.C,D1*%
X74520000Y-82590000D02*
X74520000Y-79890000D01*
X74080000Y-82590000D02*
X74080000Y-79890000D01*
X70890000Y-82590000D02*
X75890000Y-82590000D01*
X75890000Y-79890000D02*
X70890000Y-79890000D01*
%TO.C,D3*%
X87810000Y-78740000D02*
X82810000Y-78740000D01*
X84180000Y-78740000D02*
X84180000Y-81440000D01*
X82810000Y-81440000D02*
X87810000Y-81440000D01*
X84620000Y-78740000D02*
X84620000Y-81440000D01*
%TO.C,D4*%
X79840000Y-89920000D02*
X74840000Y-89920000D01*
X74840000Y-92620000D02*
X79840000Y-92620000D01*
X76210000Y-89920000D02*
X76210000Y-92620000D01*
X76650000Y-89920000D02*
X76650000Y-92620000D01*
%TO.C,D5*%
X69630000Y-52520000D02*
X74630000Y-52520000D01*
X73260000Y-52520000D02*
X73260000Y-49820000D01*
X74630000Y-49820000D02*
X69630000Y-49820000D01*
X72820000Y-52520000D02*
X72820000Y-49820000D01*
%TO.C,FET2*%
X76243200Y-79092400D02*
X75405000Y-79092400D01*
X76243200Y-76247600D02*
X75405000Y-76247600D01*
X75405000Y-78381200D02*
X75405000Y-79092400D01*
X75405000Y-76247600D02*
X75405000Y-76958800D01*
%TO.C,FET3*%
X70978800Y-57605000D02*
X70267600Y-57605000D01*
X73112400Y-57605000D02*
X72401200Y-57605000D01*
X73112400Y-58443200D02*
X73112400Y-57605000D01*
X70267600Y-58443200D02*
X70267600Y-57605000D01*
D11*
%TO.C,GPIO1*%
X122860000Y-67080000D02*
X127940000Y-67080000D01*
X122860000Y-87400000D02*
X122860000Y-67080000D01*
X127940000Y-87400000D02*
X122860000Y-87400000D01*
X127940000Y-67080000D02*
X127940000Y-87400000D01*
D22*
%TO.C,LED1*%
X73498700Y-93374400D02*
X73628700Y-93264400D01*
D14*
X72059800Y-94170500D02*
X71907400Y-94043500D01*
D22*
X73638700Y-93244400D02*
X73558700Y-93254400D01*
D15*
X73729500Y-93599000D02*
X73209500Y-93599000D01*
X73559500Y-93709000D02*
X73559500Y-93489000D01*
D21*
X72072500Y-93014800D02*
X73088500Y-93014800D01*
D15*
X73559500Y-93489000D02*
X73459500Y-93589000D01*
D22*
X73423300Y-93244400D02*
X73423300Y-93324400D01*
D14*
X72059800Y-93078300D02*
X71920100Y-93205300D01*
D22*
X73291700Y-93353400D02*
X73421700Y-93243400D01*
D15*
X73369500Y-93709000D02*
X73369500Y-93489000D01*
D22*
X73638700Y-93244400D02*
X73638700Y-93324400D01*
D15*
X73559500Y-93709000D02*
X73449500Y-93609000D01*
D22*
X73423300Y-93244400D02*
X73343300Y-93254400D01*
D14*
X72072500Y-93116400D02*
X72072500Y-94157800D01*
D21*
X73088500Y-94234000D02*
X72072500Y-94234000D01*
D14*
X71907400Y-94043500D02*
X71907400Y-93218000D01*
D21*
%TO.C,LED2*%
X70653000Y-46405800D02*
X71669000Y-46405800D01*
D15*
X72140000Y-47100000D02*
X72140000Y-46880000D01*
D22*
X72079200Y-46765400D02*
X72209200Y-46655400D01*
D14*
X70487900Y-47434500D02*
X70487900Y-46609000D01*
D22*
X72219200Y-46635400D02*
X72219200Y-46715400D01*
X71872200Y-46744400D02*
X72002200Y-46634400D01*
D14*
X70640300Y-46469300D02*
X70500600Y-46596300D01*
D22*
X72003800Y-46635400D02*
X71923800Y-46645400D01*
D15*
X71950000Y-47100000D02*
X71950000Y-46880000D01*
X72310000Y-46990000D02*
X71790000Y-46990000D01*
X72140000Y-46880000D02*
X72040000Y-46980000D01*
X72140000Y-47100000D02*
X72030000Y-47000000D01*
D14*
X70640300Y-47561500D02*
X70487900Y-47434500D01*
D22*
X72219200Y-46635400D02*
X72139200Y-46645400D01*
X72003800Y-46635400D02*
X72003800Y-46715400D01*
D14*
X70653000Y-46507400D02*
X70653000Y-47548800D01*
D21*
X71669000Y-47625000D02*
X70653000Y-47625000D01*
D14*
%TO.C,LED3*%
X73950300Y-46469300D02*
X73810600Y-46596300D01*
D22*
X75389200Y-46765400D02*
X75519200Y-46655400D01*
D15*
X75450000Y-47100000D02*
X75340000Y-47000000D01*
D22*
X75313800Y-46635400D02*
X75233800Y-46645400D01*
D15*
X75620000Y-46990000D02*
X75100000Y-46990000D01*
D21*
X74979000Y-47625000D02*
X73963000Y-47625000D01*
D15*
X75450000Y-46880000D02*
X75350000Y-46980000D01*
D22*
X75182200Y-46744400D02*
X75312200Y-46634400D01*
D14*
X73950300Y-47561500D02*
X73797900Y-47434500D01*
X73963000Y-46507400D02*
X73963000Y-47548800D01*
D15*
X75450000Y-47100000D02*
X75450000Y-46880000D01*
D22*
X75529200Y-46635400D02*
X75529200Y-46715400D01*
D15*
X75260000Y-47100000D02*
X75260000Y-46880000D01*
D22*
X75313800Y-46635400D02*
X75313800Y-46715400D01*
D14*
X73797900Y-47434500D02*
X73797900Y-46609000D01*
D22*
X75529200Y-46635400D02*
X75449200Y-46645400D01*
D21*
X73963000Y-46405800D02*
X74979000Y-46405800D01*
D14*
%TO.C,PLATFORM1*%
X94914220Y-92462321D02*
X94914220Y-95002321D01*
X92374220Y-95002321D02*
X92374220Y-89287321D01*
X102534220Y-51822321D02*
X82088490Y-51822321D01*
X125394220Y-54997321D02*
X124759220Y-55632321D01*
X125394220Y-49282321D02*
X122854220Y-49282321D01*
X110154220Y-89287321D02*
X110789220Y-88652321D01*
X82723490Y-51822321D02*
X82723490Y-54997321D01*
X107614220Y-97542321D02*
X94914220Y-97542321D01*
X82977490Y-49282321D02*
X82977490Y-46742321D01*
X124759220Y-55632321D02*
X105709220Y-55632321D01*
X105074220Y-54997321D02*
X105709220Y-55632321D01*
X101010220Y-49282321D02*
X82088490Y-49282321D01*
X125394220Y-51822321D02*
X122854220Y-51822321D01*
X94914220Y-95002321D02*
X107614220Y-95002321D01*
X101010220Y-46742321D02*
X103550220Y-46742321D01*
X102534220Y-51822321D02*
X102534220Y-49282321D01*
X92374220Y-92462321D02*
X94914220Y-92462321D01*
X101010220Y-49282321D02*
X101010220Y-46742321D01*
X105074220Y-46742321D02*
X122854220Y-46742321D01*
X103550220Y-49282321D02*
X101010220Y-49282321D01*
X122854220Y-51822321D02*
X105074220Y-51822321D01*
X94914220Y-92462321D02*
X107614220Y-92462321D01*
X105074220Y-49282321D02*
X105074220Y-54997321D01*
X110154220Y-97542321D02*
X110154220Y-95002321D01*
X125394220Y-95002321D02*
X125394220Y-92462321D01*
X99994220Y-51822321D02*
X99994220Y-49282321D01*
X110154220Y-95002321D02*
X110154220Y-89287321D01*
X125394220Y-89287321D02*
X124759220Y-88652321D01*
X105074220Y-49282321D02*
X105074220Y-46742321D01*
X92374220Y-97542321D02*
X92374220Y-95002321D01*
X106979220Y-88652321D02*
X107614220Y-89287321D01*
X125394220Y-46742321D02*
X125394220Y-49282321D01*
X122854220Y-51822321D02*
X122854220Y-49282321D01*
X103550220Y-49282321D02*
X103550220Y-54997321D01*
X125394220Y-97542321D02*
X112694220Y-97542321D01*
X82088490Y-49282321D02*
X82088490Y-51822321D01*
X110154220Y-92462321D02*
X112694220Y-92462321D01*
X103550220Y-46742321D02*
X103550220Y-49282321D01*
X122854220Y-49282321D02*
X105074220Y-49282321D01*
X125394220Y-49282321D02*
X125394220Y-54997321D01*
X110789220Y-88652321D02*
X124759220Y-88652321D01*
X112694220Y-92462321D02*
X125394220Y-92462321D01*
X103550220Y-54997321D02*
X102915220Y-55632321D01*
X112694220Y-95002321D02*
X112694220Y-97542321D01*
X102915220Y-55632321D02*
X83358490Y-55632321D01*
X82723490Y-54997321D02*
X83358490Y-55632321D01*
X92374220Y-95002321D02*
X94914220Y-95002321D01*
X94914220Y-95002321D02*
X94914220Y-97542321D01*
X125394220Y-95002321D02*
X125394220Y-97542321D01*
X110154220Y-95002321D02*
X112694220Y-95002321D01*
X107614220Y-95002321D02*
X107614220Y-89287321D01*
X93009220Y-88652321D02*
X106979220Y-88652321D01*
X107614220Y-95002321D02*
X107614220Y-97542321D01*
X112694220Y-92462321D02*
X112694220Y-95002321D01*
X94914220Y-97542321D02*
X92374220Y-97542321D01*
X122854220Y-46742321D02*
X125394220Y-46742321D01*
X112694220Y-95002321D02*
X125394220Y-95002321D01*
X82977490Y-46742321D02*
X101010220Y-46742321D01*
X122854220Y-49282321D02*
X122854220Y-46742321D01*
X112694220Y-97542321D02*
X110154220Y-97542321D01*
X92374220Y-89287321D02*
X93009220Y-88652321D01*
%TO.C,PWR1*%
X73200000Y-83148000D02*
X59700000Y-83148000D01*
X73200000Y-92200280D02*
X73200000Y-90342000D01*
X59700000Y-83148000D02*
X59700000Y-92200000D01*
X73200000Y-92200000D02*
X72500000Y-92200000D01*
X73200000Y-83148000D02*
X73200000Y-85246000D01*
X59700000Y-92200000D02*
X67400000Y-92200000D01*
%TO.C,Q1*%
X103363000Y-80128000D02*
X103363000Y-81652000D01*
X101077000Y-80128000D02*
X101077000Y-81652000D01*
%TO.C,R7*%
X94665500Y-85560000D02*
X94665500Y-85814000D01*
X95554500Y-85560000D02*
X95554500Y-85306000D01*
X95554500Y-85560000D02*
X95554500Y-85814000D01*
X94665500Y-85560000D02*
X94665500Y-85306000D01*
%TO.C,R8*%
X95795500Y-85560000D02*
X95795500Y-85306000D01*
X96684500Y-85560000D02*
X96684500Y-85814000D01*
X96684500Y-85560000D02*
X96684500Y-85306000D01*
X95795500Y-85560000D02*
X95795500Y-85814000D01*
%TO.C,R9*%
X80370000Y-55375500D02*
X80116000Y-55375500D01*
X80370000Y-55375500D02*
X80624000Y-55375500D01*
X80370000Y-56264500D02*
X80116000Y-56264500D01*
X80370000Y-56264500D02*
X80624000Y-56264500D01*
%TO.C,R10*%
X80380000Y-63085500D02*
X80126000Y-63085500D01*
X80380000Y-63085500D02*
X80634000Y-63085500D01*
X80380000Y-63974500D02*
X80126000Y-63974500D01*
X80380000Y-63974500D02*
X80634000Y-63974500D01*
%TO.C,R11*%
X80370000Y-62884500D02*
X80116000Y-62884500D01*
X80370000Y-61995500D02*
X80624000Y-61995500D01*
X80370000Y-62884500D02*
X80624000Y-62884500D01*
X80370000Y-61995500D02*
X80116000Y-61995500D01*
%TO.C,R12*%
X80370000Y-58474500D02*
X80624000Y-58474500D01*
X80370000Y-58474500D02*
X80116000Y-58474500D01*
X80370000Y-57585500D02*
X80624000Y-57585500D01*
X80370000Y-57585500D02*
X80116000Y-57585500D01*
%TO.C,R13*%
X77255500Y-58300000D02*
X77255500Y-58554000D01*
X78144500Y-58300000D02*
X78144500Y-58046000D01*
X77255500Y-58300000D02*
X77255500Y-58046000D01*
X78144500Y-58300000D02*
X78144500Y-58554000D01*
%TO.C,R14*%
X80370000Y-54175500D02*
X80116000Y-54175500D01*
X80370000Y-55064500D02*
X80116000Y-55064500D01*
X80370000Y-54175500D02*
X80624000Y-54175500D01*
X80370000Y-55064500D02*
X80624000Y-55064500D01*
%TO.C,R15*%
X71330000Y-48345500D02*
X71584000Y-48345500D01*
X71330000Y-49234500D02*
X71584000Y-49234500D01*
X71330000Y-49234500D02*
X71076000Y-49234500D01*
X71330000Y-48345500D02*
X71076000Y-48345500D01*
%TO.C,R17*%
X74930000Y-93980000D02*
X74930000Y-94234000D01*
X75819000Y-93980000D02*
X75819000Y-94234000D01*
X74930000Y-93980000D02*
X74930000Y-93726000D01*
X75819000Y-93980000D02*
X75819000Y-93726000D01*
%TO.C,R19*%
X112854500Y-67390000D02*
X112854500Y-67644000D01*
X111965500Y-67390000D02*
X111965500Y-67136000D01*
X111965500Y-67390000D02*
X111965500Y-67644000D01*
X112854500Y-67390000D02*
X112854500Y-67136000D01*
%TO.C,R20*%
X79690000Y-79064500D02*
X79944000Y-79064500D01*
X79690000Y-79064500D02*
X79436000Y-79064500D01*
X79690000Y-78175500D02*
X79944000Y-78175500D01*
X79690000Y-78175500D02*
X79436000Y-78175500D01*
%TO.C,R21*%
X77735500Y-78110000D02*
X77735500Y-78364000D01*
X78624500Y-78110000D02*
X78624500Y-78364000D01*
X78624500Y-78110000D02*
X78624500Y-77856000D01*
X77735500Y-78110000D02*
X77735500Y-77856000D01*
%TO.C,R25*%
X110620000Y-83314500D02*
X110874000Y-83314500D01*
X110620000Y-82425500D02*
X110366000Y-82425500D01*
X110620000Y-82425500D02*
X110874000Y-82425500D01*
X110620000Y-83314500D02*
X110366000Y-83314500D01*
%TO.C,R26*%
X72070000Y-60934500D02*
X72324000Y-60934500D01*
X72070000Y-60045500D02*
X71816000Y-60045500D01*
X72070000Y-60045500D02*
X72324000Y-60045500D01*
X72070000Y-60934500D02*
X71816000Y-60934500D01*
%TO.C,R27*%
X70020000Y-60045500D02*
X69766000Y-60045500D01*
X70020000Y-60934500D02*
X69766000Y-60934500D01*
X70020000Y-60934500D02*
X70274000Y-60934500D01*
X70020000Y-60045500D02*
X70274000Y-60045500D01*
%TO.C,R28*%
X70160000Y-55044500D02*
X70414000Y-55044500D01*
X70160000Y-54155500D02*
X70414000Y-54155500D01*
X70160000Y-54155500D02*
X69906000Y-54155500D01*
X70160000Y-55044500D02*
X69906000Y-55044500D01*
%TO.C,R29*%
X70160000Y-56194500D02*
X69906000Y-56194500D01*
X70160000Y-55305500D02*
X70414000Y-55305500D01*
X70160000Y-56194500D02*
X70414000Y-56194500D01*
X70160000Y-55305500D02*
X69906000Y-55305500D01*
%TO.C,R30*%
X72580000Y-52905500D02*
X72834000Y-52905500D01*
X72580000Y-52905500D02*
X72326000Y-52905500D01*
X72580000Y-53794500D02*
X72326000Y-53794500D01*
X72580000Y-53794500D02*
X72834000Y-53794500D01*
%TO.C,R31*%
X70150000Y-53794500D02*
X70404000Y-53794500D01*
X70150000Y-52905500D02*
X69896000Y-52905500D01*
X70150000Y-53794500D02*
X69896000Y-53794500D01*
X70150000Y-52905500D02*
X70404000Y-52905500D01*
%TO.C,R32*%
X70160000Y-56445500D02*
X69906000Y-56445500D01*
X70160000Y-57334500D02*
X69906000Y-57334500D01*
X70160000Y-57334500D02*
X70414000Y-57334500D01*
X70160000Y-56445500D02*
X70414000Y-56445500D01*
%TO.C,R33*%
X73400000Y-49234500D02*
X73146000Y-49234500D01*
X73400000Y-48345500D02*
X73654000Y-48345500D01*
X73400000Y-49234500D02*
X73654000Y-49234500D01*
X73400000Y-48345500D02*
X73146000Y-48345500D01*
%TO.C,R34*%
X75610000Y-48345500D02*
X75864000Y-48345500D01*
X75610000Y-48345500D02*
X75356000Y-48345500D01*
X75610000Y-49234500D02*
X75356000Y-49234500D01*
X75610000Y-49234500D02*
X75864000Y-49234500D01*
%TO.C,SJ5*%
X115111000Y-55888000D02*
X115111000Y-57412000D01*
X114857000Y-57666000D02*
X112063000Y-57666000D01*
X112063000Y-55634000D02*
X114857000Y-55634000D01*
X111809000Y-55888000D02*
X111809000Y-57412000D01*
X111809000Y-57412000D02*
G75*
G03*
X112063000Y-57666000I254000J0D01*
G01*
X115111000Y-55888000D02*
G75*
G03*
X114857000Y-55634000I-254000J0D01*
G01*
X112063000Y-55634000D02*
G75*
G03*
X111809000Y-55888000I0J-254000D01*
G01*
X114857000Y-57666000D02*
G75*
G03*
X115111000Y-57412000I0J254000D01*
G01*
%TO.C,SW1*%
X64850000Y-46050000D02*
X64850000Y-45040000D01*
X63750500Y-49744200D02*
X63750500Y-49464800D01*
X68449500Y-46055800D02*
X68449500Y-46322500D01*
X68449500Y-49744200D02*
X68449500Y-49477500D01*
X67350000Y-46050000D02*
X67350000Y-45060000D01*
X68450000Y-49750000D02*
X66380000Y-49750000D01*
X68449500Y-48052400D02*
X68449500Y-47734900D01*
X68450000Y-46050000D02*
X66310000Y-46050000D01*
X63750500Y-48039700D02*
X63750500Y-47722200D01*
X67500000Y-45040000D02*
X64690000Y-45040000D01*
X63750000Y-46050000D02*
X65900000Y-46050000D01*
X63750500Y-46055800D02*
X63750500Y-46309800D01*
X63750000Y-49750000D02*
X65810000Y-49750000D01*
%TO.C,SW2*%
X69250500Y-94555800D02*
X69250500Y-94822500D01*
X70200000Y-99260000D02*
X73010000Y-99260000D01*
X72850000Y-98250000D02*
X72850000Y-99260000D01*
X70350000Y-98250000D02*
X70350000Y-99240000D01*
X69250000Y-94550000D02*
X71320000Y-94550000D01*
X73949500Y-96260300D02*
X73949500Y-96577800D01*
X73950000Y-94550000D02*
X71890000Y-94550000D01*
X73949500Y-98244200D02*
X73949500Y-97990200D01*
X69250500Y-96247600D02*
X69250500Y-96565100D01*
X73950000Y-98250000D02*
X71800000Y-98250000D01*
X69250500Y-98244200D02*
X69250500Y-97977500D01*
X69250000Y-98250000D02*
X71390000Y-98250000D01*
X73949500Y-94555800D02*
X73949500Y-94835200D01*
%TO.C,U3*%
X91723600Y-84465080D02*
X91987760Y-84731780D01*
X87192240Y-84465080D02*
X91723600Y-84465080D01*
X87192240Y-86994920D02*
X87192240Y-84465080D01*
X91987760Y-86994920D02*
X87192240Y-86994920D01*
X91987760Y-84731780D02*
X91987760Y-86994920D01*
D21*
X91565566Y-85095000D02*
G75*
G03*
X91565566Y-85095000I-197566J0D01*
G01*
X92512986Y-84066300D02*
G75*
G03*
X92512986Y-84066300I-197566J0D01*
G01*
D11*
%TO.C,U4*%
X83370000Y-72670000D02*
X83870000Y-72670000D01*
X78870000Y-72670000D02*
X78870000Y-73170000D01*
X83870000Y-77670000D02*
X83870000Y-77170000D01*
X79370000Y-77670000D02*
X79170000Y-77670000D01*
X78870000Y-77370000D02*
X78870000Y-77170000D01*
X79370000Y-72670000D02*
X78870000Y-72670000D01*
X83370000Y-77670000D02*
X83870000Y-77670000D01*
X83870000Y-72670000D02*
X83870000Y-73170000D01*
X79070000Y-77670000D02*
G75*
G03*
X79070000Y-77670000I-200000J0D01*
G01*
D12*
%TO.C,U5*%
X107760000Y-80160000D02*
X107160000Y-79560000D01*
X107160000Y-79560000D02*
X107160000Y-70160000D01*
X107160000Y-70160000D02*
X117160000Y-70160000D01*
X117160000Y-70160000D02*
X117160000Y-80160000D01*
X117160000Y-80160000D02*
X107760000Y-80160000D01*
D14*
X107160000Y-80660000D02*
G75*
G03*
X107160000Y-80660000I-500000J0D01*
G01*
X108660000Y-79160000D02*
G75*
G03*
X108660000Y-79160000I-500000J0D01*
G01*
%TO.C,USB1*%
X61300000Y-52000000D02*
X62300000Y-52000000D01*
X65800000Y-59400000D02*
X64600000Y-59400000D01*
X67300000Y-58500000D02*
X67300000Y-57500000D01*
X60271000Y-51636000D02*
X61287000Y-52017000D01*
X67300000Y-53900000D02*
X67300000Y-52900000D01*
X65800000Y-52000000D02*
X64600000Y-52000000D01*
X60271000Y-59764000D02*
X61287000Y-59383000D01*
X61300000Y-59400000D02*
X61300000Y-52000000D01*
X62300000Y-59400000D02*
X61300000Y-59400000D01*
X60200000Y-59764000D02*
X60200000Y-51636000D01*
%TO.C,CON3*%
X120624000Y-59862000D02*
X120624000Y-59735000D01*
D23*
X119989000Y-59354000D02*
X119989000Y-58846000D01*
X119989000Y-61894000D02*
X119481000Y-61894000D01*
D14*
X119100000Y-62275000D02*
X119100000Y-61640000D01*
D13*
X119608000Y-56687000D02*
X119608000Y-56433000D01*
D14*
X120624000Y-61005000D02*
X119735000Y-61005000D01*
X118338000Y-56433000D02*
X118592000Y-56433000D01*
D23*
X118719000Y-58084000D02*
X118719000Y-57576000D01*
D14*
X120624000Y-57322000D02*
X120624000Y-57195000D01*
D23*
X119989000Y-60116000D02*
X119481000Y-60116000D01*
D14*
X117576000Y-59735000D02*
X117576000Y-59608000D01*
X119862000Y-57957000D02*
X119608000Y-57957000D01*
D23*
X118719000Y-58084000D02*
X118211000Y-58084000D01*
D14*
X119608000Y-56433000D02*
X119862000Y-56433000D01*
D23*
X119989000Y-58084000D02*
X119989000Y-57576000D01*
X119989000Y-61894000D02*
X119989000Y-61386000D01*
D13*
X118592000Y-56433000D02*
X118592000Y-56687000D01*
D14*
X118338000Y-61513000D02*
X118592000Y-61513000D01*
X119100000Y-56560000D02*
X119100000Y-55925000D01*
D23*
X119989000Y-58084000D02*
X119481000Y-58084000D01*
D14*
X119862000Y-61767000D02*
X119608000Y-61767000D01*
D23*
X118719000Y-59354000D02*
X118719000Y-58846000D01*
X118719000Y-56814000D02*
X118211000Y-56814000D01*
D14*
X117576000Y-59862000D02*
X117576000Y-59735000D01*
D23*
X118719000Y-56306000D02*
X118211000Y-56306000D01*
D14*
X120624000Y-62275000D02*
X120624000Y-62148000D01*
X117576000Y-58465000D02*
X117576000Y-58338000D01*
D13*
X119862000Y-58973000D02*
X119862000Y-59227000D01*
D14*
X120624000Y-58592000D02*
X120624000Y-58465000D01*
D23*
X119989000Y-57576000D02*
X119481000Y-57576000D01*
D14*
X119100000Y-59735000D02*
X119100000Y-58465000D01*
X117576000Y-62275000D02*
X119100000Y-62275000D01*
D23*
X119989000Y-56814000D02*
X119989000Y-56306000D01*
D14*
X120624000Y-59735000D02*
X119100000Y-59735000D01*
D23*
X118719000Y-60624000D02*
X118211000Y-60624000D01*
D14*
X117576000Y-57322000D02*
X117576000Y-57195000D01*
D23*
X119989000Y-56814000D02*
X119481000Y-56814000D01*
D14*
X120624000Y-61005000D02*
X120624000Y-60878000D01*
D13*
X118338000Y-59227000D02*
X118338000Y-58973000D01*
D23*
X119989000Y-60624000D02*
X119481000Y-60624000D01*
X118211000Y-56814000D02*
X118211000Y-56306000D01*
D13*
X119608000Y-60497000D02*
X119608000Y-60243000D01*
X118592000Y-61513000D02*
X118592000Y-61767000D01*
D14*
X118465000Y-57195000D02*
X117576000Y-57195000D01*
D23*
X119481000Y-60624000D02*
X119481000Y-60116000D01*
D14*
X117576000Y-58592000D02*
X117576000Y-58465000D01*
X118592000Y-61767000D02*
X118338000Y-61767000D01*
X119100000Y-55925000D02*
X117576000Y-55925000D01*
X120624000Y-59735000D02*
X120624000Y-59608000D01*
X120624000Y-61132000D02*
X120624000Y-61005000D01*
D23*
X118719000Y-59354000D02*
X118211000Y-59354000D01*
D14*
X119100000Y-60370000D02*
X119100000Y-59735000D01*
X119100000Y-58465000D02*
X119100000Y-57830000D01*
D23*
X118719000Y-60116000D02*
X118211000Y-60116000D01*
X118719000Y-58846000D02*
X118211000Y-58846000D01*
X118211000Y-59354000D02*
X118211000Y-58846000D01*
D14*
X118592000Y-57957000D02*
X118338000Y-57957000D01*
D23*
X118719000Y-60624000D02*
X118719000Y-60116000D01*
D14*
X120624000Y-56052000D02*
X120624000Y-55925000D01*
X117576000Y-56052000D02*
X117576000Y-55925000D01*
X117576000Y-62148000D02*
X117576000Y-62275000D01*
D13*
X119862000Y-57703000D02*
X119862000Y-57957000D01*
D14*
X120624000Y-58465000D02*
X120624000Y-58338000D01*
X119608000Y-58973000D02*
X119862000Y-58973000D01*
D13*
X118338000Y-56687000D02*
X118338000Y-56433000D01*
D23*
X119989000Y-58846000D02*
X119481000Y-58846000D01*
X118719000Y-61386000D02*
X118211000Y-61386000D01*
D14*
X118592000Y-56687000D02*
X118338000Y-56687000D01*
D13*
X118338000Y-60497000D02*
X118338000Y-60243000D01*
D14*
X120624000Y-58465000D02*
X119100000Y-58465000D01*
D13*
X119862000Y-61513000D02*
X119862000Y-61767000D01*
D14*
X120624000Y-57195000D02*
X119735000Y-57195000D01*
X120624000Y-57195000D02*
X120624000Y-57068000D01*
D13*
X119862000Y-60243000D02*
X119862000Y-60497000D01*
X119608000Y-59227000D02*
X119608000Y-58973000D01*
D23*
X119989000Y-60624000D02*
X119989000Y-60116000D01*
X118211000Y-61894000D02*
X118211000Y-61386000D01*
D13*
X118338000Y-57957000D02*
X118338000Y-57703000D01*
X118592000Y-60243000D02*
X118592000Y-60497000D01*
D14*
X118592000Y-59227000D02*
X118338000Y-59227000D01*
X118338000Y-60243000D02*
X118592000Y-60243000D01*
X119100000Y-62275000D02*
X120624000Y-62275000D01*
X119608000Y-60243000D02*
X119862000Y-60243000D01*
D13*
X119608000Y-57957000D02*
X119608000Y-57703000D01*
D14*
X119608000Y-57703000D02*
X119862000Y-57703000D01*
X119862000Y-56687000D02*
X119608000Y-56687000D01*
D23*
X118719000Y-61894000D02*
X118719000Y-61386000D01*
X119989000Y-59354000D02*
X119481000Y-59354000D01*
X118719000Y-61894000D02*
X118211000Y-61894000D01*
D14*
X120624000Y-55925000D02*
X119100000Y-55925000D01*
X117576000Y-57195000D02*
X117576000Y-57068000D01*
X119100000Y-59735000D02*
X117576000Y-59735000D01*
X119608000Y-61513000D02*
X119862000Y-61513000D01*
D13*
X118338000Y-61767000D02*
X118338000Y-61513000D01*
D14*
X118465000Y-61005000D02*
X117576000Y-61005000D01*
X119100000Y-58465000D02*
X117576000Y-58465000D01*
D23*
X119481000Y-59354000D02*
X119481000Y-58846000D01*
D13*
X118592000Y-58973000D02*
X118592000Y-59227000D01*
D23*
X119989000Y-56306000D02*
X119481000Y-56306000D01*
D14*
X117576000Y-61005000D02*
X117576000Y-60878000D01*
X118592000Y-60497000D02*
X118338000Y-60497000D01*
D23*
X119481000Y-58084000D02*
X119481000Y-57576000D01*
D14*
X119862000Y-59227000D02*
X119608000Y-59227000D01*
X118338000Y-57703000D02*
X118592000Y-57703000D01*
D13*
X119608000Y-61767000D02*
X119608000Y-61513000D01*
D14*
X117576000Y-61132000D02*
X117576000Y-61005000D01*
D23*
X119481000Y-56814000D02*
X119481000Y-56306000D01*
D13*
X118592000Y-57703000D02*
X118592000Y-57957000D01*
D14*
X119862000Y-60497000D02*
X119608000Y-60497000D01*
D23*
X118211000Y-58084000D02*
X118211000Y-57576000D01*
D13*
X119862000Y-56433000D02*
X119862000Y-56687000D01*
D14*
X118338000Y-58973000D02*
X118592000Y-58973000D01*
D23*
X118719000Y-56814000D02*
X118719000Y-56306000D01*
X118719000Y-57576000D02*
X118211000Y-57576000D01*
X119989000Y-61386000D02*
X119481000Y-61386000D01*
X119481000Y-61894000D02*
X119481000Y-61386000D01*
X118211000Y-60624000D02*
X118211000Y-60116000D01*
D14*
%TO.C,CON4*%
X122860000Y-67070000D02*
X120320000Y-67070000D01*
X120320000Y-67578000D02*
X120320000Y-67070000D01*
X122606000Y-72150000D02*
X120574000Y-72150000D01*
X122860000Y-67070000D02*
X122860000Y-67324000D01*
X120320000Y-69356000D02*
X120320000Y-67578000D01*
X120320000Y-71896000D02*
X120574000Y-72150000D01*
X120574000Y-69610000D02*
X120320000Y-69356000D01*
X122860000Y-69356000D02*
X122606000Y-69610000D01*
X122860000Y-69864000D02*
X122860000Y-71896000D01*
X122860000Y-67324000D02*
X122860000Y-69356000D01*
X122606000Y-67070000D02*
X122860000Y-67324000D01*
X122606000Y-69610000D02*
X122860000Y-69864000D01*
X120320000Y-71896000D02*
X120320000Y-69864000D01*
X120320000Y-67324000D02*
X120574000Y-67070000D01*
X120320000Y-69864000D02*
X120574000Y-69610000D01*
X122860000Y-71896000D02*
X122606000Y-72150000D01*
D11*
%TO.C,Q2*%
X101005000Y-83580000D02*
X112435000Y-83580000D01*
X111038000Y-83834000D02*
X102402000Y-83834000D01*
X101005000Y-83580000D02*
X101005000Y-84850000D01*
X111038000Y-88406000D02*
X111673000Y-87771000D01*
X112435000Y-88660000D02*
X101005000Y-88660000D01*
X101767000Y-87771000D02*
X101767000Y-87390000D01*
X112435000Y-83580000D02*
X112435000Y-84850000D01*
X102402000Y-88406000D02*
X111038000Y-88406000D01*
X111673000Y-84469000D02*
X111673000Y-84850000D01*
X111673000Y-87771000D02*
X111673000Y-87390000D01*
X101005000Y-88660000D02*
X101005000Y-87390000D01*
X101767000Y-84469000D02*
X101767000Y-84850000D01*
X102402000Y-83834000D02*
X101767000Y-84469000D01*
X101767000Y-87771000D02*
X102402000Y-88406000D01*
X112435000Y-88660000D02*
X112435000Y-87390000D01*
X111673000Y-84469000D02*
X111038000Y-83834000D01*
D14*
%TO.C,C22*%
X99350000Y-81865500D02*
X99096000Y-81865500D01*
X99350000Y-81865500D02*
X99604000Y-81865500D01*
X99350000Y-82754500D02*
X99604000Y-82754500D01*
X99350000Y-82754500D02*
X99096000Y-82754500D01*
%TO.C,C9*%
X89438000Y-79862000D02*
X89438000Y-80878000D01*
X90962000Y-79862000D02*
X90962000Y-80878000D01*
%TO.C,FET1*%
X79953200Y-82452400D02*
X79115000Y-82452400D01*
X79953200Y-79607600D02*
X79115000Y-79607600D01*
X79115000Y-81741200D02*
X79115000Y-82452400D01*
X79115000Y-79607600D02*
X79115000Y-80318800D01*
%TD*%
D24*
%TO.C,BAT_HOLDER1*%
X102931728Y-75521728D03*
X88436039Y-61026039D03*
%TD*%
M02*
