%TF.GenerationSoftware,KiCad,Pcbnew,7.0.6-7.0.6~ubuntu22.04.1*%
%TF.CreationDate,2023-08-05T01:51:58+01:00*%
%TF.ProjectId,working,776f726b-696e-4672-9e6b-696361645f70,1.2*%
%TF.SameCoordinates,Original*%
%TF.FileFunction,Paste,Top*%
%TF.FilePolarity,Positive*%
%FSLAX46Y46*%
G04 Gerber Fmt 4.6, Leading zero omitted, Abs format (unit mm)*
G04 Created by KiCad (PCBNEW 7.0.6-7.0.6~ubuntu22.04.1) date 2023-08-05 01:51:58*
%MOMM*%
%LPD*%
G01*
G04 APERTURE LIST*
G04 Aperture macros list*
%AMHorizOval*
0 Thick line with rounded ends*
0 $1 width*
0 $2 $3 position (X,Y) of the first rounded end (center of the circle)*
0 $4 $5 position (X,Y) of the second rounded end (center of the circle)*
0 Add line between two ends*
20,1,$1,$2,$3,$4,$5,0*
0 Add two circle primitives to create the rounded ends*
1,1,$1,$2,$3*
1,1,$1,$4,$5*%
%AMRotRect*
0 Rectangle, with rotation*
0 The origin of the aperture is its center*
0 $1 length*
0 $2 width*
0 $3 Rotation angle, in degrees counterclockwise*
0 Add horizontal line*
21,1,$1,$2,0,0,$3*%
G04 Aperture macros list end*
%ADD10R,0.900000X0.900000*%
%ADD11RotRect,0.900000X0.900000X45.000000*%
%ADD12R,1.000000X1.100000*%
%ADD13R,0.600000X1.800000*%
%ADD14R,1.400000X2.400000*%
%ADD15R,0.650000X0.299720*%
%ADD16R,0.700000X0.600000*%
%ADD17C,0.700000*%
%ADD18R,0.600000X0.600000*%
%ADD19R,0.600000X0.400000*%
%ADD20R,1.198880X1.600200*%
%ADD21HorizOval,0.300000X-0.247487X-0.247487X0.247487X0.247487X0*%
%ADD22HorizOval,0.300000X0.247487X-0.247487X-0.247487X0.247487X0*%
%ADD23RotRect,0.780000X0.780000X225.000000*%
G04 APERTURE END LIST*
D10*
%TO.C,C3*%
X153750000Y-90400000D03*
X152250000Y-90400000D03*
%TD*%
D11*
%TO.C,C4*%
X138069670Y-86030330D03*
X139130330Y-84969670D03*
%TD*%
D12*
%TO.C,D1*%
X160300000Y-85549900D03*
X160300000Y-87250100D03*
%TD*%
%TO.C,D2*%
X163500000Y-85549900D03*
X163500000Y-87250100D03*
%TD*%
%TO.C,D3*%
X165100000Y-85549900D03*
X165100000Y-87250100D03*
%TD*%
D13*
%TO.C,P1*%
X155550000Y-88500000D03*
X154300000Y-88500000D03*
X153050000Y-88500000D03*
X151800000Y-88500000D03*
X150550000Y-88500000D03*
X149300000Y-88500000D03*
X148050000Y-88500000D03*
D14*
X157700000Y-85100000D03*
X145900000Y-85100000D03*
%TD*%
D10*
%TO.C,R1*%
X158150000Y-89500000D03*
X159650000Y-89500000D03*
%TD*%
%TO.C,R3*%
X162050000Y-89500000D03*
X163550000Y-89500000D03*
%TD*%
D15*
%TO.C,RP1*%
X145575000Y-91049300D03*
X145575000Y-90548920D03*
X145575000Y-90051080D03*
X145575000Y-89550700D03*
X144425000Y-89550700D03*
X144425000Y-90051080D03*
X144425000Y-90548920D03*
X144425000Y-91049300D03*
%TD*%
D16*
%TO.C,C2*%
X145200000Y-87700000D03*
X145200000Y-88700000D03*
%TD*%
D10*
%TO.C,R2*%
X162050000Y-90900000D03*
X163550000Y-90900000D03*
%TD*%
%TO.C,C1*%
X154950000Y-90400000D03*
X156450000Y-90400000D03*
%TD*%
D17*
%TO.C,P4*%
X139000000Y-90800000D03*
%TD*%
D18*
%TO.C,Q1*%
X152600000Y-95050000D03*
D19*
X152600000Y-94300000D03*
D18*
X152600000Y-93550000D03*
X150800000Y-93550000D03*
D19*
X150800000Y-94300000D03*
D18*
X150800000Y-95050000D03*
%TD*%
D16*
%TO.C,R4*%
X153800000Y-95100000D03*
X153800000Y-94100000D03*
%TD*%
%TO.C,R5*%
X149700000Y-93300000D03*
X149700000Y-94300000D03*
%TD*%
D20*
%TO.C,D4*%
X141600740Y-92700000D03*
X144999260Y-92700000D03*
%TD*%
D21*
%TO.C,U1*%
X143315775Y-87551992D03*
X142962221Y-87198439D03*
X142608668Y-86844885D03*
X142255115Y-86491332D03*
X141901561Y-86137779D03*
X141548008Y-85784225D03*
D22*
X140451992Y-85784225D03*
X140098439Y-86137779D03*
X139744885Y-86491332D03*
X139391332Y-86844885D03*
X139037779Y-87198439D03*
X138684225Y-87551992D03*
D21*
X138684225Y-88648008D03*
X139037779Y-89001561D03*
X139391332Y-89355115D03*
X139744885Y-89708668D03*
X140098439Y-90062221D03*
X140451992Y-90415775D03*
D22*
X141548008Y-90415775D03*
X141901561Y-90062221D03*
X142255115Y-89708668D03*
X142608668Y-89355115D03*
X142962221Y-89001561D03*
X143315775Y-88648008D03*
D23*
X141919239Y-88100000D03*
X141000000Y-87180761D03*
X140080761Y-88100000D03*
X141000000Y-89019239D03*
%TD*%
D20*
%TO.C,D5*%
X159000740Y-92700000D03*
X162399260Y-92700000D03*
%TD*%
M02*
