%TF.GenerationSoftware,KiCad,Pcbnew,7.0.6-7.0.6~ubuntu22.04.1*%
%TF.CreationDate,2023-08-07T02:28:53+01:00*%
%TF.ProjectId,working,776f726b-696e-4672-9e6b-696361645f70,rev?*%
%TF.SameCoordinates,Original*%
%TF.FileFunction,AssemblyDrawing,Top*%
%FSLAX46Y46*%
G04 Gerber Fmt 4.6, Leading zero omitted, Abs format (unit mm)*
G04 Created by KiCad (PCBNEW 7.0.6-7.0.6~ubuntu22.04.1) date 2023-08-07 02:28:53*
%MOMM*%
%LPD*%
G01*
G04 APERTURE LIST*
%ADD10C,0.036576*%
%ADD11C,0.093472*%
%ADD12C,0.091440*%
%ADD13C,0.097536*%
%ADD14C,0.101600*%
%ADD15C,0.203200*%
%ADD16C,0.127000*%
%ADD17C,0.152400*%
%ADD18C,0.050800*%
G04 APERTURE END LIST*
D10*
X146539298Y-115028309D02*
X146539298Y-115587980D01*
X146539298Y-115308144D02*
X145559874Y-115308144D01*
X145559874Y-115308144D02*
X145699791Y-115401423D01*
X145699791Y-115401423D02*
X145793070Y-115494701D01*
X145793070Y-115494701D02*
X145839709Y-115587980D01*
X145886348Y-114188802D02*
X146539298Y-114188802D01*
X145886348Y-114608555D02*
X146399380Y-114608555D01*
X146399380Y-114608555D02*
X146492659Y-114561916D01*
X146492659Y-114561916D02*
X146539298Y-114468638D01*
X146539298Y-114468638D02*
X146539298Y-114328720D01*
X146539298Y-114328720D02*
X146492659Y-114235441D01*
X146492659Y-114235441D02*
X146446019Y-114188802D01*
X146026266Y-113395935D02*
X146026266Y-113722409D01*
X146539298Y-113722409D02*
X145559874Y-113722409D01*
X145559874Y-113722409D02*
X145559874Y-113256017D01*
X147174298Y-90644309D02*
X147174298Y-91203980D01*
X147174298Y-90924144D02*
X146194874Y-90924144D01*
X146194874Y-90924144D02*
X146334791Y-91017423D01*
X146334791Y-91017423D02*
X146428070Y-91110701D01*
X146428070Y-91110701D02*
X146474709Y-91203980D01*
X146194874Y-90037998D02*
X146194874Y-89944720D01*
X146194874Y-89944720D02*
X146241513Y-89851441D01*
X146241513Y-89851441D02*
X146288152Y-89804802D01*
X146288152Y-89804802D02*
X146381431Y-89758163D01*
X146381431Y-89758163D02*
X146567988Y-89711524D01*
X146567988Y-89711524D02*
X146801184Y-89711524D01*
X146801184Y-89711524D02*
X146987741Y-89758163D01*
X146987741Y-89758163D02*
X147081019Y-89804802D01*
X147081019Y-89804802D02*
X147127659Y-89851441D01*
X147127659Y-89851441D02*
X147174298Y-89944720D01*
X147174298Y-89944720D02*
X147174298Y-90037998D01*
X147174298Y-90037998D02*
X147127659Y-90131277D01*
X147127659Y-90131277D02*
X147081019Y-90177916D01*
X147081019Y-90177916D02*
X146987741Y-90224555D01*
X146987741Y-90224555D02*
X146801184Y-90271195D01*
X146801184Y-90271195D02*
X146567988Y-90271195D01*
X146567988Y-90271195D02*
X146381431Y-90224555D01*
X146381431Y-90224555D02*
X146288152Y-90177916D01*
X146288152Y-90177916D02*
X146241513Y-90131277D01*
X146241513Y-90131277D02*
X146194874Y-90037998D01*
X146521348Y-88872017D02*
X147174298Y-88872017D01*
X146521348Y-89291770D02*
X147034380Y-89291770D01*
X147034380Y-89291770D02*
X147127659Y-89245131D01*
X147127659Y-89245131D02*
X147174298Y-89151853D01*
X147174298Y-89151853D02*
X147174298Y-89011935D01*
X147174298Y-89011935D02*
X147127659Y-88918656D01*
X147127659Y-88918656D02*
X147081019Y-88872017D01*
X146661266Y-88079150D02*
X146661266Y-88405624D01*
X147174298Y-88405624D02*
X146194874Y-88405624D01*
X146194874Y-88405624D02*
X146194874Y-87939232D01*
X141172080Y-97490374D02*
X141778390Y-97490374D01*
X141778390Y-97490374D02*
X141451916Y-97863488D01*
X141451916Y-97863488D02*
X141591833Y-97863488D01*
X141591833Y-97863488D02*
X141685112Y-97910127D01*
X141685112Y-97910127D02*
X141731751Y-97956766D01*
X141731751Y-97956766D02*
X141778390Y-98050045D01*
X141778390Y-98050045D02*
X141778390Y-98283241D01*
X141778390Y-98283241D02*
X141731751Y-98376519D01*
X141731751Y-98376519D02*
X141685112Y-98423159D01*
X141685112Y-98423159D02*
X141591833Y-98469798D01*
X141591833Y-98469798D02*
X141311998Y-98469798D01*
X141311998Y-98469798D02*
X141218719Y-98423159D01*
X141218719Y-98423159D02*
X141172080Y-98376519D01*
X142104865Y-97490374D02*
X142711175Y-97490374D01*
X142711175Y-97490374D02*
X142384701Y-97863488D01*
X142384701Y-97863488D02*
X142524618Y-97863488D01*
X142524618Y-97863488D02*
X142617897Y-97910127D01*
X142617897Y-97910127D02*
X142664536Y-97956766D01*
X142664536Y-97956766D02*
X142711175Y-98050045D01*
X142711175Y-98050045D02*
X142711175Y-98283241D01*
X142711175Y-98283241D02*
X142664536Y-98376519D01*
X142664536Y-98376519D02*
X142617897Y-98423159D01*
X142617897Y-98423159D02*
X142524618Y-98469798D01*
X142524618Y-98469798D02*
X142244783Y-98469798D01*
X142244783Y-98469798D02*
X142151504Y-98423159D01*
X142151504Y-98423159D02*
X142104865Y-98376519D01*
X144017074Y-98469798D02*
X143923796Y-98423159D01*
X143923796Y-98423159D02*
X143877157Y-98376519D01*
X143877157Y-98376519D02*
X143830517Y-98283241D01*
X143830517Y-98283241D02*
X143830517Y-98003405D01*
X143830517Y-98003405D02*
X143877157Y-97910127D01*
X143877157Y-97910127D02*
X143923796Y-97863488D01*
X143923796Y-97863488D02*
X144017074Y-97816848D01*
X144017074Y-97816848D02*
X144156992Y-97816848D01*
X144156992Y-97816848D02*
X144250271Y-97863488D01*
X144250271Y-97863488D02*
X144296910Y-97910127D01*
X144296910Y-97910127D02*
X144343549Y-98003405D01*
X144343549Y-98003405D02*
X144343549Y-98283241D01*
X144343549Y-98283241D02*
X144296910Y-98376519D01*
X144296910Y-98376519D02*
X144250271Y-98423159D01*
X144250271Y-98423159D02*
X144156992Y-98469798D01*
X144156992Y-98469798D02*
X144017074Y-98469798D01*
X144763303Y-98469798D02*
X144763303Y-97490374D01*
X145183056Y-98469798D02*
X145183056Y-97956766D01*
X145183056Y-97956766D02*
X145136417Y-97863488D01*
X145136417Y-97863488D02*
X145043138Y-97816848D01*
X145043138Y-97816848D02*
X144903220Y-97816848D01*
X144903220Y-97816848D02*
X144809942Y-97863488D01*
X144809942Y-97863488D02*
X144763303Y-97910127D01*
X145649449Y-98469798D02*
X145649449Y-97816848D01*
X145649449Y-97910127D02*
X145696088Y-97863488D01*
X145696088Y-97863488D02*
X145789366Y-97816848D01*
X145789366Y-97816848D02*
X145929284Y-97816848D01*
X145929284Y-97816848D02*
X146022563Y-97863488D01*
X146022563Y-97863488D02*
X146069202Y-97956766D01*
X146069202Y-97956766D02*
X146069202Y-98469798D01*
X146069202Y-97956766D02*
X146115841Y-97863488D01*
X146115841Y-97863488D02*
X146209120Y-97816848D01*
X146209120Y-97816848D02*
X146349037Y-97816848D01*
X146349037Y-97816848D02*
X146442316Y-97863488D01*
X146442316Y-97863488D02*
X146488955Y-97956766D01*
X146488955Y-97956766D02*
X146488955Y-98469798D01*
X134992080Y-117062374D02*
X135598390Y-117062374D01*
X135598390Y-117062374D02*
X135271916Y-117435488D01*
X135271916Y-117435488D02*
X135411833Y-117435488D01*
X135411833Y-117435488D02*
X135505112Y-117482127D01*
X135505112Y-117482127D02*
X135551751Y-117528766D01*
X135551751Y-117528766D02*
X135598390Y-117622045D01*
X135598390Y-117622045D02*
X135598390Y-117855241D01*
X135598390Y-117855241D02*
X135551751Y-117948519D01*
X135551751Y-117948519D02*
X135505112Y-117995159D01*
X135505112Y-117995159D02*
X135411833Y-118041798D01*
X135411833Y-118041798D02*
X135131998Y-118041798D01*
X135131998Y-118041798D02*
X135038719Y-117995159D01*
X135038719Y-117995159D02*
X134992080Y-117948519D01*
X136018144Y-117948519D02*
X136064783Y-117995159D01*
X136064783Y-117995159D02*
X136018144Y-118041798D01*
X136018144Y-118041798D02*
X135971504Y-117995159D01*
X135971504Y-117995159D02*
X136018144Y-117948519D01*
X136018144Y-117948519D02*
X136018144Y-118041798D01*
X136904289Y-117062374D02*
X136717732Y-117062374D01*
X136717732Y-117062374D02*
X136624453Y-117109013D01*
X136624453Y-117109013D02*
X136577814Y-117155652D01*
X136577814Y-117155652D02*
X136484536Y-117295570D01*
X136484536Y-117295570D02*
X136437896Y-117482127D01*
X136437896Y-117482127D02*
X136437896Y-117855241D01*
X136437896Y-117855241D02*
X136484536Y-117948519D01*
X136484536Y-117948519D02*
X136531175Y-117995159D01*
X136531175Y-117995159D02*
X136624453Y-118041798D01*
X136624453Y-118041798D02*
X136811010Y-118041798D01*
X136811010Y-118041798D02*
X136904289Y-117995159D01*
X136904289Y-117995159D02*
X136950928Y-117948519D01*
X136950928Y-117948519D02*
X136997567Y-117855241D01*
X136997567Y-117855241D02*
X136997567Y-117622045D01*
X136997567Y-117622045D02*
X136950928Y-117528766D01*
X136950928Y-117528766D02*
X136904289Y-117482127D01*
X136904289Y-117482127D02*
X136811010Y-117435488D01*
X136811010Y-117435488D02*
X136624453Y-117435488D01*
X136624453Y-117435488D02*
X136531175Y-117482127D01*
X136531175Y-117482127D02*
X136484536Y-117528766D01*
X136484536Y-117528766D02*
X136437896Y-117622045D01*
X137277403Y-117062374D02*
X137603878Y-118041798D01*
X137603878Y-118041798D02*
X137930352Y-117062374D01*
X149587298Y-114774309D02*
X149587298Y-115333980D01*
X149587298Y-115054144D02*
X148607874Y-115054144D01*
X148607874Y-115054144D02*
X148747791Y-115147423D01*
X148747791Y-115147423D02*
X148841070Y-115240701D01*
X148841070Y-115240701D02*
X148887709Y-115333980D01*
X148607874Y-114167998D02*
X148607874Y-114074720D01*
X148607874Y-114074720D02*
X148654513Y-113981441D01*
X148654513Y-113981441D02*
X148701152Y-113934802D01*
X148701152Y-113934802D02*
X148794431Y-113888163D01*
X148794431Y-113888163D02*
X148980988Y-113841524D01*
X148980988Y-113841524D02*
X149214184Y-113841524D01*
X149214184Y-113841524D02*
X149400741Y-113888163D01*
X149400741Y-113888163D02*
X149494019Y-113934802D01*
X149494019Y-113934802D02*
X149540659Y-113981441D01*
X149540659Y-113981441D02*
X149587298Y-114074720D01*
X149587298Y-114074720D02*
X149587298Y-114167998D01*
X149587298Y-114167998D02*
X149540659Y-114261277D01*
X149540659Y-114261277D02*
X149494019Y-114307916D01*
X149494019Y-114307916D02*
X149400741Y-114354555D01*
X149400741Y-114354555D02*
X149214184Y-114401195D01*
X149214184Y-114401195D02*
X148980988Y-114401195D01*
X148980988Y-114401195D02*
X148794431Y-114354555D01*
X148794431Y-114354555D02*
X148701152Y-114307916D01*
X148701152Y-114307916D02*
X148654513Y-114261277D01*
X148654513Y-114261277D02*
X148607874Y-114167998D01*
X148607874Y-113235213D02*
X148607874Y-113141935D01*
X148607874Y-113141935D02*
X148654513Y-113048656D01*
X148654513Y-113048656D02*
X148701152Y-113002017D01*
X148701152Y-113002017D02*
X148794431Y-112955378D01*
X148794431Y-112955378D02*
X148980988Y-112908739D01*
X148980988Y-112908739D02*
X149214184Y-112908739D01*
X149214184Y-112908739D02*
X149400741Y-112955378D01*
X149400741Y-112955378D02*
X149494019Y-113002017D01*
X149494019Y-113002017D02*
X149540659Y-113048656D01*
X149540659Y-113048656D02*
X149587298Y-113141935D01*
X149587298Y-113141935D02*
X149587298Y-113235213D01*
X149587298Y-113235213D02*
X149540659Y-113328492D01*
X149540659Y-113328492D02*
X149494019Y-113375131D01*
X149494019Y-113375131D02*
X149400741Y-113421770D01*
X149400741Y-113421770D02*
X149214184Y-113468410D01*
X149214184Y-113468410D02*
X148980988Y-113468410D01*
X148980988Y-113468410D02*
X148794431Y-113421770D01*
X148794431Y-113421770D02*
X148701152Y-113375131D01*
X148701152Y-113375131D02*
X148654513Y-113328492D01*
X148654513Y-113328492D02*
X148607874Y-113235213D01*
X142677176Y-124885798D02*
X142677176Y-123906374D01*
X142677176Y-123906374D02*
X143050290Y-123906374D01*
X143050290Y-123906374D02*
X143143568Y-123953013D01*
X143143568Y-123953013D02*
X143190207Y-123999652D01*
X143190207Y-123999652D02*
X143236847Y-124092931D01*
X143236847Y-124092931D02*
X143236847Y-124232848D01*
X143236847Y-124232848D02*
X143190207Y-124326127D01*
X143190207Y-124326127D02*
X143143568Y-124372766D01*
X143143568Y-124372766D02*
X143050290Y-124419405D01*
X143050290Y-124419405D02*
X142677176Y-124419405D01*
X143609960Y-124605962D02*
X144076353Y-124605962D01*
X143516682Y-124885798D02*
X143843157Y-123906374D01*
X143843157Y-123906374D02*
X144169631Y-124885798D01*
X144496106Y-124885798D02*
X144496106Y-123906374D01*
X144496106Y-123906374D02*
X144822580Y-124605962D01*
X144822580Y-124605962D02*
X145149055Y-123906374D01*
X145149055Y-123906374D02*
X145149055Y-124885798D01*
X145755365Y-124326127D02*
X145662087Y-124279488D01*
X145662087Y-124279488D02*
X145615448Y-124232848D01*
X145615448Y-124232848D02*
X145568808Y-124139570D01*
X145568808Y-124139570D02*
X145568808Y-124092931D01*
X145568808Y-124092931D02*
X145615448Y-123999652D01*
X145615448Y-123999652D02*
X145662087Y-123953013D01*
X145662087Y-123953013D02*
X145755365Y-123906374D01*
X145755365Y-123906374D02*
X145941922Y-123906374D01*
X145941922Y-123906374D02*
X146035201Y-123953013D01*
X146035201Y-123953013D02*
X146081840Y-123999652D01*
X146081840Y-123999652D02*
X146128479Y-124092931D01*
X146128479Y-124092931D02*
X146128479Y-124139570D01*
X146128479Y-124139570D02*
X146081840Y-124232848D01*
X146081840Y-124232848D02*
X146035201Y-124279488D01*
X146035201Y-124279488D02*
X145941922Y-124326127D01*
X145941922Y-124326127D02*
X145755365Y-124326127D01*
X145755365Y-124326127D02*
X145662087Y-124372766D01*
X145662087Y-124372766D02*
X145615448Y-124419405D01*
X145615448Y-124419405D02*
X145568808Y-124512684D01*
X145568808Y-124512684D02*
X145568808Y-124699241D01*
X145568808Y-124699241D02*
X145615448Y-124792519D01*
X145615448Y-124792519D02*
X145662087Y-124839159D01*
X145662087Y-124839159D02*
X145755365Y-124885798D01*
X145755365Y-124885798D02*
X145941922Y-124885798D01*
X145941922Y-124885798D02*
X146035201Y-124839159D01*
X146035201Y-124839159D02*
X146081840Y-124792519D01*
X146081840Y-124792519D02*
X146128479Y-124699241D01*
X146128479Y-124699241D02*
X146128479Y-124512684D01*
X146128479Y-124512684D02*
X146081840Y-124419405D01*
X146081840Y-124419405D02*
X146035201Y-124372766D01*
X146035201Y-124372766D02*
X145941922Y-124326127D01*
X146454954Y-123906374D02*
X147061264Y-123906374D01*
X147061264Y-123906374D02*
X146734790Y-124279488D01*
X146734790Y-124279488D02*
X146874707Y-124279488D01*
X146874707Y-124279488D02*
X146967986Y-124326127D01*
X146967986Y-124326127D02*
X147014625Y-124372766D01*
X147014625Y-124372766D02*
X147061264Y-124466045D01*
X147061264Y-124466045D02*
X147061264Y-124699241D01*
X147061264Y-124699241D02*
X147014625Y-124792519D01*
X147014625Y-124792519D02*
X146967986Y-124839159D01*
X146967986Y-124839159D02*
X146874707Y-124885798D01*
X146874707Y-124885798D02*
X146594872Y-124885798D01*
X146594872Y-124885798D02*
X146501593Y-124839159D01*
X146501593Y-124839159D02*
X146454954Y-124792519D01*
X147667575Y-123906374D02*
X147760853Y-123906374D01*
X147760853Y-123906374D02*
X147854132Y-123953013D01*
X147854132Y-123953013D02*
X147900771Y-123999652D01*
X147900771Y-123999652D02*
X147947410Y-124092931D01*
X147947410Y-124092931D02*
X147994049Y-124279488D01*
X147994049Y-124279488D02*
X147994049Y-124512684D01*
X147994049Y-124512684D02*
X147947410Y-124699241D01*
X147947410Y-124699241D02*
X147900771Y-124792519D01*
X147900771Y-124792519D02*
X147854132Y-124839159D01*
X147854132Y-124839159D02*
X147760853Y-124885798D01*
X147760853Y-124885798D02*
X147667575Y-124885798D01*
X147667575Y-124885798D02*
X147574296Y-124839159D01*
X147574296Y-124839159D02*
X147527657Y-124792519D01*
X147527657Y-124792519D02*
X147481018Y-124699241D01*
X147481018Y-124699241D02*
X147434378Y-124512684D01*
X147434378Y-124512684D02*
X147434378Y-124279488D01*
X147434378Y-124279488D02*
X147481018Y-124092931D01*
X147481018Y-124092931D02*
X147527657Y-123999652D01*
X147527657Y-123999652D02*
X147574296Y-123953013D01*
X147574296Y-123953013D02*
X147667575Y-123906374D01*
X148367163Y-123999652D02*
X148413803Y-123953013D01*
X148413803Y-123953013D02*
X148507081Y-123906374D01*
X148507081Y-123906374D02*
X148740277Y-123906374D01*
X148740277Y-123906374D02*
X148833556Y-123953013D01*
X148833556Y-123953013D02*
X148880195Y-123999652D01*
X148880195Y-123999652D02*
X148926834Y-124092931D01*
X148926834Y-124092931D02*
X148926834Y-124186209D01*
X148926834Y-124186209D02*
X148880195Y-124326127D01*
X148880195Y-124326127D02*
X148320524Y-124885798D01*
X148320524Y-124885798D02*
X148926834Y-124885798D01*
X149299948Y-124605962D02*
X149766341Y-124605962D01*
X149206670Y-124885798D02*
X149533145Y-123906374D01*
X149533145Y-123906374D02*
X149859619Y-124885798D01*
X150139454Y-124605962D02*
X150605847Y-124605962D01*
X150046176Y-124885798D02*
X150372651Y-123906374D01*
X150372651Y-123906374D02*
X150699125Y-124885798D01*
X150978960Y-124839159D02*
X151118878Y-124885798D01*
X151118878Y-124885798D02*
X151352074Y-124885798D01*
X151352074Y-124885798D02*
X151445353Y-124839159D01*
X151445353Y-124839159D02*
X151491992Y-124792519D01*
X151491992Y-124792519D02*
X151538631Y-124699241D01*
X151538631Y-124699241D02*
X151538631Y-124605962D01*
X151538631Y-124605962D02*
X151491992Y-124512684D01*
X151491992Y-124512684D02*
X151445353Y-124466045D01*
X151445353Y-124466045D02*
X151352074Y-124419405D01*
X151352074Y-124419405D02*
X151165517Y-124372766D01*
X151165517Y-124372766D02*
X151072239Y-124326127D01*
X151072239Y-124326127D02*
X151025600Y-124279488D01*
X151025600Y-124279488D02*
X150978960Y-124186209D01*
X150978960Y-124186209D02*
X150978960Y-124092931D01*
X150978960Y-124092931D02*
X151025600Y-123999652D01*
X151025600Y-123999652D02*
X151072239Y-123953013D01*
X151072239Y-123953013D02*
X151165517Y-123906374D01*
X151165517Y-123906374D02*
X151398714Y-123906374D01*
X151398714Y-123906374D02*
X151538631Y-123953013D01*
X152518056Y-124792519D02*
X152471416Y-124839159D01*
X152471416Y-124839159D02*
X152331499Y-124885798D01*
X152331499Y-124885798D02*
X152238220Y-124885798D01*
X152238220Y-124885798D02*
X152098302Y-124839159D01*
X152098302Y-124839159D02*
X152005024Y-124745880D01*
X152005024Y-124745880D02*
X151958385Y-124652602D01*
X151958385Y-124652602D02*
X151911745Y-124466045D01*
X151911745Y-124466045D02*
X151911745Y-124326127D01*
X151911745Y-124326127D02*
X151958385Y-124139570D01*
X151958385Y-124139570D02*
X152005024Y-124046291D01*
X152005024Y-124046291D02*
X152098302Y-123953013D01*
X152098302Y-123953013D02*
X152238220Y-123906374D01*
X152238220Y-123906374D02*
X152331499Y-123906374D01*
X152331499Y-123906374D02*
X152471416Y-123953013D01*
X152471416Y-123953013D02*
X152518056Y-123999652D01*
X153497480Y-124885798D02*
X153171005Y-124419405D01*
X152937809Y-124885798D02*
X152937809Y-123906374D01*
X152937809Y-123906374D02*
X153310923Y-123906374D01*
X153310923Y-123906374D02*
X153404201Y-123953013D01*
X153404201Y-123953013D02*
X153450840Y-123999652D01*
X153450840Y-123999652D02*
X153497480Y-124092931D01*
X153497480Y-124092931D02*
X153497480Y-124232848D01*
X153497480Y-124232848D02*
X153450840Y-124326127D01*
X153450840Y-124326127D02*
X153404201Y-124372766D01*
X153404201Y-124372766D02*
X153310923Y-124419405D01*
X153310923Y-124419405D02*
X152937809Y-124419405D01*
X135583270Y-93008798D02*
X135023599Y-93008798D01*
X135303435Y-93008798D02*
X135303435Y-92029374D01*
X135303435Y-92029374D02*
X135210156Y-92169291D01*
X135210156Y-92169291D02*
X135116878Y-92262570D01*
X135116878Y-92262570D02*
X135023599Y-92309209D01*
X136189581Y-92029374D02*
X136282859Y-92029374D01*
X136282859Y-92029374D02*
X136376138Y-92076013D01*
X136376138Y-92076013D02*
X136422777Y-92122652D01*
X136422777Y-92122652D02*
X136469416Y-92215931D01*
X136469416Y-92215931D02*
X136516055Y-92402488D01*
X136516055Y-92402488D02*
X136516055Y-92635684D01*
X136516055Y-92635684D02*
X136469416Y-92822241D01*
X136469416Y-92822241D02*
X136422777Y-92915519D01*
X136422777Y-92915519D02*
X136376138Y-92962159D01*
X136376138Y-92962159D02*
X136282859Y-93008798D01*
X136282859Y-93008798D02*
X136189581Y-93008798D01*
X136189581Y-93008798D02*
X136096302Y-92962159D01*
X136096302Y-92962159D02*
X136049663Y-92915519D01*
X136049663Y-92915519D02*
X136003024Y-92822241D01*
X136003024Y-92822241D02*
X135956384Y-92635684D01*
X135956384Y-92635684D02*
X135956384Y-92402488D01*
X135956384Y-92402488D02*
X136003024Y-92215931D01*
X136003024Y-92215931D02*
X136049663Y-92122652D01*
X136049663Y-92122652D02*
X136096302Y-92076013D01*
X136096302Y-92076013D02*
X136189581Y-92029374D01*
X136935809Y-93008798D02*
X136935809Y-92029374D01*
X137495480Y-93008798D02*
X137075726Y-92449127D01*
X137495480Y-92029374D02*
X136935809Y-92589045D01*
X133331298Y-111472309D02*
X133331298Y-112031980D01*
X133331298Y-111752144D02*
X132351874Y-111752144D01*
X132351874Y-111752144D02*
X132491791Y-111845423D01*
X132491791Y-111845423D02*
X132585070Y-111938701D01*
X132585070Y-111938701D02*
X132631709Y-112031980D01*
X133331298Y-111052555D02*
X132351874Y-111052555D01*
X133331298Y-110492884D02*
X132771627Y-110912638D01*
X132351874Y-110492884D02*
X132911545Y-111052555D01*
X132217358Y-94781766D02*
X132357276Y-94828405D01*
X132357276Y-94828405D02*
X132403915Y-94875045D01*
X132403915Y-94875045D02*
X132450555Y-94968323D01*
X132450555Y-94968323D02*
X132450555Y-95108241D01*
X132450555Y-95108241D02*
X132403915Y-95201519D01*
X132403915Y-95201519D02*
X132357276Y-95248159D01*
X132357276Y-95248159D02*
X132263998Y-95294798D01*
X132263998Y-95294798D02*
X131890884Y-95294798D01*
X131890884Y-95294798D02*
X131890884Y-94315374D01*
X131890884Y-94315374D02*
X132217358Y-94315374D01*
X132217358Y-94315374D02*
X132310637Y-94362013D01*
X132310637Y-94362013D02*
X132357276Y-94408652D01*
X132357276Y-94408652D02*
X132403915Y-94501931D01*
X132403915Y-94501931D02*
X132403915Y-94595209D01*
X132403915Y-94595209D02*
X132357276Y-94688488D01*
X132357276Y-94688488D02*
X132310637Y-94735127D01*
X132310637Y-94735127D02*
X132217358Y-94781766D01*
X132217358Y-94781766D02*
X131890884Y-94781766D01*
X132823668Y-95248159D02*
X132963586Y-95294798D01*
X132963586Y-95294798D02*
X133196782Y-95294798D01*
X133196782Y-95294798D02*
X133290061Y-95248159D01*
X133290061Y-95248159D02*
X133336700Y-95201519D01*
X133336700Y-95201519D02*
X133383339Y-95108241D01*
X133383339Y-95108241D02*
X133383339Y-95014962D01*
X133383339Y-95014962D02*
X133336700Y-94921684D01*
X133336700Y-94921684D02*
X133290061Y-94875045D01*
X133290061Y-94875045D02*
X133196782Y-94828405D01*
X133196782Y-94828405D02*
X133010225Y-94781766D01*
X133010225Y-94781766D02*
X132916947Y-94735127D01*
X132916947Y-94735127D02*
X132870308Y-94688488D01*
X132870308Y-94688488D02*
X132823668Y-94595209D01*
X132823668Y-94595209D02*
X132823668Y-94501931D01*
X132823668Y-94501931D02*
X132870308Y-94408652D01*
X132870308Y-94408652D02*
X132916947Y-94362013D01*
X132916947Y-94362013D02*
X133010225Y-94315374D01*
X133010225Y-94315374D02*
X133243422Y-94315374D01*
X133243422Y-94315374D02*
X133383339Y-94362013D01*
X133756453Y-95248159D02*
X133896371Y-95294798D01*
X133896371Y-95294798D02*
X134129567Y-95294798D01*
X134129567Y-95294798D02*
X134222846Y-95248159D01*
X134222846Y-95248159D02*
X134269485Y-95201519D01*
X134269485Y-95201519D02*
X134316124Y-95108241D01*
X134316124Y-95108241D02*
X134316124Y-95014962D01*
X134316124Y-95014962D02*
X134269485Y-94921684D01*
X134269485Y-94921684D02*
X134222846Y-94875045D01*
X134222846Y-94875045D02*
X134129567Y-94828405D01*
X134129567Y-94828405D02*
X133943010Y-94781766D01*
X133943010Y-94781766D02*
X133849732Y-94735127D01*
X133849732Y-94735127D02*
X133803093Y-94688488D01*
X133803093Y-94688488D02*
X133756453Y-94595209D01*
X133756453Y-94595209D02*
X133756453Y-94501931D01*
X133756453Y-94501931D02*
X133803093Y-94408652D01*
X133803093Y-94408652D02*
X133849732Y-94362013D01*
X133849732Y-94362013D02*
X133943010Y-94315374D01*
X133943010Y-94315374D02*
X134176207Y-94315374D01*
X134176207Y-94315374D02*
X134316124Y-94362013D01*
X135248909Y-95294798D02*
X134689238Y-95294798D01*
X134969074Y-95294798D02*
X134969074Y-94315374D01*
X134969074Y-94315374D02*
X134875795Y-94455291D01*
X134875795Y-94455291D02*
X134782517Y-94548570D01*
X134782517Y-94548570D02*
X134689238Y-94595209D01*
X135575384Y-94315374D02*
X136181694Y-94315374D01*
X136181694Y-94315374D02*
X135855220Y-94688488D01*
X135855220Y-94688488D02*
X135995137Y-94688488D01*
X135995137Y-94688488D02*
X136088416Y-94735127D01*
X136088416Y-94735127D02*
X136135055Y-94781766D01*
X136135055Y-94781766D02*
X136181694Y-94875045D01*
X136181694Y-94875045D02*
X136181694Y-95108241D01*
X136181694Y-95108241D02*
X136135055Y-95201519D01*
X136135055Y-95201519D02*
X136088416Y-95248159D01*
X136088416Y-95248159D02*
X135995137Y-95294798D01*
X135995137Y-95294798D02*
X135715302Y-95294798D01*
X135715302Y-95294798D02*
X135622023Y-95248159D01*
X135622023Y-95248159D02*
X135575384Y-95201519D01*
X136741365Y-94735127D02*
X136648087Y-94688488D01*
X136648087Y-94688488D02*
X136601448Y-94641848D01*
X136601448Y-94641848D02*
X136554808Y-94548570D01*
X136554808Y-94548570D02*
X136554808Y-94501931D01*
X136554808Y-94501931D02*
X136601448Y-94408652D01*
X136601448Y-94408652D02*
X136648087Y-94362013D01*
X136648087Y-94362013D02*
X136741365Y-94315374D01*
X136741365Y-94315374D02*
X136927922Y-94315374D01*
X136927922Y-94315374D02*
X137021201Y-94362013D01*
X137021201Y-94362013D02*
X137067840Y-94408652D01*
X137067840Y-94408652D02*
X137114479Y-94501931D01*
X137114479Y-94501931D02*
X137114479Y-94548570D01*
X137114479Y-94548570D02*
X137067840Y-94641848D01*
X137067840Y-94641848D02*
X137021201Y-94688488D01*
X137021201Y-94688488D02*
X136927922Y-94735127D01*
X136927922Y-94735127D02*
X136741365Y-94735127D01*
X136741365Y-94735127D02*
X136648087Y-94781766D01*
X136648087Y-94781766D02*
X136601448Y-94828405D01*
X136601448Y-94828405D02*
X136554808Y-94921684D01*
X136554808Y-94921684D02*
X136554808Y-95108241D01*
X136554808Y-95108241D02*
X136601448Y-95201519D01*
X136601448Y-95201519D02*
X136648087Y-95248159D01*
X136648087Y-95248159D02*
X136741365Y-95294798D01*
X136741365Y-95294798D02*
X136927922Y-95294798D01*
X136927922Y-95294798D02*
X137021201Y-95248159D01*
X137021201Y-95248159D02*
X137067840Y-95201519D01*
X137067840Y-95201519D02*
X137114479Y-95108241D01*
X137114479Y-95108241D02*
X137114479Y-94921684D01*
X137114479Y-94921684D02*
X137067840Y-94828405D01*
X137067840Y-94828405D02*
X137021201Y-94781766D01*
X137021201Y-94781766D02*
X136927922Y-94735127D01*
X157272390Y-101644798D02*
X156712719Y-101644798D01*
X156992555Y-101644798D02*
X156992555Y-100665374D01*
X156992555Y-100665374D02*
X156899276Y-100805291D01*
X156899276Y-100805291D02*
X156805998Y-100898570D01*
X156805998Y-100898570D02*
X156712719Y-100945209D01*
X157878701Y-100665374D02*
X157971979Y-100665374D01*
X157971979Y-100665374D02*
X158065258Y-100712013D01*
X158065258Y-100712013D02*
X158111897Y-100758652D01*
X158111897Y-100758652D02*
X158158536Y-100851931D01*
X158158536Y-100851931D02*
X158205175Y-101038488D01*
X158205175Y-101038488D02*
X158205175Y-101271684D01*
X158205175Y-101271684D02*
X158158536Y-101458241D01*
X158158536Y-101458241D02*
X158111897Y-101551519D01*
X158111897Y-101551519D02*
X158065258Y-101598159D01*
X158065258Y-101598159D02*
X157971979Y-101644798D01*
X157971979Y-101644798D02*
X157878701Y-101644798D01*
X157878701Y-101644798D02*
X157785422Y-101598159D01*
X157785422Y-101598159D02*
X157738783Y-101551519D01*
X157738783Y-101551519D02*
X157692144Y-101458241D01*
X157692144Y-101458241D02*
X157645504Y-101271684D01*
X157645504Y-101271684D02*
X157645504Y-101038488D01*
X157645504Y-101038488D02*
X157692144Y-100851931D01*
X157692144Y-100851931D02*
X157738783Y-100758652D01*
X157738783Y-100758652D02*
X157785422Y-100712013D01*
X157785422Y-100712013D02*
X157878701Y-100665374D01*
X159044682Y-100991848D02*
X159044682Y-101644798D01*
X158624929Y-100991848D02*
X158624929Y-101504880D01*
X158624929Y-101504880D02*
X158671568Y-101598159D01*
X158671568Y-101598159D02*
X158764846Y-101644798D01*
X158764846Y-101644798D02*
X158904764Y-101644798D01*
X158904764Y-101644798D02*
X158998043Y-101598159D01*
X158998043Y-101598159D02*
X159044682Y-101551519D01*
X159837549Y-101131766D02*
X159511075Y-101131766D01*
X159511075Y-101644798D02*
X159511075Y-100665374D01*
X159511075Y-100665374D02*
X159977467Y-100665374D01*
X160636298Y-94454309D02*
X160636298Y-95013980D01*
X160636298Y-94734144D02*
X159656874Y-94734144D01*
X159656874Y-94734144D02*
X159796791Y-94827423D01*
X159796791Y-94827423D02*
X159890070Y-94920701D01*
X159890070Y-94920701D02*
X159936709Y-95013980D01*
X159656874Y-93847998D02*
X159656874Y-93754720D01*
X159656874Y-93754720D02*
X159703513Y-93661441D01*
X159703513Y-93661441D02*
X159750152Y-93614802D01*
X159750152Y-93614802D02*
X159843431Y-93568163D01*
X159843431Y-93568163D02*
X160029988Y-93521524D01*
X160029988Y-93521524D02*
X160263184Y-93521524D01*
X160263184Y-93521524D02*
X160449741Y-93568163D01*
X160449741Y-93568163D02*
X160543019Y-93614802D01*
X160543019Y-93614802D02*
X160589659Y-93661441D01*
X160589659Y-93661441D02*
X160636298Y-93754720D01*
X160636298Y-93754720D02*
X160636298Y-93847998D01*
X160636298Y-93847998D02*
X160589659Y-93941277D01*
X160589659Y-93941277D02*
X160543019Y-93987916D01*
X160543019Y-93987916D02*
X160449741Y-94034555D01*
X160449741Y-94034555D02*
X160263184Y-94081195D01*
X160263184Y-94081195D02*
X160029988Y-94081195D01*
X160029988Y-94081195D02*
X159843431Y-94034555D01*
X159843431Y-94034555D02*
X159750152Y-93987916D01*
X159750152Y-93987916D02*
X159703513Y-93941277D01*
X159703513Y-93941277D02*
X159656874Y-93847998D01*
X160636298Y-93101770D02*
X159656874Y-93101770D01*
X160636298Y-92542099D02*
X160076627Y-92961853D01*
X159656874Y-92542099D02*
X160216545Y-93101770D01*
X151111298Y-114647309D02*
X151111298Y-115206980D01*
X151111298Y-114927144D02*
X150131874Y-114927144D01*
X150131874Y-114927144D02*
X150271791Y-115020423D01*
X150271791Y-115020423D02*
X150365070Y-115113701D01*
X150365070Y-115113701D02*
X150411709Y-115206980D01*
X150458348Y-113807802D02*
X151111298Y-113807802D01*
X150458348Y-114227555D02*
X150971380Y-114227555D01*
X150971380Y-114227555D02*
X151064659Y-114180916D01*
X151064659Y-114180916D02*
X151111298Y-114087638D01*
X151111298Y-114087638D02*
X151111298Y-113947720D01*
X151111298Y-113947720D02*
X151064659Y-113854441D01*
X151064659Y-113854441D02*
X151018019Y-113807802D01*
X150598266Y-113014935D02*
X150598266Y-113341409D01*
X151111298Y-113341409D02*
X150131874Y-113341409D01*
X150131874Y-113341409D02*
X150131874Y-112875017D01*
X160896486Y-93920374D02*
X161502796Y-93920374D01*
X161502796Y-93920374D02*
X161176322Y-94293488D01*
X161176322Y-94293488D02*
X161316239Y-94293488D01*
X161316239Y-94293488D02*
X161409518Y-94340127D01*
X161409518Y-94340127D02*
X161456157Y-94386766D01*
X161456157Y-94386766D02*
X161502796Y-94480045D01*
X161502796Y-94480045D02*
X161502796Y-94713241D01*
X161502796Y-94713241D02*
X161456157Y-94806519D01*
X161456157Y-94806519D02*
X161409518Y-94853159D01*
X161409518Y-94853159D02*
X161316239Y-94899798D01*
X161316239Y-94899798D02*
X161036404Y-94899798D01*
X161036404Y-94899798D02*
X160943125Y-94853159D01*
X160943125Y-94853159D02*
X160896486Y-94806519D01*
X161922550Y-94806519D02*
X161969189Y-94853159D01*
X161969189Y-94853159D02*
X161922550Y-94899798D01*
X161922550Y-94899798D02*
X161875910Y-94853159D01*
X161875910Y-94853159D02*
X161922550Y-94806519D01*
X161922550Y-94806519D02*
X161922550Y-94899798D01*
X162808695Y-93920374D02*
X162622138Y-93920374D01*
X162622138Y-93920374D02*
X162528859Y-93967013D01*
X162528859Y-93967013D02*
X162482220Y-94013652D01*
X162482220Y-94013652D02*
X162388942Y-94153570D01*
X162388942Y-94153570D02*
X162342302Y-94340127D01*
X162342302Y-94340127D02*
X162342302Y-94713241D01*
X162342302Y-94713241D02*
X162388942Y-94806519D01*
X162388942Y-94806519D02*
X162435581Y-94853159D01*
X162435581Y-94853159D02*
X162528859Y-94899798D01*
X162528859Y-94899798D02*
X162715416Y-94899798D01*
X162715416Y-94899798D02*
X162808695Y-94853159D01*
X162808695Y-94853159D02*
X162855334Y-94806519D01*
X162855334Y-94806519D02*
X162901973Y-94713241D01*
X162901973Y-94713241D02*
X162901973Y-94480045D01*
X162901973Y-94480045D02*
X162855334Y-94386766D01*
X162855334Y-94386766D02*
X162808695Y-94340127D01*
X162808695Y-94340127D02*
X162715416Y-94293488D01*
X162715416Y-94293488D02*
X162528859Y-94293488D01*
X162528859Y-94293488D02*
X162435581Y-94340127D01*
X162435581Y-94340127D02*
X162388942Y-94386766D01*
X162388942Y-94386766D02*
X162342302Y-94480045D01*
X163181809Y-93920374D02*
X163508284Y-94899798D01*
X163508284Y-94899798D02*
X163834758Y-93920374D01*
X147936298Y-115028309D02*
X147936298Y-115587980D01*
X147936298Y-115308144D02*
X146956874Y-115308144D01*
X146956874Y-115308144D02*
X147096791Y-115401423D01*
X147096791Y-115401423D02*
X147190070Y-115494701D01*
X147190070Y-115494701D02*
X147236709Y-115587980D01*
X146956874Y-114421998D02*
X146956874Y-114328720D01*
X146956874Y-114328720D02*
X147003513Y-114235441D01*
X147003513Y-114235441D02*
X147050152Y-114188802D01*
X147050152Y-114188802D02*
X147143431Y-114142163D01*
X147143431Y-114142163D02*
X147329988Y-114095524D01*
X147329988Y-114095524D02*
X147563184Y-114095524D01*
X147563184Y-114095524D02*
X147749741Y-114142163D01*
X147749741Y-114142163D02*
X147843019Y-114188802D01*
X147843019Y-114188802D02*
X147889659Y-114235441D01*
X147889659Y-114235441D02*
X147936298Y-114328720D01*
X147936298Y-114328720D02*
X147936298Y-114421998D01*
X147936298Y-114421998D02*
X147889659Y-114515277D01*
X147889659Y-114515277D02*
X147843019Y-114561916D01*
X147843019Y-114561916D02*
X147749741Y-114608555D01*
X147749741Y-114608555D02*
X147563184Y-114655195D01*
X147563184Y-114655195D02*
X147329988Y-114655195D01*
X147329988Y-114655195D02*
X147143431Y-114608555D01*
X147143431Y-114608555D02*
X147050152Y-114561916D01*
X147050152Y-114561916D02*
X147003513Y-114515277D01*
X147003513Y-114515277D02*
X146956874Y-114421998D01*
X146956874Y-113489213D02*
X146956874Y-113395935D01*
X146956874Y-113395935D02*
X147003513Y-113302656D01*
X147003513Y-113302656D02*
X147050152Y-113256017D01*
X147050152Y-113256017D02*
X147143431Y-113209378D01*
X147143431Y-113209378D02*
X147329988Y-113162739D01*
X147329988Y-113162739D02*
X147563184Y-113162739D01*
X147563184Y-113162739D02*
X147749741Y-113209378D01*
X147749741Y-113209378D02*
X147843019Y-113256017D01*
X147843019Y-113256017D02*
X147889659Y-113302656D01*
X147889659Y-113302656D02*
X147936298Y-113395935D01*
X147936298Y-113395935D02*
X147936298Y-113489213D01*
X147936298Y-113489213D02*
X147889659Y-113582492D01*
X147889659Y-113582492D02*
X147843019Y-113629131D01*
X147843019Y-113629131D02*
X147749741Y-113675770D01*
X147749741Y-113675770D02*
X147563184Y-113722410D01*
X147563184Y-113722410D02*
X147329988Y-113722410D01*
X147329988Y-113722410D02*
X147143431Y-113675770D01*
X147143431Y-113675770D02*
X147050152Y-113629131D01*
X147050152Y-113629131D02*
X147003513Y-113582492D01*
X147003513Y-113582492D02*
X146956874Y-113489213D01*
X130462874Y-107181005D02*
X131162462Y-107181005D01*
X131162462Y-107181005D02*
X131302380Y-107227644D01*
X131302380Y-107227644D02*
X131395659Y-107320923D01*
X131395659Y-107320923D02*
X131442298Y-107460840D01*
X131442298Y-107460840D02*
X131442298Y-107554119D01*
X131395659Y-106761252D02*
X131442298Y-106621334D01*
X131442298Y-106621334D02*
X131442298Y-106388138D01*
X131442298Y-106388138D02*
X131395659Y-106294859D01*
X131395659Y-106294859D02*
X131349019Y-106248220D01*
X131349019Y-106248220D02*
X131255741Y-106201581D01*
X131255741Y-106201581D02*
X131162462Y-106201581D01*
X131162462Y-106201581D02*
X131069184Y-106248220D01*
X131069184Y-106248220D02*
X131022545Y-106294859D01*
X131022545Y-106294859D02*
X130975905Y-106388138D01*
X130975905Y-106388138D02*
X130929266Y-106574695D01*
X130929266Y-106574695D02*
X130882627Y-106667973D01*
X130882627Y-106667973D02*
X130835988Y-106714612D01*
X130835988Y-106714612D02*
X130742709Y-106761252D01*
X130742709Y-106761252D02*
X130649431Y-106761252D01*
X130649431Y-106761252D02*
X130556152Y-106714612D01*
X130556152Y-106714612D02*
X130509513Y-106667973D01*
X130509513Y-106667973D02*
X130462874Y-106574695D01*
X130462874Y-106574695D02*
X130462874Y-106341498D01*
X130462874Y-106341498D02*
X130509513Y-106201581D01*
X130462874Y-105921745D02*
X130462874Y-105362074D01*
X131442298Y-105641910D02*
X130462874Y-105641910D01*
X131442298Y-104289371D02*
X130462874Y-104289371D01*
X130462874Y-104289371D02*
X130462874Y-103916257D01*
X130462874Y-103916257D02*
X130509513Y-103822979D01*
X130509513Y-103822979D02*
X130556152Y-103776340D01*
X130556152Y-103776340D02*
X130649431Y-103729700D01*
X130649431Y-103729700D02*
X130789348Y-103729700D01*
X130789348Y-103729700D02*
X130882627Y-103776340D01*
X130882627Y-103776340D02*
X130929266Y-103822979D01*
X130929266Y-103822979D02*
X130975905Y-103916257D01*
X130975905Y-103916257D02*
X130975905Y-104289371D01*
X131442298Y-103309947D02*
X130462874Y-103309947D01*
X130929266Y-103309947D02*
X130929266Y-102750276D01*
X131442298Y-102750276D02*
X130462874Y-102750276D01*
X130462874Y-101630935D02*
X130462874Y-101024625D01*
X130462874Y-101024625D02*
X130835988Y-101351099D01*
X130835988Y-101351099D02*
X130835988Y-101211182D01*
X130835988Y-101211182D02*
X130882627Y-101117903D01*
X130882627Y-101117903D02*
X130929266Y-101071264D01*
X130929266Y-101071264D02*
X131022545Y-101024625D01*
X131022545Y-101024625D02*
X131255741Y-101024625D01*
X131255741Y-101024625D02*
X131349019Y-101071264D01*
X131349019Y-101071264D02*
X131395659Y-101117903D01*
X131395659Y-101117903D02*
X131442298Y-101211182D01*
X131442298Y-101211182D02*
X131442298Y-101491017D01*
X131442298Y-101491017D02*
X131395659Y-101584296D01*
X131395659Y-101584296D02*
X131349019Y-101630935D01*
X165400390Y-99358798D02*
X164840719Y-99358798D01*
X165120555Y-99358798D02*
X165120555Y-98379374D01*
X165120555Y-98379374D02*
X165027276Y-98519291D01*
X165027276Y-98519291D02*
X164933998Y-98612570D01*
X164933998Y-98612570D02*
X164840719Y-98659209D01*
X165820144Y-99358798D02*
X165820144Y-98379374D01*
X166379815Y-99358798D02*
X165960061Y-98799127D01*
X166379815Y-98379374D02*
X165820144Y-98939045D01*
X164212874Y-108148100D02*
X164912462Y-108148100D01*
X164912462Y-108148100D02*
X165052380Y-108194739D01*
X165052380Y-108194739D02*
X165145659Y-108288018D01*
X165145659Y-108288018D02*
X165192298Y-108427935D01*
X165192298Y-108427935D02*
X165192298Y-108521214D01*
X165145659Y-107728347D02*
X165192298Y-107588429D01*
X165192298Y-107588429D02*
X165192298Y-107355233D01*
X165192298Y-107355233D02*
X165145659Y-107261954D01*
X165145659Y-107261954D02*
X165099019Y-107215315D01*
X165099019Y-107215315D02*
X165005741Y-107168676D01*
X165005741Y-107168676D02*
X164912462Y-107168676D01*
X164912462Y-107168676D02*
X164819184Y-107215315D01*
X164819184Y-107215315D02*
X164772545Y-107261954D01*
X164772545Y-107261954D02*
X164725905Y-107355233D01*
X164725905Y-107355233D02*
X164679266Y-107541790D01*
X164679266Y-107541790D02*
X164632627Y-107635068D01*
X164632627Y-107635068D02*
X164585988Y-107681707D01*
X164585988Y-107681707D02*
X164492709Y-107728347D01*
X164492709Y-107728347D02*
X164399431Y-107728347D01*
X164399431Y-107728347D02*
X164306152Y-107681707D01*
X164306152Y-107681707D02*
X164259513Y-107635068D01*
X164259513Y-107635068D02*
X164212874Y-107541790D01*
X164212874Y-107541790D02*
X164212874Y-107308593D01*
X164212874Y-107308593D02*
X164259513Y-107168676D01*
X164212874Y-106888840D02*
X164212874Y-106329169D01*
X165192298Y-106609005D02*
X164212874Y-106609005D01*
X165192298Y-105256466D02*
X164212874Y-105256466D01*
X164212874Y-105256466D02*
X164212874Y-104883352D01*
X164212874Y-104883352D02*
X164259513Y-104790074D01*
X164259513Y-104790074D02*
X164306152Y-104743435D01*
X164306152Y-104743435D02*
X164399431Y-104696795D01*
X164399431Y-104696795D02*
X164539348Y-104696795D01*
X164539348Y-104696795D02*
X164632627Y-104743435D01*
X164632627Y-104743435D02*
X164679266Y-104790074D01*
X164679266Y-104790074D02*
X164725905Y-104883352D01*
X164725905Y-104883352D02*
X164725905Y-105256466D01*
X165192298Y-104277042D02*
X164212874Y-104277042D01*
X164679266Y-104277042D02*
X164679266Y-103717371D01*
X165192298Y-103717371D02*
X164212874Y-103717371D01*
X164212874Y-102598030D02*
X164212874Y-101991720D01*
X164212874Y-101991720D02*
X164585988Y-102318194D01*
X164585988Y-102318194D02*
X164585988Y-102178277D01*
X164585988Y-102178277D02*
X164632627Y-102084998D01*
X164632627Y-102084998D02*
X164679266Y-102038359D01*
X164679266Y-102038359D02*
X164772545Y-101991720D01*
X164772545Y-101991720D02*
X165005741Y-101991720D01*
X165005741Y-101991720D02*
X165099019Y-102038359D01*
X165099019Y-102038359D02*
X165145659Y-102084998D01*
X165145659Y-102084998D02*
X165192298Y-102178277D01*
X165192298Y-102178277D02*
X165192298Y-102458112D01*
X165192298Y-102458112D02*
X165145659Y-102551391D01*
X165145659Y-102551391D02*
X165099019Y-102598030D01*
X150865313Y-124222785D02*
X150653985Y-124222785D01*
X150759649Y-124222785D02*
X150759649Y-123852961D01*
X150759649Y-123852961D02*
X150724428Y-123905793D01*
X150724428Y-123905793D02*
X150689207Y-123941015D01*
X150689207Y-123941015D02*
X150653985Y-123958625D01*
X151094252Y-123852961D02*
X151129473Y-123852961D01*
X151129473Y-123852961D02*
X151164694Y-123870572D01*
X151164694Y-123870572D02*
X151182305Y-123888183D01*
X151182305Y-123888183D02*
X151199916Y-123923404D01*
X151199916Y-123923404D02*
X151217526Y-123993847D01*
X151217526Y-123993847D02*
X151217526Y-124081900D01*
X151217526Y-124081900D02*
X151199916Y-124152343D01*
X151199916Y-124152343D02*
X151182305Y-124187564D01*
X151182305Y-124187564D02*
X151164694Y-124205175D01*
X151164694Y-124205175D02*
X151129473Y-124222785D01*
X151129473Y-124222785D02*
X151094252Y-124222785D01*
X151094252Y-124222785D02*
X151059030Y-124205175D01*
X151059030Y-124205175D02*
X151041420Y-124187564D01*
X151041420Y-124187564D02*
X151023809Y-124152343D01*
X151023809Y-124152343D02*
X151006198Y-124081900D01*
X151006198Y-124081900D02*
X151006198Y-123993847D01*
X151006198Y-123993847D02*
X151023809Y-123923404D01*
X151023809Y-123923404D02*
X151041420Y-123888183D01*
X151041420Y-123888183D02*
X151059030Y-123870572D01*
X151059030Y-123870572D02*
X151094252Y-123852961D01*
X151376022Y-124222785D02*
X151376022Y-123852961D01*
X151587350Y-124222785D02*
X151428854Y-124011457D01*
X151587350Y-123852961D02*
X151376022Y-124064289D01*
X151974785Y-123976236D02*
X152115670Y-123976236D01*
X152027617Y-123852961D02*
X152027617Y-124169953D01*
X152027617Y-124169953D02*
X152045228Y-124205175D01*
X152045228Y-124205175D02*
X152080449Y-124222785D01*
X152080449Y-124222785D02*
X152115670Y-124222785D01*
X152238945Y-124222785D02*
X152238945Y-123976236D01*
X152238945Y-124046679D02*
X152256556Y-124011457D01*
X152256556Y-124011457D02*
X152274166Y-123993847D01*
X152274166Y-123993847D02*
X152309388Y-123976236D01*
X152309388Y-123976236D02*
X152344609Y-123976236D01*
X152467884Y-124222785D02*
X152467884Y-123976236D01*
X152467884Y-123852961D02*
X152450273Y-123870572D01*
X152450273Y-123870572D02*
X152467884Y-123888183D01*
X152467884Y-123888183D02*
X152485495Y-123870572D01*
X152485495Y-123870572D02*
X152467884Y-123852961D01*
X152467884Y-123852961D02*
X152467884Y-123888183D01*
X152643991Y-124222785D02*
X152643991Y-123976236D01*
X152643991Y-124011457D02*
X152661602Y-123993847D01*
X152661602Y-123993847D02*
X152696823Y-123976236D01*
X152696823Y-123976236D02*
X152749655Y-123976236D01*
X152749655Y-123976236D02*
X152784876Y-123993847D01*
X152784876Y-123993847D02*
X152802487Y-124029068D01*
X152802487Y-124029068D02*
X152802487Y-124222785D01*
X152802487Y-124029068D02*
X152820098Y-123993847D01*
X152820098Y-123993847D02*
X152855319Y-123976236D01*
X152855319Y-123976236D02*
X152908151Y-123976236D01*
X152908151Y-123976236D02*
X152943372Y-123993847D01*
X152943372Y-123993847D02*
X152960983Y-124029068D01*
X152960983Y-124029068D02*
X152960983Y-124222785D01*
D11*
X150643313Y-91826939D02*
X151082612Y-91826939D01*
X150555453Y-92090518D02*
X150862963Y-91167990D01*
X150862963Y-91167990D02*
X151170472Y-92090518D01*
X151477981Y-92090518D02*
X151477981Y-91167990D01*
X151477981Y-91167990D02*
X151829420Y-91167990D01*
X151829420Y-91167990D02*
X151917280Y-91211920D01*
X151917280Y-91211920D02*
X151961210Y-91255850D01*
X151961210Y-91255850D02*
X152005140Y-91343710D01*
X152005140Y-91343710D02*
X152005140Y-91475500D01*
X152005140Y-91475500D02*
X151961210Y-91563360D01*
X151961210Y-91563360D02*
X151917280Y-91607289D01*
X151917280Y-91607289D02*
X151829420Y-91651219D01*
X151829420Y-91651219D02*
X151477981Y-91651219D01*
X152312649Y-91167990D02*
X152927668Y-92090518D01*
X152927668Y-91167990D02*
X152312649Y-92090518D01*
X153410897Y-91563360D02*
X153323037Y-91519430D01*
X153323037Y-91519430D02*
X153279107Y-91475500D01*
X153279107Y-91475500D02*
X153235177Y-91387640D01*
X153235177Y-91387640D02*
X153235177Y-91343710D01*
X153235177Y-91343710D02*
X153279107Y-91255850D01*
X153279107Y-91255850D02*
X153323037Y-91211920D01*
X153323037Y-91211920D02*
X153410897Y-91167990D01*
X153410897Y-91167990D02*
X153586616Y-91167990D01*
X153586616Y-91167990D02*
X153674476Y-91211920D01*
X153674476Y-91211920D02*
X153718406Y-91255850D01*
X153718406Y-91255850D02*
X153762336Y-91343710D01*
X153762336Y-91343710D02*
X153762336Y-91387640D01*
X153762336Y-91387640D02*
X153718406Y-91475500D01*
X153718406Y-91475500D02*
X153674476Y-91519430D01*
X153674476Y-91519430D02*
X153586616Y-91563360D01*
X153586616Y-91563360D02*
X153410897Y-91563360D01*
X153410897Y-91563360D02*
X153323037Y-91607289D01*
X153323037Y-91607289D02*
X153279107Y-91651219D01*
X153279107Y-91651219D02*
X153235177Y-91739079D01*
X153235177Y-91739079D02*
X153235177Y-91914799D01*
X153235177Y-91914799D02*
X153279107Y-92002659D01*
X153279107Y-92002659D02*
X153323037Y-92046589D01*
X153323037Y-92046589D02*
X153410897Y-92090518D01*
X153410897Y-92090518D02*
X153586616Y-92090518D01*
X153586616Y-92090518D02*
X153674476Y-92046589D01*
X153674476Y-92046589D02*
X153718406Y-92002659D01*
X153718406Y-92002659D02*
X153762336Y-91914799D01*
X153762336Y-91914799D02*
X153762336Y-91739079D01*
X153762336Y-91739079D02*
X153718406Y-91651219D01*
X153718406Y-91651219D02*
X153674476Y-91607289D01*
X153674476Y-91607289D02*
X153586616Y-91563360D01*
X154333425Y-91167990D02*
X154421284Y-91167990D01*
X154421284Y-91167990D02*
X154509144Y-91211920D01*
X154509144Y-91211920D02*
X154553074Y-91255850D01*
X154553074Y-91255850D02*
X154597004Y-91343710D01*
X154597004Y-91343710D02*
X154640934Y-91519430D01*
X154640934Y-91519430D02*
X154640934Y-91739079D01*
X154640934Y-91739079D02*
X154597004Y-91914799D01*
X154597004Y-91914799D02*
X154553074Y-92002659D01*
X154553074Y-92002659D02*
X154509144Y-92046589D01*
X154509144Y-92046589D02*
X154421284Y-92090518D01*
X154421284Y-92090518D02*
X154333425Y-92090518D01*
X154333425Y-92090518D02*
X154245565Y-92046589D01*
X154245565Y-92046589D02*
X154201635Y-92002659D01*
X154201635Y-92002659D02*
X154157705Y-91914799D01*
X154157705Y-91914799D02*
X154113775Y-91739079D01*
X154113775Y-91739079D02*
X154113775Y-91519430D01*
X154113775Y-91519430D02*
X154157705Y-91343710D01*
X154157705Y-91343710D02*
X154201635Y-91255850D01*
X154201635Y-91255850D02*
X154245565Y-91211920D01*
X154245565Y-91211920D02*
X154333425Y-91167990D01*
X154948443Y-91167990D02*
X155519532Y-91167990D01*
X155519532Y-91167990D02*
X155212023Y-91519430D01*
X155212023Y-91519430D02*
X155343812Y-91519430D01*
X155343812Y-91519430D02*
X155431672Y-91563360D01*
X155431672Y-91563360D02*
X155475602Y-91607289D01*
X155475602Y-91607289D02*
X155519532Y-91695149D01*
X155519532Y-91695149D02*
X155519532Y-91914799D01*
X155519532Y-91914799D02*
X155475602Y-92002659D01*
X155475602Y-92002659D02*
X155431672Y-92046589D01*
X155431672Y-92046589D02*
X155343812Y-92090518D01*
X155343812Y-92090518D02*
X155080233Y-92090518D01*
X155080233Y-92090518D02*
X154992373Y-92046589D01*
X154992373Y-92046589D02*
X154948443Y-92002659D01*
X155914901Y-91739079D02*
X156617780Y-91739079D01*
X157013149Y-92046589D02*
X157144939Y-92090518D01*
X157144939Y-92090518D02*
X157364588Y-92090518D01*
X157364588Y-92090518D02*
X157452448Y-92046589D01*
X157452448Y-92046589D02*
X157496378Y-92002659D01*
X157496378Y-92002659D02*
X157540308Y-91914799D01*
X157540308Y-91914799D02*
X157540308Y-91826939D01*
X157540308Y-91826939D02*
X157496378Y-91739079D01*
X157496378Y-91739079D02*
X157452448Y-91695149D01*
X157452448Y-91695149D02*
X157364588Y-91651219D01*
X157364588Y-91651219D02*
X157188869Y-91607289D01*
X157188869Y-91607289D02*
X157101009Y-91563360D01*
X157101009Y-91563360D02*
X157057079Y-91519430D01*
X157057079Y-91519430D02*
X157013149Y-91431570D01*
X157013149Y-91431570D02*
X157013149Y-91343710D01*
X157013149Y-91343710D02*
X157057079Y-91255850D01*
X157057079Y-91255850D02*
X157101009Y-91211920D01*
X157101009Y-91211920D02*
X157188869Y-91167990D01*
X157188869Y-91167990D02*
X157408518Y-91167990D01*
X157408518Y-91167990D02*
X157540308Y-91211920D01*
X157891747Y-91826939D02*
X158331046Y-91826939D01*
X157803887Y-92090518D02*
X158111397Y-91167990D01*
X158111397Y-91167990D02*
X158418906Y-92090518D01*
X159209644Y-91211920D02*
X159121784Y-91167990D01*
X159121784Y-91167990D02*
X158989994Y-91167990D01*
X158989994Y-91167990D02*
X158858205Y-91211920D01*
X158858205Y-91211920D02*
X158770345Y-91299780D01*
X158770345Y-91299780D02*
X158726415Y-91387640D01*
X158726415Y-91387640D02*
X158682485Y-91563360D01*
X158682485Y-91563360D02*
X158682485Y-91695149D01*
X158682485Y-91695149D02*
X158726415Y-91870869D01*
X158726415Y-91870869D02*
X158770345Y-91958729D01*
X158770345Y-91958729D02*
X158858205Y-92046589D01*
X158858205Y-92046589D02*
X158989994Y-92090518D01*
X158989994Y-92090518D02*
X159077854Y-92090518D01*
X159077854Y-92090518D02*
X159209644Y-92046589D01*
X159209644Y-92046589D02*
X159253574Y-92002659D01*
X159253574Y-92002659D02*
X159253574Y-91695149D01*
X159253574Y-91695149D02*
X159077854Y-91695149D01*
D12*
X144785995Y-132556511D02*
X144741968Y-132600538D01*
X144741968Y-132600538D02*
X144609888Y-132644564D01*
X144609888Y-132644564D02*
X144521835Y-132644564D01*
X144521835Y-132644564D02*
X144389755Y-132600538D01*
X144389755Y-132600538D02*
X144301702Y-132512484D01*
X144301702Y-132512484D02*
X144257675Y-132424431D01*
X144257675Y-132424431D02*
X144213648Y-132248324D01*
X144213648Y-132248324D02*
X144213648Y-132116244D01*
X144213648Y-132116244D02*
X144257675Y-131940138D01*
X144257675Y-131940138D02*
X144301702Y-131852084D01*
X144301702Y-131852084D02*
X144389755Y-131764031D01*
X144389755Y-131764031D02*
X144521835Y-131720004D01*
X144521835Y-131720004D02*
X144609888Y-131720004D01*
X144609888Y-131720004D02*
X144741968Y-131764031D01*
X144741968Y-131764031D02*
X144785995Y-131808058D01*
X145358342Y-131720004D02*
X145534448Y-131720004D01*
X145534448Y-131720004D02*
X145622502Y-131764031D01*
X145622502Y-131764031D02*
X145710555Y-131852084D01*
X145710555Y-131852084D02*
X145754582Y-132028191D01*
X145754582Y-132028191D02*
X145754582Y-132336378D01*
X145754582Y-132336378D02*
X145710555Y-132512484D01*
X145710555Y-132512484D02*
X145622502Y-132600538D01*
X145622502Y-132600538D02*
X145534448Y-132644564D01*
X145534448Y-132644564D02*
X145358342Y-132644564D01*
X145358342Y-132644564D02*
X145270288Y-132600538D01*
X145270288Y-132600538D02*
X145182235Y-132512484D01*
X145182235Y-132512484D02*
X145138208Y-132336378D01*
X145138208Y-132336378D02*
X145138208Y-132028191D01*
X145138208Y-132028191D02*
X145182235Y-131852084D01*
X145182235Y-131852084D02*
X145270288Y-131764031D01*
X145270288Y-131764031D02*
X145358342Y-131720004D01*
X146150822Y-132644564D02*
X146150822Y-131720004D01*
X146150822Y-131720004D02*
X146679142Y-132644564D01*
X146679142Y-132644564D02*
X146679142Y-131720004D01*
X146899276Y-132732618D02*
X147603702Y-132732618D01*
X147823836Y-132644564D02*
X147823836Y-131720004D01*
X147823836Y-131720004D02*
X148132023Y-132380404D01*
X148132023Y-132380404D02*
X148440209Y-131720004D01*
X148440209Y-131720004D02*
X148440209Y-132644564D01*
X149056583Y-131720004D02*
X149232689Y-131720004D01*
X149232689Y-131720004D02*
X149320743Y-131764031D01*
X149320743Y-131764031D02*
X149408796Y-131852084D01*
X149408796Y-131852084D02*
X149452823Y-132028191D01*
X149452823Y-132028191D02*
X149452823Y-132336378D01*
X149452823Y-132336378D02*
X149408796Y-132512484D01*
X149408796Y-132512484D02*
X149320743Y-132600538D01*
X149320743Y-132600538D02*
X149232689Y-132644564D01*
X149232689Y-132644564D02*
X149056583Y-132644564D01*
X149056583Y-132644564D02*
X148968529Y-132600538D01*
X148968529Y-132600538D02*
X148880476Y-132512484D01*
X148880476Y-132512484D02*
X148836449Y-132336378D01*
X148836449Y-132336378D02*
X148836449Y-132028191D01*
X148836449Y-132028191D02*
X148880476Y-131852084D01*
X148880476Y-131852084D02*
X148968529Y-131764031D01*
X148968529Y-131764031D02*
X149056583Y-131720004D01*
X150289330Y-132644564D02*
X149849063Y-132644564D01*
X149849063Y-132644564D02*
X149849063Y-131720004D01*
X150597516Y-132160271D02*
X150905703Y-132160271D01*
X151037783Y-132644564D02*
X150597516Y-132644564D01*
X150597516Y-132644564D02*
X150597516Y-131720004D01*
X150597516Y-131720004D02*
X151037783Y-131720004D01*
X151345970Y-131720004D02*
X151962343Y-132644564D01*
X151962343Y-131720004D02*
X151345970Y-132644564D01*
X152094423Y-132732618D02*
X152798849Y-132732618D01*
X152974956Y-131808058D02*
X153018983Y-131764031D01*
X153018983Y-131764031D02*
X153107036Y-131720004D01*
X153107036Y-131720004D02*
X153327170Y-131720004D01*
X153327170Y-131720004D02*
X153415223Y-131764031D01*
X153415223Y-131764031D02*
X153459250Y-131808058D01*
X153459250Y-131808058D02*
X153503276Y-131896111D01*
X153503276Y-131896111D02*
X153503276Y-131984164D01*
X153503276Y-131984164D02*
X153459250Y-132116244D01*
X153459250Y-132116244D02*
X152930930Y-132644564D01*
X152930930Y-132644564D02*
X153503276Y-132644564D01*
X153899516Y-132644564D02*
X153899516Y-131720004D01*
X153899516Y-131720004D02*
X154251729Y-131720004D01*
X154251729Y-131720004D02*
X154339783Y-131764031D01*
X154339783Y-131764031D02*
X154383809Y-131808058D01*
X154383809Y-131808058D02*
X154427836Y-131896111D01*
X154427836Y-131896111D02*
X154427836Y-132028191D01*
X154427836Y-132028191D02*
X154383809Y-132116244D01*
X154383809Y-132116244D02*
X154339783Y-132160271D01*
X154339783Y-132160271D02*
X154251729Y-132204298D01*
X154251729Y-132204298D02*
X153899516Y-132204298D01*
D13*
X146353931Y-128765494D02*
X145945208Y-128765494D01*
X146149569Y-128765494D02*
X146149569Y-128050230D01*
X146149569Y-128050230D02*
X146081449Y-128152410D01*
X146081449Y-128152410D02*
X146013329Y-128220531D01*
X146013329Y-128220531D02*
X145945208Y-128254591D01*
D10*
X154413298Y-122521309D02*
X154413298Y-123080980D01*
X154413298Y-122801144D02*
X153433874Y-122801144D01*
X153433874Y-122801144D02*
X153573791Y-122894423D01*
X153573791Y-122894423D02*
X153667070Y-122987701D01*
X153667070Y-122987701D02*
X153713709Y-123080980D01*
X153433874Y-121914998D02*
X153433874Y-121821720D01*
X153433874Y-121821720D02*
X153480513Y-121728441D01*
X153480513Y-121728441D02*
X153527152Y-121681802D01*
X153527152Y-121681802D02*
X153620431Y-121635163D01*
X153620431Y-121635163D02*
X153806988Y-121588524D01*
X153806988Y-121588524D02*
X154040184Y-121588524D01*
X154040184Y-121588524D02*
X154226741Y-121635163D01*
X154226741Y-121635163D02*
X154320019Y-121681802D01*
X154320019Y-121681802D02*
X154366659Y-121728441D01*
X154366659Y-121728441D02*
X154413298Y-121821720D01*
X154413298Y-121821720D02*
X154413298Y-121914998D01*
X154413298Y-121914998D02*
X154366659Y-122008277D01*
X154366659Y-122008277D02*
X154320019Y-122054916D01*
X154320019Y-122054916D02*
X154226741Y-122101555D01*
X154226741Y-122101555D02*
X154040184Y-122148195D01*
X154040184Y-122148195D02*
X153806988Y-122148195D01*
X153806988Y-122148195D02*
X153620431Y-122101555D01*
X153620431Y-122101555D02*
X153527152Y-122054916D01*
X153527152Y-122054916D02*
X153480513Y-122008277D01*
X153480513Y-122008277D02*
X153433874Y-121914998D01*
X153760348Y-120749017D02*
X154413298Y-120749017D01*
X153760348Y-121168770D02*
X154273380Y-121168770D01*
X154273380Y-121168770D02*
X154366659Y-121122131D01*
X154366659Y-121122131D02*
X154413298Y-121028853D01*
X154413298Y-121028853D02*
X154413298Y-120888935D01*
X154413298Y-120888935D02*
X154366659Y-120795656D01*
X154366659Y-120795656D02*
X154320019Y-120749017D01*
X153900266Y-119956150D02*
X153900266Y-120282624D01*
X154413298Y-120282624D02*
X153433874Y-120282624D01*
X153433874Y-120282624D02*
X153433874Y-119816232D01*
D14*
%TO.C,C9*%
X146012100Y-116712600D02*
X146012100Y-117424600D01*
X145161100Y-116712600D02*
X145161100Y-117424600D01*
G36*
X146060200Y-116730500D02*
G01*
X145110200Y-116730500D01*
X145110200Y-116230400D01*
X146060200Y-116230400D01*
X146060200Y-116730500D01*
G37*
G36*
X146060200Y-117898900D02*
G01*
X145110200Y-117898900D01*
X145110200Y-117398800D01*
X146060200Y-117398800D01*
X146060200Y-117898900D01*
G37*
%TO.C,C2*%
X145301100Y-93827600D02*
X145301100Y-93065600D01*
X146621100Y-93802600D02*
X146621100Y-93065600D01*
G36*
X146685000Y-94538800D02*
G01*
X145234900Y-94538800D01*
X145234900Y-93788700D01*
X146685000Y-93788700D01*
X146685000Y-94538800D01*
G37*
G36*
X146685000Y-93091000D02*
G01*
X145234900Y-93091000D01*
X145234900Y-92340900D01*
X146685000Y-92340900D01*
X146685000Y-93091000D01*
G37*
%TO.C,R1*%
X142303100Y-95808600D02*
X143015100Y-95808600D01*
X142303100Y-96659600D02*
X143015100Y-96659600D01*
G36*
X142321000Y-96710500D02*
G01*
X141820900Y-96710500D01*
X141820900Y-95760500D01*
X142321000Y-95760500D01*
X142321000Y-96710500D01*
G37*
G36*
X143489400Y-96710500D02*
G01*
X142989300Y-96710500D01*
X142989300Y-95760500D01*
X143489400Y-95760500D01*
X143489400Y-96710500D01*
G37*
D15*
%TO.C,D2*%
X134928100Y-116498600D02*
X134928100Y-115098600D01*
X136928100Y-115098600D02*
X136928100Y-116498600D01*
D14*
%TO.C,R13*%
X149060100Y-116712600D02*
X149060100Y-117424600D01*
X148209100Y-116712600D02*
X148209100Y-117424600D01*
G36*
X149108200Y-116730500D02*
G01*
X148158200Y-116730500D01*
X148158200Y-116230400D01*
X149108200Y-116230400D01*
X149108200Y-116730500D01*
G37*
G36*
X149108200Y-117898900D02*
G01*
X148158200Y-117898900D01*
X148158200Y-117398800D01*
X149108200Y-117398800D01*
X149108200Y-117898900D01*
G37*
D16*
%TO.C,U5*%
X150001100Y-123775600D02*
X150001100Y-120775600D01*
D15*
X150001100Y-120775600D02*
X147001100Y-120775600D01*
X147001100Y-123775600D02*
X150001100Y-123775600D01*
D16*
X147001100Y-120775600D02*
X147001100Y-123775600D01*
D14*
%TO.C,R3*%
X139128100Y-92506600D02*
X139840100Y-92506600D01*
X139128100Y-93357600D02*
X139840100Y-93357600D01*
G36*
X139146000Y-93408500D02*
G01*
X138645900Y-93408500D01*
X138645900Y-92458500D01*
X139146000Y-92458500D01*
X139146000Y-93408500D01*
G37*
G36*
X140314400Y-93408500D02*
G01*
X139814300Y-93408500D01*
X139814300Y-92458500D01*
X140314400Y-92458500D01*
X140314400Y-93408500D01*
G37*
%TO.C,R2*%
X134328100Y-111378600D02*
X134328100Y-112090600D01*
X133477100Y-111378600D02*
X133477100Y-112090600D01*
G36*
X134376200Y-111396500D02*
G01*
X133426200Y-111396500D01*
X133426200Y-110896400D01*
X134376200Y-110896400D01*
X134376200Y-111396500D01*
G37*
G36*
X134376200Y-112564900D02*
G01*
X133426200Y-112564900D01*
X133426200Y-112064800D01*
X134376200Y-112064800D01*
X134376200Y-112564900D01*
G37*
D15*
%TO.C,Q1*%
X140929500Y-96012000D02*
X137784700Y-96012000D01*
X140929500Y-94691200D02*
X140929500Y-96012000D01*
X137784700Y-96012000D02*
X137784700Y-94691200D01*
D17*
X137784700Y-94691200D02*
X140929500Y-94691200D01*
G36*
X140525500Y-94640400D02*
G01*
X140068300Y-94640400D01*
X140068300Y-94056200D01*
X140525500Y-94056200D01*
X140525500Y-94640400D01*
G37*
G36*
X139585700Y-96647000D02*
G01*
X139128500Y-96647000D01*
X139128500Y-96062800D01*
X139585700Y-96062800D01*
X139585700Y-96647000D01*
G37*
G36*
X138645900Y-94640400D02*
G01*
X138188700Y-94640400D01*
X138188700Y-94056200D01*
X138645900Y-94056200D01*
X138645900Y-94640400D01*
G37*
D14*
%TO.C,C1*%
X157518100Y-98501600D02*
X158280100Y-98501600D01*
X157543100Y-99821600D02*
X158280100Y-99821600D01*
G36*
X157557000Y-99885500D02*
G01*
X156806900Y-99885500D01*
X156806900Y-98435400D01*
X157557000Y-98435400D01*
X157557000Y-99885500D01*
G37*
G36*
X159004800Y-99885500D02*
G01*
X158254700Y-99885500D01*
X158254700Y-98435400D01*
X159004800Y-98435400D01*
X159004800Y-99885500D01*
G37*
%TO.C,R4*%
X157594100Y-94691600D02*
X157594100Y-93979600D01*
X158445100Y-94691600D02*
X158445100Y-93979600D01*
G36*
X158496000Y-95173800D02*
G01*
X157546000Y-95173800D01*
X157546000Y-94673700D01*
X158496000Y-94673700D01*
X158496000Y-95173800D01*
G37*
G36*
X158496000Y-94005400D02*
G01*
X157546000Y-94005400D01*
X157546000Y-93505300D01*
X158496000Y-93505300D01*
X158496000Y-94005400D01*
G37*
%TO.C,C13*%
X150584100Y-116712600D02*
X150584100Y-117424600D01*
X149733100Y-116712600D02*
X149733100Y-117424600D01*
G36*
X150632200Y-116730500D02*
G01*
X149682200Y-116730500D01*
X149682200Y-116230400D01*
X150632200Y-116230400D01*
X150632200Y-116730500D01*
G37*
G36*
X150632200Y-117898900D02*
G01*
X149682200Y-117898900D01*
X149682200Y-117398800D01*
X150632200Y-117398800D01*
X150632200Y-117898900D01*
G37*
D15*
%TO.C,D1*%
X163344100Y-96048600D02*
X163344100Y-97448600D01*
X161344100Y-97448600D02*
X161344100Y-96048600D01*
D14*
%TO.C,R12*%
X147536100Y-116712600D02*
X147536100Y-117424600D01*
X146685100Y-116712600D02*
X146685100Y-117424600D01*
G36*
X147584200Y-116730500D02*
G01*
X146634200Y-116730500D01*
X146634200Y-116230400D01*
X147584200Y-116230400D01*
X147584200Y-116730500D01*
G37*
G36*
X147584200Y-117898900D02*
G01*
X146634200Y-117898900D01*
X146634200Y-117398800D01*
X147584200Y-117398800D01*
X147584200Y-117898900D01*
G37*
D15*
%TO.C,LEFT0*%
X129261100Y-110003600D02*
X129261100Y-100003600D01*
X136761100Y-110003600D02*
X129261100Y-110003600D01*
X134261100Y-109203600D02*
X136761100Y-109203600D01*
X136761100Y-109203600D02*
X136761100Y-110003600D01*
X134261100Y-100803600D02*
X134261100Y-109203600D01*
X136761100Y-100803600D02*
X134261100Y-100803600D01*
X129261100Y-100003600D02*
X136761100Y-100003600D01*
X136761100Y-100003600D02*
X136761100Y-100803600D01*
D14*
%TO.C,R5*%
X162369100Y-98094600D02*
X163081100Y-98094600D01*
X162369100Y-98945600D02*
X163081100Y-98945600D01*
G36*
X162387000Y-98996500D02*
G01*
X161886900Y-98996500D01*
X161886900Y-98046500D01*
X162387000Y-98046500D01*
X162387000Y-98996500D01*
G37*
G36*
X163555400Y-98996500D02*
G01*
X163055300Y-98996500D01*
X163055300Y-98046500D01*
X163555400Y-98046500D01*
X163555400Y-98996500D01*
G37*
D15*
%TO.C,RIGHT0*%
X167741100Y-100003600D02*
X167741100Y-110003600D01*
X160241100Y-100003600D02*
X167741100Y-100003600D01*
X162741100Y-100803600D02*
X160241100Y-100803600D01*
X160241100Y-100803600D02*
X160241100Y-100003600D01*
X162741100Y-109203600D02*
X162741100Y-100803600D01*
X160241100Y-109203600D02*
X162741100Y-109203600D01*
X167741100Y-110003600D02*
X160241100Y-110003600D01*
X160241100Y-110003600D02*
X160241100Y-109203600D01*
%TO.C,VR2*%
X152412100Y-119380600D02*
X152412100Y-116280600D01*
D16*
X155512100Y-119380600D02*
X152412100Y-119380600D01*
D15*
X153762100Y-118980600D02*
X153762100Y-118230600D01*
X154112100Y-118980600D02*
X153762100Y-118980600D01*
X153762100Y-118230600D02*
X154062100Y-118230600D01*
X154112100Y-118180600D02*
X154112100Y-118980600D01*
X152812100Y-117980600D02*
X152812100Y-117630600D01*
X153562100Y-117980600D02*
X152812100Y-117980600D01*
X154312100Y-117980600D02*
X155112100Y-117980600D01*
X155112100Y-117980600D02*
X155112100Y-117630600D01*
X152812100Y-117630600D02*
X153562100Y-117630600D01*
X153562100Y-117630600D02*
X153562100Y-117980600D01*
X155112100Y-117630600D02*
X154312100Y-117630600D01*
X153762100Y-117430600D02*
X153762100Y-116680600D01*
X154112100Y-117430600D02*
X153762100Y-117430600D01*
X153762100Y-116680600D02*
X154112100Y-116680600D01*
X154112100Y-116680600D02*
X154112100Y-117430600D01*
D16*
X152412100Y-116280600D02*
X155512100Y-116280600D01*
X155512100Y-116280600D02*
X155512100Y-119380600D01*
D15*
X154352600Y-117830600D02*
G75*
G03*
X154352600Y-117830600I-390500J0D01*
G01*
X155204000Y-117830600D02*
G75*
G03*
X155204000Y-117830600I-1241900J0D01*
G01*
D17*
%TO.C,IC4*%
X153809700Y-93294200D02*
X156654500Y-93294200D01*
X153809700Y-94615000D02*
X153809700Y-93294200D01*
X156654500Y-93294200D02*
X156654500Y-94615000D01*
X156654500Y-94615000D02*
X153809700Y-94615000D01*
G36*
X154520900Y-95250000D02*
G01*
X154063700Y-95250000D01*
X154063700Y-94665800D01*
X154520900Y-94665800D01*
X154520900Y-95250000D01*
G37*
G36*
X155460700Y-93243400D02*
G01*
X155003500Y-93243400D01*
X155003500Y-92659200D01*
X155460700Y-92659200D01*
X155460700Y-93243400D01*
G37*
G36*
X156400500Y-95250000D02*
G01*
X155943300Y-95250000D01*
X155943300Y-94665800D01*
X156400500Y-94665800D01*
X156400500Y-95250000D01*
G37*
D18*
%TO.C,U$1*%
X152251100Y-130470600D02*
X152251100Y-127970600D01*
X152251100Y-127970600D02*
X151001100Y-127970600D01*
X151001100Y-127970600D02*
X151001100Y-127345600D01*
X151001100Y-127345600D02*
X151001100Y-126720600D01*
X151001100Y-126720600D02*
X146001100Y-126720600D01*
X150688600Y-130314400D02*
X148657400Y-130314400D01*
X150688600Y-129533100D02*
X150688600Y-130314400D01*
X150688600Y-127970600D02*
X151001100Y-127970600D01*
X150688600Y-127970600D02*
X150688500Y-128595600D01*
X150688500Y-128595600D02*
X150688600Y-129533100D01*
X150688500Y-128595600D02*
X150376200Y-128595600D01*
X150376200Y-130158100D02*
X150376200Y-129533100D01*
X150376200Y-130158100D02*
X150376100Y-130158100D01*
X150376200Y-129533100D02*
X150688600Y-129533100D01*
X150376200Y-128595600D02*
X150376200Y-127970600D01*
X150376200Y-127970600D02*
X150688600Y-127970600D01*
X150376100Y-130158100D02*
X150688600Y-130314400D01*
X150376100Y-130158100D02*
X148657400Y-130158100D01*
X150376100Y-127970600D02*
X150376200Y-127970600D01*
X150376100Y-127970600D02*
X150376100Y-127814400D01*
X150376100Y-127814400D02*
X150219900Y-127814400D01*
X150219900Y-127970600D02*
X150376100Y-127970600D01*
X150219900Y-127970600D02*
X150219900Y-127814400D01*
X150219900Y-127814400D02*
X150219900Y-127345600D01*
X150219900Y-127345600D02*
X151001100Y-127345600D01*
X148657400Y-130470600D02*
X152251100Y-130470600D01*
X148657400Y-130470600D02*
X148657400Y-130158100D01*
X148657400Y-130158100D02*
X148344900Y-130158100D01*
X148344900Y-130470600D02*
X148657400Y-130470600D01*
X148344900Y-130470600D02*
X148344900Y-130158100D01*
X148344900Y-130314400D02*
X147407300Y-130314400D01*
X148344900Y-130158100D02*
X147407300Y-130158100D01*
X147407300Y-130470600D02*
X148344900Y-130470600D01*
X147407300Y-130470600D02*
X147094800Y-130470600D01*
X147407300Y-130314400D02*
X147407300Y-130470600D01*
X147407300Y-130314400D02*
X147407300Y-130158100D01*
X147407300Y-130158100D02*
X147094800Y-130158100D01*
X147094800Y-130470600D02*
X147094800Y-130314400D01*
X147094800Y-130314400D02*
X147094800Y-130158100D01*
X147094800Y-130314400D02*
X146313600Y-130314400D01*
X147094800Y-130158100D02*
X146626100Y-130158100D01*
X146782300Y-127970600D02*
X146782300Y-127814400D01*
X146782300Y-127814400D02*
X146782300Y-127345600D01*
X146782300Y-127345600D02*
X146001100Y-127345600D01*
X146626100Y-130158100D02*
X146626000Y-130158100D01*
X146626100Y-130158100D02*
X146313600Y-130314400D01*
X146626100Y-127970600D02*
X146782300Y-127970600D01*
X146626100Y-127970600D02*
X146626100Y-127814400D01*
X146626100Y-127814400D02*
X146782300Y-127814400D01*
X146626000Y-130158100D02*
X146626000Y-129533200D01*
X146626000Y-129533100D02*
X146313500Y-129533100D01*
X146626000Y-128595600D02*
X146626000Y-127970600D01*
X146626000Y-127970600D02*
X146626100Y-127970600D01*
X146313600Y-130314400D02*
X146313500Y-130314400D01*
X146313600Y-128595600D02*
X146626000Y-128595600D01*
X146313600Y-128595600D02*
X146313600Y-127970600D01*
X146313600Y-127970600D02*
X146626000Y-127970600D01*
X146313600Y-127970600D02*
X146001100Y-127970600D01*
X146313500Y-130314400D02*
X146313500Y-129533100D01*
X146313500Y-129533100D02*
X146313600Y-128595600D01*
X146057300Y-130108100D02*
X144963500Y-130108100D01*
X146057300Y-128389300D02*
X146057300Y-130108100D01*
X146001100Y-127970600D02*
X144751100Y-127970600D01*
X146001100Y-127345600D02*
X146001100Y-127970600D01*
X146001100Y-126720600D02*
X146001100Y-127345600D01*
X144963500Y-130108100D02*
X144963500Y-128389300D01*
X144963500Y-128389300D02*
X146057300Y-128389300D01*
X144751100Y-130470600D02*
X147094800Y-130470600D01*
X144751100Y-127970600D02*
X144751100Y-130470600D01*
G36*
X149282400Y-129689400D02*
G01*
X148969900Y-129689400D01*
X148969900Y-128908100D01*
X149282400Y-128908100D01*
X149282400Y-129689400D01*
G37*
G36*
X148032300Y-129689400D02*
G01*
X147719800Y-129689400D01*
X147719800Y-128908100D01*
X148032300Y-128908100D01*
X148032300Y-129689400D01*
G37*
D14*
%TO.C,C15*%
X152336100Y-121767600D02*
X152336100Y-122529600D01*
X151016100Y-121792600D02*
X151016100Y-122529600D01*
G36*
X152402300Y-121806500D02*
G01*
X150952200Y-121806500D01*
X150952200Y-121056400D01*
X152402300Y-121056400D01*
X152402300Y-121806500D01*
G37*
G36*
X152402300Y-123254300D02*
G01*
X150952200Y-123254300D01*
X150952200Y-122504200D01*
X152402300Y-122504200D01*
X152402300Y-123254300D01*
G37*
D15*
%TO.C,TFT2*%
X156101100Y-99960600D02*
X156101100Y-104360600D01*
X141001100Y-104360600D02*
X156101100Y-104360600D01*
X141001100Y-99960600D02*
X156101100Y-99960600D01*
X141001100Y-99960600D02*
X141001100Y-104360600D01*
%TD*%
M02*
