%TF.GenerationSoftware,KiCad,Pcbnew,7.0.6-7.0.6~ubuntu22.04.1*%
%TF.CreationDate,2023-08-05T04:00:39+01:00*%
%TF.ProjectId,working,776f726b-696e-4672-9e6b-696361645f70,rev?*%
%TF.SameCoordinates,Original*%
%TF.FileFunction,Copper,L1,Top*%
%TF.FilePolarity,Positive*%
%FSLAX46Y46*%
G04 Gerber Fmt 4.6, Leading zero omitted, Abs format (unit mm)*
G04 Created by KiCad (PCBNEW 7.0.6-7.0.6~ubuntu22.04.1) date 2023-08-05 04:00:39*
%MOMM*%
%LPD*%
G01*
G04 APERTURE LIST*
G04 Aperture macros list*
%AMRoundRect*
0 Rectangle with rounded corners*
0 $1 Rounding radius*
0 $2 $3 $4 $5 $6 $7 $8 $9 X,Y pos of 4 corners*
0 Add a 4 corners polygon primitive as box body*
4,1,4,$2,$3,$4,$5,$6,$7,$8,$9,$2,$3,0*
0 Add four circle primitives for the rounded corners*
1,1,$1+$1,$2,$3*
1,1,$1+$1,$4,$5*
1,1,$1+$1,$6,$7*
1,1,$1+$1,$8,$9*
0 Add four rect primitives between the rounded corners*
20,1,$1+$1,$2,$3,$4,$5,0*
20,1,$1+$1,$4,$5,$6,$7,0*
20,1,$1+$1,$6,$7,$8,$9,0*
20,1,$1+$1,$8,$9,$2,$3,0*%
%AMOutline5P*
0 Free polygon, 5 corners , with rotation*
0 The origin of the aperture is its center*
0 number of corners: always 5*
0 $1 to $10 corner X, Y*
0 $11 Rotation angle, in degrees counterclockwise*
0 create outline with 5 corners*
4,1,5,$1,$2,$3,$4,$5,$6,$7,$8,$9,$10,$1,$2,$11*%
%AMOutline6P*
0 Free polygon, 6 corners , with rotation*
0 The origin of the aperture is its center*
0 number of corners: always 6*
0 $1 to $12 corner X, Y*
0 $13 Rotation angle, in degrees counterclockwise*
0 create outline with 6 corners*
4,1,6,$1,$2,$3,$4,$5,$6,$7,$8,$9,$10,$11,$12,$1,$2,$13*%
%AMOutline7P*
0 Free polygon, 7 corners , with rotation*
0 The origin of the aperture is its center*
0 number of corners: always 7*
0 $1 to $14 corner X, Y*
0 $15 Rotation angle, in degrees counterclockwise*
0 create outline with 7 corners*
4,1,7,$1,$2,$3,$4,$5,$6,$7,$8,$9,$10,$11,$12,$13,$14,$1,$2,$15*%
%AMOutline8P*
0 Free polygon, 8 corners , with rotation*
0 The origin of the aperture is its center*
0 number of corners: always 8*
0 $1 to $16 corner X, Y*
0 $17 Rotation angle, in degrees counterclockwise*
0 create outline with 8 corners*
4,1,8,$1,$2,$3,$4,$5,$6,$7,$8,$9,$10,$11,$12,$13,$14,$15,$16,$1,$2,$17*%
G04 Aperture macros list end*
%TA.AperFunction,SMDPad,CuDef*%
%ADD10R,1.000000X1.100000*%
%TD*%
%TA.AperFunction,SMDPad,CuDef*%
%ADD11RoundRect,0.500000X0.000000X0.000000X0.000000X0.000000X0.000000X0.000000X0.000000X0.000000X0*%
%TD*%
%TA.AperFunction,ComponentPad*%
%ADD12Outline8P,-0.889000X0.368236X-0.368236X0.889000X0.368236X0.889000X0.889000X0.368236X0.889000X-0.368236X0.368236X-0.889000X-0.368236X-0.889000X-0.889000X-0.368236X90.000000*%
%TD*%
%TA.AperFunction,SMDPad,CuDef*%
%ADD13RoundRect,0.062500X0.287500X0.062500X-0.287500X0.062500X-0.287500X-0.062500X0.287500X-0.062500X0*%
%TD*%
%TA.AperFunction,SMDPad,CuDef*%
%ADD14RoundRect,0.062500X0.062500X0.287500X-0.062500X0.287500X-0.062500X-0.287500X0.062500X-0.287500X0*%
%TD*%
%TA.AperFunction,SMDPad,CuDef*%
%ADD15R,3.200000X3.200000*%
%TD*%
%TA.AperFunction,ComponentPad*%
%ADD16C,1.778000*%
%TD*%
%TA.AperFunction,SMDPad,CuDef*%
%ADD17R,0.800000X1.350000*%
%TD*%
%TA.AperFunction,SMDPad,CuDef*%
%ADD18R,0.900000X1.000000*%
%TD*%
%TA.AperFunction,SMDPad,CuDef*%
%ADD19R,1.500000X1.300000*%
%TD*%
%TA.AperFunction,SMDPad,CuDef*%
%ADD20R,1.220000X0.910000*%
%TD*%
%TA.AperFunction,SMDPad,CuDef*%
%ADD21R,1.200000X1.300000*%
%TD*%
%TA.AperFunction,SMDPad,CuDef*%
%ADD22R,1.200000X0.550000*%
%TD*%
%TA.AperFunction,SMDPad,CuDef*%
%ADD23R,1.700000X0.700000*%
%TD*%
%TA.AperFunction,SMDPad,CuDef*%
%ADD24R,1.200000X1.200000*%
%TD*%
%TA.AperFunction,SMDPad,CuDef*%
%ADD25R,1.000000X2.000000*%
%TD*%
%TA.AperFunction,SMDPad,CuDef*%
%ADD26R,0.400000X1.350000*%
%TD*%
%TA.AperFunction,ComponentPad*%
%ADD27O,2.416000X1.208000*%
%TD*%
%TA.AperFunction,ComponentPad*%
%ADD28R,2.500000X2.500000*%
%TD*%
%TA.AperFunction,ViaPad*%
%ADD29C,0.800100*%
%TD*%
%TA.AperFunction,ViaPad*%
%ADD30C,0.906400*%
%TD*%
%TA.AperFunction,Conductor*%
%ADD31C,0.406400*%
%TD*%
%TA.AperFunction,Conductor*%
%ADD32C,0.609600*%
%TD*%
%TA.AperFunction,Conductor*%
%ADD33C,0.304800*%
%TD*%
%TA.AperFunction,Conductor*%
%ADD34C,0.254000*%
%TD*%
G04 APERTURE END LIST*
D10*
%TO.P,R5,1*%
%TO.N,N$1*%
X143675100Y-93231600D03*
%TO.P,R5,2*%
%TO.N,D13*%
X143675100Y-94931600D03*
%TD*%
D11*
%TO.P,U$1,1*%
%TO.N,N/C*%
X154089100Y-99669600D03*
%TD*%
%TO.P,U$6,1*%
%TO.N,N/C*%
X148501100Y-117322600D03*
%TD*%
D12*
%TO.P,FTDI0,1*%
%TO.N,GND*%
X142151100Y-121132600D03*
%TO.P,FTDI0,2*%
X144691100Y-121132600D03*
%TO.P,FTDI0,3*%
%TO.N,VBUS*%
X147231100Y-121132600D03*
%TO.P,FTDI0,4*%
%TO.N,RXD*%
X149771100Y-121132600D03*
%TO.P,FTDI0,5*%
%TO.N,TXD*%
X152311100Y-121132600D03*
%TO.P,FTDI0,6*%
%TO.N,DTR/RTS*%
X154851100Y-121132600D03*
%TD*%
D13*
%TO.P,IC1,1*%
%TO.N,D3*%
X150851100Y-110055600D03*
%TO.P,IC1,2*%
%TO.N,D4*%
X150851100Y-109555600D03*
%TO.P,IC1,3*%
%TO.N,GND*%
X150851100Y-109055600D03*
%TO.P,IC1,4*%
%TO.N,+5V*%
X150851100Y-108555600D03*
%TO.P,IC1,5*%
%TO.N,GND*%
X150851100Y-108055600D03*
%TO.P,IC1,6*%
%TO.N,+5V*%
X150851100Y-107555600D03*
%TO.P,IC1,7*%
%TO.N,N$3*%
X150851100Y-107055600D03*
%TO.P,IC1,8*%
%TO.N,N$2*%
X150851100Y-106555600D03*
D14*
%TO.P,IC1,9*%
%TO.N,D5*%
X150251100Y-105955600D03*
%TO.P,IC1,10*%
%TO.N,D6*%
X149751100Y-105955600D03*
%TO.P,IC1,11*%
%TO.N,D7*%
X149251100Y-105955600D03*
%TO.P,IC1,12*%
%TO.N,D8*%
X148751100Y-105955600D03*
%TO.P,IC1,13*%
%TO.N,D9*%
X148251100Y-105955600D03*
%TO.P,IC1,14*%
%TO.N,D10*%
X147751100Y-105955600D03*
%TO.P,IC1,15*%
%TO.N,D11*%
X147251100Y-105955600D03*
%TO.P,IC1,16*%
%TO.N,D12*%
X146751100Y-105955600D03*
D13*
%TO.P,IC1,17*%
%TO.N,D13*%
X146151100Y-106555600D03*
%TO.P,IC1,18*%
%TO.N,+5V*%
X146151100Y-107055600D03*
%TO.P,IC1,19*%
%TO.N,A6*%
X146151100Y-107555600D03*
%TO.P,IC1,20*%
%TO.N,AREF*%
X146151100Y-108055600D03*
%TO.P,IC1,21*%
%TO.N,GND*%
X146151100Y-108555600D03*
%TO.P,IC1,22*%
%TO.N,A7*%
X146151100Y-109055600D03*
%TO.P,IC1,23*%
%TO.N,A0*%
X146151100Y-109555600D03*
%TO.P,IC1,24*%
%TO.N,A1*%
X146151100Y-110055600D03*
D14*
%TO.P,IC1,25*%
%TO.N,A2*%
X146751100Y-110655600D03*
%TO.P,IC1,26*%
%TO.N,A3*%
X147251100Y-110655600D03*
%TO.P,IC1,27*%
%TO.N,A4*%
X147751100Y-110655600D03*
%TO.P,IC1,28*%
%TO.N,A5*%
X148251100Y-110655600D03*
%TO.P,IC1,29*%
%TO.N,RESET*%
X148751100Y-110655600D03*
%TO.P,IC1,30*%
%TO.N,RXD*%
X149251100Y-110655600D03*
%TO.P,IC1,31*%
%TO.N,TXD*%
X149751100Y-110655600D03*
%TO.P,IC1,32*%
%TO.N,D2*%
X150251100Y-110655600D03*
D15*
%TO.P,IC1,TH*%
%TO.N,GND*%
X148501100Y-108305600D03*
%TD*%
D16*
%TO.P,JP4,1*%
%TO.N,D9*%
X140881100Y-90652600D03*
%TO.P,JP4,2*%
%TO.N,D10*%
X140881100Y-93192600D03*
%TO.P,JP4,3*%
%TO.N,D11*%
X140881100Y-95732600D03*
%TO.P,JP4,4*%
%TO.N,D12*%
X140881100Y-98272600D03*
%TO.P,JP4,5*%
%TO.N,D13*%
X140881100Y-100812600D03*
%TO.P,JP4,6*%
%TO.N,AREF*%
X140881100Y-103352600D03*
%TO.P,JP4,7*%
%TO.N,A0*%
X140881100Y-105892600D03*
%TO.P,JP4,8*%
%TO.N,A1*%
X140881100Y-108432600D03*
%TO.P,JP4,9*%
%TO.N,A2*%
X140881100Y-110972600D03*
%TO.P,JP4,10*%
%TO.N,A3*%
X140881100Y-113512600D03*
%TO.P,JP4,11*%
%TO.N,A4*%
X140881100Y-116052600D03*
%TO.P,JP4,12*%
%TO.N,A5*%
X140881100Y-118592600D03*
%TD*%
D17*
%TO.P,D1,A*%
%TO.N,GND*%
X144818100Y-95478600D03*
%TO.P,D1,C*%
%TO.N,D+*%
X144818100Y-98018600D03*
%TD*%
D18*
%TO.P,Q1,A*%
%TO.N,RESET*%
X150551100Y-116522600D03*
%TO.P,Q1,A'*%
X146451100Y-116522600D03*
%TO.P,Q1,B*%
%TO.N,GND*%
X150551100Y-118122600D03*
%TO.P,Q1,B'*%
X146451100Y-118122600D03*
%TD*%
D16*
%TO.P,JP2,1*%
%TO.N,A6*%
X143421100Y-105892600D03*
%TO.P,JP2,2*%
%TO.N,A7*%
X143421100Y-108432600D03*
%TD*%
D10*
%TO.P,R1,1*%
%TO.N,D-*%
X147612100Y-96025600D03*
%TO.P,R1,2*%
%TO.N,D7*%
X147612100Y-97725600D03*
%TD*%
%TO.P,R2,1*%
%TO.N,D+*%
X146342100Y-96025600D03*
%TO.P,R2,2*%
%TO.N,D2*%
X146342100Y-97725600D03*
%TD*%
D19*
%TO.P,C1,1*%
%TO.N,VBAT*%
X145072100Y-99989600D03*
%TO.P,C1,2*%
%TO.N,GND*%
X145072100Y-101889600D03*
%TD*%
D20*
%TO.P,D2,A*%
%TO.N,VBUS*%
X152184100Y-95542900D03*
%TO.P,D2,C*%
%TO.N,+5V*%
X152184100Y-98817900D03*
%TD*%
D19*
%TO.P,R6,1*%
%TO.N,RESET*%
X144945100Y-116118600D03*
%TO.P,R6,2*%
%TO.N,+5V*%
X144945100Y-118018600D03*
%TD*%
D21*
%TO.P,C2,1*%
%TO.N,AREF*%
X142913100Y-104114600D03*
%TO.P,C2,2*%
%TO.N,GND*%
X144945100Y-104114600D03*
%TD*%
D22*
%TO.P,IC2,1*%
%TO.N,VBAT*%
X147328100Y-100243600D03*
%TO.P,IC2,2*%
%TO.N,GND*%
X147328100Y-101193600D03*
%TO.P,IC2,3*%
%TO.N,VBAT*%
X147328100Y-102143600D03*
%TO.P,IC2,4*%
%TO.N,N/C*%
X149928100Y-102143600D03*
%TO.P,IC2,5*%
%TO.N,+5V*%
X149928100Y-100243600D03*
%TD*%
D23*
%TO.P,Y1,1*%
%TO.N,N$3*%
X153073100Y-107981600D03*
%TO.P,Y1,2*%
%TO.N,GND*%
X153073100Y-106781600D03*
%TO.P,Y1,3*%
%TO.N,N$2*%
X153073100Y-105581600D03*
%TD*%
D10*
%TO.P,R3,1*%
%TO.N,D-*%
X149009100Y-96025600D03*
%TO.P,R3,2*%
%TO.N,+5V*%
X149009100Y-97725600D03*
%TD*%
D17*
%TO.P,D4,A*%
%TO.N,GND*%
X150406100Y-98526600D03*
%TO.P,D4,C*%
%TO.N,D-*%
X150406100Y-95986600D03*
%TD*%
D10*
%TO.P,R4,1*%
%TO.N,N$6*%
X153581100Y-93993600D03*
%TO.P,R4,2*%
%TO.N,+5V*%
X153581100Y-95693600D03*
%TD*%
D19*
%TO.P,C8,1*%
%TO.N,+5V*%
X151523700Y-100370600D03*
%TO.P,C8,2*%
%TO.N,GND*%
X151523700Y-102270600D03*
%TD*%
D16*
%TO.P,JP1,1*%
%TO.N,VBAT*%
X156121100Y-90652600D03*
%TO.P,JP1,2*%
%TO.N,GND*%
X156121100Y-93192600D03*
%TO.P,JP1,3*%
%TO.N,VBUS*%
X156121100Y-95732600D03*
%TO.P,JP1,4*%
%TO.N,+5V*%
X156121100Y-98272600D03*
%TO.P,JP1,5*%
%TO.N,D8*%
X156121100Y-100812600D03*
%TO.P,JP1,6*%
%TO.N,D6*%
X156121100Y-103352600D03*
%TO.P,JP1,7*%
%TO.N,D5*%
X156121100Y-105892600D03*
%TO.P,JP1,8*%
%TO.N,D4*%
X156121100Y-108432600D03*
%TO.P,JP1,9*%
%TO.N,D3*%
X156121100Y-110972600D03*
%TO.P,JP1,10*%
%TO.N,TXD*%
X156121100Y-113512600D03*
%TO.P,JP1,11*%
%TO.N,RXD*%
X156121100Y-116052600D03*
%TO.P,JP1,12*%
%TO.N,RESET*%
X156121100Y-118592600D03*
%TD*%
D24*
%TO.P,PWR0,A*%
%TO.N,N$6*%
X152218100Y-93383100D03*
%TO.P,PWR0,C*%
%TO.N,GND*%
X150118100Y-93383100D03*
%TD*%
%TO.P,B1,A*%
%TO.N,N$1*%
X145292100Y-93446600D03*
%TO.P,B1,C*%
%TO.N,GND*%
X147392100Y-93446600D03*
%TD*%
D25*
%TO.P,CN1,BASE@1*%
%TO.N,GND*%
X149251100Y-88652600D03*
%TO.P,CN1,BASE@2*%
X147751100Y-88652600D03*
D26*
%TO.P,CN1,D+*%
%TO.N,D+*%
X148501100Y-91427600D03*
%TO.P,CN1,D-*%
%TO.N,D-*%
X149151100Y-91427600D03*
%TO.P,CN1,GND*%
%TO.N,GND*%
X147201100Y-91427600D03*
%TO.P,CN1,ID*%
%TO.N,N/C*%
X147851100Y-91427600D03*
D27*
%TO.P,CN1,SPRT@1*%
%TO.N,GND*%
X152405100Y-91552600D03*
%TO.P,CN1,SPRT@2*%
X144597100Y-91552600D03*
D28*
%TO.P,CN1,SPRT@3*%
X152101100Y-88752600D03*
%TO.P,CN1,SPRT@4*%
X144901100Y-88752600D03*
D26*
%TO.P,CN1,VBUS*%
%TO.N,VBUS*%
X149801100Y-91427600D03*
%TD*%
D19*
%TO.P,C3,1*%
%TO.N,RESET*%
X152311100Y-115864600D03*
%TO.P,C3,2*%
%TO.N,DTR/RTS*%
X152311100Y-117764600D03*
%TD*%
D29*
%TO.N,GND*%
X143548100Y-102336600D03*
X149771100Y-94716600D03*
X154597100Y-107162600D03*
D30*
X152311100Y-97510600D03*
D29*
X152768300Y-103124000D03*
X148501100Y-108305600D03*
D30*
%TO.N,VBUS*%
X153581100Y-97383600D03*
D29*
%TO.N,VBAT*%
X148564600Y-103289100D03*
X146469100Y-99288600D03*
%TO.N,D10*%
X147485100Y-104368600D03*
%TO.N,D11*%
X146342100Y-104114600D03*
%TO.N,D12*%
X146151600Y-105194100D03*
%TO.N,D13*%
X144945100Y-105384600D03*
%TO.N,D7*%
X149898100Y-101193600D03*
X150533100Y-104495600D03*
%TO.N,RXD*%
X154597100Y-114274600D03*
%TO.N,D9*%
X147485100Y-103098600D03*
%TO.N,D2*%
X150152100Y-103035100D03*
X152311100Y-111353600D03*
%TO.N,+5V*%
X145580100Y-119608600D03*
X153200100Y-101828600D03*
X152565100Y-109321600D03*
X145072100Y-106400600D03*
%TD*%
D31*
%TO.N,GND*%
X145326100Y-121132600D02*
X146578100Y-119880600D01*
D32*
X145001100Y-88652600D02*
X144901100Y-88752600D01*
D33*
X150118100Y-93383100D02*
X149771100Y-93857100D01*
D31*
X153073100Y-106781600D02*
X154216100Y-106781600D01*
D32*
X149251100Y-88652600D02*
X151962100Y-88652600D01*
D31*
X151422100Y-97510600D02*
X152311100Y-97510600D01*
X147201100Y-91427600D02*
X147076100Y-91552600D01*
X150406100Y-98526600D02*
X151422100Y-97510600D01*
D32*
X147751100Y-88652600D02*
X145001100Y-88652600D01*
D31*
X145238100Y-103821600D02*
X144945100Y-104114600D01*
D33*
X147328100Y-93509600D02*
X147392100Y-93446600D01*
X149682100Y-119245600D02*
X146578100Y-119245600D01*
D31*
X145326100Y-102336600D02*
X145326100Y-102143600D01*
D32*
X152057100Y-91296600D02*
X152057100Y-88874600D01*
D31*
X145326100Y-102143600D02*
X145072100Y-101889600D01*
D34*
X150851100Y-109055600D02*
X149251100Y-109055600D01*
D31*
X145326100Y-103821600D02*
X145238100Y-103821600D01*
D33*
X148751100Y-108055600D02*
X148501100Y-108305600D01*
X147104100Y-93573600D02*
X147392100Y-93446600D01*
X147201100Y-91427600D02*
X147201100Y-93509600D01*
D31*
X146451100Y-118122600D02*
X146578100Y-119245600D01*
D33*
X147201100Y-93509600D02*
X147328100Y-93509600D01*
D31*
X147076100Y-91552600D02*
X145201100Y-91552600D01*
D33*
X152001100Y-88652600D02*
X152101100Y-88752600D01*
X151962100Y-88652600D02*
X152001100Y-88652600D01*
D34*
X146151100Y-108555600D02*
X148251100Y-108555600D01*
D33*
X151234100Y-102270600D02*
X151914900Y-102270600D01*
X149251100Y-109055600D02*
X148501100Y-108305600D01*
D31*
X143548100Y-102336600D02*
X145326100Y-102336600D01*
D32*
X147751100Y-88652600D02*
X149251100Y-88652600D01*
X151801100Y-91552600D02*
X152057100Y-91296600D01*
D33*
X151914900Y-102270600D02*
X152768300Y-103124000D01*
D31*
X144691100Y-121132600D02*
X145326100Y-121132600D01*
X145961100Y-101701600D02*
X145260100Y-101701600D01*
D33*
X147104100Y-93573600D02*
X145199100Y-95478600D01*
D31*
X151523700Y-102270600D02*
X151234100Y-102270600D01*
D33*
X148251100Y-108555600D02*
X148501100Y-108305600D01*
D31*
X147328100Y-101193600D02*
X146469100Y-101193600D01*
D32*
X145201100Y-91552600D02*
X144818100Y-91169600D01*
D31*
X146469100Y-101193600D02*
X145961100Y-101701600D01*
D33*
X145199100Y-95478600D02*
X144818100Y-95478600D01*
D31*
X145260100Y-101701600D02*
X145072100Y-101889600D01*
D34*
X150851100Y-108055600D02*
X148751100Y-108055600D01*
D33*
X149682100Y-119245600D02*
X150678100Y-118249600D01*
D31*
X145326100Y-102336600D02*
X145326100Y-103821600D01*
D32*
X151962100Y-88652600D02*
X152057100Y-88747600D01*
D31*
X146578100Y-119880600D02*
X146578100Y-119245600D01*
D33*
X149771100Y-93857100D02*
X149771100Y-94716600D01*
D31*
X154216100Y-106781600D02*
X154597100Y-107162600D01*
D32*
X154225100Y-91296600D02*
X156121100Y-93192600D01*
X152057100Y-91296600D02*
X154225100Y-91296600D01*
X144818100Y-91169600D02*
X144818100Y-88874600D01*
D33*
X150678100Y-118249600D02*
X150551100Y-118122600D01*
D34*
%TO.N,D+*%
X148501100Y-94716600D02*
X147104100Y-94716600D01*
X146342100Y-95478600D02*
X146342100Y-96025600D01*
X147104100Y-94716600D02*
X146342100Y-95478600D01*
X144818100Y-98018600D02*
X144818100Y-97549600D01*
X148501100Y-91427600D02*
X148501100Y-94716600D01*
X144818100Y-97549600D02*
X146342100Y-96025600D01*
%TO.N,D-*%
X147612100Y-96025600D02*
X149009100Y-96025600D01*
X149009100Y-92684600D02*
X149009100Y-96025600D01*
X149009100Y-96025600D02*
X150367100Y-96025600D01*
X150367100Y-96025600D02*
X150406100Y-95986600D01*
X149151100Y-92542600D02*
X149009100Y-92684600D01*
X149151100Y-91427600D02*
X149151100Y-92542600D01*
D33*
%TO.N,VBUS*%
X151168100Y-92684600D02*
X151168100Y-94526900D01*
X149911100Y-91427600D02*
X151168100Y-92684600D01*
X152184100Y-95542900D02*
X152184100Y-95986600D01*
X152184100Y-95986600D02*
X153581100Y-97383600D01*
X149801100Y-91427600D02*
X149911100Y-91427600D01*
X151168100Y-94526900D02*
X152184100Y-95542900D01*
%TO.N,N$6*%
X153581100Y-93993600D02*
X153097600Y-93510100D01*
X153097600Y-93510100D02*
X152218100Y-93383100D01*
%TO.N,VBAT*%
X147866100Y-102209600D02*
X147394100Y-102209600D01*
D31*
X147328100Y-100243600D02*
X146373100Y-99288600D01*
X145326100Y-100243600D02*
X147328100Y-100243600D01*
X146469100Y-99288600D02*
X146373100Y-99288600D01*
D33*
X147394100Y-102209600D02*
X147328100Y-102143600D01*
D31*
X145072100Y-99989600D02*
X145326100Y-100243600D01*
D33*
X148564600Y-103289100D02*
X148564600Y-102908100D01*
X148564600Y-102908100D02*
X147866100Y-102209600D01*
D34*
%TO.N,RESET*%
X149954100Y-115925600D02*
X150081100Y-115925600D01*
X151336100Y-115864600D02*
X152311100Y-115864600D01*
X148751100Y-111603600D02*
X150678100Y-113530600D01*
X147302100Y-115925600D02*
X146705100Y-116522600D01*
X152311100Y-115864600D02*
X152885100Y-115864600D01*
X146705100Y-116522600D02*
X146451100Y-116522600D01*
X145349100Y-116522600D02*
X146451100Y-116522600D01*
D33*
X147302100Y-115925600D02*
X149954100Y-115925600D01*
D34*
X150081100Y-115925600D02*
X150551100Y-116522600D01*
X148751100Y-110655600D02*
X148751100Y-111603600D01*
X150551100Y-116522600D02*
X151336100Y-115864600D01*
X155574100Y-118592600D02*
X156121100Y-118592600D01*
X150678100Y-113530600D02*
X150551100Y-116522600D01*
X155574100Y-118553600D02*
X155574100Y-118592600D01*
X152885100Y-115864600D02*
X155574100Y-118553600D01*
X144945100Y-116118600D02*
X145349100Y-116522600D01*
%TO.N,N$1*%
X143890100Y-93446600D02*
X143675100Y-93231600D01*
X145292100Y-93446600D02*
X143890100Y-93446600D01*
%TO.N,D10*%
X147739100Y-105003600D02*
X147739100Y-104622600D01*
X147751100Y-105955600D02*
X147751100Y-105015600D01*
X147751100Y-105015600D02*
X147739100Y-105003600D01*
X147739100Y-104622600D02*
X147485100Y-104368600D01*
%TO.N,D11*%
X146723100Y-104686100D02*
X146723100Y-104495600D01*
X147251100Y-105955600D02*
X147251100Y-105214100D01*
X147251100Y-105214100D02*
X146723100Y-104686100D01*
X146596100Y-104368600D02*
X146342100Y-104114600D01*
X146723100Y-104495600D02*
X146342100Y-104114600D01*
%TO.N,D12*%
X146751100Y-105793600D02*
X146151600Y-105194100D01*
X146751100Y-105955600D02*
X146751100Y-105793600D01*
X146151600Y-105229100D02*
X146151600Y-105194100D01*
%TO.N,D13*%
X145453100Y-105638600D02*
X145199100Y-105638600D01*
X143675100Y-98780600D02*
X141516100Y-100939600D01*
X145199100Y-105638600D02*
X144945100Y-105384600D01*
X146151100Y-106555600D02*
X146151100Y-106336600D01*
X141516100Y-100939600D02*
X141008100Y-100939600D01*
X143675100Y-94931600D02*
X143675100Y-98780600D01*
X141008100Y-100939600D02*
X140881100Y-100812600D01*
X146151100Y-106336600D02*
X145453100Y-105638600D01*
%TO.N,A0*%
X145199100Y-110083600D02*
X145727100Y-109555600D01*
X145727100Y-109555600D02*
X146151100Y-109555600D01*
X142151100Y-109448600D02*
X142786100Y-110083600D01*
X142786100Y-110083600D02*
X145199100Y-110083600D01*
X142151100Y-109448600D02*
X142151100Y-107797600D01*
X140881100Y-106527600D02*
X140881100Y-105892600D01*
X142151100Y-107797600D02*
X140881100Y-106527600D01*
%TO.N,A1*%
X142405100Y-110591600D02*
X145580100Y-110591600D01*
X140881100Y-109067600D02*
X142405100Y-110591600D01*
X146116100Y-110055600D02*
X146151100Y-110055600D01*
X145580100Y-110591600D02*
X146116100Y-110055600D01*
X140881100Y-109067600D02*
X140881100Y-108432600D01*
%TO.N,A2*%
X146751100Y-110817600D02*
X146751100Y-110655600D01*
X141135100Y-111226600D02*
X140881100Y-110972600D01*
X146751100Y-110655600D02*
X146180100Y-111226600D01*
X146180100Y-111226600D02*
X141135100Y-111226600D01*
%TO.N,A3*%
X147251100Y-110655600D02*
X147251100Y-111079600D01*
X140881100Y-113385600D02*
X140881100Y-113512600D01*
X147251100Y-111079600D02*
X146469100Y-111861600D01*
X142405100Y-111861600D02*
X140881100Y-113385600D01*
X146469100Y-111861600D02*
X142405100Y-111861600D01*
%TO.N,A4*%
X142151100Y-114782600D02*
X140881100Y-116052600D01*
X142151100Y-112877600D02*
X142151100Y-114782600D01*
X147751100Y-111341600D02*
X146723100Y-112369600D01*
X146723100Y-112369600D02*
X142659100Y-112369600D01*
X147751100Y-110655600D02*
X147751100Y-111341600D01*
X142659100Y-112369600D02*
X142151100Y-112877600D01*
%TO.N,A5*%
X143802100Y-112877600D02*
X142659100Y-114020600D01*
X146977100Y-112877600D02*
X143802100Y-112877600D01*
X148251100Y-111603600D02*
X148251100Y-110655600D01*
X142659100Y-116814600D02*
X140881100Y-118592600D01*
X148251100Y-111603600D02*
X146977100Y-112877600D01*
X142659100Y-114020600D02*
X142659100Y-116814600D01*
%TO.N,D3*%
X150851100Y-110055600D02*
X151267100Y-110055600D01*
X151803100Y-110591600D02*
X155740100Y-110591600D01*
X155740100Y-110591600D02*
X156121100Y-110972600D01*
X151267100Y-110055600D02*
X151803100Y-110591600D01*
%TO.N,D4*%
X155613100Y-108432600D02*
X156121100Y-108432600D01*
X150851100Y-109555600D02*
X151529100Y-109555600D01*
X151529100Y-109555600D02*
X152057100Y-110083600D01*
X152057100Y-110083600D02*
X153962100Y-110083600D01*
X153962100Y-110083600D02*
X155613100Y-108432600D01*
%TO.N,D7*%
X149898100Y-104495600D02*
X150533100Y-104495600D01*
X149251100Y-105955600D02*
X149251100Y-105142600D01*
X149390100Y-101193600D02*
X149898100Y-101193600D01*
X148882100Y-100685600D02*
X149390100Y-101193600D01*
X147612100Y-97725600D02*
X147612100Y-98018600D01*
X149251100Y-105142600D02*
X149898100Y-104495600D01*
X147612100Y-98018600D02*
X148882100Y-99288600D01*
X148882100Y-99288600D02*
X148882100Y-100685600D01*
%TO.N,D6*%
X155105100Y-104368600D02*
X156121100Y-103352600D01*
X151041100Y-105257600D02*
X151295100Y-105003600D01*
X151295100Y-104622600D02*
X151549100Y-104368600D01*
X149898100Y-105257600D02*
X151041100Y-105257600D01*
X151295100Y-105003600D02*
X151295100Y-104622600D01*
X151549100Y-104368600D02*
X155105100Y-104368600D01*
X149751100Y-105955600D02*
X149751100Y-105404600D01*
X149751100Y-105404600D02*
X149898100Y-105257600D01*
%TO.N,D5*%
X151232100Y-105955600D02*
X151803100Y-105384600D01*
X154343100Y-104876600D02*
X155359100Y-105892600D01*
X155359100Y-105892600D02*
X156121100Y-105892600D01*
X150251100Y-105955600D02*
X151232100Y-105955600D01*
X151803100Y-104876600D02*
X154343100Y-104876600D01*
X151803100Y-105384600D02*
X151803100Y-104876600D01*
%TO.N,TXD*%
X154724100Y-112115600D02*
X156121100Y-113512600D01*
X150787100Y-112115600D02*
X154724100Y-112115600D01*
X149751100Y-111079600D02*
X150787100Y-112115600D01*
X149751100Y-110655600D02*
X149751100Y-111079600D01*
%TO.N,RXD*%
X156121100Y-115798600D02*
X156121100Y-116052600D01*
X154216100Y-112623600D02*
X154597100Y-113004600D01*
X150533100Y-112623600D02*
X154216100Y-112623600D01*
X149251100Y-111341600D02*
X150533100Y-112623600D01*
X154597100Y-114274600D02*
X156121100Y-115798600D01*
X154597100Y-113004600D02*
X154597100Y-114274600D01*
X149251100Y-110655600D02*
X149251100Y-111341600D01*
%TO.N,A6*%
X143421100Y-105892600D02*
X145084100Y-107555600D01*
X145084100Y-107555600D02*
X146151100Y-107555600D01*
%TO.N,A7*%
X144044100Y-109055600D02*
X143421100Y-108432600D01*
X146151100Y-109055600D02*
X144044100Y-109055600D01*
%TO.N,D8*%
X150025100Y-103860600D02*
X149644100Y-103860600D01*
X150533100Y-103733600D02*
X150025100Y-103860600D01*
X149644100Y-103860600D02*
X149517100Y-103733600D01*
X151549100Y-103860600D02*
X151422100Y-103733600D01*
X153454100Y-103860600D02*
X151549100Y-103860600D01*
X156121100Y-101193600D02*
X153454100Y-103860600D01*
X156121100Y-100812600D02*
X156121100Y-101193600D01*
X149263100Y-103733600D02*
X148751100Y-104245600D01*
X148751100Y-104245600D02*
X148751100Y-105955600D01*
X149517100Y-103733600D02*
X149263100Y-103733600D01*
X151422100Y-103733600D02*
X150533100Y-103733600D01*
%TO.N,D9*%
X148251100Y-104042400D02*
X147485100Y-103276400D01*
X148251100Y-105955600D02*
X148251100Y-104042400D01*
X147485100Y-103276400D02*
X147485100Y-103098600D01*
%TO.N,AREF*%
X141262100Y-103352600D02*
X140881100Y-103352600D01*
X143929100Y-107162600D02*
X142532100Y-107162600D01*
X146151100Y-108055600D02*
X144822100Y-108055600D01*
X142151100Y-104241600D02*
X141262100Y-103352600D01*
X142532100Y-107162600D02*
X142151100Y-106781600D01*
X144822100Y-108055600D02*
X143929100Y-107162600D01*
X142278100Y-104114600D02*
X142151100Y-104241600D01*
X142151100Y-106781600D02*
X142151100Y-104241600D01*
X142913100Y-104114600D02*
X142278100Y-104114600D01*
%TO.N,N$2*%
X151521100Y-106555600D02*
X152438100Y-105638600D01*
X153016100Y-105638600D02*
X153073100Y-105581600D01*
X150851100Y-106555600D02*
X151521100Y-106555600D01*
X152438100Y-105638600D02*
X153016100Y-105638600D01*
%TO.N,N$3*%
X150851100Y-107055600D02*
X151569100Y-107055600D01*
X151569100Y-107055600D02*
X152495100Y-107981600D01*
X152495100Y-107981600D02*
X153073100Y-107981600D01*
%TO.N,DTR/RTS*%
X154470100Y-119823600D02*
X152411100Y-117764600D01*
X152411100Y-117764600D02*
X152311100Y-117764600D01*
X154470100Y-119823600D02*
X154470100Y-120751600D01*
X154470100Y-120751600D02*
X154851100Y-121132600D01*
%TO.N,D2*%
X148374100Y-99542600D02*
X147485100Y-98653600D01*
X148374100Y-99542600D02*
X148374100Y-101066600D01*
X149453600Y-103035100D02*
X150152100Y-103035100D01*
X148755100Y-102336600D02*
X149453600Y-103035100D01*
X149771100Y-103035100D02*
X150152100Y-103035100D01*
X148755100Y-101447600D02*
X148755100Y-102336600D01*
X146850100Y-98653600D02*
X146342100Y-98145600D01*
X148374100Y-101066600D02*
X148755100Y-101447600D01*
X150949100Y-111353600D02*
X150251100Y-110655600D01*
X146342100Y-98145600D02*
X146342100Y-97725600D01*
X150949100Y-111353600D02*
X152311100Y-111353600D01*
X147485100Y-98653600D02*
X146850100Y-98653600D01*
D31*
%TO.N,+5V*%
X144945100Y-118299600D02*
X144945100Y-118018600D01*
X145580100Y-118934600D02*
X145580100Y-119608600D01*
X153200100Y-101193600D02*
X153200100Y-101828600D01*
D33*
X151612600Y-107797600D02*
X151612600Y-108369100D01*
D34*
X150851100Y-108555600D02*
X151418100Y-108555600D01*
D31*
X152781800Y-98817900D02*
X153327100Y-98272600D01*
D33*
X151422100Y-108559600D02*
X152184100Y-109321600D01*
X153200100Y-101828600D02*
X152981700Y-101828600D01*
D34*
X150851100Y-107555600D02*
X151370600Y-107555600D01*
D33*
X152184100Y-99710200D02*
X151523700Y-100370600D01*
X152184100Y-99710200D02*
X152184100Y-98817900D01*
D34*
X151370600Y-107555600D02*
X151612600Y-107797600D01*
D31*
X153581100Y-95732600D02*
X156121100Y-98272600D01*
X151523700Y-100370600D02*
X151869100Y-100370600D01*
D33*
X149517100Y-98907600D02*
X149517100Y-99832600D01*
X152184100Y-109321600D02*
X152565100Y-109321600D01*
D34*
X145389600Y-106845100D02*
X145072100Y-106527600D01*
D31*
X152377100Y-100370600D02*
X151523700Y-100370600D01*
D33*
X149009100Y-98399600D02*
X149517100Y-98907600D01*
D34*
X146151100Y-107055600D02*
X145600100Y-107055600D01*
D31*
X152184100Y-98817900D02*
X152781800Y-98817900D01*
X153327100Y-98272600D02*
X156121100Y-98272600D01*
D34*
X145600100Y-107055600D02*
X145389600Y-106845100D01*
D31*
X153581100Y-95693600D02*
X153581100Y-95732600D01*
D34*
X151418100Y-108555600D02*
X151422100Y-108559600D01*
D31*
X152377100Y-100370600D02*
X153200100Y-101193600D01*
D33*
X149009100Y-97725600D02*
X149009100Y-98399600D01*
X151612600Y-108369100D02*
X151422100Y-108559600D01*
X149517100Y-99832600D02*
X149928100Y-100243600D01*
X145072100Y-106527600D02*
X145072100Y-106400600D01*
X151396700Y-100243600D02*
X151523700Y-100370600D01*
D31*
X145580100Y-118934600D02*
X144945100Y-118299600D01*
D33*
X149928100Y-100243600D02*
X151396700Y-100243600D01*
%TD*%
M02*
