%TF.GenerationSoftware,KiCad,Pcbnew,7.0.6-7.0.6~ubuntu22.04.1*%
%TF.CreationDate,2023-08-07T08:19:14+01:00*%
%TF.ProjectId,working,776f726b-696e-4672-9e6b-696361645f70,rev?*%
%TF.SameCoordinates,Original*%
%TF.FileFunction,Copper,L4,Bot*%
%TF.FilePolarity,Positive*%
%FSLAX46Y46*%
G04 Gerber Fmt 4.6, Leading zero omitted, Abs format (unit mm)*
G04 Created by KiCad (PCBNEW 7.0.6-7.0.6~ubuntu22.04.1) date 2023-08-07 08:19:14*
%MOMM*%
%LPD*%
G01*
G04 APERTURE LIST*
G04 Aperture macros list*
%AMRoundRect*
0 Rectangle with rounded corners*
0 $1 Rounding radius*
0 $2 $3 $4 $5 $6 $7 $8 $9 X,Y pos of 4 corners*
0 Add a 4 corners polygon primitive as box body*
4,1,4,$2,$3,$4,$5,$6,$7,$8,$9,$2,$3,0*
0 Add four circle primitives for the rounded corners*
1,1,$1+$1,$2,$3*
1,1,$1+$1,$4,$5*
1,1,$1+$1,$6,$7*
1,1,$1+$1,$8,$9*
0 Add four rect primitives between the rounded corners*
20,1,$1+$1,$2,$3,$4,$5,0*
20,1,$1+$1,$4,$5,$6,$7,0*
20,1,$1+$1,$6,$7,$8,$9,0*
20,1,$1+$1,$8,$9,$2,$3,0*%
G04 Aperture macros list end*
%ADD10C,0.152400*%
%TA.AperFunction,NonConductor*%
%ADD11C,0.152400*%
%TD*%
%TA.AperFunction,ComponentPad*%
%ADD12C,1.879600*%
%TD*%
%TA.AperFunction,SMDPad,CuDef*%
%ADD13RoundRect,0.317500X0.000000X0.000000X0.000000X0.000000X0.000000X0.000000X0.000000X0.000000X0*%
%TD*%
%TA.AperFunction,SMDPad,CuDef*%
%ADD14R,0.635000X1.270000*%
%TD*%
%TA.AperFunction,ViaPad*%
%ADD15C,0.736600*%
%TD*%
%TA.AperFunction,Conductor*%
%ADD16C,0.203200*%
%TD*%
G04 APERTURE END LIST*
D10*
D11*
X153508445Y-109224965D02*
X152932712Y-109019346D01*
X152932712Y-109019346D02*
X153508445Y-108813727D01*
X152932712Y-108032375D02*
X152932712Y-108525860D01*
X152932712Y-108279117D02*
X153796312Y-108279117D01*
X153796312Y-108279117D02*
X153672940Y-108361365D01*
X153672940Y-108361365D02*
X153590693Y-108443613D01*
X153590693Y-108443613D02*
X153549569Y-108525860D01*
X153796312Y-107497765D02*
X153796312Y-107415518D01*
X153796312Y-107415518D02*
X153755188Y-107333270D01*
X153755188Y-107333270D02*
X153714064Y-107292146D01*
X153714064Y-107292146D02*
X153631816Y-107251022D01*
X153631816Y-107251022D02*
X153467321Y-107209899D01*
X153467321Y-107209899D02*
X153261702Y-107209899D01*
X153261702Y-107209899D02*
X153097207Y-107251022D01*
X153097207Y-107251022D02*
X153014959Y-107292146D01*
X153014959Y-107292146D02*
X152973836Y-107333270D01*
X152973836Y-107333270D02*
X152932712Y-107415518D01*
X152932712Y-107415518D02*
X152932712Y-107497765D01*
X152932712Y-107497765D02*
X152973836Y-107580013D01*
X152973836Y-107580013D02*
X153014959Y-107621137D01*
X153014959Y-107621137D02*
X153097207Y-107662260D01*
X153097207Y-107662260D02*
X153261702Y-107703384D01*
X153261702Y-107703384D02*
X153467321Y-107703384D01*
X153467321Y-107703384D02*
X153631816Y-107662260D01*
X153631816Y-107662260D02*
X153714064Y-107621137D01*
X153714064Y-107621137D02*
X153755188Y-107580013D01*
X153755188Y-107580013D02*
X153796312Y-107497765D01*
D12*
%TO.P,J2,1*%
%TO.N,INT*%
X143421100Y-111353600D03*
%TD*%
%TO.P,J1,1*%
%TO.N,GND*%
X145961100Y-111353600D03*
%TO.P,J1,2*%
%TO.N,VCC*%
X148501100Y-111353600D03*
%TO.P,J1,3*%
%TO.N,SDA*%
X151041100Y-111353600D03*
%TO.P,J1,4*%
%TO.N,SCL*%
X153581100Y-111353600D03*
%TD*%
D13*
%TO.P,FD4,1*%
%TO.N,N/C*%
X152311100Y-110083600D03*
%TD*%
%TO.P,FD3,1*%
%TO.N,N/C*%
X143421100Y-98653600D03*
%TD*%
D14*
%TO.P,JP1,1*%
%TO.N,GND*%
X149313900Y-107543600D03*
%TO.P,JP1,2*%
%TO.N,ADDR*%
X148501100Y-107543600D03*
%TO.P,JP1,3*%
%TO.N,N$1*%
X147688300Y-107543600D03*
%TD*%
D15*
%TO.N,GND*%
X149771100Y-109067600D03*
X146469100Y-99923600D03*
%TO.N,N$1*%
X144564100Y-106781600D03*
%TO.N,ADDR*%
X147231100Y-109194600D03*
%TO.N,SCL*%
X147612100Y-105003600D03*
X152311100Y-105003600D03*
%TD*%
D16*
%TO.N,GND*%
X149313900Y-108610400D02*
X149771100Y-109067600D01*
X149313900Y-107543600D02*
X149313900Y-108610400D01*
%TO.N,N$1*%
X144564100Y-107289600D02*
X144818100Y-107543600D01*
X144818100Y-107543600D02*
X147688300Y-107543600D01*
X144564100Y-106781600D02*
X144564100Y-107289600D01*
%TO.N,ADDR*%
X148120100Y-109194600D02*
X148501100Y-108813600D01*
X147231100Y-109194600D02*
X148120100Y-109194600D01*
X148501100Y-108813600D02*
X148501100Y-107543600D01*
%TO.N,SCL*%
X147612100Y-105003600D02*
X152311100Y-105003600D01*
%TD*%
%TA.AperFunction,Conductor*%
%TO.N,GND*%
G36*
X154734414Y-97500286D02*
G01*
X154749000Y-97535500D01*
X154749000Y-111015654D01*
X154734414Y-111050868D01*
X154699200Y-111065454D01*
X154663986Y-111050868D01*
X154651301Y-111029282D01*
X154641969Y-110996484D01*
X154628164Y-110947965D01*
X154535800Y-110762475D01*
X154535800Y-110762474D01*
X154535798Y-110762471D01*
X154435084Y-110629105D01*
X154410926Y-110597114D01*
X154410925Y-110597113D01*
X154410925Y-110597112D01*
X154257791Y-110457513D01*
X154081617Y-110348431D01*
X154081615Y-110348430D01*
X153907805Y-110281096D01*
X153888394Y-110273576D01*
X153684711Y-110235500D01*
X153684707Y-110235500D01*
X153477493Y-110235500D01*
X153477488Y-110235500D01*
X153273805Y-110273576D01*
X153080582Y-110348431D01*
X152904408Y-110457513D01*
X152751274Y-110597112D01*
X152751274Y-110597113D01*
X152626401Y-110762471D01*
X152626399Y-110762474D01*
X152534035Y-110947967D01*
X152477330Y-111147263D01*
X152477329Y-111147269D01*
X152458210Y-111353600D01*
X152477329Y-111559930D01*
X152477330Y-111559936D01*
X152534035Y-111759232D01*
X152626399Y-111944725D01*
X152626401Y-111944728D01*
X152751274Y-112110086D01*
X152751274Y-112110087D01*
X152904407Y-112249686D01*
X152904408Y-112249686D01*
X153080585Y-112358770D01*
X153215058Y-112410864D01*
X153252224Y-112425263D01*
X153279791Y-112451585D01*
X153280671Y-112489690D01*
X153254349Y-112517257D01*
X153234234Y-112521500D01*
X151387966Y-112521500D01*
X151352752Y-112506914D01*
X151338166Y-112471700D01*
X151352752Y-112436486D01*
X151369976Y-112425263D01*
X151397257Y-112414693D01*
X151541615Y-112358770D01*
X151717792Y-112249686D01*
X151870926Y-112110086D01*
X151995800Y-111944725D01*
X152088164Y-111759235D01*
X152144871Y-111559930D01*
X152163990Y-111353600D01*
X152144871Y-111147270D01*
X152088164Y-110947965D01*
X151995800Y-110762475D01*
X151995800Y-110762474D01*
X151995798Y-110762471D01*
X151895084Y-110629105D01*
X151870926Y-110597114D01*
X151870925Y-110597113D01*
X151870925Y-110597112D01*
X151717791Y-110457513D01*
X151541617Y-110348431D01*
X151541615Y-110348430D01*
X151367805Y-110281096D01*
X151348394Y-110273576D01*
X151144711Y-110235500D01*
X151144707Y-110235500D01*
X150937493Y-110235500D01*
X150937488Y-110235500D01*
X150733805Y-110273576D01*
X150540582Y-110348431D01*
X150364408Y-110457513D01*
X150211274Y-110597112D01*
X150211274Y-110597113D01*
X150086401Y-110762471D01*
X150086399Y-110762474D01*
X149994035Y-110947967D01*
X149937330Y-111147263D01*
X149937329Y-111147269D01*
X149918210Y-111353600D01*
X149937329Y-111559930D01*
X149937330Y-111559936D01*
X149994035Y-111759232D01*
X150086399Y-111944725D01*
X150086401Y-111944728D01*
X150211274Y-112110086D01*
X150211274Y-112110087D01*
X150364407Y-112249686D01*
X150364408Y-112249686D01*
X150540585Y-112358770D01*
X150675058Y-112410864D01*
X150712224Y-112425263D01*
X150739791Y-112451585D01*
X150740671Y-112489690D01*
X150714349Y-112517257D01*
X150694234Y-112521500D01*
X148847966Y-112521500D01*
X148812752Y-112506914D01*
X148798166Y-112471700D01*
X148812752Y-112436486D01*
X148829976Y-112425263D01*
X148857257Y-112414693D01*
X149001615Y-112358770D01*
X149177792Y-112249686D01*
X149330926Y-112110086D01*
X149455800Y-111944725D01*
X149548164Y-111759235D01*
X149604871Y-111559930D01*
X149623990Y-111353600D01*
X149604871Y-111147270D01*
X149548164Y-110947965D01*
X149455800Y-110762475D01*
X149455800Y-110762474D01*
X149455798Y-110762471D01*
X149355084Y-110629105D01*
X149330926Y-110597114D01*
X149330925Y-110597113D01*
X149330925Y-110597112D01*
X149177791Y-110457513D01*
X149001617Y-110348431D01*
X149001615Y-110348430D01*
X148827805Y-110281096D01*
X148808394Y-110273576D01*
X148604711Y-110235500D01*
X148604707Y-110235500D01*
X148397493Y-110235500D01*
X148397488Y-110235500D01*
X148193805Y-110273576D01*
X148000582Y-110348431D01*
X147824408Y-110457513D01*
X147671274Y-110597112D01*
X147671274Y-110597113D01*
X147546401Y-110762471D01*
X147546399Y-110762474D01*
X147454035Y-110947967D01*
X147397330Y-111147263D01*
X147397329Y-111147269D01*
X147378210Y-111353600D01*
X147397329Y-111559930D01*
X147397330Y-111559936D01*
X147454035Y-111759232D01*
X147546399Y-111944725D01*
X147546401Y-111944728D01*
X147671274Y-112110086D01*
X147671274Y-112110087D01*
X147824408Y-112249686D01*
X148000585Y-112358770D01*
X148135058Y-112410864D01*
X148172224Y-112425263D01*
X148199791Y-112451585D01*
X148200671Y-112489690D01*
X148174349Y-112517257D01*
X148154234Y-112521500D01*
X146515301Y-112521500D01*
X146480087Y-112506914D01*
X146465501Y-112471700D01*
X146480087Y-112436486D01*
X146493108Y-112427118D01*
X146495150Y-112426101D01*
X146683125Y-112309712D01*
X146683127Y-112309710D01*
X146711920Y-112283460D01*
X146711921Y-112283459D01*
X146221574Y-111793113D01*
X146238570Y-111785352D01*
X146348969Y-111689690D01*
X146398757Y-111612217D01*
X146889877Y-112103338D01*
X146979755Y-111984322D01*
X147078305Y-111786405D01*
X147138810Y-111573755D01*
X147159210Y-111353600D01*
X147138810Y-111133444D01*
X147078305Y-110920794D01*
X146979754Y-110722875D01*
X146979753Y-110722872D01*
X146889878Y-110603859D01*
X146398756Y-111094980D01*
X146348969Y-111017510D01*
X146238570Y-110921848D01*
X146221573Y-110914085D01*
X146711920Y-110423739D01*
X146683122Y-110397487D01*
X146683116Y-110397482D01*
X146495146Y-110281096D01*
X146288980Y-110201226D01*
X146071653Y-110160600D01*
X145850546Y-110160600D01*
X145633219Y-110201226D01*
X145427053Y-110281096D01*
X145239077Y-110397486D01*
X145239069Y-110397492D01*
X145210278Y-110423737D01*
X145210278Y-110423739D01*
X145700625Y-110914086D01*
X145683630Y-110921848D01*
X145573231Y-111017510D01*
X145523442Y-111094981D01*
X145032320Y-110603859D01*
X144942446Y-110722872D01*
X144942445Y-110722875D01*
X144843894Y-110920794D01*
X144783389Y-111133444D01*
X144762989Y-111353600D01*
X144783389Y-111573755D01*
X144843894Y-111786405D01*
X144942445Y-111984324D01*
X144942446Y-111984327D01*
X145032320Y-112103339D01*
X145523442Y-111612216D01*
X145573231Y-111689690D01*
X145683630Y-111785352D01*
X145700624Y-111793113D01*
X145210278Y-112283459D01*
X145239077Y-112309712D01*
X145239083Y-112309717D01*
X145427049Y-112426101D01*
X145429092Y-112427118D01*
X145454116Y-112455869D01*
X145451481Y-112493893D01*
X145422730Y-112518917D01*
X145406899Y-112521500D01*
X143767966Y-112521500D01*
X143732752Y-112506914D01*
X143718166Y-112471700D01*
X143732752Y-112436486D01*
X143749976Y-112425263D01*
X143777257Y-112414693D01*
X143921615Y-112358770D01*
X144097792Y-112249686D01*
X144250926Y-112110086D01*
X144375800Y-111944725D01*
X144468164Y-111759235D01*
X144524871Y-111559930D01*
X144543990Y-111353600D01*
X144524871Y-111147270D01*
X144468164Y-110947965D01*
X144375800Y-110762475D01*
X144375800Y-110762474D01*
X144375798Y-110762471D01*
X144275084Y-110629105D01*
X144250926Y-110597114D01*
X144250925Y-110597113D01*
X144250925Y-110597112D01*
X144097791Y-110457513D01*
X143921617Y-110348431D01*
X143921615Y-110348430D01*
X143747805Y-110281096D01*
X143728394Y-110273576D01*
X143524711Y-110235500D01*
X143524707Y-110235500D01*
X143317493Y-110235500D01*
X143317488Y-110235500D01*
X143113805Y-110273576D01*
X142920582Y-110348431D01*
X142744408Y-110457513D01*
X142591274Y-110597112D01*
X142591274Y-110597113D01*
X142466401Y-110762471D01*
X142466399Y-110762474D01*
X142374035Y-110947967D01*
X142350899Y-111029282D01*
X142327233Y-111059160D01*
X142289372Y-111063553D01*
X142259494Y-111039887D01*
X142253200Y-111015654D01*
X142253200Y-110131013D01*
X151815300Y-110131013D01*
X151821649Y-110190075D01*
X151871471Y-110323654D01*
X151890019Y-110348431D01*
X151956912Y-110437788D01*
X152071045Y-110523228D01*
X152204626Y-110573051D01*
X152263681Y-110579400D01*
X152358518Y-110579399D01*
X152417574Y-110573051D01*
X152551155Y-110523228D01*
X152665288Y-110437788D01*
X152750728Y-110323655D01*
X152800551Y-110190074D01*
X152806900Y-110131019D01*
X152806899Y-110036182D01*
X152800551Y-109977126D01*
X152750728Y-109843545D01*
X152665288Y-109729412D01*
X152551155Y-109643972D01*
X152551153Y-109643971D01*
X152551154Y-109643971D01*
X152417576Y-109594149D01*
X152417573Y-109594148D01*
X152380714Y-109590186D01*
X152358519Y-109587800D01*
X152358514Y-109587800D01*
X152263686Y-109587800D01*
X152204624Y-109594149D01*
X152071045Y-109643971D01*
X151956913Y-109729411D01*
X151956911Y-109729413D01*
X151871471Y-109843545D01*
X151821649Y-109977123D01*
X151821648Y-109977126D01*
X151815300Y-110036185D01*
X151815300Y-110131013D01*
X142253200Y-110131013D01*
X142253200Y-106781599D01*
X144012783Y-106781599D01*
X144031568Y-106924286D01*
X144031570Y-106924295D01*
X144086644Y-107057258D01*
X144086645Y-107057260D01*
X144174258Y-107171438D01*
X144174261Y-107171441D01*
X144263907Y-107240229D01*
X144282965Y-107273238D01*
X144283338Y-107277437D01*
X144284173Y-107295499D01*
X144284200Y-107296649D01*
X144284200Y-107315539D01*
X144285077Y-107320233D01*
X144285474Y-107323658D01*
X144286914Y-107354792D01*
X144292598Y-107367664D01*
X144295993Y-107378627D01*
X144298579Y-107392463D01*
X144314984Y-107418955D01*
X144316594Y-107422010D01*
X144329183Y-107450521D01*
X144339136Y-107460474D01*
X144346262Y-107469471D01*
X144353668Y-107481433D01*
X144367421Y-107491818D01*
X144378537Y-107500212D01*
X144381136Y-107502474D01*
X144582153Y-107703492D01*
X144587983Y-107711595D01*
X144588086Y-107711518D01*
X144590864Y-107715197D01*
X144624311Y-107745688D01*
X144625143Y-107746482D01*
X144638519Y-107759858D01*
X144641666Y-107762014D01*
X144642469Y-107762564D01*
X144645161Y-107764695D01*
X144668199Y-107785698D01*
X144681324Y-107790782D01*
X144691472Y-107796131D01*
X144703084Y-107804086D01*
X144733425Y-107811221D01*
X144736698Y-107812235D01*
X144765778Y-107823500D01*
X144779856Y-107823500D01*
X144791256Y-107824822D01*
X144804949Y-107828043D01*
X144825637Y-107825157D01*
X144835811Y-107823739D01*
X144839254Y-107823500D01*
X147142701Y-107823500D01*
X147177915Y-107838086D01*
X147192501Y-107873300D01*
X147192501Y-108196166D01*
X147202844Y-108248167D01*
X147202846Y-108248172D01*
X147242251Y-108307145D01*
X147242254Y-108307148D01*
X147301229Y-108346554D01*
X147301231Y-108346555D01*
X147353239Y-108356900D01*
X148023360Y-108356899D01*
X148023362Y-108356898D01*
X148023366Y-108356898D01*
X148031829Y-108355214D01*
X148075369Y-108346555D01*
X148075376Y-108346549D01*
X148075632Y-108346445D01*
X148075921Y-108346444D01*
X148080180Y-108345598D01*
X148080348Y-108346444D01*
X148109052Y-108346437D01*
X148109220Y-108345598D01*
X148113438Y-108346437D01*
X148113747Y-108346437D01*
X148113759Y-108346442D01*
X148114029Y-108346553D01*
X148114031Y-108346555D01*
X148166039Y-108356900D01*
X148171396Y-108356899D01*
X148206609Y-108371481D01*
X148221200Y-108406693D01*
X148221200Y-108677034D01*
X148206614Y-108712248D01*
X148018748Y-108900114D01*
X147983534Y-108914700D01*
X147729858Y-108914700D01*
X147694644Y-108900114D01*
X147690349Y-108895216D01*
X147667870Y-108865921D01*
X147620940Y-108804760D01*
X147620938Y-108804758D01*
X147506760Y-108717145D01*
X147506758Y-108717144D01*
X147373795Y-108662070D01*
X147373786Y-108662068D01*
X147231100Y-108643283D01*
X147088413Y-108662068D01*
X147088404Y-108662070D01*
X146955442Y-108717144D01*
X146955440Y-108717145D01*
X146841261Y-108804758D01*
X146841258Y-108804761D01*
X146753645Y-108918940D01*
X146753644Y-108918942D01*
X146698570Y-109051904D01*
X146698568Y-109051913D01*
X146679783Y-109194599D01*
X146698568Y-109337286D01*
X146698570Y-109337295D01*
X146753644Y-109470258D01*
X146753645Y-109470260D01*
X146841258Y-109584438D01*
X146841261Y-109584441D01*
X146955439Y-109672054D01*
X146955441Y-109672055D01*
X147088409Y-109727131D01*
X147231100Y-109745917D01*
X147373791Y-109727131D01*
X147506759Y-109672055D01*
X147620940Y-109584440D01*
X147690350Y-109493983D01*
X147723360Y-109474926D01*
X147729860Y-109474500D01*
X148066317Y-109474500D01*
X148076171Y-109476107D01*
X148076189Y-109475980D01*
X148080754Y-109476616D01*
X148080760Y-109476618D01*
X148108527Y-109475334D01*
X148125999Y-109474527D01*
X148127149Y-109474500D01*
X148146032Y-109474500D01*
X148146035Y-109474500D01*
X148146038Y-109474499D01*
X148146042Y-109474499D01*
X148150731Y-109473622D01*
X148154163Y-109473224D01*
X148171653Y-109472415D01*
X148185293Y-109471785D01*
X148198167Y-109466099D01*
X148209122Y-109462706D01*
X148222963Y-109460120D01*
X148249479Y-109443700D01*
X148252501Y-109442108D01*
X148281022Y-109429516D01*
X148290977Y-109419560D01*
X148299965Y-109412440D01*
X148311933Y-109405031D01*
X148330718Y-109380153D01*
X148332968Y-109377568D01*
X148660992Y-109049545D01*
X148669092Y-109043719D01*
X148669015Y-109043616D01*
X148672695Y-109040835D01*
X148672699Y-109040834D01*
X148703208Y-109007365D01*
X148703972Y-109006565D01*
X148717358Y-108993181D01*
X148720062Y-108989232D01*
X148722193Y-108986540D01*
X148743198Y-108963501D01*
X148748283Y-108950372D01*
X148753630Y-108940229D01*
X148761586Y-108928616D01*
X148768720Y-108898281D01*
X148769740Y-108894986D01*
X148781000Y-108865922D01*
X148781000Y-108851844D01*
X148782323Y-108840441D01*
X148785543Y-108826751D01*
X148782476Y-108804760D01*
X148781239Y-108795889D01*
X148781000Y-108792446D01*
X148781000Y-108432364D01*
X148795586Y-108397150D01*
X148830800Y-108382564D01*
X148858468Y-108390957D01*
X148897607Y-108417109D01*
X148897606Y-108417109D01*
X148971461Y-108431799D01*
X148971468Y-108431800D01*
X149656332Y-108431800D01*
X149656338Y-108431799D01*
X149730193Y-108417109D01*
X149730195Y-108417108D01*
X149813946Y-108361148D01*
X149869406Y-108278145D01*
X149170075Y-107578814D01*
X149155489Y-107543600D01*
X149155489Y-107543599D01*
X149492939Y-107543599D01*
X149884599Y-107935259D01*
X149884600Y-107935259D01*
X149884600Y-107151939D01*
X149884599Y-107151939D01*
X149492939Y-107543599D01*
X149155489Y-107543599D01*
X149170075Y-107508386D01*
X149313900Y-107364561D01*
X149727512Y-106950948D01*
X152673854Y-106950948D01*
X152673854Y-109479545D01*
X154055170Y-109479545D01*
X154055170Y-106950948D01*
X152673854Y-106950948D01*
X149727512Y-106950948D01*
X149869406Y-106809053D01*
X149813948Y-106726054D01*
X149813945Y-106726051D01*
X149730195Y-106670091D01*
X149730193Y-106670090D01*
X149656338Y-106655400D01*
X148971461Y-106655400D01*
X148897606Y-106670090D01*
X148897604Y-106670091D01*
X148820058Y-106721907D01*
X148792391Y-106730300D01*
X148166040Y-106730300D01*
X148166030Y-106730301D01*
X148114027Y-106740644D01*
X148113747Y-106740761D01*
X148113443Y-106740760D01*
X148109220Y-106741601D01*
X148109052Y-106740760D01*
X148080347Y-106740760D01*
X148080180Y-106741602D01*
X148075946Y-106740760D01*
X148075649Y-106740760D01*
X148075373Y-106740645D01*
X148033762Y-106732369D01*
X148023361Y-106730300D01*
X148023360Y-106730300D01*
X147353240Y-106730300D01*
X147353233Y-106730301D01*
X147301232Y-106740644D01*
X147301227Y-106740646D01*
X147242254Y-106780051D01*
X147242251Y-106780054D01*
X147202845Y-106839029D01*
X147202844Y-106839031D01*
X147192500Y-106891036D01*
X147192500Y-107213900D01*
X147177914Y-107249114D01*
X147142700Y-107263700D01*
X144980411Y-107263700D01*
X144945197Y-107249114D01*
X144930611Y-107213900D01*
X144945197Y-107178686D01*
X144950094Y-107174392D01*
X144953936Y-107171443D01*
X144953935Y-107171443D01*
X144953940Y-107171440D01*
X145041555Y-107057259D01*
X145096631Y-106924291D01*
X145115417Y-106781600D01*
X145096631Y-106638909D01*
X145041555Y-106505942D01*
X145041554Y-106505940D01*
X144953941Y-106391761D01*
X144953938Y-106391758D01*
X144839760Y-106304145D01*
X144839758Y-106304144D01*
X144706795Y-106249070D01*
X144706786Y-106249068D01*
X144564100Y-106230283D01*
X144421413Y-106249068D01*
X144421404Y-106249070D01*
X144288442Y-106304144D01*
X144288440Y-106304145D01*
X144174261Y-106391758D01*
X144174258Y-106391761D01*
X144086645Y-106505940D01*
X144086644Y-106505942D01*
X144031570Y-106638904D01*
X144031568Y-106638913D01*
X144012783Y-106781599D01*
X142253200Y-106781599D01*
X142253200Y-105003599D01*
X147060783Y-105003599D01*
X147079568Y-105146286D01*
X147079570Y-105146295D01*
X147134644Y-105279258D01*
X147134645Y-105279260D01*
X147222258Y-105393438D01*
X147222261Y-105393441D01*
X147336439Y-105481054D01*
X147336441Y-105481055D01*
X147469409Y-105536131D01*
X147612100Y-105554917D01*
X147754791Y-105536131D01*
X147887759Y-105481055D01*
X148001940Y-105393440D01*
X148071350Y-105302983D01*
X148104360Y-105283926D01*
X148110860Y-105283500D01*
X151812340Y-105283500D01*
X151847554Y-105298086D01*
X151851849Y-105302983D01*
X151921258Y-105393438D01*
X151921261Y-105393441D01*
X152035439Y-105481054D01*
X152035441Y-105481055D01*
X152168409Y-105536131D01*
X152311100Y-105554917D01*
X152453791Y-105536131D01*
X152586759Y-105481055D01*
X152700940Y-105393440D01*
X152788555Y-105279259D01*
X152843631Y-105146291D01*
X152862417Y-105003600D01*
X152843631Y-104860909D01*
X152788555Y-104727942D01*
X152788554Y-104727940D01*
X152700941Y-104613761D01*
X152700938Y-104613758D01*
X152586760Y-104526145D01*
X152586758Y-104526144D01*
X152453795Y-104471070D01*
X152453786Y-104471068D01*
X152311100Y-104452283D01*
X152168413Y-104471068D01*
X152168404Y-104471070D01*
X152035442Y-104526144D01*
X152035440Y-104526145D01*
X151921261Y-104613758D01*
X151921258Y-104613761D01*
X151851851Y-104704216D01*
X151818842Y-104723274D01*
X151812342Y-104723700D01*
X148110858Y-104723700D01*
X148075644Y-104709114D01*
X148071349Y-104704216D01*
X148001941Y-104613761D01*
X148001938Y-104613758D01*
X147887760Y-104526145D01*
X147887758Y-104526144D01*
X147754795Y-104471070D01*
X147754786Y-104471068D01*
X147612100Y-104452283D01*
X147469413Y-104471068D01*
X147469404Y-104471070D01*
X147336442Y-104526144D01*
X147336440Y-104526145D01*
X147222261Y-104613758D01*
X147222258Y-104613761D01*
X147134645Y-104727940D01*
X147134644Y-104727942D01*
X147079570Y-104860904D01*
X147079568Y-104860913D01*
X147060783Y-105003599D01*
X142253200Y-105003599D01*
X142253200Y-98701013D01*
X142925300Y-98701013D01*
X142931649Y-98760075D01*
X142981471Y-98893654D01*
X142981472Y-98893655D01*
X143066912Y-99007788D01*
X143181045Y-99093228D01*
X143314626Y-99143051D01*
X143373681Y-99149400D01*
X143468518Y-99149399D01*
X143527574Y-99143051D01*
X143661155Y-99093228D01*
X143775288Y-99007788D01*
X143860728Y-98893655D01*
X143910551Y-98760074D01*
X143916900Y-98701019D01*
X143916899Y-98606182D01*
X143910551Y-98547126D01*
X143860728Y-98413545D01*
X143775288Y-98299412D01*
X143661155Y-98213972D01*
X143661153Y-98213971D01*
X143661154Y-98213971D01*
X143527576Y-98164149D01*
X143527573Y-98164148D01*
X143490714Y-98160186D01*
X143468519Y-98157800D01*
X143468514Y-98157800D01*
X143373686Y-98157800D01*
X143314624Y-98164149D01*
X143181045Y-98213971D01*
X143066913Y-98299411D01*
X143066911Y-98299413D01*
X142981471Y-98413545D01*
X142931649Y-98547123D01*
X142931648Y-98547126D01*
X142925300Y-98606185D01*
X142925300Y-98701013D01*
X142253200Y-98701013D01*
X142253200Y-97535500D01*
X142267786Y-97500286D01*
X142303000Y-97485700D01*
X154699200Y-97485700D01*
X154734414Y-97500286D01*
G37*
%TD.AperFunction*%
%TD*%
M02*
