%TF.GenerationSoftware,KiCad,Pcbnew,7.0.6-7.0.6~ubuntu22.04.1*%
%TF.CreationDate,2023-08-06T18:27:30+01:00*%
%TF.ProjectId,working,776f726b-696e-4672-9e6b-696361645f70,rev?*%
%TF.SameCoordinates,Original*%
%TF.FileFunction,Soldermask,Top*%
%TF.FilePolarity,Negative*%
%FSLAX46Y46*%
G04 Gerber Fmt 4.6, Leading zero omitted, Abs format (unit mm)*
G04 Created by KiCad (PCBNEW 7.0.6-7.0.6~ubuntu22.04.1) date 2023-08-06 18:27:30*
%MOMM*%
%LPD*%
G01*
G04 APERTURE LIST*
G04 Aperture macros list*
%AMRoundRect*
0 Rectangle with rounded corners*
0 $1 Rounding radius*
0 $2 $3 $4 $5 $6 $7 $8 $9 X,Y pos of 4 corners*
0 Add a 4 corners polygon primitive as box body*
4,1,4,$2,$3,$4,$5,$6,$7,$8,$9,$2,$3,0*
0 Add four circle primitives for the rounded corners*
1,1,$1+$1,$2,$3*
1,1,$1+$1,$4,$5*
1,1,$1+$1,$6,$7*
1,1,$1+$1,$8,$9*
0 Add four rect primitives between the rounded corners*
20,1,$1+$1,$2,$3,$4,$5,0*
20,1,$1+$1,$4,$5,$6,$7,0*
20,1,$1+$1,$6,$7,$8,$9,0*
20,1,$1+$1,$8,$9,$2,$3,0*%
G04 Aperture macros list end*
%ADD10RoundRect,0.101600X-0.317500X-0.635000X0.317500X-0.635000X0.317500X0.635000X-0.317500X0.635000X0*%
%ADD11RoundRect,0.101600X0.635000X-0.317500X0.635000X0.317500X-0.635000X0.317500X-0.635000X-0.317500X0*%
%ADD12RoundRect,0.101600X-0.550000X-0.500000X0.550000X-0.500000X0.550000X0.500000X-0.550000X0.500000X0*%
%ADD13RoundRect,0.101600X0.200000X-0.350000X0.200000X0.350000X-0.200000X0.350000X-0.200000X-0.350000X0*%
%ADD14RoundRect,0.101600X-0.200000X0.350000X-0.200000X-0.350000X0.200000X-0.350000X0.200000X0.350000X0*%
%ADD15RoundRect,0.101600X-0.500000X0.550000X-0.500000X-0.550000X0.500000X-0.550000X0.500000X0.550000X0*%
%ADD16C,2.082800*%
%ADD17RoundRect,0.101600X0.550000X0.500000X-0.550000X0.500000X-0.550000X-0.500000X0.550000X-0.500000X0*%
G04 APERTURE END LIST*
%TO.C,JP1*%
G36*
X141706600Y-97510600D02*
G01*
X141325600Y-97510600D01*
X141325600Y-97002600D01*
X141706600Y-97002600D01*
X141706600Y-97510600D01*
G37*
G36*
X141706600Y-96494600D02*
G01*
X141325600Y-96494600D01*
X141325600Y-95986600D01*
X141706600Y-95986600D01*
X141706600Y-96494600D01*
G37*
%TO.C,U3*%
G36*
X151656100Y-103748600D02*
G01*
X149445745Y-103748600D01*
X149156100Y-103458955D01*
X149156100Y-102448600D01*
X151656100Y-102448600D01*
X151656100Y-103748600D01*
G37*
%TD*%
D10*
%TO.C,JP4*%
X143599700Y-105638600D03*
X144512500Y-105638600D03*
%TD*%
D11*
%TO.C,JP1*%
X141516100Y-97764600D03*
X141516100Y-96748600D03*
X141516100Y-95732600D03*
%TD*%
D12*
%TO.C,R2*%
X150826100Y-108178600D03*
X152526100Y-108178600D03*
%TD*%
D13*
%TO.C,U3*%
X149206100Y-104198600D03*
X149806100Y-104198600D03*
X150406100Y-104198600D03*
X151006100Y-104198600D03*
X151606100Y-104198600D03*
D14*
X151606100Y-101998600D03*
X151006100Y-101998600D03*
X150406100Y-101998600D03*
X149806100Y-101998600D03*
X149206100Y-101998600D03*
%TD*%
D15*
%TO.C,R6*%
X146596100Y-106058600D03*
X146596100Y-107758600D03*
%TD*%
D12*
%TO.C,R10*%
X149556100Y-98018600D03*
X151256100Y-98018600D03*
%TD*%
D16*
%TO.C,R12*%
X150406100Y-95478600D03*
X152946100Y-95478600D03*
%TD*%
%TO.C,J8*%
X156756100Y-114528600D03*
X154216100Y-114528600D03*
X151676100Y-114528600D03*
X149136100Y-114528600D03*
%TD*%
D12*
%TO.C,C2*%
X153366100Y-98018600D03*
X155066100Y-98018600D03*
%TD*%
D16*
%TO.C,J2*%
X146596100Y-114528600D03*
X144056100Y-114528600D03*
X141516100Y-114528600D03*
%TD*%
D17*
%TO.C,R13*%
X147446100Y-95478600D03*
X145746100Y-95478600D03*
%TD*%
%TO.C,R14*%
X147446100Y-99288600D03*
X145746100Y-99288600D03*
%TD*%
M02*
