M48
; DRILL file {KiCad 7.0.6-7.0.6~ubuntu22.04.1} date Sun 06 Aug 2023 21:51:42 BST
; FORMAT={-:-/ absolute / metric / decimal}
; #@! TF.CreationDate,2023-08-06T21:51:42+01:00
; #@! TF.GenerationSoftware,Kicad,Pcbnew,7.0.6-7.0.6~ubuntu22.04.1
; #@! TF.FileFunction,MixedPlating,1,2
FMAT,2
METRIC
; #@! TA.AperFunction,Plated,PTH,ViaDrill
T1C0.381
; #@! TA.AperFunction,Plated,PTH,ViaDrill
T2C0.508
; #@! TA.AperFunction,Plated,PTH,ComponentDrill
T3C4.000
; #@! TA.AperFunction,NonPlated,NPTH,ComponentDrill
T4C0.381
%
G90
G05
T1
X118.656Y15.011
X118.656Y-35.027
X118.656Y-85.065
X118.656Y-135.103
X118.656Y-185.141
X118.656Y-235.179
X151.295Y25.806
X151.295Y21.996
X151.295Y-24.232
X151.295Y-28.042
X151.295Y-74.27
X151.295Y-78.08
X151.295Y-124.308
X151.295Y-128.118
X151.295Y-174.346
X151.295Y-178.156
X151.295Y-224.384
X151.295Y-228.194
T2
X181.775Y17.424
X181.775Y-32.614
X181.775Y-82.652
X181.775Y-132.69
X181.775Y-182.728
X181.775Y-232.766
T3
X109.766Y0.787
X109.766Y-49.251
X109.766Y-99.289
X109.766Y-149.327
X109.766Y-199.365
X109.766Y-249.403
X112.941Y11.582
X112.941Y-38.456
X112.941Y-88.494
X112.941Y-138.532
X112.941Y-188.57
X112.941Y-238.608
X118.656Y33.172
X118.656Y27.33
X118.656Y-16.866
X118.656Y-22.708
X118.656Y-66.904
X118.656Y-72.746
X118.656Y-116.942
X118.656Y-122.784
X118.656Y-166.98
X118.656Y-172.822
X118.656Y-217.018
X118.656Y-222.86
X124.371Y11.582
X124.371Y-38.456
X124.371Y-88.494
X124.371Y-138.532
X124.371Y-188.57
X124.371Y-238.608
X140.246Y14.63
X140.246Y8.788
X140.246Y-35.408
X140.246Y-41.25
X140.246Y-85.446
X140.246Y-91.288
X140.246Y-135.484
X140.246Y-141.326
X140.246Y-185.522
X140.246Y-191.364
X140.246Y-235.56
X140.246Y-241.402
X148.501Y33.68
X148.501Y14.63
X148.501Y8.788
X148.501Y-16.358
X148.501Y-35.408
X148.501Y-41.25
X148.501Y-66.396
X148.501Y-85.446
X148.501Y-91.288
X148.501Y-116.434
X148.501Y-135.484
X148.501Y-141.326
X148.501Y-166.472
X148.501Y-185.522
X148.501Y-191.364
X148.501Y-216.51
X148.501Y-235.56
X148.501Y-241.402
X156.756Y14.63
X156.756Y8.788
X156.756Y-35.408
X156.756Y-41.25
X156.756Y-85.446
X156.756Y-91.288
X156.756Y-135.484
X156.756Y-141.326
X156.756Y-185.522
X156.756Y-191.364
X156.756Y-235.56
X156.756Y-241.402
X172.631Y11.582
X172.631Y-38.456
X172.631Y-88.494
X172.631Y-138.532
X172.631Y-188.57
X172.631Y-238.608
X178.346Y33.172
X178.346Y27.33
X178.346Y-16.866
X178.346Y-22.708
X178.346Y-66.904
X178.346Y-72.746
X178.346Y-116.942
X178.346Y-122.784
X178.346Y-166.98
X178.346Y-172.822
X178.346Y-217.018
X178.346Y-222.86
X184.061Y11.582
X184.061Y-38.456
X184.061Y-88.494
X184.061Y-138.532
X184.061Y-188.57
X184.061Y-238.608
X187.236Y0.787
X187.236Y-49.251
X187.236Y-99.289
X187.236Y-149.327
X187.236Y-199.365
X187.236Y-249.403
T4
X107.861Y21.742
X107.861Y20.726
X107.861Y-28.296
X107.861Y-29.312
X107.861Y-78.334
X107.861Y-79.35
X107.861Y-128.372
X107.861Y-129.388
X107.861Y-178.41
X107.861Y-179.426
X107.861Y-228.448
X107.861Y-229.464
X118.148Y37.998
X118.148Y5.867
X118.148Y-12.04
X118.148Y-44.171
X118.148Y-62.078
X118.148Y-94.209
X118.148Y-112.116
X118.148Y-144.247
X118.148Y-162.154
X118.148Y-194.285
X118.148Y-212.192
X118.148Y-244.323
X119.164Y37.998
X119.164Y5.867
X119.164Y-12.04
X119.164Y-44.171
X119.164Y-62.078
X119.164Y-94.209
X119.164Y-112.116
X119.164Y-144.247
X119.164Y-162.154
X119.164Y-194.285
X119.164Y-212.192
X119.164Y-244.323
X129.451Y21.869
X129.451Y20.853
X129.451Y-28.169
X129.451Y-29.185
X129.451Y-78.207
X129.451Y-79.223
X129.451Y-128.245
X129.451Y-129.261
X129.451Y-178.283
X129.451Y-179.299
X129.451Y-228.321
X129.451Y-229.337
X135.801Y21.869
X135.801Y20.853
X135.801Y-28.169
X135.801Y-29.185
X135.801Y-78.207
X135.801Y-79.223
X135.801Y-128.245
X135.801Y-129.261
X135.801Y-178.283
X135.801Y-179.299
X135.801Y-228.321
X135.801Y-229.337
X147.993Y39.395
X147.993Y4.089
X147.993Y-10.643
X147.993Y-45.949
X147.993Y-60.681
X147.993Y-95.987
X147.993Y-110.719
X147.993Y-146.025
X147.993Y-160.757
X147.993Y-196.063
X147.993Y-210.795
X147.993Y-246.101
X149.009Y39.395
X149.009Y4.089
X149.009Y-10.643
X149.009Y-45.949
X149.009Y-60.681
X149.009Y-95.987
X149.009Y-110.719
X149.009Y-146.025
X149.009Y-160.757
X149.009Y-196.063
X149.009Y-210.795
X149.009Y-246.101
X161.201Y21.869
X161.201Y20.853
X161.201Y-28.169
X161.201Y-29.185
X161.201Y-78.207
X161.201Y-79.223
X161.201Y-128.245
X161.201Y-129.261
X161.201Y-178.283
X161.201Y-179.299
X161.201Y-228.321
X161.201Y-229.337
X167.424Y21.869
X167.424Y20.853
X167.424Y-28.169
X167.424Y-29.185
X167.424Y-78.207
X167.424Y-79.223
X167.424Y-128.245
X167.424Y-129.261
X167.424Y-178.283
X167.424Y-179.299
X167.424Y-228.321
X167.424Y-229.337
X177.838Y38.125
X177.838Y5.994
X177.838Y-11.913
X177.838Y-44.044
X177.838Y-61.951
X177.838Y-94.082
X177.838Y-111.989
X177.838Y-144.12
X177.838Y-162.027
X177.838Y-194.158
X177.838Y-212.065
X177.838Y-244.196
X178.854Y38.125
X178.854Y5.994
X178.854Y-11.913
X178.854Y-44.044
X178.854Y-61.951
X178.854Y-94.082
X178.854Y-111.989
X178.854Y-144.12
X178.854Y-162.027
X178.854Y-194.158
X178.854Y-212.065
X178.854Y-244.196
X189.268Y21.869
X189.268Y20.853
X189.268Y-28.169
X189.268Y-29.185
X189.268Y-78.207
X189.268Y-79.223
X189.268Y-128.245
X189.268Y-129.261
X189.268Y-178.283
X189.268Y-179.299
X189.268Y-228.321
X189.268Y-229.337
T0
M30
